<?xml version="1.0" encoding="utf-8"?>
<svg style="background-color: #000;" version="1.1" viewBox="0 0 100.0 100.0" xmlns="http://www.w3.org/2000/svg" xmlns:inkscape="http://www.inkscape.org/namespaces/inkscape">
 <g id="layerCAR" inkscape:groupmode="layer" inkscape:label="CAR">
  <path d="M 85.6126845,56.52067499999998 L 85.6126845,54.92067500000002" fill="none" instance-id="-1" semantic-id="35" stroke="rgb(26,39,53)" stroke-width="0.1"/>
  <path d="M 100.0,54.92067500000002 L 85.6126845,54.92067500000002" fill="none" instance-id="-1" semantic-id="35" stroke="rgb(26,39,53)" stroke-width="0.1"/>
  <path d="M 100.0,56.52067499999998 L 85.6126845,56.52067499999998" fill="none" instance-id="-1" semantic-id="35" stroke="rgb(26,39,53)" stroke-width="0.1"/>
  <path d="M 100.0,68.72067499999997 L 83.1126845,68.72067499999997" fill="none" instance-id="-1" semantic-id="35" stroke="rgb(26,39,53)" stroke-width="0.1"/>
  <path d="M 83.1126845,15.720674999999972 L 100.0,15.720674999999972" fill="none" instance-id="-1" semantic-id="35" stroke="rgb(26,39,53)" stroke-width="0.1"/>
  <path d="M 83.1126845,68.72067499999997 L 83.1126845,15.720674999999972" fill="none" instance-id="-1" semantic-id="35" stroke="rgb(26,39,53)" stroke-width="0.1"/>
  <path d="M 100.0,55.72067499999997 L 85.6126845,55.72067499999997" fill="none" instance-id="-1" semantic-id="35" stroke="rgb(26,39,53)" stroke-width="0.1"/>
  <path d="M 72.17868449999997,56.52067499999998 L 72.17868449999997,54.92067500000002" fill="none" instance-id="-1" semantic-id="35" stroke="rgb(26,39,53)" stroke-width="0.1"/>
  <path d="M 53.178684499999974,54.92067500000002 L 53.178684499999974,56.52067499999998" fill="none" instance-id="-1" semantic-id="35" stroke="rgb(26,39,53)" stroke-width="0.1"/>
  <path d="M 53.178684499999974,54.92067500000002 L 72.17868449999997,54.92067500000002" fill="none" instance-id="-1" semantic-id="35" stroke="rgb(26,39,53)" stroke-width="0.1"/>
  <path d="M 53.178684499999974,56.52067499999998 L 72.17868449999997,56.52067499999998" fill="none" instance-id="-1" semantic-id="35" stroke="rgb(26,39,53)" stroke-width="0.1"/>
  <path d="M 50.678684499999974,68.72067499999997 L 74.67868449999997,68.72067499999997" fill="none" instance-id="-1" semantic-id="35" stroke="rgb(26,39,53)" stroke-width="0.1"/>
  <path d="M 50.678684499999974,15.720674999999972 L 50.678684499999974,68.72067499999997" fill="none" instance-id="-1" semantic-id="35" stroke="rgb(26,39,53)" stroke-width="0.1"/>
  <path d="M 74.67868449999997,15.720674999999972 L 50.678684499999974,15.720674999999972" fill="none" instance-id="-1" semantic-id="35" stroke="rgb(26,39,53)" stroke-width="0.1"/>
  <path d="M 74.67868449999997,68.72067499999997 L 74.67868449999997,15.720674999999972" fill="none" instance-id="-1" semantic-id="35" stroke="rgb(26,39,53)" stroke-width="0.1"/>
  <path d="M 53.178684499999974,55.72067499999997 L 72.17868449999997,55.72067499999997" fill="none" instance-id="-1" semantic-id="35" stroke="rgb(26,39,53)" stroke-width="0.1"/>
  <path d="M 48.178684499999974,56.52067499999998 L 48.178684499999974,54.92067500000002" fill="none" instance-id="-1" semantic-id="35" stroke="rgb(26,39,53)" stroke-width="0.1"/>
  <path d="M 29.178684499999974,54.92067500000002 L 29.178684499999974,56.52067499999998" fill="none" instance-id="-1" semantic-id="35" stroke="rgb(26,39,53)" stroke-width="0.1"/>
  <path d="M 29.178684499999974,54.92067500000002 L 48.178684499999974,54.92067500000002" fill="none" instance-id="-1" semantic-id="35" stroke="rgb(26,39,53)" stroke-width="0.1"/>
  <path d="M 29.178684499999974,56.52067499999998 L 48.178684499999974,56.52067499999998" fill="none" instance-id="-1" semantic-id="35" stroke="rgb(26,39,53)" stroke-width="0.1"/>
  <path d="M 26.678684499999974,68.72067499999997 L 50.678684499999974,68.72067499999997" fill="none" instance-id="-1" semantic-id="35" stroke="rgb(26,39,53)" stroke-width="0.1"/>
  <path d="M 26.678684499999974,15.720674999999972 L 26.678684499999974,68.72067499999997" fill="none" instance-id="-1" semantic-id="35" stroke="rgb(26,39,53)" stroke-width="0.1"/>
  <path d="M 50.678684499999974,15.720674999999972 L 26.678684499999974,15.720674999999972" fill="none" instance-id="-1" semantic-id="35" stroke="rgb(26,39,53)" stroke-width="0.1"/>
  <path d="M 50.678684499999974,68.72067499999997 L 50.678684499999974,15.720674999999972" fill="none" instance-id="-1" semantic-id="35" stroke="rgb(26,39,53)" stroke-width="0.1"/>
  <path d="M 29.178684499999974,55.72067499999997 L 48.178684499999974,55.72067499999997" fill="none" instance-id="-1" semantic-id="35" stroke="rgb(26,39,53)" stroke-width="0.1"/>
  <path d="M 24.178684499999974,56.52067499999998 L 24.178684499999974,54.92067500000002" fill="none" instance-id="-1" semantic-id="35" stroke="rgb(26,39,53)" stroke-width="0.1"/>
  <path d="M 5.178684499999974,54.92067500000002 L 5.178684499999974,56.52067499999998" fill="none" instance-id="-1" semantic-id="35" stroke="rgb(26,39,53)" stroke-width="0.1"/>
  <path d="M 5.178684499999974,54.92067500000002 L 24.178684499999974,54.92067500000002" fill="none" instance-id="-1" semantic-id="35" stroke="rgb(26,39,53)" stroke-width="0.1"/>
  <path d="M 5.178684499999974,56.52067499999998 L 24.178684499999974,56.52067499999998" fill="none" instance-id="-1" semantic-id="35" stroke="rgb(26,39,53)" stroke-width="0.1"/>
  <path d="M 2.6786844999999744,68.72067499999997 L 26.678684499999974,68.72067499999997" fill="none" instance-id="-1" semantic-id="35" stroke="rgb(26,39,53)" stroke-width="0.1"/>
  <path d="M 2.6786844999999744,15.720674999999972 L 2.6786844999999744,68.72067499999997" fill="none" instance-id="-1" semantic-id="35" stroke="rgb(26,39,53)" stroke-width="0.1"/>
  <path d="M 26.678684499999974,15.720674999999972 L 2.6786844999999744,15.720674999999972" fill="none" instance-id="-1" semantic-id="35" stroke="rgb(26,39,53)" stroke-width="0.1"/>
  <path d="M 26.678684499999974,68.72067499999997 L 26.678684499999974,15.720674999999972" fill="none" instance-id="-1" semantic-id="35" stroke="rgb(26,39,53)" stroke-width="0.1"/>
  <path d="M 5.178684499999974,55.72067499999997 L 24.178684499999974,55.72067499999997" fill="none" instance-id="-1" semantic-id="35" stroke="rgb(26,39,53)" stroke-width="0.1"/>
  <path d="M 46.575684499999966,83.940675 L 46.575684499999966,85.54067499999996" fill="none" instance-id="-1" semantic-id="35" stroke="rgb(26,39,53)" stroke-width="0.1"/>
  <path d="M 27.575684499999966,85.54067499999996 L 27.575684499999966,83.940675" fill="none" instance-id="-1" semantic-id="35" stroke="rgb(26,39,53)" stroke-width="0.1"/>
  <path d="M 27.575684499999966,85.54067499999996 L 46.575684499999966,85.54067499999996" fill="none" instance-id="-1" semantic-id="35" stroke="rgb(26,39,53)" stroke-width="0.1"/>
  <path d="M 27.575684499999966,83.940675 L 46.575684499999966,83.940675" fill="none" instance-id="-1" semantic-id="35" stroke="rgb(26,39,53)" stroke-width="0.1"/>
  <path d="M 25.075684499999966,71.74067500000001 L 49.075684499999966,71.74067500000001" fill="none" instance-id="-1" semantic-id="35" stroke="rgb(26,39,53)" stroke-width="0.1"/>
  <path d="M 25.075684499999966,100.0 L 25.075684499999966,71.74067500000001" fill="none" instance-id="-1" semantic-id="35" stroke="rgb(26,39,53)" stroke-width="0.1"/>
  <path d="M 49.075684499999966,71.74067500000001 L 49.075684499999966,100.0" fill="none" instance-id="-1" semantic-id="35" stroke="rgb(26,39,53)" stroke-width="0.1"/>
  <path d="M 27.575684499999966,84.74067500000001 L 46.575684499999966,84.74067500000001" fill="none" instance-id="-1" semantic-id="35" stroke="rgb(26,39,53)" stroke-width="0.1"/>
  <path d="M 22.575684499999966,83.940675 L 22.575684499999966,85.54067499999996" fill="none" instance-id="-1" semantic-id="35" stroke="rgb(26,39,53)" stroke-width="0.1"/>
  <path d="M 3.5756844999999657,85.54067499999996 L 3.5756844999999657,83.940675" fill="none" instance-id="-1" semantic-id="35" stroke="rgb(26,39,53)" stroke-width="0.1"/>
  <path d="M 3.5756844999999657,85.54067499999996 L 22.575684499999966,85.54067499999996" fill="none" instance-id="-1" semantic-id="35" stroke="rgb(26,39,53)" stroke-width="0.1"/>
  <path d="M 3.5756844999999657,83.940675 L 22.575684499999966,83.940675" fill="none" instance-id="-1" semantic-id="35" stroke="rgb(26,39,53)" stroke-width="0.1"/>
  <path d="M 1.0756844999999657,71.74067500000001 L 25.075684499999966,71.74067500000001" fill="none" instance-id="-1" semantic-id="35" stroke="rgb(26,39,53)" stroke-width="0.1"/>
  <path d="M 1.0756844999999657,100.0 L 1.0756844999999657,71.74067500000001" fill="none" instance-id="-1" semantic-id="35" stroke="rgb(26,39,53)" stroke-width="0.1"/>
  <path d="M 25.075684499999966,71.74067500000001 L 25.075684499999966,100.0" fill="none" instance-id="-1" semantic-id="35" stroke="rgb(26,39,53)" stroke-width="0.1"/>
  <path d="M 3.5756844999999657,84.74067500000001 L 22.575684499999966,84.74067500000001" fill="none" instance-id="-1" semantic-id="35" stroke="rgb(26,39,53)" stroke-width="0.1"/>
  <path d="M 86.1126845,66.22067499999997 L 100.0,66.22067499999997" fill="none" instance-id="-1" semantic-id="35" stroke="rgb(26,39,53)" stroke-width="0.1"/>
  <path d="M 100.0,18.22067499999997 L 86.1126845,18.22067499999997" fill="none" instance-id="-1" semantic-id="35" stroke="rgb(26,39,53)" stroke-width="0.1"/>
  <path d="M 86.1126845,18.22067499999997 L 86.1126845,66.22067499999997" fill="none" instance-id="-1" semantic-id="35" stroke="rgb(26,39,53)" stroke-width="0.1"/>
  <path d="M 71.67868449999997,66.22067499999997 L 53.678684499999974,66.22067499999997" fill="none" instance-id="-1" semantic-id="35" stroke="rgb(26,39,53)" stroke-width="0.1"/>
  <path d="M 53.678684499999974,66.22067499999997 L 53.678684499999974,18.22067499999997" fill="none" instance-id="-1" semantic-id="35" stroke="rgb(26,39,53)" stroke-width="0.1"/>
  <path d="M 53.678684499999974,18.22067499999997 L 71.67868449999997,18.22067499999997" fill="none" instance-id="-1" semantic-id="35" stroke="rgb(26,39,53)" stroke-width="0.1"/>
  <path d="M 71.67868449999997,18.22067499999997 L 71.67868449999997,66.22067499999997" fill="none" instance-id="-1" semantic-id="35" stroke="rgb(26,39,53)" stroke-width="0.1"/>
  <path d="M 47.678684499999974,66.22067499999997 L 29.678684499999974,66.22067499999997" fill="none" instance-id="-1" semantic-id="35" stroke="rgb(26,39,53)" stroke-width="0.1"/>
  <path d="M 29.678684499999974,66.22067499999997 L 29.678684499999974,18.22067499999997" fill="none" instance-id="-1" semantic-id="35" stroke="rgb(26,39,53)" stroke-width="0.1"/>
  <path d="M 29.678684499999974,18.22067499999997 L 47.678684499999974,18.22067499999997" fill="none" instance-id="-1" semantic-id="35" stroke="rgb(26,39,53)" stroke-width="0.1"/>
  <path d="M 47.678684499999974,18.22067499999997 L 47.678684499999974,66.22067499999997" fill="none" instance-id="-1" semantic-id="35" stroke="rgb(26,39,53)" stroke-width="0.1"/>
  <path d="M 23.678684499999974,66.22067499999997 L 5.678684499999974,66.22067499999997" fill="none" instance-id="-1" semantic-id="35" stroke="rgb(26,39,53)" stroke-width="0.1"/>
  <path d="M 5.678684499999974,66.22067499999997 L 5.678684499999974,18.22067499999997" fill="none" instance-id="-1" semantic-id="35" stroke="rgb(26,39,53)" stroke-width="0.1"/>
  <path d="M 5.678684499999974,18.22067499999997 L 23.678684499999974,18.22067499999997" fill="none" instance-id="-1" semantic-id="35" stroke="rgb(26,39,53)" stroke-width="0.1"/>
  <path d="M 23.678684499999974,18.22067499999997 L 23.678684499999974,66.22067499999997" fill="none" instance-id="-1" semantic-id="35" stroke="rgb(26,39,53)" stroke-width="0.1"/>
  <path d="M 46.075684499999966,74.24067500000001 L 28.075684499999966,74.24067500000001" fill="none" instance-id="-1" semantic-id="35" stroke="rgb(26,39,53)" stroke-width="0.1"/>
  <path d="M 28.075684499999966,74.24067500000001 L 28.075684499999966,100.0" fill="none" instance-id="-1" semantic-id="35" stroke="rgb(26,39,53)" stroke-width="0.1"/>
  <path d="M 46.075684499999966,100.0 L 46.075684499999966,74.24067500000001" fill="none" instance-id="-1" semantic-id="35" stroke="rgb(26,39,53)" stroke-width="0.1"/>
  <path d="M 22.075684499999966,74.24067500000001 L 4.075684499999966,74.24067500000001" fill="none" instance-id="-1" semantic-id="35" stroke="rgb(26,39,53)" stroke-width="0.1"/>
  <path d="M 4.075684499999966,74.24067500000001 L 4.075684499999966,100.0" fill="none" instance-id="-1" semantic-id="35" stroke="rgb(26,39,53)" stroke-width="0.1"/>
  <path d="M 22.075684499999966,100.0 L 22.075684499999966,74.24067500000001" fill="none" instance-id="-1" semantic-id="35" stroke="rgb(26,39,53)" stroke-width="0.1"/>
 </g>
 <g id="layerCOLU" inkscape:groupmode="layer" inkscape:label="COLU">
  <path d="M 0.0,28.53767499999998 L 1.0756844999999657,28.53767499999998" fill="none" stroke="rgb(255,73,12)" stroke-width="0.1"/>
  <path d="M 1.0756844999999657,28.53767499999998 L 1.0756844999999657,37.53767499999998" fill="none" stroke="rgb(255,73,12)" stroke-width="0.1"/>
  <path d="M 1.0756844999999657,37.53767499999998 L 0.0,37.53767499999998" fill="none" stroke="rgb(255,73,12)" stroke-width="0.1"/>
  <path d="M 75.57568449999997,28.53767499999998 L 82.07568449999997,28.53767499999998" fill="none" stroke="rgb(255,73,12)" stroke-width="0.1"/>
  <path d="M 82.07568449999997,28.53767499999998 L 82.07568449999997,37.53767499999998" fill="none" stroke="rgb(255,73,12)" stroke-width="0.1"/>
  <path d="M 82.07568449999997,37.53767499999998 L 75.57568449999997,37.53767499999998" fill="none" stroke="rgb(255,73,12)" stroke-width="0.1"/>
  <path d="M 75.57568449999997,37.53767499999998 L 75.57568449999997,28.53767499999998" fill="none" stroke="rgb(255,73,12)" stroke-width="0.1"/>
  <path d="M 0.0,28.53767499999998 L 1.0756844999999657,28.53767499999998" fill="none" stroke="rgb(255,73,12)" stroke-width="0.1"/>
  <path d="M 1.0756844999999657,28.53767499999998 L 1.0756844999999657,37.53767499999998" fill="none" stroke="rgb(255,73,12)" stroke-width="0.1"/>
  <path d="M 1.0756844999999657,37.53767499999998 L 0.0,37.53767499999998" fill="none" stroke="rgb(255,73,12)" stroke-width="0.1"/>
  <path d="M 75.57568449999997,28.53767499999998 L 82.07568449999997,28.53767499999998" fill="none" stroke="rgb(255,73,12)" stroke-width="0.1"/>
  <path d="M 82.07568449999997,28.53767499999998 L 82.07568449999997,37.53767499999998" fill="none" stroke="rgb(255,73,12)" stroke-width="0.1"/>
  <path d="M 82.07568449999997,37.53767499999998 L 75.57568449999997,37.53767499999998" fill="none" stroke="rgb(255,73,12)" stroke-width="0.1"/>
  <path d="M 75.57568449999997,37.53767499999998 L 75.57568449999997,28.53767499999998" fill="none" stroke="rgb(255,73,12)" stroke-width="0.1"/>
 </g>
 <g id="layerCOLUMN" inkscape:groupmode="layer" inkscape:label="COLUMN">
  <path d="M 0.0,37.53767499999998 L 1.0756844999999657,37.53767499999998" fill="none" stroke="rgb(0,178,178)" stroke-width="0.1"/>
  <path d="M 1.0756844999999657,37.53767499999998 L 1.0756844999999657,28.53767499999998" fill="none" stroke="rgb(0,178,178)" stroke-width="0.1"/>
  <path d="M 1.0756844999999657,28.53767499999998 L 0.0,28.53767499999998" fill="none" stroke="rgb(0,178,178)" stroke-width="0.1"/>
  <path d="M 75.57568449999997,37.53767499999998 L 82.07568449999997,37.53767499999998" fill="none" stroke="rgb(0,178,178)" stroke-width="0.1"/>
  <path d="M 82.07568449999997,37.53767499999998 L 82.07568449999997,28.53767499999998" fill="none" stroke="rgb(0,178,178)" stroke-width="0.1"/>
  <path d="M 82.07568449999997,28.53767499999998 L 75.57568449999997,28.53767499999998" fill="none" stroke="rgb(0,178,178)" stroke-width="0.1"/>
  <path d="M 75.57568449999997,28.53767499999998 L 75.57568449999997,37.53767499999998" fill="none" stroke="rgb(0,178,178)" stroke-width="0.1"/>
 </g>
 <g id="layerCOLU_HATCH" inkscape:groupmode="layer" inkscape:label="COLU_HATCH">
  <path d="M 0.0,37.53767499999998 L 1.0756844999999657,37.53767499999998" fill="none" stroke="rgb(92,92,92)" stroke-width="0.1"/>
  <path d="M 1.0756844999999657,37.53767499999998 L 1.0756844999999657,28.53767499999998" fill="none" stroke="rgb(92,92,92)" stroke-width="0.1"/>
  <path d="M 1.0756844999999657,28.53767499999998 L 0.0,28.53767499999998" fill="none" stroke="rgb(92,92,92)" stroke-width="0.1"/>
  <path d="M 75.57568449999997,37.53767499999998 L 82.07568449999997,37.53767499999998" fill="none" stroke="rgb(92,92,92)" stroke-width="0.1"/>
  <path d="M 82.07568449999997,37.53767499999998 L 82.07568449999997,28.53767499999998" fill="none" stroke="rgb(92,92,92)" stroke-width="0.1"/>
  <path d="M 82.07568449999997,28.53767499999998 L 75.57568449999997,28.53767499999998" fill="none" stroke="rgb(92,92,92)" stroke-width="0.1"/>
  <path d="M 75.57568449999997,28.53767499999998 L 75.57568449999997,37.53767499999998" fill="none" stroke="rgb(92,92,92)" stroke-width="0.1"/>
  <path d="M 0.0,37.53767499999998 L 1.0756844999999657,37.53767499999998" fill="none" stroke="rgb(92,92,92)" stroke-width="0.1"/>
  <path d="M 1.0756844999999657,37.53767499999998 L 1.0756844999999657,28.53767499999998" fill="none" stroke="rgb(92,92,92)" stroke-width="0.1"/>
  <path d="M 1.0756844999999657,28.53767499999998 L 0.0,28.53767499999998" fill="none" stroke="rgb(92,92,92)" stroke-width="0.1"/>
  <path d="M 75.57568449999997,37.53767499999998 L 82.07568449999997,37.53767499999998" fill="none" stroke="rgb(92,92,92)" stroke-width="0.1"/>
  <path d="M 82.07568449999997,37.53767499999998 L 82.07568449999997,28.53767499999998" fill="none" stroke="rgb(92,92,92)" stroke-width="0.1"/>
  <path d="M 82.07568449999997,28.53767499999998 L 75.57568449999997,28.53767499999998" fill="none" stroke="rgb(92,92,92)" stroke-width="0.1"/>
  <path d="M 75.57568449999997,28.53767499999998 L 75.57568449999997,37.53767499999998" fill="none" stroke="rgb(92,92,92)" stroke-width="0.1"/>
 </g>
 <g id="layerDIM_LEAD" inkscape:groupmode="layer" inkscape:label="DIM_LEAD">
  <path d="M 0.0,47.134675000000016 L 20.630684499999973,47.134675000000016" fill="none" stroke="rgb(0,178,0)" stroke-width="0.1"/>
 </g>
 <g id="layerDOTE" inkscape:groupmode="layer" inkscape:label="DOTE">
  <path d="M 0.0,33.03767499999998 L 100.0,33.03767499999998" fill="none" stroke="rgb(88,0,0)" stroke-width="0.1"/>
  <path d="M 0.0,58.03767499999998 L 100.0,58.03767499999998" fill="none" stroke="rgb(88,0,0)" stroke-width="0.1"/>
  <path d="M 78.82568449999997,100.0 L 78.82568449999997,0.0" fill="none" stroke="rgb(88,0,0)" stroke-width="0.1"/>
 </g>
 <g id="layerPUB_HATCH" inkscape:groupmode="layer" inkscape:label="PUB_HATCH">
  <path d="M 0.0,37.53767499999998 L 1.0756844999999657,37.53767499999998" fill="none" stroke="rgb(89,89,89)" stroke-width="0.1"/>
  <path d="M 1.0756844999999657,37.53767499999998 L 1.0756844999999657,28.53767499999998" fill="none" stroke="rgb(89,89,89)" stroke-width="0.1"/>
  <path d="M 1.0756844999999657,28.53767499999998 L 0.0,28.53767499999998" fill="none" stroke="rgb(89,89,89)" stroke-width="0.1"/>
  <path d="M 75.57568449999997,37.53767499999998 L 82.07568449999997,37.53767499999998" fill="none" stroke="rgb(89,89,89)" stroke-width="0.1"/>
  <path d="M 82.07568449999997,37.53767499999998 L 82.07568449999997,28.53767499999998" fill="none" stroke="rgb(89,89,89)" stroke-width="0.1"/>
  <path d="M 82.07568449999997,28.53767499999998 L 75.57568449999997,28.53767499999998" fill="none" stroke="rgb(89,89,89)" stroke-width="0.1"/>
  <path d="M 75.57568449999997,28.53767499999998 L 75.57568449999997,37.53767499999998" fill="none" stroke="rgb(89,89,89)" stroke-width="0.1"/>
  <path d="M 80.32568449999997,68.74067500000001 L 78.82568449999997,70.24067500000001" fill="none" instance-id="-1" semantic-id="1" stroke="rgb(89,89,89)" stroke-width="0.1"/>
  <path d="M 78.82568449999997,70.24067500000001 L 77.32568449999997,71.74067500000001" fill="none" instance-id="-1" semantic-id="1" stroke="rgb(89,89,89)" stroke-width="0.1"/>
  <path d="M 77.32568449999997,71.74067500000001 L 77.32568449999997,100.0" fill="none" instance-id="-1" semantic-id="1" stroke="rgb(89,89,89)" stroke-width="0.1"/>
  <path d="M 80.32568449999997,100.0 L 80.32568449999997,68.74067500000001" fill="none" instance-id="-1" semantic-id="1" stroke="rgb(89,89,89)" stroke-width="0.1"/>
  <path d="M 78.89568449999996,70.24067500000001 L 80.32568449999997,68.74067500000001" fill="none" instance-id="-1" semantic-id="1" stroke="rgb(89,89,89)" stroke-width="0.1"/>
  <path d="M 80.32568449999997,68.74067500000001 L 0.0,68.74067500000001" fill="none" instance-id="-1" semantic-id="1" stroke="rgb(89,89,89)" stroke-width="0.1"/>
  <path d="M 0.0,71.74067500000001 L 77.32568449999997,71.74067500000001" fill="none" instance-id="-1" semantic-id="1" stroke="rgb(89,89,89)" stroke-width="0.1"/>
  <path d="M 77.32568449999997,71.74067500000001 L 78.89568449999996,70.24067500000001" fill="none" instance-id="-1" semantic-id="1" stroke="rgb(89,89,89)" stroke-width="0.1"/>
 </g>
 <g id="layerWALL" inkscape:groupmode="layer" inkscape:label="WALL">
  <path d="M 80.32568449999997,68.74067500000001 L 80.32568449999997,100.0" fill="none" instance-id="-1" semantic-id="33" stroke="rgb(0,178,178)" stroke-width="0.1"/>
  <path d="M 77.32568449999997,71.74067500000001 L 77.32568449999997,100.0" fill="none" instance-id="-1" semantic-id="33" stroke="rgb(0,178,178)" stroke-width="0.1"/>
  <path d="M 77.32568449999997,71.74067500000001 L 0.0,71.74067500000001" fill="none" instance-id="-1" semantic-id="33" stroke="rgb(0,178,178)" stroke-width="0.1"/>
  <path d="M 80.32568449999997,68.74067500000001 L 0.0,68.74067500000001" fill="none" instance-id="-1" semantic-id="33" stroke="rgb(0,178,178)" stroke-width="0.1"/>
 </g>
</svg>