<?xml version="1.0" encoding="utf-8"?>
<svg style="background-color: #000;" version="1.1" viewBox="0 0 100.0 100.0" xmlns="http://www.w3.org/2000/svg" xmlns:inkscape="http://www.inkscape.org/namespaces/inkscape">
 <g id="layerCAR" inkscape:groupmode="layer" inkscape:label="CAR">
  <path d="M 59.67568449999999,58.28767499999999 L 58.075684499999966,58.28767499999999" fill="none" instance-id="-1" semantic-id="35" stroke="rgb(26,39,53)" stroke-width="0.1"/>
  <path d="M 58.075684499999966,39.287274999999994 L 59.67568449999999,39.287274999999994" fill="none" instance-id="-1" semantic-id="35" stroke="rgb(26,39,53)" stroke-width="0.1"/>
  <path d="M 58.075684499999966,39.287274999999994 L 58.075684499999966,58.28767499999999" fill="none" instance-id="-1" semantic-id="35" stroke="rgb(26,39,53)" stroke-width="0.1"/>
  <path d="M 59.67568449999999,39.287274999999994 L 59.67568449999999,58.28767499999999" fill="none" instance-id="-1" semantic-id="35" stroke="rgb(26,39,53)" stroke-width="0.1"/>
  <path d="M 71.87568449999992,36.787274999999994 L 71.87568449999992,60.78767499999999" fill="none" instance-id="-1" semantic-id="35" stroke="rgb(26,39,53)" stroke-width="0.1"/>
  <path d="M 18.87568449999992,36.787274999999994 L 71.87568449999992,36.787274999999994" fill="none" instance-id="-1" semantic-id="35" stroke="rgb(26,39,53)" stroke-width="0.1"/>
  <path d="M 18.87568449999992,60.78767499999999 L 18.87568449999992,36.787274999999994" fill="none" instance-id="-1" semantic-id="35" stroke="rgb(26,39,53)" stroke-width="0.1"/>
  <path d="M 71.87568449999992,60.78767499999999 L 18.87568449999992,60.78767499999999" fill="none" instance-id="-1" semantic-id="35" stroke="rgb(26,39,53)" stroke-width="0.1"/>
  <path d="M 58.87568449999992,39.287274999999994 L 58.87568449999992,58.28767499999999" fill="none" instance-id="-1" semantic-id="35" stroke="rgb(26,39,53)" stroke-width="0.1"/>
  <path d="M 59.67568449999999,34.287274999999994 L 58.075684499999966,34.287274999999994" fill="none" instance-id="-1" semantic-id="35" stroke="rgb(26,39,53)" stroke-width="0.1"/>
  <path d="M 58.075684499999966,15.287274999999994 L 59.67568449999999,15.287274999999994" fill="none" instance-id="-1" semantic-id="35" stroke="rgb(26,39,53)" stroke-width="0.1"/>
  <path d="M 58.075684499999966,15.287274999999994 L 58.075684499999966,34.287274999999994" fill="none" instance-id="-1" semantic-id="35" stroke="rgb(26,39,53)" stroke-width="0.1"/>
  <path d="M 59.67568449999999,15.287274999999994 L 59.67568449999999,34.287274999999994" fill="none" instance-id="-1" semantic-id="35" stroke="rgb(26,39,53)" stroke-width="0.1"/>
  <path d="M 71.87568449999992,12.787274999999987 L 71.87568449999992,36.787274999999994" fill="none" instance-id="-1" semantic-id="35" stroke="rgb(26,39,53)" stroke-width="0.1"/>
  <path d="M 18.87568449999992,12.787274999999987 L 71.87568449999992,12.787274999999987" fill="none" instance-id="-1" semantic-id="35" stroke="rgb(26,39,53)" stroke-width="0.1"/>
  <path d="M 18.87568449999992,36.787274999999994 L 18.87568449999992,12.787274999999987" fill="none" instance-id="-1" semantic-id="35" stroke="rgb(26,39,53)" stroke-width="0.1"/>
  <path d="M 71.87568449999992,36.787274999999994 L 18.87568449999992,36.787274999999994" fill="none" instance-id="-1" semantic-id="35" stroke="rgb(26,39,53)" stroke-width="0.1"/>
  <path d="M 58.87568449999992,15.287274999999994 L 58.87568449999992,34.287274999999994" fill="none" instance-id="-1" semantic-id="35" stroke="rgb(26,39,53)" stroke-width="0.1"/>
  <path d="M 59.67568449999999,93.78767499999998 L 58.075684499999966,93.78767499999998" fill="none" instance-id="-1" semantic-id="35" stroke="rgb(26,39,53)" stroke-width="0.1"/>
  <path d="M 58.075684499999966,100.0 L 58.075684499999966,93.78767499999998" fill="none" instance-id="-1" semantic-id="35" stroke="rgb(26,39,53)" stroke-width="0.1"/>
  <path d="M 59.67568449999999,100.0 L 59.67568449999999,93.78767499999998" fill="none" instance-id="-1" semantic-id="35" stroke="rgb(26,39,53)" stroke-width="0.1"/>
  <path d="M 71.87568449999992,100.0 L 71.87568449999992,91.28767499999998" fill="none" instance-id="-1" semantic-id="35" stroke="rgb(26,39,53)" stroke-width="0.1"/>
  <path d="M 18.87568449999992,91.28767499999998 L 18.87568449999992,100.0" fill="none" instance-id="-1" semantic-id="35" stroke="rgb(26,39,53)" stroke-width="0.1"/>
  <path d="M 71.87568449999992,91.28767499999998 L 18.87568449999992,91.28767499999998" fill="none" instance-id="-1" semantic-id="35" stroke="rgb(26,39,53)" stroke-width="0.1"/>
  <path d="M 58.87568449999992,100.0 L 58.87568449999992,93.78767499999998" fill="none" instance-id="-1" semantic-id="35" stroke="rgb(26,39,53)" stroke-width="0.1"/>
  <path d="M 59.67568449999999,69.787675 L 58.075684499999966,69.787675" fill="none" instance-id="-1" semantic-id="35" stroke="rgb(26,39,53)" stroke-width="0.1"/>
  <path d="M 58.075684499999966,88.78767499999998 L 59.67568449999999,88.78767499999998" fill="none" instance-id="-1" semantic-id="35" stroke="rgb(26,39,53)" stroke-width="0.1"/>
  <path d="M 58.075684499999966,88.78767499999998 L 58.075684499999966,69.787675" fill="none" instance-id="-1" semantic-id="35" stroke="rgb(26,39,53)" stroke-width="0.1"/>
  <path d="M 59.67568449999999,88.78767499999998 L 59.67568449999999,69.787675" fill="none" instance-id="-1" semantic-id="35" stroke="rgb(26,39,53)" stroke-width="0.1"/>
  <path d="M 71.87568449999992,91.28767499999998 L 71.87568449999992,67.287675" fill="none" instance-id="-1" semantic-id="35" stroke="rgb(26,39,53)" stroke-width="0.1"/>
  <path d="M 18.87568449999992,91.28767499999998 L 71.87568449999992,91.28767499999998" fill="none" instance-id="-1" semantic-id="35" stroke="rgb(26,39,53)" stroke-width="0.1"/>
  <path d="M 18.87568449999992,67.287675 L 18.87568449999992,91.28767499999998" fill="none" instance-id="-1" semantic-id="35" stroke="rgb(26,39,53)" stroke-width="0.1"/>
  <path d="M 71.87568449999992,67.287675 L 18.87568449999992,67.287675" fill="none" instance-id="-1" semantic-id="35" stroke="rgb(26,39,53)" stroke-width="0.1"/>
  <path d="M 58.87568449999992,88.78767499999998 L 58.87568449999992,69.787675" fill="none" instance-id="-1" semantic-id="35" stroke="rgb(26,39,53)" stroke-width="0.1"/>
  <path d="M 59.67568449999999,10.287274999999987 L 58.075684499999966,10.287274999999987" fill="none" instance-id="-1" semantic-id="35" stroke="rgb(26,39,53)" stroke-width="0.1"/>
  <path d="M 58.075684499999966,0.0 L 58.075684499999966,10.287274999999987" fill="none" instance-id="-1" semantic-id="35" stroke="rgb(26,39,53)" stroke-width="0.1"/>
  <path d="M 59.67568449999999,0.0 L 59.67568449999999,10.287274999999987" fill="none" instance-id="-1" semantic-id="35" stroke="rgb(26,39,53)" stroke-width="0.1"/>
  <path d="M 71.87568449999992,0.0 L 71.87568449999992,12.787274999999987" fill="none" instance-id="-1" semantic-id="35" stroke="rgb(26,39,53)" stroke-width="0.1"/>
  <path d="M 18.87568449999992,12.787274999999987 L 18.87568449999992,0.0" fill="none" instance-id="-1" semantic-id="35" stroke="rgb(26,39,53)" stroke-width="0.1"/>
  <path d="M 71.87568449999992,12.787274999999987 L 18.87568449999992,12.787274999999987" fill="none" instance-id="-1" semantic-id="35" stroke="rgb(26,39,53)" stroke-width="0.1"/>
  <path d="M 58.87568449999992,0.0 L 58.87568449999992,10.287274999999987" fill="none" instance-id="-1" semantic-id="35" stroke="rgb(26,39,53)" stroke-width="0.1"/>
  <path d="M 69.37568449999992,57.78767499999999 L 69.37568449999992,39.787274999999994" fill="none" instance-id="-1" semantic-id="35" stroke="rgb(26,39,53)" stroke-width="0.1"/>
  <path d="M 69.37568449999992,39.787274999999994 L 21.37568449999992,39.787274999999994" fill="none" instance-id="-1" semantic-id="35" stroke="rgb(26,39,53)" stroke-width="0.1"/>
  <path d="M 21.37568449999992,39.787274999999994 L 21.37568449999992,57.78767499999999" fill="none" instance-id="-1" semantic-id="35" stroke="rgb(26,39,53)" stroke-width="0.1"/>
  <path d="M 21.37568449999992,57.78767499999999 L 69.37568449999992,57.78767499999999" fill="none" instance-id="-1" semantic-id="35" stroke="rgb(26,39,53)" stroke-width="0.1"/>
  <path d="M 69.37568449999992,33.787274999999994 L 69.37568449999992,15.787274999999994" fill="none" instance-id="-1" semantic-id="35" stroke="rgb(26,39,53)" stroke-width="0.1"/>
  <path d="M 69.37568449999992,15.787274999999994 L 21.37568449999992,15.787274999999994" fill="none" instance-id="-1" semantic-id="35" stroke="rgb(26,39,53)" stroke-width="0.1"/>
  <path d="M 21.37568449999992,15.787274999999994 L 21.37568449999992,33.787274999999994" fill="none" instance-id="-1" semantic-id="35" stroke="rgb(26,39,53)" stroke-width="0.1"/>
  <path d="M 21.37568449999992,33.787274999999994 L 69.37568449999992,33.787274999999994" fill="none" instance-id="-1" semantic-id="35" stroke="rgb(26,39,53)" stroke-width="0.1"/>
  <path d="M 69.37568449999992,94.28767499999998 L 69.37568449999992,100.0" fill="none" instance-id="-1" semantic-id="35" stroke="rgb(26,39,53)" stroke-width="0.1"/>
  <path d="M 21.37568449999992,100.0 L 21.37568449999992,94.28767499999998" fill="none" instance-id="-1" semantic-id="35" stroke="rgb(26,39,53)" stroke-width="0.1"/>
  <path d="M 21.37568449999992,94.28767499999998 L 69.37568449999992,94.28767499999998" fill="none" instance-id="-1" semantic-id="35" stroke="rgb(26,39,53)" stroke-width="0.1"/>
  <path d="M 69.37568449999992,70.287675 L 69.37568449999992,88.28767499999998" fill="none" instance-id="-1" semantic-id="35" stroke="rgb(26,39,53)" stroke-width="0.1"/>
  <path d="M 69.37568449999992,88.28767499999998 L 21.37568449999992,88.28767499999998" fill="none" instance-id="-1" semantic-id="35" stroke="rgb(26,39,53)" stroke-width="0.1"/>
  <path d="M 21.37568449999992,88.28767499999998 L 21.37568449999992,70.287675" fill="none" instance-id="-1" semantic-id="35" stroke="rgb(26,39,53)" stroke-width="0.1"/>
  <path d="M 21.37568449999992,70.287675 L 69.37568449999992,70.287675" fill="none" instance-id="-1" semantic-id="35" stroke="rgb(26,39,53)" stroke-width="0.1"/>
  <path d="M 69.37568449999992,9.787274999999987 L 69.37568449999992,0.0" fill="none" instance-id="-1" semantic-id="35" stroke="rgb(26,39,53)" stroke-width="0.1"/>
  <path d="M 21.37568449999992,0.0 L 21.37568449999992,9.787274999999987" fill="none" instance-id="-1" semantic-id="35" stroke="rgb(26,39,53)" stroke-width="0.1"/>
  <path d="M 21.37568449999992,9.787274999999987 L 69.37568449999992,9.787274999999987" fill="none" instance-id="-1" semantic-id="35" stroke="rgb(26,39,53)" stroke-width="0.1"/>
 </g>
 <g id="layerCOLU" inkscape:groupmode="layer" inkscape:label="COLU">
  <path d="M 74.37568449999992,68.037675 L 79.37568449999992,68.037675" fill="none" stroke="rgb(255,73,12)" stroke-width="0.1"/>
  <path d="M 79.37568449999992,68.037675 L 79.37568449999992,60.03767499999999" fill="none" stroke="rgb(255,73,12)" stroke-width="0.1"/>
  <path d="M 79.37568449999992,60.03767499999999 L 74.37568449999992,60.03767499999999" fill="none" stroke="rgb(255,73,12)" stroke-width="0.1"/>
  <path d="M 74.37568449999992,60.03767499999999 L 74.37568449999992,68.037675" fill="none" stroke="rgb(255,73,12)" stroke-width="0.1"/>
  <path d="M 18.87568449999992,67.537675 L 26.87568449999992,67.537675" fill="none" stroke="rgb(255,73,12)" stroke-width="0.1"/>
  <path d="M 26.87568449999992,67.537675 L 26.87568449999992,60.53767499999999" fill="none" stroke="rgb(255,73,12)" stroke-width="0.1"/>
  <path d="M 26.87568449999992,60.53767499999999 L 18.87568449999992,60.53767499999999" fill="none" stroke="rgb(255,73,12)" stroke-width="0.1"/>
  <path d="M 18.87568449999992,60.53767499999999 L 18.87568449999992,67.537675" fill="none" stroke="rgb(255,73,12)" stroke-width="0.1"/>
  <path d="M 74.37568449999992,68.037675 L 79.37568449999992,68.037675" fill="none" stroke="rgb(255,73,12)" stroke-width="0.1"/>
  <path d="M 79.37568449999992,68.037675 L 79.37568449999992,60.03767499999999" fill="none" stroke="rgb(255,73,12)" stroke-width="0.1"/>
  <path d="M 79.37568449999992,60.03767499999999 L 74.37568449999992,60.03767499999999" fill="none" stroke="rgb(255,73,12)" stroke-width="0.1"/>
  <path d="M 74.37568449999992,60.03767499999999 L 74.37568449999992,68.037675" fill="none" stroke="rgb(255,73,12)" stroke-width="0.1"/>
  <path d="M 18.87568449999992,67.537675 L 26.87568449999992,67.537675" fill="none" stroke="rgb(255,73,12)" stroke-width="0.1"/>
  <path d="M 26.87568449999992,67.537675 L 26.87568449999992,60.53767499999999" fill="none" stroke="rgb(255,73,12)" stroke-width="0.1"/>
  <path d="M 26.87568449999992,60.53767499999999 L 18.87568449999992,60.53767499999999" fill="none" stroke="rgb(255,73,12)" stroke-width="0.1"/>
  <path d="M 18.87568449999992,60.53767499999999 L 18.87568449999992,67.537675" fill="none" stroke="rgb(255,73,12)" stroke-width="0.1"/>
 </g>
 <g id="layerCOLUMN" inkscape:groupmode="layer" inkscape:label="COLUMN">
  <path d="M 74.37568449999992,68.037675 L 75.87868449999996,68.037675" fill="none" stroke="rgb(0,178,178)" stroke-width="0.1"/>
  <path d="M 79.37568449999992,64.037675 L 79.37568449999992,60.03767499999999" fill="none" stroke="rgb(0,178,178)" stroke-width="0.1"/>
  <path d="M 75.87568449999992,60.03767499999999 L 74.37568449999992,60.03767499999999" fill="none" stroke="rgb(0,178,178)" stroke-width="0.1"/>
  <path d="M 74.37568449999992,60.03767499999999 L 74.37568449999992,68.037675" fill="none" stroke="rgb(0,178,178)" stroke-width="0.1"/>
  <path d="M 18.87568449999992,67.537675 L 26.87568449999992,67.537675" fill="none" stroke="rgb(0,178,178)" stroke-width="0.1"/>
  <path d="M 26.87568449999992,67.537675 L 26.87568449999992,60.53767499999999" fill="none" stroke="rgb(0,178,178)" stroke-width="0.1"/>
  <path d="M 26.87568449999992,60.53767499999999 L 18.87568449999992,60.53767499999999" fill="none" stroke="rgb(0,178,178)" stroke-width="0.1"/>
  <path d="M 18.87568449999992,60.53767499999999 L 18.87568449999992,67.537675" fill="none" stroke="rgb(0,178,178)" stroke-width="0.1"/>
 </g>
 <g id="layerCOLU_HATCH" inkscape:groupmode="layer" inkscape:label="COLU_HATCH">
  <path d="M 74.37568449999992,68.037675 L 79.37568449999992,68.037675" fill="none" stroke="rgb(92,92,92)" stroke-width="0.1"/>
  <path d="M 79.37568449999992,68.037675 L 79.37568449999992,60.03767499999999" fill="none" stroke="rgb(92,92,92)" stroke-width="0.1"/>
  <path d="M 79.37568449999992,60.03767499999999 L 74.37568449999992,60.03767499999999" fill="none" stroke="rgb(92,92,92)" stroke-width="0.1"/>
  <path d="M 74.37568449999992,60.03767499999999 L 74.37568449999992,68.037675" fill="none" stroke="rgb(92,92,92)" stroke-width="0.1"/>
  <path d="M 18.87568449999992,67.537675 L 26.87568449999992,67.537675" fill="none" stroke="rgb(92,92,92)" stroke-width="0.1"/>
  <path d="M 26.87568449999992,67.537675 L 26.87568449999992,60.53767499999999" fill="none" stroke="rgb(92,92,92)" stroke-width="0.1"/>
  <path d="M 26.87568449999992,60.53767499999999 L 18.87568449999992,60.53767499999999" fill="none" stroke="rgb(92,92,92)" stroke-width="0.1"/>
  <path d="M 18.87568449999992,60.53767499999999 L 18.87568449999992,67.537675" fill="none" stroke="rgb(92,92,92)" stroke-width="0.1"/>
  <path d="M 74.37568449999992,68.037675 L 79.37568449999992,68.037675" fill="none" stroke="rgb(92,92,92)" stroke-width="0.1"/>
  <path d="M 79.37568449999992,68.037675 L 79.37568449999992,60.03767499999999" fill="none" stroke="rgb(92,92,92)" stroke-width="0.1"/>
  <path d="M 79.37568449999992,60.03767499999999 L 74.37568449999992,60.03767499999999" fill="none" stroke="rgb(92,92,92)" stroke-width="0.1"/>
  <path d="M 74.37568449999992,60.03767499999999 L 74.37568449999992,68.037675" fill="none" stroke="rgb(92,92,92)" stroke-width="0.1"/>
  <path d="M 18.87568449999992,67.537675 L 26.87568449999992,67.537675" fill="none" stroke="rgb(92,92,92)" stroke-width="0.1"/>
  <path d="M 26.87568449999992,67.537675 L 26.87568449999992,60.53767499999999" fill="none" stroke="rgb(92,92,92)" stroke-width="0.1"/>
  <path d="M 26.87568449999992,60.53767499999999 L 18.87568449999992,60.53767499999999" fill="none" stroke="rgb(92,92,92)" stroke-width="0.1"/>
  <path d="M 18.87568449999992,60.53767499999999 L 18.87568449999992,67.537675" fill="none" stroke="rgb(92,92,92)" stroke-width="0.1"/>
 </g>
 <g id="layerDOTE" inkscape:groupmode="layer" inkscape:label="DOTE">
  <path d="M 0.0,64.037675 L 100.0,64.037675" fill="none" stroke="rgb(88,0,0)" stroke-width="0.1"/>
  <path d="M 21.825684499999966,100.0 L 21.825684499999966,0.0" fill="none" stroke="rgb(88,0,0)" stroke-width="0.1"/>
  <path d="M 76.82568449999997,100.0 L 76.82568449999997,0.0" fill="none" stroke="rgb(88,0,0)" stroke-width="0.1"/>
 </g>
 <g id="layerPUB_HATCH" inkscape:groupmode="layer" inkscape:label="PUB_HATCH">
  <path d="M 74.37568449999992,68.037675 L 79.37568449999992,68.037675" fill="none" instance-id="-1" semantic-id="1" stroke="rgb(89,89,89)" stroke-width="0.1"/>
  <path d="M 79.37568449999992,68.037675 L 79.37568449999992,60.03767499999999" fill="none" instance-id="-1" semantic-id="1" stroke="rgb(89,89,89)" stroke-width="0.1"/>
  <path d="M 79.37568449999992,60.03767499999999 L 74.37568449999992,60.03767499999999" fill="none" instance-id="-1" semantic-id="1" stroke="rgb(89,89,89)" stroke-width="0.1"/>
  <path d="M 74.37568449999992,60.03767499999999 L 74.37568449999992,68.037675" fill="none" instance-id="-1" semantic-id="1" stroke="rgb(89,89,89)" stroke-width="0.1"/>
  <path d="M 75.87568449999992,0.0 L 75.87568449999992,60.03767499999999" fill="none" instance-id="-1" semantic-id="1" stroke="rgb(89,89,89)" stroke-width="0.1"/>
  <path d="M 75.87568449999992,60.03767499999999 L 79.37568449999992,60.03767499999999" fill="none" instance-id="-1" semantic-id="1" stroke="rgb(89,89,89)" stroke-width="0.1"/>
  <path d="M 79.37568449999992,60.03767499999999 L 79.37568449999992,0.0" fill="none" instance-id="-1" semantic-id="1" stroke="rgb(89,89,89)" stroke-width="0.1"/>
  <path d="M 18.87568449999992,67.537675 L 26.87568449999992,67.537675" fill="none" stroke="rgb(89,89,89)" stroke-width="0.1"/>
  <path d="M 26.87568449999992,67.537675 L 26.87568449999992,60.53767499999999" fill="none" stroke="rgb(89,89,89)" stroke-width="0.1"/>
  <path d="M 26.87568449999992,60.53767499999999 L 18.87568449999992,60.53767499999999" fill="none" stroke="rgb(89,89,89)" stroke-width="0.1"/>
  <path d="M 18.87568449999992,60.53767499999999 L 18.87568449999992,67.537675" fill="none" stroke="rgb(89,89,89)" stroke-width="0.1"/>
  <path d="M 79.37568449999992,68.037675 L 75.87868449999996,68.037675" fill="none" instance-id="-1" semantic-id="1" stroke="rgb(89,89,89)" stroke-width="0.1"/>
  <path d="M 75.87868449999996,68.037675 L 75.87868449999996,100.0" fill="none" instance-id="-1" semantic-id="1" stroke="rgb(89,89,89)" stroke-width="0.1"/>
  <path d="M 79.3769980202054,100.0 L 79.37568449999992,68.037675" fill="none" instance-id="-1" semantic-id="1" stroke="rgb(89,89,89)" stroke-width="0.1"/>
 </g>
 <g id="layerWALL" inkscape:groupmode="layer" inkscape:label="WALL">
  <path d="M 75.87568449999992,60.03767499999999 L 75.87568449999992,0.0" fill="none" stroke="rgb(0,178,178)" stroke-width="0.1"/>
  <path d="M 79.37568449999992,60.03767499999999 L 79.37568449999992,0.0" fill="none" stroke="rgb(0,178,178)" stroke-width="0.1"/>
  <path d="M 75.87868449999996,100.0 L 75.87868449999996,68.037675" fill="none" stroke="rgb(0,178,178)" stroke-width="0.1"/>
  <path d="M 79.37868449999996,100.0 L 79.37868449999996,64.037675" fill="none" stroke="rgb(0,178,178)" stroke-width="0.1"/>
  <path d="M 79.37568449999992,64.037675 L 79.37868449999996,64.037675" fill="none" stroke="rgb(0,178,178)" stroke-width="0.1"/>
 </g>
 <g id="layer电动车位" inkscape:groupmode="layer" inkscape:label="电动车位">
  <path d="M 39.53198903791372,0.19447992193108377 L 39.639286818399,0.6923433683107376" fill="none" stroke="rgb(89,89,89)" stroke-width="0.1"/>
  <path d="M 39.639286818399,0.6923433683107376 L 39.7884198272335,1.1793137684523316" fill="none" stroke="rgb(89,89,89)" stroke-width="0.1"/>
  <path d="M 39.7884198272335,1.1793137684523316 L 39.978313557671186,1.6518824894639437" fill="none" stroke="rgb(89,89,89)" stroke-width="0.1"/>
  <path d="M 39.978313557671186,1.6518824894639437 L 40.207599821032886,2.1066446628817914" fill="none" stroke="rgb(89,89,89)" stroke-width="0.1"/>
  <path d="M 40.207599821032886,2.1066446628817914 L 40.474626604536866,2.5403237168255615" fill="none" stroke="rgb(89,89,89)" stroke-width="0.1"/>
  <path d="M 40.474626604536866,2.5403237168255615 L 40.777469974089286,2.9497949837738418" fill="none" stroke="rgb(89,89,89)" stroke-width="0.1"/>
  <path d="M 40.777469974089286,2.9497949837738418 L 41.11394793627278,3.3321082138652685" fill="none" stroke="rgb(89,89,89)" stroke-width="0.1"/>
  <path d="M 41.11394793627278,3.3321082138652685 L 41.4816361596595,3.6845088315163324" fill="none" stroke="rgb(89,89,89)" stroke-width="0.1"/>
  <path d="M 41.4816361596595,3.6845088315163324 L 41.87788544217426,4.0044577822016265" fill="none" stroke="rgb(89,89,89)" stroke-width="0.1"/>
  <path d="M 41.87788544217426,4.0044577822016265 L 42.29984079865653,4.289649826399852" fill="none" stroke="rgb(89,89,89)" stroke-width="0.1"/>
  <path d="M 42.29984079865653,4.289649826399852 L 42.74446203109392,4.538030148897398" fill="none" stroke="rgb(89,89,89)" stroke-width="0.1"/>
  <path d="M 42.74446203109392,4.538030148897398 L 43.20854563331807,4.747809163779046" fill="none" stroke="rgb(89,89,89)" stroke-width="0.1"/>
  <path d="M 43.20854563331807,4.747809163779046 L 43.68874787234063,4.917475408435493" fill="none" stroke="rgb(89,89,89)" stroke-width="0.1"/>
  <path d="M 43.68874787234063,4.917475408435493 L 44.18160888002558,5.045806433686103" fill="none" stroke="rgb(89,89,89)" stroke-width="0.1"/>
  <path d="M 44.18160888002558,5.045806433686103 L 44.68357758151865,5.13187761155325" fill="none" stroke="rgb(89,89,89)" stroke-width="0.1"/>
  <path d="M 44.68357758151865,5.13187761155325 L 45.191037280823025,5.175068797228079" fill="none" stroke="rgb(89,89,89)" stroke-width="0.1"/>
  <path d="M 45.191037280823025,5.175068797228079 L 45.700331719176916,5.175068797228079" fill="none" stroke="rgb(89,89,89)" stroke-width="0.1"/>
  <path d="M 45.700331719176916,5.175068797228079 L 46.20779141848129,5.13187761155325" fill="none" stroke="rgb(89,89,89)" stroke-width="0.1"/>
  <path d="M 46.20779141848129,5.13187761155325 L 46.70976011997436,5.045806433686103" fill="none" stroke="rgb(89,89,89)" stroke-width="0.1"/>
  <path d="M 46.70976011997436,5.045806433686103 L 47.20262112765931,4.917475408435493" fill="none" stroke="rgb(89,89,89)" stroke-width="0.1"/>
  <path d="M 47.20262112765931,4.917475408435493 L 47.68282336668187,4.747809163779046" fill="none" stroke="rgb(89,89,89)" stroke-width="0.1"/>
  <path d="M 47.68282336668187,4.747809163779046 L 48.14690696890602,4.538030148897398" fill="none" stroke="rgb(89,89,89)" stroke-width="0.1"/>
  <path d="M 48.14690696890602,4.538030148897398 L 48.59152820134341,4.289649826399852" fill="none" stroke="rgb(89,89,89)" stroke-width="0.1"/>
  <path d="M 48.59152820134341,4.289649826399852 L 49.01348355782568,4.0044577822016265" fill="none" stroke="rgb(89,89,89)" stroke-width="0.1"/>
  <path d="M 49.01348355782568,4.0044577822016265 L 49.40973284034044,3.6845088315163324" fill="none" stroke="rgb(89,89,89)" stroke-width="0.1"/>
  <path d="M 49.40973284034044,3.6845088315163324 L 49.77742106372716,3.3321082138652613" fill="none" stroke="rgb(89,89,89)" stroke-width="0.1"/>
  <path d="M 49.77742106372716,3.3321082138652613 L 50.113899025910655,2.9497949837738418" fill="none" stroke="rgb(89,89,89)" stroke-width="0.1"/>
  <path d="M 50.113899025910655,2.9497949837738418 L 50.416742395463075,2.5403237168255544" fill="none" stroke="rgb(89,89,89)" stroke-width="0.1"/>
  <path d="M 50.416742395463075,2.5403237168255544 L 50.683769178967054,2.1066446628817914" fill="none" stroke="rgb(89,89,89)" stroke-width="0.1"/>
  <path d="M 50.683769178967054,2.1066446628817914 L 50.913055442328755,1.6518824894639437" fill="none" stroke="rgb(89,89,89)" stroke-width="0.1"/>
  <path d="M 50.913055442328755,1.6518824894639437 L 51.102949172766444,1.1793137684523316" fill="none" stroke="rgb(89,89,89)" stroke-width="0.1"/>
  <path d="M 51.102949172766444,1.1793137684523316 L 51.25208218160094,0.6923433683107376" fill="none" stroke="rgb(89,89,89)" stroke-width="0.1"/>
  <path d="M 51.25208218160094,0.6923433683107376 L 51.35937996208622,0.19447992193108377" fill="none" stroke="rgb(89,89,89)" stroke-width="0.1"/>
  <path d="M 39.46198903791367,0.19447992193108377 L 39.56928681839895,0.6923433683107376" fill="none" stroke="rgb(89,89,89)" stroke-width="0.1"/>
  <path d="M 39.56928681839895,0.6923433683107376 L 39.71841982723345,1.1793137684523316" fill="none" stroke="rgb(89,89,89)" stroke-width="0.1"/>
  <path d="M 39.71841982723345,1.1793137684523316 L 39.908313557671136,1.6518824894639437" fill="none" stroke="rgb(89,89,89)" stroke-width="0.1"/>
  <path d="M 39.908313557671136,1.6518824894639437 L 40.137599821032836,2.1066446628817914" fill="none" stroke="rgb(89,89,89)" stroke-width="0.1"/>
  <path d="M 40.137599821032836,2.1066446628817914 L 40.404626604536816,2.5403237168255615" fill="none" stroke="rgb(89,89,89)" stroke-width="0.1"/>
  <path d="M 40.404626604536816,2.5403237168255615 L 40.707469974089236,2.9497949837738418" fill="none" stroke="rgb(89,89,89)" stroke-width="0.1"/>
  <path d="M 40.707469974089236,2.9497949837738418 L 41.04394793627273,3.3321082138652685" fill="none" stroke="rgb(89,89,89)" stroke-width="0.1"/>
  <path d="M 41.04394793627273,3.3321082138652685 L 41.41163615965945,3.6845088315163324" fill="none" stroke="rgb(89,89,89)" stroke-width="0.1"/>
  <path d="M 41.41163615965945,3.6845088315163324 L 41.80788544217421,4.0044577822016265" fill="none" stroke="rgb(89,89,89)" stroke-width="0.1"/>
  <path d="M 41.80788544217421,4.0044577822016265 L 42.22984079865648,4.289649826399852" fill="none" stroke="rgb(89,89,89)" stroke-width="0.1"/>
  <path d="M 42.22984079865648,4.289649826399852 L 42.67446203109387,4.538030148897398" fill="none" stroke="rgb(89,89,89)" stroke-width="0.1"/>
  <path d="M 42.67446203109387,4.538030148897398 L 43.13854563331802,4.747809163779046" fill="none" stroke="rgb(89,89,89)" stroke-width="0.1"/>
  <path d="M 43.13854563331802,4.747809163779046 L 43.61874787234058,4.917475408435493" fill="none" stroke="rgb(89,89,89)" stroke-width="0.1"/>
  <path d="M 43.61874787234058,4.917475408435493 L 44.11160888002553,5.045806433686103" fill="none" stroke="rgb(89,89,89)" stroke-width="0.1"/>
  <path d="M 44.11160888002553,5.045806433686103 L 44.6135775815186,5.13187761155325" fill="none" stroke="rgb(89,89,89)" stroke-width="0.1"/>
  <path d="M 44.6135775815186,5.13187761155325 L 45.121037280822975,5.175068797228079" fill="none" stroke="rgb(89,89,89)" stroke-width="0.1"/>
  <path d="M 45.121037280822975,5.175068797228079 L 45.630331719176866,5.175068797228079" fill="none" stroke="rgb(89,89,89)" stroke-width="0.1"/>
  <path d="M 45.630331719176866,5.175068797228079 L 46.13779141848124,5.13187761155325" fill="none" stroke="rgb(89,89,89)" stroke-width="0.1"/>
  <path d="M 46.13779141848124,5.13187761155325 L 46.63976011997431,5.045806433686103" fill="none" stroke="rgb(89,89,89)" stroke-width="0.1"/>
  <path d="M 46.63976011997431,5.045806433686103 L 47.13262112765926,4.917475408435493" fill="none" stroke="rgb(89,89,89)" stroke-width="0.1"/>
  <path d="M 47.13262112765926,4.917475408435493 L 47.61282336668182,4.747809163779046" fill="none" stroke="rgb(89,89,89)" stroke-width="0.1"/>
  <path d="M 47.61282336668182,4.747809163779046 L 48.07690696890597,4.538030148897398" fill="none" stroke="rgb(89,89,89)" stroke-width="0.1"/>
  <path d="M 48.07690696890597,4.538030148897398 L 48.52152820134336,4.289649826399852" fill="none" stroke="rgb(89,89,89)" stroke-width="0.1"/>
  <path d="M 48.52152820134336,4.289649826399852 L 48.94348355782563,4.0044577822016265" fill="none" stroke="rgb(89,89,89)" stroke-width="0.1"/>
  <path d="M 48.94348355782563,4.0044577822016265 L 49.33973284034039,3.6845088315163324" fill="none" stroke="rgb(89,89,89)" stroke-width="0.1"/>
  <path d="M 49.33973284034039,3.6845088315163324 L 49.70742106372711,3.3321082138652613" fill="none" stroke="rgb(89,89,89)" stroke-width="0.1"/>
  <path d="M 49.70742106372711,3.3321082138652613 L 50.043899025910605,2.9497949837738418" fill="none" stroke="rgb(89,89,89)" stroke-width="0.1"/>
  <path d="M 50.043899025910605,2.9497949837738418 L 50.346742395463025,2.5403237168255544" fill="none" stroke="rgb(89,89,89)" stroke-width="0.1"/>
  <path d="M 50.346742395463025,2.5403237168255544 L 50.613769178967004,2.1066446628817914" fill="none" stroke="rgb(89,89,89)" stroke-width="0.1"/>
  <path d="M 50.613769178967004,2.1066446628817914 L 50.843055442328705,1.6518824894639437" fill="none" stroke="rgb(89,89,89)" stroke-width="0.1"/>
  <path d="M 50.843055442328705,1.6518824894639437 L 51.03294917276639,1.1793137684523316" fill="none" stroke="rgb(89,89,89)" stroke-width="0.1"/>
  <path d="M 51.03294917276639,1.1793137684523316 L 51.18208218160089,0.6923433683107376" fill="none" stroke="rgb(89,89,89)" stroke-width="0.1"/>
  <path d="M 51.18208218160089,0.6923433683107376 L 51.28937996208617,0.19447992193108377" fill="none" stroke="rgb(89,89,89)" stroke-width="0.1"/>
  <path d="M 39.37568449999992,23.180474999999987 A 6.0,6.0 0.0 0,0 51.37568449999992,23.180474999999987" fill="none" stroke="rgb(89,89,89)" stroke-width="0.1"/>
  <path d="M 51.37568449999992,23.180474999999987 A 6.0,6.0 0.0 1,0 39.37568449999992,23.180474999999987" fill="none" stroke="rgb(89,89,89)" stroke-width="0.1"/>
  <path d="M 39.37568449999992,47.18047499999999 A 6.0,6.0 0.0 0,0 51.37568449999992,47.18047499999999" fill="none" stroke="rgb(89,89,89)" stroke-width="0.1"/>
  <path d="M 51.37568449999992,47.18047499999999 A 6.0,6.0 0.0 1,0 39.37568449999992,47.18047499999999" fill="none" stroke="rgb(89,89,89)" stroke-width="0.1"/>
  <path d="M 39.37568449999992,79.18067499999998 A 6.0,6.0 0.0 0,0 51.37568449999992,79.18067499999998" fill="none" stroke="rgb(89,89,89)" stroke-width="0.1"/>
  <path d="M 51.37568449999992,79.18067499999998 A 6.0,6.0 0.0 1,0 39.37568449999992,79.18067499999998" fill="none" stroke="rgb(89,89,89)" stroke-width="0.1"/>
  <path d="M 48.52152820134336,99.8045001736001 L 48.07690696890597,99.55611985110258" fill="none" stroke="rgb(89,89,89)" stroke-width="0.1"/>
  <path d="M 48.07690696890597,99.55611985110258 L 47.61282336668182,99.34634083622092" fill="none" stroke="rgb(89,89,89)" stroke-width="0.1"/>
  <path d="M 47.61282336668182,99.34634083622092 L 47.13262112765926,99.17667459156448" fill="none" stroke="rgb(89,89,89)" stroke-width="0.1"/>
  <path d="M 47.13262112765926,99.17667459156448 L 46.63976011997431,99.04834356631386" fill="none" stroke="rgb(89,89,89)" stroke-width="0.1"/>
  <path d="M 46.63976011997431,99.04834356631386 L 46.13779141848124,98.96227238844673" fill="none" stroke="rgb(89,89,89)" stroke-width="0.1"/>
  <path d="M 46.13779141848124,98.96227238844673 L 45.630331719176866,98.9190812027719" fill="none" stroke="rgb(89,89,89)" stroke-width="0.1"/>
  <path d="M 45.630331719176866,98.9190812027719 L 45.121037280822975,98.9190812027719" fill="none" stroke="rgb(89,89,89)" stroke-width="0.1"/>
  <path d="M 45.121037280822975,98.9190812027719 L 44.6135775815186,98.96227238844673" fill="none" stroke="rgb(89,89,89)" stroke-width="0.1"/>
  <path d="M 44.6135775815186,98.96227238844673 L 44.11160888002553,99.04834356631386" fill="none" stroke="rgb(89,89,89)" stroke-width="0.1"/>
  <path d="M 44.11160888002553,99.04834356631386 L 43.61874787234058,99.17667459156448" fill="none" stroke="rgb(89,89,89)" stroke-width="0.1"/>
  <path d="M 43.61874787234058,99.17667459156448 L 43.13854563331802,99.34634083622092" fill="none" stroke="rgb(89,89,89)" stroke-width="0.1"/>
  <path d="M 43.13854563331802,99.34634083622092 L 42.67446203109387,99.55611985110258" fill="none" stroke="rgb(89,89,89)" stroke-width="0.1"/>
  <path d="M 42.67446203109387,99.55611985110258 L 42.22984079865648,99.8045001736001" fill="none" stroke="rgb(89,89,89)" stroke-width="0.1"/>
  <path d="M 39.46198903791367,0.19447992193108377 L 39.56928681839895,0.6923433683107376" fill="none" stroke="rgb(89,89,89)" stroke-width="0.1"/>
  <path d="M 39.56928681839895,0.6923433683107376 L 39.71841982723345,1.1793137684523316" fill="none" stroke="rgb(89,89,89)" stroke-width="0.1"/>
  <path d="M 39.71841982723345,1.1793137684523316 L 39.908313557671136,1.6518824894639437" fill="none" stroke="rgb(89,89,89)" stroke-width="0.1"/>
  <path d="M 39.908313557671136,1.6518824894639437 L 40.137599821032836,2.1066446628817914" fill="none" stroke="rgb(89,89,89)" stroke-width="0.1"/>
  <path d="M 40.137599821032836,2.1066446628817914 L 40.404626604536816,2.5403237168255615" fill="none" stroke="rgb(89,89,89)" stroke-width="0.1"/>
  <path d="M 40.404626604536816,2.5403237168255615 L 40.707469974089236,2.9497949837738418" fill="none" stroke="rgb(89,89,89)" stroke-width="0.1"/>
  <path d="M 40.707469974089236,2.9497949837738418 L 41.04394793627273,3.3321082138652685" fill="none" stroke="rgb(89,89,89)" stroke-width="0.1"/>
  <path d="M 41.04394793627273,3.3321082138652685 L 41.41163615965945,3.6845088315163324" fill="none" stroke="rgb(89,89,89)" stroke-width="0.1"/>
  <path d="M 41.41163615965945,3.6845088315163324 L 41.80788544217421,4.0044577822016265" fill="none" stroke="rgb(89,89,89)" stroke-width="0.1"/>
  <path d="M 41.80788544217421,4.0044577822016265 L 42.22984079865648,4.289649826399852" fill="none" stroke="rgb(89,89,89)" stroke-width="0.1"/>
  <path d="M 42.22984079865648,4.289649826399852 L 42.67446203109387,4.538030148897398" fill="none" stroke="rgb(89,89,89)" stroke-width="0.1"/>
  <path d="M 42.67446203109387,4.538030148897398 L 43.13854563331802,4.747809163779046" fill="none" stroke="rgb(89,89,89)" stroke-width="0.1"/>
  <path d="M 43.13854563331802,4.747809163779046 L 43.61874787234058,4.917475408435493" fill="none" stroke="rgb(89,89,89)" stroke-width="0.1"/>
  <path d="M 43.61874787234058,4.917475408435493 L 44.11160888002553,5.045806433686103" fill="none" stroke="rgb(89,89,89)" stroke-width="0.1"/>
  <path d="M 44.11160888002553,5.045806433686103 L 44.6135775815186,5.13187761155325" fill="none" stroke="rgb(89,89,89)" stroke-width="0.1"/>
  <path d="M 44.6135775815186,5.13187761155325 L 45.121037280822975,5.175068797228079" fill="none" stroke="rgb(89,89,89)" stroke-width="0.1"/>
  <path d="M 45.121037280822975,5.175068797228079 L 45.630331719176866,5.175068797228079" fill="none" stroke="rgb(89,89,89)" stroke-width="0.1"/>
  <path d="M 45.630331719176866,5.175068797228079 L 46.13779141848124,5.13187761155325" fill="none" stroke="rgb(89,89,89)" stroke-width="0.1"/>
  <path d="M 46.13779141848124,5.13187761155325 L 46.63976011997431,5.045806433686103" fill="none" stroke="rgb(89,89,89)" stroke-width="0.1"/>
  <path d="M 46.63976011997431,5.045806433686103 L 47.13262112765926,4.917475408435493" fill="none" stroke="rgb(89,89,89)" stroke-width="0.1"/>
  <path d="M 47.13262112765926,4.917475408435493 L 47.61282336668182,4.747809163779046" fill="none" stroke="rgb(89,89,89)" stroke-width="0.1"/>
  <path d="M 47.61282336668182,4.747809163779046 L 48.07690696890597,4.538030148897398" fill="none" stroke="rgb(89,89,89)" stroke-width="0.1"/>
  <path d="M 48.07690696890597,4.538030148897398 L 48.52152820134336,4.289649826399852" fill="none" stroke="rgb(89,89,89)" stroke-width="0.1"/>
  <path d="M 48.52152820134336,4.289649826399852 L 48.94348355782563,4.0044577822016265" fill="none" stroke="rgb(89,89,89)" stroke-width="0.1"/>
  <path d="M 48.94348355782563,4.0044577822016265 L 49.33973284034039,3.6845088315163324" fill="none" stroke="rgb(89,89,89)" stroke-width="0.1"/>
  <path d="M 49.33973284034039,3.6845088315163324 L 49.70742106372711,3.3321082138652613" fill="none" stroke="rgb(89,89,89)" stroke-width="0.1"/>
  <path d="M 49.70742106372711,3.3321082138652613 L 50.043899025910605,2.9497949837738418" fill="none" stroke="rgb(89,89,89)" stroke-width="0.1"/>
  <path d="M 50.043899025910605,2.9497949837738418 L 50.346742395463025,2.5403237168255544" fill="none" stroke="rgb(89,89,89)" stroke-width="0.1"/>
  <path d="M 50.346742395463025,2.5403237168255544 L 50.613769178967004,2.1066446628817914" fill="none" stroke="rgb(89,89,89)" stroke-width="0.1"/>
  <path d="M 50.613769178967004,2.1066446628817914 L 50.843055442328705,1.6518824894639437" fill="none" stroke="rgb(89,89,89)" stroke-width="0.1"/>
  <path d="M 50.843055442328705,1.6518824894639437 L 51.03294917276639,1.1793137684523316" fill="none" stroke="rgb(89,89,89)" stroke-width="0.1"/>
  <path d="M 51.03294917276639,1.1793137684523316 L 51.18208218160089,0.6923433683107376" fill="none" stroke="rgb(89,89,89)" stroke-width="0.1"/>
  <path d="M 51.18208218160089,0.6923433683107376 L 51.28937996208617,0.19447992193108377" fill="none" stroke="rgb(89,89,89)" stroke-width="0.1"/>
  <path d="M 46.39011149999999,0.0 L 43.49468449999995,3.9804749999999913" fill="none" stroke="rgb(89,89,89)" stroke-width="0.1"/>
  <path d="M 43.49468449999995,3.9804749999999913 L 45.195863696428546,0.0" fill="none" stroke="rgb(89,89,89)" stroke-width="0.1"/>
  <path d="M 46.32037437500003,0.0 L 43.42568449999999,3.9804749999999913" fill="none" stroke="rgb(89,89,89)" stroke-width="0.1"/>
  <path d="M 43.42568449999999,3.9804749999999913 L 45.125915964285696,0.0" fill="none" stroke="rgb(89,89,89)" stroke-width="0.1"/>
  <path d="M 46.56768449999993,18.38047499999999 L 44.77268449999997,22.580474999999993" fill="none" stroke="rgb(89,89,89)" stroke-width="0.1"/>
  <path d="M 44.77268449999997,22.580474999999993 L 47.35268450000001,22.580474999999993" fill="none" stroke="rgb(89,89,89)" stroke-width="0.1"/>
  <path d="M 47.35268450000001,22.580474999999993 L 43.42568449999999,27.980474999999984" fill="none" stroke="rgb(89,89,89)" stroke-width="0.1"/>
  <path d="M 43.42568449999999,27.980474999999984 L 45.21968449999997,23.780474999999996" fill="none" stroke="rgb(89,89,89)" stroke-width="0.1"/>
  <path d="M 45.21968449999997,23.780474999999996 L 42.63968449999993,23.780474999999996" fill="none" stroke="rgb(89,89,89)" stroke-width="0.1"/>
  <path d="M 42.63968449999993,23.780474999999996 L 46.56768449999993,18.38047499999999" fill="none" stroke="rgb(89,89,89)" stroke-width="0.1"/>
  <path d="M 46.56768449999993,42.38047499999999 L 44.77268449999997,46.58047499999999" fill="none" stroke="rgb(89,89,89)" stroke-width="0.1"/>
  <path d="M 44.77268449999997,46.58047499999999 L 47.35268450000001,46.58047499999999" fill="none" stroke="rgb(89,89,89)" stroke-width="0.1"/>
  <path d="M 47.35268450000001,46.58047499999999 L 43.42568449999999,51.98067499999999" fill="none" stroke="rgb(89,89,89)" stroke-width="0.1"/>
  <path d="M 43.42568449999999,51.98067499999999 L 45.21968449999997,47.780474999999996" fill="none" stroke="rgb(89,89,89)" stroke-width="0.1"/>
  <path d="M 45.21968449999997,47.780474999999996 L 42.63968449999993,47.780474999999996" fill="none" stroke="rgb(89,89,89)" stroke-width="0.1"/>
  <path d="M 42.63968449999993,47.780474999999996 L 46.56768449999993,42.38047499999999" fill="none" stroke="rgb(89,89,89)" stroke-width="0.1"/>
  <path d="M 46.56768449999993,74.380675 L 44.77268449999997,78.58067499999999" fill="none" stroke="rgb(89,89,89)" stroke-width="0.1"/>
  <path d="M 44.77268449999997,78.58067499999999 L 47.35268450000001,78.58067499999999" fill="none" stroke="rgb(89,89,89)" stroke-width="0.1"/>
  <path d="M 47.35268450000001,78.58067499999999 L 43.42568449999999,83.98067499999999" fill="none" stroke="rgb(89,89,89)" stroke-width="0.1"/>
  <path d="M 43.42568449999999,83.98067499999999 L 45.21968449999997,79.780675" fill="none" stroke="rgb(89,89,89)" stroke-width="0.1"/>
  <path d="M 45.21968449999997,79.780675 L 42.63968449999993,79.780675" fill="none" stroke="rgb(89,89,89)" stroke-width="0.1"/>
  <path d="M 42.63968449999993,79.780675 L 46.56768449999993,74.380675" fill="none" stroke="rgb(89,89,89)" stroke-width="0.1"/>
  <path d="M 46.32037437500003,0.0 L 43.42568449999999,3.9804749999999913" fill="none" stroke="rgb(89,89,89)" stroke-width="0.1"/>
  <path d="M 43.42568449999999,3.9804749999999913 L 45.125915964285696,0.0" fill="none" stroke="rgb(89,89,89)" stroke-width="0.1"/>
  <path d="M 46.39011149999999,0.0 L 43.49468449999995,3.9804749999999913" fill="none" stroke="rgb(89,89,89)" stroke-width="0.1"/>
  <path d="M 43.49468449999995,3.9804749999999913 L 45.195863696428546,0.0" fill="none" stroke="rgb(89,89,89)" stroke-width="0.1"/>
  <path d="M 46.32037437500003,0.0 L 43.42568449999999,3.9804749999999913" fill="none" stroke="rgb(89,89,89)" stroke-width="0.1"/>
  <path d="M 43.42568449999999,3.9804749999999913 L 45.125915964285696,0.0" fill="none" stroke="rgb(89,89,89)" stroke-width="0.1"/>
  <path d="M 47.35268450000001,22.580474999999993 L 43.42568449999999,27.980474999999984" fill="none" stroke="rgb(89,89,89)" stroke-width="0.1"/>
  <path d="M 43.42568449999999,27.980474999999984 L 45.21968449999997,23.780474999999996" fill="none" stroke="rgb(89,89,89)" stroke-width="0.1"/>
  <path d="M 45.21968449999997,23.780474999999996 L 42.63968449999993,23.780474999999996" fill="none" stroke="rgb(89,89,89)" stroke-width="0.1"/>
  <path d="M 42.63968449999993,23.780474999999996 L 46.56768449999993,18.38047499999999" fill="none" stroke="rgb(89,89,89)" stroke-width="0.1"/>
  <path d="M 46.56768449999993,18.38047499999999 L 44.77268449999997,22.580474999999993" fill="none" stroke="rgb(89,89,89)" stroke-width="0.1"/>
  <path d="M 44.77268449999997,22.580474999999993 L 47.35268450000001,22.580474999999993" fill="none" stroke="rgb(89,89,89)" stroke-width="0.1"/>
  <path d="M 47.35268450000001,46.58047499999999 L 43.42568449999999,51.98067499999999" fill="none" stroke="rgb(89,89,89)" stroke-width="0.1"/>
  <path d="M 43.42568449999999,51.98067499999999 L 45.21968449999997,47.780474999999996" fill="none" stroke="rgb(89,89,89)" stroke-width="0.1"/>
  <path d="M 45.21968449999997,47.780474999999996 L 42.63968449999993,47.780474999999996" fill="none" stroke="rgb(89,89,89)" stroke-width="0.1"/>
  <path d="M 42.63968449999993,47.780474999999996 L 46.56768449999993,42.38047499999999" fill="none" stroke="rgb(89,89,89)" stroke-width="0.1"/>
  <path d="M 46.56768449999993,42.38047499999999 L 44.77268449999997,46.58047499999999" fill="none" stroke="rgb(89,89,89)" stroke-width="0.1"/>
  <path d="M 44.77268449999997,46.58047499999999 L 47.35268450000001,46.58047499999999" fill="none" stroke="rgb(89,89,89)" stroke-width="0.1"/>
  <path d="M 47.35268450000001,78.58067499999999 L 43.42568449999999,83.98067499999999" fill="none" stroke="rgb(89,89,89)" stroke-width="0.1"/>
  <path d="M 43.42568449999999,83.98067499999999 L 45.21968449999997,79.780675" fill="none" stroke="rgb(89,89,89)" stroke-width="0.1"/>
  <path d="M 45.21968449999997,79.780675 L 42.63968449999993,79.780675" fill="none" stroke="rgb(89,89,89)" stroke-width="0.1"/>
  <path d="M 42.63968449999993,79.780675 L 46.56768449999993,74.380675" fill="none" stroke="rgb(89,89,89)" stroke-width="0.1"/>
  <path d="M 46.56768449999993,74.380675 L 44.77268449999997,78.58067499999999" fill="none" stroke="rgb(89,89,89)" stroke-width="0.1"/>
  <path d="M 44.77268449999997,78.58067499999999 L 47.35268450000001,78.58067499999999" fill="none" stroke="rgb(89,89,89)" stroke-width="0.1"/>
  <path d="M 46.32037437500003,0.0 L 43.42568449999999,3.9804749999999913" fill="none" stroke="rgb(89,89,89)" stroke-width="0.1"/>
  <path d="M 43.42568449999999,3.9804749999999913 L 45.125915964285696,0.0" fill="none" stroke="rgb(89,89,89)" stroke-width="0.1"/>
  <circle cx="45.37568449999992" cy="23.180474999999987" fill="none" r="7.5" stroke="rgb(89,89,89)" stroke-width="0.1"/>
  <circle cx="45.37568449999992" cy="23.180474999999987" fill="none" r="6" stroke="rgb(89,89,89)" stroke-width="0.1"/>
  <circle cx="45.37568449999992" cy="47.18047499999999" fill="none" r="7.5" stroke="rgb(89,89,89)" stroke-width="0.1"/>
  <circle cx="45.37568449999992" cy="47.18047499999999" fill="none" r="6" stroke="rgb(89,89,89)" stroke-width="0.1"/>
  <circle cx="45.37568449999992" cy="79.18067499999998" fill="none" r="7.5" stroke="rgb(89,89,89)" stroke-width="0.1"/>
  <circle cx="45.37568449999992" cy="79.18067499999998" fill="none" r="6" stroke="rgb(89,89,89)" stroke-width="0.1"/>
 </g>
</svg>