<?xml version="1.0" encoding="utf-8"?>
<svg style="background-color: #000;" version="1.1" viewBox="0 0 100.0 100.0" xmlns="http://www.w3.org/2000/svg" xmlns:inkscape="http://www.inkscape.org/namespaces/inkscape">
 <g id="layerAREA" inkscape:groupmode="layer" inkscape:label="AREA">
  <text fill="rgb(178,0,178)" font-family="Noto Sans CJK SC" font-size="2" transform="rotate(-0.0,87.57668449999994,50.25967499999999)" x="87.57668449999994" y="50.25967499999999">
   4#-RF-SJ1
  </text>
 </g>
 <g id="layerCOLU" inkscape:groupmode="layer" inkscape:label="COLU">
  <path d="M 100.0,99.78767499999998 L 95.12568449999992,99.78767499999998" fill="none" stroke="rgb(255,73,12)" stroke-width="0.1"/>
  <path d="M 95.12568449999992,99.78767499999998 L 95.12568449999992,100.0" fill="none" stroke="rgb(255,73,12)" stroke-width="0.1"/>
  <path d="M 17.575684499999966,80.78767499999998 L 24.075684499999966,80.78767499999998" fill="none" stroke="rgb(255,73,12)" stroke-width="0.1"/>
  <path d="M 24.075684499999966,80.78767499999998 L 24.075684499999966,89.78767499999998" fill="none" stroke="rgb(255,73,12)" stroke-width="0.1"/>
  <path d="M 24.075684499999966,89.78767499999998 L 17.575684499999966,89.78767499999998" fill="none" stroke="rgb(255,73,12)" stroke-width="0.1"/>
  <path d="M 17.575684499999966,89.78767499999998 L 17.575684499999966,80.78767499999998" fill="none" stroke="rgb(255,73,12)" stroke-width="0.1"/>
  <path d="M 15.325684499999966,30.767674999999997 L 26.325684499999966,30.767674999999997" fill="none" stroke="rgb(255,73,12)" stroke-width="0.1"/>
  <path d="M 26.325684499999966,30.767674999999997 L 26.325684499999966,20.767674999999997" fill="none" stroke="rgb(255,73,12)" stroke-width="0.1"/>
  <path d="M 26.325684499999966,20.767674999999997 L 15.325684499999966,20.767674999999997" fill="none" stroke="rgb(255,73,12)" stroke-width="0.1"/>
  <path d="M 15.325684499999966,20.767674999999997 L 15.325684499999966,30.767674999999997" fill="none" stroke="rgb(255,73,12)" stroke-width="0.1"/>
  <path d="M 100.0,99.78767499999998 L 95.12568449999992,99.78767499999998" fill="none" stroke="rgb(255,73,12)" stroke-width="0.1"/>
  <path d="M 95.12568449999992,99.78767499999998 L 95.12568449999992,100.0" fill="none" stroke="rgb(255,73,12)" stroke-width="0.1"/>
  <path d="M 17.575684499999966,80.78767499999998 L 24.075684499999966,80.78767499999998" fill="none" stroke="rgb(255,73,12)" stroke-width="0.1"/>
  <path d="M 24.075684499999966,80.78767499999998 L 24.075684499999966,89.78767499999998" fill="none" stroke="rgb(255,73,12)" stroke-width="0.1"/>
  <path d="M 24.075684499999966,89.78767499999998 L 17.575684499999966,89.78767499999998" fill="none" stroke="rgb(255,73,12)" stroke-width="0.1"/>
  <path d="M 17.575684499999966,89.78767499999998 L 17.575684499999966,80.78767499999998" fill="none" stroke="rgb(255,73,12)" stroke-width="0.1"/>
  <path d="M 15.325684499999966,30.767674999999997 L 26.325684499999966,30.767674999999997" fill="none" stroke="rgb(255,73,12)" stroke-width="0.1"/>
  <path d="M 26.325684499999966,30.767674999999997 L 26.325684499999966,20.767674999999997" fill="none" stroke="rgb(255,73,12)" stroke-width="0.1"/>
  <path d="M 26.325684499999966,20.767674999999997 L 15.325684499999966,20.767674999999997" fill="none" stroke="rgb(255,73,12)" stroke-width="0.1"/>
  <path d="M 15.325684499999966,20.767674999999997 L 15.325684499999966,30.767674999999997" fill="none" stroke="rgb(255,73,12)" stroke-width="0.1"/>
 </g>
 <g id="layerCOLUMN" inkscape:groupmode="layer" inkscape:label="COLUMN">
  <path d="M 15.325684499999966,30.767674999999997 L 26.325684499999966,30.767674999999997" fill="none" stroke="rgb(0,178,178)" stroke-width="0.1"/>
  <path d="M 26.325684499999966,30.767674999999997 L 26.325684499999966,23.767674999999997" fill="none" stroke="rgb(0,178,178)" stroke-width="0.1"/>
  <path d="M 26.325684499999966,20.767674999999997 L 18.325684499999966,20.767674999999997" fill="none" stroke="rgb(0,178,178)" stroke-width="0.1"/>
  <path d="M 15.325684499999966,20.767674999999997 L 15.325684499999966,30.767674999999997" fill="none" stroke="rgb(0,178,178)" stroke-width="0.1"/>
  <path d="M 16.325684499999966,89.785675 L 25.325684499999966,89.785675" fill="none" stroke="rgb(0,178,178)" stroke-width="0.1"/>
  <path d="M 25.325684499999966,89.785675 L 25.325684499999966,83.28767499999998" fill="none" stroke="rgb(0,178,178)" stroke-width="0.1"/>
  <path d="M 25.325684499999966,83.28767499999998 L 16.325684499999966,83.28767499999998" fill="none" stroke="rgb(0,178,178)" stroke-width="0.1"/>
  <path d="M 16.325684499999966,83.28767499999998 L 16.325684499999966,89.785675" fill="none" stroke="rgb(0,178,178)" stroke-width="0.1"/>
  <path d="M 100.0,99.78767499999998 L 95.12568449999992,99.78767499999998" fill="none" stroke="rgb(0,178,178)" stroke-width="0.1"/>
 </g>
 <g id="layerCOLU_HATCH" inkscape:groupmode="layer" inkscape:label="COLU_HATCH">
  <path d="M 17.575684499999966,89.78767499999998 L 24.075684499999966,89.78767499999998" fill="none" stroke="rgb(92,92,92)" stroke-width="0.1"/>
  <path d="M 24.075684499999966,89.78767499999998 L 24.075684499999966,80.78767499999998" fill="none" stroke="rgb(92,92,92)" stroke-width="0.1"/>
  <path d="M 24.075684499999966,80.78767499999998 L 17.575684499999966,80.78767499999998" fill="none" stroke="rgb(92,92,92)" stroke-width="0.1"/>
  <path d="M 17.575684499999966,80.78767499999998 L 17.575684499999966,89.78767499999998" fill="none" stroke="rgb(92,92,92)" stroke-width="0.1"/>
  <path d="M 100.0,99.78767499999998 L 95.12568449999992,99.78767499999998" fill="none" stroke="rgb(92,92,92)" stroke-width="0.1"/>
  <path d="M 95.12568449999992,99.78767499999998 L 95.12568449999992,100.0" fill="none" stroke="rgb(92,92,92)" stroke-width="0.1"/>
  <path d="M 15.325684499999966,30.767674999999997 L 26.325684499999966,30.767674999999997" fill="none" stroke="rgb(92,92,92)" stroke-width="0.1"/>
  <path d="M 26.325684499999966,30.767674999999997 L 26.325684499999966,20.767674999999997" fill="none" stroke="rgb(92,92,92)" stroke-width="0.1"/>
  <path d="M 26.325684499999966,20.767674999999997 L 15.325684499999966,20.767674999999997" fill="none" stroke="rgb(92,92,92)" stroke-width="0.1"/>
  <path d="M 15.325684499999966,20.767674999999997 L 15.325684499999966,30.767674999999997" fill="none" stroke="rgb(92,92,92)" stroke-width="0.1"/>
  <path d="M 17.575684499999966,89.78767499999998 L 24.075684499999966,89.78767499999998" fill="none" stroke="rgb(92,92,92)" stroke-width="0.1"/>
  <path d="M 24.075684499999966,89.78767499999998 L 24.075684499999966,80.78767499999998" fill="none" stroke="rgb(92,92,92)" stroke-width="0.1"/>
  <path d="M 24.075684499999966,80.78767499999998 L 17.575684499999966,80.78767499999998" fill="none" stroke="rgb(92,92,92)" stroke-width="0.1"/>
  <path d="M 17.575684499999966,80.78767499999998 L 17.575684499999966,89.78767499999998" fill="none" stroke="rgb(92,92,92)" stroke-width="0.1"/>
  <path d="M 100.0,99.78767499999998 L 95.12568449999992,99.78767499999998" fill="none" stroke="rgb(92,92,92)" stroke-width="0.1"/>
  <path d="M 95.12568449999992,99.78767499999998 L 95.12568449999992,100.0" fill="none" stroke="rgb(92,92,92)" stroke-width="0.1"/>
  <path d="M 15.325684499999966,30.767674999999997 L 26.325684499999966,30.767674999999997" fill="none" stroke="rgb(92,92,92)" stroke-width="0.1"/>
  <path d="M 26.325684499999966,30.767674999999997 L 26.325684499999966,20.767674999999997" fill="none" stroke="rgb(92,92,92)" stroke-width="0.1"/>
  <path d="M 26.325684499999966,20.767674999999997 L 15.325684499999966,20.767674999999997" fill="none" stroke="rgb(92,92,92)" stroke-width="0.1"/>
  <path d="M 15.325684499999966,20.767674999999997 L 15.325684499999966,30.767674999999997" fill="none" stroke="rgb(92,92,92)" stroke-width="0.1"/>
 </g>
 <g id="layerDIM_LEAD" inkscape:groupmode="layer" inkscape:label="DIM_LEAD">
  <path d="M 0.0,77.189675 L 48.1416845,77.189675" fill="none" stroke="rgb(0,178,0)" stroke-width="0.1"/>
  <path d="M 48.1416845,77.189675 L 58.34968449999997,94.566675" fill="none" stroke="rgb(0,178,0)" stroke-width="0.1"/>
  <path d="M 10.49068449999993,50.66267499999998 L 65.19868450000001,50.66267499999998" fill="none" stroke="rgb(0,178,0)" stroke-width="0.1"/>
  <path d="M 65.19868450000001,50.66267499999998 L 78.68368450000003,64.303675" fill="none" stroke="rgb(0,178,0)" stroke-width="0.1"/>
  <path d="M 16.98068449999994,68.06167499999998 L 71.68868450000002,68.06167499999998" fill="none" stroke="rgb(0,178,0)" stroke-width="0.1"/>
  <path d="M 71.68868450000002,68.06167499999998 L 80.61568449999993,81.44267499999998" fill="none" stroke="rgb(0,178,0)" stroke-width="0.1"/>
  <path d="M 37.56268449999993,17.357675 L 92.26968449999993,17.357675" fill="none" stroke="rgb(0,178,0)" stroke-width="0.1"/>
  <path d="M 92.26968449999993,17.357675 L 100.0,25.157307732206306" fill="none" stroke="rgb(0,178,0)" stroke-width="0.1"/>
  <path d="M 57.03268449999996,9.064674999999994 L 100.0,9.064674999999994" fill="none" stroke="rgb(0,178,0)" stroke-width="0.1"/>
  <text fill="rgb(0,0,0)" font-family="Noto Sans CJK SC" font-size="2" transform="rotate(-0.0,10.49068449999993,48.82567499999999)" x="10.49068449999993" y="48.82567499999999">
   集水坑：1000X1000X800
  </text>
  <text fill="rgb(0,0,0)" font-family="Noto Sans CJK SC" font-size="2" transform="rotate(-0.0,16.98068449999994,66.22367499999999)" x="16.98068449999994" y="66.22367499999999">
   集水坑：1000X1000X800
  </text>
  <text fill="rgb(0,0,0)" font-family="Noto Sans CJK SC" font-size="2" transform="rotate(-0.0,37.56268449999993,15.520674999999983)" x="37.56268449999993" y="15.520674999999983">
   集水坑：1000X1000X800
  </text>
  <text fill="rgb(0,0,0)" font-family="Noto Sans CJK SC" font-size="2" transform="rotate(-0.0,57.03268449999996,7.2276749999999765)" x="57.03268449999996" y="7.2276749999999765">
   集水坑：1000X1000X800
  </text>
 </g>
 <g id="layerDOOR_FIRE" inkscape:groupmode="layer" inkscape:label="DOOR_FIRE">
  <path d="M 13.51568450000002,61.57367499999998 A 7.3125,7.3125 0.0 0,0 20.825684499999966,68.69867499999998" fill="none" instance-id="6" semantic-id="4" stroke="rgb(178,178,0)" stroke-width="0.1"/>
  <path d="M 20.825684499999966,68.69867499999998 A 7.3125,7.3125 0.0 0,0 13.51568450000002,75.82367499999998" fill="none" instance-id="6" semantic-id="4" stroke="rgb(178,178,0)" stroke-width="0.1"/>
  <path d="M 80.42268449999995,55.36767499999999 A 7.8,7.8 0.0 0,0 72.62568449999992,47.767675" fill="none" instance-id="7" semantic-id="3" stroke="rgb(178,178,0)" stroke-width="0.1"/>
  <path d="M 20.825684499999966,76.19867499999998 L 20.825684499999966,75.82367499999998" fill="none" instance-id="6" semantic-id="4" stroke="rgb(178,178,0)" stroke-width="0.1"/>
  <path d="M 20.825684499999966,75.82367499999998 L 13.512684499999978,75.82367499999998" fill="none" instance-id="6" semantic-id="4" stroke="rgb(178,178,0)" stroke-width="0.1"/>
  <path d="M 13.512684499999978,75.82367499999998 L 13.512684499999978,76.19867499999998" fill="none" instance-id="6" semantic-id="4" stroke="rgb(178,178,0)" stroke-width="0.1"/>
  <path d="M 13.512684499999978,76.19867499999998 L 20.825684499999966,76.19867499999998" fill="none" instance-id="6" semantic-id="4" stroke="rgb(178,178,0)" stroke-width="0.1"/>
  <path d="M 20.825684499999966,61.57367499999998 L 20.825684499999966,61.19867499999998" fill="none" instance-id="6" semantic-id="4" stroke="rgb(178,178,0)" stroke-width="0.1"/>
  <path d="M 20.825684499999966,61.19867499999998 L 13.512684499999978,61.19867499999998" fill="none" instance-id="6" semantic-id="4" stroke="rgb(178,178,0)" stroke-width="0.1"/>
  <path d="M 13.512684499999978,61.19867499999998 L 13.512684499999978,61.57367499999998" fill="none" instance-id="6" semantic-id="4" stroke="rgb(178,178,0)" stroke-width="0.1"/>
  <path d="M 13.512684499999978,61.57367499999998 L 20.825684499999966,61.57367499999998" fill="none" instance-id="6" semantic-id="4" stroke="rgb(178,178,0)" stroke-width="0.1"/>
  <path d="M 80.42568449999999,55.36767499999999 L 80.42568449999999,55.767675" fill="none" instance-id="7" semantic-id="3" stroke="rgb(178,178,0)" stroke-width="0.1"/>
  <path d="M 80.42568449999999,55.767675 L 72.62568449999992,55.767675" fill="none" instance-id="7" semantic-id="3" stroke="rgb(178,178,0)" stroke-width="0.1"/>
  <path d="M 72.62568449999992,55.767675 L 72.62568449999992,55.36767499999999" fill="none" instance-id="7" semantic-id="3" stroke="rgb(178,178,0)" stroke-width="0.1"/>
  <path d="M 72.62568449999992,55.36767499999999 L 80.42568449999999,55.36767499999999" fill="none" instance-id="7" semantic-id="3" stroke="rgb(178,178,0)" stroke-width="0.1"/>
 </g>
 <g id="layerDOOR_FIRE_TEXT" inkscape:groupmode="layer" inkscape:label="DOOR_FIRE_TEXT">
  <text fill="rgb(0,0,0)" font-family="Noto Sans CJK SC" font-size="2" transform="rotate(-90.0,27.26468449999993,77.404675)" x="27.26468449999993" y="77.404675">
   FGM甲1521
  </text>
  <text fill="rgb(0,0,0)" font-family="Noto Sans CJK SC" font-size="2" transform="rotate(90.0,67.18668449999996,44.124674999999996)" x="67.18668449999996" y="44.124674999999996">
   FM甲0821
  </text>
 </g>
 <g id="layerDOOR_RF" inkscape:groupmode="layer" inkscape:label="DOOR_RF">
  <path d="M 28.432684499999937,6.160674999999998 A 15.0,15.0 0.0 0,0 17.825684499999966,1.767674999999997" fill="none" instance-id="9" semantic-id="3" stroke="rgb(178,178,0)" stroke-width="0.1"/>
  <path d="M 95.08005090137362,99.64171197881689 L 95.02306174490536,99.12121894711032" fill="none" instance-id="15" semantic-id="3" stroke="rgb(178,178,0)" stroke-width="0.1"/>
  <path d="M 95.02306174490536,99.12121894711032 L 94.94342124131629,98.60370744946209" fill="none" instance-id="15" semantic-id="3" stroke="rgb(178,178,0)" stroke-width="0.1"/>
  <path d="M 94.94342124131629,98.60370744946209 L 94.84128101769647,98.09016277299378" fill="none" instance-id="15" semantic-id="3" stroke="rgb(178,178,0)" stroke-width="0.1"/>
  <path d="M 94.84128101769647,98.09016277299378 L 94.71683553822197,97.58156265241922" fill="none" instance-id="15" semantic-id="3" stroke="rgb(178,178,0)" stroke-width="0.1"/>
  <path d="M 94.71683553822197,97.58156265241922 L 94.5703217339153,97.07887540854131" fill="none" instance-id="15" semantic-id="3" stroke="rgb(178,178,0)" stroke-width="0.1"/>
  <path d="M 94.5703217339153,97.07887540854131 L 94.40201855155362,96.58305810467118" fill="none" instance-id="15" semantic-id="3" stroke="rgb(178,178,0)" stroke-width="0.1"/>
  <path d="M 94.40201855155362,96.58305810467118 L 94.21224642258426,96.0950547244816" fill="none" instance-id="15" semantic-id="3" stroke="rgb(178,178,0)" stroke-width="0.1"/>
  <path d="M 94.21224642258426,96.0950547244816 L 94.00136665305638,95.61579437476138" fill="none" instance-id="15" semantic-id="3" stroke="rgb(178,178,0)" stroke-width="0.1"/>
  <path d="M 94.00136665305638,95.61579437476138 L 93.7697807357332,95.1461895164947" fill="none" instance-id="15" semantic-id="3" stroke="rgb(178,178,0)" stroke-width="0.1"/>
  <path d="M 93.7697807357332,95.1461895164947 L 93.51792958569195,94.68713422763193" fill="none" instance-id="15" semantic-id="3" stroke="rgb(178,178,0)" stroke-width="0.1"/>
  <path d="M 93.51792958569195,94.68713422763193 L 93.2462927008678,94.23950250085971" fill="none" instance-id="15" semantic-id="3" stroke="rgb(178,178,0)" stroke-width="0.1"/>
  <path d="M 93.2462927008678,94.23950250085971 L 92.95538724914138,93.80414657961148" fill="none" instance-id="15" semantic-id="3" stroke="rgb(178,178,0)" stroke-width="0.1"/>
  <path d="M 92.95538724914138,93.80414657961148 L 92.64576708370521,93.38189533548618" fill="none" instance-id="15" semantic-id="3" stroke="rgb(178,178,0)" stroke-width="0.1"/>
  <path d="M 92.64576708370521,93.38189533548618 L 92.31802168858633,92.97355269016435" fill="none" instance-id="15" semantic-id="3" stroke="rgb(178,178,0)" stroke-width="0.1"/>
  <path d="M 92.31802168858633,92.97355269016435 L 91.97277505633065,92.57989608482652" fill="none" instance-id="15" semantic-id="3" stroke="rgb(178,178,0)" stroke-width="0.1"/>
  <path d="M 91.97277505633065,92.57989608482652 L 91.61068449999993,92.201675" fill="none" instance-id="15" semantic-id="3" stroke="rgb(178,178,0)" stroke-width="0.1"/>
  <path d="M 81.11168450000002,33.425674999999984 A 8.0,8.0 0.0 0,0 86.76868449999995,35.768675" fill="none" instance-id="11" semantic-id="3" stroke="rgb(178,178,0)" stroke-width="0.1"/>
  <path d="M 92.4826845,35.768675 A 8.0,8.0 0.0 0,0 98.13968449999993,33.425674999999984" fill="none" instance-id="12" semantic-id="3" stroke="rgb(178,178,0)" stroke-width="0.1"/>
  <path d="M 97.37568449999992,58.084675000000004 L 100.0,56.569481293302516" fill="none" stroke="rgb(178,178,0)" stroke-width="0.1"/>
  <path d="M 97.62568449999992,60.767675 L 100.0,60.767675" fill="none" stroke="rgb(178,178,0)" stroke-width="0.1"/>
  <path d="M 97.62568449999992,58.517675 L 100.0,57.14682309468819" fill="none" stroke="rgb(178,178,0)" stroke-width="0.1"/>
  <path d="M 97.62568449999992,57.767675 L 100.0,57.767675" fill="none" stroke="rgb(178,178,0)" stroke-width="0.1"/>
  <path d="M 87.12568449999992,35.768675 L 87.12568449999992,27.768675" fill="none" instance-id="11" semantic-id="3" stroke="rgb(178,178,0)" stroke-width="0.1"/>
  <path d="M 92.12568449999992,35.768675 L 92.12568449999992,27.768675" fill="none" instance-id="12" semantic-id="3" stroke="rgb(178,178,0)" stroke-width="0.1"/>
  <path d="M 28.99768449999999,6.726675 L 28.432684499999937,6.160674999999998" fill="none" instance-id="9" semantic-id="3" stroke="rgb(178,178,0)" stroke-width="0.1"/>
  <path d="M 28.432684499999937,6.160674999999998 L 17.825684499999966,16.767674999999997" fill="none" instance-id="9" semantic-id="3" stroke="rgb(178,178,0)" stroke-width="0.1"/>
  <path d="M 17.825684499999966,16.767674999999997 L 18.391684499999997,17.332674999999995" fill="none" instance-id="9" semantic-id="3" stroke="rgb(178,178,0)" stroke-width="0.1"/>
  <path d="M 18.391684499999997,17.332674999999995 L 28.99768449999999,6.726675" fill="none" instance-id="9" semantic-id="3" stroke="rgb(178,178,0)" stroke-width="0.1"/>
  <path d="M 91.61068449999993,92.201675 L 91.27168449999999,91.862675" fill="none" instance-id="15" semantic-id="3" stroke="rgb(178,178,0)" stroke-width="0.1"/>
  <path d="M 91.27168449999999,91.862675 L 83.13340047525037,100.0" fill="none" instance-id="15" semantic-id="3" stroke="rgb(178,178,0)" stroke-width="0.1"/>
  <path d="M 83.81327846358704,100.0 L 91.61068449999993,92.201675" fill="none" instance-id="15" semantic-id="3" stroke="rgb(178,178,0)" stroke-width="0.1"/>
  <path d="M 86.76868449999995,27.768675 L 86.12168450000001,27.121674999999982" fill="none" instance-id="11" semantic-id="3" stroke="rgb(178,178,0)" stroke-width="0.1"/>
  <path d="M 86.12168450000001,27.121674999999982 L 80.46468449999998,32.77867499999999" fill="none" instance-id="11" semantic-id="3" stroke="rgb(178,178,0)" stroke-width="0.1"/>
  <path d="M 80.46468449999998,32.77867499999999 L 81.11168450000002,33.425674999999984" fill="none" instance-id="11" semantic-id="3" stroke="rgb(178,178,0)" stroke-width="0.1"/>
  <path d="M 81.11168450000002,33.425674999999984 L 86.76868449999995,27.768675" fill="none" instance-id="11" semantic-id="3" stroke="rgb(178,178,0)" stroke-width="0.1"/>
  <path d="M 98.7856845,32.77867499999999 L 98.13968449999993,33.425674999999984" fill="none" instance-id="12" semantic-id="3" stroke="rgb(178,178,0)" stroke-width="0.1"/>
  <path d="M 98.13968449999993,33.425674999999984 L 92.4826845,27.768675" fill="none" instance-id="12" semantic-id="3" stroke="rgb(178,178,0)" stroke-width="0.1"/>
  <path d="M 92.4826845,27.768675 L 93.12868449999996,27.121674999999982" fill="none" instance-id="12" semantic-id="3" stroke="rgb(178,178,0)" stroke-width="0.1"/>
  <path d="M 93.12868449999996,27.121674999999982 L 98.7856845,32.77867499999999" fill="none" instance-id="12" semantic-id="3" stroke="rgb(178,178,0)" stroke-width="0.1"/>
 </g>
 <g id="layerDOOR_RF_TEXT" inkscape:groupmode="layer" inkscape:label="DOOR_RF_TEXT">
  <text fill="rgb(0,0,0)" font-family="Noto Sans CJK SC" font-size="2" transform="rotate(-90.0,23.15068450000001,19.57567499999999)" x="23.15068450000001" y="19.57567499999999">
   HHM1520左开
  </text>
  <text fill="rgb(0,0,0)" font-family="Noto Sans CJK SC" font-size="2" transform="rotate(-0.0,86.68768449999993,65.600675)" x="86.68768449999993" y="65.600675">
   BMH14500-30
  </text>
  <text fill="rgb(0,0,0)" font-family="Noto Sans CJK SC" font-size="2" transform="rotate(90.0,94.2856845,22.780675000000002)" x="94.2856845" y="22.780675000000002">
   HFM0820(5)
  </text>
 </g>
 <g id="layerDOTE" inkscape:groupmode="layer" inkscape:label="DOTE">
  <path d="M 0.0,86.53867499999998 L 100.0,86.53867499999998" fill="none" stroke="rgb(88,0,0)" stroke-width="0.1"/>
  <path d="M 0.0,35.03767499999998 L 100.0,35.03767499999998" fill="none" stroke="rgb(88,0,0)" stroke-width="0.1"/>
  <path d="M 20.825684499999966,100.0 L 20.825684499999966,0.0" fill="none" stroke="rgb(88,0,0)" stroke-width="0.1"/>
 </g>
 <g id="layerEQUIP_消火栓" inkscape:groupmode="layer" inkscape:label="EQUIP_消火栓">
  <path d="M 19.895684500000016,33.467674999999986 L 17.895684500000016,33.467674999999986" fill="none" stroke="rgb(178,0,0)" stroke-width="0.1"/>
  <path d="M 17.895684500000016,40.467674999999986 L 19.895684500000016,40.467674999999986" fill="none" stroke="rgb(178,0,0)" stroke-width="0.1"/>
  <path d="M 19.895684500000016,40.467674999999986 L 19.895684500000016,33.467674999999986" fill="none" stroke="rgb(178,0,0)" stroke-width="0.1"/>
  <path d="M 19.895684500000016,40.467674999999986 L 17.895684500000016,33.467674999999986" fill="none" stroke="rgb(178,0,0)" stroke-width="0.1"/>
  <path d="M 17.895684500000016,33.467674999999986 L 17.895684500000016,40.467674999999986" fill="none" stroke="rgb(178,0,0)" stroke-width="0.1"/>
 </g>
 <g id="layerLVTRY" inkscape:groupmode="layer" inkscape:label="LVTRY">
  <path d="M 24.075684499999966,97.53767499999998 L 34.075684499999966,87.53767499999998" fill="none" stroke="rgb(178,0,178)" stroke-width="0.1"/>
  <path d="M 24.075684499999966,87.53767499999998 L 34.075684499999966,97.53767499999998" fill="none" stroke="rgb(178,0,178)" stroke-width="0.1"/>
  <path d="M 34.075684499999966,97.53767499999998 L 44.075684499999966,87.53767499999998" fill="none" stroke="rgb(178,0,178)" stroke-width="0.1"/>
  <path d="M 34.075684499999966,87.53767499999998 L 44.075684499999966,97.53767499999998" fill="none" stroke="rgb(178,0,178)" stroke-width="0.1"/>
  <path d="M 24.075684499999966,87.53767499999998 L 24.075684499999966,97.53767499999998" fill="none" stroke="rgb(178,0,178)" stroke-width="0.1"/>
  <path d="M 24.075684499999966,97.53767499999998 L 34.075684499999966,97.53767499999998" fill="none" stroke="rgb(178,0,178)" stroke-width="0.1"/>
  <path d="M 34.075684499999966,97.53767499999998 L 34.075684499999966,87.53767499999998" fill="none" stroke="rgb(178,0,178)" stroke-width="0.1"/>
  <path d="M 34.075684499999966,87.53767499999998 L 24.075684499999966,87.53767499999998" fill="none" stroke="rgb(178,0,178)" stroke-width="0.1"/>
  <path d="M 34.075684499999966,87.53767499999998 L 34.075684499999966,97.53767499999998" fill="none" stroke="rgb(178,0,178)" stroke-width="0.1"/>
  <path d="M 34.075684499999966,97.53767499999998 L 44.075684499999966,97.53767499999998" fill="none" stroke="rgb(178,0,178)" stroke-width="0.1"/>
  <path d="M 44.075684499999966,97.53767499999998 L 44.075684499999966,87.53767499999998" fill="none" stroke="rgb(178,0,178)" stroke-width="0.1"/>
  <path d="M 44.075684499999966,87.53767499999998 L 34.075684499999966,87.53767499999998" fill="none" stroke="rgb(178,0,178)" stroke-width="0.1"/>
  <circle cx="29.075684499999966" cy="92.53767499999998" fill="none" r="4" stroke="rgb(178,0,178)" stroke-width="0.1"/>
  <circle cx="39.075684499999966" cy="92.53767499999998" fill="none" r="4" stroke="rgb(178,0,178)" stroke-width="0.1"/>
 </g>
 <g id="layerOVER" inkscape:groupmode="layer" inkscape:label="OVER">
  <path d="M 11.230684499999938,6.017674999999997 L 11.230684499999938,16.017674999999997" fill="none" stroke="rgb(178,0,178)" stroke-width="0.1"/>
  <path d="M 11.230684499999938,16.017674999999997 L 8.230684499999938,16.017674999999997" fill="none" stroke="rgb(178,0,178)" stroke-width="0.1"/>
  <path d="M 8.230684499999938,16.017674999999997 L 8.230684499999938,6.017674999999997" fill="none" stroke="rgb(178,0,178)" stroke-width="0.1"/>
  <path d="M 8.230684499999938,6.017674999999997 L 11.230684499999938,6.017674999999997" fill="none" stroke="rgb(178,0,178)" stroke-width="0.1"/>
  <path d="M 23.14368449999995,11.017674999999997 L 14.230684499999938,5.871674999999982" fill="none" stroke="rgb(178,0,178)" stroke-width="0.1"/>
  <path d="M 14.230684499999938,5.871674999999982 L 14.230684499999938,16.163674999999984" fill="none" stroke="rgb(178,0,178)" stroke-width="0.1"/>
  <path d="M 14.230684499999938,16.163674999999984 L 23.14368449999995,11.017674999999997" fill="none" stroke="rgb(178,0,178)" stroke-width="0.1"/>
  <path d="M 0.0,89.785675 L 100.0,89.785675" fill="none" stroke="rgb(12,133,255)" stroke-width="0.1"/>
 </g>
 <g id="layerPUB_HATCH" inkscape:groupmode="layer" inkscape:label="PUB_HATCH">
  <path d="M 15.325684499999966,30.767674999999997 L 26.325684499999966,30.767674999999997" fill="none" instance-id="-1" semantic-id="1" stroke="rgb(89,89,89)" stroke-width="0.1"/>
  <path d="M 26.325684499999966,30.767674999999997 L 26.325684499999966,20.767674999999997" fill="none" instance-id="-1" semantic-id="1" stroke="rgb(89,89,89)" stroke-width="0.1"/>
  <path d="M 26.325684499999966,20.767674999999997 L 15.325684499999966,20.767674999999997" fill="none" instance-id="-1" semantic-id="1" stroke="rgb(89,89,89)" stroke-width="0.1"/>
  <path d="M 15.325684499999966,20.767674999999997 L 15.325684499999966,30.767674999999997" fill="none" instance-id="-1" semantic-id="1" stroke="rgb(89,89,89)" stroke-width="0.1"/>
  <path d="M 16.325684499999966,89.785675 L 25.325684499999966,89.785675" fill="none" instance-id="-1" semantic-id="1" stroke="rgb(89,89,89)" stroke-width="0.1"/>
  <path d="M 25.325684499999966,89.785675 L 25.325684499999966,83.28767499999998" fill="none" instance-id="-1" semantic-id="1" stroke="rgb(89,89,89)" stroke-width="0.1"/>
  <path d="M 25.325684499999966,83.28767499999998 L 16.325684499999966,83.28767499999998" fill="none" instance-id="-1" semantic-id="1" stroke="rgb(89,89,89)" stroke-width="0.1"/>
  <path d="M 16.325684499999966,83.28767499999998 L 16.325684499999966,89.785675" fill="none" instance-id="-1" semantic-id="1" stroke="rgb(89,89,89)" stroke-width="0.1"/>
  <path d="M 97.62568449999992,57.767675 L 92.12568449999992,57.767675" fill="none" instance-id="-1" semantic-id="1" stroke="rgb(89,89,89)" stroke-width="0.1"/>
  <path d="M 92.12568449999992,57.767675 L 92.12568449999992,60.767675" fill="none" instance-id="-1" semantic-id="1" stroke="rgb(89,89,89)" stroke-width="0.1"/>
  <path d="M 92.12568449999992,60.767675 L 97.62568449999992,60.767675" fill="none" instance-id="-1" semantic-id="1" stroke="rgb(89,89,89)" stroke-width="0.1"/>
  <path d="M 97.62568449999992,60.767675 L 97.62568449999992,57.767675" fill="none" instance-id="-1" semantic-id="1" stroke="rgb(89,89,89)" stroke-width="0.1"/>
  <path d="M 94.12568449999992,57.767675 L 94.12568449999992,54.767675" fill="none" instance-id="-1" semantic-id="1" stroke="rgb(89,89,89)" stroke-width="0.1"/>
  <path d="M 94.12568449999992,54.767675 L 92.12568449999992,54.767675" fill="none" instance-id="-1" semantic-id="1" stroke="rgb(89,89,89)" stroke-width="0.1"/>
  <path d="M 92.12568449999992,54.767675 L 92.12568449999992,57.767675" fill="none" instance-id="-1" semantic-id="1" stroke="rgb(89,89,89)" stroke-width="0.1"/>
  <path d="M 92.12568449999992,57.767675 L 94.12568449999992,57.767675" fill="none" instance-id="-1" semantic-id="1" stroke="rgb(89,89,89)" stroke-width="0.1"/>
  <path d="M 18.325684499999966,20.767674999999997 L 18.325684499999966,16.767674999999997" fill="none" instance-id="-1" semantic-id="1" stroke="rgb(89,89,89)" stroke-width="0.1"/>
  <path d="M 18.325684499999966,16.767674999999997 L 15.325684499999966,16.767674999999997" fill="none" instance-id="-1" semantic-id="1" stroke="rgb(89,89,89)" stroke-width="0.1"/>
  <path d="M 15.325684499999966,16.767674999999997 L 15.325684499999966,20.767674999999997" fill="none" instance-id="-1" semantic-id="1" stroke="rgb(89,89,89)" stroke-width="0.1"/>
  <path d="M 15.325684499999966,20.767674999999997 L 18.325684499999966,20.767674999999997" fill="none" instance-id="-1" semantic-id="1" stroke="rgb(89,89,89)" stroke-width="0.1"/>
  <path d="M 15.325684499999966,1.767674999999997 L 18.325684499999966,1.767674999999997" fill="none" instance-id="-1" semantic-id="1" stroke="rgb(89,89,89)" stroke-width="0.1"/>
  <path d="M 18.325684499999966,1.767674999999997 L 18.325684499999966,0.0" fill="none" instance-id="-1" semantic-id="1" stroke="rgb(89,89,89)" stroke-width="0.1"/>
  <path d="M 15.325684499999966,0.0 L 15.325684499999966,1.767674999999997" fill="none" instance-id="-1" semantic-id="1" stroke="rgb(89,89,89)" stroke-width="0.1"/>
  <path d="M 72.62568449999992,77.28767499999998 L 74.12568449999992,78.78767499999998" fill="none" instance-id="-1" semantic-id="1" stroke="rgb(89,89,89)" stroke-width="0.1"/>
  <path d="M 74.12568449999992,78.78767499999998 L 100.0,78.78767499999998" fill="none" instance-id="-1" semantic-id="1" stroke="rgb(89,89,89)" stroke-width="0.1"/>
  <path d="M 100.0,75.78767499999998 L 74.12568449999992,75.78767499999998" fill="none" instance-id="-1" semantic-id="1" stroke="rgb(89,89,89)" stroke-width="0.1"/>
  <path d="M 74.12568449999992,75.78767499999998 L 72.62568449999992,77.28767499999998" fill="none" instance-id="-1" semantic-id="1" stroke="rgb(89,89,89)" stroke-width="0.1"/>
  <path d="M 72.62568449999992,77.28767499999998 L 74.12568449999992,75.78767499999998" fill="none" instance-id="-1" semantic-id="1" stroke="rgb(89,89,89)" stroke-width="0.1"/>
  <path d="M 74.12568449999992,75.78767499999998 L 74.12568449999992,60.767675" fill="none" instance-id="-1" semantic-id="1" stroke="rgb(89,89,89)" stroke-width="0.1"/>
  <path d="M 74.12568449999992,60.767675 L 72.62568449999992,59.267675" fill="none" instance-id="-1" semantic-id="1" stroke="rgb(89,89,89)" stroke-width="0.1"/>
  <path d="M 72.62568449999992,59.267675 L 71.12568449999992,57.767675" fill="none" instance-id="-1" semantic-id="1" stroke="rgb(89,89,89)" stroke-width="0.1"/>
  <path d="M 71.12568449999992,57.767675 L 71.12568449999992,77.28767499999998" fill="none" instance-id="-1" semantic-id="1" stroke="rgb(89,89,89)" stroke-width="0.1"/>
  <path d="M 71.12568449999992,77.28767499999998 L 72.62568449999992,77.28767499999998" fill="none" instance-id="-1" semantic-id="1" stroke="rgb(89,89,89)" stroke-width="0.1"/>
  <path d="M 72.62568449999992,59.267675 L 74.12568449999992,60.767675" fill="none" instance-id="-1" semantic-id="1" stroke="rgb(89,89,89)" stroke-width="0.1"/>
  <path d="M 74.12568449999992,60.767675 L 92.12568449999992,60.767675" fill="none" instance-id="-1" semantic-id="1" stroke="rgb(89,89,89)" stroke-width="0.1"/>
  <path d="M 92.12568449999992,60.767675 L 90.62568449999992,59.267675" fill="none" instance-id="-1" semantic-id="1" stroke="rgb(89,89,89)" stroke-width="0.1"/>
  <path d="M 90.62568449999992,59.267675 L 87.12568449999992,57.767675" fill="none" instance-id="-1" semantic-id="1" stroke="rgb(89,89,89)" stroke-width="0.1"/>
  <path d="M 87.12568449999992,57.767675 L 71.12568449999992,57.767675" fill="none" instance-id="-1" semantic-id="1" stroke="rgb(89,89,89)" stroke-width="0.1"/>
  <path d="M 71.12568449999992,57.767675 L 72.62568449999992,59.267675" fill="none" instance-id="-1" semantic-id="1" stroke="rgb(89,89,89)" stroke-width="0.1"/>
  <path d="M 72.62568449999992,23.767674999999997 L 87.12568449999992,23.767674999999997" fill="none" instance-id="-1" semantic-id="1" stroke="rgb(89,89,89)" stroke-width="0.1"/>
  <path d="M 87.12568449999992,23.767674999999997 L 90.62568449999992,22.267674999999997" fill="none" instance-id="-1" semantic-id="1" stroke="rgb(89,89,89)" stroke-width="0.1"/>
  <path d="M 90.62568449999992,22.267674999999997 L 90.62568449999992,20.767674999999997" fill="none" instance-id="-1" semantic-id="1" stroke="rgb(89,89,89)" stroke-width="0.1"/>
  <path d="M 90.62568449999992,20.767674999999997 L 72.62568449999992,20.767674999999997" fill="none" instance-id="-1" semantic-id="1" stroke="rgb(89,89,89)" stroke-width="0.1"/>
  <path d="M 72.62568449999992,20.767674999999997 L 72.62568449999992,22.267674999999997" fill="none" instance-id="-1" semantic-id="1" stroke="rgb(89,89,89)" stroke-width="0.1"/>
  <path d="M 72.62568449999992,22.267674999999997 L 72.62568449999992,23.767674999999997" fill="none" instance-id="-1" semantic-id="1" stroke="rgb(89,89,89)" stroke-width="0.1"/>
  <path d="M 90.62568449999992,59.267675 L 92.12568449999992,60.767675" fill="none" instance-id="-1" semantic-id="1" stroke="rgb(89,89,89)" stroke-width="0.1"/>
  <path d="M 92.12568449999992,60.767675 L 92.12568449999992,35.768675" fill="none" instance-id="-1" semantic-id="1" stroke="rgb(89,89,89)" stroke-width="0.1"/>
  <path d="M 92.12568449999992,35.768675 L 87.12568449999992,35.768675" fill="none" instance-id="-1" semantic-id="1" stroke="rgb(89,89,89)" stroke-width="0.1"/>
  <path d="M 87.12568449999992,35.768675 L 87.12568449999992,57.767675" fill="none" instance-id="-1" semantic-id="1" stroke="rgb(89,89,89)" stroke-width="0.1"/>
  <path d="M 87.12568449999992,57.767675 L 90.62568449999992,59.267675" fill="none" instance-id="-1" semantic-id="1" stroke="rgb(89,89,89)" stroke-width="0.1"/>
  <path d="M 87.12568449999992,27.768675 L 92.12568449999992,27.768675" fill="none" instance-id="-1" semantic-id="1" stroke="rgb(89,89,89)" stroke-width="0.1"/>
  <path d="M 92.12568449999992,27.768675 L 92.12568449999992,23.767674999999997" fill="none" instance-id="-1" semantic-id="1" stroke="rgb(89,89,89)" stroke-width="0.1"/>
  <path d="M 92.12568449999992,23.767674999999997 L 90.62568449999992,22.267674999999997" fill="none" instance-id="-1" semantic-id="1" stroke="rgb(89,89,89)" stroke-width="0.1"/>
  <path d="M 90.62568449999992,22.267674999999997 L 87.12568449999992,23.767674999999997" fill="none" instance-id="-1" semantic-id="1" stroke="rgb(89,89,89)" stroke-width="0.1"/>
  <path d="M 87.12568449999992,23.767674999999997 L 87.12568449999992,27.768675" fill="none" instance-id="-1" semantic-id="1" stroke="rgb(89,89,89)" stroke-width="0.1"/>
  <path d="M 26.325684499999966,23.767674999999997 L 72.62568449999992,23.767674999999997" fill="none" instance-id="-1" semantic-id="1" stroke="rgb(89,89,89)" stroke-width="0.1"/>
  <path d="M 72.62568449999992,23.767674999999997 L 72.62568449999992,22.267674999999997" fill="none" instance-id="-1" semantic-id="1" stroke="rgb(89,89,89)" stroke-width="0.1"/>
  <path d="M 72.62568449999992,22.267674999999997 L 72.62568449999992,20.767674999999997" fill="none" instance-id="-1" semantic-id="1" stroke="rgb(89,89,89)" stroke-width="0.1"/>
  <path d="M 72.62568449999992,20.767674999999997 L 26.325684499999966,20.767674999999997" fill="none" instance-id="-1" semantic-id="1" stroke="rgb(89,89,89)" stroke-width="0.1"/>
  <path d="M 26.325684499999966,20.767674999999997 L 26.325684499999966,23.767674999999997" fill="none" instance-id="-1" semantic-id="1" stroke="rgb(89,89,89)" stroke-width="0.1"/>
  <path d="M 73.91335949999996,100.0 L 74.12568449999992,99.78767499999998" fill="none" instance-id="-1" semantic-id="1" stroke="rgb(89,89,89)" stroke-width="0.1"/>
  <path d="M 74.12568449999992,99.78767499999998 L 74.12568449999992,86.53767499999998" fill="none" instance-id="-1" semantic-id="1" stroke="rgb(89,89,89)" stroke-width="0.1"/>
  <path d="M 74.12568449999992,86.53767499999998 L 72.62568449999992,86.53767499999998" fill="none" instance-id="-1" semantic-id="1" stroke="rgb(89,89,89)" stroke-width="0.1"/>
  <path d="M 72.62568449999992,86.53767499999998 L 71.12568449999992,86.53767499999998" fill="none" instance-id="-1" semantic-id="1" stroke="rgb(89,89,89)" stroke-width="0.1"/>
  <path d="M 71.12568449999992,86.53767499999998 L 71.12568449999992,100.0" fill="none" instance-id="-1" semantic-id="1" stroke="rgb(89,89,89)" stroke-width="0.1"/>
  <path d="M 90.62568449999992,22.267674999999997 L 92.12568449999992,23.767674999999997" fill="none" instance-id="-1" semantic-id="1" stroke="rgb(89,89,89)" stroke-width="0.1"/>
  <path d="M 92.12568449999992,23.767674999999997 L 100.0,23.767674999999997" fill="none" instance-id="-1" semantic-id="1" stroke="rgb(89,89,89)" stroke-width="0.1"/>
  <path d="M 100.0,20.767674999999997 L 90.62568449999992,20.767674999999997" fill="none" instance-id="-1" semantic-id="1" stroke="rgb(89,89,89)" stroke-width="0.1"/>
  <path d="M 90.62568449999992,20.767674999999997 L 90.62568449999992,22.267674999999997" fill="none" instance-id="-1" semantic-id="1" stroke="rgb(89,89,89)" stroke-width="0.1"/>
  <path d="M 72.62568449999992,86.03767499999998 L 74.12568449999992,86.03767499999998" fill="none" instance-id="-1" semantic-id="1" stroke="rgb(89,89,89)" stroke-width="0.1"/>
  <path d="M 74.12568449999992,86.03767499999998 L 74.12568449999992,78.78767499999998" fill="none" instance-id="-1" semantic-id="1" stroke="rgb(89,89,89)" stroke-width="0.1"/>
  <path d="M 74.12568449999992,78.78767499999998 L 72.62568449999992,77.28767499999998" fill="none" instance-id="-1" semantic-id="1" stroke="rgb(89,89,89)" stroke-width="0.1"/>
  <path d="M 72.62568449999992,77.28767499999998 L 71.12568449999992,77.28767499999998" fill="none" instance-id="-1" semantic-id="1" stroke="rgb(89,89,89)" stroke-width="0.1"/>
  <path d="M 71.12568449999992,77.28767499999998 L 71.12568449999992,86.03767499999998" fill="none" instance-id="-1" semantic-id="1" stroke="rgb(89,89,89)" stroke-width="0.1"/>
  <path d="M 71.12568449999992,86.03767499999998 L 72.62568449999992,86.03767499999998" fill="none" instance-id="-1" semantic-id="1" stroke="rgb(89,89,89)" stroke-width="0.1"/>
  <path d="M 72.62568449999992,86.53767499999998 L 74.12568449999992,86.53767499999998" fill="none" instance-id="-1" semantic-id="1" stroke="rgb(89,89,89)" stroke-width="0.1"/>
  <path d="M 74.12568449999992,86.53767499999998 L 74.12568449999992,86.03767499999998" fill="none" instance-id="-1" semantic-id="1" stroke="rgb(89,89,89)" stroke-width="0.1"/>
  <path d="M 74.12568449999992,86.03767499999998 L 72.62568449999992,86.03767499999998" fill="none" instance-id="-1" semantic-id="1" stroke="rgb(89,89,89)" stroke-width="0.1"/>
  <path d="M 72.62568449999992,86.03767499999998 L 71.12568449999992,86.03767499999998" fill="none" instance-id="-1" semantic-id="1" stroke="rgb(89,89,89)" stroke-width="0.1"/>
  <path d="M 71.12568449999992,86.03767499999998 L 71.12568449999992,86.53767499999998" fill="none" instance-id="-1" semantic-id="1" stroke="rgb(89,89,89)" stroke-width="0.1"/>
  <path d="M 71.12568449999992,86.53767499999998 L 72.62568449999992,86.53767499999998" fill="none" instance-id="-1" semantic-id="1" stroke="rgb(89,89,89)" stroke-width="0.1"/>
  <path d="M 100.0,99.78767499999998 L 95.12568449999992,99.78767499999998" fill="none" instance-id="-1" semantic-id="1" stroke="rgb(89,89,89)" stroke-width="0.1"/>
  <path d="M 95.12568449999992,99.78767499999998 L 95.12568449999992,100.0" fill="none" instance-id="-1" semantic-id="1" stroke="rgb(89,89,89)" stroke-width="0.1"/>
  <path d="M 83.12568449999992,100.0 L 83.12568449999992,99.78767499999998" fill="none" instance-id="-1" semantic-id="1" stroke="rgb(89,89,89)" stroke-width="0.1"/>
  <path d="M 83.12568449999992,99.78767499999998 L 74.12568449999992,99.78767499999998" fill="none" instance-id="-1" semantic-id="1" stroke="rgb(89,89,89)" stroke-width="0.1"/>
  <path d="M 74.12568449999992,99.78767499999998 L 73.91335949999996,100.0" fill="none" instance-id="-1" semantic-id="1" stroke="rgb(89,89,89)" stroke-width="0.1"/>
 </g>
 <g id="layerPUB_TEXT" inkscape:groupmode="layer" inkscape:label="PUB_TEXT">
  <text fill="rgb(0,0,0)" font-family="Noto Sans CJK SC" font-size="2" transform="rotate(-1.33402e-08,38.08768450000002,9.432674999999989)" x="38.08768450000002" y="9.432674999999989">
   密闭通道
  </text>
  <text fill="rgb(0,0,0)" font-family="Noto Sans CJK SC" font-size="2" transform="rotate(-0.0,38.972684500000014,38.203675000000004)" x="38.972684500000014" y="38.203675000000004">
   排风机房
  </text>
  <text fill="rgb(0,0,0)" font-family="Noto Sans CJK SC" font-size="2" transform="rotate(-0.0,72.17768449999994,21.777674999999988)" x="72.17768449999994" y="21.777674999999988">
   集气室
  </text>
  <text fill="rgb(0,0,0)" font-family="Noto Sans CJK SC" font-size="2" transform="rotate(-0.0,78.87768449999999,67.922675)" x="78.87768449999999" y="67.922675">
   兼简易洗消间
  </text>
  <text fill="rgb(0,0,0)" font-family="Noto Sans CJK SC" font-size="2" transform="rotate(-0.0,97.33568449999996,21.08567499999998)" x="97.33568449999996" y="21.08567499999998">
   排风竖井
  </text>
  <text fill="rgb(0,0,0)" font-family="Noto Sans CJK SC" font-size="2" transform="rotate(-0.0,82.22468449999997,74.41267499999998)" x="82.22468449999997" y="74.41267499999998">
   防毒通道
  </text>
  <text fill="rgb(0,0,0)" font-family="Noto Sans CJK SC" font-size="2" transform="rotate(-0.0,85.60468449999996,50.84167499999998)" x="85.60468449999996" y="50.84167499999998">
   扩散室
  </text>
 </g>
 <g id="layerWALL" inkscape:groupmode="layer" inkscape:label="WALL">
  <path d="M 97.62568449999992,60.767675 L 92.12568449999992,60.767675" fill="none" instance-id="-1" semantic-id="1" stroke="rgb(0,178,178)" stroke-width="0.1"/>
  <path d="M 97.62568449999992,57.767675 L 92.12568449999992,57.767675" fill="none" instance-id="-1" semantic-id="1" stroke="rgb(0,178,178)" stroke-width="0.1"/>
  <path d="M 97.62568449999992,60.767675 L 97.62568449999992,57.767675" fill="none" instance-id="-1" semantic-id="1" stroke="rgb(0,178,178)" stroke-width="0.1"/>
  <path d="M 92.12568449999992,60.767675 L 92.12568449999992,57.767675" fill="none" instance-id="-1" semantic-id="1" stroke="rgb(0,178,178)" stroke-width="0.1"/>
  <path d="M 94.12568449999992,57.767675 L 92.12568449999992,57.767675" fill="none" instance-id="-1" semantic-id="1" stroke="rgb(0,178,178)" stroke-width="0.1"/>
  <path d="M 94.12568449999992,54.767675 L 92.12568449999992,54.767675" fill="none" instance-id="-1" semantic-id="1" stroke="rgb(0,178,178)" stroke-width="0.1"/>
  <path d="M 94.12568449999992,57.767675 L 94.12568449999992,54.767675" fill="none" instance-id="-1" semantic-id="1" stroke="rgb(0,178,178)" stroke-width="0.1"/>
  <path d="M 92.12568449999992,57.767675 L 92.12568449999992,54.767675" fill="none" instance-id="-1" semantic-id="1" stroke="rgb(0,178,178)" stroke-width="0.1"/>
  <path d="M 15.325684499999966,20.767674999999997 L 15.325684499999966,16.767674999999997" fill="none" instance-id="-1" semantic-id="1" stroke="rgb(0,178,178)" stroke-width="0.1"/>
  <path d="M 18.325684499999966,20.767674999999997 L 18.325684499999966,16.767674999999997" fill="none" instance-id="-1" semantic-id="1" stroke="rgb(0,178,178)" stroke-width="0.1"/>
  <path d="M 15.325684499999966,16.767674999999997 L 18.325684499999966,16.767674999999997" fill="none" instance-id="-1" semantic-id="1" stroke="rgb(0,178,178)" stroke-width="0.1"/>
  <path d="M 15.325684499999966,1.767674999999997 L 15.325684499999966,0.0" fill="none" instance-id="-1" semantic-id="1" stroke="rgb(0,178,178)" stroke-width="0.1"/>
  <path d="M 18.325684499999966,1.767674999999997 L 18.325684499999966,0.0" fill="none" instance-id="-1" semantic-id="1" stroke="rgb(0,178,178)" stroke-width="0.1"/>
  <path d="M 15.325684499999966,1.767674999999997 L 18.325684499999966,1.767674999999997" fill="none" instance-id="-1" semantic-id="1" stroke="rgb(0,178,178)" stroke-width="0.1"/>
  <path d="M 74.12568449999992,75.78767499999998 L 100.0,75.78767499999998" fill="none" instance-id="-1" semantic-id="1" stroke="rgb(0,178,178)" stroke-width="0.1"/>
  <path d="M 74.12568449999992,78.78767499999998 L 100.0,78.78767499999998" fill="none" instance-id="-1" semantic-id="1" stroke="rgb(0,178,178)" stroke-width="0.1"/>
  <path d="M 71.12568449999992,77.28767499999998 L 71.12568449999992,57.767675" fill="none" instance-id="-1" semantic-id="1" stroke="rgb(0,178,178)" stroke-width="0.1"/>
  <path d="M 74.12568449999992,75.78767499999998 L 74.12568449999992,60.767675" fill="none" instance-id="-1" semantic-id="1" stroke="rgb(0,178,178)" stroke-width="0.1"/>
  <path d="M 71.12568449999992,57.767675 L 87.12568449999992,57.767675" fill="none" instance-id="-1" semantic-id="1" stroke="rgb(0,178,178)" stroke-width="0.1"/>
  <path d="M 74.12568449999992,60.767675 L 92.12568449999992,60.767675" fill="none" instance-id="-1" semantic-id="1" stroke="rgb(0,178,178)" stroke-width="0.1"/>
  <path d="M 72.62568449999992,20.767674999999997 L 90.62568449999992,20.767674999999997" fill="none" instance-id="-1" semantic-id="1" stroke="rgb(0,178,178)" stroke-width="0.1"/>
  <path d="M 72.62568449999992,23.767674999999997 L 87.12568449999992,23.767674999999997" fill="none" instance-id="-1" semantic-id="1" stroke="rgb(0,178,178)" stroke-width="0.1"/>
  <path d="M 87.12568449999992,57.767675 L 87.12568449999992,35.768675" fill="none" instance-id="-1" semantic-id="1" stroke="rgb(0,178,178)" stroke-width="0.1"/>
  <path d="M 92.12568449999992,60.767675 L 92.12568449999992,35.768675" fill="none" instance-id="-1" semantic-id="1" stroke="rgb(0,178,178)" stroke-width="0.1"/>
  <path d="M 87.12568449999992,35.768675 L 92.12568449999992,35.768675" fill="none" instance-id="-1" semantic-id="1" stroke="rgb(0,178,178)" stroke-width="0.1"/>
  <path d="M 87.12568449999992,27.768675 L 87.12568449999992,23.767674999999997" fill="none" instance-id="-1" semantic-id="1" stroke="rgb(0,178,178)" stroke-width="0.1"/>
  <path d="M 92.12568449999992,27.768675 L 92.12568449999992,23.767674999999997" fill="none" instance-id="-1" semantic-id="1" stroke="rgb(0,178,178)" stroke-width="0.1"/>
  <path d="M 87.12568449999992,27.768675 L 92.12568449999992,27.768675" fill="none" instance-id="-1" semantic-id="1" stroke="rgb(0,178,178)" stroke-width="0.1"/>
  <path d="M 72.62568449999992,23.767674999999997 L 26.325684499999966,23.767674999999997" fill="none" instance-id="-1" semantic-id="1" stroke="rgb(0,178,178)" stroke-width="0.1"/>
  <path d="M 72.62568449999992,20.767674999999997 L 26.325684499999966,20.767674999999997" fill="none" instance-id="-1" semantic-id="1" stroke="rgb(0,178,178)" stroke-width="0.1"/>
  <path d="M 71.12568449999992,100.0 L 71.12568449999992,86.53767499999998" fill="none" instance-id="-1" semantic-id="1" stroke="rgb(0,178,178)" stroke-width="0.1"/>
  <path d="M 74.12568449999992,99.78767499999998 L 74.12568449999992,86.53767499999998" fill="none" instance-id="-1" semantic-id="1" stroke="rgb(0,178,178)" stroke-width="0.1"/>
  <path d="M 90.62568449999992,20.767674999999997 L 100.0,20.767674999999997" fill="none" instance-id="-1" semantic-id="1" stroke="rgb(0,178,178)" stroke-width="0.1"/>
  <path d="M 92.12568449999992,23.767674999999997 L 100.0,23.767674999999997" fill="none" instance-id="-1" semantic-id="1" stroke="rgb(0,178,178)" stroke-width="0.1"/>
  <path d="M 71.12568449999992,86.03767499999998 L 71.12568449999992,77.28767499999998" fill="none" instance-id="-1" semantic-id="1" stroke="rgb(0,178,178)" stroke-width="0.1"/>
  <path d="M 74.12568449999992,86.03767499999998 L 74.12568449999992,78.78767499999998" fill="none" instance-id="-1" semantic-id="1" stroke="rgb(0,178,178)" stroke-width="0.1"/>
  <path d="M 71.12568449999992,86.53767499999998 L 71.12568449999992,86.03767499999998" fill="none" instance-id="-1" semantic-id="1" stroke="rgb(0,178,178)" stroke-width="0.1"/>
  <path d="M 74.12568449999992,86.53767499999998 L 74.12568449999992,86.03767499999998" fill="none" instance-id="-1" semantic-id="1" stroke="rgb(0,178,178)" stroke-width="0.1"/>
  <path d="M 83.12568449999992,99.78767499999998 L 74.12568449999992,99.78767499999998" fill="none" instance-id="-1" semantic-id="1" stroke="rgb(0,178,178)" stroke-width="0.1"/>
  <path d="M 83.12568449999992,100.0 L 83.12568449999992,99.78767499999998" fill="none" instance-id="-1" semantic-id="1" stroke="rgb(0,178,178)" stroke-width="0.1"/>
 </g>
 <g id="layerWALL-MOVE" inkscape:groupmode="layer" inkscape:label="WALL-MOVE">
  <path d="M 19.825684499999966,83.28767499999998 L 19.825684499999966,76.19867499999998" fill="none" instance-id="-1" semantic-id="1" stroke="rgb(178,88,0)" stroke-width="0.1"/>
  <path d="M 21.825684499999966,83.28767499999998 L 21.825684499999966,76.19867499999998" fill="none" instance-id="-1" semantic-id="1" stroke="rgb(178,88,0)" stroke-width="0.1"/>
  <path d="M 19.825684499999966,76.19867499999998 L 21.825684499999966,76.19867499999998" fill="none" instance-id="-1" semantic-id="1" stroke="rgb(178,88,0)" stroke-width="0.1"/>
  <path d="M 19.825684499999966,61.19867499999998 L 19.825684499999966,30.767674999999997" fill="none" instance-id="-1" semantic-id="1" stroke="rgb(178,88,0)" stroke-width="0.1"/>
  <path d="M 21.825684499999966,61.19867499999998 L 21.825684499999966,30.767674999999997" fill="none" instance-id="-1" semantic-id="1" stroke="rgb(178,88,0)" stroke-width="0.1"/>
  <path d="M 19.825684499999966,61.19867499999998 L 21.825684499999966,61.19867499999998" fill="none" instance-id="-1" semantic-id="1" stroke="rgb(178,88,0)" stroke-width="0.1"/>
  <path d="M 72.86468449999995,87.03767499999998 L 74.12568449999992,87.03767499999998" fill="none" instance-id="-1" semantic-id="1" stroke="rgb(178,88,0)" stroke-width="0.1"/>
  <path d="M 72.86468449999995,85.03767499999998 L 74.12568449999992,85.03767499999998" fill="none" instance-id="-1" semantic-id="1" stroke="rgb(178,88,0)" stroke-width="0.1"/>
  <path d="M 72.86468449999995,87.03767499999998 L 72.86468449999995,85.03767499999998" fill="none" instance-id="-1" semantic-id="1" stroke="rgb(178,88,0)" stroke-width="0.1"/>
  <path d="M 71.62568449999992,57.767675 L 71.62568449999992,55.767675" fill="none" instance-id="-1" semantic-id="1" stroke="rgb(178,88,0)" stroke-width="0.1"/>
  <path d="M 73.62568449999992,57.767675 L 73.62568449999992,55.767675" fill="none" instance-id="-1" semantic-id="1" stroke="rgb(178,88,0)" stroke-width="0.1"/>
  <path d="M 71.62568449999992,55.767675 L 73.62568449999992,55.767675" fill="none" instance-id="-1" semantic-id="1" stroke="rgb(178,88,0)" stroke-width="0.1"/>
  <path d="M 71.62568449999992,47.767675 L 71.62568449999992,23.767674999999997" fill="none" instance-id="-1" semantic-id="1" stroke="rgb(178,88,0)" stroke-width="0.1"/>
  <path d="M 73.62568449999992,47.767675 L 73.62568449999992,23.767674999999997" fill="none" instance-id="-1" semantic-id="1" stroke="rgb(178,88,0)" stroke-width="0.1"/>
  <path d="M 71.62568449999992,47.767675 L 73.62568449999992,47.767675" fill="none" instance-id="-1" semantic-id="1" stroke="rgb(178,88,0)" stroke-width="0.1"/>
  <path d="M 71.12568449999992,87.53767499999998 L 25.325684499999966,87.53767499999998" fill="none" instance-id="-1" semantic-id="1" stroke="rgb(178,88,0)" stroke-width="0.1"/>
  <path d="M 71.12568449999992,85.53767499999998 L 25.325684499999966,85.53767499999998" fill="none" instance-id="-1" semantic-id="1" stroke="rgb(178,88,0)" stroke-width="0.1"/>
 </g>
 <g id="layerWINDOW_TEXT" inkscape:groupmode="layer" inkscape:label="WINDOW_TEXT">
  <text fill="rgb(0,0,0)" font-family="Noto Sans CJK SC" font-size="2" transform="rotate(-90.0,85.31668449999995,45.202675)" x="85.31668449999995" y="45.202675">
   HM0820左开
  </text>
 </g>
 <g id="layer洞口" inkscape:groupmode="layer" inkscape:label="洞口">
  <path d="M 93.27514283333323,100.0 L 93.62068449999992,99.79267499999997" fill="none" stroke="rgb(178,44,0)" stroke-width="0.1"/>
  <path d="M 88.62068449999992,99.79267499999997 L 88.96622616666662,100.0" fill="none" stroke="rgb(178,44,0)" stroke-width="0.1"/>
  <path d="M 19.825684499999966,77.189675 L 21.825684499999966,60.01567499999999" fill="none" stroke="rgb(178,44,0)" stroke-width="0.1"/>
  <path d="M 19.825684499999966,60.01567499999999 L 21.825684499999966,77.16867499999998" fill="none" stroke="rgb(178,44,0)" stroke-width="0.1"/>
  <path d="M 88.62068449999992,78.78767499999998 L 93.62068449999992,75.78767499999998" fill="none" stroke="rgb(178,44,0)" stroke-width="0.1"/>
  <path d="M 88.62068449999992,75.78767499999998 L 93.62068449999992,78.78767499999998" fill="none" stroke="rgb(178,44,0)" stroke-width="0.1"/>
  <path d="M 71.62568449999992,35.02067499999998 L 73.62568449999992,25.020674999999983" fill="none" stroke="rgb(178,44,0)" stroke-width="0.1"/>
  <path d="M 71.62568449999992,25.020674999999983 L 73.62568449999992,35.02067499999998" fill="none" stroke="rgb(178,44,0)" stroke-width="0.1"/>
  <path d="M 88.62068449999992,99.79267499999997 L 93.62068449999992,99.79267499999997" fill="none" stroke="rgb(178,44,0)" stroke-width="0.1"/>
  <path d="M 93.62068449999992,99.79267499999997 L 93.62068449999992,100.0" fill="none" stroke="rgb(178,44,0)" stroke-width="0.1"/>
  <path d="M 88.62068449999992,100.0 L 88.62068449999992,99.79267499999997" fill="none" stroke="rgb(178,44,0)" stroke-width="0.1"/>
  <path d="M 19.825684499999966,60.01567499999999 L 21.825684499999966,60.01567499999999" fill="none" stroke="rgb(178,44,0)" stroke-width="0.1"/>
  <path d="M 21.825684499999966,60.01567499999999 L 21.825684499999966,77.16867499999998" fill="none" stroke="rgb(178,44,0)" stroke-width="0.1"/>
  <path d="M 21.825684499999966,77.16867499999998 L 19.825684499999966,77.16867499999998" fill="none" stroke="rgb(178,44,0)" stroke-width="0.1"/>
  <path d="M 19.825684499999966,77.16867499999998 L 19.825684499999966,60.01567499999999" fill="none" stroke="rgb(178,44,0)" stroke-width="0.1"/>
  <path d="M 88.62068449999992,75.78767499999998 L 93.62068449999992,75.78767499999998" fill="none" stroke="rgb(178,44,0)" stroke-width="0.1"/>
  <path d="M 93.62068449999992,75.78767499999998 L 93.62068449999992,78.78767499999998" fill="none" stroke="rgb(178,44,0)" stroke-width="0.1"/>
  <path d="M 93.62068449999992,78.78767499999998 L 88.62068449999992,78.78767499999998" fill="none" stroke="rgb(178,44,0)" stroke-width="0.1"/>
  <path d="M 88.62068449999992,78.78767499999998 L 88.62068449999992,75.78767499999998" fill="none" stroke="rgb(178,44,0)" stroke-width="0.1"/>
  <path d="M 73.62568449999992,25.020674999999983 L 71.62568449999992,25.020674999999983" fill="none" stroke="rgb(178,44,0)" stroke-width="0.1"/>
  <path d="M 71.62568449999992,25.020674999999983 L 71.62568449999992,35.02067499999998" fill="none" stroke="rgb(178,44,0)" stroke-width="0.1"/>
  <path d="M 71.62568449999992,35.02067499999998 L 73.62568449999992,35.02067499999998" fill="none" stroke="rgb(178,44,0)" stroke-width="0.1"/>
  <path d="M 73.62568449999992,35.02067499999998 L 73.62568449999992,25.020674999999983" fill="none" stroke="rgb(178,44,0)" stroke-width="0.1"/>
  <path d="M 93.62068449999992,100.0 L 93.62068449999992,99.79267499999997" fill="none" stroke="rgb(178,44,0)" stroke-width="0.1"/>
  <path d="M 93.62068449999992,99.79267499999997 L 93.27514283333323,100.0" fill="none" stroke="rgb(178,44,0)" stroke-width="0.1"/>
  <path d="M 88.96622616666662,100.0 L 88.62068449999992,99.79267499999997" fill="none" stroke="rgb(178,44,0)" stroke-width="0.1"/>
  <path d="M 88.62068449999992,99.79267499999997 L 88.62068449999992,100.0" fill="none" stroke="rgb(178,44,0)" stroke-width="0.1"/>
  <path d="M 19.818684500000018,59.957674999999995 L 20.825684499999966,68.59267499999999" fill="none" stroke="rgb(178,44,0)" stroke-width="0.1"/>
  <path d="M 20.825684499999966,68.59267499999999 L 21.825684499999966,60.01567499999999" fill="none" stroke="rgb(178,44,0)" stroke-width="0.1"/>
  <path d="M 21.825684499999966,60.01567499999999 L 20.825684499999966,60.01567499999999" fill="none" stroke="rgb(178,44,0)" stroke-width="0.1"/>
  <path d="M 20.825684499999966,60.01567499999999 L 19.818684500000018,59.957674999999995" fill="none" stroke="rgb(178,44,0)" stroke-width="0.1"/>
  <path d="M 20.825684499999966,77.16967499999998 L 21.825684499999966,77.16967499999998" fill="none" stroke="rgb(178,44,0)" stroke-width="0.1"/>
  <path d="M 21.825684499999966,77.16967499999998 L 20.825684499999966,68.59267499999999" fill="none" stroke="rgb(178,44,0)" stroke-width="0.1"/>
  <path d="M 20.825684499999966,68.59267499999999 L 19.818684500000018,77.226675" fill="none" stroke="rgb(178,44,0)" stroke-width="0.1"/>
  <path d="M 19.818684500000018,77.226675 L 20.825684499999966,77.16967499999998" fill="none" stroke="rgb(178,44,0)" stroke-width="0.1"/>
  <path d="M 91.12068449999992,77.28767499999998 L 93.62068449999992,78.78767499999998" fill="none" stroke="rgb(178,44,0)" stroke-width="0.1"/>
  <path d="M 93.62068449999992,78.78767499999998 L 93.62068449999992,75.78767499999998" fill="none" stroke="rgb(178,44,0)" stroke-width="0.1"/>
  <path d="M 93.62068449999992,75.78767499999998 L 91.12068449999992,77.28767499999998" fill="none" stroke="rgb(178,44,0)" stroke-width="0.1"/>
  <path d="M 88.62068449999992,78.78767499999998 L 91.12068449999992,77.28767499999998" fill="none" stroke="rgb(178,44,0)" stroke-width="0.1"/>
  <path d="M 91.12068449999992,77.28767499999998 L 88.62068449999992,75.78767499999998" fill="none" stroke="rgb(178,44,0)" stroke-width="0.1"/>
  <path d="M 88.62068449999992,75.78767499999998 L 88.62068449999992,78.78767499999998" fill="none" stroke="rgb(178,44,0)" stroke-width="0.1"/>
  <path d="M 73.62568449999992,25.020674999999983 L 71.62568449999992,25.020674999999983" fill="none" stroke="rgb(178,44,0)" stroke-width="0.1"/>
  <path d="M 71.62568449999992,25.020674999999983 L 72.62568449999992,30.020674999999983" fill="none" stroke="rgb(178,44,0)" stroke-width="0.1"/>
  <path d="M 72.62568449999992,30.020674999999983 L 73.62568449999992,25.020674999999983" fill="none" stroke="rgb(178,44,0)" stroke-width="0.1"/>
  <path d="M 72.62568449999992,30.020674999999983 L 71.62568449999992,35.02067499999998" fill="none" stroke="rgb(178,44,0)" stroke-width="0.1"/>
  <path d="M 71.62568449999992,35.02067499999998 L 73.62568449999992,35.02067499999998" fill="none" stroke="rgb(178,44,0)" stroke-width="0.1"/>
  <path d="M 73.62568449999992,35.02067499999998 L 72.62568449999992,30.020674999999983" fill="none" stroke="rgb(178,44,0)" stroke-width="0.1"/>
 </g>
 <g id="layer集水坑、排水沟" inkscape:groupmode="layer" inkscape:label="集水坑、排水沟">
  <path d="M 53.12568449999992,99.034675 L 60.12668450000001,92.035675" fill="none" stroke="rgb(89,89,89)" stroke-width="0.1"/>
  <path d="M 57.38368449999996,95.19167499999998 L 57.89368449999995,94.98067499999996" fill="none" stroke="rgb(89,89,89)" stroke-width="0.1"/>
  <path d="M 57.40468450000003,95.24267499999996 L 57.9156845,95.031675" fill="none" stroke="rgb(89,89,89)" stroke-width="0.1"/>
  <path d="M 57.38368449999996,95.87667499999998 L 57.89368449999995,96.08767499999999" fill="none" stroke="rgb(89,89,89)" stroke-width="0.1"/>
  <path d="M 57.45768450000003,95.56167499999998 L 58.009684499999935,95.56167499999998" fill="none" stroke="rgb(89,89,89)" stroke-width="0.1"/>
  <path d="M 57.45768450000003,95.50667499999997 L 58.009684499999935,95.50667499999997" fill="none" stroke="rgb(89,89,89)" stroke-width="0.1"/>
  <path d="M 58.08468449999998,95.53567499999997 L 57.03668449999998,95.53567499999997" fill="none" stroke="rgb(89,89,89)" stroke-width="0.1"/>
  <path d="M 57.40468450000003,95.82567499999999 L 57.91468450000002,96.036675" fill="none" stroke="rgb(89,89,89)" stroke-width="0.1"/>
  <path d="M 56.21568449999995,89.75267499999998 L 56.21568449999995,91.005675" fill="none" stroke="rgb(89,89,89)" stroke-width="0.1"/>
  <path d="M 57.04368449999993,91.017675 L 57.04468450000002,89.75267499999998" fill="none" stroke="rgb(89,89,89)" stroke-width="0.1"/>
  <path d="M 56.62868449999996,90.81367499999999 L 56.62868449999996,90.999675" fill="none" stroke="rgb(89,89,89)" stroke-width="0.1"/>
  <path d="M 56.62868449999996,90.999675 L 56.214684499999976,90.958675" fill="none" stroke="rgb(89,89,89)" stroke-width="0.1"/>
  <path d="M 56.57768450000003,91.625675 L 56.218684499999995,91.625675" fill="none" stroke="rgb(89,89,89)" stroke-width="0.1"/>
  <path d="M 56.57768450000003,91.78267499999998 L 56.218684499999995,91.75867499999998" fill="none" stroke="rgb(89,89,89)" stroke-width="0.1"/>
  <path d="M 55.801684499999965,92.607675 L 56.214684499999976,92.607675" fill="none" stroke="rgb(89,89,89)" stroke-width="0.1"/>
  <path d="M 56.21168449999993,92.47167499999998 L 55.90168449999999,92.47167499999998" fill="none" stroke="rgb(89,89,89)" stroke-width="0.1"/>
  <path d="M 55.90168449999999,92.47167499999998 L 55.90168449999999,92.606675" fill="none" stroke="rgb(89,89,89)" stroke-width="0.1"/>
  <path d="M 57.04368449999993,90.96267499999999 L 56.62868449999996,90.999675" fill="none" stroke="rgb(89,89,89)" stroke-width="0.1"/>
  <path d="M 57.047684499999946,91.75867499999998 L 56.68868450000002,91.78267499999998" fill="none" stroke="rgb(89,89,89)" stroke-width="0.1"/>
  <path d="M 57.04568449999999,91.62667499999998 L 56.6896845,91.62667499999998" fill="none" stroke="rgb(89,89,89)" stroke-width="0.1"/>
  <path d="M 57.04368449999993,92.606675 L 57.45768450000003,92.606675" fill="none" stroke="rgb(89,89,89)" stroke-width="0.1"/>
  <path d="M 57.04368449999993,92.47267499999998 L 57.353684499999986,92.47267499999998" fill="none" stroke="rgb(89,89,89)" stroke-width="0.1"/>
  <path d="M 57.353684499999986,92.47267499999998 L 57.353684499999986,92.606675" fill="none" stroke="rgb(89,89,89)" stroke-width="0.1"/>
  <path d="M 56.6846845,92.607675 L 56.57468449999999,92.607675" fill="none" stroke="rgb(89,89,89)" stroke-width="0.1"/>
  <path d="M 56.68568449999998,91.393675 L 56.57468449999999,91.393675" fill="none" stroke="rgb(89,89,89)" stroke-width="0.1"/>
  <path d="M 56.57468449999999,91.88367499999998 L 56.6846845,91.88367499999998" fill="none" stroke="rgb(89,89,89)" stroke-width="0.1"/>
  <path d="M 56.6846845,91.88367499999998 L 56.68568449999998,91.393675" fill="none" stroke="rgb(89,89,89)" stroke-width="0.1"/>
  <path d="M 56.57468449999999,91.393675 L 56.57468449999999,91.88367499999998" fill="none" stroke="rgb(89,89,89)" stroke-width="0.1"/>
  <path d="M 56.62868449999996,91.88567499999999 L 56.62868449999996,92.606675" fill="none" stroke="rgb(89,89,89)" stroke-width="0.1"/>
  <path d="M 56.652684499999964,91.88567499999999 L 56.652684499999964,92.606675" fill="none" stroke="rgb(89,89,89)" stroke-width="0.1"/>
  <path d="M 56.60468449999996,92.606675 L 56.60568449999994,91.88567499999999" fill="none" stroke="rgb(89,89,89)" stroke-width="0.1"/>
  <path d="M 56.57468449999999,94.70567499999999 L 56.57368450000001,96.36267499999997" fill="none" stroke="rgb(89,89,89)" stroke-width="0.1"/>
  <path d="M 56.6846845,94.70567499999999 L 56.6846845,96.36267499999997" fill="none" stroke="rgb(89,89,89)" stroke-width="0.1"/>
  <path d="M 56.28668449999998,96.28867500000001 L 56.075684499999966,96.798675" fill="none" stroke="rgb(89,89,89)" stroke-width="0.1"/>
  <path d="M 56.33768450000002,96.30967499999997 L 56.12668450000001,96.81967500000002" fill="none" stroke="rgb(89,89,89)" stroke-width="0.1"/>
  <path d="M 56.02468449999992,96.10067499999997 L 55.63368449999996,96.49067500000001" fill="none" stroke="rgb(89,89,89)" stroke-width="0.1"/>
  <path d="M 56.06368450000002,96.13967500000001 L 55.672684499999946,96.529675" fill="none" stroke="rgb(89,89,89)" stroke-width="0.1"/>
  <path d="M 56.62568449999992,95.94967500000001 L 56.62568449999992,95.98767499999997" fill="none" stroke="rgb(89,89,89)" stroke-width="0.1"/>
  <path d="M 57.19568449999997,96.13967500000001 L 57.58568449999996,96.529675" fill="none" stroke="rgb(89,89,89)" stroke-width="0.1"/>
  <path d="M 57.23468449999996,96.10067499999997 L 57.624684499999944,96.49067500000001" fill="none" stroke="rgb(89,89,89)" stroke-width="0.1"/>
  <path d="M 56.65568450000001,95.28567499999997 L 56.65568450000001,95.781675" fill="none" stroke="rgb(89,89,89)" stroke-width="0.1"/>
  <path d="M 56.59468449999997,95.28567499999997 L 56.59468449999997,95.781675" fill="none" stroke="rgb(89,89,89)" stroke-width="0.1"/>
  <path d="M 56.62568449999992,95.53567499999997 L 56.62568449999992,95.120675" fill="none" stroke="rgb(89,89,89)" stroke-width="0.1"/>
  <path d="M 56.6846845,95.28567499999997 L 56.57468449999999,95.28567499999997" fill="none" stroke="rgb(89,89,89)" stroke-width="0.1"/>
  <path d="M 56.6846845,95.78267499999998 L 56.57368450000001,95.78267499999998" fill="none" stroke="rgb(89,89,89)" stroke-width="0.1"/>
  <path d="M 56.83168449999994,95.53567499999997 L 56.3626845,95.53567499999997" fill="none" stroke="rgb(89,89,89)" stroke-width="0.1"/>
  <path d="M 56.450684499999966,95.53567499999997 L 56.62568449999992,95.53567499999997" fill="none" stroke="rgb(89,89,89)" stroke-width="0.1"/>
  <path d="M 56.62568449999992,95.53567499999997 L 56.62568449999992,95.94967500000001" fill="none" stroke="rgb(89,89,89)" stroke-width="0.1"/>
  <path d="M 56.28668449999998,94.779675 L 56.075684499999966,94.26967499999998" fill="none" stroke="rgb(89,89,89)" stroke-width="0.1"/>
  <path d="M 56.33768450000002,94.75867499999998 L 56.12668450000001,94.24867499999999" fill="none" stroke="rgb(89,89,89)" stroke-width="0.1"/>
  <path d="M 57.04368449999993,93.71267499999999 L 56.21568449999995,93.71267499999999" fill="none" stroke="rgb(89,89,89)" stroke-width="0.1"/>
  <path d="M 57.04368449999993,93.02267499999999 L 56.21568449999995,93.02167499999999" fill="none" stroke="rgb(89,89,89)" stroke-width="0.1"/>
  <path d="M 56.02468449999992,94.96767499999999 L 55.63368449999996,94.577675" fill="none" stroke="rgb(89,89,89)" stroke-width="0.1"/>
  <path d="M 56.06368450000002,94.928675 L 55.672684499999946,94.53867499999998" fill="none" stroke="rgb(89,89,89)" stroke-width="0.1"/>
  <path d="M 56.214684499999976,92.74167499999999 L 55.801684499999965,92.74167499999999" fill="none" stroke="rgb(89,89,89)" stroke-width="0.1"/>
  <path d="M 55.98168450000003,93.344675 L 55.95968449999998,93.351675" fill="none" stroke="rgb(89,89,89)" stroke-width="0.1"/>
  <path d="M 56.971684499999924,94.779675 L 57.18368450000003,94.26967499999998" fill="none" stroke="rgb(89,89,89)" stroke-width="0.1"/>
  <path d="M 56.92068449999999,94.75867499999998 L 57.13268449999998,94.24867499999999" fill="none" stroke="rgb(89,89,89)" stroke-width="0.1"/>
  <path d="M 57.19568449999997,94.929675 L 57.58568449999996,94.53867499999998" fill="none" stroke="rgb(89,89,89)" stroke-width="0.1"/>
  <path d="M 57.23468449999996,94.96867499999996 L 57.624684499999944,94.577675" fill="none" stroke="rgb(89,89,89)" stroke-width="0.1"/>
  <path d="M 56.60168450000003,94.70567499999999 L 56.60168450000003,94.15367499999999" fill="none" stroke="rgb(89,89,89)" stroke-width="0.1"/>
  <path d="M 56.65668449999998,94.70567499999999 L 56.65768449999996,94.15367499999999" fill="none" stroke="rgb(89,89,89)" stroke-width="0.1"/>
  <path d="M 57.45768450000003,92.738675 L 57.04368449999993,92.738675" fill="none" stroke="rgb(89,89,89)" stroke-width="0.1"/>
  <path d="M 55.801684499999965,92.74167499999999 L 55.801684499999965,92.607675" fill="none" stroke="rgb(89,89,89)" stroke-width="0.1"/>
  <path d="M 56.21568449999995,91.524675 L 56.21568449999995,93.71267499999999" fill="none" stroke="rgb(89,89,89)" stroke-width="0.1"/>
  <path d="M 57.45768450000003,92.606675 L 57.45768450000003,92.738675" fill="none" stroke="rgb(89,89,89)" stroke-width="0.1"/>
  <path d="M 56.57468449999999,91.89067499999999 L 56.57468449999999,93.71267499999999" fill="none" stroke="rgb(89,89,89)" stroke-width="0.1"/>
  <path d="M 56.6846845,91.89067499999999 L 56.6846845,93.71267499999999" fill="none" stroke="rgb(89,89,89)" stroke-width="0.1"/>
  <path d="M 57.04368449999993,91.53867499999998 L 57.04368449999993,93.71267499999999" fill="none" stroke="rgb(89,89,89)" stroke-width="0.1"/>
  <path d="M 56.62868449999996,90.81367499999999 L 56.214684499999976,90.874675" fill="none" stroke="rgb(89,89,89)" stroke-width="0.1"/>
  <path d="M 57.04368449999993,90.874675 L 56.62868449999996,90.81367499999999" fill="none" stroke="rgb(89,89,89)" stroke-width="0.1"/>
  <path d="M 55.874684499999944,95.19167499999998 L 55.36468449999995,94.98067499999996" fill="none" stroke="rgb(89,89,89)" stroke-width="0.1"/>
  <path d="M 55.853684499999986,95.24267499999996 L 55.343684499999995,95.031675" fill="none" stroke="rgb(89,89,89)" stroke-width="0.1"/>
  <path d="M 56.26568450000002,95.53567499999997 L 55.07868450000001,95.53567499999997" fill="none" stroke="rgb(89,89,89)" stroke-width="0.1"/>
  <path d="M 55.874684499999944,95.87667499999998 L 55.36468449999995,96.08767499999999" fill="none" stroke="rgb(89,89,89)" stroke-width="0.1"/>
  <path d="M 54.12368449999997,95.534675 L 59.12768449999999,95.53567499999997" fill="none" stroke="rgb(89,89,89)" stroke-width="0.1"/>
  <path d="M 55.801684499999965,95.50667499999997 L 55.24868449999997,95.50667499999997" fill="none" stroke="rgb(89,89,89)" stroke-width="0.1"/>
  <path d="M 55.801684499999965,95.56167499999998 L 55.24868449999997,95.56167499999998" fill="none" stroke="rgb(89,89,89)" stroke-width="0.1"/>
  <path d="M 55.853684499999986,95.82567499999999 L 55.343684499999995,96.036675" fill="none" stroke="rgb(89,89,89)" stroke-width="0.1"/>
  <path d="M 56.62568449999992,98.036675 L 56.62668450000001,93.03367499999999" fill="none" stroke="rgb(89,89,89)" stroke-width="0.1"/>
  <path d="M 62.62568449999992,98.536675 L 68.62668450000001,92.53767499999998" fill="none" stroke="rgb(89,89,89)" stroke-width="0.1"/>
  <path d="M 69.12568449999992,99.03767499999998 L 62.12668450000001,92.036675" fill="none" stroke="rgb(89,89,89)" stroke-width="0.1"/>
  <path d="M 62.12568449999992,99.036675 L 69.12668450000001,92.03767499999998" fill="none" stroke="rgb(89,89,89)" stroke-width="0.1"/>
  <path d="M 66.38368449999996,95.19367499999998 L 66.89368449999995,94.981675" fill="none" stroke="rgb(89,89,89)" stroke-width="0.1"/>
  <path d="M 66.40468450000003,95.24467499999997 L 66.9156845,95.03267499999998" fill="none" stroke="rgb(89,89,89)" stroke-width="0.1"/>
  <path d="M 66.38368449999996,95.87767500000001 L 66.89368449999995,96.089675" fill="none" stroke="rgb(89,89,89)" stroke-width="0.1"/>
  <path d="M 66.45768450000003,95.56367499999999 L 67.00968449999993,95.56367499999999" fill="none" stroke="rgb(89,89,89)" stroke-width="0.1"/>
  <path d="M 66.45768450000003,95.507675 L 67.00968449999993,95.507675" fill="none" stroke="rgb(89,89,89)" stroke-width="0.1"/>
  <path d="M 67.08468449999998,95.536675 L 66.03668449999998,95.536675" fill="none" stroke="rgb(89,89,89)" stroke-width="0.1"/>
  <path d="M 66.40468450000003,95.82667499999997 L 66.91468450000002,96.03867500000001" fill="none" stroke="rgb(89,89,89)" stroke-width="0.1"/>
  <path d="M 65.21568449999995,89.957675 L 65.21568449999995,91.006675" fill="none" stroke="rgb(89,89,89)" stroke-width="0.1"/>
  <path d="M 66.04368449999993,91.018675 L 66.04468450000002,89.957675" fill="none" stroke="rgb(89,89,89)" stroke-width="0.1"/>
  <path d="M 65.62868449999996,90.815675 L 65.62868449999996,91.000675" fill="none" stroke="rgb(89,89,89)" stroke-width="0.1"/>
  <path d="M 65.62868449999996,91.000675 L 65.21468449999998,90.96067499999998" fill="none" stroke="rgb(89,89,89)" stroke-width="0.1"/>
  <path d="M 65.57768450000003,91.62767499999998 L 65.2186845,91.62767499999998" fill="none" stroke="rgb(89,89,89)" stroke-width="0.1"/>
  <path d="M 65.57768450000003,91.78367499999999 L 65.2186845,91.75967499999999" fill="none" stroke="rgb(89,89,89)" stroke-width="0.1"/>
  <path d="M 64.80168449999996,92.60967499999998 L 65.21468449999998,92.60967499999998" fill="none" stroke="rgb(89,89,89)" stroke-width="0.1"/>
  <path d="M 65.21168449999993,92.47367499999999 L 64.90168449999999,92.47367499999999" fill="none" stroke="rgb(89,89,89)" stroke-width="0.1"/>
  <path d="M 64.90168449999999,92.47367499999999 L 64.90168449999999,92.607675" fill="none" stroke="rgb(89,89,89)" stroke-width="0.1"/>
  <path d="M 66.04368449999993,90.963675 L 65.62868449999996,91.000675" fill="none" stroke="rgb(89,89,89)" stroke-width="0.1"/>
  <path d="M 66.04768449999995,91.75967499999999 L 65.68868450000002,91.78367499999999" fill="none" stroke="rgb(89,89,89)" stroke-width="0.1"/>
  <path d="M 66.0456845,91.62767499999998 L 65.6896845,91.62767499999998" fill="none" stroke="rgb(89,89,89)" stroke-width="0.1"/>
  <path d="M 66.04368449999993,92.60867499999998 L 66.45768450000003,92.60867499999998" fill="none" stroke="rgb(89,89,89)" stroke-width="0.1"/>
  <path d="M 66.04368449999993,92.47367499999999 L 66.35368449999999,92.47367499999999" fill="none" stroke="rgb(89,89,89)" stroke-width="0.1"/>
  <path d="M 66.35368449999999,92.47367499999999 L 66.35368449999999,92.60867499999998" fill="none" stroke="rgb(89,89,89)" stroke-width="0.1"/>
  <path d="M 65.6846845,92.60967499999998 L 65.57468449999999,92.60967499999998" fill="none" stroke="rgb(89,89,89)" stroke-width="0.1"/>
  <path d="M 65.68568449999998,91.39467499999998 L 65.57468449999999,91.39467499999998" fill="none" stroke="rgb(89,89,89)" stroke-width="0.1"/>
  <path d="M 65.57468449999999,91.88567499999999 L 65.6846845,91.88567499999999" fill="none" stroke="rgb(89,89,89)" stroke-width="0.1"/>
  <path d="M 65.6846845,91.88567499999999 L 65.68568449999998,91.39467499999998" fill="none" stroke="rgb(89,89,89)" stroke-width="0.1"/>
  <path d="M 65.57468449999999,91.39467499999998 L 65.57468449999999,91.88567499999999" fill="none" stroke="rgb(89,89,89)" stroke-width="0.1"/>
  <path d="M 65.62868449999996,91.886675 L 65.62868449999996,92.60867499999998" fill="none" stroke="rgb(89,89,89)" stroke-width="0.1"/>
  <path d="M 65.65268449999996,91.886675 L 65.65268449999996,92.60867499999998" fill="none" stroke="rgb(89,89,89)" stroke-width="0.1"/>
  <path d="M 65.60468449999996,92.60867499999998 L 65.60568449999994,91.886675" fill="none" stroke="rgb(89,89,89)" stroke-width="0.1"/>
  <path d="M 65.57468449999999,94.707675 L 65.57368450000001,96.363675" fill="none" stroke="rgb(89,89,89)" stroke-width="0.1"/>
  <path d="M 65.6846845,94.707675 L 65.6846845,96.363675" fill="none" stroke="rgb(89,89,89)" stroke-width="0.1"/>
  <path d="M 65.28668449999998,96.28967499999999 L 65.07568449999997,96.79967499999998" fill="none" stroke="rgb(89,89,89)" stroke-width="0.1"/>
  <path d="M 65.33768450000002,96.31167499999998 L 65.12668450000001,96.82167499999997" fill="none" stroke="rgb(89,89,89)" stroke-width="0.1"/>
  <path d="M 65.02468449999992,96.101675 L 64.63368449999996,96.49167499999999" fill="none" stroke="rgb(89,89,89)" stroke-width="0.1"/>
  <path d="M 65.06368450000002,96.14067499999999 L 64.67268449999995,96.53067499999997" fill="none" stroke="rgb(89,89,89)" stroke-width="0.1"/>
  <path d="M 65.62568449999992,95.95167499999997 L 65.62568449999992,95.98967499999998" fill="none" stroke="rgb(89,89,89)" stroke-width="0.1"/>
  <path d="M 66.19568449999997,96.14067499999999 L 66.58568449999996,96.531675" fill="none" stroke="rgb(89,89,89)" stroke-width="0.1"/>
  <path d="M 66.23468449999996,96.101675 L 66.62468449999994,96.49267499999996" fill="none" stroke="rgb(89,89,89)" stroke-width="0.1"/>
  <path d="M 65.6556845,95.28767499999998 L 65.6556845,95.78267499999998" fill="none" stroke="rgb(89,89,89)" stroke-width="0.1"/>
  <path d="M 65.59468449999997,95.28767499999998 L 65.59468449999997,95.78267499999998" fill="none" stroke="rgb(89,89,89)" stroke-width="0.1"/>
  <path d="M 65.62568449999992,95.536675 L 65.62568449999992,95.12267500000002" fill="none" stroke="rgb(89,89,89)" stroke-width="0.1"/>
  <path d="M 65.6846845,95.286675 L 65.57468449999999,95.286675" fill="none" stroke="rgb(89,89,89)" stroke-width="0.1"/>
  <path d="M 65.6846845,95.78367500000002 L 65.57368450000001,95.78367500000002" fill="none" stroke="rgb(89,89,89)" stroke-width="0.1"/>
  <path d="M 65.83168449999994,95.536675 L 65.3626845,95.536675" fill="none" stroke="rgb(89,89,89)" stroke-width="0.1"/>
  <path d="M 65.45068449999997,95.536675 L 65.62568449999992,95.536675" fill="none" stroke="rgb(89,89,89)" stroke-width="0.1"/>
  <path d="M 65.62568449999992,95.536675 L 65.62568449999992,95.95167499999997" fill="none" stroke="rgb(89,89,89)" stroke-width="0.1"/>
  <path d="M 65.28668449999998,94.780675 L 65.07568449999997,94.27067499999998" fill="none" stroke="rgb(89,89,89)" stroke-width="0.1"/>
  <path d="M 65.33768450000002,94.75967499999999 L 65.12668450000001,94.249675" fill="none" stroke="rgb(89,89,89)" stroke-width="0.1"/>
  <path d="M 66.04368449999993,93.713675 L 65.21568449999995,93.713675" fill="none" stroke="rgb(89,89,89)" stroke-width="0.1"/>
  <path d="M 66.04368449999993,93.023675 L 65.21568449999995,93.023675" fill="none" stroke="rgb(89,89,89)" stroke-width="0.1"/>
  <path d="M 65.02468449999992,94.969675 L 64.63368449999996,94.578675" fill="none" stroke="rgb(89,89,89)" stroke-width="0.1"/>
  <path d="M 65.06368450000002,94.93067499999998 L 64.67268449999995,94.53967499999999" fill="none" stroke="rgb(89,89,89)" stroke-width="0.1"/>
  <path d="M 65.21468449999998,92.74267499999999 L 64.80168449999996,92.74267499999999" fill="none" stroke="rgb(89,89,89)" stroke-width="0.1"/>
  <path d="M 64.98168450000003,93.34667499999998 L 64.95968449999998,93.35267499999998" fill="none" stroke="rgb(89,89,89)" stroke-width="0.1"/>
  <path d="M 65.97168449999992,94.780675 L 66.18368450000003,94.27067499999998" fill="none" stroke="rgb(89,89,89)" stroke-width="0.1"/>
  <path d="M 65.9206845,94.75967499999999 L 66.13268449999998,94.249675" fill="none" stroke="rgb(89,89,89)" stroke-width="0.1"/>
  <path d="M 66.19568449999997,94.93067499999998 L 66.58568449999996,94.540675" fill="none" stroke="rgb(89,89,89)" stroke-width="0.1"/>
  <path d="M 66.23468449999996,94.969675 L 66.62468449999994,94.57967499999998" fill="none" stroke="rgb(89,89,89)" stroke-width="0.1"/>
  <path d="M 65.60168450000003,94.707675 L 65.60168450000003,94.155675" fill="none" stroke="rgb(89,89,89)" stroke-width="0.1"/>
  <path d="M 65.65668449999998,94.707675 L 65.65768449999996,94.155675" fill="none" stroke="rgb(89,89,89)" stroke-width="0.1"/>
  <path d="M 66.45768450000003,92.73967499999998 L 66.04368449999993,92.73967499999998" fill="none" stroke="rgb(89,89,89)" stroke-width="0.1"/>
  <path d="M 64.80168449999996,92.74267499999999 L 64.80168449999996,92.60967499999998" fill="none" stroke="rgb(89,89,89)" stroke-width="0.1"/>
  <path d="M 65.21568449999995,91.52567499999998 L 65.21568449999995,93.713675" fill="none" stroke="rgb(89,89,89)" stroke-width="0.1"/>
  <path d="M 66.45768450000003,92.60867499999998 L 66.45768450000003,92.73967499999998" fill="none" stroke="rgb(89,89,89)" stroke-width="0.1"/>
  <path d="M 65.57468449999999,91.89167499999999 L 65.57468449999999,93.713675" fill="none" stroke="rgb(89,89,89)" stroke-width="0.1"/>
  <path d="M 65.6846845,91.89167499999999 L 65.6846845,93.713675" fill="none" stroke="rgb(89,89,89)" stroke-width="0.1"/>
  <path d="M 66.04368449999993,91.53967499999999 L 66.04368449999993,93.713675" fill="none" stroke="rgb(89,89,89)" stroke-width="0.1"/>
  <path d="M 65.62868449999996,90.815675 L 65.21468449999998,90.875675" fill="none" stroke="rgb(89,89,89)" stroke-width="0.1"/>
  <path d="M 66.04368449999993,90.875675 L 65.62868449999996,90.815675" fill="none" stroke="rgb(89,89,89)" stroke-width="0.1"/>
  <path d="M 64.87468449999994,95.19267500000001 L 64.36468449999995,94.981675" fill="none" stroke="rgb(89,89,89)" stroke-width="0.1"/>
  <path d="M 64.85368449999999,95.243675 L 64.3436845,95.03267499999998" fill="none" stroke="rgb(89,89,89)" stroke-width="0.1"/>
  <path d="M 65.26568450000002,95.536675 L 64.07868450000001,95.536675" fill="none" stroke="rgb(89,89,89)" stroke-width="0.1"/>
  <path d="M 64.87468449999994,95.87767500000001 L 64.36468449999995,96.08867499999997" fill="none" stroke="rgb(89,89,89)" stroke-width="0.1"/>
  <path d="M 63.12368449999997,95.536675 L 68.12768449999999,95.536675" fill="none" stroke="rgb(89,89,89)" stroke-width="0.1"/>
  <path d="M 64.80168449999996,95.507675 L 64.24868449999997,95.507675" fill="none" stroke="rgb(89,89,89)" stroke-width="0.1"/>
  <path d="M 64.80168449999996,95.56267500000001 L 64.24868449999997,95.56267500000001" fill="none" stroke="rgb(89,89,89)" stroke-width="0.1"/>
  <path d="M 64.85368449999999,95.82667499999997 L 64.3436845,96.03767499999998" fill="none" stroke="rgb(89,89,89)" stroke-width="0.1"/>
  <path d="M 65.62568449999992,98.03867500000001 L 65.62668450000001,93.034675" fill="none" stroke="rgb(89,89,89)" stroke-width="0.1"/>
  <path d="M 56.63068450000003,88.517675 L 67.05768449999994,88.51967499999998" fill="none" stroke="rgb(89,89,89)" stroke-width="0.1"/>
  <path d="M 67.05768449999994,88.51967499999998 L 64.76368449999995,88.518675" fill="none" stroke="rgb(89,89,89)" stroke-width="0.1"/>
  <path d="M 56.63068450000003,89.552675 L 67.05768449999994,89.554675" fill="none" stroke="rgb(89,89,89)" stroke-width="0.1"/>
  <path d="M 67.05768449999994,89.554675 L 64.76268449999998,89.554675" fill="none" stroke="rgb(89,89,89)" stroke-width="0.1"/>
  <path d="M 67.05768449999994,88.208675 L 67.36068449999993,88.208675" fill="none" stroke="rgb(89,89,89)" stroke-width="0.1"/>
  <path d="M 67.05768449999994,89.86467499999998 L 67.36068449999993,89.86467499999998" fill="none" stroke="rgb(89,89,89)" stroke-width="0.1"/>
  <path d="M 67.36068449999993,88.208675 L 67.36068449999993,89.86467499999998" fill="none" stroke="rgb(89,89,89)" stroke-width="0.1"/>
  <path d="M 67.2086845,88.208675 L 67.2086845,89.86467499999998" fill="none" stroke="rgb(89,89,89)" stroke-width="0.1"/>
  <path d="M 67.05768449999994,88.208675 L 67.05768449999994,89.86467499999998" fill="none" stroke="rgb(89,89,89)" stroke-width="0.1"/>
  <path d="M 67.36068449999993,88.51967499999998 L 68.32268449999992,88.51967499999998" fill="none" stroke="rgb(89,89,89)" stroke-width="0.1"/>
  <path d="M 67.36068449999993,89.554675 L 68.32168449999995,89.554675" fill="none" stroke="rgb(89,89,89)" stroke-width="0.1"/>
  <path d="M 60.78068450000001,99.86067500000001 L 60.92000949999999,100.0" fill="none" stroke="rgb(89,89,89)" stroke-width="0.1"/>
  <path d="M 60.78068450000001,99.86067500000001 L 60.92000949999999,100.0" fill="none" stroke="rgb(89,89,89)" stroke-width="0.1"/>
  <path d="M 61.246684500000015,99.80567500000001 L 61.441009500000064,100.0" fill="none" stroke="rgb(89,89,89)" stroke-width="0.1"/>
  <path d="M 61.246684500000015,99.80567500000001 L 61.441009500000064,100.0" fill="none" stroke="rgb(89,89,89)" stroke-width="0.1"/>
  <path d="M 53.62568449999992,98.534675 L 59.62668450000001,92.535675" fill="none" stroke="rgb(89,89,89)" stroke-width="0.1"/>
  <path d="M 60.12568449999992,99.03567499999997 L 53.12668450000001,92.034675" fill="none" stroke="rgb(89,89,89)" stroke-width="0.1"/>
  <path d="M 55.95968449999998,93.350675 A 2.01518,2.01518 0.0 0,0 56.62868449999996,97.26867499999997" fill="none" stroke="rgb(89,89,89)" stroke-width="0.1"/>
  <path d="M 56.63068450000003,88.517675 A 0.517598,0.517598 0.0 1,0 56.63068450000003,89.552675" fill="none" stroke="rgb(89,89,89)" stroke-width="0.1"/>
  <path d="M 57.27668449999999,88.517675 A 0.828157,0.828157 0.0 1,0 57.27668449999999,89.552675" fill="none" stroke="rgb(89,89,89)" stroke-width="0.1"/>
  <path d="M 55.98168450000003,93.344675 A 0.306101,0.306101 0.0 0,0 55.908684499999936,92.74167499999999" fill="none" stroke="rgb(89,89,89)" stroke-width="0.1"/>
  <path d="M 57.34968449999997,92.74167499999999 A 0.306101,0.306101 0.0 0,0 57.04368449999993,93.06967499999999" fill="none" stroke="rgb(89,89,89)" stroke-width="0.1"/>
  <path d="M 56.62868449999996,97.27367499999997 A 1.79434,1.79434 0.0 0,0 56.94368450000002,93.71267499999999" fill="none" stroke="rgb(89,89,89)" stroke-width="0.1"/>
  <path d="M 64.95968449999998,93.35267499999998 A 2.01518,2.01518 0.0 0,0 65.62868449999996,97.269675" fill="none" stroke="rgb(89,89,89)" stroke-width="0.1"/>
  <path d="M 64.98168450000003,93.345675 A 0.306101,0.306101 0.0 0,0 64.90868449999994,92.74267499999999" fill="none" stroke="rgb(89,89,89)" stroke-width="0.1"/>
  <path d="M 66.34968449999997,92.74267499999999 A 0.306101,0.306101 0.0 0,0 66.04368449999993,93.070675" fill="none" stroke="rgb(89,89,89)" stroke-width="0.1"/>
  <path d="M 65.62868449999996,97.274675 A 1.79434,1.79434 0.0 0,0 65.94368450000002,93.713675" fill="none" stroke="rgb(89,89,89)" stroke-width="0.1"/>
  <path d="M 65.99168450000002,88.51967499999998 A 0.631217,0.631217 0.0 0,0 65.63368449999996,88.405675" fill="none" stroke="rgb(89,89,89)" stroke-width="0.1"/>
  <path d="M 65.26868449999995,89.554675 A 0.631217,0.631217 0.0 0,0 65.99168450000002,89.554675" fill="none" stroke="rgb(89,89,89)" stroke-width="0.1"/>
  <path d="M 65.60168450000003,88.405675 A 0.631217,0.631217 0.0 0,0 65.26868449999995,88.518675" fill="none" stroke="rgb(89,89,89)" stroke-width="0.1"/>
  <path d="M 66.49768449999999,88.51967499999998 A 1.00995,1.00995 0.0 0,0 65.63368449999996,88.02667499999998" fill="none" stroke="rgb(89,89,89)" stroke-width="0.1"/>
  <path d="M 64.76268449999998,89.554675 A 1.00995,1.00995 0.0 0,0 66.49768449999999,89.554675" fill="none" stroke="rgb(89,89,89)" stroke-width="0.1"/>
  <path d="M 65.60168450000003,88.02767499999999 A 1.00995,1.00995 0.0 0,0 64.76368449999995,88.518675" fill="none" stroke="rgb(89,89,89)" stroke-width="0.1"/>
  <path d="M 92.12568449999992,54.767675 L 100.0,54.767675" fill="none" stroke="rgb(12,255,133)" stroke-width="0.1"/>
  <path d="M 100.0,23.791674999999998 L 92.12568449999992,23.791674999999998" fill="none" stroke="rgb(12,255,133)" stroke-width="0.1"/>
  <path d="M 92.12568449999992,23.791674999999998 L 92.12568449999992,54.767675" fill="none" stroke="rgb(12,255,133)" stroke-width="0.1"/>
  <path d="M 96.52568450000001,34.36767499999999 L 96.52568450000001,24.36767499999999" fill="none" stroke="rgb(12,255,133)" stroke-width="0.1"/>
  <path d="M 96.52568450000001,24.36767499999999 L 100.0,24.36767499999999" fill="none" stroke="rgb(12,255,133)" stroke-width="0.1"/>
  <path d="M 100.0,34.36767499999999 L 96.52568450000001,34.36767499999999" fill="none" stroke="rgb(12,255,133)" stroke-width="0.1"/>
  <path d="M 96.52568450000001,34.36767499999999 L 96.52568450000001,23.767674999999997" fill="none" stroke="rgb(12,255,133)" stroke-width="0.1"/>
  <path d="M 96.52568450000001,23.767674999999997 L 100.0,23.767674999999997" fill="none" stroke="rgb(12,255,133)" stroke-width="0.1"/>
  <path d="M 100.0,34.36767499999999 L 96.52568450000001,34.36767499999999" fill="none" stroke="rgb(12,255,133)" stroke-width="0.1"/>
  <path d="M 100.0,24.36767499999999 L 99.52568450000001,24.36767499999999" fill="none" stroke="rgb(12,255,133)" stroke-width="0.1"/>
  <path d="M 99.52568450000001,24.36767499999999 L 99.52568450000001,31.36767499999999" fill="none" stroke="rgb(12,255,133)" stroke-width="0.1"/>
  <path d="M 99.52568450000001,31.36767499999999 L 100.0,31.36767499999999" fill="none" stroke="rgb(12,255,133)" stroke-width="0.1"/>
  <path d="M 74.12568449999992,89.387675 L 74.12568449999992,79.387675" fill="none" stroke="rgb(12,255,133)" stroke-width="0.1"/>
  <path d="M 74.12568449999992,79.387675 L 84.12568449999992,79.387675" fill="none" stroke="rgb(12,255,133)" stroke-width="0.1"/>
  <path d="M 84.12568449999992,79.387675 L 84.12568449999992,89.387675" fill="none" stroke="rgb(12,255,133)" stroke-width="0.1"/>
  <path d="M 84.12568449999992,89.387675 L 74.12568449999992,89.387675" fill="none" stroke="rgb(12,255,133)" stroke-width="0.1"/>
  <path d="M 74.12568449999992,89.387675 L 74.12568449999992,78.78767499999998" fill="none" stroke="rgb(12,255,133)" stroke-width="0.1"/>
  <path d="M 74.12568449999992,78.78767499999998 L 84.72568449999994,78.78767499999998" fill="none" stroke="rgb(12,255,133)" stroke-width="0.1"/>
  <path d="M 84.72568449999994,78.78767499999998 L 84.72568449999994,89.387675" fill="none" stroke="rgb(12,255,133)" stroke-width="0.1"/>
  <path d="M 84.72568449999994,89.387675 L 74.12568449999992,89.387675" fill="none" stroke="rgb(12,255,133)" stroke-width="0.1"/>
  <path d="M 84.12568449999992,79.387675 L 77.12568449999992,79.387675" fill="none" stroke="rgb(12,255,133)" stroke-width="0.1"/>
  <path d="M 77.12568449999992,79.387675 L 77.12568449999992,86.387675" fill="none" stroke="rgb(12,255,133)" stroke-width="0.1"/>
  <path d="M 77.12568449999992,86.387675 L 84.12568449999992,86.387675" fill="none" stroke="rgb(12,255,133)" stroke-width="0.1"/>
  <path d="M 84.12568449999992,86.387675 L 84.12568449999992,79.387675" fill="none" stroke="rgb(12,255,133)" stroke-width="0.1"/>
  <path d="M 74.12568449999992,71.36767499999999 L 74.12568449999992,61.36767499999999" fill="none" stroke="rgb(12,255,133)" stroke-width="0.1"/>
  <path d="M 74.12568449999992,61.36767499999999 L 84.12568449999992,61.36767499999999" fill="none" stroke="rgb(12,255,133)" stroke-width="0.1"/>
  <path d="M 84.12568449999992,61.36767499999999 L 84.12568449999992,71.36767499999999" fill="none" stroke="rgb(12,255,133)" stroke-width="0.1"/>
  <path d="M 84.12568449999992,71.36767499999999 L 74.12568449999992,71.36767499999999" fill="none" stroke="rgb(12,255,133)" stroke-width="0.1"/>
  <path d="M 74.12568449999992,71.36767499999999 L 74.12568449999992,60.767675" fill="none" stroke="rgb(12,255,133)" stroke-width="0.1"/>
  <path d="M 74.12568449999992,60.767675 L 84.72568449999994,60.767675" fill="none" stroke="rgb(12,255,133)" stroke-width="0.1"/>
  <path d="M 84.72568449999994,60.767675 L 84.72568449999994,71.36767499999999" fill="none" stroke="rgb(12,255,133)" stroke-width="0.1"/>
  <path d="M 84.72568449999994,71.36767499999999 L 74.12568449999992,71.36767499999999" fill="none" stroke="rgb(12,255,133)" stroke-width="0.1"/>
  <path d="M 84.12568449999992,61.36767499999999 L 77.12568449999992,61.36767499999999" fill="none" stroke="rgb(12,255,133)" stroke-width="0.1"/>
  <path d="M 77.12568449999992,61.36767499999999 L 77.12568449999992,68.36767499999999" fill="none" stroke="rgb(12,255,133)" stroke-width="0.1"/>
  <path d="M 77.12568449999992,68.36767499999999 L 84.12568449999992,68.36767499999999" fill="none" stroke="rgb(12,255,133)" stroke-width="0.1"/>
  <path d="M 84.12568449999992,68.36767499999999 L 84.12568449999992,61.36767499999999" fill="none" stroke="rgb(12,255,133)" stroke-width="0.1"/>
  <path d="M 60.72668450000003,91.435675 L 52.52668449999999,91.434675" fill="none" stroke="rgb(12,255,133)" stroke-width="0.1"/>
  <path d="M 52.52668449999999,91.434675 L 52.52568450000001,99.63467500000002" fill="none" stroke="rgb(12,255,133)" stroke-width="0.1"/>
  <path d="M 52.52568450000001,99.63467500000002 L 60.72568449999994,99.63567499999999" fill="none" stroke="rgb(12,255,133)" stroke-width="0.1"/>
  <path d="M 60.72568449999994,99.63567499999999 L 60.72668450000003,91.435675" fill="none" stroke="rgb(12,255,133)" stroke-width="0.1"/>
  <path d="M 69.12668450000001,92.03767499999998 L 62.12668450000001,92.036675" fill="none" stroke="rgb(12,255,133)" stroke-width="0.1"/>
  <path d="M 62.12668450000001,92.036675 L 62.12568449999992,99.036675" fill="none" stroke="rgb(12,255,133)" stroke-width="0.1"/>
  <path d="M 62.12568449999992,99.036675 L 69.12568449999992,99.03767499999998" fill="none" stroke="rgb(12,255,133)" stroke-width="0.1"/>
  <path d="M 69.12568449999992,99.03767499999998 L 69.12668450000001,92.03767499999998" fill="none" stroke="rgb(12,255,133)" stroke-width="0.1"/>
  <path d="M 69.72668450000003,91.43767499999998 L 61.52668449999999,91.43667499999998" fill="none" stroke="rgb(12,255,133)" stroke-width="0.1"/>
  <path d="M 61.52668449999999,91.43667499999998 L 61.52568450000001,99.63667499999997" fill="none" stroke="rgb(12,255,133)" stroke-width="0.1"/>
  <path d="M 61.52568450000001,99.63667499999997 L 69.72568449999994,99.637675" fill="none" stroke="rgb(12,255,133)" stroke-width="0.1"/>
  <path d="M 69.72568449999994,99.637675 L 69.72668450000003,91.43767499999998" fill="none" stroke="rgb(12,255,133)" stroke-width="0.1"/>
  <path d="M 51.12568449999992,87.53767499999998 L 71.12568449999992,87.53767499999998" fill="none" stroke="rgb(12,255,133)" stroke-width="0.1"/>
  <path d="M 71.12568449999992,87.53767499999998 L 71.12568449999992,100.0" fill="none" stroke="rgb(12,255,133)" stroke-width="0.1"/>
  <path d="M 51.12568449999992,100.0 L 51.12568449999992,87.53767499999998" fill="none" stroke="rgb(12,255,133)" stroke-width="0.1"/>
  <path d="M 60.12668450000001,92.035675 L 53.12668450000001,92.034675" fill="none" stroke="rgb(12,255,133)" stroke-width="0.1"/>
  <path d="M 53.12668450000001,92.034675 L 53.12568449999992,99.034675" fill="none" stroke="rgb(12,255,133)" stroke-width="0.1"/>
  <path d="M 53.12568449999992,99.034675 L 60.12568449999992,99.03567499999997" fill="none" stroke="rgb(12,255,133)" stroke-width="0.1"/>
  <path d="M 60.12568449999992,99.03567499999997 L 60.12668450000001,92.035675" fill="none" stroke="rgb(12,255,133)" stroke-width="0.1"/>
  <path d="M 92.12568449999992,54.767675 L 95.76768449999997,27.283674999999988" fill="none" stroke="rgb(12,255,133)" stroke-width="0.1"/>
  <path d="M 95.76768449999997,27.283674999999988 L 100.0,25.973512885367114" fill="none" stroke="rgb(12,255,133)" stroke-width="0.1"/>
  <path d="M 96.52568450000001,34.36767499999999 L 100.0,33.89390470454546" fill="none" stroke="rgb(12,255,133)" stroke-width="0.1"/>
  <path d="M 97.12568449999992,24.36767499999999 L 97.12568449999992,33.767675" fill="none" stroke="rgb(12,255,133)" stroke-width="0.1"/>
  <path d="M 97.12568449999992,33.767675 L 100.0,33.767675" fill="none" stroke="rgb(12,255,133)" stroke-width="0.1"/>
  <path d="M 74.12568449999992,89.387675 L 82.92568449999999,88.18767499999998" fill="none" stroke="rgb(12,255,133)" stroke-width="0.1"/>
  <path d="M 82.92568449999999,88.18767499999998 L 84.12568449999992,79.387675" fill="none" stroke="rgb(12,255,133)" stroke-width="0.1"/>
  <path d="M 74.72568449999994,79.387675 L 74.72568449999994,88.78767499999998" fill="none" stroke="rgb(12,255,133)" stroke-width="0.1"/>
  <path d="M 74.72568449999994,88.78767499999998 L 84.12568449999992,88.78767499999998" fill="none" stroke="rgb(12,255,133)" stroke-width="0.1"/>
  <path d="M 74.12568449999992,71.36767499999999 L 82.92568449999999,70.167675" fill="none" stroke="rgb(12,255,133)" stroke-width="0.1"/>
  <path d="M 82.92568449999999,70.167675 L 84.12568449999992,61.36767499999999" fill="none" stroke="rgb(12,255,133)" stroke-width="0.1"/>
  <path d="M 74.72568449999994,61.36767499999999 L 74.72568449999994,70.767675" fill="none" stroke="rgb(12,255,133)" stroke-width="0.1"/>
  <path d="M 74.72568449999994,70.767675 L 84.12568449999992,70.767675" fill="none" stroke="rgb(12,255,133)" stroke-width="0.1"/>
  <circle cx="56.62568449999992" cy="95.53567499999997" fill="none" r="3" stroke="rgb(89,89,89)" stroke-width="0.1"/>
  <circle cx="56.62968449999994" cy="95.534675" fill="none" r="1.38026" stroke="rgb(89,89,89)" stroke-width="0.1"/>
  <circle cx="56.31068449999998" cy="91.26467499999998" fill="none" r="0.276052" stroke="rgb(89,89,89)" stroke-width="0.1"/>
  <circle cx="56.95268450000003" cy="91.27767499999999" fill="none" r="0.276052" stroke="rgb(89,89,89)" stroke-width="0.1"/>
  <circle cx="56.62968449999994" cy="95.534675" fill="none" r="0.828157" stroke="rgb(89,89,89)" stroke-width="0.1"/>
  <circle cx="57.05768449999994" cy="96.55267499999997" fill="none" r="0.276052" stroke="rgb(89,89,89)" stroke-width="0.1"/>
  <circle cx="56.90568450000001" cy="93.160675" fill="none" r="0.0690131" stroke="rgb(89,89,89)" stroke-width="0.1"/>
  <circle cx="56.90568450000001" cy="93.57467499999998" fill="none" r="0.0690131" stroke="rgb(89,89,89)" stroke-width="0.1"/>
  <circle cx="56.353684499999986" cy="93.159675" fill="none" r="0.0690131" stroke="rgb(89,89,89)" stroke-width="0.1"/>
  <circle cx="56.353684499999986" cy="93.57467499999998" fill="none" r="0.0690131" stroke="rgb(89,89,89)" stroke-width="0.1"/>
  <circle cx="65.62568449999992" cy="95.536675" fill="none" r="3" stroke="rgb(89,89,89)" stroke-width="0.1"/>
  <circle cx="65.62568449999992" cy="95.536675" fill="none" r="3" stroke="rgb(89,89,89)" stroke-width="0.1"/>
  <circle cx="65.62968449999994" cy="95.53567499999997" fill="none" r="1.38026" stroke="rgb(89,89,89)" stroke-width="0.1"/>
  <circle cx="65.31068449999998" cy="91.26667499999999" fill="none" r="0.276052" stroke="rgb(89,89,89)" stroke-width="0.1"/>
  <circle cx="65.95268450000003" cy="91.27867499999999" fill="none" r="0.276052" stroke="rgb(89,89,89)" stroke-width="0.1"/>
  <circle cx="65.62968449999994" cy="95.53567499999997" fill="none" r="0.828157" stroke="rgb(89,89,89)" stroke-width="0.1"/>
  <circle cx="66.05768449999994" cy="96.553675" fill="none" r="0.276052" stroke="rgb(89,89,89)" stroke-width="0.1"/>
  <circle cx="65.9056845" cy="93.161675" fill="none" r="0.0690131" stroke="rgb(89,89,89)" stroke-width="0.1"/>
  <circle cx="65.9056845" cy="93.57567499999999" fill="none" r="0.0690131" stroke="rgb(89,89,89)" stroke-width="0.1"/>
  <circle cx="65.35368449999999" cy="93.161675" fill="none" r="0.0690131" stroke="rgb(89,89,89)" stroke-width="0.1"/>
  <circle cx="65.35368449999999" cy="93.57567499999999" fill="none" r="0.0690131" stroke="rgb(89,89,89)" stroke-width="0.1"/>
  <circle cx="68.62568449999992" cy="89.03767499999998" fill="none" r="0.5" stroke="rgb(89,89,89)" stroke-width="0.1"/>
  <circle cx="68.62568449999992" cy="89.03767499999998" fill="none" r="0.6" stroke="rgb(89,89,89)" stroke-width="0.1"/>
  <circle cx="56.62568449999992" cy="95.53567499999997" fill="none" r="3" stroke="rgb(89,89,89)" stroke-width="0.1"/>
 </g>
</svg>