<?xml version="1.0" encoding="utf-8"?>
<svg style="background-color: #000;" version="1.1" viewBox="0 0 100.0 100.0" xmlns="http://www.w3.org/2000/svg" xmlns:inkscape="http://www.inkscape.org/namespaces/inkscape">
 <g id="layerCAR" inkscape:groupmode="layer" inkscape:label="CAR">
  <path d="M 38.737341500000014,46.02374450000002 L 38.737341500000014,47.62374449999999" fill="none" instance-id="-1" semantic-id="35" stroke="rgb(26,39,53)" stroke-width="0.1"/>
  <path d="M 57.737341500000014,47.62374449999999 L 57.737341500000014,46.02374450000002" fill="none" instance-id="-1" semantic-id="35" stroke="rgb(26,39,53)" stroke-width="0.1"/>
  <path d="M 57.737341500000014,47.62374449999999 L 38.737341500000014,47.62374449999999" fill="none" instance-id="-1" semantic-id="35" stroke="rgb(26,39,53)" stroke-width="0.1"/>
  <path d="M 57.737341500000014,46.02374450000002 L 38.737341500000014,46.02374450000002" fill="none" instance-id="-1" semantic-id="35" stroke="rgb(26,39,53)" stroke-width="0.1"/>
  <path d="M 60.237341500000014,33.82374450000003 L 36.237341500000014,33.82374450000003" fill="none" instance-id="-1" semantic-id="35" stroke="rgb(26,39,53)" stroke-width="0.1"/>
  <path d="M 60.237341500000014,86.82374450000003 L 60.237341500000014,33.82374450000003" fill="none" instance-id="-1" semantic-id="35" stroke="rgb(26,39,53)" stroke-width="0.1"/>
  <path d="M 36.237341500000014,86.82374450000003 L 60.237341500000014,86.82374450000003" fill="none" instance-id="-1" semantic-id="35" stroke="rgb(26,39,53)" stroke-width="0.1"/>
  <path d="M 36.237341500000014,33.82374450000003 L 36.237341500000014,86.82374450000003" fill="none" instance-id="-1" semantic-id="35" stroke="rgb(26,39,53)" stroke-width="0.1"/>
  <path d="M 57.737341500000014,46.82374450000003 L 38.737341500000014,46.82374450000003" fill="none" instance-id="-1" semantic-id="35" stroke="rgb(26,39,53)" stroke-width="0.1"/>
  <path d="M 62.737341500000014,46.02374450000002 L 62.737341500000014,47.62374449999999" fill="none" instance-id="-1" semantic-id="35" stroke="rgb(26,39,53)" stroke-width="0.1"/>
  <path d="M 81.73734150000001,47.62374449999999 L 81.73734150000001,46.02374450000002" fill="none" instance-id="-1" semantic-id="35" stroke="rgb(26,39,53)" stroke-width="0.1"/>
  <path d="M 81.73734150000001,47.62374449999999 L 62.737341500000014,47.62374449999999" fill="none" instance-id="-1" semantic-id="35" stroke="rgb(26,39,53)" stroke-width="0.1"/>
  <path d="M 81.73734150000001,46.02374450000002 L 62.737341500000014,46.02374450000002" fill="none" instance-id="-1" semantic-id="35" stroke="rgb(26,39,53)" stroke-width="0.1"/>
  <path d="M 84.23734150000001,33.82374450000003 L 60.237341500000014,33.82374450000003" fill="none" instance-id="-1" semantic-id="35" stroke="rgb(26,39,53)" stroke-width="0.1"/>
  <path d="M 84.23734150000001,86.82374450000003 L 84.23734150000001,33.82374450000003" fill="none" instance-id="-1" semantic-id="35" stroke="rgb(26,39,53)" stroke-width="0.1"/>
  <path d="M 60.237341500000014,86.82374450000003 L 84.23734150000001,86.82374450000003" fill="none" instance-id="-1" semantic-id="35" stroke="rgb(26,39,53)" stroke-width="0.1"/>
  <path d="M 60.237341500000014,33.82374450000003 L 60.237341500000014,86.82374450000003" fill="none" instance-id="-1" semantic-id="35" stroke="rgb(26,39,53)" stroke-width="0.1"/>
  <path d="M 81.73734150000001,46.82374450000003 L 62.737341500000014,46.82374450000003" fill="none" instance-id="-1" semantic-id="35" stroke="rgb(26,39,53)" stroke-width="0.1"/>
  <path d="M 86.73734150000001,47.62374449999999 L 86.73734150000001,46.02374450000002" fill="none" instance-id="-1" semantic-id="35" stroke="rgb(26,39,53)" stroke-width="0.1"/>
  <path d="M 86.73734150000001,47.62374449999999 L 100.0,47.62374449999999" fill="none" instance-id="-1" semantic-id="35" stroke="rgb(26,39,53)" stroke-width="0.1"/>
  <path d="M 86.73734150000001,46.02374450000002 L 100.0,46.02374450000002" fill="none" instance-id="-1" semantic-id="35" stroke="rgb(26,39,53)" stroke-width="0.1"/>
  <path d="M 84.23734150000001,33.82374450000003 L 100.0,33.82374450000003" fill="none" instance-id="-1" semantic-id="35" stroke="rgb(26,39,53)" stroke-width="0.1"/>
  <path d="M 84.23734150000001,86.82374450000003 L 84.23734150000001,33.82374450000003" fill="none" instance-id="-1" semantic-id="35" stroke="rgb(26,39,53)" stroke-width="0.1"/>
  <path d="M 100.0,86.82374450000003 L 84.23734150000001,86.82374450000003" fill="none" instance-id="-1" semantic-id="35" stroke="rgb(26,39,53)" stroke-width="0.1"/>
  <path d="M 86.73734150000001,46.82374450000003 L 100.0,46.82374450000003" fill="none" instance-id="-1" semantic-id="35" stroke="rgb(26,39,53)" stroke-width="0.1"/>
  <path d="M 0.7373415000000136,47.62374449999999 L 0.7373415000000136,46.02374450000002" fill="none" instance-id="-1" semantic-id="35" stroke="rgb(26,39,53)" stroke-width="0.1"/>
  <path d="M 0.7373415000000136,47.62374449999999 L 0.0,47.62374449999999" fill="none" instance-id="-1" semantic-id="35" stroke="rgb(26,39,53)" stroke-width="0.1"/>
  <path d="M 0.7373415000000136,46.02374450000002 L 0.0,46.02374450000002" fill="none" instance-id="-1" semantic-id="35" stroke="rgb(26,39,53)" stroke-width="0.1"/>
  <path d="M 3.2373415000000136,33.82374450000003 L 0.0,33.82374450000003" fill="none" instance-id="-1" semantic-id="35" stroke="rgb(26,39,53)" stroke-width="0.1"/>
  <path d="M 3.2373415000000136,86.82374450000003 L 3.2373415000000136,33.82374450000003" fill="none" instance-id="-1" semantic-id="35" stroke="rgb(26,39,53)" stroke-width="0.1"/>
  <path d="M 0.0,86.82374450000003 L 3.2373415000000136,86.82374450000003" fill="none" instance-id="-1" semantic-id="35" stroke="rgb(26,39,53)" stroke-width="0.1"/>
  <path d="M 0.7373415000000136,46.82374450000003 L 0.0,46.82374450000003" fill="none" instance-id="-1" semantic-id="35" stroke="rgb(26,39,53)" stroke-width="0.1"/>
  <path d="M 24.737341500000014,46.02374450000002 L 24.737341500000014,47.62374449999999" fill="none" instance-id="-1" semantic-id="35" stroke="rgb(26,39,53)" stroke-width="0.1"/>
  <path d="M 5.737341500000014,47.62374449999999 L 5.737341500000014,46.02374450000002" fill="none" instance-id="-1" semantic-id="35" stroke="rgb(26,39,53)" stroke-width="0.1"/>
  <path d="M 5.737341500000014,47.62374449999999 L 24.737341500000014,47.62374449999999" fill="none" instance-id="-1" semantic-id="35" stroke="rgb(26,39,53)" stroke-width="0.1"/>
  <path d="M 5.737341500000014,46.02374450000002 L 24.737341500000014,46.02374450000002" fill="none" instance-id="-1" semantic-id="35" stroke="rgb(26,39,53)" stroke-width="0.1"/>
  <path d="M 3.2373415000000136,33.82374450000003 L 27.237341500000014,33.82374450000003" fill="none" instance-id="-1" semantic-id="35" stroke="rgb(26,39,53)" stroke-width="0.1"/>
  <path d="M 3.2373415000000136,86.82374450000003 L 3.2373415000000136,33.82374450000003" fill="none" instance-id="-1" semantic-id="35" stroke="rgb(26,39,53)" stroke-width="0.1"/>
  <path d="M 27.237341500000014,86.82374450000003 L 3.2373415000000136,86.82374450000003" fill="none" instance-id="-1" semantic-id="35" stroke="rgb(26,39,53)" stroke-width="0.1"/>
  <path d="M 27.237341500000014,33.82374450000003 L 27.237341500000014,86.82374450000003" fill="none" instance-id="-1" semantic-id="35" stroke="rgb(26,39,53)" stroke-width="0.1"/>
  <path d="M 5.737341500000014,46.82374450000003 L 24.737341500000014,46.82374450000003" fill="none" instance-id="-1" semantic-id="35" stroke="rgb(26,39,53)" stroke-width="0.1"/>
  <path d="M 39.237341500000014,36.32374450000003 L 57.237341500000014,36.32374450000003" fill="none" instance-id="-1" semantic-id="35" stroke="rgb(26,39,53)" stroke-width="0.1"/>
  <path d="M 57.237341500000014,36.32374450000003 L 57.237341500000014,84.32374450000003" fill="none" instance-id="-1" semantic-id="35" stroke="rgb(26,39,53)" stroke-width="0.1"/>
  <path d="M 57.237341500000014,84.32374450000003 L 39.237341500000014,84.32374450000003" fill="none" instance-id="-1" semantic-id="35" stroke="rgb(26,39,53)" stroke-width="0.1"/>
  <path d="M 39.237341500000014,84.32374450000003 L 39.237341500000014,36.32374450000003" fill="none" instance-id="-1" semantic-id="35" stroke="rgb(26,39,53)" stroke-width="0.1"/>
  <path d="M 63.237341500000014,36.32374450000003 L 81.23734150000001,36.32374450000003" fill="none" instance-id="-1" semantic-id="35" stroke="rgb(26,39,53)" stroke-width="0.1"/>
  <path d="M 81.23734150000001,36.32374450000003 L 81.23734150000001,84.32374450000003" fill="none" instance-id="-1" semantic-id="35" stroke="rgb(26,39,53)" stroke-width="0.1"/>
  <path d="M 81.23734150000001,84.32374450000003 L 63.237341500000014,84.32374450000003" fill="none" instance-id="-1" semantic-id="35" stroke="rgb(26,39,53)" stroke-width="0.1"/>
  <path d="M 63.237341500000014,84.32374450000003 L 63.237341500000014,36.32374450000003" fill="none" instance-id="-1" semantic-id="35" stroke="rgb(26,39,53)" stroke-width="0.1"/>
  <path d="M 100.0,36.32374450000003 L 87.23734150000001,36.32374450000003" fill="none" instance-id="-1" semantic-id="35" stroke="rgb(26,39,53)" stroke-width="0.1"/>
  <path d="M 87.23734150000001,36.32374450000003 L 87.23734150000001,84.32374450000003" fill="none" instance-id="-1" semantic-id="35" stroke="rgb(26,39,53)" stroke-width="0.1"/>
  <path d="M 87.23734150000001,84.32374450000003 L 100.0,84.32374450000003" fill="none" instance-id="-1" semantic-id="35" stroke="rgb(26,39,53)" stroke-width="0.1"/>
  <path d="M 0.0,36.32374450000003 L 0.23734150000001364,36.32374450000003" fill="none" instance-id="-1" semantic-id="35" stroke="rgb(26,39,53)" stroke-width="0.1"/>
  <path d="M 0.23734150000001364,36.32374450000003 L 0.23734150000001364,84.32374450000003" fill="none" instance-id="-1" semantic-id="35" stroke="rgb(26,39,53)" stroke-width="0.1"/>
  <path d="M 0.23734150000001364,84.32374450000003 L 0.0,84.32374450000003" fill="none" instance-id="-1" semantic-id="35" stroke="rgb(26,39,53)" stroke-width="0.1"/>
  <path d="M 24.237341500000014,36.32374450000003 L 6.237341500000014,36.32374450000003" fill="none" instance-id="-1" semantic-id="35" stroke="rgb(26,39,53)" stroke-width="0.1"/>
  <path d="M 6.237341500000014,36.32374450000003 L 6.237341500000014,84.32374450000003" fill="none" instance-id="-1" semantic-id="35" stroke="rgb(26,39,53)" stroke-width="0.1"/>
  <path d="M 6.237341500000014,84.32374450000003 L 24.237341500000014,84.32374450000003" fill="none" instance-id="-1" semantic-id="35" stroke="rgb(26,39,53)" stroke-width="0.1"/>
  <path d="M 24.237341500000014,84.32374450000003 L 24.237341500000014,36.32374450000003" fill="none" instance-id="-1" semantic-id="35" stroke="rgb(26,39,53)" stroke-width="0.1"/>
 </g>
 <g id="layerCOLU" inkscape:groupmode="layer" inkscape:label="COLU">
  <path d="M 26.91734150000002,86.07374450000003 L 33.91734150000002,86.07374450000003" fill="none" stroke="rgb(255,73,12)" stroke-width="0.1"/>
  <path d="M 33.91734150000002,86.07374450000003 L 33.91734150000002,79.07374450000003" fill="none" stroke="rgb(255,73,12)" stroke-width="0.1"/>
  <path d="M 33.91734150000002,79.07374450000003 L 26.91734150000002,79.07374450000003" fill="none" stroke="rgb(255,73,12)" stroke-width="0.1"/>
  <path d="M 26.91734150000002,79.07374450000003 L 26.91734150000002,86.07374450000003" fill="none" stroke="rgb(255,73,12)" stroke-width="0.1"/>
  <path d="M 26.91734150000002,5.073744500000032 L 33.91734150000002,5.073744500000032" fill="none" stroke="rgb(255,73,12)" stroke-width="0.1"/>
  <path d="M 33.91734150000002,5.073744500000032 L 33.91734150000002,0.0" fill="none" stroke="rgb(255,73,12)" stroke-width="0.1"/>
  <path d="M 26.91734150000002,0.0 L 26.91734150000002,5.073744500000032" fill="none" stroke="rgb(255,73,12)" stroke-width="0.1"/>
  <path d="M 26.91734150000002,86.07374450000003 L 33.91734150000002,86.07374450000003" fill="none" stroke="rgb(255,73,12)" stroke-width="0.1"/>
  <path d="M 33.91734150000002,86.07374450000003 L 33.91734150000002,79.07374450000003" fill="none" stroke="rgb(255,73,12)" stroke-width="0.1"/>
  <path d="M 33.91734150000002,79.07374450000003 L 26.91734150000002,79.07374450000003" fill="none" stroke="rgb(255,73,12)" stroke-width="0.1"/>
  <path d="M 26.91734150000002,79.07374450000003 L 26.91734150000002,86.07374450000003" fill="none" stroke="rgb(255,73,12)" stroke-width="0.1"/>
  <path d="M 26.91734150000002,5.073744500000032 L 33.91734150000002,5.073744500000032" fill="none" stroke="rgb(255,73,12)" stroke-width="0.1"/>
  <path d="M 33.91734150000002,5.073744500000032 L 33.91734150000002,0.0" fill="none" stroke="rgb(255,73,12)" stroke-width="0.1"/>
  <path d="M 26.91734150000002,0.0 L 26.91734150000002,5.073744500000032" fill="none" stroke="rgb(255,73,12)" stroke-width="0.1"/>
  <path d="M 26.91734150000002,86.07374450000003 L 33.91734150000002,86.07374450000003" fill="none" stroke="rgb(255,73,12)" stroke-width="0.1"/>
  <path d="M 33.91734150000002,86.07374450000003 L 33.91734150000002,79.07374450000003" fill="none" stroke="rgb(255,73,12)" stroke-width="0.1"/>
  <path d="M 33.91734150000002,79.07374450000003 L 26.91734150000002,79.07374450000003" fill="none" stroke="rgb(255,73,12)" stroke-width="0.1"/>
  <path d="M 26.91734150000002,79.07374450000003 L 26.91734150000002,86.07374450000003" fill="none" stroke="rgb(255,73,12)" stroke-width="0.1"/>
  <path d="M 26.91734150000002,5.073744500000032 L 33.91734150000002,5.073744500000032" fill="none" stroke="rgb(255,73,12)" stroke-width="0.1"/>
  <path d="M 33.91734150000002,5.073744500000032 L 33.91734150000002,0.0" fill="none" stroke="rgb(255,73,12)" stroke-width="0.1"/>
  <path d="M 26.91734150000002,0.0 L 26.91734150000002,5.073744500000032" fill="none" stroke="rgb(255,73,12)" stroke-width="0.1"/>
 </g>
 <g id="layerCOLU_HATCH" inkscape:groupmode="layer" inkscape:label="COLU_HATCH">
  <path d="M 26.91734150000002,5.073744500000032 L 33.91734150000002,5.073744500000032" fill="none" stroke="rgb(92,92,92)" stroke-width="0.1"/>
  <path d="M 33.91734150000002,5.073744500000032 L 33.91734150000002,0.0" fill="none" stroke="rgb(92,92,92)" stroke-width="0.1"/>
  <path d="M 26.91734150000002,0.0 L 26.91734150000002,5.073744500000032" fill="none" stroke="rgb(92,92,92)" stroke-width="0.1"/>
  <path d="M 26.91734150000002,86.07374450000003 L 33.91734150000002,86.07374450000003" fill="none" stroke="rgb(92,92,92)" stroke-width="0.1"/>
  <path d="M 33.91734150000002,86.07374450000003 L 33.91734150000002,79.07374450000003" fill="none" stroke="rgb(92,92,92)" stroke-width="0.1"/>
  <path d="M 33.91734150000002,79.07374450000003 L 26.91734150000002,79.07374450000003" fill="none" stroke="rgb(92,92,92)" stroke-width="0.1"/>
  <path d="M 26.91734150000002,79.07374450000003 L 26.91734150000002,86.07374450000003" fill="none" stroke="rgb(92,92,92)" stroke-width="0.1"/>
  <path d="M 26.91734150000002,5.073744500000032 L 33.91734150000002,5.073744500000032" fill="none" stroke="rgb(92,92,92)" stroke-width="0.1"/>
  <path d="M 33.91734150000002,5.073744500000032 L 33.91734150000002,0.0" fill="none" stroke="rgb(92,92,92)" stroke-width="0.1"/>
  <path d="M 26.91734150000002,0.0 L 26.91734150000002,5.073744500000032" fill="none" stroke="rgb(92,92,92)" stroke-width="0.1"/>
  <path d="M 26.91734150000002,86.07374450000003 L 33.91734150000002,86.07374450000003" fill="none" stroke="rgb(92,92,92)" stroke-width="0.1"/>
  <path d="M 33.91734150000002,86.07374450000003 L 33.91734150000002,79.07374450000003" fill="none" stroke="rgb(92,92,92)" stroke-width="0.1"/>
  <path d="M 33.91734150000002,79.07374450000003 L 26.91734150000002,79.07374450000003" fill="none" stroke="rgb(92,92,92)" stroke-width="0.1"/>
  <path d="M 26.91734150000002,79.07374450000003 L 26.91734150000002,86.07374450000003" fill="none" stroke="rgb(92,92,92)" stroke-width="0.1"/>
  <path d="M 26.91734150000002,5.073744500000032 L 33.91734150000002,5.073744500000032" fill="none" stroke="rgb(92,92,92)" stroke-width="0.1"/>
  <path d="M 33.91734150000002,5.073744500000032 L 33.91734150000002,0.0" fill="none" stroke="rgb(92,92,92)" stroke-width="0.1"/>
  <path d="M 26.91734150000002,0.0 L 26.91734150000002,5.073744500000032" fill="none" stroke="rgb(92,92,92)" stroke-width="0.1"/>
  <path d="M 26.91734150000002,86.07374450000003 L 33.91734150000002,86.07374450000003" fill="none" stroke="rgb(92,92,92)" stroke-width="0.1"/>
  <path d="M 33.91734150000002,86.07374450000003 L 33.91734150000002,79.07374450000003" fill="none" stroke="rgb(92,92,92)" stroke-width="0.1"/>
  <path d="M 33.91734150000002,79.07374450000003 L 26.91734150000002,79.07374450000003" fill="none" stroke="rgb(92,92,92)" stroke-width="0.1"/>
  <path d="M 26.91734150000002,79.07374450000003 L 26.91734150000002,86.07374450000003" fill="none" stroke="rgb(92,92,92)" stroke-width="0.1"/>
 </g>
 <g id="layerDOTE" inkscape:groupmode="layer" inkscape:label="DOTE">
  <path d="M 0.0,82.57374450000003 L 100.0,82.57374450000003" fill="none" stroke="rgb(88,0,0)" stroke-width="0.1"/>
  <path d="M 30.41734150000002,100.0 L 30.41734150000002,0.0" fill="none" stroke="rgb(88,0,0)" stroke-width="0.1"/>
  <path d="M 0.0,1.573744500000032 L 100.0,1.573744500000032" fill="none" stroke="rgb(88,0,0)" stroke-width="0.1"/>
 </g>
 <g id="layerWALL" inkscape:groupmode="layer" inkscape:label="WALL">
  <path d="M 1.2373415000000136,2.573744500000032 L 0.0,2.573744500000032" fill="none" instance-id="-1" semantic-id="1" stroke="rgb(178,88,0)" stroke-width="0.1"/>
  <path d="M 1.2373415000000136,0.5737445000000321 L 0.0,0.5737445000000321" fill="none" instance-id="-1" semantic-id="1" stroke="rgb(178,88,0)" stroke-width="0.1"/>
  <path d="M 7.112341500000014,31.823744500000032 L 2.2373415000000136,31.823744500000032" fill="none" instance-id="-1" semantic-id="1" stroke="rgb(178,88,0)" stroke-width="0.1"/>
  <path d="M 7.112341500000014,29.823744500000032 L 3.2373415000000136,29.823744500000032" fill="none" instance-id="-1" semantic-id="1" stroke="rgb(178,88,0)" stroke-width="0.1"/>
  <path d="M 2.2373415000000136,31.823744500000032 L 0.0,31.823744500000032" fill="none" instance-id="-1" semantic-id="1" stroke="rgb(178,88,0)" stroke-width="0.1"/>
  <path d="M 1.2373415000000136,29.823744500000032 L 0.0,29.823744500000032" fill="none" instance-id="-1" semantic-id="1" stroke="rgb(178,88,0)" stroke-width="0.1"/>
  <path d="M 100.0,31.823744500000032 L 7.237341500000014,31.823744500000032" fill="none" instance-id="-1" semantic-id="1" stroke="rgb(178,88,0)" stroke-width="0.1"/>
  <path d="M 100.0,29.823744500000032 L 7.237341500000014,29.823744500000032" fill="none" instance-id="-1" semantic-id="1" stroke="rgb(178,88,0)" stroke-width="0.1"/>
  <path d="M 3.2373415000000136,1.573744500000032 L 3.2373415000000136,29.823744500000032" fill="none" instance-id="-1" semantic-id="1" stroke="rgb(178,88,0)" stroke-width="0.1"/>
  <path d="M 1.2373415000000136,2.573744500000032 L 1.2373415000000136,29.823744500000032" fill="none" instance-id="-1" semantic-id="1" stroke="rgb(178,88,0)" stroke-width="0.1"/>
  <path d="M 3.2373415000000136,0.0 L 3.2373415000000136,1.573744500000032" fill="none" instance-id="-1" semantic-id="1" stroke="rgb(178,88,0)" stroke-width="0.1"/>
  <path d="M 1.2373415000000136,0.0 L 1.2373415000000136,0.5737445000000321" fill="none" instance-id="-1" semantic-id="1" stroke="rgb(178,88,0)" stroke-width="0.1"/>
 </g>
 <g id="layer电动车位" inkscape:groupmode="layer" inkscape:label="电动车位">
  <path d="M 42.0203415,66.38574449999999 A 6.0,6.0 0.0 0,0 54.0203415,66.38574449999999" fill="none" stroke="rgb(89,89,89)" stroke-width="0.1"/>
  <path d="M 54.0203415,66.38574449999999 A 6.0,6.0 0.0 1,0 42.0203415,66.38574449999999" fill="none" stroke="rgb(89,89,89)" stroke-width="0.1"/>
  <path d="M 66.0203415,66.38574449999999 A 6.0,6.0 0.0 0,0 78.0203415,66.38574449999999" fill="none" stroke="rgb(89,89,89)" stroke-width="0.1"/>
  <path d="M 78.0203415,66.38574449999999 A 6.0,6.0 0.0 1,0 66.0203415,66.38574449999999" fill="none" stroke="rgb(89,89,89)" stroke-width="0.1"/>
  <path d="M 90.0203415,66.38574449999999 L 90.04195656874484,66.89458004685304" fill="none" stroke="rgb(89,89,89)" stroke-width="0.1"/>
  <path d="M 90.04195656874484,66.89458004685304 L 90.10664603791375,67.39974942193106" fill="none" stroke="rgb(89,89,89)" stroke-width="0.1"/>
  <path d="M 90.10664603791375,67.39974942193106 L 90.213943818399,67.89761286831072" fill="none" stroke="rgb(89,89,89)" stroke-width="0.1"/>
  <path d="M 90.213943818399,67.89761286831072 L 90.3630768272335,68.38458326845233" fill="none" stroke="rgb(89,89,89)" stroke-width="0.1"/>
  <path d="M 90.3630768272335,68.38458326845233 L 90.55297055767119,68.85715198946394" fill="none" stroke="rgb(89,89,89)" stroke-width="0.1"/>
  <path d="M 90.55297055767119,68.85715198946394 L 90.78225682103286,69.3119141628818" fill="none" stroke="rgb(89,89,89)" stroke-width="0.1"/>
  <path d="M 90.78225682103286,69.3119141628818 L 91.04928360453695,69.74559321682557" fill="none" stroke="rgb(89,89,89)" stroke-width="0.1"/>
  <path d="M 91.04928360453695,69.74559321682557 L 91.35212697408937,70.15506448377386" fill="none" stroke="rgb(89,89,89)" stroke-width="0.1"/>
  <path d="M 91.35212697408937,70.15506448377386 L 91.68860493627287,70.53737771386528" fill="none" stroke="rgb(89,89,89)" stroke-width="0.1"/>
  <path d="M 91.68860493627287,70.53737771386528 L 92.0562931596595,70.88977833151631" fill="none" stroke="rgb(89,89,89)" stroke-width="0.1"/>
  <path d="M 92.0562931596595,70.88977833151631 L 92.45254244217429,71.20972728220164" fill="none" stroke="rgb(89,89,89)" stroke-width="0.1"/>
  <path d="M 92.45254244217429,71.20972728220164 L 92.87449779865662,71.49491932639984" fill="none" stroke="rgb(89,89,89)" stroke-width="0.1"/>
  <path d="M 92.87449779865662,71.49491932639984 L 93.31911903109398,71.74329964889739" fill="none" stroke="rgb(89,89,89)" stroke-width="0.1"/>
  <path d="M 93.31911903109398,71.74329964889739 L 93.78320263331815,71.95307866377902" fill="none" stroke="rgb(89,89,89)" stroke-width="0.1"/>
  <path d="M 93.78320263331815,71.95307866377902 L 94.26340487234069,72.1227449084355" fill="none" stroke="rgb(89,89,89)" stroke-width="0.1"/>
  <path d="M 94.26340487234069,72.1227449084355 L 94.75626588002564,72.25107593368608" fill="none" stroke="rgb(89,89,89)" stroke-width="0.1"/>
  <path d="M 94.75626588002564,72.25107593368608 L 95.25823458151874,72.33714711155324" fill="none" stroke="rgb(89,89,89)" stroke-width="0.1"/>
  <path d="M 95.25823458151874,72.33714711155324 L 95.76569428082311,72.38033829722809" fill="none" stroke="rgb(89,89,89)" stroke-width="0.1"/>
  <path d="M 95.76569428082311,72.38033829722809 L 96.27498871917689,72.38033829722809" fill="none" stroke="rgb(89,89,89)" stroke-width="0.1"/>
  <path d="M 96.27498871917689,72.38033829722809 L 96.78244841848127,72.33714711155324" fill="none" stroke="rgb(89,89,89)" stroke-width="0.1"/>
  <path d="M 96.78244841848127,72.33714711155324 L 97.28441711997436,72.25107593368608" fill="none" stroke="rgb(89,89,89)" stroke-width="0.1"/>
  <path d="M 97.28441711997436,72.25107593368608 L 97.77727812765932,72.1227449084355" fill="none" stroke="rgb(89,89,89)" stroke-width="0.1"/>
  <path d="M 97.77727812765932,72.1227449084355 L 98.25748036668185,71.95307866377902" fill="none" stroke="rgb(89,89,89)" stroke-width="0.1"/>
  <path d="M 98.25748036668185,71.95307866377902 L 98.72156396890605,71.74329964889739" fill="none" stroke="rgb(89,89,89)" stroke-width="0.1"/>
  <path d="M 98.72156396890605,71.74329964889739 L 99.16618520134338,71.49491932639984" fill="none" stroke="rgb(89,89,89)" stroke-width="0.1"/>
  <path d="M 99.16618520134338,71.49491932639984 L 99.58814055782571,71.20972728220164" fill="none" stroke="rgb(89,89,89)" stroke-width="0.1"/>
  <path d="M 99.58814055782571,71.20972728220164 L 99.9843898403405,70.88977833151631" fill="none" stroke="rgb(89,89,89)" stroke-width="0.1"/>
  <path d="M 99.9843898403405,61.88171066848366 L 99.58814055782571,61.56176171779833" fill="none" stroke="rgb(89,89,89)" stroke-width="0.1"/>
  <path d="M 99.58814055782571,61.56176171779833 L 99.16618520134338,61.276569673600136" fill="none" stroke="rgb(89,89,89)" stroke-width="0.1"/>
  <path d="M 99.16618520134338,61.276569673600136 L 98.72156396890605,61.02818935110258" fill="none" stroke="rgb(89,89,89)" stroke-width="0.1"/>
  <path d="M 98.72156396890605,61.02818935110258 L 98.25748036668185,60.81841033622095" fill="none" stroke="rgb(89,89,89)" stroke-width="0.1"/>
  <path d="M 98.25748036668185,60.81841033622095 L 97.77727812765932,60.64874409156448" fill="none" stroke="rgb(89,89,89)" stroke-width="0.1"/>
  <path d="M 97.77727812765932,60.64874409156448 L 97.28441711997436,60.52041306631389" fill="none" stroke="rgb(89,89,89)" stroke-width="0.1"/>
  <path d="M 97.28441711997436,60.52041306631389 L 96.78244841848127,60.43434188844674" fill="none" stroke="rgb(89,89,89)" stroke-width="0.1"/>
  <path d="M 96.78244841848127,60.43434188844674 L 96.27498871917689,60.39115070277188" fill="none" stroke="rgb(89,89,89)" stroke-width="0.1"/>
  <path d="M 96.27498871917689,60.39115070277188 L 95.76569428082311,60.39115070277188" fill="none" stroke="rgb(89,89,89)" stroke-width="0.1"/>
  <path d="M 95.76569428082311,60.39115070277188 L 95.25823458151874,60.43434188844674" fill="none" stroke="rgb(89,89,89)" stroke-width="0.1"/>
  <path d="M 95.25823458151874,60.43434188844674 L 94.75626588002564,60.52041306631389" fill="none" stroke="rgb(89,89,89)" stroke-width="0.1"/>
  <path d="M 94.75626588002564,60.52041306631389 L 94.26340487234069,60.64874409156448" fill="none" stroke="rgb(89,89,89)" stroke-width="0.1"/>
  <path d="M 94.26340487234069,60.64874409156448 L 93.78320263331815,60.81841033622095" fill="none" stroke="rgb(89,89,89)" stroke-width="0.1"/>
  <path d="M 93.78320263331815,60.81841033622095 L 93.31911903109395,61.02818935110258" fill="none" stroke="rgb(89,89,89)" stroke-width="0.1"/>
  <path d="M 93.31911903109395,61.02818935110258 L 92.87449779865662,61.276569673600136" fill="none" stroke="rgb(89,89,89)" stroke-width="0.1"/>
  <path d="M 92.87449779865662,61.276569673600136 L 92.45254244217429,61.56176171779833" fill="none" stroke="rgb(89,89,89)" stroke-width="0.1"/>
  <path d="M 92.45254244217429,61.56176171779833 L 92.0562931596595,61.88171066848366" fill="none" stroke="rgb(89,89,89)" stroke-width="0.1"/>
  <path d="M 92.0562931596595,61.88171066848366 L 91.68860493627287,62.23411128613469" fill="none" stroke="rgb(89,89,89)" stroke-width="0.1"/>
  <path d="M 91.68860493627287,62.23411128613469 L 91.35212697408937,62.61642451622612" fill="none" stroke="rgb(89,89,89)" stroke-width="0.1"/>
  <path d="M 91.35212697408937,62.61642451622612 L 91.04928360453695,63.025895783174406" fill="none" stroke="rgb(89,89,89)" stroke-width="0.1"/>
  <path d="M 91.04928360453695,63.025895783174406 L 90.78225682103286,63.45957483711817" fill="none" stroke="rgb(89,89,89)" stroke-width="0.1"/>
  <path d="M 90.78225682103286,63.45957483711817 L 90.55297055767119,63.91433701053603" fill="none" stroke="rgb(89,89,89)" stroke-width="0.1"/>
  <path d="M 90.55297055767119,63.91433701053603 L 90.3630768272335,64.38690573154764" fill="none" stroke="rgb(89,89,89)" stroke-width="0.1"/>
  <path d="M 90.3630768272335,64.38690573154764 L 90.213943818399,64.87387613168926" fill="none" stroke="rgb(89,89,89)" stroke-width="0.1"/>
  <path d="M 90.213943818399,64.87387613168926 L 90.10664603791375,65.37173957806891" fill="none" stroke="rgb(89,89,89)" stroke-width="0.1"/>
  <path d="M 90.10664603791375,65.37173957806891 L 90.04195656874484,65.87690895314694" fill="none" stroke="rgb(89,89,89)" stroke-width="0.1"/>
  <path d="M 90.04195656874484,65.87690895314694 L 90.0203415,66.38574449999999" fill="none" stroke="rgb(89,89,89)" stroke-width="0.1"/>
  <path d="M 9.0203415,66.38574449999999 A 6.0,6.0 0.0 0,0 21.0203415,66.38574449999999" fill="none" stroke="rgb(89,89,89)" stroke-width="0.1"/>
  <path d="M 21.0203415,66.38574449999999 A 6.0,6.0 0.0 1,0 9.0203415,66.38574449999999" fill="none" stroke="rgb(89,89,89)" stroke-width="0.1"/>
  <path d="M 49.21234150000001,61.58574450000003 L 47.41734150000002,65.78574450000002" fill="none" stroke="rgb(89,89,89)" stroke-width="0.1"/>
  <path d="M 47.41734150000002,65.78574450000002 L 49.997341500000005,65.78574450000002" fill="none" stroke="rgb(89,89,89)" stroke-width="0.1"/>
  <path d="M 49.997341500000005,65.78574450000002 L 46.07034150000001,71.1857445" fill="none" stroke="rgb(89,89,89)" stroke-width="0.1"/>
  <path d="M 46.07034150000001,71.1857445 L 47.8653415,66.98574450000001" fill="none" stroke="rgb(89,89,89)" stroke-width="0.1"/>
  <path d="M 47.8653415,66.98574450000001 L 45.285341500000015,66.98574450000001" fill="none" stroke="rgb(89,89,89)" stroke-width="0.1"/>
  <path d="M 45.285341500000015,66.98574450000001 L 49.21234150000001,61.58574450000003" fill="none" stroke="rgb(89,89,89)" stroke-width="0.1"/>
  <path d="M 73.21234150000001,61.58574450000003 L 71.41734150000002,65.78574450000002" fill="none" stroke="rgb(89,89,89)" stroke-width="0.1"/>
  <path d="M 71.41734150000002,65.78574450000002 L 73.9973415,65.78574450000002" fill="none" stroke="rgb(89,89,89)" stroke-width="0.1"/>
  <path d="M 73.9973415,65.78574450000002 L 70.07034150000001,71.1857445" fill="none" stroke="rgb(89,89,89)" stroke-width="0.1"/>
  <path d="M 70.07034150000001,71.1857445 L 71.8653415,66.98574450000001" fill="none" stroke="rgb(89,89,89)" stroke-width="0.1"/>
  <path d="M 71.8653415,66.98574450000001 L 69.28534150000002,66.98574450000001" fill="none" stroke="rgb(89,89,89)" stroke-width="0.1"/>
  <path d="M 69.28534150000002,66.98574450000001 L 73.21234150000001,61.58574450000003" fill="none" stroke="rgb(89,89,89)" stroke-width="0.1"/>
  <path d="M 97.21234150000001,61.58574450000003 L 95.41734150000002,65.78574450000002" fill="none" stroke="rgb(89,89,89)" stroke-width="0.1"/>
  <path d="M 95.41734150000002,65.78574450000002 L 97.9973415,65.78574450000002" fill="none" stroke="rgb(89,89,89)" stroke-width="0.1"/>
  <path d="M 97.9973415,65.78574450000002 L 94.07034150000001,71.1857445" fill="none" stroke="rgb(89,89,89)" stroke-width="0.1"/>
  <path d="M 94.07034150000001,71.1857445 L 95.8653415,66.98574450000001" fill="none" stroke="rgb(89,89,89)" stroke-width="0.1"/>
  <path d="M 95.8653415,66.98574450000001 L 93.28534150000002,66.98574450000001" fill="none" stroke="rgb(89,89,89)" stroke-width="0.1"/>
  <path d="M 93.28534150000002,66.98574450000001 L 97.21234150000001,61.58574450000003" fill="none" stroke="rgb(89,89,89)" stroke-width="0.1"/>
  <path d="M 16.212341500000008,61.58574450000003 L 14.41734150000002,65.78574450000002" fill="none" stroke="rgb(89,89,89)" stroke-width="0.1"/>
  <path d="M 14.41734150000002,65.78574450000002 L 16.997341500000005,65.78574450000002" fill="none" stroke="rgb(89,89,89)" stroke-width="0.1"/>
  <path d="M 16.997341500000005,65.78574450000002 L 13.070341500000012,71.1857445" fill="none" stroke="rgb(89,89,89)" stroke-width="0.1"/>
  <path d="M 13.070341500000012,71.1857445 L 14.8653415,66.98574450000001" fill="none" stroke="rgb(89,89,89)" stroke-width="0.1"/>
  <path d="M 14.8653415,66.98574450000001 L 12.285341500000015,66.98574450000001" fill="none" stroke="rgb(89,89,89)" stroke-width="0.1"/>
  <path d="M 12.285341500000015,66.98574450000001 L 16.212341500000008,61.58574450000003" fill="none" stroke="rgb(89,89,89)" stroke-width="0.1"/>
  <path d="M 49.997341500000005,65.78574450000002 L 46.07034150000001,71.1857445" fill="none" stroke="rgb(89,89,89)" stroke-width="0.1"/>
  <path d="M 46.07034150000001,71.1857445 L 47.8653415,66.98574450000001" fill="none" stroke="rgb(89,89,89)" stroke-width="0.1"/>
  <path d="M 47.8653415,66.98574450000001 L 45.285341500000015,66.98574450000001" fill="none" stroke="rgb(89,89,89)" stroke-width="0.1"/>
  <path d="M 45.285341500000015,66.98574450000001 L 49.21234150000001,61.58574450000003" fill="none" stroke="rgb(89,89,89)" stroke-width="0.1"/>
  <path d="M 49.21234150000001,61.58574450000003 L 47.41734150000002,65.78574450000002" fill="none" stroke="rgb(89,89,89)" stroke-width="0.1"/>
  <path d="M 47.41734150000002,65.78574450000002 L 49.997341500000005,65.78574450000002" fill="none" stroke="rgb(89,89,89)" stroke-width="0.1"/>
  <path d="M 73.9973415,65.78574450000002 L 70.07034150000001,71.1857445" fill="none" stroke="rgb(89,89,89)" stroke-width="0.1"/>
  <path d="M 70.07034150000001,71.1857445 L 71.8653415,66.98574450000001" fill="none" stroke="rgb(89,89,89)" stroke-width="0.1"/>
  <path d="M 71.8653415,66.98574450000001 L 69.28534150000002,66.98574450000001" fill="none" stroke="rgb(89,89,89)" stroke-width="0.1"/>
  <path d="M 69.28534150000002,66.98574450000001 L 73.21234150000001,61.58574450000003" fill="none" stroke="rgb(89,89,89)" stroke-width="0.1"/>
  <path d="M 73.21234150000001,61.58574450000003 L 71.41734150000002,65.78574450000002" fill="none" stroke="rgb(89,89,89)" stroke-width="0.1"/>
  <path d="M 71.41734150000002,65.78574450000002 L 73.9973415,65.78574450000002" fill="none" stroke="rgb(89,89,89)" stroke-width="0.1"/>
  <path d="M 97.9973415,65.78574450000002 L 94.07034150000001,71.1857445" fill="none" stroke="rgb(89,89,89)" stroke-width="0.1"/>
  <path d="M 94.07034150000001,71.1857445 L 95.8653415,66.98574450000001" fill="none" stroke="rgb(89,89,89)" stroke-width="0.1"/>
  <path d="M 95.8653415,66.98574450000001 L 93.28534150000002,66.98574450000001" fill="none" stroke="rgb(89,89,89)" stroke-width="0.1"/>
  <path d="M 93.28534150000002,66.98574450000001 L 97.21234150000001,61.58574450000003" fill="none" stroke="rgb(89,89,89)" stroke-width="0.1"/>
  <path d="M 97.21234150000001,61.58574450000003 L 95.41734150000002,65.78574450000002" fill="none" stroke="rgb(89,89,89)" stroke-width="0.1"/>
  <path d="M 95.41734150000002,65.78574450000002 L 97.9973415,65.78574450000002" fill="none" stroke="rgb(89,89,89)" stroke-width="0.1"/>
  <path d="M 16.997341500000005,65.78574450000002 L 13.070341500000012,71.1857445" fill="none" stroke="rgb(89,89,89)" stroke-width="0.1"/>
  <path d="M 13.070341500000012,71.1857445 L 14.8653415,66.98574450000001" fill="none" stroke="rgb(89,89,89)" stroke-width="0.1"/>
  <path d="M 14.8653415,66.98574450000001 L 12.285341500000015,66.98574450000001" fill="none" stroke="rgb(89,89,89)" stroke-width="0.1"/>
  <path d="M 12.285341500000015,66.98574450000001 L 16.212341500000008,61.58574450000003" fill="none" stroke="rgb(89,89,89)" stroke-width="0.1"/>
  <path d="M 16.212341500000008,61.58574450000003 L 14.41734150000002,65.78574450000002" fill="none" stroke="rgb(89,89,89)" stroke-width="0.1"/>
  <path d="M 14.41734150000002,65.78574450000002 L 16.997341500000005,65.78574450000002" fill="none" stroke="rgb(89,89,89)" stroke-width="0.1"/>
  <circle cx="48.0203415" cy="66.38574449999999" fill="none" r="7.5" stroke="rgb(89,89,89)" stroke-width="0.1"/>
  <circle cx="48.0203415" cy="66.38574449999999" fill="none" r="6" stroke="rgb(89,89,89)" stroke-width="0.1"/>
  <circle cx="72.0203415" cy="66.38574449999999" fill="none" r="7.5" stroke="rgb(89,89,89)" stroke-width="0.1"/>
  <circle cx="72.0203415" cy="66.38574449999999" fill="none" r="6" stroke="rgb(89,89,89)" stroke-width="0.1"/>
  <circle cx="15.0203415" cy="66.38574449999999" fill="none" r="7.5" stroke="rgb(89,89,89)" stroke-width="0.1"/>
  <circle cx="15.0203415" cy="66.38574449999999" fill="none" r="6" stroke="rgb(89,89,89)" stroke-width="0.1"/>
 </g>
 <g id="layer防火墙" inkscape:groupmode="layer" inkscape:label="防火墙">
  <path d="M 1.2373415000000136,29.82474450000001 L 3.2373415000000136,28.201744500000018" fill="none" stroke="rgb(178,0,0)" stroke-width="0.1"/>
  <path d="M 3.2373415000000136,28.201744500000018 L 1.2373415000000136,26.578744500000028" fill="none" stroke="rgb(178,0,0)" stroke-width="0.1"/>
  <path d="M 1.2373415000000136,26.578744500000028 L 3.2373415000000136,24.956744500000013" fill="none" stroke="rgb(178,0,0)" stroke-width="0.1"/>
  <path d="M 3.2373415000000136,24.956744500000013 L 1.2373415000000136,23.333744500000023" fill="none" stroke="rgb(178,0,0)" stroke-width="0.1"/>
  <path d="M 1.2373415000000136,23.333744500000023 L 3.2373415000000136,21.710744500000033" fill="none" stroke="rgb(178,0,0)" stroke-width="0.1"/>
  <path d="M 3.2373415000000136,21.710744500000033 L 1.2373415000000136,20.08874450000002" fill="none" stroke="rgb(178,0,0)" stroke-width="0.1"/>
  <path d="M 1.2373415000000136,20.08874450000002 L 3.2373415000000136,18.465744500000028" fill="none" stroke="rgb(178,0,0)" stroke-width="0.1"/>
  <path d="M 3.2373415000000136,18.465744500000028 L 1.2373415000000136,16.84274449999998" fill="none" stroke="rgb(178,0,0)" stroke-width="0.1"/>
  <path d="M 1.2373415000000136,16.84274449999998 L 3.2373415000000136,15.220744500000023" fill="none" stroke="rgb(178,0,0)" stroke-width="0.1"/>
  <path d="M 3.2373415000000136,15.220744500000023 L 1.2373415000000136,13.597744500000033" fill="none" stroke="rgb(178,0,0)" stroke-width="0.1"/>
  <path d="M 1.2373415000000136,13.597744500000033 L 3.2373415000000136,11.974744499999986" fill="none" stroke="rgb(178,0,0)" stroke-width="0.1"/>
  <path d="M 3.2373415000000136,11.974744499999986 L 1.2373415000000136,10.352744500000028" fill="none" stroke="rgb(178,0,0)" stroke-width="0.1"/>
  <path d="M 1.2373415000000136,10.352744500000028 L 3.2373415000000136,8.729744499999981" fill="none" stroke="rgb(178,0,0)" stroke-width="0.1"/>
  <path d="M 3.2373415000000136,8.729744499999981 L 1.2373415000000136,7.106744499999991" fill="none" stroke="rgb(178,0,0)" stroke-width="0.1"/>
  <path d="M 1.2373415000000136,7.106744499999991 L 3.2373415000000136,5.484744500000033" fill="none" stroke="rgb(178,0,0)" stroke-width="0.1"/>
  <path d="M 3.2373415000000136,5.484744500000033 L 1.2373415000000136,3.861744499999986" fill="none" stroke="rgb(178,0,0)" stroke-width="0.1"/>
  <path d="M 1.2373415000000136,3.861744499999986 L 3.2373415000000136,2.239744500000029" fill="none" stroke="rgb(178,0,0)" stroke-width="0.1"/>
  <path d="M 3.2373415000000136,2.239744500000029 L 1.2373415000000136,0.6167444999999816" fill="none" stroke="rgb(178,0,0)" stroke-width="0.1"/>
  <path d="M 1.2373415000000136,0.6167444999999816 L 1.9973470452864888,0.0" fill="none" stroke="rgb(178,0,0)" stroke-width="0.1"/>
  <path d="M 2.4773359547135385,0.0 L 3.2373415000000136,0.6167444999999816" fill="none" stroke="rgb(178,0,0)" stroke-width="0.1"/>
  <path d="M 3.2373415000000136,0.6167444999999816 L 1.2373415000000136,2.239744500000029" fill="none" stroke="rgb(178,0,0)" stroke-width="0.1"/>
  <path d="M 1.2373415000000136,2.239744500000029 L 3.2373415000000136,3.861744499999986" fill="none" stroke="rgb(178,0,0)" stroke-width="0.1"/>
  <path d="M 3.2373415000000136,3.861744499999986 L 1.2373415000000136,5.484744500000033" fill="none" stroke="rgb(178,0,0)" stroke-width="0.1"/>
  <path d="M 1.2373415000000136,5.484744500000033 L 3.2373415000000136,7.106744499999991" fill="none" stroke="rgb(178,0,0)" stroke-width="0.1"/>
  <path d="M 3.2373415000000136,7.106744499999991 L 1.2373415000000136,8.729744499999981" fill="none" stroke="rgb(178,0,0)" stroke-width="0.1"/>
  <path d="M 1.2373415000000136,8.729744499999981 L 3.2373415000000136,10.352744500000028" fill="none" stroke="rgb(178,0,0)" stroke-width="0.1"/>
  <path d="M 3.2373415000000136,10.352744500000028 L 1.2373415000000136,11.974744499999986" fill="none" stroke="rgb(178,0,0)" stroke-width="0.1"/>
  <path d="M 1.2373415000000136,11.974744499999986 L 3.2373415000000136,13.597744500000033" fill="none" stroke="rgb(178,0,0)" stroke-width="0.1"/>
  <path d="M 3.2373415000000136,13.597744500000033 L 1.2373415000000136,15.220744500000023" fill="none" stroke="rgb(178,0,0)" stroke-width="0.1"/>
  <path d="M 1.2373415000000136,15.220744500000023 L 3.2373415000000136,16.84274449999998" fill="none" stroke="rgb(178,0,0)" stroke-width="0.1"/>
  <path d="M 3.2373415000000136,16.84274449999998 L 1.2373415000000136,18.465744500000028" fill="none" stroke="rgb(178,0,0)" stroke-width="0.1"/>
  <path d="M 1.2373415000000136,18.465744500000028 L 3.2373415000000136,20.08874450000002" fill="none" stroke="rgb(178,0,0)" stroke-width="0.1"/>
  <path d="M 3.2373415000000136,20.08874450000002 L 1.2373415000000136,21.710744500000033" fill="none" stroke="rgb(178,0,0)" stroke-width="0.1"/>
  <path d="M 1.2373415000000136,21.710744500000033 L 3.2373415000000136,23.333744500000023" fill="none" stroke="rgb(178,0,0)" stroke-width="0.1"/>
  <path d="M 3.2373415000000136,23.333744500000023 L 1.2373415000000136,24.956744500000013" fill="none" stroke="rgb(178,0,0)" stroke-width="0.1"/>
  <path d="M 1.2373415000000136,24.956744500000013 L 3.2373415000000136,26.578744500000028" fill="none" stroke="rgb(178,0,0)" stroke-width="0.1"/>
  <path d="M 3.2373415000000136,26.578744500000028 L 1.2373415000000136,28.201744500000018" fill="none" stroke="rgb(178,0,0)" stroke-width="0.1"/>
  <path d="M 1.2373415000000136,28.201744500000018 L 3.2373415000000136,29.82474450000001" fill="none" stroke="rgb(178,0,0)" stroke-width="0.1"/>
  <path d="M 3.2373415000000136,29.82474450000001 L 4.861341500000009,31.82474450000001" fill="none" stroke="rgb(178,0,0)" stroke-width="0.1"/>
  <path d="M 4.861341500000009,31.82474450000001 L 6.485341500000004,29.82474450000001" fill="none" stroke="rgb(178,0,0)" stroke-width="0.1"/>
  <path d="M 6.485341500000004,29.82474450000001 L 8.1093415,31.82474450000001" fill="none" stroke="rgb(178,0,0)" stroke-width="0.1"/>
  <path d="M 8.1093415,31.82474450000001 L 9.733341499999995,29.82474450000001" fill="none" stroke="rgb(178,0,0)" stroke-width="0.1"/>
  <path d="M 9.733341499999995,29.82474450000001 L 11.356341500000013,31.82474450000001" fill="none" stroke="rgb(178,0,0)" stroke-width="0.1"/>
  <path d="M 11.356341500000013,31.82474450000001 L 12.980341500000009,29.82474450000001" fill="none" stroke="rgb(178,0,0)" stroke-width="0.1"/>
  <path d="M 12.980341500000009,29.82474450000001 L 14.604341500000004,31.82474450000001" fill="none" stroke="rgb(178,0,0)" stroke-width="0.1"/>
  <path d="M 14.604341500000004,31.82474450000001 L 16.2283415,29.82474450000001" fill="none" stroke="rgb(178,0,0)" stroke-width="0.1"/>
  <path d="M 16.2283415,29.82474450000001 L 17.852341499999994,31.82474450000001" fill="none" stroke="rgb(178,0,0)" stroke-width="0.1"/>
  <path d="M 17.852341499999994,31.82474450000001 L 19.476341500000018,29.82474450000001" fill="none" stroke="rgb(178,0,0)" stroke-width="0.1"/>
  <path d="M 19.476341500000018,29.82474450000001 L 21.100341500000013,31.82474450000001" fill="none" stroke="rgb(178,0,0)" stroke-width="0.1"/>
  <path d="M 21.100341500000013,31.82474450000001 L 22.72434150000001,29.82474450000001" fill="none" stroke="rgb(178,0,0)" stroke-width="0.1"/>
  <path d="M 22.72434150000001,29.82474450000001 L 24.348341500000004,31.82474450000001" fill="none" stroke="rgb(178,0,0)" stroke-width="0.1"/>
  <path d="M 24.348341500000004,31.82474450000001 L 25.9723415,29.82474450000001" fill="none" stroke="rgb(178,0,0)" stroke-width="0.1"/>
  <path d="M 25.9723415,29.82474450000001 L 27.596341499999994,31.82474450000001" fill="none" stroke="rgb(178,0,0)" stroke-width="0.1"/>
  <path d="M 27.596341499999994,31.82474450000001 L 29.220341500000018,29.82474450000001" fill="none" stroke="rgb(178,0,0)" stroke-width="0.1"/>
  <path d="M 29.220341500000018,29.82474450000001 L 30.844341500000013,31.82474450000001" fill="none" stroke="rgb(178,0,0)" stroke-width="0.1"/>
  <path d="M 30.844341500000013,31.82474450000001 L 32.46834150000001,29.82474450000001" fill="none" stroke="rgb(178,0,0)" stroke-width="0.1"/>
  <path d="M 32.46834150000001,29.82474450000001 L 34.0923415,31.82474450000001" fill="none" stroke="rgb(178,0,0)" stroke-width="0.1"/>
  <path d="M 34.0923415,31.82474450000001 L 35.7163415,29.82474450000001" fill="none" stroke="rgb(178,0,0)" stroke-width="0.1"/>
  <path d="M 35.7163415,29.82474450000001 L 37.340341499999994,31.82474450000001" fill="none" stroke="rgb(178,0,0)" stroke-width="0.1"/>
  <path d="M 37.340341499999994,31.82474450000001 L 38.96334150000001,29.82474450000001" fill="none" stroke="rgb(178,0,0)" stroke-width="0.1"/>
  <path d="M 38.96334150000001,29.82474450000001 L 40.58734150000001,31.82474450000001" fill="none" stroke="rgb(178,0,0)" stroke-width="0.1"/>
  <path d="M 40.58734150000001,31.82474450000001 L 42.2113415,29.82474450000001" fill="none" stroke="rgb(178,0,0)" stroke-width="0.1"/>
  <path d="M 42.2113415,29.82474450000001 L 43.8353415,31.82474450000001" fill="none" stroke="rgb(178,0,0)" stroke-width="0.1"/>
  <path d="M 43.8353415,31.82474450000001 L 45.459341499999994,29.82474450000001" fill="none" stroke="rgb(178,0,0)" stroke-width="0.1"/>
  <path d="M 45.459341499999994,29.82474450000001 L 47.08334150000002,31.82474450000001" fill="none" stroke="rgb(178,0,0)" stroke-width="0.1"/>
  <path d="M 47.08334150000002,31.82474450000001 L 48.70734150000001,29.82474450000001" fill="none" stroke="rgb(178,0,0)" stroke-width="0.1"/>
  <path d="M 48.70734150000001,29.82474450000001 L 50.33134150000001,31.82474450000001" fill="none" stroke="rgb(178,0,0)" stroke-width="0.1"/>
  <path d="M 50.33134150000001,31.82474450000001 L 51.9553415,29.82474450000001" fill="none" stroke="rgb(178,0,0)" stroke-width="0.1"/>
  <path d="M 51.9553415,29.82474450000001 L 53.5793415,31.82474450000001" fill="none" stroke="rgb(178,0,0)" stroke-width="0.1"/>
  <path d="M 53.5793415,31.82474450000001 L 55.20334149999999,29.82474450000001" fill="none" stroke="rgb(178,0,0)" stroke-width="0.1"/>
  <path d="M 55.20334149999999,29.82474450000001 L 56.82734150000002,31.82474450000001" fill="none" stroke="rgb(178,0,0)" stroke-width="0.1"/>
  <path d="M 56.82734150000002,31.82474450000001 L 58.45134150000001,29.82474450000001" fill="none" stroke="rgb(178,0,0)" stroke-width="0.1"/>
  <path d="M 58.45134150000001,29.82474450000001 L 60.07534150000001,31.82474450000001" fill="none" stroke="rgb(178,0,0)" stroke-width="0.1"/>
  <path d="M 60.07534150000001,31.82474450000001 L 61.6993415,29.82474450000001" fill="none" stroke="rgb(178,0,0)" stroke-width="0.1"/>
  <path d="M 61.6993415,29.82474450000001 L 63.3233415,31.82474450000001" fill="none" stroke="rgb(178,0,0)" stroke-width="0.1"/>
  <path d="M 63.3233415,31.82474450000001 L 64.94634150000002,29.82474450000001" fill="none" stroke="rgb(178,0,0)" stroke-width="0.1"/>
  <path d="M 64.94634150000002,29.82474450000001 L 66.57034150000001,31.82474450000001" fill="none" stroke="rgb(178,0,0)" stroke-width="0.1"/>
  <path d="M 66.57034150000001,31.82474450000001 L 68.19434150000001,29.82474450000001" fill="none" stroke="rgb(178,0,0)" stroke-width="0.1"/>
  <path d="M 68.19434150000001,29.82474450000001 L 69.8183415,31.82474450000001" fill="none" stroke="rgb(178,0,0)" stroke-width="0.1"/>
  <path d="M 69.8183415,31.82474450000001 L 71.4423415,29.82474450000001" fill="none" stroke="rgb(178,0,0)" stroke-width="0.1"/>
  <path d="M 71.4423415,29.82474450000001 L 73.06634150000002,31.82474450000001" fill="none" stroke="rgb(178,0,0)" stroke-width="0.1"/>
  <path d="M 73.06634150000002,31.82474450000001 L 74.69034150000002,29.82474450000001" fill="none" stroke="rgb(178,0,0)" stroke-width="0.1"/>
  <path d="M 74.69034150000002,29.82474450000001 L 76.31434150000001,31.82474450000001" fill="none" stroke="rgb(178,0,0)" stroke-width="0.1"/>
  <path d="M 76.31434150000001,31.82474450000001 L 77.9383415,29.82474450000001" fill="none" stroke="rgb(178,0,0)" stroke-width="0.1"/>
  <path d="M 77.9383415,29.82474450000001 L 79.5623415,31.82474450000001" fill="none" stroke="rgb(178,0,0)" stroke-width="0.1"/>
  <path d="M 79.5623415,31.82474450000001 L 81.1863415,29.82474450000001" fill="none" stroke="rgb(178,0,0)" stroke-width="0.1"/>
  <path d="M 81.1863415,29.82474450000001 L 82.81034150000002,31.82474450000001" fill="none" stroke="rgb(178,0,0)" stroke-width="0.1"/>
  <path d="M 82.81034150000002,31.82474450000001 L 84.43434150000002,29.82474450000001" fill="none" stroke="rgb(178,0,0)" stroke-width="0.1"/>
  <path d="M 84.43434150000002,29.82474450000001 L 86.05834150000001,31.82474450000001" fill="none" stroke="rgb(178,0,0)" stroke-width="0.1"/>
  <path d="M 86.05834150000001,31.82474450000001 L 87.6823415,29.82474450000001" fill="none" stroke="rgb(178,0,0)" stroke-width="0.1"/>
  <path d="M 87.6823415,29.82474450000001 L 89.3063415,31.82474450000001" fill="none" stroke="rgb(178,0,0)" stroke-width="0.1"/>
  <path d="M 89.3063415,31.82474450000001 L 90.9303415,29.82474450000001" fill="none" stroke="rgb(178,0,0)" stroke-width="0.1"/>
  <path d="M 90.9303415,29.82474450000001 L 92.55334150000002,31.82474450000001" fill="none" stroke="rgb(178,0,0)" stroke-width="0.1"/>
  <path d="M 92.55334150000002,31.82474450000001 L 94.17734150000001,29.82474450000001" fill="none" stroke="rgb(178,0,0)" stroke-width="0.1"/>
  <path d="M 94.17734150000001,29.82474450000001 L 95.8013415,31.82474450000001" fill="none" stroke="rgb(178,0,0)" stroke-width="0.1"/>
  <path d="M 95.8013415,31.82474450000001 L 97.4253415,29.82474450000001" fill="none" stroke="rgb(178,0,0)" stroke-width="0.1"/>
  <path d="M 97.4253415,29.82474450000001 L 99.0493415,31.82474450000001" fill="none" stroke="rgb(178,0,0)" stroke-width="0.1"/>
  <path d="M 99.0493415,31.82474450000001 L 100.0,30.653982800492656" fill="none" stroke="rgb(178,0,0)" stroke-width="0.1"/>
  <path d="M 3.2373415000000136,31.82474450000001 L 4.861341500000009,29.82474450000001" fill="none" stroke="rgb(178,0,0)" stroke-width="0.1"/>
  <path d="M 4.861341500000009,29.82474450000001 L 6.485341500000004,31.82474450000001" fill="none" stroke="rgb(178,0,0)" stroke-width="0.1"/>
  <path d="M 6.485341500000004,31.82474450000001 L 8.1093415,29.82474450000001" fill="none" stroke="rgb(178,0,0)" stroke-width="0.1"/>
  <path d="M 8.1093415,29.82474450000001 L 9.733341499999995,31.82474450000001" fill="none" stroke="rgb(178,0,0)" stroke-width="0.1"/>
  <path d="M 9.733341499999995,31.82474450000001 L 11.356341500000013,29.82474450000001" fill="none" stroke="rgb(178,0,0)" stroke-width="0.1"/>
  <path d="M 11.356341500000013,29.82474450000001 L 12.980341500000009,31.82474450000001" fill="none" stroke="rgb(178,0,0)" stroke-width="0.1"/>
  <path d="M 12.980341500000009,31.82474450000001 L 14.604341500000004,29.82474450000001" fill="none" stroke="rgb(178,0,0)" stroke-width="0.1"/>
  <path d="M 14.604341500000004,29.82474450000001 L 16.2283415,31.82474450000001" fill="none" stroke="rgb(178,0,0)" stroke-width="0.1"/>
  <path d="M 16.2283415,31.82474450000001 L 17.852341499999994,29.82474450000001" fill="none" stroke="rgb(178,0,0)" stroke-width="0.1"/>
  <path d="M 17.852341499999994,29.82474450000001 L 19.476341500000018,31.82474450000001" fill="none" stroke="rgb(178,0,0)" stroke-width="0.1"/>
  <path d="M 19.476341500000018,31.82474450000001 L 21.100341500000013,29.82474450000001" fill="none" stroke="rgb(178,0,0)" stroke-width="0.1"/>
  <path d="M 21.100341500000013,29.82474450000001 L 22.72434150000001,31.82474450000001" fill="none" stroke="rgb(178,0,0)" stroke-width="0.1"/>
  <path d="M 22.72434150000001,31.82474450000001 L 24.348341500000004,29.82474450000001" fill="none" stroke="rgb(178,0,0)" stroke-width="0.1"/>
  <path d="M 24.348341500000004,29.82474450000001 L 25.9723415,31.82474450000001" fill="none" stroke="rgb(178,0,0)" stroke-width="0.1"/>
  <path d="M 25.9723415,31.82474450000001 L 27.596341499999994,29.82474450000001" fill="none" stroke="rgb(178,0,0)" stroke-width="0.1"/>
  <path d="M 27.596341499999994,29.82474450000001 L 29.220341500000018,31.82474450000001" fill="none" stroke="rgb(178,0,0)" stroke-width="0.1"/>
  <path d="M 29.220341500000018,31.82474450000001 L 30.844341500000013,29.82474450000001" fill="none" stroke="rgb(178,0,0)" stroke-width="0.1"/>
  <path d="M 30.844341500000013,29.82474450000001 L 32.46834150000001,31.82474450000001" fill="none" stroke="rgb(178,0,0)" stroke-width="0.1"/>
  <path d="M 32.46834150000001,31.82474450000001 L 34.0923415,29.82474450000001" fill="none" stroke="rgb(178,0,0)" stroke-width="0.1"/>
  <path d="M 34.0923415,29.82474450000001 L 35.7163415,31.82474450000001" fill="none" stroke="rgb(178,0,0)" stroke-width="0.1"/>
  <path d="M 35.7163415,31.82474450000001 L 37.340341499999994,29.82474450000001" fill="none" stroke="rgb(178,0,0)" stroke-width="0.1"/>
  <path d="M 37.340341499999994,29.82474450000001 L 38.96334150000001,31.82474450000001" fill="none" stroke="rgb(178,0,0)" stroke-width="0.1"/>
  <path d="M 38.96334150000001,31.82474450000001 L 40.58734150000001,29.82474450000001" fill="none" stroke="rgb(178,0,0)" stroke-width="0.1"/>
  <path d="M 40.58734150000001,29.82474450000001 L 42.2113415,31.82474450000001" fill="none" stroke="rgb(178,0,0)" stroke-width="0.1"/>
  <path d="M 42.2113415,31.82474450000001 L 43.8353415,29.82474450000001" fill="none" stroke="rgb(178,0,0)" stroke-width="0.1"/>
  <path d="M 43.8353415,29.82474450000001 L 45.459341499999994,31.82474450000001" fill="none" stroke="rgb(178,0,0)" stroke-width="0.1"/>
  <path d="M 45.459341499999994,31.82474450000001 L 47.08334150000002,29.82474450000001" fill="none" stroke="rgb(178,0,0)" stroke-width="0.1"/>
  <path d="M 47.08334150000002,29.82474450000001 L 48.70734150000001,31.82474450000001" fill="none" stroke="rgb(178,0,0)" stroke-width="0.1"/>
  <path d="M 48.70734150000001,31.82474450000001 L 50.33134150000001,29.82474450000001" fill="none" stroke="rgb(178,0,0)" stroke-width="0.1"/>
  <path d="M 50.33134150000001,29.82474450000001 L 51.9553415,31.82474450000001" fill="none" stroke="rgb(178,0,0)" stroke-width="0.1"/>
  <path d="M 51.9553415,31.82474450000001 L 53.5793415,29.82474450000001" fill="none" stroke="rgb(178,0,0)" stroke-width="0.1"/>
  <path d="M 53.5793415,29.82474450000001 L 55.20334149999999,31.82474450000001" fill="none" stroke="rgb(178,0,0)" stroke-width="0.1"/>
  <path d="M 55.20334149999999,31.82474450000001 L 56.82734150000002,29.82474450000001" fill="none" stroke="rgb(178,0,0)" stroke-width="0.1"/>
  <path d="M 56.82734150000002,29.82474450000001 L 58.45134150000001,31.82474450000001" fill="none" stroke="rgb(178,0,0)" stroke-width="0.1"/>
  <path d="M 58.45134150000001,31.82474450000001 L 60.07534150000001,29.82474450000001" fill="none" stroke="rgb(178,0,0)" stroke-width="0.1"/>
  <path d="M 60.07534150000001,29.82474450000001 L 61.6993415,31.82474450000001" fill="none" stroke="rgb(178,0,0)" stroke-width="0.1"/>
  <path d="M 61.6993415,31.82474450000001 L 63.3233415,29.82474450000001" fill="none" stroke="rgb(178,0,0)" stroke-width="0.1"/>
  <path d="M 63.3233415,29.82474450000001 L 64.94634150000002,31.82474450000001" fill="none" stroke="rgb(178,0,0)" stroke-width="0.1"/>
  <path d="M 64.94634150000002,31.82474450000001 L 66.57034150000001,29.82474450000001" fill="none" stroke="rgb(178,0,0)" stroke-width="0.1"/>
  <path d="M 66.57034150000001,29.82474450000001 L 68.19434150000001,31.82474450000001" fill="none" stroke="rgb(178,0,0)" stroke-width="0.1"/>
  <path d="M 68.19434150000001,31.82474450000001 L 69.8183415,29.82474450000001" fill="none" stroke="rgb(178,0,0)" stroke-width="0.1"/>
  <path d="M 69.8183415,29.82474450000001 L 71.4423415,31.82474450000001" fill="none" stroke="rgb(178,0,0)" stroke-width="0.1"/>
  <path d="M 71.4423415,31.82474450000001 L 73.06634150000002,29.82474450000001" fill="none" stroke="rgb(178,0,0)" stroke-width="0.1"/>
  <path d="M 73.06634150000002,29.82474450000001 L 74.69034150000002,31.82474450000001" fill="none" stroke="rgb(178,0,0)" stroke-width="0.1"/>
  <path d="M 74.69034150000002,31.82474450000001 L 76.31434150000001,29.82474450000001" fill="none" stroke="rgb(178,0,0)" stroke-width="0.1"/>
  <path d="M 76.31434150000001,29.82474450000001 L 77.9383415,31.82474450000001" fill="none" stroke="rgb(178,0,0)" stroke-width="0.1"/>
  <path d="M 77.9383415,31.82474450000001 L 79.5623415,29.82474450000001" fill="none" stroke="rgb(178,0,0)" stroke-width="0.1"/>
  <path d="M 79.5623415,29.82474450000001 L 81.1863415,31.82474450000001" fill="none" stroke="rgb(178,0,0)" stroke-width="0.1"/>
  <path d="M 81.1863415,31.82474450000001 L 82.81034150000002,29.82474450000001" fill="none" stroke="rgb(178,0,0)" stroke-width="0.1"/>
  <path d="M 82.81034150000002,29.82474450000001 L 84.43434150000002,31.82474450000001" fill="none" stroke="rgb(178,0,0)" stroke-width="0.1"/>
  <path d="M 84.43434150000002,31.82474450000001 L 86.05834150000001,29.82474450000001" fill="none" stroke="rgb(178,0,0)" stroke-width="0.1"/>
  <path d="M 86.05834150000001,29.82474450000001 L 87.6823415,31.82474450000001" fill="none" stroke="rgb(178,0,0)" stroke-width="0.1"/>
  <path d="M 87.6823415,31.82474450000001 L 89.3063415,29.82474450000001" fill="none" stroke="rgb(178,0,0)" stroke-width="0.1"/>
  <path d="M 89.3063415,29.82474450000001 L 90.9303415,31.82474450000001" fill="none" stroke="rgb(178,0,0)" stroke-width="0.1"/>
  <path d="M 90.9303415,31.82474450000001 L 92.55334150000002,29.82474450000001" fill="none" stroke="rgb(178,0,0)" stroke-width="0.1"/>
  <path d="M 92.55334150000002,29.82474450000001 L 94.17734150000001,31.82474450000001" fill="none" stroke="rgb(178,0,0)" stroke-width="0.1"/>
  <path d="M 94.17734150000001,31.82474450000001 L 95.8013415,29.82474450000001" fill="none" stroke="rgb(178,0,0)" stroke-width="0.1"/>
  <path d="M 95.8013415,29.82474450000001 L 97.4253415,31.82474450000001" fill="none" stroke="rgb(178,0,0)" stroke-width="0.1"/>
  <path d="M 97.4253415,31.82474450000001 L 99.0493415,29.82474450000001" fill="none" stroke="rgb(178,0,0)" stroke-width="0.1"/>
  <path d="M 99.0493415,29.82474450000001 L 100.0,30.99550619950736" fill="none" stroke="rgb(178,0,0)" stroke-width="0.1"/>
 </g>
</svg>