<?xml version="1.0" encoding="utf-8"?>
<svg style="background-color: #000;" version="1.1" viewBox="0 0 100.0 100.0" xmlns="http://www.w3.org/2000/svg" xmlns:inkscape="http://www.inkscape.org/namespaces/inkscape">
 <g id="layerCAR" inkscape:groupmode="layer" inkscape:label="CAR">
  <path d="M 47.59146199999998,47.326794500000005 L 45.991461999999956,47.326794500000005" fill="none" instance-id="-1" semantic-id="35" stroke="rgb(26,39,53)" stroke-width="0.1"/>
  <path d="M 45.991461999999956,66.3267945 L 47.59146199999998,66.3267945" fill="none" instance-id="-1" semantic-id="35" stroke="rgb(26,39,53)" stroke-width="0.1"/>
  <path d="M 45.991461999999956,66.3267945 L 45.991461999999956,47.326794500000005" fill="none" instance-id="-1" semantic-id="35" stroke="rgb(26,39,53)" stroke-width="0.1"/>
  <path d="M 47.59146199999998,66.3267945 L 47.59146199999998,47.326794500000005" fill="none" instance-id="-1" semantic-id="35" stroke="rgb(26,39,53)" stroke-width="0.1"/>
  <path d="M 59.791462000000024,68.8267945 L 59.791462000000024,44.826794500000005" fill="none" instance-id="-1" semantic-id="35" stroke="rgb(26,39,53)" stroke-width="0.1"/>
  <path d="M 6.791461999999967,68.8267945 L 59.791462000000024,68.8267945" fill="none" instance-id="-1" semantic-id="35" stroke="rgb(26,39,53)" stroke-width="0.1"/>
  <path d="M 6.791461999999967,44.826794500000005 L 6.791461999999967,68.8267945" fill="none" instance-id="-1" semantic-id="35" stroke="rgb(26,39,53)" stroke-width="0.1"/>
  <path d="M 59.791462000000024,44.826794500000005 L 6.791461999999967,44.826794500000005" fill="none" instance-id="-1" semantic-id="35" stroke="rgb(26,39,53)" stroke-width="0.1"/>
  <path d="M 46.791462000000024,66.3267945 L 46.791462000000024,47.326794500000005" fill="none" instance-id="-1" semantic-id="35" stroke="rgb(26,39,53)" stroke-width="0.1"/>
  <path d="M 47.59146199999998,71.3267945 L 45.991461999999956,71.3267945" fill="none" instance-id="-1" semantic-id="35" stroke="rgb(26,39,53)" stroke-width="0.1"/>
  <path d="M 45.991461999999956,90.3267945 L 47.59146199999998,90.3267945" fill="none" instance-id="-1" semantic-id="35" stroke="rgb(26,39,53)" stroke-width="0.1"/>
  <path d="M 45.991461999999956,90.3267945 L 45.991461999999956,71.3267945" fill="none" instance-id="-1" semantic-id="35" stroke="rgb(26,39,53)" stroke-width="0.1"/>
  <path d="M 47.59146199999998,90.3267945 L 47.59146199999998,71.3267945" fill="none" instance-id="-1" semantic-id="35" stroke="rgb(26,39,53)" stroke-width="0.1"/>
  <path d="M 59.791462000000024,92.8267945 L 59.791462000000024,68.8267945" fill="none" instance-id="-1" semantic-id="35" stroke="rgb(26,39,53)" stroke-width="0.1"/>
  <path d="M 6.791461999999967,92.8267945 L 59.791462000000024,92.8267945" fill="none" instance-id="-1" semantic-id="35" stroke="rgb(26,39,53)" stroke-width="0.1"/>
  <path d="M 6.791461999999967,68.8267945 L 6.791461999999967,92.8267945" fill="none" instance-id="-1" semantic-id="35" stroke="rgb(26,39,53)" stroke-width="0.1"/>
  <path d="M 59.791462000000024,68.8267945 L 6.791461999999967,68.8267945" fill="none" instance-id="-1" semantic-id="35" stroke="rgb(26,39,53)" stroke-width="0.1"/>
  <path d="M 46.791462000000024,90.3267945 L 46.791462000000024,71.3267945" fill="none" instance-id="-1" semantic-id="35" stroke="rgb(26,39,53)" stroke-width="0.1"/>
  <path d="M 45.991461999999956,95.3267945 L 47.59146199999998,95.3267945" fill="none" instance-id="-1" semantic-id="35" stroke="rgb(26,39,53)" stroke-width="0.1"/>
  <path d="M 45.991461999999956,95.3267945 L 45.991461999999956,100.0" fill="none" instance-id="-1" semantic-id="35" stroke="rgb(26,39,53)" stroke-width="0.1"/>
  <path d="M 47.59146199999998,95.3267945 L 47.59146199999998,100.0" fill="none" instance-id="-1" semantic-id="35" stroke="rgb(26,39,53)" stroke-width="0.1"/>
  <path d="M 59.791462000000024,92.8267945 L 59.791462000000024,100.0" fill="none" instance-id="-1" semantic-id="35" stroke="rgb(26,39,53)" stroke-width="0.1"/>
  <path d="M 6.791461999999967,92.8267945 L 59.791462000000024,92.8267945" fill="none" instance-id="-1" semantic-id="35" stroke="rgb(26,39,53)" stroke-width="0.1"/>
  <path d="M 6.791461999999967,100.0 L 6.791461999999967,92.8267945" fill="none" instance-id="-1" semantic-id="35" stroke="rgb(26,39,53)" stroke-width="0.1"/>
  <path d="M 46.791462000000024,95.3267945 L 46.791462000000024,100.0" fill="none" instance-id="-1" semantic-id="35" stroke="rgb(26,39,53)" stroke-width="0.1"/>
  <path d="M 98.29646200000002,77.52379450000001 L 98.29646200000002,79.12379449999997" fill="none" instance-id="-1" semantic-id="35" stroke="rgb(26,39,53)" stroke-width="0.1"/>
  <path d="M 98.29646200000002,77.52379450000001 L 100.0,77.52379450000001" fill="none" instance-id="-1" semantic-id="35" stroke="rgb(26,39,53)" stroke-width="0.1"/>
  <path d="M 98.29646200000002,79.12379449999997 L 100.0,79.12379449999997" fill="none" instance-id="-1" semantic-id="35" stroke="rgb(26,39,53)" stroke-width="0.1"/>
  <path d="M 95.79646200000002,91.32379450000002 L 100.0,91.32379450000002" fill="none" instance-id="-1" semantic-id="35" stroke="rgb(26,39,53)" stroke-width="0.1"/>
  <path d="M 95.79646200000002,38.32379450000002 L 95.79646200000002,91.32379450000002" fill="none" instance-id="-1" semantic-id="35" stroke="rgb(26,39,53)" stroke-width="0.1"/>
  <path d="M 100.0,38.32379450000002 L 95.79646200000002,38.32379450000002" fill="none" instance-id="-1" semantic-id="35" stroke="rgb(26,39,53)" stroke-width="0.1"/>
  <path d="M 98.29646200000002,78.32379450000002 L 100.0,78.32379450000002" fill="none" instance-id="-1" semantic-id="35" stroke="rgb(26,39,53)" stroke-width="0.1"/>
  <path d="M 93.29646200000002,79.12379449999997 L 93.29646200000002,77.52379450000001" fill="none" instance-id="-1" semantic-id="35" stroke="rgb(26,39,53)" stroke-width="0.1"/>
  <path d="M 74.29646200000002,77.52379450000001 L 74.29646200000002,79.12379449999997" fill="none" instance-id="-1" semantic-id="35" stroke="rgb(26,39,53)" stroke-width="0.1"/>
  <path d="M 74.29646200000002,77.52379450000001 L 93.29646200000002,77.52379450000001" fill="none" instance-id="-1" semantic-id="35" stroke="rgb(26,39,53)" stroke-width="0.1"/>
  <path d="M 74.29646200000002,79.12379449999997 L 93.29646200000002,79.12379449999997" fill="none" instance-id="-1" semantic-id="35" stroke="rgb(26,39,53)" stroke-width="0.1"/>
  <path d="M 71.79646200000002,91.32379450000002 L 95.79646200000002,91.32379450000002" fill="none" instance-id="-1" semantic-id="35" stroke="rgb(26,39,53)" stroke-width="0.1"/>
  <path d="M 71.79646200000002,38.32379450000002 L 71.79646200000002,91.32379450000002" fill="none" instance-id="-1" semantic-id="35" stroke="rgb(26,39,53)" stroke-width="0.1"/>
  <path d="M 95.79646200000002,38.32379450000002 L 71.79646200000002,38.32379450000002" fill="none" instance-id="-1" semantic-id="35" stroke="rgb(26,39,53)" stroke-width="0.1"/>
  <path d="M 95.79646200000002,91.32379450000002 L 95.79646200000002,38.32379450000002" fill="none" instance-id="-1" semantic-id="35" stroke="rgb(26,39,53)" stroke-width="0.1"/>
  <path d="M 74.29646200000002,78.32379450000002 L 93.29646200000002,78.32379450000002" fill="none" instance-id="-1" semantic-id="35" stroke="rgb(26,39,53)" stroke-width="0.1"/>
  <path d="M 57.291462000000024,47.826794500000005 L 57.291462000000024,65.8267945" fill="none" instance-id="-1" semantic-id="35" stroke="rgb(26,39,53)" stroke-width="0.1"/>
  <path d="M 57.291462000000024,65.8267945 L 9.291461999999967,65.8267945" fill="none" instance-id="-1" semantic-id="35" stroke="rgb(26,39,53)" stroke-width="0.1"/>
  <path d="M 9.291461999999967,65.8267945 L 9.291461999999967,47.826794500000005" fill="none" instance-id="-1" semantic-id="35" stroke="rgb(26,39,53)" stroke-width="0.1"/>
  <path d="M 9.291461999999967,47.826794500000005 L 57.291462000000024,47.826794500000005" fill="none" instance-id="-1" semantic-id="35" stroke="rgb(26,39,53)" stroke-width="0.1"/>
  <path d="M 57.291462000000024,71.8267945 L 57.291462000000024,89.8267945" fill="none" instance-id="-1" semantic-id="35" stroke="rgb(26,39,53)" stroke-width="0.1"/>
  <path d="M 57.291462000000024,89.8267945 L 9.291461999999967,89.8267945" fill="none" instance-id="-1" semantic-id="35" stroke="rgb(26,39,53)" stroke-width="0.1"/>
  <path d="M 9.291461999999967,89.8267945 L 9.291461999999967,71.8267945" fill="none" instance-id="-1" semantic-id="35" stroke="rgb(26,39,53)" stroke-width="0.1"/>
  <path d="M 9.291461999999967,71.8267945 L 57.291462000000024,71.8267945" fill="none" instance-id="-1" semantic-id="35" stroke="rgb(26,39,53)" stroke-width="0.1"/>
  <path d="M 57.291462000000024,100.0 L 57.291462000000024,95.8267945" fill="none" instance-id="-1" semantic-id="35" stroke="rgb(26,39,53)" stroke-width="0.1"/>
  <path d="M 57.291462000000024,95.8267945 L 9.291461999999967,95.8267945" fill="none" instance-id="-1" semantic-id="35" stroke="rgb(26,39,53)" stroke-width="0.1"/>
  <path d="M 9.291461999999967,95.8267945 L 9.291461999999967,100.0" fill="none" instance-id="-1" semantic-id="35" stroke="rgb(26,39,53)" stroke-width="0.1"/>
  <path d="M 100.0,88.82379450000002 L 98.79646200000002,88.82379450000002" fill="none" instance-id="-1" semantic-id="35" stroke="rgb(26,39,53)" stroke-width="0.1"/>
  <path d="M 98.79646200000002,88.82379450000002 L 98.79646200000002,40.82379450000002" fill="none" instance-id="-1" semantic-id="35" stroke="rgb(26,39,53)" stroke-width="0.1"/>
  <path d="M 98.79646200000002,40.82379450000002 L 100.0,40.82379450000002" fill="none" instance-id="-1" semantic-id="35" stroke="rgb(26,39,53)" stroke-width="0.1"/>
  <path d="M 92.79646200000002,88.82379450000002 L 74.79646200000002,88.82379450000002" fill="none" instance-id="-1" semantic-id="35" stroke="rgb(26,39,53)" stroke-width="0.1"/>
  <path d="M 74.79646200000002,88.82379450000002 L 74.79646200000002,40.82379450000002" fill="none" instance-id="-1" semantic-id="35" stroke="rgb(26,39,53)" stroke-width="0.1"/>
  <path d="M 74.79646200000002,40.82379450000002 L 92.79646200000002,40.82379450000002" fill="none" instance-id="-1" semantic-id="35" stroke="rgb(26,39,53)" stroke-width="0.1"/>
  <path d="M 92.79646200000002,40.82379450000002 L 92.79646200000002,88.82379450000002" fill="none" instance-id="-1" semantic-id="35" stroke="rgb(26,39,53)" stroke-width="0.1"/>
 </g>
 <g id="layerCOLU" inkscape:groupmode="layer" inkscape:label="COLU">
  <path d="M 63.917462,44.826794500000005 L 70.417462,44.826794500000005" fill="none" stroke="rgb(255,73,12)" stroke-width="0.1"/>
  <path d="M 70.417462,44.826794500000005 L 70.417462,38.326794500000005" fill="none" stroke="rgb(255,73,12)" stroke-width="0.1"/>
  <path d="M 70.417462,38.326794500000005 L 63.917462,38.326794500000005" fill="none" stroke="rgb(255,73,12)" stroke-width="0.1"/>
  <path d="M 63.917462,38.326794500000005 L 63.917462,44.826794500000005" fill="none" stroke="rgb(255,73,12)" stroke-width="0.1"/>
  <path d="M 22.721461999999974,44.826794500000005 L 29.221461999999974,44.826794500000005" fill="none" stroke="rgb(255,73,12)" stroke-width="0.1"/>
  <path d="M 29.221461999999974,44.826794500000005 L 29.221461999999974,38.326794500000005" fill="none" stroke="rgb(255,73,12)" stroke-width="0.1"/>
  <path d="M 29.221461999999974,38.326794500000005 L 22.721461999999974,38.326794500000005" fill="none" stroke="rgb(255,73,12)" stroke-width="0.1"/>
  <path d="M 22.721461999999974,38.326794500000005 L 22.721461999999974,44.826794500000005" fill="none" stroke="rgb(255,73,12)" stroke-width="0.1"/>
  <path d="M 63.92146200000002,44.826794500000005 L 70.52146199999993,44.826794500000005" fill="none" stroke="rgb(255,73,12)" stroke-width="0.1"/>
  <path d="M 70.52146199999993,44.826794500000005 L 70.52146199999993,38.326794500000005" fill="none" stroke="rgb(255,73,12)" stroke-width="0.1"/>
  <path d="M 70.52146199999993,38.326794500000005 L 63.92146200000002,38.326794500000005" fill="none" stroke="rgb(255,73,12)" stroke-width="0.1"/>
  <path d="M 63.92146200000002,38.326794500000005 L 63.92146200000002,44.826794500000005" fill="none" stroke="rgb(255,73,12)" stroke-width="0.1"/>
  <path d="M 22.721461999999974,44.826794500000005 L 29.221461999999974,44.826794500000005" fill="none" stroke="rgb(255,73,12)" stroke-width="0.1"/>
  <path d="M 29.221461999999974,44.826794500000005 L 29.221461999999974,38.326794500000005" fill="none" stroke="rgb(255,73,12)" stroke-width="0.1"/>
  <path d="M 29.221461999999974,38.326794500000005 L 22.721461999999974,38.326794500000005" fill="none" stroke="rgb(255,73,12)" stroke-width="0.1"/>
  <path d="M 22.721461999999974,38.326794500000005 L 22.721461999999974,44.826794500000005" fill="none" stroke="rgb(255,73,12)" stroke-width="0.1"/>
  <path d="M 63.72246199999995,44.826794500000005 L 70.52146199999993,44.826794500000005" fill="none" stroke="rgb(255,73,12)" stroke-width="0.1"/>
  <path d="M 70.52146199999993,44.826794500000005 L 70.52146199999993,38.326794500000005" fill="none" stroke="rgb(255,73,12)" stroke-width="0.1"/>
  <path d="M 70.52146199999993,38.326794500000005 L 63.72246199999995,38.326794500000005" fill="none" stroke="rgb(255,73,12)" stroke-width="0.1"/>
  <path d="M 63.72246199999995,38.326794500000005 L 63.72246199999995,44.826794500000005" fill="none" stroke="rgb(255,73,12)" stroke-width="0.1"/>
  <path d="M 22.721461999999974,44.826794500000005 L 29.221461999999974,44.826794500000005" fill="none" stroke="rgb(255,73,12)" stroke-width="0.1"/>
  <path d="M 29.221461999999974,44.826794500000005 L 29.221461999999974,38.326794500000005" fill="none" stroke="rgb(255,73,12)" stroke-width="0.1"/>
  <path d="M 29.221461999999974,38.326794500000005 L 22.721461999999974,38.326794500000005" fill="none" stroke="rgb(255,73,12)" stroke-width="0.1"/>
  <path d="M 22.721461999999974,38.326794500000005 L 22.721461999999974,44.826794500000005" fill="none" stroke="rgb(255,73,12)" stroke-width="0.1"/>
 </g>
 <g id="layerCOLU_HATCH" inkscape:groupmode="layer" inkscape:label="COLU_HATCH">
  <path d="M 22.721461999999974,44.826794500000005 L 29.221461999999974,44.826794500000005" fill="none" stroke="rgb(92,92,92)" stroke-width="0.1"/>
  <path d="M 29.221461999999974,44.826794500000005 L 29.221461999999974,38.326794500000005" fill="none" stroke="rgb(92,92,92)" stroke-width="0.1"/>
  <path d="M 29.221461999999974,38.326794500000005 L 22.721461999999974,38.326794500000005" fill="none" stroke="rgb(92,92,92)" stroke-width="0.1"/>
  <path d="M 22.721461999999974,38.326794500000005 L 22.721461999999974,44.826794500000005" fill="none" stroke="rgb(92,92,92)" stroke-width="0.1"/>
  <path d="M 63.917462,44.826794500000005 L 70.417462,44.826794500000005" fill="none" stroke="rgb(92,92,92)" stroke-width="0.1"/>
  <path d="M 70.417462,44.826794500000005 L 70.417462,38.326794500000005" fill="none" stroke="rgb(92,92,92)" stroke-width="0.1"/>
  <path d="M 70.417462,38.326794500000005 L 63.917462,38.326794500000005" fill="none" stroke="rgb(92,92,92)" stroke-width="0.1"/>
  <path d="M 63.917462,38.326794500000005 L 63.917462,44.826794500000005" fill="none" stroke="rgb(92,92,92)" stroke-width="0.1"/>
  <path d="M 22.721461999999974,44.826794500000005 L 29.221461999999974,44.826794500000005" fill="none" stroke="rgb(92,92,92)" stroke-width="0.1"/>
  <path d="M 29.221461999999974,44.826794500000005 L 29.221461999999974,38.326794500000005" fill="none" stroke="rgb(92,92,92)" stroke-width="0.1"/>
  <path d="M 29.221461999999974,38.326794500000005 L 22.721461999999974,38.326794500000005" fill="none" stroke="rgb(92,92,92)" stroke-width="0.1"/>
  <path d="M 22.721461999999974,38.326794500000005 L 22.721461999999974,44.826794500000005" fill="none" stroke="rgb(92,92,92)" stroke-width="0.1"/>
  <path d="M 63.92146200000002,44.826794500000005 L 70.52146199999993,44.826794500000005" fill="none" stroke="rgb(92,92,92)" stroke-width="0.1"/>
  <path d="M 70.52146199999993,44.826794500000005 L 70.52146199999993,38.326794500000005" fill="none" stroke="rgb(92,92,92)" stroke-width="0.1"/>
  <path d="M 70.52146199999993,38.326794500000005 L 63.92146200000002,38.326794500000005" fill="none" stroke="rgb(92,92,92)" stroke-width="0.1"/>
  <path d="M 63.92146200000002,38.326794500000005 L 63.92146200000002,44.826794500000005" fill="none" stroke="rgb(92,92,92)" stroke-width="0.1"/>
  <path d="M 22.721461999999974,44.826794500000005 L 29.221461999999974,44.826794500000005" fill="none" stroke="rgb(92,92,92)" stroke-width="0.1"/>
  <path d="M 29.221461999999974,44.826794500000005 L 29.221461999999974,38.326794500000005" fill="none" stroke="rgb(92,92,92)" stroke-width="0.1"/>
  <path d="M 29.221461999999974,38.326794500000005 L 22.721461999999974,38.326794500000005" fill="none" stroke="rgb(92,92,92)" stroke-width="0.1"/>
  <path d="M 22.721461999999974,38.326794500000005 L 22.721461999999974,44.826794500000005" fill="none" stroke="rgb(92,92,92)" stroke-width="0.1"/>
  <path d="M 63.72246199999995,44.826794500000005 L 70.52146199999993,44.826794500000005" fill="none" stroke="rgb(92,92,92)" stroke-width="0.1"/>
  <path d="M 70.52146199999993,44.826794500000005 L 70.52146199999993,38.326794500000005" fill="none" stroke="rgb(92,92,92)" stroke-width="0.1"/>
  <path d="M 70.52146199999993,38.326794500000005 L 63.72246199999995,38.326794500000005" fill="none" stroke="rgb(92,92,92)" stroke-width="0.1"/>
  <path d="M 63.72246199999995,38.326794500000005 L 63.72246199999995,44.826794500000005" fill="none" stroke="rgb(92,92,92)" stroke-width="0.1"/>
 </g>
 <g id="layerDIM_IDEN" inkscape:groupmode="layer" inkscape:label="DIM_IDEN">
  <path d="M 0.0,20.611794499999974 L 14.956461999999988,20.611794499999974" fill="none" stroke="rgb(0,178,0)" stroke-width="0.1"/>
  <path d="M 14.956461999999988,20.611794499999974 L 35.83446200000003,31.262794499999984" fill="none" stroke="rgb(0,178,0)" stroke-width="0.1"/>
  <circle cx="35.83346199999994" cy="31.262794499999984" fill="none" r="1.66011" stroke="rgb(0,178,0)" stroke-width="0.1"/>
 </g>
 <g id="layerDIM_LEAD" inkscape:groupmode="layer" inkscape:label="DIM_LEAD">
  <path d="M 69.975462,97.5767945 L 40.026461999999924,89.9087945" fill="none" stroke="rgb(0,178,0)" stroke-width="0.1"/>
  <path d="M 40.026461999999924,89.9087945 L 13.440462000000025,89.9087945" fill="none" stroke="rgb(0,178,0)" stroke-width="0.1"/>
  <text fill="rgb(0,0,0)" font-family="Noto Sans CJK SC" font-size="2" transform="rotate(-0.0,13.440462000000025,89.45879450000001)" x="13.440462000000025" y="89.45879450000001">
   留洞
  </text>
  <text fill="rgb(0,0,0)" font-family="Noto Sans CJK SC" font-size="2" transform="rotate(-0.0,22.20246199999997,89.45879450000001)" x="22.20246199999997" y="89.45879450000001">
   700X1900
  </text>
  <text fill="rgb(0,0,0)" font-family="Noto Sans CJK SC" font-size="2" transform="rotate(-0.0,13.440462000000025,94.85879449999999)" x="13.440462000000025" y="94.85879449999999">
   洞顶标高
  </text>
  <text fill="rgb(0,0,0)" font-family="Noto Sans CJK SC" font-size="2" transform="rotate(-0.0,28.52146199999993,94.85879449999999)" x="28.52146199999993" y="94.85879449999999">
   -4.30
  </text>
 </g>
 <g id="layerDOTE" inkscape:groupmode="layer" inkscape:label="DOTE">
  <path d="M 0.0,41.576794500000005 L 100.0,41.576794500000005" fill="none" stroke="rgb(88,0,0)" stroke-width="0.1"/>
  <path d="M 25.971461999999974,100.0 L 25.971461999999974,0.0" fill="none" stroke="rgb(88,0,0)" stroke-width="0.1"/>
  <path d="M 66.97146199999997,100.0 L 66.97146199999997,0.0" fill="none" stroke="rgb(88,0,0)" stroke-width="0.1"/>
  <path d="M 0.0,51.576794500000005 L 100.0,51.576794500000005" fill="none" stroke="rgb(88,0,0)" stroke-width="0.1"/>
 </g>
 <g id="layerEQUIP_消火栓" inkscape:groupmode="layer" inkscape:label="EQUIP_消火栓">
  <path d="M 29.221461999999974,40.326794500000005 L 29.221461999999974,38.326794500000005" fill="none" stroke="rgb(178,0,0)" stroke-width="0.1"/>
  <path d="M 36.221461999999974,38.326794500000005 L 36.221461999999974,40.326794500000005" fill="none" stroke="rgb(178,0,0)" stroke-width="0.1"/>
  <path d="M 36.221461999999974,40.326794500000005 L 29.221461999999974,40.326794500000005" fill="none" stroke="rgb(178,0,0)" stroke-width="0.1"/>
  <path d="M 36.221461999999974,40.326794500000005 L 29.221461999999974,38.326794500000005" fill="none" stroke="rgb(178,0,0)" stroke-width="0.1"/>
  <path d="M 29.221461999999974,38.326794500000005 L 36.221461999999974,38.326794500000005" fill="none" stroke="rgb(178,0,0)" stroke-width="0.1"/>
 </g>
 <g id="layerSPACE" inkscape:groupmode="layer" inkscape:label="SPACE">
  <text fill="rgb(0,0,0)" font-family="Noto Sans CJK SC" font-size="2" transform="rotate(-0.0,61.49846200000002,49.01779449999998)" x="61.49846200000002" y="49.01779449999998">
   配电室进风井
  </text>
 </g>
 <g id="layerWALL" inkscape:groupmode="layer" inkscape:label="WALL">
  <path d="M 76.27146199999993,55.076794500000005 L 70.27146199999993,55.076794500000005" fill="none" stroke="rgb(0,178,178)" stroke-width="0.1"/>
  <path d="M 70.27146199999993,55.076794500000005 L 70.27146199999993,44.826794500000005" fill="none" stroke="rgb(0,178,178)" stroke-width="0.1"/>
  <path d="M 70.27146199999993,44.826794500000005 L 76.27146199999993,44.826794500000005" fill="none" stroke="rgb(0,178,178)" stroke-width="0.1"/>
  <path d="M 76.27146199999993,44.826794500000005 L 76.27146199999993,55.076794500000005" fill="none" stroke="rgb(0,178,178)" stroke-width="0.1"/>
 </g>
 <g id="layerWALL-MOVE" inkscape:groupmode="layer" inkscape:label="WALL-MOVE">
  <path d="M 63.717461999999955,100.0 L 63.717461999999955,98.5767945" fill="none" instance-id="-1" semantic-id="1" stroke="rgb(178,88,0)" stroke-width="0.1"/>
  <path d="M 65.71746199999995,100.0 L 65.71746199999995,99.5767945" fill="none" instance-id="-1" semantic-id="1" stroke="rgb(178,88,0)" stroke-width="0.1"/>
  <path d="M 65.71746199999995,97.5767945 L 100.0,97.5767945" fill="none" instance-id="-1" semantic-id="1" stroke="rgb(0,0,0)" stroke-width="0.1"/>
  <path d="M 65.71746199999995,99.5767945 L 100.0,99.5767945" fill="none" instance-id="-1" semantic-id="1" stroke="rgb(0,0,0)" stroke-width="0.1"/>
  <path d="M 65.92146200000002,38.326794500000005 L 65.92146200000002,39.57379450000002" fill="none" instance-id="-1" semantic-id="1" stroke="rgb(178,88,0)" stroke-width="0.1"/>
  <path d="M 63.92146200000002,38.326794500000005 L 63.92146200000002,39.57379450000002" fill="none" instance-id="-1" semantic-id="1" stroke="rgb(178,88,0)" stroke-width="0.1"/>
  <path d="M 65.92146200000002,38.326794500000005 L 63.92146200000002,38.326794500000005" fill="none" instance-id="-1" semantic-id="1" stroke="rgb(178,88,0)" stroke-width="0.1"/>
  <path d="M 63.917462,42.57179450000001 L 63.917462,39.57379450000002" fill="none" instance-id="-1" semantic-id="1" stroke="rgb(178,88,0)" stroke-width="0.1"/>
  <path d="M 65.917462,42.57179450000001 L 65.917462,39.57379450000002" fill="none" instance-id="-1" semantic-id="1" stroke="rgb(178,88,0)" stroke-width="0.1"/>
  <path d="M 63.717461999999955,98.5767945 L 63.717461999999955,42.57179450000001" fill="none" instance-id="-1" semantic-id="1" stroke="rgb(178,88,0)" stroke-width="0.1"/>
  <path d="M 65.71746199999995,97.5767945 L 65.71746199999995,42.57179450000001" fill="none" instance-id="-1" semantic-id="1" stroke="rgb(178,88,0)" stroke-width="0.1"/>
  <path d="M 65.92146200000002,39.57379450000002 L 65.92146200000002,42.57179450000001" fill="none" instance-id="-1" semantic-id="1" stroke="rgb(178,88,0)" stroke-width="0.1"/>
  <path d="M 63.92146200000002,39.57379450000002 L 63.92146200000002,42.57179450000001" fill="none" instance-id="-1" semantic-id="1" stroke="rgb(178,88,0)" stroke-width="0.1"/>
 </g>
 <g id="layerWINDOW" inkscape:groupmode="layer" inkscape:label="WINDOW">
  <path d="M 63.92146200000002,38.326794500000005 L 65.92146200000002,38.326794500000005" fill="none" stroke="rgb(0,0,178)" stroke-width="0.1"/>
 </g>
 <g id="layer建筑开洞" inkscape:groupmode="layer" inkscape:label="建筑开洞">
  <path d="M 75.97846199999992,99.5767945 L 69.975462,99.5767945" fill="none" stroke="rgb(0,178,0)" stroke-width="0.1"/>
  <path d="M 69.975462,99.5767945 L 69.975462,97.5767945" fill="none" stroke="rgb(0,178,0)" stroke-width="0.1"/>
  <path d="M 69.975462,97.5767945 L 75.97846199999992,97.5767945" fill="none" stroke="rgb(0,178,0)" stroke-width="0.1"/>
  <path d="M 75.97846199999992,97.5767945 L 75.97846199999992,99.5767945" fill="none" stroke="rgb(0,178,0)" stroke-width="0.1"/>
 </g>
 <g id="layer电动车位" inkscape:groupmode="layer" inkscape:label="电动车位">
  <path d="M 86.35946200000001,62.663794499999995 A 6.0,6.0 0.0 0,0 86.35946200000001,74.6637945" fill="none" stroke="rgb(89,89,89)" stroke-width="0.1"/>
  <path d="M 86.35946200000001,74.6637945 A 6.0,6.0 0.0 1,0 86.35946200000001,62.663794499999995" fill="none" stroke="rgb(89,89,89)" stroke-width="0.1"/>
  <path d="M 91.15946199999996,69.8557945 L 86.95946200000003,68.06179450000002" fill="none" stroke="rgb(89,89,89)" stroke-width="0.1"/>
  <path d="M 86.95946200000003,68.06179450000002 L 86.95946200000003,70.6417945" fill="none" stroke="rgb(89,89,89)" stroke-width="0.1"/>
  <path d="M 86.95946200000003,70.6417945 L 81.55946199999994,66.7137945" fill="none" stroke="rgb(89,89,89)" stroke-width="0.1"/>
  <path d="M 81.55946199999994,66.7137945 L 85.75946199999998,68.50879450000002" fill="none" stroke="rgb(89,89,89)" stroke-width="0.1"/>
  <path d="M 85.75946199999998,68.50879450000002 L 85.75946199999998,65.92879449999998" fill="none" stroke="rgb(89,89,89)" stroke-width="0.1"/>
  <path d="M 85.75946199999998,65.92879449999998 L 91.15946199999996,69.8557945" fill="none" stroke="rgb(89,89,89)" stroke-width="0.1"/>
  <path d="M 86.95946200000003,70.6417945 L 81.55946199999994,66.7137945" fill="none" stroke="rgb(89,89,89)" stroke-width="0.1"/>
  <path d="M 81.55946199999994,66.7137945 L 85.75946199999998,68.50879450000002" fill="none" stroke="rgb(89,89,89)" stroke-width="0.1"/>
  <path d="M 85.75946199999998,68.50879450000002 L 85.75946199999998,65.92879449999998" fill="none" stroke="rgb(89,89,89)" stroke-width="0.1"/>
  <path d="M 85.75946199999998,65.92879449999998 L 91.15946199999996,69.8557945" fill="none" stroke="rgb(89,89,89)" stroke-width="0.1"/>
  <path d="M 91.15946199999996,69.8557945 L 86.95946200000003,68.06179450000002" fill="none" stroke="rgb(89,89,89)" stroke-width="0.1"/>
  <path d="M 86.95946200000003,68.06179450000002 L 86.95946200000003,70.6417945" fill="none" stroke="rgb(89,89,89)" stroke-width="0.1"/>
  <circle cx="86.35946200000001" cy="68.6637945" fill="none" r="7.5" stroke="rgb(89,89,89)" stroke-width="0.1"/>
  <circle cx="86.35946200000001" cy="68.6637945" fill="none" r="6" stroke="rgb(89,89,89)" stroke-width="0.1"/>
 </g>
 <g id="layer防火卷帘" inkscape:groupmode="layer" inkscape:label="防火卷帘">
  <path d="M 59.721461999999974,0.0 L 59.721461999999974,38.326794500000005" fill="none" instance-id="-1" semantic-id="1" stroke="rgb(255,73,12)" stroke-width="0.1"/>
  <path d="M 63.721461999999974,0.0 L 63.721461999999974,40.326794500000005" fill="none" instance-id="-1" semantic-id="1" stroke="rgb(255,73,12)" stroke-width="0.1"/>
  <path d="M 59.721461999999974,38.326794500000005 L 54.221461999999974,38.326794500000005" fill="none" instance-id="-1" semantic-id="1" stroke="rgb(255,73,12)" stroke-width="0.1"/>
  <path d="M 54.221461999999974,38.326794500000005 L 54.221461999999974,29.326794500000005" fill="none" instance-id="-1" semantic-id="1" stroke="rgb(255,73,12)" stroke-width="0.1"/>
  <path d="M 54.221461999999974,29.326794500000005 L 57.221461999999974,29.326794500000005" fill="none" instance-id="-1" semantic-id="1" stroke="rgb(255,73,12)" stroke-width="0.1"/>
  <path d="M 57.221461999999974,29.326794500000005 L 57.221461999999974,0.0" fill="none" instance-id="-1" semantic-id="1" stroke="rgb(255,73,12)" stroke-width="0.1"/>
  <path d="M 63.721461999999974,38.326794500000005 L 59.721461999999974,38.326794500000005" fill="none" instance-id="-1" semantic-id="1" stroke="rgb(255,73,12)" stroke-width="0.1"/>
  <path d="M 59.721461999999974,38.326794500000005 L 59.721461999999974,40.326794500000005" fill="none" instance-id="-1" semantic-id="1" stroke="rgb(255,73,12)" stroke-width="0.1"/>
  <path d="M 59.721461999999974,40.326794500000005 L 63.721461999999974,40.326794500000005" fill="none" instance-id="-1" semantic-id="1" stroke="rgb(255,73,12)" stroke-width="0.1"/>
 </g>
 <g id="layer防火墙" inkscape:groupmode="layer" inkscape:label="防火墙">
  <path d="M 63.941784520274496,100.0 L 65.71746199999995,98.5767945" fill="none" stroke="rgb(178,0,0)" stroke-width="0.1"/>
  <path d="M 65.72246199999995,44.71779449999997 L 63.72246199999995,46.34979449999997" fill="none" stroke="rgb(178,0,0)" stroke-width="0.1"/>
  <path d="M 63.72246199999995,46.34979449999997 L 65.72146199999997,47.98179449999998" fill="none" stroke="rgb(178,0,0)" stroke-width="0.1"/>
  <path d="M 65.72146199999997,47.98179449999998 L 63.721461999999974,49.61379449999998" fill="none" stroke="rgb(178,0,0)" stroke-width="0.1"/>
  <path d="M 63.721461999999974,49.61379449999998 L 65.72146199999997,51.24679450000002" fill="none" stroke="rgb(178,0,0)" stroke-width="0.1"/>
  <path d="M 65.72146199999997,51.24679450000002 L 63.721461999999974,52.87879449999997" fill="none" stroke="rgb(178,0,0)" stroke-width="0.1"/>
  <path d="M 63.721461999999974,52.87879449999997 L 65.72146199999997,54.510794499999975" fill="none" stroke="rgb(178,0,0)" stroke-width="0.1"/>
  <path d="M 65.72146199999997,54.510794499999975 L 63.721461999999974,56.14279449999998" fill="none" stroke="rgb(178,0,0)" stroke-width="0.1"/>
  <path d="M 63.721461999999974,56.14279449999998 L 65.72146199999997,57.774794499999985" fill="none" stroke="rgb(178,0,0)" stroke-width="0.1"/>
  <path d="M 65.72146199999997,57.774794499999985 L 63.720462,59.40679449999999" fill="none" stroke="rgb(178,0,0)" stroke-width="0.1"/>
  <path d="M 63.720462,59.40679449999999 L 65.720462,61.038794499999995" fill="none" stroke="rgb(178,0,0)" stroke-width="0.1"/>
  <path d="M 65.720462,61.038794499999995 L 63.720462,62.6707945" fill="none" stroke="rgb(178,0,0)" stroke-width="0.1"/>
  <path d="M 63.720462,62.6707945 L 65.720462,64.3027945" fill="none" stroke="rgb(178,0,0)" stroke-width="0.1"/>
  <path d="M 65.720462,64.3027945 L 63.720462,65.93479450000001" fill="none" stroke="rgb(178,0,0)" stroke-width="0.1"/>
  <path d="M 63.720462,65.93479450000001 L 65.720462,67.56679450000001" fill="none" stroke="rgb(178,0,0)" stroke-width="0.1"/>
  <path d="M 65.720462,67.56679450000001 L 63.720462,69.19879450000002" fill="none" stroke="rgb(178,0,0)" stroke-width="0.1"/>
  <path d="M 63.720462,69.19879450000002 L 65.720462,70.8317945" fill="none" stroke="rgb(178,0,0)" stroke-width="0.1"/>
  <path d="M 65.720462,70.8317945 L 63.71946200000002,72.4637945" fill="none" stroke="rgb(178,0,0)" stroke-width="0.1"/>
  <path d="M 63.71946200000002,72.4637945 L 65.71946200000002,74.09579450000001" fill="none" stroke="rgb(178,0,0)" stroke-width="0.1"/>
  <path d="M 65.71946200000002,74.09579450000001 L 63.71946200000002,75.72779450000002" fill="none" stroke="rgb(178,0,0)" stroke-width="0.1"/>
  <path d="M 63.71946200000002,75.72779450000002 L 65.71946200000002,77.35979450000002" fill="none" stroke="rgb(178,0,0)" stroke-width="0.1"/>
  <path d="M 65.71946200000002,77.35979450000002 L 63.71946200000002,78.99179449999997" fill="none" stroke="rgb(178,0,0)" stroke-width="0.1"/>
  <path d="M 63.71946200000002,78.99179449999997 L 65.71946200000002,80.62379449999997" fill="none" stroke="rgb(178,0,0)" stroke-width="0.1"/>
  <path d="M 65.71946200000002,80.62379449999997 L 63.71946200000002,82.25579449999998" fill="none" stroke="rgb(178,0,0)" stroke-width="0.1"/>
  <path d="M 63.71946200000002,82.25579449999998 L 65.71846199999993,83.88779449999998" fill="none" stroke="rgb(178,0,0)" stroke-width="0.1"/>
  <path d="M 65.71846199999993,83.88779449999998 L 63.71846199999993,85.51979449999999" fill="none" stroke="rgb(178,0,0)" stroke-width="0.1"/>
  <path d="M 63.71846199999993,85.51979449999999 L 65.71846199999993,87.1517945" fill="none" stroke="rgb(178,0,0)" stroke-width="0.1"/>
  <path d="M 65.71846199999993,87.1517945 L 63.71846199999993,88.7837945" fill="none" stroke="rgb(178,0,0)" stroke-width="0.1"/>
  <path d="M 63.71846199999993,88.7837945 L 65.71846199999993,90.41679449999998" fill="none" stroke="rgb(178,0,0)" stroke-width="0.1"/>
  <path d="M 65.71846199999993,90.41679449999998 L 63.71846199999993,92.04779450000001" fill="none" stroke="rgb(178,0,0)" stroke-width="0.1"/>
  <path d="M 63.71846199999993,92.04779450000001 L 65.71846199999993,93.68079449999999" fill="none" stroke="rgb(178,0,0)" stroke-width="0.1"/>
  <path d="M 65.71846199999993,93.68079449999999 L 63.71846199999993,95.3127945" fill="none" stroke="rgb(178,0,0)" stroke-width="0.1"/>
  <path d="M 63.71846199999993,95.3127945 L 65.71746199999995,96.9447945" fill="none" stroke="rgb(178,0,0)" stroke-width="0.1"/>
  <path d="M 65.71746199999995,96.9447945 L 63.717461999999955,98.5767945" fill="none" stroke="rgb(178,0,0)" stroke-width="0.1"/>
  <path d="M 63.717461999999955,98.5767945 L 65.49313947972541,100.0" fill="none" stroke="rgb(178,0,0)" stroke-width="0.1"/>
  <path d="M 63.72246199999995,44.71779449999997 L 65.72246199999995,46.34979449999997" fill="none" stroke="rgb(178,0,0)" stroke-width="0.1"/>
  <path d="M 65.72246199999995,46.34979449999997 L 63.721461999999974,47.98179449999998" fill="none" stroke="rgb(178,0,0)" stroke-width="0.1"/>
  <path d="M 63.721461999999974,47.98179449999998 L 65.72146199999997,49.614794500000016" fill="none" stroke="rgb(178,0,0)" stroke-width="0.1"/>
  <path d="M 65.72146199999997,49.614794500000016 L 63.721461999999974,51.24579449999999" fill="none" stroke="rgb(178,0,0)" stroke-width="0.1"/>
  <path d="M 63.721461999999974,51.24579449999999 L 65.72146199999997,52.87879449999997" fill="none" stroke="rgb(178,0,0)" stroke-width="0.1"/>
  <path d="M 65.72146199999997,52.87879449999997 L 63.721461999999974,54.510794499999975" fill="none" stroke="rgb(178,0,0)" stroke-width="0.1"/>
  <path d="M 63.721461999999974,54.510794499999975 L 65.72146199999997,56.14279449999998" fill="none" stroke="rgb(178,0,0)" stroke-width="0.1"/>
  <path d="M 65.72146199999997,56.14279449999998 L 63.721461999999974,57.774794499999985" fill="none" stroke="rgb(178,0,0)" stroke-width="0.1"/>
  <path d="M 63.721461999999974,57.774794499999985 L 65.720462,59.40679449999999" fill="none" stroke="rgb(178,0,0)" stroke-width="0.1"/>
  <path d="M 65.720462,59.40679449999999 L 63.720462,61.038794499999995" fill="none" stroke="rgb(178,0,0)" stroke-width="0.1"/>
  <path d="M 63.720462,61.038794499999995 L 65.720462,62.6707945" fill="none" stroke="rgb(178,0,0)" stroke-width="0.1"/>
  <path d="M 65.720462,62.6707945 L 63.720462,64.3027945" fill="none" stroke="rgb(178,0,0)" stroke-width="0.1"/>
  <path d="M 63.720462,64.3027945 L 65.720462,65.93479450000001" fill="none" stroke="rgb(178,0,0)" stroke-width="0.1"/>
  <path d="M 65.720462,65.93479450000001 L 63.720462,67.56679450000001" fill="none" stroke="rgb(178,0,0)" stroke-width="0.1"/>
  <path d="M 63.720462,67.56679450000001 L 65.720462,69.1997945" fill="none" stroke="rgb(178,0,0)" stroke-width="0.1"/>
  <path d="M 65.720462,69.1997945 L 63.720462,70.83079449999997" fill="none" stroke="rgb(178,0,0)" stroke-width="0.1"/>
  <path d="M 63.720462,70.83079449999997 L 65.71946200000002,72.4637945" fill="none" stroke="rgb(178,0,0)" stroke-width="0.1"/>
  <path d="M 65.71946200000002,72.4637945 L 63.71946200000002,74.09579450000001" fill="none" stroke="rgb(178,0,0)" stroke-width="0.1"/>
  <path d="M 63.71946200000002,74.09579450000001 L 65.71946200000002,75.72779450000002" fill="none" stroke="rgb(178,0,0)" stroke-width="0.1"/>
  <path d="M 65.71946200000002,75.72779450000002 L 63.71946200000002,77.35979450000002" fill="none" stroke="rgb(178,0,0)" stroke-width="0.1"/>
  <path d="M 63.71946200000002,77.35979450000002 L 65.71946200000002,78.99179449999997" fill="none" stroke="rgb(178,0,0)" stroke-width="0.1"/>
  <path d="M 65.71946200000002,78.99179449999997 L 63.71946200000002,80.62379449999997" fill="none" stroke="rgb(178,0,0)" stroke-width="0.1"/>
  <path d="M 63.71946200000002,80.62379449999997 L 65.71946200000002,82.25579449999998" fill="none" stroke="rgb(178,0,0)" stroke-width="0.1"/>
  <path d="M 65.71946200000002,82.25579449999998 L 63.71846199999993,83.88779449999998" fill="none" stroke="rgb(178,0,0)" stroke-width="0.1"/>
  <path d="M 63.71846199999993,83.88779449999998 L 65.71846199999993,85.51979449999999" fill="none" stroke="rgb(178,0,0)" stroke-width="0.1"/>
  <path d="M 65.71846199999993,85.51979449999999 L 63.71846199999993,87.1517945" fill="none" stroke="rgb(178,0,0)" stroke-width="0.1"/>
  <path d="M 63.71846199999993,87.1517945 L 65.71846199999993,88.7837945" fill="none" stroke="rgb(178,0,0)" stroke-width="0.1"/>
  <path d="M 65.71846199999993,88.7837945 L 63.71846199999993,90.4157945" fill="none" stroke="rgb(178,0,0)" stroke-width="0.1"/>
  <path d="M 63.71846199999993,90.4157945 L 65.71846199999993,92.04879449999999" fill="none" stroke="rgb(178,0,0)" stroke-width="0.1"/>
  <path d="M 65.71846199999993,92.04879449999999 L 63.71846199999993,93.68079449999999" fill="none" stroke="rgb(178,0,0)" stroke-width="0.1"/>
  <path d="M 63.71846199999993,93.68079449999999 L 65.71846199999993,95.3127945" fill="none" stroke="rgb(178,0,0)" stroke-width="0.1"/>
  <path d="M 65.71846199999993,95.3127945 L 63.717461999999955,96.9447945" fill="none" stroke="rgb(178,0,0)" stroke-width="0.1"/>
  <path d="M 63.717461999999955,96.9447945 L 65.71746199999995,98.5767945" fill="none" stroke="rgb(178,0,0)" stroke-width="0.1"/>
  <path d="M 65.71746199999995,99.5767945 L 67.34446200000002,97.5767945" fill="none" stroke="rgb(178,0,0)" stroke-width="0.1"/>
  <path d="M 67.34446200000002,97.5767945 L 68.97246199999995,99.5767945" fill="none" stroke="rgb(178,0,0)" stroke-width="0.1"/>
  <path d="M 68.97246199999995,99.5767945 L 70.59946200000002,97.5767945" fill="none" stroke="rgb(178,0,0)" stroke-width="0.1"/>
  <path d="M 70.59946200000002,97.5767945 L 72.22646199999997,99.5767945" fill="none" stroke="rgb(178,0,0)" stroke-width="0.1"/>
  <path d="M 72.22646199999997,99.5767945 L 73.85346199999992,97.5767945" fill="none" stroke="rgb(178,0,0)" stroke-width="0.1"/>
  <path d="M 73.85346199999992,97.5767945 L 75.48046199999999,99.5767945" fill="none" stroke="rgb(178,0,0)" stroke-width="0.1"/>
  <path d="M 75.48046199999999,99.5767945 L 77.10846200000003,97.5767945" fill="none" stroke="rgb(178,0,0)" stroke-width="0.1"/>
  <path d="M 77.10846200000003,97.5767945 L 78.73546199999998,99.5767945" fill="none" stroke="rgb(178,0,0)" stroke-width="0.1"/>
  <path d="M 78.73546199999998,99.5767945 L 80.36246199999994,97.5767945" fill="none" stroke="rgb(178,0,0)" stroke-width="0.1"/>
  <path d="M 80.36246199999994,97.5767945 L 81.989462,99.5767945" fill="none" stroke="rgb(178,0,0)" stroke-width="0.1"/>
  <path d="M 81.989462,99.5767945 L 83.61646199999996,97.5767945" fill="none" stroke="rgb(178,0,0)" stroke-width="0.1"/>
  <path d="M 83.61646199999996,97.5767945 L 85.24346200000002,99.5767945" fill="none" stroke="rgb(178,0,0)" stroke-width="0.1"/>
  <path d="M 85.24346200000002,99.5767945 L 86.87146199999995,97.5767945" fill="none" stroke="rgb(178,0,0)" stroke-width="0.1"/>
  <path d="M 86.87146199999995,97.5767945 L 88.49846200000002,99.5767945" fill="none" stroke="rgb(178,0,0)" stroke-width="0.1"/>
  <path d="M 88.49846200000002,99.5767945 L 90.12546199999997,97.5767945" fill="none" stroke="rgb(178,0,0)" stroke-width="0.1"/>
  <path d="M 90.12546199999997,97.5767945 L 91.75246199999992,99.5767945" fill="none" stroke="rgb(178,0,0)" stroke-width="0.1"/>
  <path d="M 91.75246199999992,99.5767945 L 93.37946199999999,97.5767945" fill="none" stroke="rgb(178,0,0)" stroke-width="0.1"/>
  <path d="M 93.37946199999999,97.5767945 L 95.00746200000003,99.5767945" fill="none" stroke="rgb(178,0,0)" stroke-width="0.1"/>
  <path d="M 95.00746200000003,99.5767945 L 96.63446199999998,97.5767945" fill="none" stroke="rgb(178,0,0)" stroke-width="0.1"/>
  <path d="M 96.63446199999998,97.5767945 L 98.26146199999994,99.5767945" fill="none" stroke="rgb(178,0,0)" stroke-width="0.1"/>
  <path d="M 98.26146199999994,99.5767945 L 99.888462,97.5767945" fill="none" stroke="rgb(178,0,0)" stroke-width="0.1"/>
  <path d="M 99.888462,97.5767945 L 100.0,97.71390328918255" fill="none" stroke="rgb(178,0,0)" stroke-width="0.1"/>
  <path d="M 65.71746199999995,97.5767945 L 67.34446200000002,99.5767945" fill="none" stroke="rgb(178,0,0)" stroke-width="0.1"/>
  <path d="M 67.34446200000002,99.5767945 L 68.97246199999995,97.5767945" fill="none" stroke="rgb(178,0,0)" stroke-width="0.1"/>
  <path d="M 68.97246199999995,97.5767945 L 70.59946200000002,99.5767945" fill="none" stroke="rgb(178,0,0)" stroke-width="0.1"/>
  <path d="M 70.59946200000002,99.5767945 L 72.22646199999997,97.5767945" fill="none" stroke="rgb(178,0,0)" stroke-width="0.1"/>
  <path d="M 72.22646199999997,97.5767945 L 73.85346199999992,99.5767945" fill="none" stroke="rgb(178,0,0)" stroke-width="0.1"/>
  <path d="M 73.85346199999992,99.5767945 L 75.48046199999999,97.5767945" fill="none" stroke="rgb(178,0,0)" stroke-width="0.1"/>
  <path d="M 75.48046199999999,97.5767945 L 77.10846200000003,99.5767945" fill="none" stroke="rgb(178,0,0)" stroke-width="0.1"/>
  <path d="M 77.10846200000003,99.5767945 L 78.73546199999998,97.5767945" fill="none" stroke="rgb(178,0,0)" stroke-width="0.1"/>
  <path d="M 78.73546199999998,97.5767945 L 80.36246199999994,99.5767945" fill="none" stroke="rgb(178,0,0)" stroke-width="0.1"/>
  <path d="M 80.36246199999994,99.5767945 L 81.989462,97.5767945" fill="none" stroke="rgb(178,0,0)" stroke-width="0.1"/>
  <path d="M 81.989462,97.5767945 L 83.61646199999996,99.5767945" fill="none" stroke="rgb(178,0,0)" stroke-width="0.1"/>
  <path d="M 83.61646199999996,99.5767945 L 85.24346200000002,97.5767945" fill="none" stroke="rgb(178,0,0)" stroke-width="0.1"/>
  <path d="M 85.24346200000002,97.5767945 L 86.87146199999995,99.5767945" fill="none" stroke="rgb(178,0,0)" stroke-width="0.1"/>
  <path d="M 86.87146199999995,99.5767945 L 88.49846200000002,97.5767945" fill="none" stroke="rgb(178,0,0)" stroke-width="0.1"/>
  <path d="M 88.49846200000002,97.5767945 L 90.12546199999997,99.5767945" fill="none" stroke="rgb(178,0,0)" stroke-width="0.1"/>
  <path d="M 90.12546199999997,99.5767945 L 91.75246199999992,97.5767945" fill="none" stroke="rgb(178,0,0)" stroke-width="0.1"/>
  <path d="M 91.75246199999992,97.5767945 L 93.37946199999999,99.5767945" fill="none" stroke="rgb(178,0,0)" stroke-width="0.1"/>
  <path d="M 93.37946199999999,99.5767945 L 95.00746200000003,97.5767945" fill="none" stroke="rgb(178,0,0)" stroke-width="0.1"/>
  <path d="M 95.00746200000003,97.5767945 L 96.63446199999998,99.5767945" fill="none" stroke="rgb(178,0,0)" stroke-width="0.1"/>
  <path d="M 96.63446199999998,99.5767945 L 98.26146199999994,97.5767945" fill="none" stroke="rgb(178,0,0)" stroke-width="0.1"/>
  <path d="M 98.26146199999994,97.5767945 L 99.888462,99.5767945" fill="none" stroke="rgb(178,0,0)" stroke-width="0.1"/>
  <path d="M 99.888462,99.5767945 L 100.0,99.43968571081746" fill="none" stroke="rgb(178,0,0)" stroke-width="0.1"/>
 </g>
</svg>