<?xml version="1.0" encoding="utf-8"?>
<svg style="background-color: #000;" version="1.1" viewBox="0 0 100.0 100.0" xmlns="http://www.w3.org/2000/svg" xmlns:inkscape="http://www.inkscape.org/namespaces/inkscape">
 <g id="layerCAR" inkscape:groupmode="layer" inkscape:label="CAR">
  <path d="M 93.89146199999993,47.576794500000005 L 92.29146200000002,47.576794500000005" fill="none" instance-id="-1" semantic-id="35" stroke="rgb(26,39,53)" stroke-width="0.1"/>
  <path d="M 92.29146200000002,66.5767945 L 93.89146199999993,66.5767945" fill="none" instance-id="-1" semantic-id="35" stroke="rgb(26,39,53)" stroke-width="0.1"/>
  <path d="M 92.29146200000002,66.5767945 L 92.29146200000002,47.576794500000005" fill="none" instance-id="-1" semantic-id="35" stroke="rgb(26,39,53)" stroke-width="0.1"/>
  <path d="M 93.89146199999993,66.5767945 L 93.89146199999993,47.576794500000005" fill="none" instance-id="-1" semantic-id="35" stroke="rgb(26,39,53)" stroke-width="0.1"/>
  <path d="M 53.09146199999998,69.0767945 L 100.0,69.0767945" fill="none" instance-id="-1" semantic-id="35" stroke="rgb(26,39,53)" stroke-width="0.1"/>
  <path d="M 53.09146199999998,45.076794500000005 L 53.09146199999998,69.0767945" fill="none" instance-id="-1" semantic-id="35" stroke="rgb(26,39,53)" stroke-width="0.1"/>
  <path d="M 100.0,45.076794500000005 L 53.09146199999998,45.076794500000005" fill="none" instance-id="-1" semantic-id="35" stroke="rgb(26,39,53)" stroke-width="0.1"/>
  <path d="M 93.09146199999998,66.5767945 L 93.09146199999998,47.576794500000005" fill="none" instance-id="-1" semantic-id="35" stroke="rgb(26,39,53)" stroke-width="0.1"/>
  <path d="M 94.59146199999998,72.3267945 L 92.99146199999996,72.3267945" fill="none" instance-id="-1" semantic-id="35" stroke="rgb(26,39,53)" stroke-width="0.1"/>
  <path d="M 92.99146199999996,91.3267945 L 94.59146199999998,91.3267945" fill="none" instance-id="-1" semantic-id="35" stroke="rgb(26,39,53)" stroke-width="0.1"/>
  <path d="M 92.99146199999996,91.3267945 L 92.99146199999996,72.3267945" fill="none" instance-id="-1" semantic-id="35" stroke="rgb(26,39,53)" stroke-width="0.1"/>
  <path d="M 94.59146199999998,91.3267945 L 94.59146199999998,72.3267945" fill="none" instance-id="-1" semantic-id="35" stroke="rgb(26,39,53)" stroke-width="0.1"/>
  <path d="M 53.791462000000024,93.8267945 L 100.0,93.8267945" fill="none" instance-id="-1" semantic-id="35" stroke="rgb(26,39,53)" stroke-width="0.1"/>
  <path d="M 53.791462000000024,69.8267945 L 53.791462000000024,93.8267945" fill="none" instance-id="-1" semantic-id="35" stroke="rgb(26,39,53)" stroke-width="0.1"/>
  <path d="M 100.0,69.8267945 L 53.791462000000024,69.8267945" fill="none" instance-id="-1" semantic-id="35" stroke="rgb(26,39,53)" stroke-width="0.1"/>
  <path d="M 93.79146200000002,91.3267945 L 93.79146200000002,72.3267945" fill="none" instance-id="-1" semantic-id="35" stroke="rgb(26,39,53)" stroke-width="0.1"/>
  <path d="M 92.99146199999996,96.3267945 L 94.59146199999998,96.3267945" fill="none" instance-id="-1" semantic-id="35" stroke="rgb(26,39,53)" stroke-width="0.1"/>
  <path d="M 92.99146199999996,96.3267945 L 92.99146199999996,100.0" fill="none" instance-id="-1" semantic-id="35" stroke="rgb(26,39,53)" stroke-width="0.1"/>
  <path d="M 94.59146199999998,96.3267945 L 94.59146199999998,100.0" fill="none" instance-id="-1" semantic-id="35" stroke="rgb(26,39,53)" stroke-width="0.1"/>
  <path d="M 53.791462000000024,93.8267945 L 100.0,93.8267945" fill="none" instance-id="-1" semantic-id="35" stroke="rgb(26,39,53)" stroke-width="0.1"/>
  <path d="M 53.791462000000024,100.0 L 53.791462000000024,93.8267945" fill="none" instance-id="-1" semantic-id="35" stroke="rgb(26,39,53)" stroke-width="0.1"/>
  <path d="M 93.79146200000002,96.3267945 L 93.79146200000002,100.0" fill="none" instance-id="-1" semantic-id="35" stroke="rgb(26,39,53)" stroke-width="0.1"/>
  <path d="M 92.99146199999996,10.326794500000005 L 94.59146199999998,10.326794500000005" fill="none" instance-id="-1" semantic-id="35" stroke="rgb(26,39,53)" stroke-width="0.1"/>
  <path d="M 92.99146199999996,10.326794500000005 L 92.99146199999996,0.0" fill="none" instance-id="-1" semantic-id="35" stroke="rgb(26,39,53)" stroke-width="0.1"/>
  <path d="M 94.59146199999998,10.326794500000005 L 94.59146199999998,0.0" fill="none" instance-id="-1" semantic-id="35" stroke="rgb(26,39,53)" stroke-width="0.1"/>
  <path d="M 53.791462000000024,12.826794500000005 L 100.0,12.826794500000005" fill="none" instance-id="-1" semantic-id="35" stroke="rgb(26,39,53)" stroke-width="0.1"/>
  <path d="M 53.791462000000024,0.0 L 53.791462000000024,12.826794500000005" fill="none" instance-id="-1" semantic-id="35" stroke="rgb(26,39,53)" stroke-width="0.1"/>
  <path d="M 93.79146200000002,10.326794500000005 L 93.79146200000002,0.0" fill="none" instance-id="-1" semantic-id="35" stroke="rgb(26,39,53)" stroke-width="0.1"/>
  <path d="M 94.59146199999998,34.326794500000005 L 92.99146199999996,34.326794500000005" fill="none" instance-id="-1" semantic-id="35" stroke="rgb(26,39,53)" stroke-width="0.1"/>
  <path d="M 92.99146199999996,15.326794500000005 L 94.59146199999998,15.326794500000005" fill="none" instance-id="-1" semantic-id="35" stroke="rgb(26,39,53)" stroke-width="0.1"/>
  <path d="M 92.99146199999996,15.326794500000005 L 92.99146199999996,34.326794500000005" fill="none" instance-id="-1" semantic-id="35" stroke="rgb(26,39,53)" stroke-width="0.1"/>
  <path d="M 94.59146199999998,15.326794500000005 L 94.59146199999998,34.326794500000005" fill="none" instance-id="-1" semantic-id="35" stroke="rgb(26,39,53)" stroke-width="0.1"/>
  <path d="M 53.791462000000024,12.826794500000005 L 100.0,12.826794500000005" fill="none" instance-id="-1" semantic-id="35" stroke="rgb(26,39,53)" stroke-width="0.1"/>
  <path d="M 53.791462000000024,36.826794500000005 L 53.791462000000024,12.826794500000005" fill="none" instance-id="-1" semantic-id="35" stroke="rgb(26,39,53)" stroke-width="0.1"/>
  <path d="M 100.0,36.826794500000005 L 53.791462000000024,36.826794500000005" fill="none" instance-id="-1" semantic-id="35" stroke="rgb(26,39,53)" stroke-width="0.1"/>
  <path d="M 93.79146200000002,15.326794500000005 L 93.79146200000002,34.326794500000005" fill="none" instance-id="-1" semantic-id="35" stroke="rgb(26,39,53)" stroke-width="0.1"/>
  <path d="M 100.0,66.0767945 L 55.59146199999998,66.0767945" fill="none" instance-id="-1" semantic-id="35" stroke="rgb(26,39,53)" stroke-width="0.1"/>
  <path d="M 55.59146199999998,66.0767945 L 55.59146199999998,48.076794500000005" fill="none" instance-id="-1" semantic-id="35" stroke="rgb(26,39,53)" stroke-width="0.1"/>
  <path d="M 55.59146199999998,48.076794500000005 L 100.0,48.076794500000005" fill="none" instance-id="-1" semantic-id="35" stroke="rgb(26,39,53)" stroke-width="0.1"/>
  <path d="M 100.0,90.8267945 L 56.291462000000024,90.8267945" fill="none" instance-id="-1" semantic-id="35" stroke="rgb(26,39,53)" stroke-width="0.1"/>
  <path d="M 56.291462000000024,90.8267945 L 56.291462000000024,72.8267945" fill="none" instance-id="-1" semantic-id="35" stroke="rgb(26,39,53)" stroke-width="0.1"/>
  <path d="M 56.291462000000024,72.8267945 L 100.0,72.8267945" fill="none" instance-id="-1" semantic-id="35" stroke="rgb(26,39,53)" stroke-width="0.1"/>
  <path d="M 100.0,96.8267945 L 56.291462000000024,96.8267945" fill="none" instance-id="-1" semantic-id="35" stroke="rgb(26,39,53)" stroke-width="0.1"/>
  <path d="M 56.291462000000024,96.8267945 L 56.291462000000024,100.0" fill="none" instance-id="-1" semantic-id="35" stroke="rgb(26,39,53)" stroke-width="0.1"/>
  <path d="M 100.0,9.826794500000005 L 56.291462000000024,9.826794500000005" fill="none" instance-id="-1" semantic-id="35" stroke="rgb(26,39,53)" stroke-width="0.1"/>
  <path d="M 56.291462000000024,9.826794500000005 L 56.291462000000024,0.0" fill="none" instance-id="-1" semantic-id="35" stroke="rgb(26,39,53)" stroke-width="0.1"/>
  <path d="M 100.0,15.826794500000005 L 56.291462000000024,15.826794500000005" fill="none" instance-id="-1" semantic-id="35" stroke="rgb(26,39,53)" stroke-width="0.1"/>
  <path d="M 56.291462000000024,15.826794500000005 L 56.291462000000024,33.826794500000005" fill="none" instance-id="-1" semantic-id="35" stroke="rgb(26,39,53)" stroke-width="0.1"/>
  <path d="M 56.291462000000024,33.826794500000005 L 100.0,33.826794500000005" fill="none" instance-id="-1" semantic-id="35" stroke="rgb(26,39,53)" stroke-width="0.1"/>
 </g>
 <g id="layerCOLU" inkscape:groupmode="layer" inkscape:label="COLU">
  <path d="M 53.02146199999993,45.076794500000005 L 61.02146199999993,45.076794500000005" fill="none" stroke="rgb(255,73,12)" stroke-width="0.1"/>
  <path d="M 61.02146199999993,45.076794500000005 L 61.02146199999993,38.076794500000005" fill="none" stroke="rgb(255,73,12)" stroke-width="0.1"/>
  <path d="M 61.02146199999993,38.076794500000005 L 53.02146199999993,38.076794500000005" fill="none" stroke="rgb(255,73,12)" stroke-width="0.1"/>
  <path d="M 53.02146199999993,38.076794500000005 L 53.02146199999993,45.076794500000005" fill="none" stroke="rgb(255,73,12)" stroke-width="0.1"/>
  <path d="M 53.02146199999993,45.076794500000005 L 61.02146199999993,45.076794500000005" fill="none" stroke="rgb(255,73,12)" stroke-width="0.1"/>
  <path d="M 61.02146199999993,45.076794500000005 L 61.02146199999993,38.076794500000005" fill="none" stroke="rgb(255,73,12)" stroke-width="0.1"/>
  <path d="M 61.02146199999993,38.076794500000005 L 53.02146199999993,38.076794500000005" fill="none" stroke="rgb(255,73,12)" stroke-width="0.1"/>
  <path d="M 53.02146199999993,38.076794500000005 L 53.02146199999993,45.076794500000005" fill="none" stroke="rgb(255,73,12)" stroke-width="0.1"/>
  <path d="M 53.02146199999993,45.076794500000005 L 61.02146199999993,45.076794500000005" fill="none" stroke="rgb(255,73,12)" stroke-width="0.1"/>
  <path d="M 61.02146199999993,45.076794500000005 L 61.02146199999993,38.076794500000005" fill="none" stroke="rgb(255,73,12)" stroke-width="0.1"/>
  <path d="M 61.02146199999993,38.076794500000005 L 53.02146199999993,38.076794500000005" fill="none" stroke="rgb(255,73,12)" stroke-width="0.1"/>
  <path d="M 53.02146199999993,38.076794500000005 L 53.02146199999993,45.076794500000005" fill="none" stroke="rgb(255,73,12)" stroke-width="0.1"/>
 </g>
 <g id="layerCOLU_HATCH" inkscape:groupmode="layer" inkscape:label="COLU_HATCH">
  <path d="M 53.02146199999993,45.076794500000005 L 61.02146199999993,45.076794500000005" fill="none" stroke="rgb(92,92,92)" stroke-width="0.1"/>
  <path d="M 61.02146199999993,45.076794500000005 L 61.02146199999993,38.076794500000005" fill="none" stroke="rgb(92,92,92)" stroke-width="0.1"/>
  <path d="M 61.02146199999993,38.076794500000005 L 53.02146199999993,38.076794500000005" fill="none" stroke="rgb(92,92,92)" stroke-width="0.1"/>
  <path d="M 53.02146199999993,38.076794500000005 L 53.02146199999993,45.076794500000005" fill="none" stroke="rgb(92,92,92)" stroke-width="0.1"/>
  <path d="M 53.02146199999993,45.076794500000005 L 61.02146199999993,45.076794500000005" fill="none" stroke="rgb(92,92,92)" stroke-width="0.1"/>
  <path d="M 61.02146199999993,45.076794500000005 L 61.02146199999993,38.076794500000005" fill="none" stroke="rgb(92,92,92)" stroke-width="0.1"/>
  <path d="M 61.02146199999993,38.076794500000005 L 53.02146199999993,38.076794500000005" fill="none" stroke="rgb(92,92,92)" stroke-width="0.1"/>
  <path d="M 53.02146199999993,38.076794500000005 L 53.02146199999993,45.076794500000005" fill="none" stroke="rgb(92,92,92)" stroke-width="0.1"/>
  <path d="M 53.02146199999993,45.076794500000005 L 61.02146199999993,45.076794500000005" fill="none" stroke="rgb(92,92,92)" stroke-width="0.1"/>
  <path d="M 61.02146199999993,45.076794500000005 L 61.02146199999993,38.076794500000005" fill="none" stroke="rgb(92,92,92)" stroke-width="0.1"/>
  <path d="M 61.02146199999993,38.076794500000005 L 53.02146199999993,38.076794500000005" fill="none" stroke="rgb(92,92,92)" stroke-width="0.1"/>
  <path d="M 53.02146199999993,38.076794500000005 L 53.02146199999993,45.076794500000005" fill="none" stroke="rgb(92,92,92)" stroke-width="0.1"/>
 </g>
 <g id="layerDIM_IDEN" inkscape:groupmode="layer" inkscape:label="DIM_IDEN">
  <path d="M 0.0,82.8317945 L 36.971461999999974,82.8317945" fill="none" stroke="rgb(0,178,0)" stroke-width="0.1"/>
  <circle cx="29.471461999999974" cy="82.8317945" fill="none" r="7.5" stroke="rgb(0,178,0)" stroke-width="0.1"/>
  <text fill="rgb(0,0,0)" font-family="Noto Sans CJK SC" font-size="2" transform="rotate(-0.0,6.138462000000004,80.97779450000002)" x="6.138462000000004" y="80.97779450000002">
   详S01
  </text>
  <text fill="rgb(0,0,0)" font-family="Noto Sans CJK SC" font-size="2" transform="rotate(-0.0,27.864462000000003,80.68879449999997)" x="27.864462000000003" y="80.68879449999997">
   -
  </text>
  <text fill="rgb(0,0,0)" font-family="Noto Sans CJK SC" font-size="2" transform="rotate(-0.0,23.489462000000003,88.4567945)" x="23.489462000000003" y="88.4567945">
   JX-1
  </text>
 </g>
 <g id="layerDOTE" inkscape:groupmode="layer" inkscape:label="DOTE">
  <path d="M 0.0,41.576794500000005 L 100.0,41.576794500000005" fill="none" stroke="rgb(88,0,0)" stroke-width="0.1"/>
  <path d="M 55.971461999999974,100.0 L 55.971461999999974,0.0" fill="none" stroke="rgb(88,0,0)" stroke-width="0.1"/>
  <path d="M 0.0,51.576794500000005 L 100.0,51.576794500000005" fill="none" stroke="rgb(88,0,0)" stroke-width="0.1"/>
 </g>
 <g id="layerPUB_TEXT" inkscape:groupmode="layer" inkscape:label="PUB_TEXT">
  <text fill="rgb(255,12,73)" font-family="Noto Sans CJK SC" font-size="2" transform="rotate(-0.0,2.7954619999999295,23.89479449999999)" x="2.7954619999999295" y="23.89479449999999">
   2000m
  </text>
  <text fill="rgb(255,12,73)" font-family="Noto Sans CJK SC" font-size="2" transform="rotate(-0.0,33.10546199999999,15.144794499999989)" x="33.10546199999999" y="15.144794499999989">
   2
  </text>
 </g>
 <g id="layer电动车位" inkscape:groupmode="layer" inkscape:label="电动车位">
  <path d="M 78.13146199999994,55.262794499999984 A 6.0,6.0 0.0 0,0 90.13146199999994,55.262794499999984" fill="none" stroke="rgb(89,89,89)" stroke-width="0.1"/>
  <path d="M 90.13146199999994,55.262794499999984 A 6.0,6.0 0.0 1,0 78.13146199999994,55.262794499999984" fill="none" stroke="rgb(89,89,89)" stroke-width="0.1"/>
  <path d="M 78.13146199999994,79.60679449999998 A 6.0,6.0 0.0 0,0 90.13146199999994,79.60679449999998" fill="none" stroke="rgb(89,89,89)" stroke-width="0.1"/>
  <path d="M 90.13146199999994,79.60679449999998 A 6.0,6.0 0.0 1,0 78.13146199999994,79.60679449999998" fill="none" stroke="rgb(89,89,89)" stroke-width="0.1"/>
  <path d="M 88.09551034034041,99.78176066848368 L 87.69926105782565,99.46181171779835" fill="none" stroke="rgb(89,89,89)" stroke-width="0.1"/>
  <path d="M 87.69926105782565,99.46181171779835 L 87.27730570134338,99.17661967360016" fill="none" stroke="rgb(89,89,89)" stroke-width="0.1"/>
  <path d="M 87.27730570134338,99.17661967360016 L 86.832684468906,98.9282393511026" fill="none" stroke="rgb(89,89,89)" stroke-width="0.1"/>
  <path d="M 86.832684468906,98.9282393511026 L 86.36860086668185,98.71846033622097" fill="none" stroke="rgb(89,89,89)" stroke-width="0.1"/>
  <path d="M 86.36860086668185,98.71846033622097 L 85.88839862765929,98.5487940915645" fill="none" stroke="rgb(89,89,89)" stroke-width="0.1"/>
  <path d="M 85.88839862765929,98.5487940915645 L 85.39553761997433,98.42046306631391" fill="none" stroke="rgb(89,89,89)" stroke-width="0.1"/>
  <path d="M 85.39553761997433,98.42046306631391 L 84.89356891848126,98.33439188844676" fill="none" stroke="rgb(89,89,89)" stroke-width="0.1"/>
  <path d="M 84.89356891848126,98.33439188844676 L 84.38610921917689,98.2912007027719" fill="none" stroke="rgb(89,89,89)" stroke-width="0.1"/>
  <path d="M 84.38610921917689,98.2912007027719 L 83.876814780823,98.2912007027719" fill="none" stroke="rgb(89,89,89)" stroke-width="0.1"/>
  <path d="M 83.876814780823,98.2912007027719 L 83.36935508151862,98.33439188844676" fill="none" stroke="rgb(89,89,89)" stroke-width="0.1"/>
  <path d="M 83.36935508151862,98.33439188844676 L 82.86738638002555,98.42046306631391" fill="none" stroke="rgb(89,89,89)" stroke-width="0.1"/>
  <path d="M 82.86738638002555,98.42046306631391 L 82.3745253723406,98.5487940915645" fill="none" stroke="rgb(89,89,89)" stroke-width="0.1"/>
  <path d="M 82.3745253723406,98.5487940915645 L 81.89432313331804,98.71846033622097" fill="none" stroke="rgb(89,89,89)" stroke-width="0.1"/>
  <path d="M 81.89432313331804,98.71846033622097 L 81.43023953109389,98.9282393511026" fill="none" stroke="rgb(89,89,89)" stroke-width="0.1"/>
  <path d="M 81.43023953109389,98.9282393511026 L 80.9856182986565,99.17661967360016" fill="none" stroke="rgb(89,89,89)" stroke-width="0.1"/>
  <path d="M 80.9856182986565,99.17661967360016 L 80.56366294217423,99.46181171779835" fill="none" stroke="rgb(89,89,89)" stroke-width="0.1"/>
  <path d="M 80.56366294217423,99.46181171779835 L 80.16741365965947,99.78176066848368" fill="none" stroke="rgb(89,89,89)" stroke-width="0.1"/>
  <path d="M 78.13146199999994,1.64079449999997 A 6.0,6.0 0.0 0,0 90.13146199999994,1.64079449999997" fill="none" stroke="rgb(89,89,89)" stroke-width="0.1"/>
  <path d="M 90.13146199999994,1.64079449999997 L 90.1098469312551,1.1319589531469205" fill="none" stroke="rgb(89,89,89)" stroke-width="0.1"/>
  <path d="M 90.1098469312551,1.1319589531469205 L 90.0451574620862,0.6267895780688946" fill="none" stroke="rgb(89,89,89)" stroke-width="0.1"/>
  <path d="M 90.0451574620862,0.6267895780688946 L 89.93785968160091,0.12892613168924072" fill="none" stroke="rgb(89,89,89)" stroke-width="0.1"/>
  <path d="M 78.32506431839897,0.12892613168924072 L 78.21776653791369,0.6267895780688946" fill="none" stroke="rgb(89,89,89)" stroke-width="0.1"/>
  <path d="M 78.21776653791369,0.6267895780688946 L 78.15307706874478,1.1319589531469205" fill="none" stroke="rgb(89,89,89)" stroke-width="0.1"/>
  <path d="M 78.15307706874478,1.1319589531469205 L 78.13146199999994,1.64079449999997" fill="none" stroke="rgb(89,89,89)" stroke-width="0.1"/>
  <path d="M 78.13146199999994,25.98479450000002 A 6.0,6.0 0.0 0,0 90.13146199999994,25.98479450000002" fill="none" stroke="rgb(89,89,89)" stroke-width="0.1"/>
  <path d="M 90.13146199999994,25.98479450000002 A 6.0,6.0 0.0 1,0 78.13146199999994,25.98479450000002" fill="none" stroke="rgb(89,89,89)" stroke-width="0.1"/>
  <path d="M 85.32446199999993,50.46279449999997 L 83.52946199999997,54.66279450000002" fill="none" stroke="rgb(89,89,89)" stroke-width="0.1"/>
  <path d="M 83.52946199999997,54.66279450000002 L 86.10946200000001,54.66279450000002" fill="none" stroke="rgb(89,89,89)" stroke-width="0.1"/>
  <path d="M 86.10946200000001,54.66279450000002 L 82.18146200000001,60.062794499999995" fill="none" stroke="rgb(89,89,89)" stroke-width="0.1"/>
  <path d="M 82.18146200000001,60.062794499999995 L 83.97646199999997,55.86279450000001" fill="none" stroke="rgb(89,89,89)" stroke-width="0.1"/>
  <path d="M 83.97646199999997,55.86279450000001 L 81.39646199999993,55.86279450000001" fill="none" stroke="rgb(89,89,89)" stroke-width="0.1"/>
  <path d="M 81.39646199999993,55.86279450000001 L 85.32446199999993,50.46279449999997" fill="none" stroke="rgb(89,89,89)" stroke-width="0.1"/>
  <path d="M 85.32446199999993,74.80679449999997 L 83.52946199999997,79.00679450000001" fill="none" stroke="rgb(89,89,89)" stroke-width="0.1"/>
  <path d="M 83.52946199999997,79.00679450000001 L 86.10946200000001,79.00679450000001" fill="none" stroke="rgb(89,89,89)" stroke-width="0.1"/>
  <path d="M 86.10946200000001,79.00679450000001 L 82.18146200000001,84.40679449999999" fill="none" stroke="rgb(89,89,89)" stroke-width="0.1"/>
  <path d="M 82.18146200000001,84.40679449999999 L 83.97646199999997,80.2067945" fill="none" stroke="rgb(89,89,89)" stroke-width="0.1"/>
  <path d="M 83.97646199999997,80.2067945 L 81.39646199999993,80.2067945" fill="none" stroke="rgb(89,89,89)" stroke-width="0.1"/>
  <path d="M 81.39646199999993,80.2067945 L 85.32446199999993,74.80679449999997" fill="none" stroke="rgb(89,89,89)" stroke-width="0.1"/>
  <path d="M 85.32446199999993,99.4857945 L 85.10470036369043,100.0" fill="none" stroke="rgb(89,89,89)" stroke-width="0.1"/>
  <path d="M 84.95042511037025,100.0 L 85.32446199999993,99.4857945" fill="none" stroke="rgb(89,89,89)" stroke-width="0.1"/>
  <path d="M 83.97427774464279,0.0 L 83.52946199999997,1.040794500000004" fill="none" stroke="rgb(89,89,89)" stroke-width="0.1"/>
  <path d="M 83.52946199999997,1.040794500000004 L 86.10946200000001,1.040794500000004" fill="none" stroke="rgb(89,89,89)" stroke-width="0.1"/>
  <path d="M 86.10946200000001,1.040794500000004 L 82.18146200000001,6.440794499999981" fill="none" stroke="rgb(89,89,89)" stroke-width="0.1"/>
  <path d="M 82.18146200000001,6.440794499999981 L 83.97646199999997,2.2407944999999927" fill="none" stroke="rgb(89,89,89)" stroke-width="0.1"/>
  <path d="M 83.97646199999997,2.2407944999999927 L 81.39646199999993,2.2407944999999927" fill="none" stroke="rgb(89,89,89)" stroke-width="0.1"/>
  <path d="M 81.39646199999993,2.2407944999999927 L 83.02643251777772,0.0" fill="none" stroke="rgb(89,89,89)" stroke-width="0.1"/>
  <path d="M 85.32446199999993,21.18479450000001 L 83.52946199999997,25.384794499999998" fill="none" stroke="rgb(89,89,89)" stroke-width="0.1"/>
  <path d="M 83.52946199999997,25.384794499999998 L 86.10946200000001,25.384794499999998" fill="none" stroke="rgb(89,89,89)" stroke-width="0.1"/>
  <path d="M 86.10946200000001,25.384794499999998 L 82.18146200000001,30.784794499999975" fill="none" stroke="rgb(89,89,89)" stroke-width="0.1"/>
  <path d="M 82.18146200000001,30.784794499999975 L 83.97646199999997,26.584794499999987" fill="none" stroke="rgb(89,89,89)" stroke-width="0.1"/>
  <path d="M 83.97646199999997,26.584794499999987 L 81.39646199999993,26.584794499999987" fill="none" stroke="rgb(89,89,89)" stroke-width="0.1"/>
  <path d="M 81.39646199999993,26.584794499999987 L 85.32446199999993,21.18479450000001" fill="none" stroke="rgb(89,89,89)" stroke-width="0.1"/>
  <path d="M 86.10946200000001,54.66279450000002 L 82.18146200000001,60.062794499999995" fill="none" stroke="rgb(89,89,89)" stroke-width="0.1"/>
  <path d="M 82.18146200000001,60.062794499999995 L 83.97646199999997,55.86279450000001" fill="none" stroke="rgb(89,89,89)" stroke-width="0.1"/>
  <path d="M 83.97646199999997,55.86279450000001 L 81.39646199999993,55.86279450000001" fill="none" stroke="rgb(89,89,89)" stroke-width="0.1"/>
  <path d="M 81.39646199999993,55.86279450000001 L 85.32446199999993,50.46279449999997" fill="none" stroke="rgb(89,89,89)" stroke-width="0.1"/>
  <path d="M 85.32446199999993,50.46279449999997 L 83.52946199999997,54.66279450000002" fill="none" stroke="rgb(89,89,89)" stroke-width="0.1"/>
  <path d="M 83.52946199999997,54.66279450000002 L 86.10946200000001,54.66279450000002" fill="none" stroke="rgb(89,89,89)" stroke-width="0.1"/>
  <path d="M 86.10946200000001,79.00679450000001 L 82.18146200000001,84.40679449999999" fill="none" stroke="rgb(89,89,89)" stroke-width="0.1"/>
  <path d="M 82.18146200000001,84.40679449999999 L 83.97646199999997,80.2067945" fill="none" stroke="rgb(89,89,89)" stroke-width="0.1"/>
  <path d="M 83.97646199999997,80.2067945 L 81.39646199999993,80.2067945" fill="none" stroke="rgb(89,89,89)" stroke-width="0.1"/>
  <path d="M 81.39646199999993,80.2067945 L 85.32446199999993,74.80679449999997" fill="none" stroke="rgb(89,89,89)" stroke-width="0.1"/>
  <path d="M 85.32446199999993,74.80679449999997 L 83.52946199999997,79.00679450000001" fill="none" stroke="rgb(89,89,89)" stroke-width="0.1"/>
  <path d="M 83.52946199999997,79.00679450000001 L 86.10946200000001,79.00679450000001" fill="none" stroke="rgb(89,89,89)" stroke-width="0.1"/>
  <path d="M 84.95042511037025,100.0 L 85.32446199999993,99.4857945" fill="none" stroke="rgb(89,89,89)" stroke-width="0.1"/>
  <path d="M 85.32446199999993,99.4857945 L 85.10470036369043,100.0" fill="none" stroke="rgb(89,89,89)" stroke-width="0.1"/>
  <path d="M 86.10946200000001,1.040794500000004 L 82.18146200000001,6.440794499999981" fill="none" stroke="rgb(89,89,89)" stroke-width="0.1"/>
  <path d="M 82.18146200000001,6.440794499999981 L 83.97646199999997,2.2407944999999927" fill="none" stroke="rgb(89,89,89)" stroke-width="0.1"/>
  <path d="M 83.97646199999997,2.2407944999999927 L 81.39646199999993,2.2407944999999927" fill="none" stroke="rgb(89,89,89)" stroke-width="0.1"/>
  <path d="M 81.39646199999993,2.2407944999999927 L 83.02643251777772,0.0" fill="none" stroke="rgb(89,89,89)" stroke-width="0.1"/>
  <path d="M 83.97427774464279,0.0 L 83.52946199999997,1.040794500000004" fill="none" stroke="rgb(89,89,89)" stroke-width="0.1"/>
  <path d="M 83.52946199999997,1.040794500000004 L 86.10946200000001,1.040794500000004" fill="none" stroke="rgb(89,89,89)" stroke-width="0.1"/>
  <path d="M 86.10946200000001,25.384794499999998 L 82.18146200000001,30.784794499999975" fill="none" stroke="rgb(89,89,89)" stroke-width="0.1"/>
  <path d="M 82.18146200000001,30.784794499999975 L 83.97646199999997,26.584794499999987" fill="none" stroke="rgb(89,89,89)" stroke-width="0.1"/>
  <path d="M 83.97646199999997,26.584794499999987 L 81.39646199999993,26.584794499999987" fill="none" stroke="rgb(89,89,89)" stroke-width="0.1"/>
  <path d="M 81.39646199999993,26.584794499999987 L 85.32446199999993,21.18479450000001" fill="none" stroke="rgb(89,89,89)" stroke-width="0.1"/>
  <path d="M 85.32446199999993,21.18479450000001 L 83.52946199999997,25.384794499999998" fill="none" stroke="rgb(89,89,89)" stroke-width="0.1"/>
  <path d="M 83.52946199999997,25.384794499999998 L 86.10946200000001,25.384794499999998" fill="none" stroke="rgb(89,89,89)" stroke-width="0.1"/>
  <circle cx="84.13146199999994" cy="55.262794499999984" fill="none" r="7.5" stroke="rgb(89,89,89)" stroke-width="0.1"/>
  <circle cx="84.13146199999994" cy="55.262794499999984" fill="none" r="6" stroke="rgb(89,89,89)" stroke-width="0.1"/>
  <circle cx="84.13146199999994" cy="79.60679449999998" fill="none" r="7.5" stroke="rgb(89,89,89)" stroke-width="0.1"/>
  <circle cx="84.13146199999994" cy="79.60679449999998" fill="none" r="6" stroke="rgb(89,89,89)" stroke-width="0.1"/>
  <circle cx="84.13146199999994" cy="25.98479450000002" fill="none" r="7.5" stroke="rgb(89,89,89)" stroke-width="0.1"/>
  <circle cx="84.13146199999994" cy="25.98479450000002" fill="none" r="6" stroke="rgb(89,89,89)" stroke-width="0.1"/>
 </g>
</svg>