<?xml version="1.0" encoding="utf-8"?>
<svg style="background-color: #000;" version="1.1" viewBox="0 0 100.0 100.0" xmlns="http://www.w3.org/2000/svg" xmlns:inkscape="http://www.inkscape.org/namespaces/inkscape">
 <g id="layerCAR" inkscape:groupmode="layer" inkscape:label="CAR">
  <path d="M 0.04146199999996725,46.373794499999974 L 0.04146199999996725,44.77379450000001" fill="none" instance-id="-1" semantic-id="35" stroke="rgb(26,39,53)" stroke-width="0.1"/>
  <path d="M 0.04146199999996725,46.373794499999974 L 0.0,46.373794499999974" fill="none" instance-id="-1" semantic-id="35" stroke="rgb(26,39,53)" stroke-width="0.1"/>
  <path d="M 0.04146199999996725,44.77379450000001 L 0.0,44.77379450000001" fill="none" instance-id="-1" semantic-id="35" stroke="rgb(26,39,53)" stroke-width="0.1"/>
  <path d="M 2.5414619999999672,32.57379450000002 L 0.0,32.57379450000002" fill="none" instance-id="-1" semantic-id="35" stroke="rgb(26,39,53)" stroke-width="0.1"/>
  <path d="M 2.5414619999999672,85.57379450000002 L 2.5414619999999672,32.57379450000002" fill="none" instance-id="-1" semantic-id="35" stroke="rgb(26,39,53)" stroke-width="0.1"/>
  <path d="M 0.0,85.57379450000002 L 2.5414619999999672,85.57379450000002" fill="none" instance-id="-1" semantic-id="35" stroke="rgb(26,39,53)" stroke-width="0.1"/>
  <path d="M 0.04146199999996725,45.57379450000002 L 0.0,45.57379450000002" fill="none" instance-id="-1" semantic-id="35" stroke="rgb(26,39,53)" stroke-width="0.1"/>
  <path d="M 5.041461999999967,44.77379450000001 L 5.041461999999967,46.373794499999974" fill="none" instance-id="-1" semantic-id="35" stroke="rgb(26,39,53)" stroke-width="0.1"/>
  <path d="M 24.041461999999967,46.373794499999974 L 24.041461999999967,44.77379450000001" fill="none" instance-id="-1" semantic-id="35" stroke="rgb(26,39,53)" stroke-width="0.1"/>
  <path d="M 24.041461999999967,46.373794499999974 L 5.041461999999967,46.373794499999974" fill="none" instance-id="-1" semantic-id="35" stroke="rgb(26,39,53)" stroke-width="0.1"/>
  <path d="M 24.041461999999967,44.77379450000001 L 5.041461999999967,44.77379450000001" fill="none" instance-id="-1" semantic-id="35" stroke="rgb(26,39,53)" stroke-width="0.1"/>
  <path d="M 26.541461999999967,32.57379450000002 L 2.5414619999999672,32.57379450000002" fill="none" instance-id="-1" semantic-id="35" stroke="rgb(26,39,53)" stroke-width="0.1"/>
  <path d="M 26.541461999999967,85.57379450000002 L 26.541461999999967,32.57379450000002" fill="none" instance-id="-1" semantic-id="35" stroke="rgb(26,39,53)" stroke-width="0.1"/>
  <path d="M 2.5414619999999672,85.57379450000002 L 26.541461999999967,85.57379450000002" fill="none" instance-id="-1" semantic-id="35" stroke="rgb(26,39,53)" stroke-width="0.1"/>
  <path d="M 2.5414619999999672,32.57379450000002 L 2.5414619999999672,85.57379450000002" fill="none" instance-id="-1" semantic-id="35" stroke="rgb(26,39,53)" stroke-width="0.1"/>
  <path d="M 24.041461999999967,45.57379450000002 L 5.041461999999967,45.57379450000002" fill="none" instance-id="-1" semantic-id="35" stroke="rgb(26,39,53)" stroke-width="0.1"/>
  <path d="M 29.041461999999967,44.77379450000001 L 29.041461999999967,46.373794499999974" fill="none" instance-id="-1" semantic-id="35" stroke="rgb(26,39,53)" stroke-width="0.1"/>
  <path d="M 48.04146199999997,46.373794499999974 L 48.04146199999997,44.77379450000001" fill="none" instance-id="-1" semantic-id="35" stroke="rgb(26,39,53)" stroke-width="0.1"/>
  <path d="M 48.04146199999997,46.373794499999974 L 29.041461999999967,46.373794499999974" fill="none" instance-id="-1" semantic-id="35" stroke="rgb(26,39,53)" stroke-width="0.1"/>
  <path d="M 48.04146199999997,44.77379450000001 L 29.041461999999967,44.77379450000001" fill="none" instance-id="-1" semantic-id="35" stroke="rgb(26,39,53)" stroke-width="0.1"/>
  <path d="M 50.54146199999997,32.57379450000002 L 26.541461999999967,32.57379450000002" fill="none" instance-id="-1" semantic-id="35" stroke="rgb(26,39,53)" stroke-width="0.1"/>
  <path d="M 50.54146199999997,85.57379450000002 L 50.54146199999997,32.57379450000002" fill="none" instance-id="-1" semantic-id="35" stroke="rgb(26,39,53)" stroke-width="0.1"/>
  <path d="M 26.541461999999967,85.57379450000002 L 50.54146199999997,85.57379450000002" fill="none" instance-id="-1" semantic-id="35" stroke="rgb(26,39,53)" stroke-width="0.1"/>
  <path d="M 26.541461999999967,32.57379450000002 L 26.541461999999967,85.57379450000002" fill="none" instance-id="-1" semantic-id="35" stroke="rgb(26,39,53)" stroke-width="0.1"/>
  <path d="M 48.04146199999997,45.57379450000002 L 29.041461999999967,45.57379450000002" fill="none" instance-id="-1" semantic-id="35" stroke="rgb(26,39,53)" stroke-width="0.1"/>
  <path d="M 60.79146199999997,44.77379450000001 L 60.79146199999997,46.373794499999974" fill="none" instance-id="-1" semantic-id="35" stroke="rgb(26,39,53)" stroke-width="0.1"/>
  <path d="M 79.79146199999997,46.373794499999974 L 79.79146199999997,44.77379450000001" fill="none" instance-id="-1" semantic-id="35" stroke="rgb(26,39,53)" stroke-width="0.1"/>
  <path d="M 79.79146199999997,46.373794499999974 L 60.79146199999997,46.373794499999974" fill="none" instance-id="-1" semantic-id="35" stroke="rgb(26,39,53)" stroke-width="0.1"/>
  <path d="M 79.79146199999997,44.77379450000001 L 60.79146199999997,44.77379450000001" fill="none" instance-id="-1" semantic-id="35" stroke="rgb(26,39,53)" stroke-width="0.1"/>
  <path d="M 82.29146199999997,32.57379450000002 L 58.29146199999997,32.57379450000002" fill="none" instance-id="-1" semantic-id="35" stroke="rgb(26,39,53)" stroke-width="0.1"/>
  <path d="M 82.29146199999997,85.57379450000002 L 82.29146199999997,32.57379450000002" fill="none" instance-id="-1" semantic-id="35" stroke="rgb(26,39,53)" stroke-width="0.1"/>
  <path d="M 58.29146199999997,85.57379450000002 L 82.29146199999997,85.57379450000002" fill="none" instance-id="-1" semantic-id="35" stroke="rgb(26,39,53)" stroke-width="0.1"/>
  <path d="M 58.29146199999997,32.57379450000002 L 58.29146199999997,85.57379450000002" fill="none" instance-id="-1" semantic-id="35" stroke="rgb(26,39,53)" stroke-width="0.1"/>
  <path d="M 79.79146199999997,45.57379450000002 L 60.79146199999997,45.57379450000002" fill="none" instance-id="-1" semantic-id="35" stroke="rgb(26,39,53)" stroke-width="0.1"/>
  <path d="M 5.541461999999967,35.07379450000002 L 23.541461999999967,35.07379450000002" fill="none" instance-id="-1" semantic-id="35" stroke="rgb(26,39,53)" stroke-width="0.1"/>
  <path d="M 23.541461999999967,35.07379450000002 L 23.541461999999967,83.07379450000002" fill="none" instance-id="-1" semantic-id="35" stroke="rgb(26,39,53)" stroke-width="0.1"/>
  <path d="M 23.541461999999967,83.07379450000002 L 5.541461999999967,83.07379450000002" fill="none" instance-id="-1" semantic-id="35" stroke="rgb(26,39,53)" stroke-width="0.1"/>
  <path d="M 5.541461999999967,83.07379450000002 L 5.541461999999967,35.07379450000002" fill="none" instance-id="-1" semantic-id="35" stroke="rgb(26,39,53)" stroke-width="0.1"/>
  <path d="M 29.541461999999967,35.07379450000002 L 47.54146199999997,35.07379450000002" fill="none" instance-id="-1" semantic-id="35" stroke="rgb(26,39,53)" stroke-width="0.1"/>
  <path d="M 47.54146199999997,35.07379450000002 L 47.54146199999997,83.07379450000002" fill="none" instance-id="-1" semantic-id="35" stroke="rgb(26,39,53)" stroke-width="0.1"/>
  <path d="M 47.54146199999997,83.07379450000002 L 29.541461999999967,83.07379450000002" fill="none" instance-id="-1" semantic-id="35" stroke="rgb(26,39,53)" stroke-width="0.1"/>
  <path d="M 29.541461999999967,83.07379450000002 L 29.541461999999967,35.07379450000002" fill="none" instance-id="-1" semantic-id="35" stroke="rgb(26,39,53)" stroke-width="0.1"/>
  <path d="M 61.29146199999997,35.07379450000002 L 79.29146199999997,35.07379450000002" fill="none" instance-id="-1" semantic-id="35" stroke="rgb(26,39,53)" stroke-width="0.1"/>
  <path d="M 79.29146199999997,35.07379450000002 L 79.29146199999997,83.07379450000002" fill="none" instance-id="-1" semantic-id="35" stroke="rgb(26,39,53)" stroke-width="0.1"/>
  <path d="M 79.29146199999997,83.07379450000002 L 61.29146199999997,83.07379450000002" fill="none" instance-id="-1" semantic-id="35" stroke="rgb(26,39,53)" stroke-width="0.1"/>
  <path d="M 61.29146199999997,83.07379450000002 L 61.29146199999997,35.07379450000002" fill="none" instance-id="-1" semantic-id="35" stroke="rgb(26,39,53)" stroke-width="0.1"/>
 </g>
 <g id="layerCOLU" inkscape:groupmode="layer" inkscape:label="COLU">
  <path d="M 51.721461999999974,73.8267945 L 58.221461999999974,73.8267945" fill="none" stroke="rgb(255,73,12)" stroke-width="0.1"/>
  <path d="M 58.221461999999974,73.8267945 L 58.221461999999974,67.3267945" fill="none" stroke="rgb(255,73,12)" stroke-width="0.1"/>
  <path d="M 58.221461999999974,67.3267945 L 51.721461999999974,67.3267945" fill="none" stroke="rgb(255,73,12)" stroke-width="0.1"/>
  <path d="M 51.721461999999974,67.3267945 L 51.721461999999974,73.8267945" fill="none" stroke="rgb(255,73,12)" stroke-width="0.1"/>
  <path d="M 51.721461999999974,73.8267945 L 58.221461999999974,73.8267945" fill="none" stroke="rgb(255,73,12)" stroke-width="0.1"/>
  <path d="M 58.221461999999974,73.8267945 L 58.221461999999974,67.3267945" fill="none" stroke="rgb(255,73,12)" stroke-width="0.1"/>
  <path d="M 58.221461999999974,67.3267945 L 51.721461999999974,67.3267945" fill="none" stroke="rgb(255,73,12)" stroke-width="0.1"/>
  <path d="M 51.721461999999974,67.3267945 L 51.721461999999974,73.8267945" fill="none" stroke="rgb(255,73,12)" stroke-width="0.1"/>
  <path d="M 51.721461999999974,73.8267945 L 58.221461999999974,73.8267945" fill="none" stroke="rgb(255,73,12)" stroke-width="0.1"/>
  <path d="M 58.221461999999974,73.8267945 L 58.221461999999974,67.3267945" fill="none" stroke="rgb(255,73,12)" stroke-width="0.1"/>
  <path d="M 58.221461999999974,67.3267945 L 51.721461999999974,67.3267945" fill="none" stroke="rgb(255,73,12)" stroke-width="0.1"/>
  <path d="M 51.721461999999974,67.3267945 L 51.721461999999974,73.8267945" fill="none" stroke="rgb(255,73,12)" stroke-width="0.1"/>
  <path d="M 51.471461999999974,30.673794499999985 L 58.471461999999974,30.673794499999985" fill="none" stroke="rgb(255,73,12)" stroke-width="0.1"/>
  <path d="M 58.471461999999974,30.673794499999985 L 58.471461999999974,25.673794499999985" fill="none" stroke="rgb(255,73,12)" stroke-width="0.1"/>
  <path d="M 58.471461999999974,25.673794499999985 L 51.471461999999974,25.673794499999985" fill="none" stroke="rgb(255,73,12)" stroke-width="0.1"/>
  <path d="M 51.471461999999974,25.673794499999985 L 51.471461999999974,30.673794499999985" fill="none" stroke="rgb(255,73,12)" stroke-width="0.1"/>
 </g>
 <g id="layerCOLU_HATCH" inkscape:groupmode="layer" inkscape:label="COLU_HATCH">
  <path d="M 51.721461999999974,73.8267945 L 58.221461999999974,73.8267945" fill="none" stroke="rgb(92,92,92)" stroke-width="0.1"/>
  <path d="M 58.221461999999974,73.8267945 L 58.221461999999974,67.3267945" fill="none" stroke="rgb(92,92,92)" stroke-width="0.1"/>
  <path d="M 58.221461999999974,67.3267945 L 51.721461999999974,67.3267945" fill="none" stroke="rgb(92,92,92)" stroke-width="0.1"/>
  <path d="M 51.721461999999974,67.3267945 L 51.721461999999974,73.8267945" fill="none" stroke="rgb(92,92,92)" stroke-width="0.1"/>
  <path d="M 51.721461999999974,73.8267945 L 58.221461999999974,73.8267945" fill="none" stroke="rgb(92,92,92)" stroke-width="0.1"/>
  <path d="M 58.221461999999974,73.8267945 L 58.221461999999974,67.3267945" fill="none" stroke="rgb(92,92,92)" stroke-width="0.1"/>
  <path d="M 58.221461999999974,67.3267945 L 51.721461999999974,67.3267945" fill="none" stroke="rgb(92,92,92)" stroke-width="0.1"/>
  <path d="M 51.721461999999974,67.3267945 L 51.721461999999974,73.8267945" fill="none" stroke="rgb(92,92,92)" stroke-width="0.1"/>
  <path d="M 51.721461999999974,73.8267945 L 58.221461999999974,73.8267945" fill="none" stroke="rgb(92,92,92)" stroke-width="0.1"/>
  <path d="M 58.221461999999974,73.8267945 L 58.221461999999974,67.3267945" fill="none" stroke="rgb(92,92,92)" stroke-width="0.1"/>
  <path d="M 58.221461999999974,67.3267945 L 51.721461999999974,67.3267945" fill="none" stroke="rgb(92,92,92)" stroke-width="0.1"/>
  <path d="M 51.721461999999974,67.3267945 L 51.721461999999974,73.8267945" fill="none" stroke="rgb(92,92,92)" stroke-width="0.1"/>
  <path d="M 51.471461999999974,30.687794499999995 L 58.471461999999974,30.673794499999985" fill="none" stroke="rgb(92,92,92)" stroke-width="0.1"/>
  <path d="M 58.471461999999974,30.673794499999985 L 58.471461999999974,25.673794499999985" fill="none" stroke="rgb(92,92,92)" stroke-width="0.1"/>
  <path d="M 58.471461999999974,25.673794499999985 L 51.471461999999974,25.687794499999995" fill="none" stroke="rgb(92,92,92)" stroke-width="0.1"/>
  <path d="M 51.471461999999974,25.687794499999995 L 51.471461999999974,30.687794499999995" fill="none" stroke="rgb(92,92,92)" stroke-width="0.1"/>
 </g>
 <g id="layerDOOR_FIRE" inkscape:groupmode="layer" inkscape:label="DOOR_FIRE">
  <path d="M 23.072461999999973,2.6767944999999713 L 23.57446959224518,2.6650639220893595" fill="none" stroke="rgb(178,178,0)" stroke-width="0.1"/>
  <path d="M 23.57446959224518,2.6650639220893595 L 24.075377880388885,2.6298486413311366" fill="none" stroke="rgb(178,178,0)" stroke-width="0.1"/>
  <path d="M 24.075377880388885,2.6298486413311366 L 24.574088816594212,2.5712258536188415" fill="none" stroke="rgb(178,178,0)" stroke-width="0.1"/>
  <path d="M 24.574088816594212,2.5712258536188415 L 25.069509169869093,2.489324066758684" fill="none" stroke="rgb(178,178,0)" stroke-width="0.1"/>
  <path d="M 25.069509169869093,2.489324066758684 L 25.56055292255303,2.384322818765895" fill="none" stroke="rgb(178,178,0)" stroke-width="0.1"/>
  <path d="M 25.56055292255303,2.384322818765895 L 26.0461436509907,2.256452284297211" fill="none" stroke="rgb(178,178,0)" stroke-width="0.1"/>
  <path d="M 26.0461436509907,2.256452284297211 L 26.525216885175098,2.1059927700816274" fill="none" stroke="rgb(178,178,0)" stroke-width="0.1"/>
  <path d="M 26.525216885175098,2.1059927700816274 L 26.996722442186694,1.9332741004562877" fill="none" stroke="rgb(178,178,0)" stroke-width="0.1"/>
  <path d="M 26.996722442186694,1.9332741004562877 L 27.459626728313253,1.7386748943541193" fill="none" stroke="rgb(178,178,0)" stroke-width="0.1"/>
  <path d="M 27.459626728313253,1.7386748943541193 L 27.91291500480503,1.5226217353283005" fill="none" stroke="rgb(178,178,0)" stroke-width="0.1"/>
  <path d="M 27.91291500480503,1.5226217353283005 L 28.35559361229707,1.2855882364323747" fill="none" stroke="rgb(178,178,0)" stroke-width="0.1"/>
  <path d="M 28.35559361229707,1.2855882364323747 L 28.78669214902345,1.0280940020069806" fill="none" stroke="rgb(178,178,0)" stroke-width="0.1"/>
  <path d="M 28.78669214902345,1.0280940020069806 L 29.2052655980479,0.7507034886477868" fill="none" stroke="rgb(178,178,0)" stroke-width="0.1"/>
  <path d="M 29.2052655980479,0.7507034886477868 L 29.610396398848707,0.4540247678528999" fill="none" stroke="rgb(178,178,0)" stroke-width="0.1"/>
  <path d="M 29.610396398848707,0.4540247678528999 L 30.0011964587149,0.1387081930610634" fill="none" stroke="rgb(178,178,0)" stroke-width="0.1"/>
  <path d="M 35.622461999999985,15.898794500000008 A 10.725,10.725 0.0 0,0 46.07246199999997,5.176794499999971" fill="none" instance-id="1" semantic-id="3" stroke="rgb(178,178,0)" stroke-width="0.1"/>
  <path d="M 35.622461999999985,15.901794499999994 L 35.622461999999985,5.176794499999971" fill="none" instance-id="1" semantic-id="3" stroke="rgb(178,178,0)" stroke-width="0.1"/>
  <path d="M 35.622461999999985,5.176794499999971 L 35.07246199999997,5.176794499999971" fill="none" instance-id="1" semantic-id="3" stroke="rgb(178,178,0)" stroke-width="0.1"/>
  <path d="M 35.07246199999997,5.176794499999971 L 35.07246199999997,15.901794499999994" fill="none" instance-id="1" semantic-id="3" stroke="rgb(178,178,0)" stroke-width="0.1"/>
  <path d="M 35.07246199999997,15.901794499999994 L 35.622461999999985,15.901794499999994" fill="none" instance-id="1" semantic-id="3" stroke="rgb(178,178,0)" stroke-width="0.1"/>
 </g>
 <g id="layerDOOR_FIRE_TEXT" inkscape:groupmode="layer" inkscape:label="DOOR_FIRE_TEXT">
  <text fill="rgb(0,0,0)" font-family="Noto Sans CJK SC" font-size="2" transform="rotate(-90.0,20.14946199999997,1.9387944999999718)" x="20.14946199999997" y="1.9387944999999718">
   FM甲1121
  </text>
  <text fill="rgb(0,0,0)" font-family="Noto Sans CJK SC" font-size="2" transform="rotate(-360.0,35.81046199999997,1.8407945000000154)" x="35.81046199999997" y="1.8407945000000154">
   FM乙1121
  </text>
 </g>
 <g id="layerDOTE" inkscape:groupmode="layer" inkscape:label="DOTE">
  <path d="M 0.0,70.5767945 L 100.0,70.5767945" fill="none" stroke="rgb(88,0,0)" stroke-width="0.1"/>
  <path d="M 0.0,16.576794500000005 L 100.0,16.576794500000005" fill="none" stroke="rgb(88,0,0)" stroke-width="0.1"/>
  <path d="M 54.971461999999974,100.0 L 54.971461999999974,0.0" fill="none" stroke="rgb(88,0,0)" stroke-width="0.1"/>
  <path d="M 0.0,80.5767945 L 100.0,80.5767945" fill="none" stroke="rgb(88,0,0)" stroke-width="0.1"/>
 </g>
 <g id="layerG归家路线" inkscape:groupmode="layer" inkscape:label="G归家路线">
  <path d="M 70.45946199999997,0.45779449999997723 L 70.91725649999995,0.0" fill="none" stroke="rgb(0,133,178)" stroke-width="0.1"/>
  <path d="M 70.45946199999997,1.3207944999999768 L 71.75246199999998,0.02679449999999406" fill="none" stroke="rgb(0,133,178)" stroke-width="0.1"/>
  <path d="M 70.45946199999997,2.1827945 L 71.75246199999998,0.8887945000000173" fill="none" stroke="rgb(0,133,178)" stroke-width="0.1"/>
  <path d="M 72.18346199999996,0.45779449999997723 L 72.64125649999994,0.0" fill="none" stroke="rgb(0,133,178)" stroke-width="0.1"/>
  <path d="M 70.45946199999997,3.044794500000023 L 71.75246199999998,1.7517945000000168" fill="none" stroke="rgb(0,133,178)" stroke-width="0.1"/>
  <path d="M 72.18346199999996,1.3207944999999768 L 72.82246199999997,0.6807944999999904" fill="none" stroke="rgb(0,133,178)" stroke-width="0.1"/>
  <path d="M 70.45946199999997,3.9067944999999895 L 71.75246199999998,2.613794499999983" fill="none" stroke="rgb(0,133,178)" stroke-width="0.1"/>
  <path d="M 72.18346199999996,2.1827945 L 72.82246199999997,1.54379449999999" fill="none" stroke="rgb(0,133,178)" stroke-width="0.1"/>
  <path d="M 71.05146199999996,4.176794499999971 L 71.75246199999998,3.4757945000000063" fill="none" stroke="rgb(0,133,178)" stroke-width="0.1"/>
  <path d="M 72.18346199999996,3.044794500000023 L 72.82246199999997,2.405794500000013" fill="none" stroke="rgb(0,133,178)" stroke-width="0.1"/>
  <path d="M 72.18346199999996,3.9067944999999895 L 72.82246199999997,3.2677944999999795" fill="none" stroke="rgb(0,133,178)" stroke-width="0.1"/>
  <path d="M 72.775462,4.176794499999971 L 72.82246199999997,4.129794500000003" fill="none" stroke="rgb(0,133,178)" stroke-width="0.1"/>
  <path d="M 70.73046199999999,4.176794499999971 L 70.32246199999997,3.769794499999989" fill="none" stroke="rgb(0,133,178)" stroke-width="0.1"/>
  <path d="M 71.59246199999995,4.176794499999971 L 71.321462,3.9067944999999895" fill="none" stroke="rgb(0,133,178)" stroke-width="0.1"/>
  <path d="M 70.89046199999996,3.4757945000000063 L 70.32246199999997,2.9077945000000227" fill="none" stroke="rgb(0,133,178)" stroke-width="0.1"/>
  <path d="M 72.45446199999998,4.176794499999971 L 71.321462,3.044794500000023" fill="none" stroke="rgb(0,133,178)" stroke-width="0.1"/>
  <path d="M 70.89046199999996,2.613794499999983 L 70.32246199999997,2.0457944999999995" fill="none" stroke="rgb(0,133,178)" stroke-width="0.1"/>
  <path d="M 72.614462,3.4757945000000063 L 71.321462,2.1827945" fill="none" stroke="rgb(0,133,178)" stroke-width="0.1"/>
  <path d="M 70.89046199999996,1.7517945000000168 L 70.32246199999997,1.1837944999999763" fill="none" stroke="rgb(0,133,178)" stroke-width="0.1"/>
  <path d="M 72.614462,2.613794499999983 L 71.321462,1.3207944999999768" fill="none" stroke="rgb(0,133,178)" stroke-width="0.1"/>
  <path d="M 70.89046199999996,0.8887945000000173 L 70.32246199999997,0.32179450000001" fill="none" stroke="rgb(0,133,178)" stroke-width="0.1"/>
  <path d="M 72.614462,1.7517945000000168 L 71.321462,0.45779449999997723" fill="none" stroke="rgb(0,133,178)" stroke-width="0.1"/>
  <path d="M 70.89046199999996,0.02679449999999406 L 70.86362024338621,0.0" fill="none" stroke="rgb(0,133,178)" stroke-width="0.1"/>
  <path d="M 72.614462,0.8887945000000173 L 71.72566749999999,0.0" fill="none" stroke="rgb(0,133,178)" stroke-width="0.1"/>
  <path d="M 72.614462,0.02679449999999406 L 72.58766750000001,0.0" fill="none" stroke="rgb(0,133,178)" stroke-width="0.1"/>
  <path d="M 70.32246199999997,0.0 L 70.32246199999997,4.176794499999971" fill="none" stroke="rgb(0,133,178)" stroke-width="0.1"/>
  <path d="M 70.32246199999997,4.176794499999971 L 72.82246199999997,4.176794499999971" fill="none" stroke="rgb(0,133,178)" stroke-width="0.1"/>
  <path d="M 72.82246199999997,4.176794499999971 L 72.82246199999997,0.0" fill="none" stroke="rgb(0,133,178)" stroke-width="0.1"/>
  <path d="M 70.32246199999997,4.176794499999971 L 72.82246199999997,4.176794499999971" fill="none" stroke="rgb(0,133,178)" stroke-width="0.1"/>
  <path d="M 72.82246199999997,4.176794499999971 L 72.82246199999997,0.0" fill="none" stroke="rgb(0,133,178)" stroke-width="0.1"/>
  <path d="M 70.32246199999997,0.0 L 70.32246199999997,4.176794499999971" fill="none" stroke="rgb(0,133,178)" stroke-width="0.1"/>
 </g>
 <g id="layerOVER" inkscape:groupmode="layer" inkscape:label="OVER">
  <path d="M 97.63346199999995,35.24679450000002 L 92.487462,44.159794499999975" fill="none" stroke="rgb(178,0,0)" stroke-width="0.1"/>
  <path d="M 92.487462,44.159794499999975 L 100.0,44.159794499999975" fill="none" stroke="rgb(178,0,0)" stroke-width="0.1"/>
  <path d="M 100.0,39.345697180528646 L 97.63346199999995,35.24679450000002" fill="none" stroke="rgb(178,0,0)" stroke-width="0.1"/>
  <path d="M 92.487462,44.159794499999975 L 100.0,44.159794499999975" fill="none" stroke="rgb(178,0,0)" stroke-width="0.1"/>
  <path d="M 100.0,39.345697180528646 L 97.63346199999995,35.24679450000002" fill="none" stroke="rgb(178,0,0)" stroke-width="0.1"/>
  <path d="M 97.63346199999995,35.24679450000002 L 92.487462,44.159794499999975" fill="none" stroke="rgb(178,0,0)" stroke-width="0.1"/>
 </g>
 <g id="layerPUB_TEXT" inkscape:groupmode="layer" inkscape:label="PUB_TEXT">
  <text fill="rgb(0,0,0)" font-family="Noto Sans CJK SC" font-size="2" transform="rotate(-0.0,88.04846199999997,49.75179450000002)" x="88.04846199999997" y="49.75179450000002">
   13#防火分区消防安全出口-3
  </text>
 </g>
 <g id="layerWALL-MOVE" inkscape:groupmode="layer" inkscape:label="WALL-MOVE">
  <path d="M 32.07246199999997,20.671794499999976 L 32.07246199999997,6.176794499999971" fill="none" instance-id="-1" semantic-id="1" stroke="rgb(0,0,0)" stroke-width="0.1"/>
  <path d="M 34.07246199999997,20.671794499999976 L 34.07246199999997,6.176794499999971" fill="none" instance-id="-1" semantic-id="1" stroke="rgb(0,0,0)" stroke-width="0.1"/>
  <path d="M 32.07246199999997,20.671794499999976 L 34.07246199999997,20.671794499999976" fill="none" instance-id="-1" semantic-id="1" stroke="rgb(0,0,0)" stroke-width="0.1"/>
  <path d="M 24.072461999999973,4.176794499999971 L 33.07246199999997,4.176794499999971" fill="none" instance-id="-1" semantic-id="1" stroke="rgb(0,0,0)" stroke-width="0.1"/>
  <path d="M 22.072461999999973,6.176794499999971 L 32.07246199999997,6.176794499999971" fill="none" instance-id="-1" semantic-id="1" stroke="rgb(0,0,0)" stroke-width="0.1"/>
  <path d="M 22.072461999999973,6.176794499999971 L 22.072461999999973,2.6767944999999713" fill="none" instance-id="-1" semantic-id="1" stroke="rgb(0,0,0)" stroke-width="0.1"/>
  <path d="M 24.072461999999973,4.176794499999971 L 24.072461999999973,2.6767944999999713" fill="none" instance-id="-1" semantic-id="1" stroke="rgb(0,0,0)" stroke-width="0.1"/>
  <path d="M 22.072461999999973,2.6767944999999713 L 24.072461999999973,2.6767944999999713" fill="none" instance-id="-1" semantic-id="1" stroke="rgb(0,0,0)" stroke-width="0.1"/>
  <path d="M 33.07246199999997,4.176794499999971 L 35.07246199999997,4.176794499999971" fill="none" instance-id="-1" semantic-id="1" stroke="rgb(0,0,0)" stroke-width="0.1"/>
  <path d="M 34.07246199999997,6.176794499999971 L 35.07246199999997,6.176794499999971" fill="none" instance-id="-1" semantic-id="1" stroke="rgb(0,0,0)" stroke-width="0.1"/>
  <path d="M 35.07246199999997,4.176794499999971 L 35.07246199999997,6.176794499999971" fill="none" instance-id="-1" semantic-id="1" stroke="rgb(0,0,0)" stroke-width="0.1"/>
  <path d="M 46.07246199999997,4.176794499999971 L 70.32246199999997,4.176794499999971" fill="none" instance-id="-1" semantic-id="1" stroke="rgb(0,0,0)" stroke-width="0.1"/>
  <path d="M 46.07246199999997,6.176794499999971 L 70.32246199999997,6.176794499999971" fill="none" instance-id="-1" semantic-id="1" stroke="rgb(0,0,0)" stroke-width="0.1"/>
  <path d="M 46.07246199999997,4.176794499999971 L 46.07246199999997,6.176794499999971" fill="none" instance-id="-1" semantic-id="1" stroke="rgb(0,0,0)" stroke-width="0.1"/>
  <path d="M 70.32246199999997,4.176794499999971 L 70.32246199999997,6.176794499999971" fill="none" instance-id="-1" semantic-id="1" stroke="rgb(0,0,0)" stroke-width="0.1"/>
 </g>
 <g id="layerxref-p-丁-地下二层$0$DOOR_FIRE" inkscape:groupmode="layer" inkscape:label="xref-p-丁-地下二层$0$DOOR_FIRE">
  <path d="M 99.69019529739842,15.426137738427087 L 99.18484684565095,15.48021960673617" fill="none" instance-id="5" semantic-id="4" stroke="rgb(0,0,178)" stroke-width="0.1"/>
  <path d="M 99.18484684565095,15.48021960673617 L 98.68243540440955,15.556931078323657" fill="none" instance-id="5" semantic-id="4" stroke="rgb(0,0,178)" stroke-width="0.1"/>
  <path d="M 98.68243540440955,15.556931078323657 L 98.18397381244569,15.656117506327803" fill="none" instance-id="5" semantic-id="4" stroke="rgb(0,0,178)" stroke-width="0.1"/>
  <path d="M 98.18397381244569,15.656117506327803 L 97.69046694581306,15.777578935390068" fill="none" instance-id="5" semantic-id="4" stroke="rgb(0,0,178)" stroke-width="0.1"/>
  <path d="M 97.69046694581306,15.777578935390068 L 97.20290969206303,15.92107050475596" fill="none" instance-id="5" semantic-id="4" stroke="rgb(0,0,178)" stroke-width="0.1"/>
  <path d="M 97.20290969206303,15.92107050475596 L 96.72228494459597,16.086302941903114" fill="none" instance-id="5" semantic-id="4" stroke="rgb(0,0,178)" stroke-width="0.1"/>
  <path d="M 96.72228494459597,16.086302941903114 L 96.24956162119281,16.272943145701902" fill="none" instance-id="5" semantic-id="4" stroke="rgb(0,0,178)" stroke-width="0.1"/>
  <path d="M 96.24956162119281,16.272943145701902 L 95.78569271072053,16.480614857932096" fill="none" instance-id="5" semantic-id="4" stroke="rgb(0,0,178)" stroke-width="0.1"/>
  <path d="M 95.78569271072053,16.480614857932096 L 95.33161335194944,16.708899421802357" fill="none" instance-id="5" semantic-id="4" stroke="rgb(0,0,178)" stroke-width="0.1"/>
  <path d="M 95.33161335194944,16.708899421802357 L 94.88823894835599,16.95733662594364" fill="none" instance-id="5" semantic-id="4" stroke="rgb(0,0,178)" stroke-width="0.1"/>
  <path d="M 94.88823894835599,16.95733662594364 L 94.45646332271048,17.225425632174392" fill="none" instance-id="5" semantic-id="4" stroke="rgb(0,0,178)" stroke-width="0.1"/>
  <path d="M 94.45646332271048,17.225425632174392 L 94.03715691517073,17.512625985167688" fill="none" instance-id="5" semantic-id="4" stroke="rgb(0,0,178)" stroke-width="0.1"/>
  <path d="M 94.03715691517073,17.512625985167688 L 93.63116502851415,17.818358701984835" fill="none" instance-id="5" semantic-id="4" stroke="rgb(0,0,178)" stroke-width="0.1"/>
  <path d="M 93.63116502851415,17.818358701984835 L 93.23930612404541,18.142007439278757" fill="none" instance-id="5" semantic-id="4" stroke="rgb(0,0,178)" stroke-width="0.1"/>
  <path d="M 93.23930612404541,18.142007439278757 L 92.86237017161568,18.48291973581445" fill="none" instance-id="5" semantic-id="4" stroke="rgb(0,0,178)" stroke-width="0.1"/>
  <path d="M 92.86237017161568,18.48291973581445 L 92.5011170570786,18.84040832780113" fill="none" instance-id="5" semantic-id="4" stroke="rgb(0,0,178)" stroke-width="0.1"/>
  <path d="M 92.5011170570786,18.84040832780113 L 92.15627505039515,19.213752534385264" fill="none" instance-id="5" semantic-id="4" stroke="rgb(0,0,178)" stroke-width="0.1"/>
  <path d="M 92.15627505039515,19.213752534385264 L 91.8285393374743,19.602199710510433" fill="none" instance-id="5" semantic-id="4" stroke="rgb(0,0,178)" stroke-width="0.1"/>
  <path d="M 91.8285393374743,19.602199710510433 L 91.5185706187093,20.004966764215908" fill="none" instance-id="5" semantic-id="4" stroke="rgb(0,0,178)" stroke-width="0.1"/>
  <path d="M 91.5185706187093,20.004966764215908 L 91.22699377703583,20.421241735314425" fill="none" instance-id="5" semantic-id="4" stroke="rgb(0,0,178)" stroke-width="0.1"/>
  <path d="M 91.22699377703583,20.421241735314425 L 90.95439661819609,20.850185432267608" fill="none" instance-id="5" semantic-id="4" stroke="rgb(0,0,178)" stroke-width="0.1"/>
  <path d="M 90.95439661819609,20.850185432267608 L 90.70132868574893,21.290933123957927" fill="none" instance-id="5" semantic-id="4" stroke="rgb(0,0,178)" stroke-width="0.1"/>
  <path d="M 90.70132868574893,21.290933123957927 L 90.46830015321507,21.742596282947545" fill="none" instance-id="5" semantic-id="4" stroke="rgb(0,0,178)" stroke-width="0.1"/>
  <path d="M 90.46830015321507,21.742596282947545 L 90.25578079559017,22.204264376709773" fill="none" instance-id="5" semantic-id="4" stroke="rgb(0,0,178)" stroke-width="0.1"/>
  <path d="M 90.25578079559017,22.204264376709773 L 90.06419904229955,22.675006703221243" fill="none" instance-id="5" semantic-id="4" stroke="rgb(0,0,178)" stroke-width="0.1"/>
  <path d="M 90.06419904229955,22.675006703221243 L 89.89394111350401,23.15387426721537" fill="none" instance-id="5" semantic-id="4" stroke="rgb(0,0,178)" stroke-width="0.1"/>
  <path d="M 89.89394111350401,23.15387426721537 L 89.74535024149753,23.639901693313675" fill="none" instance-id="5" semantic-id="4" stroke="rgb(0,0,178)" stroke-width="0.1"/>
  <path d="M 89.74535024149753,23.639901693313675 L 89.61872597876612,24.132109172179128" fill="none" instance-id="5" semantic-id="4" stroke="rgb(0,0,178)" stroke-width="0.1"/>
  <path d="M 89.61872597876612,24.132109172179128 L 89.5143235941037,24.6295044357675" fill="none" instance-id="5" semantic-id="4" stroke="rgb(0,0,178)" stroke-width="0.1"/>
  <path d="M 89.5143235941037,24.6295044357675 L 89.43235355800198,25.131084757694964" fill="none" instance-id="5" semantic-id="4" stroke="rgb(0,0,178)" stroke-width="0.1"/>
  <path d="M 89.43235355800198,25.131084757694964 L 89.3729811183511,25.635838974689023" fill="none" instance-id="5" semantic-id="4" stroke="rgb(0,0,178)" stroke-width="0.1"/>
  <path d="M 89.3729811183511,25.635838974689023 L 89.33632596730752,26.14274952504809" fill="none" instance-id="5" semantic-id="4" stroke="rgb(0,0,178)" stroke-width="0.1"/>
  <path d="M 89.33632596730752,26.14274952504809 L 89.32246199999997,26.650794500000018" fill="none" instance-id="5" semantic-id="4" stroke="rgb(0,0,178)" stroke-width="0.1"/>
  <path d="M 89.32246199999997,26.651794499999994 A 3.7619,3.7619 0.0 0,0 85.94746199999997,22.8967945" fill="none" instance-id="5" semantic-id="4" stroke="rgb(0,0,178)" stroke-width="0.1"/>
  <path d="M 85.94846199999995,22.8967945 L 85.94846199999995,26.67679449999997" fill="none" instance-id="5" semantic-id="4" stroke="rgb(0,0,178)" stroke-width="0.1"/>
  <path d="M 85.94846199999995,26.67679449999997 L 85.57346199999995,26.67679449999997" fill="none" instance-id="5" semantic-id="4" stroke="rgb(0,0,178)" stroke-width="0.1"/>
  <path d="M 85.57346199999995,26.67679449999997 L 85.57346199999995,22.8967945" fill="none" instance-id="5" semantic-id="4" stroke="rgb(0,0,178)" stroke-width="0.1"/>
  <path d="M 85.57346199999995,22.8967945 L 85.94846199999995,22.8967945" fill="none" instance-id="5" semantic-id="4" stroke="rgb(0,0,178)" stroke-width="0.1"/>
 </g>
 <g id="layerxref-p-丁-地下二层$0$PUB_HATCH" inkscape:groupmode="layer" inkscape:label="xref-p-丁-地下二层$0$PUB_HATCH">
  <path d="M 70.32246199999997,4.176794499999971 L 70.32246199999997,25.17679449999997" fill="none" instance-id="-1" semantic-id="1" stroke="rgb(89,89,89)" stroke-width="0.1"/>
  <path d="M 70.32246199999997,25.17679449999997 L 71.57246199999997,27.17679449999997" fill="none" instance-id="-1" semantic-id="1" stroke="rgb(89,89,89)" stroke-width="0.1"/>
  <path d="M 71.57246199999997,27.17679449999997 L 72.82246199999997,25.17679449999997" fill="none" instance-id="-1" semantic-id="1" stroke="rgb(89,89,89)" stroke-width="0.1"/>
  <path d="M 72.82246199999997,25.17679449999997 L 72.82246199999997,4.176794499999971" fill="none" instance-id="-1" semantic-id="1" stroke="rgb(89,89,89)" stroke-width="0.1"/>
  <path d="M 72.82246199999997,4.176794499999971 L 70.32246199999997,4.176794499999971" fill="none" instance-id="-1" semantic-id="1" stroke="rgb(89,89,89)" stroke-width="0.1"/>
  <path d="M 32.57246199999997,27.17679449999997 L 34.07246199999997,25.17679449999997" fill="none" instance-id="-1" semantic-id="1" stroke="rgb(89,89,89)" stroke-width="0.1"/>
  <path d="M 34.07246199999997,25.17679449999997 L 34.07246199999997,20.671794499999976" fill="none" instance-id="-1" semantic-id="1" stroke="rgb(89,89,89)" stroke-width="0.1"/>
  <path d="M 34.07246199999997,20.671794499999976 L 31.572461999999973,20.671794499999976" fill="none" instance-id="-1" semantic-id="1" stroke="rgb(89,89,89)" stroke-width="0.1"/>
  <path d="M 31.572461999999973,20.671794499999976 L 31.572461999999973,25.17679449999997" fill="none" instance-id="-1" semantic-id="1" stroke="rgb(89,89,89)" stroke-width="0.1"/>
  <path d="M 31.572461999999973,25.17679449999997 L 32.57246199999997,27.17679449999997" fill="none" instance-id="-1" semantic-id="1" stroke="rgb(89,89,89)" stroke-width="0.1"/>
  <path d="M 31.572461999999973,25.17679449999997 L 0.0,25.17679449999997" fill="none" instance-id="-1" semantic-id="1" stroke="rgb(89,89,89)" stroke-width="0.1"/>
  <path d="M 0.0,28.17679449999997 L 32.57246199999997,28.17679449999997" fill="none" instance-id="-1" semantic-id="1" stroke="rgb(89,89,89)" stroke-width="0.1"/>
  <path d="M 32.57246199999997,28.17679449999997 L 32.57246199999997,27.17679449999997" fill="none" instance-id="-1" semantic-id="1" stroke="rgb(89,89,89)" stroke-width="0.1"/>
  <path d="M 32.57246199999997,27.17679449999997 L 31.572461999999973,25.17679449999997" fill="none" instance-id="-1" semantic-id="1" stroke="rgb(89,89,89)" stroke-width="0.1"/>
  <path d="M 71.57246199999997,27.17679449999997 L 71.57246199999997,28.17679449999997" fill="none" instance-id="-1" semantic-id="1" stroke="rgb(89,89,89)" stroke-width="0.1"/>
  <path d="M 71.57246199999997,28.17679449999997 L 85.57246199999997,28.17679449999997" fill="none" instance-id="-1" semantic-id="1" stroke="rgb(89,89,89)" stroke-width="0.1"/>
  <path d="M 85.57246199999997,28.17679449999997 L 85.57246199999997,25.17679449999997" fill="none" instance-id="-1" semantic-id="1" stroke="rgb(89,89,89)" stroke-width="0.1"/>
  <path d="M 85.57246199999997,25.17679449999997 L 72.82246199999997,25.17679449999997" fill="none" instance-id="-1" semantic-id="1" stroke="rgb(89,89,89)" stroke-width="0.1"/>
  <path d="M 72.82246199999997,25.17679449999997 L 71.57246199999997,27.17679449999997" fill="none" instance-id="-1" semantic-id="1" stroke="rgb(89,89,89)" stroke-width="0.1"/>
  <path d="M 70.32246199999997,25.17679449999997 L 34.07246199999997,25.17679449999997" fill="none" instance-id="-1" semantic-id="1" stroke="rgb(89,89,89)" stroke-width="0.1"/>
  <path d="M 34.07246199999997,25.17679449999997 L 32.57246199999997,27.17679449999997" fill="none" instance-id="-1" semantic-id="1" stroke="rgb(89,89,89)" stroke-width="0.1"/>
  <path d="M 32.57246199999997,27.17679449999997 L 32.57246199999997,28.17679449999997" fill="none" instance-id="-1" semantic-id="1" stroke="rgb(89,89,89)" stroke-width="0.1"/>
  <path d="M 32.57246199999997,28.17679449999997 L 71.57246199999997,28.17679449999997" fill="none" instance-id="-1" semantic-id="1" stroke="rgb(89,89,89)" stroke-width="0.1"/>
  <path d="M 71.57246199999997,28.17679449999997 L 71.57246199999997,27.17679449999997" fill="none" instance-id="-1" semantic-id="1" stroke="rgb(89,89,89)" stroke-width="0.1"/>
  <path d="M 71.57246199999997,27.17679449999997 L 70.32246199999997,25.17679449999997" fill="none" instance-id="-1" semantic-id="1" stroke="rgb(89,89,89)" stroke-width="0.1"/>
 </g>
 <g id="layerxref-p-丁-地下二层$0$WALL" inkscape:groupmode="layer" inkscape:label="xref-p-丁-地下二层$0$WALL">
  <path d="M 72.82246199999997,4.176794499999971 L 72.82246199999997,25.17679449999997" fill="none" instance-id="-1" semantic-id="1" stroke="rgb(0,178,178)" stroke-width="0.1"/>
  <path d="M 70.32246199999997,4.176794499999971 L 70.32246199999997,25.17679449999997" fill="none" instance-id="-1" semantic-id="1" stroke="rgb(0,178,178)" stroke-width="0.1"/>
  <path d="M 72.82246199999997,4.176794499999971 L 70.32246199999997,4.176794499999971" fill="none" instance-id="-1" semantic-id="1" stroke="rgb(0,178,178)" stroke-width="0.1"/>
  <path d="M 31.572461999999973,25.17679449999997 L 31.572461999999973,20.671794499999976" fill="none" instance-id="-1" semantic-id="1" stroke="rgb(0,178,178)" stroke-width="0.1"/>
  <path d="M 34.07246199999997,25.17679449999997 L 34.07246199999997,20.671794499999976" fill="none" instance-id="-1" semantic-id="1" stroke="rgb(0,178,178)" stroke-width="0.1"/>
  <path d="M 31.572461999999973,20.671794499999976 L 34.07246199999997,20.671794499999976" fill="none" instance-id="-1" semantic-id="1" stroke="rgb(0,178,178)" stroke-width="0.1"/>
  <path d="M 32.57246199999997,28.17679449999997 L 0.0,28.17679449999997" fill="none" instance-id="-1" semantic-id="1" stroke="rgb(0,178,178)" stroke-width="0.1"/>
  <path d="M 31.572461999999973,25.17679449999997 L 0.0,25.17679449999997" fill="none" instance-id="-1" semantic-id="1" stroke="rgb(0,178,178)" stroke-width="0.1"/>
  <path d="M 72.82246199999997,25.17679449999997 L 85.57246199999997,25.17679449999997" fill="none" instance-id="-1" semantic-id="1" stroke="rgb(0,178,178)" stroke-width="0.1"/>
  <path d="M 71.57246199999997,28.17679449999997 L 85.57246199999997,28.17679449999997" fill="none" instance-id="-1" semantic-id="1" stroke="rgb(0,178,178)" stroke-width="0.1"/>
  <path d="M 85.57246199999997,25.17679449999997 L 85.57246199999997,28.17679449999997" fill="none" instance-id="-1" semantic-id="1" stroke="rgb(0,178,178)" stroke-width="0.1"/>
  <path d="M 71.57246199999997,28.17679449999997 L 32.57246199999997,28.17679449999997" fill="none" instance-id="-1" semantic-id="1" stroke="rgb(0,178,178)" stroke-width="0.1"/>
  <path d="M 70.32246199999997,25.17679449999997 L 34.07246199999997,25.17679449999997" fill="none" instance-id="-1" semantic-id="1" stroke="rgb(0,178,178)" stroke-width="0.1"/>
 </g>
 <g id="layerxref-p-戊-9#-地下二层$0$WINDOW_TEXT" inkscape:groupmode="layer" inkscape:label="xref-p-戊-9#-地下二层$0$WINDOW_TEXT">
  <text fill="rgb(0,0,0)" font-family="Noto Sans CJK SC" font-size="2" transform="rotate(-0.0,87.68746199999998,32.425794499999995)" x="87.68746199999998" y="32.425794499999995">
   FM甲1222
  </text>
 </g>
 <g id="layer集水坑" inkscape:groupmode="layer" inkscape:label="集水坑">
  <path d="M 22.072461999999973,6.176794499999971 L 32.07246199999997,6.176794499999971" fill="none" stroke="rgb(0,0,178)" stroke-width="0.1"/>
  <path d="M 32.07246199999997,6.176794499999971 L 32.07246199999997,16.17679449999997" fill="none" stroke="rgb(0,0,178)" stroke-width="0.1"/>
  <path d="M 32.07246199999997,16.17679449999997 L 22.072461999999973,16.17679449999997" fill="none" stroke="rgb(0,0,178)" stroke-width="0.1"/>
  <path d="M 22.072461999999973,16.17679449999997 L 22.072461999999973,6.176794499999971" fill="none" stroke="rgb(0,0,178)" stroke-width="0.1"/>
  <path d="M 24.47246199999995,8.576794500000005 L 31.47246199999995,8.576794500000005" fill="none" stroke="rgb(0,0,178)" stroke-width="0.1"/>
  <path d="M 31.47246199999995,8.576794500000005 L 31.47246199999995,15.576794500000005" fill="none" stroke="rgb(0,0,178)" stroke-width="0.1"/>
  <path d="M 31.47246199999995,15.576794500000005 L 24.47246199999995,15.576794500000005" fill="none" stroke="rgb(0,0,178)" stroke-width="0.1"/>
  <path d="M 24.47246199999995,15.576794500000005 L 24.47246199999995,8.576794500000005" fill="none" stroke="rgb(0,0,178)" stroke-width="0.1"/>
  <path d="M 22.672461999999996,6.776794499999994 L 31.47246199999995,6.776794499999994" fill="none" stroke="rgb(0,0,178)" stroke-width="0.1"/>
  <path d="M 31.47246199999995,6.776794499999994 L 31.47246199999995,15.576794500000005" fill="none" stroke="rgb(0,0,178)" stroke-width="0.1"/>
  <path d="M 31.47246199999995,15.576794500000005 L 22.672461999999996,15.576794500000005" fill="none" stroke="rgb(0,0,178)" stroke-width="0.1"/>
  <path d="M 22.672461999999996,15.576794500000005 L 22.672461999999996,6.776794499999994" fill="none" stroke="rgb(0,0,178)" stroke-width="0.1"/>
 </g>
</svg>