<?xml version="1.0" encoding="utf-8"?>
<svg style="background-color: #000;" version="1.1" viewBox="0 0 100.0 100.0" xmlns="http://www.w3.org/2000/svg" xmlns:inkscape="http://www.inkscape.org/namespaces/inkscape">
 <g id="layer$1$AD-SIGN" inkscape:groupmode="layer" inkscape:label="$1$AD-SIGN">
  <path d="M 18.787754999999947,83.5 L 18.28292238703432,83.50708072510506" fill="none" stroke="rgb(89,89,89)" stroke-width="0.1"/>
  <path d="M 18.28292238703432,83.50708072510506 L 17.778486949730507,83.52831732967931" fill="none" stroke="rgb(89,89,89)" stroke-width="0.1"/>
  <path d="M 17.778486949730507,83.52831732967931 L 17.274845551273472,83.56369310588286" fill="none" stroke="rgb(89,89,89)" stroke-width="0.1"/>
  <path d="M 17.274845551273472,83.56369310588286 L 16.772394430140423,83.61318022192162" fill="none" stroke="rgb(89,89,89)" stroke-width="0.1"/>
  <path d="M 16.772394430140423,83.61318022192162 L 16.271528888360933,83.67673974394398" fill="none" stroke="rgb(89,89,89)" stroke-width="0.1"/>
  <path d="M 16.271528888360933,83.67673974394398 L 15.772642980514718,83.75432166667176" fill="none" stroke="rgb(89,89,89)" stroke-width="0.1"/>
  <path d="M 15.772642980514718,83.75432166667176 L 15.276129203709615,83.84586495274186" fill="none" stroke="rgb(89,89,89)" stroke-width="0.1"/>
  <path d="M 15.276129203709615,83.84586495274186 L 14.78237818878631,83.95129758072719" fill="none" stroke="rgb(89,89,89)" stroke-width="0.1"/>
  <path d="M 14.78237818878631,83.95129758072719 L 14.29177839298984,84.07053660179929" fill="none" stroke="rgb(89,89,89)" stroke-width="0.1"/>
  <path d="M 14.29177839298984,84.07053660179929 L 13.80471579435266,84.20348820498822" fill="none" stroke="rgb(89,89,89)" stroke-width="0.1"/>
  <path d="M 13.80471579435266,84.20348820498822 L 13.321573588026865,84.35004779098787" fill="none" stroke="rgb(89,89,89)" stroke-width="0.1"/>
  <path d="M 13.321573588026865,84.35004779098787 L 12.842731884806938,84.5101000544494" fill="none" stroke="rgb(89,89,89)" stroke-width="0.1"/>
  <path d="M 12.842731884806938,84.5101000544494 L 12.368567412078335,84.68351907469719" fill="none" stroke="rgb(89,89,89)" stroke-width="0.1"/>
  <path d="M 12.368567412078335,84.68351907469719 L 11.899453217428345,84.87016841479684" fill="none" stroke="rgb(89,89,89)" stroke-width="0.1"/>
  <path d="M 11.899453217428345,84.87016841479684 L 11.435758375152034,85.06990122889627" fill="none" stroke="rgb(89,89,89)" stroke-width="0.1"/>
  <path d="M 11.435758375152034,85.06990122889627 L 10.977847695883895,85.28256037775645" fill="none" stroke="rgb(89,89,89)" stroke-width="0.1"/>
  <path d="M 10.977847695883895,85.28256037775645 L 10.526081439584289,85.50797855238031" fill="none" stroke="rgb(89,89,89)" stroke-width="0.1"/>
  <path d="M 10.526081439584289,85.50797855238031 L 10.080815032105647,85.74597840564243" fill="none" stroke="rgb(89,89,89)" stroke-width="0.1"/>
  <path d="M 10.080815032105647,85.74597840564243 L 9.64239878556242,85.99637269181665" fill="none" stroke="rgb(89,89,89)" stroke-width="0.1"/>
  <path d="M 9.64239878556242,85.99637269181665 L 9.21117762272388,86.25896441389088" fill="none" stroke="rgb(89,89,89)" stroke-width="0.1"/>
  <path d="M 9.21117762272388,86.25896441389088 L 8.78749080564711,86.5335469785542" fill="none" stroke="rgb(89,89,89)" stroke-width="0.1"/>
  <path d="M 8.78749080564711,86.5335469785542 L 8.37167166876344,86.81990435873331" fill="none" stroke="rgb(89,89,89)" stroke-width="0.1"/>
  <path d="M 8.37167166876344,86.81990435873331 L 7.964047356628612,87.11781126355152" fill="none" stroke="rgb(89,89,89)" stroke-width="0.1"/>
  <path d="M 7.964047356628612,87.11781126355152 L 7.564938566542764,87.42703331557544" fill="none" stroke="rgb(89,89,89)" stroke-width="0.1"/>
  <path d="M 7.564938566542764,87.42703331557544 L 7.174659296242339,87.74732723521106" fill="none" stroke="rgb(89,89,89)" stroke-width="0.1"/>
  <path d="M 7.174659296242339,87.74732723521106 L 6.793516596863867,88.07844103210303" fill="none" stroke="rgb(89,89,89)" stroke-width="0.1"/>
  <path d="M 6.793516596863867,88.07844103210303 L 6.4218103313717165,88.4201142033875" fill="none" stroke="rgb(89,89,89)" stroke-width="0.1"/>
  <path d="M 6.4218103313717165,88.4201142033875 L 6.059832938642103,88.77207793864216" fill="none" stroke="rgb(89,89,89)" stroke-width="0.1"/>
  <path d="M 6.059832938642103,88.77207793864216 L 5.7078692033874745,89.13405533137177" fill="none" stroke="rgb(89,89,89)" stroke-width="0.1"/>
  <path d="M 5.7078692033874745,89.13405533137177 L 5.366196032102948,89.50576159686392" fill="none" stroke="rgb(89,89,89)" stroke-width="0.1"/>
  <path d="M 5.366196032102948,89.50576159686392 L 5.035082235211007,89.88690429624242" fill="none" stroke="rgb(89,89,89)" stroke-width="0.1"/>
  <path d="M 5.035082235211007,89.88690429624242 L 4.71478831557539,90.27718356654279" fill="none" stroke="rgb(89,89,89)" stroke-width="0.1"/>
  <path d="M 4.71478831557539,90.27718356654279 L 4.405566263551464,90.6762923566287" fill="none" stroke="rgb(89,89,89)" stroke-width="0.1"/>
  <path d="M 4.405566263551464,90.6762923566287 L 4.107659358733258,91.0839166687635" fill="none" stroke="rgb(89,89,89)" stroke-width="0.1"/>
  <path d="M 4.107659358733258,91.0839166687635 L 3.821301978554118,91.49973580564716" fill="none" stroke="rgb(89,89,89)" stroke-width="0.1"/>
  <path d="M 3.821301978554118,91.49973580564716 L 3.5467194138908553,91.92342262272393" fill="none" stroke="rgb(89,89,89)" stroke-width="0.1"/>
  <path d="M 3.5467194138908553,91.92342262272393 L 3.284127691816593,92.35464378556247" fill="none" stroke="rgb(89,89,89)" stroke-width="0.1"/>
  <path d="M 3.284127691816593,92.35464378556247 L 3.0337334056423515,92.7930600321057" fill="none" stroke="rgb(89,89,89)" stroke-width="0.1"/>
  <path d="M 3.0337334056423515,92.7930600321057 L 2.795733552380227,93.23832643958431" fill="none" stroke="rgb(89,89,89)" stroke-width="0.1"/>
  <path d="M 2.795733552380227,93.23832643958431 L 2.570315377756401,93.69009269588395" fill="none" stroke="rgb(89,89,89)" stroke-width="0.1"/>
  <path d="M 2.570315377756401,93.69009269588395 L 2.3576562288961895,94.14800337515206" fill="none" stroke="rgb(89,89,89)" stroke-width="0.1"/>
  <path d="M 2.3576562288961895,94.14800337515206 L 2.1579234147968123,94.61169821742837" fill="none" stroke="rgb(89,89,89)" stroke-width="0.1"/>
  <path d="M 2.1579234147968123,94.61169821742837 L 1.971274074697135,95.08081241207836" fill="none" stroke="rgb(89,89,89)" stroke-width="0.1"/>
  <path d="M 1.971274074697135,95.08081241207836 L 1.7978550544493146,95.55497688480699" fill="none" stroke="rgb(89,89,89)" stroke-width="0.1"/>
  <path d="M 1.7978550544493146,95.55497688480699 L 1.6378027909877915,96.03381858802692" fill="none" stroke="rgb(89,89,89)" stroke-width="0.1"/>
  <path d="M 1.6378027909877915,96.03381858802692 L 1.4912432049881659,96.51696079435271" fill="none" stroke="rgb(89,89,89)" stroke-width="0.1"/>
  <path d="M 1.4912432049881659,96.51696079435271 L 1.3582916017992375,97.00402339298992" fill="none" stroke="rgb(89,89,89)" stroke-width="0.1"/>
  <path d="M 1.3582916017992375,97.00402339298992 L 1.2390525807271047,97.49462318878633" fill="none" stroke="rgb(89,89,89)" stroke-width="0.1"/>
  <path d="M 1.2390525807271047,97.49462318878633 L 1.1336199527418103,97.9883742037097" fill="none" stroke="rgb(89,89,89)" stroke-width="0.1"/>
  <path d="M 1.1336199527418103,97.9883742037097 L 1.0420766666716759,98.48488798051474" fill="none" stroke="rgb(89,89,89)" stroke-width="0.1"/>
  <path d="M 1.0420766666716759,98.48488798051474 L 0.9644947439439306,98.98377388836101" fill="none" stroke="rgb(89,89,89)" stroke-width="0.1"/>
  <path d="M 0.9644947439439306,98.98377388836101 L 0.9009352219215998,99.48463943014045" fill="none" stroke="rgb(89,89,89)" stroke-width="0.1"/>
  <path d="M 0.9009352219215998,99.48463943014045 L 0.8514481058828096,99.98709055127355" fill="none" stroke="rgb(89,89,89)" stroke-width="0.1"/>
  <path d="M 73.12406189411712,99.98709055127355 L 73.07457477807833,99.48463943014045" fill="none" stroke="rgb(89,89,89)" stroke-width="0.1"/>
  <path d="M 73.07457477807833,99.48463943014045 L 73.011015256056,98.98377388836101" fill="none" stroke="rgb(89,89,89)" stroke-width="0.1"/>
  <path d="M 73.011015256056,98.98377388836101 L 72.93343333332825,98.48488798051474" fill="none" stroke="rgb(89,89,89)" stroke-width="0.1"/>
  <path d="M 72.93343333332825,98.48488798051474 L 72.84189004725812,97.9883742037097" fill="none" stroke="rgb(89,89,89)" stroke-width="0.1"/>
  <path d="M 72.84189004725812,97.9883742037097 L 72.73645741927282,97.49462318878633" fill="none" stroke="rgb(89,89,89)" stroke-width="0.1"/>
  <path d="M 72.73645741927282,97.49462318878633 L 72.61721839820069,97.00402339298992" fill="none" stroke="rgb(89,89,89)" stroke-width="0.1"/>
  <path d="M 72.61721839820069,97.00402339298992 L 72.48426679501176,96.51696079435271" fill="none" stroke="rgb(89,89,89)" stroke-width="0.1"/>
  <path d="M 72.48426679501176,96.51696079435271 L 72.33770720901214,96.03381858802695" fill="none" stroke="rgb(89,89,89)" stroke-width="0.1"/>
  <path d="M 72.33770720901214,96.03381858802695 L 72.17765494555061,95.55497688480699" fill="none" stroke="rgb(89,89,89)" stroke-width="0.1"/>
  <path d="M 72.17765494555061,95.55497688480699 L 72.0042359253028,95.08081241207836" fill="none" stroke="rgb(89,89,89)" stroke-width="0.1"/>
  <path d="M 72.0042359253028,95.08081241207836 L 71.81758658520312,94.6116982174284" fill="none" stroke="rgb(89,89,89)" stroke-width="0.1"/>
  <path d="M 71.81758658520312,94.6116982174284 L 71.61785377110374,94.14800337515206" fill="none" stroke="rgb(89,89,89)" stroke-width="0.1"/>
  <path d="M 71.61785377110374,94.14800337515206 L 71.40519462224353,93.69009269588395" fill="none" stroke="rgb(89,89,89)" stroke-width="0.1"/>
  <path d="M 71.40519462224353,93.69009269588395 L 71.1797764476197,93.23832643958431" fill="none" stroke="rgb(89,89,89)" stroke-width="0.1"/>
  <path d="M 71.1797764476197,93.23832643958431 L 70.94177659435752,92.79306003210567" fill="none" stroke="rgb(89,89,89)" stroke-width="0.1"/>
  <path d="M 70.94177659435752,92.79306003210567 L 70.69138230818334,92.35464378556247" fill="none" stroke="rgb(89,89,89)" stroke-width="0.1"/>
  <path d="M 70.69138230818334,92.35464378556247 L 70.42879058610907,91.92342262272393" fill="none" stroke="rgb(89,89,89)" stroke-width="0.1"/>
  <path d="M 70.42879058610907,91.92342262272393 L 70.15420802144581,91.49973580564716" fill="none" stroke="rgb(89,89,89)" stroke-width="0.1"/>
  <path d="M 70.15420802144581,91.49973580564716 L 69.86785064126667,91.0839166687635" fill="none" stroke="rgb(89,89,89)" stroke-width="0.1"/>
  <path d="M 69.86785064126667,91.0839166687635 L 69.56994373644847,90.6762923566287" fill="none" stroke="rgb(89,89,89)" stroke-width="0.1"/>
  <path d="M 69.56994373644847,90.6762923566287 L 69.26072168442454,90.27718356654279" fill="none" stroke="rgb(89,89,89)" stroke-width="0.1"/>
  <path d="M 69.26072168442454,90.27718356654279 L 68.94042776478892,89.88690429624242" fill="none" stroke="rgb(89,89,89)" stroke-width="0.1"/>
  <path d="M 68.94042776478892,89.88690429624242 L 68.60931396789698,89.50576159686392" fill="none" stroke="rgb(89,89,89)" stroke-width="0.1"/>
  <path d="M 68.60931396789698,89.50576159686392 L 68.26764079661245,89.13405533137177" fill="none" stroke="rgb(89,89,89)" stroke-width="0.1"/>
  <path d="M 68.26764079661245,89.13405533137177 L 67.91567706135783,88.77207793864216" fill="none" stroke="rgb(89,89,89)" stroke-width="0.1"/>
  <path d="M 67.91567706135783,88.77207793864216 L 67.55369966862821,88.42011420338753" fill="none" stroke="rgb(89,89,89)" stroke-width="0.1"/>
  <path d="M 67.55369966862821,88.42011420338753 L 67.18199340313606,88.07844103210303" fill="none" stroke="rgb(89,89,89)" stroke-width="0.1"/>
  <path d="M 67.18199340313606,88.07844103210303 L 66.80085070375753,87.74732723521106" fill="none" stroke="rgb(89,89,89)" stroke-width="0.1"/>
  <path d="M 66.80085070375753,87.74732723521106 L 66.41057143345716,87.42703331557547" fill="none" stroke="rgb(89,89,89)" stroke-width="0.1"/>
  <path d="M 66.41057143345716,87.42703331557547 L 66.01146264337126,87.11781126355152" fill="none" stroke="rgb(89,89,89)" stroke-width="0.1"/>
  <path d="M 66.01146264337126,87.11781126355152 L 65.60383833123649,86.81990435873331" fill="none" stroke="rgb(89,89,89)" stroke-width="0.1"/>
  <path d="M 65.60383833123649,86.81990435873331 L 65.18801919435282,86.5335469785542" fill="none" stroke="rgb(89,89,89)" stroke-width="0.1"/>
  <path d="M 65.18801919435282,86.5335469785542 L 64.76433237727605,86.25896441389088" fill="none" stroke="rgb(89,89,89)" stroke-width="0.1"/>
  <path d="M 64.76433237727605,86.25896441389088 L 64.33311121443751,85.99637269181665" fill="none" stroke="rgb(89,89,89)" stroke-width="0.1"/>
  <path d="M 64.33311121443751,85.99637269181665 L 63.89469496789428,85.74597840564243" fill="none" stroke="rgb(89,89,89)" stroke-width="0.1"/>
  <path d="M 63.89469496789428,85.74597840564243 L 63.44942856041564,85.50797855238031" fill="none" stroke="rgb(89,89,89)" stroke-width="0.1"/>
  <path d="M 63.44942856041564,85.50797855238031 L 62.997662304116034,85.28256037775645" fill="none" stroke="rgb(89,89,89)" stroke-width="0.1"/>
  <path d="M 62.997662304116034,85.28256037775645 L 62.539751624847895,85.06990122889627" fill="none" stroke="rgb(89,89,89)" stroke-width="0.1"/>
  <path d="M 62.539751624847895,85.06990122889627 L 62.076056782571584,84.87016841479684" fill="none" stroke="rgb(89,89,89)" stroke-width="0.1"/>
  <path d="M 62.076056782571584,84.87016841479684 L 61.606942587921594,84.68351907469719" fill="none" stroke="rgb(89,89,89)" stroke-width="0.1"/>
  <path d="M 61.606942587921594,84.68351907469719 L 61.13277811519299,84.5101000544494" fill="none" stroke="rgb(89,89,89)" stroke-width="0.1"/>
  <path d="M 61.13277811519299,84.5101000544494 L 60.65393641197306,84.35004779098787" fill="none" stroke="rgb(89,89,89)" stroke-width="0.1"/>
  <path d="M 60.65393641197306,84.35004779098787 L 60.17079420564727,84.20348820498822" fill="none" stroke="rgb(89,89,89)" stroke-width="0.1"/>
  <path d="M 60.17079420564727,84.20348820498822 L 59.68373160701009,84.07053660179929" fill="none" stroke="rgb(89,89,89)" stroke-width="0.1"/>
  <path d="M 59.68373160701009,84.07053660179929 L 59.19313181121362,83.95129758072719" fill="none" stroke="rgb(89,89,89)" stroke-width="0.1"/>
  <path d="M 59.19313181121362,83.95129758072719 L 58.69938079629031,83.84586495274186" fill="none" stroke="rgb(89,89,89)" stroke-width="0.1"/>
  <path d="M 58.69938079629031,83.84586495274186 L 58.20286701948521,83.75432166667176" fill="none" stroke="rgb(89,89,89)" stroke-width="0.1"/>
  <path d="M 58.20286701948521,83.75432166667176 L 57.703981111638996,83.67673974394398" fill="none" stroke="rgb(89,89,89)" stroke-width="0.1"/>
  <path d="M 57.703981111638996,83.67673974394398 L 57.203115569859506,83.61318022192162" fill="none" stroke="rgb(89,89,89)" stroke-width="0.1"/>
  <path d="M 57.203115569859506,83.61318022192162 L 56.70066444872646,83.56369310588286" fill="none" stroke="rgb(89,89,89)" stroke-width="0.1"/>
  <path d="M 56.70066444872646,83.56369310588286 L 56.19702305026942,83.52831732967931" fill="none" stroke="rgb(89,89,89)" stroke-width="0.1"/>
  <path d="M 56.19702305026942,83.52831732967931 L 55.69258761296561,83.50708072510506" fill="none" stroke="rgb(89,89,89)" stroke-width="0.1"/>
  <path d="M 55.69258761296561,83.50708072510506 L 55.18775499999998,83.5" fill="none" stroke="rgb(89,89,89)" stroke-width="0.1"/>
 </g>
 <g id="layerAE-DOOR-INSD" inkscape:groupmode="layer" inkscape:label="AE-DOOR-INSD">
  <path d="M 64.91775499999994,80.33000000000001 A 10.34,10.34 0.0 0,0 75.25775499999997,90.67000000000002" fill="none" instance-id="4" semantic-id="3" stroke="rgb(194,255,12)" stroke-width="0.1"/>
  <path d="M 11.88775499999997,16.200000000000017 A 7.4,7.4 0.0 0,0 18.296754999999962,12.5" fill="none" instance-id="1" semantic-id="3" stroke="rgb(194,255,12)" stroke-width="0.1"/>
  <path d="M 21.38775499999997,72.70000000000002 A 9.4,9.4 0.0 0,0 30.787754999999947,63.30000000000001" fill="none" instance-id="3" semantic-id="3" stroke="rgb(194,255,12)" stroke-width="0.1"/>
  <path d="M 75.25775499999997,80.33000000000001 L 74.92775499999999,80.33000000000001" fill="none" instance-id="4" semantic-id="3" stroke="rgb(194,255,12)" stroke-width="0.1"/>
  <path d="M 74.92775499999999,80.33000000000001 L 74.92775499999999,90.67000000000002" fill="none" instance-id="4" semantic-id="3" stroke="rgb(194,255,12)" stroke-width="0.1"/>
  <path d="M 74.92775499999999,90.67000000000002 L 75.25775499999997,90.67000000000002" fill="none" instance-id="4" semantic-id="3" stroke="rgb(194,255,12)" stroke-width="0.1"/>
  <path d="M 75.25775499999997,90.67000000000002 L 75.25775499999997,80.33000000000001" fill="none" instance-id="4" semantic-id="3" stroke="rgb(194,255,12)" stroke-width="0.1"/>
  <path d="M 11.88775499999997,8.800000000000011 L 11.737754999999993,9.060000000000002" fill="none" instance-id="1" semantic-id="3" stroke="rgb(194,255,12)" stroke-width="0.1"/>
  <path d="M 11.737754999999993,9.060000000000002 L 18.146754999999985,12.76000000000002" fill="none" instance-id="1" semantic-id="3" stroke="rgb(194,255,12)" stroke-width="0.1"/>
  <path d="M 18.146754999999985,12.76000000000002 L 18.296754999999962,12.5" fill="none" instance-id="1" semantic-id="3" stroke="rgb(194,255,12)" stroke-width="0.1"/>
  <path d="M 18.296754999999962,12.5 L 11.88775499999997,8.800000000000011" fill="none" instance-id="1" semantic-id="3" stroke="rgb(194,255,12)" stroke-width="0.1"/>
  <path d="M 21.38775499999997,63.30000000000001 L 21.68775499999998,63.30000000000001" fill="none" instance-id="3" semantic-id="3" stroke="rgb(194,255,12)" stroke-width="0.1"/>
  <path d="M 21.68775499999998,63.30000000000001 L 21.68775499999998,72.70000000000002" fill="none" instance-id="3" semantic-id="3" stroke="rgb(194,255,12)" stroke-width="0.1"/>
  <path d="M 21.68775499999998,72.70000000000002 L 21.38775499999997,72.70000000000002" fill="none" instance-id="3" semantic-id="3" stroke="rgb(194,255,12)" stroke-width="0.1"/>
  <path d="M 21.38775499999997,72.70000000000002 L 21.38775499999997,63.30000000000001" fill="none" instance-id="3" semantic-id="3" stroke="rgb(194,255,12)" stroke-width="0.1"/>
  <path d="M 75.25775499999997,80.0 L 75.25775499999997,80.33000000000001" fill="none" instance-id="4" semantic-id="3" stroke="rgb(194,255,12)" stroke-width="0.1"/>
  <path d="M 75.25775499999997,80.33000000000001 L 75.58775499999996,80.33000000000001" fill="none" instance-id="4" semantic-id="3" stroke="rgb(194,255,12)" stroke-width="0.1"/>
  <path d="M 75.58775499999996,80.33000000000001 L 75.58775499999996,79.67000000000002" fill="none" instance-id="4" semantic-id="3" stroke="rgb(194,255,12)" stroke-width="0.1"/>
  <path d="M 75.58775499999996,79.67000000000002 L 74.92775499999999,79.67000000000002" fill="none" instance-id="4" semantic-id="3" stroke="rgb(194,255,12)" stroke-width="0.1"/>
  <path d="M 74.92775499999999,79.67000000000002 L 74.92775499999999,80.0" fill="none" instance-id="4" semantic-id="3" stroke="rgb(194,255,12)" stroke-width="0.1"/>
  <path d="M 74.92775499999999,80.0 L 75.25775499999997,80.0" fill="none" instance-id="4" semantic-id="3" stroke="rgb(194,255,12)" stroke-width="0.1"/>
  <path d="M 64.91775499999994,80.0 L 64.91775499999994,80.33000000000001" fill="none" instance-id="4" semantic-id="3" stroke="rgb(194,255,12)" stroke-width="0.1"/>
  <path d="M 64.91775499999994,80.33000000000001 L 64.58775499999996,80.33000000000001" fill="none" instance-id="4" semantic-id="3" stroke="rgb(194,255,12)" stroke-width="0.1"/>
  <path d="M 64.58775499999996,80.33000000000001 L 64.58775499999996,79.67000000000002" fill="none" instance-id="4" semantic-id="3" stroke="rgb(194,255,12)" stroke-width="0.1"/>
  <path d="M 64.58775499999996,79.67000000000002 L 65.24775499999998,79.67000000000002" fill="none" instance-id="4" semantic-id="3" stroke="rgb(194,255,12)" stroke-width="0.1"/>
  <path d="M 65.24775499999998,79.67000000000002 L 65.24775499999998,80.0" fill="none" instance-id="4" semantic-id="3" stroke="rgb(194,255,12)" stroke-width="0.1"/>
  <path d="M 65.24775499999998,80.0 L 64.91775499999994,80.0" fill="none" instance-id="4" semantic-id="3" stroke="rgb(194,255,12)" stroke-width="0.1"/>
  <path d="M 11.587754999999959,8.800000000000011 L 11.88775499999997,8.800000000000011" fill="none" instance-id="1" semantic-id="3" stroke="rgb(194,255,12)" stroke-width="0.1"/>
  <path d="M 11.88775499999997,8.800000000000011 L 11.88775499999997,8.5" fill="none" instance-id="1" semantic-id="3" stroke="rgb(194,255,12)" stroke-width="0.1"/>
  <path d="M 11.88775499999997,8.5 L 11.287754999999947,8.5" fill="none" instance-id="1" semantic-id="3" stroke="rgb(194,255,12)" stroke-width="0.1"/>
  <path d="M 11.287754999999947,8.5 L 11.287754999999947,9.100000000000023" fill="none" instance-id="1" semantic-id="3" stroke="rgb(194,255,12)" stroke-width="0.1"/>
  <path d="M 11.287754999999947,9.100000000000023 L 11.587754999999959,9.100000000000023" fill="none" instance-id="1" semantic-id="3" stroke="rgb(194,255,12)" stroke-width="0.1"/>
  <path d="M 11.587754999999959,9.100000000000023 L 11.587754999999959,8.800000000000011" fill="none" instance-id="1" semantic-id="3" stroke="rgb(194,255,12)" stroke-width="0.1"/>
  <path d="M 11.587754999999959,16.200000000000017 L 11.88775499999997,16.200000000000017" fill="none" instance-id="1" semantic-id="3" stroke="rgb(194,255,12)" stroke-width="0.1"/>
  <path d="M 11.88775499999997,16.200000000000017 L 11.88775499999997,16.5" fill="none" instance-id="1" semantic-id="3" stroke="rgb(194,255,12)" stroke-width="0.1"/>
  <path d="M 11.88775499999997,16.5 L 11.287754999999947,16.5" fill="none" instance-id="1" semantic-id="3" stroke="rgb(194,255,12)" stroke-width="0.1"/>
  <path d="M 11.287754999999947,16.5 L 11.287754999999947,15.900000000000006" fill="none" instance-id="1" semantic-id="3" stroke="rgb(194,255,12)" stroke-width="0.1"/>
  <path d="M 11.287754999999947,15.900000000000006 L 11.587754999999959,15.900000000000006" fill="none" instance-id="1" semantic-id="3" stroke="rgb(194,255,12)" stroke-width="0.1"/>
  <path d="M 11.587754999999959,15.900000000000006 L 11.587754999999959,16.200000000000017" fill="none" instance-id="1" semantic-id="3" stroke="rgb(194,255,12)" stroke-width="0.1"/>
  <path d="M 21.38775499999997,63.0 L 21.38775499999997,63.30000000000001" fill="none" instance-id="3" semantic-id="3" stroke="rgb(194,255,12)" stroke-width="0.1"/>
  <path d="M 21.38775499999997,63.30000000000001 L 21.08775499999996,63.30000000000001" fill="none" instance-id="3" semantic-id="3" stroke="rgb(194,255,12)" stroke-width="0.1"/>
  <path d="M 21.08775499999996,63.30000000000001 L 21.08775499999996,62.70000000000002" fill="none" instance-id="3" semantic-id="3" stroke="rgb(194,255,12)" stroke-width="0.1"/>
  <path d="M 21.08775499999996,62.70000000000002 L 21.68775499999998,62.70000000000002" fill="none" instance-id="3" semantic-id="3" stroke="rgb(194,255,12)" stroke-width="0.1"/>
  <path d="M 21.68775499999998,62.70000000000002 L 21.68775499999998,63.0" fill="none" instance-id="3" semantic-id="3" stroke="rgb(194,255,12)" stroke-width="0.1"/>
  <path d="M 21.68775499999998,63.0 L 21.38775499999997,63.0" fill="none" instance-id="3" semantic-id="3" stroke="rgb(194,255,12)" stroke-width="0.1"/>
  <path d="M 30.787754999999947,63.0 L 30.787754999999947,63.30000000000001" fill="none" instance-id="3" semantic-id="3" stroke="rgb(194,255,12)" stroke-width="0.1"/>
  <path d="M 30.787754999999947,63.30000000000001 L 31.08775499999996,63.30000000000001" fill="none" instance-id="3" semantic-id="3" stroke="rgb(194,255,12)" stroke-width="0.1"/>
  <path d="M 31.08775499999996,63.30000000000001 L 31.08775499999996,62.70000000000002" fill="none" instance-id="3" semantic-id="3" stroke="rgb(194,255,12)" stroke-width="0.1"/>
  <path d="M 31.08775499999996,62.70000000000002 L 30.487754999999993,62.70000000000002" fill="none" instance-id="3" semantic-id="3" stroke="rgb(194,255,12)" stroke-width="0.1"/>
  <path d="M 30.487754999999993,62.70000000000002 L 30.487754999999993,63.0" fill="none" instance-id="3" semantic-id="3" stroke="rgb(194,255,12)" stroke-width="0.1"/>
  <path d="M 30.487754999999993,63.0 L 30.787754999999947,63.0" fill="none" instance-id="3" semantic-id="3" stroke="rgb(194,255,12)" stroke-width="0.1"/>
 </g>
 <g id="layerAE-EQPM" inkscape:groupmode="layer" inkscape:label="AE-EQPM">
  <path d="M 99.58775499999996,83.52000000000001 L 90.7139088461538,100.0" fill="none" instance-id="8" semantic-id="31" stroke="rgb(89,89,89)" stroke-width="0.1"/>
  <path d="M 85.58775499999996,83.52000000000001 L 94.46160115384612,100.0" fill="none" instance-id="8" semantic-id="31" stroke="rgb(89,89,89)" stroke-width="0.1"/>
  <path d="M 16.287754999999947,46.25 L 6.337754999999959,55.25" fill="none" instance-id="7" semantic-id="31" stroke="rgb(89,89,89)" stroke-width="0.1"/>
  <path d="M 6.337754999999959,46.25 L 16.287754999999947,55.25" fill="none" instance-id="7" semantic-id="31" stroke="rgb(89,89,89)" stroke-width="0.1"/>
  <path d="M 99.58775499999996,83.52000000000001 L 99.58775499999996,100.0" fill="none" instance-id="8" semantic-id="31" stroke="rgb(89,89,89)" stroke-width="0.1"/>
  <path d="M 85.58775499999996,100.0 L 85.58775499999996,83.52000000000001" fill="none" instance-id="8" semantic-id="31" stroke="rgb(89,89,89)" stroke-width="0.1"/>
  <path d="M 85.58775499999996,83.52000000000001 L 99.58775499999996,83.52000000000001" fill="none" instance-id="8" semantic-id="31" stroke="rgb(89,89,89)" stroke-width="0.1"/>
  <path d="M 84.32575499999996,86.02000000000001 L 84.32575499999996,100.0" fill="none" instance-id="8" semantic-id="31" stroke="rgb(89,89,89)" stroke-width="0.1"/>
  <path d="M 82.32575499999996,100.0 L 82.32575499999996,86.02000000000001" fill="none" instance-id="8" semantic-id="31" stroke="rgb(89,89,89)" stroke-width="0.1"/>
  <path d="M 82.32575499999996,86.02000000000001 L 84.32575499999996,86.02000000000001" fill="none" instance-id="8" semantic-id="31" stroke="rgb(89,89,89)" stroke-width="0.1"/>
  <path d="M 86.90475499999997,81.4 L 92.40475499999997,81.4" fill="none" instance-id="11" semantic-id="5" stroke="rgb(89,89,89)" stroke-width="0.1"/>
  <path d="M 92.40475499999997,81.4 L 92.40475499999997,81.80000000000001" fill="none" instance-id="11" semantic-id="5" stroke="rgb(89,89,89)" stroke-width="0.1"/>
  <path d="M 92.40475499999997,81.80000000000001 L 86.90475499999997,81.80000000000001" fill="none" instance-id="11" semantic-id="5" stroke="rgb(89,89,89)" stroke-width="0.1"/>
  <path d="M 86.90475499999997,81.80000000000001 L 86.90475499999997,81.4" fill="none" instance-id="11" semantic-id="5" stroke="rgb(89,89,89)" stroke-width="0.1"/>
  <path d="M 92.77075499999995,81.80000000000001 L 92.77075499999995,81.4" fill="none" instance-id="11" semantic-id="5" stroke="rgb(89,89,89)" stroke-width="0.1"/>
  <path d="M 92.77075499999995,81.4 L 98.27075499999995,81.4" fill="none" instance-id="11" semantic-id="5" stroke="rgb(89,89,89)" stroke-width="0.1"/>
  <path d="M 98.27075499999995,81.4 L 98.27075499999995,81.80000000000001" fill="none" instance-id="11" semantic-id="5" stroke="rgb(89,89,89)" stroke-width="0.1"/>
  <path d="M 98.27075499999995,81.80000000000001 L 92.77075499999995,81.80000000000001" fill="none" instance-id="11" semantic-id="5" stroke="rgb(89,89,89)" stroke-width="0.1"/>
  <path d="M 17.68775499999998,50.56700000000001 L 17.68775499999998,46.56700000000001" fill="none" instance-id="9" semantic-id="5" stroke="rgb(89,89,89)" stroke-width="0.1"/>
  <path d="M 17.68775499999998,46.56700000000001 L 17.287754999999947,46.56700000000001" fill="none" instance-id="9" semantic-id="5" stroke="rgb(89,89,89)" stroke-width="0.1"/>
  <path d="M 17.287754999999947,46.56700000000001 L 17.287754999999947,50.56700000000001" fill="none" instance-id="9" semantic-id="5" stroke="rgb(89,89,89)" stroke-width="0.1"/>
  <path d="M 17.287754999999947,50.56700000000001 L 17.68775499999998,50.56700000000001" fill="none" instance-id="9" semantic-id="5" stroke="rgb(89,89,89)" stroke-width="0.1"/>
  <path d="M 17.68775499999998,54.93300000000002 L 17.68775499999998,50.93300000000002" fill="none" instance-id="9" semantic-id="5" stroke="rgb(89,89,89)" stroke-width="0.1"/>
  <path d="M 17.68775499999998,50.93300000000002 L 17.287754999999947,50.93300000000002" fill="none" instance-id="9" semantic-id="5" stroke="rgb(89,89,89)" stroke-width="0.1"/>
  <path d="M 17.287754999999947,50.93300000000002 L 17.287754999999947,54.93300000000002" fill="none" instance-id="9" semantic-id="5" stroke="rgb(89,89,89)" stroke-width="0.1"/>
  <path d="M 17.287754999999947,54.93300000000002 L 17.68775499999998,54.93300000000002" fill="none" instance-id="9" semantic-id="5" stroke="rgb(89,89,89)" stroke-width="0.1"/>
  <path d="M 6.337754999999959,46.25 L 16.287754999999947,46.25" fill="none" instance-id="7" semantic-id="31" stroke="rgb(89,89,89)" stroke-width="0.1"/>
  <path d="M 16.287754999999947,46.25 L 16.287754999999947,55.25" fill="none" instance-id="7" semantic-id="31" stroke="rgb(89,89,89)" stroke-width="0.1"/>
  <path d="M 16.287754999999947,55.25 L 6.337754999999959,55.25" fill="none" instance-id="7" semantic-id="31" stroke="rgb(89,89,89)" stroke-width="0.1"/>
  <path d="M 6.337754999999959,55.25 L 6.337754999999959,46.25" fill="none" instance-id="7" semantic-id="31" stroke="rgb(89,89,89)" stroke-width="0.1"/>
  <path d="M 3.3377549999999587,47.75 L 5.337754999999959,47.75" fill="none" instance-id="7" semantic-id="31" stroke="rgb(89,89,89)" stroke-width="0.1"/>
  <path d="M 5.337754999999959,47.75 L 5.337754999999959,53.75" fill="none" instance-id="7" semantic-id="31" stroke="rgb(89,89,89)" stroke-width="0.1"/>
  <path d="M 5.337754999999959,53.75 L 3.3377549999999587,53.75" fill="none" instance-id="7" semantic-id="31" stroke="rgb(89,89,89)" stroke-width="0.1"/>
  <path d="M 3.3377549999999587,53.75 L 3.3377549999999587,47.75" fill="none" instance-id="7" semantic-id="31" stroke="rgb(89,89,89)" stroke-width="0.1"/>
 </g>
 <g id="layerAE-FLOR" inkscape:groupmode="layer" inkscape:label="AE-FLOR">
  <path d="M 2.5877549999999587,83.0 L 52.58775499999996,83.0" fill="none" stroke="rgb(89,89,89)" stroke-width="0.1"/>
  <path d="M 98.08775499999996,81.0 L 87.08775499999996,81.0" fill="none" stroke="rgb(89,89,89)" stroke-width="0.1"/>
  <path d="M 18.08775499999996,46.75 L 18.08775499999996,54.75" fill="none" stroke="rgb(89,89,89)" stroke-width="0.1"/>
  <path d="M 12.587754999999959,8.5 L 12.587754999999959,16.5" fill="none" stroke="rgb(89,89,89)" stroke-width="0.1"/>
  <path d="M 10.587754999999959,8.5 L 10.587754999999959,16.5" fill="none" stroke="rgb(89,89,89)" stroke-width="0.1"/>
  <path d="M 21.08775499999996,64.0 L 31.08775499999996,64.0" fill="none" stroke="rgb(89,89,89)" stroke-width="0.1"/>
 </g>
 <g id="layerAE-HDWR" inkscape:groupmode="layer" inkscape:label="AE-HDWR">
  <path d="M 18.037754999999947,83.76600000000002 L 53.33775499999996,83.76600000000002" fill="none" stroke="rgb(89,89,89)" stroke-width="0.1"/>
  <path d="M 53.33775499999996,83.76600000000002 L 53.33775499999996,83.26600000000002" fill="none" stroke="rgb(89,89,89)" stroke-width="0.1"/>
  <path d="M 53.33775499999996,83.26600000000002 L 18.037754999999947,83.26600000000002" fill="none" stroke="rgb(89,89,89)" stroke-width="0.1"/>
  <path d="M 18.037754999999947,83.26600000000002 L 18.037754999999947,83.76600000000002" fill="none" stroke="rgb(89,89,89)" stroke-width="0.1"/>
 </g>
 <g id="layerAE-HOLE" inkscape:groupmode="layer" inkscape:label="AE-HOLE">
  <path d="M 10.587754999999959,7.5 L 0.5877549999999587,7.5" fill="none" stroke="rgb(89,89,89)" stroke-width="0.1"/>
  <path d="M 0.5877549999999587,7.5 L 0.5877549999999587,17.5" fill="none" stroke="rgb(89,89,89)" stroke-width="0.1"/>
  <path d="M 0.5877549999999587,17.5 L 10.587754999999959,17.5" fill="none" stroke="rgb(89,89,89)" stroke-width="0.1"/>
  <path d="M 10.587754999999959,17.5 L 10.587754999999959,7.5" fill="none" stroke="rgb(89,89,89)" stroke-width="0.1"/>
  <path d="M 10.587754999999959,24.5 L 10.587754999999959,21.5" fill="none" stroke="rgb(89,89,89)" stroke-width="0.1"/>
  <path d="M 10.587754999999959,21.5 L 2.5877549999999587,21.5" fill="none" stroke="rgb(89,89,89)" stroke-width="0.1"/>
  <path d="M 2.5877549999999587,21.5 L 2.5877549999999587,24.5" fill="none" stroke="rgb(89,89,89)" stroke-width="0.1"/>
  <path d="M 2.5877549999999587,24.5 L 10.587754999999959,24.5" fill="none" stroke="rgb(89,89,89)" stroke-width="0.1"/>
  <path d="M 0.5877549999999587,17.5 L 1.9797549999999546,9.172000000000025" fill="none" stroke="rgb(89,89,89)" stroke-width="0.1"/>
  <path d="M 1.9797549999999546,9.172000000000025 L 10.587754999999959,7.5" fill="none" stroke="rgb(89,89,89)" stroke-width="0.1"/>
  <path d="M 2.5877549999999587,21.5 L 10.065754999999967,22.001000000000005" fill="none" stroke="rgb(89,89,89)" stroke-width="0.1"/>
  <path d="M 10.065754999999967,22.001000000000005 L 10.587754999999959,24.5" fill="none" stroke="rgb(89,89,89)" stroke-width="0.1"/>
 </g>
 <g id="layerAE-STAR" inkscape:groupmode="layer" inkscape:label="AE-STAR">
  <path d="M 18.787754999999947,100.0 L 18.787754999999947,83.0" fill="none" stroke="rgb(89,89,89)" stroke-width="0.1"/>
  <path d="M 21.38775499999997,100.0 L 21.38775499999997,83.0" fill="none" stroke="rgb(89,89,89)" stroke-width="0.1"/>
  <path d="M 23.987754999999993,100.0 L 23.987754999999993,83.0" fill="none" stroke="rgb(89,89,89)" stroke-width="0.1"/>
  <path d="M 26.58775499999996,100.0 L 26.58775499999996,83.0" fill="none" stroke="rgb(89,89,89)" stroke-width="0.1"/>
  <path d="M 29.18775499999998,100.0 L 29.18775499999998,83.0" fill="none" stroke="rgb(89,89,89)" stroke-width="0.1"/>
  <path d="M 31.787754999999947,100.0 L 31.787754999999947,83.0" fill="none" stroke="rgb(89,89,89)" stroke-width="0.1"/>
  <path d="M 34.38775499999997,100.0 L 34.38775499999997,83.0" fill="none" stroke="rgb(89,89,89)" stroke-width="0.1"/>
  <path d="M 36.98775499999999,100.0 L 36.98775499999999,83.0" fill="none" stroke="rgb(89,89,89)" stroke-width="0.1"/>
  <path d="M 39.58775499999996,100.0 L 39.58775499999996,83.0" fill="none" stroke="rgb(89,89,89)" stroke-width="0.1"/>
  <path d="M 42.18775499999998,100.0 L 42.18775499999998,83.0" fill="none" stroke="rgb(89,89,89)" stroke-width="0.1"/>
  <path d="M 44.78775499999995,100.0 L 44.78775499999995,83.0" fill="none" stroke="rgb(89,89,89)" stroke-width="0.1"/>
  <path d="M 47.38775499999997,100.0 L 47.38775499999997,83.0" fill="none" stroke="rgb(89,89,89)" stroke-width="0.1"/>
  <path d="M 49.98775499999999,100.0 L 49.98775499999999,83.0" fill="none" stroke="rgb(89,89,89)" stroke-width="0.1"/>
  <path d="M 52.58775499999996,100.0 L 52.58775499999996,83.0" fill="none" stroke="rgb(89,89,89)" stroke-width="0.1"/>
 </g>
 <g id="layerAE-WALL" inkscape:groupmode="layer" inkscape:label="AE-WALL">
  <path d="M 0.0,79.0 L 64.58775499999996,79.0" fill="none" instance-id="-1" semantic-id="1" stroke="rgb(89,89,89)" stroke-width="0.1"/>
  <path d="M 75.58775499999996,79.0 L 100.0,79.0" fill="none" instance-id="-1" semantic-id="1" stroke="rgb(89,89,89)" stroke-width="0.1"/>
  <path d="M 0.0,81.0 L 64.58775499999996,81.0" fill="none" instance-id="-1" semantic-id="1" stroke="rgb(89,89,89)" stroke-width="0.1"/>
  <path d="M 75.58775499999996,81.0 L 76.58775499999996,81.0" fill="none" instance-id="-1" semantic-id="1" stroke="rgb(89,89,89)" stroke-width="0.1"/>
  <path d="M 18.08775499999996,54.75 L 18.08775499999996,57.0" fill="none" instance-id="-1" semantic-id="1" stroke="rgb(89,89,89)" stroke-width="0.1"/>
  <path d="M 18.08775499999996,57.0 L 2.5877549999999587,57.0" fill="none" instance-id="-1" semantic-id="1" stroke="rgb(89,89,89)" stroke-width="0.1"/>
  <path d="M 0.5877549999999587,57.0 L 0.0,57.0" fill="none" instance-id="-1" semantic-id="1" stroke="rgb(89,89,89)" stroke-width="0.1"/>
  <path d="M 2.5877549999999587,57.0 L 2.5877549999999587,44.5" fill="none" instance-id="-1" semantic-id="1" stroke="rgb(89,89,89)" stroke-width="0.1"/>
  <path d="M 0.0,44.5 L 0.5877549999999587,44.5" fill="none" instance-id="-1" semantic-id="1" stroke="rgb(89,89,89)" stroke-width="0.1"/>
  <path d="M 2.5877549999999587,44.5 L 18.08775499999996,44.5" fill="none" instance-id="-1" semantic-id="1" stroke="rgb(89,89,89)" stroke-width="0.1"/>
  <path d="M 18.08775499999996,44.5 L 18.08775499999996,46.75" fill="none" instance-id="-1" semantic-id="1" stroke="rgb(89,89,89)" stroke-width="0.1"/>
  <path d="M 20.08775499999996,54.75 L 20.08775499999996,59.0" fill="none" instance-id="-1" semantic-id="1" stroke="rgb(89,89,89)" stroke-width="0.1"/>
  <path d="M 0.5877549999999587,57.0 L 0.5877549999999587,44.5" fill="none" instance-id="-1" semantic-id="1" stroke="rgb(89,89,89)" stroke-width="0.1"/>
  <path d="M 0.0,42.5 L 20.08775499999996,42.5" fill="none" instance-id="-1" semantic-id="1" stroke="rgb(89,89,89)" stroke-width="0.1"/>
  <path d="M 20.08775499999996,42.5 L 20.08775499999996,46.75" fill="none" instance-id="-1" semantic-id="1" stroke="rgb(89,89,89)" stroke-width="0.1"/>
  <path d="M 78.58775499999996,100.0 L 78.58775499999996,81.0" fill="none" instance-id="-1" semantic-id="1" stroke="rgb(89,89,89)" stroke-width="0.1"/>
  <path d="M 18.08775499999996,46.75 L 20.08775499999996,46.75" fill="none" instance-id="-1" semantic-id="1" stroke="rgb(89,89,89)" stroke-width="0.1"/>
  <path d="M 18.08775499999996,54.75 L 20.08775499999996,54.75" fill="none" instance-id="-1" semantic-id="1" stroke="rgb(89,89,89)" stroke-width="0.1"/>
  <path d="M 31.08775499999996,62.0 L 100.0,62.0" fill="none" instance-id="-1" semantic-id="1" stroke="rgb(89,89,89)" stroke-width="0.1"/>
  <path d="M 31.08775499999996,64.0 L 100.0,64.0" fill="none" instance-id="-1" semantic-id="1" stroke="rgb(89,89,89)" stroke-width="0.1"/>
  <path d="M 75.58775499999996,81.0 L 75.58775499999996,79.0" fill="none" instance-id="-1" semantic-id="1" stroke="rgb(89,89,89)" stroke-width="0.1"/>
  <path d="M 64.58775499999996,81.0 L 64.58775499999996,79.0" fill="none" instance-id="-1" semantic-id="1" stroke="rgb(89,89,89)" stroke-width="0.1"/>
  <path d="M 10.587754999999959,16.5 L 12.587754999999959,16.5" fill="none" instance-id="-1" semantic-id="1" stroke="rgb(89,89,89)" stroke-width="0.1"/>
  <path d="M 10.587754999999959,8.5 L 12.587754999999959,8.5" fill="none" instance-id="-1" semantic-id="1" stroke="rgb(89,89,89)" stroke-width="0.1"/>
  <path d="M 21.08775499999996,62.0 L 21.08775499999996,64.0" fill="none" instance-id="-1" semantic-id="1" stroke="rgb(89,89,89)" stroke-width="0.1"/>
  <path d="M 31.08775499999996,62.0 L 31.08775499999996,64.0" fill="none" instance-id="-1" semantic-id="1" stroke="rgb(89,89,89)" stroke-width="0.1"/>
  <path d="M 0.5877549999999587,5.5 L 0.5877549999999587,0.0" fill="none" instance-id="-1" semantic-id="1" stroke="rgb(89,89,89)" stroke-width="0.1"/>
  <path d="M 76.58775499999996,79.0 L 82.58775499999996,79.0" fill="none" instance-id="-1" semantic-id="1" stroke="rgb(89,89,89)" stroke-width="0.1"/>
  <path d="M 82.58775499999996,79.0 L 82.58775499999996,84.0" fill="none" instance-id="-1" semantic-id="1" stroke="rgb(89,89,89)" stroke-width="0.1"/>
  <path d="M 82.58775499999996,84.0 L 76.58775499999996,84.0" fill="none" instance-id="-1" semantic-id="1" stroke="rgb(89,89,89)" stroke-width="0.1"/>
  <path d="M 76.58775499999996,84.0 L 76.58775499999996,79.0" fill="none" instance-id="-1" semantic-id="1" stroke="rgb(89,89,89)" stroke-width="0.1"/>
  <path d="M 76.58775499999996,17.5 L 82.58775499999996,17.5" fill="none" instance-id="-1" semantic-id="1" stroke="rgb(89,89,89)" stroke-width="0.1"/>
  <path d="M 82.58775499999996,17.5 L 82.58775499999996,22.5" fill="none" instance-id="-1" semantic-id="1" stroke="rgb(89,89,89)" stroke-width="0.1"/>
  <path d="M 82.58775499999996,22.5 L 76.58775499999996,22.5" fill="none" instance-id="-1" semantic-id="1" stroke="rgb(89,89,89)" stroke-width="0.1"/>
  <path d="M 76.58775499999996,22.5 L 76.58775499999996,17.5" fill="none" instance-id="-1" semantic-id="1" stroke="rgb(89,89,89)" stroke-width="0.1"/>
  <path d="M 0.0,79.0 L 2.5877549999999587,79.0" fill="none" instance-id="-1" semantic-id="1" stroke="rgb(89,89,89)" stroke-width="0.1"/>
  <path d="M 2.5877549999999587,79.0 L 2.5877549999999587,84.0" fill="none" instance-id="-1" semantic-id="1" stroke="rgb(89,89,89)" stroke-width="0.1"/>
  <path d="M 2.5877549999999587,84.0 L 0.0,84.0" fill="none" instance-id="-1" semantic-id="1" stroke="rgb(89,89,89)" stroke-width="0.1"/>
  <path d="M 0.0,17.5 L 2.5877549999999587,17.5" fill="none" instance-id="-1" semantic-id="1" stroke="rgb(89,89,89)" stroke-width="0.1"/>
  <path d="M 2.5877549999999587,17.5 L 2.5877549999999587,22.5" fill="none" instance-id="-1" semantic-id="1" stroke="rgb(89,89,89)" stroke-width="0.1"/>
  <path d="M 2.5877549999999587,22.5 L 0.0,22.5" fill="none" instance-id="-1" semantic-id="1" stroke="rgb(89,89,89)" stroke-width="0.1"/>
  <path d="M 100.0,81.0 L 78.58775499999996,81.0" fill="none" instance-id="-1" semantic-id="1" stroke="rgb(89,89,89)" stroke-width="0.1"/>
  <path d="M 76.58775499999996,81.0 L 76.58775499999996,100.0" fill="none" instance-id="-1" semantic-id="1" stroke="rgb(89,89,89)" stroke-width="0.1"/>
  <path d="M 20.08775499999996,59.0 L 20.08775499999996,62.0" fill="none" instance-id="-1" semantic-id="1" stroke="rgb(89,89,89)" stroke-width="0.1"/>
  <path d="M 20.08775499999996,62.0 L 21.08775499999996,62.0" fill="none" instance-id="-1" semantic-id="1" stroke="rgb(89,89,89)" stroke-width="0.1"/>
  <path d="M 0.0,59.0 L 18.08775499999996,59.0" fill="none" instance-id="-1" semantic-id="1" stroke="rgb(89,89,89)" stroke-width="0.1"/>
  <path d="M 18.08775499999996,59.0 L 18.08775499999996,64.0" fill="none" instance-id="-1" semantic-id="1" stroke="rgb(89,89,89)" stroke-width="0.1"/>
  <path d="M 18.08775499999996,64.0 L 21.08775499999996,64.0" fill="none" instance-id="-1" semantic-id="1" stroke="rgb(89,89,89)" stroke-width="0.1"/>
  <path d="M 0.0,5.5 L 12.587754999999959,5.5" fill="none" instance-id="-1" semantic-id="1" stroke="rgb(89,89,89)" stroke-width="0.1"/>
  <path d="M 12.587754999999959,5.5 L 12.587754999999959,8.5" fill="none" instance-id="-1" semantic-id="1" stroke="rgb(89,89,89)" stroke-width="0.1"/>
  <path d="M 12.587754999999959,16.5 L 12.587754999999959,25.5" fill="none" instance-id="-1" semantic-id="1" stroke="rgb(89,89,89)" stroke-width="0.1"/>
  <path d="M 12.587754999999959,25.5 L 0.0,25.5" fill="none" instance-id="-1" semantic-id="1" stroke="rgb(89,89,89)" stroke-width="0.1"/>
  <path d="M 0.0,24.5 L 10.587754999999959,24.5" fill="none" instance-id="-1" semantic-id="1" stroke="rgb(89,89,89)" stroke-width="0.1"/>
  <path d="M 10.587754999999959,24.5 L 10.587754999999959,19.5" fill="none" instance-id="-1" semantic-id="1" stroke="rgb(89,89,89)" stroke-width="0.1"/>
  <path d="M 10.587754999999959,19.5 L 2.5877549999999587,19.5" fill="none" instance-id="-1" semantic-id="1" stroke="rgb(89,89,89)" stroke-width="0.1"/>
  <path d="M 0.0,7.5 L 10.587754999999959,7.5" fill="none" instance-id="-1" semantic-id="1" stroke="rgb(89,89,89)" stroke-width="0.1"/>
  <path d="M 10.587754999999959,7.5 L 10.587754999999959,8.5" fill="none" instance-id="-1" semantic-id="1" stroke="rgb(89,89,89)" stroke-width="0.1"/>
  <path d="M 10.587754999999959,16.5 L 10.587754999999959,17.5" fill="none" instance-id="-1" semantic-id="1" stroke="rgb(89,89,89)" stroke-width="0.1"/>
  <path d="M 10.587754999999959,17.5 L 2.5877549999999587,17.5" fill="none" instance-id="-1" semantic-id="1" stroke="rgb(89,89,89)" stroke-width="0.1"/>
 </g>
 <g id="layerFL809QCI_A10-地上轴网$0$AD-AXIS-AXIS" inkscape:groupmode="layer" inkscape:label="FL809QCI_A10-地上轴网$0$AD-AXIS-AXIS">
  <path d="M 79.58775499999996,0.0 L 79.58775499999996,100.0" fill="none" stroke="rgb(178,0,0)" stroke-width="0.1"/>
  <path d="M 100.0,20.0 L 0.0,20.0" fill="none" stroke="rgb(178,0,0)" stroke-width="0.1"/>
  <path d="M 100.0,82.0 L 0.0,82.0" fill="none" stroke="rgb(178,0,0)" stroke-width="0.1"/>
 </g>
</svg>