<?xml version="1.0" encoding="utf-8"?>
<svg style="background-color: #000;" version="1.1" viewBox="0 0 100.0 100.0" xmlns="http://www.w3.org/2000/svg" xmlns:inkscape="http://www.inkscape.org/namespaces/inkscape">
 <g id="layer__覆盖_A10-地上轴网_TEN25I50_设计区$0$AD-AXIS-AXIS" inkscape:groupmode="layer" inkscape:label="__覆盖_A10-地上轴网_TEN25I50_设计区$0$AD-AXIS-AXIS">
  <path d="M 63.5,0.0 L 63.5,100.0" fill="none" stroke="rgb(178,0,0)" stroke-width="0.1"/>
  <path d="M 30.5,0.0 L 30.5,100.0" fill="none" stroke="rgb(178,0,0)" stroke-width="0.1"/>
  <path d="M 4.5,0.0 L 4.5,100.0" fill="none" stroke="rgb(178,0,0)" stroke-width="0.1"/>
  <path d="M 100.0,27.5 L 0.0,27.5" fill="none" stroke="rgb(178,0,0)" stroke-width="0.1"/>
  <path d="M 100.0,87.5 L 0.0,87.5" fill="none" stroke="rgb(178,0,0)" stroke-width="0.1"/>
 </g>
 <g id="layer__附着_A10-参照-平面_TEN25I50_设计区$0$AE-ELEV-4-RAIL" inkscape:groupmode="layer" inkscape:label="__附着_A10-参照-平面_TEN25I50_设计区$0$AE-ELEV-4-RAIL">
  <path d="M 6.800000000000011,83.80000000000001 L 0.0,83.80000000000001" fill="none" stroke="rgb(63,63,63)" stroke-width="0.1"/>
  <path d="M 6.800000000000011,0.0 L 6.800000000000011,83.80000000000001" fill="none" stroke="rgb(63,63,63)" stroke-width="0.1"/>
  <path d="M 7.199999999999989,84.19999999999999 L 0.0,84.19999999999999" fill="none" stroke="rgb(63,63,63)" stroke-width="0.1"/>
  <path d="M 7.199999999999989,0.0 L 7.199999999999989,84.19999999999999" fill="none" stroke="rgb(63,63,63)" stroke-width="0.1"/>
 </g>
 <g id="layer__附着_A10-参照-平面_TEN25I50_设计区$0$AE-FLOR" inkscape:groupmode="layer" inkscape:label="__附着_A10-参照-平面_TEN25I50_设计区$0$AE-FLOR">
  <path d="M 58.5,0.0 L 58.5,83.5" fill="none" stroke="rgb(89,89,89)" stroke-width="0.1"/>
  <path d="M 58.5,83.5 L 0.0,83.5" fill="none" stroke="rgb(89,89,89)" stroke-width="0.1"/>
  <path d="M 7.5,84.5 L 0.0,84.5" fill="none" stroke="rgb(89,89,89)" stroke-width="0.1"/>
  <path d="M 7.5,0.0 L 7.5,84.5" fill="none" stroke="rgb(89,89,89)" stroke-width="0.1"/>
  <path d="M 6.5,83.5 L 0.0,83.5" fill="none" stroke="rgb(89,89,89)" stroke-width="0.1"/>
  <path d="M 6.5,0.0 L 6.5,83.5" fill="none" stroke="rgb(89,89,89)" stroke-width="0.1"/>
 </g>
</svg>