<?xml version="1.0" encoding="utf-8"?>
<svg style="background-color: #000;" version="1.1" viewBox="0 0 100.0 100.0" xmlns="http://www.w3.org/2000/svg" xmlns:inkscape="http://www.inkscape.org/namespaces/inkscape">
 <g id="layer0" inkscape:groupmode="layer" inkscape:label="0">
  <path d="M 54.5,60.99000000000001 L 55.49000000000001,60.0" fill="none" stroke="rgb(89,89,89)" stroke-width="0.1"/>
  <path d="M 55.00999999999999,62.5 L 57.50999999999999,60.0" fill="none" stroke="rgb(89,89,89)" stroke-width="0.1"/>
  <path d="M 57.031000000000006,62.5 L 59.531000000000006,60.0" fill="none" stroke="rgb(89,89,89)" stroke-width="0.1"/>
  <path d="M 59.05099999999999,62.5 L 61.55099999999999,60.0" fill="none" stroke="rgb(89,89,89)" stroke-width="0.1"/>
  <path d="M 61.072,62.5 L 63.572,60.0" fill="none" stroke="rgb(89,89,89)" stroke-width="0.1"/>
  <path d="M 63.09200000000001,62.5 L 65.59200000000001,60.0" fill="none" stroke="rgb(89,89,89)" stroke-width="0.1"/>
  <path d="M 65.113,62.5 L 67.613,60.0" fill="none" stroke="rgb(89,89,89)" stroke-width="0.1"/>
  <path d="M 67.13399999999999,62.5 L 69.63399999999999,60.0" fill="none" stroke="rgb(89,89,89)" stroke-width="0.1"/>
  <path d="M 69.154,62.5 L 71.654,60.0" fill="none" stroke="rgb(89,89,89)" stroke-width="0.1"/>
  <path d="M 71.17500000000001,62.5 L 73.67500000000001,60.0" fill="none" stroke="rgb(89,89,89)" stroke-width="0.1"/>
  <path d="M 73.195,62.5 L 75.695,60.0" fill="none" stroke="rgb(89,89,89)" stroke-width="0.1"/>
  <path d="M 75.21600000000001,62.5 L 77.71600000000001,60.0" fill="none" stroke="rgb(89,89,89)" stroke-width="0.1"/>
  <path d="M 77.23599999999999,62.5 L 79.73599999999999,60.0" fill="none" stroke="rgb(89,89,89)" stroke-width="0.1"/>
  <path d="M 79.257,62.5 L 81.757,60.0" fill="none" stroke="rgb(89,89,89)" stroke-width="0.1"/>
  <path d="M 81.27699999999999,62.5 L 83.77699999999999,60.0" fill="none" stroke="rgb(89,89,89)" stroke-width="0.1"/>
  <path d="M 83.298,62.5 L 85.798,60.0" fill="none" stroke="rgb(89,89,89)" stroke-width="0.1"/>
  <path d="M 85.31899999999999,62.5 L 87.81899999999999,60.0" fill="none" stroke="rgb(89,89,89)" stroke-width="0.1"/>
  <path d="M 87.339,62.5 L 89.839,60.0" fill="none" stroke="rgb(89,89,89)" stroke-width="0.1"/>
  <path d="M 89.36000000000001,62.5 L 91.86000000000001,60.0" fill="none" stroke="rgb(89,89,89)" stroke-width="0.1"/>
  <path d="M 91.38,62.5 L 93.88,60.0" fill="none" stroke="rgb(89,89,89)" stroke-width="0.1"/>
  <path d="M 93.40100000000001,62.5 L 95.90100000000001,60.0" fill="none" stroke="rgb(89,89,89)" stroke-width="0.1"/>
  <path d="M 95.42099999999999,62.5 L 97.92099999999999,60.0" fill="none" stroke="rgb(89,89,89)" stroke-width="0.1"/>
  <path d="M 97.44200000000001,62.5 L 99.94200000000001,60.0" fill="none" stroke="rgb(89,89,89)" stroke-width="0.1"/>
  <path d="M 99.46199999999999,62.5 L 100.0,61.96199999999999" fill="none" stroke="rgb(89,89,89)" stroke-width="0.1"/>
  <path d="M 54.5,61.66300000000001 L 56.16300000000001,60.0" fill="none" stroke="rgb(89,89,89)" stroke-width="0.1"/>
  <path d="M 55.684,62.5 L 58.184,60.0" fill="none" stroke="rgb(89,89,89)" stroke-width="0.1"/>
  <path d="M 57.70400000000001,62.5 L 60.20400000000001,60.0" fill="none" stroke="rgb(89,89,89)" stroke-width="0.1"/>
  <path d="M 59.724999999999994,62.5 L 62.224999999999994,60.0" fill="none" stroke="rgb(89,89,89)" stroke-width="0.1"/>
  <path d="M 61.745000000000005,62.5 L 64.245,60.0" fill="none" stroke="rgb(89,89,89)" stroke-width="0.1"/>
  <path d="M 63.76599999999999,62.5 L 66.26599999999999,60.0" fill="none" stroke="rgb(89,89,89)" stroke-width="0.1"/>
  <path d="M 65.786,62.5 L 68.286,60.0" fill="none" stroke="rgb(89,89,89)" stroke-width="0.1"/>
  <path d="M 67.80699999999999,62.5 L 70.30699999999999,60.0" fill="none" stroke="rgb(89,89,89)" stroke-width="0.1"/>
  <path d="M 69.828,62.5 L 72.328,60.0" fill="none" stroke="rgb(89,89,89)" stroke-width="0.1"/>
  <path d="M 71.84800000000001,62.5 L 74.34800000000001,60.0" fill="none" stroke="rgb(89,89,89)" stroke-width="0.1"/>
  <path d="M 73.869,62.5 L 76.369,60.0" fill="none" stroke="rgb(89,89,89)" stroke-width="0.1"/>
  <path d="M 75.88900000000001,62.5 L 78.38900000000001,60.0" fill="none" stroke="rgb(89,89,89)" stroke-width="0.1"/>
  <path d="M 77.91,62.5 L 80.41,60.0" fill="none" stroke="rgb(89,89,89)" stroke-width="0.1"/>
  <path d="M 79.93,62.5 L 82.43,60.0" fill="none" stroke="rgb(89,89,89)" stroke-width="0.1"/>
  <path d="M 81.951,62.5 L 84.451,60.0" fill="none" stroke="rgb(89,89,89)" stroke-width="0.1"/>
  <path d="M 83.97200000000001,62.5 L 86.47200000000001,60.0" fill="none" stroke="rgb(89,89,89)" stroke-width="0.1"/>
  <path d="M 85.99199999999999,62.5 L 88.49199999999999,60.0" fill="none" stroke="rgb(89,89,89)" stroke-width="0.1"/>
  <path d="M 88.013,62.5 L 90.513,60.0" fill="none" stroke="rgb(89,89,89)" stroke-width="0.1"/>
  <path d="M 90.03299999999999,62.5 L 92.53299999999999,60.0" fill="none" stroke="rgb(89,89,89)" stroke-width="0.1"/>
  <path d="M 92.054,62.5 L 94.554,60.0" fill="none" stroke="rgb(89,89,89)" stroke-width="0.1"/>
  <path d="M 94.07400000000001,62.5 L 96.57400000000001,60.0" fill="none" stroke="rgb(89,89,89)" stroke-width="0.1"/>
  <path d="M 96.095,62.5 L 98.595,60.0" fill="none" stroke="rgb(89,89,89)" stroke-width="0.1"/>
  <path d="M 98.11500000000001,62.5 L 100.0,60.61500000000001" fill="none" stroke="rgb(89,89,89)" stroke-width="0.1"/>
  <path d="M 99.5,73.0 L 99.5,82.24000000000001" fill="none" stroke="rgb(0,0,0)" stroke-width="0.1"/>
  <path d="M 100.0,80.74000000000001 L 98.0,80.74000000000001" fill="none" stroke="rgb(0,0,0)" stroke-width="0.1"/>
  <path d="M 99.5,73.0 L 99.5,82.24000000000001" fill="none" stroke="rgb(0,0,0)" stroke-width="0.1"/>
  <path d="M 75.5,73.0 L 75.5,82.24000000000001" fill="none" stroke="rgb(0,0,0)" stroke-width="0.1"/>
  <path d="M 100.0,80.74000000000001 L 74.0,80.74000000000001" fill="none" stroke="rgb(0,0,0)" stroke-width="0.1"/>
  <path d="M 75.5,73.0 L 75.5,82.24000000000001" fill="none" stroke="rgb(0,0,0)" stroke-width="0.1"/>
  <path d="M 51.5,73.0 L 51.5,82.24000000000001" fill="none" stroke="rgb(0,0,0)" stroke-width="0.1"/>
  <path d="M 77.0,80.74000000000001 L 50.0,80.74000000000001" fill="none" stroke="rgb(0,0,0)" stroke-width="0.1"/>
  <path d="M 51.5,73.0 L 51.5,82.24000000000001" fill="none" stroke="rgb(0,0,0)" stroke-width="0.1"/>
  <path d="M 27.5,73.0 L 27.5,82.24000000000001" fill="none" stroke="rgb(0,0,0)" stroke-width="0.1"/>
  <path d="M 53.0,80.74000000000001 L 26.0,80.74000000000001" fill="none" stroke="rgb(0,0,0)" stroke-width="0.1"/>
  <path d="M 27.5,73.0 L 27.5,82.24000000000001" fill="none" stroke="rgb(0,0,0)" stroke-width="0.1"/>
  <path d="M 3.5,73.0 L 3.5,82.24000000000001" fill="none" stroke="rgb(0,0,0)" stroke-width="0.1"/>
  <path d="M 29.0,80.74000000000001 L 2.0,80.74000000000001" fill="none" stroke="rgb(0,0,0)" stroke-width="0.1"/>
  <path d="M 3.5,73.0 L 3.5,82.24000000000001" fill="none" stroke="rgb(0,0,0)" stroke-width="0.1"/>
  <path d="M 5.0,80.74000000000001 L 0.0,80.74000000000001" fill="none" stroke="rgb(0,0,0)" stroke-width="0.1"/>
  <path d="M 50.0,86.5 L 45.38499999999999,86.5" fill="none" stroke="rgb(0,0,0)" stroke-width="0.1"/>
  <path d="M 46.88499999999999,100.0 L 46.88499999999999,85.0" fill="none" stroke="rgb(0,0,0)" stroke-width="0.1"/>
  <path d="M 50.0,86.5 L 45.38499999999999,86.5" fill="none" stroke="rgb(0,0,0)" stroke-width="0.1"/>
  <path d="M 50.0,62.5 L 45.38499999999999,62.5" fill="none" stroke="rgb(0,0,0)" stroke-width="0.1"/>
  <path d="M 46.88499999999999,88.0 L 46.88499999999999,61.0" fill="none" stroke="rgb(0,0,0)" stroke-width="0.1"/>
  <path d="M 50.0,62.5 L 45.38499999999999,62.5" fill="none" stroke="rgb(0,0,0)" stroke-width="0.1"/>
  <path d="M 50.0,38.5 L 45.38499999999999,38.5" fill="none" stroke="rgb(0,0,0)" stroke-width="0.1"/>
  <path d="M 46.88499999999999,64.0 L 46.88499999999999,37.0" fill="none" stroke="rgb(0,0,0)" stroke-width="0.1"/>
  <path d="M 50.0,13.5 L 45.38499999999999,13.5" fill="none" stroke="rgb(0,0,0)" stroke-width="0.1"/>
  <path d="M 50.0,38.5 L 45.38499999999999,38.5" fill="none" stroke="rgb(0,0,0)" stroke-width="0.1"/>
  <path d="M 46.88499999999999,12.0 L 46.88499999999999,40.0" fill="none" stroke="rgb(0,0,0)" stroke-width="0.1"/>
  <path d="M 51.5,16.5 L 51.5,100.0" fill="none" stroke="rgb(0,178,0)" stroke-width="0.1"/>
  <path d="M 100.0,13.5 L 51.5,13.5" fill="none" stroke="rgb(0,178,0)" stroke-width="0.1"/>
  <path d="M 51.5,13.5 L 51.5,100.0" fill="none" stroke="rgb(0,178,0)" stroke-width="0.1"/>
  <path d="M 100.0,13.5 L 51.5,13.5" fill="none" stroke="rgb(0,0,0)" stroke-width="0.1"/>
  <path d="M 51.5,13.5 L 51.5,16.5" fill="none" stroke="rgb(0,0,0)" stroke-width="0.1"/>
  <path d="M 51.5,16.5 L 51.5,100.0" fill="none" stroke="rgb(0,0,0)" stroke-width="0.1"/>
  <path d="M 100.0,13.5 L 51.5,13.5" fill="none" stroke="rgb(178,0,0)" stroke-width="0.1"/>
  <path d="M 51.5,13.5 L 51.5,16.5" fill="none" stroke="rgb(178,0,0)" stroke-width="0.1"/>
  <path d="M 51.5,16.5 L 51.5,100.0" fill="none" stroke="rgb(178,0,0)" stroke-width="0.1"/>
  <path d="M 100.0,62.5 L 54.5,62.5" fill="none" stroke="rgb(178,0,0)" stroke-width="0.1"/>
  <path d="M 54.5,62.5 L 54.5,60.0" fill="none" stroke="rgb(178,0,0)" stroke-width="0.1"/>
  <path d="M 54.5,60.0 L 100.0,60.0" fill="none" stroke="rgb(178,0,0)" stroke-width="0.1"/>
  <path d="M 54.5,62.5 L 100.0,62.5" fill="none" stroke="rgb(89,89,89)" stroke-width="0.1"/>
  <path d="M 100.0,60.0 L 54.5,60.0" fill="none" stroke="rgb(89,89,89)" stroke-width="0.1"/>
  <path d="M 54.5,60.0 L 54.5,62.5" fill="none" stroke="rgb(89,89,89)" stroke-width="0.1"/>
  <text fill="rgb(0,0,0)" font-family="Noto Sans CJK SC" font-size="2" transform="rotate(-0.0,82.357,79.24000000000001)" x="82.357" y="79.24000000000001">
   2400
  </text>
  <text fill="rgb(0,0,0)" font-family="Noto Sans CJK SC" font-size="2" transform="rotate(-0.0,58.357,79.24000000000001)" x="58.357" y="79.24000000000001">
   2400
  </text>
  <text fill="rgb(0,0,0)" font-family="Noto Sans CJK SC" font-size="2" transform="rotate(-0.0,34.357,79.24000000000001)" x="34.357" y="79.24000000000001">
   2400
  </text>
  <text fill="rgb(0,0,0)" font-family="Noto Sans CJK SC" font-size="2" transform="rotate(-0.0,10.357,79.24000000000001)" x="10.357" y="79.24000000000001">
   2400
  </text>
  <text fill="rgb(0,0,0)" font-family="Noto Sans CJK SC" font-size="2" transform="rotate(-90.0,45.38499999999999,79.64299999999997)" x="45.38499999999999" y="79.64299999999997">
   2400
  </text>
  <text fill="rgb(0,0,0)" font-family="Noto Sans CJK SC" font-size="2" transform="rotate(-90.0,45.38499999999999,55.64299999999997)" x="45.38499999999999" y="55.64299999999997">
   2400
  </text>
  <text fill="rgb(0,0,0)" font-family="Noto Sans CJK SC" font-size="2" transform="rotate(-90.0,45.38499999999999,31.142999999999972)" x="45.38499999999999" y="31.142999999999972">
   2500
  </text>
 </g>
 <g id="layer0WZ" inkscape:groupmode="layer" inkscape:label="0WZ">
  <text fill="rgb(0,178,0)" font-family="Noto Sans CJK SC" font-size="2" transform="rotate(-0.0,84.405,21.819000000000017)" x="84.405" y="21.819000000000017">
   MQ1
  </text>
 </g>
 <g id="layerAE-WIND" inkscape:groupmode="layer" inkscape:label="AE-WIND">
  <path d="M 9.429000000000002,20.62299999999999 L 9.519000000000005,20.533000000000015" fill="none" stroke="rgb(178,0,0)" stroke-width="0.1"/>
  <path d="M 7.97999999999999,23.13299999999998 L 9.90700000000001,21.204999999999984" fill="none" stroke="rgb(178,0,0)" stroke-width="0.1"/>
  <path d="M 6.531000000000006,25.641999999999996 L 10.294999999999987,21.877999999999986" fill="none" stroke="rgb(178,0,0)" stroke-width="0.1"/>
  <path d="M 7.109000000000009,26.125 L 10.683999999999997,22.55000000000001" fill="none" stroke="rgb(178,0,0)" stroke-width="0.1"/>
  <path d="M 8.169999999999987,26.125 L 11.072000000000003,23.223000000000013" fill="none" stroke="rgb(178,0,0)" stroke-width="0.1"/>
  <path d="M 9.22999999999999,26.125 L 11.460000000000008,23.894999999999982" fill="none" stroke="rgb(178,0,0)" stroke-width="0.1"/>
  <path d="M 10.290999999999997,26.125 L 11.848000000000013,24.567999999999984" fill="none" stroke="rgb(178,0,0)" stroke-width="0.1"/>
  <path d="M 11.352000000000004,26.125 L 12.236999999999995,25.24000000000001" fill="none" stroke="rgb(178,0,0)" stroke-width="0.1"/>
  <path d="M 12.412000000000006,26.125 L 12.625,25.911999999999978" fill="none" stroke="rgb(178,0,0)" stroke-width="0.1"/>
  <path d="M 9.5,20.5 L 6.2520000000000095,26.125" fill="none" stroke="rgb(178,0,0)" stroke-width="0.1"/>
  <path d="M 6.2520000000000095,26.125 L 12.74799999999999,26.125" fill="none" stroke="rgb(178,0,0)" stroke-width="0.1"/>
  <path d="M 12.74799999999999,26.125 L 9.5,20.5" fill="none" stroke="rgb(178,0,0)" stroke-width="0.1"/>
  <path d="M 6.2520000000000095,26.125 L 12.74799999999999,26.125" fill="none" stroke="rgb(178,0,0)" stroke-width="0.1"/>
  <path d="M 12.74799999999999,26.125 L 9.5,20.5" fill="none" stroke="rgb(178,0,0)" stroke-width="0.1"/>
  <path d="M 9.5,20.5 L 6.2520000000000095,26.125" fill="none" stroke="rgb(178,0,0)" stroke-width="0.1"/>
 </g>
 <g id="layerF-DD-6.0$0$XFINE-铝板" inkscape:groupmode="layer" inkscape:label="F-DD-6.0$0$XFINE-铝板">
  <path d="M 63.5,13.5 L 63.5,60.0" fill="none" stroke="rgb(178,178,0)" stroke-width="0.1"/>
  <path d="M 63.5,62.5 L 63.5,100.0" fill="none" stroke="rgb(178,178,0)" stroke-width="0.1"/>
  <path d="M 75.5,13.5 L 75.5,60.0" fill="none" stroke="rgb(178,178,0)" stroke-width="0.1"/>
  <path d="M 75.5,62.5 L 75.5,100.0" fill="none" stroke="rgb(178,178,0)" stroke-width="0.1"/>
  <path d="M 87.5,13.5 L 87.5,60.0" fill="none" stroke="rgb(178,178,0)" stroke-width="0.1"/>
  <path d="M 87.5,62.5 L 87.5,100.0" fill="none" stroke="rgb(178,178,0)" stroke-width="0.1"/>
  <path d="M 99.5,13.5 L 99.5,60.0" fill="none" stroke="rgb(178,178,0)" stroke-width="0.1"/>
  <path d="M 99.5,70.0 L 99.5,100.0" fill="none" stroke="rgb(178,178,0)" stroke-width="0.1"/>
  <path d="M 100.0,62.5 L 51.5,62.5" fill="none" stroke="rgb(178,178,0)" stroke-width="0.1"/>
  <path d="M 100.0,60.0 L 54.5,60.0" fill="none" stroke="rgb(178,178,0)" stroke-width="0.1"/>
  <path d="M 100.0,86.5 L 51.5,86.5" fill="none" stroke="rgb(178,178,0)" stroke-width="0.1"/>
  <path d="M 100.0,38.5 L 51.5,38.5" fill="none" stroke="rgb(178,178,0)" stroke-width="0.1"/>
  <path d="M 54.5,13.5 L 54.5,100.0" fill="none" stroke="rgb(178,178,0)" stroke-width="0.1"/>
 </g>
 <g id="layer__覆盖_A10-地上轴网_TEN25I50_设计区$0$AD-AXIS-AXIS" inkscape:groupmode="layer" inkscape:label="__覆盖_A10-地上轴网_TEN25I50_设计区$0$AD-AXIS-AXIS">
  <path d="M 99.5,0.0 L 99.5,100.0" fill="none" stroke="rgb(178,0,0)" stroke-width="0.1"/>
  <path d="M 78.5,0.0 L 78.5,100.0" fill="none" stroke="rgb(178,0,0)" stroke-width="0.1"/>
  <path d="M 100.0,95.5 L 0.0,95.5" fill="none" stroke="rgb(178,0,0)" stroke-width="0.1"/>
  <path d="M 100.0,5.5 L 0.0,5.5" fill="none" stroke="rgb(178,0,0)" stroke-width="0.1"/>
  <path d="M 100.0,32.5 L 0.0,32.5" fill="none" stroke="rgb(178,0,0)" stroke-width="0.1"/>
  <path d="M 100.0,65.5 L 0.0,65.5" fill="none" stroke="rgb(178,0,0)" stroke-width="0.1"/>
 </g>
 <g id="layer__附着_A10-参照-平面_TEN25I50_设计区$0$AE-DOOR-INSD" inkscape:groupmode="layer" inkscape:label="__附着_A10-参照-平面_TEN25I50_设计区$0$AE-DOOR-INSD">
  <path d="M 89.75,2.0 L 89.75,2.5" fill="none" stroke="rgb(194,255,12)" stroke-width="0.1"/>
  <path d="M 99.5,2.5 L 99.5,2.0" fill="none" stroke="rgb(194,255,12)" stroke-width="0.1"/>
  <path d="M 99.5,2.5 L 89.75,2.5" fill="none" stroke="rgb(194,255,12)" stroke-width="0.1"/>
  <path d="M 99.5,2.0 L 89.75,2.0" fill="none" stroke="rgb(194,255,12)" stroke-width="0.1"/>
  <path d="M 90.01026551401901,0.011397181663994616 L 89.90759983561406,0.5029154272666574" fill="none" stroke="rgb(194,255,12)" stroke-width="0.1"/>
  <path d="M 89.90759983561406,0.5029154272666574 L 89.83037514708624,0.9990673946762172" fill="none" stroke="rgb(194,255,12)" stroke-width="0.1"/>
  <path d="M 89.83037514708624,0.9990673946762172 L 89.77879626835627,1.4985371600791382" fill="none" stroke="rgb(194,255,12)" stroke-width="0.1"/>
  <path d="M 89.77879626835627,1.4985371600791382 L 89.75299999999999,2.0" fill="none" stroke="rgb(194,255,12)" stroke-width="0.1"/>
 </g>
 <g id="layer__附着_A10-参照-平面_TEN25I50_设计区$0$AE-FLOR" inkscape:groupmode="layer" inkscape:label="__附着_A10-参照-平面_TEN25I50_设计区$0$AE-FLOR">
  <path d="M 100.0,10.5 L 0.0,10.5" fill="none" stroke="rgb(89,89,89)" stroke-width="0.1"/>
  <path d="M 71.5,16.5 L 71.5,100.0" fill="none" stroke="rgb(89,89,89)" stroke-width="0.1"/>
 </g>
 <g id="layer__附着_A10-参照-平面_TEN25I50_设计区$0$AE-WALL" inkscape:groupmode="layer" inkscape:label="__附着_A10-参照-平面_TEN25I50_设计区$0$AE-WALL">
  <path d="M 100.0,2.5 L 98.5,2.5" fill="none" instance-id="-1" semantic-id="1" stroke="rgb(89,89,89)" stroke-width="0.1"/>
  <path d="M 98.5,2.5 L 98.5,3.5" fill="none" instance-id="-1" semantic-id="1" stroke="rgb(89,89,89)" stroke-width="0.1"/>
  <path d="M 96.5,3.5 L 100.0,3.5" fill="none" instance-id="-1" semantic-id="1" stroke="rgb(89,89,89)" stroke-width="0.1"/>
  <path d="M 100.0,10.5 L 96.5,10.5" fill="none" instance-id="-1" semantic-id="1" stroke="rgb(89,89,89)" stroke-width="0.1"/>
  <path d="M 96.5,10.5 L 96.5,3.5" fill="none" instance-id="-1" semantic-id="1" stroke="rgb(89,89,89)" stroke-width="0.1"/>
  <path d="M 96.5,62.5 L 100.0,62.5" fill="none" stroke="rgb(89,89,89)" stroke-width="0.1"/>
  <path d="M 100.0,68.5 L 96.5,68.5" fill="none" stroke="rgb(89,89,89)" stroke-width="0.1"/>
  <path d="M 96.5,68.5 L 96.5,62.5" fill="none" stroke="rgb(89,89,89)" stroke-width="0.1"/>
 </g>
 <g id="layer__附着_A10-参照-平面_TEN25I50_设计区$0$F-L2$0$XFINE-钢" inkscape:groupmode="layer" inkscape:label="__附着_A10-参照-平面_TEN25I50_设计区$0$F-L2$0$XFINE-钢">
  <path d="M 100.0,16.5 L 0.0,16.5" fill="none" stroke="rgb(89,89,89)" stroke-width="0.1"/>
 </g>
 <g id="layer__附着_A10-参照-教育配套一层平面_TEN25I50_设计区$0$AE-WIND" inkscape:groupmode="layer" inkscape:label="__附着_A10-参照-教育配套一层平面_TEN25I50_设计区$0$AE-WIND">
  <path d="M 100.0,13.5 L 0.0,13.5" fill="none" stroke="rgb(178,0,0)" stroke-width="0.1"/>
  <path d="M 100.0,13.120000000000005 L 0.0,13.120000000000005" fill="none" stroke="rgb(178,0,0)" stroke-width="0.1"/>
 </g>
 <g id="layer__附着_A10-参照-教育配套一层平面_TEN25I50_设计区$0$F-L1$0$中心线center" inkscape:groupmode="layer" inkscape:label="__附着_A10-参照-教育配套一层平面_TEN25I50_设计区$0$F-L1$0$中心线center">
  <path d="M 99.5,13.660000000000025 L 99.5,10.721000000000004" fill="none" stroke="rgb(178,0,0)" stroke-width="0.1"/>
  <path d="M 75.5,13.660000000000025 L 75.5,10.721000000000004" fill="none" stroke="rgb(178,0,0)" stroke-width="0.1"/>
  <path d="M 51.5,13.660000000000025 L 51.5,10.721000000000004" fill="none" stroke="rgb(178,0,0)" stroke-width="0.1"/>
  <path d="M 27.5,13.660000000000025 L 27.5,10.721000000000004" fill="none" stroke="rgb(178,0,0)" stroke-width="0.1"/>
  <path d="M 3.5,13.660000000000025 L 3.5,10.721000000000004" fill="none" stroke="rgb(178,0,0)" stroke-width="0.1"/>
 </g>
 <g id="layer开启示意" inkscape:groupmode="layer" inkscape:label="开启示意">
  <path d="M 0.0,13.5 L 3.5,13.5" fill="none" stroke="rgb(89,89,89)" stroke-width="0.1"/>
  <path d="M 3.5,13.5 L 3.5,19.5" fill="none" stroke="rgb(89,89,89)" stroke-width="0.1"/>
  <path d="M 3.5,19.5 L 0.0,19.5" fill="none" stroke="rgb(89,89,89)" stroke-width="0.1"/>
  <path d="M 0.0,15.574074074074076 L 3.5,13.5" fill="none" stroke="rgb(89,89,89)" stroke-width="0.1"/>
  <path d="M 3.5,19.5 L 3.5,13.5" fill="none" stroke="rgb(89,89,89)" stroke-width="0.1"/>
  <path d="M 3.5,13.5 L 27.5,13.5" fill="none" stroke="rgb(89,89,89)" stroke-width="0.1"/>
  <path d="M 27.5,13.5 L 27.5,19.5" fill="none" stroke="rgb(89,89,89)" stroke-width="0.1"/>
  <path d="M 27.5,19.5 L 3.5,19.5" fill="none" stroke="rgb(89,89,89)" stroke-width="0.1"/>
  <path d="M 3.5,19.5 L 3.5,13.5" fill="none" stroke="rgb(89,89,89)" stroke-width="0.1"/>
  <path d="M 3.5,13.5 L 14.0,19.5" fill="none" stroke="rgb(89,89,89)" stroke-width="0.1"/>
  <path d="M 14.0,19.5 L 24.5,13.5" fill="none" stroke="rgb(89,89,89)" stroke-width="0.1"/>
 </g>
</svg>