<?xml version="1.0" encoding="utf-8"?>
<svg style="background-color: #000;" version="1.1" viewBox="0 0 99.99999999999994 100.0" xmlns="http://www.w3.org/2000/svg" xmlns:inkscape="http://www.inkscape.org/namespaces/inkscape">
 <g id="layerA-栏杆" inkscape:groupmode="layer" inkscape:label="A-栏杆">
  <path d="M 60.82130513519604,100.0 L 29.320685500000025,38.04622599999993" fill="none" instance-id="-1" semantic-id="33" stroke="rgb(0,107,79)" stroke-width="0.1"/>
  <path d="M 29.320685500000025,38.04622599999993 L 19.13868550000001,43.22422599999993" fill="none" instance-id="-1" semantic-id="33" stroke="rgb(0,107,79)" stroke-width="0.1"/>
  <path d="M 61.38189003720089,100.0 L 29.539685499999962,37.37422599999991" fill="none" instance-id="-1" semantic-id="33" stroke="rgb(0,107,79)" stroke-width="0.1"/>
  <path d="M 29.539685499999962,37.37422599999991 L 18.911685500000033,42.778225999999904" fill="none" instance-id="-1" semantic-id="33" stroke="rgb(0,107,79)" stroke-width="0.1"/>
 </g>
 <g id="layerA-轮廓" inkscape:groupmode="layer" inkscape:label="A-轮廓">
  <path d="M 59.97997241574916,100.0 L 28.992685499999936,39.05522599999995" fill="none" instance-id="-1" semantic-id="33" stroke="rgb(178,0,178)" stroke-width="0.1"/>
  <path d="M 28.992685499999936,39.05522599999995 L 19.478685499999926,43.89222599999994" fill="none" instance-id="-1" semantic-id="33" stroke="rgb(178,0,178)" stroke-width="0.1"/>
  <path d="M 62.223540979502616,100.0 L 29.868685500000026,36.36622599999998" fill="none" instance-id="-1" semantic-id="33" stroke="rgb(178,0,178)" stroke-width="0.1"/>
  <path d="M 29.868685500000026,36.36622599999998 L 18.5716855,42.10922599999992" fill="none" instance-id="-1" semantic-id="33" stroke="rgb(178,0,178)" stroke-width="0.1"/>
 </g>
 <g id="layerC-防火卷帘" inkscape:groupmode="layer" inkscape:label="C-防火卷帘">
  <path d="M 65.87754212682779,100.0 L 36.034685499999966,41.3072259999999" fill="none" instance-id="-1" semantic-id="1" stroke="rgb(178,0,0)" stroke-width="0.1"/>
  <path d="M 36.034685499999966,41.3072259999999 A 20.0,20.0 0.0 0,0 18.207685499999968,30.372225999999955" fill="none" instance-id="-1" semantic-id="1" stroke="rgb(178,0,0)" stroke-width="0.1"/>
  <path d="M 18.207685499999968,30.372225999999955 L 0.0,30.372225999999955" fill="none" instance-id="-1" semantic-id="1" stroke="rgb(178,0,0)" stroke-width="0.1"/>
  <path d="M 70.92571035919781,100.0 L 40.046685500000024,39.26822599999991" fill="none" instance-id="-1" semantic-id="1" stroke="rgb(178,0,0)" stroke-width="0.1"/>
  <path d="M 40.046685500000024,39.26822599999991 A 24.5,24.5 0.0 0,0 18.207685499999968,25.872225999999955" fill="none" instance-id="-1" semantic-id="1" stroke="rgb(178,0,0)" stroke-width="0.1"/>
  <path d="M 18.207685499999968,25.872225999999955 L 0.0,25.872225999999955" fill="none" instance-id="-1" semantic-id="1" stroke="rgb(178,0,0)" stroke-width="0.1"/>
 </g>
 <g id="layerCOLUMN" inkscape:groupmode="layer" inkscape:label="COLUMN">
  <path d="M 74.42368549999998,18.872225999999955 L 74.42368549999998,26.872225999999955" fill="none" stroke="rgb(134,134,134)" stroke-width="0.1"/>
  <path d="M 74.42368549999998,26.872225999999955 L 88.43868549999996,26.872225999999955" fill="none" stroke="rgb(134,134,134)" stroke-width="0.1"/>
  <path d="M 88.43868549999996,26.872225999999955 L 88.43868549999996,18.872225999999955" fill="none" stroke="rgb(134,134,134)" stroke-width="0.1"/>
  <path d="M 88.43868549999996,18.872225999999955 L 74.42368549999998,18.872225999999955" fill="none" stroke="rgb(134,134,134)" stroke-width="0.1"/>
 </g>
 <g id="layerP-EQUIP_消火栓" inkscape:groupmode="layer" inkscape:label="P-EQUIP_消火栓">
  <path d="M 66.10868550000004,20.49222599999996 L 74.41668550000003,28.888225999999918" fill="none" stroke="rgb(0,0,0)" stroke-width="0.1"/>
  <path d="M 64.68468549999994,23.442226000000005 L 71.20768549999997,30.52022599999998" fill="none" stroke="rgb(0,0,0)" stroke-width="0.1"/>
  <path d="M 71.20768549999997,30.52022599999998 L 66.10868550000004,20.49222599999996" fill="none" stroke="rgb(0,0,0)" stroke-width="0.1"/>
  <path d="M 66.10868550000004,20.49222599999996 L 69.31768549999998,18.86022600000001" fill="none" stroke="rgb(0,0,0)" stroke-width="0.1"/>
  <path d="M 69.31768549999998,18.86022600000001 L 74.41668550000003,28.888225999999918" fill="none" stroke="rgb(0,0,0)" stroke-width="0.1"/>
  <path d="M 74.41668550000003,28.888225999999918 L 71.20768549999997,30.52022599999998" fill="none" stroke="rgb(0,0,0)" stroke-width="0.1"/>
 </g>
 <g id="layerP-EQUIP_灭火器" inkscape:groupmode="layer" inkscape:label="P-EQUIP_灭火器">
  <path d="M 66.6536855,27.618225999999936 L 66.47768549999995,27.560225999999943" fill="none" stroke="rgb(0,0,0)" stroke-width="0.1"/>
  <path d="M 67.12668549999995,27.37722599999995 L 66.23768549999994,27.088225999999963" fill="none" stroke="rgb(0,0,0)" stroke-width="0.1"/>
  <path d="M 67.59868549999993,27.13722599999994 L 65.99668549999996,26.615226000000007" fill="none" stroke="rgb(0,0,0)" stroke-width="0.1"/>
  <path d="M 68.0716855,26.897225999999932 L 65.75668549999995,26.142225999999937" fill="none" stroke="rgb(0,0,0)" stroke-width="0.1"/>
  <path d="M 68.13468549999999,26.52322599999991 L 65.92568549999993,25.803225999999995" fill="none" stroke="rgb(0,0,0)" stroke-width="0.1"/>
  <path d="M 67.89468549999998,26.050225999999952 L 66.3986855,25.563225999999986" fill="none" stroke="rgb(0,0,0)" stroke-width="0.1"/>
  <path d="M 67.65468549999997,25.577225999999996 L 66.87168549999996,25.322226" fill="none" stroke="rgb(0,0,0)" stroke-width="0.1"/>
  <path d="M 67.41368549999999,25.105225999999902 L 67.34368549999994,25.08222599999999" fill="none" stroke="rgb(0,0,0)" stroke-width="0.1"/>
  <path d="M 63.82468549999993,27.96422599999994 L 69.76768550000003,28.28022599999997" fill="none" stroke="rgb(0,0,0)" stroke-width="0.1"/>
  <path d="M 69.76768550000003,28.28022599999997 L 67.06968549999993,22.975225999999907" fill="none" stroke="rgb(0,0,0)" stroke-width="0.1"/>
  <path d="M 67.06968549999993,22.975225999999907 L 63.82468549999993,27.96422599999994" fill="none" stroke="rgb(0,0,0)" stroke-width="0.1"/>
  <path d="M 66.53668550000003,27.677225999999905 L 65.65468549999997,25.941225999999915" fill="none" stroke="rgb(0,0,0)" stroke-width="0.1"/>
  <path d="M 65.65468549999997,25.941225999999915 L 67.39068549999996,25.05822599999999" fill="none" stroke="rgb(0,0,0)" stroke-width="0.1"/>
  <path d="M 67.39068549999996,25.05822599999999 L 68.27268550000002,26.79422599999998" fill="none" stroke="rgb(0,0,0)" stroke-width="0.1"/>
  <path d="M 68.27268550000002,26.79422599999998 L 66.53668550000003,27.677225999999905" fill="none" stroke="rgb(0,0,0)" stroke-width="0.1"/>
  <path d="M 66.53668550000003,27.677225999999905 L 68.27268550000002,26.79422599999998" fill="none" stroke="rgb(0,0,0)" stroke-width="0.1"/>
  <path d="M 68.27268550000002,26.79422599999998 L 67.39068549999996,25.05822599999999" fill="none" stroke="rgb(0,0,0)" stroke-width="0.1"/>
  <path d="M 67.39068549999996,25.05822599999999 L 65.65468549999997,25.941225999999915" fill="none" stroke="rgb(0,0,0)" stroke-width="0.1"/>
  <path d="M 65.65468549999997,25.941225999999915 L 66.53668550000003,27.677225999999905" fill="none" stroke="rgb(0,0,0)" stroke-width="0.1"/>
 </g>
 <g id="layerP-VPIPE-消防" inkscape:groupmode="layer" inkscape:label="P-VPIPE-消防">
  <circle cx="67.71068550000001" cy="20.171225999999933" fill="none" r="0.75" stroke="rgb(178,0,0)" stroke-width="0.1"/>
 </g>
 <g id="layerPUB_DIM" inkscape:groupmode="layer" inkscape:label="PUB_DIM">
  <path d="M 57.36268549999994,94.85322599999995 L 59.97937468509616,100.0" fill="none" stroke="rgb(26,107,0)" stroke-width="0.1"/>
  <path d="M 58.941685500000006,99.59522599999991 L 59.59168549999998,97.59822599999995" fill="none" stroke="rgb(26,107,0)" stroke-width="0.1"/>
  <path d="M 93.90968549999997,76.27022599999998 L 97.71768549999996,83.75822599999992" fill="none" stroke="rgb(26,107,0)" stroke-width="0.1"/>
  <path d="M 95.48868550000003,81.01322599999992 L 96.13868550000001,79.01622599999996" fill="none" stroke="rgb(26,107,0)" stroke-width="0.1"/>
  <path d="M 21.693685499999958,33.67922599999997 L 29.180685499999925,29.872225999999955" fill="none" stroke="rgb(26,107,0)" stroke-width="0.1"/>
  <path d="M 24.438685499999963,31.45022599999993 L 26.435685500000034,32.101226" fill="none" stroke="rgb(26,107,0)" stroke-width="0.1"/>
  <path d="M 12.071685500000001,27.257225999999946 L 12.722685499999955,25.26022599999999" fill="none" stroke="rgb(26,107,0)" stroke-width="0.1"/>
  <path d="M 14.300685499999929,30.00222599999995 L 10.493685500000026,22.514226000000008" fill="none" stroke="rgb(26,107,0)" stroke-width="0.1"/>
  <path d="M 55.87068549999998,91.918226 L 59.26668549999994,98.59722599999998" fill="none" stroke="rgb(26,107,0)" stroke-width="0.1"/>
  <path d="M 59.26668549999994,98.59722599999998 L 95.81368549999996,80.01422600000001" fill="none" stroke="rgb(26,107,0)" stroke-width="0.1"/>
  <path d="M 95.81368549999996,80.01422600000001 L 92.4176855,73.33522599999992" fill="none" stroke="rgb(26,107,0)" stroke-width="0.1"/>
  <path d="M 26.441685500000006,31.265225999999984 L 25.43668550000001,31.77622599999995" fill="none" stroke="rgb(26,107,0)" stroke-width="0.1"/>
  <path d="M 25.43668550000001,31.77622599999995 L 60.12533191144718,100.0" fill="none" stroke="rgb(26,107,0)" stroke-width="0.1"/>
  <path d="M 0.0,32.56203074993857 L 12.397685500000023,26.258225999999922" fill="none" stroke="rgb(26,107,0)" stroke-width="0.1"/>
  <path d="M 12.397685500000023,26.258225999999922 L 17.304685499999948,35.910225999999966" fill="none" stroke="rgb(26,107,0)" stroke-width="0.1"/>
  <text fill="rgb(0,0,0)" font-family="Noto Sans CJK SC" font-size="2" transform="rotate(-26.9511,72.23968550000001,89.692226)" x="72.23968550000001" y="89.692226">
   4100
  </text>
 </g>
 <g id="layerPUB_HATCH" inkscape:groupmode="layer" inkscape:label="PUB_HATCH">
  <path d="M 74.42368549999998,26.872225999999955 L 88.43868549999996,26.872225999999955" fill="none" stroke="rgb(89,89,89)" stroke-width="0.1"/>
  <path d="M 88.43868549999996,26.872225999999955 L 88.43868549999996,18.872225999999955" fill="none" stroke="rgb(89,89,89)" stroke-width="0.1"/>
  <path d="M 88.43868549999996,18.872225999999955 L 74.42368549999998,18.872225999999955" fill="none" stroke="rgb(89,89,89)" stroke-width="0.1"/>
  <path d="M 74.42368549999998,18.872225999999955 L 74.42368549999998,26.872225999999955" fill="none" stroke="rgb(89,89,89)" stroke-width="0.1"/>
 </g>
 <g id="layerSTAIR" inkscape:groupmode="layer" inkscape:label="STAIR">
  <path d="M 9.933685499999967,56.716226000000006 L 3.0426855000000046,43.16222599999992" fill="none" stroke="rgb(178,178,0)" stroke-width="0.1"/>
  <path d="M 16.832685499999968,36.15122599999995 L 0.0,44.70977381604416" fill="none" stroke="rgb(178,178,0)" stroke-width="0.1"/>
  <path d="M 28.575896408815026,100.0 L 11.698685499999954,66.8072259999999" fill="none" stroke="rgb(178,178,0)" stroke-width="0.1"/>
  <path d="M 17.952452290057806,100.0 L 3.2576854999999796,71.09922599999993" fill="none" stroke="rgb(178,178,0)" stroke-width="0.1"/>
  <path d="M 7.619685500000003,58.78422599999999 L 0.0,62.65861175595296" fill="none" stroke="rgb(178,178,0)" stroke-width="0.1"/>
  <path d="M 35.307348390949926,100.0 L 17.0476855,64.08722599999999" fill="none" instance-id="1" semantic-id="32" stroke="rgb(178,178,0)" stroke-width="0.1"/>
  <path d="M 45.93118995232902,100.0 L 25.48868550000003,59.79522599999996" fill="none" instance-id="1" semantic-id="32" stroke="rgb(178,178,0)" stroke-width="0.1"/>
  <path d="M 12.968685499999935,56.06522599999994 L 21.409685499999966,51.77322599999991" fill="none" instance-id="1" semantic-id="32" stroke="rgb(178,178,0)" stroke-width="0.1"/>
  <path d="M 42.68157037698046,100.0 L 45.26368550000001,98.68722600000001" fill="none" instance-id="1" semantic-id="32" stroke="rgb(178,178,0)" stroke-width="0.1"/>
  <path d="M 36.0629680410064,100.0 L 43.903685499999995,96.01322599999992" fill="none" instance-id="1" semantic-id="32" stroke="rgb(178,178,0)" stroke-width="0.1"/>
  <path d="M 34.10268549999995,97.630226 L 42.54368549999998,93.33822599999996" fill="none" instance-id="1" semantic-id="32" stroke="rgb(178,178,0)" stroke-width="0.1"/>
  <path d="M 32.742685499999936,94.9562259999999 L 41.184685499999944,90.66422599999999" fill="none" instance-id="1" semantic-id="32" stroke="rgb(178,178,0)" stroke-width="0.1"/>
  <path d="M 31.383685500000013,92.28222599999992 L 39.82468549999993,87.990226" fill="none" instance-id="1" semantic-id="32" stroke="rgb(178,178,0)" stroke-width="0.1"/>
  <path d="M 30.0236855,89.60822599999995 L 38.46468550000003,85.31622599999992" fill="none" instance-id="1" semantic-id="32" stroke="rgb(178,178,0)" stroke-width="0.1"/>
  <path d="M 28.663685499999985,86.93422599999997 L 37.10568549999999,82.64222599999994" fill="none" instance-id="1" semantic-id="32" stroke="rgb(178,178,0)" stroke-width="0.1"/>
  <path d="M 27.303685499999972,84.26022599999999 L 35.74568549999998,79.96722599999998" fill="none" instance-id="1" semantic-id="32" stroke="rgb(178,178,0)" stroke-width="0.1"/>
  <path d="M 25.944685499999935,81.58522599999992 L 34.385685499999965,77.293226" fill="none" instance-id="1" semantic-id="32" stroke="rgb(178,178,0)" stroke-width="0.1"/>
  <path d="M 24.584685500000035,78.91122599999994 L 33.02668549999993,74.61922599999991" fill="none" instance-id="1" semantic-id="32" stroke="rgb(178,178,0)" stroke-width="0.1"/>
  <path d="M 23.22468550000002,76.23722599999996 L 31.66668550000003,71.94522599999993" fill="none" instance-id="1" semantic-id="32" stroke="rgb(178,178,0)" stroke-width="0.1"/>
  <path d="M 21.865685499999984,73.56322599999999 L 30.306685500000015,69.27122599999996" fill="none" instance-id="1" semantic-id="32" stroke="rgb(178,178,0)" stroke-width="0.1"/>
  <path d="M 20.50568549999997,70.88922600000001 L 28.9466855,66.59722599999998" fill="none" instance-id="1" semantic-id="32" stroke="rgb(178,178,0)" stroke-width="0.1"/>
  <path d="M 19.145685499999956,68.21422599999994 L 27.587685499999964,63.92222599999991" fill="none" instance-id="1" semantic-id="32" stroke="rgb(178,178,0)" stroke-width="0.1"/>
  <path d="M 17.786685500000033,65.54022599999996 L 26.22768549999995,61.24822599999993" fill="none" instance-id="1" semantic-id="32" stroke="rgb(178,178,0)" stroke-width="0.1"/>
  <path d="M 16.42668550000002,62.86622599999998 L 24.867685499999936,58.57422599999995" fill="none" instance-id="1" semantic-id="32" stroke="rgb(178,178,0)" stroke-width="0.1"/>
  <path d="M 22.82401911882556,100.0 L 27.39468549999998,97.67622599999993" fill="none" stroke="rgb(178,178,0)" stroke-width="0.1"/>
  <path d="M 17.593685499999935,99.29422599999998 L 26.034685499999966,95.00122599999997" fill="none" stroke="rgb(178,178,0)" stroke-width="0.1"/>
  <path d="M 16.233685500000036,96.61922599999991 L 24.674685499999953,92.327226" fill="none" stroke="rgb(178,178,0)" stroke-width="0.1"/>
  <path d="M 14.873685500000022,93.94522599999993 L 23.31568550000003,89.6532259999999" fill="none" stroke="rgb(178,178,0)" stroke-width="0.1"/>
  <path d="M 13.514685499999985,91.27122599999996 L 21.955685500000016,86.97922599999993" fill="none" stroke="rgb(178,178,0)" stroke-width="0.1"/>
  <path d="M 12.154685499999971,88.59722599999998 L 20.595685500000002,84.30522599999995" fill="none" stroke="rgb(178,178,0)" stroke-width="0.1"/>
  <path d="M 10.794685499999957,85.923226 L 19.236685499999965,81.63122599999997" fill="none" stroke="rgb(178,178,0)" stroke-width="0.1"/>
  <path d="M 9.435685499999977,83.24822599999993 L 17.87668549999995,78.9562259999999" fill="none" stroke="rgb(178,178,0)" stroke-width="0.1"/>
  <path d="M 8.075685499999963,80.57422599999995 L 16.516685499999937,76.28222599999992" fill="none" stroke="rgb(178,178,0)" stroke-width="0.1"/>
  <path d="M 6.715685500000006,77.90022599999998 L 15.157685500000014,73.60822599999995" fill="none" stroke="rgb(178,178,0)" stroke-width="0.1"/>
  <path d="M 5.355685499999993,75.226226 L 13.7976855,70.93422599999997" fill="none" stroke="rgb(178,178,0)" stroke-width="0.1"/>
  <path d="M 3.9966854999999555,72.5522259999999 L 12.437685499999986,68.26022599999999" fill="none" stroke="rgb(178,178,0)" stroke-width="0.1"/>
  <path d="M 2.6366854999999987,69.87822599999993 L 11.07868549999995,65.58522599999992" fill="none" stroke="rgb(178,178,0)" stroke-width="0.1"/>
  <path d="M 23.72368549999993,49.70422599999995 L 16.832685499999968,36.15122599999995" fill="none" instance-id="1" semantic-id="32" stroke="rgb(178,178,0)" stroke-width="0.1"/>
  <path d="M 30.65157730679215,100.0 L 4.782685499999957,49.12122599999998" fill="none" stroke="rgb(178,178,0)" stroke-width="0.1"/>
  <path d="M 4.782685499999957,49.12122599999998 L 4.247685499999989,49.39322599999991" fill="none" stroke="rgb(178,178,0)" stroke-width="0.1"/>
  <path d="M 4.247685499999989,49.39322599999991 L 29.978572645662155,100.0" fill="none" stroke="rgb(178,178,0)" stroke-width="0.1"/>
  <path d="M 28.575847737554966,100.0 L 4.914685499999962,53.46422599999994" fill="none" stroke="rgb(178,178,0)" stroke-width="0.1"/>
  <path d="M 4.914685499999962,53.46422599999994 L 5.699685499999987,52.24922599999991" fill="none" stroke="rgb(178,178,0)" stroke-width="0.1"/>
  <path d="M 31.94219635285225,100.0 L 7.6496854999999755,52.22222599999998" fill="none" stroke="rgb(178,178,0)" stroke-width="0.1"/>
  <path d="M 7.6496854999999755,52.22222599999998 L 6.234685499999955,51.97722599999997" fill="none" stroke="rgb(178,178,0)" stroke-width="0.1"/>
  <path d="M 16.55040680522353,100.0 L 0.0,67.44936179103684" fill="none" stroke="rgb(178,178,0)" stroke-width="0.1"/>
  <path d="M 0.0,68.77374980252 L 15.876819919701177,100.0" fill="none" stroke="rgb(178,178,0)" stroke-width="0.1"/>
  <path d="M 0.0,64.69163234130235 L 17.952575915373984,100.0" fill="none" stroke="rgb(178,178,0)" stroke-width="0.1"/>
  <path d="M 0.0,71.3107382550021 L 14.587083271011409,100.0" fill="none" stroke="rgb(178,178,0)" stroke-width="0.1"/>
  <path d="M 33.232250193188804,100.0 L 6.832685499999968,48.07822599999997" fill="none" instance-id="1" semantic-id="32" stroke="rgb(178,178,0)" stroke-width="0.1"/>
  <path d="M 6.832685499999968,48.07822599999997 L 7.367685499999993,47.8072259999999" fill="none" instance-id="1" semantic-id="32" stroke="rgb(178,178,0)" stroke-width="0.1"/>
  <path d="M 7.367685499999993,47.8072259999999 L 33.90533217802994,100.0" fill="none" instance-id="1" semantic-id="32" stroke="rgb(178,178,0)" stroke-width="0.1"/>
  <path d="M 35.30732608902525,100.0 L 10.263685500000008,50.745226" fill="none" instance-id="1" semantic-id="32" stroke="rgb(178,178,0)" stroke-width="0.1"/>
  <path d="M 10.263685500000008,50.745226 L 8.819685499999991,50.66322600000001" fill="none" instance-id="1" semantic-id="32" stroke="rgb(178,178,0)" stroke-width="0.1"/>
  <path d="M 31.94219635285225,100.0 L 7.6496854999999755,52.22222599999998" fill="none" stroke="rgb(178,178,0)" stroke-width="0.1"/>
  <path d="M 7.6496854999999755,52.22222599999998 L 8.284685499999966,50.93522599999994" fill="none" stroke="rgb(178,178,0)" stroke-width="0.1"/>
  <path d="M 47.333463511894195,100.0 L 18.03768550000001,42.38122599999997" fill="none" instance-id="1" semantic-id="32" stroke="rgb(178,178,0)" stroke-width="0.1"/>
  <path d="M 18.03768550000001,42.38122599999997 L 18.5716855,42.10922599999992" fill="none" instance-id="1" semantic-id="32" stroke="rgb(178,178,0)" stroke-width="0.1"/>
  <path d="M 18.5716855,42.10922599999992 L 48.006388057670904,100.0" fill="none" instance-id="1" semantic-id="32" stroke="rgb(178,178,0)" stroke-width="0.1"/>
  <path d="M 19.489685500000007,45.23822599999994 L 18.704685499999925,46.45322599999997" fill="none" instance-id="1" semantic-id="32" stroke="rgb(178,178,0)" stroke-width="0.1"/>
  <path d="M 18.704685499999925,46.45322599999997 L 45.930597911206235,100.0" fill="none" instance-id="1" semantic-id="32" stroke="rgb(178,178,0)" stroke-width="0.1"/>
  <path d="M 49.29628076204182,100.0 L 21.438685499999963,45.21122600000001" fill="none" instance-id="1" semantic-id="32" stroke="rgb(178,178,0)" stroke-width="0.1"/>
  <path d="M 21.438685499999963,45.21122600000001 L 20.024685499999975,44.966226000000006" fill="none" instance-id="1" semantic-id="32" stroke="rgb(178,178,0)" stroke-width="0.1"/>
  <path d="M 0.0,42.465829358685255 L 16.3986855,34.12822599999993" fill="none" stroke="rgb(0,178,0)" stroke-width="0.1"/>
  <path d="M 16.3986855,34.12822599999993 L 17.304685499999948,35.910225999999966" fill="none" instance-id="1" semantic-id="32" stroke="rgb(0,178,0)" stroke-width="0.1"/>
 </g>
 <g id="layerWALL" inkscape:groupmode="layer" inkscape:label="WALL">
  <path d="M 70.5956855,30.417225999999914 L 99.99999999999994,88.24755088170559" fill="none" instance-id="-1" semantic-id="1" stroke="rgb(0,178,178)" stroke-width="0.1"/>
  <path d="M 99.99999999999994,26.872225999999955 L 81.43068549999992,26.872225999999955" fill="none" instance-id="-1" semantic-id="1" stroke="rgb(0,0,0)" stroke-width="0.1"/>
  <path d="M 99.99999999999994,24.872225999999955 L 88.43868549999996,24.872225999999955" fill="none" instance-id="-1" semantic-id="1" stroke="rgb(0,0,0)" stroke-width="0.1"/>
  <path d="M 75.95068550000002,28.816225999999915 L 71.04868549999998,31.30822599999999" fill="none" instance-id="-1" semantic-id="1" stroke="rgb(0,0,0)" stroke-width="0.1"/>
  <path d="M 73.26168549999994,27.94022599999994 L 70.14268550000003,29.52622599999995" fill="none" instance-id="-1" semantic-id="1" stroke="rgb(0,0,0)" stroke-width="0.1"/>
  <path d="M 71.04868549999998,31.30822599999999 L 70.14268550000003,29.52622599999995" fill="none" instance-id="-1" semantic-id="1" stroke="rgb(0,0,0)" stroke-width="0.1"/>
  <path d="M 68.2736855,18.13122599999997 L 65.15468549999997,19.716226000000006" fill="none" instance-id="-1" semantic-id="1" stroke="rgb(0,0,0)" stroke-width="0.1"/>
  <path d="M 69.15068549999995,15.441225999999915 L 64.24868550000002,17.934225999999967" fill="none" instance-id="-1" semantic-id="1" stroke="rgb(0,0,0)" stroke-width="0.1"/>
  <path d="M 65.15468549999997,19.716226000000006 L 64.24868550000002,17.934225999999967" fill="none" instance-id="-1" semantic-id="1" stroke="rgb(0,0,0)" stroke-width="0.1"/>
  <path d="M 69.15068549999995,15.441225999999915 L 73.94568550000002,24.872225999999955" fill="none" instance-id="-1" semantic-id="1" stroke="rgb(0,0,0)" stroke-width="0.1"/>
  <path d="M 68.2736855,18.13122599999997 L 72.44068550000003,26.326225999999906" fill="none" instance-id="-1" semantic-id="1" stroke="rgb(0,0,0)" stroke-width="0.1"/>
  <path d="M 81.43068549999992,26.872225999999955 L 74.96268549999996,26.872225999999955" fill="none" instance-id="-1" semantic-id="1" stroke="rgb(0,0,0)" stroke-width="0.1"/>
  <path d="M 74.42368549999998,24.872225999999955 L 73.94568550000002,24.872225999999955" fill="none" instance-id="-1" semantic-id="1" stroke="rgb(0,0,0)" stroke-width="0.1"/>
  <path d="M 74.96268549999996,26.872225999999955 L 75.95068550000002,28.816225999999915" fill="none" instance-id="-1" semantic-id="1" stroke="rgb(0,0,0)" stroke-width="0.1"/>
  <path d="M 72.44068550000003,26.326225999999906 L 73.26168549999994,27.94022599999994" fill="none" instance-id="-1" semantic-id="1" stroke="rgb(0,0,0)" stroke-width="0.1"/>
  <path d="M 55.130194989018776,0.0 L 64.7016855,18.82522599999993" fill="none" stroke="rgb(0,178,178)" stroke-width="0.1"/>
 </g>
 <g id="layer修改20190220" inkscape:groupmode="layer" inkscape:label="修改20190220">
  <path d="M 26.441685500000006,31.265225999999984 L 0.0,44.70938866407744" fill="none" stroke="rgb(107,53,53)" stroke-width="0.1"/>
  <path d="M 0.0,72.47993739912954 L 13.992580243346822,100.0" fill="none" stroke="rgb(107,53,53)" stroke-width="0.1"/>
  <path d="M 17.304685499999948,35.910225999999966 L 49.89114136963889,100.0" fill="none" stroke="rgb(107,53,53)" stroke-width="0.1"/>
 </g>
 <g id="layer扶梯" inkscape:groupmode="layer" inkscape:label="扶梯">
  <path d="M 49.89114136963889,100.0 L 17.304685499999948,35.910225999999966" fill="none" stroke="rgb(0,178,178)" stroke-width="0.1"/>
  <path d="M 17.304685499999948,35.910225999999966 L 0.0,44.70938314808575" fill="none" stroke="rgb(0,178,178)" stroke-width="0.1"/>
  <path d="M 0.0,72.47993739912954 L 13.992580243346822,100.0" fill="none" stroke="rgb(0,178,178)" stroke-width="0.1"/>
 </g>
 <g id="layer自动扶梯编号" inkscape:groupmode="layer" inkscape:label="自动扶梯编号">
  <path d="M 3.0426855000000046,43.16222599999992 L 29.27968549999997,11.237225999999964" fill="none" stroke="rgb(178,0,0)" stroke-width="0.1"/>
  <path d="M 29.27968549999997,11.237225999999964 L 50.062685499999986,11.237225999999964" fill="none" stroke="rgb(178,0,0)" stroke-width="0.1"/>
  <text fill="rgb(0,0,0)" font-family="Noto Sans CJK SC" font-size="2" transform="rotate(-0.0,19.61268549999994,9.400225999999975)" x="19.61268549999994" y="9.400225999999975">
   BFT-08-01
  </text>
 </g>
 <g id="layer轴网$0$DOTE" inkscape:groupmode="layer" inkscape:label="轴网$0$DOTE">
  <path d="M 0.0,22.872225999999955 L 99.99999999999994,22.872225999999955" fill="none" stroke="rgb(92,92,92)" stroke-width="0.1"/>
  <path d="M 66.41868549999998,100.0 L 66.41868549999998,0.0" fill="none" stroke="rgb(92,92,92)" stroke-width="0.1"/>
 </g>
</svg>