<?xml version="1.0" encoding="utf-8"?>
<svg style="background-color: #000;" version="1.1" viewBox="0 0 100.0 100.00000000000006" xmlns="http://www.w3.org/2000/svg" xmlns:inkscape="http://www.inkscape.org/namespaces/inkscape">
 <g id="layerA-上部投影线" inkscape:groupmode="layer" inkscape:label="A-上部投影线">
  <path d="M 40.41868550000004,32.87222600000001 L 40.41868550000004,48.87222600000001" fill="none" stroke="rgb(0,0,0)" stroke-width="0.1"/>
  <path d="M 40.41868550000004,48.87222600000001 L 33.41868550000004,48.87222600000001" fill="none" stroke="rgb(0,0,0)" stroke-width="0.1"/>
  <path d="M 33.41868550000004,48.87222600000001 L 33.41868550000004,32.87222600000001" fill="none" stroke="rgb(0,0,0)" stroke-width="0.1"/>
  <path d="M 33.41868550000004,32.87222600000001 L 40.41868550000004,32.87222600000001" fill="none" stroke="rgb(0,0,0)" stroke-width="0.1"/>
 </g>
 <g id="layerA-洞口" inkscape:groupmode="layer" inkscape:label="A-洞口">
  <path d="M 64.42168550000008,92.87222600000001 L 100.0,92.87222600000001" fill="none" stroke="rgb(107,53,93)" stroke-width="0.1"/>
  <path d="M 64.42168550000008,100.00000000000006 L 64.42168550000008,92.87222600000001" fill="none" stroke="rgb(107,53,93)" stroke-width="0.1"/>
  <path d="M 44.419685500000014,37.37222600000001 L 100.0,37.37222600000001" fill="none" stroke="rgb(107,53,93)" stroke-width="0.1"/>
  <path d="M 100.0,54.87222600000001 L 44.419685500000014,54.87222600000001" fill="none" stroke="rgb(107,53,93)" stroke-width="0.1"/>
  <path d="M 44.419685500000014,54.87222600000001 L 44.419685500000014,37.37222600000001" fill="none" stroke="rgb(107,53,93)" stroke-width="0.1"/>
  <path d="M 61.41868550000004,56.864225999999974 L 61.41868550000004,89.86422599999997" fill="none" stroke="rgb(107,53,93)" stroke-width="0.1"/>
  <path d="M 61.41868550000004,89.86422599999997 L 39.41868550000004,89.86422599999997" fill="none" stroke="rgb(107,53,93)" stroke-width="0.1"/>
  <path d="M 39.41868550000004,89.86422599999997 L 39.41868550000004,56.864225999999974" fill="none" stroke="rgb(107,53,93)" stroke-width="0.1"/>
  <path d="M 39.41868550000004,56.864225999999974 L 61.41868550000004,56.864225999999974" fill="none" stroke="rgb(107,53,93)" stroke-width="0.1"/>
  <path d="M 44.419685500000014,54.87222600000001 L 51.148685500000056,41.119226000000026" fill="none" stroke="rgb(107,53,93)" stroke-width="0.1"/>
  <path d="M 51.148685500000056,41.119226000000026 L 100.0,38.39816348429463" fill="none" stroke="rgb(107,53,93)" stroke-width="0.1"/>
  <path d="M 65.49603941850023,100.00000000000006 L 66.89968550000003,94.96022599999998" fill="none" stroke="rgb(107,53,93)" stroke-width="0.1"/>
  <path d="M 66.89968550000003,94.96022599999998 L 100.0,93.66646709384753" fill="none" stroke="rgb(107,53,93)" stroke-width="0.1"/>
  <path d="M 39.41868550000004,89.87222600000001 L 43.360685500000045,68.47222600000003" fill="none" stroke="rgb(107,53,93)" stroke-width="0.1"/>
  <path d="M 43.360685500000045,68.47222600000003 L 61.41868550000004,56.87222600000001" fill="none" stroke="rgb(107,53,93)" stroke-width="0.1"/>
 </g>
 <g id="layerCOLUMN" inkscape:groupmode="layer" inkscape:label="COLUMN">
  <path d="M 32.42868550000003,48.87222600000001 L 32.42868550000003,56.87222600000001" fill="none" stroke="rgb(134,134,134)" stroke-width="0.1"/>
  <path d="M 32.42868550000003,56.87222600000001 L 44.42168550000008,56.87222600000001" fill="none" stroke="rgb(134,134,134)" stroke-width="0.1"/>
  <path d="M 44.42168550000008,56.87222600000001 L 44.42168550000008,48.87222600000001" fill="none" stroke="rgb(134,134,134)" stroke-width="0.1"/>
  <path d="M 44.42168550000008,48.87222600000001 L 32.42868550000003,48.87222600000001" fill="none" stroke="rgb(134,134,134)" stroke-width="0.1"/>
 </g>
 <g id="layerDIM_SYMB" inkscape:groupmode="layer" inkscape:label="DIM_SYMB">
  <text fill="rgb(0,178,0)" font-family="Noto Sans CJK SC" font-size="2" transform="rotate(-0.0,77.71268550000002,30.606225999999992)" x="77.71268550000002" y="30.606225999999992">
   风井
  </text>
  <text fill="rgb(0,178,0)" font-family="Noto Sans CJK SC" font-size="2" transform="rotate(-0.0,67.94568550000008,46.77522600000003)" x="67.94568550000008" y="46.77522600000003">
   儿童专用
  </text>
  <text fill="rgb(0,178,0)" font-family="Noto Sans CJK SC" font-size="2" transform="rotate(-0.0,17.078685500000006,27.726225999999997)" x="17.078685500000006" y="27.726225999999997">
   5#强电井
  </text>
  <text fill="rgb(0,178,0)" font-family="Noto Sans CJK SC" font-size="2" transform="rotate(-0.0,54.72468550000008,64.77822599999996)" x="54.72468550000008" y="64.77822599999996">
   风井
  </text>
  <text fill="rgb(0,178,0)" font-family="Noto Sans CJK SC" font-size="2" transform="rotate(-0.0,92.59368549999999,84.257226)" x="92.59368549999999" y="84.257226">
   风井
  </text>
 </g>
 <g id="layerDOOR_FIRE" inkscape:groupmode="layer" inkscape:label="DOOR_FIRE">
  <path d="M 17.7616855,28.21522600000003 A 8.0,8.0 0.0 0,0 15.418685500000038,33.87222600000001" fill="none" instance-id="2" semantic-id="3" stroke="rgb(178,0,0)" stroke-width="0.1"/>
  <path d="M 15.418685500000038,34.87222600000001 L 23.418685500000038,34.87222600000001" fill="none" instance-id="2" semantic-id="3" stroke="rgb(178,0,0)" stroke-width="0.1"/>
  <path d="M 15.418685500000038,32.87222600000001 L 23.418685500000038,32.87222600000001" fill="none" instance-id="2" semantic-id="3" stroke="rgb(178,0,0)" stroke-width="0.1"/>
  <path d="M 17.7616855,28.21522600000003 L 23.418685500000038,33.87222600000001" fill="none" instance-id="2" semantic-id="3" stroke="rgb(178,0,0)" stroke-width="0.1"/>
 </g>
 <g id="layerDOOR_FIRE_TEXT" inkscape:groupmode="layer" inkscape:label="DOOR_FIRE_TEXT">
  <text fill="rgb(0,0,0)" font-family="Noto Sans CJK SC" font-size="2" transform="rotate(-0.0,12.854685500000073,39.595226000000025)" x="12.854685500000073" y="39.595226000000025">
   FM乙0822
  </text>
 </g>
 <g id="layerPUB_DIM" inkscape:groupmode="layer" inkscape:label="PUB_DIM">
  <path d="M 14.675685499999986,19.891226000000017 L 16.1606855,18.406226000000004" fill="none" stroke="rgb(26,107,0)" stroke-width="0.1"/>
  <path d="M 15.418685500000038,14.948226000000034 L 15.418685500000038,23.34822600000001" fill="none" stroke="rgb(26,107,0)" stroke-width="0.1"/>
  <path d="M 22.675685499999986,19.890225999999984 L 24.1606855,18.406226000000004" fill="none" stroke="rgb(26,107,0)" stroke-width="0.1"/>
  <path d="M 23.418685500000038,14.948226000000034 L 23.418685500000038,23.34822600000001" fill="none" stroke="rgb(26,107,0)" stroke-width="0.1"/>
  <path d="M 31.675685499999986,19.890225999999984 L 33.1606855,18.405226000000027" fill="none" stroke="rgb(26,107,0)" stroke-width="0.1"/>
  <path d="M 32.41868550000004,14.948226000000034 L 32.41868550000004,23.34822600000001" fill="none" stroke="rgb(26,107,0)" stroke-width="0.1"/>
  <path d="M 39.675685499999986,19.890225999999984 L 41.1606855,18.405226000000027" fill="none" stroke="rgb(26,107,0)" stroke-width="0.1"/>
  <path d="M 40.41868550000004,14.948226000000034 L 40.41868550000004,23.34822600000001" fill="none" stroke="rgb(26,107,0)" stroke-width="0.1"/>
  <path d="M 42.675685499999986,19.890225999999984 L 44.1606855,18.405226000000027" fill="none" stroke="rgb(26,107,0)" stroke-width="0.1"/>
  <path d="M 43.41868550000004,14.947226 L 43.41868550000004,23.347226000000035" fill="none" stroke="rgb(26,107,0)" stroke-width="0.1"/>
  <path d="M 24.714685500000087,55.87222600000001 L 33.114685500000064,55.87222600000001" fill="none" stroke="rgb(26,107,0)" stroke-width="0.1"/>
  <path d="M 24.714685500000087,49.87222600000001 L 33.114685500000064,49.87222600000001" fill="none" stroke="rgb(26,107,0)" stroke-width="0.1"/>
  <path d="M 28.17168550000008,55.13022600000005 L 29.656685500000094,56.614225999999974" fill="none" stroke="rgb(26,107,0)" stroke-width="0.1"/>
  <path d="M 28.17168550000008,49.13022599999999 L 29.656685500000094,50.61522600000001" fill="none" stroke="rgb(26,107,0)" stroke-width="0.1"/>
  <path d="M 37.676685500000076,63.59522599999997 L 39.1606855,62.111226000000045" fill="none" stroke="rgb(26,107,0)" stroke-width="0.1"/>
  <path d="M 38.41868550000004,67.05322600000005 L 38.41868550000004,58.65322599999996" fill="none" stroke="rgb(26,107,0)" stroke-width="0.1"/>
  <path d="M 39.676685500000076,63.59522599999997 L 41.1606855,62.111226000000045" fill="none" stroke="rgb(26,107,0)" stroke-width="0.1"/>
  <path d="M 40.41868550000004,67.05322600000005 L 40.41868550000004,58.65322599999996" fill="none" stroke="rgb(26,107,0)" stroke-width="0.1"/>
  <path d="M 42.67868550000003,63.59522599999997 L 44.16368550000004,62.111226000000045" fill="none" stroke="rgb(26,107,0)" stroke-width="0.1"/>
  <path d="M 43.42168550000008,67.05322600000005 L 43.42168550000008,58.65322599999996" fill="none" stroke="rgb(26,107,0)" stroke-width="0.1"/>
  <path d="M 62.67868550000003,63.59522599999997 L 64.16368550000004,62.111226000000045" fill="none" stroke="rgb(26,107,0)" stroke-width="0.1"/>
  <path d="M 63.42168550000008,67.05322600000005 L 63.42168550000008,58.65322599999996" fill="none" stroke="rgb(26,107,0)" stroke-width="0.1"/>
  <path d="M 0.0,51.87222600000001 L 2.5426855000000614,51.87222600000001" fill="none" stroke="rgb(26,107,0)" stroke-width="0.1"/>
  <path d="M 0.0,48.87222600000001 L 2.5426855000000614,48.87222600000001" fill="none" stroke="rgb(26,107,0)" stroke-width="0.1"/>
  <path d="M 0.0,31.872226000000012 L 2.5426855000000614,31.872226000000012" fill="none" stroke="rgb(26,107,0)" stroke-width="0.1"/>
  <path d="M 49.818685500000015,36.37222600000001 L 58.21868549999999,36.37222600000001" fill="none" stroke="rgb(26,107,0)" stroke-width="0.1"/>
  <path d="M 49.818685500000015,48.87222600000001 L 58.21868549999999,48.87222600000001" fill="none" stroke="rgb(26,107,0)" stroke-width="0.1"/>
  <path d="M 49.818685500000015,55.87222600000001 L 58.21868549999999,55.87222600000001" fill="none" stroke="rgb(26,107,0)" stroke-width="0.1"/>
  <path d="M 53.276685499999985,35.63022599999999 L 54.7616855,37.11422600000003" fill="none" stroke="rgb(26,107,0)" stroke-width="0.1"/>
  <path d="M 53.276685499999985,48.13022599999999 L 54.7616855,49.61522600000001" fill="none" stroke="rgb(26,107,0)" stroke-width="0.1"/>
  <path d="M 53.276685499999985,55.13022600000005 L 54.7616855,56.614225999999974" fill="none" stroke="rgb(26,107,0)" stroke-width="0.1"/>
  <path d="M 2.679685500000005,6.842226000000039 L 4.164685500000019,5.357226000000026" fill="none" stroke="rgb(26,107,0)" stroke-width="0.1"/>
  <path d="M 3.4216855000000805,10.299226000000033 L 3.4216855000000805,1.8992259999999987" fill="none" stroke="rgb(26,107,0)" stroke-width="0.1"/>
  <path d="M 7.928685500000029,6.842226000000039 L 9.413685500000042,5.357226000000026" fill="none" stroke="rgb(26,107,0)" stroke-width="0.1"/>
  <path d="M 8.67068549999999,10.299226000000033 L 8.67068549999999,1.8992259999999987" fill="none" stroke="rgb(26,107,0)" stroke-width="0.1"/>
  <path d="M 18.92868550000003,6.842226000000039 L 20.413685500000042,5.357226000000026" fill="none" stroke="rgb(26,107,0)" stroke-width="0.1"/>
  <path d="M 19.67068549999999,10.299226000000033 L 19.67068549999999,1.8992259999999987" fill="none" stroke="rgb(26,107,0)" stroke-width="0.1"/>
  <path d="M 24.676685500000076,6.842226000000039 L 26.1606855,5.357226000000026" fill="none" stroke="rgb(26,107,0)" stroke-width="0.1"/>
  <path d="M 25.418685500000038,10.299226000000033 L 25.418685500000038,1.8992259999999987" fill="none" stroke="rgb(26,107,0)" stroke-width="0.1"/>
  <path d="M 25.676685500000076,6.842226000000039 L 27.1606855,5.357226000000026" fill="none" stroke="rgb(26,107,0)" stroke-width="0.1"/>
  <path d="M 26.418685500000038,10.299226000000033 L 26.418685500000038,1.8992259999999987" fill="none" stroke="rgb(26,107,0)" stroke-width="0.1"/>
  <path d="M 41.676685500000076,6.842226000000039 L 43.1606855,5.357226000000026" fill="none" stroke="rgb(26,107,0)" stroke-width="0.1"/>
  <path d="M 42.41868550000004,10.299226000000033 L 42.41868550000004,1.8992259999999987" fill="none" stroke="rgb(26,107,0)" stroke-width="0.1"/>
  <path d="M 42.676685500000076,6.842226000000039 L 44.1606855,5.357226000000026" fill="none" stroke="rgb(26,107,0)" stroke-width="0.1"/>
  <path d="M 43.41868550000004,10.299226000000033 L 43.41868550000004,1.8992259999999987" fill="none" stroke="rgb(26,107,0)" stroke-width="0.1"/>
  <path d="M 42.676685500000076,30.349225999999987 L 44.1606855,28.86422600000003" fill="none" stroke="rgb(26,107,0)" stroke-width="0.1"/>
  <path d="M 43.41868550000004,33.80622600000004 L 43.41868550000004,25.406226000000004" fill="none" stroke="rgb(26,107,0)" stroke-width="0.1"/>
  <path d="M 77.67568549999999,30.349225999999987 L 79.1606855,28.86422600000003" fill="none" stroke="rgb(26,107,0)" stroke-width="0.1"/>
  <path d="M 78.41868550000004,33.80622600000004 L 78.41868550000004,25.406226000000004" fill="none" stroke="rgb(26,107,0)" stroke-width="0.1"/>
  <path d="M 43.41868550000004,27.80022600000001 L 43.41868550000004,19.14722599999999" fill="none" stroke="rgb(26,107,0)" stroke-width="0.1"/>
  <path d="M 43.41868550000004,19.14722599999999 L 40.41868550000004,19.148226000000022" fill="none" stroke="rgb(26,107,0)" stroke-width="0.1"/>
  <path d="M 40.41868550000004,19.148226000000022 L 32.41868550000004,19.148226000000022" fill="none" stroke="rgb(26,107,0)" stroke-width="0.1"/>
  <path d="M 32.41868550000004,19.148226000000022 L 23.418685500000038,19.148226000000022" fill="none" stroke="rgb(26,107,0)" stroke-width="0.1"/>
  <path d="M 23.418685500000038,19.148226000000022 L 15.418685500000038,19.148226000000022" fill="none" stroke="rgb(26,107,0)" stroke-width="0.1"/>
  <path d="M 15.418685500000038,19.148226000000022 L 0.0,19.14881900355755" fill="none" stroke="rgb(26,107,0)" stroke-width="0.1"/>
  <path d="M 35.62968550000005,49.87222600000001 L 28.91468550000002,49.87222600000001" fill="none" stroke="rgb(26,107,0)" stroke-width="0.1"/>
  <path d="M 28.91468550000002,49.87222600000001 L 28.91468550000002,100.00000000000006" fill="none" stroke="rgb(26,107,0)" stroke-width="0.1"/>
  <path d="M 63.42168550000008,51.87222600000001 L 63.42168550000008,62.85322600000001" fill="none" stroke="rgb(26,107,0)" stroke-width="0.1"/>
  <path d="M 63.42168550000008,62.85322600000001 L 0.0,62.85322600000001" fill="none" stroke="rgb(26,107,0)" stroke-width="0.1"/>
  <path d="M 5.058685500000024,31.872226000000012 L 0.0,31.872226000000012" fill="none" stroke="rgb(26,107,0)" stroke-width="0.1"/>
  <path d="M 60.48368550000009,55.87222600000001 L 54.01868550000006,55.87222600000001" fill="none" stroke="rgb(26,107,0)" stroke-width="0.1"/>
  <path d="M 54.01868550000006,55.87222600000001 L 54.01868550000006,48.87222600000001" fill="none" stroke="rgb(26,107,0)" stroke-width="0.1"/>
  <path d="M 54.01868550000006,48.87222600000001 L 54.01868550000006,36.37222600000001" fill="none" stroke="rgb(26,107,0)" stroke-width="0.1"/>
  <path d="M 54.01868550000006,36.37222600000001 L 54.01868550000006,0.0" fill="none" stroke="rgb(26,107,0)" stroke-width="0.1"/>
  <path d="M 43.41868550000004,0.0 L 43.41868550000004,6.099225999999987" fill="none" stroke="rgb(26,107,0)" stroke-width="0.1"/>
  <path d="M 43.41868550000004,6.099225999999987 L 0.0,6.099225999999987" fill="none" stroke="rgb(26,107,0)" stroke-width="0.1"/>
  <path d="M 43.41868550000004,36.37222600000001 L 43.41868550000004,29.606225999999992" fill="none" stroke="rgb(26,107,0)" stroke-width="0.1"/>
  <path d="M 43.41868550000004,29.606225999999992 L 100.0,29.606225999999992" fill="none" stroke="rgb(26,107,0)" stroke-width="0.1"/>
  <text fill="rgb(0,0,0)" font-family="Noto Sans CJK SC" font-size="2" transform="rotate(-360.001,42.902685500000075,17.018226000000027)" x="42.902685500000075" y="17.018226000000027">
   300
  </text>
  <text fill="rgb(0,0,0)" font-family="Noto Sans CJK SC" font-size="2" transform="rotate(-360.001,32.638685500000065,17.09022600000003)" x="32.638685500000065" y="17.09022600000003">
   800
  </text>
  <text fill="rgb(0,0,0)" font-family="Noto Sans CJK SC" font-size="2" transform="rotate(-360.001,24.138685500000065,17.09022600000003)" x="24.138685500000065" y="17.09022600000003">
   900
  </text>
  <text fill="rgb(0,0,0)" font-family="Noto Sans CJK SC" font-size="2" transform="rotate(-360.001,15.638685500000065,17.09022600000003)" x="15.638685500000065" y="17.09022600000003">
   800
  </text>
  <text fill="rgb(0,0,0)" font-family="Noto Sans CJK SC" font-size="2" transform="rotate(-90.0,26.856685500000026,85.55222599999996)" x="26.856685500000026" y="85.55222599999996">
   4900
  </text>
  <text fill="rgb(0,0,0)" font-family="Noto Sans CJK SC" font-size="2" transform="rotate(-90.0,26.856685500000026,56.652225999999985)" x="26.856685500000026" y="56.652225999999985">
   600
  </text>
  <text fill="rgb(0,0,0)" font-family="Noto Sans CJK SC" font-size="2" transform="rotate(-0.0,8.738685500000088,60.795226000000014)" x="8.738685500000088" y="60.795226000000014">
   4900
  </text>
  <text fill="rgb(0,0,0)" font-family="Noto Sans CJK SC" font-size="2" transform="rotate(-0.0,35.638685500000065,56.523225999999966)" x="35.638685500000065" y="56.523225999999966">
   200
  </text>
  <text fill="rgb(0,0,0)" font-family="Noto Sans CJK SC" font-size="2" transform="rotate(-0.0,38.13968550000004,57.267225999999994)" x="38.13968550000004" y="57.267225999999994">
   300
  </text>
  <text fill="rgb(0,0,0)" font-family="Noto Sans CJK SC" font-size="2" transform="rotate(-0.0,48.24168550000002,60.795226000000014)" x="48.24168550000002" y="60.795226000000014">
   2000
  </text>
  <text fill="rgb(0,0,0)" font-family="Noto Sans CJK SC" font-size="2" transform="rotate(-450.0,51.96068550000007,14.302226000000019)" x="51.96068550000007" y="14.302226000000019">
   5450
  </text>
  <text fill="rgb(0,0,0)" font-family="Noto Sans CJK SC" font-size="2" transform="rotate(-450.0,51.96068550000007,47.52222599999999)" x="51.96068550000007" y="47.52222599999999">
   1250
  </text>
  <text fill="rgb(0,0,0)" font-family="Noto Sans CJK SC" font-size="2" transform="rotate(-450.0,51.96068550000007,56.152225999999985)" x="51.96068550000007" y="56.152225999999985">
   700
  </text>
  <text fill="rgb(0,0,0)" font-family="Noto Sans CJK SC" font-size="2" transform="rotate(-0.0,9.550685499999986,4.041225999999995)" x="9.550685499999986" y="4.041225999999995">
   1100
  </text>
  <text fill="rgb(0,0,0)" font-family="Noto Sans CJK SC" font-size="2" transform="rotate(-0.0,18.76468550000004,4.041225999999995)" x="18.76468550000004" y="4.041225999999995">
   575
  </text>
  <text fill="rgb(0,0,0)" font-family="Noto Sans CJK SC" font-size="2" transform="rotate(-0.0,29.51868550000006,4.041225999999995)" x="29.51868550000006" y="4.041225999999995">
   1600
  </text>
  <text fill="rgb(0,0,0)" font-family="Noto Sans CJK SC" font-size="2" transform="rotate(-0.0,43.62368550000008,3.969225999999992)" x="43.62368550000008" y="3.969225999999992">
   100
  </text>
  <text fill="rgb(0,0,0)" font-family="Noto Sans CJK SC" font-size="2" transform="rotate(-0.0,55.73868550000009,27.548226)" x="55.73868550000009" y="27.548226">
   3500
  </text>
  <text fill="rgb(0,0,0)" font-family="Noto Sans CJK SC" font-size="2" transform="rotate(-0.0,94.73868550000009,27.548226)" x="94.73868550000009" y="27.548226">
   4300
  </text>
 </g>
 <g id="layerPUB_HATCH" inkscape:groupmode="layer" inkscape:label="PUB_HATCH">
  <path d="M 77.41868550000004,1.42122599999999 L 78.83991149999997,0.0" fill="none" stroke="rgb(178,0,0)" stroke-width="0.1"/>
  <path d="M 77.41868550000004,3.189226000000019 L 79.41868550000004,1.1892260000000192" fill="none" stroke="rgb(178,0,0)" stroke-width="0.1"/>
  <path d="M 77.41868550000004,4.956226000000015 L 79.41868550000004,2.956226000000015" fill="none" stroke="rgb(178,0,0)" stroke-width="0.1"/>
  <path d="M 77.41868550000004,6.724225999999987 L 79.41868550000004,4.724225999999987" fill="none" stroke="rgb(178,0,0)" stroke-width="0.1"/>
  <path d="M 77.41868550000004,8.492226000000016 L 79.41868550000004,6.4922260000000165" fill="none" stroke="rgb(178,0,0)" stroke-width="0.1"/>
  <path d="M 77.41868550000004,10.260225999999989 L 79.41868550000004,8.260225999999989" fill="none" stroke="rgb(178,0,0)" stroke-width="0.1"/>
  <path d="M 77.41868550000004,12.028226000000018 L 79.41868550000004,10.028226000000018" fill="none" stroke="rgb(178,0,0)" stroke-width="0.1"/>
  <path d="M 77.41868550000004,13.795226000000014 L 79.41868550000004,11.795226000000014" fill="none" stroke="rgb(178,0,0)" stroke-width="0.1"/>
  <path d="M 77.41868550000004,15.563225999999986 L 79.41868550000004,13.563225999999986" fill="none" stroke="rgb(178,0,0)" stroke-width="0.1"/>
  <path d="M 77.41868550000004,17.331226000000015 L 79.41868550000004,15.331226000000015" fill="none" stroke="rgb(178,0,0)" stroke-width="0.1"/>
  <path d="M 77.41868550000004,19.099225999999987 L 79.41868550000004,17.099225999999987" fill="none" stroke="rgb(178,0,0)" stroke-width="0.1"/>
  <path d="M 77.41868550000004,20.86622600000004 L 79.41868550000004,18.86622600000004" fill="none" stroke="rgb(178,0,0)" stroke-width="0.1"/>
  <path d="M 77.41868550000004,22.634226000000012 L 79.41868550000004,20.634226000000012" fill="none" stroke="rgb(178,0,0)" stroke-width="0.1"/>
  <path d="M 77.41868550000004,24.402225999999985 L 79.41868550000004,22.402225999999985" fill="none" stroke="rgb(178,0,0)" stroke-width="0.1"/>
  <path d="M 77.41868550000004,26.170226000000014 L 79.41868550000004,24.170226000000014" fill="none" stroke="rgb(178,0,0)" stroke-width="0.1"/>
  <path d="M 77.41868550000004,27.93722600000001 L 79.41868550000004,25.93722600000001" fill="none" stroke="rgb(178,0,0)" stroke-width="0.1"/>
  <path d="M 77.41868550000004,29.70522600000004 L 79.41868550000004,27.70522600000004" fill="none" stroke="rgb(178,0,0)" stroke-width="0.1"/>
  <path d="M 77.41868550000004,31.47322600000001 L 79.41868550000004,29.47322600000001" fill="none" stroke="rgb(178,0,0)" stroke-width="0.1"/>
  <path d="M 77.41868550000004,33.24122600000004 L 79.41868550000004,31.24122600000004" fill="none" stroke="rgb(178,0,0)" stroke-width="0.1"/>
  <path d="M 77.41868550000004,35.00922600000001 L 79.41868550000004,33.00922600000001" fill="none" stroke="rgb(178,0,0)" stroke-width="0.1"/>
  <path d="M 78.12068550000004,36.07422600000001 L 79.41868550000004,34.77622600000001" fill="none" stroke="rgb(178,0,0)" stroke-width="0.1"/>
  <path d="M 62.42168550000008,92.43222599999996 L 64.42168550000008,90.43222599999996" fill="none" stroke="rgb(178,0,0)" stroke-width="0.1"/>
  <path d="M 62.42168550000008,94.20022599999999 L 64.42168550000008,92.20022599999999" fill="none" stroke="rgb(178,0,0)" stroke-width="0.1"/>
  <path d="M 62.42168550000008,95.96822600000002 L 64.42168550000008,93.96822600000002" fill="none" stroke="rgb(178,0,0)" stroke-width="0.1"/>
  <path d="M 62.42168550000008,97.73522600000007 L 64.42168550000008,95.73522600000007" fill="none" stroke="rgb(178,0,0)" stroke-width="0.1"/>
  <path d="M 62.42168550000008,99.50322599999998 L 64.42168550000008,97.50322599999998" fill="none" stroke="rgb(178,0,0)" stroke-width="0.1"/>
  <path d="M 63.69291150000004,100.00000000000006 L 64.42168550000008,99.27122600000001" fill="none" stroke="rgb(178,0,0)" stroke-width="0.1"/>
  <path d="M 78.59068550000006,37.37222600000001 L 80.59068550000006,35.37222600000001" fill="none" stroke="rgb(178,0,0)" stroke-width="0.1"/>
  <path d="M 80.35868550000009,37.37222600000001 L 82.35868550000009,35.37222600000001" fill="none" stroke="rgb(178,0,0)" stroke-width="0.1"/>
  <path d="M 82.12668550000001,37.37222600000001 L 84.12668550000001,35.37222600000001" fill="none" stroke="rgb(178,0,0)" stroke-width="0.1"/>
  <path d="M 83.89368550000006,37.37222600000001 L 85.89368550000006,35.37222600000001" fill="none" stroke="rgb(178,0,0)" stroke-width="0.1"/>
  <path d="M 85.66168550000009,37.37222600000001 L 87.66168550000009,35.37222600000001" fill="none" stroke="rgb(178,0,0)" stroke-width="0.1"/>
  <path d="M 87.4296855,37.37222600000001 L 89.4296855,35.37222600000001" fill="none" stroke="rgb(178,0,0)" stroke-width="0.1"/>
  <path d="M 89.19768550000003,37.37222600000001 L 91.19768550000003,35.37222600000001" fill="none" stroke="rgb(178,0,0)" stroke-width="0.1"/>
  <path d="M 90.96468550000009,37.37222600000001 L 92.96468550000009,35.37222600000001" fill="none" stroke="rgb(178,0,0)" stroke-width="0.1"/>
  <path d="M 92.7326855,37.37222600000001 L 94.7326855,35.37222600000001" fill="none" stroke="rgb(178,0,0)" stroke-width="0.1"/>
  <path d="M 94.50068550000003,37.37222600000001 L 96.50068550000003,35.37222600000001" fill="none" stroke="rgb(178,0,0)" stroke-width="0.1"/>
  <path d="M 96.26868550000006,37.37222600000001 L 98.26868550000006,35.37222600000001" fill="none" stroke="rgb(178,0,0)" stroke-width="0.1"/>
  <path d="M 98.0356855,37.37222600000001 L 100.0,35.40791150000001" fill="none" stroke="rgb(178,0,0)" stroke-width="0.1"/>
  <path d="M 99.80368550000003,37.37222600000001 L 100.0,37.17591150000004" fill="none" stroke="rgb(178,0,0)" stroke-width="0.1"/>
  <path d="M 42.94268550000004,35.89622600000001 L 43.467685500000016,35.37222600000001" fill="none" stroke="rgb(178,0,0)" stroke-width="0.1"/>
  <path d="M 43.82668550000005,36.78022600000003 L 45.235685500000045,35.37222600000001" fill="none" stroke="rgb(178,0,0)" stroke-width="0.1"/>
  <path d="M 45.002685499999984,37.37222600000001 L 47.002685499999984,35.37222600000001" fill="none" stroke="rgb(178,0,0)" stroke-width="0.1"/>
  <path d="M 46.77068550000001,37.37222600000001 L 48.77068550000001,35.37222600000001" fill="none" stroke="rgb(178,0,0)" stroke-width="0.1"/>
  <path d="M 48.53868550000004,37.37222600000001 L 50.53868550000004,35.37222600000001" fill="none" stroke="rgb(178,0,0)" stroke-width="0.1"/>
  <path d="M 50.30668550000007,37.37222600000001 L 52.30668550000007,35.37222600000001" fill="none" stroke="rgb(178,0,0)" stroke-width="0.1"/>
  <path d="M 52.07368550000001,37.37222600000001 L 54.07368550000001,35.37222600000001" fill="none" stroke="rgb(178,0,0)" stroke-width="0.1"/>
  <path d="M 53.84168550000004,37.37222600000001 L 55.84168550000004,35.37222600000001" fill="none" stroke="rgb(178,0,0)" stroke-width="0.1"/>
  <path d="M 55.60968550000007,37.37222600000001 L 57.60968550000007,35.37222600000001" fill="none" stroke="rgb(178,0,0)" stroke-width="0.1"/>
  <path d="M 57.377685499999984,37.37222600000001 L 59.377685499999984,35.37222600000001" fill="none" stroke="rgb(178,0,0)" stroke-width="0.1"/>
  <path d="M 59.14568550000001,37.37222600000001 L 61.14568550000001,35.37222600000001" fill="none" stroke="rgb(178,0,0)" stroke-width="0.1"/>
  <path d="M 60.912685500000066,37.37222600000001 L 62.912685500000066,35.37222600000001" fill="none" stroke="rgb(178,0,0)" stroke-width="0.1"/>
  <path d="M 62.68068549999998,37.37222600000001 L 64.68068549999998,35.37222600000001" fill="none" stroke="rgb(178,0,0)" stroke-width="0.1"/>
  <path d="M 64.44868550000001,37.37222600000001 L 66.44868550000001,35.37222600000001" fill="none" stroke="rgb(178,0,0)" stroke-width="0.1"/>
  <path d="M 66.21668550000004,37.37222600000001 L 68.21668550000004,35.37222600000001" fill="none" stroke="rgb(178,0,0)" stroke-width="0.1"/>
  <path d="M 67.98368550000009,37.37222600000001 L 69.98368550000009,35.37222600000001" fill="none" stroke="rgb(178,0,0)" stroke-width="0.1"/>
  <path d="M 69.75168550000001,37.37222600000001 L 71.75168550000001,35.37222600000001" fill="none" stroke="rgb(178,0,0)" stroke-width="0.1"/>
  <path d="M 71.51968550000004,37.37222600000001 L 73.51968550000004,35.37222600000001" fill="none" stroke="rgb(178,0,0)" stroke-width="0.1"/>
  <path d="M 73.28768550000007,37.37222600000001 L 75.28768550000007,35.37222600000001" fill="none" stroke="rgb(178,0,0)" stroke-width="0.1"/>
  <path d="M 75.0546855,37.37222600000001 L 77.0546855,35.37222600000001" fill="none" stroke="rgb(178,0,0)" stroke-width="0.1"/>
  <path d="M 76.82268550000003,37.37222600000001 L 78.12068550000004,36.07422600000001" fill="none" stroke="rgb(178,0,0)" stroke-width="0.1"/>
  <path d="M 42.41868550000004,36.42122599999999 L 42.94268550000004,35.89622600000001" fill="none" stroke="rgb(178,0,0)" stroke-width="0.1"/>
  <path d="M 42.41868550000004,38.18922600000002 L 43.82668550000005,36.78022600000003" fill="none" stroke="rgb(178,0,0)" stroke-width="0.1"/>
  <path d="M 42.41868550000004,39.956226000000015 L 44.41868550000004,37.956226000000015" fill="none" stroke="rgb(178,0,0)" stroke-width="0.1"/>
  <path d="M 42.41868550000004,41.72422599999999 L 44.41868550000004,39.72422599999999" fill="none" stroke="rgb(178,0,0)" stroke-width="0.1"/>
  <path d="M 42.41868550000004,43.49222600000002 L 44.41868550000004,41.49222600000002" fill="none" stroke="rgb(178,0,0)" stroke-width="0.1"/>
  <path d="M 42.41868550000004,45.26022599999999 L 44.41868550000004,43.26022599999999" fill="none" stroke="rgb(178,0,0)" stroke-width="0.1"/>
  <path d="M 42.41868550000004,47.02822600000002 L 44.41868550000004,45.02822600000002" fill="none" stroke="rgb(178,0,0)" stroke-width="0.1"/>
  <path d="M 42.41868550000004,48.795226000000014 L 44.41868550000004,46.795226000000014" fill="none" stroke="rgb(178,0,0)" stroke-width="0.1"/>
  <path d="M 44.10968550000007,48.87222600000001 L 44.41868550000004,48.563225999999986" fill="none" stroke="rgb(178,0,0)" stroke-width="0.1"/>
  <path d="M 38.2326855,91.87222600000001 L 40.2326855,89.87222600000001" fill="none" stroke="rgb(178,0,0)" stroke-width="0.1"/>
  <path d="M 40.00068550000003,91.87222600000001 L 42.00068550000003,89.87222600000001" fill="none" stroke="rgb(178,0,0)" stroke-width="0.1"/>
  <path d="M 41.76868550000006,91.87222600000001 L 43.76868550000006,89.87222600000001" fill="none" stroke="rgb(178,0,0)" stroke-width="0.1"/>
  <path d="M 43.5356855,91.87222600000001 L 45.5356855,89.87222600000001" fill="none" stroke="rgb(178,0,0)" stroke-width="0.1"/>
  <path d="M 45.30368550000003,91.87222600000001 L 47.30368550000003,89.87222600000001" fill="none" stroke="rgb(178,0,0)" stroke-width="0.1"/>
  <path d="M 47.07168550000006,91.87222600000001 L 49.07168550000006,89.87222600000001" fill="none" stroke="rgb(178,0,0)" stroke-width="0.1"/>
  <path d="M 48.83968550000009,91.87222600000001 L 50.83968550000009,89.87222600000001" fill="none" stroke="rgb(178,0,0)" stroke-width="0.1"/>
  <path d="M 50.606685500000026,91.87222600000001 L 52.606685500000026,89.87222600000001" fill="none" stroke="rgb(178,0,0)" stroke-width="0.1"/>
  <path d="M 52.374685500000055,91.87222600000001 L 54.374685500000055,89.87222600000001" fill="none" stroke="rgb(178,0,0)" stroke-width="0.1"/>
  <path d="M 54.142685500000084,91.87222600000001 L 56.142685500000084,89.87222600000001" fill="none" stroke="rgb(178,0,0)" stroke-width="0.1"/>
  <path d="M 55.9106855,91.87222600000001 L 57.9106855,89.87222600000001" fill="none" stroke="rgb(178,0,0)" stroke-width="0.1"/>
  <path d="M 57.67868550000003,91.87222600000001 L 59.67868550000003,89.87222600000001" fill="none" stroke="rgb(178,0,0)" stroke-width="0.1"/>
  <path d="M 59.44568550000008,91.87222600000001 L 61.44568550000008,89.87222600000001" fill="none" stroke="rgb(178,0,0)" stroke-width="0.1"/>
  <path d="M 61.2136855,91.87222600000001 L 63.2136855,89.87222600000001" fill="none" stroke="rgb(178,0,0)" stroke-width="0.1"/>
  <path d="M 37.41868550000004,57.33122599999996 L 37.877685499999984,56.87222600000001" fill="none" stroke="rgb(178,0,0)" stroke-width="0.1"/>
  <path d="M 37.41868550000004,59.09922599999999 L 39.41868550000004,57.09922599999999" fill="none" stroke="rgb(178,0,0)" stroke-width="0.1"/>
  <path d="M 37.41868550000004,60.86622600000004 L 39.41868550000004,58.86622600000004" fill="none" stroke="rgb(178,0,0)" stroke-width="0.1"/>
  <path d="M 37.41868550000004,62.634225999999956 L 39.41868550000004,60.634225999999956" fill="none" stroke="rgb(178,0,0)" stroke-width="0.1"/>
  <path d="M 37.41868550000004,64.40222599999998 L 39.41868550000004,62.402225999999985" fill="none" stroke="rgb(178,0,0)" stroke-width="0.1"/>
  <path d="M 37.41868550000004,66.17022600000001 L 39.41868550000004,64.17022600000001" fill="none" stroke="rgb(178,0,0)" stroke-width="0.1"/>
  <path d="M 37.41868550000004,67.93722600000007 L 39.41868550000004,65.93722600000007" fill="none" stroke="rgb(178,0,0)" stroke-width="0.1"/>
  <path d="M 37.41868550000004,69.70522599999998 L 39.41868550000004,67.70522599999998" fill="none" stroke="rgb(178,0,0)" stroke-width="0.1"/>
  <path d="M 37.41868550000004,71.47322600000001 L 39.41868550000004,69.47322600000001" fill="none" stroke="rgb(178,0,0)" stroke-width="0.1"/>
  <path d="M 37.41868550000004,73.24122600000004 L 39.41868550000004,71.24122600000004" fill="none" stroke="rgb(178,0,0)" stroke-width="0.1"/>
  <path d="M 37.41868550000004,75.00922599999996 L 39.41868550000004,73.00922599999996" fill="none" stroke="rgb(178,0,0)" stroke-width="0.1"/>
  <path d="M 37.41868550000004,76.77622600000001 L 39.41868550000004,74.77622600000001" fill="none" stroke="rgb(178,0,0)" stroke-width="0.1"/>
  <path d="M 37.41868550000004,78.54422600000004 L 39.41868550000004,76.54422600000004" fill="none" stroke="rgb(178,0,0)" stroke-width="0.1"/>
  <path d="M 37.41868550000004,80.31222600000007 L 39.41868550000004,78.31222600000007" fill="none" stroke="rgb(178,0,0)" stroke-width="0.1"/>
  <path d="M 37.41868550000004,82.08022599999998 L 39.41868550000004,80.08022599999998" fill="none" stroke="rgb(178,0,0)" stroke-width="0.1"/>
  <path d="M 37.41868550000004,83.84722600000003 L 39.41868550000004,81.84722600000003" fill="none" stroke="rgb(178,0,0)" stroke-width="0.1"/>
  <path d="M 37.41868550000004,85.61522600000006 L 39.41868550000004,83.61522600000006" fill="none" stroke="rgb(178,0,0)" stroke-width="0.1"/>
  <path d="M 37.41868550000004,87.38322599999998 L 39.41868550000004,85.38322599999998" fill="none" stroke="rgb(178,0,0)" stroke-width="0.1"/>
  <path d="M 37.41868550000004,89.15122600000001 L 39.41868550000004,87.15122600000001" fill="none" stroke="rgb(178,0,0)" stroke-width="0.1"/>
  <path d="M 37.41868550000004,90.91822600000006 L 39.41868550000004,88.91822600000006" fill="none" stroke="rgb(178,0,0)" stroke-width="0.1"/>
  <path d="M 77.41868550000004,0.0 L 77.41868550000004,35.37222600000001" fill="none" stroke="rgb(178,0,0)" stroke-width="0.1"/>
  <path d="M 77.41868550000004,35.37222600000001 L 78.41868550000004,36.37222600000001" fill="none" stroke="rgb(178,0,0)" stroke-width="0.1"/>
  <path d="M 78.41868550000004,36.37222600000001 L 79.41868550000004,35.37222600000001" fill="none" stroke="rgb(178,0,0)" stroke-width="0.1"/>
  <path d="M 79.41868550000004,35.37222600000001 L 79.41868550000004,0.0" fill="none" stroke="rgb(178,0,0)" stroke-width="0.1"/>
  <path d="M 62.42168550000008,91.87222600000001 L 62.42168550000008,100.00000000000006" fill="none" stroke="rgb(178,0,0)" stroke-width="0.1"/>
  <path d="M 64.42168550000008,100.00000000000006 L 64.42168550000008,89.87222600000001" fill="none" stroke="rgb(178,0,0)" stroke-width="0.1"/>
  <path d="M 64.42168550000008,89.87222600000001 L 63.42168550000008,90.87222600000001" fill="none" stroke="rgb(178,0,0)" stroke-width="0.1"/>
  <path d="M 63.42168550000008,90.87222600000001 L 62.42168550000008,91.87222600000001" fill="none" stroke="rgb(178,0,0)" stroke-width="0.1"/>
  <path d="M 78.41868550000004,37.37222600000001 L 100.0,37.37222600000001" fill="none" stroke="rgb(178,0,0)" stroke-width="0.1"/>
  <path d="M 100.0,35.37222600000001 L 79.41868550000004,35.37222600000001" fill="none" stroke="rgb(178,0,0)" stroke-width="0.1"/>
  <path d="M 79.41868550000004,35.37222600000001 L 78.41868550000004,36.37222600000001" fill="none" stroke="rgb(178,0,0)" stroke-width="0.1"/>
  <path d="M 78.41868550000004,36.37222600000001 L 78.41868550000004,37.37222600000001" fill="none" stroke="rgb(178,0,0)" stroke-width="0.1"/>
  <path d="M 32.42868550000003,56.87222600000001 L 44.42168550000008,56.87222600000001" fill="none" stroke="rgb(89,89,89)" stroke-width="0.1"/>
  <path d="M 44.42168550000008,56.87222600000001 L 44.42168550000008,48.87222600000001" fill="none" stroke="rgb(89,89,89)" stroke-width="0.1"/>
  <path d="M 44.42168550000008,48.87222600000001 L 32.42868550000003,48.87222600000001" fill="none" stroke="rgb(89,89,89)" stroke-width="0.1"/>
  <path d="M 32.42868550000003,48.87222600000001 L 32.42868550000003,56.87222600000001" fill="none" stroke="rgb(89,89,89)" stroke-width="0.1"/>
  <path d="M 43.41868550000004,36.37222600000001 L 44.41868550000004,37.37222600000001" fill="none" stroke="rgb(178,0,0)" stroke-width="0.1"/>
  <path d="M 44.41868550000004,37.37222600000001 L 78.41868550000004,37.37222600000001" fill="none" stroke="rgb(178,0,0)" stroke-width="0.1"/>
  <path d="M 78.41868550000004,37.37222600000001 L 78.41868550000004,36.37222600000001" fill="none" stroke="rgb(178,0,0)" stroke-width="0.1"/>
  <path d="M 78.41868550000004,36.37222600000001 L 77.41868550000004,35.37222600000001" fill="none" stroke="rgb(178,0,0)" stroke-width="0.1"/>
  <path d="M 77.41868550000004,35.37222600000001 L 42.41868550000004,35.37222600000001" fill="none" stroke="rgb(178,0,0)" stroke-width="0.1"/>
  <path d="M 42.41868550000004,35.37222600000001 L 43.41868550000004,36.37222600000001" fill="none" stroke="rgb(178,0,0)" stroke-width="0.1"/>
  <path d="M 44.41868550000004,37.37222600000001 L 43.41868550000004,36.37222600000001" fill="none" stroke="rgb(178,0,0)" stroke-width="0.1"/>
  <path d="M 43.41868550000004,36.37222600000001 L 42.41868550000004,35.37222600000001" fill="none" stroke="rgb(178,0,0)" stroke-width="0.1"/>
  <path d="M 42.41868550000004,35.37222600000001 L 42.41868550000004,48.87222600000001" fill="none" stroke="rgb(178,0,0)" stroke-width="0.1"/>
  <path d="M 42.41868550000004,48.87222600000001 L 44.41868550000004,48.87222600000001" fill="none" stroke="rgb(178,0,0)" stroke-width="0.1"/>
  <path d="M 44.41868550000004,48.87222600000001 L 44.41868550000004,37.37222600000001" fill="none" stroke="rgb(178,0,0)" stroke-width="0.1"/>
  <path d="M 63.42168550000008,90.87222600000001 L 64.42168550000008,89.87222600000001" fill="none" stroke="rgb(178,0,0)" stroke-width="0.1"/>
  <path d="M 64.42168550000008,89.87222600000001 L 39.41868550000004,89.87222600000001" fill="none" stroke="rgb(178,0,0)" stroke-width="0.1"/>
  <path d="M 39.41868550000004,89.87222600000001 L 38.41868550000004,90.87222600000001" fill="none" stroke="rgb(178,0,0)" stroke-width="0.1"/>
  <path d="M 38.41868550000004,90.87222600000001 L 37.41868550000004,91.87222600000001" fill="none" stroke="rgb(178,0,0)" stroke-width="0.1"/>
  <path d="M 37.41868550000004,91.87222600000001 L 62.42168550000008,91.87222600000001" fill="none" stroke="rgb(178,0,0)" stroke-width="0.1"/>
  <path d="M 62.42168550000008,91.87222600000001 L 63.42168550000008,90.87222600000001" fill="none" stroke="rgb(178,0,0)" stroke-width="0.1"/>
  <path d="M 37.41868550000004,56.87222600000001 L 37.41868550000004,91.87222600000001" fill="none" stroke="rgb(178,0,0)" stroke-width="0.1"/>
  <path d="M 37.41868550000004,91.87222600000001 L 38.41868550000004,90.87222600000001" fill="none" stroke="rgb(178,0,0)" stroke-width="0.1"/>
  <path d="M 38.41868550000004,90.87222600000001 L 39.41868550000004,89.87222600000001" fill="none" stroke="rgb(178,0,0)" stroke-width="0.1"/>
  <path d="M 39.41868550000004,89.87222600000001 L 39.41868550000004,56.87222600000001" fill="none" stroke="rgb(178,0,0)" stroke-width="0.1"/>
  <path d="M 39.41868550000004,56.87222600000001 L 37.41868550000004,56.87222600000001" fill="none" stroke="rgb(178,0,0)" stroke-width="0.1"/>
 </g>
 <g id="layerSTAIR" inkscape:groupmode="layer" inkscape:label="STAIR">
  <path d="M 98.81868550000002,34.77222599999999 L 100.0,34.77222599999999" fill="none" stroke="rgb(134,134,134)" stroke-width="0.1"/>
  <path d="M 80.41868550000004,1.372226000000012 L 79.41868550000004,1.372226000000012" fill="none" stroke="rgb(178,0,0)" stroke-width="0.1"/>
  <path d="M 80.41868550000004,4.172226000000023 L 79.41868550000004,4.172226000000023" fill="none" stroke="rgb(178,0,0)" stroke-width="0.1"/>
  <path d="M 80.41868550000004,6.972226000000035 L 79.41868550000004,6.972226000000035" fill="none" stroke="rgb(178,0,0)" stroke-width="0.1"/>
  <path d="M 80.41868550000004,9.77222599999999 L 79.41868550000004,9.77222599999999" fill="none" stroke="rgb(178,0,0)" stroke-width="0.1"/>
  <path d="M 80.41868550000004,12.572226 L 79.41868550000004,12.572226" fill="none" stroke="rgb(178,0,0)" stroke-width="0.1"/>
  <path d="M 80.41868550000004,15.372226000000012 L 79.41868550000004,15.372226000000012" fill="none" stroke="rgb(178,0,0)" stroke-width="0.1"/>
  <path d="M 79.41868550000004,15.322226 A 19.4001,19.4001 0.0 0,0 98.81868550000002,34.77222599999999" fill="none" stroke="rgb(134,134,134)" stroke-width="0.1"/>
  <path d="M 83.01868550000006,89.87222600000001 L 83.01868550000006,74.47222600000003" fill="none" instance-id="5" semantic-id="30" stroke="rgb(178,178,0)" stroke-width="0.1"/>
  <path d="M 83.01868550000006,72.27222599999999 L 83.01868550000006,56.87222600000001" fill="none" instance-id="5" semantic-id="30" stroke="rgb(178,178,0)" stroke-width="0.1"/>
  <path d="M 85.61868550000008,89.87222600000001 L 85.61868550000008,74.47222600000003" fill="none" instance-id="5" semantic-id="30" stroke="rgb(178,178,0)" stroke-width="0.1"/>
  <path d="M 85.61868550000008,72.27222599999999 L 85.61868550000008,56.87222600000001" fill="none" instance-id="5" semantic-id="30" stroke="rgb(178,178,0)" stroke-width="0.1"/>
  <path d="M 88.21868549999999,89.87222600000001 L 88.21868549999999,74.47222600000003" fill="none" instance-id="5" semantic-id="30" stroke="rgb(178,178,0)" stroke-width="0.1"/>
  <path d="M 88.21868549999999,72.27222599999999 L 88.21868549999999,56.87222600000001" fill="none" instance-id="5" semantic-id="30" stroke="rgb(178,178,0)" stroke-width="0.1"/>
  <path d="M 90.81868550000002,89.87222600000001 L 90.81868550000002,74.47222600000003" fill="none" instance-id="5" semantic-id="30" stroke="rgb(178,178,0)" stroke-width="0.1"/>
  <path d="M 90.81868550000002,72.27222599999999 L 90.81868550000002,56.87222600000001" fill="none" instance-id="5" semantic-id="30" stroke="rgb(178,178,0)" stroke-width="0.1"/>
  <path d="M 93.41868550000004,89.87222600000001 L 93.41868550000004,74.47222600000003" fill="none" instance-id="5" semantic-id="30" stroke="rgb(178,178,0)" stroke-width="0.1"/>
  <path d="M 93.41868550000004,72.27222599999999 L 93.41868550000004,56.87222600000001" fill="none" instance-id="5" semantic-id="30" stroke="rgb(178,178,0)" stroke-width="0.1"/>
  <path d="M 96.01868550000006,89.87222600000001 L 96.01868550000006,74.47222600000003" fill="none" instance-id="5" semantic-id="30" stroke="rgb(178,178,0)" stroke-width="0.1"/>
  <path d="M 96.01868550000006,72.27222599999999 L 96.01868550000006,56.87222600000001" fill="none" instance-id="5" semantic-id="30" stroke="rgb(178,178,0)" stroke-width="0.1"/>
  <path d="M 98.61868550000008,89.87222600000001 L 98.61868550000008,74.47222600000003" fill="none" instance-id="5" semantic-id="30" stroke="rgb(178,178,0)" stroke-width="0.1"/>
  <path d="M 98.61868550000008,72.27222599999999 L 98.61868550000008,56.87222600000001" fill="none" instance-id="5" semantic-id="30" stroke="rgb(178,178,0)" stroke-width="0.1"/>
  <path d="M 80.41868550000004,12.572226 L 99.31868550000002,12.572226" fill="none" stroke="rgb(178,0,0)" stroke-width="0.1"/>
  <path d="M 80.41868550000004,9.77222599999999 L 99.31868550000002,9.77222599999999" fill="none" stroke="rgb(178,0,0)" stroke-width="0.1"/>
  <path d="M 80.41868550000004,6.972226000000035 L 99.31868550000002,6.972226000000035" fill="none" stroke="rgb(178,0,0)" stroke-width="0.1"/>
  <path d="M 80.41868550000004,4.172226000000023 L 99.31868550000002,4.172226000000023" fill="none" stroke="rgb(178,0,0)" stroke-width="0.1"/>
  <path d="M 80.41868550000004,1.372226000000012 L 99.31868550000002,1.372226000000012" fill="none" stroke="rgb(178,0,0)" stroke-width="0.1"/>
  <path d="M 44.41868550000004,14.372226000000012 L 59.818685500000015,14.372226000000012" fill="none" instance-id="4" semantic-id="30" stroke="rgb(178,178,0)" stroke-width="0.1"/>
  <path d="M 44.41868550000004,11.572226 L 59.818685500000015,11.572226" fill="none" instance-id="4" semantic-id="30" stroke="rgb(178,178,0)" stroke-width="0.1"/>
  <path d="M 44.41868550000004,8.77222599999999 L 59.818685500000015,8.77222599999999" fill="none" instance-id="4" semantic-id="30" stroke="rgb(178,178,0)" stroke-width="0.1"/>
  <path d="M 44.41868550000004,5.972226000000035 L 59.818685500000015,5.972226000000035" fill="none" instance-id="4" semantic-id="30" stroke="rgb(178,178,0)" stroke-width="0.1"/>
  <path d="M 44.41868550000004,3.1722260000000233 L 59.818685500000015,3.1722260000000233" fill="none" instance-id="4" semantic-id="30" stroke="rgb(178,178,0)" stroke-width="0.1"/>
  <path d="M 44.41868550000004,0.37222600000001194 L 59.818685500000015,0.37222600000001194" fill="none" instance-id="4" semantic-id="30" stroke="rgb(178,178,0)" stroke-width="0.1"/>
  <path d="M 62.01868550000006,14.372226000000012 L 77.41868550000004,14.372226000000012" fill="none" instance-id="4" semantic-id="30" stroke="rgb(178,178,0)" stroke-width="0.1"/>
  <path d="M 62.01868550000006,11.572226 L 77.41868550000004,11.572226" fill="none" instance-id="4" semantic-id="30" stroke="rgb(178,178,0)" stroke-width="0.1"/>
  <path d="M 62.01868550000006,8.77222599999999 L 77.41868550000004,8.77222599999999" fill="none" instance-id="4" semantic-id="30" stroke="rgb(178,178,0)" stroke-width="0.1"/>
  <path d="M 62.01868550000006,5.972226000000035 L 77.41868550000004,5.972226000000035" fill="none" instance-id="4" semantic-id="30" stroke="rgb(178,178,0)" stroke-width="0.1"/>
  <path d="M 62.01868550000006,3.1722260000000233 L 77.41868550000004,3.1722260000000233" fill="none" instance-id="4" semantic-id="30" stroke="rgb(178,178,0)" stroke-width="0.1"/>
  <path d="M 62.01868550000006,0.37222600000001194 L 77.41868550000004,0.37222600000001194" fill="none" instance-id="4" semantic-id="30" stroke="rgb(178,178,0)" stroke-width="0.1"/>
  <path d="M 65.04768550000006,74.47322600000001 A 15.3567,15.3567 0.0 0,0 80.40368550000005,89.87322599999999" fill="none" instance-id="5" semantic-id="30" stroke="rgb(134,134,134)" stroke-width="0.1"/>
  <path d="M 65.04768550000006,74.47322600000001 L 65.04768550000006,72.27322599999997" fill="none" instance-id="5" semantic-id="30" stroke="rgb(134,134,134)" stroke-width="0.1"/>
  <path d="M 80.44768550000003,56.87322599999999 A 15.4,15.4 0.0 0,0 65.04768550000006,72.27322599999997" fill="none" instance-id="5" semantic-id="30" stroke="rgb(134,134,134)" stroke-width="0.1"/>
  <path d="M 100.0,74.47222600000003 L 80.41868550000004,74.47222600000003" fill="none" instance-id="5" semantic-id="30" stroke="rgb(178,178,0)" stroke-width="0.1"/>
  <path d="M 80.41868550000004,74.47222600000003 L 80.41868550000004,89.87222600000001" fill="none" instance-id="5" semantic-id="30" stroke="rgb(178,178,0)" stroke-width="0.1"/>
  <path d="M 80.41868550000004,89.87222600000001 L 100.0,89.87222600000001" fill="none" instance-id="5" semantic-id="30" stroke="rgb(178,178,0)" stroke-width="0.1"/>
  <path d="M 100.0,89.87222600000001 L 64.41868550000004,89.87222600000001" fill="none" instance-id="5" semantic-id="30" stroke="rgb(178,178,0)" stroke-width="0.1"/>
  <path d="M 64.41868550000004,89.87222600000001 L 64.41868550000004,56.87222600000001" fill="none" instance-id="5" semantic-id="30" stroke="rgb(178,178,0)" stroke-width="0.1"/>
  <path d="M 64.41868550000004,56.87222600000001 L 100.0,56.87222600000001" fill="none" instance-id="5" semantic-id="30" stroke="rgb(178,178,0)" stroke-width="0.1"/>
  <path d="M 100.0,56.87222600000001 L 80.41868550000004,56.87222600000001" fill="none" instance-id="5" semantic-id="30" stroke="rgb(178,178,0)" stroke-width="0.1"/>
  <path d="M 80.41868550000004,56.87222600000001 L 80.41868550000004,89.87222600000001" fill="none" instance-id="5" semantic-id="30" stroke="rgb(178,178,0)" stroke-width="0.1"/>
  <path d="M 80.41868550000004,89.87222600000001 L 100.0,89.87222600000001" fill="none" instance-id="5" semantic-id="30" stroke="rgb(178,178,0)" stroke-width="0.1"/>
  <path d="M 100.0,72.27222599999999 L 80.41868550000004,72.27222599999999" fill="none" instance-id="5" semantic-id="30" stroke="rgb(178,178,0)" stroke-width="0.1"/>
  <path d="M 100.0,64.87222600000001 L 69.81868550000002,64.87222600000001" fill="none" instance-id="5" semantic-id="30" stroke="rgb(178,178,0)" stroke-width="0.1"/>
  <path d="M 69.81868550000002,64.87222600000001 L 69.81868550000002,81.87222600000001" fill="none" instance-id="5" semantic-id="30" stroke="rgb(178,178,0)" stroke-width="0.1"/>
  <path d="M 69.81868550000002,81.87222600000001 L 100.0,81.87222600000001" fill="none" instance-id="5" semantic-id="30" stroke="rgb(178,178,0)" stroke-width="0.1"/>
  <path d="M 100.0,72.27222599999999 L 79.81868550000002,72.27222599999999" fill="none" instance-id="5" semantic-id="30" stroke="rgb(178,178,0)" stroke-width="0.1"/>
  <path d="M 79.81868550000002,72.27222599999999 L 79.81868550000002,74.47222600000003" fill="none" instance-id="5" semantic-id="30" stroke="rgb(178,178,0)" stroke-width="0.1"/>
  <path d="M 79.81868550000002,74.47222600000003 L 100.0,74.47222600000003" fill="none" instance-id="5" semantic-id="30" stroke="rgb(178,178,0)" stroke-width="0.1"/>
  <path d="M 100.0,73.87222600000001 L 80.41868550000004,73.87222600000001" fill="none" instance-id="5" semantic-id="30" stroke="rgb(178,178,0)" stroke-width="0.1"/>
  <path d="M 80.41868550000004,73.87222600000001 L 100.0,73.87222600000001" fill="none" instance-id="5" semantic-id="30" stroke="rgb(178,178,0)" stroke-width="0.1"/>
  <path d="M 100.0,72.87222600000001 L 80.41868550000004,72.87222600000001" fill="none" instance-id="5" semantic-id="30" stroke="rgb(178,178,0)" stroke-width="0.1"/>
  <path d="M 80.41868550000004,72.87222600000001 L 100.0,72.87222600000001" fill="none" instance-id="5" semantic-id="30" stroke="rgb(178,178,0)" stroke-width="0.1"/>
  <path d="M 100.0,81.94535745000002 L 95.26868550000006,81.47222600000003" fill="none" instance-id="5" semantic-id="30" stroke="rgb(178,178,0)" stroke-width="0.1"/>
  <path d="M 95.26868550000006,81.47222600000003 L 95.26868550000006,82.27222599999999" fill="none" instance-id="5" semantic-id="30" stroke="rgb(178,178,0)" stroke-width="0.1"/>
  <path d="M 95.26868550000006,82.27222599999999 L 100.0,81.79909455" fill="none" instance-id="5" semantic-id="30" stroke="rgb(178,178,0)" stroke-width="0.1"/>
  <path d="M 95.41968550000001,73.87222600000001 L 98.77868550000005,80.85422599999998" fill="none" instance-id="5" semantic-id="30" stroke="rgb(178,178,0)" stroke-width="0.1"/>
  <path d="M 98.77868550000005,80.85422599999998 L 97.07468549999999,82.29222599999997" fill="none" instance-id="5" semantic-id="30" stroke="rgb(178,178,0)" stroke-width="0.1"/>
  <path d="M 97.07468549999999,82.29222599999997 L 100.0,81.73222960528716" fill="none" instance-id="5" semantic-id="30" stroke="rgb(178,178,0)" stroke-width="0.1"/>
  <path d="M 100.0,82.68658148650246 L 99.75868550000007,82.89022600000004" fill="none" instance-id="5" semantic-id="30" stroke="rgb(178,178,0)" stroke-width="0.1"/>
  <path d="M 99.75868550000007,82.89022600000004 L 100.0,83.39182106966354" fill="none" instance-id="5" semantic-id="30" stroke="rgb(178,178,0)" stroke-width="0.1"/>
  <path d="M 100.0,15.372226000000012 L 80.41868550000004,15.372226000000012" fill="none" stroke="rgb(178,0,0)" stroke-width="0.1"/>
  <path d="M 80.41868550000004,15.372226000000012 L 99.31868550000002,15.372226000000012" fill="none" stroke="rgb(178,0,0)" stroke-width="0.1"/>
  <path d="M 99.31868550000002,15.372226000000012 L 99.31868550000002,0.0" fill="none" stroke="rgb(178,0,0)" stroke-width="0.1"/>
  <path d="M 80.41868550000004,0.0 L 80.41868550000004,15.372226000000012" fill="none" stroke="rgb(178,0,0)" stroke-width="0.1"/>
  <path d="M 80.41868550000004,15.372226000000012 L 80.41868550000004,0.0" fill="none" stroke="rgb(178,0,0)" stroke-width="0.1"/>
  <path d="M 80.41868550000004,8.401226000000008 L 89.1896855,3.337225999999987" fill="none" stroke="rgb(178,0,0)" stroke-width="0.1"/>
  <path d="M 89.1896855,3.337225999999987 L 90.75268549999998,4.928225999999995" fill="none" stroke="rgb(178,0,0)" stroke-width="0.1"/>
  <path d="M 90.75268549999998,4.928225999999995 L 89.58468550000009,0.6162260000000401" fill="none" stroke="rgb(178,0,0)" stroke-width="0.1"/>
  <path d="M 89.58468550000009,0.6162260000000401 L 91.14768550000008,2.2072259999999915" fill="none" stroke="rgb(178,0,0)" stroke-width="0.1"/>
  <path d="M 91.14768550000008,2.2072259999999915 L 94.97066718364931,0.0" fill="none" stroke="rgb(178,0,0)" stroke-width="0.1"/>
  <path d="M 89.89146290000008,0.0 L 90.76868550000006,8.77222599999999" fill="none" stroke="rgb(178,0,0)" stroke-width="0.1"/>
  <path d="M 90.76868550000006,8.77222599999999 L 89.56868550000002,8.77222599999999" fill="none" stroke="rgb(178,0,0)" stroke-width="0.1"/>
  <path d="M 89.56868550000002,8.77222599999999 L 90.4459081,0.0" fill="none" stroke="rgb(178,0,0)" stroke-width="0.1"/>
  <path d="M 90.16868550000004,0.0 L 90.16868550000004,23.372226000000012" fill="none" stroke="rgb(178,0,0)" stroke-width="0.1"/>
  <path d="M 90.16868550000004,23.372226000000012 L 100.0,23.372226000000012" fill="none" stroke="rgb(178,0,0)" stroke-width="0.1"/>
  <path d="M 100.0,15.972226000000035 L 99.31868550000002,15.972226000000035" fill="none" stroke="rgb(178,0,0)" stroke-width="0.1"/>
  <path d="M 99.31868550000002,15.972226000000035 L 99.31868550000002,0.0" fill="none" stroke="rgb(178,0,0)" stroke-width="0.1"/>
  <path d="M 99.91868550000004,0.0 L 99.91868550000004,15.372226000000012" fill="none" stroke="rgb(178,0,0)" stroke-width="0.1"/>
  <path d="M 99.91868550000004,15.372226000000012 L 99.91868550000004,0.0" fill="none" stroke="rgb(178,0,0)" stroke-width="0.1"/>
  <path d="M 62.01868550000006,17.172226000000023 L 62.01868550000006,0.0" fill="none" instance-id="4" semantic-id="30" stroke="rgb(178,178,0)" stroke-width="0.1"/>
  <path d="M 44.41868550000004,0.0 L 44.41868550000004,17.172226000000023" fill="none" instance-id="4" semantic-id="30" stroke="rgb(178,178,0)" stroke-width="0.1"/>
  <path d="M 44.41868550000004,17.172226000000023 L 44.41868550000004,0.0" fill="none" instance-id="4" semantic-id="30" stroke="rgb(178,178,0)" stroke-width="0.1"/>
  <path d="M 44.41868550000004,0.0 L 44.41868550000004,35.37222600000001" fill="none" instance-id="4" semantic-id="30" stroke="rgb(178,178,0)" stroke-width="0.1"/>
  <path d="M 44.41868550000004,35.37222600000001 L 77.41868550000004,35.37222600000001" fill="none" instance-id="4" semantic-id="30" stroke="rgb(178,178,0)" stroke-width="0.1"/>
  <path d="M 77.41868550000004,35.37222600000001 L 77.41868550000004,0.0" fill="none" instance-id="4" semantic-id="30" stroke="rgb(178,178,0)" stroke-width="0.1"/>
  <path d="M 77.41868550000004,0.0 L 77.41868550000004,17.172226000000023" fill="none" instance-id="4" semantic-id="30" stroke="rgb(178,178,0)" stroke-width="0.1"/>
  <path d="M 77.41868550000004,17.172226000000023 L 44.41868550000004,17.172226000000023" fill="none" instance-id="4" semantic-id="30" stroke="rgb(178,178,0)" stroke-width="0.1"/>
  <path d="M 44.41868550000004,17.172226000000023 L 59.818685500000015,17.172226000000023" fill="none" instance-id="4" semantic-id="30" stroke="rgb(178,178,0)" stroke-width="0.1"/>
  <path d="M 59.818685500000015,17.172226000000023 L 59.818685500000015,0.0" fill="none" instance-id="4" semantic-id="30" stroke="rgb(178,178,0)" stroke-width="0.1"/>
  <path d="M 44.41868550000004,9.191226000000029 L 51.439685499999996,5.137225999999998" fill="none" instance-id="4" semantic-id="30" stroke="rgb(178,178,0)" stroke-width="0.1"/>
  <path d="M 51.439685499999996,5.137225999999998 L 53.002685499999984,6.7282260000000065" fill="none" instance-id="4" semantic-id="30" stroke="rgb(178,178,0)" stroke-width="0.1"/>
  <path d="M 53.002685499999984,6.7282260000000065 L 51.83468550000009,2.4162259999999947" fill="none" instance-id="4" semantic-id="30" stroke="rgb(178,178,0)" stroke-width="0.1"/>
  <path d="M 51.83468550000009,2.4162259999999947 L 53.39768550000008,4.007226000000003" fill="none" instance-id="4" semantic-id="30" stroke="rgb(178,178,0)" stroke-width="0.1"/>
  <path d="M 53.39768550000008,4.007226000000003 L 60.33767902392708,0.0" fill="none" instance-id="4" semantic-id="30" stroke="rgb(178,178,0)" stroke-width="0.1"/>
  <path d="M 51.961462900000015,0.0 L 53.01868550000006,10.572226" fill="none" instance-id="4" semantic-id="30" stroke="rgb(178,178,0)" stroke-width="0.1"/>
  <path d="M 53.01868550000006,10.572226 L 51.818685500000015,10.572226" fill="none" instance-id="4" semantic-id="30" stroke="rgb(178,178,0)" stroke-width="0.1"/>
  <path d="M 51.818685500000015,10.572226 L 52.87590810000006,0.0" fill="none" instance-id="4" semantic-id="30" stroke="rgb(178,178,0)" stroke-width="0.1"/>
  <path d="M 69.41868550000004,0.0 L 69.41868550000004,26.27222599999999" fill="none" instance-id="4" semantic-id="30" stroke="rgb(178,178,0)" stroke-width="0.1"/>
  <path d="M 69.41868550000004,26.27222599999999 L 52.41868550000004,26.27222599999999" fill="none" instance-id="4" semantic-id="30" stroke="rgb(178,178,0)" stroke-width="0.1"/>
  <path d="M 52.41868550000004,26.27222599999999 L 52.41868550000004,0.0" fill="none" instance-id="4" semantic-id="30" stroke="rgb(178,178,0)" stroke-width="0.1"/>
  <path d="M 62.01868550000006,17.77222599999999 L 62.01868550000006,0.0" fill="none" instance-id="4" semantic-id="30" stroke="rgb(178,178,0)" stroke-width="0.1"/>
  <path d="M 59.818685500000015,0.0 L 59.818685500000015,17.77222599999999" fill="none" instance-id="4" semantic-id="30" stroke="rgb(178,178,0)" stroke-width="0.1"/>
  <path d="M 59.818685500000015,17.77222599999999 L 62.01868550000006,17.77222599999999" fill="none" instance-id="4" semantic-id="30" stroke="rgb(178,178,0)" stroke-width="0.1"/>
  <path d="M 60.41868550000004,0.0 L 60.41868550000004,17.172226000000023" fill="none" instance-id="4" semantic-id="30" stroke="rgb(178,178,0)" stroke-width="0.1"/>
  <path d="M 60.41868550000004,17.172226000000023 L 60.41868550000004,0.0" fill="none" instance-id="4" semantic-id="30" stroke="rgb(178,178,0)" stroke-width="0.1"/>
  <path d="M 61.41868550000004,0.0 L 61.41868550000004,17.172226000000023" fill="none" instance-id="4" semantic-id="30" stroke="rgb(178,178,0)" stroke-width="0.1"/>
  <path d="M 61.41868550000004,17.172226000000023 L 61.41868550000004,0.0" fill="none" instance-id="4" semantic-id="30" stroke="rgb(178,178,0)" stroke-width="0.1"/>
 </g>
 <g id="layerWALL" inkscape:groupmode="layer" inkscape:label="WALL">
  <path d="M 100.0,56.87222600000001 L 64.42168550000008,56.87222600000001" fill="none" instance-id="-1" semantic-id="1" stroke="rgb(0,0,0)" stroke-width="0.1"/>
  <path d="M 100.0,54.87222600000001 L 63.42168550000008,54.87222600000001" fill="none" instance-id="-1" semantic-id="1" stroke="rgb(0,0,0)" stroke-width="0.1"/>
  <path d="M 64.42168550000008,56.87222600000001 L 64.42168550000008,89.87222600000001" fill="none" instance-id="-1" semantic-id="1" stroke="rgb(0,0,0)" stroke-width="0.1"/>
  <path d="M 62.42168550000008,56.87222600000001 L 62.42168550000008,91.87222600000001" fill="none" instance-id="-1" semantic-id="1" stroke="rgb(0,0,0)" stroke-width="0.1"/>
  <path d="M 79.41868550000004,0.0 L 79.41868550000004,35.37222600000001" fill="none" instance-id="-1" semantic-id="1" stroke="rgb(0,0,0)" stroke-width="0.1"/>
  <path d="M 77.41868550000004,0.0 L 77.41868550000004,35.37222600000001" fill="none" instance-id="-1" semantic-id="1" stroke="rgb(0,0,0)" stroke-width="0.1"/>
  <path d="M 62.42168550000008,56.87222600000001 L 44.42168550000008,56.87222600000001" fill="none" instance-id="-1" semantic-id="1" stroke="rgb(0,0,0)" stroke-width="0.1"/>
  <path d="M 63.42168550000008,54.87222600000001 L 44.42168550000008,54.87222600000001" fill="none" instance-id="-1" semantic-id="1" stroke="rgb(0,0,0)" stroke-width="0.1"/>
  <path d="M 100.0,91.87222600000001 L 62.42168550000008,91.87222600000001" fill="none" instance-id="-1" semantic-id="1" stroke="rgb(0,0,0)" stroke-width="0.1"/>
  <path d="M 100.0,89.87222600000001 L 64.42168550000008,89.87222600000001" fill="none" instance-id="-1" semantic-id="1" stroke="rgb(0,0,0)" stroke-width="0.1"/>
  <path d="M 64.42168550000008,89.87222600000001 L 64.42168550000008,100.00000000000006" fill="none" instance-id="-1" semantic-id="1" stroke="rgb(0,0,0)" stroke-width="0.1"/>
  <path d="M 62.42168550000008,91.87222600000001 L 62.42168550000008,100.00000000000006" fill="none" instance-id="-1" semantic-id="1" stroke="rgb(0,0,0)" stroke-width="0.1"/>
  <path d="M 79.41868550000004,35.37222600000001 L 100.0,35.37222600000001" fill="none" instance-id="-1" semantic-id="1" stroke="rgb(0,0,0)" stroke-width="0.1"/>
  <path d="M 78.41868550000004,37.37222600000001 L 100.0,37.37222600000001" fill="none" instance-id="-1" semantic-id="1" stroke="rgb(0,0,0)" stroke-width="0.1"/>
  <path d="M 42.41868550000004,35.37222600000001 L 77.41868550000004,35.37222600000001" fill="none" instance-id="-1" semantic-id="1" stroke="rgb(0,0,0)" stroke-width="0.1"/>
  <path d="M 44.41868550000004,37.37222600000001 L 78.41868550000004,37.37222600000001" fill="none" instance-id="-1" semantic-id="1" stroke="rgb(0,0,0)" stroke-width="0.1"/>
  <path d="M 44.41868550000004,37.37222600000001 L 44.41868550000004,48.87222600000001" fill="none" instance-id="-1" semantic-id="1" stroke="rgb(0,0,0)" stroke-width="0.1"/>
  <path d="M 42.41868550000004,35.37222600000001 L 42.41868550000004,48.87222600000001" fill="none" instance-id="-1" semantic-id="1" stroke="rgb(0,0,0)" stroke-width="0.1"/>
  <path d="M 62.42168550000008,91.87222600000001 L 37.41868550000004,91.87222600000001" fill="none" instance-id="-1" semantic-id="1" stroke="rgb(0,0,0)" stroke-width="0.1"/>
  <path d="M 64.42168550000008,89.87222600000001 L 39.41868550000004,89.87222600000001" fill="none" instance-id="-1" semantic-id="1" stroke="rgb(0,0,0)" stroke-width="0.1"/>
  <path d="M 39.41868550000004,56.87222600000001 L 39.41868550000004,89.87222600000001" fill="none" instance-id="-1" semantic-id="1" stroke="rgb(0,0,0)" stroke-width="0.1"/>
  <path d="M 37.41868550000004,56.87222600000001 L 37.41868550000004,91.87222600000001" fill="none" instance-id="-1" semantic-id="1" stroke="rgb(0,0,0)" stroke-width="0.1"/>
  <path d="M 39.41868550000004,91.87222600000001 L 39.41868550000004,100.00000000000006" fill="none" instance-id="-1" semantic-id="1" stroke="rgb(0,0,0)" stroke-width="0.1"/>
  <path d="M 37.41868550000004,91.87222600000001 L 37.41868550000004,100.00000000000006" fill="none" instance-id="-1" semantic-id="1" stroke="rgb(0,0,0)" stroke-width="0.1"/>
  <path d="M 44.41868550000004,0.0 L 44.41868550000004,33.87222600000001" fill="none" instance-id="-1" semantic-id="1" stroke="rgb(0,0,0)" stroke-width="0.1"/>
  <path d="M 42.41868550000004,0.0 L 42.41868550000004,32.87222600000001" fill="none" instance-id="-1" semantic-id="1" stroke="rgb(0,0,0)" stroke-width="0.1"/>
  <path d="M 0.0,32.87222600000001 L 15.418685500000038,32.87222600000001" fill="none" instance-id="-1" semantic-id="1" stroke="rgb(0,0,0)" stroke-width="0.1"/>
  <path d="M 0.0,34.87222600000001 L 15.418685500000038,34.87222600000001" fill="none" instance-id="-1" semantic-id="1" stroke="rgb(0,0,0)" stroke-width="0.1"/>
  <path d="M 15.418685500000038,32.87222600000001 L 15.418685500000038,34.87222600000001" fill="none" instance-id="-1" semantic-id="1" stroke="rgb(0,0,0)" stroke-width="0.1"/>
  <path d="M 23.418685500000038,32.87222600000001 L 42.41868550000004,32.87222600000001" fill="none" instance-id="-1" semantic-id="1" stroke="rgb(0,0,0)" stroke-width="0.1"/>
  <path d="M 23.418685500000038,34.87222600000001 L 42.41868550000004,34.87222600000001" fill="none" instance-id="-1" semantic-id="1" stroke="rgb(0,0,0)" stroke-width="0.1"/>
  <path d="M 23.418685500000038,32.87222600000001 L 23.418685500000038,34.87222600000001" fill="none" instance-id="-1" semantic-id="1" stroke="rgb(0,0,0)" stroke-width="0.1"/>
  <path d="M 0.0,52.87222600000001 L 32.42868550000003,52.87222600000001" fill="none" instance-id="-1" semantic-id="1" stroke="rgb(0,0,0)" stroke-width="0.1"/>
  <path d="M 0.0,54.87222600000001 L 32.42868550000003,54.87222600000001" fill="none" instance-id="-1" semantic-id="1" stroke="rgb(0,0,0)" stroke-width="0.1"/>
  <path d="M 44.41868550000004,33.87222600000001 L 44.41868550000004,35.37222600000001" fill="none" instance-id="-1" semantic-id="1" stroke="rgb(0,0,0)" stroke-width="0.1"/>
  <path d="M 42.41868550000004,34.87222600000001 L 42.41868550000004,35.37222600000001" fill="none" instance-id="-1" semantic-id="1" stroke="rgb(0,0,0)" stroke-width="0.1"/>
 </g>
 <g id="layer楼梯编号" inkscape:groupmode="layer" inkscape:label="楼梯编号">
  <text fill="rgb(178,0,178)" font-family="Noto Sans CJK SC" font-size="2" transform="rotate(-0.0,54.947685500000034,32.607226000000026)" x="54.947685500000034" y="32.607226000000026">
   B-10-A
  </text>
  <text fill="rgb(178,0,178)" font-family="Noto Sans CJK SC" font-size="2" transform="rotate(-0.0,67.04568549999999,69.978226)" x="67.04568549999999" y="69.978226">
   B-10-B
  </text>
 </g>
 <g id="layer轴网$0$DOTE" inkscape:groupmode="layer" inkscape:label="轴网$0$DOTE">
  <path d="M 0.0,48.87222600000001 L 100.0,48.87222600000001" fill="none" stroke="rgb(92,92,92)" stroke-width="0.1"/>
  <path d="M 40.41868550000004,100.00000000000006 L 40.41868550000004,0.0" fill="none" stroke="rgb(92,92,92)" stroke-width="0.1"/>
 </g>
</svg>