<?xml version="1.0" encoding="utf-8"?>
<svg style="background-color: #000;" version="1.1" viewBox="0 0 100.0 100.0" xmlns="http://www.w3.org/2000/svg" xmlns:inkscape="http://www.inkscape.org/namespaces/inkscape">
 <g id="layerA2-G-FLOORS" inkscape:groupmode="layer" inkscape:label="A2-G-FLOORS">
  <path d="M 69.22634311454459,99.73753523419222 L 69.15929211182271,99.23681317077444" fill="none" stroke="rgb(107,107,107)" stroke-width="0.1"/>
  <path d="M 69.15929211182271,99.23681317077444 L 69.09041562920771,98.73633894376374" fill="none" stroke="rgb(107,107,107)" stroke-width="0.1"/>
  <path d="M 69.09041562920771,98.73633894376374 L 69.01971458259351,98.23611920828037" fill="none" stroke="rgb(107,107,107)" stroke-width="0.1"/>
  <path d="M 69.01971458259351,98.23611920828037 L 68.94718991213631,97.73616061606052" fill="none" stroke="rgb(107,107,107)" stroke-width="0.1"/>
  <path d="M 68.94718991213631,97.73616061606052 L 68.8728425822423,97.23646981536771" fill="none" stroke="rgb(107,107,107)" stroke-width="0.1"/>
  <path d="M 68.8728425822423,97.23646981536771 L 68.79667358155456,96.73705345090454" fill="none" stroke="rgb(107,107,107)" stroke-width="0.1"/>
  <path d="M 68.79667358155456,96.73705345090454 L 68.71868392294027,96.23791816372419" fill="none" stroke="rgb(107,107,107)" stroke-width="0.1"/>
  <path d="M 68.71868392294027,96.23791816372419 L 68.63887464347687,95.73907059114224" fill="none" stroke="rgb(107,107,107)" stroke-width="0.1"/>
  <path d="M 68.63887464347687,95.73907059114224 L 68.55724680443842,95.2405173666483" fill="none" stroke="rgb(107,107,107)" stroke-width="0.1"/>
  <path d="M 68.55724680443842,95.2405173666483 L 68.47380149128168,94.74226511981789" fill="none" stroke="rgb(107,107,107)" stroke-width="0.1"/>
  <path d="M 68.47380149128168,94.74226511981789 L 68.38853981363144,94.2443204762242" fill="none" stroke="rgb(107,107,107)" stroke-width="0.1"/>
  <path d="M 68.38853981363144,94.2443204762242 L 68.30146290526568,93.74669005735007" fill="none" stroke="rgb(107,107,107)" stroke-width="0.1"/>
  <path d="M 68.30146290526568,93.74669005735007 L 68.21257192410087,93.24938048049985" fill="none" stroke="rgb(107,107,107)" stroke-width="0.1"/>
  <path d="M 68.21257192410087,93.24938048049985 L 68.12186805217624,92.7523983587115" fill="none" stroke="rgb(107,107,107)" stroke-width="0.1"/>
  <path d="M 68.12186805217624,92.7523983587115 L 68.02935249563808,92.25575030066855" fill="none" stroke="rgb(107,107,107)" stroke-width="0.1"/>
  <path d="M 68.02935249563808,92.25575030066855 L 67.93502648472395,91.75944291061235" fill="none" stroke="rgb(107,107,107)" stroke-width="0.1"/>
  <path d="M 67.93502648472395,91.75944291061235 L 67.83889127374613,91.26348278825408" fill="none" stroke="rgb(107,107,107)" stroke-width="0.1"/>
  <path d="M 67.83889127374613,91.26348278825408 L 67.74094814107485,90.76787652868715" fill="none" stroke="rgb(107,107,107)" stroke-width="0.1"/>
  <path d="M 67.74094814107485,90.76787652868715 L 67.64119838912148,90.27263072229943" fill="none" stroke="rgb(107,107,107)" stroke-width="0.1"/>
  <path d="M 67.64119838912148,90.27263072229943 L 67.53964334432118,89.77775195468558" fill="none" stroke="rgb(107,107,107)" stroke-width="0.1"/>
  <path d="M 67.53964334432118,89.77775195468558 L 67.43628435711526,89.28324680655956" fill="none" stroke="rgb(107,107,107)" stroke-width="0.1"/>
  <path d="M 67.43628435711526,89.28324680655956 L 67.33112280193308,88.78912185366704" fill="none" stroke="rgb(107,107,107)" stroke-width="0.1"/>
  <path d="M 67.33112280193308,88.78912185366704 L 67.22416007717385,88.295383666698" fill="none" stroke="rgb(107,107,107)" stroke-width="0.1"/>
  <path d="M 67.22416007717385,88.295383666698 L 67.1153976051882,87.8020388111994" fill="none" stroke="rgb(107,107,107)" stroke-width="0.1"/>
  <path d="M 67.1153976051882,87.8020388111994 L 67.004836832259,87.30909384748773" fill="none" stroke="rgb(107,107,107)" stroke-width="0.1"/>
  <path d="M 67.004836832259,87.30909384748773 L 66.89247922858243,86.81655533056195" fill="none" stroke="rgb(107,107,107)" stroke-width="0.1"/>
  <path d="M 66.89247922858243,86.81655533056195 L 66.77832628824802,86.32442981001623" fill="none" stroke="rgb(107,107,107)" stroke-width="0.1"/>
  <path d="M 66.77832628824802,86.32442981001623 L 66.66237952921927,85.83272382995284" fill="none" stroke="rgb(107,107,107)" stroke-width="0.1"/>
  <path d="M 66.66237952921927,85.83272382995284 L 66.54464049331301,85.34144392889516" fill="none" stroke="rgb(107,107,107)" stroke-width="0.1"/>
  <path d="M 66.54464049331301,85.34144392889516 L 66.4251107461792,84.85059663970073" fill="none" stroke="rgb(107,107,107)" stroke-width="0.1"/>
  <path d="M 66.4251107461792,84.85059663970073 L 66.30379187728005,84.36018848947441" fill="none" stroke="rgb(107,107,107)" stroke-width="0.1"/>
  <path d="M 66.30379187728005,84.36018848947441 L 66.18068549999998,83.87022600000002" fill="none" stroke="rgb(107,107,107)" stroke-width="0.1"/>
 </g>
 <g id="layerA2-G-WALLS-EXTERIOR" inkscape:groupmode="layer" inkscape:label="A2-G-WALLS-EXTERIOR">
  <path d="M 44.01968549999998,36.52422600000001 A 138.538,138.538 0.0 0,0 32.953685500000006,23.12582600000001" fill="none" stroke="rgb(178,0,178)" stroke-width="0.1"/>
  <path d="M 53.3216855,51.20262600000001 A 138.538,138.538 0.0 0,0 44.01968549999998,36.52422600000001" fill="none" stroke="rgb(178,0,178)" stroke-width="0.1"/>
  <path d="M 60.490685499999984,66.37242600000002 A 138.538,138.538 0.0 0,0 53.3216855,51.20262600000001" fill="none" stroke="rgb(178,0,178)" stroke-width="0.1"/>
  <path d="M 60.490685499999984,66.37242600000002 L 62.351685499999974,65.63652600000002" fill="none" stroke="rgb(178,0,178)" stroke-width="0.1"/>
  <path d="M 62.792685500000005,66.75242600000001 L 60.93168549999996,67.48832600000001" fill="none" instance-id="-1" semantic-id="1" stroke="rgb(178,0,178)" stroke-width="0.1"/>
  <path d="M 66.07568549999996,83.45922600000002 A 138.538,138.538 0.0 0,0 60.93168549999996,67.48832600000001" fill="none" instance-id="-1" semantic-id="1" stroke="rgb(178,0,178)" stroke-width="0.1"/>
  <path d="M 66.18068549999998,83.87022600000002 A 138.538,138.538 0.0 0,0 66.07568549999996,83.45922600000002" fill="none" instance-id="-1" semantic-id="1" stroke="rgb(178,0,178)" stroke-width="0.1"/>
  <path d="M 66.18068549999998,83.87022600000002 L 68.11868549999997,83.37422600000001" fill="none" instance-id="-1" semantic-id="1" stroke="rgb(178,0,178)" stroke-width="0.1"/>
  <path d="M 68.11868549999997,83.37422600000001 A 140.538,140.538 0.0 0,0 62.79168549999997,66.75292600000002" fill="none" instance-id="-1" semantic-id="1" stroke="rgb(178,0,178)" stroke-width="0.1"/>
 </g>
 <g id="layerA2-G-WALLS-GLAZING" inkscape:groupmode="layer" inkscape:label="A2-G-WALLS-GLAZING">
  <path d="M 66.22343863936561,99.91303772483843 L 66.15621909032097,99.41720790400888" fill="none" stroke="rgb(134,134,134)" stroke-width="0.1"/>
  <path d="M 66.15621909032097,99.41720790400888 L 66.08716954782716,98.9216296158656" fill="none" stroke="rgb(134,134,134)" stroke-width="0.1"/>
  <path d="M 66.08716954782716,98.9216296158656 L 66.01629095293583,98.42630961446866" fill="none" stroke="rgb(134,134,134)" stroke-width="0.1"/>
  <path d="M 66.01629095293583,98.42630961446866 L 65.9435842716261,97.93125465035806" fill="none" stroke="rgb(134,134,134)" stroke-width="0.1"/>
  <path d="M 65.9435842716261,97.93125465035806 L 65.86905049479151,97.43647147046165" fill="none" stroke="rgb(134,134,134)" stroke-width="0.1"/>
  <path d="M 65.86905049479151,97.43647147046165 L 65.79269063822625,96.9419668180033" fill="none" stroke="rgb(134,134,134)" stroke-width="0.1"/>
  <path d="M 65.79269063822625,96.9419668180033 L 65.71450574261172,96.44774743241085" fill="none" stroke="rgb(134,134,134)" stroke-width="0.1"/>
  <path d="M 65.71450574261172,96.44774743241085 L 65.63449687350203,95.9538200492244" fill="none" stroke="rgb(134,134,134)" stroke-width="0.1"/>
  <path d="M 65.63449687350203,95.9538200492244 L 65.55266512130953,95.46019140000443" fill="none" stroke="rgb(134,134,134)" stroke-width="0.1"/>
  <path d="M 65.55266512130953,95.46019140000443 L 65.4690116012901,94.96686821224009" fill="none" stroke="rgb(134,134,134)" stroke-width="0.1"/>
  <path d="M 65.4690116012901,94.96686821224009 L 65.38353745352771,94.47385720925747" fill="none" stroke="rgb(134,134,134)" stroke-width="0.1"/>
  <path d="M 65.38353745352771,94.47385720925747 L 65.29624384291907,93.98116511012806" fill="none" stroke="rgb(134,134,134)" stroke-width="0.1"/>
  <path d="M 65.29624384291907,93.98116511012806 L 65.20713195915783,93.48879862957709" fill="none" stroke="rgb(134,134,134)" stroke-width="0.1"/>
  <path d="M 65.20713195915783,93.48879862957709 L 65.11620301671809,92.99676447789204" fill="none" stroke="rgb(134,134,134)" stroke-width="0.1"/>
  <path d="M 65.11620301671809,92.99676447789204 L 65.02345825483809,92.50506936083124" fill="none" stroke="rgb(134,134,134)" stroke-width="0.1"/>
  <path d="M 65.02345825483809,92.50506936083124 L 64.9288989375031,92.01371997953238" fill="none" stroke="rgb(134,134,134)" stroke-width="0.1"/>
  <path d="M 64.9288989375031,92.01371997953238 L 64.83252635342836,91.5227230304213" fill="none" stroke="rgb(134,134,134)" stroke-width="0.1"/>
  <path d="M 64.83252635342836,91.5227230304213 L 64.73434181604165,91.03208520512062" fill="none" stroke="rgb(134,134,134)" stroke-width="0.1"/>
  <path d="M 64.73434181604165,91.03208520512062 L 64.6343466634649,90.54181319035862" fill="none" stroke="rgb(134,134,134)" stroke-width="0.1"/>
  <path d="M 64.6343466634649,90.54181319035862 L 64.53254225849668,90.05191366787807" fill="none" stroke="rgb(134,134,134)" stroke-width="0.1"/>
  <path d="M 64.53254225849668,90.05191366787807 L 64.42892998859276,89.56239331434514" fill="none" stroke="rgb(134,134,134)" stroke-width="0.1"/>
  <path d="M 64.42892998859276,89.56239331434514 L 64.32351126584803,89.07325880125853" fill="none" stroke="rgb(134,134,134)" stroke-width="0.1"/>
  <path d="M 64.32351126584803,89.07325880125853 L 64.2162875269766,88.58451679485835" fill="none" stroke="rgb(134,134,134)" stroke-width="0.1"/>
  <path d="M 64.2162875269766,88.58451679485835 L 64.10726023329278,88.09617395603544" fill="none" stroke="rgb(134,134,134)" stroke-width="0.1"/>
  <path d="M 64.10726023329278,88.09617395603544 L 63.99643087069069,87.60823694024054" fill="none" stroke="rgb(134,134,134)" stroke-width="0.1"/>
  <path d="M 63.99643087069069,87.60823694024054 L 63.88380094962423,87.12071239739352" fill="none" stroke="rgb(134,134,134)" stroke-width="0.1"/>
  <path d="M 63.88380094962423,87.12071239739352 L 63.76937200508661,86.63360697179284" fill="none" stroke="rgb(134,134,134)" stroke-width="0.1"/>
  <path d="M 63.76937200508661,86.63360697179284 L 63.65314559658901,86.14692730202495" fill="none" stroke="rgb(134,134,134)" stroke-width="0.1"/>
  <path d="M 63.65314559658901,86.14692730202495 L 63.53512330813993,85.66068002087383" fill="none" stroke="rgb(134,134,134)" stroke-width="0.1"/>
  <path d="M 63.53512330813993,85.66068002087383 L 63.41530674822303,85.17487175523055" fill="none" stroke="rgb(134,134,134)" stroke-width="0.1"/>
  <path d="M 63.41530674822303,85.17487175523055 L 63.29369754977557,84.68950912600309" fill="none" stroke="rgb(134,134,134)" stroke-width="0.1"/>
  <path d="M 63.29369754977557,84.68950912600309 L 63.17029737016611,84.20459874802592" fill="none" stroke="rgb(134,134,134)" stroke-width="0.1"/>
  <path d="M 63.17029737016611,84.20459874802592 L 63.045107891171654,83.72014722996994" fill="none" stroke="rgb(134,134,134)" stroke-width="0.1"/>
  <path d="M 63.045107891171654,83.72014722996994 L 62.91813081895515,83.23616117425249" fill="none" stroke="rgb(134,134,134)" stroke-width="0.1"/>
  <path d="M 62.91813081895515,83.23616117425249 L 62.78936788404184,82.75264717694719" fill="none" stroke="rgb(134,134,134)" stroke-width="0.1"/>
  <path d="M 62.78936788404184,82.75264717694719 L 62.65882084129595,82.26961182769423" fill="none" stroke="rgb(134,134,134)" stroke-width="0.1"/>
  <path d="M 62.65882084129595,82.26961182769423 L 62.52649146989671,81.78706170961041" fill="none" stroke="rgb(134,134,134)" stroke-width="0.1"/>
  <path d="M 62.52649146989671,81.78706170961041 L 62.39238157331391,81.30500339919955" fill="none" stroke="rgb(134,134,134)" stroke-width="0.1"/>
  <path d="M 62.39238157331391,81.30500339919955 L 62.25649297928368,80.82344346626272" fill="none" stroke="rgb(134,134,134)" stroke-width="0.1"/>
  <path d="M 62.25649297928368,80.82344346626272 L 62.11882753978324,80.34238847380888" fill="none" stroke="rgb(134,134,134)" stroke-width="0.1"/>
  <path d="M 62.11882753978324,80.34238847380888 L 61.97938713100592,79.86184497796523" fill="none" stroke="rgb(134,134,134)" stroke-width="0.1"/>
  <path d="M 61.97938713100592,79.86184497796523 L 61.83817365333533,79.38181952788804" fill="none" stroke="rgb(134,134,134)" stroke-width="0.1"/>
  <path d="M 61.83817365333533,79.38181952788804 L 61.695189031319785,78.90231866567328" fill="none" stroke="rgb(134,134,134)" stroke-width="0.1"/>
  <path d="M 61.695189031319785,78.90231866567328 L 61.5504352136457,78.42334892626752" fill="none" stroke="rgb(134,134,134)" stroke-width="0.1"/>
  <path d="M 61.5504352136457,78.42334892626752 L 61.403914173111446,77.94491683737886" fill="none" stroke="rgb(134,134,134)" stroke-width="0.1"/>
  <path d="M 61.403914173111446,77.94491683737886 L 61.25562790660001,77.4670289193879" fill="none" stroke="rgb(134,134,134)" stroke-width="0.1"/>
  <path d="M 61.25562790660001,77.4670289193879 L 61.10557843505222,76.98969168525898" fill="none" stroke="rgb(134,134,134)" stroke-width="0.1"/>
  <path d="M 61.10557843505222,76.98969168525898 L 60.95376780343889,76.51291164045132" fill="none" stroke="rgb(134,134,134)" stroke-width="0.1"/>
  <path d="M 60.95376780343889,76.51291164045132 L 60.80019808073297,76.03669528283046" fill="none" stroke="rgb(134,134,134)" stroke-width="0.1"/>
  <path d="M 60.80019808073297,76.03669528283046 L 60.64487135988173,75.56104910257962" fill="none" stroke="rgb(134,134,134)" stroke-width="0.1"/>
  <path d="M 60.64487135988173,75.56104910257962 L 60.48778975777765,75.08597958211126" fill="none" stroke="rgb(134,134,134)" stroke-width="0.1"/>
  <path d="M 60.48778975777765,75.08597958211126 L 60.328955415229984,74.61149319597877" fill="none" stroke="rgb(134,134,134)" stroke-width="0.1"/>
  <path d="M 60.328955415229984,74.61149319597877 L 60.16837049693544,74.13759641078818" fill="none" stroke="rgb(134,134,134)" stroke-width="0.1"/>
  <path d="M 60.16837049693544,74.13759641078818 L 60.006037191448684,73.66429568511012" fill="none" stroke="rgb(134,134,134)" stroke-width="0.1"/>
  <path d="M 60.006037191448684,73.66429568511012 L 59.841957711152645,73.19159746939168" fill="none" stroke="rgb(134,134,134)" stroke-width="0.1"/>
  <path d="M 59.841957711152645,73.19159746939168 L 59.67613429222803,72.71950820586859" fill="none" stroke="rgb(134,134,134)" stroke-width="0.1"/>
  <path d="M 59.67613429222803,72.71950820586859 L 59.50856919462325,72.24803432847733" fill="none" stroke="rgb(134,134,134)" stroke-width="0.1"/>
  <path d="M 59.50856919462325,72.24803432847733 L 59.3392647020234,71.77718226276761" fill="none" stroke="rgb(134,134,134)" stroke-width="0.1"/>
  <path d="M 59.3392647020234,71.77718226276761 L 59.168223121819096,71.30695842581457" fill="none" stroke="rgb(134,134,134)" stroke-width="0.1"/>
  <path d="M 59.168223121819096,71.30695842581457 L 58.9954467850751,70.83736922613151" fill="none" stroke="rgb(134,134,134)" stroke-width="0.1"/>
  <path d="M 58.9954467850751,70.83736922613151 L 58.820938046498725,70.3684210635825" fill="none" stroke="rgb(134,134,134)" stroke-width="0.1"/>
  <path d="M 58.820938046498725,70.3684210635825 L 58.64469928440741,69.90012032929508" fill="none" stroke="rgb(134,134,134)" stroke-width="0.1"/>
  <path d="M 58.64469928440741,69.90012032929508 L 58.4667329006964,69.43247340557326" fill="none" stroke="rgb(134,134,134)" stroke-width="0.1"/>
  <path d="M 58.4667329006964,69.43247340557326 L 58.28704132080634,68.96548666581053" fill="none" stroke="rgb(134,134,134)" stroke-width="0.1"/>
  <path d="M 58.28704132080634,68.96548666581053 L 58.105626993689725,68.49916647440288" fill="none" stroke="rgb(134,134,134)" stroke-width="0.1"/>
  <path d="M 58.105626993689725,68.49916647440288 L 57.92249239177784,68.03351918666226" fill="none" stroke="rgb(134,134,134)" stroke-width="0.1"/>
  <path d="M 57.92249239177784,68.03351918666226 L 57.73764001094702,67.56855114872977" fill="none" stroke="rgb(134,134,134)" stroke-width="0.1"/>
  <path d="M 57.73764001094702,67.56855114872977 L 57.55107237048452,67.10426869748926" fill="none" stroke="rgb(134,134,134)" stroke-width="0.1"/>
  <path d="M 57.55107237048452,67.10426869748926 L 57.36279201305433,66.64067816048103" fill="none" stroke="rgb(134,134,134)" stroke-width="0.1"/>
  <path d="M 57.36279201305433,66.64067816048103 L 57.17280150466246,66.17778585581544" fill="none" stroke="rgb(134,134,134)" stroke-width="0.1"/>
  <path d="M 57.17280150466246,66.17778585581544 L 56.98110343462179,65.71559809208696" fill="none" stroke="rgb(134,134,134)" stroke-width="0.1"/>
  <path d="M 56.98110343462179,65.71559809208696 L 56.78770041551718,65.25412116828812" fill="none" stroke="rgb(134,134,134)" stroke-width="0.1"/>
  <path d="M 56.78770041551718,65.25412116828812 L 56.592595083169556,64.7933613737236" fill="none" stroke="rgb(134,134,134)" stroke-width="0.1"/>
  <path d="M 56.592595083169556,64.7933613737236 L 56.39579009659991,64.33332498792467" fill="none" stroke="rgb(134,134,134)" stroke-width="0.1"/>
  <path d="M 56.39579009659991,64.33332498792467 L 56.19728813799344,63.874018280563405" fill="none" stroke="rgb(134,134,134)" stroke-width="0.1"/>
  <path d="M 56.19728813799344,63.874018280563405 L 55.99709191266271,63.41544751136746" fill="none" stroke="rgb(134,134,134)" stroke-width="0.1"/>
  <path d="M 55.99709191266271,63.41544751136746 L 55.79520414901077,62.95761893003463" fill="none" stroke="rgb(134,134,134)" stroke-width="0.1"/>
  <path d="M 55.79520414901077,62.95761893003463 L 55.591627598494085,62.50053877614765" fill="none" stroke="rgb(134,134,134)" stroke-width="0.1"/>
  <path d="M 55.591627598494085,62.50053877614765 L 55.38636503558496,62.044213279089234" fill="none" stroke="rgb(134,134,134)" stroke-width="0.1"/>
  <path d="M 55.38636503558496,62.044213279089234 L 55.179419257733855,61.58864865795714" fill="none" stroke="rgb(134,134,134)" stroke-width="0.1"/>
  <path d="M 55.179419257733855,61.58864865795714 L 54.97079308533108,61.13385112147944" fill="none" stroke="rgb(134,134,134)" stroke-width="0.1"/>
  <path d="M 54.97079308533108,61.13385112147944 L 54.760489361668476,60.67982686792982" fill="none" stroke="rgb(134,134,134)" stroke-width="0.1"/>
  <path d="M 54.760489361668476,60.67982686792982 L 54.54851095290064,60.226582085043276" fill="none" stroke="rgb(134,134,134)" stroke-width="0.1"/>
  <path d="M 54.54851095290064,60.226582085043276 L 54.33486074800584,59.77412294993155" fill="none" stroke="rgb(134,134,134)" stroke-width="0.1"/>
  <path d="M 54.33486074800584,59.77412294993155 L 54.11954165874664,59.322455628999194" fill="none" stroke="rgb(134,134,134)" stroke-width="0.1"/>
  <path d="M 54.11954165874664,59.322455628999194 L 53.90255661963033,58.87158627785931" fill="none" stroke="rgb(134,134,134)" stroke-width="0.1"/>
  <path d="M 53.90255661963033,58.87158627785931 L 53.6839085878687,58.42152104124976" fill="none" stroke="rgb(134,134,134)" stroke-width="0.1"/>
  <path d="M 53.6839085878687,58.42152104124976 L 53.463600543337975,57.97226605294949" fill="none" stroke="rgb(134,134,134)" stroke-width="0.1"/>
  <path d="M 53.463600543337975,57.97226605294949 L 53.241635488538066,57.5238274356948" fill="none" stroke="rgb(134,134,134)" stroke-width="0.1"/>
  <path d="M 53.241635488538066,57.5238274356948 L 53.01801644855169,57.07621130109598" fill="none" stroke="rgb(134,134,134)" stroke-width="0.1"/>
  <path d="M 53.01801644855169,57.07621130109598 L 52.79274647100311,56.62942374955398" fill="none" stroke="rgb(134,134,134)" stroke-width="0.1"/>
  <path d="M 52.79274647100311,56.62942374955398 L 52.56582862601675,56.183470870177274" fill="none" stroke="rgb(134,134,134)" stroke-width="0.1"/>
  <path d="M 52.56582862601675,56.183470870177274 L 52.337266006175014,55.73835874069897" fill="none" stroke="rgb(134,134,134)" stroke-width="0.1"/>
  <path d="M 52.337266006175014,55.73835874069897 L 52.107061726476616,55.29409342739379" fill="none" stroke="rgb(134,134,134)" stroke-width="0.1"/>
  <path d="M 52.107061726476616,55.29409342739379 L 51.87521892429362,54.850680984995506" fill="none" stroke="rgb(134,134,134)" stroke-width="0.1"/>
  <path d="M 51.87521892429362,54.850680984995506 L 51.64174075932914,54.40812745661455" fill="none" stroke="rgb(134,134,134)" stroke-width="0.1"/>
  <path d="M 51.64174075932914,54.40812745661455 L 51.406630413573964,53.96643887365536" fill="none" stroke="rgb(134,134,134)" stroke-width="0.1"/>
  <path d="M 51.406630413573964,53.96643887365536 L 51.16989109126325,53.52562125573442" fill="none" stroke="rgb(134,134,134)" stroke-width="0.1"/>
  <path d="M 51.16989109126325,53.52562125573442 L 50.93152601883298,53.08568061059812" fill="none" stroke="rgb(134,134,134)" stroke-width="0.1"/>
  <path d="M 50.93152601883298,53.08568061059812 L 50.6915384448759,52.64662293404092" fill="none" stroke="rgb(134,134,134)" stroke-width="0.1"/>
  <path d="M 50.6915384448759,52.64662293404092 L 50.44993164009719,52.2084542098236" fill="none" stroke="rgb(134,134,134)" stroke-width="0.1"/>
  <path d="M 50.44993164009719,52.2084542098236 L 50.20670889726995,51.77118040959169" fill="none" stroke="rgb(134,134,134)" stroke-width="0.1"/>
  <path d="M 50.20670889726995,51.77118040959169 L 49.96187353119046,51.33480749279421" fill="none" stroke="rgb(134,134,134)" stroke-width="0.1"/>
  <path d="M 49.96187353119046,51.33480749279421 L 49.715428878632736,50.89934140660229" fill="none" stroke="rgb(134,134,134)" stroke-width="0.1"/>
  <path d="M 49.715428878632736,50.89934140660229 L 49.46737829830312,50.464788085828175" fill="none" stroke="rgb(134,134,134)" stroke-width="0.1"/>
  <path d="M 49.46737829830312,50.464788085828175 L 49.217725170794836,50.03115345284445" fill="none" stroke="rgb(134,134,134)" stroke-width="0.1"/>
  <path d="M 49.217725170794836,50.03115345284445 L 48.96647289854138,49.598443417503105" fill="none" stroke="rgb(134,134,134)" stroke-width="0.1"/>
  <path d="M 48.96647289854138,49.598443417503105 L 48.71362490577059,49.166663877055186" fill="none" stroke="rgb(134,134,134)" stroke-width="0.1"/>
  <path d="M 48.71362490577059,49.166663877055186 L 48.45918463845766,48.73582071607038" fill="none" stroke="rgb(134,134,134)" stroke-width="0.1"/>
  <path d="M 48.45918463845766,48.73582071607038 L 48.203155564278575,48.305919806356755" fill="none" stroke="rgb(134,134,134)" stroke-width="0.1"/>
  <path d="M 48.203155564278575,48.305919806356755 L 47.94554117256229,47.876967006880776" fill="none" stroke="rgb(134,134,134)" stroke-width="0.1"/>
  <path d="M 47.94554117256229,47.876967006880776 L 47.68634497424375,47.44896816368744" fill="none" stroke="rgb(134,134,134)" stroke-width="0.1"/>
  <path d="M 47.68634497424375,47.44896816368744 L 47.42557050181563,47.02192910982062" fill="none" stroke="rgb(134,134,134)" stroke-width="0.1"/>
  <path d="M 47.42557050181563,47.02192910982062 L 47.1632213092804,46.59585566524356" fill="none" stroke="rgb(134,134,134)" stroke-width="0.1"/>
  <path d="M 47.1632213092804,46.59585566524356 L 46.8993009721018,46.17075363675963" fill="none" stroke="rgb(134,134,134)" stroke-width="0.1"/>
  <path d="M 46.8993009721018,46.17075363675963 L 46.63381308715623,45.74662881793299" fill="none" stroke="rgb(134,134,134)" stroke-width="0.1"/>
  <path d="M 46.63381308715623,45.74662881793299 L 46.36676127268345,45.32348698900982" fill="none" stroke="rgb(134,134,134)" stroke-width="0.1"/>
  <path d="M 46.36676127268345,45.32348698900982 L 46.09814916823768,44.901333916839505" fill="none" stroke="rgb(134,134,134)" stroke-width="0.1"/>
  <path d="M 46.09814916823768,44.901333916839505 L 45.827980434637595,44.480175354796" fill="none" stroke="rgb(134,134,134)" stroke-width="0.1"/>
  <path d="M 45.827980434637595,44.480175354796 L 45.55625875391672,44.060017042699414" fill="none" stroke="rgb(134,134,134)" stroke-width="0.1"/>
  <path d="M 45.55625875391672,44.060017042699414 L 45.28298782927317,43.64086470673779" fill="none" stroke="rgb(134,134,134)" stroke-width="0.1"/>
  <path d="M 45.28298782927317,43.64086470673779 L 45.00817138501901,43.222724059389165" fill="none" stroke="rgb(134,134,134)" stroke-width="0.1"/>
  <path d="M 45.00817138501901,43.222724059389165 L 44.73181316652983,42.80560079934352" fill="none" stroke="rgb(134,134,134)" stroke-width="0.1"/>
  <path d="M 44.73181316652983,42.80560079934352 L 44.453916940193324,42.38950061142532" fill="none" stroke="rgb(134,134,134)" stroke-width="0.1"/>
  <path d="M 44.453916940193324,42.38950061142532 L 44.1744864933583,41.97442916651589" fill="none" stroke="rgb(134,134,134)" stroke-width="0.1"/>
  <path d="M 44.1744864933583,41.97442916651589 L 43.89352563428281,41.56039212147623" fill="none" stroke="rgb(134,134,134)" stroke-width="0.1"/>
  <path d="M 43.89352563428281,41.56039212147623 L 43.61103819208239,41.14739511906977" fill="none" stroke="rgb(134,134,134)" stroke-width="0.1"/>
  <path d="M 43.61103819208239,41.14739511906977 L 43.32702801667784,40.735443787885714" fill="none" stroke="rgb(134,134,134)" stroke-width="0.1"/>
  <path d="M 43.32702801667784,40.735443787885714 L 43.04149897874282,40.324543742262094" fill="none" stroke="rgb(134,134,134)" stroke-width="0.1"/>
  <path d="M 43.04149897874282,40.324543742262094 L 42.754454969650794,39.91470058220935" fill="none" stroke="rgb(134,134,134)" stroke-width="0.1"/>
  <path d="M 42.754454969650794,39.91470058220935 L 42.46589990142252,39.505919893334024" fill="none" stroke="rgb(134,134,134)" stroke-width="0.1"/>
  <path d="M 42.46589990142252,39.505919893334024 L 42.17583770667221,39.0982072467626" fill="none" stroke="rgb(134,134,134)" stroke-width="0.1"/>
  <path d="M 42.17583770667221,39.0982072467626 L 41.8842723385543,38.69156819906563" fill="none" stroke="rgb(134,134,134)" stroke-width="0.1"/>
  <path d="M 41.8842723385543,38.69156819906563 L 41.591207770709445,38.286008292181904" fill="none" stroke="rgb(134,134,134)" stroke-width="0.1"/>
  <path d="M 41.591207770709445,38.286008292181904 L 41.29664799721024,37.88153305334306" fill="none" stroke="rgb(134,134,134)" stroke-width="0.1"/>
  <path d="M 41.29664799721024,37.88153305334306 L 41.00059703250707,37.47814799499815" fill="none" stroke="rgb(134,134,134)" stroke-width="0.1"/>
  <path d="M 41.00059703250707,37.47814799499815 L 40.703058911373034,37.075858614738536" fill="none" stroke="rgb(134,134,134)" stroke-width="0.1"/>
  <path d="M 40.703058911373034,37.075858614738536 L 40.40403768884937,36.67467039522296" fill="none" stroke="rgb(134,134,134)" stroke-width="0.1"/>
  <path d="M 40.40403768884937,36.67467039522296 L 40.10353744018988,36.27458880410285" fill="none" stroke="rgb(134,134,134)" stroke-width="0.1"/>
  <path d="M 40.10353744018988,36.27458880410285 L 39.80156226080538,35.87561929394782" fill="none" stroke="rgb(134,134,134)" stroke-width="0.1"/>
  <path d="M 39.80156226080538,35.87561929394782 L 39.49811626620823,35.4777673021713" fill="none" stroke="rgb(134,134,134)" stroke-width="0.1"/>
  <path d="M 39.49811626620823,35.4777673021713 L 39.19320359195575,35.081038250956425" fill="none" stroke="rgb(134,134,134)" stroke-width="0.1"/>
  <path d="M 39.19320359195575,35.081038250956425 L 38.88682839359427,34.68543754718225" fill="none" stroke="rgb(134,134,134)" stroke-width="0.1"/>
  <path d="M 38.88682839359427,34.68543754718225 L 38.57899484660243,34.290970582349956" fill="none" stroke="rgb(134,134,134)" stroke-width="0.1"/>
  <path d="M 38.57899484660243,34.290970582349956 L 38.26970714633393,33.897642732509354" fill="none" stroke="rgb(134,134,134)" stroke-width="0.1"/>
  <path d="M 38.26970714633393,33.897642732509354 L 37.95896950796072,33.505459358185675" fill="none" stroke="rgb(134,134,134)" stroke-width="0.1"/>
  <path d="M 37.95896950796072,33.505459358185675 L 37.64678616641555,33.11442580430659" fill="none" stroke="rgb(134,134,134)" stroke-width="0.1"/>
  <path d="M 37.64678616641555,33.11442580430659 L 37.333161376333976,32.72454740012917" fill="none" stroke="rgb(134,134,134)" stroke-width="0.1"/>
  <path d="M 37.333161376333976,32.72454740012917 L 37.01809941199673,32.3358294591674" fill="none" stroke="rgb(134,134,134)" stroke-width="0.1"/>
  <path d="M 37.01809941199673,32.3358294591674 L 36.70160456727103,31.948277279119736" fill="none" stroke="rgb(134,134,134)" stroke-width="0.1"/>
  <path d="M 36.70160456727103,31.948277279119736 L 36.38368115555255,31.56189614179685" fill="none" stroke="rgb(134,134,134)" stroke-width="0.1"/>
  <path d="M 36.38368115555255,31.56189614179685 L 36.06433350970627,31.176691313049773" fill="none" stroke="rgb(134,134,134)" stroke-width="0.1"/>
  <path d="M 36.06433350970627,31.176691313049773 L 35.743565982007624,30.792668042697954" fill="none" stroke="rgb(134,134,134)" stroke-width="0.1"/>
  <path d="M 35.743565982007624,30.792668042697954 L 35.42138294408295,30.40983156445786" fill="none" stroke="rgb(134,134,134)" stroke-width="0.1"/>
  <path d="M 35.42138294408295,30.40983156445786 L 35.097788786850344,30.028187095871587" fill="none" stroke="rgb(134,134,134)" stroke-width="0.1"/>
  <path d="M 35.097788786850344,30.028187095871587 L 34.772787920459166,29.647739838235708" fill="none" stroke="rgb(134,134,134)" stroke-width="0.1"/>
  <path d="M 34.772787920459166,29.647739838235708 L 34.44638477423075,29.268494976530505" fill="none" stroke="rgb(134,134,134)" stroke-width="0.1"/>
  <path d="M 34.44638477423075,29.268494976530505 L 34.118583796597306,28.890457679349197" fill="none" stroke="rgb(134,134,134)" stroke-width="0.1"/>
  <path d="M 34.118583796597306,28.890457679349197 L 33.789389455041544,28.513633098827484" fill="none" stroke="rgb(134,134,134)" stroke-width="0.1"/>
  <path d="M 33.789389455041544,28.513633098827484 L 33.458806236036196,28.1380263705735" fill="none" stroke="rgb(134,134,134)" stroke-width="0.1"/>
  <path d="M 33.458806236036196,28.1380263705735 L 33.126838644982115,27.76364261359764" fill="none" stroke="rgb(134,134,134)" stroke-width="0.1"/>
  <path d="M 33.126838644982115,27.76364261359764 L 32.79349120614751,27.390486930242787" fill="none" stroke="rgb(134,134,134)" stroke-width="0.1"/>
  <path d="M 32.79349120614751,27.390486930242787 L 32.45876846260586,27.018564406115004" fill="none" stroke="rgb(134,134,134)" stroke-width="0.1"/>
  <path d="M 32.45876846260586,27.018564406115004 L 32.12267497617438,26.6478801100139" fill="none" stroke="rgb(134,134,134)" stroke-width="0.1"/>
  <path d="M 32.12267497617438,26.6478801100139 L 31.785215327351523,26.278439093863852" fill="none" stroke="rgb(134,134,134)" stroke-width="0.1"/>
  <path d="M 31.785215327351523,26.278439093863852 L 31.44639411525469,25.910246392644922" fill="none" stroke="rgb(134,134,134)" stroke-width="0.1"/>
  <path d="M 31.44639411525469,25.910246392644922 L 31.10621595755765,25.543307024324406" fill="none" stroke="rgb(134,134,134)" stroke-width="0.1"/>
  <path d="M 31.10621595755765,25.543307024324406 L 30.764685499999985,25.17762600000001" fill="none" stroke="rgb(134,134,134)" stroke-width="0.1"/>
 </g>
 <g id="layerA3-G-EXPANSION JOINT" inkscape:groupmode="layer" inkscape:label="A3-G-EXPANSION JOINT">
  <path d="M 57.93268549999999,67.383626 L 58.373685499999965,68.499626" fill="none" stroke="rgb(0,178,178)" stroke-width="0.1"/>
  <path d="M 58.141685499999994,68.59152600000002 L 57.70068549999996,67.475626" fill="none" stroke="rgb(0,178,178)" stroke-width="0.1"/>
  <path d="M 58.04968549999995,68.35612600000002 L 51.26968549999998,71.03112600000001" fill="none" stroke="rgb(92,92,92)" stroke-width="0.1"/>
  <path d="M 57.93368549999997,68.060826 L 51.153685499999995,70.73562600000001" fill="none" stroke="rgb(92,92,92)" stroke-width="0.1"/>
  <path d="M 57.816685500000006,67.76552600000001 L 51.036685499999976,70.44022600000001" fill="none" stroke="rgb(92,92,92)" stroke-width="0.1"/>
  <path d="M 57.5116855,67.55492600000001 L 57.951685499999996,68.67052600000001" fill="none" stroke="rgb(92,92,92)" stroke-width="0.1"/>
  <path d="M 57.21668549999998,67.67152600000001 L 57.65668549999998,68.78712600000001" fill="none" stroke="rgb(92,92,92)" stroke-width="0.1"/>
  <path d="M 56.92068549999999,67.788126 L 57.36068549999999,68.903726" fill="none" stroke="rgb(92,92,92)" stroke-width="0.1"/>
  <path d="M 56.625685499999975,67.90482600000001 L 57.06568549999997,69.02032600000001" fill="none" stroke="rgb(92,92,92)" stroke-width="0.1"/>
  <path d="M 56.33068549999996,68.021426 L 56.770685499999956,69.13692600000002" fill="none" stroke="rgb(92,92,92)" stroke-width="0.1"/>
  <path d="M 56.034685499999966,68.13802600000001 L 56.474685499999964,69.25352600000001" fill="none" stroke="rgb(92,92,92)" stroke-width="0.1"/>
  <path d="M 55.73968550000001,68.25462600000002 L 56.179685500000005,69.37022600000002" fill="none" stroke="rgb(92,92,92)" stroke-width="0.1"/>
  <path d="M 55.44468549999999,68.37122600000001 L 55.88468549999999,69.48682600000001" fill="none" stroke="rgb(92,92,92)" stroke-width="0.1"/>
  <path d="M 55.1486855,68.48782600000001 L 55.5886855,69.60342600000001" fill="none" stroke="rgb(92,92,92)" stroke-width="0.1"/>
  <path d="M 54.85368549999998,68.60442600000002 L 55.29368549999998,69.72002600000002" fill="none" stroke="rgb(92,92,92)" stroke-width="0.1"/>
  <path d="M 54.55868549999997,68.72102600000001 L 54.998685499999965,69.83662600000001" fill="none" stroke="rgb(92,92,92)" stroke-width="0.1"/>
  <path d="M 54.262685499999975,68.83762600000001 L 54.703685500000006,69.95322600000002" fill="none" stroke="rgb(92,92,92)" stroke-width="0.1"/>
  <path d="M 53.96768549999996,68.95432600000001 L 54.40768549999996,70.069826" fill="none" stroke="rgb(92,92,92)" stroke-width="0.1"/>
  <path d="M 53.6726855,69.07092600000001 L 54.1126855,70.18642600000001" fill="none" stroke="rgb(92,92,92)" stroke-width="0.1"/>
  <path d="M 53.37668550000001,69.187526 L 53.81768549999998,70.303126" fill="none" stroke="rgb(92,92,92)" stroke-width="0.1"/>
  <path d="M 53.08168549999999,69.30412600000001 L 53.52168549999999,70.41972600000001" fill="none" stroke="rgb(92,92,92)" stroke-width="0.1"/>
  <path d="M 52.786685499999976,69.42072600000002 L 53.226685499999974,70.53632600000002" fill="none" stroke="rgb(92,92,92)" stroke-width="0.1"/>
  <path d="M 52.49168549999996,69.53732600000001 L 52.93168549999996,70.65292600000001" fill="none" stroke="rgb(92,92,92)" stroke-width="0.1"/>
  <path d="M 52.19568549999997,69.65392600000001 L 52.635685499999965,70.76952600000001" fill="none" stroke="rgb(92,92,92)" stroke-width="0.1"/>
  <path d="M 51.90068550000001,69.77052600000002 L 52.340685500000006,70.88612600000002" fill="none" stroke="rgb(92,92,92)" stroke-width="0.1"/>
  <path d="M 51.60568549999999,69.88712600000001 L 52.04568549999999,71.00272600000001" fill="none" stroke="rgb(92,92,92)" stroke-width="0.1"/>
  <path d="M 51.3096855,70.00382600000002 L 51.7496855,71.11932600000002" fill="none" stroke="rgb(92,92,92)" stroke-width="0.1"/>
  <path d="M 51.014685499999985,70.12042600000001 L 51.45468549999998,71.235926" fill="none" stroke="rgb(92,92,92)" stroke-width="0.1"/>
  <path d="M 51.1316855,71.36352600000001 L 50.70068549999996,70.25362600000001" fill="none" stroke="rgb(0,178,178)" stroke-width="0.1"/>
  <path d="M 50.70068549999996,70.25362600000001 L 50.93368549999997,70.161826" fill="none" stroke="rgb(0,178,178)" stroke-width="0.1"/>
  <path d="M 50.93368549999997,70.161826 L 51.36468550000001,71.27172600000002" fill="none" stroke="rgb(0,178,178)" stroke-width="0.1"/>
  <path d="M 51.36468550000001,71.27172600000002 L 51.1316855,71.36352600000001" fill="none" stroke="rgb(0,178,178)" stroke-width="0.1"/>
  <path d="M 58.14468549999998,68.59442600000001 L 57.703685500000006,67.47912600000001" fill="none" stroke="rgb(0,178,178)" stroke-width="0.1"/>
  <path d="M 57.703685500000006,67.47912600000001 L 50.92468549999995,70.15572600000002" fill="none" stroke="rgb(0,178,178)" stroke-width="0.1"/>
  <path d="M 50.92468549999995,70.15572600000002 L 51.36468550000001,71.27172600000002" fill="none" stroke="rgb(0,178,178)" stroke-width="0.1"/>
  <path d="M 51.36468550000001,71.27172600000002 L 58.14468549999998,68.59442600000001" fill="none" stroke="rgb(0,178,178)" stroke-width="0.1"/>
  <path d="M 57.703685500000006,67.47912600000001 L 50.92468549999995,70.15572600000002" fill="none" stroke="rgb(92,92,92)" stroke-width="0.1"/>
  <path d="M 50.92468549999995,70.15572600000002 L 51.36468550000001,71.27172600000002" fill="none" stroke="rgb(92,92,92)" stroke-width="0.1"/>
  <path d="M 51.36468550000001,71.27172600000002 L 58.14468549999998,68.59442600000001" fill="none" stroke="rgb(92,92,92)" stroke-width="0.1"/>
  <path d="M 58.14468549999998,68.59442600000001 L 57.703685500000006,67.47912600000001" fill="none" stroke="rgb(92,92,92)" stroke-width="0.1"/>
 </g>
 <g id="layerA3-G-FACADE-ALUM-PANEL" inkscape:groupmode="layer" inkscape:label="A3-G-FACADE-ALUM-PANEL">
  <path d="M 60.15856609079157,99.8482424352329 L 60.0877026236069,99.35091438554018" fill="none" stroke="rgb(178,178,0)" stroke-width="0.1"/>
  <path d="M 60.0877026236069,99.35091438554018 L 60.01491104349202,98.85386488513102" fill="none" stroke="rgb(178,178,0)" stroke-width="0.1"/>
  <path d="M 60.01491104349202,98.85386488513102 L 59.9401924451638,98.35710140916234" fill="none" stroke="rgb(178,178,0)" stroke-width="0.1"/>
  <path d="M 59.9401924451638,98.35710140916234 L 59.86354795231972,97.86063142848951" fill="none" stroke="rgb(178,178,0)" stroke-width="0.1"/>
  <path d="M 59.86354795231972,97.86063142848951 L 59.78497871762079,97.36446240955398" fill="none" stroke="rgb(178,178,0)" stroke-width="0.1"/>
  <path d="M 59.78497871762079,97.36446240955398 L 59.70448592267445,96.86860181427106" fill="none" stroke="rgb(178,178,0)" stroke-width="0.1"/>
  <path d="M 59.70448592267445,96.86860181427106 L 59.62207077801651,96.37305709991762" fill="none" stroke="rgb(178,178,0)" stroke-width="0.1"/>
  <path d="M 59.62207077801651,96.37305709991762 L 59.53773452309332,95.87783571902" fill="none" stroke="rgb(178,178,0)" stroke-width="0.1"/>
  <path d="M 59.53773452309332,95.87783571902 L 59.45147842624283,95.3829451192419" fill="none" stroke="rgb(178,178,0)" stroke-width="0.1"/>
  <path d="M 59.45147842624283,95.3829451192419 L 59.36330378467545,94.88839274327239" fill="none" stroke="rgb(178,178,0)" stroke-width="0.1"/>
  <path d="M 59.36330378467545,94.88839274327239 L 59.27321192445498,94.39418602871397" fill="none" stroke="rgb(178,178,0)" stroke-width="0.1"/>
  <path d="M 59.27321192445498,94.39418602871397 L 59.18120420047825,93.90033240797072" fill="none" stroke="rgb(178,178,0)" stroke-width="0.1"/>
  <path d="M 59.18120420047825,93.90033240797072 L 59.08728199645475,93.4068393081365" fill="none" stroke="rgb(178,178,0)" stroke-width="0.1"/>
  <path d="M 59.08728199645475,93.4068393081365 L 58.991446724886146,92.91371415088331" fill="none" stroke="rgb(178,178,0)" stroke-width="0.1"/>
  <path d="M 58.991446724886146,92.91371415088331 L 58.89369982704483,92.42096435234959" fill="none" stroke="rgb(178,178,0)" stroke-width="0.1"/>
  <path d="M 58.89369982704483,92.42096435234959 L 58.79404277295208,91.92859732302881" fill="none" stroke="rgb(178,178,0)" stroke-width="0.1"/>
  <path d="M 58.79404277295208,91.92859732302881 L 58.69247706135633,91.43662046765789" fill="none" stroke="rgb(178,178,0)" stroke-width="0.1"/>
  <path d="M 58.69247706135633,91.43662046765789 L 58.58900421971026,90.94504118510592" fill="none" stroke="rgb(178,178,0)" stroke-width="0.1"/>
  <path d="M 58.58900421971026,90.94504118510592 L 58.483625804148176,90.45386686826288" fill="none" stroke="rgb(178,178,0)" stroke-width="0.1"/>
  <path d="M 58.483625804148176,90.45386686826288 L 58.3763433994622,89.96310490392842" fill="none" stroke="rgb(178,178,0)" stroke-width="0.1"/>
  <path d="M 58.3763433994622,89.96310490392842 L 58.267158619078884,89.47276267270084" fill="none" stroke="rgb(178,178,0)" stroke-width="0.1"/>
  <path d="M 58.267158619078884,89.47276267270084 L 58.156073105034466,88.98284754886599" fill="none" stroke="rgb(178,178,0)" stroke-width="0.1"/>
  <path d="M 58.156073105034466,88.98284754886599 L 58.043088527950715,88.49336690028647" fill="none" stroke="rgb(178,178,0)" stroke-width="0.1"/>
  <path d="M 58.043088527950715,88.49336690028647 L 57.928206587009356,88.00432808829079" fill="none" stroke="rgb(178,178,0)" stroke-width="0.1"/>
  <path d="M 57.928206587009356,88.00432808829079 L 57.811429009926655,87.51573846756261" fill="none" stroke="rgb(178,178,0)" stroke-width="0.1"/>
  <path d="M 57.811429009926655,87.51573846756261 L 57.69275755292756,87.0276053860302" fill="none" stroke="rgb(178,178,0)" stroke-width="0.1"/>
  <path d="M 57.69275755292756,87.0276053860302 L 57.572194000719094,86.53993618475592" fill="none" stroke="rgb(178,178,0)" stroke-width="0.1"/>
  <path d="M 57.572194000719094,86.53993618475592 L 57.449740166463755,86.05273819782579" fill="none" stroke="rgb(178,178,0)" stroke-width="0.1"/>
  <path d="M 57.449740166463755,86.05273819782579 L 57.32539789175195,85.56601875223919" fill="none" stroke="rgb(178,178,0)" stroke-width="0.1"/>
  <path d="M 57.32539789175195,85.56601875223919 L 57.19916904657458,85.07978516779876" fill="none" stroke="rgb(178,178,0)" stroke-width="0.1"/>
  <path d="M 57.19916904657458,85.07978516779876 L 57.071055529294654,84.59404475700018" fill="none" stroke="rgb(178,178,0)" stroke-width="0.1"/>
  <path d="M 57.071055529294654,84.59404475700018 L 56.941059266618936,84.10880482492229" fill="none" stroke="rgb(178,178,0)" stroke-width="0.1"/>
  <path d="M 56.941059266618936,84.10880482492229 L 56.809182213569045,83.62407266911717" fill="none" stroke="rgb(178,178,0)" stroke-width="0.1"/>
  <path d="M 56.809182213569045,83.62407266911717 L 56.675426353451655,83.13985557950045" fill="none" stroke="rgb(178,178,0)" stroke-width="0.1"/>
  <path d="M 56.675426353451655,83.13985557950045 L 56.539793697829225,82.65616083824165" fill="none" stroke="rgb(178,178,0)" stroke-width="0.1"/>
  <path d="M 56.539793697829225,82.65616083824165 L 56.402286286489186,82.17299571965465" fill="none" stroke="rgb(178,178,0)" stroke-width="0.1"/>
  <path d="M 56.402286286489186,82.17299571965465 L 56.262906187413705,81.69036749008833" fill="none" stroke="rgb(178,178,0)" stroke-width="0.1"/>
  <path d="M 56.262906187413705,81.69036749008833 L 56.12165549674836,81.20828340781723" fill="none" stroke="rgb(178,178,0)" stroke-width="0.1"/>
  <path d="M 56.12165549674836,81.20828340781723 L 55.978536338770596,80.72675072293244" fill="none" stroke="rgb(178,178,0)" stroke-width="0.1"/>
  <path d="M 55.978536338770596,80.72675072293244 L 55.833550865858,80.24577667723256" fill="none" stroke="rgb(178,178,0)" stroke-width="0.1"/>
  <path d="M 55.833550865858,80.24577667723256 L 55.68670125845563,79.76536850411475" fill="none" stroke="rgb(178,178,0)" stroke-width="0.1"/>
  <path d="M 55.68670125845563,79.76536850411475 L 55.537989725043474,79.28553342846602" fill="none" stroke="rgb(178,178,0)" stroke-width="0.1"/>
  <path d="M 55.537989725043474,79.28553342846602 L 55.387418502103,78.80627866655453" fill="none" stroke="rgb(178,178,0)" stroke-width="0.1"/>
  <path d="M 55.387418502103,78.80627866655453 L 55.23498985408395,78.32761142592105" fill="none" stroke="rgb(178,178,0)" stroke-width="0.1"/>
  <path d="M 55.23498985408395,78.32761142592105 L 55.08070607336964,77.84953890527055" fill="none" stroke="rgb(178,178,0)" stroke-width="0.1"/>
  <path d="M 55.08070607336964,77.84953890527055 L 54.92456948024301,77.37206829436406" fill="none" stroke="rgb(178,178,0)" stroke-width="0.1"/>
  <path d="M 54.92456948024301,77.37206829436406 L 54.76658242285157,76.89520677391036" fill="none" stroke="rgb(178,178,0)" stroke-width="0.1"/>
  <path d="M 54.76658242285157,76.89520677391036 L 54.606747277172076,76.41896151545814" fill="none" stroke="rgb(178,178,0)" stroke-width="0.1"/>
  <path d="M 54.606747277172076,76.41896151545814 L 54.44506644697469,75.94333968128805" fill="none" stroke="rgb(178,178,0)" stroke-width="0.1"/>
  <path d="M 54.44506644697469,75.94333968128805 L 54.28154236378708,75.4683484243051" fill="none" stroke="rgb(178,178,0)" stroke-width="0.1"/>
  <path d="M 54.28154236378708,75.4683484243051 L 54.11617748685751,74.99399488793091" fill="none" stroke="rgb(178,178,0)" stroke-width="0.1"/>
  <path d="M 54.11617748685751,74.99399488793091 L 53.94897430311829,74.52028620599646" fill="none" stroke="rgb(178,178,0)" stroke-width="0.1"/>
  <path d="M 53.94897430311829,74.52028620599646 L 53.77993532714794,74.04722950263469" fill="none" stroke="rgb(178,178,0)" stroke-width="0.1"/>
  <path d="M 53.77993532714794,74.04722950263469 L 53.60906310113364,73.57483189217339" fill="none" stroke="rgb(178,178,0)" stroke-width="0.1"/>
  <path d="M 53.60906310113364,73.57483189217339 L 53.43636019483296,73.10310047902826" fill="none" stroke="rgb(178,178,0)" stroke-width="0.1"/>
  <path d="M 53.43636019483296,73.10310047902826 L 53.26182920553515,72.63204235759595" fill="none" stroke="rgb(178,178,0)" stroke-width="0.1"/>
  <path d="M 53.26182920553515,72.63204235759595 L 53.085472758022036,72.16166461214749" fill="none" stroke="rgb(178,178,0)" stroke-width="0.1"/>
  <path d="M 53.085472758022036,72.16166461214749 L 52.90729350452881,71.69197431672167" fill="none" stroke="rgb(178,178,0)" stroke-width="0.1"/>
  <path d="M 52.90729350452881,71.69197431672167 L 52.72729412470363,71.22297853501868" fill="none" stroke="rgb(178,178,0)" stroke-width="0.1"/>
  <path d="M 52.72729412470363,71.22297853501868 L 52.54547732556807,70.7546843202939" fill="none" stroke="rgb(178,178,0)" stroke-width="0.1"/>
  <path d="M 52.54547732556807,70.7546843202939 L 52.3618458414756,70.28709871525179" fill="none" stroke="rgb(178,178,0)" stroke-width="0.1"/>
  <path d="M 52.3618458414756,70.28709871525179 L 52.17640243407101,69.82022875193995" fill="none" stroke="rgb(178,178,0)" stroke-width="0.1"/>
  <path d="M 52.17640243407101,69.82022875193995 L 51.98914989224875,69.35408145164345" fill="none" stroke="rgb(178,178,0)" stroke-width="0.1"/>
  <path d="M 51.98914989224875,69.35408145164345 L 51.800091032110856,68.88866382477917" fill="none" stroke="rgb(178,178,0)" stroke-width="0.1"/>
  <path d="M 51.800091032110856,68.88866382477917 L 51.60922869692473,68.42398287079041" fill="none" stroke="rgb(178,178,0)" stroke-width="0.1"/>
  <path d="M 51.60922869692473,68.42398287079041 L 51.41656575708038,67.96004557804153" fill="none" stroke="rgb(178,178,0)" stroke-width="0.1"/>
  <path d="M 51.41656575708038,67.96004557804153 L 51.22210511004715,67.49685892371303" fill="none" stroke="rgb(178,178,0)" stroke-width="0.1"/>
  <path d="M 51.22210511004715,67.49685892371303 L 51.02584968033028,67.03442987369644" fill="none" stroke="rgb(178,178,0)" stroke-width="0.1"/>
  <path d="M 51.02584968033028,67.03442987369644 L 50.827802419426746,66.57276538248965" fill="none" stroke="rgb(178,178,0)" stroke-width="0.1"/>
  <path d="M 50.827802419426746,66.57276538248965 L 50.62796630578106,66.11187239309234" fill="none" stroke="rgb(178,178,0)" stroke-width="0.1"/>
  <path d="M 50.62796630578106,66.11187239309234 L 50.426344344740414,65.65175783690144" fill="none" stroke="rgb(178,178,0)" stroke-width="0.1"/>
  <path d="M 50.426344344740414,65.65175783690144 L 50.22293956850939,65.19242863360708" fill="none" stroke="rgb(178,178,0)" stroke-width="0.1"/>
  <path d="M 50.22293956850939,65.19242863360708 L 50.01775503610452,64.73389169108837" fill="none" stroke="rgb(178,178,0)" stroke-width="0.1"/>
  <path d="M 50.01775503610452,64.73389169108837 L 49.81079383330814,64.27615390530957" fill="none" stroke="rgb(178,178,0)" stroke-width="0.1"/>
  <path d="M 49.81079383330814,64.27615390530957 L 49.60205907262201,63.81922216021637" fill="none" stroke="rgb(178,178,0)" stroke-width="0.1"/>
  <path d="M 49.60205907262201,63.81922216021637 L 49.391553893220646,63.36310332763236" fill="none" stroke="rgb(178,178,0)" stroke-width="0.1"/>
  <path d="M 49.391553893220646,63.36310332763236 L 49.17928146090384,62.90780426715571" fill="none" stroke="rgb(178,178,0)" stroke-width="0.1"/>
  <path d="M 49.17928146090384,62.90780426715571 L 48.96524496804926,62.45333182605599" fill="none" stroke="rgb(178,178,0)" stroke-width="0.1"/>
  <path d="M 48.96524496804926,62.45333182605599 L 48.7494476335645,61.99969283917116" fill="none" stroke="rgb(178,178,0)" stroke-width="0.1"/>
  <path d="M 48.7494476335645,61.99969283917116 L 48.531892702838434,61.546894128804865" fill="none" stroke="rgb(178,178,0)" stroke-width="0.1"/>
  <path d="M 48.531892702838434,61.546894128804865 L 48.31258344769259,61.09494250462372" fill="none" stroke="rgb(178,178,0)" stroke-width="0.1"/>
  <path d="M 48.31258344769259,61.09494250462372 L 48.09152316633174,60.64384476355501" fill="none" stroke="rgb(178,178,0)" stroke-width="0.1"/>
  <path d="M 48.09152316633174,60.64384476355501 L 47.86871518329468,60.1936076896844" fill="none" stroke="rgb(178,178,0)" stroke-width="0.1"/>
  <path d="M 47.86871518329468,60.1936076896844 L 47.64416284940387,59.74423805415391" fill="none" stroke="rgb(178,178,0)" stroke-width="0.1"/>
  <path d="M 47.64416284940387,59.74423805415391 L 47.417869541715106,59.29574261506016" fill="none" stroke="rgb(178,178,0)" stroke-width="0.1"/>
  <path d="M 47.417869541715106,59.29574261506016 L 47.1898386634669,58.848128117352644" fill="none" stroke="rgb(178,178,0)" stroke-width="0.1"/>
  <path d="M 47.1898386634669,58.848128117352644 L 46.96007364402908,58.40140129273232" fill="none" stroke="rgb(178,178,0)" stroke-width="0.1"/>
  <path d="M 46.96007364402908,58.40140129273232 L 46.728577938851515,57.95556885955037" fill="none" stroke="rgb(178,178,0)" stroke-width="0.1"/>
  <path d="M 46.728577938851515,57.95556885955037 L 46.49535502941171,57.51063752270716" fill="none" stroke="rgb(178,178,0)" stroke-width="0.1"/>
  <path d="M 46.49535502941171,57.51063752270716 L 46.260408423162914,57.06661397355151" fill="none" stroke="rgb(178,178,0)" stroke-width="0.1"/>
  <path d="M 46.260408423162914,57.06661397355151 L 46.02374165348107,56.62350488977985" fill="none" stroke="rgb(178,178,0)" stroke-width="0.1"/>
  <path d="M 46.02374165348107,56.62350488977985 L 45.78535827961167,56.18131693533597" fill="none" stroke="rgb(178,178,0)" stroke-width="0.1"/>
  <path d="M 45.78535827961167,56.18131693533597 L 45.545261886616515,55.74005676031072" fill="none" stroke="rgb(178,178,0)" stroke-width="0.1"/>
  <path d="M 45.545261886616515,55.74005676031072 L 45.3034560853194,55.299731000842044" fill="none" stroke="rgb(178,178,0)" stroke-width="0.1"/>
  <path d="M 45.3034560853194,55.299731000842044 L 45.059944512252116,54.86034627901512" fill="none" stroke="rgb(178,178,0)" stroke-width="0.1"/>
  <path d="M 45.059944512252116,54.86034627901512 L 44.81473082959968,54.42190920276283" fill="none" stroke="rgb(178,178,0)" stroke-width="0.1"/>
  <path d="M 44.81473082959968,54.42190920276283 L 44.56781872514517,53.98442636576638" fill="none" stroke="rgb(178,178,0)" stroke-width="0.1"/>
  <path d="M 44.56781872514517,53.98442636576638 L 44.31921191221443,53.54790434735607" fill="none" stroke="rgb(178,178,0)" stroke-width="0.1"/>
  <path d="M 44.31921191221443,53.54790434735607 L 44.06891412962,53.112349712412396" fill="none" stroke="rgb(178,178,0)" stroke-width="0.1"/>
  <path d="M 44.06891412962,53.112349712412396 L 43.816929141605044,52.677769011267344" fill="none" stroke="rgb(178,178,0)" stroke-width="0.1"/>
  <path d="M 43.816929141605044,52.677769011267344 L 43.56326073778678,52.24416877960583" fill="none" stroke="rgb(178,178,0)" stroke-width="0.1"/>
  <path d="M 43.56326073778678,52.24416877960583 L 43.307912733099386,51.811555538367486" fill="none" stroke="rgb(178,178,0)" stroke-width="0.1"/>
  <path d="M 43.307912733099386,51.811555538367486 L 43.05088896773651,51.37993579364843" fill="none" stroke="rgb(178,178,0)" stroke-width="0.1"/>
  <path d="M 43.05088896773651,51.37993579364843 L 42.79219330709401,50.949316036603605" fill="none" stroke="rgb(178,178,0)" stroke-width="0.1"/>
  <path d="M 42.79219330709401,50.949316036603605 L 42.53182964171111,50.5197027433491" fill="none" stroke="rgb(178,178,0)" stroke-width="0.1"/>
  <path d="M 42.53182964171111,50.5197027433491 L 42.269801887212395,50.091102374864676" fill="none" stroke="rgb(178,178,0)" stroke-width="0.1"/>
  <path d="M 42.269801887212395,50.091102374864676 L 42.006113984248884,49.66352137689664" fill="none" stroke="rgb(178,178,0)" stroke-width="0.1"/>
  <path d="M 42.006113984248884,49.66352137689664 L 41.74076989843854,49.23696617986103" fill="none" stroke="rgb(178,178,0)" stroke-width="0.1"/>
  <path d="M 41.74076989843854,49.23696617986103 L 41.473773620306815,48.81144319874673" fill="none" stroke="rgb(178,178,0)" stroke-width="0.1"/>
  <path d="M 41.473773620306815,48.81144319874673 L 41.20512916522654,48.38695883301904" fill="none" stroke="rgb(178,178,0)" stroke-width="0.1"/>
  <path d="M 41.20512916522654,48.38695883301904 L 40.93484057335763,47.96351946652352" fill="none" stroke="rgb(178,178,0)" stroke-width="0.1"/>
  <path d="M 40.93484057335763,47.96351946652352 L 40.66291190958623,47.5411314673899" fill="none" stroke="rgb(178,178,0)" stroke-width="0.1"/>
  <path d="M 40.66291190958623,47.5411314673899 L 40.38934726346355,47.11980118793633" fill="none" stroke="rgb(178,178,0)" stroke-width="0.1"/>
  <path d="M 40.38934726346355,47.11980118793633 L 40.1141507491447,46.699534964573886" fill="none" stroke="rgb(178,178,0)" stroke-width="0.1"/>
  <path d="M 40.1141507491447,46.699534964573886 L 39.83732650532619,46.28033911771119" fill="none" stroke="rgb(178,178,0)" stroke-width="0.1"/>
  <path d="M 39.83732650532619,46.28033911771119 L 39.55887869518432,45.862219951659455" fill="none" stroke="rgb(178,178,0)" stroke-width="0.1"/>
  <path d="M 39.55887869518432,45.862219951659455 L 39.278811506312195,45.44518375453757" fill="none" stroke="rgb(178,178,0)" stroke-width="0.1"/>
  <path d="M 39.278811506312195,45.44518375453757 L 38.99712915065686,45.029236798177635" fill="none" stroke="rgb(178,178,0)" stroke-width="0.1"/>
  <path d="M 38.99712915065686,45.029236798177635 L 38.71383586445603,44.6143853380306" fill="none" stroke="rgb(178,178,0)" stroke-width="0.1"/>
  <path d="M 38.71383586445603,44.6143853380306 L 38.42893590817408,44.20063561307215" fill="none" stroke="rgb(178,178,0)" stroke-width="0.1"/>
  <path d="M 38.42893590817408,44.20063561307215 L 38.14243356643851,43.78799384570894" fill="none" stroke="rgb(178,178,0)" stroke-width="0.1"/>
  <path d="M 38.14243356643851,43.78799384570894 L 37.854333147974955,43.37646624168498" fill="none" stroke="rgb(178,178,0)" stroke-width="0.1"/>
  <path d="M 37.854333147974955,43.37646624168498 L 37.56463898554267,42.96605898998823" fill="none" stroke="rgb(178,178,0)" stroke-width="0.1"/>
  <path d="M 37.56463898554267,42.96605898998823 L 37.27335543586929,42.55677826275776" fill="none" stroke="rgb(178,178,0)" stroke-width="0.1"/>
  <path d="M 37.27335543586929,42.55677826275776 L 36.98048687958544,42.14863021519065" fill="none" stroke="rgb(178,178,0)" stroke-width="0.1"/>
  <path d="M 36.98048687958544,42.14863021519065 L 36.686037721158755,41.741620985449586" fill="none" stroke="rgb(178,178,0)" stroke-width="0.1"/>
  <path d="M 36.686037721158755,41.741620985449586 L 36.39001238882747,41.335756694570506" fill="none" stroke="rgb(178,178,0)" stroke-width="0.1"/>
  <path d="M 36.39001238882747,41.335756694570506 L 36.09241533453422,40.93104344637054" fill="none" stroke="rgb(178,178,0)" stroke-width="0.1"/>
  <path d="M 36.09241533453422,40.93104344637054 L 35.79325103385861,40.52748732735621" fill="none" stroke="rgb(178,178,0)" stroke-width="0.1"/>
  <path d="M 35.79325103385861,40.52748732735621 L 35.49252398595041,40.1250944066319" fill="none" stroke="rgb(178,178,0)" stroke-width="0.1"/>
  <path d="M 35.49252398595041,40.1250944066319 L 35.1902387134615,39.72387073580863" fill="none" stroke="rgb(178,178,0)" stroke-width="0.1"/>
  <path d="M 35.1902387134615,39.72387073580863 L 34.886399762477936,39.32382234891297" fill="none" stroke="rgb(178,178,0)" stroke-width="0.1"/>
  <path d="M 34.886399762477936,39.32382234891297 L 34.581011702451804,38.924955262296265" fill="none" stroke="rgb(178,178,0)" stroke-width="0.1"/>
  <path d="M 34.581011702451804,38.924955262296265 L 34.274079126132165,38.52727547454435" fill="none" stroke="rgb(178,178,0)" stroke-width="0.1"/>
  <path d="M 34.274079126132165,38.52727547454435 L 33.965606649496294,38.13078896638709" fill="none" stroke="rgb(178,178,0)" stroke-width="0.1"/>
  <path d="M 33.965606649496294,38.13078896638709 L 33.655598911680045,37.73550170060858" fill="none" stroke="rgb(178,178,0)" stroke-width="0.1"/>
  <path d="M 33.655598911680045,37.73550170060858 L 33.3440605749081,37.34141962195744" fill="none" stroke="rgb(178,178,0)" stroke-width="0.1"/>
  <path d="M 33.3440605749081,37.34141962195744 L 33.03099632442405,36.948548657057444" fill="none" stroke="rgb(178,178,0)" stroke-width="0.1"/>
  <path d="M 33.03099632442405,36.948548657057444 L 32.71641086841964,36.556894714318275" fill="none" stroke="rgb(178,178,0)" stroke-width="0.1"/>
  <path d="M 32.71641086841964,36.556894714318275 L 32.40030893796427,36.16646368384684" fill="none" stroke="rgb(178,178,0)" stroke-width="0.1"/>
  <path d="M 32.40030893796427,36.16646368384684 L 32.08269528693353,35.77726143735852" fill="none" stroke="rgb(178,178,0)" stroke-width="0.1"/>
  <path d="M 32.08269528693353,35.77726143735852 L 31.76357469193806,35.38929382808897" fill="none" stroke="rgb(178,178,0)" stroke-width="0.1"/>
  <path d="M 31.76357469193806,35.38929382808897 L 31.442951952251292,35.002566690706075" fill="none" stroke="rgb(178,178,0)" stroke-width="0.1"/>
  <path d="M 31.442951952251292,35.002566690706075 L 31.120831889737644,34.61708584122218" fill="none" stroke="rgb(178,178,0)" stroke-width="0.1"/>
  <path d="M 31.120831889737644,34.61708584122218 L 30.797219348779834,34.23285707690661" fill="none" stroke="rgb(178,178,0)" stroke-width="0.1"/>
  <path d="M 30.797219348779834,34.23285707690661 L 30.47211919620611,33.84988617619858" fill="none" stroke="rgb(178,178,0)" stroke-width="0.1"/>
  <path d="M 30.47211919620611,33.84988617619858 L 30.145536321216866,33.46817889862011" fill="none" stroke="rgb(178,178,0)" stroke-width="0.1"/>
  <path d="M 30.145536321216866,33.46817889862011 L 29.817475635311325,33.08774098468959" fill="none" stroke="rgb(178,178,0)" stroke-width="0.1"/>
  <path d="M 29.817475635311325,33.08774098468959 L 29.48794207221357,32.70857815583537" fill="none" stroke="rgb(178,178,0)" stroke-width="0.1"/>
  <path d="M 29.48794207221357,32.70857815583537 L 29.156940587798488,32.33069611430972" fill="none" stroke="rgb(178,178,0)" stroke-width="0.1"/>
  <path d="M 29.156940587798488,32.33069611430972 L 28.8244761600169,31.954100543103024" fill="none" stroke="rgb(178,178,0)" stroke-width="0.1"/>
  <path d="M 28.8244761600169,31.954100543103024 L 28.49055378882116,31.578797105858442" fill="none" stroke="rgb(178,178,0)" stroke-width="0.1"/>
  <path d="M 28.49055378882116,31.578797105858442 L 28.15517849608949,31.2047914467866" fill="none" stroke="rgb(178,178,0)" stroke-width="0.1"/>
  <path d="M 28.15517849608949,31.2047914467866 L 27.81835532555084,30.832089190580746" fill="none" stroke="rgb(178,178,0)" stroke-width="0.1"/>
  <path d="M 27.81835532555084,30.832089190580746 L 27.48008934270888,30.460695942332237" fill="none" stroke="rgb(178,178,0)" stroke-width="0.1"/>
  <path d="M 27.48008934270888,30.460695942332237 L 27.140385634765778,30.090617287446165" fill="none" stroke="rgb(178,178,0)" stroke-width="0.1"/>
  <path d="M 27.140385634765778,30.090617287446165 L 26.799249310545633,29.721858791557295" fill="none" stroke="rgb(178,178,0)" stroke-width="0.1"/>
  <path d="M 26.799249310545633,29.721858791557295 L 26.456685499999992,29.35442600000001" fill="none" stroke="rgb(178,178,0)" stroke-width="0.1"/>
 </g>
 <g id="layerA3-G-FACADE-GLASS" inkscape:groupmode="layer" inkscape:label="A3-G-FACADE-GLASS">
  <path d="M 30.764685499999985,25.17762600000001 L 41.59168549999998,38.286026000000014" fill="none" stroke="rgb(178,0,0)" stroke-width="0.1"/>
  <path d="M 41.59168549999998,38.286026000000014 L 50.691685500000006,52.64662600000001" fill="none" stroke="rgb(178,0,0)" stroke-width="0.1"/>
  <path d="M 50.691685500000006,52.64662600000001 L 57.663685499999985,67.38262600000002" fill="none" stroke="rgb(178,0,0)" stroke-width="0.1"/>
  <path d="M 30.957685499999968,25.018426000000012 L 41.79368549999998,38.13892600000001" fill="none" stroke="rgb(178,0,0)" stroke-width="0.1"/>
  <path d="M 41.79368549999998,38.13892600000001 L 50.9106855,52.52582600000001" fill="none" stroke="rgb(178,0,0)" stroke-width="0.1"/>
  <path d="M 50.9106855,52.52582600000001 L 57.889685499999985,67.27562600000002" fill="none" stroke="rgb(178,0,0)" stroke-width="0.1"/>
  <path d="M 58.17868549999997,68.684526 L 63.16968549999996,84.20322600000002" fill="none" stroke="rgb(178,0,0)" stroke-width="0.1"/>
  <path d="M 63.16968549999996,84.20322600000002 L 66.18017116890195,100.0" fill="none" stroke="rgb(178,0,0)" stroke-width="0.1"/>
 </g>
 <g id="layerA3-G-MULLION" inkscape:groupmode="layer" inkscape:label="A3-G-MULLION">
  <path d="M 65.94068549999997,83.13322600000001 L 66.11468550000001,83.811226" fill="none" stroke="rgb(0,178,0)" stroke-width="0.1"/>
  <path d="M 66.11468550000001,83.811226 L 63.59668549999998,84.45622600000002" fill="none" stroke="rgb(0,178,0)" stroke-width="0.1"/>
  <path d="M 63.59668549999998,84.45622600000002 L 63.51568549999996,84.14222600000001" fill="none" stroke="rgb(0,178,0)" stroke-width="0.1"/>
  <path d="M 63.51568549999996,84.14222600000001 L 63.4226855,83.77822600000002" fill="none" stroke="rgb(0,178,0)" stroke-width="0.1"/>
  <path d="M 63.4226855,83.77822600000002 L 65.94068549999997,83.13322600000001" fill="none" stroke="rgb(0,178,0)" stroke-width="0.1"/>
  <path d="M 53.10868549999998,50.92012600000001 L 53.44568549999997,51.53382600000002" fill="none" stroke="rgb(0,178,0)" stroke-width="0.1"/>
  <path d="M 53.44568549999997,51.53382600000002 L 51.16668549999997,52.785026000000016" fill="none" stroke="rgb(0,178,0)" stroke-width="0.1"/>
  <path d="M 51.16668549999997,52.785026000000016 L 51.010685499999965,52.50012600000001" fill="none" stroke="rgb(0,178,0)" stroke-width="0.1"/>
  <path d="M 51.010685499999965,52.50012600000001 L 50.82968549999998,52.17142600000001" fill="none" stroke="rgb(0,178,0)" stroke-width="0.1"/>
  <path d="M 50.82968549999998,52.17142600000001 L 53.10868549999998,50.92012600000001" fill="none" stroke="rgb(0,178,0)" stroke-width="0.1"/>
  <path d="M 43.7736855,36.27052600000001 L 44.1846855,36.83712600000001" fill="none" stroke="rgb(0,178,0)" stroke-width="0.1"/>
  <path d="M 44.1846855,36.83712600000001 L 42.08068549999996,38.36382600000001" fill="none" stroke="rgb(0,178,0)" stroke-width="0.1"/>
  <path d="M 42.08068549999996,38.36382600000001 L 41.889685499999985,38.10072600000001" fill="none" stroke="rgb(0,178,0)" stroke-width="0.1"/>
  <path d="M 41.889685499999985,38.10072600000001 L 41.66968549999996,37.79722600000001" fill="none" stroke="rgb(0,178,0)" stroke-width="0.1"/>
  <path d="M 41.66968549999996,37.79722600000001 L 43.7736855,36.27052600000001" fill="none" stroke="rgb(0,178,0)" stroke-width="0.1"/>
  <path d="M 32.59868549999999,22.840126000000012 L 33.09468549999997,23.33402600000001" fill="none" stroke="rgb(0,178,0)" stroke-width="0.1"/>
  <path d="M 33.09468549999997,23.33402600000001 L 31.25968549999999,25.17652600000001" fill="none" stroke="rgb(0,178,0)" stroke-width="0.1"/>
  <path d="M 31.25968549999999,25.17652600000001 L 31.02968549999997,24.94712600000001" fill="none" stroke="rgb(0,178,0)" stroke-width="0.1"/>
  <path d="M 31.02968549999997,24.94712600000001 L 30.76368550000001,24.682626000000013" fill="none" stroke="rgb(0,178,0)" stroke-width="0.1"/>
  <path d="M 30.76368550000001,24.682626000000013 L 32.59868549999999,22.840126000000012" fill="none" stroke="rgb(0,178,0)" stroke-width="0.1"/>
  <path d="M 58.141685499999994,68.59152600000002 L 60.93168549999996,67.48832600000001" fill="none" stroke="rgb(0,178,0)" stroke-width="0.1"/>
  <path d="M 60.93168549999996,67.48832600000001 L 61.2256855,68.23232600000001" fill="none" stroke="rgb(0,178,0)" stroke-width="0.1"/>
  <path d="M 61.2256855,68.23232600000001 L 58.71468549999997,69.22512600000002" fill="none" stroke="rgb(0,178,0)" stroke-width="0.1"/>
  <path d="M 58.71468549999997,69.22512600000002 L 58.45768549999997,68.57422600000001" fill="none" stroke="rgb(0,178,0)" stroke-width="0.1"/>
  <path d="M 58.45768549999997,68.57422600000001 L 58.17868549999997,68.684526" fill="none" stroke="rgb(0,178,0)" stroke-width="0.1"/>
  <path d="M 58.17868549999997,68.684526 L 58.141685499999994,68.59152600000002" fill="none" stroke="rgb(0,178,0)" stroke-width="0.1"/>
  <path d="M 58.550685499999986,68.53742600000001 L 60.875685499999975,67.61812600000002" fill="none" stroke="rgb(0,178,0)" stroke-width="0.1"/>
  <path d="M 60.875685499999975,67.61812600000002 L 61.0956855,68.17602600000001" fill="none" stroke="rgb(0,178,0)" stroke-width="0.1"/>
  <path d="M 61.0956855,68.17602600000001 L 58.770685499999956,69.09532600000001" fill="none" stroke="rgb(0,178,0)" stroke-width="0.1"/>
  <path d="M 58.770685499999956,69.09532600000001 L 58.550685499999986,68.53742600000001" fill="none" stroke="rgb(0,178,0)" stroke-width="0.1"/>
  <path d="M 57.70068549999996,67.475626 L 60.490685499999984,66.37242600000002" fill="none" stroke="rgb(0,178,0)" stroke-width="0.1"/>
  <path d="M 60.490685499999984,66.37242600000002 L 60.19568549999997,65.62852600000001" fill="none" stroke="rgb(0,178,0)" stroke-width="0.1"/>
  <path d="M 60.19568549999997,65.62852600000001 L 57.68568549999998,66.62132600000001" fill="none" stroke="rgb(0,178,0)" stroke-width="0.1"/>
  <path d="M 57.68568549999998,66.62132600000001 L 57.94268549999998,67.27222600000002" fill="none" stroke="rgb(0,178,0)" stroke-width="0.1"/>
  <path d="M 57.94268549999998,67.27222600000002 L 57.663685499999985,67.38262600000002" fill="none" stroke="rgb(0,178,0)" stroke-width="0.1"/>
  <path d="M 57.663685499999985,67.38262600000002 L 57.70068549999996,67.475626" fill="none" stroke="rgb(0,178,0)" stroke-width="0.1"/>
  <path d="M 58.0356855,67.23552600000001 L 60.36068549999999,66.31622600000001" fill="none" stroke="rgb(0,178,0)" stroke-width="0.1"/>
  <path d="M 60.36068549999999,66.31622600000001 L 60.139685499999985,65.75822600000001" fill="none" stroke="rgb(0,178,0)" stroke-width="0.1"/>
  <path d="M 60.139685499999985,65.75822600000001 L 57.814685499999996,66.67752600000001" fill="none" stroke="rgb(0,178,0)" stroke-width="0.1"/>
  <path d="M 57.814685499999996,66.67752600000001 L 58.0356855,67.23552600000001" fill="none" stroke="rgb(0,178,0)" stroke-width="0.1"/>
  <path d="M 63.47968549999996,84.20322600000002 L 63.18868549999996,84.27722600000001" fill="none" stroke="rgb(0,178,0)" stroke-width="0.1"/>
  <path d="M 63.18868549999996,84.27722600000001 L 63.151685499999985,84.13222600000002" fill="none" stroke="rgb(0,178,0)" stroke-width="0.1"/>
  <path d="M 63.151685499999985,84.13222600000002 L 63.44268549999998,84.05722600000001" fill="none" stroke="rgb(0,178,0)" stroke-width="0.1"/>
  <path d="M 50.990685499999984,52.56802600000002 L 50.72768550000001,52.71242600000001" fill="none" stroke="rgb(0,178,0)" stroke-width="0.1"/>
  <path d="M 50.72768550000001,52.71242600000001 L 50.655685500000004,52.580926000000005" fill="none" stroke="rgb(0,178,0)" stroke-width="0.1"/>
  <path d="M 50.655685500000004,52.580926000000005 L 50.91868549999998,52.436526000000015" fill="none" stroke="rgb(0,178,0)" stroke-width="0.1"/>
  <path d="M 41.87868549999996,38.17062600000001 L 41.635685499999965,38.34672600000001" fill="none" stroke="rgb(0,178,0)" stroke-width="0.1"/>
  <path d="M 41.635685499999965,38.34672600000001 L 41.5476855,38.22532600000001" fill="none" stroke="rgb(0,178,0)" stroke-width="0.1"/>
  <path d="M 41.5476855,38.22532600000001 L 41.790685499999995,38.049126000000015" fill="none" stroke="rgb(0,178,0)" stroke-width="0.1"/>
  <path d="M 31.02968549999997,25.01792600000001 L 30.817685499999982,25.230526000000012" fill="none" stroke="rgb(0,178,0)" stroke-width="0.1"/>
  <path d="M 30.817685499999982,25.230526000000012 L 30.711685499999987,25.124626000000013" fill="none" stroke="rgb(0,178,0)" stroke-width="0.1"/>
  <path d="M 30.711685499999987,25.124626000000013 L 30.923685499999976,24.91202600000001" fill="none" stroke="rgb(0,178,0)" stroke-width="0.1"/>
 </g>
 <g id="layerA4-G-EXPANSION JOINTS" inkscape:groupmode="layer" inkscape:label="A4-G-EXPANSION JOINTS">
  <path d="M 51.24768549999999,71.31762600000002 L 51.28268549999996,71.27902600000002" fill="none" stroke="rgb(134,134,134)" stroke-width="0.1"/>
  <path d="M 51.262685499999975,71.22912600000001 L 51.159685499999966,71.22002600000002" fill="none" stroke="rgb(134,134,134)" stroke-width="0.1"/>
  <path d="M 51.139685499999985,71.17012600000001 L 51.2086855,71.09302600000001" fill="none" stroke="rgb(134,134,134)" stroke-width="0.1"/>
  <path d="M 51.189685499999996,71.04312600000002 L 51.08668549999999,71.03402600000001" fill="none" stroke="rgb(134,134,134)" stroke-width="0.1"/>
  <path d="M 51.066685500000006,70.98402600000001 L 51.135685499999965,70.90692600000001" fill="none" stroke="rgb(134,134,134)" stroke-width="0.1"/>
  <path d="M 51.115685499999984,70.85702600000002 L 51.012685499999975,70.84792600000002" fill="none" stroke="rgb(134,134,134)" stroke-width="0.1"/>
  <path d="M 50.99268549999999,70.79802600000001 L 51.062685499999986,70.720926" fill="none" stroke="rgb(134,134,134)" stroke-width="0.1"/>
  <path d="M 51.042685500000005,70.67102600000001 L 50.939685499999996,70.66192600000001" fill="none" stroke="rgb(134,134,134)" stroke-width="0.1"/>
  <path d="M 50.91968549999996,70.61202600000001 L 50.988685499999974,70.53482600000001" fill="none" stroke="rgb(134,134,134)" stroke-width="0.1"/>
  <path d="M 50.96968549999997,70.48492600000002 L 50.865685499999984,70.47582600000001" fill="none" stroke="rgb(134,134,134)" stroke-width="0.1"/>
  <path d="M 50.84668549999998,70.42592600000002 L 50.915685499999995,70.34882600000002" fill="none" stroke="rgb(134,134,134)" stroke-width="0.1"/>
  <path d="M 50.895685499999956,70.29892600000001 L 50.792685500000005,70.289826" fill="none" stroke="rgb(134,134,134)" stroke-width="0.1"/>
  <path d="M 50.772685499999966,70.23992600000001 L 50.84168549999998,70.16282600000001" fill="none" stroke="rgb(134,134,134)" stroke-width="0.1"/>
  <path d="M 51.28268549999996,71.27902600000002 A 0.03,0.03 0.0 0,0 51.262685499999975,71.22912600000001" fill="none" stroke="rgb(134,134,134)" stroke-width="0.1"/>
  <path d="M 51.139685499999985,71.17012600000001 A 0.03,0.03 0.0 0,0 51.159685499999966,71.22002600000002" fill="none" stroke="rgb(134,134,134)" stroke-width="0.1"/>
  <path d="M 51.2086855,71.09302600000001 A 0.03,0.03 0.0 0,0 51.189685499999996,71.04312600000002" fill="none" stroke="rgb(134,134,134)" stroke-width="0.1"/>
  <path d="M 51.066685500000006,70.98402600000001 A 0.03,0.03 0.0 0,0 51.08668549999999,71.03402600000001" fill="none" stroke="rgb(134,134,134)" stroke-width="0.1"/>
  <path d="M 51.135685499999965,70.90692600000001 A 0.03,0.03 0.0 0,0 51.115685499999984,70.85702600000002" fill="none" stroke="rgb(134,134,134)" stroke-width="0.1"/>
  <path d="M 50.99268549999999,70.79802600000001 A 0.03,0.03 0.0 0,0 51.012685499999975,70.84792600000002" fill="none" stroke="rgb(134,134,134)" stroke-width="0.1"/>
  <path d="M 51.062685499999986,70.720926 A 0.03,0.03 0.0 0,0 51.042685500000005,70.67102600000001" fill="none" stroke="rgb(134,134,134)" stroke-width="0.1"/>
  <path d="M 50.91968549999996,70.61202600000001 A 0.03,0.03 0.0 0,0 50.939685499999996,70.66192600000001" fill="none" stroke="rgb(134,134,134)" stroke-width="0.1"/>
  <path d="M 50.988685499999974,70.53482600000001 A 0.03,0.03 0.0 0,0 50.96968549999997,70.48492600000002" fill="none" stroke="rgb(134,134,134)" stroke-width="0.1"/>
  <path d="M 50.84668549999998,70.42592600000002 A 0.03,0.03 0.0 0,0 50.865685499999984,70.47582600000001" fill="none" stroke="rgb(134,134,134)" stroke-width="0.1"/>
  <path d="M 50.915685499999995,70.34882600000002 A 0.03,0.03 0.0 0,0 50.895685499999956,70.29892600000001" fill="none" stroke="rgb(134,134,134)" stroke-width="0.1"/>
  <path d="M 50.772685499999966,70.23992600000001 A 0.03,0.03 0.0 0,0 50.792685500000005,70.289826" fill="none" stroke="rgb(134,134,134)" stroke-width="0.1"/>
 </g>
 <g id="layerA4-G-FLOORFINISH" inkscape:groupmode="layer" inkscape:label="A4-G-FLOORFINISH">
  <path d="M 60.33968549999997,60.87222600000001 L 100.0,60.87222600000001" fill="none" stroke="rgb(178,0,0)" stroke-width="0.1"/>
  <path d="M 62.79168549999997,66.75292600000002 L 63.90768549999996,66.31162600000002" fill="none" stroke="rgb(178,0,0)" stroke-width="0.1"/>
  <path d="M 63.90768549999996,66.31162600000002 A 141.738,141.738 0.0 0,0 62.1726855,62.072226000000015" fill="none" stroke="rgb(178,0,0)" stroke-width="0.1"/>
  <path d="M 62.1726855,62.072226000000015 L 100.0,62.072226000000015" fill="none" stroke="rgb(178,0,0)" stroke-width="0.1"/>
 </g>
 <g id="layerDefpoints" inkscape:groupmode="layer" inkscape:label="Defpoints">
  <path d="M 66.46068549999995,83.36122600000002 L 62.97368549999999,84.25522600000001" fill="none" stroke="rgb(107,107,107)" stroke-width="0.1"/>
  <path d="M 53.66868549999998,51.01212600000001 L 50.51368550000001,52.744326000000015" fill="none" stroke="rgb(107,107,107)" stroke-width="0.1"/>
  <path d="M 44.340685500000006,36.291626000000015 L 41.42668549999996,38.40522600000001" fill="none" stroke="rgb(107,107,107)" stroke-width="0.1"/>
  <path d="M 33.161685499999976,22.77072600000001 L 30.621685499999955,25.32142600000001" fill="none" stroke="rgb(107,107,107)" stroke-width="0.1"/>
 </g>
 <g id="layerS-通用-钢主梁" inkscape:groupmode="layer" inkscape:label="S-通用-钢主梁">
  <path d="M 82.16868549999998,73.62222600000001 L 86.66868549999998,73.62222600000001" fill="none" stroke="rgb(178,178,0)" stroke-width="0.1"/>
  <path d="M 86.66868549999998,73.62222600000001 L 86.66868549999998,69.12222600000001" fill="none" stroke="rgb(178,178,0)" stroke-width="0.1"/>
  <path d="M 86.66868549999998,69.12222600000001 L 82.16868549999998,69.12222600000001" fill="none" stroke="rgb(178,178,0)" stroke-width="0.1"/>
  <path d="M 82.16868549999998,69.12222600000001 L 82.16868549999998,73.62222600000001" fill="none" stroke="rgb(178,178,0)" stroke-width="0.1"/>
  <path d="M 82.36868549999997,73.42222600000001 L 86.46868549999999,73.42222600000001" fill="none" stroke="rgb(178,178,0)" stroke-width="0.1"/>
  <path d="M 86.46868549999999,73.42222600000001 L 86.46868549999999,69.32222600000001" fill="none" stroke="rgb(178,178,0)" stroke-width="0.1"/>
  <path d="M 86.46868549999999,69.32222600000001 L 82.36868549999997,69.32222600000001" fill="none" stroke="rgb(178,178,0)" stroke-width="0.1"/>
  <path d="M 82.36868549999997,69.32222600000001 L 82.36868549999997,73.42222600000001" fill="none" stroke="rgb(178,178,0)" stroke-width="0.1"/>
 </g>
 <g id="layerS-通用-钢次梁" inkscape:groupmode="layer" inkscape:label="S-通用-钢次梁">
  <path d="M 86.66868549999998,100.0 L 86.66868549999998,96.37722600000001" fill="none" stroke="rgb(0,178,0)" stroke-width="0.1"/>
  <path d="M 86.66868549999998,96.37722600000001 L 82.16868549999998,96.37722600000001" fill="none" stroke="rgb(0,178,0)" stroke-width="0.1"/>
  <path d="M 82.16868549999998,96.37722600000001 L 82.16868549999998,100.0" fill="none" stroke="rgb(0,178,0)" stroke-width="0.1"/>
  <path d="M 86.46868549999999,100.0 L 86.46868549999999,96.57722600000001" fill="none" stroke="rgb(0,178,0)" stroke-width="0.1"/>
  <path d="M 86.46868549999999,96.57722600000001 L 82.36868549999997,96.57722600000001" fill="none" stroke="rgb(0,178,0)" stroke-width="0.1"/>
  <path d="M 82.36868549999997,96.57722600000001 L 82.36868549999997,100.0" fill="none" stroke="rgb(0,178,0)" stroke-width="0.1"/>
 </g>
 <g id="layer轴网$0$DOTE" inkscape:groupmode="layer" inkscape:label="轴网$0$DOTE">
  <path d="M 34.41868549999998,100.0 L 34.41868549999998,0.0" fill="none" stroke="rgb(92,92,92)" stroke-width="0.1"/>
  <path d="M 0.0,68.87222600000001 L 100.0,68.87222600000001" fill="none" stroke="rgb(92,92,92)" stroke-width="0.1"/>
 </g>
</svg>