<?xml version="1.0" encoding="utf-8"?>
<svg style="background-color: #000;" version="1.1" viewBox="0 0 100.0 100.0" xmlns="http://www.w3.org/2000/svg" xmlns:inkscape="http://www.inkscape.org/namespaces/inkscape">
 <g id="layer20190318问题圈住" inkscape:groupmode="layer" inkscape:label="20190318问题圈住">
  <path d="M 92.9226855,44.87222600000001 L 92.9226855,42.87222600000001" fill="none" stroke="rgb(107,53,53)" stroke-width="0.1"/>
  <path d="M 92.9226855,42.87222600000001 L 100.0,42.87222600000001" fill="none" stroke="rgb(107,53,53)" stroke-width="0.1"/>
 </g>
 <g id="layerA-Lead8 181204" inkscape:groupmode="layer" inkscape:label="A-Lead8 181204">
  <path d="M 66.51768549999997,24.87422600000002 L 100.0,24.87422600000002" fill="none" stroke="rgb(178,0,0)" stroke-width="0.1"/>
 </g>
 <g id="layerA-上部投影线" inkscape:groupmode="layer" inkscape:label="A-上部投影线">
  <path d="M 86.9226855,52.972226000000006 L 100.0,52.972226000000006" fill="none" stroke="rgb(0,0,0)" stroke-width="0.1"/>
  <path d="M 86.9226855,100.0 L 86.9226855,52.972226000000006" fill="none" stroke="rgb(0,0,0)" stroke-width="0.1"/>
 </g>
 <g id="layerA2-G-FLOORS" inkscape:groupmode="layer" inkscape:label="A2-G-FLOORS">
  <path d="M 70.41868549999998,100.0 L 70.41868549999998,7.872226000000012" fill="none" stroke="rgb(107,107,107)" stroke-width="0.1"/>
  <path d="M 70.41868549999998,7.872226000000012 L 70.41775626590476,7.367035383674136" fill="none" stroke="rgb(107,107,107)" stroke-width="0.1"/>
  <path d="M 70.41775626590476,7.367035383674136 L 70.41498481732782,6.861851515332944" fill="none" stroke="rgb(107,107,107)" stroke-width="0.1"/>
  <path d="M 70.41498481732782,6.861851515332944 L 70.41037119112292,6.356681112188994" fill="none" stroke="rgb(107,107,107)" stroke-width="0.1"/>
  <path d="M 70.41037119112292,6.356681112188994 L 70.4039154486403,5.85153089181054" fill="none" stroke="rgb(107,107,107)" stroke-width="0.1"/>
  <path d="M 70.4039154486403,5.85153089181054 L 70.39561767572599,5.3464075714975365" fill="none" stroke="rgb(107,107,107)" stroke-width="0.1"/>
  <path d="M 70.39561767572599,5.3464075714975365 L 70.38547798272077,4.841317868192135" fill="none" stroke="rgb(107,107,107)" stroke-width="0.1"/>
  <path d="M 70.38547798272077,4.841317868192135 L 70.37349650445839,4.336268498389501" fill="none" stroke="rgb(107,107,107)" stroke-width="0.1"/>
  <path d="M 70.37349650445839,4.336268498389501 L 70.35967340026423,3.8312661780484802" fill="none" stroke="rgb(107,107,107)" stroke-width="0.1"/>
  <path d="M 70.35967340026423,3.8312661780484802 L 70.34400885395269,3.326317622502245" fill="none" stroke="rgb(107,107,107)" stroke-width="0.1"/>
  <path d="M 70.34400885395269,3.326317622502245 L 70.32650307382511,2.8214295463690178" fill="none" stroke="rgb(107,107,107)" stroke-width="0.1"/>
  <path d="M 70.32650307382511,2.8214295463690178 L 70.30715629266689,2.3166086634628016" fill="none" stroke="rgb(107,107,107)" stroke-width="0.1"/>
  <path d="M 70.30715629266689,2.3166086634628016 L 70.2859687677443,1.8118616867041055" fill="none" stroke="rgb(107,107,107)" stroke-width="0.1"/>
  <path d="M 70.2859687677443,1.8118616867041055 L 70.26294078080116,1.307195328030673" fill="none" stroke="rgb(107,107,107)" stroke-width="0.1"/>
  <path d="M 70.26294078080116,1.307195328030673 L 70.23807263805514,0.8026162983081235" fill="none" stroke="rgb(107,107,107)" stroke-width="0.1"/>
  <path d="M 70.23807263805514,0.8026162983081235 L 70.21136467019346,0.298131307240908" fill="none" stroke="rgb(107,107,107)" stroke-width="0.1"/>
 </g>
 <g id="layerA2-G-WALLS-GLAZING" inkscape:groupmode="layer" inkscape:label="A2-G-WALLS-GLAZING">
  <path d="M 67.41868549999998,7.873226000000017 L 67.41776130838508,7.37286129413576" fill="none" stroke="rgb(134,134,134)" stroke-width="0.1"/>
  <path d="M 67.41776130838508,7.37286129413576 L 67.41498993021128,6.872503423746338" fill="none" stroke="rgb(134,134,134)" stroke-width="0.1"/>
  <path d="M 67.41498993021128,6.872503423746338 L 67.41037140324858,6.372159194034111" fill="none" stroke="rgb(134,134,134)" stroke-width="0.1"/>
  <path d="M 67.41037140324858,6.372159194034111 L 67.40390579044123,5.871835424012488" fill="none" stroke="rgb(134,134,134)" stroke-width="0.1"/>
  <path d="M 67.40390579044123,5.871835424012488 L 67.39559317990688,5.37153893241603" fill="none" stroke="rgb(134,134,134)" stroke-width="0.1"/>
  <path d="M 67.39559317990688,5.37153893241603 L 67.3854336849351,4.871276537607514" fill="none" stroke="rgb(134,134,134)" stroke-width="0.1"/>
  <path d="M 67.3854336849351,4.871276537607514 L 67.37342744398592,4.3710550574850515" fill="none" stroke="rgb(134,134,134)" stroke-width="0.1"/>
  <path d="M 67.37342744398592,4.3710550574850515 L 67.3595746206883,3.870881309389148" fill="none" stroke="rgb(134,134,134)" stroke-width="0.1"/>
  <path d="M 67.3595746206883,3.870881309389148 L 67.34387540383733,3.3707621100097356" fill="none" stroke="rgb(134,134,134)" stroke-width="0.1"/>
  <path d="M 67.34387540383733,3.3707621100097356 L 67.32633000739202,2.8707042752934058" fill="none" stroke="rgb(134,134,134)" stroke-width="0.1"/>
  <path d="M 67.32633000739202,2.8707042752934058 L 67.30693867047245,2.370714620350327" fill="none" stroke="rgb(134,134,134)" stroke-width="0.1"/>
  <path d="M 67.30693867047245,2.370714620350327 L 67.28570165735613,1.870799959361534" fill="none" stroke="rgb(134,134,134)" stroke-width="0.1"/>
  <path d="M 67.28570165735613,1.870799959361534 L 67.2626192574748,1.3709671054860166" fill="none" stroke="rgb(134,134,134)" stroke-width="0.1"/>
  <path d="M 67.2626192574748,1.3709671054860166 L 67.23769178541028,0.8712228707678094" fill="none" stroke="rgb(134,134,134)" stroke-width="0.1"/>
  <path d="M 67.23769178541028,0.8712228707678094 L 67.21091958089022,0.37157406604316634" fill="none" stroke="rgb(134,134,134)" stroke-width="0.1"/>
 </g>
 <g id="layerA3-G-FACADE-ALUM-PANEL" inkscape:groupmode="layer" inkscape:label="A3-G-FACADE-ALUM-PANEL">
  <path d="M 61.41868549999998,100.0 L 61.41868549999998,7.8742260000000215" fill="none" stroke="rgb(178,178,0)" stroke-width="0.1"/>
  <path d="M 61.41868549999998,7.8742260000000215 L 61.417717597531066,7.371875641641537" fill="none" stroke="rgb(178,178,0)" stroke-width="0.1"/>
  <path d="M 61.417717597531066,7.371875641641537 L 61.414801579957896,6.869532813650409" fill="none" stroke="rgb(178,178,0)" stroke-width="0.1"/>
  <path d="M 61.414801579957896,6.869532813650409 L 61.40993749113471,6.367205071401855" fill="none" stroke="rgb(178,178,0)" stroke-width="0.1"/>
  <path d="M 61.40993749113471,6.367205071401855 L 61.40312540421269,5.864899969432571" fill="none" stroke="rgb(178,178,0)" stroke-width="0.1"/>
  <path d="M 61.40312540421269,5.864899969432571 L 61.39436542163929,5.362625061938758" fill="none" stroke="rgb(178,178,0)" stroke-width="0.1"/>
  <path d="M 61.39436542163929,5.362625061938758 L 61.38365767515643,4.860387902662495" fill="none" stroke="rgb(178,178,0)" stroke-width="0.1"/>
  <path d="M 61.38365767515643,4.860387902662495 L 61.371002325798486,4.3581960447782535" fill="none" stroke="rgb(178,178,0)" stroke-width="0.1"/>
  <path d="M 61.371002325798486,4.3581960447782535 L 61.35639956389008,3.856057040779092" fill="none" stroke="rgb(178,178,0)" stroke-width="0.1"/>
  <path d="M 61.35639956389008,3.856057040779092 L 61.339849609042915,3.3539784423633137" fill="none" stroke="rgb(178,178,0)" stroke-width="0.1"/>
  <path d="M 61.339849609042915,3.3539784423633137 L 61.32135271015278,2.851967800320665" fill="none" stroke="rgb(178,178,0)" stroke-width="0.1"/>
  <path d="M 61.32135271015278,2.851967800320665 L 61.30090914539568,2.3500326644189897" fill="none" stroke="rgb(178,178,0)" stroke-width="0.1"/>
  <path d="M 61.30090914539568,2.3500326644189897 L 61.278519222223565,1.8481805832905138" fill="none" stroke="rgb(178,178,0)" stroke-width="0.1"/>
  <path d="M 61.278519222223565,1.8481805832905138 L 61.25418327735986,1.3464191043184996" fill="none" stroke="rgb(178,178,0)" stroke-width="0.1"/>
  <path d="M 61.25418327735986,1.3464191043184996 L 61.22790167679415,0.8447557735235023" fill="none" stroke="rgb(178,178,0)" stroke-width="0.1"/>
  <path d="M 61.22790167679415,0.8447557735235023 L 61.1996748157772,0.34319813545013744" fill="none" stroke="rgb(178,178,0)" stroke-width="0.1"/>
 </g>
 <g id="layerA3-G-FACADE-GLASS" inkscape:groupmode="layer" inkscape:label="A3-G-FACADE-GLASS">
  <path d="M 67.41868549999998,100.0 L 67.41868549999998,7.872226000000012" fill="none" stroke="rgb(178,0,0)" stroke-width="0.1"/>
  <path d="M 67.66868549999998,100.0 L 67.66868549999998,7.872226000000012" fill="none" stroke="rgb(178,0,0)" stroke-width="0.1"/>
  <path d="M 66.92405685101369,0.0 L 67.41868549999998,7.873226000000017" fill="none" stroke="rgb(178,0,0)" stroke-width="0.1"/>
 </g>
 <g id="layerA3-G-MULLION" inkscape:groupmode="layer" inkscape:label="A3-G-MULLION">
  <path d="M 70.36868549999997,92.92222600000002 L 70.36868549999997,93.62222600000001" fill="none" stroke="rgb(0,178,0)" stroke-width="0.1"/>
  <path d="M 70.36868549999997,93.62222600000001 L 67.7686855,93.62222600000001" fill="none" stroke="rgb(0,178,0)" stroke-width="0.1"/>
  <path d="M 67.7686855,93.62222600000001 L 67.7686855,93.29722600000002" fill="none" stroke="rgb(0,178,0)" stroke-width="0.1"/>
  <path d="M 67.7686855,93.29722600000002 L 67.7686855,92.92222600000002" fill="none" stroke="rgb(0,178,0)" stroke-width="0.1"/>
  <path d="M 67.7686855,92.92222600000002 L 70.36868549999997,92.92222600000002" fill="none" stroke="rgb(0,178,0)" stroke-width="0.1"/>
  <path d="M 70.36868549999997,76.12222600000001 L 70.36868549999997,76.822226" fill="none" stroke="rgb(0,178,0)" stroke-width="0.1"/>
  <path d="M 70.36868549999997,76.822226 L 67.7686855,76.822226" fill="none" stroke="rgb(0,178,0)" stroke-width="0.1"/>
  <path d="M 67.7686855,76.822226 L 67.7686855,76.49722600000001" fill="none" stroke="rgb(0,178,0)" stroke-width="0.1"/>
  <path d="M 67.7686855,76.49722600000001 L 67.7686855,76.12222600000001" fill="none" stroke="rgb(0,178,0)" stroke-width="0.1"/>
  <path d="M 67.7686855,76.12222600000001 L 70.36868549999997,76.12222600000001" fill="none" stroke="rgb(0,178,0)" stroke-width="0.1"/>
  <path d="M 70.36868549999997,59.322226 L 70.36868549999997,60.02222600000002" fill="none" stroke="rgb(0,178,0)" stroke-width="0.1"/>
  <path d="M 70.36868549999997,60.02222600000002 L 67.7686855,60.02222600000002" fill="none" stroke="rgb(0,178,0)" stroke-width="0.1"/>
  <path d="M 67.7686855,60.02222600000002 L 67.7686855,59.697226" fill="none" stroke="rgb(0,178,0)" stroke-width="0.1"/>
  <path d="M 67.7686855,59.697226 L 67.7686855,59.322226" fill="none" stroke="rgb(0,178,0)" stroke-width="0.1"/>
  <path d="M 67.7686855,59.322226 L 70.36868549999997,59.322226" fill="none" stroke="rgb(0,178,0)" stroke-width="0.1"/>
  <path d="M 70.36868549999997,42.52222600000002 L 70.36868549999997,43.222226000000006" fill="none" stroke="rgb(0,178,0)" stroke-width="0.1"/>
  <path d="M 70.36868549999997,43.222226000000006 L 67.7686855,43.222226000000006" fill="none" stroke="rgb(0,178,0)" stroke-width="0.1"/>
  <path d="M 67.7686855,43.222226000000006 L 67.7686855,42.89722600000002" fill="none" stroke="rgb(0,178,0)" stroke-width="0.1"/>
  <path d="M 67.7686855,42.89722600000002 L 67.7686855,42.52222600000002" fill="none" stroke="rgb(0,178,0)" stroke-width="0.1"/>
  <path d="M 67.7686855,42.52222600000002 L 70.36868549999997,42.52222600000002" fill="none" stroke="rgb(0,178,0)" stroke-width="0.1"/>
  <path d="M 70.36868549999997,7.522226000000018 L 70.36868549999997,8.222226000000006" fill="none" stroke="rgb(0,178,0)" stroke-width="0.1"/>
  <path d="M 70.36868549999997,8.222226000000006 L 67.7686855,8.222226000000006" fill="none" stroke="rgb(0,178,0)" stroke-width="0.1"/>
  <path d="M 67.7686855,8.222226000000006 L 67.7686855,7.897226000000018" fill="none" stroke="rgb(0,178,0)" stroke-width="0.1"/>
  <path d="M 67.7686855,7.897226000000018 L 67.7686855,7.522226000000018" fill="none" stroke="rgb(0,178,0)" stroke-width="0.1"/>
  <path d="M 67.7686855,7.522226000000018 L 70.36868549999997,7.522226000000018" fill="none" stroke="rgb(0,178,0)" stroke-width="0.1"/>
  <path d="M 70.36868549999997,25.722226000000006 L 70.36868549999997,26.422226000000023" fill="none" stroke="rgb(0,178,0)" stroke-width="0.1"/>
  <path d="M 70.36868549999997,26.422226000000023 L 67.7686855,26.422226000000023" fill="none" stroke="rgb(0,178,0)" stroke-width="0.1"/>
  <path d="M 67.7686855,26.422226000000023 L 67.7686855,26.097226000000006" fill="none" stroke="rgb(0,178,0)" stroke-width="0.1"/>
  <path d="M 67.7686855,26.097226000000006 L 67.7686855,25.722226000000006" fill="none" stroke="rgb(0,178,0)" stroke-width="0.1"/>
  <path d="M 67.7686855,25.722226000000006 L 70.36868549999997,25.722226000000006" fill="none" stroke="rgb(0,178,0)" stroke-width="0.1"/>
  <path d="M 67.71868549999999,93.347226 L 67.41868549999998,93.347226" fill="none" stroke="rgb(0,178,0)" stroke-width="0.1"/>
  <path d="M 67.41868549999998,93.347226 L 67.41868549999998,93.197226" fill="none" stroke="rgb(0,178,0)" stroke-width="0.1"/>
  <path d="M 67.41868549999998,93.197226 L 67.71868549999999,93.197226" fill="none" stroke="rgb(0,178,0)" stroke-width="0.1"/>
  <path d="M 67.71868549999999,76.54722600000002 L 67.41868549999998,76.54722600000002" fill="none" stroke="rgb(0,178,0)" stroke-width="0.1"/>
  <path d="M 67.41868549999998,76.54722600000002 L 67.41868549999998,76.39722600000002" fill="none" stroke="rgb(0,178,0)" stroke-width="0.1"/>
  <path d="M 67.41868549999998,76.39722600000002 L 67.71868549999999,76.39722600000002" fill="none" stroke="rgb(0,178,0)" stroke-width="0.1"/>
  <path d="M 67.71868549999999,59.74722600000001 L 67.41868549999998,59.74722600000001" fill="none" stroke="rgb(0,178,0)" stroke-width="0.1"/>
  <path d="M 67.41868549999998,59.74722600000001 L 67.41868549999998,59.597226000000006" fill="none" stroke="rgb(0,178,0)" stroke-width="0.1"/>
  <path d="M 67.41868549999998,59.597226000000006 L 67.71868549999999,59.597226000000006" fill="none" stroke="rgb(0,178,0)" stroke-width="0.1"/>
  <path d="M 67.71868549999999,42.947226 L 67.41868549999998,42.947226" fill="none" stroke="rgb(0,178,0)" stroke-width="0.1"/>
  <path d="M 67.41868549999998,42.947226 L 67.41868549999998,42.79722600000002" fill="none" stroke="rgb(0,178,0)" stroke-width="0.1"/>
  <path d="M 67.41868549999998,42.79722600000002 L 67.71868549999999,42.79722600000002" fill="none" stroke="rgb(0,178,0)" stroke-width="0.1"/>
  <path d="M 67.71868549999999,7.947226000000001 L 67.41868549999998,7.947226000000001" fill="none" stroke="rgb(0,178,0)" stroke-width="0.1"/>
  <path d="M 67.41868549999998,7.947226000000001 L 67.41868549999998,7.797226000000023" fill="none" stroke="rgb(0,178,0)" stroke-width="0.1"/>
  <path d="M 67.41868549999998,7.797226000000023 L 67.71868549999999,7.797226000000023" fill="none" stroke="rgb(0,178,0)" stroke-width="0.1"/>
  <path d="M 67.71868549999999,26.147226000000018 L 67.41868549999998,26.147226000000018" fill="none" stroke="rgb(0,178,0)" stroke-width="0.1"/>
  <path d="M 67.41868549999998,26.147226000000018 L 67.41868549999998,25.997226000000012" fill="none" stroke="rgb(0,178,0)" stroke-width="0.1"/>
  <path d="M 67.41868549999998,25.997226000000012 L 67.71868549999999,25.997226000000012" fill="none" stroke="rgb(0,178,0)" stroke-width="0.1"/>
 </g>
 <g id="layerDIM_LEAD" inkscape:groupmode="layer" inkscape:label="DIM_LEAD">
  <path d="M 49.57710804041403,100.0 L 69.41868549999998,51.27322600000002" fill="none" stroke="rgb(0,178,0)" stroke-width="0.1"/>
 </g>
 <g id="layerDIM_MODI" inkscape:groupmode="layer" inkscape:label="DIM_MODI">
  <path d="M 60.61068549999999,18.974226000000016 A 6.09375,6.09375 0.0 0,0 60.61068549999999,28.724226000000016" fill="none" stroke="rgb(178,0,178)" stroke-width="0.1"/>
  <path d="M 60.61068549999999,28.724226000000016 A 9.84375,9.84375 0.0 0,0 60.61068549999999,44.474226000000016" fill="none" stroke="rgb(178,0,178)" stroke-width="0.1"/>
  <path d="M 60.61068549999999,44.474226000000016 A 5.625,5.625 0.0 0,0 60.61068549999999,53.474226000000016" fill="none" stroke="rgb(178,0,178)" stroke-width="0.1"/>
  <path d="M 60.61068549999999,53.474226000000016 A 4.6875,4.6875 0.0 0,0 60.61068549999999,60.974226000000016" fill="none" stroke="rgb(178,0,178)" stroke-width="0.1"/>
  <path d="M 60.61068549999999,60.974226000000016 A 12.6562,12.6562 0.0 0,0 60.61068549999999,81.22422600000002" fill="none" stroke="rgb(178,0,178)" stroke-width="0.1"/>
  <path d="M 60.61068549999999,81.22422600000002 A 5.625,5.625 0.0 0,0 60.61068549999999,90.22422600000002" fill="none" stroke="rgb(178,0,178)" stroke-width="0.1"/>
  <path d="M 60.61068549999999,90.22422600000002 L 60.21062353164268,90.53865671246047" fill="none" stroke="rgb(178,0,178)" stroke-width="0.1"/>
  <path d="M 60.21062353164268,90.53865671246047 L 59.82518886001691,90.87085599809038" fill="none" stroke="rgb(178,0,178)" stroke-width="0.1"/>
  <path d="M 59.82518886001691,90.87085599809038 L 59.455169991199625,91.22014425753159" fill="none" stroke="rgb(178,0,178)" stroke-width="0.1"/>
  <path d="M 59.455169991199625,91.22014425753159 L 59.10132389426519,91.58580693152032" fill="none" stroke="rgb(178,0,178)" stroke-width="0.1"/>
  <path d="M 59.10132389426519,91.58580693152032 L 58.764374452710115,91.96709596270273" fill="none" stroke="rgb(178,0,178)" stroke-width="0.1"/>
  <path d="M 58.764374452710115,91.96709596270273 L 58.44501098356227,92.36323132597914" fill="none" stroke="rgb(178,0,178)" stroke-width="0.1"/>
  <path d="M 58.44501098356227,92.36323132597914 L 58.14388682720505,92.77340262424667" fill="none" stroke="rgb(178,0,178)" stroke-width="0.1"/>
  <path d="M 58.14388682720505,92.77340262424667 L 57.86161801080135,93.19677074627566" fill="none" stroke="rgb(178,0,178)" stroke-width="0.1"/>
  <path d="M 57.86161801080135,93.19677074627566 L 57.59878198805063,93.63246958332815" fill="none" stroke="rgb(178,0,178)" stroke-width="0.1"/>
  <path d="M 57.59878198805063,93.63246958332815 L 57.35591645785871,94.07960780100686" fill="none" stroke="rgb(178,0,178)" stroke-width="0.1"/>
  <path d="M 57.35591645785871,94.07960780100686 L 57.13351826433569,94.53727066270966" fill="none" stroke="rgb(178,0,178)" stroke-width="0.1"/>
  <path d="M 57.13351826433569,94.53727066270966 L 56.93204238037322,95.0045219009593" fill="none" stroke="rgb(178,0,178)" stroke-width="0.1"/>
  <path d="M 56.93204238037322,95.0045219009593 L 56.751900976879995,95.48040563278022" fill="none" stroke="rgb(178,0,178)" stroke-width="0.1"/>
  <path d="M 56.751900976879995,95.48040563278022 L 56.59346257957992,95.96394831520368" fill="none" stroke="rgb(178,0,178)" stroke-width="0.1"/>
  <path d="M 56.59346257957992,95.96394831520368 L 56.457051315097544,96.45416073690129" fill="none" stroke="rgb(178,0,178)" stroke-width="0.1"/>
  <path d="M 56.457051315097544,96.45416073690129 L 56.34294624787333,96.9500400418718" fill="none" stroke="rgb(178,0,178)" stroke-width="0.1"/>
  <path d="M 56.34294624787333,96.9500400418718 L 56.251380809265584,97.45057178104213" fill="none" stroke="rgb(178,0,178)" stroke-width="0.1"/>
  <path d="M 56.251380809265584,97.45057178104213 L 56.182542320006235,97.95473198758444" fill="none" stroke="rgb(178,0,178)" stroke-width="0.1"/>
  <path d="M 56.182542320006235,97.95473198758444 L 56.136571606987786,98.46148927170464" fill="none" stroke="rgb(178,0,178)" stroke-width="0.1"/>
  <path d="M 56.136571606987786,98.46148927170464 L 56.113562715165926,98.9698069306163" fill="none" stroke="rgb(178,0,178)" stroke-width="0.1"/>
  <path d="M 56.113562715165926,98.9698069306163 L 56.113562715165926,99.47864506938373" fill="none" stroke="rgb(178,0,178)" stroke-width="0.1"/>
  <path d="M 56.113562715165926,99.47864506938373 L 56.136571606987786,99.9869627282954" fill="none" stroke="rgb(178,0,178)" stroke-width="0.1"/>
  <path d="M 83.96706875294205,99.9732945349692 L 84.19950461567271,99.52530117866459" fill="none" stroke="rgb(178,0,178)" stroke-width="0.1"/>
  <path d="M 84.19950461567271,99.52530117866459 L 84.4047392069703,99.06421198977449" fill="none" stroke="rgb(178,0,178)" stroke-width="0.1"/>
  <path d="M 84.4047392069703,99.06421198977449 L 84.58203819277963,98.59167675594807" fill="none" stroke="rgb(178,0,178)" stroke-width="0.1"/>
  <path d="M 84.58203819277963,98.59167675594807 L 84.73076719327986,98.10938621904461" fill="none" stroke="rgb(178,0,178)" stroke-width="0.1"/>
  <path d="M 84.73076719327986,98.10938621904461 L 84.85039405271027,97.61906602562075" fill="none" stroke="rgb(178,0,178)" stroke-width="0.1"/>
  <path d="M 84.85039405271027,97.61906602562075 L 84.94049074343559,97.12247055252743" fill="none" stroke="rgb(178,0,178)" stroke-width="0.1"/>
  <path d="M 84.94049074343559,97.12247055252743 L 85.00073489743852,96.62137662970969" fill="none" stroke="rgb(178,0,178)" stroke-width="0.1"/>
  <path d="M 85.00073489743852,96.62137662970969 L 85.03091095976009,96.11757718266833" fill="none" stroke="rgb(178,0,178)" stroke-width="0.1"/>
  <path d="M 85.03091095976009,96.11757718266833 L 85.03091095976009,95.61287481733169" fill="none" stroke="rgb(178,0,178)" stroke-width="0.1"/>
  <path d="M 85.03091095976009,95.61287481733169 L 85.00073489743852,95.10907537029033" fill="none" stroke="rgb(178,0,178)" stroke-width="0.1"/>
  <path d="M 85.00073489743852,95.10907537029033 L 84.94049074343559,94.60798144747258" fill="none" stroke="rgb(178,0,178)" stroke-width="0.1"/>
  <path d="M 84.94049074343559,94.60798144747258 L 84.85039405271027,94.11138597437926" fill="none" stroke="rgb(178,0,178)" stroke-width="0.1"/>
  <path d="M 84.85039405271027,94.11138597437926 L 84.73076719327986,93.6210657809554" fill="none" stroke="rgb(178,0,178)" stroke-width="0.1"/>
  <path d="M 84.73076719327986,93.6210657809554 L 84.58203819277963,93.13877524405194" fill="none" stroke="rgb(178,0,178)" stroke-width="0.1"/>
  <path d="M 84.58203819277963,93.13877524405194 L 84.4047392069703,92.6662400102255" fill="none" stroke="rgb(178,0,178)" stroke-width="0.1"/>
  <path d="M 84.4047392069703,92.6662400102255 L 84.19950461567271,92.20515082133542" fill="none" stroke="rgb(178,0,178)" stroke-width="0.1"/>
  <path d="M 84.19950461567271,92.20515082133542 L 83.96706875294205,91.75715746503082" fill="none" stroke="rgb(178,0,178)" stroke-width="0.1"/>
  <path d="M 83.96706875294205,91.75715746503082 L 83.70826327960395,91.32386287177275" fill="none" stroke="rgb(178,0,178)" stroke-width="0.1"/>
  <path d="M 83.70826327960395,91.32386287177275 L 83.42401420755328,90.90681737951235" fill="none" stroke="rgb(178,0,178)" stroke-width="0.1"/>
  <path d="M 83.42401420755328,90.90681737951235 L 83.11533858646192,90.50751318654628" fill="none" stroke="rgb(178,0,178)" stroke-width="0.1"/>
  <path d="M 83.11533858646192,90.50751318654628 L 82.7833408647524,90.12737901239706" fill="none" stroke="rgb(178,0,178)" stroke-width="0.1"/>
  <path d="M 82.7833408647524,90.12737901239706 L 82.42920893785589,89.76777498582209" fill="none" stroke="rgb(178,0,178)" stroke-width="0.1"/>
  <path d="M 82.42920893785589,89.76777498582209 L 82.05420989789508,89.42998777824181" fill="none" stroke="rgb(178,0,178)" stroke-width="0.1"/>
  <path d="M 82.05420989789508,89.42998777824181 L 81.65968549999997,89.115226" fill="none" stroke="rgb(178,0,178)" stroke-width="0.1"/>
  <path d="M 81.65968549999997,89.115226 A 11.25,11.25 0.0 0,0 81.65968549999997,71.115226" fill="none" stroke="rgb(178,0,178)" stroke-width="0.1"/>
  <path d="M 81.65968549999997,71.115226 A 7.03125,7.03125 0.0 0,0 81.65968549999997,59.86522600000001" fill="none" stroke="rgb(178,0,178)" stroke-width="0.1"/>
  <path d="M 81.65968549999997,59.86522600000001 A 9.84375,9.84375 0.0 0,0 81.65968549999997,44.11522600000001" fill="none" stroke="rgb(178,0,178)" stroke-width="0.1"/>
  <path d="M 81.65968549999997,44.11522600000001 A 8.4375,8.4375 0.0 0,0 81.65968549999997,30.615226000000007" fill="none" stroke="rgb(178,0,178)" stroke-width="0.1"/>
  <path d="M 81.65968549999997,30.615226000000007 A 6.09375,6.09375 0.0 0,0 81.65968549999997,20.865226000000007" fill="none" stroke="rgb(178,0,178)" stroke-width="0.1"/>
  <path d="M 81.65968549999997,20.865226000000007 A 1.18178,1.18178 0.0 0,0 81.65968549999997,18.974226000000016" fill="none" stroke="rgb(178,0,178)" stroke-width="0.1"/>
  <path d="M 81.65968549999997,18.974226000000016 A 12.6562,12.6562 0.0 0,0 61.409685499999966,18.974226000000016" fill="none" stroke="rgb(178,0,178)" stroke-width="0.1"/>
  <path d="M 61.409685499999966,18.974226000000016 A 0.499177,0.499177 0.0 0,0 60.61068549999999,18.974226000000016" fill="none" stroke="rgb(178,0,178)" stroke-width="0.1"/>
 </g>
 <g id="layerDefpoints" inkscape:groupmode="layer" inkscape:label="Defpoints">
  <path d="M 70.8146855,93.27222600000002 L 67.2156855,93.27222600000002" fill="none" stroke="rgb(107,107,107)" stroke-width="0.1"/>
  <path d="M 70.8146855,76.472226 L 67.2156855,76.472226" fill="none" stroke="rgb(107,107,107)" stroke-width="0.1"/>
  <path d="M 70.8146855,59.67222600000002 L 67.2156855,59.67222600000002" fill="none" stroke="rgb(107,107,107)" stroke-width="0.1"/>
  <path d="M 70.8146855,42.87222600000001 L 67.2156855,42.87222600000001" fill="none" stroke="rgb(107,107,107)" stroke-width="0.1"/>
  <path d="M 70.8146855,7.872226000000012 L 67.2156855,7.872226000000012" fill="none" stroke="rgb(107,107,107)" stroke-width="0.1"/>
  <path d="M 70.8146855,26.072226 L 67.2156855,26.072226" fill="none" stroke="rgb(107,107,107)" stroke-width="0.1"/>
 </g>
 <g id="layerPUB_DIM" inkscape:groupmode="layer" inkscape:label="PUB_DIM">
  <path d="M 92.9226855,38.244226000000026 L 92.9226855,29.84422600000002" fill="none" stroke="rgb(26,107,0)" stroke-width="0.1"/>
  <path d="M 92.1796855,34.786226 L 93.66468549999996,33.301226000000014" fill="none" stroke="rgb(26,107,0)" stroke-width="0.1"/>
  <path d="M 79.59968549999996,44.87222600000001 L 87.9996855,44.87222600000001" fill="none" stroke="rgb(26,107,0)" stroke-width="0.1"/>
  <path d="M 84.54168549999997,45.614226 L 83.05668549999996,44.13022600000002" fill="none" stroke="rgb(26,107,0)" stroke-width="0.1"/>
  <path d="M 92.9226855,44.87222600000001 L 92.9226855,34.04422600000001" fill="none" stroke="rgb(26,107,0)" stroke-width="0.1"/>
  <path d="M 92.9226855,34.04422600000001 L 100.0,34.04422600000001" fill="none" stroke="rgb(26,107,0)" stroke-width="0.1"/>
  <path d="M 83.79968549999995,100.0 L 83.79968549999995,44.87222600000001" fill="none" stroke="rgb(26,107,0)" stroke-width="0.1"/>
  <path d="M 83.79968549999995,44.87222600000001 L 82.6726855,44.87222600000001" fill="none" stroke="rgb(26,107,0)" stroke-width="0.1"/>
 </g>
 <g id="layerPUB_HATCH" inkscape:groupmode="layer" inkscape:label="PUB_HATCH">
  <path d="M 71.98568549999999,95.89622600000001 L 71.8146855,95.69622600000002" fill="none" instance-id="-1" semantic-id="1" stroke="rgb(89,89,89)" stroke-width="0.1"/>
  <path d="M 71.98568549999999,83.89622600000001 L 71.8146855,83.69622600000002" fill="none" instance-id="-1" semantic-id="1" stroke="rgb(89,89,89)" stroke-width="0.1"/>
  <path d="M 71.98568549999999,71.89622600000001 L 71.8146855,71.69622600000002" fill="none" instance-id="-1" semantic-id="1" stroke="rgb(89,89,89)" stroke-width="0.1"/>
  <path d="M 71.98568549999999,59.89622600000001 L 71.8146855,59.696226000000024" fill="none" instance-id="-1" semantic-id="1" stroke="rgb(89,89,89)" stroke-width="0.1"/>
  <path d="M 71.98568549999999,47.89622600000001 L 71.8146855,47.696226000000024" fill="none" instance-id="-1" semantic-id="1" stroke="rgb(89,89,89)" stroke-width="0.1"/>
  <path d="M 71.98568549999999,35.89622600000001 L 71.8146855,35.696226000000024" fill="none" instance-id="-1" semantic-id="1" stroke="rgb(89,89,89)" stroke-width="0.1"/>
  <path d="M 71.56168549999995,35.786226 L 71.81868549999996,35.70122600000002" fill="none" instance-id="-1" semantic-id="1" stroke="rgb(89,89,89)" stroke-width="0.1"/>
  <path d="M 71.56168549999995,47.786226 L 71.81868549999996,47.70122600000002" fill="none" instance-id="-1" semantic-id="1" stroke="rgb(89,89,89)" stroke-width="0.1"/>
  <path d="M 71.56168549999995,59.786226 L 71.81868549999996,59.70122600000002" fill="none" instance-id="-1" semantic-id="1" stroke="rgb(89,89,89)" stroke-width="0.1"/>
  <path d="M 71.56168549999995,71.786226 L 71.81868549999996,71.70122600000002" fill="none" instance-id="-1" semantic-id="1" stroke="rgb(89,89,89)" stroke-width="0.1"/>
  <path d="M 71.56168549999995,83.786226 L 71.81868549999996,83.70122600000002" fill="none" instance-id="-1" semantic-id="1" stroke="rgb(89,89,89)" stroke-width="0.1"/>
  <path d="M 71.56168549999995,95.786226 L 71.81868549999996,95.70122600000002" fill="none" instance-id="-1" semantic-id="1" stroke="rgb(89,89,89)" stroke-width="0.1"/>
  <path d="M 71.56168549999995,96.043226 L 71.56168549999995,95.786226" fill="none" instance-id="-1" semantic-id="1" stroke="rgb(89,89,89)" stroke-width="0.1"/>
  <path d="M 71.56168549999995,84.043226 L 71.56168549999995,83.786226" fill="none" instance-id="-1" semantic-id="1" stroke="rgb(89,89,89)" stroke-width="0.1"/>
  <path d="M 71.56168549999995,72.043226 L 71.56168549999995,71.786226" fill="none" instance-id="-1" semantic-id="1" stroke="rgb(89,89,89)" stroke-width="0.1"/>
  <path d="M 71.56168549999995,60.043226000000004 L 71.56168549999995,59.786226" fill="none" instance-id="-1" semantic-id="1" stroke="rgb(89,89,89)" stroke-width="0.1"/>
  <path d="M 71.56168549999995,48.043226000000004 L 71.56168549999995,47.786226" fill="none" instance-id="-1" semantic-id="1" stroke="rgb(89,89,89)" stroke-width="0.1"/>
  <path d="M 71.56168549999995,36.043226000000004 L 71.56168549999995,35.786226" fill="none" instance-id="-1" semantic-id="1" stroke="rgb(89,89,89)" stroke-width="0.1"/>
  <path d="M 71.81768549999998,96.13022600000002 L 71.56068549999998,96.04422600000001" fill="none" instance-id="-1" semantic-id="1" stroke="rgb(89,89,89)" stroke-width="0.1"/>
  <path d="M 71.81768549999998,84.13022600000002 L 71.56068549999998,84.04422600000001" fill="none" instance-id="-1" semantic-id="1" stroke="rgb(89,89,89)" stroke-width="0.1"/>
  <path d="M 71.81768549999998,72.13022600000002 L 71.56068549999998,72.04422600000001" fill="none" instance-id="-1" semantic-id="1" stroke="rgb(89,89,89)" stroke-width="0.1"/>
  <path d="M 71.81768549999998,60.13022600000002 L 71.56068549999998,60.04422600000001" fill="none" instance-id="-1" semantic-id="1" stroke="rgb(89,89,89)" stroke-width="0.1"/>
  <path d="M 71.81768549999998,48.13022600000002 L 71.56068549999998,48.04422600000001" fill="none" instance-id="-1" semantic-id="1" stroke="rgb(89,89,89)" stroke-width="0.1"/>
  <path d="M 71.81768549999998,36.13022600000002 L 71.56068549999998,36.04422600000001" fill="none" instance-id="-1" semantic-id="1" stroke="rgb(89,89,89)" stroke-width="0.1"/>
  <path d="M 71.81868549999996,36.12922600000002 L 71.98968550000001,35.90122600000001" fill="none" instance-id="-1" semantic-id="1" stroke="rgb(89,89,89)" stroke-width="0.1"/>
  <path d="M 71.81868549999996,48.12922600000002 L 71.98968550000001,47.90122600000001" fill="none" instance-id="-1" semantic-id="1" stroke="rgb(89,89,89)" stroke-width="0.1"/>
  <path d="M 71.81868549999996,60.12922600000002 L 71.98968550000001,59.90122600000001" fill="none" instance-id="-1" semantic-id="1" stroke="rgb(89,89,89)" stroke-width="0.1"/>
  <path d="M 71.81868549999996,72.12922600000002 L 71.98968550000001,71.90122600000001" fill="none" instance-id="-1" semantic-id="1" stroke="rgb(89,89,89)" stroke-width="0.1"/>
  <path d="M 71.81868549999996,84.12922600000002 L 71.98968550000001,83.90122600000001" fill="none" instance-id="-1" semantic-id="1" stroke="rgb(89,89,89)" stroke-width="0.1"/>
  <path d="M 71.81868549999996,96.12922600000002 L 71.98968550000001,95.90122600000001" fill="none" instance-id="-1" semantic-id="1" stroke="rgb(89,89,89)" stroke-width="0.1"/>
  <path d="M 72.04668549999997,99.18722600000001 L 71.87568549999997,99.01522600000001" fill="none" instance-id="-1" semantic-id="1" stroke="rgb(89,89,89)" stroke-width="0.1"/>
  <path d="M 72.04668549999997,87.18722600000001 L 71.87568549999997,87.01522600000001" fill="none" instance-id="-1" semantic-id="1" stroke="rgb(89,89,89)" stroke-width="0.1"/>
  <path d="M 72.04668549999997,75.18722600000001 L 71.87568549999997,75.01522600000001" fill="none" instance-id="-1" semantic-id="1" stroke="rgb(89,89,89)" stroke-width="0.1"/>
  <path d="M 72.04668549999997,63.18722600000001 L 71.87568549999997,63.01522600000001" fill="none" instance-id="-1" semantic-id="1" stroke="rgb(89,89,89)" stroke-width="0.1"/>
  <path d="M 72.04668549999997,51.18722600000001 L 71.87568549999997,51.01522600000001" fill="none" instance-id="-1" semantic-id="1" stroke="rgb(89,89,89)" stroke-width="0.1"/>
  <path d="M 72.04668549999997,39.18722600000001 L 71.87568549999997,39.01522600000001" fill="none" instance-id="-1" semantic-id="1" stroke="rgb(89,89,89)" stroke-width="0.1"/>
  <path d="M 72.04668549999997,27.18722600000001 L 71.87568549999997,27.015226000000013" fill="none" instance-id="-1" semantic-id="1" stroke="rgb(89,89,89)" stroke-width="0.1"/>
  <path d="M 71.70468549999998,27.186226000000005 L 71.87568549999997,27.015226000000013" fill="none" instance-id="-1" semantic-id="1" stroke="rgb(89,89,89)" stroke-width="0.1"/>
  <path d="M 71.70468549999998,39.186226000000005 L 71.87568549999997,39.01522600000001" fill="none" instance-id="-1" semantic-id="1" stroke="rgb(89,89,89)" stroke-width="0.1"/>
  <path d="M 71.70468549999998,51.186226000000005 L 71.87568549999997,51.01522600000001" fill="none" instance-id="-1" semantic-id="1" stroke="rgb(89,89,89)" stroke-width="0.1"/>
  <path d="M 71.70468549999998,63.186226000000005 L 71.87568549999997,63.01522600000001" fill="none" instance-id="-1" semantic-id="1" stroke="rgb(89,89,89)" stroke-width="0.1"/>
  <path d="M 71.70468549999998,75.186226 L 71.87568549999997,75.01522600000001" fill="none" instance-id="-1" semantic-id="1" stroke="rgb(89,89,89)" stroke-width="0.1"/>
  <path d="M 71.70468549999998,87.186226 L 71.87568549999997,87.01522600000001" fill="none" instance-id="-1" semantic-id="1" stroke="rgb(89,89,89)" stroke-width="0.1"/>
  <path d="M 71.70468549999998,99.186226 L 71.87568549999997,99.01522600000001" fill="none" instance-id="-1" semantic-id="1" stroke="rgb(89,89,89)" stroke-width="0.1"/>
  <path d="M 71.87568549999997,99.358226 L 71.7036855,99.18722600000001" fill="none" instance-id="-1" semantic-id="1" stroke="rgb(89,89,89)" stroke-width="0.1"/>
  <path d="M 71.87568549999997,87.358226 L 71.7036855,87.18722600000001" fill="none" instance-id="-1" semantic-id="1" stroke="rgb(89,89,89)" stroke-width="0.1"/>
  <path d="M 71.87568549999997,75.358226 L 71.7036855,75.18722600000001" fill="none" instance-id="-1" semantic-id="1" stroke="rgb(89,89,89)" stroke-width="0.1"/>
  <path d="M 71.87568549999997,63.358226 L 71.7036855,63.18722600000001" fill="none" instance-id="-1" semantic-id="1" stroke="rgb(89,89,89)" stroke-width="0.1"/>
  <path d="M 71.87568549999997,51.358226 L 71.7036855,51.18722600000001" fill="none" instance-id="-1" semantic-id="1" stroke="rgb(89,89,89)" stroke-width="0.1"/>
  <path d="M 71.87568549999997,39.358226 L 71.7036855,39.18722600000001" fill="none" instance-id="-1" semantic-id="1" stroke="rgb(89,89,89)" stroke-width="0.1"/>
  <path d="M 71.87568549999997,27.358226000000002 L 71.7036855,27.18722600000001" fill="none" instance-id="-1" semantic-id="1" stroke="rgb(89,89,89)" stroke-width="0.1"/>
  <path d="M 71.87568549999997,27.358226000000002 L 72.0476855,27.186226000000005" fill="none" instance-id="-1" semantic-id="1" stroke="rgb(89,89,89)" stroke-width="0.1"/>
  <path d="M 71.87568549999997,39.358226 L 72.0476855,39.186226000000005" fill="none" instance-id="-1" semantic-id="1" stroke="rgb(89,89,89)" stroke-width="0.1"/>
  <path d="M 71.87568549999997,51.358226 L 72.0476855,51.186226000000005" fill="none" instance-id="-1" semantic-id="1" stroke="rgb(89,89,89)" stroke-width="0.1"/>
  <path d="M 71.87568549999997,63.358226 L 72.0476855,63.186226000000005" fill="none" instance-id="-1" semantic-id="1" stroke="rgb(89,89,89)" stroke-width="0.1"/>
  <path d="M 71.87568549999997,75.358226 L 72.0476855,75.186226" fill="none" instance-id="-1" semantic-id="1" stroke="rgb(89,89,89)" stroke-width="0.1"/>
  <path d="M 71.87568549999997,87.358226 L 72.0476855,87.186226" fill="none" instance-id="-1" semantic-id="1" stroke="rgb(89,89,89)" stroke-width="0.1"/>
  <path d="M 71.87568549999997,99.358226 L 72.0476855,99.186226" fill="none" instance-id="-1" semantic-id="1" stroke="rgb(89,89,89)" stroke-width="0.1"/>
  <path d="M 72.16168549999998,89.15822600000001 L 72.0186855,88.87222600000001" fill="none" instance-id="-1" semantic-id="1" stroke="rgb(89,89,89)" stroke-width="0.1"/>
  <path d="M 72.16168549999998,77.15822600000001 L 72.0186855,76.87222600000001" fill="none" instance-id="-1" semantic-id="1" stroke="rgb(89,89,89)" stroke-width="0.1"/>
  <path d="M 72.16168549999998,65.15822600000001 L 72.0186855,64.87222600000001" fill="none" instance-id="-1" semantic-id="1" stroke="rgb(89,89,89)" stroke-width="0.1"/>
  <path d="M 72.16168549999998,53.15822600000001 L 72.0186855,52.87222600000001" fill="none" instance-id="-1" semantic-id="1" stroke="rgb(89,89,89)" stroke-width="0.1"/>
  <path d="M 72.16168549999998,41.15822600000001 L 72.0186855,40.87222600000001" fill="none" instance-id="-1" semantic-id="1" stroke="rgb(89,89,89)" stroke-width="0.1"/>
  <path d="M 72.16168549999998,29.158226000000013 L 72.0186855,28.872226000000012" fill="none" instance-id="-1" semantic-id="1" stroke="rgb(89,89,89)" stroke-width="0.1"/>
  <path d="M 72.0186855,88.87222600000001 L 71.67568549999999,88.87222600000001" fill="none" instance-id="-1" semantic-id="1" stroke="rgb(89,89,89)" stroke-width="0.1"/>
  <path d="M 72.0186855,76.87222600000001 L 71.67568549999999,76.87222600000001" fill="none" instance-id="-1" semantic-id="1" stroke="rgb(89,89,89)" stroke-width="0.1"/>
  <path d="M 72.0186855,64.87222600000001 L 71.67568549999999,64.87222600000001" fill="none" instance-id="-1" semantic-id="1" stroke="rgb(89,89,89)" stroke-width="0.1"/>
  <path d="M 72.0186855,52.87222600000001 L 71.67568549999999,52.87222600000001" fill="none" instance-id="-1" semantic-id="1" stroke="rgb(89,89,89)" stroke-width="0.1"/>
  <path d="M 72.0186855,40.87222600000001 L 71.67568549999999,40.87222600000001" fill="none" instance-id="-1" semantic-id="1" stroke="rgb(89,89,89)" stroke-width="0.1"/>
  <path d="M 72.0186855,28.872226000000012 L 71.67568549999999,28.872226000000012" fill="none" instance-id="-1" semantic-id="1" stroke="rgb(89,89,89)" stroke-width="0.1"/>
  <path d="M 71.53268549999996,29.158226000000013 L 71.67568549999999,28.872226000000012" fill="none" instance-id="-1" semantic-id="1" stroke="rgb(89,89,89)" stroke-width="0.1"/>
  <path d="M 71.53268549999996,41.15822600000001 L 71.67568549999999,40.87222600000001" fill="none" instance-id="-1" semantic-id="1" stroke="rgb(89,89,89)" stroke-width="0.1"/>
  <path d="M 71.53268549999996,53.15822600000001 L 71.67568549999999,52.87222600000001" fill="none" instance-id="-1" semantic-id="1" stroke="rgb(89,89,89)" stroke-width="0.1"/>
  <path d="M 71.53268549999996,65.15822600000001 L 71.67568549999999,64.87222600000001" fill="none" instance-id="-1" semantic-id="1" stroke="rgb(89,89,89)" stroke-width="0.1"/>
  <path d="M 71.53268549999996,77.15822600000001 L 71.67568549999999,76.87222600000001" fill="none" instance-id="-1" semantic-id="1" stroke="rgb(89,89,89)" stroke-width="0.1"/>
  <path d="M 71.53268549999996,89.15822600000001 L 71.67568549999999,88.87222600000001" fill="none" instance-id="-1" semantic-id="1" stroke="rgb(89,89,89)" stroke-width="0.1"/>
  <path d="M 71.67568549999999,89.44322600000001 L 71.53268549999996,89.15822600000001" fill="none" instance-id="-1" semantic-id="1" stroke="rgb(89,89,89)" stroke-width="0.1"/>
  <path d="M 71.67568549999999,77.44322600000001 L 71.53268549999996,77.15822600000001" fill="none" instance-id="-1" semantic-id="1" stroke="rgb(89,89,89)" stroke-width="0.1"/>
  <path d="M 71.67568549999999,65.44322600000001 L 71.53268549999996,65.15822600000001" fill="none" instance-id="-1" semantic-id="1" stroke="rgb(89,89,89)" stroke-width="0.1"/>
  <path d="M 71.67568549999999,53.44322600000001 L 71.53268549999996,53.15822600000001" fill="none" instance-id="-1" semantic-id="1" stroke="rgb(89,89,89)" stroke-width="0.1"/>
  <path d="M 71.67568549999999,41.44322600000001 L 71.53268549999996,41.15822600000001" fill="none" instance-id="-1" semantic-id="1" stroke="rgb(89,89,89)" stroke-width="0.1"/>
  <path d="M 71.67568549999999,29.44322600000001 L 71.53268549999996,29.158226000000013" fill="none" instance-id="-1" semantic-id="1" stroke="rgb(89,89,89)" stroke-width="0.1"/>
  <path d="M 71.67568549999999,29.44322600000001 L 72.0186855,29.44322600000001" fill="none" instance-id="-1" semantic-id="1" stroke="rgb(89,89,89)" stroke-width="0.1"/>
  <path d="M 71.67568549999999,41.44322600000001 L 72.0186855,41.44322600000001" fill="none" instance-id="-1" semantic-id="1" stroke="rgb(89,89,89)" stroke-width="0.1"/>
  <path d="M 71.67568549999999,53.44322600000001 L 72.0186855,53.44322600000001" fill="none" instance-id="-1" semantic-id="1" stroke="rgb(89,89,89)" stroke-width="0.1"/>
  <path d="M 71.67568549999999,65.44322600000001 L 72.0186855,65.44322600000001" fill="none" instance-id="-1" semantic-id="1" stroke="rgb(89,89,89)" stroke-width="0.1"/>
  <path d="M 71.67568549999999,77.44322600000001 L 72.0186855,77.44322600000001" fill="none" instance-id="-1" semantic-id="1" stroke="rgb(89,89,89)" stroke-width="0.1"/>
  <path d="M 71.67568549999999,89.44322600000001 L 72.0186855,89.44322600000001" fill="none" instance-id="-1" semantic-id="1" stroke="rgb(89,89,89)" stroke-width="0.1"/>
  <path d="M 72.0186855,29.444226000000015 L 72.16168549999998,29.158226000000013" fill="none" instance-id="-1" semantic-id="1" stroke="rgb(89,89,89)" stroke-width="0.1"/>
  <path d="M 72.0186855,41.444226000000015 L 72.16168549999998,41.15822600000001" fill="none" instance-id="-1" semantic-id="1" stroke="rgb(89,89,89)" stroke-width="0.1"/>
  <path d="M 72.0186855,53.444226000000015 L 72.16168549999998,53.15822600000001" fill="none" instance-id="-1" semantic-id="1" stroke="rgb(89,89,89)" stroke-width="0.1"/>
  <path d="M 72.0186855,65.44422600000001 L 72.16168549999998,65.15822600000001" fill="none" instance-id="-1" semantic-id="1" stroke="rgb(89,89,89)" stroke-width="0.1"/>
  <path d="M 72.0186855,77.44422600000001 L 72.16168549999998,77.15822600000001" fill="none" instance-id="-1" semantic-id="1" stroke="rgb(89,89,89)" stroke-width="0.1"/>
  <path d="M 72.0186855,89.44422600000001 L 72.16168549999998,89.15822600000001" fill="none" instance-id="-1" semantic-id="1" stroke="rgb(89,89,89)" stroke-width="0.1"/>
  <path d="M 71.41668549999997,97.18122600000001 L 71.30168549999996,96.810226" fill="none" instance-id="-1" semantic-id="1" stroke="rgb(89,89,89)" stroke-width="0.1"/>
  <path d="M 71.41668549999997,85.18122600000001 L 71.30168549999996,84.810226" fill="none" instance-id="-1" semantic-id="1" stroke="rgb(89,89,89)" stroke-width="0.1"/>
  <path d="M 71.41668549999997,73.18122600000001 L 71.30168549999996,72.810226" fill="none" instance-id="-1" semantic-id="1" stroke="rgb(89,89,89)" stroke-width="0.1"/>
  <path d="M 71.41668549999997,61.18122600000001 L 71.30168549999996,60.810226" fill="none" instance-id="-1" semantic-id="1" stroke="rgb(89,89,89)" stroke-width="0.1"/>
  <path d="M 71.41668549999997,49.18122600000001 L 71.30168549999996,48.810226" fill="none" instance-id="-1" semantic-id="1" stroke="rgb(89,89,89)" stroke-width="0.1"/>
  <path d="M 71.41668549999997,37.18122600000001 L 71.30168549999996,36.810226" fill="none" instance-id="-1" semantic-id="1" stroke="rgb(89,89,89)" stroke-width="0.1"/>
  <path d="M 71.41668549999997,25.18122600000001 L 71.32268549999998,24.877226000000007" fill="none" instance-id="-1" semantic-id="1" stroke="rgb(89,89,89)" stroke-width="0.1"/>
  <path d="M 71.28468549999997,96.80222600000002 L 70.96968549999997,96.573226" fill="none" instance-id="-1" semantic-id="1" stroke="rgb(89,89,89)" stroke-width="0.1"/>
  <path d="M 71.28368549999999,84.80222600000002 L 70.96968549999997,84.573226" fill="none" instance-id="-1" semantic-id="1" stroke="rgb(89,89,89)" stroke-width="0.1"/>
  <path d="M 71.28368549999999,72.80222600000002 L 70.96968549999997,72.573226" fill="none" instance-id="-1" semantic-id="1" stroke="rgb(89,89,89)" stroke-width="0.1"/>
  <path d="M 71.28368549999999,60.801226000000014 L 70.96968549999997,60.573226000000005" fill="none" instance-id="-1" semantic-id="1" stroke="rgb(89,89,89)" stroke-width="0.1"/>
  <path d="M 71.28368549999999,48.801226000000014 L 70.96968549999997,48.573226000000005" fill="none" instance-id="-1" semantic-id="1" stroke="rgb(89,89,89)" stroke-width="0.1"/>
  <path d="M 71.28368549999999,36.801226000000014 L 70.96968549999997,36.573226000000005" fill="none" instance-id="-1" semantic-id="1" stroke="rgb(89,89,89)" stroke-width="0.1"/>
  <path d="M 70.98968550000001,96.58622600000001 L 70.61868549999997,96.58622600000001" fill="none" instance-id="-1" semantic-id="1" stroke="rgb(89,89,89)" stroke-width="0.1"/>
  <path d="M 70.98968550000001,84.58622600000001 L 70.61868549999997,84.58622600000001" fill="none" instance-id="-1" semantic-id="1" stroke="rgb(89,89,89)" stroke-width="0.1"/>
  <path d="M 70.98968550000001,72.58622600000001 L 70.61868549999997,72.58622600000001" fill="none" instance-id="-1" semantic-id="1" stroke="rgb(89,89,89)" stroke-width="0.1"/>
  <path d="M 70.98968550000001,60.58622600000001 L 70.61868549999997,60.58622600000001" fill="none" instance-id="-1" semantic-id="1" stroke="rgb(89,89,89)" stroke-width="0.1"/>
  <path d="M 70.98968550000001,48.58622600000001 L 70.61868549999997,48.58622600000001" fill="none" instance-id="-1" semantic-id="1" stroke="rgb(89,89,89)" stroke-width="0.1"/>
  <path d="M 70.98968550000001,36.58622600000001 L 70.61868549999997,36.58622600000001" fill="none" instance-id="-1" semantic-id="1" stroke="rgb(89,89,89)" stroke-width="0.1"/>
  <path d="M 70.41868549999998,36.732226000000026 L 70.6316855,36.577226000000024" fill="none" instance-id="-1" semantic-id="1" stroke="rgb(89,89,89)" stroke-width="0.1"/>
  <path d="M 70.41868549999998,48.732226000000026 L 70.63068549999997,48.577226000000024" fill="none" instance-id="-1" semantic-id="1" stroke="rgb(89,89,89)" stroke-width="0.1"/>
  <path d="M 70.41868549999998,60.732226000000026 L 70.63068549999997,60.577226000000024" fill="none" instance-id="-1" semantic-id="1" stroke="rgb(89,89,89)" stroke-width="0.1"/>
  <path d="M 70.41868549999998,72.73222600000003 L 70.63068549999997,72.57722600000002" fill="none" instance-id="-1" semantic-id="1" stroke="rgb(89,89,89)" stroke-width="0.1"/>
  <path d="M 70.41868549999998,84.73222600000003 L 70.63068549999997,84.578226" fill="none" instance-id="-1" semantic-id="1" stroke="rgb(89,89,89)" stroke-width="0.1"/>
  <path d="M 70.41868549999998,96.73222600000003 L 70.63068549999997,96.578226" fill="none" instance-id="-1" semantic-id="1" stroke="rgb(89,89,89)" stroke-width="0.1"/>
  <path d="M 70.59868549999999,97.745226 L 70.41868549999998,97.614226" fill="none" instance-id="-1" semantic-id="1" stroke="rgb(89,89,89)" stroke-width="0.1"/>
  <path d="M 70.59868549999999,85.74422600000003 L 70.41868549999998,85.614226" fill="none" instance-id="-1" semantic-id="1" stroke="rgb(89,89,89)" stroke-width="0.1"/>
  <path d="M 70.59868549999999,73.74422600000003 L 70.41868549999998,73.614226" fill="none" instance-id="-1" semantic-id="1" stroke="rgb(89,89,89)" stroke-width="0.1"/>
  <path d="M 70.59768549999995,61.744226000000026 L 70.41868549999998,61.614226" fill="none" instance-id="-1" semantic-id="1" stroke="rgb(89,89,89)" stroke-width="0.1"/>
  <path d="M 70.59768549999995,49.744226000000026 L 70.41868549999998,49.614226" fill="none" instance-id="-1" semantic-id="1" stroke="rgb(89,89,89)" stroke-width="0.1"/>
  <path d="M 70.59768549999995,37.744226000000026 L 70.41868549999998,37.614226" fill="none" instance-id="-1" semantic-id="1" stroke="rgb(89,89,89)" stroke-width="0.1"/>
  <path d="M 70.59768549999995,25.744226000000026 L 70.41868549999998,25.614226000000002" fill="none" instance-id="-1" semantic-id="1" stroke="rgb(89,89,89)" stroke-width="0.1"/>
  <path d="M 70.61868549999997,25.758226000000008 L 70.98968550000001,25.758226000000008" fill="none" instance-id="-1" semantic-id="1" stroke="rgb(89,89,89)" stroke-width="0.1"/>
  <path d="M 70.61868549999997,37.75822600000001 L 70.98968550000001,37.75822600000001" fill="none" instance-id="-1" semantic-id="1" stroke="rgb(89,89,89)" stroke-width="0.1"/>
  <path d="M 70.61868549999997,49.75822600000001 L 70.98968550000001,49.75822600000001" fill="none" instance-id="-1" semantic-id="1" stroke="rgb(89,89,89)" stroke-width="0.1"/>
  <path d="M 70.61868549999997,61.75822600000001 L 70.98968550000001,61.75822600000001" fill="none" instance-id="-1" semantic-id="1" stroke="rgb(89,89,89)" stroke-width="0.1"/>
  <path d="M 70.61868549999997,73.75822600000001 L 70.98968550000001,73.75822600000001" fill="none" instance-id="-1" semantic-id="1" stroke="rgb(89,89,89)" stroke-width="0.1"/>
  <path d="M 70.61868549999997,85.75822600000001 L 70.98968550000001,85.75822600000001" fill="none" instance-id="-1" semantic-id="1" stroke="rgb(89,89,89)" stroke-width="0.1"/>
  <path d="M 70.61868549999997,97.75822600000001 L 70.98968550000001,97.75822600000001" fill="none" instance-id="-1" semantic-id="1" stroke="rgb(89,89,89)" stroke-width="0.1"/>
  <path d="M 71.00268549999998,25.74922600000002 L 71.3166855,25.520226000000008" fill="none" instance-id="-1" semantic-id="1" stroke="rgb(89,89,89)" stroke-width="0.1"/>
  <path d="M 71.00268549999998,37.74922600000002 L 71.3166855,37.52022600000001" fill="none" instance-id="-1" semantic-id="1" stroke="rgb(89,89,89)" stroke-width="0.1"/>
  <path d="M 71.00268549999998,49.74922600000002 L 71.3166855,49.52022600000001" fill="none" instance-id="-1" semantic-id="1" stroke="rgb(89,89,89)" stroke-width="0.1"/>
  <path d="M 71.00268549999998,61.74922600000002 L 71.3166855,61.52022600000001" fill="none" instance-id="-1" semantic-id="1" stroke="rgb(89,89,89)" stroke-width="0.1"/>
  <path d="M 71.00268549999998,73.74922600000002 L 71.3166855,73.52022600000001" fill="none" instance-id="-1" semantic-id="1" stroke="rgb(89,89,89)" stroke-width="0.1"/>
  <path d="M 71.00168550000001,85.74922600000002 L 71.3166855,85.52022600000001" fill="none" instance-id="-1" semantic-id="1" stroke="rgb(89,89,89)" stroke-width="0.1"/>
  <path d="M 71.00168550000001,97.74922600000002 L 71.3166855,97.52122600000001" fill="none" instance-id="-1" semantic-id="1" stroke="rgb(89,89,89)" stroke-width="0.1"/>
  <path d="M 71.3046855,25.529226000000023 L 71.41868549999998,25.186226000000005" fill="none" instance-id="-1" semantic-id="1" stroke="rgb(89,89,89)" stroke-width="0.1"/>
  <path d="M 71.3046855,37.52922600000002 L 71.41868549999998,37.186226000000005" fill="none" instance-id="-1" semantic-id="1" stroke="rgb(89,89,89)" stroke-width="0.1"/>
  <path d="M 71.3046855,49.52922600000002 L 71.41868549999998,49.186226000000005" fill="none" instance-id="-1" semantic-id="1" stroke="rgb(89,89,89)" stroke-width="0.1"/>
  <path d="M 71.3046855,61.52922600000002 L 71.41868549999998,61.186226000000005" fill="none" instance-id="-1" semantic-id="1" stroke="rgb(89,89,89)" stroke-width="0.1"/>
  <path d="M 71.3046855,73.52922600000002 L 71.41868549999998,73.186226" fill="none" instance-id="-1" semantic-id="1" stroke="rgb(89,89,89)" stroke-width="0.1"/>
  <path d="M 71.3046855,85.52922600000002 L 71.41868549999998,85.186226" fill="none" instance-id="-1" semantic-id="1" stroke="rgb(89,89,89)" stroke-width="0.1"/>
  <path d="M 71.3046855,97.52922600000002 L 71.41868549999998,97.186226" fill="none" instance-id="-1" semantic-id="1" stroke="rgb(89,89,89)" stroke-width="0.1"/>
  <path d="M 71.4756855,94.387226 L 71.27568550000001,94.27222600000002" fill="none" instance-id="-1" semantic-id="1" stroke="rgb(89,89,89)" stroke-width="0.1"/>
  <path d="M 71.4756855,82.387226 L 71.27568550000001,82.27222600000002" fill="none" instance-id="-1" semantic-id="1" stroke="rgb(89,89,89)" stroke-width="0.1"/>
  <path d="M 71.4756855,70.387226 L 71.27568550000001,70.27222600000002" fill="none" instance-id="-1" semantic-id="1" stroke="rgb(89,89,89)" stroke-width="0.1"/>
  <path d="M 71.4756855,58.387226 L 71.27568550000001,58.27222600000002" fill="none" instance-id="-1" semantic-id="1" stroke="rgb(89,89,89)" stroke-width="0.1"/>
  <path d="M 71.4756855,46.387226 L 71.27568550000001,46.27222600000002" fill="none" instance-id="-1" semantic-id="1" stroke="rgb(89,89,89)" stroke-width="0.1"/>
  <path d="M 71.4756855,34.387226 L 71.27568550000001,34.27222600000002" fill="none" instance-id="-1" semantic-id="1" stroke="rgb(89,89,89)" stroke-width="0.1"/>
  <path d="M 71.27568550000001,94.501226 L 71.27568550000001,94.27222600000002" fill="none" instance-id="-1" semantic-id="1" stroke="rgb(89,89,89)" stroke-width="0.1"/>
  <path d="M 71.27568550000001,82.501226 L 71.27568550000001,82.27222600000002" fill="none" instance-id="-1" semantic-id="1" stroke="rgb(89,89,89)" stroke-width="0.1"/>
  <path d="M 71.27568550000001,70.501226 L 71.27568550000001,70.27222600000002" fill="none" instance-id="-1" semantic-id="1" stroke="rgb(89,89,89)" stroke-width="0.1"/>
  <path d="M 71.27568550000001,58.501226 L 71.27568550000001,58.27222600000002" fill="none" instance-id="-1" semantic-id="1" stroke="rgb(89,89,89)" stroke-width="0.1"/>
  <path d="M 71.27568550000001,46.501226 L 71.27568550000001,46.27222600000002" fill="none" instance-id="-1" semantic-id="1" stroke="rgb(89,89,89)" stroke-width="0.1"/>
  <path d="M 71.27568550000001,34.501226 L 71.27568550000001,34.27222600000002" fill="none" instance-id="-1" semantic-id="1" stroke="rgb(89,89,89)" stroke-width="0.1"/>
  <path d="M 71.27568550000001,34.501226 L 71.4756855,34.38622600000002" fill="none" instance-id="-1" semantic-id="1" stroke="rgb(89,89,89)" stroke-width="0.1"/>
  <path d="M 71.27568550000001,46.501226 L 71.4756855,46.38622600000002" fill="none" instance-id="-1" semantic-id="1" stroke="rgb(89,89,89)" stroke-width="0.1"/>
  <path d="M 71.27568550000001,58.501226 L 71.4756855,58.38622600000002" fill="none" instance-id="-1" semantic-id="1" stroke="rgb(89,89,89)" stroke-width="0.1"/>
  <path d="M 71.27568550000001,70.501226 L 71.4756855,70.38622600000002" fill="none" instance-id="-1" semantic-id="1" stroke="rgb(89,89,89)" stroke-width="0.1"/>
  <path d="M 71.27568550000001,82.501226 L 71.4756855,82.38622600000002" fill="none" instance-id="-1" semantic-id="1" stroke="rgb(89,89,89)" stroke-width="0.1"/>
  <path d="M 71.27568550000001,94.501226 L 71.4756855,94.38622600000002" fill="none" instance-id="-1" semantic-id="1" stroke="rgb(89,89,89)" stroke-width="0.1"/>
  <path d="M 72.41868549999998,92.786226 L 72.41868549999998,92.501226" fill="none" instance-id="-1" semantic-id="1" stroke="rgb(89,89,89)" stroke-width="0.1"/>
  <path d="M 72.41868549999998,80.786226 L 72.41868549999998,80.501226" fill="none" instance-id="-1" semantic-id="1" stroke="rgb(89,89,89)" stroke-width="0.1"/>
  <path d="M 72.41868549999998,68.786226 L 72.41868549999998,68.501226" fill="none" instance-id="-1" semantic-id="1" stroke="rgb(89,89,89)" stroke-width="0.1"/>
  <path d="M 72.41868549999998,56.786226 L 72.41868549999998,56.501226" fill="none" instance-id="-1" semantic-id="1" stroke="rgb(89,89,89)" stroke-width="0.1"/>
  <path d="M 72.41868549999998,44.786226 L 72.41868549999998,44.501226" fill="none" instance-id="-1" semantic-id="1" stroke="rgb(89,89,89)" stroke-width="0.1"/>
  <path d="M 72.41868549999998,32.786226 L 72.41868549999998,32.501226" fill="none" instance-id="-1" semantic-id="1" stroke="rgb(89,89,89)" stroke-width="0.1"/>
  <path d="M 72.41868549999998,92.78822600000001 L 72.38868550000001,92.762226" fill="none" stroke="rgb(89,89,89)" stroke-width="0.1"/>
  <path d="M 72.41868549999998,80.78822600000001 L 72.38868550000001,80.762226" fill="none" stroke="rgb(89,89,89)" stroke-width="0.1"/>
  <path d="M 72.41868549999998,68.78822600000001 L 72.38868550000001,68.762226" fill="none" stroke="rgb(89,89,89)" stroke-width="0.1"/>
  <path d="M 72.41868549999998,56.78822600000001 L 72.38868550000001,56.76122600000002" fill="none" stroke="rgb(89,89,89)" stroke-width="0.1"/>
  <path d="M 72.41868549999998,44.78822600000001 L 72.38768549999998,44.76122600000002" fill="none" stroke="rgb(89,89,89)" stroke-width="0.1"/>
  <path d="M 72.41868549999998,32.78822600000001 L 72.38768549999998,32.76122600000002" fill="none" stroke="rgb(89,89,89)" stroke-width="0.1"/>
  <path d="M 70.55868549999997,90.126226 L 70.44468549999999,89.81222600000001" fill="none" instance-id="-1" semantic-id="1" stroke="rgb(89,89,89)" stroke-width="0.1"/>
  <path d="M 70.55868549999997,78.126226 L 70.44468549999999,77.81222600000001" fill="none" instance-id="-1" semantic-id="1" stroke="rgb(89,89,89)" stroke-width="0.1"/>
  <path d="M 70.55868549999997,66.126226 L 70.44468549999999,65.81222600000001" fill="none" instance-id="-1" semantic-id="1" stroke="rgb(89,89,89)" stroke-width="0.1"/>
  <path d="M 70.55868549999997,54.126226 L 70.44468549999999,53.81222600000001" fill="none" instance-id="-1" semantic-id="1" stroke="rgb(89,89,89)" stroke-width="0.1"/>
  <path d="M 70.55868549999997,42.126226 L 70.44368549999996,41.81222600000001" fill="none" instance-id="-1" semantic-id="1" stroke="rgb(89,89,89)" stroke-width="0.1"/>
  <path d="M 70.55868549999997,30.126226000000003 L 70.44368549999996,29.81222600000001" fill="none" instance-id="-1" semantic-id="1" stroke="rgb(89,89,89)" stroke-width="0.1"/>
  <path d="M 70.43568549999998,89.81322600000001 L 70.41868549999998,89.805226" fill="none" stroke="rgb(89,89,89)" stroke-width="0.1"/>
  <path d="M 70.4346855,77.81322600000001 L 70.41868549999998,77.80622600000001" fill="none" stroke="rgb(89,89,89)" stroke-width="0.1"/>
  <path d="M 70.4346855,65.81322600000001 L 70.41868549999998,65.80622600000001" fill="none" stroke="rgb(89,89,89)" stroke-width="0.1"/>
  <path d="M 70.4346855,53.813226000000014 L 70.41868549999998,53.80622600000001" fill="none" stroke="rgb(89,89,89)" stroke-width="0.1"/>
  <path d="M 70.4346855,41.813226000000014 L 70.41868549999998,41.80622600000001" fill="none" stroke="rgb(89,89,89)" stroke-width="0.1"/>
  <path d="M 70.4346855,29.813226000000014 L 70.41868549999998,29.80622600000001" fill="none" stroke="rgb(89,89,89)" stroke-width="0.1"/>
  <path d="M 70.41868549999998,30.454226000000006 L 70.44968549999999,30.44322600000001" fill="none" stroke="rgb(89,89,89)" stroke-width="0.1"/>
  <path d="M 70.41868549999998,42.454226000000006 L 70.44968549999999,42.44322600000001" fill="none" stroke="rgb(89,89,89)" stroke-width="0.1"/>
  <path d="M 70.41868549999998,54.454226000000006 L 70.44868549999995,54.44322600000001" fill="none" stroke="rgb(89,89,89)" stroke-width="0.1"/>
  <path d="M 70.41868549999998,66.454226 L 70.44868549999995,66.44322600000001" fill="none" stroke="rgb(89,89,89)" stroke-width="0.1"/>
  <path d="M 70.41868549999998,78.454226 L 70.44868549999995,78.44322600000001" fill="none" stroke="rgb(89,89,89)" stroke-width="0.1"/>
  <path d="M 70.41868549999998,90.454226 L 70.44868549999995,90.44322600000001" fill="none" stroke="rgb(89,89,89)" stroke-width="0.1"/>
  <path d="M 70.44768549999998,30.44322600000001 L 70.56168549999995,30.129226000000017" fill="none" instance-id="-1" semantic-id="1" stroke="rgb(89,89,89)" stroke-width="0.1"/>
  <path d="M 70.44768549999998,42.44322600000001 L 70.56168549999995,42.12922600000002" fill="none" instance-id="-1" semantic-id="1" stroke="rgb(89,89,89)" stroke-width="0.1"/>
  <path d="M 70.44768549999998,54.44322600000001 L 70.56168549999995,54.12922600000002" fill="none" instance-id="-1" semantic-id="1" stroke="rgb(89,89,89)" stroke-width="0.1"/>
  <path d="M 70.44768549999998,66.44322600000001 L 70.56168549999995,66.12922600000002" fill="none" instance-id="-1" semantic-id="1" stroke="rgb(89,89,89)" stroke-width="0.1"/>
  <path d="M 70.44768549999998,78.44322600000001 L 70.56168549999995,78.12922600000002" fill="none" instance-id="-1" semantic-id="1" stroke="rgb(89,89,89)" stroke-width="0.1"/>
  <path d="M 70.44768549999998,90.44322600000001 L 70.56168549999995,90.12922600000002" fill="none" instance-id="-1" semantic-id="1" stroke="rgb(89,89,89)" stroke-width="0.1"/>
  <path d="M 72.39068549999996,30.529226000000023 L 72.41868549999998,30.520226000000008" fill="none" stroke="rgb(89,89,89)" stroke-width="0.1"/>
  <path d="M 72.39068549999996,42.52922600000002 L 72.41868549999998,42.52022600000001" fill="none" stroke="rgb(89,89,89)" stroke-width="0.1"/>
  <path d="M 72.39068549999996,54.52922600000002 L 72.41868549999998,54.52022600000001" fill="none" stroke="rgb(89,89,89)" stroke-width="0.1"/>
  <path d="M 72.39068549999996,66.52922600000002 L 72.41868549999998,66.52022600000001" fill="none" stroke="rgb(89,89,89)" stroke-width="0.1"/>
  <path d="M 72.39068549999996,78.52922600000002 L 72.41868549999998,78.52022600000001" fill="none" stroke="rgb(89,89,89)" stroke-width="0.1"/>
  <path d="M 72.39068549999996,90.52922600000002 L 72.41868549999998,90.52022600000001" fill="none" stroke="rgb(89,89,89)" stroke-width="0.1"/>
  <path d="M 72.38968549999998,90.786226 L 72.38968549999998,90.52922600000002" fill="none" instance-id="-1" semantic-id="1" stroke="rgb(89,89,89)" stroke-width="0.1"/>
  <path d="M 72.38968549999998,78.786226 L 72.38968549999998,78.52922600000002" fill="none" instance-id="-1" semantic-id="1" stroke="rgb(89,89,89)" stroke-width="0.1"/>
  <path d="M 72.38968549999998,66.786226 L 72.38968549999998,66.52922600000002" fill="none" instance-id="-1" semantic-id="1" stroke="rgb(89,89,89)" stroke-width="0.1"/>
  <path d="M 72.38968549999998,54.786226 L 72.38968549999998,54.52922600000002" fill="none" instance-id="-1" semantic-id="1" stroke="rgb(89,89,89)" stroke-width="0.1"/>
  <path d="M 72.38968549999998,42.786226 L 72.38968549999998,42.52922600000002" fill="none" instance-id="-1" semantic-id="1" stroke="rgb(89,89,89)" stroke-width="0.1"/>
  <path d="M 72.38968549999998,30.786226 L 72.38968549999998,30.529226000000023" fill="none" instance-id="-1" semantic-id="1" stroke="rgb(89,89,89)" stroke-width="0.1"/>
  <path d="M 72.41868549999998,90.79722600000002 L 72.38968549999998,90.787226" fill="none" stroke="rgb(89,89,89)" stroke-width="0.1"/>
  <path d="M 72.41868549999998,78.79722600000002 L 72.38968549999998,78.787226" fill="none" stroke="rgb(89,89,89)" stroke-width="0.1"/>
  <path d="M 72.41868549999998,66.79722600000002 L 72.38968549999998,66.787226" fill="none" stroke="rgb(89,89,89)" stroke-width="0.1"/>
  <path d="M 72.41868549999998,54.79722600000002 L 72.38968549999998,54.787226000000004" fill="none" stroke="rgb(89,89,89)" stroke-width="0.1"/>
  <path d="M 72.41868549999998,42.79722600000002 L 72.38968549999998,42.787226000000004" fill="none" stroke="rgb(89,89,89)" stroke-width="0.1"/>
  <path d="M 72.41868549999998,30.797226000000023 L 72.38968549999998,30.787226000000004" fill="none" stroke="rgb(89,89,89)" stroke-width="0.1"/>
  <path d="M 71.04668549999997,92.12922600000002 L 70.90468549999997,91.84322600000002" fill="none" instance-id="-1" semantic-id="1" stroke="rgb(89,89,89)" stroke-width="0.1"/>
  <path d="M 71.04668549999997,80.12922600000002 L 70.90468549999997,79.84322600000002" fill="none" instance-id="-1" semantic-id="1" stroke="rgb(89,89,89)" stroke-width="0.1"/>
  <path d="M 71.04668549999997,68.12922600000002 L 70.90468549999997,67.84322600000002" fill="none" instance-id="-1" semantic-id="1" stroke="rgb(89,89,89)" stroke-width="0.1"/>
  <path d="M 71.04668549999997,56.12922600000002 L 70.90468549999997,55.843226000000016" fill="none" instance-id="-1" semantic-id="1" stroke="rgb(89,89,89)" stroke-width="0.1"/>
  <path d="M 71.04668549999997,44.12922600000002 L 70.90468549999997,43.843226000000016" fill="none" instance-id="-1" semantic-id="1" stroke="rgb(89,89,89)" stroke-width="0.1"/>
  <path d="M 71.04668549999997,32.12922600000002 L 70.90468549999997,31.843226000000016" fill="none" instance-id="-1" semantic-id="1" stroke="rgb(89,89,89)" stroke-width="0.1"/>
  <path d="M 70.90468549999997,91.84322600000002 L 70.58968549999997,91.84322600000002" fill="none" instance-id="-1" semantic-id="1" stroke="rgb(89,89,89)" stroke-width="0.1"/>
  <path d="M 70.90468549999997,79.84322600000002 L 70.58968549999997,79.84322600000002" fill="none" instance-id="-1" semantic-id="1" stroke="rgb(89,89,89)" stroke-width="0.1"/>
  <path d="M 70.90468549999997,67.84322600000002 L 70.58968549999997,67.84322600000002" fill="none" instance-id="-1" semantic-id="1" stroke="rgb(89,89,89)" stroke-width="0.1"/>
  <path d="M 70.90468549999997,55.843226000000016 L 70.58968549999997,55.843226000000016" fill="none" instance-id="-1" semantic-id="1" stroke="rgb(89,89,89)" stroke-width="0.1"/>
  <path d="M 70.90468549999997,43.843226000000016 L 70.58968549999997,43.843226000000016" fill="none" instance-id="-1" semantic-id="1" stroke="rgb(89,89,89)" stroke-width="0.1"/>
  <path d="M 70.90468549999997,31.843226000000016 L 70.58968549999997,31.843226000000016" fill="none" instance-id="-1" semantic-id="1" stroke="rgb(89,89,89)" stroke-width="0.1"/>
  <path d="M 70.41868549999998,32.12922600000002 L 70.5906855,31.843226000000016" fill="none" instance-id="-1" semantic-id="1" stroke="rgb(89,89,89)" stroke-width="0.1"/>
  <path d="M 70.41868549999998,44.12922600000002 L 70.5906855,43.843226000000016" fill="none" instance-id="-1" semantic-id="1" stroke="rgb(89,89,89)" stroke-width="0.1"/>
  <path d="M 70.41868549999998,56.12922600000002 L 70.5906855,55.843226000000016" fill="none" instance-id="-1" semantic-id="1" stroke="rgb(89,89,89)" stroke-width="0.1"/>
  <path d="M 70.41868549999998,68.12922600000002 L 70.5906855,67.84322600000002" fill="none" instance-id="-1" semantic-id="1" stroke="rgb(89,89,89)" stroke-width="0.1"/>
  <path d="M 70.41868549999998,80.12922600000002 L 70.5906855,79.84322600000002" fill="none" instance-id="-1" semantic-id="1" stroke="rgb(89,89,89)" stroke-width="0.1"/>
  <path d="M 70.41868549999998,92.12922600000002 L 70.5906855,91.84322600000002" fill="none" instance-id="-1" semantic-id="1" stroke="rgb(89,89,89)" stroke-width="0.1"/>
  <path d="M 70.5886855,92.41522600000002 L 70.41868549999998,92.131226" fill="none" instance-id="-1" semantic-id="1" stroke="rgb(89,89,89)" stroke-width="0.1"/>
  <path d="M 70.5886855,80.41522600000002 L 70.41868549999998,80.131226" fill="none" instance-id="-1" semantic-id="1" stroke="rgb(89,89,89)" stroke-width="0.1"/>
  <path d="M 70.5886855,68.41522600000002 L 70.41868549999998,68.131226" fill="none" instance-id="-1" semantic-id="1" stroke="rgb(89,89,89)" stroke-width="0.1"/>
  <path d="M 70.5886855,56.41522600000002 L 70.41868549999998,56.131226" fill="none" instance-id="-1" semantic-id="1" stroke="rgb(89,89,89)" stroke-width="0.1"/>
  <path d="M 70.5886855,44.41522600000002 L 70.41868549999998,44.131226" fill="none" instance-id="-1" semantic-id="1" stroke="rgb(89,89,89)" stroke-width="0.1"/>
  <path d="M 70.5886855,32.41522600000002 L 70.41868549999998,32.131226" fill="none" instance-id="-1" semantic-id="1" stroke="rgb(89,89,89)" stroke-width="0.1"/>
  <path d="M 70.58968549999997,32.41522600000002 L 70.90468549999997,32.41522600000002" fill="none" instance-id="-1" semantic-id="1" stroke="rgb(89,89,89)" stroke-width="0.1"/>
  <path d="M 70.58968549999997,44.41522600000002 L 70.90468549999997,44.41522600000002" fill="none" instance-id="-1" semantic-id="1" stroke="rgb(89,89,89)" stroke-width="0.1"/>
  <path d="M 70.58968549999997,56.41522600000002 L 70.90468549999997,56.41522600000002" fill="none" instance-id="-1" semantic-id="1" stroke="rgb(89,89,89)" stroke-width="0.1"/>
  <path d="M 70.58968549999997,68.41522600000002 L 70.90468549999997,68.41522600000002" fill="none" instance-id="-1" semantic-id="1" stroke="rgb(89,89,89)" stroke-width="0.1"/>
  <path d="M 70.58968549999997,80.41522600000002 L 70.90468549999997,80.41522600000002" fill="none" instance-id="-1" semantic-id="1" stroke="rgb(89,89,89)" stroke-width="0.1"/>
  <path d="M 70.58968549999997,92.41522600000002 L 70.90468549999997,92.41522600000002" fill="none" instance-id="-1" semantic-id="1" stroke="rgb(89,89,89)" stroke-width="0.1"/>
  <path d="M 70.90468549999997,32.41522600000002 L 71.04668549999997,32.12922600000002" fill="none" instance-id="-1" semantic-id="1" stroke="rgb(89,89,89)" stroke-width="0.1"/>
  <path d="M 70.90468549999997,44.41522600000002 L 71.04668549999997,44.12922600000002" fill="none" instance-id="-1" semantic-id="1" stroke="rgb(89,89,89)" stroke-width="0.1"/>
  <path d="M 70.90468549999997,56.41522600000002 L 71.04668549999997,56.12922600000002" fill="none" instance-id="-1" semantic-id="1" stroke="rgb(89,89,89)" stroke-width="0.1"/>
  <path d="M 70.90468549999997,68.41522600000002 L 71.04668549999997,68.12922600000002" fill="none" instance-id="-1" semantic-id="1" stroke="rgb(89,89,89)" stroke-width="0.1"/>
  <path d="M 70.90468549999997,80.41522600000002 L 71.04668549999997,80.12922600000002" fill="none" instance-id="-1" semantic-id="1" stroke="rgb(89,89,89)" stroke-width="0.1"/>
  <path d="M 70.90468549999997,92.41522600000002 L 71.04668549999997,92.12922600000002" fill="none" instance-id="-1" semantic-id="1" stroke="rgb(89,89,89)" stroke-width="0.1"/>
  <path d="M 70.41868549999998,24.877226000000007 L 70.41868549999998,100.0" fill="none" instance-id="-1" semantic-id="1" stroke="rgb(89,89,89)" stroke-width="0.1"/>
  <path d="M 72.41868549999998,100.0 L 72.41868549999998,24.877226000000007" fill="none" instance-id="-1" semantic-id="1" stroke="rgb(89,89,89)" stroke-width="0.1"/>
  <path d="M 72.41868549999998,24.877226000000007 L 70.41868549999998,24.877226000000007" fill="none" instance-id="-1" semantic-id="1" stroke="rgb(89,89,89)" stroke-width="0.1"/>
 </g>
 <g id="layerS-通用-钢次梁" inkscape:groupmode="layer" inkscape:label="S-通用-钢次梁">
  <path d="M 82.16868549999998,60.77722600000001 L 86.66868549999998,60.77722600000001" fill="none" stroke="rgb(0,178,0)" stroke-width="0.1"/>
  <path d="M 86.66868549999998,60.77722600000001 L 86.66868549999998,48.577226000000024" fill="none" stroke="rgb(0,178,0)" stroke-width="0.1"/>
  <path d="M 86.66868549999998,48.577226000000024 L 82.16868549999998,48.577226000000024" fill="none" stroke="rgb(0,178,0)" stroke-width="0.1"/>
  <path d="M 82.16868549999998,48.577226000000024 L 82.16868549999998,60.77722600000001" fill="none" stroke="rgb(0,178,0)" stroke-width="0.1"/>
  <path d="M 82.36868549999997,60.577226000000024 L 86.46868549999999,60.577226000000024" fill="none" stroke="rgb(0,178,0)" stroke-width="0.1"/>
  <path d="M 86.46868549999999,60.577226000000024 L 86.46868549999999,48.77722600000001" fill="none" stroke="rgb(0,178,0)" stroke-width="0.1"/>
  <path d="M 86.46868549999999,48.77722600000001 L 82.36868549999997,48.77722600000001" fill="none" stroke="rgb(0,178,0)" stroke-width="0.1"/>
  <path d="M 82.36868549999997,48.77722600000001 L 82.36868549999997,60.577226000000024" fill="none" stroke="rgb(0,178,0)" stroke-width="0.1"/>
 </g>
 <g id="layerSTAIR" inkscape:groupmode="layer" inkscape:label="STAIR">
  <path d="M 100.0,44.87222600000001 L 86.3576855,44.87222600000001" fill="none" stroke="rgb(178,133,0)" stroke-width="0.1"/>
  <path d="M 92.9226855,44.87222600000001 L 92.9226855,100.0" fill="none" stroke="rgb(178,133,0)" stroke-width="0.1"/>
  <path d="M 92.9226855,44.87222600000001 L 92.9226855,42.87222600000001" fill="none" stroke="rgb(178,133,0)" stroke-width="0.1"/>
  <path d="M 92.9226855,42.87222600000001 L 100.0,42.87222600000001" fill="none" stroke="rgb(178,133,0)" stroke-width="0.1"/>
 </g>
 <g id="layerWALL" inkscape:groupmode="layer" inkscape:label="WALL">
  <path d="M 72.41868549999998,24.877226000000007 L 72.41868549999998,100.0" fill="none" instance-id="-1" semantic-id="1" stroke="rgb(178,0,0)" stroke-width="0.1"/>
  <path d="M 70.41868549999998,24.877226000000007 L 70.41868549999998,100.0" fill="none" instance-id="-1" semantic-id="1" stroke="rgb(178,0,0)" stroke-width="0.1"/>
  <path d="M 72.41868549999998,24.877226000000007 L 70.41868549999998,24.877226000000007" fill="none" instance-id="-1" semantic-id="1" stroke="rgb(178,0,0)" stroke-width="0.1"/>
 </g>
 <g id="layer轴网$0$DOTE" inkscape:groupmode="layer" inkscape:label="轴网$0$DOTE">
  <path d="M 34.41868549999998,100.0 L 34.41868549999998,0.0" fill="none" stroke="rgb(92,92,92)" stroke-width="0.1"/>
  <path d="M 0.0,42.87222600000001 L 100.0,42.87222600000001" fill="none" stroke="rgb(92,92,92)" stroke-width="0.1"/>
 </g>
</svg>