<?xml version="1.0" encoding="utf-8"?>
<svg style="background-color: #000;" version="1.1" viewBox="0 0 100.0 100.0" xmlns="http://www.w3.org/2000/svg" xmlns:inkscape="http://www.inkscape.org/namespaces/inkscape">
 <g id="layer0" inkscape:groupmode="layer" inkscape:label="0">
  <path d="M 7.4867550000000165,50.704800999999975 L 7.438755000000015,50.61180099999996" fill="none" stroke="rgb(92,92,92)" stroke-width="0.1"/>
  <path d="M 9.630755000000022,51.37080099999997 L 8.104754999999955,48.46780100000001" fill="none" stroke="rgb(92,92,92)" stroke-width="0.1"/>
  <path d="M 11.339754999999968,51.208800999999994 L 8.771754999999985,46.323801" fill="none" stroke="rgb(92,92,92)" stroke-width="0.1"/>
  <path d="M 12.005755000000022,49.065800999999965 L 9.437755000000038,44.179801" fill="none" stroke="rgb(92,92,92)" stroke-width="0.1"/>
  <path d="M 12.672755000000052,46.92180099999996 L 10.104754999999955,42.03580099999999" fill="none" stroke="rgb(92,92,92)" stroke-width="0.1"/>
  <path d="M 13.338754999999992,44.77780100000001 L 10.770755000000008,39.89180099999999" fill="none" stroke="rgb(92,92,92)" stroke-width="0.1"/>
  <path d="M 14.005755000000022,42.633801000000005 L 11.437755000000038,37.74880099999996" fill="none" stroke="rgb(92,92,92)" stroke-width="0.1"/>
  <path d="M 14.672755000000052,40.489801 L 12.103754999999978,35.60480100000001" fill="none" stroke="rgb(92,92,92)" stroke-width="0.1"/>
  <path d="M 15.338754999999992,38.345800999999994 L 12.770755000000008,33.460801000000004" fill="none" stroke="rgb(92,92,92)" stroke-width="0.1"/>
  <path d="M 16.005755000000022,36.202800999999965 L 13.437755000000038,31.316800999999998" fill="none" stroke="rgb(92,92,92)" stroke-width="0.1"/>
  <path d="M 16.671754999999962,34.05880099999996 L 14.103754999999978,29.172800999999993" fill="none" stroke="rgb(92,92,92)" stroke-width="0.1"/>
  <path d="M 17.338754999999992,31.91480100000001 L 14.770755000000008,27.028800999999987" fill="none" stroke="rgb(92,92,92)" stroke-width="0.1"/>
  <path d="M 18.004755000000046,29.770801000000006 L 15.436754999999948,24.885800999999958" fill="none" stroke="rgb(92,92,92)" stroke-width="0.1"/>
  <path d="M 18.671754999999962,27.626801 L 16.10375499999998,22.74180100000001" fill="none" stroke="rgb(92,92,92)" stroke-width="0.1"/>
  <path d="M 19.337755000000016,25.482800999999995 L 16.769755000000032,20.597801000000004" fill="none" stroke="rgb(92,92,92)" stroke-width="0.1"/>
  <path d="M 20.004755000000046,23.339800999999966 L 17.43675499999995,18.453801" fill="none" stroke="rgb(92,92,92)" stroke-width="0.1"/>
  <path d="M 20.670754999999986,21.19580099999996 L 18.102755000000002,16.309800999999993" fill="none" stroke="rgb(92,92,92)" stroke-width="0.1"/>
  <path d="M 21.337755000000016,19.05180100000001 L 18.769755000000032,14.165800999999988" fill="none" stroke="rgb(92,92,92)" stroke-width="0.1"/>
  <path d="M 22.004755000000046,16.907801000000006 L 19.43675499999995,12.022800999999959" fill="none" stroke="rgb(92,92,92)" stroke-width="0.1"/>
  <path d="M 22.670754999999986,14.763801 L 20.102755000000002,9.87880100000001" fill="none" stroke="rgb(92,92,92)" stroke-width="0.1"/>
  <path d="M 23.337755000000016,12.619800999999995 L 20.769755000000032,7.7348010000000045" fill="none" stroke="rgb(92,92,92)" stroke-width="0.1"/>
  <path d="M 24.003754999999956,10.476800999999966 L 21.435754999999972,5.590800999999999" fill="none" stroke="rgb(92,92,92)" stroke-width="0.1"/>
  <path d="M 24.670754999999986,8.33280099999996 L 22.102755000000002,3.4468009999999936" fill="none" stroke="rgb(92,92,92)" stroke-width="0.1"/>
  <path d="M 25.33675500000004,6.188801000000012 L 22.768754999999942,1.302800999999988" fill="none" stroke="rgb(92,92,92)" stroke-width="0.1"/>
  <path d="M 26.003754999999956,4.044801000000007 L 24.807755000000043,1.7708010000000058" fill="none" stroke="rgb(92,92,92)" stroke-width="0.1"/>
  <path d="M 7.4167549999999665,50.68180100000001 L 11.142754999999966,51.840801" fill="none" stroke="rgb(92,92,92)" stroke-width="0.1"/>
  <path d="M 11.142754999999966,51.840801 L 26.542754999999943,2.309800999999993" fill="none" stroke="rgb(92,92,92)" stroke-width="0.1"/>
  <path d="M 26.542754999999943,2.309800999999993 L 22.816754999999944,1.1508010000000013" fill="none" stroke="rgb(92,92,92)" stroke-width="0.1"/>
  <path d="M 22.816754999999944,1.1508010000000013 L 7.4167549999999665,50.68180100000001" fill="none" stroke="rgb(92,92,92)" stroke-width="0.1"/>
 </g>
 <g id="layer0M-TEMP-S百叶" inkscape:groupmode="layer" inkscape:label="0M-TEMP-S百叶">
  <path d="M 0.0,43.49540874116519 L 3.842755000000011,35.90480099999996" fill="none" stroke="rgb(0,178,178)" stroke-width="0.1"/>
  <path d="M 1.2647550000000365,35.103800999999976 L 0.0,44.46287159364954" fill="none" stroke="rgb(0,178,178)" stroke-width="0.1"/>
  <path d="M 0.0,39.17092937086932 L 1.2647550000000365,35.103800999999976" fill="none" stroke="rgb(0,178,178)" stroke-width="0.1"/>
  <path d="M 1.2647550000000365,35.103800999999976 L 3.842755000000011,35.90480099999996" fill="none" stroke="rgb(0,178,178)" stroke-width="0.1"/>
  <path d="M 3.842755000000011,35.90480099999996 L 0.0,48.26292637255318" fill="none" stroke="rgb(0,178,178)" stroke-width="0.1"/>
  <path d="M 0.0,37.655615188056515 L 0.42875500000002376,37.78880099999998" fill="none" stroke="rgb(0,178,178)" stroke-width="0.1"/>
  <path d="M 0.42875500000002376,37.78880099999998 L 0.0,39.16811137198209" fill="none" stroke="rgb(0,178,178)" stroke-width="0.1"/>
 </g>
 <g id="layerA-虚线轮廓" inkscape:groupmode="layer" inkscape:label="A-虚线轮廓">
  <path d="M 21.330754999999954,5.832800999999961 L 27.97475499999996,8.146800999999982" fill="none" instance-id="-1" semantic-id="2" stroke="rgb(0,178,178)" stroke-width="0.1"/>
  <path d="M 21.241755000000012,6.118800999999962 L 27.875755000000026,8.429800999999998" fill="none" instance-id="-1" semantic-id="2" stroke="rgb(0,178,178)" stroke-width="0.1"/>
  <path d="M 16.340754999999945,21.873800999999958 L 22.986755000000016,24.188801000000012" fill="none" instance-id="-1" semantic-id="2" stroke="rgb(0,178,178)" stroke-width="0.1"/>
  <path d="M 16.250755000000026,22.160800999999992 L 22.888754999999946,24.47180099999997" fill="none" instance-id="-1" semantic-id="2" stroke="rgb(0,178,178)" stroke-width="0.1"/>
  <path d="M 11.34975499999996,37.91580099999999 L 17.99875499999996,40.23180099999996" fill="none" instance-id="-1" semantic-id="2" stroke="rgb(0,178,178)" stroke-width="0.1"/>
  <path d="M 11.260755000000017,38.202800999999965 L 17.900755000000004,40.51480099999998" fill="none" instance-id="-1" semantic-id="2" stroke="rgb(0,178,178)" stroke-width="0.1"/>
  <path d="M 30.507916288196725,0.0 L 14.007754999999975,53.07080099999996" fill="none" instance-id="-1" semantic-id="2" stroke="rgb(0,178,178)" stroke-width="0.1"/>
  <path d="M 14.007754999999975,53.07080099999996 L 7.285754999999995,50.980800999999985" fill="none" instance-id="-1" semantic-id="2" stroke="rgb(0,178,178)" stroke-width="0.1"/>
  <path d="M 31.031473712437787,0.0 L 14.33675500000004,53.69580099999996" fill="none" instance-id="-1" semantic-id="2" stroke="rgb(0,178,178)" stroke-width="0.1"/>
  <path d="M 14.33675500000004,53.69580099999996 L 7.136754999999994,51.45780099999996" fill="none" instance-id="-1" semantic-id="2" stroke="rgb(0,178,178)" stroke-width="0.1"/>
 </g>
 <g id="layerA2-G-FLOORS" inkscape:groupmode="layer" inkscape:label="A2-G-FLOORS">
  <path d="M 12.178719375119613,0.0 L 0.0,39.17054959265346" fill="none" stroke="rgb(107,107,107)" stroke-width="0.1"/>
 </g>
 <g id="layerA3-G-ALUM-FINS-150" inkscape:groupmode="layer" inkscape:label="A3-G-ALUM-FINS-150">
  <path d="M 23.17439752607993,0.0 L 0.0,74.53615166251575" fill="none" stroke="rgb(0,178,0)" stroke-width="0.1"/>
 </g>
 <g id="layerA3-G-CANOPY" inkscape:groupmode="layer" inkscape:label="A3-G-CANOPY">
  <path d="M 27.293755000000033,1.9148010000000113 L 22.99475499999994,0.5778009999999654" fill="none" instance-id="-1" semantic-id="2" stroke="rgb(0,178,178)" stroke-width="0.1"/>
  <path d="M 11.142754999999966,51.840801 L 7.4167549999999665,50.68180100000001" fill="none" instance-id="-1" semantic-id="2" stroke="rgb(0,178,178)" stroke-width="0.1"/>
  <path d="M 26.542754999999943,2.309800999999993 L 22.816754999999944,1.1508010000000013" fill="none" instance-id="-1" semantic-id="2" stroke="rgb(0,178,178)" stroke-width="0.1"/>
  <path d="M 11.537754999999947,52.591800999999975 L 27.293755000000033,1.9148010000000113" fill="none" instance-id="-1" semantic-id="2" stroke="rgb(0,178,178)" stroke-width="0.1"/>
  <path d="M 11.142754999999966,51.840801 L 26.542754999999943,2.309800999999993" fill="none" instance-id="-1" semantic-id="2" stroke="rgb(0,178,178)" stroke-width="0.1"/>
  <path d="M 11.537754999999947,52.591800999999975 L 7.237754999999993,51.254800999999986" fill="none" instance-id="-1" semantic-id="2" stroke="rgb(0,178,178)" stroke-width="0.1"/>
  <path d="M 22.081755000000044,18.679800999999998 L 17.781754999999976,17.34280100000001" fill="none" instance-id="-1" semantic-id="2" stroke="rgb(0,178,178)" stroke-width="0.1"/>
  <path d="M 16.750755000000026,35.82680099999999 L 12.450754999999958,34.489801" fill="none" instance-id="-1" semantic-id="2" stroke="rgb(0,178,178)" stroke-width="0.1"/>
 </g>
 <g id="layerA3-G-FACADE-ALUM-PANEL" inkscape:groupmode="layer" inkscape:label="A3-G-FACADE-ALUM-PANEL">
  <path d="M 21.603917747461992,0.0 L 0.0,69.48525381632658" fill="none" stroke="rgb(178,178,0)" stroke-width="0.1"/>
 </g>
 <g id="layerA3-G-FACADE-GLASS" inkscape:groupmode="layer" inkscape:label="A3-G-FACADE-GLASS">
  <path d="M 15.058426180703009,0.0 L 0.0,48.43258238658177" fill="none" stroke="rgb(178,0,0)" stroke-width="0.1"/>
  <path d="M 15.319989631354247,0.0 L 0.0,49.27455743679559" fill="none" stroke="rgb(178,0,0)" stroke-width="0.1"/>
 </g>
 <g id="layerA3-G-MULLION" inkscape:groupmode="layer" inkscape:label="A3-G-MULLION">
  <path d="M 11.302755000000047,2.985800999999981 L 11.510755000000017,2.316800999999998" fill="none" stroke="rgb(0,178,0)" stroke-width="0.1"/>
  <path d="M 11.510755000000017,2.316800999999998 L 13.992754999999988,3.0888009999999895" fill="none" stroke="rgb(0,178,0)" stroke-width="0.1"/>
  <path d="M 13.992754999999988,3.0888009999999895 L 13.896754999999985,3.399800999999968" fill="none" stroke="rgb(0,178,0)" stroke-width="0.1"/>
  <path d="M 13.896754999999985,3.399800999999968 L 13.785754999999995,3.757800999999972" fill="none" stroke="rgb(0,178,0)" stroke-width="0.1"/>
  <path d="M 13.785754999999995,3.757800999999972 L 11.302755000000047,2.985800999999981" fill="none" stroke="rgb(0,178,0)" stroke-width="0.1"/>
  <path d="M 6.314754999999991,19.02780100000001 L 6.522754999999961,18.359801000000004" fill="none" stroke="rgb(0,178,0)" stroke-width="0.1"/>
  <path d="M 6.522754999999961,18.359801000000004 L 9.005755000000022,19.131800999999996" fill="none" stroke="rgb(0,178,0)" stroke-width="0.1"/>
  <path d="M 9.005755000000022,19.131800999999996 L 8.908755000000042,19.441800999999998" fill="none" stroke="rgb(0,178,0)" stroke-width="0.1"/>
  <path d="M 8.908755000000042,19.441800999999998 L 8.797755000000052,19.799801000000002" fill="none" stroke="rgb(0,178,0)" stroke-width="0.1"/>
  <path d="M 8.797755000000052,19.799801000000002 L 6.314754999999991,19.02780100000001" fill="none" stroke="rgb(0,178,0)" stroke-width="0.1"/>
  <path d="M 1.3267550000000483,35.07080099999996 L 1.5347550000000183,34.40180099999998" fill="none" stroke="rgb(0,178,0)" stroke-width="0.1"/>
  <path d="M 1.5347550000000183,34.40180099999998 L 4.0177549999999655,35.17380099999997" fill="none" stroke="rgb(0,178,0)" stroke-width="0.1"/>
  <path d="M 4.0177549999999655,35.17380099999997 L 3.9207549999999856,35.48380099999997" fill="none" stroke="rgb(0,178,0)" stroke-width="0.1"/>
  <path d="M 3.9207549999999856,35.48380099999997 L 3.8097549999999956,35.84280100000001" fill="none" stroke="rgb(0,178,0)" stroke-width="0.1"/>
  <path d="M 3.8097549999999956,35.84280100000001 L 1.3267550000000483,35.07080099999996" fill="none" stroke="rgb(0,178,0)" stroke-width="0.1"/>
  <path d="M 13.959754999999973,3.3668010000000095 L 14.245755000000031,3.455801000000008" fill="none" stroke="rgb(0,178,0)" stroke-width="0.1"/>
  <path d="M 14.245755000000031,3.455801000000008 L 14.200754999999958,3.5988009999999804" fill="none" stroke="rgb(0,178,0)" stroke-width="0.1"/>
  <path d="M 14.200754999999958,3.5988009999999804 L 13.914755000000014,3.5098009999999817" fill="none" stroke="rgb(0,178,0)" stroke-width="0.1"/>
  <path d="M 8.97175500000003,19.408800999999983 L 9.257754999999975,19.49780099999998" fill="none" stroke="rgb(0,178,0)" stroke-width="0.1"/>
  <path d="M 9.257754999999975,19.49780099999998 L 9.213754999999992,19.64080100000001" fill="none" stroke="rgb(0,178,0)" stroke-width="0.1"/>
  <path d="M 9.213754999999992,19.64080100000001 L 8.926754999999957,19.55180100000001" fill="none" stroke="rgb(0,178,0)" stroke-width="0.1"/>
  <path d="M 3.9837549999999737,35.45180099999999 L 4.269755000000032,35.54080099999999" fill="none" stroke="rgb(0,178,0)" stroke-width="0.1"/>
  <path d="M 4.269755000000032,35.54080099999999 L 4.225755000000049,35.68380099999996" fill="none" stroke="rgb(0,178,0)" stroke-width="0.1"/>
  <path d="M 4.225755000000049,35.68380099999996 L 3.9387550000000147,35.59480099999996" fill="none" stroke="rgb(0,178,0)" stroke-width="0.1"/>
 </g>
 <g id="layerDIM_LEAD" inkscape:groupmode="layer" inkscape:label="DIM_LEAD">
  <path d="M 0.0,97.27980100000002 L 29.804755,97.27980100000002" fill="none" stroke="rgb(178,0,178)" stroke-width="0.1"/>
  <text fill="rgb(0,0,0)" font-family="Noto Sans CJK SC" font-size="2" transform="rotate(-0.0,2.87475500000005,73.39280099999996)" x="2.87475500000005" y="73.39280099999996">
   洞口距地3000高
  </text>
 </g>
 <g id="layerDOOR_FIRE" inkscape:groupmode="layer" inkscape:label="DOOR_FIRE">
  <path d="M 0.051989458294428914,22.17189038030773 L 0.5056813362895127,22.396862853366144" fill="none" stroke="rgb(0,178,178)" stroke-width="0.1"/>
  <path d="M 0.5056813362895127,22.396862853366144 L 0.9707097367152073,22.59735604674239" fill="none" stroke="rgb(0,178,178)" stroke-width="0.1"/>
  <path d="M 0.9707097367152073,22.59735604674239 L 1.4457549999999628,22.77280099999996" fill="none" stroke="rgb(0,178,178)" stroke-width="0.1"/>
  <path d="M 4.266754999999989,13.698801000000003 L 4.732754999999997,13.843800999999985" fill="none" stroke="rgb(0,178,178)" stroke-width="0.1"/>
  <path d="M 4.732754999999997,13.843800999999985 L 1.9107549999999947,22.920800999999983" fill="none" stroke="rgb(0,178,178)" stroke-width="0.1"/>
  <path d="M 1.9107549999999947,22.920800999999983 L 1.4447549999999865,22.775801" fill="none" stroke="rgb(0,178,178)" stroke-width="0.1"/>
  <path d="M 1.4447549999999865,22.775801 L 4.266754999999989,13.698801000000003" fill="none" stroke="rgb(0,178,178)" stroke-width="0.1"/>
 </g>
 <g id="layerDOTE" inkscape:groupmode="layer" inkscape:label="DOTE">
  <path d="M 63.34375499999999,100.0 L 63.34375499999999,0.0" fill="none" stroke="rgb(63,63,63)" stroke-width="0.1"/>
  <path d="M 0.0,48.905801 L 100.0,48.905801" fill="none" stroke="rgb(63,63,63)" stroke-width="0.1"/>
 </g>
 <g id="layerDefpoints" inkscape:groupmode="layer" inkscape:label="Defpoints">
  <path d="M 10.979754999999955,2.5188009999999963 L 14.417754999999943,3.587801000000013" fill="none" stroke="rgb(107,107,107)" stroke-width="0.1"/>
  <path d="M 5.992754999999988,18.56080099999997 L 9.429755,19.629800999999986" fill="none" stroke="rgb(107,107,107)" stroke-width="0.1"/>
  <path d="M 1.0047550000000456,34.603800999999976 L 4.441754999999944,35.67280099999999" fill="none" stroke="rgb(107,107,107)" stroke-width="0.1"/>
 </g>
 <g id="layerPUB_DIM" inkscape:groupmode="layer" inkscape:label="PUB_DIM">
  <path d="M 1.6227549999999837,38.16080099999999 L 0.0,37.65612599384161" fill="none" stroke="rgb(0,178,178)" stroke-width="0.1"/>
  <path d="M 33.62375499999996,54.367800999999986 L 16.574754999999982,54.367800999999986" fill="none" stroke="rgb(0,178,178)" stroke-width="0.1"/>
  <path d="M 16.574754999999982,54.367800999999986 L 0.0,44.65263732840509" fill="none" stroke="rgb(0,178,178)" stroke-width="0.1"/>
  <path d="M 0.0,44.65263732840509 L 16.574754999999982,54.367800999999986" fill="none" stroke="rgb(0,178,178)" stroke-width="0.1"/>
  <text fill="rgb(0,0,0)" font-family="Noto Sans CJK SC" font-size="2" transform="rotate(-0.0,12.802755000000047,52.89780099999996)" x="12.802755000000047" y="52.89780099999996">
   固定窗不小于1m%%172
  </text>
  <text fill="rgb(0,0,0)" font-family="Noto Sans CJK SC" font-size="2" transform="rotate(-0.0,14.779755000000023,35.25780099999997)" x="14.779755000000023" y="35.25780099999997">
   窗距地1200高
  </text>
 </g>
 <g id="layerWALL" inkscape:groupmode="layer" inkscape:label="WALL">
  <path d="M 6.043755000000033,12.994800999999995 L 10.08398541592885,0.0" fill="none" instance-id="-1" semantic-id="1" stroke="rgb(0,0,0)" stroke-width="0.1"/>
  <path d="M 7.5977550000000065,14.733800999999971 L 12.17856477653379,0.0" fill="none" instance-id="-1" semantic-id="1" stroke="rgb(0,0,0)" stroke-width="0.1"/>
  <path d="M 0.0,32.4347663625955 L 5.331755000000044,15.285800999999992" fill="none" instance-id="-1" semantic-id="1" stroke="rgb(0,0,0)" stroke-width="0.1"/>
  <path d="M 0.42875500000002376,37.78880099999998 L 7.5977550000000065,14.733800999999971" fill="none" instance-id="-1" semantic-id="1" stroke="rgb(0,0,0)" stroke-width="0.1"/>
  <path d="M 0.0,37.655615188056515 L 0.42875500000002376,37.78880099999998" fill="none" instance-id="-1" semantic-id="1" stroke="rgb(0,0,0)" stroke-width="0.1"/>
  <path d="M 5.088754999999992,12.69780099999997 L 6.043755000000033,12.994800999999995" fill="none" instance-id="-1" semantic-id="1" stroke="rgb(0,0,0)" stroke-width="0.1"/>
  <path d="M 4.376755000000003,14.988800999999967 L 5.331755000000044,15.285800999999992" fill="none" instance-id="-1" semantic-id="1" stroke="rgb(0,0,0)" stroke-width="0.1"/>
  <path d="M 5.088754999999992,12.69780099999997 L 4.376755000000003,14.988800999999967" fill="none" instance-id="-1" semantic-id="1" stroke="rgb(0,0,0)" stroke-width="0.1"/>
 </g>
 <g id="layerWINDOW_TEXT" inkscape:groupmode="layer" inkscape:label="WINDOW_TEXT">
  <text fill="rgb(0,0,0)" font-family="Noto Sans CJK SC" font-size="2" transform="rotate(-72.7288,2.2957549999999856,50.34680099999997)" x="2.2957549999999856" y="50.34680099999997">
   D1210
  </text>
 </g>
 <g id="layer放坡及加楼梯" inkscape:groupmode="layer" inkscape:label="放坡及加楼梯">
  <path d="M 10.084165705048804,0.0 L 8.796754999999962,4.14080100000001" fill="none" stroke="rgb(178,178,0)" stroke-width="0.1"/>
  <path d="M 8.796754999999962,4.14080100000001 L 0.0,1.4056332705636123" fill="none" stroke="rgb(178,178,0)" stroke-width="0.1"/>
 </g>
</svg>