<?xml version="1.0" encoding="utf-8"?>
<svg style="background-color: #000;" version="1.1" viewBox="0 0 100.0 100.0" xmlns="http://www.w3.org/2000/svg" xmlns:inkscape="http://www.inkscape.org/namespaces/inkscape">
 <g id="layerA-洞口" inkscape:groupmode="layer" inkscape:label="A-洞口">
  <path d="M 15.871755000000007,30.405800999999997 L 21.848754999999983,30.405800999999997" fill="none" stroke="rgb(12,12,255)" stroke-width="0.1"/>
  <path d="M 21.848754999999983,30.405800999999997 L 21.848754999999983,100.0" fill="none" stroke="rgb(12,12,255)" stroke-width="0.1"/>
  <path d="M 15.871755000000007,100.0 L 15.871755000000007,30.405800999999997" fill="none" stroke="rgb(12,12,255)" stroke-width="0.1"/>
  <path d="M 16.409181732184834,100.0 L 17.271754999999985,34.804801" fill="none" stroke="rgb(12,12,255)" stroke-width="0.1"/>
  <path d="M 17.271754999999985,34.804801 L 21.871755000000007,30.405800999999997" fill="none" stroke="rgb(12,12,255)" stroke-width="0.1"/>
 </g>
 <g id="layerA-看线" inkscape:groupmode="layer" inkscape:label="A-看线">
  <path d="M 100.0,60.905801 L 90.85375499999998,60.905801" fill="none" stroke="rgb(255,12,254)" stroke-width="0.1"/>
  <path d="M 100.0,58.905801 L 98.857755,58.905801" fill="none" stroke="rgb(255,12,254)" stroke-width="0.1"/>
  <path d="M 100.0,90.405801 L 90.85375499999998,90.405801" fill="none" stroke="rgb(255,12,254)" stroke-width="0.1"/>
  <path d="M 100.0,88.405801 L 98.857755,88.405801" fill="none" stroke="rgb(255,12,254)" stroke-width="0.1"/>
 </g>
 <g id="layerCOLUMN" inkscape:groupmode="layer" inkscape:label="COLUMN">
  <path d="M 60.85375499999998,90.905801 L 28.85375499999998,90.905801" fill="none" instance-id="-1" semantic-id="1" stroke="rgb(134,134,134)" stroke-width="0.1"/>
  <path d="M 28.85375499999998,90.905801 L 28.85375499999998,54.905801" fill="none" instance-id="-1" semantic-id="1" stroke="rgb(134,134,134)" stroke-width="0.1"/>
  <path d="M 28.85375499999998,54.905801 L 87.85375499999998,54.905801" fill="none" instance-id="-1" semantic-id="1" stroke="rgb(134,134,134)" stroke-width="0.1"/>
  <path d="M 87.85375499999998,54.905801 L 87.85375499999998,51.905801" fill="none" instance-id="-1" semantic-id="1" stroke="rgb(134,134,134)" stroke-width="0.1"/>
  <path d="M 87.85375499999998,51.905801 L 28.85375499999998,51.905801" fill="none" instance-id="-1" semantic-id="1" stroke="rgb(134,134,134)" stroke-width="0.1"/>
  <path d="M 28.85375499999998,51.905801 L 28.85375499999998,32.405801" fill="none" instance-id="-1" semantic-id="1" stroke="rgb(134,134,134)" stroke-width="0.1"/>
  <path d="M 28.85375499999998,32.405801 L 38.85375499999998,32.405801" fill="none" instance-id="-1" semantic-id="1" stroke="rgb(134,134,134)" stroke-width="0.1"/>
  <path d="M 38.85375499999998,32.405801 L 38.85375499999998,24.405800999999997" fill="none" instance-id="-1" semantic-id="1" stroke="rgb(134,134,134)" stroke-width="0.1"/>
  <path d="M 38.85375499999998,24.405800999999997 L 21.85375499999998,24.405800999999997" fill="none" instance-id="-1" semantic-id="1" stroke="rgb(134,134,134)" stroke-width="0.1"/>
  <path d="M 21.85375499999998,24.405800999999997 L 21.85375499999998,100.0" fill="none" instance-id="-1" semantic-id="1" stroke="rgb(134,134,134)" stroke-width="0.1"/>
  <path d="M 28.85375499999998,100.0 L 28.85375499999998,92.905801" fill="none" instance-id="-1" semantic-id="1" stroke="rgb(134,134,134)" stroke-width="0.1"/>
  <path d="M 28.85375499999998,92.905801 L 57.85375499999998,92.905801" fill="none" instance-id="-1" semantic-id="1" stroke="rgb(134,134,134)" stroke-width="0.1"/>
  <path d="M 57.85375499999998,92.905801 L 57.85375499999998,98.405801" fill="none" instance-id="-1" semantic-id="1" stroke="rgb(134,134,134)" stroke-width="0.1"/>
  <path d="M 57.85375499999998,98.405801 L 60.85375499999998,98.405801" fill="none" instance-id="-1" semantic-id="1" stroke="rgb(134,134,134)" stroke-width="0.1"/>
  <path d="M 60.85375499999998,98.405801 L 60.85375499999998,90.905801" fill="none" instance-id="-1" semantic-id="1" stroke="rgb(134,134,134)" stroke-width="0.1"/>
  <path d="M 100.0,88.405801 L 90.85375499999998,88.405801" fill="none" instance-id="-1" semantic-id="1" stroke="rgb(134,134,134)" stroke-width="0.1"/>
  <path d="M 90.85375499999998,88.405801 L 90.85375499999998,60.905801" fill="none" instance-id="-1" semantic-id="1" stroke="rgb(134,134,134)" stroke-width="0.1"/>
  <path d="M 90.85375499999998,60.905801 L 98.857755,60.905801" fill="none" instance-id="-1" semantic-id="1" stroke="rgb(134,134,134)" stroke-width="0.1"/>
  <path d="M 98.857755,60.905801 L 98.857755,58.905801" fill="none" instance-id="-1" semantic-id="1" stroke="rgb(134,134,134)" stroke-width="0.1"/>
  <path d="M 98.857755,58.905801 L 90.85375499999998,58.905801" fill="none" instance-id="-1" semantic-id="1" stroke="rgb(134,134,134)" stroke-width="0.1"/>
  <path d="M 90.85375499999998,58.905801 L 90.85375499999998,30.405800999999997" fill="none" instance-id="-1" semantic-id="1" stroke="rgb(134,134,134)" stroke-width="0.1"/>
  <path d="M 90.85375499999998,30.405800999999997 L 100.0,30.405800999999997" fill="none" instance-id="-1" semantic-id="1" stroke="rgb(134,134,134)" stroke-width="0.1"/>
  <path d="M 100.0,24.405800999999997 L 87.85375499999998,24.405800999999997" fill="none" instance-id="-1" semantic-id="1" stroke="rgb(134,134,134)" stroke-width="0.1"/>
  <path d="M 87.85375499999998,24.405800999999997 L 87.85375499999998,100.0" fill="none" instance-id="-1" semantic-id="1" stroke="rgb(134,134,134)" stroke-width="0.1"/>
  <path d="M 90.85375499999998,100.0 L 90.85375499999998,90.405801" fill="none" instance-id="-1" semantic-id="1" stroke="rgb(134,134,134)" stroke-width="0.1"/>
  <path d="M 90.85375499999998,90.405801 L 100.0,90.405801" fill="none" instance-id="-1" semantic-id="1" stroke="rgb(134,134,134)" stroke-width="0.1"/>
  <path d="M 28.85375499999998,100.0 L 28.85375499999998,92.90680099999997" fill="none" instance-id="-1" semantic-id="1" stroke="rgb(134,134,134)" stroke-width="0.1"/>
  <path d="M 28.85375499999998,92.90680099999997 L 57.84375499999999,92.92180099999999" fill="none" instance-id="-1" semantic-id="1" stroke="rgb(134,134,134)" stroke-width="0.1"/>
  <path d="M 57.84375499999999,92.92180099999999 L 57.84375499999999,98.405801" fill="none" instance-id="-1" semantic-id="1" stroke="rgb(134,134,134)" stroke-width="0.1"/>
  <path d="M 57.84375499999999,98.405801 L 60.85375499999998,98.405801" fill="none" instance-id="-1" semantic-id="1" stroke="rgb(134,134,134)" stroke-width="0.1"/>
  <path d="M 60.85375499999998,98.405801 L 60.85375499999998,90.905801" fill="none" instance-id="-1" semantic-id="1" stroke="rgb(134,134,134)" stroke-width="0.1"/>
  <path d="M 60.85375499999998,90.905801 L 28.85375499999998,90.905801" fill="none" instance-id="-1" semantic-id="1" stroke="rgb(134,134,134)" stroke-width="0.1"/>
  <path d="M 28.85375499999998,90.905801 L 28.85375499999998,54.905801" fill="none" instance-id="-1" semantic-id="1" stroke="rgb(134,134,134)" stroke-width="0.1"/>
  <path d="M 28.85375499999998,54.905801 L 74.35375499999998,54.905801" fill="none" instance-id="-1" semantic-id="1" stroke="rgb(134,134,134)" stroke-width="0.1"/>
  <path d="M 74.35375499999998,54.905801 L 74.35375499999998,51.905801" fill="none" instance-id="-1" semantic-id="1" stroke="rgb(134,134,134)" stroke-width="0.1"/>
  <path d="M 74.35375499999998,51.905801 L 28.85375499999998,51.905801" fill="none" instance-id="-1" semantic-id="1" stroke="rgb(134,134,134)" stroke-width="0.1"/>
  <path d="M 28.85375499999998,51.905801 L 28.85375499999998,30.405800999999997" fill="none" instance-id="-1" semantic-id="1" stroke="rgb(134,134,134)" stroke-width="0.1"/>
  <path d="M 28.85375499999998,30.405800999999997 L 38.85375499999998,30.405800999999997" fill="none" instance-id="-1" semantic-id="1" stroke="rgb(134,134,134)" stroke-width="0.1"/>
  <path d="M 38.85375499999998,30.405800999999997 L 38.85375499999998,24.405800999999997" fill="none" instance-id="-1" semantic-id="1" stroke="rgb(134,134,134)" stroke-width="0.1"/>
  <path d="M 38.85375499999998,24.405800999999997 L 21.848754999999983,24.405800999999997" fill="none" instance-id="-1" semantic-id="1" stroke="rgb(134,134,134)" stroke-width="0.1"/>
  <path d="M 21.848754999999983,24.405800999999997 L 21.848754999999983,48.405801" fill="none" instance-id="-1" semantic-id="1" stroke="rgb(134,134,134)" stroke-width="0.1"/>
  <path d="M 21.848754999999983,48.405801 L 21.848754999999983,61.405801" fill="none" instance-id="-1" semantic-id="1" stroke="rgb(134,134,134)" stroke-width="0.1"/>
  <path d="M 21.848754999999983,61.405801 L 21.848754999999983,100.0" fill="none" instance-id="-1" semantic-id="1" stroke="rgb(134,134,134)" stroke-width="0.1"/>
  <path d="M 90.85375499999998,58.905801 L 90.85375499999998,30.405800999999997" fill="none" instance-id="-1" semantic-id="1" stroke="rgb(134,134,134)" stroke-width="0.1"/>
  <path d="M 90.85375499999998,30.405800999999997 L 100.0,30.405800999999997" fill="none" instance-id="-1" semantic-id="1" stroke="rgb(134,134,134)" stroke-width="0.1"/>
  <path d="M 100.0,24.405800999999997 L 87.85375499999998,24.405800999999997" fill="none" instance-id="-1" semantic-id="1" stroke="rgb(134,134,134)" stroke-width="0.1"/>
  <path d="M 87.85375499999998,24.405800999999997 L 87.85375499999998,100.0" fill="none" instance-id="-1" semantic-id="1" stroke="rgb(134,134,134)" stroke-width="0.1"/>
  <path d="M 90.85375499999998,100.0 L 90.85375499999998,90.405801" fill="none" instance-id="-1" semantic-id="1" stroke="rgb(134,134,134)" stroke-width="0.1"/>
  <path d="M 90.85375499999998,90.405801 L 98.857755,90.405801" fill="none" instance-id="-1" semantic-id="1" stroke="rgb(134,134,134)" stroke-width="0.1"/>
  <path d="M 98.857755,90.405801 L 98.857755,88.405801" fill="none" instance-id="-1" semantic-id="1" stroke="rgb(134,134,134)" stroke-width="0.1"/>
  <path d="M 98.857755,88.405801 L 90.85375499999998,88.405801" fill="none" instance-id="-1" semantic-id="1" stroke="rgb(134,134,134)" stroke-width="0.1"/>
  <path d="M 90.85375499999998,88.405801 L 90.85375499999998,60.905801" fill="none" instance-id="-1" semantic-id="1" stroke="rgb(134,134,134)" stroke-width="0.1"/>
  <path d="M 90.85375499999998,60.905801 L 98.857755,60.905801" fill="none" instance-id="-1" semantic-id="1" stroke="rgb(134,134,134)" stroke-width="0.1"/>
  <path d="M 98.857755,60.905801 L 98.857755,58.905801" fill="none" instance-id="-1" semantic-id="1" stroke="rgb(134,134,134)" stroke-width="0.1"/>
  <path d="M 98.857755,58.905801 L 90.85375499999998,58.905801" fill="none" instance-id="-1" semantic-id="1" stroke="rgb(134,134,134)" stroke-width="0.1"/>
  <path d="M 14.853754999999978,30.405800999999997 L 14.853754999999978,24.405800999999997" fill="none" instance-id="-1" semantic-id="1" stroke="rgb(134,134,134)" stroke-width="0.1"/>
  <path d="M 14.853754999999978,24.405800999999997 L 12.853754999999978,24.405800999999997" fill="none" instance-id="-1" semantic-id="1" stroke="rgb(134,134,134)" stroke-width="0.1"/>
  <path d="M 12.853754999999978,24.405800999999997 L 12.853754999999978,30.405800999999997" fill="none" instance-id="-1" semantic-id="1" stroke="rgb(134,134,134)" stroke-width="0.1"/>
  <path d="M 12.853754999999978,30.405800999999997 L 14.853754999999978,30.405800999999997" fill="none" instance-id="-1" semantic-id="1" stroke="rgb(134,134,134)" stroke-width="0.1"/>
  <path d="M 14.848754999999983,88.60580099999999 L 14.848754999999983,82.60580099999999" fill="none" instance-id="-1" semantic-id="1" stroke="rgb(134,134,134)" stroke-width="0.1"/>
  <path d="M 14.848754999999983,82.60580099999999 L 12.848754999999983,82.60580099999999" fill="none" instance-id="-1" semantic-id="1" stroke="rgb(134,134,134)" stroke-width="0.1"/>
  <path d="M 12.848754999999983,82.60580099999999 L 12.848754999999983,88.60580099999999" fill="none" instance-id="-1" semantic-id="1" stroke="rgb(134,134,134)" stroke-width="0.1"/>
  <path d="M 12.848754999999983,88.60580099999999 L 14.848754999999983,88.60580099999999" fill="none" instance-id="-1" semantic-id="1" stroke="rgb(134,134,134)" stroke-width="0.1"/>
 </g>
 <g id="layerDIM_ELEV" inkscape:groupmode="layer" inkscape:label="DIM_ELEV">
  <path d="M 42.753754999999956,70.11480099999997 L 27.807755000000043,70.11480099999997" fill="none" stroke="rgb(0,178,0)" stroke-width="0.1"/>
  <path d="M 27.807755000000043,70.11480099999997 L 32.30775500000004,74.61480099999997" fill="none" stroke="rgb(0,178,0)" stroke-width="0.1"/>
  <path d="M 32.30775500000004,74.61480099999997 L 36.80775500000004,70.11480099999997" fill="none" stroke="rgb(0,178,0)" stroke-width="0.1"/>
  <path d="M 84.66375500000004,70.29780099999999 L 73.00075500000003,70.29780099999999" fill="none" stroke="rgb(0,178,0)" stroke-width="0.1"/>
  <path d="M 73.00075500000003,70.29780099999999 L 77.50075500000003,74.79780099999999" fill="none" stroke="rgb(0,178,0)" stroke-width="0.1"/>
  <path d="M 77.50075500000003,74.79780099999999 L 82.00075500000003,70.29780099999999" fill="none" stroke="rgb(0,178,0)" stroke-width="0.1"/>
  <text fill="rgb(0,0,0)" font-family="Noto Sans CJK SC" font-size="2" transform="rotate(-0.0,39.77875500000005,69.37980099999999)" x="39.77875500000005" y="69.37980099999999">
   6
  </text>
  <text fill="rgb(0,0,0)" font-family="Noto Sans CJK SC" font-size="2" transform="rotate(-0.0,81.51375499999995,69.56280099999998)" x="81.51375499999995" y="69.56280099999998">
   4
  </text>
 </g>
 <g id="layerDIM_SYMB" inkscape:groupmode="layer" inkscape:label="DIM_SYMB">
  <path d="M 0.0,86.66247917459549 L 1.1597550000000183,86.04580099999998" fill="none" stroke="rgb(0,178,0)" stroke-width="0.1"/>
  <path d="M 1.1597550000000183,86.04580099999998 L 3.419755000000009,88.51180099999999" fill="none" stroke="rgb(0,178,0)" stroke-width="0.1"/>
  <path d="M 3.419755000000009,88.51180099999999 L 1.893754999999942,81.98680099999999" fill="none" stroke="rgb(0,178,0)" stroke-width="0.1"/>
  <path d="M 1.893754999999942,81.98680099999999 L 4.1527549999999565,84.453801" fill="none" stroke="rgb(0,178,0)" stroke-width="0.1"/>
  <path d="M 4.1527549999999565,84.453801 L 14.47475499999996,78.965801" fill="none" stroke="rgb(0,178,0)" stroke-width="0.1"/>
  <path d="M 0.0,87.54300127078085 L 1.4577550000000201,86.76780099999999" fill="none" stroke="rgb(0,178,0)" stroke-width="0.1"/>
  <path d="M 1.4577550000000201,86.76780099999999 L 3.7167550000000347,89.23480099999998" fill="none" stroke="rgb(0,178,0)" stroke-width="0.1"/>
  <path d="M 3.7167550000000347,89.23480099999998 L 2.1917549999999437,82.709801" fill="none" stroke="rgb(0,178,0)" stroke-width="0.1"/>
  <path d="M 2.1917549999999437,82.709801 L 4.450754999999958,85.17680099999998" fill="none" stroke="rgb(0,178,0)" stroke-width="0.1"/>
  <path d="M 4.450754999999958,85.17680099999998 L 14.772754999999961,79.68780099999998" fill="none" stroke="rgb(0,178,0)" stroke-width="0.1"/>
  <text fill="rgb(0,178,0)" font-family="Noto Sans CJK SC" font-size="2" transform="rotate(-0.0,16.18975499999999,57.953801)" x="16.18975499999999" y="57.953801">
   风井
  </text>
  <text fill="rgb(0,178,0)" font-family="Noto Sans CJK SC" font-size="2" transform="rotate(-0.0,37.656754999999976,41.66080099999999)" x="37.656754999999976" y="41.66080099999999">
   强电井
  </text>
  <text fill="rgb(0,178,0)" font-family="Noto Sans CJK SC" font-size="2" transform="rotate(-0.0,59.323755000000006,42.595800999999994)" x="59.323755000000006" y="42.595800999999994">
   弱电井
  </text>
  <text fill="rgb(0,178,0)" font-family="Noto Sans CJK SC" font-size="2" transform="rotate(-0.0,75.11175500000002,42.595800999999994)" x="75.11175500000002" y="42.595800999999994">
   空调水井
  </text>
  <text fill="rgb(0,178,0)" font-family="Noto Sans CJK SC" font-size="2" transform="rotate(-0.0,42.68275500000004,88.893801)" x="42.68275500000004" y="88.893801">
   加压送风井
  </text>
  <text fill="rgb(0,178,0)" font-family="Noto Sans CJK SC" font-size="2" transform="rotate(-0.0,50.506755,74.446801)" x="50.506755" y="74.446801">
   1-1#楼梯
  </text>
 </g>
 <g id="layerDOOR_FIRE" inkscape:groupmode="layer" inkscape:label="DOOR_FIRE">
  <path d="M 77.51075500000002,12.062800999999979 A 8.0,8.0 0.0 0,0 79.85375499999998,6.405800999999997" fill="none" instance-id="9" semantic-id="3" stroke="rgb(0,178,178)" stroke-width="0.1"/>
  <path d="M 46.01075500000002,12.062800999999979 A 8.0,8.0 0.0 0,0 48.35375499999998,6.405800999999997" fill="none" instance-id="6" semantic-id="3" stroke="rgb(0,178,178)" stroke-width="0.1"/>
  <path d="M 31.35375499999998,15.906800999999973 A 7.3125,7.3125 0.0 0,0 24.043755000000033,23.031800999999973" fill="none" instance-id="5" semantic-id="4" stroke="rgb(0,178,178)" stroke-width="0.1"/>
  <path d="M 24.043755000000033,8.781800999999973 A 7.3125,7.3125 0.0 0,0 31.35375499999998,15.906800999999973" fill="none" instance-id="5" semantic-id="4" stroke="rgb(0,178,178)" stroke-width="0.1"/>
  <path d="M 2.1017550000000256,25.407800999999978 A 9.50625,9.50625 0.0 0,0 11.36375499999997,34.911801" fill="none" instance-id="4" semantic-id="4" stroke="rgb(0,178,178)" stroke-width="0.1"/>
  <path d="M 0.2241616052737072,31.080734580433244 L 0.515433067883464,30.666375093293766" fill="none" instance-id="4" semantic-id="4" stroke="rgb(0,178,178)" stroke-width="0.1"/>
  <path d="M 0.515433067883464,30.666375093293766 L 0.7842219706822107,30.237090368145488" fill="none" instance-id="4" semantic-id="4" stroke="rgb(0,178,178)" stroke-width="0.1"/>
  <path d="M 0.7842219706822107,30.237090368145488 L 1.0297652937834982,29.79409902963681" fill="none" instance-id="4" semantic-id="4" stroke="rgb(0,178,178)" stroke-width="0.1"/>
  <path d="M 1.0297652937834982,29.79409902963681 L 1.251366005291743,29.338658611829658" fill="none" instance-id="4" semantic-id="4" stroke="rgb(0,178,178)" stroke-width="0.1"/>
  <path d="M 1.251366005291743,29.338658611829658 L 1.4483950399891228,28.872061988396126" fill="none" instance-id="4" semantic-id="4" stroke="rgb(0,178,178)" stroke-width="0.1"/>
  <path d="M 1.4483950399891228,28.872061988396126 L 1.6202930850837447,28.3956337024957" fill="none" instance-id="4" semantic-id="4" stroke="rgb(0,178,178)" stroke-width="0.1"/>
  <path d="M 1.6202930850837447,28.3956337024957 L 1.7665721679493345,27.910726206751036" fill="none" instance-id="4" semantic-id="4" stroke="rgb(0,178,178)" stroke-width="0.1"/>
  <path d="M 1.7665721679493345,27.910726206751036 L 1.8868170413489906,27.418716023996183" fill="none" instance-id="4" semantic-id="4" stroke="rgb(0,178,178)" stroke-width="0.1"/>
  <path d="M 1.8868170413489906,27.418716023996183 L 1.9806863622113724,26.92099983969618" fill="none" instance-id="4" semantic-id="4" stroke="rgb(0,178,178)" stroke-width="0.1"/>
  <path d="M 1.9806863622113724,26.92099983969618 L 2.047913660612494,26.41899053712993" fill="none" instance-id="4" semantic-id="4" stroke="rgb(0,178,178)" stroke-width="0.1"/>
  <path d="M 2.047913660612494,26.41899053712993 L 2.0883080962123586,25.91411318659229" fill="none" instance-id="4" semantic-id="4" stroke="rgb(0,178,178)" stroke-width="0.1"/>
  <path d="M 2.0883080962123586,25.91411318659229 L 2.1017550000000256,25.407800999999978" fill="none" instance-id="4" semantic-id="4" stroke="rgb(0,178,178)" stroke-width="0.1"/>
  <path d="M 60.19475499999999,19.748800999999986 A 8.0,8.0 0.0 0,0 57.851755000000026,25.405800999999997" fill="none" instance-id="8" semantic-id="3" stroke="rgb(0,178,178)" stroke-width="0.1"/>
  <path d="M 46.19475499999999,19.748800999999986 A 8.0,8.0 0.0 0,0 43.851755000000026,25.405800999999997" fill="none" instance-id="7" semantic-id="3" stroke="rgb(0,178,178)" stroke-width="0.1"/>
  <path d="M 78.19475499999999,19.748800999999986 A 8.0,8.0 0.0 0,0 75.85175500000003,25.405800999999997" fill="none" instance-id="10" semantic-id="3" stroke="rgb(0,178,178)" stroke-width="0.1"/>
  <path d="M 71.85375499999998,7.405800999999997 L 79.85375499999998,7.405800999999997" fill="none" instance-id="9" semantic-id="3" stroke="rgb(0,178,178)" stroke-width="0.1"/>
  <path d="M 71.85375499999998,6.405800999999997 L 77.51075500000002,12.062800999999979" fill="none" instance-id="9" semantic-id="3" stroke="rgb(0,178,178)" stroke-width="0.1"/>
  <path d="M 71.85375499999998,5.405800999999997 L 79.85375499999998,5.405800999999997" fill="none" instance-id="9" semantic-id="3" stroke="rgb(0,178,178)" stroke-width="0.1"/>
  <path d="M 40.35375499999998,7.405800999999997 L 48.35375499999998,7.405800999999997" fill="none" instance-id="6" semantic-id="3" stroke="rgb(0,178,178)" stroke-width="0.1"/>
  <path d="M 40.35375499999998,6.405800999999997 L 46.01075500000002,12.062800999999979" fill="none" instance-id="6" semantic-id="3" stroke="rgb(0,178,178)" stroke-width="0.1"/>
  <path d="M 40.35375499999998,5.405800999999997 L 48.35375499999998,5.405800999999997" fill="none" instance-id="6" semantic-id="3" stroke="rgb(0,178,178)" stroke-width="0.1"/>
  <path d="M 57.851755000000026,26.405800999999997 L 65.85175500000003,26.405800999999997" fill="none" instance-id="8" semantic-id="3" stroke="rgb(0,178,178)" stroke-width="0.1"/>
  <path d="M 57.851755000000026,24.405800999999997 L 65.85175500000003,24.405800999999997" fill="none" instance-id="8" semantic-id="3" stroke="rgb(0,178,178)" stroke-width="0.1"/>
  <path d="M 60.19475499999999,19.748800999999986 L 65.85175500000003,25.405800999999997" fill="none" instance-id="8" semantic-id="3" stroke="rgb(0,178,178)" stroke-width="0.1"/>
  <path d="M 43.851755000000026,26.405800999999997 L 51.851755000000026,26.405800999999997" fill="none" instance-id="7" semantic-id="3" stroke="rgb(0,178,178)" stroke-width="0.1"/>
  <path d="M 43.851755000000026,24.405800999999997 L 51.851755000000026,24.405800999999997" fill="none" instance-id="7" semantic-id="3" stroke="rgb(0,178,178)" stroke-width="0.1"/>
  <path d="M 46.19475499999999,19.748800999999986 L 51.851755000000026,25.405800999999997" fill="none" instance-id="7" semantic-id="3" stroke="rgb(0,178,178)" stroke-width="0.1"/>
  <path d="M 75.85175500000003,26.405800999999997 L 83.85175500000003,26.405800999999997" fill="none" instance-id="10" semantic-id="3" stroke="rgb(0,178,178)" stroke-width="0.1"/>
  <path d="M 75.85175500000003,24.405800999999997 L 83.85175500000003,24.405800999999997" fill="none" instance-id="10" semantic-id="3" stroke="rgb(0,178,178)" stroke-width="0.1"/>
  <path d="M 78.19475499999999,19.748800999999986 L 83.85175500000003,25.405800999999997" fill="none" instance-id="10" semantic-id="3" stroke="rgb(0,178,178)" stroke-width="0.1"/>
  <path d="M 31.35375499999998,23.406800999999973 L 31.35375499999998,23.031800999999973" fill="none" instance-id="5" semantic-id="4" stroke="rgb(0,178,178)" stroke-width="0.1"/>
  <path d="M 31.35375499999998,23.031800999999973 L 24.041754999999966,23.031800999999973" fill="none" instance-id="5" semantic-id="4" stroke="rgb(0,178,178)" stroke-width="0.1"/>
  <path d="M 24.041754999999966,23.031800999999973 L 24.041754999999966,23.406800999999973" fill="none" instance-id="5" semantic-id="4" stroke="rgb(0,178,178)" stroke-width="0.1"/>
  <path d="M 24.041754999999966,23.406800999999973 L 31.35375499999998,23.406800999999973" fill="none" instance-id="5" semantic-id="4" stroke="rgb(0,178,178)" stroke-width="0.1"/>
  <path d="M 31.35375499999998,8.781800999999973 L 31.35375499999998,8.406800999999973" fill="none" instance-id="5" semantic-id="4" stroke="rgb(0,178,178)" stroke-width="0.1"/>
  <path d="M 31.35375499999998,8.406800999999973 L 24.041754999999966,8.406800999999973" fill="none" instance-id="5" semantic-id="4" stroke="rgb(0,178,178)" stroke-width="0.1"/>
  <path d="M 24.041754999999966,8.406800999999973 L 24.041754999999966,8.781800999999973" fill="none" instance-id="5" semantic-id="4" stroke="rgb(0,178,178)" stroke-width="0.1"/>
  <path d="M 24.041754999999966,8.781800999999973 L 31.35375499999998,8.781800999999973" fill="none" instance-id="5" semantic-id="4" stroke="rgb(0,178,178)" stroke-width="0.1"/>
  <path d="M 11.851755000000026,25.407800999999978 L 11.851755000000026,34.91480099999998" fill="none" instance-id="4" semantic-id="4" stroke="rgb(0,178,178)" stroke-width="0.1"/>
  <path d="M 11.851755000000026,34.91480099999998 L 11.36375499999997,34.91480099999998" fill="none" instance-id="4" semantic-id="4" stroke="rgb(0,178,178)" stroke-width="0.1"/>
  <path d="M 11.36375499999997,34.91480099999998 L 11.36375499999997,25.407800999999978" fill="none" instance-id="4" semantic-id="4" stroke="rgb(0,178,178)" stroke-width="0.1"/>
  <path d="M 11.36375499999997,25.407800999999978 L 11.851755000000026,25.407800999999978" fill="none" instance-id="4" semantic-id="4" stroke="rgb(0,178,178)" stroke-width="0.1"/>
 </g>
 <g id="layerDOOR_FIRE_TEXT" inkscape:groupmode="layer" inkscape:label="DOOR_FIRE_TEXT">
  <text fill="rgb(0,0,0)" font-family="Noto Sans CJK SC" font-size="2" transform="rotate(-360.0,68.636755,3.0678009999999887)" x="68.636755" y="3.0678009999999887">
   FM乙0818
  </text>
  <text fill="rgb(0,0,0)" font-family="Noto Sans CJK SC" font-size="2" transform="rotate(-360.0,37.136754999999994,3.0678009999999887)" x="37.136754999999994" y="3.0678009999999887">
   FM乙0818
  </text>
  <text fill="rgb(0,0,0)" font-family="Noto Sans CJK SC" font-size="2" transform="rotate(-90.0,23.39875500000005,22.103800999999976)" x="23.39875500000005" y="22.103800999999976">
   FM乙1521
  </text>
  <text fill="rgb(0,0,0)" font-family="Noto Sans CJK SC" font-size="2" transform="rotate(-360.0,52.29375500000003,30.51780099999999)" x="52.29375500000003" y="30.51780099999999">
   FM乙0818
  </text>
  <text fill="rgb(0,0,0)" font-family="Noto Sans CJK SC" font-size="2" transform="rotate(-360.0,33.275755000000004,21.297800999999993)" x="33.275755000000004" y="21.297800999999993">
   FM乙0818
  </text>
  <text fill="rgb(0,0,0)" font-family="Noto Sans CJK SC" font-size="2" transform="rotate(-360.0,69.381755,21.061800999999974)" x="69.381755" y="21.061800999999974">
   FM乙0818
  </text>
 </g>
 <g id="layerEVTR" inkscape:groupmode="layer" inkscape:label="EVTR">
  <path d="M 91.958755,97.00580099999999 L 94.30775500000004,97.00580099999999" fill="none" stroke="rgb(178,178,0)" stroke-width="0.1"/>
  <path d="M 94.30775500000004,97.00580099999999 L 94.30775500000004,100.0" fill="none" stroke="rgb(178,178,0)" stroke-width="0.1"/>
  <path d="M 91.958755,100.0 L 91.958755,97.00580099999999" fill="none" stroke="rgb(178,178,0)" stroke-width="0.1"/>
  <path d="M 96.65775499999995,92.405801 L 100.0,92.405801" fill="none" stroke="rgb(178,178,0)" stroke-width="0.1"/>
  <path d="M 96.65775499999995,100.0 L 96.65775499999995,92.405801" fill="none" stroke="rgb(178,178,0)" stroke-width="0.1"/>
  <path d="M 96.65775499999995,92.405801 L 100.0,96.49471775531919" fill="none" stroke="rgb(178,178,0)" stroke-width="0.1"/>
  <path d="M 91.958755,39.50580099999999 L 94.30775500000004,39.50580099999999" fill="none" stroke="rgb(178,178,0)" stroke-width="0.1"/>
  <path d="M 94.30775500000004,39.50580099999999 L 94.30775500000004,53.305800999999974" fill="none" stroke="rgb(178,178,0)" stroke-width="0.1"/>
  <path d="M 94.30775500000004,53.305800999999974 L 91.958755,53.305800999999974" fill="none" stroke="rgb(178,178,0)" stroke-width="0.1"/>
  <path d="M 91.958755,53.305800999999974 L 91.958755,39.50580099999999" fill="none" stroke="rgb(178,178,0)" stroke-width="0.1"/>
  <path d="M 96.65775499999995,34.905801 L 100.0,34.905801" fill="none" stroke="rgb(178,178,0)" stroke-width="0.1"/>
  <path d="M 100.0,57.905801 L 96.65775499999995,57.905801" fill="none" stroke="rgb(178,178,0)" stroke-width="0.1"/>
  <path d="M 96.65775499999995,57.905801 L 96.65775499999995,34.905801" fill="none" stroke="rgb(178,178,0)" stroke-width="0.1"/>
  <path d="M 96.65775499999995,34.905801 L 100.0,38.994717755319186" fill="none" stroke="rgb(178,178,0)" stroke-width="0.1"/>
  <path d="M 100.0,53.81688424468081 L 96.65775499999995,57.905801" fill="none" stroke="rgb(178,178,0)" stroke-width="0.1"/>
  <path d="M 91.958755,68.50580099999999 L 94.30775500000004,68.50580099999999" fill="none" stroke="rgb(178,178,0)" stroke-width="0.1"/>
  <path d="M 94.30775500000004,68.50580099999999 L 94.30775500000004,82.30580099999997" fill="none" stroke="rgb(178,178,0)" stroke-width="0.1"/>
  <path d="M 94.30775500000004,82.30580099999997 L 91.958755,82.30580099999997" fill="none" stroke="rgb(178,178,0)" stroke-width="0.1"/>
  <path d="M 91.958755,82.30580099999997 L 91.958755,68.50580099999999" fill="none" stroke="rgb(178,178,0)" stroke-width="0.1"/>
  <path d="M 96.65775499999995,63.905801 L 100.0,63.905801" fill="none" stroke="rgb(178,178,0)" stroke-width="0.1"/>
  <path d="M 100.0,86.905801 L 96.65775499999995,86.905801" fill="none" stroke="rgb(178,178,0)" stroke-width="0.1"/>
  <path d="M 96.65775499999995,86.905801 L 96.65775499999995,63.905801" fill="none" stroke="rgb(178,178,0)" stroke-width="0.1"/>
  <path d="M 96.65775499999995,63.905801 L 100.0,67.99471775531919" fill="none" stroke="rgb(178,178,0)" stroke-width="0.1"/>
  <path d="M 100.0,82.81688424468081 L 96.65775499999995,86.905801" fill="none" stroke="rgb(178,178,0)" stroke-width="0.1"/>
  <path d="M 32.54375500000003,100.0 L 32.54375500000003,98.506801" fill="none" stroke="rgb(178,178,0)" stroke-width="0.1"/>
  <path d="M 32.54375500000003,98.506801 L 30.19375500000001,98.506801" fill="none" stroke="rgb(178,178,0)" stroke-width="0.1"/>
  <path d="M 30.19375500000001,98.506801 L 30.19375500000001,100.0" fill="none" stroke="rgb(178,178,0)" stroke-width="0.1"/>
  <path d="M 53.68375500000002,100.0 L 53.68375500000002,93.90680099999997" fill="none" stroke="rgb(178,178,0)" stroke-width="0.1"/>
  <path d="M 53.68375500000002,93.90680099999997 L 34.89375499999994,93.90680099999997" fill="none" stroke="rgb(178,178,0)" stroke-width="0.1"/>
  <path d="M 34.89375499999994,93.90680099999997 L 34.89375499999994,100.0" fill="none" stroke="rgb(178,178,0)" stroke-width="0.1"/>
  <path d="M 48.70587633869559,100.0 L 53.68375500000002,93.90680099999997" fill="none" stroke="rgb(178,178,0)" stroke-width="0.1"/>
  <path d="M 39.87163366130437,100.0 L 34.89375499999994,93.90680099999997" fill="none" stroke="rgb(178,178,0)" stroke-width="0.1"/>
 </g>
 <g id="layerP-EQUIP_消火栓" inkscape:groupmode="layer" inkscape:label="P-EQUIP_消火栓">
  <path d="M 95.607755,3.366800999999981 L 100.0,3.366800999999981" fill="none" stroke="rgb(0,0,0)" stroke-width="0.1"/>
  <path d="M 100.0,5.111873857142825 L 95.607755,6.366800999999981" fill="none" stroke="rgb(0,0,0)" stroke-width="0.1"/>
  <path d="M 95.607755,6.366800999999981 L 95.607755,3.366800999999981" fill="none" stroke="rgb(0,0,0)" stroke-width="0.1"/>
  <path d="M 95.607755,6.366800999999981 L 100.0,6.366800999999981" fill="none" stroke="rgb(0,0,0)" stroke-width="0.1"/>
  <path d="M 100.0,7.900447689017312 L 97.45775500000002,8.538800999999978" fill="none" stroke="rgb(0,0,0)" stroke-width="0.1"/>
 </g>
 <g id="layerP-EQUIP_灭火器" inkscape:groupmode="layer" inkscape:label="P-EQUIP_灭火器">
  <path d="M 100.0,8.770074615151486 L 99.87775499999998,8.891800999999987" fill="none" stroke="rgb(0,0,0)" stroke-width="0.1"/>
  <path d="M 100.0,8.239225608108086 L 99.87775499999998,8.361800999999986" fill="none" stroke="rgb(0,0,0)" stroke-width="0.1"/>
  <path d="M 100.0,7.708923698275839 L 99.87775499999998,7.8318009999999845" fill="none" stroke="rgb(0,0,0)" stroke-width="0.1"/>
  <path d="M 99.92775500000005,7.248800999999986 L 99.87775499999998,7.300800999999979" fill="none" stroke="rgb(0,0,0)" stroke-width="0.1"/>
  <path d="M 100.0,6.590800999999999 L 97.87775499999998,6.590800999999999" fill="none" stroke="rgb(0,0,0)" stroke-width="0.1"/>
  <path d="M 97.87775499999998,6.590800999999999 L 100.0,10.261287822147665" fill="none" stroke="rgb(0,0,0)" stroke-width="0.1"/>
  <path d="M 100.0,9.196800999999994 L 99.87775499999998,9.196800999999994" fill="none" stroke="rgb(0,0,0)" stroke-width="0.1"/>
  <path d="M 99.87775499999998,9.196800999999994 L 99.87775499999998,7.248800999999986" fill="none" stroke="rgb(0,0,0)" stroke-width="0.1"/>
  <path d="M 99.87775499999998,7.248800999999986 L 100.0,7.248800999999986" fill="none" stroke="rgb(0,0,0)" stroke-width="0.1"/>
  <path d="M 100.0,7.248800999999986 L 99.87775499999998,7.248800999999986" fill="none" stroke="rgb(0,0,0)" stroke-width="0.1"/>
  <path d="M 99.87775499999998,7.248800999999986 L 99.87775499999998,9.196800999999994" fill="none" stroke="rgb(0,0,0)" stroke-width="0.1"/>
  <path d="M 99.87775499999998,9.196800999999994 L 100.0,9.196800999999994" fill="none" stroke="rgb(0,0,0)" stroke-width="0.1"/>
 </g>
 <g id="layerP-VPIPE-消防" inkscape:groupmode="layer" inkscape:label="P-VPIPE-消防">
  <circle cx="86.85375499999998" cy="93.86680099999998" fill="none" r="0.75" stroke="rgb(178,0,0)" stroke-width="0.1"/>
 </g>
 <g id="layerP-立管定位" inkscape:groupmode="layer" inkscape:label="P-立管定位">
  <path d="M 85.85375499999998,94.86680099999998 L 87.85375499999998,92.86680099999998" fill="none" stroke="rgb(178,0,0)" stroke-width="0.1"/>
  <path d="M 87.85375499999998,94.86680099999998 L 85.85375499999998,92.86680099999998" fill="none" stroke="rgb(178,0,0)" stroke-width="0.1"/>
  <path d="M 87.85375499999998,92.86680099999998 L 85.85375499999998,92.86680099999998" fill="none" stroke="rgb(178,0,0)" stroke-width="0.1"/>
  <path d="M 85.85375499999998,92.86680099999998 L 85.85375499999998,94.86680099999998" fill="none" stroke="rgb(178,0,0)" stroke-width="0.1"/>
  <path d="M 85.85375499999998,94.86680099999998 L 87.85375499999998,94.86680099999998" fill="none" stroke="rgb(178,0,0)" stroke-width="0.1"/>
  <path d="M 87.85375499999998,94.86680099999998 L 87.85375499999998,92.86680099999998" fill="none" stroke="rgb(178,0,0)" stroke-width="0.1"/>
 </g>
 <g id="layerPUB_DIM" inkscape:groupmode="layer" inkscape:label="PUB_DIM">
  <path d="M 3.586755000000039,66.57980099999997 L 3.586755000000039,52.57080099999999" fill="none" stroke="rgb(21,88,0)" stroke-width="0.1"/>
  <path d="M 3.5697549999999865,100.0 L 3.5697549999999865,99.66480099999998" fill="none" stroke="rgb(21,88,0)" stroke-width="0.1"/>
  <path d="M 30.55875500000002,19.635800999999987 L 32.14975500000003,18.04480099999998" fill="none" stroke="rgb(21,88,0)" stroke-width="0.1"/>
  <path d="M 31.35375499999998,23.340801 L 31.35375499999998,14.340800999999999" fill="none" stroke="rgb(21,88,0)" stroke-width="0.1"/>
  <path d="M 37.55875500000002,19.635800999999987 L 39.14975500000003,18.04480099999998" fill="none" stroke="rgb(21,88,0)" stroke-width="0.1"/>
  <path d="M 38.35375499999998,23.340801 L 38.35375499999998,14.340800999999999" fill="none" stroke="rgb(21,88,0)" stroke-width="0.1"/>
  <path d="M 49.55875500000002,19.635800999999987 L 51.14975500000003,18.04480099999998" fill="none" stroke="rgb(21,88,0)" stroke-width="0.1"/>
  <path d="M 50.35375499999998,23.340801 L 50.35375499999998,14.340800999999999" fill="none" stroke="rgb(21,88,0)" stroke-width="0.1"/>
  <path d="M 71.05875500000002,19.635800999999987 L 72.64975500000003,18.04480099999998" fill="none" stroke="rgb(21,88,0)" stroke-width="0.1"/>
  <path d="M 71.85375499999998,23.340801 L 71.85375499999998,14.340800999999999" fill="none" stroke="rgb(21,88,0)" stroke-width="0.1"/>
  <path d="M 79.05875500000002,19.635800999999987 L 80.64975500000003,18.04480099999998" fill="none" stroke="rgb(21,88,0)" stroke-width="0.1"/>
  <path d="M 79.85375499999998,23.340801 L 79.85375499999998,14.340800999999999" fill="none" stroke="rgb(21,88,0)" stroke-width="0.1"/>
  <path d="M 93.55775500000004,19.635800999999987 L 95.14775499999996,18.04480099999998" fill="none" stroke="rgb(21,88,0)" stroke-width="0.1"/>
  <path d="M 94.357755,23.340801 L 94.357755,14.340800999999999" fill="none" stroke="rgb(21,88,0)" stroke-width="0.1"/>
  <path d="M 60.15475500000002,24.407800999999978 L 69.15475500000002,24.407800999999978" fill="none" stroke="rgb(21,88,0)" stroke-width="0.1"/>
  <path d="M 60.15475500000002,7.405800999999997 L 69.15475500000002,7.405800999999997" fill="none" stroke="rgb(21,88,0)" stroke-width="0.1"/>
  <path d="M 60.15475500000002,6.405800999999997 L 69.15475500000002,6.405800999999997" fill="none" stroke="rgb(21,88,0)" stroke-width="0.1"/>
  <path d="M 63.85975499999995,23.611800999999986 L 65.45075499999996,25.202800999999994" fill="none" stroke="rgb(21,88,0)" stroke-width="0.1"/>
  <path d="M 63.85975499999995,6.610800999999981 L 65.45075499999996,8.201800999999989" fill="none" stroke="rgb(21,88,0)" stroke-width="0.1"/>
  <path d="M 63.85975499999995,5.610800999999981 L 65.45075499999996,7.201800999999989" fill="none" stroke="rgb(21,88,0)" stroke-width="0.1"/>
  <path d="M 28.05875500000002,50.718800999999985 L 29.649755000000027,49.12780099999998" fill="none" stroke="rgb(21,88,0)" stroke-width="0.1"/>
  <path d="M 28.85375499999998,54.423801 L 28.85375499999998,45.423801" fill="none" stroke="rgb(21,88,0)" stroke-width="0.1"/>
  <path d="M 53.05575499999998,50.718800999999985 L 54.646754999999985,49.12780099999998" fill="none" stroke="rgb(21,88,0)" stroke-width="0.1"/>
  <path d="M 53.851755000000026,54.423801 L 53.851755000000026,45.423801" fill="none" stroke="rgb(21,88,0)" stroke-width="0.1"/>
  <path d="M 55.05575499999998,50.718800999999985 L 56.646754999999985,49.12780099999998" fill="none" stroke="rgb(21,88,0)" stroke-width="0.1"/>
  <path d="M 55.851755000000026,54.423801 L 55.851755000000026,45.423801" fill="none" stroke="rgb(21,88,0)" stroke-width="0.1"/>
  <path d="M 69.05575499999998,50.718800999999985 L 70.64675499999998,49.12780099999998" fill="none" stroke="rgb(21,88,0)" stroke-width="0.1"/>
  <path d="M 69.85175500000003,54.423801 L 69.85175500000003,45.423801" fill="none" stroke="rgb(21,88,0)" stroke-width="0.1"/>
  <path d="M 71.05575499999998,50.718800999999985 L 72.64675499999998,49.12780099999998" fill="none" stroke="rgb(21,88,0)" stroke-width="0.1"/>
  <path d="M 71.85175500000003,54.423801 L 71.85175500000003,45.423801" fill="none" stroke="rgb(21,88,0)" stroke-width="0.1"/>
  <path d="M 87.05875500000002,50.718800999999985 L 88.64975500000003,49.12780099999998" fill="none" stroke="rgb(21,88,0)" stroke-width="0.1"/>
  <path d="M 87.85375499999998,54.423801 L 87.85375499999998,45.423801" fill="none" stroke="rgb(21,88,0)" stroke-width="0.1"/>
  <path d="M 11.055754999999976,16.498800999999986 L 12.646754999999985,14.907800999999978" fill="none" stroke="rgb(178,178,0)" stroke-width="0.1"/>
  <path d="M 11.851755000000026,20.203801 L 11.851755000000026,11.203800999999999" fill="none" stroke="rgb(178,178,0)" stroke-width="0.1"/>
  <path d="M 14.05875500000002,16.498800999999986 L 15.649755000000027,14.907800999999978" fill="none" stroke="rgb(178,178,0)" stroke-width="0.1"/>
  <path d="M 14.853754999999978,20.203801 L 14.853754999999978,11.203800999999999" fill="none" stroke="rgb(178,178,0)" stroke-width="0.1"/>
  <path d="M 4.4867550000000165,66.57980099999997 L 3.586755000000039,71.07980099999997" fill="none" stroke="rgb(21,88,0)" stroke-width="0.1"/>
  <path d="M 3.586755000000039,71.07980099999997 L 2.6867549999999483,66.57980099999997" fill="none" stroke="rgb(21,88,0)" stroke-width="0.1"/>
  <path d="M 2.6867549999999483,66.57980099999997 L 4.4867550000000165,66.57980099999997" fill="none" stroke="rgb(21,88,0)" stroke-width="0.1"/>
  <path d="M 4.469754999999964,99.66480099999998 L 3.5697549999999865,95.16480099999998" fill="none" stroke="rgb(21,88,0)" stroke-width="0.1"/>
  <path d="M 3.5697549999999865,95.16480099999998 L 2.669755000000009,99.66480099999998" fill="none" stroke="rgb(21,88,0)" stroke-width="0.1"/>
  <path d="M 2.669755000000009,99.66480099999998 L 4.469754999999964,99.66480099999998" fill="none" stroke="rgb(21,88,0)" stroke-width="0.1"/>
  <path d="M 100.0,18.840801 L 31.35375499999998,18.840801" fill="none" stroke="rgb(21,88,0)" stroke-width="0.1"/>
  <path d="M 31.35375499999998,18.840801 L 31.35375499999998,11.995800999999972" fill="none" stroke="rgb(21,88,0)" stroke-width="0.1"/>
  <path d="M 54.23575500000004,24.407800999999978 L 64.65475500000002,24.407800999999978" fill="none" stroke="rgb(21,88,0)" stroke-width="0.1"/>
  <path d="M 64.65475500000002,24.407800999999978 L 64.65475500000002,7.405800999999997" fill="none" stroke="rgb(21,88,0)" stroke-width="0.1"/>
  <path d="M 64.65475500000002,7.405800999999997 L 64.65475500000002,6.405800999999997" fill="none" stroke="rgb(21,88,0)" stroke-width="0.1"/>
  <path d="M 64.65475500000002,6.405800999999997 L 64.65499225188887,0.0" fill="none" stroke="rgb(21,88,0)" stroke-width="0.1"/>
  <path d="M 28.85375499999998,54.31880099999998 L 28.85375499999998,49.923801" fill="none" stroke="rgb(21,88,0)" stroke-width="0.1"/>
  <path d="M 28.85375499999998,49.923801 L 87.85375499999998,49.923801" fill="none" stroke="rgb(21,88,0)" stroke-width="0.1"/>
  <path d="M 87.85375499999998,49.923801 L 87.85375499999998,54.31880099999998" fill="none" stroke="rgb(21,88,0)" stroke-width="0.1"/>
  <path d="M 0.0,15.703800999999999 L 14.853754999999978,15.703800999999999" fill="none" stroke="rgb(178,178,0)" stroke-width="0.1"/>
  <path d="M 14.853754999999978,15.703800999999999 L 14.853754999999978,24.407800999999978" fill="none" stroke="rgb(178,178,0)" stroke-width="0.1"/>
  <text fill="rgb(0,0,0)" font-family="Noto Sans CJK SC" font-size="2" transform="rotate(-0.0,3.586755000000039,31.553800999999993)" x="3.586755000000039" y="31.553800999999993">
   下
  </text>
  <text fill="rgb(0,0,0)" font-family="Noto Sans CJK SC" font-size="2" transform="rotate(-360.0,30.803755000000024,16.635800999999987)" x="30.803755000000024" y="16.635800999999987">
   700
  </text>
  <text fill="rgb(0,0,0)" font-family="Noto Sans CJK SC" font-size="2" transform="rotate(-360.0,39.10375499999998,16.635800999999987)" x="39.10375499999998" y="16.635800999999987">
   1200
  </text>
  <text fill="rgb(0,0,0)" font-family="Noto Sans CJK SC" font-size="2" transform="rotate(-360.0,55.85375499999998,16.635800999999987)" x="55.85375499999998" y="16.635800999999987">
   2150
  </text>
  <text fill="rgb(0,0,0)" font-family="Noto Sans CJK SC" font-size="2" transform="rotate(-360.0,71.80375500000002,16.635800999999987)" x="71.80375500000002" y="16.635800999999987">
   800
  </text>
  <text fill="rgb(0,0,0)" font-family="Noto Sans CJK SC" font-size="2" transform="rotate(-360.0,81.85375499999998,16.635800999999987)" x="81.85375499999998" y="16.635800999999987">
   1450
  </text>
  <text fill="rgb(0,0,0)" font-family="Noto Sans CJK SC" font-size="2" transform="rotate(-89.9997,68.85375499999998,19.99780099999998)" x="68.85375499999998" y="19.99780099999998">
   1700
  </text>
  <text fill="rgb(0,0,0)" font-family="Noto Sans CJK SC" font-size="2" transform="rotate(-89.9997,62.44975499999998,10.655800999999997)" x="62.44975499999998" y="10.655800999999997">
   100
  </text>
  <text fill="rgb(0,0,0)" font-family="Noto Sans CJK SC" font-size="2" transform="rotate(-360.0,35.80275500000005,47.718800999999985)" x="35.80275500000005" y="47.718800999999985">
   2500
  </text>
  <text fill="rgb(0,0,0)" font-family="Noto Sans CJK SC" font-size="2" transform="rotate(-360.0,50.80175499999996,47.718800999999985)" x="50.80175499999996" y="47.718800999999985">
   200
  </text>
  <text fill="rgb(0,0,0)" font-family="Noto Sans CJK SC" font-size="2" transform="rotate(-360.0,57.601755000000026,47.718800999999985)" x="57.601755000000026" y="47.718800999999985">
   1400
  </text>
  <text fill="rgb(0,0,0)" font-family="Noto Sans CJK SC" font-size="2" transform="rotate(-360.0,66.80175499999996,47.718800999999985)" x="66.80175499999996" y="47.718800999999985">
   200
  </text>
  <text fill="rgb(0,0,0)" font-family="Noto Sans CJK SC" font-size="2" transform="rotate(-360.0,74.602755,47.718800999999985)" x="74.602755" y="47.718800999999985">
   1600
  </text>
  <text fill="rgb(0,0,0)" font-family="Noto Sans CJK SC" font-size="2" transform="rotate(-360.0,15.330754999999954,13.528800999999987)" x="15.330754999999954" y="13.528800999999987">
   300
  </text>
 </g>
 <g id="layerPUB_HATCH" inkscape:groupmode="layer" inkscape:label="PUB_HATCH">
  <path d="M 11.851755000000026,25.98780099999999 L 13.430754999999976,24.407800999999978" fill="none" instance-id="-1" semantic-id="1" stroke="rgb(0,0,0)" stroke-width="0.1"/>
  <path d="M 13.853754999999978,25.407800999999978 L 13.853754999999978,24.407800999999978" fill="none" instance-id="-1" semantic-id="1" stroke="rgb(0,0,0)" stroke-width="0.1"/>
  <path d="M 13.853754999999978,24.407800999999978 L 11.851755000000026,24.407800999999978" fill="none" instance-id="-1" semantic-id="1" stroke="rgb(0,0,0)" stroke-width="0.1"/>
  <path d="M 11.851755000000026,24.407800999999978 L 11.851755000000026,26.407800999999978" fill="none" instance-id="-1" semantic-id="1" stroke="rgb(0,0,0)" stroke-width="0.1"/>
  <path d="M 11.851755000000026,26.407800999999978 L 12.853754999999978,26.407800999999978" fill="none" instance-id="-1" semantic-id="1" stroke="rgb(0,0,0)" stroke-width="0.1"/>
  <path d="M 12.853754999999978,26.407800999999978 L 13.853754999999978,25.407800999999978" fill="none" instance-id="-1" semantic-id="1" stroke="rgb(0,0,0)" stroke-width="0.1"/>
  <path d="M 28.85375499999998,90.905801 L 28.85375499999998,54.905801" fill="none" instance-id="-1" semantic-id="1" stroke="rgb(89,89,89)" stroke-width="0.1"/>
  <path d="M 28.85375499999998,54.905801 L 87.85375499999998,54.905801" fill="none" instance-id="-1" semantic-id="1" stroke="rgb(89,89,89)" stroke-width="0.1"/>
  <path d="M 87.85375499999998,54.905801 L 87.85375499999998,51.905801" fill="none" instance-id="-1" semantic-id="1" stroke="rgb(89,89,89)" stroke-width="0.1"/>
  <path d="M 87.85375499999998,51.905801 L 28.85375499999998,51.905801" fill="none" instance-id="-1" semantic-id="1" stroke="rgb(89,89,89)" stroke-width="0.1"/>
  <path d="M 28.85375499999998,51.905801 L 28.85375499999998,32.405801" fill="none" instance-id="-1" semantic-id="1" stroke="rgb(89,89,89)" stroke-width="0.1"/>
  <path d="M 28.85375499999998,32.405801 L 38.85375499999998,32.405801" fill="none" instance-id="-1" semantic-id="1" stroke="rgb(89,89,89)" stroke-width="0.1"/>
  <path d="M 38.85375499999998,32.405801 L 38.85375499999998,24.405800999999997" fill="none" instance-id="-1" semantic-id="1" stroke="rgb(89,89,89)" stroke-width="0.1"/>
  <path d="M 38.85375499999998,24.405800999999997 L 21.85375499999998,24.405800999999997" fill="none" instance-id="-1" semantic-id="1" stroke="rgb(89,89,89)" stroke-width="0.1"/>
  <path d="M 21.85375499999998,24.405800999999997 L 21.85375499999998,100.0" fill="none" instance-id="-1" semantic-id="1" stroke="rgb(89,89,89)" stroke-width="0.1"/>
  <path d="M 28.85375499999998,100.0 L 28.85375499999998,92.905801" fill="none" instance-id="-1" semantic-id="1" stroke="rgb(89,89,89)" stroke-width="0.1"/>
  <path d="M 28.85375499999998,92.905801 L 57.85375499999998,92.905801" fill="none" instance-id="-1" semantic-id="1" stroke="rgb(89,89,89)" stroke-width="0.1"/>
  <path d="M 57.85375499999998,92.905801 L 57.85375499999998,98.405801" fill="none" instance-id="-1" semantic-id="1" stroke="rgb(89,89,89)" stroke-width="0.1"/>
  <path d="M 57.85375499999998,98.405801 L 60.85375499999998,98.405801" fill="none" instance-id="-1" semantic-id="1" stroke="rgb(89,89,89)" stroke-width="0.1"/>
  <path d="M 60.85375499999998,98.405801 L 60.85375499999998,90.905801" fill="none" instance-id="-1" semantic-id="1" stroke="rgb(89,89,89)" stroke-width="0.1"/>
  <path d="M 60.85375499999998,90.905801 L 28.85375499999998,90.905801" fill="none" instance-id="-1" semantic-id="1" stroke="rgb(89,89,89)" stroke-width="0.1"/>
  <path d="M 90.85375499999998,88.405801 L 90.85375499999998,60.905801" fill="none" instance-id="-1" semantic-id="1" stroke="rgb(89,89,89)" stroke-width="0.1"/>
  <path d="M 90.85375499999998,60.905801 L 98.857755,60.905801" fill="none" instance-id="-1" semantic-id="1" stroke="rgb(89,89,89)" stroke-width="0.1"/>
  <path d="M 98.857755,60.905801 L 98.857755,58.905801" fill="none" instance-id="-1" semantic-id="1" stroke="rgb(89,89,89)" stroke-width="0.1"/>
  <path d="M 98.857755,58.905801 L 90.85375499999998,58.905801" fill="none" instance-id="-1" semantic-id="1" stroke="rgb(89,89,89)" stroke-width="0.1"/>
  <path d="M 90.85375499999998,58.905801 L 90.85375499999998,30.405800999999997" fill="none" instance-id="-1" semantic-id="1" stroke="rgb(89,89,89)" stroke-width="0.1"/>
  <path d="M 90.85375499999998,30.405800999999997 L 100.0,30.405800999999997" fill="none" instance-id="-1" semantic-id="1" stroke="rgb(89,89,89)" stroke-width="0.1"/>
  <path d="M 100.0,24.405800999999997 L 87.85375499999998,24.405800999999997" fill="none" instance-id="-1" semantic-id="1" stroke="rgb(89,89,89)" stroke-width="0.1"/>
  <path d="M 87.85375499999998,24.405800999999997 L 87.85375499999998,100.0" fill="none" instance-id="-1" semantic-id="1" stroke="rgb(89,89,89)" stroke-width="0.1"/>
  <path d="M 90.85375499999998,100.0 L 90.85375499999998,90.405801" fill="none" instance-id="-1" semantic-id="1" stroke="rgb(89,89,89)" stroke-width="0.1"/>
  <path d="M 90.85375499999998,90.405801 L 100.0,90.405801" fill="none" instance-id="-1" semantic-id="1" stroke="rgb(89,89,89)" stroke-width="0.1"/>
  <path d="M 100.0,88.405801 L 90.85375499999998,88.405801" fill="none" instance-id="-1" semantic-id="1" stroke="rgb(89,89,89)" stroke-width="0.1"/>
  <path d="M 28.85375499999998,100.0 L 28.85375499999998,92.90680099999997" fill="none" instance-id="-1" semantic-id="1" stroke="rgb(89,89,89)" stroke-width="0.1"/>
  <path d="M 28.85375499999998,92.90680099999997 L 57.84375499999999,92.92180099999999" fill="none" instance-id="-1" semantic-id="1" stroke="rgb(89,89,89)" stroke-width="0.1"/>
  <path d="M 57.84375499999999,92.92180099999999 L 57.84375499999999,98.405801" fill="none" instance-id="-1" semantic-id="1" stroke="rgb(89,89,89)" stroke-width="0.1"/>
  <path d="M 57.84375499999999,98.405801 L 60.85375499999998,98.405801" fill="none" instance-id="-1" semantic-id="1" stroke="rgb(89,89,89)" stroke-width="0.1"/>
  <path d="M 60.85375499999998,98.405801 L 60.85375499999998,90.905801" fill="none" instance-id="-1" semantic-id="1" stroke="rgb(89,89,89)" stroke-width="0.1"/>
  <path d="M 60.85375499999998,90.905801 L 28.85375499999998,90.905801" fill="none" instance-id="-1" semantic-id="1" stroke="rgb(89,89,89)" stroke-width="0.1"/>
  <path d="M 28.85375499999998,90.905801 L 28.85375499999998,54.905801" fill="none" instance-id="-1" semantic-id="1" stroke="rgb(89,89,89)" stroke-width="0.1"/>
  <path d="M 28.85375499999998,54.905801 L 74.35375499999998,54.905801" fill="none" instance-id="-1" semantic-id="1" stroke="rgb(89,89,89)" stroke-width="0.1"/>
  <path d="M 74.35375499999998,54.905801 L 74.35375499999998,51.905801" fill="none" instance-id="-1" semantic-id="1" stroke="rgb(89,89,89)" stroke-width="0.1"/>
  <path d="M 74.35375499999998,51.905801 L 28.85375499999998,51.905801" fill="none" instance-id="-1" semantic-id="1" stroke="rgb(89,89,89)" stroke-width="0.1"/>
  <path d="M 28.85375499999998,51.905801 L 28.85375499999998,30.405800999999997" fill="none" instance-id="-1" semantic-id="1" stroke="rgb(89,89,89)" stroke-width="0.1"/>
  <path d="M 28.85375499999998,30.405800999999997 L 38.85375499999998,30.405800999999997" fill="none" instance-id="-1" semantic-id="1" stroke="rgb(89,89,89)" stroke-width="0.1"/>
  <path d="M 38.85375499999998,30.405800999999997 L 38.85375499999998,24.405800999999997" fill="none" instance-id="-1" semantic-id="1" stroke="rgb(89,89,89)" stroke-width="0.1"/>
  <path d="M 38.85375499999998,24.405800999999997 L 21.848754999999983,24.405800999999997" fill="none" instance-id="-1" semantic-id="1" stroke="rgb(89,89,89)" stroke-width="0.1"/>
  <path d="M 21.848754999999983,24.405800999999997 L 21.848754999999983,48.405801" fill="none" instance-id="-1" semantic-id="1" stroke="rgb(89,89,89)" stroke-width="0.1"/>
  <path d="M 21.848754999999983,48.405801 L 21.848754999999983,61.405801" fill="none" instance-id="-1" semantic-id="1" stroke="rgb(89,89,89)" stroke-width="0.1"/>
  <path d="M 21.848754999999983,61.405801 L 21.848754999999983,100.0" fill="none" instance-id="-1" semantic-id="1" stroke="rgb(89,89,89)" stroke-width="0.1"/>
  <path d="M 90.85375499999998,30.405800999999997 L 100.0,30.405800999999997" fill="none" instance-id="-1" semantic-id="1" stroke="rgb(89,89,89)" stroke-width="0.1"/>
  <path d="M 100.0,24.405800999999997 L 87.85375499999998,24.405800999999997" fill="none" instance-id="-1" semantic-id="1" stroke="rgb(89,89,89)" stroke-width="0.1"/>
  <path d="M 87.85375499999998,24.405800999999997 L 87.85375499999998,100.0" fill="none" instance-id="-1" semantic-id="1" stroke="rgb(89,89,89)" stroke-width="0.1"/>
  <path d="M 90.85375499999998,100.0 L 90.85375499999998,90.405801" fill="none" instance-id="-1" semantic-id="1" stroke="rgb(89,89,89)" stroke-width="0.1"/>
  <path d="M 90.85375499999998,90.405801 L 98.857755,90.405801" fill="none" instance-id="-1" semantic-id="1" stroke="rgb(89,89,89)" stroke-width="0.1"/>
  <path d="M 98.857755,90.405801 L 98.857755,88.405801" fill="none" instance-id="-1" semantic-id="1" stroke="rgb(89,89,89)" stroke-width="0.1"/>
  <path d="M 98.857755,88.405801 L 90.85375499999998,88.405801" fill="none" instance-id="-1" semantic-id="1" stroke="rgb(89,89,89)" stroke-width="0.1"/>
  <path d="M 90.85375499999998,88.405801 L 90.85375499999998,60.905801" fill="none" instance-id="-1" semantic-id="1" stroke="rgb(89,89,89)" stroke-width="0.1"/>
  <path d="M 90.85375499999998,60.905801 L 98.857755,60.905801" fill="none" instance-id="-1" semantic-id="1" stroke="rgb(89,89,89)" stroke-width="0.1"/>
  <path d="M 98.857755,60.905801 L 98.857755,58.905801" fill="none" instance-id="-1" semantic-id="1" stroke="rgb(89,89,89)" stroke-width="0.1"/>
  <path d="M 98.857755,58.905801 L 90.85375499999998,58.905801" fill="none" instance-id="-1" semantic-id="1" stroke="rgb(89,89,89)" stroke-width="0.1"/>
  <path d="M 90.85375499999998,58.905801 L 90.85375499999998,30.405800999999997" fill="none" instance-id="-1" semantic-id="1" stroke="rgb(89,89,89)" stroke-width="0.1"/>
  <path d="M 14.853754999999978,30.405800999999997 L 14.853754999999978,24.405800999999997" fill="none" instance-id="-1" semantic-id="1" stroke="rgb(89,89,89)" stroke-width="0.1"/>
  <path d="M 14.853754999999978,24.405800999999997 L 12.853754999999978,24.405800999999997" fill="none" instance-id="-1" semantic-id="1" stroke="rgb(89,89,89)" stroke-width="0.1"/>
  <path d="M 12.853754999999978,24.405800999999997 L 12.853754999999978,30.405800999999997" fill="none" instance-id="-1" semantic-id="1" stroke="rgb(89,89,89)" stroke-width="0.1"/>
  <path d="M 12.853754999999978,30.405800999999997 L 14.853754999999978,30.405800999999997" fill="none" instance-id="-1" semantic-id="1" stroke="rgb(89,89,89)" stroke-width="0.1"/>
  <path d="M 14.848754999999983,88.60580099999999 L 14.848754999999983,82.60580099999999" fill="none" instance-id="-1" semantic-id="1" stroke="rgb(89,89,89)" stroke-width="0.1"/>
  <path d="M 14.848754999999983,82.60580099999999 L 12.848754999999983,82.60580099999999" fill="none" instance-id="-1" semantic-id="1" stroke="rgb(89,89,89)" stroke-width="0.1"/>
  <path d="M 12.848754999999983,82.60580099999999 L 12.848754999999983,88.60580099999999" fill="none" instance-id="-1" semantic-id="1" stroke="rgb(89,89,89)" stroke-width="0.1"/>
  <path d="M 12.848754999999983,88.60580099999999 L 14.848754999999983,88.60580099999999" fill="none" instance-id="-1" semantic-id="1" stroke="rgb(89,89,89)" stroke-width="0.1"/>
 </g>
 <g id="layerSPACE" inkscape:groupmode="layer" inkscape:label="SPACE">
  <text fill="rgb(0,0,0)" font-family="Noto Sans CJK SC" font-size="2" transform="rotate(-0.0,9.542754999999943,1.934800999999979)" x="9.542754999999943" y="1.934800999999979">
   房间
  </text>
 </g>
 <g id="layerSTAIR" inkscape:groupmode="layer" inkscape:label="STAIR">
  <path d="M 12.353754999999978,75.30580099999997 L 0.0,75.30580099999997" fill="none" stroke="rgb(178,178,0)" stroke-width="0.1"/>
  <path d="M 12.353754999999978,52.905801 L 0.0,52.905801" fill="none" stroke="rgb(178,178,0)" stroke-width="0.1"/>
  <path d="M 12.353754999999978,55.70580099999998 L 0.0,55.70580099999998" fill="none" stroke="rgb(178,178,0)" stroke-width="0.1"/>
  <path d="M 12.353754999999978,58.50580099999999 L 0.0,58.50580099999999" fill="none" stroke="rgb(178,178,0)" stroke-width="0.1"/>
  <path d="M 12.353754999999978,61.305800999999974 L 0.0,61.305800999999974" fill="none" stroke="rgb(178,178,0)" stroke-width="0.1"/>
  <path d="M 12.353754999999978,64.10580099999999 L 0.0,64.10580099999999" fill="none" stroke="rgb(178,178,0)" stroke-width="0.1"/>
  <path d="M 12.353754999999978,66.905801 L 0.0,66.905801" fill="none" stroke="rgb(178,178,0)" stroke-width="0.1"/>
  <path d="M 12.353754999999978,69.70580099999998 L 0.0,69.70580099999998" fill="none" stroke="rgb(178,178,0)" stroke-width="0.1"/>
  <path d="M 12.353754999999978,72.50580099999999 L 0.0,72.50580099999999" fill="none" stroke="rgb(178,178,0)" stroke-width="0.1"/>
  <path d="M 12.353754999999978,78.10580099999999 L 0.0,78.10580099999999" fill="none" stroke="rgb(178,178,0)" stroke-width="0.1"/>
  <path d="M 12.353754999999978,93.10580099999999 L 0.0,93.10580099999999" fill="none" stroke="rgb(178,178,0)" stroke-width="0.1"/>
  <path d="M 12.353754999999978,95.905801 L 0.0,95.905801" fill="none" stroke="rgb(178,178,0)" stroke-width="0.1"/>
  <path d="M 12.353754999999978,98.70580099999998 L 0.0,98.70580099999998" fill="none" stroke="rgb(178,178,0)" stroke-width="0.1"/>
  <path d="M 12.353754999999978,52.905801 L 12.347290116529052,52.40371668372771" fill="none" stroke="rgb(178,178,0)" stroke-width="0.1"/>
  <path d="M 12.347290116529052,52.40371668372771 L 12.327899752754206,51.90196528197825" fill="none" stroke="rgb(178,178,0)" stroke-width="0.1"/>
  <path d="M 12.327899752754206,51.90196528197825 L 12.295596765746268,51.40087948853039" fill="none" stroke="rgb(178,178,0)" stroke-width="0.1"/>
  <path d="M 12.295596765746268,51.40087948853039 L 12.250402574484497,50.900791555821456" fill="none" stroke="rgb(178,178,0)" stroke-width="0.1"/>
  <path d="M 12.250402574484497,50.900791555821456 L 12.192347145653912,50.40203307464225" fill="none" stroke="rgb(178,178,0)" stroke-width="0.1"/>
  <path d="M 12.192347145653912,50.40203307464225 L 12.121468973776018,49.90493475427078" fill="none" stroke="rgb(178,178,0)" stroke-width="0.1"/>
  <path d="M 12.121468973776018,49.90493475427078 L 12.037815055683495,49.40982620319065" fill="none" stroke="rgb(178,178,0)" stroke-width="0.1"/>
  <path d="M 12.037815055683495,49.40982620319065 L 11.941440859359432,48.91703571053907" fill="none" stroke="rgb(178,178,0)" stroke-width="0.1"/>
  <path d="M 11.941440859359432,48.91703571053907 L 11.832410287157472,48.426890028429995" fill="none" stroke="rgb(178,178,0)" stroke-width="0.1"/>
  <path d="M 11.832410287157472,48.426890028429995 L 11.710795633430735,47.93971415529603" fill="none" stroke="rgb(178,178,0)" stroke-width="0.1"/>
  <path d="M 11.710795633430735,47.93971415529603 L 11.576677536596208,47.45583112039361" fill="none" stroke="rgb(178,178,0)" stroke-width="0.1"/>
  <path d="M 11.576677536596208,47.45583112039361 L 11.4301449256659,46.97556176961339" fill="none" stroke="rgb(178,178,0)" stroke-width="0.1"/>
  <path d="M 11.4301449256659,46.97556176961339 L 11.271294961281342,46.499224552738724" fill="none" stroke="rgb(178,178,0)" stroke-width="0.1"/>
  <path d="M 11.271294961281342,46.499224552738724 L 11.100232971289643,46.02713531229264" fill="none" stroke="rgb(178,178,0)" stroke-width="0.1"/>
  <path d="M 11.100232971289643,46.02713531229264 L 10.917072380904074,45.5596070741139" fill="none" stroke="rgb(178,178,0)" stroke-width="0.1"/>
  <path d="M 10.917072380904074,45.5596070741139 L 10.721934637496588,45.09694983980029" fill="none" stroke="rgb(178,178,0)" stroke-width="0.1"/>
  <path d="M 10.721934637496588,45.09694983980029 L 10.514949130069226,44.63947038115771" fill="none" stroke="rgb(178,178,0)" stroke-width="0.1"/>
  <path d="M 10.514949130069226,44.63947038115771 L 10.296253103461481,44.18747203679027" fill="none" stroke="rgb(178,178,0)" stroke-width="0.1"/>
  <path d="M 10.296253103461481,44.18747203679027 L 10.065991567348192,43.74125451096725" fill="none" stroke="rgb(178,178,0)" stroke-width="0.1"/>
  <path d="M 10.065991567348192,43.74125451096725 L 9.82431720008799,43.30111367489965" fill="none" stroke="rgb(178,178,0)" stroke-width="0.1"/>
  <path d="M 9.82431720008799,43.30111367489965 L 9.571390247488466,42.86734137055831" fill="none" stroke="rgb(178,178,0)" stroke-width="0.1"/>
  <path d="M 9.571390247488466,42.86734137055831 L 9.30737841655207,42.4402252171638" fill="none" stroke="rgb(178,178,0)" stroke-width="0.1"/>
  <path d="M 9.30737841655207,42.4402252171638 L 9.032456764276048,42.020048420476144" fill="none" stroke="rgb(178,178,0)" stroke-width="0.1"/>
  <path d="M 9.032456764276048,42.020048420476144 L 8.746807581577855,41.60708958501101" fill="none" stroke="rgb(178,178,0)" stroke-width="0.1"/>
  <path d="M 8.746807581577855,41.60708958501101 L 8.450620272424544,41.2016225293068" fill="none" stroke="rgb(178,178,0)" stroke-width="0.1"/>
  <path d="M 8.450620272424544,41.2016225293068 L 8.144091228245884,40.80391610436524" fill="none" stroke="rgb(178,178,0)" stroke-width="0.1"/>
  <path d="M 8.144091228245884,40.80391610436524 L 7.827423697713698,40.414234015385574" fill="none" stroke="rgb(178,178,0)" stroke-width="0.1"/>
  <path d="M 7.827423697713698,40.414234015385574 L 7.500827651975101,40.03283464691097" fill="none" stroke="rgb(178,178,0)" stroke-width="0.1"/>
  <path d="M 7.500827651975101,40.03283464691097 L 7.164519645427845,39.65997089150278" fill="none" stroke="rgb(178,178,0)" stroke-width="0.1"/>
  <path d="M 7.164519645427845,39.65997089150278 L 6.8187226721306615,39.29588998205631" fill="none" stroke="rgb(178,178,0)" stroke-width="0.1"/>
  <path d="M 6.8187226721306615,39.29588998205631 L 6.463666017943638,38.94083332786931" fill="none" stroke="rgb(178,178,0)" stroke-width="0.1"/>
  <path d="M 6.463666017943638,38.94083332786931 L 6.099585108497195,38.5950363545721" fill="none" stroke="rgb(178,178,0)" stroke-width="0.1"/>
  <path d="M 6.099585108497195,38.5950363545721 L 5.726721353089033,38.258728348024846" fill="none" stroke="rgb(178,178,0)" stroke-width="0.1"/>
  <path d="M 5.726721353089033,38.258728348024846 L 5.345321984614429,37.932132302286306" fill="none" stroke="rgb(178,178,0)" stroke-width="0.1"/>
  <path d="M 5.345321984614429,37.932132302286306 L 4.955639895634704,37.61546477175415" fill="none" stroke="rgb(178,178,0)" stroke-width="0.1"/>
  <path d="M 4.955639895634704,37.61546477175415 L 4.557933470693115,37.30893572757546" fill="none" stroke="rgb(178,178,0)" stroke-width="0.1"/>
  <path d="M 4.557933470693115,37.30893572757546 L 4.152466414989021,37.01274841842218" fill="none" stroke="rgb(178,178,0)" stroke-width="0.1"/>
  <path d="M 4.152466414989021,37.01274841842218 L 3.739507579523888,36.72709923572393" fill="none" stroke="rgb(178,178,0)" stroke-width="0.1"/>
  <path d="M 3.739507579523888,36.72709923572393 L 3.319330782836232,36.45217758344788" fill="none" stroke="rgb(178,178,0)" stroke-width="0.1"/>
  <path d="M 3.319330782836232,36.45217758344788 L 2.892214629441696,36.18816575251151" fill="none" stroke="rgb(178,178,0)" stroke-width="0.1"/>
  <path d="M 2.892214629441696,36.18816575251151 L 2.45844232510035,35.93523879991196" fill="none" stroke="rgb(178,178,0)" stroke-width="0.1"/>
  <path d="M 2.45844232510035,35.93523879991196 L 2.0183014890327513,35.69356443265184" fill="none" stroke="rgb(178,178,0)" stroke-width="0.1"/>
  <path d="M 2.0183014890327513,35.69356443265184 L 1.5720839632097068,35.463302896538494" fill="none" stroke="rgb(178,178,0)" stroke-width="0.1"/>
  <path d="M 1.5720839632097068,35.463302896538494 L 1.1200856188422676,35.244606869930806" fill="none" stroke="rgb(178,178,0)" stroke-width="0.1"/>
  <path d="M 1.1200856188422676,35.244606869930806 L 0.6626061601996298,35.03762136250339" fill="none" stroke="rgb(178,178,0)" stroke-width="0.1"/>
  <path d="M 0.6626061601996298,35.03762136250339 L 0.1999489258861331,34.842483619095844" fill="none" stroke="rgb(178,178,0)" stroke-width="0.1"/>
  <path d="M 42.698755000000006,54.905801 A 13.7522,13.7522 0.0 0,0 42.70175500000005,82.405801" fill="none" instance-id="17" semantic-id="30" stroke="rgb(178,178,0)" stroke-width="0.1"/>
  <path d="M 71.85375499999998,82.40180099999998 A 13.7545,13.7545 0.0 0,0 72.00375499999996,54.905801" fill="none" instance-id="17" semantic-id="30" stroke="rgb(178,178,0)" stroke-width="0.1"/>
  <path d="M 45.85375499999998,82.405801 L 45.85375499999998,70.00580099999999" fill="none" instance-id="17" semantic-id="30" stroke="rgb(178,178,0)" stroke-width="0.1"/>
  <path d="M 45.85375499999998,67.30580099999997 L 45.85375499999998,54.905801" fill="none" instance-id="17" semantic-id="30" stroke="rgb(178,178,0)" stroke-width="0.1"/>
  <path d="M 48.453755,82.405801 L 48.453755,70.00580099999999" fill="none" instance-id="17" semantic-id="30" stroke="rgb(178,178,0)" stroke-width="0.1"/>
  <path d="M 48.453755,67.30580099999997 L 48.453755,54.905801" fill="none" instance-id="17" semantic-id="30" stroke="rgb(178,178,0)" stroke-width="0.1"/>
  <path d="M 51.053755000000024,82.405801 L 51.053755000000024,70.00580099999999" fill="none" instance-id="17" semantic-id="30" stroke="rgb(178,178,0)" stroke-width="0.1"/>
  <path d="M 51.053755000000024,67.30580099999997 L 51.053755000000024,54.905801" fill="none" instance-id="17" semantic-id="30" stroke="rgb(178,178,0)" stroke-width="0.1"/>
  <path d="M 53.65375500000005,82.405801 L 53.65375500000005,70.00580099999999" fill="none" instance-id="17" semantic-id="30" stroke="rgb(178,178,0)" stroke-width="0.1"/>
  <path d="M 53.65375500000005,67.30580099999997 L 53.65375500000005,54.905801" fill="none" instance-id="17" semantic-id="30" stroke="rgb(178,178,0)" stroke-width="0.1"/>
  <path d="M 56.253754999999956,82.405801 L 56.253754999999956,70.00580099999999" fill="none" instance-id="17" semantic-id="30" stroke="rgb(178,178,0)" stroke-width="0.1"/>
  <path d="M 56.253754999999956,67.30580099999997 L 56.253754999999956,54.905801" fill="none" instance-id="17" semantic-id="30" stroke="rgb(178,178,0)" stroke-width="0.1"/>
  <path d="M 58.85375499999998,82.405801 L 58.85375499999998,70.00580099999999" fill="none" instance-id="17" semantic-id="30" stroke="rgb(178,178,0)" stroke-width="0.1"/>
  <path d="M 58.85375499999998,67.30580099999997 L 58.85375499999998,54.905801" fill="none" instance-id="17" semantic-id="30" stroke="rgb(178,178,0)" stroke-width="0.1"/>
  <path d="M 61.453755,82.405801 L 61.453755,70.00580099999999" fill="none" instance-id="17" semantic-id="30" stroke="rgb(178,178,0)" stroke-width="0.1"/>
  <path d="M 61.453755,67.30580099999997 L 61.453755,54.905801" fill="none" instance-id="17" semantic-id="30" stroke="rgb(178,178,0)" stroke-width="0.1"/>
  <path d="M 64.05375500000002,82.405801 L 64.05375500000002,70.00580099999999" fill="none" instance-id="17" semantic-id="30" stroke="rgb(178,178,0)" stroke-width="0.1"/>
  <path d="M 64.05375500000002,67.30580099999997 L 64.05375500000002,54.905801" fill="none" instance-id="17" semantic-id="30" stroke="rgb(178,178,0)" stroke-width="0.1"/>
  <path d="M 66.65375500000005,82.405801 L 66.65375500000005,70.00580099999999" fill="none" instance-id="17" semantic-id="30" stroke="rgb(178,178,0)" stroke-width="0.1"/>
  <path d="M 66.65375500000005,67.30580099999997 L 66.65375500000005,54.905801" fill="none" instance-id="17" semantic-id="30" stroke="rgb(178,178,0)" stroke-width="0.1"/>
  <path d="M 69.25375499999996,82.405801 L 69.25375499999996,70.00580099999999" fill="none" instance-id="17" semantic-id="30" stroke="rgb(178,178,0)" stroke-width="0.1"/>
  <path d="M 69.25375499999996,67.30580099999997 L 69.25375499999996,54.905801" fill="none" instance-id="17" semantic-id="30" stroke="rgb(178,178,0)" stroke-width="0.1"/>
  <path d="M 12.853754999999978,100.0 L 12.853754999999978,52.905801" fill="none" stroke="rgb(178,178,0)" stroke-width="0.1"/>
  <path d="M 12.853754999999978,52.905801 L 12.353754999999978,52.905801" fill="none" stroke="rgb(178,178,0)" stroke-width="0.1"/>
  <path d="M 12.353754999999978,52.905801 L 12.353754999999978,100.0" fill="none" stroke="rgb(178,178,0)" stroke-width="0.1"/>
  <path d="M 72.453755,70.00580099999999 L 72.453755,67.30580099999997" fill="none" instance-id="17" semantic-id="30" stroke="rgb(178,178,0)" stroke-width="0.1"/>
  <path d="M 72.453755,67.30580099999997 L 42.65375500000005,67.30580099999997" fill="none" instance-id="17" semantic-id="30" stroke="rgb(178,178,0)" stroke-width="0.1"/>
  <path d="M 42.65375500000005,67.30580099999997 L 42.65375500000005,70.00580099999999" fill="none" instance-id="17" semantic-id="30" stroke="rgb(178,178,0)" stroke-width="0.1"/>
  <path d="M 42.65375500000005,70.00580099999999 L 72.453755,70.00580099999999" fill="none" instance-id="17" semantic-id="30" stroke="rgb(178,178,0)" stroke-width="0.1"/>
  <path d="M 43.253754999999956,54.905801 L 71.85375499999998,54.905801" fill="none" instance-id="17" semantic-id="30" stroke="rgb(178,178,0)" stroke-width="0.1"/>
  <path d="M 71.85375499999998,54.905801 L 43.253754999999956,54.905801" fill="none" instance-id="17" semantic-id="30" stroke="rgb(178,178,0)" stroke-width="0.1"/>
  <path d="M 43.253754999999956,54.905801 L 43.253754999999956,82.405801" fill="none" instance-id="17" semantic-id="30" stroke="rgb(178,178,0)" stroke-width="0.1"/>
  <path d="M 43.253754999999956,82.405801 L 71.85375499999998,82.405801" fill="none" instance-id="17" semantic-id="30" stroke="rgb(178,178,0)" stroke-width="0.1"/>
  <path d="M 71.85375499999998,82.405801 L 43.253754999999956,82.405801" fill="none" instance-id="17" semantic-id="30" stroke="rgb(178,178,0)" stroke-width="0.1"/>
  <path d="M 43.253754999999956,82.405801 L 43.253754999999956,70.00580099999999" fill="none" instance-id="17" semantic-id="30" stroke="rgb(178,178,0)" stroke-width="0.1"/>
  <path d="M 43.253754999999956,70.00580099999999 L 71.85375499999998,70.00580099999999" fill="none" instance-id="17" semantic-id="30" stroke="rgb(178,178,0)" stroke-width="0.1"/>
  <path d="M 43.253754999999956,75.905801 L 79.85375499999998,75.905801" fill="none" instance-id="17" semantic-id="30" stroke="rgb(178,178,0)" stroke-width="0.1"/>
  <path d="M 79.85375499999998,75.905801 L 79.85375499999998,61.405801" fill="none" instance-id="17" semantic-id="30" stroke="rgb(178,178,0)" stroke-width="0.1"/>
  <path d="M 79.85375499999998,61.405801 L 43.253754999999956,61.405801" fill="none" instance-id="17" semantic-id="30" stroke="rgb(178,178,0)" stroke-width="0.1"/>
  <path d="M 71.85375499999998,69.405801 L 43.253754999999956,69.405801" fill="none" instance-id="17" semantic-id="30" stroke="rgb(178,178,0)" stroke-width="0.1"/>
  <path d="M 43.253754999999956,69.405801 L 71.85375499999998,69.405801" fill="none" instance-id="17" semantic-id="30" stroke="rgb(178,178,0)" stroke-width="0.1"/>
  <path d="M 71.85375499999998,67.905801 L 43.253754999999956,67.905801" fill="none" instance-id="17" semantic-id="30" stroke="rgb(178,178,0)" stroke-width="0.1"/>
  <path d="M 43.253754999999956,67.905801 L 71.85375499999998,67.905801" fill="none" instance-id="17" semantic-id="30" stroke="rgb(178,178,0)" stroke-width="0.1"/>
  <path d="M 43.253754999999956,67.30580099999997 L 71.85375499999998,67.30580099999997" fill="none" instance-id="17" semantic-id="30" stroke="rgb(178,178,0)" stroke-width="0.1"/>
  <path d="M 71.85375499999998,67.30580099999997 L 71.85375499999998,54.905801" fill="none" instance-id="17" semantic-id="30" stroke="rgb(178,178,0)" stroke-width="0.1"/>
  <path d="M 71.85375499999998,54.905801 L 71.85375499999998,82.405801" fill="none" instance-id="17" semantic-id="30" stroke="rgb(178,178,0)" stroke-width="0.1"/>
  <path d="M 62.254755000000046,60.805800999999974 L 62.254755000000046,62.00580099999999" fill="none" instance-id="17" semantic-id="30" stroke="rgb(178,178,0)" stroke-width="0.1"/>
  <path d="M 62.254755000000046,62.00580099999999 L 50.254755000000046,60.805800999999974" fill="none" instance-id="17" semantic-id="30" stroke="rgb(178,178,0)" stroke-width="0.1"/>
  <path d="M 50.254755000000046,60.805800999999974 L 50.254755000000046,62.00580099999999" fill="none" instance-id="17" semantic-id="30" stroke="rgb(178,178,0)" stroke-width="0.1"/>
  <path d="M 50.254755000000046,62.00580099999999 L 62.254755000000046,60.805800999999974" fill="none" instance-id="17" semantic-id="30" stroke="rgb(178,178,0)" stroke-width="0.1"/>
  <path d="M 52.40475500000002,54.905801 L 55.678755000000024,60.43380099999999" fill="none" instance-id="17" semantic-id="30" stroke="rgb(178,178,0)" stroke-width="0.1"/>
  <path d="M 55.678755000000024,60.43380099999999 L 54.104754999999955,62.01380099999997" fill="none" instance-id="17" semantic-id="30" stroke="rgb(178,178,0)" stroke-width="0.1"/>
  <path d="M 54.104754999999955,62.01380099999997 L 58.40375500000005,60.79780099999999" fill="none" instance-id="17" semantic-id="30" stroke="rgb(178,178,0)" stroke-width="0.1"/>
  <path d="M 58.40375500000005,60.79780099999999 L 56.82975499999998,62.37780099999998" fill="none" instance-id="17" semantic-id="30" stroke="rgb(178,178,0)" stroke-width="0.1"/>
  <path d="M 56.82975499999998,62.37780099999998 L 60.10375499999998,67.905801" fill="none" instance-id="17" semantic-id="30" stroke="rgb(178,178,0)" stroke-width="0.1"/>
  <text fill="rgb(178,178,0)" font-family="Noto Sans CJK SC" font-size="2" transform="rotate(-0.0,37.40375500000005,62.980800999999985)" x="37.40375500000005" y="62.980800999999985">
   上
  </text>
  <text fill="rgb(178,178,0)" font-family="Noto Sans CJK SC" font-size="2" transform="rotate(-0.0,37.40375500000005,77.48080099999999)" x="37.40375500000005" y="77.48080099999999">
   下
  </text>
 </g>
 <g id="layerWALL" inkscape:groupmode="layer" inkscape:label="WALL">
  <path d="M 30.35375499999998,6.405800999999997 L 30.35375499999998,0.0" fill="none" instance-id="-1" semantic-id="1" stroke="rgb(0,0,0)" stroke-width="0.1"/>
  <path d="M 32.35375499999998,5.405800999999997 L 32.35375499999998,0.0" fill="none" instance-id="-1" semantic-id="1" stroke="rgb(0,0,0)" stroke-width="0.1"/>
  <path d="M 58.35375499999998,5.405800999999997 L 71.85375499999998,5.405800999999997" fill="none" instance-id="-1" semantic-id="1" stroke="rgb(0,0,0)" stroke-width="0.1"/>
  <path d="M 57.35375499999998,7.405800999999997 L 71.85375499999998,7.405800999999997" fill="none" instance-id="-1" semantic-id="1" stroke="rgb(0,0,0)" stroke-width="0.1"/>
  <path d="M 71.85375499999998,5.405800999999997 L 71.85375499999998,7.405800999999997" fill="none" instance-id="-1" semantic-id="1" stroke="rgb(0,0,0)" stroke-width="0.1"/>
  <path d="M 79.85375499999998,5.405800999999997 L 93.357755,5.405800999999997" fill="none" instance-id="-1" semantic-id="1" stroke="rgb(0,0,0)" stroke-width="0.1"/>
  <path d="M 79.85375499999998,7.405800999999997 L 95.357755,7.405800999999997" fill="none" instance-id="-1" semantic-id="1" stroke="rgb(0,0,0)" stroke-width="0.1"/>
  <path d="M 79.85375499999998,5.405800999999997 L 79.85375499999998,7.405800999999997" fill="none" instance-id="-1" semantic-id="1" stroke="rgb(0,0,0)" stroke-width="0.1"/>
  <path d="M 32.35375499999998,5.405800999999997 L 40.35375499999998,5.405800999999997" fill="none" instance-id="-1" semantic-id="1" stroke="rgb(0,0,0)" stroke-width="0.1"/>
  <path d="M 32.35375499999998,7.405800999999997 L 40.35375499999998,7.405800999999997" fill="none" instance-id="-1" semantic-id="1" stroke="rgb(0,0,0)" stroke-width="0.1"/>
  <path d="M 40.35375499999998,5.405800999999997 L 40.35375499999998,7.405800999999997" fill="none" instance-id="-1" semantic-id="1" stroke="rgb(0,0,0)" stroke-width="0.1"/>
  <path d="M 48.35375499999998,5.405800999999997 L 56.35375499999998,5.405800999999997" fill="none" instance-id="-1" semantic-id="1" stroke="rgb(0,0,0)" stroke-width="0.1"/>
  <path d="M 48.35375499999998,7.405800999999997 L 57.35375499999998,7.405800999999997" fill="none" instance-id="-1" semantic-id="1" stroke="rgb(0,0,0)" stroke-width="0.1"/>
  <path d="M 48.35375499999998,5.405800999999997 L 48.35375499999998,7.405800999999997" fill="none" instance-id="-1" semantic-id="1" stroke="rgb(0,0,0)" stroke-width="0.1"/>
  <path d="M 56.35375499999998,5.405800999999997 L 56.35375499999998,0.0" fill="none" instance-id="-1" semantic-id="1" stroke="rgb(0,0,0)" stroke-width="0.1"/>
  <path d="M 58.35375499999998,5.405800999999997 L 58.35375499999998,0.0" fill="none" instance-id="-1" semantic-id="1" stroke="rgb(0,0,0)" stroke-width="0.1"/>
  <path d="M 30.35375499999998,25.407800999999978 L 30.35375499999998,23.406800999999973" fill="none" instance-id="-1" semantic-id="1" stroke="rgb(0,0,0)" stroke-width="0.1"/>
  <path d="M 32.35375499999998,25.407800999999978 L 32.35375499999998,23.406800999999973" fill="none" instance-id="-1" semantic-id="1" stroke="rgb(0,0,0)" stroke-width="0.1"/>
  <path d="M 30.35375499999998,25.407800999999978 L 32.35375499999998,25.407800999999978" fill="none" instance-id="-1" semantic-id="1" stroke="rgb(0,0,0)" stroke-width="0.1"/>
  <path d="M 30.35375499999998,23.406800999999973 L 32.35375499999998,23.406800999999973" fill="none" instance-id="-1" semantic-id="1" stroke="rgb(0,0,0)" stroke-width="0.1"/>
  <path d="M 30.35375499999998,8.406800999999973 L 30.35375499999998,6.405800999999997" fill="none" instance-id="-1" semantic-id="1" stroke="rgb(0,0,0)" stroke-width="0.1"/>
  <path d="M 32.35375499999998,8.406800999999973 L 32.35375499999998,7.405800999999997" fill="none" instance-id="-1" semantic-id="1" stroke="rgb(0,0,0)" stroke-width="0.1"/>
  <path d="M 30.35375499999998,8.406800999999973 L 32.35375499999998,8.406800999999973" fill="none" instance-id="-1" semantic-id="1" stroke="rgb(0,0,0)" stroke-width="0.1"/>
  <path d="M 22.85375499999998,26.407800999999978 L 14.853754999999978,26.407800999999978" fill="none" instance-id="-1" semantic-id="1" stroke="rgb(0,0,0)" stroke-width="0.1"/>
  <path d="M 22.85375499999998,24.407800999999978 L 13.853754999999978,24.407800999999978" fill="none" instance-id="-1" semantic-id="1" stroke="rgb(0,0,0)" stroke-width="0.1"/>
  <path d="M 22.85375499999998,26.407800999999978 L 22.85375499999998,24.407800999999978" fill="none" instance-id="-1" semantic-id="1" stroke="rgb(0,0,0)" stroke-width="0.1"/>
  <path d="M 93.357755,5.405800999999997 L 93.357755,2.866800999999981" fill="none" instance-id="-1" semantic-id="1" stroke="rgb(0,0,0)" stroke-width="0.1"/>
  <path d="M 95.357755,7.405800999999997 L 95.357755,3.866800999999981" fill="none" instance-id="-1" semantic-id="1" stroke="rgb(0,0,0)" stroke-width="0.1"/>
  <path d="M 12.853754999999978,26.407800999999978 L 11.851755000000026,26.407800999999978" fill="none" instance-id="-1" semantic-id="1" stroke="rgb(0,0,0)" stroke-width="0.1"/>
  <path d="M 13.853754999999978,24.407800999999978 L 11.851755000000026,24.407800999999978" fill="none" instance-id="-1" semantic-id="1" stroke="rgb(0,0,0)" stroke-width="0.1"/>
  <path d="M 11.851755000000026,26.407800999999978 L 11.851755000000026,24.407800999999978" fill="none" instance-id="-1" semantic-id="1" stroke="rgb(0,0,0)" stroke-width="0.1"/>
  <path d="M 14.853754999999978,26.407800999999978 L 14.853754999999978,100.0" fill="none" instance-id="-1" semantic-id="1" stroke="rgb(0,0,0)" stroke-width="0.1"/>
  <path d="M 12.853754999999978,26.407800999999978 L 12.853754999999978,100.0" fill="none" instance-id="-1" semantic-id="1" stroke="rgb(0,0,0)" stroke-width="0.1"/>
  <path d="M 93.357755,2.866800999999981 L 93.357755,0.0" fill="none" instance-id="-1" semantic-id="1" stroke="rgb(0,0,0)" stroke-width="0.1"/>
  <path d="M 95.357755,1.866800999999981 L 95.357755,0.0" fill="none" instance-id="-1" semantic-id="1" stroke="rgb(0,0,0)" stroke-width="0.1"/>
  <path d="M 100.0,3.866800999999981 L 95.357755,3.866800999999981" fill="none" instance-id="-1" semantic-id="1" stroke="rgb(0,0,0)" stroke-width="0.1"/>
  <path d="M 100.0,1.866800999999981 L 95.357755,1.866800999999981" fill="none" instance-id="-1" semantic-id="1" stroke="rgb(0,0,0)" stroke-width="0.1"/>
  <path d="M 90.85375499999998,54.905801 L 90.85375499999998,30.405800999999997" fill="none" instance-id="-1" semantic-id="1" stroke="rgb(0,0,0)" stroke-width="0.1"/>
  <path d="M 90.85375499999998,92.905801 L 90.85375499999998,90.405801" fill="none" instance-id="-1" semantic-id="1" stroke="rgb(0,0,0)" stroke-width="0.1"/>
  <path d="M 87.85375499999998,54.905801 L 74.35375499999998,54.905801" fill="none" instance-id="-1" semantic-id="1" stroke="rgb(0,0,0)" stroke-width="0.1"/>
  <path d="M 87.85375499999998,52.905801 L 74.35375499999998,52.905801" fill="none" instance-id="-1" semantic-id="1" stroke="rgb(0,0,0)" stroke-width="0.1"/>
  <path d="M 60.84375499999999,98.405801 L 60.84375499999999,100.0" fill="none" instance-id="-1" semantic-id="1" stroke="rgb(0,0,0)" stroke-width="0.1"/>
  <path d="M 57.84375499999999,98.405801 L 57.84375499999999,100.0" fill="none" instance-id="-1" semantic-id="1" stroke="rgb(0,0,0)" stroke-width="0.1"/>
  <path d="M 72.35375499999998,84.405801 L 28.85375499999998,84.405801" fill="none" instance-id="-1" semantic-id="1" stroke="rgb(0,0,0)" stroke-width="0.1"/>
  <path d="M 74.35375499999998,82.405801 L 28.85375499999998,82.405801" fill="none" instance-id="-1" semantic-id="1" stroke="rgb(0,0,0)" stroke-width="0.1"/>
  <path d="M 87.85375499999998,92.905801 L 73.35375499999998,92.905801" fill="none" instance-id="-1" semantic-id="1" stroke="rgb(0,0,0)" stroke-width="0.1"/>
  <path d="M 87.85375499999998,90.905801 L 74.35375499999998,90.905801" fill="none" instance-id="-1" semantic-id="1" stroke="rgb(0,0,0)" stroke-width="0.1"/>
  <path d="M 72.35375499999998,90.905801 L 72.35375499999998,84.405801" fill="none" instance-id="-1" semantic-id="1" stroke="rgb(0,0,0)" stroke-width="0.1"/>
  <path d="M 74.35375499999998,90.905801 L 74.35375499999998,82.405801" fill="none" instance-id="-1" semantic-id="1" stroke="rgb(0,0,0)" stroke-width="0.1"/>
  <path d="M 55.851755000000026,26.405800999999997 L 55.851755000000026,51.905801" fill="none" instance-id="-1" semantic-id="1" stroke="rgb(0,0,0)" stroke-width="0.1"/>
  <path d="M 53.851755000000026,26.405800999999997 L 53.851755000000026,51.905801" fill="none" instance-id="-1" semantic-id="1" stroke="rgb(0,0,0)" stroke-width="0.1"/>
  <path d="M 71.85175500000003,26.405800999999997 L 71.85175500000003,51.905801" fill="none" instance-id="-1" semantic-id="1" stroke="rgb(0,0,0)" stroke-width="0.1"/>
  <path d="M 69.85175500000003,26.405800999999997 L 69.85175500000003,51.905801" fill="none" instance-id="-1" semantic-id="1" stroke="rgb(0,0,0)" stroke-width="0.1"/>
  <path d="M 53.851755000000026,26.405800999999997 L 51.851755000000026,26.405800999999997" fill="none" instance-id="-1" semantic-id="1" stroke="rgb(0,0,0)" stroke-width="0.1"/>
  <path d="M 54.851755000000026,24.405800999999997 L 51.851755000000026,24.405800999999997" fill="none" instance-id="-1" semantic-id="1" stroke="rgb(0,0,0)" stroke-width="0.1"/>
  <path d="M 51.851755000000026,26.405800999999997 L 51.851755000000026,24.405800999999997" fill="none" instance-id="-1" semantic-id="1" stroke="rgb(0,0,0)" stroke-width="0.1"/>
  <path d="M 43.851755000000026,26.405800999999997 L 38.85375499999998,26.405800999999997" fill="none" instance-id="-1" semantic-id="1" stroke="rgb(0,0,0)" stroke-width="0.1"/>
  <path d="M 43.851755000000026,24.405800999999997 L 38.85375499999998,24.405800999999997" fill="none" instance-id="-1" semantic-id="1" stroke="rgb(0,0,0)" stroke-width="0.1"/>
  <path d="M 43.851755000000026,26.405800999999997 L 43.851755000000026,24.405800999999997" fill="none" instance-id="-1" semantic-id="1" stroke="rgb(0,0,0)" stroke-width="0.1"/>
  <path d="M 69.85175500000003,26.405800999999997 L 65.85175500000003,26.405800999999997" fill="none" instance-id="-1" semantic-id="1" stroke="rgb(0,0,0)" stroke-width="0.1"/>
  <path d="M 70.85175500000003,24.405800999999997 L 65.85175500000003,24.405800999999997" fill="none" instance-id="-1" semantic-id="1" stroke="rgb(0,0,0)" stroke-width="0.1"/>
  <path d="M 65.85175500000003,26.405800999999997 L 65.85175500000003,24.405800999999997" fill="none" instance-id="-1" semantic-id="1" stroke="rgb(0,0,0)" stroke-width="0.1"/>
  <path d="M 57.851755000000026,26.405800999999997 L 55.851755000000026,26.405800999999997" fill="none" instance-id="-1" semantic-id="1" stroke="rgb(0,0,0)" stroke-width="0.1"/>
  <path d="M 57.851755000000026,24.405800999999997 L 54.851755000000026,24.405800999999997" fill="none" instance-id="-1" semantic-id="1" stroke="rgb(0,0,0)" stroke-width="0.1"/>
  <path d="M 57.851755000000026,26.405800999999997 L 57.851755000000026,24.405800999999997" fill="none" instance-id="-1" semantic-id="1" stroke="rgb(0,0,0)" stroke-width="0.1"/>
  <path d="M 73.35375499999998,92.905801 L 60.85375499999998,92.905801" fill="none" instance-id="-1" semantic-id="1" stroke="rgb(0,0,0)" stroke-width="0.1"/>
  <path d="M 72.35375499999998,90.905801 L 57.84375499999999,90.905801" fill="none" instance-id="-1" semantic-id="1" stroke="rgb(0,0,0)" stroke-width="0.1"/>
  <path d="M 90.85375499999998,58.905801 L 90.85375499999998,52.905801" fill="none" instance-id="-1" semantic-id="1" stroke="rgb(0,0,0)" stroke-width="0.1"/>
  <path d="M 90.85375499999998,88.405801 L 90.85375499999998,60.905801" fill="none" instance-id="-1" semantic-id="1" stroke="rgb(0,0,0)" stroke-width="0.1"/>
  <path d="M 90.85375499999998,100.0 L 90.85375499999998,90.905801" fill="none" instance-id="-1" semantic-id="1" stroke="rgb(0,0,0)" stroke-width="0.1"/>
  <path d="M 87.85375499999998,26.405800999999997 L 83.85175500000003,26.405800999999997" fill="none" instance-id="-1" semantic-id="1" stroke="rgb(0,0,0)" stroke-width="0.1"/>
  <path d="M 87.85375499999998,24.405800999999997 L 83.85175500000003,24.405800999999997" fill="none" instance-id="-1" semantic-id="1" stroke="rgb(0,0,0)" stroke-width="0.1"/>
  <path d="M 83.85175500000003,26.405800999999997 L 83.85175500000003,24.405800999999997" fill="none" instance-id="-1" semantic-id="1" stroke="rgb(0,0,0)" stroke-width="0.1"/>
  <path d="M 75.85175500000003,26.405800999999997 L 71.85175500000003,26.405800999999997" fill="none" instance-id="-1" semantic-id="1" stroke="rgb(0,0,0)" stroke-width="0.1"/>
  <path d="M 75.85175500000003,24.405800999999997 L 70.85175500000003,24.405800999999997" fill="none" instance-id="-1" semantic-id="1" stroke="rgb(0,0,0)" stroke-width="0.1"/>
  <path d="M 75.85175500000003,26.405800999999997 L 75.85175500000003,24.405800999999997" fill="none" instance-id="-1" semantic-id="1" stroke="rgb(0,0,0)" stroke-width="0.1"/>
 </g>
 <g id="layerWIRE-动力" inkscape:groupmode="layer" inkscape:label="WIRE-动力">
  <path d="M 53.84875499999998,51.905801 L 30.48175500000002,50.24580099999997" fill="none" stroke="rgb(178,0,178)" stroke-width="0.1"/>
  <path d="M 30.48175500000002,50.24580099999997 L 28.85375499999998,47.905801" fill="none" stroke="rgb(178,0,178)" stroke-width="0.1"/>
  <path d="M 58.852755,39.17580099999998 L 55.852755,39.17580099999998" fill="none" stroke="rgb(178,0,178)" stroke-width="0.1"/>
  <path d="M 55.852755,39.17580099999998 L 55.852755,45.17580099999998" fill="none" stroke="rgb(178,0,178)" stroke-width="0.1"/>
  <path d="M 55.852755,45.17580099999998 L 58.852755,45.17580099999998" fill="none" stroke="rgb(178,0,178)" stroke-width="0.1"/>
  <path d="M 58.852755,45.17580099999998 L 58.852755,39.17580099999998" fill="none" stroke="rgb(178,0,178)" stroke-width="0.1"/>
  <path d="M 66.85375499999998,39.17580099999998 L 69.85375499999998,39.17580099999998" fill="none" stroke="rgb(178,0,178)" stroke-width="0.1"/>
  <path d="M 69.85375499999998,39.17580099999998 L 69.85375499999998,45.17580099999998" fill="none" stroke="rgb(178,0,178)" stroke-width="0.1"/>
  <path d="M 69.85375499999998,45.17580099999998 L 66.85375499999998,45.17580099999998" fill="none" stroke="rgb(178,0,178)" stroke-width="0.1"/>
  <path d="M 66.85375499999998,45.17580099999998 L 66.85375499999998,39.17580099999998" fill="none" stroke="rgb(178,0,178)" stroke-width="0.1"/>
  <path d="M 38.86675500000001,32.405801 L 28.85375499999998,32.405801" fill="none" stroke="rgb(178,0,178)" stroke-width="0.1"/>
  <path d="M 28.85375499999998,32.405801 L 28.85375499999998,36.405801" fill="none" stroke="rgb(178,0,178)" stroke-width="0.1"/>
  <path d="M 28.85375499999998,36.405801 L 38.86675500000001,36.405801" fill="none" stroke="rgb(178,0,178)" stroke-width="0.1"/>
  <path d="M 38.86675500000001,36.405801 L 38.86675500000001,32.405801" fill="none" stroke="rgb(178,0,178)" stroke-width="0.1"/>
  <path d="M 31.85675500000002,45.90880099999998 L 28.85675500000002,45.90880099999998" fill="none" stroke="rgb(178,0,178)" stroke-width="0.1"/>
  <path d="M 28.85675500000002,45.90880099999998 L 28.85675500000002,41.90880099999998" fill="none" stroke="rgb(178,0,178)" stroke-width="0.1"/>
  <path d="M 28.85675500000002,41.90880099999998 L 31.85675500000002,41.90880099999998" fill="none" stroke="rgb(178,0,178)" stroke-width="0.1"/>
  <path d="M 31.85675500000002,41.90880099999998 L 31.85675500000002,45.90880099999998" fill="none" stroke="rgb(178,0,178)" stroke-width="0.1"/>
  <path d="M 55.852755,39.17580099999998 L 58.14475500000003,40.17580099999998" fill="none" stroke="rgb(178,0,178)" stroke-width="0.1"/>
  <path d="M 58.14475500000003,40.17580099999998 L 58.852755,45.17580099999998" fill="none" stroke="rgb(178,0,178)" stroke-width="0.1"/>
  <path d="M 69.85375499999998,39.17580099999998 L 67.56175499999995,40.17580099999998" fill="none" stroke="rgb(178,0,178)" stroke-width="0.1"/>
  <path d="M 67.56175499999995,40.17580099999998 L 66.85375499999998,45.17580099999998" fill="none" stroke="rgb(178,0,178)" stroke-width="0.1"/>
  <path d="M 28.85375499999998,47.905801 L 28.85375499999998,51.905801" fill="none" stroke="rgb(178,0,178)" stroke-width="0.1"/>
  <path d="M 28.85375499999998,51.905801 L 45.85375499999998,51.905801" fill="none" stroke="rgb(178,0,178)" stroke-width="0.1"/>
  <path d="M 45.85375499999998,51.905801 L 53.84875499999998,51.905801" fill="none" stroke="rgb(178,0,178)" stroke-width="0.1"/>
  <path d="M 53.84875499999998,51.905801 L 53.84875499999998,47.905801" fill="none" stroke="rgb(178,0,178)" stroke-width="0.1"/>
  <path d="M 53.84875499999998,47.905801 L 28.85375499999998,47.905801" fill="none" stroke="rgb(178,0,178)" stroke-width="0.1"/>
  <path d="M 28.866755000000012,36.405801 L 36.62075500000003,35.32680099999999" fill="none" stroke="rgb(178,0,178)" stroke-width="0.1"/>
  <path d="M 36.62075500000003,35.32680099999999 L 38.85375499999998,32.405801" fill="none" stroke="rgb(178,0,178)" stroke-width="0.1"/>
  <path d="M 28.85675500000002,45.90880099999998 L 29.53675499999997,42.599800999999985" fill="none" stroke="rgb(178,0,178)" stroke-width="0.1"/>
  <path d="M 29.53675499999997,42.599800999999985 L 31.85675500000002,41.90880099999998" fill="none" stroke="rgb(178,0,178)" stroke-width="0.1"/>
 </g>
 <g id="layer暖通管井" inkscape:groupmode="layer" inkscape:label="暖通管井">
  <path d="M 66.35375499999998,85.405801 L 52.35375499999998,85.405801" fill="none" stroke="rgb(178,0,178)" stroke-width="0.1"/>
  <path d="M 52.35375499999998,85.405801 L 52.35375499999998,90.405801" fill="none" stroke="rgb(178,0,178)" stroke-width="0.1"/>
  <path d="M 52.35375499999998,90.405801 L 66.35375499999998,90.405801" fill="none" stroke="rgb(178,0,178)" stroke-width="0.1"/>
  <path d="M 66.35375499999998,90.405801 L 66.35375499999998,85.405801" fill="none" stroke="rgb(178,0,178)" stroke-width="0.1"/>
  <path d="M 46.35375499999998,85.405801 L 34.35375499999998,85.405801" fill="none" stroke="rgb(178,0,178)" stroke-width="0.1"/>
  <path d="M 34.35375499999998,85.405801 L 34.35375499999998,90.405801" fill="none" stroke="rgb(178,0,178)" stroke-width="0.1"/>
  <path d="M 34.35375499999998,90.405801 L 46.35375499999998,90.405801" fill="none" stroke="rgb(178,0,178)" stroke-width="0.1"/>
  <path d="M 46.35375499999998,90.405801 L 46.35375499999998,85.405801" fill="none" stroke="rgb(178,0,178)" stroke-width="0.1"/>
  <path d="M 28.85375499999998,84.405801 L 72.35375499999998,84.405801" fill="none" stroke="rgb(178,0,178)" stroke-width="0.1"/>
  <path d="M 72.35375499999998,84.405801 L 72.35375499999998,90.905801" fill="none" stroke="rgb(178,0,178)" stroke-width="0.1"/>
  <path d="M 72.35375499999998,90.905801 L 28.85375499999998,90.905801" fill="none" stroke="rgb(178,0,178)" stroke-width="0.1"/>
  <path d="M 28.85375499999998,90.905801 L 28.85375499999998,84.405801" fill="none" stroke="rgb(178,0,178)" stroke-width="0.1"/>
  <path d="M 72.35375499999998,84.405801 L 30.743754999999965,85.530801" fill="none" stroke="rgb(178,0,178)" stroke-width="0.1"/>
  <path d="M 30.743754999999965,85.530801 L 28.85375499999998,90.905801" fill="none" stroke="rgb(178,0,178)" stroke-width="0.1"/>
 </g>
 <g id="layer电梯编号" inkscape:groupmode="layer" inkscape:label="电梯编号">
  <text fill="rgb(178,0,178)" font-family="Noto Sans CJK SC" font-size="2" transform="rotate(-0.0,97.58775500000002,80.869801)" x="97.58775500000002" y="80.869801">
   1KT-12
  </text>
  <text fill="rgb(178,0,178)" font-family="Noto Sans CJK SC" font-size="2" transform="rotate(-0.0,98.31775500000003,51.38080099999999)" x="98.31775500000003" y="51.38080099999999">
   1KT-13
  </text>
 </g>
</svg>