<?xml version="1.0" encoding="utf-8"?>
<svg style="background-color: #000;" version="1.1" viewBox="0 0 100.0 100.0" xmlns="http://www.w3.org/2000/svg" xmlns:inkscape="http://www.inkscape.org/namespaces/inkscape">
 <g id="layer0" inkscape:groupmode="layer" inkscape:label="0">
  <path d="M 22.607754999999997,16.227801 L 39.89775499999996,11.203800999999999" fill="none" stroke="rgb(0,178,0)" stroke-width="0.1"/>
  <path d="M 22.607754999999997,16.227801 L 27.64775499999996,33.506800999999996" fill="none" stroke="rgb(0,178,0)" stroke-width="0.1"/>
  <path d="M 21.107754999999997,16.227801 L 24.107754999999997,16.227801" fill="none" stroke="rgb(0,0,0)" stroke-width="0.1"/>
  <path d="M 22.607754999999997,17.727801 L 22.607754999999997,14.727801" fill="none" stroke="rgb(0,0,0)" stroke-width="0.1"/>
  <circle cx="22.607754999999997" cy="16.227801" fill="none" r="1" stroke="rgb(0,0,0)" stroke-width="0.1"/>
 </g>
 <g id="layerA-栏杆" inkscape:groupmode="layer" inkscape:label="A-栏杆">
  <path d="M 65.09433257956448,0.0 L 72.37775499999998,23.50380100000001" fill="none" instance-id="-1" semantic-id="33" stroke="rgb(0,107,79)" stroke-width="0.1"/>
  <path d="M 65.62019522613059,0.0 L 72.857755,23.355800999999985" fill="none" instance-id="-1" semantic-id="33" stroke="rgb(0,107,79)" stroke-width="0.1"/>
  <path d="M 92.48364106379267,0.0 L 97.36775499999999,15.760800999999958" fill="none" instance-id="-1" semantic-id="33" stroke="rgb(0,107,79)" stroke-width="0.1"/>
  <path d="M 91.95777735023148,0.0 L 96.88775499999997,15.908800999999983" fill="none" instance-id="-1" semantic-id="33" stroke="rgb(0,107,79)" stroke-width="0.1"/>
  <path d="M 37.982767537518384,0.0 L 41.22775499999989,10.437800999999979" fill="none" instance-id="-1" semantic-id="33" stroke="rgb(0,107,79)" stroke-width="0.1"/>
  <path d="M 28.077755000000025,34.946800999999994 A 19.5,19.5 0.0 0,0 41.22775499999989,10.437800999999979" fill="none" instance-id="-1" semantic-id="33" stroke="rgb(0,107,79)" stroke-width="0.1"/>
  <path d="M 28.077755000000025,34.946800999999994 L 0.0,43.14318646590368" fill="none" instance-id="-1" semantic-id="33" stroke="rgb(0,107,79)" stroke-width="0.1"/>
  <path d="M 37.45660390818989,0.0 L 40.7477550000001,10.58680099999998" fill="none" instance-id="-1" semantic-id="33" stroke="rgb(0,107,79)" stroke-width="0.1"/>
  <path d="M 27.937754999999925,34.466800999999975 A 19.0,19.0 0.0 0,0 40.7477550000001,10.58680099999998" fill="none" instance-id="-1" semantic-id="33" stroke="rgb(0,107,79)" stroke-width="0.1"/>
  <path d="M 27.937754999999925,34.466800999999975 L 0.0,42.62231802876448" fill="none" instance-id="-1" semantic-id="33" stroke="rgb(0,107,79)" stroke-width="0.1"/>
 </g>
 <g id="layerA-洞口" inkscape:groupmode="layer" inkscape:label="A-洞口">
  <path d="M 0.0,31.163189691347668 L 40.327755000000025,19.389800999999977" fill="none" stroke="rgb(107,53,93)" stroke-width="0.1"/>
  <path d="M 0.0,30.120571874126767 L 40.48775500000011,18.30080099999998" fill="none" stroke="rgb(107,53,93)" stroke-width="0.1"/>
 </g>
 <g id="layerA-看线" inkscape:groupmode="layer" inkscape:label="A-看线">
  <path d="M 36.4139767989318,0.0 L 39.79775500000005,10.883801000000005" fill="none" stroke="rgb(255,12,254)" stroke-width="0.1"/>
  <path d="M 27.64775499999996,33.506800999999996 A 18.0,18.0 0.0 0,0 39.79775500000005,10.883801000000005" fill="none" stroke="rgb(255,12,254)" stroke-width="0.1"/>
  <path d="M 27.64775499999996,33.506800999999996 L 0.0,41.5782101981049" fill="none" stroke="rgb(255,12,254)" stroke-width="0.1"/>
  <path d="M 38.50864241392446,0.0 L 41.707754999999906,10.289801000000011" fill="none" stroke="rgb(255,12,254)" stroke-width="0.1"/>
  <path d="M 28.217754999999897,35.42580099999998 A 20.0,20.0 0.0 0,0 41.707754999999906,10.289801000000011" fill="none" stroke="rgb(255,12,254)" stroke-width="0.1"/>
  <path d="M 28.217754999999897,35.42580099999998 L 0.0,43.6632465606873" fill="none" stroke="rgb(255,12,254)" stroke-width="0.1"/>
 </g>
 <g id="layerAXIS" inkscape:groupmode="layer" inkscape:label="AXIS">
  <path d="M 0.0,73.84939636816114 L 41.115615858642514,100.0" fill="none" stroke="rgb(0,178,0)" stroke-width="0.1"/>
  <path d="M 40.40661238059738,0.0 L 90.81775500000003,32.06280099999998" fill="none" stroke="rgb(0,178,0)" stroke-width="0.1"/>
  <path d="M 22.957754999999906,88.448801 L 30.547755000000052,93.27880099999993" fill="none" stroke="rgb(0,178,0)" stroke-width="0.1"/>
  <path d="M 26.50775500000009,89.76580100000001 L 26.997755000000097,91.96180100000004" fill="none" stroke="rgb(0,178,0)" stroke-width="0.1"/>
  <path d="M 68.03775500000006,17.571800999999994 L 75.62775499999998,22.401800999999978" fill="none" stroke="rgb(0,178,0)" stroke-width="0.1"/>
  <path d="M 71.58775500000002,18.888801 L 72.07775500000002,21.08480099999997" fill="none" stroke="rgb(0,178,0)" stroke-width="0.1"/>
  <path d="M 35.16485762959701,100.0 L 98.76995751482491,0.0" fill="none" stroke="rgb(0,178,0)" stroke-width="0.1"/>
  <path d="M 20.936845241968513,100.0 L 26.747755000000097,90.86380099999997" fill="none" stroke="rgb(0,178,0)" stroke-width="0.1"/>
  <path d="M 26.747755000000097,90.86380099999997 L 71.83775500000002,19.986800999999957" fill="none" stroke="rgb(0,178,0)" stroke-width="0.1"/>
  <path d="M 71.83775500000002,19.986800999999957 L 84.54998871587395,0.0" fill="none" stroke="rgb(0,178,0)" stroke-width="0.1"/>
  <text fill="rgb(0,0,0)" font-family="Noto Sans CJK SC" font-size="2" transform="rotate(-0.0,89.12775499999998,37.032801000000006)" x="89.12775499999998" y="37.032801000000006">
   S2-C
  </text>
  <text fill="rgb(0,0,0)" font-family="Noto Sans CJK SC" font-size="2" transform="rotate(-57.5409,44.457754999999906,58.924801)" x="44.457754999999906" y="58.924801">
   8400
  </text>
 </g>
 <g id="layerDIM_SYMB" inkscape:groupmode="layer" inkscape:label="DIM_SYMB">
  <path d="M 15.857754999999997,31.60680099999996 L 17.067755000000034,35.73180099999996" fill="none" stroke="rgb(0,178,0)" stroke-width="0.1"/>
  <path d="M 16.72775499999989,31.353800999999976 L 14.997755000000097,31.85880099999997" fill="none" stroke="rgb(0,178,0)" stroke-width="0.1"/>
  <path d="M 14.997755000000097,31.85880099999997 L 14.597755000000006,27.28680099999997" fill="none" stroke="rgb(0,178,0)" stroke-width="0.1"/>
  <path d="M 14.597755000000006,27.28680099999997 L 16.72775499999989,31.353800999999976" fill="none" stroke="rgb(0,178,0)" stroke-width="0.1"/>
  <text fill="rgb(0,0,0)" font-family="Noto Sans CJK SC" font-size="2" transform="rotate(73.7254,38.55775500000004,25.030800999999997)" x="38.55775500000004" y="25.030800999999997">
   1%
  </text>
 </g>
 <g id="layerDOTE" inkscape:groupmode="layer" inkscape:label="DOTE">
  <path d="M 40.40749508559247,0.0 L 76.9877550000001,23.267800999999963" fill="none" stroke="rgb(63,63,63)" stroke-width="0.1"/>
  <path d="M 40.10429815106386,0.0 L 13.51775500000008,41.79780099999999" fill="none" stroke="rgb(63,63,63)" stroke-width="0.1"/>
 </g>
 <g id="layerPUB_DIM" inkscape:groupmode="layer" inkscape:label="PUB_DIM">
  <path d="M 22.607754999999997,16.227801 L 35.50775500000009,23.882800999999972" fill="none" stroke="rgb(21,88,0)" stroke-width="0.1"/>
  <path d="M 10.157754999999952,8.30880099999996 L 17.747755000000097,13.138801" fill="none" stroke="rgb(21,88,0)" stroke-width="0.1"/>
  <path d="M 13.707754999999906,9.625800999999967 L 14.197754999999916,11.821800999999994" fill="none" stroke="rgb(21,88,0)" stroke-width="0.1"/>
  <path d="M 15.297755000000052,27.722801000000004 L 20.12775499999998,20.12880100000001" fill="none" stroke="rgb(21,88,0)" stroke-width="0.1"/>
  <path d="M 16.61775499999999,24.169801000000007 L 18.807755000000043,23.681801000000007" fill="none" stroke="rgb(21,88,0)" stroke-width="0.1"/>
  <path d="M 20.407754999999952,30.97580099999999 L 25.237755000000107,23.381800999999996" fill="none" stroke="rgb(21,88,0)" stroke-width="0.1"/>
  <path d="M 21.72775499999989,27.422800999999993 L 23.927754999999934,26.934800999999993" fill="none" stroke="rgb(21,88,0)" stroke-width="0.1"/>
  <path d="M 31.717754999999897,36.14280099999996 L 40.30775500000004,33.470800999999994" fill="none" stroke="rgb(21,88,0)" stroke-width="0.1"/>
  <path d="M 35.01775500000008,34.28380099999998 L 37.00775500000009,35.33080100000001" fill="none" stroke="rgb(21,88,0)" stroke-width="0.1"/>
  <path d="M 35.65775499999995,23.62480099999999 L 38.087755000000016,25.413800999999978" fill="none" stroke="rgb(21,88,0)" stroke-width="0.1"/>
  <path d="M 38.087755000000016,25.413800999999978 L 35.357755,24.14080100000001" fill="none" stroke="rgb(21,88,0)" stroke-width="0.1"/>
  <path d="M 35.357755,24.14080100000001 L 35.65775499999995,23.62480099999999" fill="none" stroke="rgb(21,88,0)" stroke-width="0.1"/>
  <path d="M 20.77901068195706,0.0 L 13.957754999999906,10.72380099999998" fill="none" stroke="rgb(21,88,0)" stroke-width="0.1"/>
  <path d="M 13.957754999999906,10.72380099999998 L 22.607754999999997,16.227801" fill="none" stroke="rgb(21,88,0)" stroke-width="0.1"/>
  <path d="M 27.717754999999897,19.480800999999985 L 22.827755000000025,27.178800999999964" fill="none" stroke="rgb(21,88,0)" stroke-width="0.1"/>
  <path d="M 22.827755000000025,27.178800999999964 L 17.707754999999906,23.92580099999998" fill="none" stroke="rgb(21,88,0)" stroke-width="0.1"/>
  <path d="M 17.707754999999906,23.92580099999998 L 22.607754999999997,16.227801" fill="none" stroke="rgb(21,88,0)" stroke-width="0.1"/>
  <path d="M 48.14775499999996,31.032801000000006 L 36.00775500000009,34.80680100000001" fill="none" stroke="rgb(21,88,0)" stroke-width="0.1"/>
  <path d="M 36.00775500000009,34.80680100000001 L 25.18606452595941,0.0" fill="none" stroke="rgb(21,88,0)" stroke-width="0.1"/>
  <text fill="rgb(0,0,0)" font-family="Noto Sans CJK SC" font-size="2" transform="rotate(-57.5409,15.357754999999997,4.413800999999978)" x="15.357754999999997" y="4.413800999999978">
   2325
  </text>
  <text fill="rgb(0,0,0)" font-family="Noto Sans CJK SC" font-size="2" transform="rotate(-327.541,11.52775500000007,17.41180099999997)" x="11.52775500000007" y="17.41180099999997">
   606
  </text>
 </g>
 <g id="layerSTAIR" inkscape:groupmode="layer" inkscape:label="STAIR">
  <path d="M 39.23775500000011,2.3668010000000095 L 46.8757131974985,0.0" fill="none" stroke="rgb(178,178,0)" stroke-width="0.1"/>
  <path d="M 39.9677549999999,5.280800999999997 L 57.01072901524094,0.0" fill="none" stroke="rgb(178,178,0)" stroke-width="0.1"/>
  <path d="M 41.02775500000007,8.093800999999985 L 67.14836749934148,0.0" fill="none" stroke="rgb(178,178,0)" stroke-width="0.1"/>
  <path d="M 41.89775499999996,10.96180099999998 L 77.27904763552942,0.0" fill="none" stroke="rgb(178,178,0)" stroke-width="0.1"/>
  <path d="M 42.47775499999989,13.925800999999979 L 87.41950471225209,0.0" fill="none" stroke="rgb(178,178,0)" stroke-width="0.1"/>
  <path d="M 42.587755000000016,17.029800999999964 L 97.54996056338041,0.0" fill="none" stroke="rgb(178,178,0)" stroke-width="0.1"/>
  <path d="M 42.187754999999925,20.294801000000007 L 100.0,2.3827151169896865" fill="none" stroke="rgb(178,178,0)" stroke-width="0.1"/>
  <path d="M 41.13775499999997,23.762800999999968 L 100.0,5.523805762431948" fill="none" stroke="rgb(178,178,0)" stroke-width="0.1"/>
  <path d="M 39.107755,27.531800999999973 L 100.0,8.664144017263652" fill="none" stroke="rgb(178,178,0)" stroke-width="0.1"/>
  <path d="M 39.947754999999916,30.41180099999997 L 100.0,11.805472789788666" fill="none" stroke="rgb(178,178,0)" stroke-width="0.1"/>
  <path d="M 40.78775500000006,33.292801 L 100.0,14.944229444040388" fill="none" stroke="rgb(178,178,0)" stroke-width="0.1"/>
  <path d="M 39.107755,27.531800999999973 L 40.78775500000006,33.292801" fill="none" stroke="rgb(178,178,0)" stroke-width="0.1"/>
 </g>
</svg>