<?xml version="1.0" encoding="utf-8"?>
<svg style="background-color: #000;" version="1.1" viewBox="0 0 100.0 100.0" xmlns="http://www.w3.org/2000/svg" xmlns:inkscape="http://www.inkscape.org/namespaces/inkscape">
 <g id="layer0" inkscape:groupmode="layer" inkscape:label="0">
  <text fill="rgb(0,0,0)" font-family="Noto Sans CJK SC" font-size="2" transform="rotate(-0.0,7.9877550000001065,77.45440099999999)" x="7.9877550000001065" y="77.45440099999999">
   房间
  </text>
 </g>
 <g id="layer0M-TEMP-S百叶" inkscape:groupmode="layer" inkscape:label="0M-TEMP-S百叶">
  <path d="M 63.14775499999996,40.41900099999999 L 56.40775499999995,13.019100999999985" fill="none" stroke="rgb(178,0,178)" stroke-width="0.1"/>
  <path d="M 66.41775499999994,39.16730099999999 L 53.13775499999997,14.270800999999985" fill="none" stroke="rgb(178,0,178)" stroke-width="0.1"/>
  <path d="M 53.11775499999999,14.214300999999985 L 51.2477550000001,14.929700999999984" fill="none" stroke="rgb(178,0,0)" stroke-width="0.1"/>
  <path d="M 57.40775499999995,25.420700999999987 L 55.53775500000006,26.136100999999982" fill="none" stroke="rgb(178,0,0)" stroke-width="0.1"/>
  <path d="M 66.41775499999994,39.16730099999999 L 68.28775500000006,38.452100999999985" fill="none" stroke="rgb(178,0,178)" stroke-width="0.1"/>
 </g>
 <g id="layerA0-G-FIRE RESCUE WINDOW" inkscape:groupmode="layer" inkscape:label="A0-G-FIRE RESCUE WINDOW">
  <path d="M 69.2077549999999,17.429400999999984 L 67.9677549999999,14.194400999999985" fill="none" stroke="rgb(178,0,0)" stroke-width="0.1"/>
  <path d="M 67.9677549999999,14.194400999999985 L 65.78775500000006,16.884800999999985" fill="none" stroke="rgb(178,0,0)" stroke-width="0.1"/>
  <path d="M 65.78775500000006,16.884800999999985 L 69.2077549999999,17.429400999999984" fill="none" stroke="rgb(178,0,0)" stroke-width="0.1"/>
  <path d="M 67.9677549999999,14.194400999999985 L 65.78775500000006,16.884800999999985" fill="none" stroke="rgb(178,0,0)" stroke-width="0.1"/>
  <path d="M 65.78775500000006,16.884800999999985 L 69.2077549999999,17.429400999999984" fill="none" stroke="rgb(178,0,0)" stroke-width="0.1"/>
  <path d="M 69.2077549999999,17.429400999999984 L 67.9677549999999,14.194400999999985" fill="none" stroke="rgb(178,0,0)" stroke-width="0.1"/>
  <circle cx="67.65775499999995" cy="16.169600999999986" fill="none" r="2" stroke="rgb(178,0,0)" stroke-width="0.1"/>
 </g>
 <g id="layerA3-G-ALUM-FINS_100" inkscape:groupmode="layer" inkscape:label="A3-G-ALUM-FINS_100">
  <path d="M 64.36775499999999,15.642200999999986 L 96.67577939253215,100.0" fill="none" stroke="rgb(178,0,0)" stroke-width="0.1"/>
 </g>
 <g id="layerA3-G-FACADE-ABOVE" inkscape:groupmode="layer" inkscape:label="A3-G-FACADE-ABOVE">
  <path d="M 99.88695307677585,100.0 L 63.98775500000011,6.249600999999984" fill="none" stroke="rgb(71,71,71)" stroke-width="0.1"/>
  <path d="M 63.98775500000011,6.249600999999984 L 61.187754999999925,7.322500999999985" fill="none" stroke="rgb(71,71,71)" stroke-width="0.1"/>
 </g>
 <g id="layerA3-G-FACADE-ALUM-PANEL" inkscape:groupmode="layer" inkscape:label="A3-G-FACADE-ALUM-PANEL">
  <path d="M 95.60563353738189,100.0 L 63.29775500000005,15.642200999999986" fill="none" stroke="rgb(178,178,0)" stroke-width="0.1"/>
  <path d="M 95.3403278640983,100.0 L 63.03775500000006,15.642200999999986" fill="none" stroke="rgb(178,178,0)" stroke-width="0.1"/>
 </g>
 <g id="layerA4-G-FIXED WINDOW" inkscape:groupmode="layer" inkscape:label="A4-G-FIXED WINDOW">
  <path d="M 66.41775499999994,39.16730099999999 L 56.40775499999995,13.019100999999985" fill="none" stroke="rgb(178,0,178)" stroke-width="0.1"/>
  <path d="M 71.55775500000004,37.200400999999985 L 63.14775499999996,40.41900099999999" fill="none" stroke="rgb(178,0,178)" stroke-width="0.1"/>
  <path d="M 63.14775499999996,40.41900099999999 L 53.13775499999997,14.270800999999985" fill="none" stroke="rgb(178,0,178)" stroke-width="0.1"/>
  <path d="M 53.13775499999997,14.270800999999985 L 61.54775500000005,11.052200999999986" fill="none" stroke="rgb(178,0,178)" stroke-width="0.1"/>
  <path d="M 61.54775500000005,11.052200999999986 L 71.55775500000004,37.200400999999985" fill="none" stroke="rgb(178,0,178)" stroke-width="0.1"/>
 </g>
 <g id="layerDIM_SYMB" inkscape:groupmode="layer" inkscape:label="DIM_SYMB">
  <text fill="rgb(0,178,0)" font-family="Noto Sans CJK SC" font-size="2" transform="rotate(-0.0,0.9477549999999155,49.13240099999999)" x="0.9477549999999155" y="49.13240099999999">
   商铺（零售）
  </text>
 </g>
 <g id="layerDOTE" inkscape:groupmode="layer" inkscape:label="DOTE">
  <path d="M 0.0,37.416167464214304 L 98.39204501049494,100.0" fill="none" stroke="rgb(63,63,63)" stroke-width="0.1"/>
  <path d="M 0.0,16.08251688542814 L 100.0,79.68946029826411" fill="none" stroke="rgb(63,63,63)" stroke-width="0.1"/>
  <path d="M 11.367754999999988,15.642200999999986 L 0.0,33.51397766196168" fill="none" stroke="rgb(63,63,63)" stroke-width="0.1"/>
  <path d="M 100.0,32.806419747523464 L 57.25974729404902,100.0" fill="none" stroke="rgb(63,63,63)" stroke-width="0.1"/>
 </g>
 <g id="layerPUB_DIM" inkscape:groupmode="layer" inkscape:label="PUB_DIM">
  <path d="M 71.11860185430601,99.94831334976475 L 71.49277857042966,99.61618403474584" fill="none" stroke="rgb(21,88,0)" stroke-width="0.1"/>
  <path d="M 71.49277857042966,99.61618403474584 L 71.85301119226142,99.26898012498667" fill="none" stroke="rgb(21,88,0)" stroke-width="0.1"/>
  <path d="M 71.85301119226142,99.26898012498667 L 72.19869287868164,98.90728651368329" fill="none" stroke="rgb(21,88,0)" stroke-width="0.1"/>
  <path d="M 72.19869287868164,98.90728651368329 L 72.52924130080282,98.5317125031113" fill="none" stroke="rgb(21,88,0)" stroke-width="0.1"/>
  <path d="M 72.52924130080282,98.5317125031113 L 72.84409962295126,98.1428907782066" fill="none" stroke="rgb(21,88,0)" stroke-width="0.1"/>
  <path d="M 72.84409962295126,98.1428907782066 L 73.14273744070101,97.74147634075632" fill="none" stroke="rgb(21,88,0)" stroke-width="0.1"/>
  <path d="M 73.14273744070101,97.74147634075632 L 73.42465167438422,97.32814540599495" fill="none" stroke="rgb(21,88,0)" stroke-width="0.1"/>
  <path d="M 73.42465167438422,97.32814540599495 L 73.68936741656898,96.90359426346492" fill="none" stroke="rgb(21,88,0)" stroke-width="0.1"/>
  <path d="M 73.68936741656898,96.90359426346492 L 73.93643873207952,96.46853810406034" fill="none" stroke="rgb(21,88,0)" stroke-width="0.1"/>
  <path d="M 73.93643873207952,96.46853810406034 L 74.1654494092104,96.0237098152297" fill="none" stroke="rgb(21,88,0)" stroke-width="0.1"/>
  <path d="M 74.1654494092104,96.0237098152297 L 74.37601366086915,95.5698587463675" fill="none" stroke="rgb(21,88,0)" stroke-width="0.1"/>
  <path d="M 74.37601366086915,95.5698587463675 L 74.56777677446553,95.10774944647434" fill="none" stroke="rgb(21,88,0)" stroke-width="0.1"/>
  <path d="M 74.56777677446553,95.10774944647434 L 74.74041570945428,94.63816037621194" fill="none" stroke="rgb(21,88,0)" stroke-width="0.1"/>
  <path d="M 74.74041570945428,94.63816037621194 L 74.89363964152244,94.16188259652291" fill="none" stroke="rgb(21,88,0)" stroke-width="0.1"/>
  <path d="M 74.89363964152244,94.16188259652291 L 75.02719045250706,93.67971843602437" fill="none" stroke="rgb(21,88,0)" stroke-width="0.1"/>
  <path d="M 75.02719045250706,93.67971843602437 L 75.14084316521644,93.19248013942017" fill="none" stroke="rgb(21,88,0)" stroke-width="0.1"/>
  <path d="M 75.14084316521644,93.19248013942017 L 75.23440632242159,92.7009884992087" fill="none" stroke="rgb(21,88,0)" stroke-width="0.1"/>
  <path d="M 75.23440632242159,92.7009884992087 L 75.30772230938214,92.20607147299125" fill="none" stroke="rgb(21,88,0)" stroke-width="0.1"/>
  <path d="M 75.30772230938214,92.20607147299125 L 75.3606676193615,91.70856278871013" fill="none" stroke="rgb(21,88,0)" stroke-width="0.1"/>
  <path d="M 75.3606676193615,91.70856278871013 L 75.39315306168282,91.20930054016621" fill="none" stroke="rgb(21,88,0)" stroke-width="0.1"/>
  <path d="M 75.39315306168282,91.20930054016621 L 75.40512391197967,90.7091257751819" fill="none" stroke="rgb(21,88,0)" stroke-width="0.1"/>
  <path d="M 75.40512391197967,90.7091257751819 L 75.39656000438163,90.20888107878763" fill="none" stroke="rgb(21,88,0)" stroke-width="0.1"/>
  <path d="M 75.39656000438163,90.20888107878763 L 75.36747576548692,89.70940915381901" fill="none" stroke="rgb(21,88,0)" stroke-width="0.1"/>
  <path d="M 75.36747576548692,89.70940915381901 L 75.31792019005934,89.21155140131536" fill="none" stroke="rgb(21,88,0)" stroke-width="0.1"/>
  <path d="M 75.31792019005934,89.21155140131536 L 75.24797675849163,88.7161465031114" fill="none" stroke="rgb(21,88,0)" stroke-width="0.1"/>
  <path d="M 75.24797675849163,88.7161465031114 L 75.15776329617734,88.22402900900941" fill="none" stroke="rgb(21,88,0)" stroke-width="0.1"/>
  <path d="M 75.15776329617734,88.22402900900941 L 75.0474317750236,87.7360279309124" fill="none" stroke="rgb(21,88,0)" stroke-width="0.1"/>
  <path d="M 75.0474317750236,87.7360279309124 L 74.91716805744204,87.25296534628619" fill="none" stroke="rgb(21,88,0)" stroke-width="0.1"/>
  <path d="M 74.91716805744204,87.25296534628619 L 74.76719158324886,86.77565501330304" fill="none" stroke="rgb(21,88,0)" stroke-width="0.1"/>
  <path d="M 74.76719158324886,86.77565501330304 L 74.597755,86.30490099999999" fill="none" stroke="rgb(21,88,0)" stroke-width="0.1"/>
  <path d="M 57.27236872911976,100.0 L 59.48775500000011,96.51980099999999" fill="none" stroke="rgb(21,88,0)" stroke-width="0.1"/>
  <path d="M 69.68775499999992,88.18280099999998 L 79.4977550000001,84.42740099999999" fill="none" stroke="rgb(21,88,0)" stroke-width="0.1"/>
  <path d="M 73.39775499999996,85.77010099999998 L 75.78775500000006,86.83970099999999" fill="none" stroke="rgb(21,88,0)" stroke-width="0.1"/>
  <path d="M 58.7477550000001,79.00740099999999 L 61.9677549999999,87.41180099999998" fill="none" stroke="rgb(21,88,0)" stroke-width="0.1"/>
  <path d="M 59.89775499999996,84.23720099999998 L 60.817755000000034,82.18240099999998" fill="none" stroke="rgb(21,88,0)" stroke-width="0.1"/>
  <path d="M 74.53775500000006,72.95820099999999 L 77.75775500000009,81.36290099999998" fill="none" stroke="rgb(21,88,0)" stroke-width="0.1"/>
  <path d="M 75.68775499999992,78.18790099999998 L 76.607755,76.13320099999999" fill="none" stroke="rgb(21,88,0)" stroke-width="0.1"/>
  <path d="M 50.4677549999999,82.56230099999999 L 58.067755000000034,87.39280099999999" fill="none" stroke="rgb(21,88,0)" stroke-width="0.1"/>
  <path d="M 54.02775500000007,83.87930099999998 L 54.50775500000009,86.07560099999999" fill="none" stroke="rgb(21,88,0)" stroke-width="0.1"/>
  <path d="M 56.37775499999998,73.27310099999998 L 63.97775499999989,78.10340099999999" fill="none" stroke="rgb(21,88,0)" stroke-width="0.1"/>
  <path d="M 59.927754999999934,74.59010099999999 L 60.41775499999994,76.78640099999998" fill="none" stroke="rgb(21,88,0)" stroke-width="0.1"/>
  <path d="M 35.72775499999989,26.002100999999982 L 44.13775499999997,22.783500999999987" fill="none" stroke="rgb(178,0,178)" stroke-width="0.1"/>
  <path d="M 38.90775499999995,23.934400999999987 L 40.957754999999906,24.851200999999982" fill="none" stroke="rgb(178,0,178)" stroke-width="0.1"/>
  <path d="M 42.87775499999998,44.67520099999999 L 51.28775500000006,41.456600999999985" fill="none" stroke="rgb(178,0,178)" stroke-width="0.1"/>
  <path d="M 46.05775500000004,42.607500999999985 L 48.107755,43.52430099999999" fill="none" stroke="rgb(178,0,178)" stroke-width="0.1"/>
  <path d="M 61.197754999999916,92.50580099999999 L 69.607755,89.28680099999998" fill="none" stroke="rgb(178,0,178)" stroke-width="0.1"/>
  <path d="M 64.37775499999998,90.43780099999998 L 66.42775499999993,91.35480099999998" fill="none" stroke="rgb(178,0,178)" stroke-width="0.1"/>
  <path d="M 58.2477550000001,12.247500999999986 L 66.65775499999995,9.028900999999983" fill="none" stroke="rgb(178,0,0)" stroke-width="0.1"/>
  <path d="M 61.427754999999934,10.179800999999983 L 63.47775499999989,11.096600999999986" fill="none" stroke="rgb(178,0,0)" stroke-width="0.1"/>
  <path d="M 62.54775500000005,23.453900999999988 L 70.94775499999992,20.235300999999986" fill="none" stroke="rgb(178,0,0)" stroke-width="0.1"/>
  <path d="M 65.7177549999999,21.386200999999986 L 67.77775500000007,22.303000999999988" fill="none" stroke="rgb(178,0,0)" stroke-width="0.1"/>
  <path d="M 85.43775499999992,83.22440099999999 L 93.83775500000002,80.00570099999999" fill="none" stroke="rgb(178,0,0)" stroke-width="0.1"/>
  <path d="M 88.607755,81.15660099999998 L 90.66775499999994,82.07340099999999" fill="none" stroke="rgb(178,0,0)" stroke-width="0.1"/>
  <path d="M 79.00775500000009,84.61500099999998 L 76.14775499999996,77.16050099999998" fill="none" stroke="rgb(21,88,0)" stroke-width="0.1"/>
  <path d="M 76.14775499999996,77.16050099999998 L 60.357755,83.20980099999998" fill="none" stroke="rgb(21,88,0)" stroke-width="0.1"/>
  <path d="M 60.357755,83.20980099999998 L 63.207754999999906,90.66480099999998" fill="none" stroke="rgb(21,88,0)" stroke-width="0.1"/>
  <path d="M 69.11775499999999,81.37520099999999 L 60.177754999999934,75.68830099999998" fill="none" stroke="rgb(21,88,0)" stroke-width="0.1"/>
  <path d="M 60.177754999999934,75.68830099999998 L 54.26775500000008,84.97740099999999" fill="none" stroke="rgb(21,88,0)" stroke-width="0.1"/>
  <path d="M 54.26775500000008,84.97740099999999 L 63.207754999999906,90.66480099999998" fill="none" stroke="rgb(21,88,0)" stroke-width="0.1"/>
  <path d="M 77.9577549999999,86.08530099999999 L 65.39775499999996,90.89580099999999" fill="none" stroke="rgb(178,0,178)" stroke-width="0.1"/>
  <path d="M 65.39775499999996,90.89580099999999 L 47.087755000000016,43.06590099999998" fill="none" stroke="rgb(178,0,178)" stroke-width="0.1"/>
  <path d="M 47.087755000000016,43.06590099999998 L 39.937754999999925,24.392800999999984" fill="none" stroke="rgb(178,0,178)" stroke-width="0.1"/>
  <path d="M 39.937754999999925,24.392800999999984 L 52.4977550000001,19.582200999999984" fill="none" stroke="rgb(178,0,178)" stroke-width="0.1"/>
  <path d="M 53.11775499999999,14.214300999999985 L 62.457754999999906,10.638200999999984" fill="none" stroke="rgb(178,0,0)" stroke-width="0.1"/>
  <path d="M 62.457754999999906,10.638200999999984 L 66.7477550000001,21.844600999999983" fill="none" stroke="rgb(178,0,0)" stroke-width="0.1"/>
  <path d="M 66.7477550000001,21.844600999999983 L 89.63775499999997,81.61500099999998" fill="none" stroke="rgb(178,0,0)" stroke-width="0.1"/>
  <path d="M 89.63775499999997,81.61500099999998 L 80.29775500000005,85.19110099999999" fill="none" stroke="rgb(178,0,0)" stroke-width="0.1"/>
  <text fill="rgb(0,0,0)" font-family="Noto Sans CJK SC" font-size="2" transform="rotate(-20.9544,62.55775500000004,80.00350099999999)" x="62.55775500000004" y="80.00350099999999">
   1692
  </text>
  <text fill="rgb(0,0,0)" font-family="Noto Sans CJK SC" font-size="2" transform="rotate(-57.5409,53.067755000000034,82.75660099999999)" x="53.067755000000034" y="82.75660099999999">
   1101
  </text>
  <text fill="rgb(0,0,0)" font-family="Noto Sans CJK SC" font-size="2" transform="rotate(-290.954,43.577755000000025,27.757800999999986)" x="43.577755000000025" y="27.757800999999986">
   2000
  </text>
  <text fill="rgb(0,0,0)" font-family="Noto Sans CJK SC" font-size="2" transform="rotate(-290.954,56.427754999999934,61.28960099999999)" x="56.427754999999934" y="61.28960099999999">
   5122
  </text>
  <text fill="rgb(0,0,0)" font-family="Noto Sans CJK SC" font-size="2" transform="rotate(-290.954,78.26775500000008,45.75830099999998)" x="78.26775500000008" y="45.75830099999998">
   6400
  </text>
  <text fill="rgb(0,0,0)" font-family="Noto Sans CJK SC" font-size="2" transform="rotate(-290.954,64.77775500000007,10.550000999999984)" x="64.77775500000007" y="10.550000999999984">
   1200
  </text>
 </g>
 <g id="layerWALL" inkscape:groupmode="layer" inkscape:label="WALL">
  <path d="M 62.54775500000005,89.84880099999998 L 77.7177549999999,84.03880099999998" fill="none" instance-id="-1" semantic-id="1" stroke="rgb(0,0,0)" stroke-width="0.1"/>
  <path d="M 63.87775499999998,91.47980099999998 L 78.42775499999993,85.90650099999999" fill="none" instance-id="-1" semantic-id="1" stroke="rgb(0,0,0)" stroke-width="0.1"/>
  <path d="M 77.7177549999999,84.03880099999998 L 60.107755,38.07640099999998" fill="none" instance-id="-1" semantic-id="1" stroke="rgb(0,0,0)" stroke-width="0.1"/>
  <path d="M 79.93775499999992,84.25740099999999 L 61.97775499999989,37.36120099999999" fill="none" instance-id="-1" semantic-id="1" stroke="rgb(0,0,0)" stroke-width="0.1"/>
  <path d="M 60.107755,38.07640099999998 L 61.97775499999989,37.36120099999999" fill="none" instance-id="-1" semantic-id="1" stroke="rgb(0,0,0)" stroke-width="0.1"/>
  <path d="M 52.957754999999906,19.403300999999985 L 51.51775500000008,15.642200999999986" fill="none" instance-id="-1" semantic-id="1" stroke="rgb(0,0,0)" stroke-width="0.1"/>
  <path d="M 54.827755000000025,18.688100999999985 L 53.66775499999994,15.642200999999986" fill="none" instance-id="-1" semantic-id="1" stroke="rgb(0,0,0)" stroke-width="0.1"/>
  <path d="M 52.957754999999906,19.403300999999985 L 54.827755000000025,18.688100999999985" fill="none" instance-id="-1" semantic-id="1" stroke="rgb(0,0,0)" stroke-width="0.1"/>
  <path d="M 56.08964963274343,100.0 L 62.54775500000005,89.84880099999998" fill="none" instance-id="-1" semantic-id="1" stroke="rgb(0,0,0)" stroke-width="0.1"/>
  <path d="M 58.45801273218444,100.0 L 63.87775499999998,91.47980099999998" fill="none" instance-id="-1" semantic-id="1" stroke="rgb(0,0,0)" stroke-width="0.1"/>
  <path d="M 83.82485142017913,100.0 L 78.42775499999993,85.90650099999999" fill="none" instance-id="-1" semantic-id="1" stroke="rgb(0,0,0)" stroke-width="0.1"/>
  <path d="M 85.96666813276033,100.0 L 79.93775499999992,84.25740099999999" fill="none" instance-id="-1" semantic-id="1" stroke="rgb(0,0,0)" stroke-width="0.1"/>
  <path d="M 12.557755000000043,15.642200999999986 L 0.0,35.386876889731326" fill="none" instance-id="-1" semantic-id="1" stroke="rgb(0,0,0)" stroke-width="0.1"/>
  <path d="M 10.187754999999925,15.642200999999986 L 0.0,31.659628377443227" fill="none" instance-id="-1" semantic-id="1" stroke="rgb(0,0,0)" stroke-width="0.1"/>
 </g>
 <g id="layerWINDOW" inkscape:groupmode="layer" inkscape:label="WINDOW">
  <path d="M 60.107755,38.07640099999998 L 61.97775499999989,37.36120099999999" fill="none" instance-id="-1" semantic-id="1" stroke="rgb(178,0,178)" stroke-width="0.1"/>
  <path d="M 61.97775499999989,37.36120099999999 L 54.827755000000025,18.688100999999985" fill="none" instance-id="-1" semantic-id="1" stroke="rgb(178,0,178)" stroke-width="0.1"/>
  <path d="M 54.827755000000025,18.688100999999985 L 52.957754999999906,19.403300999999985" fill="none" instance-id="-1" semantic-id="1" stroke="rgb(178,0,178)" stroke-width="0.1"/>
  <path d="M 52.957754999999906,19.403300999999985 L 60.107755,38.07640099999998" fill="none" instance-id="-1" semantic-id="1" stroke="rgb(178,0,178)" stroke-width="0.1"/>
 </g>
 <g id="layerWINDOW_TEXT" inkscape:groupmode="layer" inkscape:label="WINDOW_TEXT">
  <text fill="rgb(0,0,0)" font-family="Noto Sans CJK SC" font-size="2" transform="rotate(69.0456,48.79775500000005,25.344600999999983)" x="48.79775500000005" y="25.344600999999983">
   D2007
  </text>
 </g>
 <g id="layerZT-环境高差" inkscape:groupmode="layer" inkscape:label="ZT-环境高差">
  <path d="M 99.7077549999999,15.642200999999986 L 100.0,16.404850503458967" fill="none" stroke="rgb(89,89,89)" stroke-width="0.1"/>
 </g>
</svg>