<?xml version="1.0" encoding="utf-8"?>
<svg style="background-color: #000;" version="1.1" viewBox="0 0 100.0 100.0" xmlns="http://www.w3.org/2000/svg" xmlns:inkscape="http://www.inkscape.org/namespaces/inkscape">
 <g id="layer109-F-分层平面*4" inkscape:groupmode="layer" inkscape:label="109-F-分层平面*4">
  <path d="M 10.837147499999958,94.0154455 L 8.958147499999995,93.3304455" fill="none" stroke="rgb(0,0,0)" stroke-width="0.1"/>
 </g>
 <g id="layerA-DOOR" inkscape:groupmode="layer" inkscape:label="A-DOOR">
  <path d="M 32.17053133661017,100.0 L 33.98114749999996,95.0924455" fill="none" instance-id="1" semantic-id="4" stroke="rgb(0,178,0)" stroke-width="0.1"/>
  <path d="M 31.691197207780647,100.0 L 33.559147499999995,94.93644549999999" fill="none" instance-id="1" semantic-id="4" stroke="rgb(0,178,0)" stroke-width="0.1"/>
  <path d="M 33.98114749999996,95.0924455 L 33.559147499999995,94.93644549999999" fill="none" instance-id="1" semantic-id="4" stroke="rgb(0,178,0)" stroke-width="0.1"/>
  <path d="M 13.979147499999954,97.30544549999996 L 17.094147499999963,88.8614455" fill="none" instance-id="1" semantic-id="4" stroke="rgb(0,178,0)" stroke-width="0.1"/>
  <path d="M 14.40114749999998,97.46144549999997 L 17.516147499999988,89.01744550000001" fill="none" instance-id="1" semantic-id="4" stroke="rgb(0,178,0)" stroke-width="0.1"/>
  <path d="M 13.979147499999954,97.30544549999996 L 14.40114749999998,97.46144549999997" fill="none" instance-id="1" semantic-id="4" stroke="rgb(0,178,0)" stroke-width="0.1"/>
  <path d="M 17.094147499999963,88.8614455 L 17.516147499999988,89.01744550000001" fill="none" instance-id="1" semantic-id="4" stroke="rgb(0,178,0)" stroke-width="0.1"/>
  <path d="M 33.559147499999995,94.93644549999999 L 33.070985152176036,94.79970972411223" fill="none" instance-id="1" semantic-id="4" stroke="rgb(0,178,0)" stroke-width="0.1"/>
  <path d="M 33.070985152176036,94.79970972411223 L 32.575912178481985,94.69061389028553" fill="none" instance-id="1" semantic-id="4" stroke="rgb(0,178,0)" stroke-width="0.1"/>
  <path d="M 32.575912178481985,94.69061389028553 L 32.07549225020563,94.60950257403107" fill="none" instance-id="1" semantic-id="4" stroke="rgb(0,178,0)" stroke-width="0.1"/>
  <path d="M 32.07549225020563,94.60950257403107 L 31.571305926810567,94.55663196270518" fill="none" instance-id="1" semantic-id="4" stroke="rgb(0,178,0)" stroke-width="0.1"/>
  <path d="M 31.571305926810567,94.55663196270518 L 31.06494566379223,94.53216904635036" fill="none" instance-id="1" semantic-id="4" stroke="rgb(0,178,0)" stroke-width="0.1"/>
  <path d="M 31.06494566379223,94.53216904635036 L 30.55801078296099,94.53619109026272" fill="none" instance-id="1" semantic-id="4" stroke="rgb(0,178,0)" stroke-width="0.1"/>
  <path d="M 30.55801078296099,94.53619109026272 L 30.052102421038285,94.56868539095228" fill="none" instance-id="1" semantic-id="4" stroke="rgb(0,178,0)" stroke-width="0.1"/>
  <path d="M 30.052102421038285,94.56868539095228 L 29.548818472520168,94.62954931626632" fill="none" instance-id="1" semantic-id="4" stroke="rgb(0,178,0)" stroke-width="0.1"/>
  <path d="M 29.548818472520168,94.62954931626632 L 29.049748542781515,94.7185906295498" fill="none" instance-id="1" semantic-id="4" stroke="rgb(0,178,0)" stroke-width="0.1"/>
  <path d="M 29.049748542781515,94.7185906295498 L 28.556468927360925,94.83552809681822" fill="none" instance-id="1" semantic-id="4" stroke="rgb(0,178,0)" stroke-width="0.1"/>
  <path d="M 28.556468927360925,94.83552809681822 L 28.070537633284687,94.97999237502574" fill="none" instance-id="1" semantic-id="4" stroke="rgb(0,178,0)" stroke-width="0.1"/>
  <path d="M 28.070537633284687,94.97999237502574 L 27.593489458153954,95.15152717862259" fill="none" instance-id="1" semantic-id="4" stroke="rgb(0,178,0)" stroke-width="0.1"/>
  <path d="M 27.593489458153954,95.15152717862259 L 27.12683114253815,95.34959072071774" fill="none" instance-id="1" semantic-id="4" stroke="rgb(0,178,0)" stroke-width="0.1"/>
  <path d="M 27.12683114253815,95.34959072071774 L 26.672036610986197,95.57355742429456" fill="none" instance-id="1" semantic-id="4" stroke="rgb(0,178,0)" stroke-width="0.1"/>
  <path d="M 26.672036610986197,95.57355742429456 L 26.230542316685046,95.82271989807441" fill="none" instance-id="1" semantic-id="4" stroke="rgb(0,178,0)" stroke-width="0.1"/>
  <path d="M 26.230542316685046,95.82271989807441 L 25.803742704470835,96.09629117078862" fill="none" instance-id="1" semantic-id="4" stroke="rgb(0,178,0)" stroke-width="0.1"/>
  <path d="M 25.803742704470835,96.09629117078862 L 25.39298580652229,96.39340717680017" fill="none" instance-id="1" semantic-id="4" stroke="rgb(0,178,0)" stroke-width="0.1"/>
  <path d="M 25.39298580652229,96.39340717680017 L 24.999568984646032,96.71312948522643" fill="none" instance-id="1" semantic-id="4" stroke="rgb(0,178,0)" stroke-width="0.1"/>
  <path d="M 24.999568984646032,96.71312948522643 L 24.624734832603394,97.0544482639408" fill="none" instance-id="1" semantic-id="4" stroke="rgb(0,178,0)" stroke-width="0.1"/>
  <path d="M 24.624734832603394,97.0544482639408 L 24.26966725141989,97.41628546909408" fill="none" instance-id="1" semantic-id="4" stroke="rgb(0,178,0)" stroke-width="0.1"/>
  <path d="M 24.26966725141989,97.41628546909408 L 23.935487710073687,97.797498250079" fill="none" instance-id="1" semantic-id="4" stroke="rgb(0,178,0)" stroke-width="0.1"/>
  <path d="M 23.935487710073687,97.797498250079 L 23.62325170337374,98.19688255918572" fill="none" instance-id="1" semantic-id="4" stroke="rgb(0,178,0)" stroke-width="0.1"/>
  <path d="M 23.62325170337374,98.19688255918572 L 23.333945418215023,98.61317695454585" fill="none" instance-id="1" semantic-id="4" stroke="rgb(0,178,0)" stroke-width="0.1"/>
  <path d="M 23.333945418215023,98.61317695454585 L 23.068482618740404,99.04506658435389" fill="none" instance-id="1" semantic-id="4" stroke="rgb(0,178,0)" stroke-width="0.1"/>
  <path d="M 23.068482618740404,99.04506658435389 L 22.827701760247635,99.49118733978241" fill="none" instance-id="1" semantic-id="4" stroke="rgb(0,178,0)" stroke-width="0.1"/>
  <path d="M 22.827701760247635,99.49118733978241 L 22.61236334095622,99.95013016347366" fill="none" instance-id="1" semantic-id="4" stroke="rgb(0,178,0)" stroke-width="0.1"/>
  <path d="M 22.584744183389887,99.93989150594359 L 22.71908660064082,99.45101755059994" fill="none" instance-id="1" semantic-id="4" stroke="rgb(0,178,0)" stroke-width="0.1"/>
  <path d="M 22.71908660064082,99.45101755059994 L 22.82575035902056,98.95536800511996" fill="none" instance-id="1" semantic-id="4" stroke="rgb(0,178,0)" stroke-width="0.1"/>
  <path d="M 22.82575035902056,98.95536800511996 L 22.904398503718085,98.45450864499793" fill="none" instance-id="1" semantic-id="4" stroke="rgb(0,178,0)" stroke-width="0.1"/>
  <path d="M 22.904398503718085,98.45450864499793 L 22.954782582295934,97.95002170372788" fill="none" instance-id="1" semantic-id="4" stroke="rgb(0,178,0)" stroke-width="0.1"/>
  <path d="M 22.954782582295934,97.95002170372788 L 22.97674342956128,97.4435008744685" fill="none" instance-id="1" semantic-id="4" stroke="rgb(0,178,0)" stroke-width="0.1"/>
  <path d="M 22.97674342956128,97.4435008744685 L 22.97021167037434,96.93654627550711" fill="none" instance-id="1" semantic-id="4" stroke="rgb(0,178,0)" stroke-width="0.1"/>
  <path d="M 22.97021167037434,96.93654627550711 L 22.935207938807253,96.43075939542564" fill="none" instance-id="1" semantic-id="4" stroke="rgb(0,178,0)" stroke-width="0.1"/>
  <path d="M 22.935207938807253,96.43075939542564 L 22.871842812960153,95.92773803393828" fill="none" instance-id="1" semantic-id="4" stroke="rgb(0,178,0)" stroke-width="0.1"/>
  <path d="M 22.871842812960153,95.92773803393828 L 22.780316465640965,95.42907125438245" fill="none" instance-id="1" semantic-id="4" stroke="rgb(0,178,0)" stroke-width="0.1"/>
  <path d="M 22.780316465640965,95.42907125438245 L 22.660918032011807,94.93633436380793" fill="none" instance-id="1" semantic-id="4" stroke="rgb(0,178,0)" stroke-width="0.1"/>
  <path d="M 22.660918032011807,94.93633436380793 L 22.51402469620035,94.45108393652282" fill="none" instance-id="1" semantic-id="4" stroke="rgb(0,178,0)" stroke-width="0.1"/>
  <path d="M 22.51402469620035,94.45108393652282 L 22.340100499760922,93.9748528968172" fill="none" instance-id="1" semantic-id="4" stroke="rgb(0,178,0)" stroke-width="0.1"/>
  <path d="M 22.340100499760922,93.9748528968172 L 22.139694875749797,93.50914567639768" fill="none" instance-id="1" semantic-id="4" stroke="rgb(0,178,0)" stroke-width="0.1"/>
  <path d="M 22.139694875749797,93.50914567639768 L 21.913440913045747,93.05543346183111" fill="none" instance-id="1" semantic-id="4" stroke="rgb(0,178,0)" stroke-width="0.1"/>
  <path d="M 21.913440913045747,93.05543346183111 L 21.662053356398303,92.61514954701136" fill="none" instance-id="1" semantic-id="4" stroke="rgb(0,178,0)" stroke-width="0.1"/>
  <path d="M 21.662053356398303,92.61514954701136 L 21.386326348522573,92.18968480532988" fill="none" instance-id="1" semantic-id="4" stroke="rgb(0,178,0)" stroke-width="0.1"/>
  <path d="M 21.386326348522573,92.18968480532988 L 21.087130921372363,91.78038329585479" fill="none" instance-id="1" semantic-id="4" stroke="rgb(0,178,0)" stroke-width="0.1"/>
  <path d="M 21.087130921372363,91.78038329585479 L 20.765412244517734,91.3885380173977" fill="none" instance-id="1" semantic-id="4" stroke="rgb(0,178,0)" stroke-width="0.1"/>
  <path d="M 20.765412244517734,91.3885380173977 L 20.422186639319023,91.01538682388207" fill="none" instance-id="1" semantic-id="4" stroke="rgb(0,178,0)" stroke-width="0.1"/>
  <path d="M 20.422186639319023,91.01538682388207 L 20.058538368329152,90.66210851391628" fill="none" instance-id="1" semantic-id="4" stroke="rgb(0,178,0)" stroke-width="0.1"/>
  <path d="M 20.058538368329152,90.66210851391628 L 19.675616210068142,90.32981910692456" fill="none" instance-id="1" semantic-id="4" stroke="rgb(0,178,0)" stroke-width="0.1"/>
  <path d="M 19.675616210068142,90.32981910692456 L 19.274629829988157,90.01956831759992" fill="none" instance-id="1" semantic-id="4" stroke="rgb(0,178,0)" stroke-width="0.1"/>
  <path d="M 19.274629829988157,90.01956831759992 L 18.856845959095438,89.732336239816" fill="none" instance-id="1" semantic-id="4" stroke="rgb(0,178,0)" stroke-width="0.1"/>
  <path d="M 18.856845959095438,89.732336239816 L 18.423584392299233,89.46903025047379" fill="none" instance-id="1" semantic-id="4" stroke="rgb(0,178,0)" stroke-width="0.1"/>
  <path d="M 18.423584392299233,89.46903025047379 L 17.976213819130464,89.23048214306391" fill="none" instance-id="1" semantic-id="4" stroke="rgb(0,178,0)" stroke-width="0.1"/>
  <path d="M 17.976213819130464,89.23048214306391 L 17.516147499999988,89.01744550000001" fill="none" instance-id="1" semantic-id="4" stroke="rgb(0,178,0)" stroke-width="0.1"/>
 </g>
 <g id="layerA-GLAZ" inkscape:groupmode="layer" inkscape:label="A-GLAZ">
  <path d="M 11.744147499999997,94.66844549999996 L 26.195184034786507,100.0" fill="none" instance-id="-1" semantic-id="2" stroke="rgb(0,178,178)" stroke-width="0.1"/>
  <path d="M 11.848147499999982,94.38744549999996 L 27.061152619042616,100.0" fill="none" instance-id="-1" semantic-id="2" stroke="rgb(0,178,178)" stroke-width="0.1"/>
  <path d="M 12.54014749999999,92.51144549999998 L 32.838109496222785,100.0" fill="none" instance-id="-1" semantic-id="2" stroke="rgb(0,178,178)" stroke-width="0.1"/>
 </g>
 <g id="layerA-GLAZ-MULN" inkscape:groupmode="layer" inkscape:label="A-GLAZ-MULN">
  <path d="M 11.156147499999975,96.26344549999999 L 21.284195741862334,100.0" fill="none" stroke="rgb(178,0,0)" stroke-width="0.1"/>
  <path d="M 11.156147499999975,96.26344549999999 L 11.848147499999982,94.38744549999996" fill="none" stroke="rgb(178,0,0)" stroke-width="0.1"/>
  <path d="M 13.041147499999965,96.95944549999996 L 13.979147499999954,97.30544549999996" fill="none" stroke="rgb(178,0,0)" stroke-width="0.1"/>
  <path d="M 13.979147499999954,97.30544549999996 L 14.844147499999963,94.96044549999999" fill="none" stroke="rgb(178,0,0)" stroke-width="0.1"/>
  <path d="M 14.844147499999963,94.96044549999999 L 13.906147499999975,94.61344549999995" fill="none" stroke="rgb(178,0,0)" stroke-width="0.1"/>
  <path d="M 13.906147499999975,94.61344549999995 L 13.041147499999965,96.95944549999996" fill="none" stroke="rgb(178,0,0)" stroke-width="0.1"/>
  <path d="M 11.688147499999957,96.46144549999997 L 12.27614749999998,94.8664455" fill="none" stroke="rgb(178,0,0)" stroke-width="0.1"/>
  <path d="M 12.27614749999998,94.8664455 L 11.52614749999998,94.58944549999995" fill="none" stroke="rgb(178,0,0)" stroke-width="0.1"/>
  <path d="M 11.52614749999998,94.58944549999995 L 10.93714749999998,96.18444549999998" fill="none" stroke="rgb(178,0,0)" stroke-width="0.1"/>
  <path d="M 10.93714749999998,96.18444549999998 L 11.688147499999957,96.46144549999997" fill="none" stroke="rgb(178,0,0)" stroke-width="0.1"/>
  <path d="M 12.27214749999996,94.01144549999998 L 12.098147499999982,94.4814455" fill="none" stroke="rgb(178,0,0)" stroke-width="0.1"/>
  <path d="M 12.098147499999982,94.4814455 L 11.629147499999988,94.30744549999997" fill="none" stroke="rgb(178,0,0)" stroke-width="0.1"/>
  <path d="M 11.629147499999988,94.30744549999997 L 11.80214749999999,93.83844549999998" fill="none" stroke="rgb(178,0,0)" stroke-width="0.1"/>
  <path d="M 11.80214749999999,93.83844549999998 L 12.27214749999996,94.01144549999998" fill="none" stroke="rgb(178,0,0)" stroke-width="0.1"/>
 </g>
 <g id="layerA-WALL" inkscape:groupmode="layer" inkscape:label="A-WALL">
  <path d="M 14.702147499999967,97.57244549999996 L 11.156147499999975,96.26344549999999" fill="none" stroke="rgb(0,0,0)" stroke-width="0.1"/>
 </g>
 <g id="layerA-上部投影线" inkscape:groupmode="layer" inkscape:label="A-上部投影线">
  <path d="M 10.886147499999993,10.899445499999956 L 11.049414582896986,10.41983677039218" fill="none" stroke="rgb(0,0,0)" stroke-width="0.1"/>
  <path d="M 11.049414582896986,10.41983677039218 L 11.18818119078827,9.932574518203523" fill="none" stroke="rgb(0,0,0)" stroke-width="0.1"/>
  <path d="M 11.18818119078827,9.932574518203523 L 11.302091136609533,9.438909451466316" fill="none" stroke="rgb(0,0,0)" stroke-width="0.1"/>
  <path d="M 11.302091136609533,9.438909451466316 L 11.390852035544356,8.940108713000598" fill="none" stroke="rgb(0,0,0)" stroke-width="0.1"/>
  <path d="M 11.390852035544356,8.940108713000598 L 11.454236055519118,8.437452627903156" fill="none" stroke="rgb(0,0,0)" stroke-width="0.1"/>
  <path d="M 11.454236055519118,8.437452627903156 L 11.492080502004285,7.932231417200455" fill="none" stroke="rgb(0,0,0)" stroke-width="0.1"/>
  <path d="M 11.492080502004285,7.932231417200455 L 11.504288235619583,7.425741886100752" fill="none" stroke="rgb(0,0,0)" stroke-width="0.1"/>
  <path d="M 11.504288235619583,7.425741886100752 L 11.490827921472032,6.919284095345461" fill="none" stroke="rgb(0,0,0)" stroke-width="0.1"/>
  <path d="M 11.490827921472032,6.919284095345461 L 11.451734109586823,6.41415802420488" fill="none" stroke="rgb(0,0,0)" stroke-width="0.1"/>
  <path d="M 11.451734109586823,6.41415802420488 L 11.387107146223627,5.911660233682255" fill="none" stroke="rgb(0,0,0)" stroke-width="0.1"/>
  <path d="M 11.387107146223627,5.911660233682255 L 11.297112916307583,5.4130805384925225" fill="none" stroke="rgb(0,0,0)" stroke-width="0.1"/>
  <path d="M 11.297112916307583,5.4130805384925225 L 11.181982417634401,4.919698696357159" fill="none" stroke="rgb(0,0,0)" stroke-width="0.1"/>
  <path d="M 11.181982417634401,4.919698696357159 L 11.042011167944054,4.432781123113216" fill="none" stroke="rgb(0,0,0)" stroke-width="0.1"/>
  <path d="M 11.042011167944054,4.432781123113216 L 10.877558446383318,3.9535776420689217" fill="none" stroke="rgb(0,0,0)" stroke-width="0.1"/>
  <path d="M 10.877558446383318,3.9535776420689217 L 10.689046371306176,3.4833182759487613" fill="none" stroke="rgb(0,0,0)" stroke-width="0.1"/>
  <path d="M 10.689046371306176,3.4833182759487613 L 10.476958816777312,3.0232100896624843" fill="none" stroke="rgb(0,0,0)" stroke-width="0.1"/>
  <path d="M 10.476958816777312,3.0232100896624843 L 10.241840170560806,2.5744340920033437" fill="none" stroke="rgb(0,0,0)" stroke-width="0.1"/>
  <path d="M 10.241840170560806,2.5744340920033437 L 9.984293936782251,2.1381422042262557" fill="none" stroke="rgb(0,0,0)" stroke-width="0.1"/>
  <path d="M 9.984293936782251,2.1381422042262557 L 9.704981186849977,1.715454303288766" fill="none" stroke="rgb(0,0,0)" stroke-width="0.1"/>
  <path d="M 9.704981186849977,1.715454303288766 L 9.404618862612722,1.3074553473434776" fill="none" stroke="rgb(0,0,0)" stroke-width="0.1"/>
  <path d="M 9.404618862612722,1.3074553473434776 L 9.083977936108454,0.9151925908598173" fill="none" stroke="rgb(0,0,0)" stroke-width="0.1"/>
  <path d="M 9.083977936108454,0.9151925908598173 L 8.74388143062805,0.5396728965245643" fill="none" stroke="rgb(0,0,0)" stroke-width="0.1"/>
  <path d="M 8.74388143062805,0.5396728965245643 L 8.385202308173518,0.1818601508196025" fill="none" stroke="rgb(0,0,0)" stroke-width="0.1"/>
  <path d="M 10.886147499999993,10.899445499999956 L 0.0,40.4082442008426" fill="none" stroke="rgb(0,0,0)" stroke-width="0.1"/>
 </g>
 <g id="layerA-散水、排水沟" inkscape:groupmode="layer" inkscape:label="A-散水、排水沟">
  <path d="M 46.589018463764205,0.0 L 11.77614749999998,94.3614455" fill="none" instance-id="-1" semantic-id="1" stroke="rgb(107,53,93)" stroke-width="0.1"/>
  <path d="M 15.884147499999983,74.55944549999998 L 8.961147499999981,93.32344549999999" fill="none" instance-id="-1" semantic-id="1" stroke="rgb(107,53,93)" stroke-width="0.1"/>
  <path d="M 42.535147499999994,2.319445499999972 L 16.922147499999994,71.74444549999998" fill="none" instance-id="-1" semantic-id="1" stroke="rgb(107,53,93)" stroke-width="0.1"/>
  <path d="M 15.884147499999983,74.55944549999998 L 0.0,68.69931219084253" fill="none" instance-id="-1" semantic-id="1" stroke="rgb(107,53,93)" stroke-width="0.1"/>
  <path d="M 16.922147499999994,71.74444549999998 L 0.0,65.50132203834869" fill="none" instance-id="-1" semantic-id="1" stroke="rgb(107,53,93)" stroke-width="0.1"/>
  <path d="M 36.2484797953241,0.0 L 42.535147499999994,2.319445499999972" fill="none" instance-id="-1" semantic-id="1" stroke="rgb(107,53,93)" stroke-width="0.1"/>
 </g>
 <g id="layerA-看线" inkscape:groupmode="layer" inkscape:label="A-看线">
  <path d="M 0.0,90.02199693967844 L 8.958147499999995,93.3304455" fill="none" stroke="rgb(255,12,254)" stroke-width="0.1"/>
 </g>
 <g id="layerA-空调板投影线" inkscape:groupmode="layer" inkscape:label="A-空调板投影线">
  <path d="M 25.332835690803904,0.0 L 0.0,46.72036135344956" fill="none" stroke="rgb(178,88,0)" stroke-width="0.1"/>
 </g>
 <g id="layerA-虚线轮廓" inkscape:groupmode="layer" inkscape:label="A-虚线轮廓">
  <path d="M 68.20194715562576,0.0 L 37.720147499999996,82.62044549999996" fill="none" stroke="rgb(0,178,178)" stroke-width="0.1"/>
  <path d="M 37.720147499999996,82.62044549999996 L 37.55078086933855,83.09800960662642" fill="none" stroke="rgb(0,178,178)" stroke-width="0.1"/>
  <path d="M 37.55078086933855,83.09800960662642 L 37.393566891183525,83.57971106665343" fill="none" stroke="rgb(0,178,178)" stroke-width="0.1"/>
  <path d="M 37.393566891183525,83.57971106665343 L 37.24860647825216,84.06524068490785" fill="none" stroke="rgb(0,178,178)" stroke-width="0.1"/>
  <path d="M 37.24860647825216,84.06524068490785 L 37.115992677926954,84.55428680899314" fill="none" stroke="rgb(0,178,178)" stroke-width="0.1"/>
  <path d="M 37.115992677926954,84.55428680899314 L 36.99581061253019,85.04653552933325" fill="none" stroke="rgb(0,178,178)" stroke-width="0.1"/>
  <path d="M 36.99581061253019,85.04653552933325 L 36.888137424685794,85.54167088066555" fill="none" stroke="rgb(0,178,178)" stroke-width="0.1"/>
  <path d="M 36.888137424685794,85.54167088066555 L 36.79304222780263,86.0393750448527" fill="none" stroke="rgb(0,178,178)" stroke-width="0.1"/>
  <path d="M 36.79304222780263,86.0393750448527 L 36.710586061712036,86.53932855488455" fill="none" stroke="rgb(0,178,178)" stroke-width="0.1"/>
  <path d="M 36.710586061712036,86.53932855488455 L 36.640821853487466,87.04121049993768" fill="none" stroke="rgb(0,178,178)" stroke-width="0.1"/>
  <path d="M 36.640821853487466,87.04121049993768 L 36.58379438347157,87.5446987313623" fill="none" stroke="rgb(0,178,178)" stroke-width="0.1"/>
  <path d="M 36.58379438347157,87.5446987313623 L 36.53954025653263,88.04947006946344" fill="none" stroke="rgb(0,178,178)" stroke-width="0.1"/>
  <path d="M 36.53954025653263,88.04947006946344 L 36.5080878785684,88.55520051094379" fill="none" stroke="rgb(0,178,178)" stroke-width="0.1"/>
  <path d="M 36.5080878785684,88.55520051094379 L 36.489457438273064,89.06156543687558" fill="none" stroke="rgb(0,178,178)" stroke-width="0.1"/>
  <path d="M 36.489457438273064,89.06156543687558 L 36.4836608941784,89.56823982106732" fill="none" stroke="rgb(0,178,178)" stroke-width="0.1"/>
  <path d="M 36.4836608941784,89.56823982106732 L 36.490701966977895,90.074898438692" fill="none" stroke="rgb(0,178,178)" stroke-width="0.1"/>
  <path d="M 36.490701966977895,90.074898438692 L 36.51057613713823,90.58121607504285" fill="none" stroke="rgb(0,178,178)" stroke-width="0.1"/>
  <path d="M 36.51057613713823,90.58121607504285 L 36.543270647800796,91.08686773428275" fill="none" stroke="rgb(0,178,178)" stroke-width="0.1"/>
  <path d="M 36.543270647800796,91.08686773428275 L 36.58876451296959,91.59152884805269" fill="none" stroke="rgb(0,178,178)" stroke-width="0.1"/>
  <path d="M 36.58876451296959,91.59152884805269 L 36.64702853098197,92.09487548380639" fill="none" stroke="rgb(0,178,178)" stroke-width="0.1"/>
  <path d="M 36.64702853098197,92.09487548380639 L 36.71802530325266,92.59658455273643" fill="none" stroke="rgb(0,178,178)" stroke-width="0.1"/>
  <path d="M 36.71802530325266,92.59658455273643 L 36.80170925827912,93.096334017159" fill="none" stroke="rgb(0,178,178)" stroke-width="0.1"/>
  <path d="M 36.80170925827912,93.096334017159 L 36.89802668089311,93.59380309722383" fill="none" stroke="rgb(0,178,178)" stroke-width="0.1"/>
  <path d="M 36.89802668089311,93.59380309722383 L 37.00691574673942,94.08867247681667" fill="none" stroke="rgb(0,178,178)" stroke-width="0.1"/>
  <path d="M 37.00691574673942,94.08867247681667 L 37.12830656195973,94.5806245085227" fill="none" stroke="rgb(0,178,178)" stroke-width="0.1"/>
  <path d="M 37.12830656195973,94.5806245085227 L 37.26212120805633,95.06934341751798" fill="none" stroke="rgb(0,178,178)" stroke-width="0.1"/>
  <path d="M 37.26212120805633,95.06934341751798 L 37.40827379190631,95.55451550425988" fill="none" stroke="rgb(0,178,178)" stroke-width="0.1"/>
  <path d="M 37.40827379190631,95.55451550425988 L 37.566670500894986,96.0358293458446" fill="none" stroke="rgb(0,178,178)" stroke-width="0.1"/>
  <path d="M 37.566670500894986,96.0358293458446 L 37.73720966313232,96.51297599590401" fill="none" stroke="rgb(0,178,178)" stroke-width="0.1"/>
  <path d="M 37.73720966313232,96.51297599590401 L 37.91978181271418,96.98564918291231" fill="none" stroke="rgb(0,178,178)" stroke-width="0.1"/>
  <path d="M 37.91978181271418,96.98564918291231 L 38.114269759986655,97.45354550677615" fill="none" stroke="rgb(0,178,178)" stroke-width="0.1"/>
  <path d="M 38.114269759986655,97.45354550677615 L 38.32054866676765,97.91636463358134" fill="none" stroke="rgb(0,178,178)" stroke-width="0.1"/>
  <path d="M 38.32054866676765,97.91636463358134 L 38.53848612647846,98.37380948837188" fill="none" stroke="rgb(0,178,178)" stroke-width="0.1"/>
  <path d="M 38.53848612647846,98.37380948837188 L 38.76794224913277,98.82558644583645" fill="none" stroke="rgb(0,178,178)" stroke-width="0.1"/>
  <path d="M 38.76794224913277,98.82558644583645 L 39.008769751129705,99.27140551878131" fill="none" stroke="rgb(0,178,178)" stroke-width="0.1"/>
  <path d="M 39.008769751129705,99.27140551878131 L 39.260814049792316,99.7109805442675" fill="none" stroke="rgb(0,178,178)" stroke-width="0.1"/>
 </g>
 <g id="layerA-雨棚" inkscape:groupmode="layer" inkscape:label="A-雨棚">
  <path d="M 73.80890400898204,0.0 L 81.09614749999997,2.6884455000000003" fill="none" stroke="rgb(178,133,0)" stroke-width="0.1"/>
  <path d="M 81.09614749999997,2.6884455000000003 L 81.5672906920588,2.8578246662303286" fill="none" stroke="rgb(178,133,0)" stroke-width="0.1"/>
  <path d="M 81.5672906920588,2.8578246662303286 L 82.04119489642801,3.0193177448976485" fill="none" stroke="rgb(178,133,0)" stroke-width="0.1"/>
  <path d="M 82.04119489642801,3.0193177448976485 L 82.51772812453788,3.1728797580501578" fill="none" stroke="rgb(178,133,0)" stroke-width="0.1"/>
  <path d="M 82.51772812453788,3.1728797580501578 L 82.9967576556009,3.318467936642435" fill="none" stroke="rgb(178,133,0)" stroke-width="0.1"/>
  <path d="M 82.9967576556009,3.318467936642435 L 83.47815007357633,3.45604173244692" fill="none" stroke="rgb(178,133,0)" stroke-width="0.1"/>
  <path d="M 83.47815007357633,3.45604173244692 L 83.96177130432818,3.585562829347566" fill="none" stroke="rgb(178,133,0)" stroke-width="0.1"/>
  <path d="M 83.96177130432818,3.585562829347566 L 84.44748665296675,3.706995154010997" fill="none" stroke="rgb(178,133,0)" stroke-width="0.1"/>
  <path d="M 84.44748665296675,3.706995154010997 L 84.93516084136297,3.820304885933581" fill="none" stroke="rgb(178,133,0)" stroke-width="0.1"/>
  <path d="M 84.93516084136297,3.820304885933581 L 85.42465804582491,3.9254604668610114" fill="none" stroke="rgb(178,133,0)" stroke-width="0.1"/>
  <path d="M 85.42465804582491,3.9254604668610114 L 85.91584193492685,4.022432609577322" fill="none" stroke="rgb(178,133,0)" stroke-width="0.1"/>
  <path d="M 85.91584193492685,4.022432609577322 L 86.40857570747892,4.1111943060622025" fill="none" stroke="rgb(178,133,0)" stroke-width="0.1"/>
  <path d="M 86.40857570747892,4.1111943060622025 L 86.90272213062843,4.191720835012688" fill="none" stroke="rgb(178,133,0)" stroke-width="0.1"/>
  <path d="M 86.90272213062843,4.191720835012688 L 87.3981435780808,4.263989768728777" fill="none" stroke="rgb(178,133,0)" stroke-width="0.1"/>
  <path d="M 87.3981435780808,4.263989768728777 L 87.89470206843043,4.327980979359438" fill="none" stroke="rgb(178,133,0)" stroke-width="0.1"/>
  <path d="M 87.89470206843043,4.327980979359438 L 88.39225930359021,4.383676644508739" fill="none" stroke="rgb(178,133,0)" stroke-width="0.1"/>
  <path d="M 88.39225930359021,4.383676644508739 L 88.89067670730952,4.431061252199584" fill="none" stroke="rgb(178,133,0)" stroke-width="0.1"/>
  <path d="M 88.89067670730952,4.431061252199584 L 89.38981546376931,4.470121605193867" fill="none" stroke="rgb(178,133,0)" stroke-width="0.1"/>
  <path d="M 89.38981546376931,4.470121605193867 L 89.88953655624442,4.500846824668258" fill="none" stroke="rgb(178,133,0)" stroke-width="0.1"/>
  <path d="M 89.88953655624442,4.500846824668258 L 90.38970080582135,4.523228353244065" fill="none" stroke="rgb(178,133,0)" stroke-width="0.1"/>
  <path d="M 90.38970080582135,4.523228353244065 L 90.8901689101616,4.537259957370338" fill="none" stroke="rgb(178,133,0)" stroke-width="0.1"/>
  <path d="M 90.8901689101616,4.537259957370338 L 91.39080148229903,4.542937729060441" fill="none" stroke="rgb(178,133,0)" stroke-width="0.1"/>
  <path d="M 91.39080148229903,4.542937729060441 L 91.89145908946102,4.54026008697997" fill="none" stroke="rgb(178,133,0)" stroke-width="0.1"/>
  <path d="M 91.89145908946102,4.54026008697997 L 92.39200229190243,4.5292277768876374" fill="none" stroke="rgb(178,133,0)" stroke-width="0.1"/>
  <path d="M 92.39200229190243,4.5292277768876374 L 92.89229168174131,4.509843871427279" fill="none" stroke="rgb(178,133,0)" stroke-width="0.1"/>
  <path d="M 92.89229168174131,4.509843871427279 L 93.39218792178593,4.482113769272075" fill="none" stroke="rgb(178,133,0)" stroke-width="0.1"/>
  <path d="M 93.39218792178593,4.482113769272075 L 93.89155178434186,4.446045193621217" fill="none" stroke="rgb(178,133,0)" stroke-width="0.1"/>
  <path d="M 93.89155178434186,4.446045193621217 L 94.39024418998889,4.401648190048547" fill="none" stroke="rgb(178,133,0)" stroke-width="0.1"/>
  <path d="M 94.39024418998889,4.401648190048547 L 94.8881262463164,4.348935123704962" fill="none" stroke="rgb(178,133,0)" stroke-width="0.1"/>
  <path d="M 94.8881262463164,4.348935123704962 L 95.3850592866068,4.287920675874545" fill="none" stroke="rgb(178,133,0)" stroke-width="0.1"/>
  <path d="M 95.3850592866068,4.287920675874545 L 95.88090490845582,4.218621839885543" fill="none" stroke="rgb(178,133,0)" stroke-width="0.1"/>
  <path d="M 95.88090490845582,4.218621839885543 L 96.37552501231971,4.14105791637752" fill="none" stroke="rgb(178,133,0)" stroke-width="0.1"/>
  <path d="M 96.37552501231971,4.14105791637752 L 96.86878183997754,4.055250507925905" fill="none" stroke="rgb(178,133,0)" stroke-width="0.1"/>
  <path d="M 96.86878183997754,4.055250507925905 L 97.36053801289887,3.961223513025402" fill="none" stroke="rgb(178,133,0)" stroke-width="0.1"/>
  <path d="M 97.36053801289887,3.961223513025402 L 97.85065657050541,3.8590031194339076" fill="none" stroke="rgb(178,133,0)" stroke-width="0.1"/>
  <path d="M 97.85065657050541,3.8590031194339076 L 98.33900100831613,3.748617796878932" fill="none" stroke="rgb(178,133,0)" stroke-width="0.1"/>
  <path d="M 98.33900100831613,3.748617796878932 L 98.82543531596599,3.6300982891282274" fill="none" stroke="rgb(178,133,0)" stroke-width="0.1"/>
  <path d="M 98.82543531596599,3.6300982891282274 L 99.30982401508629,3.5034776054275767" fill="none" stroke="rgb(178,133,0)" stroke-width="0.1"/>
  <path d="M 99.30982401508629,3.5034776054275767 L 99.79203219703726,3.3687910113069393" fill="none" stroke="rgb(178,133,0)" stroke-width="0.1"/>
 </g>
 <g id="layerDIM_ELEV" inkscape:groupmode="layer" inkscape:label="DIM_ELEV">
  <path d="M 63.6261475,11.15844549999997 L 66.68514749999997,5.578445499999987" fill="none" stroke="rgb(0,178,0)" stroke-width="0.1"/>
  <path d="M 66.68514749999997,5.578445499999987 L 58.045147499999985,8.100445499999978" fill="none" stroke="rgb(0,178,0)" stroke-width="0.1"/>
  <path d="M 58.045147499999985,8.100445499999978 L 63.6261475,11.15844549999997" fill="none" stroke="rgb(0,178,0)" stroke-width="0.1"/>
  <text fill="rgb(0,0,0)" font-family="Noto Sans CJK SC" font-size="2" transform="rotate(-16.2746,90.55714749999999,53.41844549999996)" x="90.55714749999999" y="53.41844549999996">
   307.950(结构)
  </text>
  <text fill="rgb(0,0,0)" font-family="Noto Sans CJK SC" font-size="2" transform="rotate(-16.2746,89.01214749999997,48.12644549999999)" x="89.01214749999997" y="48.12644549999999">
   308.850(建筑)
  </text>
  <text fill="rgb(0,0,0)" font-family="Noto Sans CJK SC" font-size="2" transform="rotate(-16.2746,35.9771475,13.777445499999999)" x="35.9771475" y="13.777445499999999">
   307.600(结构)
  </text>
  <text fill="rgb(0,0,0)" font-family="Noto Sans CJK SC" font-size="2" transform="rotate(-16.2746,34.432147499999985,8.485445499999969)" x="34.432147499999985" y="8.485445499999969">
   308.550(建筑)
  </text>
 </g>
 <g id="layerDIM_LEAD" inkscape:groupmode="layer" inkscape:label="DIM_LEAD">
  <path d="M 57.73614749999996,28.368445500000007 L 70.96914749999996,37.38844549999999" fill="none" stroke="rgb(0,178,0)" stroke-width="0.1"/>
  <path d="M 70.96914749999996,37.38844549999999 L 84.0081475,33.582445500000006" fill="none" stroke="rgb(0,178,0)" stroke-width="0.1"/>
  <path d="M 35.095147499999996,35.29144549999995 L 50.4051475,30.82144549999998" fill="none" stroke="rgb(0,178,0)" stroke-width="0.1"/>
  <path d="M 50.4051475,30.82144549999998 L 55.53814749999998,34.09044549999999" fill="none" stroke="rgb(0,178,0)" stroke-width="0.1"/>
  <path d="M 0.0,32.70393121917806 L 1.3271474999999668,32.316445499999986" fill="none" stroke="rgb(0,178,0)" stroke-width="0.1"/>
  <path d="M 1.9681474999999864,43.70844549999998 L 6.971147499999972,48.79844549999996" fill="none" stroke="rgb(0,178,0)" stroke-width="0.1"/>
  <path d="M 6.971147499999972,48.79844549999996 L 25.05214749999999,43.51944549999996" fill="none" stroke="rgb(0,178,0)" stroke-width="0.1"/>
  <text fill="rgb(0,0,0)" font-family="Noto Sans CJK SC" font-size="2" transform="rotate(-16.2746,68.39614749999998,36.22544549999998)" x="68.39614749999998" y="36.22544549999998">
   上部投影轮廓
  </text>
  <text fill="rgb(0,0,0)" font-family="Noto Sans CJK SC" font-size="2" transform="rotate(-16.2746,34.58014749999995,33.5274455)" x="34.58014749999995" y="33.5274455">
   普通带门管理卷帘
  </text>
  <text fill="rgb(0,0,0)" font-family="Noto Sans CJK SC" font-size="2" transform="rotate(-16.2746,4.265147499999955,47.67444549999999)" x="4.265147499999955" y="47.67444549999999">
   顶板空调板投影线
  </text>
 </g>
 <g id="layerDIM_SYMB" inkscape:groupmode="layer" inkscape:label="DIM_SYMB">
  <path d="M 1.5031474999999546,67.6814455 L 9.967147499999953,70.59844549999997" fill="none" stroke="rgb(0,178,0)" stroke-width="0.1"/>
  <path d="M 70.87014749999997,48.73044549999997 L 97.77814749999999,57.12144549999999" fill="none" stroke="rgb(0,178,0)" stroke-width="0.1"/>
  <path d="M 1.796147499999961,66.8304455 L 1.2091474999999718,68.5324455" fill="none" stroke="rgb(0,178,0)" stroke-width="0.1"/>
  <path d="M 1.2091474999999718,68.5324455 L 0.0,67.82515068619034" fill="none" stroke="rgb(0,178,0)" stroke-width="0.1"/>
  <path d="M 0.0,66.58756275758577 L 1.796147499999961,66.8304455" fill="none" stroke="rgb(0,178,0)" stroke-width="0.1"/>
  <path d="M 71.1381475,47.87144549999999 L 70.6021475,49.589445499999954" fill="none" stroke="rgb(0,178,0)" stroke-width="0.1"/>
  <path d="M 70.6021475,49.589445499999954 L 66.57414749999998,47.391445499999975" fill="none" stroke="rgb(0,178,0)" stroke-width="0.1"/>
  <path d="M 66.57414749999998,47.391445499999975 L 71.1381475,47.87144549999999" fill="none" stroke="rgb(0,178,0)" stroke-width="0.1"/>
  <text fill="rgb(0,0,0)" font-family="Noto Sans CJK SC" font-size="2" transform="rotate(-342.681,78.92714749999999,49.691445499999986)" x="78.92714749999999" y="49.691445499999986">
   景观放坡
  </text>
  <text fill="rgb(0,0,0)" font-family="Noto Sans CJK SC" font-size="2" transform="rotate(-342.681,74.9171475,54.117445499999974)" x="74.9171475" y="54.117445499999974">
   i=6.0%
  </text>
 </g>
 <g id="layerJ-卷帘、柱" inkscape:groupmode="layer" inkscape:label="J-卷帘、柱">
  <path d="M 68.20198231215761,0.0 L 37.2441475,83.91144549999996" fill="none" stroke="rgb(89,89,89)" stroke-width="0.1"/>
  <path d="M 68.20194715562576,0.0 L 37.720147499999996,82.62044549999996" fill="none" stroke="rgb(89,89,89)" stroke-width="0.1"/>
  <path d="M 37.720147499999996,82.62044549999996 L 37.55078086933855,83.09800960662642" fill="none" stroke="rgb(89,89,89)" stroke-width="0.1"/>
  <path d="M 37.55078086933855,83.09800960662642 L 37.393566891183525,83.57971106665343" fill="none" stroke="rgb(89,89,89)" stroke-width="0.1"/>
  <path d="M 37.393566891183525,83.57971106665343 L 37.24860647825216,84.06524068490785" fill="none" stroke="rgb(89,89,89)" stroke-width="0.1"/>
  <path d="M 37.24860647825216,84.06524068490785 L 37.115992677926954,84.55428680899314" fill="none" stroke="rgb(89,89,89)" stroke-width="0.1"/>
  <path d="M 37.115992677926954,84.55428680899314 L 36.99581061253019,85.04653552933325" fill="none" stroke="rgb(89,89,89)" stroke-width="0.1"/>
  <path d="M 36.99581061253019,85.04653552933325 L 36.888137424685794,85.54167088066555" fill="none" stroke="rgb(89,89,89)" stroke-width="0.1"/>
  <path d="M 36.888137424685794,85.54167088066555 L 36.79304222780263,86.0393750448527" fill="none" stroke="rgb(89,89,89)" stroke-width="0.1"/>
  <path d="M 36.79304222780263,86.0393750448527 L 36.710586061712036,86.53932855488455" fill="none" stroke="rgb(89,89,89)" stroke-width="0.1"/>
  <path d="M 36.710586061712036,86.53932855488455 L 36.640821853487466,87.04121049993768" fill="none" stroke="rgb(89,89,89)" stroke-width="0.1"/>
  <path d="M 36.640821853487466,87.04121049993768 L 36.58379438347157,87.5446987313623" fill="none" stroke="rgb(89,89,89)" stroke-width="0.1"/>
  <path d="M 36.58379438347157,87.5446987313623 L 36.53954025653263,88.04947006946344" fill="none" stroke="rgb(89,89,89)" stroke-width="0.1"/>
  <path d="M 36.53954025653263,88.04947006946344 L 36.5080878785684,88.55520051094379" fill="none" stroke="rgb(89,89,89)" stroke-width="0.1"/>
  <path d="M 36.5080878785684,88.55520051094379 L 36.489457438273064,89.06156543687558" fill="none" stroke="rgb(89,89,89)" stroke-width="0.1"/>
  <path d="M 36.489457438273064,89.06156543687558 L 36.4836608941784,89.56823982106732" fill="none" stroke="rgb(89,89,89)" stroke-width="0.1"/>
  <path d="M 36.4836608941784,89.56823982106732 L 36.490701966977895,90.074898438692" fill="none" stroke="rgb(89,89,89)" stroke-width="0.1"/>
  <path d="M 36.490701966977895,90.074898438692 L 36.51057613713823,90.58121607504285" fill="none" stroke="rgb(89,89,89)" stroke-width="0.1"/>
  <path d="M 36.51057613713823,90.58121607504285 L 36.543270647800796,91.08686773428275" fill="none" stroke="rgb(89,89,89)" stroke-width="0.1"/>
  <path d="M 36.543270647800796,91.08686773428275 L 36.58876451296959,91.59152884805269" fill="none" stroke="rgb(89,89,89)" stroke-width="0.1"/>
  <path d="M 36.58876451296959,91.59152884805269 L 36.64702853098197,92.09487548380639" fill="none" stroke="rgb(89,89,89)" stroke-width="0.1"/>
  <path d="M 36.64702853098197,92.09487548380639 L 36.71802530325266,92.59658455273643" fill="none" stroke="rgb(89,89,89)" stroke-width="0.1"/>
  <path d="M 36.71802530325266,92.59658455273643 L 36.80170925827912,93.096334017159" fill="none" stroke="rgb(89,89,89)" stroke-width="0.1"/>
  <path d="M 36.80170925827912,93.096334017159 L 36.89802668089311,93.59380309722383" fill="none" stroke="rgb(89,89,89)" stroke-width="0.1"/>
  <path d="M 36.89802668089311,93.59380309722383 L 37.00691574673942,94.08867247681667" fill="none" stroke="rgb(89,89,89)" stroke-width="0.1"/>
  <path d="M 37.00691574673942,94.08867247681667 L 37.12830656195973,94.5806245085227" fill="none" stroke="rgb(89,89,89)" stroke-width="0.1"/>
  <path d="M 37.12830656195973,94.5806245085227 L 37.26212120805633,95.06934341751798" fill="none" stroke="rgb(89,89,89)" stroke-width="0.1"/>
  <path d="M 37.26212120805633,95.06934341751798 L 37.40827379190631,95.55451550425988" fill="none" stroke="rgb(89,89,89)" stroke-width="0.1"/>
  <path d="M 37.40827379190631,95.55451550425988 L 37.566670500894986,96.0358293458446" fill="none" stroke="rgb(89,89,89)" stroke-width="0.1"/>
  <path d="M 37.566670500894986,96.0358293458446 L 37.73720966313232,96.51297599590401" fill="none" stroke="rgb(89,89,89)" stroke-width="0.1"/>
  <path d="M 37.73720966313232,96.51297599590401 L 37.91978181271418,96.98564918291231" fill="none" stroke="rgb(89,89,89)" stroke-width="0.1"/>
  <path d="M 37.91978181271418,96.98564918291231 L 38.114269759986655,97.45354550677615" fill="none" stroke="rgb(89,89,89)" stroke-width="0.1"/>
  <path d="M 38.114269759986655,97.45354550677615 L 38.32054866676765,97.91636463358134" fill="none" stroke="rgb(89,89,89)" stroke-width="0.1"/>
  <path d="M 38.32054866676765,97.91636463358134 L 38.53848612647846,98.37380948837188" fill="none" stroke="rgb(89,89,89)" stroke-width="0.1"/>
  <path d="M 38.53848612647846,98.37380948837188 L 38.76794224913277,98.82558644583645" fill="none" stroke="rgb(89,89,89)" stroke-width="0.1"/>
  <path d="M 38.76794224913277,98.82558644583645 L 39.008769751129705,99.27140551878131" fill="none" stroke="rgb(89,89,89)" stroke-width="0.1"/>
  <path d="M 39.008769751129705,99.27140551878131 L 39.260814049792316,99.7109805442675" fill="none" stroke="rgb(89,89,89)" stroke-width="0.1"/>
 </g>
 <g id="layerPUB_DIM" inkscape:groupmode="layer" inkscape:label="PUB_DIM">
  <path d="M 98.75926155324197,0.0 L 100.0,4.338893046194755" fill="none" stroke="rgb(26,107,0)" stroke-width="0.1"/>
 </g>
 <g id="layerPUB_HATCH" inkscape:groupmode="layer" inkscape:label="PUB_HATCH">
  <path d="M 12.330147499999953,92.34644549999996 L 9.542290092797543,100.0" fill="none" instance-id="-1" semantic-id="1" stroke="rgb(89,89,89)" stroke-width="0.1"/>
  <path d="M 11.671284860030028,100.0 L 14.210147500000005,93.03044549999998" fill="none" instance-id="-1" semantic-id="1" stroke="rgb(89,89,89)" stroke-width="0.1"/>
  <path d="M 14.210147500000005,93.03044549999998 L 12.330147499999953,92.34644549999996" fill="none" instance-id="-1" semantic-id="1" stroke="rgb(89,89,89)" stroke-width="0.1"/>
 </g>
 <g id="layerPUB_TEXT" inkscape:groupmode="layer" inkscape:label="PUB_TEXT">
  <text fill="rgb(0,178,0)" font-family="Noto Sans CJK SC" font-size="2" transform="rotate(-16.2746,97.94014749999997,77.69844549999999)" x="97.94014749999997" y="77.69844549999999">
   墙身大样图四
  </text>
 </g>
 <g id="layerRF方案" inkscape:groupmode="layer" inkscape:label="RF方案">
  <path d="M 14.210147500000005,93.03044549999998 L 11.671284860030028,100.0" fill="none" instance-id="-1" semantic-id="1" stroke="rgb(178,0,178)" stroke-width="0.1"/>
  <path d="M 12.330147499999953,92.34644549999996 L 9.542290092797543,100.0" fill="none" instance-id="-1" semantic-id="1" stroke="rgb(178,0,178)" stroke-width="0.1"/>
  <path d="M 14.210147500000005,93.03044549999998 L 12.330147499999953,92.34644549999996" fill="none" instance-id="-1" semantic-id="1" stroke="rgb(178,0,178)" stroke-width="0.1"/>
 </g>
 <g id="layerWALL" inkscape:groupmode="layer" inkscape:label="WALL">
  <path d="M 9.54716816166416,100.0 L 12.013147500000002,93.23044549999997" fill="none" instance-id="-1" semantic-id="1" stroke="rgb(0,0,0)" stroke-width="0.1"/>
  <path d="M 11.675769179248277,100.0 L 13.892147499999965,93.91544549999998" fill="none" instance-id="-1" semantic-id="1" stroke="rgb(0,0,0)" stroke-width="0.1"/>
  <path d="M 12.013147500000002,93.23044549999997 L 13.892147499999965,93.91544549999998" fill="none" instance-id="-1" semantic-id="1" stroke="rgb(0,0,0)" stroke-width="0.1"/>
 </g>
 <g id="layer轴网$0$DOTE" inkscape:groupmode="layer" inkscape:label="轴网$0$DOTE">
  <path d="M 0.0,60.55090647307628 L 100.0,31.356857608178416" fill="none" stroke="rgb(92,92,92)" stroke-width="0.1"/>
  <path d="M 15.869488495619123,0.0 L 45.06348053184513,100.0" fill="none" stroke="rgb(92,92,92)" stroke-width="0.1"/>
 </g>
</svg>