<?xml version="1.0" encoding="utf-8"?>
<svg style="background-color: #000;" version="1.1" viewBox="0 0 100.0 100.0" xmlns="http://www.w3.org/2000/svg" xmlns:inkscape="http://www.inkscape.org/namespaces/inkscape">
 <g id="layer0" inkscape:groupmode="layer" inkscape:label="0">
  <path d="M 11.540987500000028,68.63983900000005 L 14.540987500000028,68.63983900000005" fill="none" stroke="rgb(0,0,0)" stroke-width="0.1"/>
  <path d="M 13.040987500000028,70.13983900000005 L 13.040987500000028,67.13983900000005" fill="none" stroke="rgb(0,0,0)" stroke-width="0.1"/>
  <path d="M 6.430987499999901,86.37183900000002 L 9.430987499999901,86.37183900000002" fill="none" stroke="rgb(0,0,0)" stroke-width="0.1"/>
  <path d="M 7.930987499999901,87.87183900000002 L 7.930987499999901,84.87183900000002" fill="none" stroke="rgb(0,0,0)" stroke-width="0.1"/>
  <path d="M 5.100987499999974,60.493839000000094 L 13.000987500000065,12.322839000000045" fill="none" stroke="rgb(107,53,53)" stroke-width="0.1"/>
  <path d="M 11.940987499999892,18.80083900000011 L 0.0,16.84313856762708" fill="none" stroke="rgb(107,53,53)" stroke-width="0.1"/>
  <path d="M 6.760987500000056,50.37983900000006 L 0.0,49.271343604936646" fill="none" stroke="rgb(107,53,53)" stroke-width="0.1"/>
  <path d="M 4.935582829692748,100.0 L 7.930987499999901,86.37183900000002" fill="none" stroke="rgb(0,178,0)" stroke-width="0.1"/>
  <path d="M 7.930987499999901,86.37183900000002 L 22.350987499999974,90.52383900000007" fill="none" stroke="rgb(0,178,0)" stroke-width="0.1"/>
  <path d="M 15.470987500000092,53.83783900000003 L 13.040987500000028,68.63983900000005" fill="none" stroke="rgb(0,178,0)" stroke-width="0.1"/>
  <path d="M 13.040987500000028,68.63983900000005 L 27.450987499999883,72.79283900000007" fill="none" stroke="rgb(0,178,0)" stroke-width="0.1"/>
  <circle cx="13.040987500000028" cy="68.63983900000005" fill="none" r="1" stroke="rgb(0,0,0)" stroke-width="0.1"/>
  <circle cx="7.930987499999901" cy="86.37183900000002" fill="none" r="1" stroke="rgb(0,0,0)" stroke-width="0.1"/>
 </g>
 <g id="layerA-上部投影线" inkscape:groupmode="layer" inkscape:label="A-上部投影线">
  <path d="M 0.0,49.271343604936646 L 6.760987500000056,50.37983900000006" fill="none" stroke="rgb(0,0,0)" stroke-width="0.1"/>
  <path d="M 6.760987500000056,50.37983900000006 L 11.940987499999892,18.80083900000011" fill="none" stroke="rgb(0,0,0)" stroke-width="0.1"/>
  <path d="M 11.940987499999892,18.80083900000011 L 0.0,16.84313856762708" fill="none" stroke="rgb(0,0,0)" stroke-width="0.1"/>
 </g>
 <g id="layerA-栏杆" inkscape:groupmode="layer" inkscape:label="A-栏杆">
  <path d="M 0.25098750000006476,49.312839000000054 L 0.0909874999999829,50.29983900000002" fill="none" instance-id="-1" semantic-id="33" stroke="rgb(0,107,79)" stroke-width="0.1"/>
  <path d="M 0.0909874999999829,50.29983900000002 L 15.650987499999928,52.850839000000065" fill="none" instance-id="-1" semantic-id="33" stroke="rgb(0,107,79)" stroke-width="0.1"/>
  <path d="M 28.4309874999999,73.06883900000003 A 16.0,16.0 0.0 0,0 15.650987499999928,52.850839000000065" fill="none" instance-id="-1" semantic-id="33" stroke="rgb(0,107,79)" stroke-width="0.1"/>
  <path d="M 28.4309874999999,73.06883900000003 L 23.3209875,90.80083900000011" fill="none" instance-id="-1" semantic-id="33" stroke="rgb(0,107,79)" stroke-width="0.1"/>
  <path d="M 16.558211154564788,99.85649260184027 L 16.977176593677086,99.57956371975251" fill="none" instance-id="-1" semantic-id="33" stroke="rgb(0,107,79)" stroke-width="0.1"/>
  <path d="M 16.977176593677086,99.57956371975251 L 17.387244317578052,99.28962216233163" fill="none" instance-id="-1" semantic-id="33" stroke="rgb(0,107,79)" stroke-width="0.1"/>
  <path d="M 17.387244317578052,99.28962216233163 L 17.788010310815025,98.98695359182977" fill="none" instance-id="-1" semantic-id="33" stroke="rgb(0,107,79)" stroke-width="0.1"/>
  <path d="M 17.788010310815025,98.98695359182977 L 18.179079722380266,98.67185620967155" fill="none" instance-id="-1" semantic-id="33" stroke="rgb(0,107,79)" stroke-width="0.1"/>
  <path d="M 18.179079722380266,98.67185620967155 L 18.560067254733667,98.34464046265407" fill="none" instance-id="-1" semantic-id="33" stroke="rgb(0,107,79)" stroke-width="0.1"/>
  <path d="M 18.560067254733667,98.34464046265407 L 18.930597543413796,98.00562873708168" fill="none" instance-id="-1" semantic-id="33" stroke="rgb(0,107,79)" stroke-width="0.1"/>
  <path d="M 18.930597543413796,98.00562873708168 L 19.290305526862312,97.65515504113841" fill="none" instance-id="-1" semantic-id="33" stroke="rgb(0,107,79)" stroke-width="0.1"/>
  <path d="M 19.290305526862312,97.65515504113841 L 19.638836806098197,97.29356467580885" fill="none" instance-id="-1" semantic-id="33" stroke="rgb(0,107,79)" stroke-width="0.1"/>
  <path d="M 19.638836806098197,97.29356467580885 L 19.9758479938846,96.921213894674" fill="none" instance-id="-1" semantic-id="33" stroke="rgb(0,107,79)" stroke-width="0.1"/>
  <path d="M 19.9758479938846,96.921213894674 L 20.301007053049034,96.53846955291544" fill="none" instance-id="-1" semantic-id="33" stroke="rgb(0,107,79)" stroke-width="0.1"/>
  <path d="M 20.301007053049034,96.53846955291544 L 20.61399362361999,96.1457087458748" fill="none" instance-id="-1" semantic-id="33" stroke="rgb(0,107,79)" stroke-width="0.1"/>
  <path d="M 20.61399362361999,96.1457087458748 L 20.914499338457972,95.74331843752407" fill="none" instance-id="-1" semantic-id="33" stroke="rgb(0,107,79)" stroke-width="0.1"/>
  <path d="M 20.914499338457972,95.74331843752407 L 21.202228127072203,95.33169507921275" fill="none" instance-id="-1" semantic-id="33" stroke="rgb(0,107,79)" stroke-width="0.1"/>
  <path d="M 21.202228127072203,95.33169507921275 L 21.47689650732036,94.91124421906773" fill="none" instance-id="-1" semantic-id="33" stroke="rgb(0,107,79)" stroke-width="0.1"/>
  <path d="M 21.47689650732036,94.91124421906773 L 21.738233864708036,94.48238010243097" fill="none" instance-id="-1" semantic-id="33" stroke="rgb(0,107,79)" stroke-width="0.1"/>
  <path d="M 21.738233864708036,94.48238010243097 L 21.98598271900778,94.04552526372811" fill="none" instance-id="-1" semantic-id="33" stroke="rgb(0,107,79)" stroke-width="0.1"/>
  <path d="M 21.98598271900778,94.04552526372811 L 22.219898977940147,93.60111011017011" fill="none" instance-id="-1" semantic-id="33" stroke="rgb(0,107,79)" stroke-width="0.1"/>
  <path d="M 22.219898977940147,93.60111011017011 L 22.439752177662967,93.1495724976985" fill="none" instance-id="-1" semantic-id="33" stroke="rgb(0,107,79)" stroke-width="0.1"/>
  <path d="M 22.439752177662967,93.1495724976985 L 22.64532570983374,92.69135729959203" fill="none" instance-id="-1" semantic-id="33" stroke="rgb(0,107,79)" stroke-width="0.1"/>
  <path d="M 22.64532570983374,92.69135729959203 L 22.836417035020986,92.22691596815935" fill="none" instance-id="-1" semantic-id="33" stroke="rgb(0,107,79)" stroke-width="0.1"/>
  <path d="M 22.836417035020986,92.22691596815935 L 23.01283788225487,91.75670608994938" fill="none" instance-id="-1" semantic-id="33" stroke="rgb(0,107,79)" stroke-width="0.1"/>
  <path d="M 23.01283788225487,91.75670608994938 L 23.17441443451844,91.28119093491898" fill="none" instance-id="-1" semantic-id="33" stroke="rgb(0,107,79)" stroke-width="0.1"/>
  <path d="M 23.17441443451844,91.28119093491898 L 23.3209875,90.80083900000011" fill="none" instance-id="-1" semantic-id="33" stroke="rgb(0,107,79)" stroke-width="0.1"/>
  <path d="M 0.0,50.791981023661265 L 15.570987500000001,53.343839" fill="none" instance-id="-1" semantic-id="33" stroke="rgb(0,107,79)" stroke-width="0.1"/>
  <path d="M 27.950987499999883,72.9308390000001 A 15.5,15.5 0.0 0,0 15.570987500000001,53.343839" fill="none" instance-id="-1" semantic-id="33" stroke="rgb(0,107,79)" stroke-width="0.1"/>
  <path d="M 27.950987499999883,72.9308390000001 L 22.840987499999983,90.66283900000008" fill="none" instance-id="-1" semantic-id="33" stroke="rgb(0,107,79)" stroke-width="0.1"/>
  <path d="M 15.435649778773268,99.94186410325926 L 15.876002920395877,99.68937956048808" fill="none" instance-id="-1" semantic-id="33" stroke="rgb(0,107,79)" stroke-width="0.1"/>
  <path d="M 15.876002920395877,99.68937956048808 L 16.307852552440636,99.42261144211932" fill="none" instance-id="-1" semantic-id="33" stroke="rgb(0,107,79)" stroke-width="0.1"/>
  <path d="M 16.307852552440636,99.42261144211932 L 16.73073553197969,99.14184584719817" fill="none" instance-id="-1" semantic-id="33" stroke="rgb(0,107,79)" stroke-width="0.1"/>
  <path d="M 16.73073553197969,99.14184584719817 L 17.144198332491897,98.84738388655126" fill="none" instance-id="-1" semantic-id="33" stroke="rgb(0,107,79)" stroke-width="0.1"/>
  <path d="M 17.144198332491897,98.84738388655126 L 17.547797530252865,98.53954135985646" fill="none" instance-id="-1" semantic-id="33" stroke="rgb(0,107,79)" stroke-width="0.1"/>
  <path d="M 17.547797530252865,98.53954135985646 L 17.941100279892225,98.21864841695879" fill="none" instance-id="-1" semantic-id="33" stroke="rgb(0,107,79)" stroke-width="0.1"/>
  <path d="M 17.941100279892225,98.21864841695879 L 18.323684778602455,97.8850492037974" fill="none" instance-id="-1" semantic-id="33" stroke="rgb(0,107,79)" stroke-width="0.1"/>
  <path d="M 18.323684778602455,97.8850492037974 L 18.695140718508583,97.53910149332114" fill="none" instance-id="-1" semantic-id="33" stroke="rgb(0,107,79)" stroke-width="0.1"/>
  <path d="M 18.695140718508583,97.53910149332114 L 19.055069726707416,97.1811763017904" fill="none" instance-id="-1" semantic-id="33" stroke="rgb(0,107,79)" stroke-width="0.1"/>
  <path d="M 19.055069726707416,97.1811763017904 L 19.403085792508364,96.81165749087586" fill="none" instance-id="-1" semantic-id="33" stroke="rgb(0,107,79)" stroke-width="0.1"/>
  <path d="M 19.403085792508364,96.81165749087586 L 19.738815681415645,96.43094135598062" fill="none" instance-id="-1" semantic-id="33" stroke="rgb(0,107,79)" stroke-width="0.1"/>
  <path d="M 19.738815681415645,96.43094135598062 L 20.061899335408498,96.03943620122789" fill="none" instance-id="-1" semantic-id="33" stroke="rgb(0,107,79)" stroke-width="0.1"/>
  <path d="M 20.061899335408498,96.03943620122789 L 20.37199025909058,95.63756190157028" fill="none" instance-id="-1" semantic-id="33" stroke="rgb(0,107,79)" stroke-width="0.1"/>
  <path d="M 20.37199025909058,95.63756190157028 L 20.66875589129313,95.22574945248846" fill="none" instance-id="-1" semantic-id="33" stroke="rgb(0,107,79)" stroke-width="0.1"/>
  <path d="M 20.66875589129313,95.22574945248846 L 20.95187796173468,94.80444050776487" fill="none" instance-id="-1" semantic-id="33" stroke="rgb(0,107,79)" stroke-width="0.1"/>
  <path d="M 20.95187796173468,94.80444050776487 L 21.221052832355326,94.37408690582606" fill="none" instance-id="-1" semantic-id="33" stroke="rgb(0,107,79)" stroke-width="0.1"/>
  <path d="M 21.221052832355326,94.37408690582606 L 21.47599182295562,93.93515018516234" fill="none" instance-id="-1" semantic-id="33" stroke="rgb(0,107,79)" stroke-width="0.1"/>
  <path d="M 21.47599182295562,93.93515018516234 L 21.716421520797212,93.48810108934504" fill="none" instance-id="-1" semantic-id="33" stroke="rgb(0,107,79)" stroke-width="0.1"/>
  <path d="M 21.716421520797212,93.48810108934504 L 21.942084073827118,93.03341906217076" fill="none" instance-id="-1" semantic-id="33" stroke="rgb(0,107,79)" stroke-width="0.1"/>
  <path d="M 21.942084073827118,93.03341906217076 L 22.152737467214592,92.57159173347566" fill="none" instance-id="-1" semantic-id="33" stroke="rgb(0,107,79)" stroke-width="0.1"/>
  <path d="M 22.152737467214592,92.57159173347566 L 22.348155782903632,92.10311439617055" fill="none" instance-id="-1" semantic-id="33" stroke="rgb(0,107,79)" stroke-width="0.1"/>
  <path d="M 22.348155782903632,92.10311439617055 L 22.528129441901456,91.62848947505677" fill="none" instance-id="-1" semantic-id="33" stroke="rgb(0,107,79)" stroke-width="0.1"/>
  <path d="M 22.528129441901456,91.62848947505677 L 22.692465429044432,91.14822598799469" fill="none" instance-id="-1" semantic-id="33" stroke="rgb(0,107,79)" stroke-width="0.1"/>
  <path d="M 22.692465429044432,91.14822598799469 L 22.840987499999983,90.66283900000008" fill="none" instance-id="-1" semantic-id="33" stroke="rgb(0,107,79)" stroke-width="0.1"/>
  <path d="M 0.0,10.258248386203832 L 5.980987500000083,11.238839000000098" fill="none" instance-id="-1" semantic-id="33" stroke="rgb(0,107,79)" stroke-width="0.1"/>
  <path d="M 5.980987500000083,11.238839000000098 L 4.930987499999901,17.653839000000062" fill="none" instance-id="-1" semantic-id="33" stroke="rgb(0,107,79)" stroke-width="0.1"/>
  <path d="M 0.0,9.751122738644995 L 6.56098750000001,10.826839000000064" fill="none" instance-id="-1" semantic-id="33" stroke="rgb(0,107,79)" stroke-width="0.1"/>
  <path d="M 6.56098750000001,10.826839000000064 L 5.42098749999991,17.73483900000008" fill="none" instance-id="-1" semantic-id="33" stroke="rgb(0,107,79)" stroke-width="0.1"/>
 </g>
 <g id="layerA-洞口" inkscape:groupmode="layer" inkscape:label="A-洞口">
  <path d="M 0.0,90.35493814492406 L 18.79098750000003,96.74183900000003" fill="none" stroke="rgb(107,53,93)" stroke-width="0.1"/>
  <path d="M 0.0,16.681487842555725 L 4.440987499999892,17.572839000000045" fill="none" stroke="rgb(107,53,93)" stroke-width="0.1"/>
 </g>
 <g id="layerA-看线" inkscape:groupmode="layer" inkscape:label="A-看线">
  <path d="M 0.7409875000000739,49.39383900000007 L 0.6609874999999192,49.88683900000001" fill="none" stroke="rgb(255,12,254)" stroke-width="0.1"/>
  <path d="M 0.6609874999999192,49.88683900000001 L 15.730987500000083,52.35783900000001" fill="none" stroke="rgb(255,12,254)" stroke-width="0.1"/>
  <path d="M 28.91098749999992,73.20783900000004 A 16.5,16.5 0.0 0,0 15.730987500000083,52.35783900000001" fill="none" stroke="rgb(255,12,254)" stroke-width="0.1"/>
  <path d="M 28.91098749999992,73.20783900000004 L 23.80098750000002,90.93883900000003" fill="none" stroke="rgb(255,12,254)" stroke-width="0.1"/>
  <path d="M 17.452444543677302,99.85630432378434 L 17.86242949846769,99.55777644506782" fill="none" stroke="rgb(255,12,254)" stroke-width="0.1"/>
  <path d="M 17.86242949846769,99.55777644506782 L 18.26304611311639,99.24678949101212" fill="none" stroke="rgb(255,12,254)" stroke-width="0.1"/>
  <path d="M 18.26304611311639,99.24678949101212 L 18.653915907475493,98.92363726468022" fill="none" stroke="rgb(255,12,254)" stroke-width="0.1"/>
  <path d="M 18.653915907475493,98.92363726468022 L 19.0346696096467,98.58862506220339" fill="none" stroke="rgb(255,12,254)" stroke-width="0.1"/>
  <path d="M 19.0346696096467,98.58862506220339 L 19.404947504849588,98.24206938435407" fill="none" stroke="rgb(255,12,254)" stroke-width="0.1"/>
  <path d="M 19.404947504849588,98.24206938435407 L 19.764399775259335,97.88429763753402" fill="none" stroke="rgb(255,12,254)" stroke-width="0.1"/>
  <path d="M 19.764399775259335,97.88429763753402 L 20.11268683049593,97.51564782445905" fill="none" stroke="rgb(255,12,254)" stroke-width="0.1"/>
  <path d="M 20.11268683049593,97.51564782445905 L 20.44947962844867,97.13646822483304" fill="none" stroke="rgb(255,12,254)" stroke-width="0.1"/>
  <path d="M 20.44947962844867,97.13646822483304 L 20.77445998613848,96.74711706631251" fill="none" stroke="rgb(255,12,254)" stroke-width="0.1"/>
  <path d="M 20.77445998613848,96.74711706631251 L 21.087320880317975,96.34796218607335" fill="none" stroke="rgb(255,12,254)" stroke-width="0.1"/>
  <path d="M 21.087320880317975,96.34796218607335 L 21.387766737530455,95.93938068329908" fill="none" stroke="rgb(255,12,254)" stroke-width="0.1"/>
  <path d="M 21.387766737530455,95.93938068329908 L 21.675513713351165,95.52175856291808" fill="none" stroke="rgb(255,12,254)" stroke-width="0.1"/>
  <path d="M 21.675513713351165,95.52175856291808 L 21.950289960547252,95.09549037092825" fill="none" stroke="rgb(255,12,254)" stroke-width="0.1"/>
  <path d="M 21.950289960547252,95.09549037092825 L 22.21183588590452,94.66097882165195" fill="none" stroke="rgb(255,12,254)" stroke-width="0.1"/>
  <path d="M 22.21183588590452,94.66097882165195 L 22.45990439547586,94.21863441727396" fill="none" stroke="rgb(255,12,254)" stroke-width="0.1"/>
  <path d="M 22.45990439547586,94.21863441727396 L 22.694261128021935,93.76887506002186" fill="none" stroke="rgb(255,12,254)" stroke-width="0.1"/>
  <path d="M 22.694261128021935,93.76887506002186 L 22.914684676422894,93.31212565735575" fill="none" stroke="rgb(255,12,254)" stroke-width="0.1"/>
  <path d="M 22.914684676422894,93.31212565735575 L 23.12096679685078,92.84881772053927" fill="none" stroke="rgb(255,12,254)" stroke-width="0.1"/>
  <path d="M 23.12096679685078,92.84881772053927 L 23.31291260550779,92.37938895697175" fill="none" stroke="rgb(255,12,254)" stroke-width="0.1"/>
  <path d="M 23.31291260550779,92.37938895697175 L 23.49034076274006,91.90428285666724" fill="none" stroke="rgb(255,12,254)" stroke-width="0.1"/>
  <path d="M 23.49034076274006,91.90428285666724 L 23.653083644358503,91.42394827326927" fill="none" stroke="rgb(255,12,254)" stroke-width="0.1"/>
  <path d="M 23.653083644358503,91.42394827326927 L 23.80098750000002,90.93883900000003" fill="none" stroke="rgb(255,12,254)" stroke-width="0.1"/>
  <path d="M 0.0,51.298545222037546 L 15.480987500000083,53.83783900000003" fill="none" stroke="rgb(255,12,254)" stroke-width="0.1"/>
  <path d="M 27.470987500000092,72.79283900000007 A 15.0,15.0 0.0 0,0 15.480987500000083,53.83783900000003" fill="none" stroke="rgb(255,12,254)" stroke-width="0.1"/>
  <path d="M 27.470987500000092,72.79283900000007 L 22.360987499999965,90.52383900000007" fill="none" stroke="rgb(255,12,254)" stroke-width="0.1"/>
  <path d="M 14.517616995608932,99.85525307236469 L 14.96524231080025,99.62780326295865" fill="none" stroke="rgb(255,12,254)" stroke-width="0.1"/>
  <path d="M 14.96524231080025,99.62780326295865 L 15.405004456445567,99.38549954062546" fill="none" stroke="rgb(255,12,254)" stroke-width="0.1"/>
  <path d="M 15.405004456445567,99.38549954062546 L 15.836410699898124,99.12861339520487" fill="none" stroke="rgb(255,12,254)" stroke-width="0.1"/>
  <path d="M 15.836410699898124,99.12861339520487 L 16.258977670904187,98.85743265545034" fill="none" stroke="rgb(255,12,254)" stroke-width="0.1"/>
  <path d="M 16.258977670904187,98.85743265545034 L 16.672231903195552,98.57226116653112" fill="none" stroke="rgb(255,12,254)" stroke-width="0.1"/>
  <path d="M 16.672231903195552,98.57226116653112 L 17.075710364986435,98.27341844958823" fill="none" stroke="rgb(255,12,254)" stroke-width="0.1"/>
  <path d="M 17.075710364986435,98.27341844958823 L 17.468960977779034,97.96123934372542" fill="none" stroke="rgb(255,12,254)" stroke-width="0.1"/>
  <path d="M 17.468960977779034,97.96123934372542 L 17.851543122895464,97.6360736308385" fill="none" stroke="rgb(255,12,254)" stroke-width="0.1"/>
  <path d="M 17.851543122895464,97.6360736308385 L 18.223028135170125,97.2982856437012" fill="none" stroke="rgb(255,12,254)" stroke-width="0.1"/>
  <path d="M 18.223028135170125,97.2982856437012 L 18.582999783249534,96.94825385774743" fill="none" stroke="rgb(255,12,254)" stroke-width="0.1"/>
  <path d="M 18.582999783249534,96.94825385774743 L 18.931054735958924,96.58637046700733" fill="none" stroke="rgb(255,12,254)" stroke-width="0.1"/>
  <path d="M 18.931054735958924,96.58637046700733 L 19.26680301421561,96.21304094467268" fill="none" stroke="rgb(255,12,254)" stroke-width="0.1"/>
  <path d="M 19.26680301421561,96.21304094467268 L 19.589868427983447,95.82868358878352" fill="none" stroke="rgb(255,12,254)" stroke-width="0.1"/>
  <path d="M 19.589868427983447,95.82868358878352 L 19.899888997774042,95.43372905354465" fill="none" stroke="rgb(255,12,254)" stroke-width="0.1"/>
  <path d="M 19.899888997774042,95.43372905354465 L 20.196517360229336,95.02861986679841" fill="none" stroke="rgb(255,12,254)" stroke-width="0.1"/>
  <path d="M 20.196517360229336,95.02861986679841 L 20.47942115732417,94.61380993419277" fill="none" stroke="rgb(255,12,254)" stroke-width="0.1"/>
  <path d="M 20.47942115732417,94.61380993419277 L 20.748283408759335,94.18976403060174" fill="none" stroke="rgb(255,12,254)" stroke-width="0.1"/>
  <path d="M 20.748283408759335,94.18976403060174 L 21.002802867121773,93.75695727936761" fill="none" stroke="rgb(255,12,254)" stroke-width="0.1"/>
  <path d="M 21.002802867121773,93.75695727936761 L 21.242694355418507,93.31587461994673" fill="none" stroke="rgb(255,12,254)" stroke-width="0.1"/>
  <path d="M 21.242694355418507,93.31587461994673 L 21.46768908660397,92.86701026455876" fill="none" stroke="rgb(255,12,254)" stroke-width="0.1"/>
  <path d="M 21.46768908660397,92.86701026455876 L 21.677534964743018,92.41086714444509" fill="none" stroke="rgb(255,12,254)" stroke-width="0.1"/>
  <path d="M 21.677534964743018,92.41086714444509 L 21.871996867472717,91.94795634635773" fill="none" stroke="rgb(255,12,254)" stroke-width="0.1"/>
  <path d="M 21.871996867472717,91.94795634635773 L 22.050856909444974,91.47879653991151" fill="none" stroke="rgb(255,12,254)" stroke-width="0.1"/>
  <path d="M 22.050856909444974,91.47879653991151 L 22.213914686458338,91.00391339643886" fill="none" stroke="rgb(255,12,254)" stroke-width="0.1"/>
  <path d="M 22.213914686458338,91.00391339643886 L 22.360987499999965,90.52383900000007" fill="none" stroke="rgb(255,12,254)" stroke-width="0.1"/>
  <path d="M 0.08322309455866161,100.0 L 0.0,99.98170290137318" fill="none" stroke="rgb(255,12,254)" stroke-width="0.1"/>
  <path d="M 0.0,10.764714134782594 L 5.410987499999919,11.651839000000109" fill="none" stroke="rgb(255,12,254)" stroke-width="0.1"/>
  <path d="M 5.410987499999919,11.651839000000109 L 4.440987499999892,17.572839000000045" fill="none" stroke="rgb(255,12,254)" stroke-width="0.1"/>
  <path d="M 0.0,9.244737539384573 L 7.1309874999999465,10.413839000000053" fill="none" stroke="rgb(255,12,254)" stroke-width="0.1"/>
  <path d="M 7.1309874999999465,10.413839000000053 L 5.92098749999991,17.814839000000006" fill="none" stroke="rgb(255,12,254)" stroke-width="0.1"/>
 </g>
 <g id="layerAXIS" inkscape:groupmode="layer" inkscape:label="AXIS">
  <path d="M 62.250987500000065,78.25383900000008 L 62.250987500000065,63.253839000000085" fill="none" stroke="rgb(0,178,0)" stroke-width="0.1"/>
  <circle cx="62.250987500000065" cy="57.253839000000085" fill="none" r="6" stroke="rgb(0,178,0)" stroke-width="0.1"/>
  <text fill="rgb(0,0,0)" font-family="Noto Sans CJK SC" font-size="2" transform="rotate(-0.0,56.750987500000065,59.35383900000011)" x="56.750987500000065" y="59.35383900000011">
   1-6
  </text>
 </g>
 <g id="layerDIM_SYMB" inkscape:groupmode="layer" inkscape:label="DIM_SYMB">
  <path d="M 0.0,25.21898914124472 L 0.730987500000083,25.338839000000007" fill="none" stroke="rgb(0,178,0)" stroke-width="0.1"/>
  <text fill="rgb(0,178,0)" font-family="Noto Sans CJK SC" font-size="2" transform="rotate(-0.0,13.030987500000037,16.027839000000085)" x="13.030987500000037" y="16.027839000000085">
   下L1
  </text>
 </g>
 <g id="layerDOTE" inkscape:groupmode="layer" inkscape:label="DOTE">
  <path d="M 62.250987500000065,100.0 L 62.250987500000065,81.9938390000001" fill="none" stroke="rgb(63,63,63)" stroke-width="0.1"/>
  <path d="M 1.068918151760954,0.0 L 100.0,62.92681507564055" fill="none" stroke="rgb(63,63,63)" stroke-width="0.1"/>
  <path d="M 0.0,98.871026998856 L 1.774933148152968,100.0" fill="none" stroke="rgb(63,63,63)" stroke-width="0.1"/>
  <path d="M 26.53428223186529,0.0 L 0.0,41.71481640445984" fill="none" stroke="rgb(63,63,63)" stroke-width="0.1"/>
  <path d="M 100.0,41.01736259689051 L 62.484627527946486,100.0" fill="none" stroke="rgb(63,63,63)" stroke-width="0.1"/>
  <path d="M 0.0,98.84116520478415 L 7.930987499999901,86.37183900000002" fill="none" stroke="rgb(63,63,63)" stroke-width="0.1"/>
  <path d="M 13.040987500000028,68.63983900000005 L 21.090987499999983,55.9838390000001" fill="none" stroke="rgb(63,63,63)" stroke-width="0.1"/>
 </g>
 <g id="layerPUB_DIM" inkscape:groupmode="layer" inkscape:label="PUB_DIM">
  <path d="M 25.120919912000545,99.95052022500283 L 25.426366775456927,99.55464493482884" fill="none" stroke="rgb(21,88,0)" stroke-width="0.1"/>
  <path d="M 25.426366775456927,99.55464493482884 L 25.72269962047858,99.15190199357858" fill="none" stroke="rgb(21,88,0)" stroke-width="0.1"/>
  <path d="M 25.72269962047858,99.15190199357858 L 26.00976409068494,98.74250118543239" fill="none" stroke="rgb(21,88,0)" stroke-width="0.1"/>
  <path d="M 26.00976409068494,98.74250118543239 L 26.287410657484543,98.32665576257682" fill="none" stroke="rgb(21,88,0)" stroke-width="0.1"/>
  <path d="M 26.287410657484543,98.32665576257682 L 26.555494697964605,97.90458233412437" fill="none" stroke="rgb(21,88,0)" stroke-width="0.1"/>
  <path d="M 26.555494697964605,97.90458233412437 L 26.81387657022219,97.47650075328465" fill="none" stroke="rgb(21,88,0)" stroke-width="0.1"/>
  <path d="M 26.81387657022219,97.47650075328465 L 27.062421686102653,97.04263400284435" fill="none" stroke="rgb(21,88,0)" stroke-width="0.1"/>
  <path d="M 27.062421686102653,97.04263400284435 L 27.301000581304834,96.60320807901917" fill="none" stroke="rgb(21,88,0)" stroke-width="0.1"/>
  <path d="M 27.301000581304834,96.60320807901917 L 27.529488982818293,96.1584518737343" fill="none" stroke="rgb(21,88,0)" stroke-width="0.1"/>
  <path d="M 27.529488982818293,96.1584518737343 L 27.74776787365431,95.70859705539726" fill="none" stroke="rgb(21,88,0)" stroke-width="0.1"/>
  <path d="M 27.74776787365431,95.70859705539726 L 27.95572355484137,95.25387794822484" fill="none" stroke="rgb(21,88,0)" stroke-width="0.1"/>
  <path d="M 27.95572355484137,95.25387794822484 L 28.15324770464963,94.79453141018621" fill="none" stroke="rgb(21,88,0)" stroke-width="0.1"/>
  <path d="M 28.15324770464963,94.79453141018621 L 28.340237435014615,94.33079670962604" fill="none" stroke="rgb(21,88,0)" stroke-width="0.1"/>
  <path d="M 28.340237435014615,94.33079670962604 L 28.516595345129417,93.86291540063246" fill="none" stroke="rgb(21,88,0)" stroke-width="0.1"/>
  <path d="M 28.516595345129417,93.86291540063246 L 28.682229572181086,93.39113119721458" fill="none" stroke="rgb(21,88,0)" stroke-width="0.1"/>
  <path d="M 28.682229572181086,93.39113119721458 L 28.837053839199825,92.91568984635444" fill="none" stroke="rgb(21,88,0)" stroke-width="0.1"/>
  <path d="M 28.837053839199825,92.91568984635444 L 28.980987500000083,92.43683900000008" fill="none" stroke="rgb(21,88,0)" stroke-width="0.1"/>
  <path d="M 24.92098749999991,49.96283900000003 A 22.1353,22.1353 0.0 0,0 16.620987499999956,46.795839" fill="none" stroke="rgb(21,88,0)" stroke-width="0.1"/>
  <path d="M 34.260987500000056,74.75283900000011 A 22.0808,22.0808 0.0 0,0 24.890987499999937,50.00883900000008" fill="none" stroke="rgb(21,88,0)" stroke-width="0.1"/>
  <path d="M 61.460987499999874,75.4308390000001 L 63.05098750000002,73.8398390000001" fill="none" stroke="rgb(21,88,0)" stroke-width="0.1"/>
  <path d="M 62.250987500000065,79.13483900000006 L 62.250987500000065,70.13483900000006" fill="none" stroke="rgb(21,88,0)" stroke-width="0.1"/>
  <path d="M 61.460987499999874,75.4308390000001 L 63.05098750000002,73.8398390000001" fill="none" stroke="rgb(21,88,0)" stroke-width="0.1"/>
  <path d="M 62.250987500000065,79.13483900000006 L 62.250987500000065,70.13483900000006" fill="none" stroke="rgb(21,88,0)" stroke-width="0.1"/>
  <path d="M 13.040987500000028,68.63983900000005 L 22.390987499999937,61.114839000000075" fill="none" stroke="rgb(21,88,0)" stroke-width="0.1"/>
  <path d="M 7.930987499999901,86.37183900000002 L 14.220987500000092,96.59483900000009" fill="none" stroke="rgb(21,88,0)" stroke-width="0.1"/>
  <path d="M 5.080987499999992,81.16083900000001 L 9.91098749999992,73.56683900000007" fill="none" stroke="rgb(21,88,0)" stroke-width="0.1"/>
  <path d="M 6.390987499999937,77.60783900000001 L 8.590987499999983,77.1188390000001" fill="none" stroke="rgb(21,88,0)" stroke-width="0.1"/>
  <path d="M 19.630987499999947,72.83083900000008 L 27.220987500000092,77.66083900000001" fill="none" stroke="rgb(21,88,0)" stroke-width="0.1"/>
  <path d="M 23.1809874999999,74.14783900000009 L 23.67098749999991,76.343839" fill="none" stroke="rgb(21,88,0)" stroke-width="0.1"/>
  <path d="M 47.260987500000056,29.3878390000001 L 54.850987499999974,34.217839000000026" fill="none" stroke="rgb(21,88,0)" stroke-width="0.1"/>
  <path d="M 50.81098750000001,30.704839000000106 L 51.30098750000002,32.90083900000002" fill="none" stroke="rgb(21,88,0)" stroke-width="0.1"/>
  <path d="M 0.0,81.32630150000011 L 3.7109874999998738,83.68783900000005" fill="none" stroke="rgb(21,88,0)" stroke-width="0.1"/>
  <path d="M 0.0,81.64935216326569 L 0.16098749999991924,82.37083900000005" fill="none" stroke="rgb(21,88,0)" stroke-width="0.1"/>
  <path d="M 0.42098749999991014,98.18483900000001 L 5.250987500000065,90.59083900000007" fill="none" stroke="rgb(21,88,0)" stroke-width="0.1"/>
  <path d="M 1.730987500000083,94.63183900000001 L 3.930987499999901,94.1428390000001" fill="none" stroke="rgb(21,88,0)" stroke-width="0.1"/>
  <path d="M 23.940987499999892,90.98283900000001 L 34.03098750000004,93.88983900000005" fill="none" stroke="rgb(21,88,0)" stroke-width="0.1"/>
  <path d="M 28.350987499999974,91.28783900000008 L 29.620987499999956,93.5848390000001" fill="none" stroke="rgb(21,88,0)" stroke-width="0.1"/>
  <path d="M 15.55098750000002,47.56183900000008 L 17.690987499999892,46.030839000000014" fill="none" stroke="rgb(21,88,0)" stroke-width="0.1"/>
  <path d="M 15.770987500000047,51.97683900000004 L 17.470987500000092,41.61583900000005" fill="none" stroke="rgb(21,88,0)" stroke-width="0.1"/>
  <path d="M 22.100987499999974,54.392839000000095 L 27.740987500000074,45.53283900000008" fill="none" stroke="rgb(21,88,0)" stroke-width="0.1"/>
  <path d="M 23.640987499999937,50.247839 L 26.200987499999883,49.67783900000006" fill="none" stroke="rgb(21,88,0)" stroke-width="0.1"/>
  <path d="M 22.0709875,54.43883900000003 L 27.710987499999874,45.578839000000016" fill="none" stroke="rgb(21,88,0)" stroke-width="0.1"/>
  <path d="M 23.610987499999965,50.29383900000005 L 26.17098749999991,49.723839" fill="none" stroke="rgb(21,88,0)" stroke-width="0.1"/>
  <path d="M 29.210987499999874,73.29883900000004 L 39.30098750000002,76.20583900000008" fill="none" stroke="rgb(21,88,0)" stroke-width="0.1"/>
  <path d="M 33.620987499999956,73.60383900000011 L 34.89098749999994,75.90083900000002" fill="none" stroke="rgb(21,88,0)" stroke-width="0.1"/>
  <path d="M 12.990987500000074,3.6078390000000127 L 15.285675723597706,0.0" fill="none" stroke="rgb(178,178,0)" stroke-width="0.1"/>
  <path d="M 13.840987499999983,4.144839000000047 L 16.477222997761373,0.0" fill="none" stroke="rgb(178,178,0)" stroke-width="0.1"/>
  <path d="M 14.31098750000001,0.0548390000000154 L 14.557088750000048,0.0" fill="none" stroke="rgb(178,178,0)" stroke-width="0.1"/>
  <path d="M 15.150987499999928,0.59183900000005 L 17.350987499999974,0.10383900000010726" fill="none" stroke="rgb(178,178,0)" stroke-width="0.1"/>
  <path d="M 30.29098750000003,14.609839000000079 L 35.120987499999956,7.015839000000028" fill="none" stroke="rgb(178,178,0)" stroke-width="0.1"/>
  <path d="M 31.130987499999947,15.145839000000024 L 35.960987499999874,7.551839000000086" fill="none" stroke="rgb(178,178,0)" stroke-width="0.1"/>
  <path d="M 31.610987499999965,11.057839000000058 L 33.80098750000002,10.568839000000025" fill="none" stroke="rgb(178,178,0)" stroke-width="0.1"/>
  <path d="M 32.45098749999988,11.592839000000026 L 34.64098749999994,11.104839000000084" fill="none" stroke="rgb(178,178,0)" stroke-width="0.1"/>
  <path d="M 32.8209875,16.218839000000003 L 37.65098749999993,8.624839000000065" fill="none" stroke="rgb(178,178,0)" stroke-width="0.1"/>
  <path d="M 34.14098749999994,12.666839000000095 L 36.33098749999999,12.177839000000063" fill="none" stroke="rgb(178,178,0)" stroke-width="0.1"/>
  <path d="M 6.010987500000056,54.94183900000007 L 4.56098750000001,63.822839000000045" fill="none" stroke="rgb(21,88,0)" stroke-width="0.1"/>
  <path d="M 6.200987499999883,58.725839000000065 L 4.370987499999956,60.03883900000005" fill="none" stroke="rgb(21,88,0)" stroke-width="0.1"/>
  <path d="M 21.970987500000092,19.638839000000075 L 23.280987500000037,21.46683900000005" fill="none" stroke="rgb(21,88,0)" stroke-width="0.1"/>
  <path d="M 18.1809874999999,19.82483900000011 L 27.06098750000001,21.280839000000014" fill="none" stroke="rgb(21,88,0)" stroke-width="0.1"/>
  <path d="M 16.79098750000003,51.217839000000026 L 18.100987499999974,53.044839000000024" fill="none" stroke="rgb(21,88,0)" stroke-width="0.1"/>
  <path d="M 13.010987500000056,51.402839000000085 L 21.890987499999937,52.8588390000001" fill="none" stroke="rgb(21,88,0)" stroke-width="0.1"/>
  <path d="M 14.140987499999937,5.357839000000013 L 12.690987499999892,14.238839000000098" fill="none" stroke="rgb(21,88,0)" stroke-width="0.1"/>
  <path d="M 14.330987499999992,9.141839000000004 L 12.500987500000065,10.454839000000106" fill="none" stroke="rgb(21,88,0)" stroke-width="0.1"/>
  <path d="M 100.0,14.843345352673737 L 76.6653709422394,0.0" fill="none" stroke="rgb(21,88,0)" stroke-width="0.1"/>
  <path d="M 0.0,74.63483900000006 L 62.250987500000065,74.63483900000006" fill="none" stroke="rgb(21,88,0)" stroke-width="0.1"/>
  <path d="M 62.250987500000065,74.63483900000006 L 62.250987500000065,81.9938390000001" fill="none" stroke="rgb(21,88,0)" stroke-width="0.1"/>
  <path d="M 0.0,74.63483900000006 L 62.250987500000065,74.63483900000006" fill="none" stroke="rgb(21,88,0)" stroke-width="0.1"/>
  <path d="M 62.250987500000065,74.63483900000006 L 62.250987500000065,81.9938390000001" fill="none" stroke="rgb(21,88,0)" stroke-width="0.1"/>
  <path d="M 22.580987499999992,61.348839 L 24.720987500000092,59.2338390000001" fill="none" stroke="rgb(21,88,0)" stroke-width="0.1"/>
  <path d="M 24.720987500000092,59.2338390000001 L 22.200987499999883,60.881839000000014" fill="none" stroke="rgb(21,88,0)" stroke-width="0.1"/>
  <path d="M 22.200987499999883,60.881839000000014 L 22.580987499999992,61.348839" fill="none" stroke="rgb(21,88,0)" stroke-width="0.1"/>
  <path d="M 14.470987500000092,96.43783900000005 L 15.790987500000028,99.15083900000002" fill="none" stroke="rgb(21,88,0)" stroke-width="0.1"/>
  <path d="M 15.790987500000028,99.15083900000002 L 13.960987499999874,96.75183900000002" fill="none" stroke="rgb(21,88,0)" stroke-width="0.1"/>
  <path d="M 13.960987499999874,96.75183900000002 L 14.470987500000092,96.43783900000005" fill="none" stroke="rgb(21,88,0)" stroke-width="0.1"/>
  <path d="M 0.0,72.59862237057735 L 7.490987500000074,77.3638390000001" fill="none" stroke="rgb(21,88,0)" stroke-width="0.1"/>
  <path d="M 7.490987500000074,77.3638390000001 L 13.040987500000028,68.63983900000005" fill="none" stroke="rgb(21,88,0)" stroke-width="0.1"/>
  <path d="M 13.040987500000028,68.63983900000005 L 23.4309874999999,75.24583900000005" fill="none" stroke="rgb(21,88,0)" stroke-width="0.1"/>
  <path d="M 23.4309874999999,75.24583900000005 L 51.06098750000001,31.802839000000063" fill="none" stroke="rgb(21,88,0)" stroke-width="0.1"/>
  <path d="M 51.06098750000001,31.802839000000063 L 40.67098749999991,25.196839000000068" fill="none" stroke="rgb(21,88,0)" stroke-width="0.1"/>
  <path d="M 0.0,81.32313672003761 L 7.930987499999901,86.37183900000002" fill="none" stroke="rgb(21,88,0)" stroke-width="0.1"/>
  <path d="M 0.0,92.58681881155792 L 2.830987499999992,94.3878390000001" fill="none" stroke="rgb(21,88,0)" stroke-width="0.1"/>
  <path d="M 2.830987499999992,94.3878390000001 L 7.930987499999901,86.37183900000002" fill="none" stroke="rgb(21,88,0)" stroke-width="0.1"/>
  <path d="M 39.83098749999999,5.1978390000000445 L 35.23098750000008,12.421839000000091" fill="none" stroke="rgb(178,178,0)" stroke-width="0.1"/>
  <path d="M 35.23098750000008,12.421839000000091 L 33.55098750000002,11.348838999999998" fill="none" stroke="rgb(178,178,0)" stroke-width="0.1"/>
  <path d="M 33.55098750000002,11.348838999999998 L 32.70098749999988,10.812839000000054" fill="none" stroke="rgb(178,178,0)" stroke-width="0.1"/>
  <path d="M 32.70098749999988,10.812839000000054 L 16.250987500000065,0.34783900000002177" fill="none" stroke="rgb(178,178,0)" stroke-width="0.1"/>
  <path d="M 16.250987500000065,0.34783900000002177 L 15.706881801675763,0.0" fill="none" stroke="rgb(178,178,0)" stroke-width="0.1"/>
  <path d="M 5.100987499999974,60.493839000000094 L 5.2809875000000375,59.381839000000014" fill="none" stroke="rgb(21,88,0)" stroke-width="0.1"/>
  <path d="M 5.2809875000000375,59.381839000000014 L 0.0,58.515973843959614" fill="none" stroke="rgb(21,88,0)" stroke-width="0.1"/>
  <path d="M 11.940987499999892,18.80083900000011 L 22.620987499999956,20.552839000000063" fill="none" stroke="rgb(21,88,0)" stroke-width="0.1"/>
  <path d="M 22.620987499999956,20.552839000000063 L 17.450987499999883,52.13083900000004" fill="none" stroke="rgb(21,88,0)" stroke-width="0.1"/>
  <path d="M 17.450987499999883,52.13083900000004 L 6.760987500000056,50.37983900000006" fill="none" stroke="rgb(21,88,0)" stroke-width="0.1"/>
  <path d="M 0.0,7.599135079800817 L 13.41098749999992,9.797839000000067" fill="none" stroke="rgb(21,88,0)" stroke-width="0.1"/>
  <path d="M 13.41098749999992,9.797839000000067 L 13.600987499999974,8.685839000000101" fill="none" stroke="rgb(21,88,0)" stroke-width="0.1"/>
  <text fill="rgb(0,0,0)" font-family="Noto Sans CJK SC" font-size="2" transform="rotate(58.4221,48.1809874999999,61.628839000000085)" x="48.1809874999999" y="61.628839000000085">
   R1500
  </text>
  <text fill="rgb(0,0,0)" font-family="Noto Sans CJK SC" font-size="2" transform="rotate(-57.5409,38.210987499999874,45.398839000000066)" x="38.210987499999874" y="45.398839000000066">
   5149
  </text>
  <text fill="rgb(0,0,0)" font-family="Noto Sans CJK SC" font-size="2" transform="rotate(-339.115,14.790987500000028,41.96283900000003)" x="14.790987500000028" y="41.96283900000003">
   23.15%%d
  </text>
  <text fill="rgb(0,0,0)" font-family="Noto Sans CJK SC" font-size="2" transform="rotate(-290.735,34.09098749999998,52.24883900000009)" x="34.09098749999998" y="52.24883900000009">
   73.61%%d
  </text>
  <text fill="rgb(0,0,0)" font-family="Noto Sans CJK SC" font-size="2" transform="rotate(-327.541,21.230987500000083,0.9018390000001091)" x="21.230987500000083" y="0.9018390000001091">
   1950
  </text>
  <text fill="rgb(0,0,0)" font-family="Noto Sans CJK SC" font-size="2" transform="rotate(-327.541,33.17098749999991,4.018839000000071)" x="33.17098749999991" y="4.018839000000071">
   100
  </text>
  <text fill="rgb(0,0,0)" font-family="Noto Sans CJK SC" font-size="2" transform="rotate(-327.541,36.80098750000002,10.842839000000026)" x="36.80098750000002" y="10.842839000000026">
   200
  </text>
  <text fill="rgb(0,0,0)" font-family="Noto Sans CJK SC" font-size="2" transform="rotate(-260.689,23.1809874999999,30.777839000000085)" x="23.1809874999999" y="30.777839000000085">
   3200
  </text>
 </g>
 <g id="layerSJ-商铺分界线(1)" inkscape:groupmode="layer" inkscape:label="SJ-商铺分界线(1)">
  <path d="M 47.647800389448776,0.0 L 100.0,33.300360570763246" fill="none" stroke="rgb(0,178,178)" stroke-width="0.1"/>
 </g>
 <g id="layerSJ-消防防火卷帘(1)" inkscape:groupmode="layer" inkscape:label="SJ-消防防火卷帘(1)">
  <path d="M 0.0,5.4454130699487 L 8.010987500000056,6.75883900000008" fill="none" stroke="rgb(178,0,0)" stroke-width="0.1"/>
  <path d="M 13.730987500000083,8.940839000000096 A 15.25,15.25 0.0 0,0 8.010987500000056,6.75883900000008" fill="none" stroke="rgb(178,0,0)" stroke-width="0.1"/>
  <path d="M 13.730987500000083,8.940839000000096 L 41.77098750000005,26.780839000000014" fill="none" stroke="rgb(178,0,0)" stroke-width="0.1"/>
  <path d="M 46.870987499999956,40.22783900000002 A 12.0,12.0 0.0 0,0 41.77098750000005,26.780839000000014" fill="none" stroke="rgb(178,0,0)" stroke-width="0.1"/>
  <path d="M 46.870987499999956,40.22783900000002 L 29.64555287343751,100.0" fill="none" stroke="rgb(178,0,0)" stroke-width="0.1"/>
  <path d="M 34.331559499667264,100.0 L 51.19098749999989,41.473839" fill="none" stroke="rgb(178,0,0)" stroke-width="0.1"/>
  <path d="M 51.19098749999989,41.473839 A 16.5,16.5 0.0 0,0 44.19098749999989,22.983839000000103" fill="none" stroke="rgb(178,0,0)" stroke-width="0.1"/>
  <path d="M 44.19098749999989,22.983839000000103 L 16.140987499999937,5.143839000000071" fill="none" stroke="rgb(178,0,0)" stroke-width="0.1"/>
  <path d="M 16.140987499999937,5.143839000000071 A 19.75,19.75 0.0 0,0 8.740987500000074,2.3188390000000254" fill="none" stroke="rgb(178,0,0)" stroke-width="0.1"/>
  <path d="M 8.740987500000074,2.3188390000000254 L 0.0,0.8857357799402052" fill="none" stroke="rgb(178,0,0)" stroke-width="0.1"/>
 </g>
 <g id="layerSPACE" inkscape:groupmode="layer" inkscape:label="SPACE">
  <text fill="rgb(178,0,0)" font-family="Noto Sans CJK SC" font-size="2" transform="rotate(-0.0,67.4309874999999,5.047839000000067)" x="67.4309874999999" y="5.047839000000067">
   30.32m%%172
  </text>
 </g>
 <g id="layerSTAIR" inkscape:groupmode="layer" inkscape:label="STAIR">
  <path d="M 0.0,33.05729874350436 L 9.350987499999974,34.5898390000001" fill="none" stroke="rgb(178,178,0)" stroke-width="0.1"/>
  <path d="M 6.850987499999974,49.856839000000036 L 11.850987499999974,19.32383900000002" fill="none" stroke="rgb(178,178,0)" stroke-width="0.1"/>
  <path d="M 0.0,17.38027705000013 L 11.850987499999974,19.32383900000002" fill="none" stroke="rgb(178,178,0)" stroke-width="0.1"/>
  <path d="M 0.0,48.73356916405737 L 6.850987499999974,49.856839000000036" fill="none" stroke="rgb(178,178,0)" stroke-width="0.1"/>
  <path d="M 0.0,31.891543531201705 L 3.5209875000000466,32.468839" fill="none" stroke="rgb(178,178,0)" stroke-width="0.1"/>
  <path d="M 3.5209875000000466,32.468839 L 3.6109874999999647,31.875839000000042" fill="none" stroke="rgb(178,178,0)" stroke-width="0.1"/>
  <path d="M 3.6109874999999647,31.875839000000042 L 0.0,31.28385003049607" fill="none" stroke="rgb(178,178,0)" stroke-width="0.1"/>
  <path d="M 0.0,32.28924050485443 L 0.3509874999999738,31.94983900000011" fill="none" stroke="rgb(178,178,0)" stroke-width="0.1"/>
  <path d="M 0.0,19.15375261711165 L 5.550987500000019,20.06383900000003" fill="none" stroke="rgb(178,178,0)" stroke-width="0.1"/>
  <path d="M 5.550987500000019,20.06383900000003 L 5.650987499999928,19.471839000000045" fill="none" stroke="rgb(178,178,0)" stroke-width="0.1"/>
  <path d="M 5.650987499999928,19.471839000000045 L 0.0,18.5454030685097" fill="none" stroke="rgb(178,178,0)" stroke-width="0.1"/>
  <path d="M 2.3909874999999374,19.545839 L 1.470987500000092,20.6618390000001" fill="none" stroke="rgb(178,178,0)" stroke-width="0.1"/>
  <path d="M 1.470987500000092,20.6618390000001 L 0.0,20.420673723093728" fill="none" stroke="rgb(178,178,0)" stroke-width="0.1"/>
  <path d="M 2.480987500000083,18.953839000000016 L 1.820987500000001,17.679839000000015" fill="none" stroke="rgb(178,178,0)" stroke-width="0.1"/>
  <path d="M 1.820987500000001,17.679839000000015 L 0.0,17.381273383212374" fill="none" stroke="rgb(178,178,0)" stroke-width="0.1"/>
  <path d="M 0.0,34.2228470529659 L 3.1409874999999374,34.73783900000001" fill="none" stroke="rgb(178,178,0)" stroke-width="0.1"/>
  <path d="M 3.1409874999999374,34.73783900000001 L 3.0509875000000193,35.329839000000106" fill="none" stroke="rgb(178,178,0)" stroke-width="0.1"/>
  <path d="M 3.0509875000000193,35.329839000000106 L 0.0,34.82963311074184" fill="none" stroke="rgb(178,178,0)" stroke-width="0.1"/>
  <path d="M 0.0,46.960684354282876 L 1.1109874999999647,47.142839000000095" fill="none" stroke="rgb(178,178,0)" stroke-width="0.1"/>
  <path d="M 1.1109874999999647,47.142839000000095 L 1.0109875000000557,47.73483900000008" fill="none" stroke="rgb(178,178,0)" stroke-width="0.1"/>
  <path d="M 1.0109875000000557,47.73483900000008 L 0.0,47.56907321050676" fill="none" stroke="rgb(178,178,0)" stroke-width="0.1"/>
  <path d="M 11.940987499999892,18.80083900000011 L 13.91098749999992,19.124839000000065" fill="none" stroke="rgb(0,178,0)" stroke-width="0.1"/>
  <path d="M 13.91098749999992,19.124839000000065 L 8.730987500000083,50.70283900000004" fill="none" stroke="rgb(0,178,0)" stroke-width="0.1"/>
  <path d="M 8.730987500000083,50.70283900000004 L 6.760987500000056,50.37983900000006" fill="none" stroke="rgb(0,178,0)" stroke-width="0.1"/>
  <path d="M 0.0,30.16316426960816 L 0.45098749999988286,31.357839000000013" fill="none" stroke="rgb(178,178,0)" stroke-width="0.1"/>
 </g>
 <g id="layer扶梯" inkscape:groupmode="layer" inkscape:label="扶梯">
  <path d="M 0.0,49.271343604936646 L 6.760987500000056,50.37983900000006" fill="none" stroke="rgb(0,178,178)" stroke-width="0.1"/>
  <path d="M 6.760987500000056,50.37983900000006 L 11.940987499999892,18.80083900000011" fill="none" stroke="rgb(0,178,178)" stroke-width="0.1"/>
  <path d="M 11.940987499999892,18.80083900000011 L 0.0,16.84313856762708" fill="none" stroke="rgb(0,178,178)" stroke-width="0.1"/>
 </g>
</svg>