<?xml version="1.0" encoding="utf-8"?>
<svg style="background-color: #000;" version="1.1" viewBox="0 0 100.0 100.0" xmlns="http://www.w3.org/2000/svg" xmlns:inkscape="http://www.inkscape.org/namespaces/inkscape">
 <g id="layer0" inkscape:groupmode="layer" inkscape:label="0">
  <path d="M 100.0,15.203659058605695 L 7.265330399398181,0.0" fill="none" stroke="rgb(107,53,53)" stroke-width="0.1"/>
  <path d="M 100.0,47.631797022335604 L 0.0,31.2363311963245" fill="none" stroke="rgb(107,53,53)" stroke-width="0.1"/>
 </g>
 <g id="layerA-上部投影线" inkscape:groupmode="layer" inkscape:label="A-上部投影线">
  <path d="M 0.0,31.2363311963245 L 100.0,47.631797022335604" fill="none" stroke="rgb(0,0,0)" stroke-width="0.1"/>
  <path d="M 100.0,15.203659058605695 L 7.265330399398181,0.0" fill="none" stroke="rgb(0,0,0)" stroke-width="0.1"/>
 </g>
 <g id="layerA-栏杆" inkscape:groupmode="layer" inkscape:label="A-栏杆">
  <path d="M 100.0,98.80840194246207 L 0.0,76.82204810170549" fill="none" instance-id="-1" semantic-id="33" stroke="rgb(0,107,79)" stroke-width="0.1"/>
  <path d="M 100.0,98.29530381538336 L 0.0,76.30954406682508" fill="none" instance-id="-1" semantic-id="33" stroke="rgb(0,107,79)" stroke-width="0.1"/>
  <path d="M 47.43112109522008,0.0 L 100.0,8.618735490053837" fill="none" instance-id="-1" semantic-id="33" stroke="rgb(0,107,79)" stroke-width="0.1"/>
  <path d="M 50.52614365183831,0.0 L 100.0,8.111558174080415" fill="none" instance-id="-1" semantic-id="33" stroke="rgb(0,107,79)" stroke-width="0.1"/>
 </g>
 <g id="layerA-洞口" inkscape:groupmode="layer" inkscape:label="A-洞口">
  <path d="M 0.0,52.96685015548974 L 100.0,86.95602105497551" fill="none" stroke="rgb(107,53,93)" stroke-width="0.1"/>
  <path d="M 26.887661645497474,0.0 L 100.0,14.67438658986282" fill="none" stroke="rgb(107,53,93)" stroke-width="0.1"/>
 </g>
 <g id="layerA-看线" inkscape:groupmode="layer" inkscape:label="A-看线">
  <path d="M 100.0,99.31851927804428 L 0.0,77.33307433920345" fill="none" stroke="rgb(255,12,254)" stroke-width="0.1"/>
  <path d="M 100.0,97.78314266711595 L 0.0,75.79754032454332" fill="none" stroke="rgb(255,12,254)" stroke-width="0.1"/>
  <path d="M 44.340997633859615,0.0 L 100.0,9.125226212813459" fill="none" stroke="rgb(255,12,254)" stroke-width="0.1"/>
  <path d="M 53.61130316318145,0.0 L 100.0,7.605271111185743" fill="none" stroke="rgb(255,12,254)" stroke-width="0.1"/>
 </g>
 <g id="layerDIM_LEAD" inkscape:groupmode="layer" inkscape:label="DIM_LEAD">
  <path d="M 78.73381629205414,100.0 L 79.66098749999992,98.4308390000001" fill="none" stroke="rgb(0,178,0)" stroke-width="0.1"/>
  <path d="M 0.0,41.68483900000001 L 3.2909875000000284,41.68483900000001" fill="none" stroke="rgb(0,178,0)" stroke-width="0.1"/>
  <path d="M 3.2909875000000284,41.68483900000001 L 5.550987500000019,30.089839000000097" fill="none" stroke="rgb(0,178,0)" stroke-width="0.1"/>
  <path d="M 49.95098749999988,55.22783900000002 L 72.96098749999987,55.22783900000002" fill="none" stroke="rgb(0,178,0)" stroke-width="0.1"/>
  <path d="M 72.96098749999987,55.22783900000002 L 77.91098749999992,41.131839000000014" fill="none" stroke="rgb(0,178,0)" stroke-width="0.1"/>
  <text fill="rgb(0,0,0)" font-family="Noto Sans CJK SC" font-size="2" transform="rotate(-0.0,50.09098749999998,86.37383900000009)" x="50.09098749999998" y="86.37383900000009">
   耐火极限3h
  </text>
  <text fill="rgb(0,0,0)" font-family="Noto Sans CJK SC" font-size="2" transform="rotate(-0.0,49.95098749999988,53.38983900000005)" x="49.95098749999988" y="53.38983900000005">
   AFT-05-02
  </text>
 </g>
 <g id="layerDIM_SYMB" inkscape:groupmode="layer" inkscape:label="DIM_SYMB">
  <path d="M 68.13098749999995,34.031839000000105 L 100.0,39.25644967768085" fill="none" stroke="rgb(0,178,0)" stroke-width="0.1"/>
  <path d="M 70.64098749999994,18.765839000000028 L 100.0,23.579428153467234" fill="none" stroke="rgb(0,178,0)" stroke-width="0.1"/>
  <path d="M 0.0,22.860640201371666 L 20.770987500000047,26.265839000000028" fill="none" stroke="rgb(0,178,0)" stroke-width="0.1"/>
  <path d="M 0.0,7.1838382061612265 L 23.270987500000047,10.999839000000065" fill="none" stroke="rgb(0,178,0)" stroke-width="0.1"/>
  <path d="M 35.91098749999992,23.950839000000087 L 32.45098749999988,27.846839000000045" fill="none" stroke="rgb(0,178,0)" stroke-width="0.1"/>
  <path d="M 32.45098749999988,27.846839000000045 L 30.460987499999874,26.82783900000004" fill="none" stroke="rgb(0,178,0)" stroke-width="0.1"/>
  <path d="M 30.460987499999874,26.82783900000004 L 32.9309874999999,30.55383900000004" fill="none" stroke="rgb(0,178,0)" stroke-width="0.1"/>
  <path d="M 32.9309874999999,30.55383900000004 L 30.940987499999892,29.534839000000034" fill="none" stroke="rgb(0,178,0)" stroke-width="0.1"/>
  <path d="M 30.940987499999892,29.534839000000034 L 27.480987500000083,33.430839000000105" fill="none" stroke="rgb(0,178,0)" stroke-width="0.1"/>
  <path d="M 51.20098749999988,26.45683900000006 L 47.73098750000008,30.352839000000017" fill="none" stroke="rgb(0,178,0)" stroke-width="0.1"/>
  <path d="M 47.73098750000008,30.352839000000017 L 45.750987500000065,29.33383900000001" fill="none" stroke="rgb(0,178,0)" stroke-width="0.1"/>
  <path d="M 45.750987500000065,29.33383900000001 L 48.210987499999874,33.05983900000001" fill="none" stroke="rgb(0,178,0)" stroke-width="0.1"/>
  <path d="M 48.210987499999874,33.05983900000001 L 46.23098750000008,32.040839000000005" fill="none" stroke="rgb(0,178,0)" stroke-width="0.1"/>
  <path d="M 46.23098750000008,32.040839000000005 L 42.760987500000056,35.93683900000008" fill="none" stroke="rgb(0,178,0)" stroke-width="0.1"/>
  <path d="M 38.42098749999991,8.68483900000001 L 34.95098749999988,12.580839000000083" fill="none" stroke="rgb(0,178,0)" stroke-width="0.1"/>
  <path d="M 34.95098749999988,12.580839000000083 L 32.97098750000009,11.561839000000077" fill="none" stroke="rgb(0,178,0)" stroke-width="0.1"/>
  <path d="M 32.97098750000009,11.561839000000077 L 35.4309874999999,15.287839000000076" fill="none" stroke="rgb(0,178,0)" stroke-width="0.1"/>
  <path d="M 35.4309874999999,15.287839000000076 L 33.45098749999988,14.26883900000007" fill="none" stroke="rgb(0,178,0)" stroke-width="0.1"/>
  <path d="M 33.45098749999988,14.26883900000007 L 29.980987500000083,18.16483900000003" fill="none" stroke="rgb(0,178,0)" stroke-width="0.1"/>
  <path d="M 53.70098749999988,11.190839000000096 L 50.23098750000008,15.085839000000078" fill="none" stroke="rgb(0,178,0)" stroke-width="0.1"/>
  <path d="M 50.23098750000008,15.085839000000078 L 48.250987500000065,14.067839000000049" fill="none" stroke="rgb(0,178,0)" stroke-width="0.1"/>
  <path d="M 48.250987500000065,14.067839000000049 L 50.710987499999874,17.792839000000072" fill="none" stroke="rgb(0,178,0)" stroke-width="0.1"/>
  <path d="M 50.710987499999874,17.792839000000072 L 48.73098750000008,16.774839000000043" fill="none" stroke="rgb(0,178,0)" stroke-width="0.1"/>
  <path d="M 48.73098750000008,16.774839000000043 L 45.260987500000056,20.669839000000024" fill="none" stroke="rgb(0,178,0)" stroke-width="0.1"/>
  <path d="M 68.04098750000003,34.62383900000009 L 65.17098749999991,33.54683900000009" fill="none" stroke="rgb(0,178,0)" stroke-width="0.1"/>
  <path d="M 65.17098749999991,33.54683900000009 L 68.23098750000008,33.439839000000006" fill="none" stroke="rgb(0,178,0)" stroke-width="0.1"/>
  <path d="M 68.23098750000008,33.439839000000006 L 68.04098750000003,34.62383900000009" fill="none" stroke="rgb(0,178,0)" stroke-width="0.1"/>
  <path d="M 70.54098750000003,19.357839000000013 L 67.6809874999999,18.279839000000038" fill="none" stroke="rgb(0,178,0)" stroke-width="0.1"/>
  <path d="M 67.6809874999999,18.279839000000038 L 70.73098750000008,18.173839000000044" fill="none" stroke="rgb(0,178,0)" stroke-width="0.1"/>
  <path d="M 70.73098750000008,18.173839000000044 L 70.54098750000003,19.357839000000013" fill="none" stroke="rgb(0,178,0)" stroke-width="0.1"/>
  <path d="M 20.67098749999991,26.857839000000013 L 23.730987500000083,26.750839000000042" fill="none" stroke="rgb(0,178,0)" stroke-width="0.1"/>
  <path d="M 23.730987500000083,26.750839000000042 L 20.860987499999965,25.673839000000044" fill="none" stroke="rgb(0,178,0)" stroke-width="0.1"/>
  <path d="M 20.860987499999965,25.673839000000044 L 20.67098749999991,26.857839000000013" fill="none" stroke="rgb(0,178,0)" stroke-width="0.1"/>
  <path d="M 23.17098749999991,11.59183900000005 L 26.230987500000083,11.484839000000079" fill="none" stroke="rgb(0,178,0)" stroke-width="0.1"/>
  <path d="M 26.230987500000083,11.484839000000079 L 23.370987499999956,10.40783900000008" fill="none" stroke="rgb(0,178,0)" stroke-width="0.1"/>
  <path d="M 23.370987499999956,10.40783900000008 L 23.17098749999991,11.59183900000005" fill="none" stroke="rgb(0,178,0)" stroke-width="0.1"/>
 </g>
 <g id="layerDOTE" inkscape:groupmode="layer" inkscape:label="DOTE">
  <path d="M 0.0,28.903867810308952 L 100.0,92.51037616353346" fill="none" stroke="rgb(63,63,63)" stroke-width="0.1"/>
  <path d="M 36.98237707277485,0.0 L 0.0,58.141880544614196" fill="none" stroke="rgb(63,63,63)" stroke-width="0.1"/>
  <path d="M 100.0,57.4359186524656 L 72.92551077140047,100.0" fill="none" stroke="rgb(63,63,63)" stroke-width="0.1"/>
 </g>
 <g id="layerPUB_DIM" inkscape:groupmode="layer" inkscape:label="PUB_DIM">
  <path d="M 93.59098749999998,67.49683900000002 L 98.42098749999991,59.902839000000085" fill="none" stroke="rgb(21,88,0)" stroke-width="0.1"/>
  <path d="M 94.91098749999992,63.943839000000025 L 97.11098749999996,63.45583900000008" fill="none" stroke="rgb(21,88,0)" stroke-width="0.1"/>
  <path d="M 98.17098749999991,91.35483900000008 L 100.0,92.51875604545467" fill="none" stroke="rgb(21,88,0)" stroke-width="0.1"/>
  <path d="M 84.54098750000003,81.72683900000004 L 89.37098749999996,74.1328390000001" fill="none" stroke="rgb(21,88,0)" stroke-width="0.1"/>
  <path d="M 85.86098749999996,78.17383900000004 L 88.06098750000001,77.6858390000001" fill="none" stroke="rgb(21,88,0)" stroke-width="0.1"/>
  <path d="M 0.0,74.63483900000006 L 100.0,74.63483900000006" fill="none" stroke="rgb(21,88,0)" stroke-width="0.1"/>
  <path d="M 0.0,74.63483900000006 L 100.0,74.63483900000006" fill="none" stroke="rgb(21,88,0)" stroke-width="0.1"/>
  <path d="M 100.0,57.43026133558567 L 96.01098750000006,63.69983900000011" fill="none" stroke="rgb(21,88,0)" stroke-width="0.1"/>
  <path d="M 96.01098750000006,63.69983900000011 L 100.0,66.23735607635012" fill="none" stroke="rgb(21,88,0)" stroke-width="0.1"/>
  <path d="M 92.06098750000001,69.91383900000005 L 86.96098749999987,77.92983900000002" fill="none" stroke="rgb(21,88,0)" stroke-width="0.1"/>
  <path d="M 86.96098749999987,77.92983900000002 L 100.0,86.22500976633171" fill="none" stroke="rgb(21,88,0)" stroke-width="0.1"/>
  <path d="M 100.0,56.876384361802366 L 0.0,40.48048954023011" fill="none" stroke="rgb(21,88,0)" stroke-width="0.1"/>
  <path d="M 63.64909998578264,0.0 L 100.0,5.959655570779546" fill="none" stroke="rgb(21,88,0)" stroke-width="0.1"/>
  <text fill="rgb(0,0,0)" font-family="Noto Sans CJK SC" font-size="2" transform="rotate(-38.8338,93.41098749999992,31.83383900000001)" x="93.41098749999992" y="31.83383900000001">
   R1500
  </text>
  <text fill="rgb(0,0,0)" font-family="Noto Sans CJK SC" font-size="2" transform="rotate(-327.541,90.17098749999991,76.76383900000008)" x="90.17098749999991" y="76.76383900000008">
   3066
  </text>
  <text fill="rgb(0,0,0)" font-family="Noto Sans CJK SC" font-size="2" transform="rotate(-350.689,33.47098750000009,43.73483900000008)" x="33.47098750000009" y="43.73483900000008">
   15108
  </text>
 </g>
 <g id="layerPUB_TEXT" inkscape:groupmode="layer" inkscape:label="PUB_TEXT">
  <text fill="rgb(0,0,0)" font-family="Noto Sans CJK SC" font-size="2" transform="rotate(-350.689,42.09098749999998,17.666839000000095)" x="42.09098749999998" y="17.666839000000095">
   6米层高扶梯
  </text>
 </g>
 <g id="layerSJ-消防防火卷帘(1)" inkscape:groupmode="layer" inkscape:label="SJ-消防防火卷帘(1)">
  <path d="M 76.78675588962165,0.0 L 100.0,3.8058824502201105" fill="none" instance-id="-1" semantic-id="1" stroke="rgb(178,0,0)" stroke-width="0.1"/>
  <path d="M 85.63779903533214,100.0 L 0.0,81.17061654665815" fill="none" instance-id="-1" semantic-id="1" stroke="rgb(178,0,0)" stroke-width="0.1"/>
  <path d="M 0.0,85.77873319982803 L 64.67875910167118,100.0" fill="none" instance-id="-1" semantic-id="1" stroke="rgb(178,0,0)" stroke-width="0.1"/>
 </g>
 <g id="layerSTAIR" inkscape:groupmode="layer" inkscape:label="STAIR">
  <path d="M 0.0,11.98195451508468 L 17.120987499999956,14.788839000000053" fill="none" instance-id="1" semantic-id="32" stroke="rgb(178,178,0)" stroke-width="0.1"/>
  <path d="M 17.110987499999965,14.787839000000076 L 30.960987499999874,17.058839000000035" fill="none" instance-id="1" semantic-id="32" stroke="rgb(178,178,0)" stroke-width="0.1"/>
  <path d="M 0.0,2.385990225150408 L 29.700987499999883,7.254839000000061" fill="none" instance-id="1" semantic-id="32" stroke="rgb(178,178,0)" stroke-width="0.1"/>
  <path d="M 29.66098749999992,7.249839000000065 L 96.70098749999988,18.239839000000075" fill="none" instance-id="1" semantic-id="32" stroke="rgb(178,178,0)" stroke-width="0.1"/>
  <path d="M 0.0,4.587615593137116 L 0.3509874999999738,2.4438390000000254" fill="none" instance-id="1" semantic-id="32" stroke="rgb(178,178,0)" stroke-width="0.1"/>
  <path d="M 1.7809875000000375,12.274839000000043 L 3.31098750000001,2.9298390000000154" fill="none" instance-id="1" semantic-id="32" stroke="rgb(178,178,0)" stroke-width="0.1"/>
  <path d="M 4.740987500000074,12.759839000000056 L 6.270987500000047,3.414839000000029" fill="none" instance-id="1" semantic-id="32" stroke="rgb(178,178,0)" stroke-width="0.1"/>
  <path d="M 7.700987499999883,13.245839000000046 L 9.230987500000083,3.8998390000000427" fill="none" instance-id="1" semantic-id="32" stroke="rgb(178,178,0)" stroke-width="0.1"/>
  <path d="M 10.66098749999992,13.73083900000006 L 12.190987499999892,4.385839000000033" fill="none" instance-id="1" semantic-id="32" stroke="rgb(178,178,0)" stroke-width="0.1"/>
  <path d="M 0.0,18.061999734042615 L 14.820987500000001,20.491839000000027" fill="none" instance-id="2" semantic-id="32" stroke="rgb(178,178,0)" stroke-width="0.1"/>
  <path d="M 14.820987500000001,20.491839000000027 L 94.19098749999989,33.50583900000004" fill="none" instance-id="2" semantic-id="32" stroke="rgb(178,178,0)" stroke-width="0.1"/>
  <path d="M 0.0,27.65881548857385 L 11.070987500000001,29.473838999999998" fill="none" instance-id="2" semantic-id="32" stroke="rgb(178,178,0)" stroke-width="0.1"/>
  <path d="M 11.070987500000001,29.473838999999998 L 28.460987499999874,32.32583900000009" fill="none" instance-id="2" semantic-id="32" stroke="rgb(178,178,0)" stroke-width="0.1"/>
  <path d="M 0.8109875000000102,18.195839000000092 L 0.0,23.149223436274724" fill="none" instance-id="2" semantic-id="32" stroke="rgb(178,178,0)" stroke-width="0.1"/>
  <path d="M 3.7709875000000466,18.680839000000105 L 2.240987500000074,28.02583900000002" fill="none" instance-id="2" semantic-id="32" stroke="rgb(178,178,0)" stroke-width="0.1"/>
  <path d="M 6.730987500000083,19.166839000000095 L 5.200987499999883,28.51183900000001" fill="none" instance-id="2" semantic-id="32" stroke="rgb(178,178,0)" stroke-width="0.1"/>
  <path d="M 9.690987499999892,19.65183900000011 L 8.16098749999992,28.996839000000023" fill="none" instance-id="2" semantic-id="32" stroke="rgb(178,178,0)" stroke-width="0.1"/>
  <path d="M 12.650987499999928,20.13683900000001 L 11.120987499999956,29.481839000000036" fill="none" instance-id="2" semantic-id="32" stroke="rgb(178,178,0)" stroke-width="0.1"/>
  <path d="M 15.610987499999965,20.622839 L 14.080987499999992,29.967839000000026" fill="none" instance-id="2" semantic-id="32" stroke="rgb(178,178,0)" stroke-width="0.1"/>
  <path d="M 18.5709875,21.107839000000013 L 17.04098750000003,30.45283900000004" fill="none" instance-id="2" semantic-id="32" stroke="rgb(178,178,0)" stroke-width="0.1"/>
  <path d="M 21.530987500000037,21.592839000000026 L 20.000987500000065,30.93883900000003" fill="none" instance-id="2" semantic-id="32" stroke="rgb(178,178,0)" stroke-width="0.1"/>
  <path d="M 24.490987500000074,22.078839000000016 L 22.960987499999874,31.423839000000044" fill="none" instance-id="2" semantic-id="32" stroke="rgb(178,178,0)" stroke-width="0.1"/>
  <path d="M 27.450987499999883,22.56383900000003 L 25.92098749999991,31.908839000000057" fill="none" instance-id="2" semantic-id="32" stroke="rgb(178,178,0)" stroke-width="0.1"/>
  <path d="M 30.41098749999992,23.048839000000044 L 28.990987500000074,31.729839000000084" fill="none" instance-id="2" semantic-id="32" stroke="rgb(178,178,0)" stroke-width="0.1"/>
  <path d="M 33.38098749999995,23.534839000000034 L 32.620987499999956,28.163839000000053" fill="none" instance-id="2" semantic-id="32" stroke="rgb(178,178,0)" stroke-width="0.1"/>
  <path d="M 47.29098750000003,31.377839000000108 L 46.65098749999993,35.30683900000008" fill="none" instance-id="2" semantic-id="32" stroke="rgb(178,178,0)" stroke-width="0.1"/>
  <path d="M 51.14098749999994,26.446839000000068 L 49.610987499999965,35.791839000000095" fill="none" instance-id="2" semantic-id="32" stroke="rgb(178,178,0)" stroke-width="0.1"/>
  <path d="M 54.100987499999974,26.931839000000082 L 52.5709875,36.277839000000085" fill="none" instance-id="2" semantic-id="32" stroke="rgb(178,178,0)" stroke-width="0.1"/>
  <path d="M 57.06098750000001,27.417839000000072 L 55.53098750000004,36.7628390000001" fill="none" instance-id="2" semantic-id="32" stroke="rgb(178,178,0)" stroke-width="0.1"/>
  <path d="M 60.02098750000005,27.902839000000085 L 58.490987500000074,37.247839" fill="none" instance-id="2" semantic-id="32" stroke="rgb(178,178,0)" stroke-width="0.1"/>
  <path d="M 62.98098750000008,28.388839000000075 L 61.45098749999988,37.7338390000001" fill="none" instance-id="2" semantic-id="32" stroke="rgb(178,178,0)" stroke-width="0.1"/>
  <path d="M 65.94098749999989,28.87383900000009 L 64.41098749999992,38.218839" fill="none" instance-id="2" semantic-id="32" stroke="rgb(178,178,0)" stroke-width="0.1"/>
  <path d="M 68.90098749999993,29.358839000000103 L 67.37098749999996,38.704839000000106" fill="none" instance-id="2" semantic-id="32" stroke="rgb(178,178,0)" stroke-width="0.1"/>
  <path d="M 71.86098749999996,29.844839000000093 L 70.33098749999999,39.189839000000006" fill="none" instance-id="2" semantic-id="32" stroke="rgb(178,178,0)" stroke-width="0.1"/>
  <path d="M 74.8209875,30.329839000000106 L 73.29098750000003,39.67483900000002" fill="none" instance-id="2" semantic-id="32" stroke="rgb(178,178,0)" stroke-width="0.1"/>
  <path d="M 77.78098750000004,30.814839000000006 L 76.25098750000006,40.16083900000001" fill="none" instance-id="2" semantic-id="32" stroke="rgb(178,178,0)" stroke-width="0.1"/>
  <path d="M 80.74098750000007,31.30083900000011 L 79.21098749999987,40.645839000000024" fill="none" instance-id="2" semantic-id="32" stroke="rgb(178,178,0)" stroke-width="0.1"/>
  <path d="M 83.70098749999988,31.78583900000001 L 82.17098749999991,41.13083900000004" fill="none" instance-id="2" semantic-id="32" stroke="rgb(178,178,0)" stroke-width="0.1"/>
  <path d="M 86.66098749999992,32.271839 L 85.13098749999995,41.61683900000003" fill="none" instance-id="2" semantic-id="32" stroke="rgb(178,178,0)" stroke-width="0.1"/>
  <path d="M 89.62098749999996,32.756839000000014 L 88.09098749999998,42.10183900000004" fill="none" instance-id="2" semantic-id="32" stroke="rgb(178,178,0)" stroke-width="0.1"/>
  <path d="M 92.58098749999999,33.24183900000003 L 91.05098750000002,42.58783900000003" fill="none" instance-id="2" semantic-id="32" stroke="rgb(178,178,0)" stroke-width="0.1"/>
  <path d="M 95.55098750000002,33.72783900000002 L 94.01098750000006,43.072839000000045" fill="none" instance-id="2" semantic-id="32" stroke="rgb(178,178,0)" stroke-width="0.1"/>
  <path d="M 15.150987499999928,4.870839000000046 L 13.620987499999956,14.215839000000074" fill="none" instance-id="1" semantic-id="32" stroke="rgb(178,178,0)" stroke-width="0.1"/>
  <path d="M 18.120987499999956,5.35583900000006 L 16.580987499999992,14.701839000000064" fill="none" instance-id="1" semantic-id="32" stroke="rgb(178,178,0)" stroke-width="0.1"/>
  <path d="M 21.080987499999992,5.84183900000005 L 19.54098750000003,15.186839000000077" fill="none" instance-id="1" semantic-id="32" stroke="rgb(178,178,0)" stroke-width="0.1"/>
  <path d="M 24.04098750000003,6.326839000000064 L 22.500987500000065,15.671839000000091" fill="none" instance-id="1" semantic-id="32" stroke="rgb(178,178,0)" stroke-width="0.1"/>
  <path d="M 27.000987500000065,6.812839000000054 L 25.460987499999874,16.15783900000008" fill="none" instance-id="1" semantic-id="32" stroke="rgb(178,178,0)" stroke-width="0.1"/>
  <path d="M 29.960987499999874,7.297839000000067 L 28.4309874999999,16.642839000000095" fill="none" instance-id="1" semantic-id="32" stroke="rgb(178,178,0)" stroke-width="0.1"/>
  <path d="M 32.92098749999991,7.782839000000081 L 31.490987500000074,16.46283900000003" fill="none" instance-id="1" semantic-id="32" stroke="rgb(178,178,0)" stroke-width="0.1"/>
  <path d="M 35.88098749999995,8.26883900000007 L 35.22098750000009,12.275839000000019" fill="none" instance-id="1" semantic-id="32" stroke="rgb(178,178,0)" stroke-width="0.1"/>
  <path d="M 49.79098750000003,16.110839000000055 L 49.15098749999993,20.040839000000005" fill="none" instance-id="1" semantic-id="32" stroke="rgb(178,178,0)" stroke-width="0.1"/>
  <path d="M 53.64098749999994,11.180839000000105 L 52.110987499999965,20.52583900000002" fill="none" instance-id="1" semantic-id="32" stroke="rgb(178,178,0)" stroke-width="0.1"/>
  <path d="M 56.600987499999974,11.665839000000005 L 55.0709875,21.01183900000001" fill="none" instance-id="1" semantic-id="32" stroke="rgb(178,178,0)" stroke-width="0.1"/>
  <path d="M 59.56098750000001,12.151839000000109 L 58.03098750000004,21.496839000000023" fill="none" instance-id="1" semantic-id="32" stroke="rgb(178,178,0)" stroke-width="0.1"/>
  <path d="M 62.52098750000005,12.636839000000009 L 60.990987500000074,21.981839000000036" fill="none" instance-id="1" semantic-id="32" stroke="rgb(178,178,0)" stroke-width="0.1"/>
  <path d="M 65.48098750000008,13.121839000000023 L 63.95098749999988,22.467839000000026" fill="none" instance-id="1" semantic-id="32" stroke="rgb(178,178,0)" stroke-width="0.1"/>
  <path d="M 68.44098749999989,13.607839000000013 L 66.91098749999992,22.95283900000004" fill="none" instance-id="1" semantic-id="32" stroke="rgb(178,178,0)" stroke-width="0.1"/>
  <path d="M 71.40098749999993,14.092839000000026 L 69.87098749999996,23.437839000000054" fill="none" instance-id="1" semantic-id="32" stroke="rgb(178,178,0)" stroke-width="0.1"/>
  <path d="M 74.36098749999996,14.578839000000016 L 72.83098749999999,23.923839000000044" fill="none" instance-id="1" semantic-id="32" stroke="rgb(178,178,0)" stroke-width="0.1"/>
  <path d="M 77.3209875,15.06383900000003 L 75.79098750000003,24.408839000000057" fill="none" instance-id="1" semantic-id="32" stroke="rgb(178,178,0)" stroke-width="0.1"/>
  <path d="M 80.29098750000003,15.548839000000044 L 78.75098750000006,24.894839000000047" fill="none" instance-id="1" semantic-id="32" stroke="rgb(178,178,0)" stroke-width="0.1"/>
  <path d="M 83.25098750000006,16.034839000000034 L 81.71098749999987,25.37983900000006" fill="none" instance-id="1" semantic-id="32" stroke="rgb(178,178,0)" stroke-width="0.1"/>
  <path d="M 86.21098749999987,16.519839000000047 L 84.67098749999991,25.864839000000075" fill="none" instance-id="1" semantic-id="32" stroke="rgb(178,178,0)" stroke-width="0.1"/>
  <path d="M 89.17098749999991,17.00483900000006 L 87.63098749999995,26.350839000000065" fill="none" instance-id="1" semantic-id="32" stroke="rgb(178,178,0)" stroke-width="0.1"/>
  <path d="M 92.13098749999995,17.49083900000005 L 90.60098749999997,26.835839000000078" fill="none" instance-id="1" semantic-id="32" stroke="rgb(178,178,0)" stroke-width="0.1"/>
  <path d="M 95.09098749999998,17.975839000000065 L 93.56098750000001,27.320839000000092" fill="none" instance-id="1" semantic-id="32" stroke="rgb(178,178,0)" stroke-width="0.1"/>
  <path d="M 98.05098750000002,18.461839000000055 L 96.52098750000005,27.806839000000082" fill="none" instance-id="1" semantic-id="32" stroke="rgb(178,178,0)" stroke-width="0.1"/>
  <path d="M 43.740987500000074,34.83083900000008 L 92.66098749999992,42.850839000000065" fill="none" instance-id="2" semantic-id="32" stroke="rgb(178,178,0)" stroke-width="0.1"/>
  <path d="M 35.120987499999956,12.89783900000009 L 34.960987499999874,13.881839000000014" fill="none" instance-id="1" semantic-id="32" stroke="rgb(178,178,0)" stroke-width="0.1"/>
  <path d="M 46.250987500000065,19.564839000000006 L 95.16098749999992,27.584839000000102" fill="none" instance-id="1" semantic-id="32" stroke="rgb(178,178,0)" stroke-width="0.1"/>
  <path d="M 16.41098749999992,16.54683900000009 L 100.0,30.25195955426841" fill="none" instance-id="1" semantic-id="32" stroke="rgb(178,178,0)" stroke-width="0.1"/>
  <path d="M 100.0,29.644439842828433 L 16.630987499999947,15.97683900000004" fill="none" instance-id="1" semantic-id="32" stroke="rgb(178,178,0)" stroke-width="0.1"/>
  <path d="M 16.640987499999937,15.97683900000004 L 0.0,13.24909411183512" fill="none" instance-id="1" semantic-id="32" stroke="rgb(178,178,0)" stroke-width="0.1"/>
  <path d="M 0.0,13.856932743257858 L 16.41098749999992,16.547839000000067" fill="none" instance-id="1" semantic-id="32" stroke="rgb(178,178,0)" stroke-width="0.1"/>
  <path d="M 0.0,11.982438888068032 L 30.960987499999874,17.058839000000035" fill="none" instance-id="1" semantic-id="32" stroke="rgb(178,178,0)" stroke-width="0.1"/>
  <path d="M 0.0,15.023046681571145 L 15.620987499999956,17.58383900000001" fill="none" instance-id="2" semantic-id="32" stroke="rgb(178,178,0)" stroke-width="0.1"/>
  <path d="M 15.620987499999956,17.58383900000001 L 100.0,31.417674539221025" fill="none" instance-id="2" semantic-id="32" stroke="rgb(178,178,0)" stroke-width="0.1"/>
  <path d="M 30.140987499999937,6.060839000000101 L 100.0,17.514249046101213" fill="none" instance-id="1" semantic-id="32" stroke="rgb(178,178,0)" stroke-width="0.1"/>
  <path d="M 100.0,16.905979991586605 L 30.370987499999956,5.490839000000051" fill="none" instance-id="1" semantic-id="32" stroke="rgb(178,178,0)" stroke-width="0.1"/>
  <path d="M 30.41098749999992,5.496839000000023 L 0.0,0.5111765957610714" fill="none" instance-id="1" semantic-id="32" stroke="rgb(178,178,0)" stroke-width="0.1"/>
  <path d="M 0.0,1.1193084190393847 L 30.1809874999999,6.066839000000073" fill="none" instance-id="1" semantic-id="32" stroke="rgb(178,178,0)" stroke-width="0.1"/>
  <path d="M 100.0,18.781194958614947 L 0.0,2.386407313827249" fill="none" instance-id="1" semantic-id="32" stroke="rgb(178,178,0)" stroke-width="0.1"/>
  <path d="M 100.0,15.741692569024622 L 3.9895293186730214,0.0" fill="none" instance-id="1" semantic-id="32" stroke="rgb(178,178,0)" stroke-width="0.1"/>
  <path d="M 15.530987500000037,18.733839000000103 L 100.0,32.58326094498523" fill="none" instance-id="2" semantic-id="32" stroke="rgb(178,178,0)" stroke-width="0.1"/>
  <path d="M 100.0,33.19014461969323 L 15.30098750000002,19.30383900000004" fill="none" instance-id="2" semantic-id="32" stroke="rgb(178,178,0)" stroke-width="0.1"/>
  <path d="M 15.30098750000002,19.30383900000004 L 0.0,16.79538402401215" fill="none" instance-id="2" semantic-id="32" stroke="rgb(178,178,0)" stroke-width="0.1"/>
  <path d="M 0.0,16.187385594202965 L 15.530987500000037,18.733839000000103" fill="none" instance-id="2" semantic-id="32" stroke="rgb(178,178,0)" stroke-width="0.1"/>
  <path d="M 0.0,18.062479437414595 L 100.0,34.458585945338314" fill="none" instance-id="2" semantic-id="32" stroke="rgb(178,178,0)" stroke-width="0.1"/>
  <path d="M 0.0,15.023046681571145 L 15.620987499999956,17.58383900000001" fill="none" instance-id="2" semantic-id="32" stroke="rgb(178,178,0)" stroke-width="0.1"/>
  <path d="M 15.620987499999956,17.58383900000001 L 100.0,31.417674539221025" fill="none" instance-id="2" semantic-id="32" stroke="rgb(178,178,0)" stroke-width="0.1"/>
  <path d="M 10.590987499999983,30.6618390000001 L 100.0,45.32111014019608" fill="none" instance-id="2" semantic-id="32" stroke="rgb(178,178,0)" stroke-width="0.1"/>
  <path d="M 100.0,45.92943088561856 L 10.360987499999965,31.231839000000036" fill="none" instance-id="2" semantic-id="32" stroke="rgb(178,178,0)" stroke-width="0.1"/>
  <path d="M 10.360987499999965,31.231839000000036 L 0.0,29.53342787075144" fill="none" instance-id="2" semantic-id="32" stroke="rgb(178,178,0)" stroke-width="0.1"/>
  <path d="M 0.0,28.92550840896945 L 10.590987499999983,30.6618390000001" fill="none" instance-id="2" semantic-id="32" stroke="rgb(178,178,0)" stroke-width="0.1"/>
  <path d="M 100.0,44.054525740854274 L 43.740987500000074,34.83083900000008" fill="none" instance-id="2" semantic-id="32" stroke="rgb(178,178,0)" stroke-width="0.1"/>
  <path d="M 9.92098749999991,32.32483900000011 L 0.0,30.69861527577325" fill="none" instance-id="2" semantic-id="32" stroke="rgb(178,178,0)" stroke-width="0.1"/>
  <path d="M 9.92098749999991,32.32483900000011 L 100.0,47.09352085332819" fill="none" instance-id="2" semantic-id="32" stroke="rgb(178,178,0)" stroke-width="0.1"/>
  <path d="M 28.460987499999874,32.32583900000009 L 0.0,27.658714119927254" fill="none" instance-id="2" semantic-id="32" stroke="rgb(178,178,0)" stroke-width="0.1"/>
  <path d="M 46.250987500000065,19.564839000000006 L 100.0,28.377010275317957" fill="none" instance-id="1" semantic-id="32" stroke="rgb(178,178,0)" stroke-width="0.1"/>
 </g>
 <g id="layer扶梯" inkscape:groupmode="layer" inkscape:label="扶梯">
  <path d="M 0.0,31.2363311963245 L 100.0,47.631797022335604" fill="none" stroke="rgb(0,178,178)" stroke-width="0.1"/>
  <path d="M 100.0,15.203659058605695 L 7.265330399398181,0.0" fill="none" stroke="rgb(0,178,178)" stroke-width="0.1"/>
 </g>
</svg>