<?xml version="1.0" encoding="utf-8"?>
<svg style="background-color: #000;" version="1.1" viewBox="0 0 100.0 100.0" xmlns="http://www.w3.org/2000/svg" xmlns:inkscape="http://www.inkscape.org/namespaces/inkscape">
 <g id="layer0M-TEMP-S百叶" inkscape:groupmode="layer" inkscape:label="0M-TEMP-S百叶">
  <path d="M 55.64098749999994,68.04383900000005 L 42.48098750000008,62.638839000000075" fill="none" stroke="rgb(0,178,178)" stroke-width="0.1"/>
  <path d="M 43.8209875,60.52983900000004 L 54.29098750000003,70.15183900000011" fill="none" stroke="rgb(0,178,178)" stroke-width="0.1"/>
  <path d="M 29.490987500000074,51.4118390000001 L 16.04098750000003,45.819839" fill="none" stroke="rgb(0,178,178)" stroke-width="0.1"/>
  <path d="M 17.380987499999947,43.71083900000008 L 28.140987499999937,53.520839000000024" fill="none" stroke="rgb(0,178,178)" stroke-width="0.1"/>
  <path d="M 100.0,96.68665617084173 L 78.62098749999996,85.62183900000002" fill="none" stroke="rgb(178,0,178)" stroke-width="0.1"/>
  <path d="M 79.96098749999987,83.5128390000001 L 100.0,98.92767165098792" fill="none" stroke="rgb(178,0,178)" stroke-width="0.1"/>
  <path d="M 79.96098749999987,83.5128390000001 L 83.31098750000001,78.23983900000007" fill="none" stroke="rgb(178,0,178)" stroke-width="0.1"/>
  <path d="M 58.990987500000074,62.76883900000007 L 47.1809874999999,55.25583900000004" fill="none" stroke="rgb(0,178,178)" stroke-width="0.1"/>
  <path d="M 47.1809874999999,55.25583900000004 L 42.48098750000008,62.638839000000075" fill="none" stroke="rgb(0,178,178)" stroke-width="0.1"/>
  <path d="M 42.48098750000008,62.638839000000075 L 54.29098750000003,70.15183900000011" fill="none" stroke="rgb(0,178,178)" stroke-width="0.1"/>
  <path d="M 54.29098750000003,70.15183900000011 L 58.990987500000074,62.76883900000007" fill="none" stroke="rgb(0,178,178)" stroke-width="0.1"/>
  <path d="M 54.29098750000003,70.15183900000011 L 42.48098750000008,62.638839000000075" fill="none" stroke="rgb(0,178,178)" stroke-width="0.1"/>
  <path d="M 42.48098750000008,62.638839000000075 L 43.8209875,60.52983900000004" fill="none" stroke="rgb(0,178,178)" stroke-width="0.1"/>
  <path d="M 43.8209875,60.52983900000004 L 55.64098749999994,68.04383900000005" fill="none" stroke="rgb(0,178,178)" stroke-width="0.1"/>
  <path d="M 55.64098749999994,68.04383900000005 L 54.29098750000003,70.15183900000011" fill="none" stroke="rgb(0,178,178)" stroke-width="0.1"/>
  <path d="M 32.84098749999998,46.1378390000001 L 20.730987500000083,38.4358390000001" fill="none" stroke="rgb(0,178,178)" stroke-width="0.1"/>
  <path d="M 20.730987500000083,38.4358390000001 L 16.04098750000003,45.819839" fill="none" stroke="rgb(0,178,178)" stroke-width="0.1"/>
  <path d="M 16.04098750000003,45.819839 L 28.140987499999937,53.520839000000024" fill="none" stroke="rgb(0,178,178)" stroke-width="0.1"/>
  <path d="M 28.140987499999937,53.520839000000024 L 32.84098749999998,46.1378390000001" fill="none" stroke="rgb(0,178,178)" stroke-width="0.1"/>
  <path d="M 28.140987499999937,53.520839000000024 L 16.04098750000003,45.819839" fill="none" stroke="rgb(0,178,178)" stroke-width="0.1"/>
  <path d="M 16.04098750000003,45.819839 L 17.380987499999947,43.71083900000008" fill="none" stroke="rgb(0,178,178)" stroke-width="0.1"/>
  <path d="M 17.380987499999947,43.71083900000008 L 29.490987500000074,51.4118390000001" fill="none" stroke="rgb(0,178,178)" stroke-width="0.1"/>
  <path d="M 29.490987500000074,51.4118390000001 L 28.140987499999937,53.520839000000024" fill="none" stroke="rgb(0,178,178)" stroke-width="0.1"/>
  <path d="M 100.0,99.22436021029228 L 78.62098749999996,85.62183900000002" fill="none" stroke="rgb(178,0,178)" stroke-width="0.1"/>
  <path d="M 78.62098749999996,85.62183900000002 L 79.96098749999987,83.5128390000001" fill="none" stroke="rgb(178,0,178)" stroke-width="0.1"/>
  <path d="M 79.96098749999987,83.5128390000001 L 100.0,96.26277740639568" fill="none" stroke="rgb(178,0,178)" stroke-width="0.1"/>
 </g>
 <g id="layerA3-G-ALUM-FINS-150" inkscape:groupmode="layer" inkscape:label="A3-G-ALUM-FINS-150">
  <path d="M 0.0,23.173774841741647 L 100.0,86.78017666360404" fill="none" stroke="rgb(0,178,0)" stroke-width="0.1"/>
 </g>
 <g id="layerA3-G-ALUM-FINS_100" inkscape:groupmode="layer" inkscape:label="A3-G-ALUM-FINS_100">
  <path d="M 100.0,87.37233092638428 L 92.05098750000002,82.31683900000007" fill="none" stroke="rgb(178,0,0)" stroke-width="0.1"/>
  <path d="M 8.740987500000074,30.510839000000033 L 9.280987500000037,29.667839000000072" fill="none" stroke="rgb(178,0,0)" stroke-width="0.1"/>
  <path d="M 9.280987500000037,29.667839000000072 L 92.05098750000002,82.31683900000007" fill="none" stroke="rgb(178,0,0)" stroke-width="0.1"/>
  <path d="M 92.05098750000002,82.31683900000007 L 91.52098750000005,83.16083900000001" fill="none" stroke="rgb(178,0,0)" stroke-width="0.1"/>
 </g>
 <g id="layerA3-G-CANOPY" inkscape:groupmode="layer" inkscape:label="A3-G-CANOPY">
  <path d="M 100.0,81.4475817257827 L 0.0,17.840579356387025" fill="none" instance-id="-1" semantic-id="2" stroke="rgb(0,178,178)" stroke-width="0.1"/>
  <path d="M 100.0,82.15451044622398 L 0.0,18.548181699762495" fill="none" instance-id="-1" semantic-id="2" stroke="rgb(0,178,178)" stroke-width="0.1"/>
  <path d="M 8.80098750000002,28.77283900000009 L 11.220987500000092,24.975839000000065" fill="none" instance-id="-1" semantic-id="2" stroke="rgb(0,178,178)" stroke-width="0.1"/>
  <path d="M 36.350987499999974,48.07183900000007 L 39.5709875,43.00883900000008" fill="none" instance-id="-1" semantic-id="2" stroke="rgb(0,178,178)" stroke-width="0.1"/>
  <path d="M 22.710987499999874,38.211839000000055 L 25.40098749999993,33.992839000000004" fill="none" instance-id="-1" semantic-id="2" stroke="rgb(0,178,178)" stroke-width="0.1"/>
  <path d="M 51.06098750000001,56.24483900000007 L 53.750987500000065,52.02583900000002" fill="none" instance-id="-1" semantic-id="2" stroke="rgb(0,178,178)" stroke-width="0.1"/>
  <path d="M 65.51098750000006,64.83883900000001 L 67.92098749999991,61.041839000000095" fill="none" instance-id="-1" semantic-id="2" stroke="rgb(0,178,178)" stroke-width="0.1"/>
  <path d="M 79.6809874999999,73.85583900000006 L 82.10098749999997,70.05883900000003" fill="none" instance-id="-1" semantic-id="2" stroke="rgb(0,178,178)" stroke-width="0.1"/>
  <path d="M 93.86098749999996,82.87183900000002 L 96.27098750000005,79.07483900000011" fill="none" instance-id="-1" semantic-id="2" stroke="rgb(0,178,178)" stroke-width="0.1"/>
 </g>
 <g id="layerA3-G-FACADE-ALUM-PANEL" inkscape:groupmode="layer" inkscape:label="A3-G-FACADE-ALUM-PANEL">
  <path d="M 100.0,88.55668455482464 L 0.0,24.951045203181366" fill="none" stroke="rgb(178,178,0)" stroke-width="0.1"/>
  <path d="M 100.0,88.85262147645301 L 0.0,25.245311683132172" fill="none" stroke="rgb(178,178,0)" stroke-width="0.1"/>
 </g>
 <g id="layerA3-G-FACADE-BELOW" inkscape:groupmode="layer" inkscape:label="A3-G-FACADE-BELOW">
  <path d="M 0.0,18.06287824919491 L 0.26098750000005566,18.00483900000006" fill="none" stroke="rgb(71,71,71)" stroke-width="0.1"/>
  <path d="M 0.0,19.688182597020955 L 2.1509874999999283,19.209839000000102" fill="none" stroke="rgb(71,71,71)" stroke-width="0.1"/>
  <path d="M 0.0,21.315710777375216 L 4.050987500000019,20.41483900000003" fill="none" stroke="rgb(71,71,71)" stroke-width="0.1"/>
  <path d="M 0.0,22.940971805958156 L 5.940987499999892,21.618839000000094" fill="none" stroke="rgb(71,71,71)" stroke-width="0.1"/>
  <path d="M 1.6209874999999556,24.205839000000083 L 7.840987499999983,22.82383900000002" fill="none" stroke="rgb(71,71,71)" stroke-width="0.1"/>
  <path d="M 3.5209875000000466,25.41083900000001 L 9.730987500000083,24.028839000000062" fill="none" stroke="rgb(71,71,71)" stroke-width="0.1"/>
  <path d="M 5.410987499999919,26.61583900000005 L 11.630987499999947,25.233839000000103" fill="none" stroke="rgb(71,71,71)" stroke-width="0.1"/>
  <path d="M 7.31098750000001,27.820839000000092 L 13.520987500000047,26.43883900000003" fill="none" stroke="rgb(71,71,71)" stroke-width="0.1"/>
  <path d="M 9.200987499999883,29.02583900000002 L 15.41098749999992,27.64383900000007" fill="none" stroke="rgb(71,71,71)" stroke-width="0.1"/>
  <path d="M 11.100987499999974,30.23083900000006 L 17.31098750000001,28.848838999999998" fill="none" stroke="rgb(71,71,71)" stroke-width="0.1"/>
  <path d="M 12.990987500000074,31.4358390000001 L 19.200987499999883,30.05383900000004" fill="none" stroke="rgb(71,71,71)" stroke-width="0.1"/>
  <path d="M 14.880987499999947,32.64083900000003 L 21.100987499999974,31.25883900000008" fill="none" stroke="rgb(71,71,71)" stroke-width="0.1"/>
  <path d="M 16.780987500000037,33.84583900000007 L 22.990987500000074,32.46383900000001" fill="none" stroke="rgb(71,71,71)" stroke-width="0.1"/>
  <path d="M 18.67098749999991,35.04983900000002 L 24.890987499999937,33.66883900000005" fill="none" stroke="rgb(71,71,71)" stroke-width="0.1"/>
  <path d="M 20.5709875,36.25483900000006 L 26.780987500000037,34.87383900000009" fill="none" stroke="rgb(71,71,71)" stroke-width="0.1"/>
  <path d="M 22.460987499999874,37.4598390000001 L 28.67098749999991,36.07783900000004" fill="none" stroke="rgb(71,71,71)" stroke-width="0.1"/>
  <path d="M 24.360987499999965,38.66483900000003 L 30.5709875,37.28283900000008" fill="none" stroke="rgb(71,71,71)" stroke-width="0.1"/>
  <path d="M 26.250987500000065,39.86983900000007 L 32.460987499999874,38.48783900000001" fill="none" stroke="rgb(71,71,71)" stroke-width="0.1"/>
  <path d="M 28.15098749999993,41.07483900000011 L 34.360987499999965,39.69283900000005" fill="none" stroke="rgb(71,71,71)" stroke-width="0.1"/>
  <path d="M 30.04098750000003,42.27983900000004 L 36.250987500000065,40.89783900000009" fill="none" stroke="rgb(71,71,71)" stroke-width="0.1"/>
  <path d="M 31.9309874999999,43.48483900000008 L 38.15098749999993,42.10283900000002" fill="none" stroke="rgb(71,71,71)" stroke-width="0.1"/>
  <path d="M 33.83098749999999,44.689839000000006 L 40.04098750000003,43.30783900000006" fill="none" stroke="rgb(71,71,71)" stroke-width="0.1"/>
  <path d="M 35.72098750000009,45.89483900000005 L 41.9309874999999,44.5128390000001" fill="none" stroke="rgb(71,71,71)" stroke-width="0.1"/>
  <path d="M 37.620987499999956,47.09983900000009 L 43.83098749999999,45.717839000000026" fill="none" stroke="rgb(71,71,71)" stroke-width="0.1"/>
  <path d="M 39.510987500000056,48.304839000000015 L 45.72098750000009,46.92283900000007" fill="none" stroke="rgb(71,71,71)" stroke-width="0.1"/>
  <path d="M 41.41098749999992,49.509839000000056 L 47.620987499999956,48.12783900000011" fill="none" stroke="rgb(71,71,71)" stroke-width="0.1"/>
  <path d="M 43.30098750000002,50.71383900000001 L 49.510987500000056,49.332839000000035" fill="none" stroke="rgb(71,71,71)" stroke-width="0.1"/>
  <path d="M 45.19098749999989,51.91883900000005 L 51.41098749999992,50.537839000000076" fill="none" stroke="rgb(71,71,71)" stroke-width="0.1"/>
  <path d="M 47.09098749999998,53.12383900000009 L 53.30098750000002,51.74183900000003" fill="none" stroke="rgb(71,71,71)" stroke-width="0.1"/>
  <path d="M 48.98098750000008,54.328839000000016 L 55.19098749999989,52.94683900000007" fill="none" stroke="rgb(71,71,71)" stroke-width="0.1"/>
  <path d="M 50.88098749999995,55.53383900000006 L 57.09098749999998,54.15183900000011" fill="none" stroke="rgb(71,71,71)" stroke-width="0.1"/>
  <path d="M 52.77098750000005,56.7388390000001 L 58.98098750000008,55.356839000000036" fill="none" stroke="rgb(71,71,71)" stroke-width="0.1"/>
  <path d="M 54.67098749999991,57.943839000000025 L 60.88098749999995,56.56183900000008" fill="none" stroke="rgb(71,71,71)" stroke-width="0.1"/>
  <path d="M 56.56098750000001,59.148839000000066 L 62.77098750000005,57.766839000000004" fill="none" stroke="rgb(71,71,71)" stroke-width="0.1"/>
  <path d="M 58.45098749999988,60.35383900000011 L 64.67098749999991,58.971839000000045" fill="none" stroke="rgb(71,71,71)" stroke-width="0.1"/>
  <path d="M 60.350987499999974,61.558839000000035 L 66.56098750000001,60.176839000000086" fill="none" stroke="rgb(71,71,71)" stroke-width="0.1"/>
  <path d="M 62.240987500000074,62.763839000000075 L 68.46098749999987,61.381839000000014" fill="none" stroke="rgb(71,71,71)" stroke-width="0.1"/>
  <path d="M 64.14098749999994,63.968839 L 70.35098749999997,62.586839000000055" fill="none" stroke="rgb(71,71,71)" stroke-width="0.1"/>
  <path d="M 66.03098750000004,65.17283900000007 L 72.24098750000007,63.791839000000095" fill="none" stroke="rgb(71,71,71)" stroke-width="0.1"/>
  <path d="M 67.9309874999999,66.37783900000011 L 74.14098749999994,64.99683900000002" fill="none" stroke="rgb(71,71,71)" stroke-width="0.1"/>
  <path d="M 69.8209875,67.58283900000004 L 76.03098750000004,66.20083900000009" fill="none" stroke="rgb(71,71,71)" stroke-width="0.1"/>
  <path d="M 71.71098749999987,68.78783900000008 L 77.9309874999999,67.40583900000001" fill="none" stroke="rgb(71,71,71)" stroke-width="0.1"/>
  <path d="M 73.61098749999996,69.992839 L 79.8209875,68.61083900000006" fill="none" stroke="rgb(71,71,71)" stroke-width="0.1"/>
  <path d="M 75.50098750000006,71.19783900000004 L 81.72098750000009,69.8158390000001" fill="none" stroke="rgb(71,71,71)" stroke-width="0.1"/>
  <path d="M 77.40098749999993,72.40283900000009 L 83.61098749999996,71.02083900000002" fill="none" stroke="rgb(71,71,71)" stroke-width="0.1"/>
  <path d="M 79.29098750000003,73.60783900000001 L 85.50098750000006,72.22583900000006" fill="none" stroke="rgb(71,71,71)" stroke-width="0.1"/>
  <path d="M 81.19098749999989,74.81283900000005 L 87.40098749999993,73.4308390000001" fill="none" stroke="rgb(71,71,71)" stroke-width="0.1"/>
  <path d="M 83.08098749999999,76.0178390000001 L 89.29098750000003,74.63583900000003" fill="none" stroke="rgb(71,71,71)" stroke-width="0.1"/>
  <path d="M 84.98098750000008,77.22283900000002 L 91.19098749999989,75.84083900000007" fill="none" stroke="rgb(71,71,71)" stroke-width="0.1"/>
  <path d="M 86.87098749999996,78.42783900000006 L 93.08098749999999,77.045839" fill="none" stroke="rgb(71,71,71)" stroke-width="0.1"/>
  <path d="M 88.76098750000006,79.6328390000001 L 94.98098750000008,78.25083900000004" fill="none" stroke="rgb(71,71,71)" stroke-width="0.1"/>
  <path d="M 90.66098749999992,80.83683900000005 L 96.87098749999996,79.45583900000008" fill="none" stroke="rgb(71,71,71)" stroke-width="0.1"/>
  <path d="M 92.55098750000002,82.0418390000001 L 98.76098750000006,80.66083900000001" fill="none" stroke="rgb(71,71,71)" stroke-width="0.1"/>
  <path d="M 94.45098749999988,83.24683900000002 L 100.0,82.01193798953307" fill="none" stroke="rgb(71,71,71)" stroke-width="0.1"/>
  <path d="M 96.34098749999998,84.45183900000006 L 100.0,83.63754668518516" fill="none" stroke="rgb(71,71,71)" stroke-width="0.1"/>
  <path d="M 98.24098750000007,85.6568390000001 L 100.0,85.26538082367153" fill="none" stroke="rgb(71,71,71)" stroke-width="0.1"/>
  <path d="M 0.0,23.17014603118332 L 85.17098749999991,77.34683900000005" fill="none" stroke="rgb(71,71,71)" stroke-width="0.1"/>
  <path d="M 85.17098749999991,77.34683900000005 L 100.0,86.77874448465377" fill="none" stroke="rgb(71,71,71)" stroke-width="0.1"/>
  <path d="M 100.0,81.44486961442328 L 0.0,17.83831994715831" fill="none" stroke="rgb(71,71,71)" stroke-width="0.1"/>
  <path d="M 0.0,23.17014603118332 L 85.17098749999991,77.34683900000005" fill="none" stroke="rgb(71,71,71)" stroke-width="0.1"/>
  <path d="M 85.17098749999991,77.34683900000005 L 100.0,86.7787622128385" fill="none" stroke="rgb(71,71,71)" stroke-width="0.1"/>
  <path d="M 100.0,81.4475817257827 L 0.0,17.840579356387025" fill="none" stroke="rgb(71,71,71)" stroke-width="0.1"/>
 </g>
 <g id="layerCOLUMN" inkscape:groupmode="layer" inkscape:label="COLUMN">
  <path d="M 27.610987499999965,54.36283900000001 L 23.31098750000001,61.11283900000001" fill="none" stroke="rgb(134,134,134)" stroke-width="0.1"/>
  <path d="M 23.31098750000001,61.11283900000001 L 30.0709875,65.4068390000001" fill="none" stroke="rgb(134,134,134)" stroke-width="0.1"/>
  <path d="M 30.0709875,65.4068390000001 L 34.360987499999965,58.655839000000014" fill="none" stroke="rgb(134,134,134)" stroke-width="0.1"/>
  <path d="M 34.360987499999965,58.655839000000014 L 27.610987499999965,54.36283900000001" fill="none" stroke="rgb(134,134,134)" stroke-width="0.1"/>
 </g>
 <g id="layerDIM_LEAD" inkscape:groupmode="layer" inkscape:label="DIM_LEAD">
  <path d="M 88.02098750000005,92.78983900000003 L 99.65098749999993,76.57183900000007" fill="none" stroke="rgb(178,0,178)" stroke-width="0.1"/>
  <path d="M 99.65098749999993,76.57183900000007 L 100.0,76.57183900000007" fill="none" stroke="rgb(178,0,178)" stroke-width="0.1"/>
  <text fill="rgb(0,0,0)" font-family="Noto Sans CJK SC" font-size="2" transform="rotate(-0.0,87.62098749999996,74.73483900000008)" x="87.62098749999996" y="74.73483900000008">
   消防固定窗1800x1000
  </text>
 </g>
 <g id="layerDIM_SYMB" inkscape:groupmode="layer" inkscape:label="DIM_SYMB">
  <path d="M 0.0,98.86774958669002 L 2.240987500000074,99.35283900000002" fill="none" stroke="rgb(0,178,0)" stroke-width="0.1"/>
  <path d="M 0.0,98.14024485301843 L 2.42098749999991,98.66383900000005" fill="none" stroke="rgb(0,178,0)" stroke-width="0.1"/>
 </g>
 <g id="layerDOOR_FIRE" inkscape:groupmode="layer" inkscape:label="DOOR_FIRE">
  <path d="M 69.40098749999993,94.867839 A 9.50625,9.50625 0.0 0,0 56.41098749999992,97.58283900000004" fill="none" instance-id="2" semantic-id="4" stroke="rgb(0,178,178)" stroke-width="0.1"/>
  <path d="M 66.35098749999997,81.95183900000006 A 9.50625,9.50625 0.0 0,0 69.40098749999993,94.867839" fill="none" instance-id="2" semantic-id="4" stroke="rgb(0,178,178)" stroke-width="0.1"/>
  <path d="M 60.20374548118366,100.0 L 56.40098749999993,97.58083900000008" fill="none" instance-id="2" semantic-id="4" stroke="rgb(0,178,178)" stroke-width="0.1"/>
  <path d="M 56.40098749999993,97.58083900000008 L 56.14098749999994,97.99183900000003" fill="none" instance-id="2" semantic-id="4" stroke="rgb(0,178,178)" stroke-width="0.1"/>
  <path d="M 56.14098749999994,97.99183900000003 L 59.297681192669415,100.0" fill="none" instance-id="2" semantic-id="4" stroke="rgb(0,178,178)" stroke-width="0.1"/>
  <path d="M 74.37098749999996,87.05183900000009 L 74.63098749999995,86.64083900000003" fill="none" instance-id="2" semantic-id="4" stroke="rgb(0,178,178)" stroke-width="0.1"/>
  <path d="M 74.63098749999995,86.64083900000003 L 66.61098749999996,81.53883900000005" fill="none" instance-id="2" semantic-id="4" stroke="rgb(0,178,178)" stroke-width="0.1"/>
  <path d="M 66.61098749999996,81.53883900000005 L 66.35098749999997,81.94983900000011" fill="none" instance-id="2" semantic-id="4" stroke="rgb(0,178,178)" stroke-width="0.1"/>
  <path d="M 66.35098749999997,81.94983900000011 L 74.37098749999996,87.05183900000009" fill="none" instance-id="2" semantic-id="4" stroke="rgb(0,178,178)" stroke-width="0.1"/>
 </g>
 <g id="layerDOOR_FIRE_TEXT" inkscape:groupmode="layer" inkscape:label="DOOR_FIRE_TEXT">
  <text fill="rgb(0,0,0)" font-family="Noto Sans CJK SC" font-size="2" transform="rotate(-57.541,60.3209875,99.13383900000008)" x="60.3209875" y="99.13383900000008">
   FM乙19'21
  </text>
 </g>
 <g id="layerDOTE" inkscape:groupmode="layer" inkscape:label="DOTE">
  <path d="M 66.91804616017794,0.0 L 3.310923847721824,100.0" fill="none" stroke="rgb(63,63,63)" stroke-width="0.1"/>
  <path d="M 0.0,41.54656569409519 L 91.89848482660523,100.0" fill="none" stroke="rgb(63,63,63)" stroke-width="0.1"/>
 </g>
 <g id="layerP-立管" inkscape:groupmode="layer" inkscape:label="P-立管">
  <path d="M 31.630987499999947,62.94583900000009 L 32.55098750000002,67.08683900000005" fill="none" stroke="rgb(178,0,0)" stroke-width="0.1"/>
  <path d="M 30.020987500000047,65.47683900000004 L 34.16098749999992,64.5558390000001" fill="none" stroke="rgb(178,0,0)" stroke-width="0.1"/>
  <path d="M 30.020987500000047,65.47683900000004 L 31.630987499999947,62.94583900000009" fill="none" stroke="rgb(178,0,0)" stroke-width="0.1"/>
  <path d="M 31.630987499999947,62.94583900000009 L 34.16098749999992,64.5558390000001" fill="none" stroke="rgb(178,0,0)" stroke-width="0.1"/>
  <path d="M 34.16098749999992,64.5558390000001 L 32.55098750000002,67.08683900000005" fill="none" stroke="rgb(178,0,0)" stroke-width="0.1"/>
  <path d="M 32.55098750000002,67.08683900000005 L 30.020987500000047,65.47683900000004" fill="none" stroke="rgb(178,0,0)" stroke-width="0.1"/>
 </g>
 <g id="layerPUB_DIM" inkscape:groupmode="layer" inkscape:label="PUB_DIM">
  <path d="M 0.0,78.95276981804284 L 7.640987499999937,66.94683900000007" fill="none" stroke="rgb(21,88,0)" stroke-width="0.1"/>
  <path d="M 21.610987499999965,97.4838390000001 L 31.41098749999992,82.07083900000009" fill="none" stroke="rgb(21,88,0)" stroke-width="0.1"/>
  <path d="M 43.710763730295184,100.0 L 48.29098750000003,92.80283900000006" fill="none" stroke="rgb(21,88,0)" stroke-width="0.1"/>
  <path d="M 77.48098750000008,88.45183900000006 L 85.0709875,93.2818390000001" fill="none" stroke="rgb(21,88,0)" stroke-width="0.1"/>
  <path d="M 77.74098750000007,88.02983900000004 L 85.34098749999998,92.85983900000008" fill="none" stroke="rgb(21,88,0)" stroke-width="0.1"/>
  <path d="M 81.03098750000004,89.76883900000007 L 81.52098750000005,91.9648390000001" fill="none" stroke="rgb(21,88,0)" stroke-width="0.1"/>
  <path d="M 81.30098750000002,89.34683900000005 L 81.78098750000004,91.54283900000007" fill="none" stroke="rgb(21,88,0)" stroke-width="0.1"/>
  <path d="M 83.04098750000003,86.43883900000003 L 87.87098749999996,78.84483900000009" fill="none" stroke="rgb(178,0,178)" stroke-width="0.1"/>
  <path d="M 84.36098749999996,82.88683900000001 L 86.55098750000002,82.39783900000009" fill="none" stroke="rgb(178,0,178)" stroke-width="0.1"/>
  <path d="M 98.23098750000008,96.10183900000004 L 100.0,93.3204971935819" fill="none" stroke="rgb(178,0,178)" stroke-width="0.1"/>
  <path d="M 99.55098750000002,92.54883900000004 L 100.0,92.44923986363642" fill="none" stroke="rgb(178,0,178)" stroke-width="0.1"/>
  <path d="M 28.780987500000037,67.4068390000001 L 33.610987499999965,59.812839000000054" fill="none" stroke="rgb(0,178,178)" stroke-width="0.1"/>
  <path d="M 30.100987499999974,63.85383900000011 L 32.29098750000003,63.36583900000005" fill="none" stroke="rgb(0,178,178)" stroke-width="0.1"/>
  <path d="M 36.38098749999995,72.2388390000001 L 41.210987499999874,64.64483900000005" fill="none" stroke="rgb(0,178,178)" stroke-width="0.1"/>
  <path d="M 37.69098749999989,68.6858390000001 L 39.89098749999994,68.19783900000004" fill="none" stroke="rgb(0,178,178)" stroke-width="0.1"/>
  <path d="M 48.19098749999989,79.75283900000011 L 53.02098750000005,72.15883900000006" fill="none" stroke="rgb(0,178,178)" stroke-width="0.1"/>
  <path d="M 49.500987500000065,76.19983900000011 L 51.70098749999988,75.71183900000005" fill="none" stroke="rgb(0,178,178)" stroke-width="0.1"/>
  <path d="M 0.11098749999996471,49.165839000000005 L 4.940987499999892,41.57183900000007" fill="none" stroke="rgb(0,178,178)" stroke-width="0.1"/>
  <path d="M 1.4209874999999101,45.61283900000001 L 3.6209874999999556,45.124839000000065" fill="none" stroke="rgb(0,178,178)" stroke-width="0.1"/>
  <path d="M 10.230987500000083,55.604839000000084 L 15.06098750000001,48.01083900000003" fill="none" stroke="rgb(0,178,178)" stroke-width="0.1"/>
  <path d="M 11.540987500000028,52.051839000000086 L 13.740987500000074,51.56383900000003" fill="none" stroke="rgb(0,178,178)" stroke-width="0.1"/>
  <path d="M 22.04098750000003,63.118839000000094 L 26.870987499999956,55.52483900000004" fill="none" stroke="rgb(0,178,178)" stroke-width="0.1"/>
  <path d="M 23.360987499999965,59.565839000000096 L 25.55098750000002,59.07783900000004" fill="none" stroke="rgb(0,178,178)" stroke-width="0.1"/>
  <path d="M 20.850987499999974,97.00083900000004 L 22.370987499999956,97.96683900000005" fill="none" stroke="rgb(21,88,0)" stroke-width="0.1"/>
  <path d="M 22.370987499999956,97.96683900000005 L 20.4200363895593,100.0" fill="none" stroke="rgb(21,88,0)" stroke-width="0.1"/>
  <path d="M 19.687761504672835,100.0 L 20.850987499999974,97.00083900000004" fill="none" stroke="rgb(21,88,0)" stroke-width="0.1"/>
  <path d="M 75.46493036738798,100.0 L 81.27098750000005,90.86683900000003" fill="none" stroke="rgb(21,88,0)" stroke-width="0.1"/>
  <path d="M 81.27098750000005,90.86683900000003 L 81.54098750000003,90.444839" fill="none" stroke="rgb(21,88,0)" stroke-width="0.1"/>
  <path d="M 81.54098750000003,90.444839 L 74.05098750000002,85.68183900000008" fill="none" stroke="rgb(21,88,0)" stroke-width="0.1"/>
  <path d="M 23.080987499999992,50.30083900000011 L 52.78098750000004,42.77983900000004" fill="none" stroke="rgb(0,178,178)" stroke-width="0.1"/>
  <path d="M 52.78098750000004,42.77983900000004 L 48.31098750000001,67.24183900000003" fill="none" stroke="rgb(0,178,178)" stroke-width="0.1"/>
  <path d="M 48.31098750000001,67.24183900000003 L 52.78098750000004,42.77983900000004" fill="none" stroke="rgb(0,178,178)" stroke-width="0.1"/>
  <path d="M 52.78098750000004,42.77983900000004 L 93.12098749999996,42.77983900000004" fill="none" stroke="rgb(0,178,178)" stroke-width="0.1"/>
  <path d="M 80.79098750000003,89.96983900000009 L 85.46098749999987,82.641839" fill="none" stroke="rgb(178,0,178)" stroke-width="0.1"/>
  <path d="M 85.46098749999987,82.641839 L 100.0,91.89071838034897" fill="none" stroke="rgb(178,0,178)" stroke-width="0.1"/>
  <path d="M 35.48098750000008,56.881839000000014 L 31.200987499999883,63.60983900000008" fill="none" stroke="rgb(0,178,178)" stroke-width="0.1"/>
  <path d="M 31.200987499999883,63.60983900000008 L 38.79098750000003,68.44183900000007" fill="none" stroke="rgb(0,178,178)" stroke-width="0.1"/>
  <path d="M 38.79098750000003,68.44183900000007 L 50.600987499999974,75.95583900000008" fill="none" stroke="rgb(0,178,178)" stroke-width="0.1"/>
  <path d="M 50.600987499999974,75.95583900000008 L 54.88098749999995,69.22683900000004" fill="none" stroke="rgb(0,178,178)" stroke-width="0.1"/>
  <path d="M 27.610987499999965,54.36283900000001 L 24.450987499999883,59.32183900000007" fill="none" stroke="rgb(0,178,178)" stroke-width="0.1"/>
  <path d="M 24.450987499999883,59.32183900000007 L 12.640987499999937,51.80783900000006" fill="none" stroke="rgb(0,178,178)" stroke-width="0.1"/>
  <path d="M 12.640987499999937,51.80783900000006 L 2.5209875000000466,45.368839000000094" fill="none" stroke="rgb(0,178,178)" stroke-width="0.1"/>
  <path d="M 2.5209875000000466,45.368839000000094 L 0.0,43.76484004450333" fill="none" stroke="rgb(0,178,178)" stroke-width="0.1"/>
  <text fill="rgb(0,0,0)" font-family="Noto Sans CJK SC" font-size="2" transform="rotate(-0.0,7.6309874999999465,45.93183900000008)" x="7.6309874999999465" y="45.93183900000008">
   上
  </text>
  <text fill="rgb(0,0,0)" font-family="Noto Sans CJK SC" font-size="2" transform="rotate(-0.0,31.40098749999993,61.055839000000105)" x="31.40098749999993" y="61.055839000000105">
   上
  </text>
  <text fill="rgb(0,0,0)" font-family="Noto Sans CJK SC" font-size="2" transform="rotate(-0.0,48.28098750000004,71.78883900000005)" x="48.28098750000004" y="71.78883900000005">
   下
  </text>
  <text fill="rgb(0,0,0)" font-family="Noto Sans CJK SC" font-size="2" transform="rotate(-57.541,80.19098749999989,88.521839)" x="80.19098749999989" y="88.521839">
   50
  </text>
  <text fill="rgb(0,0,0)" font-family="Noto Sans CJK SC" font-size="2" transform="rotate(-0.0,56.710987499999874,41.30983900000001)" x="56.710987499999874" y="41.30983900000001">
   楼梯固定窗不小于1m%%172,2个上下
  </text>
  <text fill="rgb(0,0,0)" font-family="Noto Sans CJK SC" font-size="2" transform="rotate(-0.0,46.4309874999999,23.669839000000024)" x="46.4309874999999" y="23.669839000000024">
   下窗距地为1800高，上窗距地为3700
  </text>
  <text fill="rgb(0,0,0)" font-family="Noto Sans CJK SC" font-size="2" transform="rotate(-327.541,89.80098750000002,82.79483900000002)" x="89.80098750000002" y="82.79483900000002">
   1800
  </text>
  <text fill="rgb(0,0,0)" font-family="Noto Sans CJK SC" font-size="2" transform="rotate(-327.538,41.45098749999988,67.52083900000002)" x="41.45098749999988" y="67.52083900000002">
   1400
  </text>
  <text fill="rgb(0,0,0)" font-family="Noto Sans CJK SC" font-size="2" transform="rotate(-327.538,32.760987500000056,61.99183900000003)" x="32.760987500000056" y="61.99183900000003">
   900
  </text>
  <text fill="rgb(0,0,0)" font-family="Noto Sans CJK SC" font-size="2" transform="rotate(-327.538,4.340987499999983,43.909839000000034)" x="4.340987499999983" y="43.909839000000034">
   1200
  </text>
  <text fill="rgb(0,0,0)" font-family="Noto Sans CJK SC" font-size="2" transform="rotate(-327.538,15.30098750000002,50.88683900000001)" x="15.30098750000002" y="50.88683900000001">
   1400
  </text>
 </g>
 <g id="layerPUB_HATCH" inkscape:groupmode="layer" inkscape:label="PUB_HATCH">
  <path d="M 27.690987499999892,59.83083900000008 L 30.990987500000074,56.52883900000006" fill="none" stroke="rgb(0,0,0)" stroke-width="0.1"/>
  <path d="M 24.600987499999974,64.68783900000005 L 31.110987499999965,58.17483900000002" fill="none" stroke="rgb(0,0,0)" stroke-width="0.1"/>
  <path d="M 21.510987500000056,69.54483900000002 L 28.020987500000047,63.03283900000008" fill="none" stroke="rgb(0,0,0)" stroke-width="0.1"/>
  <path d="M 18.42098749999991,74.40283900000009 L 24.9309874999999,67.88983900000005" fill="none" stroke="rgb(0,0,0)" stroke-width="0.1"/>
  <path d="M 15.330987499999992,79.25983900000006 L 21.840987499999983,72.74683900000002" fill="none" stroke="rgb(0,0,0)" stroke-width="0.1"/>
  <path d="M 12.240987500000074,84.117839 L 18.750987500000065,77.60483900000008" fill="none" stroke="rgb(0,0,0)" stroke-width="0.1"/>
  <path d="M 9.150987499999928,88.97483900000009 L 15.66098749999992,82.46183900000005" fill="none" stroke="rgb(0,0,0)" stroke-width="0.1"/>
  <path d="M 6.06098750000001,93.83183900000006 L 12.570987500000001,87.31883900000003" fill="none" stroke="rgb(0,0,0)" stroke-width="0.1"/>
  <path d="M 2.970987500000092,98.689839 L 9.480987500000083,92.17683900000009" fill="none" stroke="rgb(0,0,0)" stroke-width="0.1"/>
  <path d="M 3.4261927648549317,100.0 L 6.390987499999937,97.03383900000006" fill="none" stroke="rgb(0,0,0)" stroke-width="0.1"/>
  <path d="M 23.31098750000001,61.11283900000001 L 30.0709875,65.4068390000001" fill="none" stroke="rgb(89,89,89)" stroke-width="0.1"/>
  <path d="M 30.0709875,65.4068390000001 L 34.360987499999965,58.655839000000014" fill="none" stroke="rgb(89,89,89)" stroke-width="0.1"/>
  <path d="M 34.360987499999965,58.655839000000014 L 27.610987499999965,54.36283900000001" fill="none" stroke="rgb(89,89,89)" stroke-width="0.1"/>
  <path d="M 27.610987499999965,54.36283900000001 L 23.31098750000001,61.11283900000001" fill="none" stroke="rgb(89,89,89)" stroke-width="0.1"/>
  <path d="M 4.509005461425886,100.0 L 31.29098750000003,57.88983900000005" fill="none" stroke="rgb(0,0,0)" stroke-width="0.1"/>
  <path d="M 31.29098750000003,57.88983900000005 L 30.980987500000083,56.50883900000008" fill="none" stroke="rgb(0,0,0)" stroke-width="0.1"/>
  <path d="M 30.980987500000083,56.50883900000008 L 29.600987499999974,56.815839000000096" fill="none" stroke="rgb(0,0,0)" stroke-width="0.1"/>
  <path d="M 29.600987499999974,56.815839000000096 L 2.1359435109045535,100.0" fill="none" stroke="rgb(0,0,0)" stroke-width="0.1"/>
 </g>
 <g id="layerSTAIR" inkscape:groupmode="layer" inkscape:label="STAIR">
  <path d="M 35.260987500000056,92.64783900000009 L 16.700987499999883,80.843839" fill="none" stroke="rgb(178,178,0)" stroke-width="0.1"/>
  <path d="M 36.95098749999988,93.72183900000005 L 46.824190273579006,100.0" fill="none" stroke="rgb(178,178,0)" stroke-width="0.1"/>
  <path d="M 38.27098750000005,87.92283900000007 L 19.710987499999874,76.117839" fill="none" stroke="rgb(178,178,0)" stroke-width="0.1"/>
  <path d="M 36.77098750000005,90.28583900000001 L 18.200987499999883,78.48083900000006" fill="none" stroke="rgb(178,178,0)" stroke-width="0.1"/>
  <path d="M 33.760987500000056,95.01083900000003 L 15.200987499999883,83.20583900000008" fill="none" stroke="rgb(178,178,0)" stroke-width="0.1"/>
  <path d="M 32.260987500000056,97.37383900000009 L 13.700987499999883,85.56883900000003" fill="none" stroke="rgb(178,178,0)" stroke-width="0.1"/>
  <path d="M 30.760987500000056,99.73583900000006 L 12.190987499999892,87.9308390000001" fill="none" stroke="rgb(178,178,0)" stroke-width="0.1"/>
  <path d="M 25.951160999364674,100.0 L 10.690987499999892,90.29383900000005" fill="none" stroke="rgb(178,178,0)" stroke-width="0.1"/>
  <path d="M 20.73661075597147,100.0 L 9.190987499999892,92.65583900000001" fill="none" stroke="rgb(178,178,0)" stroke-width="0.1"/>
  <path d="M 15.516000185922167,100.0 L 7.680987499999901,95.01883900000007" fill="none" stroke="rgb(178,178,0)" stroke-width="0.1"/>
  <path d="M 10.299517764294706,100.0 L 6.180987499999901,97.38183900000001" fill="none" stroke="rgb(178,178,0)" stroke-width="0.1"/>
  <path d="M 9.255867429328646,100.0 L 23.080987499999992,78.26383900000008" fill="none" stroke="rgb(178,178,0)" stroke-width="0.1"/>
  <path d="M 30.589540192712093,100.0 L 38.27098750000005,87.92283900000007" fill="none" stroke="rgb(178,178,0)" stroke-width="0.1"/>
  <path d="M 0.0,66.89860493090873 L 16.440987499999892,77.35983900000008" fill="none" stroke="rgb(178,178,0)" stroke-width="0.1"/>
  <path d="M 39.960987499999874,88.99583900000005 L 55.15098749999993,98.65483900000004" fill="none" stroke="rgb(178,178,0)" stroke-width="0.1"/>
  <path d="M 38.45098749999988,91.3588390000001 L 52.04030684879376,100.0" fill="none" stroke="rgb(178,178,0)" stroke-width="0.1"/>
  <path d="M 35.45098749999988,96.08383900000001 L 41.609646324930054,100.0" fill="none" stroke="rgb(178,178,0)" stroke-width="0.1"/>
  <path d="M 33.95098749999988,98.44683900000007 L 36.39352974971507,100.0" fill="none" stroke="rgb(178,178,0)" stroke-width="0.1"/>
  <path d="M 32.96200132415834,100.0 L 39.960987499999874,88.99583900000005" fill="none" stroke="rgb(178,178,0)" stroke-width="0.1"/>
  <path d="M 0.0,63.58119979367234 L 17.940987499999892,74.997839" fill="none" stroke="rgb(178,178,0)" stroke-width="0.1"/>
  <path d="M 0.0,70.2152317028125 L 14.940987499999892,79.72283900000002" fill="none" stroke="rgb(178,178,0)" stroke-width="0.1"/>
  <path d="M 0.0,73.53737095000008 L 13.440987499999892,82.08583900000008" fill="none" stroke="rgb(178,178,0)" stroke-width="0.1"/>
  <path d="M 0.0,76.85562705164966 L 11.930987499999901,84.44783900000004" fill="none" stroke="rgb(178,178,0)" stroke-width="0.1"/>
  <path d="M 0.0,80.17314300621968 L 10.430987499999901,86.8108390000001" fill="none" stroke="rgb(178,178,0)" stroke-width="0.1"/>
  <path d="M 0.0,83.49273095000012 L 8.930987499999901,89.17283900000007" fill="none" stroke="rgb(178,178,0)" stroke-width="0.1"/>
  <path d="M 0.0,86.80973095000013 L 7.430987499999901,91.53583900000001" fill="none" stroke="rgb(178,178,0)" stroke-width="0.1"/>
  <path d="M 0.0,90.13005430962698 L 5.92098749999991,93.89783900000009" fill="none" stroke="rgb(178,178,0)" stroke-width="0.1"/>
  <path d="M 0.0,93.44733116265559 L 4.42098749999991,96.26083900000003" fill="none" stroke="rgb(178,178,0)" stroke-width="0.1"/>
  <path d="M 55.15098749999993,98.65583900000001 A 18.9938,18.9938 0.0 0,0 23.100987499999974,78.26383900000008" fill="none" stroke="rgb(178,178,0)" stroke-width="0.1"/>
  <path d="M 14.630987499999947,72.89083900000003 L 14.892264993341087,72.46431813045376" fill="none" stroke="rgb(178,178,0)" stroke-width="0.1"/>
  <path d="M 14.892264993341087,72.46431813045376 L 15.142220791106638,72.03106522527173" fill="none" stroke="rgb(178,178,0)" stroke-width="0.1"/>
  <path d="M 15.142220791106638,72.03106522527173 L 15.380681551830776,71.59138074035104" fill="none" stroke="rgb(178,178,0)" stroke-width="0.1"/>
  <path d="M 15.380681551830776,71.59138074035104 L 15.607481905724399,71.14556959181493" fill="none" stroke="rgb(178,178,0)" stroke-width="0.1"/>
  <path d="M 15.607481905724399,71.14556959181493 L 15.822464569355134,70.69394094455765" fill="none" stroke="rgb(178,178,0)" stroke-width="0.1"/>
  <path d="M 15.822464569355134,70.69394094455765 L 16.025480454723493,70.23680799784154" fill="none" stroke="rgb(178,178,0)" stroke-width="0.1"/>
  <path d="M 16.025480454723493,70.23680799784154 L 16.216388772652408,69.77448776809729" fill="none" stroke="rgb(178,178,0)" stroke-width="0.1"/>
  <path d="M 16.216388772652408,69.77448776809729 L 16.39505713042331,69.30730086907647" fill="none" stroke="rgb(178,178,0)" stroke-width="0.1"/>
  <path d="M 16.39505713042331,69.30730086907647 L 16.561361623589164,68.83557128950986" fill="none" stroke="rgb(178,178,0)" stroke-width="0.1"/>
  <path d="M 16.561361623589164,68.83557128950986 L 16.71518692190034,68.35962616842482" fill="none" stroke="rgb(178,178,0)" stroke-width="0.1"/>
  <path d="M 16.71518692190034,68.35962616842482 L 16.85642634928513,67.87979556827804" fill="none" stroke="rgb(178,178,0)" stroke-width="0.1"/>
  <path d="M 16.85642634928513,67.87979556827804 L 16.984981957828268,67.39641224606123" fill="none" stroke="rgb(178,178,0)" stroke-width="0.1"/>
  <path d="M 16.984981957828268,67.39641224606123 L 17.100764595696546,66.90981142253804" fill="none" stroke="rgb(178,178,0)" stroke-width="0.1"/>
  <path d="M 17.100764595696546,66.90981142253804 L 17.203693968965126,66.42033054977196" fill="none" stroke="rgb(178,178,0)" stroke-width="0.1"/>
  <path d="M 17.203693968965126,66.42033054977196 L 17.293698697299533,65.92830907710777" fill="none" stroke="rgb(178,178,0)" stroke-width="0.1"/>
  <path d="M 17.293698697299533,65.92830907710777 L 17.37071636345786,65.43408821576656" fill="none" stroke="rgb(178,178,0)" stroke-width="0.1"/>
  <path d="M 17.37071636345786,65.43408821576656 L 17.43469355657635,64.93801070222071" fill="none" stroke="rgb(178,178,0)" stroke-width="0.1"/>
  <path d="M 17.43469355657635,64.93801070222071 L 17.485585909208794,64.44042056050887" fill="none" stroke="rgb(178,178,0)" stroke-width="0.1"/>
  <path d="M 17.485585909208794,64.44042056050887 L 17.52335812809497,63.941662863660326" fill="none" stroke="rgb(178,178,0)" stroke-width="0.1"/>
  <path d="M 17.52335812809497,63.941662863660326 L 17.547984018636498,63.44208349439032" fill="none" stroke="rgb(178,178,0)" stroke-width="0.1"/>
  <path d="M 17.547984018636498,63.44208349439032 L 17.559446503061963,62.942028905234224" fill="none" stroke="rgb(178,178,0)" stroke-width="0.1"/>
  <path d="M 17.559446503061963,62.942028905234224 L 17.557737632270573,62.44184587828727" fill="none" stroke="rgb(178,178,0)" stroke-width="0.1"/>
  <path d="M 17.557737632270573,62.44184587828727 L 17.54285859134461,61.941881284714555" fill="none" stroke="rgb(178,178,0)" stroke-width="0.1"/>
  <path d="M 17.54285859134461,61.941881284714555 L 17.51481969872725,61.44248184420019" fill="none" stroke="rgb(178,178,0)" stroke-width="0.1"/>
  <path d="M 17.51481969872725,61.44248184420019 L 17.473640399067563,60.94399388450131" fill="none" stroke="rgb(178,178,0)" stroke-width="0.1"/>
  <path d="M 17.473640399067563,60.94399388450131 L 17.419349249735433,60.446763101273405" fill="none" stroke="rgb(178,178,0)" stroke-width="0.1"/>
  <path d="M 17.419349249735433,60.446763101273405 L 17.351983901017093,59.95113431833465" fill="none" stroke="rgb(178,178,0)" stroke-width="0.1"/>
  <path d="M 17.351983901017093,59.95113431833465 L 17.27159107000557,59.45745124853465" fill="none" stroke="rgb(178,178,0)" stroke-width="0.1"/>
  <path d="M 17.27159107000557,59.45745124853465 L 17.178226508203124,58.96605625539303" fill="none" stroke="rgb(178,178,0)" stroke-width="0.1"/>
  <path d="M 17.178226508203124,58.96605625539303 L 17.071954962856807,58.47729011567492" fill="none" stroke="rgb(178,178,0)" stroke-width="0.1"/>
  <path d="M 17.071954962856807,58.47729011567492 L 16.95285013205921,57.991491783065726" fill="none" stroke="rgb(178,178,0)" stroke-width="0.1"/>
  <path d="M 16.95285013205921,57.991491783065726 L 16.820994613637595,57.50899815311084" fill="none" stroke="rgb(178,178,0)" stroke-width="0.1"/>
  <path d="M 16.820994613637595,57.50899815311084 L 16.676479847874816,57.03014382958247" fill="none" stroke="rgb(178,178,0)" stroke-width="0.1"/>
  <path d="M 16.676479847874816,57.03014382958247 L 16.51940605409527,56.55526089243597" fill="none" stroke="rgb(178,178,0)" stroke-width="0.1"/>
  <path d="M 16.51940605409527,56.55526089243597 L 16.34988216116517,56.084678667515504" fill="none" stroke="rgb(178,178,0)" stroke-width="0.1"/>
  <path d="M 16.34988216116517,56.084678667515504 L 16.168025731950593,55.61872349817145" fill="none" stroke="rgb(178,178,0)" stroke-width="0.1"/>
  <path d="M 16.168025731950593,55.61872349817145 L 15.973962881789248,55.157718518943966" fill="none" stroke="rgb(178,178,0)" stroke-width="0.1"/>
  <path d="M 15.973962881789248,55.157718518943966 L 15.767828191031867,54.70198343147365" fill="none" stroke="rgb(178,178,0)" stroke-width="0.1"/>
  <path d="M 15.767828191031867,54.70198343147365 L 15.549764611710543,54.25183428279195" fill="none" stroke="rgb(178,178,0)" stroke-width="0.1"/>
  <path d="M 15.549764611710543,54.25183428279195 L 15.319923368404943,53.80758324614601" fill="none" stroke="rgb(178,178,0)" stroke-width="0.1"/>
  <path d="M 15.319923368404943,53.80758324614601 L 15.078463853368703,53.36953840451031" fill="none" stroke="rgb(178,178,0)" stroke-width="0.1"/>
  <path d="M 15.078463853368703,53.36953840451031 L 14.825553515992624,52.938003536934616" fill="none" stroke="rgb(178,178,0)" stroke-width="0.1"/>
  <path d="M 14.825553515992624,52.938003536934616 L 14.561367746681526,52.51327790787661" fill="none" stroke="rgb(178,178,0)" stroke-width="0.1"/>
  <path d="M 14.561367746681526,52.51327790787661 L 14.286089755221838,52.09565605966566" fill="none" stroke="rgb(178,178,0)" stroke-width="0.1"/>
  <path d="M 14.286089755221838,52.09565605966566 L 13.999910443728595,51.68542760824073" fill="none" stroke="rgb(178,178,0)" stroke-width="0.1"/>
  <path d="M 13.999910443728595,51.68542760824073 L 13.703028274255985,51.28287704230581" fill="none" stroke="rgb(178,178,0)" stroke-width="0.1"/>
  <path d="M 13.703028274255985,51.28287704230581 L 13.39564913116783,50.88828352603923" fill="none" stroke="rgb(178,178,0)" stroke-width="0.1"/>
  <path d="M 13.39564913116783,50.88828352603923 L 13.077986178357605,50.501920705497355" fill="none" stroke="rgb(178,178,0)" stroke-width="0.1"/>
  <path d="M 13.077986178357605,50.501920705497355 L 12.750259711422132,50.12405651884387" fill="none" stroke="rgb(178,178,0)" stroke-width="0.1"/>
  <path d="M 12.750259711422132,50.12405651884387 L 12.412697004889878,49.75495301053786" fill="none" stroke="rgb(178,178,0)" stroke-width="0.1"/>
  <path d="M 12.412697004889878,49.75495301053786 L 12.065532154607581,49.3948661496089" fill="none" stroke="rgb(178,178,0)" stroke-width="0.1"/>
  <path d="M 12.065532154607581,49.3948661496089 L 11.709005915398393,49.044045652145314" fill="none" stroke="rgb(178,178,0)" stroke-width="0.1"/>
  <path d="M 11.709005915398393,49.044045652145314 L 11.343365534100712,48.70273480811943" fill="none" stroke="rgb(178,178,0)" stroke-width="0.1"/>
  <path d="M 11.343365534100712,48.70273480811943 L 10.96886457810524,48.371170312668255" fill="none" stroke="rgb(178,178,0)" stroke-width="0.1"/>
  <path d="M 10.96886457810524,48.371170312668255 L 10.585762759509407,48.04958210194866" fill="none" stroke="rgb(178,178,0)" stroke-width="0.1"/>
  <path d="M 10.585762759509407,48.04958210194866 L 10.194325755009686,47.73819319367885" fill="none" stroke="rgb(178,178,0)" stroke-width="0.1"/>
  <path d="M 10.194325755009686,47.73819319367885 L 9.794825021657743,47.43721953247825" fill="none" stroke="rgb(178,178,0)" stroke-width="0.1"/>
  <path d="M 9.794825021657743,47.43721953247825 L 9.387537608608454,47.14686984011257" fill="none" stroke="rgb(178,178,0)" stroke-width="0.1"/>
  <path d="M 9.387537608608454,47.14686984011257 L 8.972745964989144,46.86734547074764" fill="none" stroke="rgb(178,178,0)" stroke-width="0.1"/>
  <path d="M 8.972745964989144,46.86734547074764 L 8.5507377440249,46.59884027131227" fill="none" stroke="rgb(178,178,0)" stroke-width="0.1"/>
  <path d="M 8.5507377440249,46.59884027131227 L 8.12180560355364,46.341540447068155" fill="none" stroke="rgb(178,178,0)" stroke-width="0.1"/>
  <path d="M 8.12180560355364,46.341540447068155 L 7.68624700307214,46.09562443247842" fill="none" stroke="rgb(178,178,0)" stroke-width="0.1"/>
  <path d="M 7.68624700307214,46.09562443247842 L 7.244363997450364,45.861262767465064" fill="none" stroke="rgb(178,178,0)" stroke-width="0.1"/>
  <path d="M 7.244363997450364,45.861262767465064 L 6.796463027460277,45.63861797914228" fill="none" stroke="rgb(178,178,0)" stroke-width="0.1"/>
  <path d="M 6.796463027460277,45.63861797914228 L 6.342854707263541,45.42784446910491" fill="none" stroke="rgb(178,178,0)" stroke-width="0.1"/>
  <path d="M 6.342854707263541,45.42784446910491 L 5.883853609002472,45.22908840635341" fill="none" stroke="rgb(178,178,0)" stroke-width="0.1"/>
  <path d="M 5.883853609002472,45.22908840635341 L 5.4197780446497745,45.0424876259267" fill="none" stroke="rgb(178,178,0)" stroke-width="0.1"/>
  <path d="M 5.4197780446497745,45.0424876259267 L 4.950949845260993,44.86817153331572" fill="none" stroke="rgb(178,178,0)" stroke-width="0.1"/>
  <path d="M 4.950949845260993,44.86817153331572 L 4.4776941377899675,44.70626101472192" fill="none" stroke="rgb(178,178,0)" stroke-width="0.1"/>
  <path d="M 4.4776941377899675,44.70626101472192 L 4.000339119616001,44.55686835322422" fill="none" stroke="rgb(178,178,0)" stroke-width="0.1"/>
  <path d="M 4.000339119616001,44.55686835322422 L 3.519215830943267,44.420097150911715" fill="none" stroke="rgb(178,178,0)" stroke-width="0.1"/>
  <path d="M 3.519215830943267,44.420097150911715 L 3.0346579252282027,44.296042257037016" fill="none" stroke="rgb(178,178,0)" stroke-width="0.1"/>
  <path d="M 3.0346579252282027,44.296042257037016 L 2.5470014377945063,44.18478970223953" fill="none" stroke="rgb(178,178,0)" stroke-width="0.1"/>
  <path d="M 2.5470014377945063,44.18478970223953 L 2.0565845527962665,44.08641663888386" fill="none" stroke="rgb(178,178,0)" stroke-width="0.1"/>
  <path d="M 2.0565845527962665,44.08641663888386 L 1.5637473686922476,44.00099128755596" fill="none" stroke="rgb(178,178,0)" stroke-width="0.1"/>
  <path d="M 1.5637473686922476,44.00099128755596 L 1.0688316623898118,43.92857288975256" fill="none" stroke="rgb(178,178,0)" stroke-width="0.1"/>
  <path d="M 1.0688316623898118,43.92857288975256 L 0.5721806522280986,43.86921166679781" fill="none" stroke="rgb(178,178,0)" stroke-width="0.1"/>
  <path d="M 0.5721806522280986,43.86921166679781 L 0.07413875995962371,43.82294878501591" fill="none" stroke="rgb(178,178,0)" stroke-width="0.1"/>
  <path d="M 8.665408065371139,100.0 L 22.66098749999992,77.99583900000005" fill="none" stroke="rgb(178,178,0)" stroke-width="0.1"/>
  <path d="M 22.66098749999992,77.99583900000005 L 23.080987499999992,78.26383900000008" fill="none" stroke="rgb(178,178,0)" stroke-width="0.1"/>
  <path d="M 23.080987499999992,78.26383900000008 L 9.255867429328646,100.0" fill="none" stroke="rgb(178,178,0)" stroke-width="0.1"/>
  <path d="M 31.182136351339068,100.0 L 38.69098749999989,88.1908390000001" fill="none" stroke="rgb(178,178,0)" stroke-width="0.1"/>
  <path d="M 38.69098749999989,88.1908390000001 L 38.27098750000005,87.92283900000007" fill="none" stroke="rgb(178,178,0)" stroke-width="0.1"/>
  <path d="M 38.27098750000005,87.92283900000007 L 30.589540192712093,100.0" fill="none" stroke="rgb(178,178,0)" stroke-width="0.1"/>
  <path d="M 54.886528277719435,100.0 L 55.5709875,98.92383900000004" fill="none" stroke="rgb(178,178,0)" stroke-width="0.1"/>
  <path d="M 55.5709875,98.92383900000004 L 55.15098749999993,98.65483900000004" fill="none" stroke="rgb(178,178,0)" stroke-width="0.1"/>
  <path d="M 55.15098749999993,98.65483900000004 L 54.29543907192806,100.0" fill="none" stroke="rgb(178,178,0)" stroke-width="0.1"/>
  <path d="M 32.37154504901605,100.0 L 39.54098750000003,88.72783900000002" fill="none" stroke="rgb(178,178,0)" stroke-width="0.1"/>
  <path d="M 39.54098750000003,88.72783900000002 L 39.960987499999874,88.99583900000005" fill="none" stroke="rgb(178,178,0)" stroke-width="0.1"/>
  <path d="M 39.960987499999874,88.99583900000005 L 32.96200132415834,100.0" fill="none" stroke="rgb(178,178,0)" stroke-width="0.1"/>
  <path d="M 0.0,96.83991279629629 L 15.06098750000001,73.16283900000008" fill="none" stroke="rgb(178,178,0)" stroke-width="0.1"/>
  <path d="M 15.06098750000001,73.16283900000008 L 14.640987499999937,72.89383900000007" fill="none" stroke="rgb(178,178,0)" stroke-width="0.1"/>
  <path d="M 14.640987499999937,72.89383900000007 L 0.0,95.9110564141738" fill="none" stroke="rgb(178,178,0)" stroke-width="0.1"/>
 </g>
 <g id="layerWALL" inkscape:groupmode="layer" inkscape:label="WALL">
  <path d="M 54.86588194877436,100.0 L 55.870987499999956,98.41983900000002" fill="none" instance-id="-1" semantic-id="1" stroke="rgb(0,0,0)" stroke-width="0.1"/>
  <path d="M 31.180404755250038,100.0 L 38.69098749999989,88.1908390000001" fill="none" instance-id="-1" semantic-id="1" stroke="rgb(0,0,0)" stroke-width="0.1"/>
  <path d="M 32.37193477028927,100.0 L 39.54098750000003,88.72783900000002" fill="none" instance-id="-1" semantic-id="1" stroke="rgb(0,0,0)" stroke-width="0.1"/>
  <path d="M 38.69098749999989,88.1908390000001 L 39.54098750000003,88.72783900000002" fill="none" instance-id="-1" semantic-id="1" stroke="rgb(0,0,0)" stroke-width="0.1"/>
  <path d="M 58.35741221619537,100.0 L 55.870987499999956,98.41983900000002" fill="none" instance-id="-1" semantic-id="1" stroke="rgb(0,0,0)" stroke-width="0.1"/>
  <path d="M 73.78098750000004,86.10383900000011 L 74.3209875,85.25983900000006" fill="none" instance-id="-1" semantic-id="1" stroke="rgb(0,0,0)" stroke-width="0.1"/>
  <path d="M 75.47098750000009,87.17783900000006 L 76.01098750000006,86.33383900000001" fill="none" instance-id="-1" semantic-id="1" stroke="rgb(0,0,0)" stroke-width="0.1"/>
  <path d="M 73.78098750000004,86.10383900000011 L 75.47098750000009,87.17783900000006" fill="none" instance-id="-1" semantic-id="1" stroke="rgb(0,0,0)" stroke-width="0.1"/>
  <path d="M 74.3209875,85.25983900000006 L 53.22098750000009,71.8398390000001" fill="none" instance-id="-1" semantic-id="1" stroke="rgb(0,0,0)" stroke-width="0.1"/>
  <path d="M 76.24098750000007,84.10983900000008 L 54.30098750000002,70.15183900000011" fill="none" instance-id="-1" semantic-id="1" stroke="rgb(0,0,0)" stroke-width="0.1"/>
  <path d="M 53.22098750000009,71.8398390000001 L 54.30098750000002,70.15183900000011" fill="none" instance-id="-1" semantic-id="1" stroke="rgb(0,0,0)" stroke-width="0.1"/>
  <path d="M 41.41098749999992,64.32583900000009 L 31.29098750000003,57.88983900000005" fill="none" instance-id="-1" semantic-id="1" stroke="rgb(0,0,0)" stroke-width="0.1"/>
  <path d="M 42.48098750000008,62.638839000000075 L 31.520987500000047,55.665839000000005" fill="none" instance-id="-1" semantic-id="1" stroke="rgb(0,0,0)" stroke-width="0.1"/>
  <path d="M 41.41098749999992,64.32583900000009 L 42.48098750000008,62.638839000000075" fill="none" instance-id="-1" semantic-id="1" stroke="rgb(0,0,0)" stroke-width="0.1"/>
  <path d="M 29.600987499999974,56.815839000000096 L 27.0709875,55.20683900000006" fill="none" instance-id="-1" semantic-id="1" stroke="rgb(0,0,0)" stroke-width="0.1"/>
  <path d="M 31.520987500000047,55.665839000000005 L 28.15098749999993,53.51883900000007" fill="none" instance-id="-1" semantic-id="1" stroke="rgb(0,0,0)" stroke-width="0.1"/>
  <path d="M 27.0709875,55.20683900000006 L 28.15098749999993,53.51883900000007" fill="none" instance-id="-1" semantic-id="1" stroke="rgb(0,0,0)" stroke-width="0.1"/>
  <path d="M 15.260987500000056,47.69283900000005 L 0.0,37.98525722268994" fill="none" instance-id="-1" semantic-id="1" stroke="rgb(0,0,0)" stroke-width="0.1"/>
  <path d="M 16.330987499999992,46.00583900000004 L 0.0,35.616168354757974" fill="none" instance-id="-1" semantic-id="1" stroke="rgb(0,0,0)" stroke-width="0.1"/>
  <path d="M 15.260987500000056,47.69283900000005 L 16.330987499999992,46.00583900000004" fill="none" instance-id="-1" semantic-id="1" stroke="rgb(0,0,0)" stroke-width="0.1"/>
  <path d="M 2.1359435109045535,100.0 L 29.600987499999974,56.815839000000096" fill="none" instance-id="-1" semantic-id="1" stroke="rgb(0,0,0)" stroke-width="0.1"/>
  <path d="M 4.509005461425886,100.0 L 31.29098750000003,57.88983900000005" fill="none" instance-id="-1" semantic-id="1" stroke="rgb(0,0,0)" stroke-width="0.1"/>
  <path d="M 97.49458490731331,100.0 L 96.25098750000006,99.20883900000001" fill="none" instance-id="-1" semantic-id="1" stroke="rgb(0,0,0)" stroke-width="0.1"/>
  <path d="M 100.0,99.22553644464472 L 97.3209875,97.521839" fill="none" instance-id="-1" semantic-id="1" stroke="rgb(0,0,0)" stroke-width="0.1"/>
  <path d="M 96.25098750000006,99.20883900000001 L 97.3209875,97.521839" fill="none" instance-id="-1" semantic-id="1" stroke="rgb(0,0,0)" stroke-width="0.1"/>
  <path d="M 81.06098750000001,89.54883900000004 L 76.01098750000006,86.33383900000001" fill="none" instance-id="-1" semantic-id="1" stroke="rgb(0,0,0)" stroke-width="0.1"/>
  <path d="M 82.14098749999994,87.86083900000006 L 76.24098750000007,84.10983900000008" fill="none" instance-id="-1" semantic-id="1" stroke="rgb(0,0,0)" stroke-width="0.1"/>
  <path d="M 81.06098750000001,89.54883900000004 L 82.14098749999994,87.86083900000006" fill="none" instance-id="-1" semantic-id="1" stroke="rgb(0,0,0)" stroke-width="0.1"/>
 </g>
 <g id="layerWINDOW" inkscape:groupmode="layer" inkscape:label="WINDOW">
  <path d="M 96.25098750000006,99.20883900000001 L 97.3209875,97.521839" fill="none" instance-id="-1" semantic-id="1" stroke="rgb(178,0,178)" stroke-width="0.1"/>
  <path d="M 97.3209875,97.521839 L 82.14098749999994,87.86083900000006" fill="none" instance-id="-1" semantic-id="1" stroke="rgb(178,0,178)" stroke-width="0.1"/>
  <path d="M 82.14098749999994,87.86083900000006 L 81.06098750000001,89.54883900000004" fill="none" instance-id="-1" semantic-id="1" stroke="rgb(178,0,178)" stroke-width="0.1"/>
  <path d="M 81.06098750000001,89.54883900000004 L 96.25098750000006,99.20883900000001" fill="none" instance-id="-1" semantic-id="1" stroke="rgb(178,0,178)" stroke-width="0.1"/>
  <path d="M 53.22098750000009,71.8398390000001 L 54.30098750000002,70.15183900000011" fill="none" instance-id="-1" semantic-id="1" stroke="rgb(0,178,178)" stroke-width="0.1"/>
  <path d="M 54.30098750000002,70.15183900000011 L 42.48098750000008,62.638839000000075" fill="none" instance-id="-1" semantic-id="1" stroke="rgb(0,178,178)" stroke-width="0.1"/>
  <path d="M 42.48098750000008,62.638839000000075 L 41.41098749999992,64.32583900000009" fill="none" instance-id="-1" semantic-id="1" stroke="rgb(0,178,178)" stroke-width="0.1"/>
  <path d="M 41.41098749999992,64.32583900000009 L 53.22098750000009,71.8398390000001" fill="none" instance-id="-1" semantic-id="1" stroke="rgb(0,178,178)" stroke-width="0.1"/>
  <path d="M 27.0709875,55.20683900000006 L 28.15098749999993,53.51883900000007" fill="none" instance-id="-1" semantic-id="1" stroke="rgb(0,178,178)" stroke-width="0.1"/>
  <path d="M 28.15098749999993,53.51883900000007 L 16.330987499999992,46.00583900000004" fill="none" instance-id="-1" semantic-id="1" stroke="rgb(0,178,178)" stroke-width="0.1"/>
  <path d="M 16.330987499999992,46.00583900000004 L 15.260987500000056,47.69283900000005" fill="none" instance-id="-1" semantic-id="1" stroke="rgb(0,178,178)" stroke-width="0.1"/>
  <path d="M 15.260987500000056,47.69283900000005 L 27.0709875,55.20683900000006" fill="none" instance-id="-1" semantic-id="1" stroke="rgb(0,178,178)" stroke-width="0.1"/>
 </g>
 <g id="layerWINDOW_TEXT" inkscape:groupmode="layer" inkscape:label="WINDOW_TEXT">
  <text fill="rgb(0,0,0)" font-family="Noto Sans CJK SC" font-size="2" transform="rotate(32.4591,79.59098749999998,95.7148390000001)" x="79.59098749999998" y="95.7148390000001">
   D1810
  </text>
  <text fill="rgb(0,0,0)" font-family="Noto Sans CJK SC" font-size="2" transform="rotate(32.4591,45.240987500000074,59.64983900000004)" x="45.240987500000074" y="59.64983900000004">
   D1407'
  </text>
  <text fill="rgb(0,0,0)" font-family="Noto Sans CJK SC" font-size="2" transform="rotate(32.4591,19.090987499999983,43.017839000000095)" x="19.090987499999983" y="43.017839000000095">
   D1407'
  </text>
 </g>
 <g id="layergeberit--虹吸雨水管" inkscape:groupmode="layer" inkscape:label="geberit--虹吸雨水管">
  <circle cx="32.09098749999998" cy="65.016839" fill="none" r="1" stroke="rgb(0,178,178)" stroke-width="0.1"/>
 </g>
 <g id="layer梁投影线" inkscape:groupmode="layer" inkscape:label="梁投影线">
  <path d="M 5.6914252153269445,100.0 L 28.380987499999947,64.33183900000006" fill="none" stroke="rgb(121,121,121)" stroke-width="0.1"/>
 </g>
 <g id="layer楼梯编号" inkscape:groupmode="layer" inkscape:label="楼梯编号">
  <text fill="rgb(178,0,178)" font-family="Noto Sans CJK SC" font-size="2" transform="rotate(-327.669,37.65098749999993,85.11483900000007)" x="37.65098749999993" y="85.11483900000007">
   A-19
  </text>
 </g>
</svg>