<?xml version="1.0" encoding="utf-8"?>
<svg style="background-color: #000;" version="1.1" viewBox="0 0 100.0 100.0" xmlns="http://www.w3.org/2000/svg" xmlns:inkscape="http://www.inkscape.org/namespaces/inkscape">
 <g id="layerA-ANNO-OVHD" inkscape:groupmode="layer" inkscape:label="A-ANNO-OVHD">
  <path d="M 30.115912999999978,100.0 L 30.115912999999978,0.0" fill="none" stroke="rgb(178,0,178)" stroke-width="0.1"/>
  <path d="M 7.69505397894352,0.0 L 0.0,5.388130139937971" fill="none" stroke="rgb(178,0,178)" stroke-width="0.1"/>
  <path d="M 67.11591299999998,100.0 L 67.11591299999998,0.0" fill="none" stroke="rgb(178,0,178)" stroke-width="0.1"/>
 </g>
 <g id="layerA-DOOR" inkscape:groupmode="layer" inkscape:label="A-DOOR">
  <path d="M 26.615912999999978,79.15955500000001 L 35.61591299999998,79.15955500000001" fill="none" instance-id="4" semantic-id="3" stroke="rgb(0,178,0)" stroke-width="0.1"/>
  <path d="M 26.615912999999978,79.609555 L 35.61591299999998,79.609555" fill="none" instance-id="4" semantic-id="3" stroke="rgb(0,178,0)" stroke-width="0.1"/>
  <path d="M 26.615912999999978,79.15955500000001 L 26.615912999999978,79.609555" fill="none" instance-id="4" semantic-id="3" stroke="rgb(0,178,0)" stroke-width="0.1"/>
  <path d="M 35.61591299999998,79.15955500000001 L 35.61591299999998,79.609555" fill="none" instance-id="4" semantic-id="3" stroke="rgb(0,178,0)" stroke-width="0.1"/>
  <path d="M 26.615912999999978,97.15955500000001 L 35.61591299999998,97.15955500000001" fill="none" instance-id="4" semantic-id="3" stroke="rgb(0,178,0)" stroke-width="0.1"/>
  <path d="M 26.615912999999978,96.70955500000002 L 35.61591299999998,96.70955500000002" fill="none" instance-id="4" semantic-id="3" stroke="rgb(0,178,0)" stroke-width="0.1"/>
  <path d="M 26.615912999999978,97.15955500000001 L 26.615912999999978,96.70955500000002" fill="none" instance-id="4" semantic-id="3" stroke="rgb(0,178,0)" stroke-width="0.1"/>
  <path d="M 35.61591299999998,97.15955500000001 L 35.61591299999998,96.70955500000002" fill="none" instance-id="4" semantic-id="3" stroke="rgb(0,178,0)" stroke-width="0.1"/>
  <path d="M 0.27891299999998864,9.465554999999995 L 0.0,9.067177326811304" fill="none" stroke="rgb(0,178,0)" stroke-width="0.1"/>
  <path d="M 0.0,9.661097266304353 L 0.27891299999998864,9.465554999999995" fill="none" stroke="rgb(0,178,0)" stroke-width="0.1"/>
  <path d="M 70.61591299999998,12.173555000000022 L 61.61591299999998,12.173555000000022" fill="none" instance-id="2" semantic-id="4" stroke="rgb(0,178,0)" stroke-width="0.1"/>
  <path d="M 70.61591299999998,12.62355500000001 L 61.61591299999998,12.62355500000001" fill="none" instance-id="2" semantic-id="4" stroke="rgb(0,178,0)" stroke-width="0.1"/>
  <path d="M 70.61591299999998,12.173555000000022 L 70.61591299999998,12.62355500000001" fill="none" instance-id="2" semantic-id="4" stroke="rgb(0,178,0)" stroke-width="0.1"/>
  <path d="M 61.61591299999998,12.173555000000022 L 61.61591299999998,12.62355500000001" fill="none" instance-id="2" semantic-id="4" stroke="rgb(0,178,0)" stroke-width="0.1"/>
  <path d="M 70.61591299999998,30.17355500000002 L 61.61591299999998,30.17355500000002" fill="none" instance-id="2" semantic-id="4" stroke="rgb(0,178,0)" stroke-width="0.1"/>
  <path d="M 70.61591299999998,29.723555000000033 L 61.61591299999998,29.723555000000033" fill="none" instance-id="2" semantic-id="4" stroke="rgb(0,178,0)" stroke-width="0.1"/>
  <path d="M 70.61591299999998,30.17355500000002 L 70.61591299999998,29.723555000000033" fill="none" instance-id="2" semantic-id="4" stroke="rgb(0,178,0)" stroke-width="0.1"/>
  <path d="M 61.61591299999998,30.17355500000002 L 61.61591299999998,29.723555000000033" fill="none" instance-id="2" semantic-id="4" stroke="rgb(0,178,0)" stroke-width="0.1"/>
  <path d="M 26.615912999999978,88.15955500000001 A 9.02044,9.02044 0.0 0,0 35.61591299999998,79.609555" fill="none" instance-id="4" semantic-id="3" stroke="rgb(0,178,0)" stroke-width="0.1"/>
  <path d="M 35.61591299999998,96.70955500000002 A 9.02044,9.02044 0.0 0,0 26.615912999999978,88.15955500000001" fill="none" instance-id="4" semantic-id="3" stroke="rgb(0,178,0)" stroke-width="0.1"/>
  <path d="M 5.704665627435475,0.33118767751727773 L 5.771510161172785,0.833772918324712" fill="none" stroke="rgb(0,178,0)" stroke-width="0.1"/>
  <path d="M 5.771510161172785,0.833772918324712 L 5.866486707073193,1.3318086315991877" fill="none" stroke="rgb(0,178,0)" stroke-width="0.1"/>
  <path d="M 5.866486707073193,1.3318086315991877 L 5.98929521375851,1.823721415183627" fill="none" stroke="rgb(0,178,0)" stroke-width="0.1"/>
  <path d="M 5.98929521375851,1.823721415183627 L 6.139547702687764,2.307957210575239" fill="none" stroke="rgb(0,178,0)" stroke-width="0.1"/>
  <path d="M 6.139547702687764,2.307957210575239 L 6.316769493865422,2.782986212531739" fill="none" stroke="rgb(0,178,0)" stroke-width="0.1"/>
  <path d="M 6.316769493865422,2.782986212531739 L 6.520400705457462,3.2473077020555365" fill="none" stroke="rgb(0,178,0)" stroke-width="0.1"/>
  <path d="M 6.520400705457462,3.2473077020555365 L 6.7497980225788865,3.6994547874884915" fill="none" stroke="rgb(0,178,0)" stroke-width="0.1"/>
  <path d="M 6.7497980225788865,3.6994547874884915 L 7.004236729664228,4.137999038738883" fill="none" stroke="rgb(0,178,0)" stroke-width="0.1"/>
  <path d="M 7.004236729664228,4.137999038738883 L 7.282912999999951,4.5615549999999985" fill="none" stroke="rgb(0,178,0)" stroke-width="0.1"/>
  <path d="M 7.282912999999951,4.5615549999999985 L 6.980215127218514,4.1548357066792505" fill="none" stroke="rgb(0,178,0)" stroke-width="0.1"/>
  <path d="M 6.980215127218514,4.1548357066792505 L 6.65514457316209,3.765765378035212" fill="none" stroke="rgb(0,178,0)" stroke-width="0.1"/>
  <path d="M 6.65514457316209,3.765765378035212 L 6.308728251717753,3.395573106394295" fill="none" stroke="rgb(0,178,0)" stroke-width="0.1"/>
  <path d="M 6.308728251717753,3.395573106394295 L 5.94206050910276,3.045428347371228" fill="none" stroke="rgb(0,178,0)" stroke-width="0.1"/>
  <path d="M 5.94206050910276,3.045428347371228 L 5.55629966677111,2.7164372255011813" fill="none" stroke="rgb(0,178,0)" stroke-width="0.1"/>
  <path d="M 5.55629966677111,2.7164372255011813 L 5.152664362218957,2.4096390399380994" fill="none" stroke="rgb(0,178,0)" stroke-width="0.1"/>
  <path d="M 5.152664362218957,2.4096390399380994 L 4.732429699248826,2.126002981257102" fill="none" stroke="rgb(0,178,0)" stroke-width="0.1"/>
  <path d="M 4.732429699248826,2.126002981257102 L 4.296923219853738,1.8664250697341345" fill="none" stroke="rgb(0,178,0)" stroke-width="0.1"/>
  <path d="M 4.296923219853738,1.8664250697341345 L 3.847520710446929,1.6317253247735835" fill="none" stroke="rgb(0,178,0)" stroke-width="0.1"/>
  <path d="M 3.847520710446929,1.6317253247735835 L 3.3856418556845824,1.4226451744265773" fill="none" stroke="rgb(0,178,0)" stroke-width="0.1"/>
  <path d="M 3.3856418556845824,1.4226451744265773 L 2.9127457536122847,1.239845113183378" fill="none" stroke="rgb(0,178,0)" stroke-width="0.1"/>
  <path d="M 2.9127457536122847,1.239845113183378 L 2.430326306302277,1.083902615438717" fill="none" stroke="rgb(0,178,0)" stroke-width="0.1"/>
  <path d="M 2.430326306302277,1.083902615438717 L 1.9399075005435407,0.9553103112216945" fill="none" stroke="rgb(0,178,0)" stroke-width="0.1"/>
  <path d="M 1.9399075005435407,0.9553103112216945 L 1.4430385934920196,0.8544744299533704" fill="none" stroke="rgb(0,178,0)" stroke-width="0.1"/>
  <path d="M 1.4430385934920196,0.8544744299533704 L 0.9412892184914767,0.7817135171479777" fill="none" stroke="rgb(0,178,0)" stroke-width="0.1"/>
  <path d="M 0.9412892184914767,0.7817135171479777 L 0.43624442652412654,0.7372574281118318" fill="none" stroke="rgb(0,178,0)" stroke-width="0.1"/>
  <path d="M 61.61591299999998,12.62355500000001 A 9.02044,9.02044 0.0 0,0 70.61591299999998,21.17355500000002" fill="none" instance-id="2" semantic-id="4" stroke="rgb(0,178,0)" stroke-width="0.1"/>
  <path d="M 70.61591299999998,21.17355500000002 A 9.02044,9.02044 0.0 0,0 61.61591299999998,29.723555000000033" fill="none" instance-id="2" semantic-id="4" stroke="rgb(0,178,0)" stroke-width="0.1"/>
  <path d="M 68.61591299999998,10.990555000000029 L 62.86591299999998,0.03155500000002576" fill="none" instance-id="3" semantic-id="3" stroke="rgb(0,178,0)" stroke-width="0.1"/>
  <path d="M 68.61591299999998,0.0 L 68.61591299999998,10.990555000000029" fill="none" instance-id="3" semantic-id="3" stroke="rgb(0,178,0)" stroke-width="0.1"/>
 </g>
 <g id="layerA-GLAZ" inkscape:groupmode="layer" inkscape:label="A-GLAZ">
  <path d="M 0.0,7.219390176395791 L 10.310408339293247,0.0" fill="none" instance-id="-1" semantic-id="33" stroke="rgb(0,178,178)" stroke-width="0.1"/>
  <path d="M 0.0,7.585610836121532 L 10.833403561552984,0.0" fill="none" instance-id="-1" semantic-id="33" stroke="rgb(0,178,178)" stroke-width="0.1"/>
  <path d="M 28.5041988480707,0.0 L 28.615912999999978,0.15955500000001166" fill="none" instance-id="-1" semantic-id="33" stroke="rgb(0,178,178)" stroke-width="0.1"/>
  <path d="M 28.615912999999978,0.15955500000001166 L 28.615912999999978,100.0" fill="none" instance-id="-1" semantic-id="33" stroke="rgb(0,178,178)" stroke-width="0.1"/>
  <path d="M 28.13835796600665,0.0 L 28.315912999999966,0.25355500000000575" fill="none" instance-id="-1" semantic-id="33" stroke="rgb(0,178,178)" stroke-width="0.1"/>
  <path d="M 28.315912999999966,0.25355500000000575 L 28.315912999999966,100.0" fill="none" instance-id="-1" semantic-id="33" stroke="rgb(0,178,178)" stroke-width="0.1"/>
  <path d="M 68.61591299999998,44.17255499999999 L 68.61591299999998,0.0" fill="none" instance-id="-1" semantic-id="33" stroke="rgb(0,178,178)" stroke-width="0.1"/>
  <path d="M 68.91591299999999,44.17255499999999 L 68.91591299999999,0.0" fill="none" instance-id="-1" semantic-id="33" stroke="rgb(0,178,178)" stroke-width="0.1"/>
 </g>
 <g id="layerA-GLAZ-MULN" inkscape:groupmode="layer" inkscape:label="A-GLAZ-MULN">
  <path d="M 0.0,9.660722199352335 L 13.796890644017196,0.0" fill="none" stroke="rgb(178,0,0)" stroke-width="0.1"/>
  <path d="M 26.06311606119334,0.0 L 26.615912999999978,0.7895550000000071" fill="none" stroke="rgb(178,0,0)" stroke-width="0.1"/>
  <path d="M 26.615912999999978,0.7895550000000071 L 26.615912999999978,100.0" fill="none" stroke="rgb(178,0,0)" stroke-width="0.1"/>
  <path d="M 70.61591299999998,44.17255499999999 L 68.61591299999998,44.17255499999999" fill="none" stroke="rgb(178,0,0)" stroke-width="0.1"/>
  <path d="M 70.61591299999998,44.17255499999999 L 70.61591299999998,0.0" fill="none" stroke="rgb(178,0,0)" stroke-width="0.1"/>
  <path d="M 70.61591299999998,44.17255499999999 L 68.61591299999998,44.17255499999999" fill="none" stroke="rgb(178,0,0)" stroke-width="0.1"/>
  <path d="M 26.828913,1.1415550000000394 L 28.44991299999998,0.6305550000000153" fill="none" stroke="rgb(178,0,0)" stroke-width="0.1"/>
  <path d="M 28.44991299999998,0.6305550000000153 L 28.251573288335464,0.0" fill="none" stroke="rgb(178,0,0)" stroke-width="0.1"/>
  <path d="M 27.789510279843512,0.0 L 26.587912999999958,0.37855500000000575" fill="none" stroke="rgb(178,0,0)" stroke-width="0.1"/>
  <path d="M 26.587912999999958,0.37855500000000575 L 26.828913,1.1415550000000394" fill="none" stroke="rgb(178,0,0)" stroke-width="0.1"/>
  <path d="M 29.167913,0.24755500000003394 L 28.690912999999966,0.3975550000000112" fill="none" stroke="rgb(178,0,0)" stroke-width="0.1"/>
  <path d="M 28.690912999999966,0.3975550000000112 L 28.565895704402465,0.0" fill="none" stroke="rgb(178,0,0)" stroke-width="0.1"/>
  <path d="M 29.090065515723268,0.0 L 29.167913,0.24755500000003394" fill="none" stroke="rgb(178,0,0)" stroke-width="0.1"/>
  <path d="M 26.615912999999978,39.55955499999999 L 28.315912999999966,39.55955499999999" fill="none" stroke="rgb(178,0,0)" stroke-width="0.1"/>
  <path d="M 28.315912999999966,39.55955499999999 L 28.315912999999966,38.759555000000034" fill="none" stroke="rgb(178,0,0)" stroke-width="0.1"/>
  <path d="M 28.315912999999966,38.759555000000034 L 26.615912999999978,38.759555000000034" fill="none" stroke="rgb(178,0,0)" stroke-width="0.1"/>
  <path d="M 26.615912999999978,38.759555000000034 L 26.615912999999978,39.55955499999999" fill="none" stroke="rgb(178,0,0)" stroke-width="0.1"/>
  <path d="M 29.115912999999978,39.40955500000001 L 28.615912999999978,39.40955500000001" fill="none" stroke="rgb(178,0,0)" stroke-width="0.1"/>
  <path d="M 28.615912999999978,39.40955500000001 L 28.615912999999978,38.90955500000001" fill="none" stroke="rgb(178,0,0)" stroke-width="0.1"/>
  <path d="M 28.615912999999978,38.90955500000001 L 29.115912999999978,38.90955500000001" fill="none" stroke="rgb(178,0,0)" stroke-width="0.1"/>
  <path d="M 29.115912999999978,38.90955500000001 L 29.115912999999978,39.40955500000001" fill="none" stroke="rgb(178,0,0)" stroke-width="0.1"/>
  <path d="M 26.615912999999978,26.55955499999999 L 28.315912999999966,26.55955499999999" fill="none" stroke="rgb(178,0,0)" stroke-width="0.1"/>
  <path d="M 28.315912999999966,26.55955499999999 L 28.315912999999966,25.759555000000034" fill="none" stroke="rgb(178,0,0)" stroke-width="0.1"/>
  <path d="M 28.315912999999966,25.759555000000034 L 26.615912999999978,25.759555000000034" fill="none" stroke="rgb(178,0,0)" stroke-width="0.1"/>
  <path d="M 26.615912999999978,25.759555000000034 L 26.615912999999978,26.55955499999999" fill="none" stroke="rgb(178,0,0)" stroke-width="0.1"/>
  <path d="M 29.115912999999978,26.40955500000001 L 28.615912999999978,26.40955500000001" fill="none" stroke="rgb(178,0,0)" stroke-width="0.1"/>
  <path d="M 28.615912999999978,26.40955500000001 L 28.615912999999978,25.90955500000001" fill="none" stroke="rgb(178,0,0)" stroke-width="0.1"/>
  <path d="M 28.615912999999978,25.90955500000001 L 29.115912999999978,25.90955500000001" fill="none" stroke="rgb(178,0,0)" stroke-width="0.1"/>
  <path d="M 29.115912999999978,25.90955500000001 L 29.115912999999978,26.40955500000001" fill="none" stroke="rgb(178,0,0)" stroke-width="0.1"/>
  <path d="M 26.615912999999978,79.15955500000001 L 26.615912999999978,78.15955500000001" fill="none" stroke="rgb(178,0,0)" stroke-width="0.1"/>
  <path d="M 26.615912999999978,78.15955500000001 L 29.115912999999978,78.15955500000001" fill="none" stroke="rgb(178,0,0)" stroke-width="0.1"/>
  <path d="M 29.115912999999978,78.15955500000001 L 29.115912999999978,79.15955500000001" fill="none" stroke="rgb(178,0,0)" stroke-width="0.1"/>
  <path d="M 29.115912999999978,79.15955500000001 L 26.615912999999978,79.15955500000001" fill="none" stroke="rgb(178,0,0)" stroke-width="0.1"/>
  <path d="M 26.615912999999978,98.15955500000001 L 26.615912999999978,97.15955500000001" fill="none" stroke="rgb(178,0,0)" stroke-width="0.1"/>
  <path d="M 26.615912999999978,97.15955500000001 L 29.115912999999978,97.15955500000001" fill="none" stroke="rgb(178,0,0)" stroke-width="0.1"/>
  <path d="M 29.115912999999978,97.15955500000001 L 29.115912999999978,98.15955500000001" fill="none" stroke="rgb(178,0,0)" stroke-width="0.1"/>
  <path d="M 29.115912999999978,98.15955500000001 L 26.615912999999978,98.15955500000001" fill="none" stroke="rgb(178,0,0)" stroke-width="0.1"/>
  <path d="M 68.91591299999999,0.0 L 68.91591299999999,11.240555000000029" fill="none" stroke="rgb(178,0,0)" stroke-width="0.1"/>
  <path d="M 68.91591299999999,11.240555000000029 L 68.61591299999998,11.240555000000029" fill="none" stroke="rgb(178,0,0)" stroke-width="0.1"/>
  <path d="M 68.61591299999998,11.240555000000029 L 68.61591299999998,0.0" fill="none" stroke="rgb(178,0,0)" stroke-width="0.1"/>
  <path d="M 70.61591299999998,10.840554999999995 L 68.91591299999999,10.840554999999995" fill="none" stroke="rgb(178,0,0)" stroke-width="0.1"/>
  <path d="M 68.91591299999999,10.840554999999995 L 68.91591299999999,11.640555000000006" fill="none" stroke="rgb(178,0,0)" stroke-width="0.1"/>
  <path d="M 68.91591299999999,11.640555000000006 L 70.61591299999998,11.640555000000006" fill="none" stroke="rgb(178,0,0)" stroke-width="0.1"/>
  <path d="M 70.61591299999998,11.640555000000006 L 70.61591299999998,10.840554999999995" fill="none" stroke="rgb(178,0,0)" stroke-width="0.1"/>
  <path d="M 68.11591299999998,10.990555000000029 L 68.61591299999998,10.990555000000029" fill="none" stroke="rgb(178,0,0)" stroke-width="0.1"/>
  <path d="M 68.61591299999998,10.990555000000029 L 68.61591299999998,11.490555000000029" fill="none" stroke="rgb(178,0,0)" stroke-width="0.1"/>
  <path d="M 68.61591299999998,11.490555000000029 L 68.11591299999998,11.490555000000029" fill="none" stroke="rgb(178,0,0)" stroke-width="0.1"/>
  <path d="M 68.11591299999998,11.490555000000029 L 68.11591299999998,10.990555000000029" fill="none" stroke="rgb(178,0,0)" stroke-width="0.1"/>
  <path d="M 70.61591299999998,43.372555000000034 L 68.91591299999999,43.372555000000034" fill="none" stroke="rgb(178,0,0)" stroke-width="0.1"/>
  <path d="M 68.91591299999999,43.372555000000034 L 68.91591299999999,44.17255499999999" fill="none" stroke="rgb(178,0,0)" stroke-width="0.1"/>
  <path d="M 68.91591299999999,44.17255499999999 L 70.61591299999998,44.17255499999999" fill="none" stroke="rgb(178,0,0)" stroke-width="0.1"/>
  <path d="M 70.61591299999998,44.17255499999999 L 70.61591299999998,43.372555000000034" fill="none" stroke="rgb(178,0,0)" stroke-width="0.1"/>
  <path d="M 68.11591299999998,43.67255499999999 L 68.61591299999998,43.67255499999999" fill="none" stroke="rgb(178,0,0)" stroke-width="0.1"/>
  <path d="M 68.61591299999998,43.67255499999999 L 68.61591299999998,44.17255499999999" fill="none" stroke="rgb(178,0,0)" stroke-width="0.1"/>
  <path d="M 68.61591299999998,44.17255499999999 L 68.11591299999998,44.17255499999999" fill="none" stroke="rgb(178,0,0)" stroke-width="0.1"/>
  <path d="M 68.11591299999998,44.17255499999999 L 68.11591299999998,43.67255499999999" fill="none" stroke="rgb(178,0,0)" stroke-width="0.1"/>
  <path d="M 26.615912999999978,52.55955499999999 L 28.315912999999966,52.55955499999999" fill="none" stroke="rgb(178,0,0)" stroke-width="0.1"/>
  <path d="M 28.315912999999966,52.55955499999999 L 28.315912999999966,51.759555000000034" fill="none" stroke="rgb(178,0,0)" stroke-width="0.1"/>
  <path d="M 28.315912999999966,51.759555000000034 L 26.615912999999978,51.759555000000034" fill="none" stroke="rgb(178,0,0)" stroke-width="0.1"/>
  <path d="M 26.615912999999978,51.759555000000034 L 26.615912999999978,52.55955499999999" fill="none" stroke="rgb(178,0,0)" stroke-width="0.1"/>
  <path d="M 29.115912999999978,52.40955500000001 L 28.615912999999978,52.40955500000001" fill="none" stroke="rgb(178,0,0)" stroke-width="0.1"/>
  <path d="M 28.615912999999978,52.40955500000001 L 28.615912999999978,51.90955500000001" fill="none" stroke="rgb(178,0,0)" stroke-width="0.1"/>
  <path d="M 28.615912999999978,51.90955500000001 L 29.115912999999978,51.90955500000001" fill="none" stroke="rgb(178,0,0)" stroke-width="0.1"/>
  <path d="M 29.115912999999978,51.90955500000001 L 29.115912999999978,52.40955500000001" fill="none" stroke="rgb(178,0,0)" stroke-width="0.1"/>
  <path d="M 26.615912999999978,65.55955499999999 L 28.315912999999966,65.55955499999999" fill="none" stroke="rgb(178,0,0)" stroke-width="0.1"/>
  <path d="M 28.315912999999966,65.55955499999999 L 28.315912999999966,64.75955500000003" fill="none" stroke="rgb(178,0,0)" stroke-width="0.1"/>
  <path d="M 28.315912999999966,64.75955500000003 L 26.615912999999978,64.75955500000003" fill="none" stroke="rgb(178,0,0)" stroke-width="0.1"/>
  <path d="M 26.615912999999978,64.75955500000003 L 26.615912999999978,65.55955499999999" fill="none" stroke="rgb(178,0,0)" stroke-width="0.1"/>
  <path d="M 29.115912999999978,65.40955500000001 L 28.615912999999978,65.40955500000001" fill="none" stroke="rgb(178,0,0)" stroke-width="0.1"/>
  <path d="M 28.615912999999978,65.40955500000001 L 28.615912999999978,64.90955500000001" fill="none" stroke="rgb(178,0,0)" stroke-width="0.1"/>
  <path d="M 28.615912999999978,64.90955500000001 L 29.115912999999978,64.90955500000001" fill="none" stroke="rgb(178,0,0)" stroke-width="0.1"/>
  <path d="M 29.115912999999978,64.90955500000001 L 29.115912999999978,65.40955500000001" fill="none" stroke="rgb(178,0,0)" stroke-width="0.1"/>
  <path d="M 70.61591299999998,12.173555000000022 L 70.61591299999998,11.173555000000022" fill="none" stroke="rgb(178,0,0)" stroke-width="0.1"/>
  <path d="M 70.61591299999998,11.173555000000022 L 68.11591299999998,11.173555000000022" fill="none" stroke="rgb(178,0,0)" stroke-width="0.1"/>
  <path d="M 68.11591299999998,11.173555000000022 L 68.11591299999998,12.173555000000022" fill="none" stroke="rgb(178,0,0)" stroke-width="0.1"/>
  <path d="M 68.11591299999998,12.173555000000022 L 70.61591299999998,12.173555000000022" fill="none" stroke="rgb(178,0,0)" stroke-width="0.1"/>
  <path d="M 70.61591299999998,31.17355500000002 L 70.61591299999998,30.17355500000002" fill="none" stroke="rgb(178,0,0)" stroke-width="0.1"/>
  <path d="M 70.61591299999998,30.17355500000002 L 68.11591299999998,30.17355500000002" fill="none" stroke="rgb(178,0,0)" stroke-width="0.1"/>
  <path d="M 68.11591299999998,30.17355500000002 L 68.11591299999998,31.17355500000002" fill="none" stroke="rgb(178,0,0)" stroke-width="0.1"/>
  <path d="M 68.11591299999998,31.17355500000002 L 70.61591299999998,31.17355500000002" fill="none" stroke="rgb(178,0,0)" stroke-width="0.1"/>
  <path d="M 26.615912999999978,13.559554999999989 L 28.315912999999966,13.559554999999989" fill="none" stroke="rgb(178,0,0)" stroke-width="0.1"/>
  <path d="M 28.315912999999966,13.559554999999989 L 28.315912999999966,12.759555000000034" fill="none" stroke="rgb(178,0,0)" stroke-width="0.1"/>
  <path d="M 28.315912999999966,12.759555000000034 L 26.615912999999978,12.759555000000034" fill="none" stroke="rgb(178,0,0)" stroke-width="0.1"/>
  <path d="M 26.615912999999978,12.759555000000034 L 26.615912999999978,13.559554999999989" fill="none" stroke="rgb(178,0,0)" stroke-width="0.1"/>
  <path d="M 29.115912999999978,13.409555000000012 L 28.615912999999978,13.409555000000012" fill="none" stroke="rgb(178,0,0)" stroke-width="0.1"/>
  <path d="M 28.615912999999978,13.409555000000012 L 28.615912999999978,12.909555000000012" fill="none" stroke="rgb(178,0,0)" stroke-width="0.1"/>
  <path d="M 28.615912999999978,12.909555000000012 L 29.115912999999978,12.909555000000012" fill="none" stroke="rgb(178,0,0)" stroke-width="0.1"/>
  <path d="M 29.115912999999978,12.909555000000012 L 29.115912999999978,13.409555000000012" fill="none" stroke="rgb(178,0,0)" stroke-width="0.1"/>
 </g>
 <g id="layerA-WALL" inkscape:groupmode="layer" inkscape:label="A-WALL">
  <path d="M 73.11591299999998,0.0 L 73.11591299999998,10.840554999999995" fill="none" instance-id="-1" semantic-id="1" stroke="rgb(0,0,0)" stroke-width="0.1"/>
  <path d="M 73.11591299999998,10.840554999999995 L 70.61591299999998,10.840554999999995" fill="none" instance-id="-1" semantic-id="1" stroke="rgb(0,0,0)" stroke-width="0.1"/>
  <path d="M 70.61591299999998,10.840554999999995 L 70.61591299999998,12.840554999999995" fill="none" instance-id="-1" semantic-id="1" stroke="rgb(0,0,0)" stroke-width="0.1"/>
  <path d="M 70.61591299999998,12.840554999999995 L 75.11591299999998,12.840554999999995" fill="none" instance-id="-1" semantic-id="1" stroke="rgb(0,0,0)" stroke-width="0.1"/>
  <path d="M 75.11591299999998,12.840554999999995 L 75.11591299999998,0.0" fill="none" instance-id="-1" semantic-id="1" stroke="rgb(0,0,0)" stroke-width="0.1"/>
 </g>
 <g id="layerA-WALL-FINS" inkscape:groupmode="layer" inkscape:label="A-WALL-FINS">
  <path d="M 0.0,7.219517213524341 L 10.310558367457872,0.0" fill="none" stroke="rgb(178,0,178)" stroke-width="0.1"/>
  <path d="M 68.43391299999996,44.32755500000002 L 68.43391299999996,44.61255500000004" fill="none" stroke="rgb(89,89,89)" stroke-width="0.1"/>
  <path d="M 68.43391299999996,44.89855499999999 L 68.43391299999996,45.18455499999999" fill="none" stroke="rgb(89,89,89)" stroke-width="0.1"/>
  <path d="M 68.43391299999996,45.47055499999999 L 68.43391299999996,45.755555000000015" fill="none" stroke="rgb(89,89,89)" stroke-width="0.1"/>
  <path d="M 68.43391299999996,46.04155500000002 L 68.43391299999996,46.32755500000002" fill="none" stroke="rgb(89,89,89)" stroke-width="0.1"/>
  <path d="M 68.43391299999996,46.61355500000002 L 68.43391299999996,46.89855499999999" fill="none" stroke="rgb(89,89,89)" stroke-width="0.1"/>
  <path d="M 68.43391299999996,47.18455499999999 L 68.43391299999996,47.47055499999999" fill="none" stroke="rgb(89,89,89)" stroke-width="0.1"/>
  <path d="M 68.43391299999996,47.75655499999999 L 68.43391299999996,48.04155500000002" fill="none" stroke="rgb(89,89,89)" stroke-width="0.1"/>
  <path d="M 68.43391299999996,48.32755500000002 L 68.43391299999996,48.61355500000002" fill="none" stroke="rgb(89,89,89)" stroke-width="0.1"/>
  <path d="M 68.43391299999996,48.89955500000002 L 68.43391299999996,49.18455499999999" fill="none" stroke="rgb(89,89,89)" stroke-width="0.1"/>
  <path d="M 68.43391299999996,49.47055499999999 L 68.43391299999996,49.75655499999999" fill="none" stroke="rgb(89,89,89)" stroke-width="0.1"/>
  <path d="M 68.43391299999996,50.04255499999999 L 68.43391299999996,50.32755500000002" fill="none" stroke="rgb(89,89,89)" stroke-width="0.1"/>
  <path d="M 68.43391299999996,50.61355500000002 L 68.43391299999996,50.89955500000002" fill="none" stroke="rgb(89,89,89)" stroke-width="0.1"/>
  <path d="M 68.43391299999996,51.18555500000002 L 68.43391299999996,51.47055499999999" fill="none" stroke="rgb(89,89,89)" stroke-width="0.1"/>
  <path d="M 68.43391299999996,51.75655499999999 L 68.43391299999996,52.04255499999999" fill="none" stroke="rgb(89,89,89)" stroke-width="0.1"/>
  <path d="M 68.43391299999996,52.328554999999994 L 68.43391299999996,52.61355500000002" fill="none" stroke="rgb(89,89,89)" stroke-width="0.1"/>
  <path d="M 68.43391299999996,52.89955500000002 L 68.43391299999996,53.18555500000002" fill="none" stroke="rgb(89,89,89)" stroke-width="0.1"/>
  <path d="M 68.43391299999996,53.47155500000002 L 68.43391299999996,53.75655499999999" fill="none" stroke="rgb(89,89,89)" stroke-width="0.1"/>
  <path d="M 68.43391299999996,54.04255499999999 L 68.43391299999996,54.328554999999994" fill="none" stroke="rgb(89,89,89)" stroke-width="0.1"/>
  <path d="M 68.43391299999996,54.614554999999996 L 68.43391299999996,54.89955500000002" fill="none" stroke="rgb(89,89,89)" stroke-width="0.1"/>
  <path d="M 68.43391299999996,55.18555500000002 L 68.43391299999996,55.47155500000002" fill="none" stroke="rgb(89,89,89)" stroke-width="0.1"/>
  <path d="M 68.43391299999996,55.757555000000025 L 68.43391299999996,56.04255499999999" fill="none" stroke="rgb(89,89,89)" stroke-width="0.1"/>
  <path d="M 68.43391299999996,56.328554999999994 L 68.43391299999996,56.614554999999996" fill="none" stroke="rgb(89,89,89)" stroke-width="0.1"/>
  <path d="M 68.14791299999996,44.17255499999999 L 68.14791299999996,44.32755500000002" fill="none" stroke="rgb(89,89,89)" stroke-width="0.1"/>
  <path d="M 68.14791299999996,44.61255500000004 L 68.14791299999996,44.89855499999999" fill="none" stroke="rgb(89,89,89)" stroke-width="0.1"/>
  <path d="M 68.14791299999996,45.18455499999999 L 68.14791299999996,45.47055499999999" fill="none" stroke="rgb(89,89,89)" stroke-width="0.1"/>
  <path d="M 68.14791299999996,45.755555000000015 L 68.14791299999996,46.04155500000002" fill="none" stroke="rgb(89,89,89)" stroke-width="0.1"/>
  <path d="M 68.14791299999996,46.32755500000002 L 68.14791299999996,46.61355500000002" fill="none" stroke="rgb(89,89,89)" stroke-width="0.1"/>
  <path d="M 68.14791299999996,46.89855499999999 L 68.14791299999996,47.18455499999999" fill="none" stroke="rgb(89,89,89)" stroke-width="0.1"/>
  <path d="M 68.14791299999996,47.47055499999999 L 68.14791299999996,47.75655499999999" fill="none" stroke="rgb(89,89,89)" stroke-width="0.1"/>
  <path d="M 68.14791299999996,48.04155500000002 L 68.14791299999996,48.32755500000002" fill="none" stroke="rgb(89,89,89)" stroke-width="0.1"/>
  <path d="M 68.14791299999996,48.61355500000002 L 68.14791299999996,48.89955500000002" fill="none" stroke="rgb(89,89,89)" stroke-width="0.1"/>
  <path d="M 68.14791299999996,49.18455499999999 L 68.14791299999996,49.47055499999999" fill="none" stroke="rgb(89,89,89)" stroke-width="0.1"/>
  <path d="M 68.14791299999996,49.75655499999999 L 68.14791299999996,50.04255499999999" fill="none" stroke="rgb(89,89,89)" stroke-width="0.1"/>
  <path d="M 68.14791299999996,50.32755500000002 L 68.14791299999996,50.61355500000002" fill="none" stroke="rgb(89,89,89)" stroke-width="0.1"/>
  <path d="M 68.14791299999996,50.89955500000002 L 68.14791299999996,51.18555500000002" fill="none" stroke="rgb(89,89,89)" stroke-width="0.1"/>
  <path d="M 68.14791299999996,51.47055499999999 L 68.14791299999996,51.75655499999999" fill="none" stroke="rgb(89,89,89)" stroke-width="0.1"/>
  <path d="M 68.14791299999996,52.04255499999999 L 68.14791299999996,52.328554999999994" fill="none" stroke="rgb(89,89,89)" stroke-width="0.1"/>
  <path d="M 68.14791299999996,52.61355500000002 L 68.14791299999996,52.89955500000002" fill="none" stroke="rgb(89,89,89)" stroke-width="0.1"/>
  <path d="M 68.14791299999996,53.18555500000002 L 68.14791299999996,53.47155500000002" fill="none" stroke="rgb(89,89,89)" stroke-width="0.1"/>
  <path d="M 68.14791299999996,53.75655499999999 L 68.14791299999996,54.04255499999999" fill="none" stroke="rgb(89,89,89)" stroke-width="0.1"/>
  <path d="M 68.14791299999996,54.328554999999994 L 68.14791299999996,54.614554999999996" fill="none" stroke="rgb(89,89,89)" stroke-width="0.1"/>
  <path d="M 68.14791299999996,54.89955500000002 L 68.14791299999996,55.18555500000002" fill="none" stroke="rgb(89,89,89)" stroke-width="0.1"/>
  <path d="M 68.14791299999996,55.47155500000002 L 68.14791299999996,55.757555000000025" fill="none" stroke="rgb(89,89,89)" stroke-width="0.1"/>
  <path d="M 68.14791299999996,56.04255499999999 L 68.14791299999996,56.328554999999994" fill="none" stroke="rgb(89,89,89)" stroke-width="0.1"/>
  <path d="M 68.14791299999996,56.614554999999996 L 68.14791299999996,56.74055500000003" fill="none" stroke="rgb(89,89,89)" stroke-width="0.1"/>
  <path d="M 68.43391299999996,64.95955500000002 L 68.43391299999996,65.24555500000002" fill="none" stroke="rgb(89,89,89)" stroke-width="0.1"/>
  <path d="M 68.43391299999996,65.53155500000003 L 68.43391299999996,65.81755500000003" fill="none" stroke="rgb(89,89,89)" stroke-width="0.1"/>
  <path d="M 68.43391299999996,66.102555 L 68.43391299999996,66.388555" fill="none" stroke="rgb(89,89,89)" stroke-width="0.1"/>
  <path d="M 68.43391299999996,66.674555 L 68.43391299999996,66.960555" fill="none" stroke="rgb(89,89,89)" stroke-width="0.1"/>
  <path d="M 68.43391299999996,67.24555500000002 L 68.43391299999996,67.53155500000003" fill="none" stroke="rgb(89,89,89)" stroke-width="0.1"/>
  <path d="M 68.43391299999996,67.81755500000003 L 68.43391299999996,68.10355500000003" fill="none" stroke="rgb(89,89,89)" stroke-width="0.1"/>
  <path d="M 68.43391299999996,68.388555 L 68.43391299999996,68.674555" fill="none" stroke="rgb(89,89,89)" stroke-width="0.1"/>
  <path d="M 68.43391299999996,68.960555 L 68.43391299999996,69.246555" fill="none" stroke="rgb(89,89,89)" stroke-width="0.1"/>
  <path d="M 68.43391299999996,69.53155500000003 L 68.43391299999996,69.81755500000003" fill="none" stroke="rgb(89,89,89)" stroke-width="0.1"/>
  <path d="M 68.43391299999996,70.10355500000003 L 68.43391299999996,70.38955500000003" fill="none" stroke="rgb(89,89,89)" stroke-width="0.1"/>
  <path d="M 68.43391299999996,70.674555 L 68.43391299999996,70.960555" fill="none" stroke="rgb(89,89,89)" stroke-width="0.1"/>
  <path d="M 68.43391299999996,71.246555 L 68.43391299999996,71.532555" fill="none" stroke="rgb(89,89,89)" stroke-width="0.1"/>
  <path d="M 68.43391299999996,71.81755500000003 L 68.43391299999996,72.10355500000003" fill="none" stroke="rgb(89,89,89)" stroke-width="0.1"/>
  <path d="M 68.43391299999996,72.38955500000003 L 68.43391299999996,72.67555500000003" fill="none" stroke="rgb(89,89,89)" stroke-width="0.1"/>
  <path d="M 68.43391299999996,72.960555 L 68.43391299999996,73.246555" fill="none" stroke="rgb(89,89,89)" stroke-width="0.1"/>
  <path d="M 68.43391299999996,73.532555 L 68.43391299999996,73.818555" fill="none" stroke="rgb(89,89,89)" stroke-width="0.1"/>
  <path d="M 68.43391299999996,74.10355500000003 L 68.43391299999996,74.38955500000003" fill="none" stroke="rgb(89,89,89)" stroke-width="0.1"/>
  <path d="M 68.43391299999996,74.67555500000003 L 68.43391299999996,74.96155500000003" fill="none" stroke="rgb(89,89,89)" stroke-width="0.1"/>
  <path d="M 68.43391299999996,75.246555 L 68.43391299999996,75.532555" fill="none" stroke="rgb(89,89,89)" stroke-width="0.1"/>
  <path d="M 68.43391299999996,75.818555 L 68.43391299999996,76.104555" fill="none" stroke="rgb(89,89,89)" stroke-width="0.1"/>
  <path d="M 68.43391299999996,76.38955500000003 L 68.43391299999996,76.67555500000003" fill="none" stroke="rgb(89,89,89)" stroke-width="0.1"/>
  <path d="M 68.43391299999996,76.96155500000003 L 68.43391299999996,77.24755500000003" fill="none" stroke="rgb(89,89,89)" stroke-width="0.1"/>
  <path d="M 68.43391299999996,77.532555 L 68.43391299999996,77.818555" fill="none" stroke="rgb(89,89,89)" stroke-width="0.1"/>
  <path d="M 68.43391299999996,78.104555 L 68.43391299999996,78.390555" fill="none" stroke="rgb(89,89,89)" stroke-width="0.1"/>
  <path d="M 68.43391299999996,78.67555500000003 L 68.43391299999996,78.96155500000003" fill="none" stroke="rgb(89,89,89)" stroke-width="0.1"/>
  <path d="M 68.43391299999996,79.24755500000003 L 68.43391299999996,79.53355500000004" fill="none" stroke="rgb(89,89,89)" stroke-width="0.1"/>
  <path d="M 68.43391299999996,79.818555 L 68.43391299999996,80.104555" fill="none" stroke="rgb(89,89,89)" stroke-width="0.1"/>
  <path d="M 68.43391299999996,80.390555 L 68.43391299999996,80.67655500000001" fill="none" stroke="rgb(89,89,89)" stroke-width="0.1"/>
  <path d="M 68.43391299999996,80.96155500000003 L 68.43391299999996,81.24755500000003" fill="none" stroke="rgb(89,89,89)" stroke-width="0.1"/>
  <path d="M 68.43391299999996,81.53355500000004 L 68.43391299999996,81.81955500000004" fill="none" stroke="rgb(89,89,89)" stroke-width="0.1"/>
  <path d="M 68.43391299999996,82.104555 L 68.43391299999996,82.390555" fill="none" stroke="rgb(89,89,89)" stroke-width="0.1"/>
  <path d="M 68.43391299999996,82.67655500000001 L 68.43391299999996,82.96255500000001" fill="none" stroke="rgb(89,89,89)" stroke-width="0.1"/>
  <path d="M 68.43391299999996,83.24755500000003 L 68.43391299999996,83.53355500000004" fill="none" stroke="rgb(89,89,89)" stroke-width="0.1"/>
  <path d="M 68.43391299999996,83.81955500000004 L 68.43391299999996,84.090555" fill="none" stroke="rgb(89,89,89)" stroke-width="0.1"/>
  <path d="M 68.14791299999996,64.74055500000003 L 68.14791299999996,64.95955500000002" fill="none" stroke="rgb(89,89,89)" stroke-width="0.1"/>
  <path d="M 68.14791299999996,65.24555500000002 L 68.14791299999996,65.53155500000003" fill="none" stroke="rgb(89,89,89)" stroke-width="0.1"/>
  <path d="M 68.14791299999996,65.81755500000003 L 68.14791299999996,66.102555" fill="none" stroke="rgb(89,89,89)" stroke-width="0.1"/>
  <path d="M 68.14791299999996,66.388555 L 68.14791299999996,66.674555" fill="none" stroke="rgb(89,89,89)" stroke-width="0.1"/>
  <path d="M 68.14791299999996,66.960555 L 68.14791299999996,67.24555500000002" fill="none" stroke="rgb(89,89,89)" stroke-width="0.1"/>
  <path d="M 68.14791299999996,67.53155500000003 L 68.14791299999996,67.81755500000003" fill="none" stroke="rgb(89,89,89)" stroke-width="0.1"/>
  <path d="M 68.14791299999996,68.10355500000003 L 68.14791299999996,68.388555" fill="none" stroke="rgb(89,89,89)" stroke-width="0.1"/>
  <path d="M 68.14791299999996,68.674555 L 68.14791299999996,68.960555" fill="none" stroke="rgb(89,89,89)" stroke-width="0.1"/>
  <path d="M 68.14791299999996,69.246555 L 68.14791299999996,69.53155500000003" fill="none" stroke="rgb(89,89,89)" stroke-width="0.1"/>
  <path d="M 68.14791299999996,69.81755500000003 L 68.14791299999996,70.10355500000003" fill="none" stroke="rgb(89,89,89)" stroke-width="0.1"/>
  <path d="M 68.14791299999996,70.38955500000003 L 68.14791299999996,70.674555" fill="none" stroke="rgb(89,89,89)" stroke-width="0.1"/>
  <path d="M 68.14791299999996,70.960555 L 68.14791299999996,71.246555" fill="none" stroke="rgb(89,89,89)" stroke-width="0.1"/>
  <path d="M 68.14791299999996,71.532555 L 68.14791299999996,71.81755500000003" fill="none" stroke="rgb(89,89,89)" stroke-width="0.1"/>
  <path d="M 68.14791299999996,72.10355500000003 L 68.14791299999996,72.38955500000003" fill="none" stroke="rgb(89,89,89)" stroke-width="0.1"/>
  <path d="M 68.14791299999996,72.67555500000003 L 68.14791299999996,72.960555" fill="none" stroke="rgb(89,89,89)" stroke-width="0.1"/>
  <path d="M 68.14791299999996,73.246555 L 68.14791299999996,73.532555" fill="none" stroke="rgb(89,89,89)" stroke-width="0.1"/>
  <path d="M 68.14791299999996,73.818555 L 68.14791299999996,74.10355500000003" fill="none" stroke="rgb(89,89,89)" stroke-width="0.1"/>
  <path d="M 68.14791299999996,74.38955500000003 L 68.14791299999996,74.67555500000003" fill="none" stroke="rgb(89,89,89)" stroke-width="0.1"/>
  <path d="M 68.14791299999996,74.96155500000003 L 68.14791299999996,75.246555" fill="none" stroke="rgb(89,89,89)" stroke-width="0.1"/>
  <path d="M 68.14791299999996,75.532555 L 68.14791299999996,75.818555" fill="none" stroke="rgb(89,89,89)" stroke-width="0.1"/>
  <path d="M 68.14791299999996,76.104555 L 68.14791299999996,76.38955500000003" fill="none" stroke="rgb(89,89,89)" stroke-width="0.1"/>
  <path d="M 68.14791299999996,76.67555500000003 L 68.14791299999996,76.96155500000003" fill="none" stroke="rgb(89,89,89)" stroke-width="0.1"/>
  <path d="M 68.14791299999996,77.24755500000003 L 68.14791299999996,77.532555" fill="none" stroke="rgb(89,89,89)" stroke-width="0.1"/>
  <path d="M 68.14791299999996,77.818555 L 68.14791299999996,78.104555" fill="none" stroke="rgb(89,89,89)" stroke-width="0.1"/>
  <path d="M 68.14791299999996,78.390555 L 68.14791299999996,78.67555500000003" fill="none" stroke="rgb(89,89,89)" stroke-width="0.1"/>
  <path d="M 68.14791299999996,78.96155500000003 L 68.14791299999996,79.24755500000003" fill="none" stroke="rgb(89,89,89)" stroke-width="0.1"/>
  <path d="M 68.14791299999996,79.53355500000004 L 68.14791299999996,79.818555" fill="none" stroke="rgb(89,89,89)" stroke-width="0.1"/>
  <path d="M 68.14791299999996,80.104555 L 68.14791299999996,80.390555" fill="none" stroke="rgb(89,89,89)" stroke-width="0.1"/>
  <path d="M 68.14791299999996,80.67655500000001 L 68.14791299999996,80.96155500000003" fill="none" stroke="rgb(89,89,89)" stroke-width="0.1"/>
  <path d="M 68.14791299999996,81.24755500000003 L 68.14791299999996,81.53355500000004" fill="none" stroke="rgb(89,89,89)" stroke-width="0.1"/>
  <path d="M 68.14791299999996,81.81955500000004 L 68.14791299999996,82.104555" fill="none" stroke="rgb(89,89,89)" stroke-width="0.1"/>
  <path d="M 68.14791299999996,82.390555 L 68.14791299999996,82.67655500000001" fill="none" stroke="rgb(89,89,89)" stroke-width="0.1"/>
  <path d="M 68.14791299999996,82.96255500000001 L 68.14791299999996,83.24755500000003" fill="none" stroke="rgb(89,89,89)" stroke-width="0.1"/>
  <path d="M 68.14791299999996,83.53355500000004 L 68.14791299999996,83.81955500000004" fill="none" stroke="rgb(89,89,89)" stroke-width="0.1"/>
  <path d="M 68.11591299999998,44.17255499999999 L 68.11591299999998,56.74055500000003" fill="none" stroke="rgb(178,0,178)" stroke-width="0.1"/>
  <path d="M 68.11591299999998,56.74055500000003 L 68.61591299999998,56.74055500000003" fill="none" stroke="rgb(178,0,178)" stroke-width="0.1"/>
  <path d="M 68.61591299999998,56.74055500000003 L 68.61591299999998,44.17255499999999" fill="none" stroke="rgb(178,0,178)" stroke-width="0.1"/>
  <path d="M 68.61591299999998,44.17255499999999 L 68.11591299999998,44.17255499999999" fill="none" stroke="rgb(178,0,178)" stroke-width="0.1"/>
  <path d="M 68.61591299999998,64.74055500000003 L 68.61591299999998,84.090555" fill="none" stroke="rgb(178,0,178)" stroke-width="0.1"/>
  <path d="M 68.61591299999998,84.090555 L 68.11591299999998,84.090555" fill="none" stroke="rgb(178,0,178)" stroke-width="0.1"/>
  <path d="M 68.11591299999998,84.090555 L 68.11591299999998,64.74055500000003" fill="none" stroke="rgb(178,0,178)" stroke-width="0.1"/>
  <path d="M 68.11591299999998,64.74055500000003 L 68.61591299999998,64.74055500000003" fill="none" stroke="rgb(178,0,178)" stroke-width="0.1"/>
  <path d="M 68.11591299999998,44.17255499999999 L 68.11591299999998,56.74055500000003" fill="none" stroke="rgb(89,89,89)" stroke-width="0.1"/>
  <path d="M 68.11591299999998,56.74055500000003 L 68.61591299999998,56.74055500000003" fill="none" stroke="rgb(89,89,89)" stroke-width="0.1"/>
  <path d="M 68.61591299999998,56.74055500000003 L 68.61591299999998,44.17255499999999" fill="none" stroke="rgb(89,89,89)" stroke-width="0.1"/>
  <path d="M 68.61591299999998,44.17255499999999 L 68.11591299999998,44.17255499999999" fill="none" stroke="rgb(89,89,89)" stroke-width="0.1"/>
  <path d="M 68.11591299999998,84.090555 L 68.61591299999998,84.090555" fill="none" stroke="rgb(89,89,89)" stroke-width="0.1"/>
  <path d="M 68.61591299999998,84.090555 L 68.61591299999998,64.74055500000003" fill="none" stroke="rgb(89,89,89)" stroke-width="0.1"/>
  <path d="M 68.61591299999998,64.74055500000003 L 68.11591299999998,64.74055500000003" fill="none" stroke="rgb(89,89,89)" stroke-width="0.1"/>
  <path d="M 68.11591299999998,64.74055500000003 L 68.11591299999998,84.090555" fill="none" stroke="rgb(89,89,89)" stroke-width="0.1"/>
 </g>
 <g id="layerA-洞口" inkscape:groupmode="layer" inkscape:label="A-洞口">
  <path d="M 70.60891299999997,71.74255500000004 L 100.0,71.74255500000004" fill="none" stroke="rgb(107,53,93)" stroke-width="0.1"/>
  <path d="M 100.0,79.741555 L 70.60891299999997,79.741555" fill="none" stroke="rgb(107,53,93)" stroke-width="0.1"/>
  <path d="M 70.60891299999997,79.741555 L 70.60891299999997,71.74255500000004" fill="none" stroke="rgb(107,53,93)" stroke-width="0.1"/>
  <path d="M 100.0,51.74255500000004 L 96.61591299999998,51.74255500000004" fill="none" stroke="rgb(178,0,0)" stroke-width="0.1"/>
  <path d="M 96.61591299999998,51.74255500000004 L 96.61591299999998,48.74255500000004" fill="none" stroke="rgb(178,0,0)" stroke-width="0.1"/>
  <path d="M 96.61591299999998,48.74255500000004 L 100.0,48.74255500000004" fill="none" stroke="rgb(178,0,0)" stroke-width="0.1"/>
  <path d="M 100.0,69.74255500000004 L 96.61591299999998,69.74255500000004" fill="none" stroke="rgb(178,0,0)" stroke-width="0.1"/>
  <path d="M 96.61591299999998,69.74255500000004 L 96.61591299999998,66.74255500000004" fill="none" stroke="rgb(178,0,0)" stroke-width="0.1"/>
  <path d="M 96.61591299999998,66.74255500000004 L 100.0,66.74255500000004" fill="none" stroke="rgb(178,0,0)" stroke-width="0.1"/>
  <path d="M 76.11591299999998,66.74255500000004 L 76.11591299999998,69.74255500000004" fill="none" stroke="rgb(178,0,0)" stroke-width="0.1"/>
  <path d="M 76.11591299999998,69.74255500000004 L 70.61591299999998,69.74255500000004" fill="none" stroke="rgb(178,0,0)" stroke-width="0.1"/>
  <path d="M 70.61591299999998,69.74255500000004 L 70.61591299999998,66.74255500000004" fill="none" stroke="rgb(178,0,0)" stroke-width="0.1"/>
  <path d="M 70.61591299999998,66.74255500000004 L 76.11591299999998,66.74255500000004" fill="none" stroke="rgb(178,0,0)" stroke-width="0.1"/>
  <path d="M 70.60891299999997,79.08255500000001 L 74.85091299999999,73.525555" fill="none" stroke="rgb(107,53,93)" stroke-width="0.1"/>
  <path d="M 74.85091299999999,73.525555 L 100.0,71.91112396054007" fill="none" stroke="rgb(107,53,93)" stroke-width="0.1"/>
  <path d="M 100.0,49.21444518823529 L 97.51591299999995,49.662555" fill="none" stroke="rgb(178,0,0)" stroke-width="0.1"/>
  <path d="M 97.51591299999995,49.662555 L 96.61591299999998,51.74255500000004" fill="none" stroke="rgb(178,0,0)" stroke-width="0.1"/>
  <path d="M 100.0,67.21444518823529 L 97.51591299999995,67.662555" fill="none" stroke="rgb(178,0,0)" stroke-width="0.1"/>
  <path d="M 97.51591299999995,67.662555 L 96.61591299999998,69.74255500000004" fill="none" stroke="rgb(178,0,0)" stroke-width="0.1"/>
  <path d="M 76.11591299999998,66.74255500000004 L 71.51591299999995,67.662555" fill="none" stroke="rgb(178,0,0)" stroke-width="0.1"/>
  <path d="M 71.51591299999995,67.662555 L 70.61591299999998,69.74255500000004" fill="none" stroke="rgb(178,0,0)" stroke-width="0.1"/>
 </g>
 <g id="layerA-空调" inkscape:groupmode="layer" inkscape:label="A-空调">
  <path d="M 6.605912999999987,27.01655500000004 L 0.0,31.641687760072784" fill="none" instance-id="-1" semantic-id="1" stroke="rgb(178,178,0)" stroke-width="0.1"/>
  <path d="M 3.821912999999995,26.52455500000002 L 0.0,29.20045725024562" fill="none" instance-id="-1" semantic-id="1" stroke="rgb(178,178,0)" stroke-width="0.1"/>
  <path d="M 0.0,17.563737142074274 L 6.605912999999987,27.01655500000004" fill="none" instance-id="-1" semantic-id="1" stroke="rgb(178,178,0)" stroke-width="0.1"/>
  <path d="M 0.0,21.055518184275627 L 3.821912999999995,26.52455500000002" fill="none" instance-id="-1" semantic-id="1" stroke="rgb(178,178,0)" stroke-width="0.1"/>
 </g>
 <g id="layerCOLUMN" inkscape:groupmode="layer" inkscape:label="COLUMN">
  <path d="M 18.620912999999973,58.743555000000015 L 18.620912999999973,66.74355500000001" fill="none" stroke="rgb(134,134,134)" stroke-width="0.1"/>
  <path d="M 18.620912999999973,66.74355500000001 L 26.620912999999973,66.74355500000001" fill="none" stroke="rgb(134,134,134)" stroke-width="0.1"/>
  <path d="M 26.620912999999973,66.74355500000001 L 26.620912999999973,58.743555000000015" fill="none" stroke="rgb(134,134,134)" stroke-width="0.1"/>
  <path d="M 26.620912999999973,58.743555000000015 L 18.620912999999973,58.743555000000015" fill="none" stroke="rgb(134,134,134)" stroke-width="0.1"/>
  <path d="M 26.30891299999996,5.0965550000000235 L 18.30891299999996,5.0965550000000235" fill="none" stroke="rgb(134,134,134)" stroke-width="0.1"/>
  <path d="M 18.30891299999996,5.0965550000000235 L 18.31091299999997,15.007555000000025" fill="none" stroke="rgb(134,134,134)" stroke-width="0.1"/>
  <path d="M 18.31091299999997,15.007555000000025 L 26.30891299999996,15.007555000000025" fill="none" stroke="rgb(134,134,134)" stroke-width="0.1"/>
  <path d="M 26.30891299999996,15.007555000000025 L 26.30891299999996,5.0965550000000235" fill="none" stroke="rgb(134,134,134)" stroke-width="0.1"/>
 </g>
 <g id="layerDIM_LEAD" inkscape:groupmode="layer" inkscape:label="DIM_LEAD">
  <path d="M 92.97391299999998,87.770555 L 100.0,86.52432507248085" fill="none" stroke="rgb(0,178,0)" stroke-width="0.1"/>
  <path d="M 76.67391299999997,87.770555 L 92.97391299999998,87.770555" fill="none" stroke="rgb(0,178,0)" stroke-width="0.1"/>
  <path d="M 92.97391299999998,87.770555 L 98.02571603153649,100.0" fill="none" stroke="rgb(0,178,0)" stroke-width="0.1"/>
  <text fill="rgb(0,0,0)" font-family="Noto Sans CJK SC" font-size="2" transform="rotate(-0.0,76.67391299999997,86.30055500000003)" x="76.67391299999997" y="86.30055500000003">
   此门扇180°开启
  </text>
 </g>
 <g id="layerDIM_SYMB" inkscape:groupmode="layer" inkscape:label="DIM_SYMB">
  <text fill="rgb(0,178,0)" font-family="Noto Sans CJK SC" font-size="2" transform="rotate(-0.0,89.88691299999999,89.92255499999999)" x="89.88691299999999" y="89.92255499999999">
   共用前室
  </text>
  <text fill="rgb(0,178,0)" font-family="Noto Sans CJK SC" font-size="2" transform="rotate(-0.0,81.61091299999998,44.95955500000002)" x="81.61091299999998" y="44.95955500000002">
   8#电井
  </text>
  <text fill="rgb(0,178,0)" font-family="Noto Sans CJK SC" font-size="2" transform="rotate(-0.0,88.49291299999999,59.42255499999999)" x="88.49291299999999" y="59.42255499999999">
   风井
  </text>
  <text fill="rgb(0,0,0)" font-family="Noto Sans CJK SC" font-size="2" transform="rotate(-0.0,84.95691299999999,99.88755500000002)" x="84.95691299999999" y="99.88755500000002">
   下2步
  </text>
 </g>
 <g id="layerDOOR_FIRE" inkscape:groupmode="layer" inkscape:label="DOOR_FIRE">
  <path d="M 69.61591299999998,56.74055500000003 A 8.0,8.0 0.0 0,0 63.958912999999995,59.08355499999999" fill="none" instance-id="5" semantic-id="3" stroke="rgb(0,178,178)" stroke-width="0.1"/>
  <path d="M 69.61591299999998,94.24255500000004 A 9.2625,9.2625 0.0 0,0 78.87491299999999,85.217555" fill="none" instance-id="6" semantic-id="4" stroke="rgb(0,178,178)" stroke-width="0.1"/>
  <path d="M 78.10318663171734,99.79663548160494 L 77.8857318497275,99.33414587259483" fill="none" instance-id="6" semantic-id="4" stroke="rgb(0,178,178)" stroke-width="0.1"/>
  <path d="M 77.8857318497275,99.33414587259483 L 77.6430997940015,98.88435380264838" fill="none" instance-id="6" semantic-id="4" stroke="rgb(0,178,178)" stroke-width="0.1"/>
  <path d="M 77.6430997940015,98.88435380264838 L 77.37602911165908,98.44862857812524" fill="none" instance-id="6" semantic-id="4" stroke="rgb(0,178,178)" stroke-width="0.1"/>
  <path d="M 77.37602911165908,98.44862857812524 L 77.0853328485681,98.02829668155124" fill="none" instance-id="6" semantic-id="4" stroke="rgb(0,178,178)" stroke-width="0.1"/>
  <path d="M 77.0853328485681,98.02829668155124 L 76.77189597418078,97.62463773339465" fill="none" instance-id="6" semantic-id="4" stroke="rgb(0,178,178)" stroke-width="0.1"/>
  <path d="M 76.77189597418078,97.62463773339465 L 76.43667268741291,97.23888059650517" fill="none" instance-id="6" semantic-id="4" stroke="rgb(0,178,178)" stroke-width="0.1"/>
  <path d="M 76.43667268741291,97.23888059650517 L 76.08068351176678,96.87219963507505" fill="none" instance-id="6" semantic-id="4" stroke="rgb(0,178,178)" stroke-width="0.1"/>
  <path d="M 76.08068351176678,96.87219963507505 L 75.70501218854145,96.52571113951035" fill="none" instance-id="6" semantic-id="4" stroke="rgb(0,178,178)" stroke-width="0.1"/>
  <path d="M 75.70501218854145,96.52571113951035 L 75.31080237758863,96.20046992809773" fill="none" instance-id="6" semantic-id="4" stroke="rgb(0,178,178)" stroke-width="0.1"/>
  <path d="M 75.31080237758863,96.20046992809773 L 74.89925417565814,95.89746613581065" fill="none" instance-id="6" semantic-id="4" stroke="rgb(0,178,178)" stroke-width="0.1"/>
  <path d="M 74.89925417565814,95.89746613581065 L 74.47162046293147,95.6176222000318" fill="none" instance-id="6" semantic-id="4" stroke="rgb(0,178,178)" stroke-width="0.1"/>
  <path d="M 74.47162046293147,95.6176222000318 L 74.02920308886661,95.36179005236835" fill="none" instance-id="6" semantic-id="4" stroke="rgb(0,178,178)" stroke-width="0.1"/>
  <path d="M 74.02920308886661,95.36179005236835 L 73.57334890896504,95.13074852510789" fill="none" instance-id="6" semantic-id="4" stroke="rgb(0,178,178)" stroke-width="0.1"/>
  <path d="M 73.57334890896504,95.13074852510789 L 73.10544568452661,94.92520098021208" fill="none" instance-id="6" semantic-id="4" stroke="rgb(0,178,178)" stroke-width="0.1"/>
  <path d="M 73.10544568452661,94.92520098021208 L 72.62691785787428,94.74577316806477" fill="none" instance-id="6" semantic-id="4" stroke="rgb(0,178,178)" stroke-width="0.1"/>
  <path d="M 72.62691785787428,94.74577316806477 L 72.13922221591048,94.5930113224943" fill="none" instance-id="6" semantic-id="4" stroke="rgb(0,178,178)" stroke-width="0.1"/>
  <path d="M 72.13922221591048,94.5930113224943 L 71.64384345520682,94.46738049786819" fill="none" instance-id="6" semantic-id="4" stroke="rgb(0,178,178)" stroke-width="0.1"/>
  <path d="M 71.64384345520682,94.46738049786819 L 71.14228966212755,94.36926315332408" fill="none" instance-id="6" semantic-id="4" stroke="rgb(0,178,178)" stroke-width="0.1"/>
  <path d="M 71.14228966212755,94.36926315332408 L 70.63608772174808,94.2989579884453" fill="none" instance-id="6" semantic-id="4" stroke="rgb(0,178,178)" stroke-width="0.1"/>
  <path d="M 70.63608772174808,94.2989579884453 L 70.12677866954363,94.25667903392684" fill="none" instance-id="6" semantic-id="4" stroke="rgb(0,178,178)" stroke-width="0.1"/>
  <path d="M 70.12677866954363,94.25667903392684 L 69.61591299999998,94.24255500000004" fill="none" instance-id="6" semantic-id="4" stroke="rgb(0,178,178)" stroke-width="0.1"/>
  <path d="M 63.958912999999995,59.08355499999999 L 69.61591299999998,64.74055500000003" fill="none" instance-id="5" semantic-id="3" stroke="rgb(0,178,178)" stroke-width="0.1"/>
  <path d="M 68.61591299999998,64.74055500000003 L 68.61591299999998,56.74055500000003" fill="none" instance-id="5" semantic-id="3" stroke="rgb(0,178,178)" stroke-width="0.1"/>
  <path d="M 70.61591299999998,64.74055500000003 L 70.61591299999998,56.74055500000003" fill="none" instance-id="5" semantic-id="3" stroke="rgb(0,178,178)" stroke-width="0.1"/>
  <path d="M 78.87791299999998,85.217555 L 78.87791299999998,84.74255500000004" fill="none" instance-id="6" semantic-id="4" stroke="rgb(0,178,178)" stroke-width="0.1"/>
  <path d="M 78.87791299999998,84.74255500000004 L 69.61591299999998,84.74255500000004" fill="none" instance-id="6" semantic-id="4" stroke="rgb(0,178,178)" stroke-width="0.1"/>
  <path d="M 69.61591299999998,84.74255500000004 L 69.61591299999998,85.217555" fill="none" instance-id="6" semantic-id="4" stroke="rgb(0,178,178)" stroke-width="0.1"/>
  <path d="M 69.61591299999998,85.217555 L 78.87791299999998,85.217555" fill="none" instance-id="6" semantic-id="4" stroke="rgb(0,178,178)" stroke-width="0.1"/>
 </g>
 <g id="layerDOOR_FIRE_TEXT" inkscape:groupmode="layer" inkscape:label="DOOR_FIRE_TEXT">
  <text fill="rgb(0,0,0)" font-family="Noto Sans CJK SC" font-size="2" transform="rotate(-90.0,75.86391299999997,67.10555500000004)" x="75.86391299999997" y="67.10555500000004">
   FM乙0818
  </text>
  <text fill="rgb(0,0,0)" font-family="Noto Sans CJK SC" font-size="2" transform="rotate(90.0,63.36791299999999,87.878555)" x="63.36791299999999" y="87.878555">
   FM乙1923
  </text>
  <text fill="rgb(0,0,0)" font-family="Noto Sans CJK SC" font-size="2" transform="rotate(90.0,97.29591299999998,88.328555)" x="97.29591299999998" y="88.328555">
   FM乙1921
  </text>
 </g>
 <g id="layerP-EQUIP_消火栓" inkscape:groupmode="layer" inkscape:label="P-EQUIP_消火栓">
  <path d="M 67.501913,3.449555000000032 L 70.10891299999997,12.715554999999995" fill="none" stroke="rgb(0,0,0)" stroke-width="0.1"/>
  <path d="M 70.10891299999997,12.715554999999995 L 73.708913,12.715554999999995" fill="none" stroke="rgb(0,0,0)" stroke-width="0.1"/>
  <path d="M 73.708913,12.715554999999995 L 70.10891299999997,1.4655549999999948" fill="none" stroke="rgb(0,0,0)" stroke-width="0.1"/>
  <path d="M 70.10891299999997,1.4655549999999948 L 70.10891299999997,12.715554999999995" fill="none" stroke="rgb(0,0,0)" stroke-width="0.1"/>
  <path d="M 70.10891299999997,1.4655549999999948 L 73.708913,1.4655549999999948" fill="none" stroke="rgb(0,0,0)" stroke-width="0.1"/>
  <path d="M 73.708913,1.4655549999999948 L 73.708913,12.715554999999995" fill="none" stroke="rgb(0,0,0)" stroke-width="0.1"/>
  <path d="M 67.38591299999996,3.4405550000000176 L 69.99291299999999,12.706555000000037" fill="none" stroke="rgb(0,0,0)" stroke-width="0.1"/>
  <path d="M 69.99291299999999,12.706555000000037 L 73.59291299999995,12.706555000000037" fill="none" stroke="rgb(0,0,0)" stroke-width="0.1"/>
  <path d="M 73.59291299999995,12.706555000000037 L 69.99291299999999,1.4565550000000371" fill="none" stroke="rgb(0,0,0)" stroke-width="0.1"/>
  <path d="M 69.99291299999999,1.4565550000000371 L 69.99291299999999,12.706555000000037" fill="none" stroke="rgb(0,0,0)" stroke-width="0.1"/>
  <path d="M 69.99291299999999,1.4565550000000371 L 73.59291299999995,1.4565550000000371" fill="none" stroke="rgb(0,0,0)" stroke-width="0.1"/>
  <path d="M 73.59291299999995,1.4565550000000371 L 73.59291299999995,12.706555000000037" fill="none" stroke="rgb(0,0,0)" stroke-width="0.1"/>
 </g>
 <g id="layerP-EQUIP_灭火器" inkscape:groupmode="layer" inkscape:label="P-EQUIP_灭火器">
  <path d="M 67.24891299999996,8.054554999999993 L 67.11791299999999,7.924554999999998" fill="none" stroke="rgb(0,0,0)" stroke-width="0.1"/>
  <path d="M 67.77891299999999,8.054554999999993 L 67.11791299999999,7.393554999999992" fill="none" stroke="rgb(0,0,0)" stroke-width="0.1"/>
  <path d="M 68.30891299999996,8.054554999999993 L 67.11791299999999,6.863555000000019" fill="none" stroke="rgb(0,0,0)" stroke-width="0.1"/>
  <path d="M 68.83991299999997,8.054554999999993 L 67.11791299999999,6.33355499999999" fill="none" stroke="rgb(0,0,0)" stroke-width="0.1"/>
  <path d="M 69.06591299999997,7.75055500000002 L 67.42191299999996,6.107554999999991" fill="none" stroke="rgb(0,0,0)" stroke-width="0.1"/>
  <path d="M 69.06591299999997,7.22055499999999 L 67.95291299999997,6.107554999999991" fill="none" stroke="rgb(0,0,0)" stroke-width="0.1"/>
  <path d="M 69.06591299999997,6.689555000000041 L 68.482913,6.107554999999991" fill="none" stroke="rgb(0,0,0)" stroke-width="0.1"/>
  <path d="M 69.06591299999997,6.159555000000012 L 69.01291299999997,6.107554999999991" fill="none" stroke="rgb(0,0,0)" stroke-width="0.1"/>
  <path d="M 67.364913,8.064555000000041 L 67.23391299999997,7.933555000000013" fill="none" stroke="rgb(0,0,0)" stroke-width="0.1"/>
  <path d="M 67.89491299999997,8.064555000000041 L 67.23391299999997,7.40355500000004" fill="none" stroke="rgb(0,0,0)" stroke-width="0.1"/>
  <path d="M 68.424913,8.064555000000041 L 67.23391299999997,6.87355500000001" fill="none" stroke="rgb(0,0,0)" stroke-width="0.1"/>
  <path d="M 68.95591299999995,8.064555000000041 L 67.23391299999997,6.342555000000004" fill="none" stroke="rgb(0,0,0)" stroke-width="0.1"/>
  <path d="M 69.18191299999995,7.760555000000011 L 67.537913,6.116555000000005" fill="none" stroke="rgb(0,0,0)" stroke-width="0.1"/>
  <path d="M 69.18191299999995,7.229555000000005 L 68.06891299999995,6.116555000000005" fill="none" stroke="rgb(0,0,0)" stroke-width="0.1"/>
  <path d="M 69.18191299999995,6.699555000000032 L 68.59891299999998,6.116555000000005" fill="none" stroke="rgb(0,0,0)" stroke-width="0.1"/>
  <path d="M 69.18191299999995,6.169555000000003 L 69.12891299999995,6.116555000000005" fill="none" stroke="rgb(0,0,0)" stroke-width="0.1"/>
  <path d="M 64.56991299999999,7.081555000000037 L 69.72391299999998,10.056555000000003" fill="none" stroke="rgb(0,0,0)" stroke-width="0.1"/>
  <path d="M 69.72391299999998,10.056555000000003 L 69.72391299999998,4.105555000000038" fill="none" stroke="rgb(0,0,0)" stroke-width="0.1"/>
  <path d="M 69.72391299999998,4.105555000000038 L 64.56991299999999,7.081555000000037" fill="none" stroke="rgb(0,0,0)" stroke-width="0.1"/>
  <path d="M 67.11791299999999,8.054554999999993 L 67.11791299999999,6.107554999999991" fill="none" stroke="rgb(0,0,0)" stroke-width="0.1"/>
  <path d="M 67.11791299999999,6.107554999999991 L 69.06591299999997,6.107554999999991" fill="none" stroke="rgb(0,0,0)" stroke-width="0.1"/>
  <path d="M 69.06591299999997,6.107554999999991 L 69.06591299999997,8.054554999999993" fill="none" stroke="rgb(0,0,0)" stroke-width="0.1"/>
  <path d="M 69.06591299999997,8.054554999999993 L 67.11791299999999,8.054554999999993" fill="none" stroke="rgb(0,0,0)" stroke-width="0.1"/>
  <path d="M 64.68591299999997,7.090554999999995 L 69.83991299999997,10.066554999999994" fill="none" stroke="rgb(0,0,0)" stroke-width="0.1"/>
  <path d="M 69.83991299999997,10.066554999999994 L 69.83991299999997,4.114554999999996" fill="none" stroke="rgb(0,0,0)" stroke-width="0.1"/>
  <path d="M 69.83991299999997,4.114554999999996 L 64.68591299999997,7.090554999999995" fill="none" stroke="rgb(0,0,0)" stroke-width="0.1"/>
  <path d="M 67.23391299999997,8.064555000000041 L 67.23391299999997,6.116555000000005" fill="none" stroke="rgb(0,0,0)" stroke-width="0.1"/>
  <path d="M 67.23391299999997,6.116555000000005 L 69.18191299999995,6.116555000000005" fill="none" stroke="rgb(0,0,0)" stroke-width="0.1"/>
  <path d="M 69.18191299999995,6.116555000000005 L 69.18191299999995,8.064555000000041" fill="none" stroke="rgb(0,0,0)" stroke-width="0.1"/>
  <path d="M 69.18191299999995,8.064555000000041 L 67.23391299999997,8.064555000000041" fill="none" stroke="rgb(0,0,0)" stroke-width="0.1"/>
  <path d="M 67.11791299999999,8.054554999999993 L 69.06591299999997,8.054554999999993" fill="none" stroke="rgb(0,0,0)" stroke-width="0.1"/>
  <path d="M 69.06591299999997,8.054554999999993 L 69.06591299999997,6.107554999999991" fill="none" stroke="rgb(0,0,0)" stroke-width="0.1"/>
  <path d="M 69.06591299999997,6.107554999999991 L 67.11791299999999,6.107554999999991" fill="none" stroke="rgb(0,0,0)" stroke-width="0.1"/>
  <path d="M 67.11791299999999,6.107554999999991 L 67.11791299999999,8.054554999999993" fill="none" stroke="rgb(0,0,0)" stroke-width="0.1"/>
  <path d="M 67.23391299999997,8.064555000000041 L 69.18191299999995,8.064555000000041" fill="none" stroke="rgb(0,0,0)" stroke-width="0.1"/>
  <path d="M 69.18191299999995,8.064555000000041 L 69.18191299999995,6.116555000000005" fill="none" stroke="rgb(0,0,0)" stroke-width="0.1"/>
  <path d="M 69.18191299999995,6.116555000000005 L 67.23391299999997,6.116555000000005" fill="none" stroke="rgb(0,0,0)" stroke-width="0.1"/>
  <path d="M 67.23391299999997,6.116555000000005 L 67.23391299999997,8.064555000000041" fill="none" stroke="rgb(0,0,0)" stroke-width="0.1"/>
 </g>
 <g id="layerP-VPIPE-消防" inkscape:groupmode="layer" inkscape:label="P-VPIPE-消防">
  <circle cx="72.097913" cy="0.8475549999999998" fill="none" r="0.75" stroke="rgb(178,0,0)" stroke-width="0.1"/>
 </g>
 <g id="layerP-立管" inkscape:groupmode="layer" inkscape:label="P-立管">
  <path d="M 71.10891299999997,1.8365550000000326 L 72.945468,0.0" fill="none" stroke="rgb(178,0,0)" stroke-width="0.1"/>
  <path d="M 71.27235799999994,0.0 L 73.10891299999997,1.8365550000000326" fill="none" stroke="rgb(178,0,0)" stroke-width="0.1"/>
  <path d="M 71.10891299999997,0.0 L 71.10891299999997,1.8365550000000326" fill="none" stroke="rgb(178,0,0)" stroke-width="0.1"/>
  <path d="M 71.10891299999997,1.8365550000000326 L 73.10891299999997,1.8365550000000326" fill="none" stroke="rgb(178,0,0)" stroke-width="0.1"/>
  <path d="M 73.10891299999997,1.8365550000000326 L 73.10891299999997,0.0" fill="none" stroke="rgb(178,0,0)" stroke-width="0.1"/>
 </g>
 <g id="layerPUB_DIM" inkscape:groupmode="layer" inkscape:label="PUB_DIM">
  <path d="M 20.446869869936165,0.4070450329134587 L 20.43620680607097,0.9113840044284416" fill="none" stroke="rgb(26,107,0)" stroke-width="0.1"/>
  <path d="M 20.43620680607097,0.9113840044284416 L 20.46670705812653,1.4149127858743213" fill="none" stroke="rgb(26,107,0)" stroke-width="0.1"/>
  <path d="M 20.46670705812653,1.4149127858743213 L 20.538167459090175,1.9142772922360223" fill="none" stroke="rgb(26,107,0)" stroke-width="0.1"/>
  <path d="M 20.538167459090175,1.9142772922360223 L 20.650111999905675,2.4061511773950315" fill="none" stroke="rgb(26,107,0)" stroke-width="0.1"/>
  <path d="M 20.650111999905675,2.4061511773950315 L 20.80179500024508,2.8872579914475978" fill="none" stroke="rgb(26,107,0)" stroke-width="0.1"/>
  <path d="M 20.80179500024508,2.8872579914475978 L 20.99220607560369,3.3543930056571867" fill="none" stroke="rgb(26,107,0)" stroke-width="0.1"/>
  <path d="M 20.99220607560369,3.3543930056571867 L 21.220076867631235,3.804444559660169" fill="none" stroke="rgb(26,107,0)" stroke-width="0.1"/>
  <path d="M 21.220076867631235,3.804444559660169 L 21.483889492867945,4.234414788729055" fill="none" stroke="rgb(26,107,0)" stroke-width="0.1"/>
  <path d="M 21.483889492867945,4.234414788729055 L 21.78188665360676,4.641439593024074" fill="none" stroke="rgb(26,107,0)" stroke-width="0.1"/>
  <path d="M 21.78188665360676,4.641439593024074 L 22.112083343531935,5.022807715816498" fill="none" stroke="rgb(26,107,0)" stroke-width="0.1"/>
  <path d="M 22.112083343531935,5.022807715816498 L 22.47228007016065,5.375978803599423" fill="none" stroke="rgb(26,107,0)" stroke-width="0.1"/>
  <path d="M 22.47228007016065,5.375978803599423 L 22.860077506011066,5.698600327784675" fill="none" stroke="rgb(26,107,0)" stroke-width="0.1"/>
  <path d="M 22.860077506011066,5.698600327784675 L 23.272892470902946,5.988523255269058" fill="none" stroke="rgb(26,107,0)" stroke-width="0.1"/>
  <path d="M 23.272892470902946,5.988523255269058 L 23.707975138930124,6.2438163634842" fill="none" stroke="rgb(26,107,0)" stroke-width="0.1"/>
  <path d="M 23.707975138930124,6.2438163634842 L 24.162427355486898,6.462779104576043" fill="none" stroke="rgb(26,107,0)" stroke-width="0.1"/>
  <path d="M 24.162427355486898,6.462779104576043 L 24.633221942334785,6.643952933024025" fill="none" stroke="rgb(26,107,0)" stroke-width="0.1"/>
  <path d="M 24.633221942334785,6.643952933024025 L 25.117222862117046,6.7861310212434205" fill="none" stroke="rgb(26,107,0)" stroke-width="0.1"/>
  <path d="M 25.117222862117046,6.7861310212434205 L 25.61120610800009,6.88836629845548" fill="none" stroke="rgb(26,107,0)" stroke-width="0.1"/>
  <path d="M 25.61120610800009,6.88836629845548 L 26.111881179294187,6.9499777592760665" fill="none" stroke="rgb(26,107,0)" stroke-width="0.1"/>
  <path d="M 26.111881179294187,6.9499777592760665 L 26.615912999999978,6.97055499999999" fill="none" stroke="rgb(26,107,0)" stroke-width="0.1"/>
  <path d="M 68.87391299999996,77.38755500000002 L 70.357913,75.902555" fill="none" stroke="rgb(26,107,0)" stroke-width="0.1"/>
  <path d="M 69.61591299999998,80.84555499999999 L 69.61591299999998,72.44555500000001" fill="none" stroke="rgb(26,107,0)" stroke-width="0.1"/>
  <path d="M 95.87391299999996,77.38755500000002 L 97.357913,75.902555" fill="none" stroke="rgb(26,107,0)" stroke-width="0.1"/>
  <path d="M 96.61591299999998,80.84555499999999 L 96.61591299999998,72.44555500000001" fill="none" stroke="rgb(26,107,0)" stroke-width="0.1"/>
  <path d="M 25.87391299999996,7.712555000000009 L 27.357912999999996,6.227554999999995" fill="none" stroke="rgb(26,107,0)" stroke-width="0.1"/>
  <path d="M 26.615912999999978,11.170555000000036 L 26.615912999999978,2.7705550000000017" fill="none" stroke="rgb(26,107,0)" stroke-width="0.1"/>
  <path d="M 57.90991299999996,84.74255500000004 L 66.309913,84.74255500000004" fill="none" stroke="rgb(26,107,0)" stroke-width="0.1"/>
  <path d="M 57.90991299999996,80.74355500000001 L 66.309913,80.74355500000001" fill="none" stroke="rgb(26,107,0)" stroke-width="0.1"/>
  <path d="M 57.90991299999996,70.74255500000004 L 66.309913,70.74255500000004" fill="none" stroke="rgb(26,107,0)" stroke-width="0.1"/>
  <path d="M 57.90991299999996,64.74055500000003 L 66.309913,64.74055500000003" fill="none" stroke="rgb(26,107,0)" stroke-width="0.1"/>
  <path d="M 57.90991299999996,56.74055500000003 L 66.309913,56.74055500000003" fill="none" stroke="rgb(26,107,0)" stroke-width="0.1"/>
  <path d="M 57.90991299999996,47.74255500000004 L 66.309913,47.74255500000004" fill="none" stroke="rgb(26,107,0)" stroke-width="0.1"/>
  <path d="M 57.90991299999996,30.17355500000002 L 66.309913,30.17355500000002" fill="none" stroke="rgb(26,107,0)" stroke-width="0.1"/>
  <path d="M 57.90991299999996,12.173555000000022 L 66.309913,12.173555000000022" fill="none" stroke="rgb(26,107,0)" stroke-width="0.1"/>
  <path d="M 61.366912999999954,84.00055500000002 L 62.85191299999997,85.48555500000003" fill="none" stroke="rgb(26,107,0)" stroke-width="0.1"/>
  <path d="M 61.366912999999954,80.00055500000002 L 62.85191299999997,81.48555500000003" fill="none" stroke="rgb(26,107,0)" stroke-width="0.1"/>
  <path d="M 61.366912999999954,70.00055500000002 L 62.85191299999997,71.484555" fill="none" stroke="rgb(26,107,0)" stroke-width="0.1"/>
  <path d="M 61.366912999999954,63.99855500000001 L 62.85191299999997,65.48355500000002" fill="none" stroke="rgb(26,107,0)" stroke-width="0.1"/>
  <path d="M 61.366912999999954,55.99855500000001 L 62.85191299999997,57.483555000000024" fill="none" stroke="rgb(26,107,0)" stroke-width="0.1"/>
  <path d="M 61.366912999999954,47.00055500000002 L 62.85191299999997,48.484555" fill="none" stroke="rgb(26,107,0)" stroke-width="0.1"/>
  <path d="M 61.366912999999954,29.431555000000003 L 62.85191299999997,30.916555000000017" fill="none" stroke="rgb(26,107,0)" stroke-width="0.1"/>
  <path d="M 61.366912999999954,11.431555000000003 L 62.85191299999997,12.916555000000017" fill="none" stroke="rgb(26,107,0)" stroke-width="0.1"/>
  <path d="M 69.61591299999998,82.390555 L 69.61591299999998,76.645555" fill="none" stroke="rgb(26,107,0)" stroke-width="0.1"/>
  <path d="M 69.61591299999998,76.645555 L 100.0,76.645555" fill="none" stroke="rgb(26,107,0)" stroke-width="0.1"/>
  <path d="M 62.109913000000006,0.0 L 62.109913000000006,100.0" fill="none" stroke="rgb(26,107,0)" stroke-width="0.1"/>
  <path d="M 28.615912999999978,0.15955500000001166 L 28.615912999999978,0.0" fill="none" stroke="rgb(26,107,0)" stroke-width="0.1"/>
  <path d="M 68.61591299999998,0.0 L 68.61591299999998,0.15955500000001166" fill="none" stroke="rgb(26,107,0)" stroke-width="0.1"/>
  <text fill="rgb(0,0,0)" font-family="Noto Sans CJK SC" font-size="2" transform="rotate(-5.03948e-07,77.93591299999997,74.58755500000001)" x="77.93591299999997" y="74.58755500000001">
   2700
  </text>
  <text fill="rgb(0,0,0)" font-family="Noto Sans CJK SC" font-size="2" transform="rotate(-5.03948e-07,96.335913,74.58755500000001)" x="96.335913" y="74.58755500000001">
   700
  </text>
  <text fill="rgb(0,0,0)" font-family="Noto Sans CJK SC" font-size="2" transform="rotate(72.5,14.05091299999998,0.34755499999999984)" x="14.05091299999998" y="0.34755499999999984">
   145%%d
  </text>
  <text fill="rgb(0,0,0)" font-family="Noto Sans CJK SC" font-size="2" transform="rotate(-450.0,60.051912999999956,26.073555)" x="60.051912999999956" y="26.073555">
   1800
  </text>
  <text fill="rgb(0,0,0)" font-family="Noto Sans CJK SC" font-size="2" transform="rotate(-450.0,60.051912999999956,43.858555000000024)" x="60.051912999999956" y="43.858555000000024">
   1757
  </text>
  <text fill="rgb(0,0,0)" font-family="Noto Sans CJK SC" font-size="2" transform="rotate(-450.0,60.051912999999956,56.021555000000035)" x="60.051912999999956" y="56.021555000000035">
   900
  </text>
  <text fill="rgb(0,0,0)" font-family="Noto Sans CJK SC" font-size="2" transform="rotate(-450.0,60.051912999999956,64.520555)" x="60.051912999999956" y="64.520555">
   800
  </text>
  <text fill="rgb(0,0,0)" font-family="Noto Sans CJK SC" font-size="2" transform="rotate(-450.0,60.051912999999956,71.52155500000003)" x="60.051912999999956" y="71.52155500000003">
   600
  </text>
  <text fill="rgb(0,0,0)" font-family="Noto Sans CJK SC" font-size="2" transform="rotate(-450.0,60.051912999999956,80.64255500000002)" x="60.051912999999956" y="80.64255500000002">
   1000
  </text>
  <text fill="rgb(0,0,0)" font-family="Noto Sans CJK SC" font-size="2" transform="rotate(-450.0,56.52391299999999,86.52355499999999)" x="56.52391299999999" y="86.52355499999999">
   400
  </text>
  <text fill="rgb(0,0,0)" font-family="Noto Sans CJK SC" font-size="2" transform="rotate(-450.0,60.051912999999956,99.14255500000002)" x="60.051912999999956" y="99.14255500000002">
   1900
  </text>
 </g>
 <g id="layerPUB_HATCH" inkscape:groupmode="layer" inkscape:label="PUB_HATCH">
  <path d="M 18.620912999999973,66.74355500000001 L 26.620912999999973,66.74355500000001" fill="none" stroke="rgb(89,89,89)" stroke-width="0.1"/>
  <path d="M 26.620912999999973,66.74355500000001 L 26.620912999999973,58.743555000000015" fill="none" stroke="rgb(89,89,89)" stroke-width="0.1"/>
  <path d="M 26.620912999999973,58.743555000000015 L 18.620912999999973,58.743555000000015" fill="none" stroke="rgb(89,89,89)" stroke-width="0.1"/>
  <path d="M 18.620912999999973,58.743555000000015 L 18.620912999999973,66.74355500000001" fill="none" stroke="rgb(89,89,89)" stroke-width="0.1"/>
  <path d="M 18.30891299999996,5.0965550000000235 L 18.31091299999997,15.007555000000025" fill="none" stroke="rgb(89,89,89)" stroke-width="0.1"/>
  <path d="M 18.31091299999997,15.007555000000025 L 26.30891299999996,15.007555000000025" fill="none" stroke="rgb(89,89,89)" stroke-width="0.1"/>
  <path d="M 26.30891299999996,15.007555000000025 L 26.30891299999996,5.0965550000000235" fill="none" stroke="rgb(89,89,89)" stroke-width="0.1"/>
  <path d="M 26.30891299999996,5.0965550000000235 L 18.30891299999996,5.0965550000000235" fill="none" stroke="rgb(89,89,89)" stroke-width="0.1"/>
 </g>
 <g id="layerWALL" inkscape:groupmode="layer" inkscape:label="WALL">
  <path d="M 96.72191299999997,79.741555 L 100.0,79.741555" fill="none" instance-id="-1" semantic-id="1" stroke="rgb(0,0,0)" stroke-width="0.1"/>
  <path d="M 96.72191299999997,81.741555 L 100.0,81.741555" fill="none" instance-id="-1" semantic-id="1" stroke="rgb(0,0,0)" stroke-width="0.1"/>
  <path d="M 18.620912999999973,63.743555000000015 L 0.0,63.743555000000015" fill="none" instance-id="-1" semantic-id="1" stroke="rgb(0,0,0)" stroke-width="0.1"/>
  <path d="M 18.620912999999973,61.743555000000015 L 0.0,61.743555000000015" fill="none" instance-id="-1" semantic-id="1" stroke="rgb(0,0,0)" stroke-width="0.1"/>
  <path d="M 70.61591299999998,46.74255500000004 L 100.0,46.74255500000004" fill="none" instance-id="-1" semantic-id="1" stroke="rgb(0,0,0)" stroke-width="0.1"/>
  <path d="M 70.61591299999998,48.74255500000004 L 100.0,48.74255500000004" fill="none" instance-id="-1" semantic-id="1" stroke="rgb(0,0,0)" stroke-width="0.1"/>
  <path d="M 70.61591299999998,69.74255500000004 L 100.0,69.74255500000004" fill="none" instance-id="-1" semantic-id="1" stroke="rgb(0,0,0)" stroke-width="0.1"/>
  <path d="M 70.61591299999998,71.74255500000004 L 100.0,71.74255500000004" fill="none" instance-id="-1" semantic-id="1" stroke="rgb(0,0,0)" stroke-width="0.1"/>
  <path d="M 70.61591299999998,79.74355500000001 L 96.72191299999997,79.74355500000001" fill="none" instance-id="-1" semantic-id="1" stroke="rgb(0,0,0)" stroke-width="0.1"/>
  <path d="M 70.61591299999998,81.74355500000001 L 96.72191299999997,81.74355500000001" fill="none" instance-id="-1" semantic-id="1" stroke="rgb(0,0,0)" stroke-width="0.1"/>
  <path d="M 75.11591299999998,4.7425550000000385 L 100.0,4.7425550000000385" fill="none" instance-id="-1" semantic-id="1" stroke="rgb(0,0,0)" stroke-width="0.1"/>
  <path d="M 75.11591299999998,6.7425550000000385 L 100.0,6.7425550000000385" fill="none" instance-id="-1" semantic-id="1" stroke="rgb(0,0,0)" stroke-width="0.1"/>
  <path d="M 75.11591299999998,4.7425550000000385 L 75.11591299999998,6.7425550000000385" fill="none" instance-id="-1" semantic-id="1" stroke="rgb(0,0,0)" stroke-width="0.1"/>
  <path d="M 70.61591299999998,44.17255499999999 L 70.61591299999998,46.74255500000004" fill="none" instance-id="-1" semantic-id="1" stroke="rgb(0,0,0)" stroke-width="0.1"/>
  <path d="M 68.61591299999998,44.17255499999999 L 68.61591299999998,47.74255500000004" fill="none" instance-id="-1" semantic-id="1" stroke="rgb(0,0,0)" stroke-width="0.1"/>
  <path d="M 70.61591299999998,44.17255499999999 L 68.61591299999998,44.17255499999999" fill="none" instance-id="-1" semantic-id="1" stroke="rgb(0,0,0)" stroke-width="0.1"/>
  <path d="M 68.61591299999998,80.74355500000001 L 68.61591299999998,70.74255500000004" fill="none" instance-id="-1" semantic-id="1" stroke="rgb(0,0,0)" stroke-width="0.1"/>
  <path d="M 70.61591299999998,79.74355500000001 L 70.61591299999998,71.74255500000004" fill="none" instance-id="-1" semantic-id="1" stroke="rgb(0,0,0)" stroke-width="0.1"/>
  <path d="M 70.61591299999998,48.74255500000004 L 70.61591299999998,56.74055500000003" fill="none" instance-id="-1" semantic-id="1" stroke="rgb(0,0,0)" stroke-width="0.1"/>
  <path d="M 68.61591299999998,47.74255500000004 L 68.61591299999998,56.74055500000003" fill="none" instance-id="-1" semantic-id="1" stroke="rgb(0,0,0)" stroke-width="0.1"/>
  <path d="M 70.61591299999998,56.74055500000003 L 68.61591299999998,56.74055500000003" fill="none" instance-id="-1" semantic-id="1" stroke="rgb(0,0,0)" stroke-width="0.1"/>
  <path d="M 70.61591299999998,64.74055500000003 L 70.61591299999998,69.74255500000004" fill="none" instance-id="-1" semantic-id="1" stroke="rgb(0,0,0)" stroke-width="0.1"/>
  <path d="M 68.61591299999998,64.74055500000003 L 68.61591299999998,70.74255500000004" fill="none" instance-id="-1" semantic-id="1" stroke="rgb(0,0,0)" stroke-width="0.1"/>
  <path d="M 70.61591299999998,64.74055500000003 L 68.61591299999998,64.74055500000003" fill="none" instance-id="-1" semantic-id="1" stroke="rgb(0,0,0)" stroke-width="0.1"/>
  <path d="M 68.61591299999998,84.74255500000004 L 68.61591299999998,80.74355500000001" fill="none" instance-id="-1" semantic-id="1" stroke="rgb(0,0,0)" stroke-width="0.1"/>
  <path d="M 70.61591299999998,84.74255500000004 L 70.61591299999998,81.74355500000001" fill="none" instance-id="-1" semantic-id="1" stroke="rgb(0,0,0)" stroke-width="0.1"/>
  <path d="M 68.61591299999998,84.74255500000004 L 70.61591299999998,84.74255500000004" fill="none" instance-id="-1" semantic-id="1" stroke="rgb(0,0,0)" stroke-width="0.1"/>
 </g>
 <g id="layer放坡及加楼梯" inkscape:groupmode="layer" inkscape:label="放坡及加楼梯">
  <path d="M 84.61591299999998,81.74355500000001 L 84.61591299999998,100.0" fill="none" stroke="rgb(178,178,0)" stroke-width="0.1"/>
  <path d="M 87.41591299999999,81.74355500000001 L 87.41591299999999,100.0" fill="none" stroke="rgb(178,178,0)" stroke-width="0.1"/>
 </g>
 <g id="layer轴网$0$DOTE" inkscape:groupmode="layer" inkscape:label="轴网$0$DOTE">
  <path d="M 0.0,62.743555000000015 L 100.0,62.743555000000015" fill="none" stroke="rgb(92,92,92)" stroke-width="0.1"/>
  <path d="M 22.615912999999978,100.0 L 22.615912999999978,0.0" fill="none" stroke="rgb(92,92,92)" stroke-width="0.1"/>
 </g>
 <g id="layer销售商业门窗编号" inkscape:groupmode="layer" inkscape:label="销售商业门窗编号">
  <text fill="rgb(0,71,142)" font-family="Noto Sans CJK SC" font-size="2" transform="rotate(-90.0,22.392912999999965,94.87255500000003)" x="22.392912999999965" y="94.87255500000003">
   MLC4530
  </text>
  <text fill="rgb(0,71,142)" font-family="Noto Sans CJK SC" font-size="2" transform="rotate(-90.0,76.57291299999997,27.688555000000008)" x="76.57291299999997" y="27.688555000000008">
   MLC3330
  </text>
  <text fill="rgb(0,71,142)" font-family="Noto Sans CJK SC" font-size="2" transform="rotate(-35.0,4.14591299999995,13.202555000000018)" x="4.14591299999995" y="13.202555000000018">
   MLC5430
  </text>
 </g>
</svg>