<?xml version="1.0" encoding="utf-8"?>
<svg style="background-color: #000;" version="1.1" viewBox="0 0 100.0 100.0" xmlns="http://www.w3.org/2000/svg" xmlns:inkscape="http://www.inkscape.org/namespaces/inkscape">
 <g id="layerA-ANNO-OVHD" inkscape:groupmode="layer" inkscape:label="A-ANNO-OVHD">
  <path d="M 30.119687515171222,0.0 L 12.051913000000013,49.751555000000025" fill="none" stroke="rgb(178,0,178)" stroke-width="0.1"/>
  <path d="M 12.051913000000013,49.751555000000025 L 32.84870089715082,100.0" fill="none" stroke="rgb(178,0,178)" stroke-width="0.1"/>
 </g>
 <g id="layerA-DOOR" inkscape:groupmode="layer" inkscape:label="A-DOOR">
  <path d="M 32.143913,89.14455500000003 L 23.827912999999967,92.58655500000003" fill="none" instance-id="2" semantic-id="4" stroke="rgb(0,178,0)" stroke-width="0.1"/>
  <path d="M 31.971912999999972,88.72855500000003 L 23.65591299999994,92.17055500000004" fill="none" instance-id="2" semantic-id="4" stroke="rgb(0,178,0)" stroke-width="0.1"/>
  <path d="M 32.143913,89.14455500000003 L 31.971912999999972,88.72855500000003" fill="none" instance-id="2" semantic-id="4" stroke="rgb(0,178,0)" stroke-width="0.1"/>
  <path d="M 23.827912999999967,92.58655500000003 L 23.65591299999994,92.17055500000004" fill="none" instance-id="2" semantic-id="4" stroke="rgb(0,178,0)" stroke-width="0.1"/>
  <path d="M 25.259912999999983,72.51255500000002 L 16.943912999999952,75.95455500000003" fill="none" instance-id="2" semantic-id="4" stroke="rgb(0,178,0)" stroke-width="0.1"/>
  <path d="M 25.43191300000001,72.92855500000002 L 17.115912999999978,76.37055500000002" fill="none" instance-id="2" semantic-id="4" stroke="rgb(0,178,0)" stroke-width="0.1"/>
  <path d="M 25.259912999999983,72.51255500000002 L 25.43191300000001,72.92855500000002" fill="none" instance-id="2" semantic-id="4" stroke="rgb(0,178,0)" stroke-width="0.1"/>
  <path d="M 16.943912999999952,75.95455500000003 L 17.115912999999978,76.37055500000002" fill="none" instance-id="2" semantic-id="4" stroke="rgb(0,178,0)" stroke-width="0.1"/>
  <path d="M 23.049912999999947,29.72055500000002 L 14.589913000000024,26.648555000000016" fill="none" instance-id="1" semantic-id="4" stroke="rgb(0,178,0)" stroke-width="0.1"/>
  <path d="M 23.202912999999967,29.297555000000017 L 14.74391300000002,26.225555000000014" fill="none" instance-id="1" semantic-id="4" stroke="rgb(0,178,0)" stroke-width="0.1"/>
  <path d="M 23.049912999999947,29.72055500000002 L 23.202912999999967,29.297555000000017" fill="none" instance-id="1" semantic-id="4" stroke="rgb(0,178,0)" stroke-width="0.1"/>
  <path d="M 14.589913000000024,26.648555000000016 L 14.74391300000002,26.225555000000014" fill="none" instance-id="1" semantic-id="4" stroke="rgb(0,178,0)" stroke-width="0.1"/>
  <path d="M 29.193912999999952,12.801555000000008 L 20.734913000000006,9.729555000000005" fill="none" instance-id="1" semantic-id="4" stroke="rgb(0,178,0)" stroke-width="0.1"/>
  <path d="M 29.039912999999956,13.22455500000001 L 20.58091300000001,10.152555000000007" fill="none" instance-id="1" semantic-id="4" stroke="rgb(0,178,0)" stroke-width="0.1"/>
  <path d="M 29.193912999999952,12.801555000000008 L 29.039912999999956,13.22455500000001" fill="none" instance-id="1" semantic-id="4" stroke="rgb(0,178,0)" stroke-width="0.1"/>
  <path d="M 20.734913000000006,9.729555000000005 L 20.58091300000001,10.152555000000007" fill="none" instance-id="1" semantic-id="4" stroke="rgb(0,178,0)" stroke-width="0.1"/>
  <path d="M 28.70191299999999,80.82855500000002 A 9.02044,9.02044 0.0 0,0 23.65591299999994,92.17055500000004" fill="none" instance-id="2" semantic-id="4" stroke="rgb(0,178,0)" stroke-width="0.1"/>
  <path d="M 17.115912999999978,76.37055500000002 A 9.02044,9.02044 0.0 0,0 28.70191299999999,80.82855500000002" fill="none" instance-id="2" semantic-id="4" stroke="rgb(0,178,0)" stroke-width="0.1"/>
  <path d="M 26.12191299999995,21.26055500000001 A 9.02044,9.02044 0.0 0,0 14.74391300000002,26.225555000000014" fill="none" instance-id="1" semantic-id="4" stroke="rgb(0,178,0)" stroke-width="0.1"/>
  <path d="M 20.58091300000001,10.152555000000007 A 9.02044,9.02044 0.0 0,0 26.12191299999995,21.26055500000001" fill="none" instance-id="1" semantic-id="4" stroke="rgb(0,178,0)" stroke-width="0.1"/>
  <path d="M 30.773912999999993,91.06455500000004 L 29.960479386206885,100.0" fill="none" instance-id="3" semantic-id="3" stroke="rgb(0,178,0)" stroke-width="0.1"/>
  <path d="M 34.47187205627699,100.0 L 30.773912999999993,91.06455500000004" fill="none" instance-id="3" semantic-id="3" stroke="rgb(0,178,0)" stroke-width="0.1"/>
 </g>
 <g id="layerA-GLAZ" inkscape:groupmode="layer" inkscape:label="A-GLAZ">
  <path d="M 34.47166517286746,100.0 L 13.65991299999996,49.71655500000003" fill="none" instance-id="-1" semantic-id="2" stroke="rgb(0,178,178)" stroke-width="0.1"/>
  <path d="M 13.65991299999996,49.71655500000003 L 31.715237033422795,0.0" fill="none" instance-id="-1" semantic-id="2" stroke="rgb(0,178,178)" stroke-width="0.1"/>
  <path d="M 34.796569457892474,100.0 L 13.981912999999963,49.70855500000002" fill="none" instance-id="-1" semantic-id="2" stroke="rgb(0,178,178)" stroke-width="0.1"/>
  <path d="M 13.981912999999963,49.70855500000002 L 32.03423059850854,0.0" fill="none" instance-id="-1" semantic-id="2" stroke="rgb(0,178,178)" stroke-width="0.1"/>
 </g>
 <g id="layerA-GLAZ-MULN" inkscape:groupmode="layer" inkscape:label="A-GLAZ-MULN">
  <path d="M 32.811913000000004,2.837555000000009 L 31.213912999999934,2.257555000000025" fill="none" stroke="rgb(178,0,0)" stroke-width="0.1"/>
  <path d="M 31.213912999999934,2.257555000000025 L 31.487912999999935,1.5055550000000153" fill="none" stroke="rgb(178,0,0)" stroke-width="0.1"/>
  <path d="M 31.487912999999935,1.5055550000000153 L 33.08491300000003,2.085555000000028" fill="none" stroke="rgb(178,0,0)" stroke-width="0.1"/>
  <path d="M 33.08491300000003,2.085555000000028 L 32.811913000000004,2.837555000000009" fill="none" stroke="rgb(178,0,0)" stroke-width="0.1"/>
  <path d="M 30.513913000000002,1.8435550000000092 L 30.98391300000003,2.0145550000000014" fill="none" stroke="rgb(178,0,0)" stroke-width="0.1"/>
  <path d="M 30.98391300000003,2.0145550000000014 L 31.15391299999999,1.5445550000000026" fill="none" stroke="rgb(178,0,0)" stroke-width="0.1"/>
  <path d="M 31.15391299999999,1.5445550000000026 L 30.68391299999996,1.3735550000000103" fill="none" stroke="rgb(178,0,0)" stroke-width="0.1"/>
  <path d="M 30.68391299999996,1.3735550000000103 L 30.513913000000002,1.8435550000000092" fill="none" stroke="rgb(178,0,0)" stroke-width="0.1"/>
  <path d="M 19.158912999999984,40.43555500000002 L 17.560913000000028,39.85555500000001" fill="none" stroke="rgb(178,0,0)" stroke-width="0.1"/>
  <path d="M 17.560913000000028,39.85555500000001 L 17.83391299999994,39.10355500000003" fill="none" stroke="rgb(178,0,0)" stroke-width="0.1"/>
  <path d="M 17.83391299999994,39.10355500000003 L 19.43191300000001,39.68355500000001" fill="none" stroke="rgb(178,0,0)" stroke-width="0.1"/>
  <path d="M 19.43191300000001,39.68355500000001 L 19.158912999999984,40.43555500000002" fill="none" stroke="rgb(178,0,0)" stroke-width="0.1"/>
  <path d="M 16.859913000000006,39.44155500000002 L 17.329913000000033,39.61155500000001" fill="none" stroke="rgb(178,0,0)" stroke-width="0.1"/>
  <path d="M 17.329913000000033,39.61155500000001 L 17.50091299999997,39.14155500000001" fill="none" stroke="rgb(178,0,0)" stroke-width="0.1"/>
  <path d="M 17.50091299999997,39.14155500000001 L 17.03091299999994,38.97155500000002" fill="none" stroke="rgb(178,0,0)" stroke-width="0.1"/>
  <path d="M 17.03091299999994,38.97155500000002 L 16.859913000000006,39.44155500000002" fill="none" stroke="rgb(178,0,0)" stroke-width="0.1"/>
  <path d="M 15.668912999999975,50.07155500000002 L 13.96891299999993,50.10955500000003" fill="none" stroke="rgb(178,0,0)" stroke-width="0.1"/>
  <path d="M 13.96891299999993,50.10955500000003 L 13.950913000000014,49.30955500000002" fill="none" stroke="rgb(178,0,0)" stroke-width="0.1"/>
  <path d="M 13.950913000000014,49.30955500000002 L 15.650912999999946,49.27255500000001" fill="none" stroke="rgb(178,0,0)" stroke-width="0.1"/>
  <path d="M 15.650912999999946,49.27255500000001 L 15.668912999999975,50.07155500000002" fill="none" stroke="rgb(178,0,0)" stroke-width="0.1"/>
  <path d="M 13.165912999999932,49.977555000000024 L 13.665912999999932,49.96555500000002" fill="none" stroke="rgb(178,0,0)" stroke-width="0.1"/>
  <path d="M 13.665912999999932,49.96555500000002 L 13.654912999999965,49.46655500000003" fill="none" stroke="rgb(178,0,0)" stroke-width="0.1"/>
  <path d="M 13.654912999999965,49.46655500000003 L 13.154912999999965,49.477555000000024" fill="none" stroke="rgb(178,0,0)" stroke-width="0.1"/>
  <path d="M 13.154912999999965,49.477555000000024 L 13.165912999999932,49.977555000000024" fill="none" stroke="rgb(178,0,0)" stroke-width="0.1"/>
  <path d="M 20.05891299999996,59.94655500000002 L 18.487912999999935,60.59655500000002" fill="none" stroke="rgb(178,0,0)" stroke-width="0.1"/>
  <path d="M 18.487912999999935,60.59655500000002 L 18.18191300000001,59.85755500000002" fill="none" stroke="rgb(178,0,0)" stroke-width="0.1"/>
  <path d="M 18.18191300000001,59.85755500000002 L 19.75291299999992,59.20755500000001" fill="none" stroke="rgb(178,0,0)" stroke-width="0.1"/>
  <path d="M 19.75291299999992,59.20755500000001 L 20.05891299999996,59.94655500000002" fill="none" stroke="rgb(178,0,0)" stroke-width="0.1"/>
  <path d="M 17.691913,60.764555 L 18.15391299999999,60.57255500000002" fill="none" stroke="rgb(178,0,0)" stroke-width="0.1"/>
  <path d="M 18.15391299999999,60.57255500000002 L 17.962912999999958,60.110555000000005" fill="none" stroke="rgb(178,0,0)" stroke-width="0.1"/>
  <path d="M 17.962912999999958,60.110555000000005 L 17.50091299999997,60.30255500000001" fill="none" stroke="rgb(178,0,0)" stroke-width="0.1"/>
  <path d="M 17.50091299999997,60.30255500000001 L 17.691913,60.764555" fill="none" stroke="rgb(178,0,0)" stroke-width="0.1"/>
  <path d="M 32.143913,89.14455500000003 L 32.525912999999946,90.068555" fill="none" stroke="rgb(178,0,0)" stroke-width="0.1"/>
  <path d="M 32.525912999999946,90.068555 L 30.215913,91.02455500000002" fill="none" stroke="rgb(178,0,0)" stroke-width="0.1"/>
  <path d="M 30.215913,91.02455500000002 L 29.83391299999994,90.10055500000004" fill="none" stroke="rgb(178,0,0)" stroke-width="0.1"/>
  <path d="M 29.83391299999994,90.10055500000004 L 32.143913,89.14455500000003" fill="none" stroke="rgb(178,0,0)" stroke-width="0.1"/>
  <path d="M 24.87791299999992,71.58855500000001 L 25.259912999999983,72.51255500000002" fill="none" stroke="rgb(178,0,0)" stroke-width="0.1"/>
  <path d="M 25.259912999999983,72.51255500000002 L 22.949912999999924,73.46855500000001" fill="none" stroke="rgb(178,0,0)" stroke-width="0.1"/>
  <path d="M 22.949912999999924,73.46855500000001 L 22.567912999999976,72.544555" fill="none" stroke="rgb(178,0,0)" stroke-width="0.1"/>
  <path d="M 22.567912999999976,72.544555 L 24.87791299999992,71.58855500000001" fill="none" stroke="rgb(178,0,0)" stroke-width="0.1"/>
  <path d="M 23.049912999999947,29.72055500000002 L 22.70891299999994,30.660555000000016" fill="none" stroke="rgb(178,0,0)" stroke-width="0.1"/>
  <path d="M 22.70891299999994,30.660555000000016 L 20.35891300000003,29.806555000000003" fill="none" stroke="rgb(178,0,0)" stroke-width="0.1"/>
  <path d="M 20.35891300000003,29.806555000000003 L 20.699912999999924,28.866555000000005" fill="none" stroke="rgb(178,0,0)" stroke-width="0.1"/>
  <path d="M 20.699912999999924,28.866555000000005 L 23.049912999999947,29.72055500000002" fill="none" stroke="rgb(178,0,0)" stroke-width="0.1"/>
  <path d="M 29.53491299999996,11.86155500000001 L 29.193912999999952,12.801555000000008" fill="none" stroke="rgb(178,0,0)" stroke-width="0.1"/>
  <path d="M 29.193912999999952,12.801555000000008 L 26.84391299999993,11.947555000000023" fill="none" stroke="rgb(178,0,0)" stroke-width="0.1"/>
  <path d="M 26.84391299999993,11.947555000000023 L 27.185913000000028,11.007555000000025" fill="none" stroke="rgb(178,0,0)" stroke-width="0.1"/>
  <path d="M 27.185913000000028,11.007555000000025 L 29.53491299999996,11.86155500000001" fill="none" stroke="rgb(178,0,0)" stroke-width="0.1"/>
  <path d="M 34.7966832747253,100.0 L 30.954913000000033,90.71855500000004" fill="none" stroke="rgb(178,0,0)" stroke-width="0.1"/>
  <path d="M 30.954913000000033,90.71855500000004 L 30.67791299999999,90.83355499999999" fill="none" stroke="rgb(178,0,0)" stroke-width="0.1"/>
  <path d="M 30.67791299999999,90.83355499999999 L 34.472082542124554,100.0" fill="none" stroke="rgb(178,0,0)" stroke-width="0.1"/>
  <path d="M 32.678912999999966,90.43855500000001 L 31.10791299999994,91.08855500000004" fill="none" stroke="rgb(178,0,0)" stroke-width="0.1"/>
  <path d="M 31.10791299999994,91.08855500000004 L 30.801913000000013,90.34955500000001" fill="none" stroke="rgb(178,0,0)" stroke-width="0.1"/>
  <path d="M 30.801913000000013,90.34955500000001 L 32.372912999999926,89.69955500000003" fill="none" stroke="rgb(178,0,0)" stroke-width="0.1"/>
  <path d="M 32.372912999999926,89.69955500000003 L 32.678912999999966,90.43855500000001" fill="none" stroke="rgb(178,0,0)" stroke-width="0.1"/>
  <path d="M 30.311913000000004,91.25555500000002 L 30.773912999999993,91.06455500000004" fill="none" stroke="rgb(178,0,0)" stroke-width="0.1"/>
  <path d="M 30.773912999999993,91.06455500000004 L 30.581912999999986,90.602555" fill="none" stroke="rgb(178,0,0)" stroke-width="0.1"/>
  <path d="M 30.581912999999986,90.602555 L 30.119912999999997,90.79355500000003" fill="none" stroke="rgb(178,0,0)" stroke-width="0.1"/>
  <path d="M 30.119912999999997,90.79355500000003 L 30.311913000000004,91.25555500000002" fill="none" stroke="rgb(178,0,0)" stroke-width="0.1"/>
  <path d="M 36.636294092091816,100.0 L 15.804912999999942,49.668555000000026" fill="none" stroke="rgb(178,0,0)" stroke-width="0.1"/>
  <path d="M 15.804912999999942,49.668555000000026 L 33.84298501297906,0.0" fill="none" stroke="rgb(178,0,0)" stroke-width="0.1"/>
 </g>
 <g id="layerA-WALL" inkscape:groupmode="layer" inkscape:label="A-WALL">
  <path d="M 39.34256792991482,100.0 L 34.988913000000025,89.48255499999999" fill="none" instance-id="-1" semantic-id="1" stroke="rgb(0,0,0)" stroke-width="0.1"/>
  <path d="M 34.988913000000025,89.48255499999999 L 32.678912999999966,90.43855500000001" fill="none" instance-id="-1" semantic-id="1" stroke="rgb(0,0,0)" stroke-width="0.1"/>
  <path d="M 32.678912999999966,90.43855500000001 L 31.91391299999998,88.590555" fill="none" instance-id="-1" semantic-id="1" stroke="rgb(0,0,0)" stroke-width="0.1"/>
  <path d="M 31.91391299999998,88.590555 L 36.071912999999995,86.86955499999999" fill="none" instance-id="-1" semantic-id="1" stroke="rgb(0,0,0)" stroke-width="0.1"/>
  <path d="M 36.071912999999995,86.86955499999999 L 41.50601726715206,100.0" fill="none" instance-id="-1" semantic-id="1" stroke="rgb(0,0,0)" stroke-width="0.1"/>
 </g>
 <g id="layerA-散水、排水沟" inkscape:groupmode="layer" inkscape:label="A-散水、排水沟">
  <path d="M 0.0,8.23207267065186 L 2.98951771680845,0.0" fill="none" instance-id="-1" semantic-id="1" stroke="rgb(107,53,93)" stroke-width="0.1"/>
  <path d="M 0.0,17.021115862333716 L 6.181213430681055,0.0" fill="none" instance-id="-1" semantic-id="1" stroke="rgb(107,53,93)" stroke-width="0.1"/>
 </g>
 <g id="layerA-看线" inkscape:groupmode="layer" inkscape:label="A-看线">
  <path d="M 77.24093706234328,100.0 L 48.04702391682849,0.0" fill="none" instance-id="-1" semantic-id="1" stroke="rgb(255,12,254)" stroke-width="0.1"/>
  <path d="M 45.442573474249116,0.0 L 74.63661383088925,100.0" fill="none" instance-id="-1" semantic-id="1" stroke="rgb(255,12,254)" stroke-width="0.1"/>
 </g>
 <g id="layerA-空调" inkscape:groupmode="layer" inkscape:label="A-空调">
  <path d="M 10.43723808036384,0.0 L 0.0,28.740131835073214" fill="none" stroke="rgb(178,178,0)" stroke-width="0.1"/>
  <path d="M 8.308981690995324,0.0 L 0.0,22.880803013516214" fill="none" stroke="rgb(178,178,0)" stroke-width="0.1"/>
  <path d="M 0.9379129999999805,13.709555000000023 L 0.0,14.709883505502944" fill="none" stroke="rgb(178,0,88)" stroke-width="0.1"/>
  <path d="M 0.0,4.247196878710525 L 5.977912999999944,6.418555000000026" fill="none" stroke="rgb(178,0,88)" stroke-width="0.1"/>
  <path d="M 5.977912999999944,6.418555000000026 L 5.295912999999928,8.298555000000022" fill="none" stroke="rgb(178,0,88)" stroke-width="0.1"/>
  <path d="M 5.295912999999928,8.298555000000022 L 0.0,6.375124470000031" fill="none" stroke="rgb(178,0,88)" stroke-width="0.1"/>
  <path d="M 0.9379129999999805,13.709555000000023 L 0.0,16.291758991631752" fill="none" stroke="rgb(178,0,88)" stroke-width="0.1"/>
  <path d="M 0.0,13.368979499290816 L 0.9379129999999805,13.709555000000023" fill="none" stroke="rgb(178,0,88)" stroke-width="0.1"/>
 </g>
 <g id="layerCOLUMN" inkscape:groupmode="layer" inkscape:label="COLUMN">
  <path d="M 50.13254986979166,0.0 L 50.88291300000003,2.570555000000013" fill="none" stroke="rgb(134,134,134)" stroke-width="0.1"/>
  <path d="M 50.88291300000003,2.570555000000013 L 59.68683458449573,0.0" fill="none" stroke="rgb(134,134,134)" stroke-width="0.1"/>
  <path d="M 84.68897486292008,100.0 L 91.26691299999993,98.07955500000003" fill="none" stroke="rgb(134,134,134)" stroke-width="0.1"/>
  <path d="M 91.26691299999993,98.07955500000003 L 87.34291299999995,84.640555" fill="none" stroke="rgb(134,134,134)" stroke-width="0.1"/>
  <path d="M 87.34291299999995,84.640555 L 75.82391299999995,88.003555" fill="none" stroke="rgb(134,134,134)" stroke-width="0.1"/>
  <path d="M 75.82391299999995,88.003555 L 79.32670712009815,100.0" fill="none" stroke="rgb(134,134,134)" stroke-width="0.1"/>
  <path d="M 64.62891300000001,94.38655499999999 L 66.2676296263021,100.0" fill="none" stroke="rgb(134,134,134)" stroke-width="0.1"/>
  <path d="M 73.94900213693131,100.0 L 74.54991299999995,99.82455500000003" fill="none" stroke="rgb(134,134,134)" stroke-width="0.1"/>
  <path d="M 74.54991299999995,99.82455500000003 L 72.30791299999999,92.14455500000003" fill="none" stroke="rgb(134,134,134)" stroke-width="0.1"/>
  <path d="M 72.30791299999999,92.14455500000003 L 64.62891300000001,94.38655499999999" fill="none" stroke="rgb(134,134,134)" stroke-width="0.1"/>
  <path d="M 37.07312780338532,0.0 L 37.44491299999993,1.273555000000016" fill="none" stroke="rgb(134,134,134)" stroke-width="0.1"/>
  <path d="M 37.44491299999993,1.273555000000016 L 41.80749212578064,0.0" fill="none" stroke="rgb(134,134,134)" stroke-width="0.1"/>
 </g>
 <g id="layerDIM_SYMB" inkscape:groupmode="layer" inkscape:label="DIM_SYMB">
  <text fill="rgb(0,178,0)" font-family="Noto Sans CJK SC" font-size="2" transform="rotate(-16.2746,69.273913,40.07655500000001)" x="69.273913" y="40.07655500000001">
   商铺
  </text>
 </g>
 <g id="layerP-EQUIP_消火栓" inkscape:groupmode="layer" inkscape:label="P-EQUIP_消火栓">
  <path d="M 35.27491299999997,88.621555 L 36.21836405088777,100.0" fill="none" stroke="rgb(0,0,0)" stroke-width="0.1"/>
  <path d="M 35.27491299999997,88.62555500000002 L 36.218032388327174,100.0" fill="none" stroke="rgb(0,0,0)" stroke-width="0.1"/>
  <path d="M 31.948912999999948,89.99855500000001 L 36.08843737848758,100.0" fill="none" stroke="rgb(0,0,0)" stroke-width="0.1"/>
  <path d="M 37.19977777470933,100.0 L 39.57691299999999,99.01655500000004" fill="none" stroke="rgb(0,0,0)" stroke-width="0.1"/>
  <path d="M 39.57691299999999,99.01655500000004 L 35.27491299999997,88.621555" fill="none" stroke="rgb(0,0,0)" stroke-width="0.1"/>
  <path d="M 35.27491299999997,88.621555 L 31.948912999999948,89.99855500000001" fill="none" stroke="rgb(0,0,0)" stroke-width="0.1"/>
  <path d="M 31.948912999999948,89.99855500000001 L 33.08391299999994,99.556555" fill="none" stroke="rgb(0,0,0)" stroke-width="0.1"/>
  <path d="M 31.94791299999997,90.001555 L 36.086759448773364,100.0" fill="none" stroke="rgb(0,0,0)" stroke-width="0.1"/>
  <path d="M 37.208750276688534,100.0 L 39.57691299999999,99.01955500000003" fill="none" stroke="rgb(0,0,0)" stroke-width="0.1"/>
  <path d="M 39.57691299999999,99.01955500000003 L 35.27491299999997,88.62555500000002" fill="none" stroke="rgb(0,0,0)" stroke-width="0.1"/>
  <path d="M 35.27491299999997,88.62555500000002 L 31.94791299999997,90.001555" fill="none" stroke="rgb(0,0,0)" stroke-width="0.1"/>
  <path d="M 31.94791299999997,90.001555 L 33.08291299999996,99.56055500000002" fill="none" stroke="rgb(0,0,0)" stroke-width="0.1"/>
 </g>
 <g id="layerP-EQUIP_灭火器" inkscape:groupmode="layer" inkscape:label="P-EQUIP_灭火器">
  <path d="M 31.935913000000028,97.14855499999999 L 31.76491299999998,97.07755500000002" fill="none" stroke="rgb(0,0,0)" stroke-width="0.1"/>
  <path d="M 32.42591299999992,96.94555500000001 L 31.56291299999998,96.58755500000001" fill="none" stroke="rgb(0,0,0)" stroke-width="0.1"/>
  <path d="M 32.91591299999993,96.74255500000004 L 31.359913000000006,96.097555" fill="none" stroke="rgb(0,0,0)" stroke-width="0.1"/>
  <path d="M 33.40591299999994,96.54055500000004 L 31.15691300000003,95.60755499999999" fill="none" stroke="rgb(0,0,0)" stroke-width="0.1"/>
  <path d="M 33.498913000000016,96.17255499999999 L 31.351912999999968,95.282555" fill="none" stroke="rgb(0,0,0)" stroke-width="0.1"/>
  <path d="M 33.29591299999993,95.68255500000004 L 31.841912999999977,95.07955500000003" fill="none" stroke="rgb(0,0,0)" stroke-width="0.1"/>
  <path d="M 33.09291299999995,95.19255500000003 L 32.331912999999986,94.876555" fill="none" stroke="rgb(0,0,0)" stroke-width="0.1"/>
  <path d="M 32.88991299999998,94.70255500000002 L 32.821912999999995,94.674555" fill="none" stroke="rgb(0,0,0)" stroke-width="0.1"/>
  <path d="M 31.936913000000004,97.14455500000003 L 31.765912999999955,97.073555" fill="none" stroke="rgb(0,0,0)" stroke-width="0.1"/>
  <path d="M 32.42691300000001,96.941555 L 31.56291299999998,96.58355499999999" fill="none" stroke="rgb(0,0,0)" stroke-width="0.1"/>
  <path d="M 32.91691300000002,96.739555 L 31.359913000000006,96.09355500000004" fill="none" stroke="rgb(0,0,0)" stroke-width="0.1"/>
  <path d="M 33.40691300000003,96.53655500000002 L 31.15691300000003,95.60355500000003" fill="none" stroke="rgb(0,0,0)" stroke-width="0.1"/>
  <path d="M 33.498913000000016,96.16855500000003 L 31.351912999999968,95.27855500000004" fill="none" stroke="rgb(0,0,0)" stroke-width="0.1"/>
  <path d="M 33.29591299999993,95.67855500000002 L 31.841912999999977,95.07555500000001" fill="none" stroke="rgb(0,0,0)" stroke-width="0.1"/>
  <path d="M 33.09291299999995,95.18855500000001 L 32.331912999999986,94.87355500000001" fill="none" stroke="rgb(0,0,0)" stroke-width="0.1"/>
  <path d="M 32.88991299999998,94.698555 L 32.821912999999995,94.67055500000004" fill="none" stroke="rgb(0,0,0)" stroke-width="0.1"/>
  <path d="M 29.088912999999934,97.27355499999999 L 34.988913000000025,98.05155500000001" fill="none" stroke="rgb(0,0,0)" stroke-width="0.1"/>
  <path d="M 34.988913000000025,98.05155500000001 L 32.71291299999996,92.55255500000004" fill="none" stroke="rgb(0,0,0)" stroke-width="0.1"/>
  <path d="M 32.71291299999996,92.55255500000004 L 29.088912999999934,97.27355499999999" fill="none" stroke="rgb(0,0,0)" stroke-width="0.1"/>
  <path d="M 31.814912999999933,97.198555 L 31.07091300000002,95.39855499999999" fill="none" stroke="rgb(0,0,0)" stroke-width="0.1"/>
  <path d="M 31.07091300000002,95.39855499999999 L 32.869913,94.65455500000002" fill="none" stroke="rgb(0,0,0)" stroke-width="0.1"/>
  <path d="M 32.869913,94.65455500000002 L 33.614913,96.453555" fill="none" stroke="rgb(0,0,0)" stroke-width="0.1"/>
  <path d="M 33.614913,96.453555 L 31.814912999999933,97.198555" fill="none" stroke="rgb(0,0,0)" stroke-width="0.1"/>
  <path d="M 29.088912999999934,97.26955500000003 L 34.988913000000025,98.04755499999999" fill="none" stroke="rgb(0,0,0)" stroke-width="0.1"/>
  <path d="M 34.988913000000025,98.04755499999999 L 32.71291299999996,92.54855500000002" fill="none" stroke="rgb(0,0,0)" stroke-width="0.1"/>
  <path d="M 32.71291299999996,92.54855500000002 L 29.088912999999934,97.26955500000003" fill="none" stroke="rgb(0,0,0)" stroke-width="0.1"/>
  <path d="M 31.815913000000023,97.19455500000004 L 31.07091300000002,95.395555" fill="none" stroke="rgb(0,0,0)" stroke-width="0.1"/>
  <path d="M 31.07091300000002,95.395555 L 32.869913,94.650555" fill="none" stroke="rgb(0,0,0)" stroke-width="0.1"/>
  <path d="M 32.869913,94.650555 L 33.614913,96.44955500000003" fill="none" stroke="rgb(0,0,0)" stroke-width="0.1"/>
  <path d="M 33.614913,96.44955500000003 L 31.815913000000023,97.19455500000004" fill="none" stroke="rgb(0,0,0)" stroke-width="0.1"/>
  <path d="M 31.814912999999933,97.198555 L 33.614913,96.453555" fill="none" stroke="rgb(0,0,0)" stroke-width="0.1"/>
  <path d="M 33.614913,96.453555 L 32.869913,94.65455500000002" fill="none" stroke="rgb(0,0,0)" stroke-width="0.1"/>
  <path d="M 32.869913,94.65455500000002 L 31.07091300000002,95.39855499999999" fill="none" stroke="rgb(0,0,0)" stroke-width="0.1"/>
  <path d="M 31.07091300000002,95.39855499999999 L 31.814912999999933,97.198555" fill="none" stroke="rgb(0,0,0)" stroke-width="0.1"/>
  <path d="M 31.815913000000023,97.19455500000004 L 33.614913,96.44955500000003" fill="none" stroke="rgb(0,0,0)" stroke-width="0.1"/>
  <path d="M 33.614913,96.44955500000003 L 32.869913,94.650555" fill="none" stroke="rgb(0,0,0)" stroke-width="0.1"/>
  <path d="M 32.869913,94.650555 L 31.07091300000002,95.395555" fill="none" stroke="rgb(0,0,0)" stroke-width="0.1"/>
  <path d="M 31.07091300000002,95.395555 L 31.815913000000023,97.19455500000004" fill="none" stroke="rgb(0,0,0)" stroke-width="0.1"/>
 </g>
 <g id="layerP-立管" inkscape:groupmode="layer" inkscape:label="P-立管">
  <path d="M 39.03866541676234,100.0 L 39.18391299999996,99.64955500000002" fill="none" stroke="rgb(178,0,0)" stroke-width="0.1"/>
  <path d="M 39.3289835762987,100.0 L 39.18391299999996,99.64955500000002" fill="none" stroke="rgb(178,0,0)" stroke-width="0.1"/>
  <path d="M 39.18391299999996,99.64955500000002 L 38.3373478235294,100.0" fill="none" stroke="rgb(178,0,0)" stroke-width="0.1"/>
 </g>
 <g id="layerPUB_DIM" inkscape:groupmode="layer" inkscape:label="PUB_DIM">
  <path d="M 18.25691299999994,55.59355500000001 A 6.412,6.412 0.0 0,0 17.99391300000002,43.64155500000001" fill="none" stroke="rgb(26,107,0)" stroke-width="0.1"/>
  <path d="M 32.418912999999975,3.921555000000012 L 32.89245771880894,4.082427224256747" fill="none" stroke="rgb(26,107,0)" stroke-width="0.1"/>
  <path d="M 32.89245771880894,4.082427224256747 L 33.37227924388014,4.223479616393718" fill="none" stroke="rgb(26,107,0)" stroke-width="0.1"/>
  <path d="M 33.37227924388014,4.223479616393718 L 33.85754842644474,4.344468432828876" fill="none" stroke="rgb(26,107,0)" stroke-width="0.1"/>
  <path d="M 33.85754842644474,4.344468432828876 L 34.34742670398657,4.445184600556985" fill="none" stroke="rgb(26,107,0)" stroke-width="0.1"/>
  <path d="M 34.34742670398657,4.445184600556985 L 34.841067549308605,4.525454078435473" fill="none" stroke="rgb(26,107,0)" stroke-width="0.1"/>
  <path d="M 34.841067549308605,4.525454078435473 L 35.33761793336214,4.5851381579336135" fill="none" stroke="rgb(26,107,0)" stroke-width="0.1"/>
  <path d="M 35.33761793336214,4.5851381579336135 L 35.83621979931115,4.624133702825816" fill="none" stroke="rgb(26,107,0)" stroke-width="0.1"/>
  <path d="M 35.83621979931115,4.624133702825816 L 36.33601154528549,4.642373327414788" fill="none" stroke="rgb(26,107,0)" stroke-width="0.1"/>
  <path d="M 36.33601154528549,4.642373327414788 L 36.836129513259834,4.639825512976444" fill="none" stroke="rgb(26,107,0)" stroke-width="0.1"/>
  <path d="M 36.836129513259834,4.639825512976444 L 37.33570948148554,4.616494662225307" fill="none" stroke="rgb(26,107,0)" stroke-width="0.1"/>
  <path d="M 37.33570948148554,4.616494662225307 L 37.83388815789692,4.572421091706531" fill="none" stroke="rgb(26,107,0)" stroke-width="0.1"/>
  <path d="M 37.83388815789692,4.572421091706531 L 38.329804671910324,4.507680962127438" fill="none" stroke="rgb(26,107,0)" stroke-width="0.1"/>
  <path d="M 38.329804671910324,4.507680962127438 L 38.82260206204023,4.422386146749091" fill="none" stroke="rgb(26,107,0)" stroke-width="0.1"/>
  <path d="M 38.82260206204023,4.422386146749091 L 39.311428756758346,4.316684038065262" fill="none" stroke="rgb(26,107,0)" stroke-width="0.1"/>
  <path d="M 39.311428756758346,4.316684038065262 L 39.79544004604031,4.190757293103019" fill="none" stroke="rgb(26,107,0)" stroke-width="0.1"/>
  <path d="M 39.79544004604031,4.190757293103019 L 40.273799541054814,4.044823517784778" fill="none" stroke="rgb(26,107,0)" stroke-width="0.1"/>
  <path d="M 40.273799541054814,4.044823517784778 L 40.74568061947332,3.879134890897433" fill="none" stroke="rgb(26,107,0)" stroke-width="0.1"/>
  <path d="M 40.74568061947332,3.879134890897433 L 41.210267853902906,3.6939777283185435" fill="none" stroke="rgb(26,107,0)" stroke-width="0.1"/>
  <path d="M 41.210267853902906,3.6939777283185435 L 41.66675842097425,3.48967198825207" fill="none" stroke="rgb(26,107,0)" stroke-width="0.1"/>
  <path d="M 41.66675842097425,3.48967198825207 L 42.11436348864902,3.266570718329291" fill="none" stroke="rgb(26,107,0)" stroke-width="0.1"/>
  <path d="M 42.11436348864902,3.266570718329291 L 42.552309579349526,3.0250594455297346" fill="none" stroke="rgb(26,107,0)" stroke-width="0.1"/>
  <path d="M 42.552309579349526,3.0250594455297346 L 42.97983990655666,2.765555509976849" fill="none" stroke="rgb(26,107,0)" stroke-width="0.1"/>
  <path d="M 42.97983990655666,2.765555509976849 L 43.3962156825628,2.4885073437593235" fill="none" stroke="rgb(26,107,0)" stroke-width="0.1"/>
  <path d="M 43.3962156825628,2.4885073437593235 L 43.800717395124366,2.1943936960243775" fill="none" stroke="rgb(26,107,0)" stroke-width="0.1"/>
  <path d="M 43.800717395124366,2.1943936960243775 L 44.19264605080434,1.8837228056820265" fill="none" stroke="rgb(26,107,0)" stroke-width="0.1"/>
  <path d="M 44.19264605080434,1.8837228056820265 L 44.57132438285794,1.5570315231501581" fill="none" stroke="rgb(26,107,0)" stroke-width="0.1"/>
  <path d="M 44.57132438285794,1.5570315231501581 L 44.93609802157391,1.2148843826578286" fill="none" stroke="rgb(26,107,0)" stroke-width="0.1"/>
  <path d="M 44.93609802157391,1.2148843826578286 L 45.286336625048875,0.8578726267097068" fill="none" stroke="rgb(26,107,0)" stroke-width="0.1"/>
  <path d="M 45.286336625048875,0.8578726267097068 L 45.621434968440326,0.4866131843980952" fill="none" stroke="rgb(26,107,0)" stroke-width="0.1"/>
  <path d="M 45.621434968440326,0.4866131843980952 L 45.94081398981723,0.10174760532720484" fill="none" stroke="rgb(26,107,0)" stroke-width="0.1"/>
  <path d="M 16.559912999999938,47.58955500000002 L 19.42791299999999,39.69455500000001" fill="none" stroke="rgb(26,107,0)" stroke-width="0.1"/>
  <path d="M 16.650912999999946,51.71255500000001 L 19.863913000000025,59.47455500000001" fill="none" stroke="rgb(26,107,0)" stroke-width="0.1"/>
  <path d="M 17.042913,44.086555000000004 L 18.94491299999993,43.19755500000002" fill="none" stroke="rgb(26,107,0)" stroke-width="0.1"/>
  <path d="M 17.85491300000001,56.56355500000001 L 18.65991299999996,54.62355500000001" fill="none" stroke="rgb(26,107,0)" stroke-width="0.1"/>
  <path d="M 30.984913000000006,7.86955500000002 L 33.84267287143757,0.0" fill="none" stroke="rgb(26,107,0)" stroke-width="0.1"/>
  <path d="M 31.466912999999977,4.366555000000005 L 33.369913,3.4775550000000237" fill="none" stroke="rgb(26,107,0)" stroke-width="0.1"/>
  <path d="M 1.2339130000000296,54.858555000000024 L 8.995912999999973,51.646555000000006" fill="none" stroke="rgb(26,107,0)" stroke-width="0.1"/>
  <path d="M 4.144912999999974,52.850555000000014 L 6.084913000000029,53.654555000000016" fill="none" stroke="rgb(26,107,0)" stroke-width="0.1"/>
  <path d="M 10.985912999999982,78.42055500000001 L 18.747912999999926,75.20855500000002" fill="none" stroke="rgb(26,107,0)" stroke-width="0.1"/>
  <path d="M 13.896912999999927,76.41255500000003 L 15.836912999999981,77.21655500000003" fill="none" stroke="rgb(26,107,0)" stroke-width="0.1"/>
  <path d="M 17.869912999999997,95.05255500000004 L 25.630912999999964,91.840555" fill="none" stroke="rgb(26,107,0)" stroke-width="0.1"/>
  <path d="M 20.78091299999994,93.044555 L 22.71991300000002,93.84855500000003" fill="none" stroke="rgb(26,107,0)" stroke-width="0.1"/>
  <path d="M 27.37791299999992,82.83455500000002 L 30.590913,90.59655500000002" fill="none" stroke="rgb(26,107,0)" stroke-width="0.1"/>
  <path d="M 28.582912999999962,87.68555500000002 L 29.386912999999936,85.74555500000002" fill="none" stroke="rgb(26,107,0)" stroke-width="0.1"/>
  <path d="M 80.28591299999994,40.34355500000001 L 88.34891299999992,37.989555000000024" fill="none" stroke="rgb(26,107,0)" stroke-width="0.1"/>
  <path d="M 82.38691299999994,47.54255500000002 L 90.45091300000001,45.18855500000001" fill="none" stroke="rgb(26,107,0)" stroke-width="0.1"/>
  <path d="M 83.39691299999993,38.66155500000002 L 85.23791299999993,39.67055500000001" fill="none" stroke="rgb(26,107,0)" stroke-width="0.1"/>
  <path d="M 85.49791299999993,45.860555000000005 L 87.33991300000002,46.870555000000024" fill="none" stroke="rgb(26,107,0)" stroke-width="0.1"/>
  <path d="M 93.87691299999994,86.89955500000002 L 100.0,85.11213600223215" fill="none" stroke="rgb(26,107,0)" stroke-width="0.1"/>
  <path d="M 96.98791299999993,85.21855500000001 L 98.82991300000003,86.22755500000002" fill="none" stroke="rgb(26,107,0)" stroke-width="0.1"/>
  <path d="M 53.599913000000015,33.294555 L 55.95391299999994,41.35755500000002" fill="none" stroke="rgb(26,107,0)" stroke-width="0.1"/>
  <path d="M 54.27191299999993,38.247555000000006 L 55.28191300000003,36.40555500000002" fill="none" stroke="rgb(26,107,0)" stroke-width="0.1"/>
  <path d="M 91.03691300000003,22.36555500000003 L 93.39091299999995,30.428555000000017" fill="none" stroke="rgb(26,107,0)" stroke-width="0.1"/>
  <path d="M 91.70991300000003,27.317555000000027 L 92.71891299999993,25.47655500000002" fill="none" stroke="rgb(26,107,0)" stroke-width="0.1"/>
  <path d="M 1.4689129999999295,45.288555 L 9.364913000000001,48.156555000000026" fill="none" stroke="rgb(26,107,0)" stroke-width="0.1"/>
  <path d="M 4.972912999999949,45.771555000000006 L 5.861912999999959,47.67355500000002" fill="none" stroke="rgb(26,107,0)" stroke-width="0.1"/>
  <path d="M 8.978913000000034,24.610555000000005 L 16.873913000000016,27.477555000000024" fill="none" stroke="rgb(26,107,0)" stroke-width="0.1"/>
  <path d="M 12.481912999999963,25.092555000000004 L 13.370912999999973,26.995555000000024" fill="none" stroke="rgb(26,107,0)" stroke-width="0.1"/>
  <path d="M 15.122912999999926,7.691555000000022 L 23.018912999999998,10.558555000000013" fill="none" stroke="rgb(26,107,0)" stroke-width="0.1"/>
  <path d="M 18.626912999999945,8.173555000000022 L 19.51491299999998,10.076555000000013" fill="none" stroke="rgb(26,107,0)" stroke-width="0.1"/>
  <path d="M 13.65991299999996,49.71655500000003 L 5.114913000000001,53.252555" fill="none" stroke="rgb(26,107,0)" stroke-width="0.1"/>
  <path d="M 5.114913000000001,53.252555 L 14.866912999999954,76.81455500000001" fill="none" stroke="rgb(26,107,0)" stroke-width="0.1"/>
  <path d="M 14.866912999999954,76.81455500000001 L 21.749912999999992,93.44655499999999" fill="none" stroke="rgb(26,107,0)" stroke-width="0.1"/>
  <path d="M 21.749912999999992,93.44655499999999 L 24.462356933146452,100.0" fill="none" stroke="rgb(26,107,0)" stroke-width="0.1"/>
  <path d="M 0.0,98.7114118508403 L 28.984913000000006,86.71555500000002" fill="none" stroke="rgb(26,107,0)" stroke-width="0.1"/>
  <path d="M 28.984913000000006,86.71555500000002 L 28.962912999999958,86.66155500000002" fill="none" stroke="rgb(26,107,0)" stroke-width="0.1"/>
  <path d="M 78.63191299999994,40.82655500000001 L 84.316913,39.16655500000002" fill="none" stroke="rgb(26,107,0)" stroke-width="0.1"/>
  <path d="M 84.316913,39.16655500000002 L 86.41891299999997,46.36555500000003" fill="none" stroke="rgb(26,107,0)" stroke-width="0.1"/>
  <path d="M 86.41891299999997,46.36555500000003 L 97.90891299999998,85.72255500000003" fill="none" stroke="rgb(26,107,0)" stroke-width="0.1"/>
  <path d="M 97.90891299999998,85.72255500000003 L 100.0,92.88534197945506" fill="none" stroke="rgb(26,107,0)" stroke-width="0.1"/>
  <path d="M 56.31991299999993,42.610555000000005 L 54.77691299999992,37.32655500000001" fill="none" stroke="rgb(26,107,0)" stroke-width="0.1"/>
  <path d="M 54.77691299999992,37.32655500000001 L 92.21391299999993,26.396555000000006" fill="none" stroke="rgb(26,107,0)" stroke-width="0.1"/>
  <path d="M 92.21391299999993,26.396555000000006 L 100.0,24.123512760001972" fill="none" stroke="rgb(26,107,0)" stroke-width="0.1"/>
  <path d="M 22.384756984426417,0.0 L 19.07091300000002,9.124555000000015" fill="none" stroke="rgb(26,107,0)" stroke-width="0.1"/>
  <path d="M 19.07091300000002,9.124555000000015 L 12.926913000000013,26.043555000000026" fill="none" stroke="rgb(26,107,0)" stroke-width="0.1"/>
  <path d="M 12.926913000000013,26.043555000000026 L 5.416913000000022,46.72255500000003" fill="none" stroke="rgb(26,107,0)" stroke-width="0.1"/>
  <path d="M 5.416913000000022,46.72255500000003 L 13.65991299999996,49.71655500000003" fill="none" stroke="rgb(26,107,0)" stroke-width="0.1"/>
  <text fill="rgb(0,0,0)" font-family="Noto Sans CJK SC" font-size="2" transform="rotate(-271.262,24.77491299999997,41.769555000000025)" x="24.77491299999997" y="41.769555000000025">
   137.56%%d
  </text>
  <text fill="rgb(0,0,0)" font-family="Noto Sans CJK SC" font-size="2" transform="rotate(-43.1657,43.018913,10.791555000000017)" x="43.018913" y="10.791555000000017">
   126.25%%d
  </text>
  <text fill="rgb(0,0,0)" font-family="Noto Sans CJK SC" font-size="2" transform="rotate(-292.484,18.335913000000005,79.81555500000002)" x="18.335913000000005" y="79.81555500000002">
   1800
  </text>
  <text fill="rgb(0,0,0)" font-family="Noto Sans CJK SC" font-size="2" transform="rotate(-292.484,9.911913000000027,59.46055500000003)" x="9.911913000000027" y="59.46055500000003">
   2550
  </text>
  <text fill="rgb(0,0,0)" font-family="Noto Sans CJK SC" font-size="2" transform="rotate(-22.4837,7.703912999999943,93.29555500000004)" x="7.703912999999943" y="93.29555500000004">
   3400
  </text>
  <text fill="rgb(0,0,0)" font-family="Noto Sans CJK SC" font-size="2" transform="rotate(-286.274,92.76591299999995,60.763555000000025)" x="92.76591299999995" y="60.763555000000025">
   4100
  </text>
  <text fill="rgb(0,0,0)" font-family="Noto Sans CJK SC" font-size="2" transform="rotate(-286.274,86.28391299999998,38.56055500000002)" x="86.28391299999998" y="38.56055500000002">
   750
  </text>
  <text fill="rgb(0,0,0)" font-family="Noto Sans CJK SC" font-size="2" transform="rotate(-376.275,67.94591300000002,31.33755500000001)" x="67.94591300000002" y="31.33755500000001">
   3900
  </text>
  <text fill="rgb(0,0,0)" font-family="Noto Sans CJK SC" font-size="2" transform="rotate(-70.041,5.4689129999999295,40.549555000000026)" x="5.4689129999999295" y="40.549555000000026">
   2200
  </text>
  <text fill="rgb(0,0,0)" font-family="Noto Sans CJK SC" font-size="2" transform="rotate(-70.041,12.391912999999931,21.487555000000015)" x="12.391912999999931" y="21.487555000000015">
   1800
  </text>
  <text fill="rgb(0,0,0)" font-family="Noto Sans CJK SC" font-size="2" transform="rotate(-70.041,19.442912999999976,2.071555000000018)" x="19.442912999999976" y="2.071555000000018">
   2261
  </text>
 </g>
 <g id="layerPUB_HATCH" inkscape:groupmode="layer" inkscape:label="PUB_HATCH">
  <path d="M 50.13254986979166,0.0 L 50.88291300000003,2.570555000000013" fill="none" stroke="rgb(89,89,89)" stroke-width="0.1"/>
  <path d="M 50.88291300000003,2.570555000000013 L 59.68683458449573,0.0" fill="none" stroke="rgb(89,89,89)" stroke-width="0.1"/>
  <path d="M 84.68897486292008,100.0 L 91.26691299999993,98.07955500000003" fill="none" stroke="rgb(89,89,89)" stroke-width="0.1"/>
  <path d="M 91.26691299999993,98.07955500000003 L 87.34291299999995,84.640555" fill="none" stroke="rgb(89,89,89)" stroke-width="0.1"/>
  <path d="M 87.34291299999995,84.640555 L 75.82391299999995,88.003555" fill="none" stroke="rgb(89,89,89)" stroke-width="0.1"/>
  <path d="M 75.82391299999995,88.003555 L 79.32670712009815,100.0" fill="none" stroke="rgb(89,89,89)" stroke-width="0.1"/>
  <path d="M 64.62891300000001,94.38655499999999 L 66.2676296263021,100.0" fill="none" stroke="rgb(89,89,89)" stroke-width="0.1"/>
  <path d="M 73.94900213693131,100.0 L 74.54991299999995,99.82455500000003" fill="none" stroke="rgb(89,89,89)" stroke-width="0.1"/>
  <path d="M 74.54991299999995,99.82455500000003 L 72.30791299999999,92.14455500000003" fill="none" stroke="rgb(89,89,89)" stroke-width="0.1"/>
  <path d="M 72.30791299999999,92.14455500000003 L 64.62891300000001,94.38655499999999" fill="none" stroke="rgb(89,89,89)" stroke-width="0.1"/>
  <path d="M 37.07312780338532,0.0 L 37.44491299999993,1.273555000000016" fill="none" stroke="rgb(89,89,89)" stroke-width="0.1"/>
  <path d="M 37.44491299999993,1.273555000000016 L 41.80749212578064,0.0" fill="none" stroke="rgb(89,89,89)" stroke-width="0.1"/>
 </g>
 <g id="layerWALL" inkscape:groupmode="layer" inkscape:label="WALL">
  <path d="M 85.54941636978674,0.0 L 95.98891300000003,35.758555" fill="none" instance-id="-1" semantic-id="1" stroke="rgb(0,0,0)" stroke-width="0.1"/>
  <path d="M 83.46571584642152,0.0 L 93.78891299999998,35.35955500000003" fill="none" instance-id="-1" semantic-id="1" stroke="rgb(0,0,0)" stroke-width="0.1"/>
  <path d="M 45.43700735589198,100.0 L 76.66491299999996,90.883555" fill="none" instance-id="-1" semantic-id="1" stroke="rgb(0,0,0)" stroke-width="0.1"/>
  <path d="M 52.57115363520336,100.0 L 77.22491300000002,92.80255500000004" fill="none" instance-id="-1" semantic-id="1" stroke="rgb(0,0,0)" stroke-width="0.1"/>
  <path d="M 88.18391299999996,87.520555 L 100.0,84.0705801271032" fill="none" instance-id="-1" semantic-id="1" stroke="rgb(0,0,0)" stroke-width="0.1"/>
  <path d="M 88.74391300000002,89.43955500000004 L 100.0,86.15380732385773" fill="none" instance-id="-1" semantic-id="1" stroke="rgb(0,0,0)" stroke-width="0.1"/>
  <path d="M 18.92791299999999,57.21455500000002 L 93.78891299999998,35.35955500000003" fill="none" instance-id="-1" semantic-id="1" stroke="rgb(0,0,0)" stroke-width="0.1"/>
  <path d="M 20.662913000000003,58.79155500000002 L 94.34891299999992,37.279555000000016" fill="none" instance-id="-1" semantic-id="1" stroke="rgb(0,0,0)" stroke-width="0.1"/>
  <path d="M 95.98891300000003,35.758555 L 100.0,49.49755244133115" fill="none" instance-id="-1" semantic-id="1" stroke="rgb(0,0,0)" stroke-width="0.1"/>
  <path d="M 94.34891299999992,37.279555000000016 L 100.0,56.63513505923902" fill="none" instance-id="-1" semantic-id="1" stroke="rgb(0,0,0)" stroke-width="0.1"/>
  <path d="M 20.662913000000003,58.79155500000002 L 20.98291299999994,59.56455500000001" fill="none" instance-id="-1" semantic-id="1" stroke="rgb(0,0,0)" stroke-width="0.1"/>
  <path d="M 18.92791299999999,57.21455500000002 L 20.05891299999996,59.94655500000002" fill="none" instance-id="-1" semantic-id="1" stroke="rgb(0,0,0)" stroke-width="0.1"/>
  <path d="M 20.98291299999994,59.56455500000001 L 20.05891299999996,59.94655500000002" fill="none" instance-id="-1" semantic-id="1" stroke="rgb(0,0,0)" stroke-width="0.1"/>
 </g>
 <g id="layer轴网$0$AXIS" inkscape:groupmode="layer" inkscape:label="轴网$0$AXIS">
  <path d="M 30.33755471535278,0.0 L 59.53149054396761,100.0" fill="none" stroke="rgb(0,178,0)" stroke-width="0.1"/>
  <text fill="rgb(0,0,0)" font-family="Noto Sans CJK SC" font-size="2" transform="rotate(-0.0,9.539912999999956,0.19855500000002735)" x="9.539912999999956" y="0.19855500000002735">
   4-D
  </text>
 </g>
 <g id="layer轴网$0$DOTE" inkscape:groupmode="layer" inkscape:label="轴网$0$DOTE">
  <path d="M 59.69791299999997,54.16655500000002 L 100.0,42.40085028161957" fill="none" stroke="rgb(92,92,92)" stroke-width="0.1"/>
  <path d="M 43.8795468100609,0.0 L 73.073621836234,100.0" fill="none" stroke="rgb(92,92,92)" stroke-width="0.1"/>
  <path d="M 28.615912999999978,100.0 L 28.615912999999978,0.0" fill="none" stroke="rgb(92,92,92)" stroke-width="0.1"/>
  <path d="M 0.0,4.743555000000015 L 32.765912999999955,4.743555000000015" fill="none" stroke="rgb(92,92,92)" stroke-width="0.1"/>
  <path d="M 0.0,88.74355500000001 L 57.28891299999998,88.74355500000001" fill="none" stroke="rgb(92,92,92)" stroke-width="0.1"/>
  <path d="M 80.3661562054258,100.0 L 51.1722040966215,0.0" fill="none" stroke="rgb(92,92,92)" stroke-width="0.1"/>
 </g>
 <g id="layer销售商业编号" inkscape:groupmode="layer" inkscape:label="销售商业编号">
  <text fill="rgb(107,0,26)" font-family="Noto Sans CJK SC" font-size="2" transform="rotate(-16.27,54.44791299999997,9.583555000000018)" x="54.44791299999997" y="9.583555000000018">
   F112-L2-024
  </text>
  <text fill="rgb(107,0,26)" font-family="Noto Sans CJK SC" font-size="2" transform="rotate(-16.27,67.02991299999996,50.128555000000006)" x="67.02991299999996" y="50.128555000000006">
   F112-L2-025
  </text>
  <text fill="rgb(107,0,26)" font-family="Noto Sans CJK SC" font-size="2" transform="rotate(-16.27,98.20791299999996,93.45755500000001)" x="98.20791299999996" y="93.45755500000001">
   F112-L2-026
  </text>
 </g>
 <g id="layer销售商业门窗编号" inkscape:groupmode="layer" inkscape:label="销售商业门窗编号">
  <text fill="rgb(0,71,142)" font-family="Noto Sans CJK SC" font-size="2" transform="rotate(-292.484,28.372912999999926,72.72155500000002)" x="28.372912999999926" y="72.72155500000002">
   MLC4630
  </text>
  <text fill="rgb(0,71,142)" font-family="Noto Sans CJK SC" font-size="2" transform="rotate(-70.041,28.054912999999942,28.948555000000027)" x="28.054912999999942" y="28.948555000000027">
   MLC6330
  </text>
 </g>
</svg>