<?xml version="1.0" encoding="utf-8"?>
<svg style="background-color: #000;" version="1.1" viewBox="0 0 100.0 100.0" xmlns="http://www.w3.org/2000/svg" xmlns:inkscape="http://www.inkscape.org/namespaces/inkscape">
 <g id="layer0" inkscape:groupmode="layer" inkscape:label="0">
  <path d="M 85.49191299999995,47.78655500000002 L 95.57888123042642,100.0" fill="none" stroke="rgb(107,53,53)" stroke-width="0.1"/>
 </g>
 <g id="layerA-ANNO-OVHD" inkscape:groupmode="layer" inkscape:label="A-ANNO-OVHD">
  <path d="M 44.2370567234326,0.0 L 60.78091299999994,85.64655500000003" fill="none" stroke="rgb(178,0,178)" stroke-width="0.1"/>
  <path d="M 60.78091299999994,85.64655500000003 L 63.5535770951584,100.0" fill="none" stroke="rgb(178,0,178)" stroke-width="0.1"/>
 </g>
 <g id="layerA-DOOR" inkscape:groupmode="layer" inkscape:label="A-DOOR">
  <path d="M 50.122912999999926,48.92855500000002 L 58.95991300000003,47.22155500000002" fill="none" instance-id="1" semantic-id="4" stroke="rgb(0,178,0)" stroke-width="0.1"/>
  <path d="M 50.037913,48.48655500000001 L 58.87491299999999,46.779555000000016" fill="none" instance-id="1" semantic-id="4" stroke="rgb(0,178,0)" stroke-width="0.1"/>
  <path d="M 50.122912999999926,48.92855500000002 L 50.037913,48.48655500000001" fill="none" instance-id="1" semantic-id="4" stroke="rgb(0,178,0)" stroke-width="0.1"/>
  <path d="M 58.95991300000003,47.22155500000002 L 58.87491299999999,46.779555000000016" fill="none" instance-id="1" semantic-id="4" stroke="rgb(0,178,0)" stroke-width="0.1"/>
  <path d="M 46.70991300000003,31.25455500000004 L 55.54591299999993,29.54755499999999" fill="none" instance-id="1" semantic-id="4" stroke="rgb(0,178,0)" stroke-width="0.1"/>
  <path d="M 46.79491299999995,31.69655499999999 L 55.63191299999994,29.989554999999996" fill="none" instance-id="1" semantic-id="4" stroke="rgb(0,178,0)" stroke-width="0.1"/>
  <path d="M 46.70991300000003,31.25455500000004 L 46.79491299999995,31.69655499999999" fill="none" instance-id="1" semantic-id="4" stroke="rgb(0,178,0)" stroke-width="0.1"/>
  <path d="M 55.54591299999993,29.54755499999999 L 55.63191299999994,29.989554999999996" fill="none" instance-id="1" semantic-id="4" stroke="rgb(0,178,0)" stroke-width="0.1"/>
  <path d="M 41.39891299999999,3.7625550000000203 L 50.23591299999998,2.056555000000003" fill="none" stroke="rgb(0,178,0)" stroke-width="0.1"/>
  <path d="M 41.31391299999996,3.3215549999999894 L 50.14991299999997,1.6145549999999957" fill="none" stroke="rgb(0,178,0)" stroke-width="0.1"/>
  <path d="M 41.39891299999999,3.7625550000000203 L 41.31391299999996,3.3215549999999894" fill="none" stroke="rgb(0,178,0)" stroke-width="0.1"/>
  <path d="M 50.23591299999998,2.056555000000003 L 50.14991299999997,1.6145549999999957" fill="none" stroke="rgb(0,178,0)" stroke-width="0.1"/>
  <path d="M 58.87491299999999,46.779555000000016 A 9.02044,9.02044 0.0 0,0 48.41591299999993,40.09155500000003" fill="none" instance-id="1" semantic-id="4" stroke="rgb(0,178,0)" stroke-width="0.1"/>
  <path d="M 48.41591299999993,40.09155500000003 A 9.02044,9.02044 0.0 0,0 55.63191299999994,29.989554999999996" fill="none" instance-id="1" semantic-id="4" stroke="rgb(0,178,0)" stroke-width="0.1"/>
  <path d="M 50.14991299999997,1.6145549999999957 L 50.014153497621464,1.1260896266821874" fill="none" stroke="rgb(0,178,0)" stroke-width="0.1"/>
  <path d="M 50.014153497621464,1.1260896266821874 L 49.85116579265218,0.6460228902325866" fill="none" stroke="rgb(0,178,0)" stroke-width="0.1"/>
  <path d="M 49.85116579265218,0.6460228902325866 L 49.66146473617903,0.17587124173013535" fill="none" stroke="rgb(0,178,0)" stroke-width="0.1"/>
 </g>
 <g id="layerA-GLAZ" inkscape:groupmode="layer" inkscape:label="A-GLAZ">
  <path d="M 42.70910685937588,0.0 L 58.20891299999994,80.239555" fill="none" instance-id="-1" semantic-id="2" stroke="rgb(0,178,178)" stroke-width="0.1"/>
  <path d="M 42.40308639207649,0.0 L 57.90291300000001,80.239555" fill="none" instance-id="-1" semantic-id="2" stroke="rgb(0,178,178)" stroke-width="0.1"/>
 </g>
 <g id="layerA-GLAZ-MULN" inkscape:groupmode="layer" inkscape:label="A-GLAZ-MULN">
  <path d="M 40.67183116784429,0.0 L 56.17191300000002,80.239555" fill="none" stroke="rgb(178,0,0)" stroke-width="0.1"/>
  <path d="M 58.30491299999994,80.739555 L 58.20891299999994,80.239555" fill="none" stroke="rgb(178,0,0)" stroke-width="0.1"/>
  <path d="M 58.20891299999994,80.239555 L 56.17191300000002,80.239555" fill="none" stroke="rgb(178,0,0)" stroke-width="0.1"/>
  <path d="M 56.17191300000002,80.239555 L 56.26791300000002,80.739555" fill="none" stroke="rgb(178,0,0)" stroke-width="0.1"/>
  <path d="M 56.26791300000002,80.739555 L 58.30491299999994,80.739555" fill="none" stroke="rgb(178,0,0)" stroke-width="0.1"/>
  <path d="M 58.25691299999994,80.69955500000003 L 58.17591299999992,80.27955500000002" fill="none" stroke="rgb(178,0,0)" stroke-width="0.1"/>
  <path d="M 58.17591299999992,80.27955500000002 L 56.21991300000002,80.27955500000002" fill="none" stroke="rgb(178,0,0)" stroke-width="0.1"/>
  <path d="M 56.21991300000002,80.27955500000002 L 56.30091299999992,80.69955500000003" fill="none" stroke="rgb(178,0,0)" stroke-width="0.1"/>
  <path d="M 56.30091299999992,80.69955500000003 L 58.25691299999994,80.69955500000003" fill="none" stroke="rgb(178,0,0)" stroke-width="0.1"/>
  <path d="M 44.12991299999999,17.90155500000003 L 45.79891299999997,17.579555000000028" fill="none" stroke="rgb(178,0,0)" stroke-width="0.1"/>
  <path d="M 45.79891299999997,17.579555000000028 L 45.64791300000002,16.793555000000026" fill="none" stroke="rgb(178,0,0)" stroke-width="0.1"/>
  <path d="M 45.64791300000002,16.793555000000026 L 43.977912999999944,17.116555000000005" fill="none" stroke="rgb(178,0,0)" stroke-width="0.1"/>
  <path d="M 43.977912999999944,17.116555000000005 L 44.12991299999999,17.90155500000003" fill="none" stroke="rgb(178,0,0)" stroke-width="0.1"/>
  <path d="M 46.55591300000003,17.280554999999993 L 46.06491299999993,17.37555500000002" fill="none" stroke="rgb(178,0,0)" stroke-width="0.1"/>
  <path d="M 46.06491299999993,17.37555500000002 L 45.970912999999996,16.884555000000034" fill="none" stroke="rgb(178,0,0)" stroke-width="0.1"/>
  <path d="M 45.970912999999996,16.884555000000034 L 46.460913000000005,16.789555000000007" fill="none" stroke="rgb(178,0,0)" stroke-width="0.1"/>
  <path d="M 46.460913000000005,16.789555000000007 L 46.55591300000003,17.280554999999993" fill="none" stroke="rgb(178,0,0)" stroke-width="0.1"/>
  <path d="M 50.122912999999926,48.92855500000002 L 50.31291299999998,49.90955500000001" fill="none" stroke="rgb(178,0,0)" stroke-width="0.1"/>
  <path d="M 50.31291299999998,49.90955500000001 L 52.76791300000002,49.43555500000002" fill="none" stroke="rgb(178,0,0)" stroke-width="0.1"/>
  <path d="M 52.76791300000002,49.43555500000002 L 52.57791299999997,48.453554999999994" fill="none" stroke="rgb(178,0,0)" stroke-width="0.1"/>
  <path d="M 52.57791299999997,48.453554999999994 L 50.122912999999926,48.92855500000002" fill="none" stroke="rgb(178,0,0)" stroke-width="0.1"/>
  <path d="M 46.519912999999974,30.27255500000001 L 46.70991300000003,31.25455500000004" fill="none" stroke="rgb(178,0,0)" stroke-width="0.1"/>
  <path d="M 46.70991300000003,31.25455500000004 L 49.16391299999998,30.780554999999993" fill="none" stroke="rgb(178,0,0)" stroke-width="0.1"/>
  <path d="M 49.16391299999998,30.780554999999993 L 48.973912999999925,29.79855500000002" fill="none" stroke="rgb(178,0,0)" stroke-width="0.1"/>
  <path d="M 48.973912999999925,29.79855500000002 L 46.519912999999974,30.27255500000001" fill="none" stroke="rgb(178,0,0)" stroke-width="0.1"/>
  <path d="M 41.39891299999999,3.7625550000000203 L 41.588912999999934,4.744554999999991" fill="none" stroke="rgb(178,0,0)" stroke-width="0.1"/>
  <path d="M 41.588912999999934,4.744554999999991 L 44.042913,4.270555000000002" fill="none" stroke="rgb(178,0,0)" stroke-width="0.1"/>
  <path d="M 44.042913,4.270555000000002 L 43.853913000000034,3.2885550000000308" fill="none" stroke="rgb(178,0,0)" stroke-width="0.1"/>
  <path d="M 43.853913000000034,3.2885550000000308 L 41.39891299999999,3.7625550000000203" fill="none" stroke="rgb(178,0,0)" stroke-width="0.1"/>
  <path d="M 52.664912999999956,62.08455500000002 L 54.33391299999994,61.76255500000002" fill="none" stroke="rgb(178,0,0)" stroke-width="0.1"/>
  <path d="M 54.33391299999994,61.76255500000002 L 54.18191300000001,60.97655500000002" fill="none" stroke="rgb(178,0,0)" stroke-width="0.1"/>
  <path d="M 54.18191300000001,60.97655500000002 L 52.512913000000026,61.299555" fill="none" stroke="rgb(178,0,0)" stroke-width="0.1"/>
  <path d="M 52.512913000000026,61.299555 L 52.664912999999956,62.08455500000002" fill="none" stroke="rgb(178,0,0)" stroke-width="0.1"/>
  <path d="M 55.090913,61.46355500000004 L 54.599913000000015,61.55855500000001" fill="none" stroke="rgb(178,0,0)" stroke-width="0.1"/>
  <path d="M 54.599913000000015,61.55855500000001 L 54.50491299999999,61.06755500000003" fill="none" stroke="rgb(178,0,0)" stroke-width="0.1"/>
  <path d="M 54.50491299999999,61.06755500000003 L 54.99591299999997,60.972555" fill="none" stroke="rgb(178,0,0)" stroke-width="0.1"/>
  <path d="M 54.99591299999997,60.972555 L 55.090913,61.46355500000004" fill="none" stroke="rgb(178,0,0)" stroke-width="0.1"/>
  <path d="M 55.05491299999994,74.45655500000004 L 56.723912999999925,74.133555" fill="none" stroke="rgb(178,0,0)" stroke-width="0.1"/>
  <path d="M 56.723912999999925,74.133555 L 56.571912999999995,73.34855500000003" fill="none" stroke="rgb(178,0,0)" stroke-width="0.1"/>
  <path d="M 56.571912999999995,73.34855500000003 L 54.90291300000001,73.67055500000004" fill="none" stroke="rgb(178,0,0)" stroke-width="0.1"/>
  <path d="M 54.90291300000001,73.67055500000004 L 55.05491299999994,74.45655500000004" fill="none" stroke="rgb(178,0,0)" stroke-width="0.1"/>
  <path d="M 57.48091299999999,73.83455500000002 L 56.989913,73.929555" fill="none" stroke="rgb(178,0,0)" stroke-width="0.1"/>
  <path d="M 56.989913,73.929555 L 56.894912999999974,73.43855500000001" fill="none" stroke="rgb(178,0,0)" stroke-width="0.1"/>
  <path d="M 56.894912999999974,73.43855500000001 L 57.38591299999996,73.34355500000004" fill="none" stroke="rgb(178,0,0)" stroke-width="0.1"/>
  <path d="M 57.38591299999996,73.34355500000004 L 57.48091299999999,73.83455500000002" fill="none" stroke="rgb(178,0,0)" stroke-width="0.1"/>
 </g>
 <g id="layerA-实施版" inkscape:groupmode="layer" inkscape:label="A-实施版">
  <path d="M 78.3665578195953,0.0 L 79.643913,6.61155500000001" fill="none" stroke="rgb(178,178,0)" stroke-width="0.1"/>
  <path d="M 79.643913,6.61155500000001 A 14.0,14.0 0.0 0,0 96.04491299999995,17.70155500000004" fill="none" stroke="rgb(178,178,0)" stroke-width="0.1"/>
  <path d="M 96.04491299999995,17.70155500000004 L 100.0,16.937622480245807" fill="none" stroke="rgb(178,178,0)" stroke-width="0.1"/>
  <path d="M 78.49791299999993,0.681555000000003 L 79.17946799999993,0.0" fill="none" stroke="rgb(178,178,0)" stroke-width="0.1"/>
  <path d="M 78.86191299999996,2.5625550000000317 L 81.42446800000005,0.0" fill="none" stroke="rgb(178,178,0)" stroke-width="0.1"/>
  <path d="M 79.22491300000002,4.444555000000037 L 83.66946800000005,0.0" fill="none" stroke="rgb(178,178,0)" stroke-width="0.1"/>
  <path d="M 79.58891299999993,6.3255550000000085 L 85.91446799999994,0.0" fill="none" stroke="rgb(178,178,0)" stroke-width="0.1"/>
  <path d="M 80.066913,8.092555000000004 L 88.15946799999995,0.0" fill="none" stroke="rgb(178,178,0)" stroke-width="0.1"/>
  <path d="M 80.68491299999994,9.72055499999999 L 90.40546799999993,0.0" fill="none" stroke="rgb(178,178,0)" stroke-width="0.1"/>
  <path d="M 81.42991299999994,11.219555000000014 L 92.6499207482749,0.0" fill="none" stroke="rgb(178,178,0)" stroke-width="0.1"/>
  <path d="M 82.37291299999993,12.521555000000035 L 94.89497918820166,0.0" fill="none" stroke="rgb(178,178,0)" stroke-width="0.1"/>
  <path d="M 83.42191300000002,13.717555000000004 L 97.13946799999997,0.0" fill="none" stroke="rgb(178,178,0)" stroke-width="0.1"/>
  <path d="M 84.56291299999998,14.822555000000023 L 99.38484048401847,0.0" fill="none" stroke="rgb(178,178,0)" stroke-width="0.1"/>
  <path d="M 85.90191299999992,15.728555000000028 L 100.0,1.6304680000000076" fill="none" stroke="rgb(178,178,0)" stroke-width="0.1"/>
  <path d="M 87.34491300000002,16.530554999999993 L 100.0,3.8754679999999553" fill="none" stroke="rgb(178,178,0)" stroke-width="0.1"/>
  <path d="M 88.90891299999998,17.211555000000033 L 100.0,6.12046799999996" fill="none" stroke="rgb(178,178,0)" stroke-width="0.1"/>
  <path d="M 90.70391299999994,17.660554999999988 L 100.0,8.364930307887391" fill="none" stroke="rgb(178,178,0)" stroke-width="0.1"/>
  <path d="M 92.71991300000002,17.890555000000006 L 100.0,10.610468000000026" fill="none" stroke="rgb(178,178,0)" stroke-width="0.1"/>
  <path d="M 95.04991299999995,17.805555000000027 L 100.0,12.855171623099011" fill="none" stroke="rgb(178,178,0)" stroke-width="0.1"/>
  <path d="M 97.72291299999995,17.37755500000003 L 100.0,15.100467999999978" fill="none" stroke="rgb(178,178,0)" stroke-width="0.1"/>
  <path d="M 78.3665578195953,0.0 L 79.643913,6.61155500000001" fill="none" stroke="rgb(178,178,0)" stroke-width="0.1"/>
  <path d="M 79.643913,6.61155500000001 A 14.0,14.0 0.0 0,0 96.04491299999995,17.70155500000004" fill="none" stroke="rgb(178,178,0)" stroke-width="0.1"/>
  <path d="M 96.04491299999995,17.70155500000004 L 100.0,16.937622480245807" fill="none" stroke="rgb(178,178,0)" stroke-width="0.1"/>
  <path d="M 93.18291299999999,3.1455550000000017 L 100.0,23.660479494583683" fill="none" stroke="rgb(178,178,0)" stroke-width="0.1"/>
  <path d="M 100.0,23.660479494583683 L 93.18291299999999,3.1455550000000017" fill="none" stroke="rgb(178,178,0)" stroke-width="0.1"/>
  <path d="M 93.18291299999999,3.1455550000000017 L 100.0,23.660479494583683" fill="none" stroke="rgb(178,178,0)" stroke-width="0.1"/>
  <text fill="rgb(0,0,0)" font-family="Noto Sans CJK SC" font-size="2" transform="rotate(-0.0,98.64291300000002,24.86355500000002)" x="98.64291300000002" y="24.86355500000002">
   蓝图版为洞口，验收后封板
  </text>
 </g>
 <g id="layerA-散水、排水沟" inkscape:groupmode="layer" inkscape:label="A-散水、排水沟">
  <path d="M 70.691913,42.49855500000001 L 81.79906781559794,100.0" fill="none" instance-id="-1" semantic-id="1" stroke="rgb(107,53,93)" stroke-width="0.1"/>
  <path d="M 74.20691299999999,44.87455499999999 L 84.85498239987908,100.0" fill="none" instance-id="-1" semantic-id="1" stroke="rgb(107,53,93)" stroke-width="0.1"/>
  <path d="M 74.20691299999999,44.87455499999999 L 100.0,39.89174598283512" fill="none" instance-id="-1" semantic-id="1" stroke="rgb(107,53,93)" stroke-width="0.1"/>
  <path d="M 70.691913,42.49855500000001 L 100.0,36.83633402410163" fill="none" instance-id="-1" semantic-id="1" stroke="rgb(107,53,93)" stroke-width="0.1"/>
 </g>
 <g id="layerA-栏杆" inkscape:groupmode="layer" inkscape:label="A-栏杆">
  <path d="M 77.0937693208599,0.0 L 78.41691300000002,6.848555000000033" fill="none" stroke="rgb(0,107,79)" stroke-width="0.1"/>
  <path d="M 78.41691300000002,6.848555000000033 A 15.25,15.25 0.0 0,0 96.28191300000003,18.929554999999993" fill="none" stroke="rgb(0,107,79)" stroke-width="0.1"/>
  <path d="M 96.28191300000003,18.929554999999993 L 100.0,18.21074116480139" fill="none" stroke="rgb(0,107,79)" stroke-width="0.1"/>
  <path d="M 77.60312336043751,0.0 L 78.90791300000001,6.753555000000006" fill="none" stroke="rgb(0,107,79)" stroke-width="0.1"/>
  <path d="M 78.90791300000001,6.753555000000006 A 14.75,14.75 0.0 0,0 96.18791299999998,18.438555000000008" fill="none" stroke="rgb(0,107,79)" stroke-width="0.1"/>
  <path d="M 96.18791299999998,18.438555000000008 L 100.0,17.701406482221273" fill="none" stroke="rgb(0,107,79)" stroke-width="0.1"/>
  <path d="M 88.67388924171769,100.0 L 80.13191299999994,55.77855500000004" fill="none" instance-id="-1" semantic-id="33" stroke="rgb(0,107,79)" stroke-width="0.1"/>
  <path d="M 80.13191299999994,55.77855500000004 L 86.787913,54.49255500000004" fill="none" instance-id="-1" semantic-id="33" stroke="rgb(0,107,79)" stroke-width="0.1"/>
  <path d="M 86.88291300000003,54.983555000000024 L 80.71791299999995,56.174555" fill="none" instance-id="-1" semantic-id="33" stroke="rgb(0,107,79)" stroke-width="0.1"/>
  <path d="M 80.71791299999995,56.174555 L 89.18329168546734,100.0" fill="none" instance-id="-1" semantic-id="33" stroke="rgb(0,107,79)" stroke-width="0.1"/>
 </g>
 <g id="layerA-洞口" inkscape:groupmode="layer" inkscape:label="A-洞口">
  <path d="M 5.711912999999981,62.743555000000015 L 0.0,63.15112625693871" fill="none" stroke="rgb(107,53,93)" stroke-width="0.1"/>
  <path d="M 100.0,6.5842798766312285 L 86.60791299999994,16.203554999999994" fill="none" stroke="rgb(107,53,93)" stroke-width="0.1"/>
  <path d="M 87.02491299999997,55.72055499999999 L 83.06091300000003,57.31955500000004" fill="none" stroke="rgb(107,53,93)" stroke-width="0.1"/>
  <path d="M 83.06091300000003,57.31955500000004 L 90.85626044444189,100.0" fill="none" stroke="rgb(107,53,93)" stroke-width="0.1"/>
 </g>
 <g id="layerA-空调" inkscape:groupmode="layer" inkscape:label="A-空调">
  <path d="M 78.36591299999998,74.31455500000004 L 80.792913,63.15155500000003" fill="none" stroke="rgb(178,0,88)" stroke-width="0.1"/>
  <path d="M 82.78391299999998,73.460555 L 76.37391300000002,64.00455500000004" fill="none" stroke="rgb(178,0,88)" stroke-width="0.1"/>
  <path d="M 81.35291299999994,89.77855500000004 L 83.77991299999996,78.61555500000003" fill="none" stroke="rgb(178,0,88)" stroke-width="0.1"/>
  <path d="M 85.77091299999995,88.92555500000003 L 79.36091299999998,79.46955500000001" fill="none" stroke="rgb(178,0,88)" stroke-width="0.1"/>
  <path d="M 78.36591299999998,74.31455500000004 L 76.37391300000002,64.00455500000004" fill="none" stroke="rgb(178,0,88)" stroke-width="0.1"/>
  <path d="M 76.37391300000002,64.00455500000004 L 80.792913,63.15155500000003" fill="none" stroke="rgb(178,0,88)" stroke-width="0.1"/>
  <path d="M 80.792913,63.15155500000003 L 82.78391299999998,73.460555" fill="none" stroke="rgb(178,0,88)" stroke-width="0.1"/>
  <path d="M 82.78391299999998,73.460555 L 78.36591299999998,74.31455500000004" fill="none" stroke="rgb(178,0,88)" stroke-width="0.1"/>
  <path d="M 81.35291299999994,89.77855500000004 L 79.36091299999998,79.46955500000001" fill="none" stroke="rgb(178,0,88)" stroke-width="0.1"/>
  <path d="M 79.36091299999998,79.46955500000001 L 83.77991299999996,78.61555500000003" fill="none" stroke="rgb(178,0,88)" stroke-width="0.1"/>
  <path d="M 83.77991299999996,78.61555500000003 L 85.77091299999995,88.92555500000003" fill="none" stroke="rgb(178,0,88)" stroke-width="0.1"/>
  <path d="M 85.77091299999995,88.92555500000003 L 81.35291299999994,89.77855500000004" fill="none" stroke="rgb(178,0,88)" stroke-width="0.1"/>
  <path d="M 100.0,33.780859042842735 L 66.19591300000002,40.311555" fill="none" instance-id="-1" semantic-id="1" stroke="rgb(178,178,0)" stroke-width="0.1"/>
  <path d="M 66.19591300000002,40.311555 L 77.72560556770122,100.0" fill="none" instance-id="-1" semantic-id="1" stroke="rgb(178,178,0)" stroke-width="0.1"/>
  <path d="M 100.0,35.81759125759277 L 68.53891299999998,41.895555" fill="none" instance-id="-1" semantic-id="1" stroke="rgb(178,178,0)" stroke-width="0.1"/>
  <path d="M 68.53891299999998,41.895555 L 79.76247793132984,100.0" fill="none" instance-id="-1" semantic-id="1" stroke="rgb(178,178,0)" stroke-width="0.1"/>
  <path d="M 89.94766509733415,100.0 L 81.59691299999997,56.76855499999999" fill="none" stroke="rgb(178,178,0)" stroke-width="0.1"/>
  <path d="M 81.59691299999997,56.76855499999999 L 87.02491299999997,55.72055499999999" fill="none" stroke="rgb(178,178,0)" stroke-width="0.1"/>
  <path d="M 87.02491299999997,55.72055499999999 L 85.11291299999993,45.823555" fill="none" stroke="rgb(178,178,0)" stroke-width="0.1"/>
  <path d="M 85.11291299999993,45.823555 L 100.0,42.94744124431077" fill="none" stroke="rgb(178,178,0)" stroke-width="0.1"/>
  <text fill="rgb(178,0,88)" font-family="Noto Sans CJK SC" font-size="2" transform="rotate(-280.933,77.41891299999997,65.48355500000002)" x="77.41891299999997" y="65.48355500000002">
   4-1-1
  </text>
  <text fill="rgb(178,0,88)" font-family="Noto Sans CJK SC" font-size="2" transform="rotate(-280.933,80.34891299999992,80.65355500000004)" x="80.34891299999992" y="80.65355500000004">
   4-1-2
  </text>
 </g>
 <g id="layerA-轮廓" inkscape:groupmode="layer" inkscape:label="A-轮廓">
  <path d="M 78.3665578195953,0.0 L 79.643913,6.61155500000001" fill="none" stroke="rgb(178,0,178)" stroke-width="0.1"/>
  <path d="M 79.643913,6.61155500000001 A 14.0,14.0 0.0 0,0 96.04491299999995,17.70155500000004" fill="none" stroke="rgb(178,0,178)" stroke-width="0.1"/>
  <path d="M 96.04491299999995,17.70155500000004 L 100.0,16.937622480245807" fill="none" stroke="rgb(178,0,178)" stroke-width="0.1"/>
  <path d="M 76.32985491489353,0.0 L 77.67991299999994,6.990555000000029" fill="none" stroke="rgb(178,0,178)" stroke-width="0.1"/>
  <path d="M 77.67991299999994,6.990555000000029 A 16.0,16.0 0.0 0,0 96.42491299999995,19.66555500000004" fill="none" stroke="rgb(178,0,178)" stroke-width="0.1"/>
  <path d="M 96.42491299999995,19.66555500000004 L 100.0,18.97502019754171" fill="none" stroke="rgb(178,0,178)" stroke-width="0.1"/>
  <path d="M 87.91045055567952,100.0 L 79.25391300000001,55.18455499999999" fill="none" stroke="rgb(178,0,178)" stroke-width="0.1"/>
  <path d="M 79.25391300000001,55.18455499999999 L 86.64591299999995,53.75655499999999" fill="none" stroke="rgb(178,0,178)" stroke-width="0.1"/>
  <path d="M 87.02491299999997,55.72055499999999 L 81.59691299999997,56.76855499999999" fill="none" stroke="rgb(178,0,178)" stroke-width="0.1"/>
  <path d="M 81.59691299999997,56.76855499999999 L 89.94766509733415,100.0" fill="none" stroke="rgb(178,0,178)" stroke-width="0.1"/>
 </g>
 <g id="layerCOLUMN" inkscape:groupmode="layer" inkscape:label="COLUMN">
  <path d="M 36.603913000000034,58.741555000000005 L 36.603913000000034,66.741555" fill="none" stroke="rgb(134,134,134)" stroke-width="0.1"/>
  <path d="M 36.603913000000034,66.741555 L 48.575913000000014,66.741555" fill="none" stroke="rgb(134,134,134)" stroke-width="0.1"/>
  <path d="M 48.575913000000014,66.741555 L 48.575913000000014,58.741555000000005" fill="none" stroke="rgb(134,134,134)" stroke-width="0.1"/>
  <path d="M 48.575913000000014,58.741555000000005 L 36.603913000000034,58.741555000000005" fill="none" stroke="rgb(134,134,134)" stroke-width="0.1"/>
 </g>
 <g id="layerDIM_LEAD" inkscape:groupmode="layer" inkscape:label="DIM_LEAD">
  <path d="M 64.51291300000003,46.991555000000005 L 95.40291300000001,46.991555000000005" fill="none" stroke="rgb(0,178,0)" stroke-width="0.1"/>
  <path d="M 95.40291300000001,46.991555000000005 L 100.0,54.02926762276144" fill="none" stroke="rgb(0,178,0)" stroke-width="0.1"/>
  <text fill="rgb(0,0,0)" font-family="Noto Sans CJK SC" font-size="2" transform="rotate(-0.0,64.51291300000003,45.15355500000004)" x="64.51291300000003" y="45.15355500000004">
   BFT-06-03
  </text>
  <text fill="rgb(0,0,0)" font-family="Noto Sans CJK SC" font-size="2" transform="rotate(-0.0,64.51291300000003,23.10355500000003)" x="64.51291300000003" y="23.10355500000003">
   （室外）
  </text>
 </g>
 <g id="layerDIM_SYMB" inkscape:groupmode="layer" inkscape:label="DIM_SYMB">
  <path d="M 95.50391300000001,56.037555 L 100.0,79.30963267016995" fill="none" stroke="rgb(0,178,0)" stroke-width="0.1"/>
  <path d="M 30.78491299999996,99.34155500000003 L 30.78491299999996,100.0" fill="none" stroke="rgb(0,178,0)" stroke-width="0.1"/>
  <path d="M 27.492688000000044,100.0 L 30.78491299999996,99.34155500000003" fill="none" stroke="rgb(0,178,0)" stroke-width="0.1"/>
  <text fill="rgb(0,178,0)" font-family="Noto Sans CJK SC" font-size="2" transform="rotate(-1.06826e-08,6.036913000000027,38.09555499999999)" x="6.036913000000027" y="38.09555499999999">
   商铺
  </text>
  <text fill="rgb(0,0,0)" font-family="Noto Sans CJK SC" font-size="2" transform="rotate(-0.0,29.83691299999998,99.121555)" x="29.83691299999998" y="99.121555">
   下2步
  </text>
  <text fill="rgb(0,178,0)" font-family="Noto Sans CJK SC" font-size="2" transform="rotate(-0.0,7.404912999999965,81.60555500000004)" x="7.404912999999965" y="81.60555500000004">
   合用前室
  </text>
 </g>
 <g id="layerDOOR_FIRE" inkscape:groupmode="layer" inkscape:label="DOOR_FIRE">
  <path d="M 40.35691299999996,81.21855500000004 A 9.2625,9.2625 0.0 0,0 49.61591299999998,90.24355500000001" fill="none" instance-id="3" semantic-id="4" stroke="rgb(0,178,178)" stroke-width="0.1"/>
  <path d="M 49.61591299999998,90.24355500000001 A 9.2625,9.2625 0.0 0,0 40.35691299999996,99.26855499999999" fill="none" instance-id="3" semantic-id="4" stroke="rgb(0,178,178)" stroke-width="0.1"/>
  <path d="M 49.61591299999998,99.74355500000001 L 49.61591299999998,99.26855499999999" fill="none" instance-id="3" semantic-id="4" stroke="rgb(0,178,178)" stroke-width="0.1"/>
  <path d="M 49.61591299999998,99.26855499999999 L 40.352912999999944,99.26855499999999" fill="none" instance-id="3" semantic-id="4" stroke="rgb(0,178,178)" stroke-width="0.1"/>
  <path d="M 40.352912999999944,99.26855499999999 L 40.352912999999944,99.74355500000001" fill="none" instance-id="3" semantic-id="4" stroke="rgb(0,178,178)" stroke-width="0.1"/>
  <path d="M 40.352912999999944,99.74355500000001 L 49.61591299999998,99.74355500000001" fill="none" instance-id="3" semantic-id="4" stroke="rgb(0,178,178)" stroke-width="0.1"/>
  <path d="M 49.61591299999998,81.21855500000004 L 49.61591299999998,80.74355500000001" fill="none" instance-id="3" semantic-id="4" stroke="rgb(0,178,178)" stroke-width="0.1"/>
  <path d="M 49.61591299999998,80.74355500000001 L 40.352912999999944,80.74355500000001" fill="none" instance-id="3" semantic-id="4" stroke="rgb(0,178,178)" stroke-width="0.1"/>
  <path d="M 40.352912999999944,80.74355500000001 L 40.352912999999944,81.21855500000004" fill="none" instance-id="3" semantic-id="4" stroke="rgb(0,178,178)" stroke-width="0.1"/>
  <path d="M 40.352912999999944,81.21855500000004 L 49.61591299999998,81.21855500000004" fill="none" instance-id="3" semantic-id="4" stroke="rgb(0,178,178)" stroke-width="0.1"/>
 </g>
 <g id="layerDOOR_FIRE_TEXT" inkscape:groupmode="layer" inkscape:label="DOOR_FIRE_TEXT">
  <text fill="rgb(0,0,0)" font-family="Noto Sans CJK SC" font-size="2" transform="rotate(90.0,52.835913000000005,83.87955500000004)" x="52.835913000000005" y="83.87955500000004">
   FM乙1923
  </text>
 </g>
 <g id="layerPUB_DIM" inkscape:groupmode="layer" inkscape:label="PUB_DIM">
  <path d="M 84.94091300000002,60.45955500000002 A 5.89505,5.89505 0.0 0,0 89.61091299999998,53.55255500000004" fill="none" stroke="rgb(26,107,0)" stroke-width="0.1"/>
  <path d="M 5.873913000000016,53.76055500000001 L 7.3579129999999395,52.275555" fill="none" stroke="rgb(26,107,0)" stroke-width="0.1"/>
  <path d="M 6.615912999999978,57.21855500000004 L 6.615912999999978,48.818555" fill="none" stroke="rgb(26,107,0)" stroke-width="0.1"/>
  <path d="M 84.14491299999997,56.335555 L 85.73791299999993,64.58255500000001" fill="none" stroke="rgb(26,107,0)" stroke-width="0.1"/>
  <path d="M 84.35291299999994,61.32955500000003 L 85.52891299999999,59.58955500000002" fill="none" stroke="rgb(26,107,0)" stroke-width="0.1"/>
  <path d="M 85.48691299999996,54.34955500000001 L 93.734913,52.75655499999999" fill="none" stroke="rgb(26,107,0)" stroke-width="0.1"/>
  <path d="M 88.74091299999998,52.96455500000002 L 90.48091299999999,54.14155500000004" fill="none" stroke="rgb(26,107,0)" stroke-width="0.1"/>
  <path d="M 73.33691299999998,56.69655499999999 L 81.58491300000003,55.10355500000003" fill="none" stroke="rgb(26,107,0)" stroke-width="0.1"/>
  <path d="M 76.590913,55.311555 L 78.33091300000001,56.48855500000002" fill="none" stroke="rgb(26,107,0)" stroke-width="0.1"/>
  <path d="M 42.709348606813705,0.0 L 44.04191300000002,6.899555000000021" fill="none" stroke="rgb(26,107,0)" stroke-width="0.1"/>
  <path d="M 42.65691300000003,3.6455550000000017 L 43.83291299999996,1.9055549999999926" fill="none" stroke="rgb(26,107,0)" stroke-width="0.1"/>
  <path d="M 78.35558999866623,0.0 L 78.40591299999994,0.26055500000001075" fill="none" stroke="rgb(26,107,0)" stroke-width="0.1"/>
  <path d="M 48.275912999999946,2.434554999999989 L 56.52391299999999,0.841555000000028" fill="none" stroke="rgb(26,107,0)" stroke-width="0.1"/>
  <path d="M 51.529912999999965,1.049554999999998 L 53.269912999999974,2.226555000000019" fill="none" stroke="rgb(26,107,0)" stroke-width="0.1"/>
  <path d="M 53.58691299999998,29.926555000000008 L 61.83391299999994,28.33355499999999" fill="none" stroke="rgb(26,107,0)" stroke-width="0.1"/>
  <path d="M 56.840913,28.541555000000017 L 58.57991300000003,29.717555000000004" fill="none" stroke="rgb(26,107,0)" stroke-width="0.1"/>
  <path d="M 57.00091299999997,47.59955500000001 L 65.24791299999993,46.00655499999999" fill="none" stroke="rgb(26,107,0)" stroke-width="0.1"/>
  <path d="M 60.25491299999999,46.21455500000002 L 61.99391300000002,47.39155500000004" fill="none" stroke="rgb(26,107,0)" stroke-width="0.1"/>
  <path d="M 61.93191300000001,73.12755500000003 L 70.17891299999997,71.53455500000001" fill="none" stroke="rgb(26,107,0)" stroke-width="0.1"/>
  <path d="M 65.18591300000003,71.74255500000004 L 66.92491299999995,72.919555" fill="none" stroke="rgb(26,107,0)" stroke-width="0.1"/>
  <path d="M 65.345913,90.80055500000003 L 73.59291299999995,89.20755500000001" fill="none" stroke="rgb(26,107,0)" stroke-width="0.1"/>
  <path d="M 68.59991300000002,89.41655500000002 L 70.33891299999993,90.592555" fill="none" stroke="rgb(26,107,0)" stroke-width="0.1"/>
  <path d="M 0.0,53.01855499999999 L 6.615912999999978,53.01855499999999" fill="none" stroke="rgb(26,107,0)" stroke-width="0.1"/>
  <path d="M 6.615912999999978,53.01855499999999 L 6.615912999999978,60.507555000000025" fill="none" stroke="rgb(26,107,0)" stroke-width="0.1"/>
  <path d="M 83.82291299999997,54.67155500000001 L 77.460913,55.900555" fill="none" stroke="rgb(26,107,0)" stroke-width="0.1"/>
  <path d="M 77.460913,55.900555 L 85.97939704042312,100.0" fill="none" stroke="rgb(26,107,0)" stroke-width="0.1"/>
  <path d="M 43.074912999999924,1.8955550000000017 L 43.244913,2.775554999999997" fill="none" stroke="rgb(26,107,0)" stroke-width="0.1"/>
  <path d="M 43.244913,2.775554999999997 L 57.61182783280606,0.0" fill="none" stroke="rgb(26,107,0)" stroke-width="0.1"/>
  <path d="M 52.08357662417245,0.0 L 52.39991299999997,1.6375550000000203" fill="none" stroke="rgb(26,107,0)" stroke-width="0.1"/>
  <path d="M 52.39991299999997,1.6375550000000203 L 57.70991300000003,29.12955500000004" fill="none" stroke="rgb(26,107,0)" stroke-width="0.1"/>
  <path d="M 57.70991300000003,29.12955500000004 L 61.123913000000016,46.80355500000002" fill="none" stroke="rgb(26,107,0)" stroke-width="0.1"/>
  <path d="M 61.123913000000016,46.80355500000002 L 66.05591300000003,72.33155500000004" fill="none" stroke="rgb(26,107,0)" stroke-width="0.1"/>
  <path d="M 66.05591300000003,72.33155500000004 L 69.46891299999993,90.00455500000004" fill="none" stroke="rgb(26,107,0)" stroke-width="0.1"/>
  <path d="M 69.46891299999993,90.00455500000004 L 71.39973318485511,100.0" fill="none" stroke="rgb(26,107,0)" stroke-width="0.1"/>
  <text fill="rgb(0,0,0)" font-family="Noto Sans CJK SC" font-size="2" transform="rotate(-55.9334,91.67791299999999,63.70055500000001)" x="91.67791299999999" y="63.70055500000001">
   90%%d
  </text>
  <text fill="rgb(0,0,0)" font-family="Noto Sans CJK SC" font-size="2" transform="rotate(-280.933,56.09291299999995,9.907555000000002)" x="56.09291299999995" y="9.907555000000002">
   2800
  </text>
  <text fill="rgb(0,0,0)" font-family="Noto Sans CJK SC" font-size="2" transform="rotate(-280.933,60.50891300000001,32.765555000000006)" x="60.50891300000001" y="32.765555000000006">
   1800
  </text>
  <text fill="rgb(0,0,0)" font-family="Noto Sans CJK SC" font-size="2" transform="rotate(-280.933,64.62791299999992,54.090554999999995)" x="64.62791299999992" y="54.090554999999995">
   2600
  </text>
  <text fill="rgb(0,0,0)" font-family="Noto Sans CJK SC" font-size="2" transform="rotate(-280.933,68.85391300000003,75.96655500000003)" x="68.85391300000003" y="75.96655500000003">
   1800
  </text>
 </g>
 <g id="layerPUB_HATCH" inkscape:groupmode="layer" inkscape:label="PUB_HATCH">
  <path d="M 36.603913000000034,66.741555 L 48.575913000000014,66.741555" fill="none" stroke="rgb(89,89,89)" stroke-width="0.1"/>
  <path d="M 48.575913000000014,66.741555 L 48.575913000000014,58.741555000000005" fill="none" stroke="rgb(89,89,89)" stroke-width="0.1"/>
  <path d="M 48.575913000000014,58.741555000000005 L 36.603913000000034,58.741555000000005" fill="none" stroke="rgb(89,89,89)" stroke-width="0.1"/>
  <path d="M 36.603913000000034,58.741555000000005 L 36.603913000000034,66.741555" fill="none" stroke="rgb(89,89,89)" stroke-width="0.1"/>
 </g>
 <g id="layerPUB_TEXT" inkscape:groupmode="layer" inkscape:label="PUB_TEXT">
  <text fill="rgb(0,178,0)" font-family="Noto Sans CJK SC" font-size="2" transform="rotate(-0.0,94.460913,97.74955499999999)" x="94.460913" y="97.74955499999999">
   中空
  </text>
 </g>
 <g id="layerSTAIR" inkscape:groupmode="layer" inkscape:label="STAIR">
  <path d="M 100.0,44.98426342046878 L 86.01291300000003,47.686555" fill="none" stroke="rgb(178,178,0)" stroke-width="0.1"/>
  <path d="M 99.17439486980834,100.0 L 93.69991299999992,71.66355500000003" fill="none" stroke="rgb(178,178,0)" stroke-width="0.1"/>
  <path d="M 100.0,61.27990752183263 L 91.99291299999993,62.82655500000004" fill="none" stroke="rgb(178,178,0)" stroke-width="0.1"/>
  <path d="M 99.13091299999996,99.77355499999999 L 100.0,99.6056823121101" fill="none" stroke="rgb(178,178,0)" stroke-width="0.1"/>
  <path d="M 98.561913,96.828555 L 100.0,96.55061970864705" fill="none" stroke="rgb(178,178,0)" stroke-width="0.1"/>
  <path d="M 97.99291299999993,93.88255500000002 L 100.0,93.49486643772855" fill="none" stroke="rgb(178,178,0)" stroke-width="0.1"/>
  <path d="M 97.42391299999997,90.93755500000003 L 100.0,90.43968144235322" fill="none" stroke="rgb(178,178,0)" stroke-width="0.1"/>
  <path d="M 96.85491300000001,87.991555 L 100.0,87.38405056334699" fill="none" stroke="rgb(178,178,0)" stroke-width="0.1"/>
  <path d="M 96.28591299999994,85.04555500000004 L 100.0,84.3281426261562" fill="none" stroke="rgb(178,178,0)" stroke-width="0.1"/>
  <path d="M 95.71691299999998,82.10055500000004 L 100.0,81.27323468896537" fill="none" stroke="rgb(178,178,0)" stroke-width="0.1"/>
  <path d="M 95.14691299999993,79.15455500000002 L 100.0,78.2172344007958" fill="none" stroke="rgb(178,178,0)" stroke-width="0.1"/>
  <path d="M 94.57791299999997,76.20955500000002 L 100.0,75.16233828293366" fill="none" stroke="rgb(178,178,0)" stroke-width="0.1"/>
  <path d="M 94.008913,73.263555 L 100.0,72.10644216507154" fill="none" stroke="rgb(178,178,0)" stroke-width="0.1"/>
  <path d="M 93.43991299999993,70.318555 L 100.0,69.05140978038287" fill="none" stroke="rgb(178,178,0)" stroke-width="0.1"/>
  <path d="M 88.89691299999993,62.61555500000003 L 86.01291300000003,47.686555" fill="none" stroke="rgb(178,178,0)" stroke-width="0.1"/>
  <path d="M 97.90142054380487,100.0 L 88.88791300000003,53.34355500000004" fill="none" stroke="rgb(178,178,0)" stroke-width="0.1"/>
  <path d="M 88.88791300000003,53.34355500000004 L 88.29891299999997,53.45755500000001" fill="none" stroke="rgb(178,178,0)" stroke-width="0.1"/>
  <path d="M 88.29891299999997,53.45755500000001 L 97.29001728053697,100.0" fill="none" stroke="rgb(178,178,0)" stroke-width="0.1"/>
  <path d="M 89.49591299999997,56.489554999999996 L 90.86091299999998,56.96655500000003" fill="none" stroke="rgb(178,178,0)" stroke-width="0.1"/>
  <path d="M 90.86091299999998,56.96655500000003 L 99.17437796677143,100.0" fill="none" stroke="rgb(178,178,0)" stroke-width="0.1"/>
  <path d="M 88.90691300000003,56.60355500000003 L 87.94091300000002,57.66555500000004" fill="none" stroke="rgb(178,178,0)" stroke-width="0.1"/>
  <path d="M 87.94091300000002,57.66555500000004 L 96.11907620783609,100.0" fill="none" stroke="rgb(178,178,0)" stroke-width="0.1"/>
  <path d="M 85.49191299999995,47.78655500000002 L 85.11291299999993,45.823555" fill="none" stroke="rgb(0,0,0)" stroke-width="0.1"/>
  <path d="M 85.11291299999993,45.823555 L 100.0,42.94744124431077" fill="none" stroke="rgb(0,0,0)" stroke-width="0.1"/>
 </g>
 <g id="layerWALL" inkscape:groupmode="layer" inkscape:label="WALL">
  <path d="M 0.0,60.743555000000015 L 7.615912999999978,60.743555000000015" fill="none" instance-id="-1" semantic-id="1" stroke="rgb(0,0,0)" stroke-width="0.1"/>
  <path d="M 0.0,62.743555000000015 L 5.615912999999978,62.743555000000015" fill="none" instance-id="-1" semantic-id="1" stroke="rgb(0,0,0)" stroke-width="0.1"/>
  <path d="M 0.0,78.739555 L 5.615912999999978,78.739555" fill="none" instance-id="-1" semantic-id="1" stroke="rgb(0,0,0)" stroke-width="0.1"/>
  <path d="M 0.0,80.739555 L 6.615912999999978,80.739555" fill="none" instance-id="-1" semantic-id="1" stroke="rgb(0,0,0)" stroke-width="0.1"/>
  <path d="M 49.61591299999998,78.739555 L 56.074912999999924,78.739555" fill="none" instance-id="-1" semantic-id="1" stroke="rgb(0,0,0)" stroke-width="0.1"/>
  <path d="M 50.61591299999998,80.739555 L 56.074912999999924,80.739555" fill="none" instance-id="-1" semantic-id="1" stroke="rgb(0,0,0)" stroke-width="0.1"/>
  <path d="M 56.074912999999924,78.739555 L 56.074912999999924,80.739555" fill="none" instance-id="-1" semantic-id="1" stroke="rgb(0,0,0)" stroke-width="0.1"/>
  <path d="M 48.61591299999998,100.0 L 48.61591299999998,99.74355500000001" fill="none" instance-id="-1" semantic-id="1" stroke="rgb(0,0,0)" stroke-width="0.1"/>
  <path d="M 50.61591299999998,100.0 L 50.61591299999998,99.74355500000001" fill="none" instance-id="-1" semantic-id="1" stroke="rgb(0,0,0)" stroke-width="0.1"/>
  <path d="M 48.61591299999998,99.74355500000001 L 50.61591299999998,99.74355500000001" fill="none" instance-id="-1" semantic-id="1" stroke="rgb(0,0,0)" stroke-width="0.1"/>
  <path d="M 48.61591299999998,80.74355500000001 L 48.61591299999998,80.739555" fill="none" stroke="rgb(0,0,0)" stroke-width="0.1"/>
  <path d="M 50.61591299999998,80.74355500000001 L 50.61591299999998,80.739555" fill="none" stroke="rgb(0,0,0)" stroke-width="0.1"/>
  <path d="M 48.61591299999998,80.74355500000001 L 50.61591299999998,80.74355500000001" fill="none" instance-id="-1" semantic-id="1" stroke="rgb(0,0,0)" stroke-width="0.1"/>
  <path d="M 5.615912999999978,78.739555 L 5.615912999999978,62.743555000000015" fill="none" instance-id="-1" semantic-id="1" stroke="rgb(0,0,0)" stroke-width="0.1"/>
  <path d="M 7.615912999999978,78.739555 L 7.615912999999978,60.743555000000015" fill="none" instance-id="-1" semantic-id="1" stroke="rgb(0,0,0)" stroke-width="0.1"/>
  <path d="M 7.615912999999978,78.739555 L 49.61591299999998,78.739555" fill="none" instance-id="-1" semantic-id="1" stroke="rgb(0,0,0)" stroke-width="0.1"/>
  <path d="M 6.615912999999978,80.739555 L 48.61591299999998,80.739555" fill="none" instance-id="-1" semantic-id="1" stroke="rgb(0,0,0)" stroke-width="0.1"/>
  <path d="M 0.0,16.746555 L 1.6199129999999968,16.746555" fill="none" instance-id="-1" semantic-id="1" stroke="rgb(0,0,0)" stroke-width="0.1"/>
  <path d="M 0.0,18.746555 L 2.619912999999997,18.746555" fill="none" instance-id="-1" semantic-id="1" stroke="rgb(0,0,0)" stroke-width="0.1"/>
  <path d="M 1.6199129999999968,16.746555 L 1.6199129999999968,0.0" fill="none" instance-id="-1" semantic-id="1" stroke="rgb(0,0,0)" stroke-width="0.1"/>
  <path d="M 3.619912999999997,16.746555 L 3.619912999999997,0.0" fill="none" instance-id="-1" semantic-id="1" stroke="rgb(0,0,0)" stroke-width="0.1"/>
  <path d="M 3.619912999999997,16.746555 L 44.09291299999995,16.746555" fill="none" instance-id="-1" semantic-id="1" stroke="rgb(0,0,0)" stroke-width="0.1"/>
  <path d="M 2.619912999999997,18.746555 L 44.09291299999995,18.746555" fill="none" instance-id="-1" semantic-id="1" stroke="rgb(0,0,0)" stroke-width="0.1"/>
  <path d="M 44.09291299999995,16.746555 L 44.09291299999995,18.746555" fill="none" instance-id="-1" semantic-id="1" stroke="rgb(0,0,0)" stroke-width="0.1"/>
 </g>
 <g id="layer前室面积" inkscape:groupmode="layer" inkscape:label="前室面积">
  <text fill="rgb(12,133,255)" font-family="Noto Sans CJK SC" font-size="2" transform="rotate(-0.0,9.824912999999924,90.60355500000003)" x="9.824912999999924" y="90.60355500000003">
   房间
  </text>
 </g>
 <g id="layer放坡及加楼梯" inkscape:groupmode="layer" inkscape:label="放坡及加楼梯">
  <path d="M 34.61591299999998,80.739555 L 34.61591299999998,100.0" fill="none" stroke="rgb(178,178,0)" stroke-width="0.1"/>
  <path d="M 31.815913000000023,80.739555 L 31.815913000000023,100.0" fill="none" stroke="rgb(178,178,0)" stroke-width="0.1"/>
 </g>
 <g id="layer轴网$0$DOTE" inkscape:groupmode="layer" inkscape:label="轴网$0$DOTE">
  <path d="M 54.61591299999998,100.0 L 54.61591299999998,0.0" fill="none" stroke="rgb(92,92,92)" stroke-width="0.1"/>
  <path d="M 0.0,62.743555000000015 L 100.0,62.743555000000015" fill="none" stroke="rgb(92,92,92)" stroke-width="0.1"/>
 </g>
 <g id="layer销售商业编号" inkscape:groupmode="layer" inkscape:label="销售商业编号">
  <text fill="rgb(107,0,26)" font-family="Noto Sans CJK SC" font-size="2" transform="rotate(-0.0,3.575913000000014,30.692555000000027)" x="3.575913000000014" y="30.692555000000027">
   F112-L2-010
  </text>
 </g>
 <g id="layer销售商业门窗编号" inkscape:groupmode="layer" inkscape:label="销售商业门窗编号">
  <text fill="rgb(0,71,142)" font-family="Noto Sans CJK SC" font-size="2" transform="rotate(-280.933,42.47691299999997,34.67655500000001)" x="42.47691299999997" y="34.67655500000001">
   MLC4530
  </text>
 </g>
</svg>