<?xml version="1.0" encoding="utf-8"?>
<svg style="background-color: #000;" version="1.1" viewBox="0 0 100.0 100.0" xmlns="http://www.w3.org/2000/svg" xmlns:inkscape="http://www.inkscape.org/namespaces/inkscape">
 <g id="layerA-FLOR-WDWK" inkscape:groupmode="layer" inkscape:label="A-FLOR-WDWK">
  <path d="M 8.704249000000004,46.36737149999999 L 13.504248999999959,44.96637149999998" fill="none" stroke="rgb(178,0,178)" stroke-width="0.1"/>
  <path d="M 13.504248999999959,44.96637149999998 L 24.435249,82.38737149999997" fill="none" stroke="rgb(178,0,178)" stroke-width="0.1"/>
  <path d="M 24.435249,82.38737149999997 A 10.0,10.0 0.0 0,0 37.029248999999936,89.12337149999996" fill="none" stroke="rgb(178,0,178)" stroke-width="0.1"/>
  <path d="M 37.029248999999936,89.12337149999996 L 70.05224899999996,78.7563715" fill="none" stroke="rgb(178,0,178)" stroke-width="0.1"/>
  <path d="M 70.05224899999996,78.7563715 A 10.0,10.0 0.0 0,0 76.10724900000002,64.96237149999996" fill="none" stroke="rgb(178,0,178)" stroke-width="0.1"/>
  <path d="M 76.10724900000002,64.96237149999996 L 45.58224201093117,0.0" fill="none" stroke="rgb(178,0,178)" stroke-width="0.1"/>
 </g>
 <g id="layerA-HVAC-SDFF" inkscape:groupmode="layer" inkscape:label="A-HVAC-SDFF">
  <path d="M 51.35887304559401,0.0 L 51.46124899999995,1.8243714999999838" fill="none" stroke="rgb(134,134,134)" stroke-width="0.1"/>
  <path d="M 69.49124900000004,38.0833715 L 78.19224899999995,45.48637149999996" fill="none" stroke="rgb(134,134,134)" stroke-width="0.1"/>
  <path d="M 73.52224899999999,36.082371499999965 L 74.16224899999997,47.487371499999995" fill="none" stroke="rgb(134,134,134)" stroke-width="0.1"/>
  <path d="M 55.13643216666674,0.0 L 51.46124899999995,1.8243714999999838" fill="none" stroke="rgb(134,134,134)" stroke-width="0.1"/>
  <path d="M 51.46124899999995,1.8243714999999838 L 50.555271234687325,0.0" fill="none" stroke="rgb(134,134,134)" stroke-width="0.1"/>
  <path d="M 69.49124900000004,38.0833715 L 73.52224899999999,36.082371499999965" fill="none" stroke="rgb(134,134,134)" stroke-width="0.1"/>
  <path d="M 73.52224899999999,36.082371499999965 L 78.19224899999995,45.48637149999996" fill="none" stroke="rgb(134,134,134)" stroke-width="0.1"/>
  <path d="M 78.19224899999995,45.48637149999996 L 74.16224899999997,47.487371499999995" fill="none" stroke="rgb(134,134,134)" stroke-width="0.1"/>
  <path d="M 74.16224899999997,47.487371499999995 L 69.49124900000004,38.0833715" fill="none" stroke="rgb(134,134,134)" stroke-width="0.1"/>
 </g>
 <g id="layerA-散水、排水沟" inkscape:groupmode="layer" inkscape:label="A-散水、排水沟">
  <path d="M 0.0,61.410670858105334 L 13.98724900000002,57.32637149999999" fill="none" stroke="rgb(107,53,93)" stroke-width="0.1"/>
  <path d="M 13.98724900000002,57.32637149999999 L 21.555249000000003,83.22837149999998" fill="none" stroke="rgb(107,53,93)" stroke-width="0.1"/>
  <path d="M 21.555249000000003,83.22837149999998 A 13.0,13.0 0.0 0,0 37.92824899999994,91.98637149999996" fill="none" stroke="rgb(107,53,93)" stroke-width="0.1"/>
  <path d="M 37.92824899999994,91.98637149999996 L 70.95024899999999,81.61837149999997" fill="none" stroke="rgb(107,53,93)" stroke-width="0.1"/>
  <path d="M 70.95024899999999,81.61837149999997 A 13.0,13.0 0.0 0,0 78.82224899999994,63.68637150000001" fill="none" stroke="rgb(107,53,93)" stroke-width="0.1"/>
  <path d="M 78.82224899999994,63.68637150000001 L 48.896599802987225,0.0" fill="none" stroke="rgb(107,53,93)" stroke-width="0.1"/>
  <path d="M 0.0,64.5361292741465 L 11.949249000000009,61.046371499999964" fill="none" stroke="rgb(107,53,93)" stroke-width="0.1"/>
  <path d="M 11.949249000000009,61.046371499999964 L 18.676248999999984,84.07037149999996" fill="none" stroke="rgb(107,53,93)" stroke-width="0.1"/>
  <path d="M 18.676248999999984,84.07037149999996 A 16.0,16.0 0.0 0,0 38.82624899999996,94.84837149999998" fill="none" stroke="rgb(107,53,93)" stroke-width="0.1"/>
  <path d="M 38.82624899999996,94.84837149999998 L 71.84924899999999,84.48037149999999" fill="none" stroke="rgb(107,53,93)" stroke-width="0.1"/>
  <path d="M 71.84924899999999,84.48037149999999 A 16.0,16.0 0.0 0,0 81.53724899999997,62.41137149999997" fill="none" stroke="rgb(107,53,93)" stroke-width="0.1"/>
  <path d="M 81.53724899999997,62.41137149999997 L 52.210898665970376,0.0" fill="none" stroke="rgb(107,53,93)" stroke-width="0.1"/>
 </g>
 <g id="layerA-洞口" inkscape:groupmode="layer" inkscape:label="A-洞口">
  <path d="M 35.02449828978558,0.0 L 70.05224899999996,78.7563715" fill="none" stroke="rgb(107,53,93)" stroke-width="0.1"/>
 </g>
 <g id="layerA-空调板投影线" inkscape:groupmode="layer" inkscape:label="A-空调板投影线">
  <path d="M 58.84079761770852,0.0 L 80.52724899999998,46.15237149999996" fill="none" stroke="rgb(178,88,0)" stroke-width="0.1"/>
  <path d="M 80.52724899999998,46.15237149999996 L 69.666249,51.25537149999997" fill="none" stroke="rgb(178,88,0)" stroke-width="0.1"/>
 </g>
 <g id="layerDIM_LEAD" inkscape:groupmode="layer" inkscape:label="DIM_LEAD">
  <path d="M 0.0,19.237538557530172 L 4.637248999999997,10.571371499999998" fill="none" stroke="rgb(0,178,0)" stroke-width="0.1"/>
  <path d="M 4.637248999999997,10.571371499999998 L 24.90024900000003,4.655371500000001" fill="none" stroke="rgb(0,178,0)" stroke-width="0.1"/>
  <path d="M 37.56224899999995,94.1623715 L 40.65745495554779,100.0" fill="none" stroke="rgb(0,178,0)" stroke-width="0.1"/>
  <path d="M 45.90634471327667,100.0 L 49.84624899999994,98.84937149999996" fill="none" stroke="rgb(0,178,0)" stroke-width="0.1"/>
  <text fill="rgb(0,0,0)" font-family="Noto Sans CJK SC" font-size="2" transform="rotate(-16.2746,41.97724900000003,99.2323715)" x="41.97724900000003" y="99.2323715">
   排水沟
  </text>
 </g>
 <g id="layerDIM_SYMB" inkscape:groupmode="layer" inkscape:label="DIM_SYMB">
  <path d="M 52.65324899999996,88.83237149999997 L 61.56824900000004,86.15637149999998" fill="none" stroke="rgb(0,178,0)" stroke-width="0.1"/>
  <path d="M 63.67324899999994,28.267371499999967 L 66.63424899999995,34.98637149999996" fill="none" stroke="rgb(0,178,0)" stroke-width="0.1"/>
  <path d="M 61.82724899999994,87.0183715 L 65.87824899999998,84.8623715" fill="none" stroke="rgb(0,178,0)" stroke-width="0.1"/>
  <path d="M 65.87824899999998,84.8623715 L 61.30924900000002,85.29437150000001" fill="none" stroke="rgb(0,178,0)" stroke-width="0.1"/>
  <path d="M 61.30924900000002,85.29437150000001 L 61.82724899999994,87.0183715" fill="none" stroke="rgb(0,178,0)" stroke-width="0.1"/>
  <path d="M 67.45824900000002,34.62337149999996 L 68.44924900000001,39.10437149999996" fill="none" stroke="rgb(0,178,0)" stroke-width="0.1"/>
  <path d="M 68.44924900000001,39.10437149999996 L 65.81124899999998,35.34937149999996" fill="none" stroke="rgb(0,178,0)" stroke-width="0.1"/>
  <path d="M 65.81124899999998,35.34937149999996 L 67.45824900000002,34.62337149999996" fill="none" stroke="rgb(0,178,0)" stroke-width="0.1"/>
  <text fill="rgb(0,0,0)" font-family="Noto Sans CJK SC" font-size="2" transform="rotate(-16.7083,54.81824900000004,86.81237149999998)" x="54.81824900000004" y="86.81237149999998">
   0.3%
  </text>
  <text fill="rgb(0,0,0)" font-family="Noto Sans CJK SC" font-size="2" transform="rotate(-293.786,65.54824899999994,29.267371499999967)" x="65.54824899999994" y="29.267371499999967">
   0.3%
  </text>
 </g>
 <g id="layerPUB_DIM" inkscape:groupmode="layer" inkscape:label="PUB_DIM">
  <path d="M 79.56924900000001,72.74337149999997 L 92.305249,76.3333715" fill="none" stroke="rgb(26,107,0)" stroke-width="0.1"/>
  <path d="M 24.794249000000036,98.04837149999997 L 28.216248999999948,91.2083715" fill="none" stroke="rgb(26,107,0)" stroke-width="0.1"/>
  <path d="M 63.637249,80.77037150000001 L 71.65224899999998,78.25437149999999" fill="none" stroke="rgb(26,107,0)" stroke-width="0.1"/>
  <path d="M 66.714249,79.02637149999998 L 68.57524899999999,79.99837149999996" fill="none" stroke="rgb(26,107,0)" stroke-width="0.1"/>
  <path d="M 67.23224900000002,92.21937149999997 L 75.24624900000003,89.7033715" fill="none" stroke="rgb(26,107,0)" stroke-width="0.1"/>
  <path d="M 70.30824900000005,90.4753715 L 72.17024900000001,91.44737149999997" fill="none" stroke="rgb(26,107,0)" stroke-width="0.1"/>
  <path d="M 15.953249000000028,53.62737149999998 L 24.016249000000016,51.273371499999996" fill="none" stroke="rgb(26,107,0)" stroke-width="0.1"/>
  <path d="M 19.064249000000018,51.945371499999965 L 20.905249000000026,52.95437149999998" fill="none" stroke="rgb(26,107,0)" stroke-width="0.1"/>
  <path d="M 79.48724900000002,73.03137149999998 L 79.65024900000003,72.45437149999998" fill="none" stroke="rgb(26,107,0)" stroke-width="0.1"/>
  <path d="M 79.65024900000003,72.45437149999998 L 76.68124899999998,71.9293715" fill="none" stroke="rgb(26,107,0)" stroke-width="0.1"/>
  <path d="M 76.68124899999998,71.9293715 L 79.48724900000002,73.03137149999998" fill="none" stroke="rgb(26,107,0)" stroke-width="0.1"/>
  <path d="M 28.485248999999953,91.34237149999996 L 29.559249000000023,88.5253715" fill="none" stroke="rgb(26,107,0)" stroke-width="0.1"/>
  <path d="M 29.559249000000023,88.5253715 L 27.948249000000033,91.07437149999998" fill="none" stroke="rgb(26,107,0)" stroke-width="0.1"/>
  <path d="M 27.948249000000033,91.07437149999998 L 28.485248999999953,91.34237149999996" fill="none" stroke="rgb(26,107,0)" stroke-width="0.1"/>
  <path d="M 53.54024900000002,83.94037149999997 L 67.64524900000004,79.51237149999997" fill="none" stroke="rgb(26,107,0)" stroke-width="0.1"/>
  <path d="M 67.64524900000004,79.51237149999997 L 71.23924899999997,90.96137149999998" fill="none" stroke="rgb(26,107,0)" stroke-width="0.1"/>
  <path d="M 71.23924899999997,90.96137149999998 L 57.135249000000044,95.38937149999998" fill="none" stroke="rgb(26,107,0)" stroke-width="0.1"/>
  <path d="M 4.672486258767378,0.0 L 19.985248999999953,52.45037149999996" fill="none" stroke="rgb(26,107,0)" stroke-width="0.1"/>
  <path d="M 19.985248999999953,52.45037149999996 L 21.067248999999947,52.134371499999986" fill="none" stroke="rgb(26,107,0)" stroke-width="0.1"/>
  <text fill="rgb(0,0,0)" font-family="Noto Sans CJK SC" font-size="2" transform="rotate(-287.429,69.93824900000004,79.94537149999996)" x="69.93824900000004" y="79.94537149999996">
   1200
  </text>
 </g>
 <g id="layerPUB_TEXT" inkscape:groupmode="layer" inkscape:label="PUB_TEXT">
  <path d="M 21.067248999999947,52.134371499999986 L 0.0,58.28489853070573" fill="none" stroke="rgb(107,53,53)" stroke-width="0.1"/>
  <path d="M 0.0,16.549994233254722 L 11.227248999999972,55.0063715" fill="none" stroke="rgb(107,53,53)" stroke-width="0.1"/>
  <text fill="rgb(0,178,0)" font-family="Noto Sans CJK SC" font-size="2" transform="rotate(-16.2746,18.877249000000006,6.912371500000006)" x="18.877249000000006" y="6.912371500000006">
   上空
  </text>
 </g>
 <g id="layerSTAIR" inkscape:groupmode="layer" inkscape:label="STAIR">
  <path d="M 10.71924899999999,55.1553715 L 0.0,58.284781556193366" fill="none" stroke="rgb(178,178,0)" stroke-width="0.1"/>
  <path d="M 0.0,34.89712054796473 L 1.5472489999999652,34.445371499999965" fill="none" stroke="rgb(178,178,0)" stroke-width="0.1"/>
  <path d="M 0.0,31.7715744533553 L 0.7062490000000139,31.56537149999997" fill="none" stroke="rgb(178,178,0)" stroke-width="0.1"/>
  <path d="M 2.3882489999999734,37.32537149999996 L 0.0,29.144613339964224" fill="none" stroke="rgb(178,178,0)" stroke-width="0.1"/>
  <path d="M 0.0,41.2001961448135 L 3.2432489999999916,40.25337149999996" fill="none" stroke="rgb(178,178,0)" stroke-width="0.1"/>
  <path d="M 6.45724899999999,40.5593715 L 10.71924899999999,55.1553715" fill="none" stroke="rgb(178,178,0)" stroke-width="0.1"/>
  <path d="M 0.0,22.5438997338548 L 7.092248999999981,46.838371499999994" fill="none" stroke="rgb(178,178,0)" stroke-width="0.1"/>
  <path d="M 7.092248999999981,46.838371499999994 L 6.516249000000016,47.0063715" fill="none" stroke="rgb(178,178,0)" stroke-width="0.1"/>
  <path d="M 6.516249000000016,47.0063715 L 0.0,24.685782152651427" fill="none" stroke="rgb(178,178,0)" stroke-width="0.1"/>
  <path d="M 0.0,29.14428607096727 L 3.6152490000000057,41.52737149999996" fill="none" stroke="rgb(178,178,0)" stroke-width="0.1"/>
  <path d="M 3.6152490000000057,41.52737149999996 L 5.019249000000002,41.87537149999997" fill="none" stroke="rgb(178,178,0)" stroke-width="0.1"/>
  <path d="M 0.0,18.441284157676364 L 6.45724899999999,40.5593715" fill="none" stroke="rgb(178,178,0)" stroke-width="0.1"/>
  <path d="M 6.45724899999999,40.5593715 L 5.595248999999967,41.707371499999965" fill="none" stroke="rgb(178,178,0)" stroke-width="0.1"/>
  <path d="M 0.0,60.36790470632849 L 11.788249000000008,56.92637149999996" fill="none" stroke="rgb(0,178,0)" stroke-width="0.1"/>
  <path d="M 11.788249000000008,56.92637149999996 L 11.227248999999972,55.0063715" fill="none" stroke="rgb(0,178,0)" stroke-width="0.1"/>
 </g>
 <g id="layer扶梯" inkscape:groupmode="layer" inkscape:label="扶梯">
  <path d="M 11.227248999999972,55.0063715 L 0.0,16.549994233254722" fill="none" stroke="rgb(0,178,178)" stroke-width="0.1"/>
  <path d="M 0.0,58.28422965776281 L 11.227248999999972,55.0063715" fill="none" stroke="rgb(0,178,178)" stroke-width="0.1"/>
 </g>
 <g id="layer轴网$0$DOTE" inkscape:groupmode="layer" inkscape:label="轴网$0$DOTE">
  <path d="M 0.0,69.66051536075855 L 97.80824900000005,41.106371499999966" fill="none" stroke="rgb(92,92,92)" stroke-width="0.1"/>
  <path d="M 85.80816138816726,0.0 L 100.0,48.612163187397925" fill="none" stroke="rgb(92,92,92)" stroke-width="0.1"/>
  <path d="M 0.0,5.817360171650478 L 27.495652835875262,100.0" fill="none" stroke="rgb(92,92,92)" stroke-width="0.1"/>
 </g>
</svg>