<?xml version="1.0" encoding="utf-8"?>
<svg style="background-color: #000;" version="1.1" viewBox="0 0 100.0 99.99999999999994" xmlns="http://www.w3.org/2000/svg" xmlns:inkscape="http://www.inkscape.org/namespaces/inkscape">
 <g id="layerA-ANNO-OVHD" inkscape:groupmode="layer" inkscape:label="A-ANNO-OVHD">
  <path d="M 31.228128752004523,0.0 L 53.483249,76.23137149999997" fill="none" stroke="rgb(89,89,89)" stroke-width="0.1"/>
  <path d="M 81.54624899999999,90.94037150000003 L 100.0,84.80106653592594" fill="none" stroke="rgb(89,89,89)" stroke-width="0.1"/>
  <path d="M 53.483249,76.23137149999997 A 22.0,22.0 0.0 0,0 81.54624899999999,90.94037150000003" fill="none" stroke="rgb(89,89,89)" stroke-width="0.1"/>
  <path d="M 62.505545054023486,99.99999999999994 L 57.971249,84.46837149999993" fill="none" stroke="rgb(89,89,89)" stroke-width="0.1"/>
 </g>
 <g id="layerA-DOOR" inkscape:groupmode="layer" inkscape:label="A-DOOR">
  <path d="M 51.99824899999999,56.87137149999995 L 43.359249000000005,59.3933715" fill="none" instance-id="1" semantic-id="4" stroke="rgb(0,178,0)" stroke-width="0.1"/>
  <path d="M 52.12424899999999,57.30337149999997 L 43.48524899999998,59.82537150000002" fill="none" instance-id="1" semantic-id="4" stroke="rgb(0,178,0)" stroke-width="0.1"/>
  <path d="M 51.99824899999999,56.87137149999995 L 52.12424899999999,57.30337149999997" fill="none" instance-id="1" semantic-id="4" stroke="rgb(0,178,0)" stroke-width="0.1"/>
  <path d="M 43.359249000000005,59.3933715 L 43.48524899999998,59.82537150000002" fill="none" instance-id="1" semantic-id="4" stroke="rgb(0,178,0)" stroke-width="0.1"/>
  <path d="M 57.042249,74.15037149999995 L 48.40324899999999,76.6723715" fill="none" instance-id="1" semantic-id="4" stroke="rgb(0,178,0)" stroke-width="0.1"/>
  <path d="M 56.91624899999999,73.71837149999993 L 48.27724899999998,76.24037149999998" fill="none" instance-id="1" semantic-id="4" stroke="rgb(0,178,0)" stroke-width="0.1"/>
  <path d="M 57.042249,74.15037149999995 L 56.91624899999999,73.71837149999993" fill="none" instance-id="1" semantic-id="4" stroke="rgb(0,178,0)" stroke-width="0.1"/>
  <path d="M 48.40324899999999,76.6723715 L 48.27724899999998,76.24037149999998" fill="none" instance-id="1" semantic-id="4" stroke="rgb(0,178,0)" stroke-width="0.1"/>
  <path d="M 39.89024899999998,15.396371499999987 L 31.250248999999997,17.918371499999978" fill="none" instance-id="3" semantic-id="4" stroke="rgb(0,178,0)" stroke-width="0.1"/>
  <path d="M 40.01624899999999,15.828371500000003 L 31.376249,18.350371499999994" fill="none" instance-id="3" semantic-id="4" stroke="rgb(0,178,0)" stroke-width="0.1"/>
  <path d="M 39.89024899999998,15.396371499999987 L 40.01624899999999,15.828371500000003" fill="none" instance-id="3" semantic-id="4" stroke="rgb(0,178,0)" stroke-width="0.1"/>
  <path d="M 31.250248999999997,17.918371499999978 L 31.376249,18.350371499999994" fill="none" instance-id="3" semantic-id="4" stroke="rgb(0,178,0)" stroke-width="0.1"/>
  <path d="M 44.934248999999994,32.67537150000004 L 36.295248999999984,35.197371499999974" fill="none" instance-id="3" semantic-id="4" stroke="rgb(0,178,0)" stroke-width="0.1"/>
  <path d="M 44.80824899999999,32.24337150000002 L 36.16924899999998,34.76537149999996" fill="none" instance-id="3" semantic-id="4" stroke="rgb(0,178,0)" stroke-width="0.1"/>
  <path d="M 44.934248999999994,32.67537150000004 L 44.80824899999999,32.24337150000002" fill="none" instance-id="3" semantic-id="4" stroke="rgb(0,178,0)" stroke-width="0.1"/>
  <path d="M 36.295248999999984,35.197371499999974 L 36.16924899999998,34.76537149999996" fill="none" instance-id="3" semantic-id="4" stroke="rgb(0,178,0)" stroke-width="0.1"/>
  <path d="M 90.721249,83.6723715 L 93.56224900000001,92.21237149999996" fill="none" stroke="rgb(0,178,0)" stroke-width="0.1"/>
  <path d="M 91.14824899999996,83.53037149999994 L 93.98924899999997,92.07037150000002" fill="none" stroke="rgb(0,178,0)" stroke-width="0.1"/>
  <path d="M 90.721249,83.6723715 L 91.14824899999996,83.53037149999994" fill="none" stroke="rgb(0,178,0)" stroke-width="0.1"/>
  <path d="M 93.56224900000001,92.21237149999996 L 93.98924899999997,92.07037150000002" fill="none" stroke="rgb(0,178,0)" stroke-width="0.1"/>
  <path d="M 43.48524899999998,59.82537150000002 A 9.02044,9.02044 0.0 0,0 54.52024899999998,65.51037149999996" fill="none" instance-id="1" semantic-id="4" stroke="rgb(0,178,0)" stroke-width="0.1"/>
  <path d="M 54.52024899999998,65.51037149999996 A 9.02044,9.02044 0.0 0,0 48.27724899999998,76.24037149999998" fill="none" instance-id="1" semantic-id="4" stroke="rgb(0,178,0)" stroke-width="0.1"/>
  <path d="M 31.376249,18.350371499999994 A 9.02044,9.02044 0.0 0,0 42.412249,24.03537149999994" fill="none" instance-id="3" semantic-id="4" stroke="rgb(0,178,0)" stroke-width="0.1"/>
  <path d="M 42.412249,24.03537149999994 A 9.02044,9.02044 0.0 0,0 36.16924899999998,34.76537149999996" fill="none" instance-id="3" semantic-id="4" stroke="rgb(0,178,0)" stroke-width="0.1"/>
  <path d="M 99.26124900000002,80.83137149999999 L 99.43517026721804,81.3076043511349" fill="none" stroke="rgb(0,178,0)" stroke-width="0.1"/>
  <path d="M 99.43517026721804,81.3076043511349 L 99.63557310438756,81.77331352921186" fill="none" stroke="rgb(0,178,0)" stroke-width="0.1"/>
  <path d="M 99.63557310438756,81.77331352921186 L 99.86182442969374,82.22702783743676" fill="none" stroke="rgb(0,178,0)" stroke-width="0.1"/>
  <path d="M 93.98924899999997,92.07037150000002 A 9.02044,9.02044 0.0 0,0 99.26124900000002,80.83137149999999" fill="none" stroke="rgb(0,178,0)" stroke-width="0.1"/>
 </g>
 <g id="layerA-FLOR-HRAL" inkscape:groupmode="layer" inkscape:label="A-FLOR-HRAL">
  <path d="M 30.472730522576825,99.99999999999994 L 1.2784909585017203,0.0" fill="none" stroke="rgb(0,178,178)" stroke-width="0.1"/>
  <path d="M 29.95158027652974,99.99999999999994 L 0.757397527055673,0.0" fill="none" stroke="rgb(0,178,178)" stroke-width="0.1"/>
 </g>
 <g id="layerA-FLOR-WDWK" inkscape:groupmode="layer" inkscape:label="A-FLOR-WDWK">
  <path d="M 31.253093267132755,99.99999999999994 L 2.059085665707471,0.0" fill="none" stroke="rgb(178,0,178)" stroke-width="0.1"/>
  <path d="M 29.170277202948398,99.99999999999994 L 0.0,0.0818180175099883" fill="none" stroke="rgb(178,0,178)" stroke-width="0.1"/>
 </g>
 <g id="layerA-GLAZ" inkscape:groupmode="layer" inkscape:label="A-GLAZ">
  <path d="M 33.624355343518886,0.0 L 55.691249,75.58637149999998" fill="none" stroke="rgb(0,178,178)" stroke-width="0.1"/>
  <path d="M 80.82024899999999,88.75837150000001 L 100.0,82.37721454404692" fill="none" stroke="rgb(0,178,178)" stroke-width="0.1"/>
  <path d="M 33.31194036920638,0.0 L 55.40324899999999,75.67037149999993" fill="none" stroke="rgb(0,178,178)" stroke-width="0.1"/>
  <path d="M 80.91524899999999,89.04337149999998 L 100.0,82.69380363561078" fill="none" stroke="rgb(0,178,178)" stroke-width="0.1"/>
  <path d="M 55.691249,75.58637149999998 A 19.7,19.7 0.0 0,0 80.82024899999999,88.75837150000001" fill="none" stroke="rgb(0,178,178)" stroke-width="0.1"/>
  <path d="M 55.40324899999999,75.67037149999993 A 20.0,20.0 0.0 0,0 80.91524899999999,89.04337149999998" fill="none" stroke="rgb(0,178,178)" stroke-width="0.1"/>
 </g>
 <g id="layerA-GLAZ-MULN" inkscape:groupmode="layer" inkscape:label="A-GLAZ-MULN">
  <path d="M 35.3953954573924,0.0 L 57.323249000000004,75.11037149999999" fill="none" stroke="rgb(178,0,0)" stroke-width="0.1"/>
  <path d="M 80.28424899999999,87.14537149999995 L 100.0,80.5857085811511" fill="none" stroke="rgb(178,0,0)" stroke-width="0.1"/>
  <path d="M 57.323249000000004,75.11037149999999 A 18.0,18.0 0.0 0,0 80.28424899999999,87.14537149999995" fill="none" stroke="rgb(178,0,0)" stroke-width="0.1"/>
  <path d="M 62.614249,83.4993715 L 61.454249000000004,84.74237149999993" fill="none" stroke="rgb(178,0,0)" stroke-width="0.1"/>
  <path d="M 61.454249000000004,84.74237149999993 L 60.869248999999996,84.1963715" fill="none" stroke="rgb(178,0,0)" stroke-width="0.1"/>
  <path d="M 60.869248999999996,84.1963715 L 62.02924899999999,82.95337149999995" fill="none" stroke="rgb(178,0,0)" stroke-width="0.1"/>
  <path d="M 62.02924899999999,82.95337149999995 L 62.614249,83.4993715" fill="none" stroke="rgb(178,0,0)" stroke-width="0.1"/>
  <path d="M 60.799249,85.2253715 L 61.14024899999998,84.85937150000001" fill="none" stroke="rgb(178,0,0)" stroke-width="0.1"/>
  <path d="M 61.14024899999998,84.85937150000001 L 60.774249,84.5183715" fill="none" stroke="rgb(178,0,0)" stroke-width="0.1"/>
  <path d="M 60.774249,84.5183715 L 60.43324899999999,84.88437149999999" fill="none" stroke="rgb(178,0,0)" stroke-width="0.1"/>
  <path d="M 60.43324899999999,84.88437149999999 L 60.799249,85.2253715" fill="none" stroke="rgb(178,0,0)" stroke-width="0.1"/>
  <path d="M 71.155249,87.73737149999994 L 70.793249,89.3983715" fill="none" stroke="rgb(178,0,0)" stroke-width="0.1"/>
  <path d="M 70.793249,89.3983715 L 70.012249,89.22737149999995" fill="none" stroke="rgb(178,0,0)" stroke-width="0.1"/>
  <path d="M 70.012249,89.22737149999995 L 70.37424899999999,87.5663715" fill="none" stroke="rgb(178,0,0)" stroke-width="0.1"/>
  <path d="M 70.37424899999999,87.5663715 L 71.155249,87.73737149999994" fill="none" stroke="rgb(178,0,0)" stroke-width="0.1"/>
  <path d="M 70.476249,90.1483715 L 70.583249,89.65937149999996" fill="none" stroke="rgb(178,0,0)" stroke-width="0.1"/>
  <path d="M 70.583249,89.65937149999996 L 70.09424899999999,89.55237149999999" fill="none" stroke="rgb(178,0,0)" stroke-width="0.1"/>
  <path d="M 70.09424899999999,89.55237149999999 L 69.988249,90.04137150000003" fill="none" stroke="rgb(178,0,0)" stroke-width="0.1"/>
  <path d="M 69.988249,90.04137150000003 L 70.476249,90.1483715" fill="none" stroke="rgb(178,0,0)" stroke-width="0.1"/>
  <path d="M 48.188248999999985,43.82037150000002 L 46.55624899999998,44.29637150000002" fill="none" stroke="rgb(178,0,0)" stroke-width="0.1"/>
  <path d="M 46.55624899999998,44.29637150000002 L 46.33224899999999,43.52837149999999" fill="none" stroke="rgb(178,0,0)" stroke-width="0.1"/>
  <path d="M 46.33224899999999,43.52837149999999 L 47.964248999999995,43.05237149999999" fill="none" stroke="rgb(178,0,0)" stroke-width="0.1"/>
  <path d="M 47.964248999999995,43.05237149999999 L 48.188248999999985,43.82037150000002" fill="none" stroke="rgb(178,0,0)" stroke-width="0.1"/>
  <path d="M 45.746249000000006,44.37737150000004 L 46.226248999999996,44.23637149999996" fill="none" stroke="rgb(178,0,0)" stroke-width="0.1"/>
  <path d="M 46.226248999999996,44.23637149999996 L 46.08624899999998,43.75737150000003" fill="none" stroke="rgb(178,0,0)" stroke-width="0.1"/>
  <path d="M 46.08624899999998,43.75737150000003 L 45.60624899999999,43.89737150000002" fill="none" stroke="rgb(178,0,0)" stroke-width="0.1"/>
  <path d="M 45.60624899999999,43.89737150000002 L 45.746249000000006,44.37737150000004" fill="none" stroke="rgb(178,0,0)" stroke-width="0.1"/>
  <path d="M 51.99824899999999,56.87137149999995 L 51.718248999999986,55.91137150000003" fill="none" stroke="rgb(178,0,0)" stroke-width="0.1"/>
  <path d="M 51.718248999999986,55.91137150000003 L 49.31824899999998,56.61237149999994" fill="none" stroke="rgb(178,0,0)" stroke-width="0.1"/>
  <path d="M 49.31824899999998,56.61237149999994 L 49.59824899999998,57.572371499999974" fill="none" stroke="rgb(178,0,0)" stroke-width="0.1"/>
  <path d="M 49.59824899999998,57.572371499999974 L 51.99824899999999,56.87137149999995" fill="none" stroke="rgb(178,0,0)" stroke-width="0.1"/>
  <path d="M 57.323249000000004,75.11037149999999 L 57.042249,74.15037149999995" fill="none" stroke="rgb(178,0,0)" stroke-width="0.1"/>
  <path d="M 57.042249,74.15037149999995 L 54.643249,74.8503715" fill="none" stroke="rgb(178,0,0)" stroke-width="0.1"/>
  <path d="M 54.643249,74.8503715 L 54.923249,75.81037150000003" fill="none" stroke="rgb(178,0,0)" stroke-width="0.1"/>
  <path d="M 54.923249,75.81037150000003 L 57.323249000000004,75.11037149999999" fill="none" stroke="rgb(178,0,0)" stroke-width="0.1"/>
  <path d="M 39.89024899999998,15.396371499999987 L 39.609249000000005,14.436371500000007" fill="none" stroke="rgb(178,0,0)" stroke-width="0.1"/>
  <path d="M 39.609249000000005,14.436371500000007 L 37.210249000000005,15.137371499999972" fill="none" stroke="rgb(178,0,0)" stroke-width="0.1"/>
  <path d="M 37.210249000000005,15.137371499999972 L 37.490249000000006,16.09737150000001" fill="none" stroke="rgb(178,0,0)" stroke-width="0.1"/>
  <path d="M 37.490249000000006,16.09737150000001 L 39.89024899999998,15.396371499999987" fill="none" stroke="rgb(178,0,0)" stroke-width="0.1"/>
  <path d="M 45.214248999999995,33.63537149999996 L 44.934248999999994,32.67537150000004" fill="none" stroke="rgb(178,0,0)" stroke-width="0.1"/>
  <path d="M 44.934248999999994,32.67537150000004 L 42.53424899999999,33.37537149999997" fill="none" stroke="rgb(178,0,0)" stroke-width="0.1"/>
  <path d="M 42.53424899999999,33.37537149999997 L 42.81424899999999,34.33537150000001" fill="none" stroke="rgb(178,0,0)" stroke-width="0.1"/>
  <path d="M 42.81424899999999,34.33537150000001 L 45.214248999999995,33.63537149999996" fill="none" stroke="rgb(178,0,0)" stroke-width="0.1"/>
  <path d="M 35.85424899999998,1.5733715000000075 L 34.222249000000005,2.0493715000000066" fill="none" stroke="rgb(178,0,0)" stroke-width="0.1"/>
  <path d="M 34.222249000000005,2.0493715000000066 L 34.447249,2.817371499999979" fill="none" stroke="rgb(178,0,0)" stroke-width="0.1"/>
  <path d="M 34.447249,2.817371499999979 L 36.078249,2.3413714999999797" fill="none" stroke="rgb(178,0,0)" stroke-width="0.1"/>
  <path d="M 36.078249,2.3413714999999797 L 35.85424899999998,1.5733715000000075" fill="none" stroke="rgb(178,0,0)" stroke-width="0.1"/>
  <path d="M 33.496249000000006,2.418371499999978 L 33.976248999999996,2.2773714999999584" fill="none" stroke="rgb(178,0,0)" stroke-width="0.1"/>
  <path d="M 33.976248999999996,2.2773714999999584 L 34.11724899999999,2.7573714999999765" fill="none" stroke="rgb(178,0,0)" stroke-width="0.1"/>
  <path d="M 34.11724899999999,2.7573714999999765 L 33.637249,2.898371499999996" fill="none" stroke="rgb(178,0,0)" stroke-width="0.1"/>
  <path d="M 33.637249,2.898371499999996 L 33.496249000000006,2.418371499999978" fill="none" stroke="rgb(178,0,0)" stroke-width="0.1"/>
  <path d="M 80.66324899999998,87.01937149999998 L 81.20024899999999,88.63237150000003" fill="none" stroke="rgb(178,0,0)" stroke-width="0.1"/>
  <path d="M 81.20024899999999,88.63237150000003 L 80.441249,88.88437149999999" fill="none" stroke="rgb(178,0,0)" stroke-width="0.1"/>
  <path d="M 80.441249,88.88437149999999 L 79.904249,87.27137149999993" fill="none" stroke="rgb(178,0,0)" stroke-width="0.1"/>
  <path d="M 79.904249,87.27137149999993 L 80.66324899999998,87.01937149999998" fill="none" stroke="rgb(178,0,0)" stroke-width="0.1"/>
  <path d="M 81.310249,89.43837149999996 L 81.15224899999998,88.96437150000003" fill="none" stroke="rgb(178,0,0)" stroke-width="0.1"/>
  <path d="M 81.15224899999998,88.96437150000003 L 80.678249,89.12237149999993" fill="none" stroke="rgb(178,0,0)" stroke-width="0.1"/>
  <path d="M 80.678249,89.12237149999993 L 80.83624899999998,89.59637149999998" fill="none" stroke="rgb(178,0,0)" stroke-width="0.1"/>
  <path d="M 80.83624899999998,89.59637149999998 L 81.310249,89.43837149999996" fill="none" stroke="rgb(178,0,0)" stroke-width="0.1"/>
  <path d="M 89.77224899999999,83.98837150000003 L 90.721249,83.6723715" fill="none" stroke="rgb(178,0,0)" stroke-width="0.1"/>
  <path d="M 90.721249,83.6723715 L 91.51024899999999,86.04537149999993" fill="none" stroke="rgb(178,0,0)" stroke-width="0.1"/>
  <path d="M 91.51024899999999,86.04537149999993 L 90.56224900000001,86.36037149999999" fill="none" stroke="rgb(178,0,0)" stroke-width="0.1"/>
  <path d="M 90.56224900000001,86.36037149999999 L 89.77224899999999,83.98837150000003" fill="none" stroke="rgb(178,0,0)" stroke-width="0.1"/>
 </g>
 <g id="layerA-HVAC-SDFF" inkscape:groupmode="layer" inkscape:label="A-HVAC-SDFF">
  <path d="M 49.989249,26.048371499999973 L 42.726248999999996,17.229371499999957" fill="none" stroke="rgb(134,134,134)" stroke-width="0.1"/>
  <path d="M 45.66924899999998,27.30937149999994 L 47.04624899999999,15.96837149999999" fill="none" stroke="rgb(134,134,134)" stroke-width="0.1"/>
  <path d="M 49.989249,26.048371499999973 L 45.66924899999998,27.30937149999994" fill="none" stroke="rgb(134,134,134)" stroke-width="0.1"/>
  <path d="M 45.66924899999998,27.30937149999994 L 42.726248999999996,17.229371499999957" fill="none" stroke="rgb(134,134,134)" stroke-width="0.1"/>
  <path d="M 42.726248999999996,17.229371499999957 L 47.04624899999999,15.96837149999999" fill="none" stroke="rgb(134,134,134)" stroke-width="0.1"/>
  <path d="M 47.04624899999999,15.96837149999999 L 49.989249,26.048371499999973" fill="none" stroke="rgb(134,134,134)" stroke-width="0.1"/>
 </g>
 <g id="layerA-内部尺寸" inkscape:groupmode="layer" inkscape:label="A-内部尺寸">
  <path d="M 100.0,4.93279142126346 L 99.38824899999997,5.1113714999999615" fill="none" stroke="rgb(0,178,0)" stroke-width="0.1"/>
 </g>
 <g id="layerA-散水、排水沟" inkscape:groupmode="layer" inkscape:label="A-散水、排水沟">
  <path d="M 3.098699741613956,0.0 L 32.29267909610542,99.99999999999994" fill="none" stroke="rgb(107,53,93)" stroke-width="0.1"/>
  <path d="M 6.224292302150474,0.0 L 35.41821258825465,99.99999999999994" fill="none" stroke="rgb(107,53,93)" stroke-width="0.1"/>
 </g>
 <g id="layerA-洞口" inkscape:groupmode="layer" inkscape:label="A-洞口">
  <path d="M 100.0,32.18806639574592 L 99.67424899999997,31.072371499999974" fill="none" stroke="rgb(107,53,93)" stroke-width="0.1"/>
  <path d="M 99.67424899999997,31.072371499999974 L 100.0,30.977320739541767" fill="none" stroke="rgb(107,53,93)" stroke-width="0.1"/>
 </g>
 <g id="layerA-空调板投影线" inkscape:groupmode="layer" inkscape:label="A-空调板投影线">
  <path d="M 47.958248999999995,43.041371500000025 L 56.596249,40.52037149999995" fill="none" stroke="rgb(178,88,0)" stroke-width="0.1"/>
  <path d="M 56.596249,40.52037149999995 L 44.7668025230912,0.0" fill="none" stroke="rgb(178,88,0)" stroke-width="0.1"/>
 </g>
 <g id="layerA-虚线轮廓" inkscape:groupmode="layer" inkscape:label="A-虚线轮廓">
  <path d="M 62.50367115486378,99.99999999999994 L 52.428248999999994,65.4893715" fill="none" stroke="rgb(0,178,178)" stroke-width="0.1"/>
 </g>
 <g id="layerCOLUMN" inkscape:groupmode="layer" inkscape:label="COLUMN">
  <path d="M 60.99824899999999,41.31937149999993 L 59.316249,35.56037150000003" fill="none" stroke="rgb(134,134,134)" stroke-width="0.1"/>
  <path d="M 59.316249,35.56037150000003 L 53.55624899999998,37.24137149999996" fill="none" stroke="rgb(134,134,134)" stroke-width="0.1"/>
  <path d="M 53.55624899999998,37.24137149999996 L 55.238248999999996,43.00137149999995" fill="none" stroke="rgb(134,134,134)" stroke-width="0.1"/>
  <path d="M 55.238248999999996,43.00137149999995 L 60.99824899999999,41.31937149999993" fill="none" stroke="rgb(134,134,134)" stroke-width="0.1"/>
  <path d="M 100.0,22.64354824931621 L 98.394249,23.112371499999938" fill="none" stroke="rgb(134,134,134)" stroke-width="0.1"/>
  <path d="M 98.394249,23.112371499999938 L 100.0,28.61289232069572" fill="none" stroke="rgb(134,134,134)" stroke-width="0.1"/>
  <path d="M 71.227249,76.35837150000003 L 65.46724899999998,78.04037149999994" fill="none" stroke="rgb(134,134,134)" stroke-width="0.1"/>
  <path d="M 65.46724899999998,78.04037149999994 L 67.149249,83.79937149999995" fill="none" stroke="rgb(134,134,134)" stroke-width="0.1"/>
  <path d="M 67.149249,83.79937149999995 L 72.90824899999998,82.11837150000002" fill="none" stroke="rgb(134,134,134)" stroke-width="0.1"/>
  <path d="M 72.90824899999998,82.11837150000002 L 71.227249,76.35837150000003" fill="none" stroke="rgb(134,134,134)" stroke-width="0.1"/>
 </g>
 <g id="layerDIM_SYMB" inkscape:groupmode="layer" inkscape:label="DIM_SYMB">
  <path d="M 39.73524899999998,84.46237149999996 L 41.12224899999998,84.05737149999999" fill="none" stroke="rgb(0,178,0)" stroke-width="0.1"/>
  <path d="M 26.697249,39.80337149999997 L 28.085249000000005,39.398371499999996" fill="none" stroke="rgb(0,178,0)" stroke-width="0.1"/>
  <path d="M 21.66324899999998,58.14737150000002 L 24.06224899999998,66.36637149999996" fill="none" stroke="rgb(0,178,0)" stroke-width="0.1"/>
  <path d="M 99.92624899999998,41.88937149999998 L 68.561249,51.04637150000002" fill="none" stroke="rgb(0,0,0)" stroke-width="0.1"/>
  <path d="M 68.561249,51.04637150000002 L 74.14224899999999,54.10537149999999" fill="none" stroke="rgb(0,0,0)" stroke-width="0.1"/>
  <path d="M 74.14224899999999,54.10537149999999 L 77.20024899999999,48.52437149999997" fill="none" stroke="rgb(0,0,0)" stroke-width="0.1"/>
  <path d="M 92.50524899999999,3.185371499999974 L 61.14124899999999,12.34137149999998" fill="none" stroke="rgb(0,0,0)" stroke-width="0.1"/>
  <path d="M 61.14124899999999,12.34137149999998 L 66.721249,15.400371500000006" fill="none" stroke="rgb(0,0,0)" stroke-width="0.1"/>
  <path d="M 66.721249,15.400371500000006 L 69.780249,9.819371499999988" fill="none" stroke="rgb(0,0,0)" stroke-width="0.1"/>
  <path d="M 39.482248999999996,83.59837149999993 L 39.98724899999999,85.3263715" fill="none" stroke="rgb(0,178,0)" stroke-width="0.1"/>
  <path d="M 39.98724899999999,85.3263715 L 35.41524899999999,85.72337149999993" fill="none" stroke="rgb(0,178,0)" stroke-width="0.1"/>
  <path d="M 35.41524899999999,85.72337149999993 L 39.482248999999996,83.59837149999993" fill="none" stroke="rgb(0,178,0)" stroke-width="0.1"/>
  <path d="M 26.44524899999999,38.939371499999936 L 26.94924899999998,40.6673715" fill="none" stroke="rgb(0,178,0)" stroke-width="0.1"/>
  <path d="M 26.94924899999998,40.6673715 L 22.377249000000006,41.064371499999936" fill="none" stroke="rgb(0,178,0)" stroke-width="0.1"/>
  <path d="M 22.377249000000006,41.064371499999936 L 26.44524899999999,38.939371499999936" fill="none" stroke="rgb(0,178,0)" stroke-width="0.1"/>
  <path d="M 10.86608055289662,0.0 L 10.401248999999979,0.04037149999999201" fill="none" stroke="rgb(0,178,0)" stroke-width="0.1"/>
  <path d="M 10.401248999999979,0.04037149999999201 L 10.478515301411733,0.0" fill="none" stroke="rgb(0,178,0)" stroke-width="0.1"/>
  <path d="M 24.926248999999984,66.1143715 L 25.32424899999998,70.6863715" fill="none" stroke="rgb(0,178,0)" stroke-width="0.1"/>
  <path d="M 25.32424899999998,70.6863715 L 23.198249000000004,66.61837150000002" fill="none" stroke="rgb(0,178,0)" stroke-width="0.1"/>
  <path d="M 23.198249000000004,66.61837150000002 L 24.926248999999984,66.1143715" fill="none" stroke="rgb(0,178,0)" stroke-width="0.1"/>
  <text fill="rgb(0,178,0)" font-family="Noto Sans CJK SC" font-size="2" transform="rotate(-16.2745,73.482249,33.67737149999999)" x="73.482249" y="33.67737149999999">
   商铺
  </text>
  <text fill="rgb(0,0,0)" font-family="Noto Sans CJK SC" font-size="2" transform="rotate(-16.2745,59.23524899999998,53.003371500000014)" x="59.23524899999998" y="53.003371500000014">
   6.000(308.000)
  </text>
  <text fill="rgb(0,0,0)" font-family="Noto Sans CJK SC" font-size="2" transform="rotate(-16.2745,51.81424899999999,14.298371499999973)" x="51.81424899999999" y="14.298371499999973">
   6.000(308.000)
  </text>
  <text fill="rgb(0,0,0)" font-family="Noto Sans CJK SC" font-size="2" transform="rotate(-16.2746,45.054249,97.57837149999995)" x="45.054249" y="97.57837149999995">
   2%
  </text>
  <text fill="rgb(0,0,0)" font-family="Noto Sans CJK SC" font-size="2" transform="rotate(-16.2746,35.220248999999995,63.8933715)" x="35.220248999999995" y="63.8933715">
   2%
  </text>
  <text fill="rgb(0,0,0)" font-family="Noto Sans CJK SC" font-size="2" transform="rotate(-16.2746,22.18324899999999,19.235371499999985)" x="22.18324899999999" y="19.235371499999985">
   2%
  </text>
  <text fill="rgb(0,0,0)" font-family="Noto Sans CJK SC" font-size="2" transform="rotate(-16.2746,7.623248999999987,40.35337150000004)" x="7.623248999999987" y="40.35337150000004">
   0.3%
  </text>
 </g>
 <g id="layerPUB_DIM" inkscape:groupmode="layer" inkscape:label="PUB_DIM">
  <path d="M 55.28798298257118,99.99999999999994 L 62.127249000000006,89.41337149999998" fill="none" stroke="rgb(26,107,0)" stroke-width="0.1"/>
  <path d="M 62.37924899999999,89.5763715 L 63.75524899999999,86.8933715" fill="none" stroke="rgb(26,107,0)" stroke-width="0.1"/>
  <path d="M 63.75524899999999,86.8933715 L 61.875249,89.25037149999997" fill="none" stroke="rgb(26,107,0)" stroke-width="0.1"/>
  <path d="M 61.875249,89.25037149999997 L 62.37924899999999,89.5763715" fill="none" stroke="rgb(26,107,0)" stroke-width="0.1"/>
  <text fill="rgb(0,0,0)" font-family="Noto Sans CJK SC" font-size="2" transform="rotate(-57.1369,14.654248999999993,75.82337149999995)" x="14.654248999999993" y="75.82337149999995">
   R2000
  </text>
 </g>
 <g id="layerPUB_HATCH" inkscape:groupmode="layer" inkscape:label="PUB_HATCH">
  <path d="M 59.316249,35.56037150000003 L 53.55624899999998,37.24137149999996" fill="none" stroke="rgb(89,89,89)" stroke-width="0.1"/>
  <path d="M 53.55624899999998,37.24137149999996 L 55.238248999999996,43.00137149999995" fill="none" stroke="rgb(89,89,89)" stroke-width="0.1"/>
  <path d="M 55.238248999999996,43.00137149999995 L 60.99824899999999,41.31937149999993" fill="none" stroke="rgb(89,89,89)" stroke-width="0.1"/>
  <path d="M 60.99824899999999,41.31937149999993 L 59.316249,35.56037150000003" fill="none" stroke="rgb(89,89,89)" stroke-width="0.1"/>
  <path d="M 100.0,22.64354824931621 L 98.394249,23.112371499999938" fill="none" stroke="rgb(89,89,89)" stroke-width="0.1"/>
  <path d="M 98.394249,23.112371499999938 L 100.0,28.61289232069572" fill="none" stroke="rgb(89,89,89)" stroke-width="0.1"/>
  <path d="M 65.46724899999998,78.04037149999994 L 67.149249,83.79937149999995" fill="none" stroke="rgb(89,89,89)" stroke-width="0.1"/>
  <path d="M 67.149249,83.79937149999995 L 72.90824899999998,82.11837150000002" fill="none" stroke="rgb(89,89,89)" stroke-width="0.1"/>
  <path d="M 72.90824899999998,82.11837150000002 L 71.227249,76.35837150000003" fill="none" stroke="rgb(89,89,89)" stroke-width="0.1"/>
  <path d="M 71.227249,76.35837150000003 L 65.46724899999998,78.04037149999994" fill="none" stroke="rgb(89,89,89)" stroke-width="0.1"/>
 </g>
 <g id="layerPUB_TEXT" inkscape:groupmode="layer" inkscape:label="PUB_TEXT">
  <text fill="rgb(0,178,0)" font-family="Noto Sans CJK SC" font-size="2" transform="rotate(-16.2746,98.08824900000002,26.339371500000027)" x="98.08824900000002" y="26.339371500000027">
   送风井
  </text>
 </g>
 <g id="layerSPACE" inkscape:groupmode="layer" inkscape:label="SPACE">
  <text fill="rgb(0,0,0)" font-family="Noto Sans CJK SC" font-size="2" transform="rotate(-16.2746,83.197249,16.084371499999975)" x="83.197249" y="16.084371499999975">
   房间
  </text>
  <text fill="rgb(0,0,0)" font-family="Noto Sans CJK SC" font-size="2" transform="rotate(-16.2746,76.74124899999998,24.454371500000036)" x="76.74124899999998" y="24.454371500000036">
   29.55m%%172
  </text>
  <text fill="rgb(0,0,0)" font-family="Noto Sans CJK SC" font-size="2" transform="rotate(-16.2746,96.990249,70.12337150000002)" x="96.990249" y="70.12337150000002">
   房间
  </text>
  <text fill="rgb(0,0,0)" font-family="Noto Sans CJK SC" font-size="2" transform="rotate(-16.2746,90.53424899999999,78.49337150000002)" x="90.53424899999999" y="78.49337150000002">
   28.43m%%172
  </text>
 </g>
 <g id="layerWALL" inkscape:groupmode="layer" inkscape:label="WALL">
  <path d="M 45.51961815398849,0.0 L 36.18724899999998,2.724371499999961" fill="none" instance-id="-1" semantic-id="1" stroke="rgb(0,0,0)" stroke-width="0.1"/>
  <path d="M 38.382505728645356,0.0 L 35.627249000000006,0.804371500000002" fill="none" instance-id="-1" semantic-id="1" stroke="rgb(0,0,0)" stroke-width="0.1"/>
  <path d="M 36.18724899999998,2.724371499999961 L 35.627249000000006,0.804371500000002" fill="none" instance-id="-1" semantic-id="1" stroke="rgb(0,0,0)" stroke-width="0.1"/>
  <path d="M 97.99224900000002,25.31037150000003 L 100.0,32.187168847870396" fill="none" instance-id="-1" semantic-id="1" stroke="rgb(0,0,0)" stroke-width="0.1"/>
  <path d="M 96.072249,25.871371499999952 L 100.0,39.32479727290155" fill="none" instance-id="-1" semantic-id="1" stroke="rgb(0,0,0)" stroke-width="0.1"/>
  <path d="M 96.072249,25.871371499999952 L 53.837248999999986,38.20137149999999" fill="none" instance-id="-1" semantic-id="1" stroke="rgb(0,0,0)" stroke-width="0.1"/>
  <path d="M 96.47224899999998,23.67137150000002 L 53.27624899999998,36.281371500000034" fill="none" instance-id="-1" semantic-id="1" stroke="rgb(0,0,0)" stroke-width="0.1"/>
  <path d="M 53.837248999999986,38.20137149999999 L 53.27624899999998,36.281371500000034" fill="none" instance-id="-1" semantic-id="1" stroke="rgb(0,0,0)" stroke-width="0.1"/>
  <path d="M 55.238248999999996,43.00137149999995 L 48.518249,44.96337149999994" fill="none" instance-id="-1" semantic-id="1" stroke="rgb(0,0,0)" stroke-width="0.1"/>
  <path d="M 54.67724899999999,41.08137149999999 L 47.958248999999995,43.04337149999998" fill="none" instance-id="-1" semantic-id="1" stroke="rgb(0,0,0)" stroke-width="0.1"/>
  <path d="M 55.238248999999996,43.00137149999995 L 54.67724899999999,41.08137149999999" fill="none" instance-id="-1" semantic-id="1" stroke="rgb(0,0,0)" stroke-width="0.1"/>
  <path d="M 48.518249,44.96337149999994 L 47.958248999999995,43.04337149999998" fill="none" instance-id="-1" semantic-id="1" stroke="rgb(0,0,0)" stroke-width="0.1"/>
  <path d="M 100.0,24.724428890451406 L 97.99224900000002,25.31037150000003" fill="none" instance-id="-1" semantic-id="1" stroke="rgb(0,0,0)" stroke-width="0.1"/>
  <path d="M 100.0,22.6413913278422 L 96.47224899999998,23.67137150000002" fill="none" instance-id="-1" semantic-id="1" stroke="rgb(0,0,0)" stroke-width="0.1"/>
 </g>
 <g id="layer竖向构件(板上)" inkscape:groupmode="layer" inkscape:label="竖向构件(板上)">
  <text fill="rgb(0,0,0)" font-family="Noto Sans CJK SC" font-size="2" transform="rotate(-16.2746,54.817249000000004,37.929371499999945)" x="54.817249000000004" y="37.929371499999945">
   L2
  </text>
 </g>
 <g id="layer轴网$0$AXIS" inkscape:groupmode="layer" inkscape:label="轴网$0$AXIS">
  <path d="M 0.0,56.00025143412739 L 5.43924899999999,54.412371500000006" fill="none" stroke="rgb(0,178,0)" stroke-width="0.1"/>
  <circle cx="11.19924899999998" cy="52.73037149999999" fill="none" r="6" stroke="rgb(0,178,0)" stroke-width="0.1"/>
  <text fill="rgb(0,0,0)" font-family="Noto Sans CJK SC" font-size="2" transform="rotate(-0.0,4.532248999999979,54.48037149999999)" x="4.532248999999979" y="54.48037149999999">
   S3-B
  </text>
 </g>
 <g id="layer轴网$0$DOTE" inkscape:groupmode="layer" inkscape:label="轴网$0$DOTE">
  <path d="M 0.0,56.00072766790589 L 100.0,26.806723938467314" fill="none" stroke="rgb(92,92,92)" stroke-width="0.1"/>
  <path d="M 97.89551942124143,0.0 L 100.0,7.208647193436946" fill="none" stroke="rgb(92,92,92)" stroke-width="0.1"/>
  <path d="M 10.388958641101055,0.0 L 39.58281299278843,99.99999999999994" fill="none" stroke="rgb(92,92,92)" stroke-width="0.1"/>
 </g>
 <g id="layer销售商业编号" inkscape:groupmode="layer" inkscape:label="销售商业编号">
  <text fill="rgb(107,0,26)" font-family="Noto Sans CJK SC" font-size="2" transform="rotate(-16.2746,67.363249,6.0383714999999825)" x="67.363249" y="6.0383714999999825">
   F109-L2-18
  </text>
  <text fill="rgb(107,0,26)" font-family="Noto Sans CJK SC" font-size="2" transform="rotate(-16.2746,70.86824899999999,46.023371499999996)" x="70.86824899999999" y="46.023371499999996">
   F109-L2-19
  </text>
 </g>
</svg>