<?xml version="1.0" encoding="utf-8"?>
<svg style="background-color: #000;" version="1.1" viewBox="0 0 100.0 100.0" xmlns="http://www.w3.org/2000/svg" xmlns:inkscape="http://www.inkscape.org/namespaces/inkscape">
 <g id="layerA-ANNO-OVHD" inkscape:groupmode="layer" inkscape:label="A-ANNO-OVHD">
  <path d="M 0.0,74.47356520594349 L 22.09995799999996,68.02173049999999" fill="none" stroke="rgb(89,89,89)" stroke-width="0.1"/>
  <path d="M 22.09995799999996,68.02173049999999 L 100.0,45.27927810912399" fill="none" stroke="rgb(89,89,89)" stroke-width="0.1"/>
 </g>
 <g id="layerA-DOOR" inkscape:groupmode="layer" inkscape:label="A-DOOR">
  <path d="M 51.50895799999995,55.26873049999995 L 54.031957999999975,63.90773049999996" fill="none" instance-id="1" semantic-id="4" stroke="rgb(0,178,0)" stroke-width="0.1"/>
  <path d="M 51.940957999999966,55.14273049999997 L 54.46395799999999,63.78173049999998" fill="none" instance-id="1" semantic-id="4" stroke="rgb(0,178,0)" stroke-width="0.1"/>
  <path d="M 51.50895799999995,55.26873049999995 L 51.940957999999966,55.14273049999997" fill="none" instance-id="1" semantic-id="4" stroke="rgb(0,178,0)" stroke-width="0.1"/>
  <path d="M 54.031957999999975,63.90773049999996 L 54.46395799999999,63.78173049999998" fill="none" instance-id="1" semantic-id="4" stroke="rgb(0,178,0)" stroke-width="0.1"/>
  <path d="M 68.787958,50.224730499999964 L 71.309958,58.863730499999974" fill="none" instance-id="1" semantic-id="4" stroke="rgb(0,178,0)" stroke-width="0.1"/>
  <path d="M 68.35595799999999,50.35073049999994 L 70.87795799999998,58.98973049999995" fill="none" instance-id="1" semantic-id="4" stroke="rgb(0,178,0)" stroke-width="0.1"/>
  <path d="M 68.787958,50.224730499999964 L 68.35595799999999,50.35073049999994" fill="none" instance-id="1" semantic-id="4" stroke="rgb(0,178,0)" stroke-width="0.1"/>
  <path d="M 71.309958,58.863730499999974 L 70.87795799999998,58.98973049999995" fill="none" instance-id="1" semantic-id="4" stroke="rgb(0,178,0)" stroke-width="0.1"/>
  <path d="M 81.26695799999999,46.581730499999935 L 83.78995799999996,55.220730499999945" fill="none" instance-id="2" semantic-id="4" stroke="rgb(0,178,0)" stroke-width="0.1"/>
  <path d="M 81.698958,46.45473049999998 L 84.220958,55.09473049999997" fill="none" instance-id="2" semantic-id="4" stroke="rgb(0,178,0)" stroke-width="0.1"/>
  <path d="M 81.26695799999999,46.581730499999935 L 81.698958,46.45473049999998" fill="none" instance-id="2" semantic-id="4" stroke="rgb(0,178,0)" stroke-width="0.1"/>
  <path d="M 83.78995799999996,55.220730499999945 L 84.220958,55.09473049999997" fill="none" instance-id="2" semantic-id="4" stroke="rgb(0,178,0)" stroke-width="0.1"/>
  <path d="M 98.54595799999998,41.536730499999976 L 100.0,46.51806391792229" fill="none" instance-id="2" semantic-id="4" stroke="rgb(0,178,0)" stroke-width="0.1"/>
  <path d="M 98.11395799999997,41.66273049999995 L 100.0,48.124032197065844" fill="none" instance-id="2" semantic-id="4" stroke="rgb(0,178,0)" stroke-width="0.1"/>
  <path d="M 98.54595799999998,41.536730499999976 L 98.11395799999997,41.66273049999995" fill="none" instance-id="2" semantic-id="4" stroke="rgb(0,178,0)" stroke-width="0.1"/>
  <path d="M 54.46395799999999,63.78173049999998 A 9.02044,9.02044 0.0 0,0 60.14895799999999,52.74673050000001" fill="none" instance-id="1" semantic-id="4" stroke="rgb(0,178,0)" stroke-width="0.1"/>
  <path d="M 60.14895799999999,52.74673050000001 A 9.02044,9.02044 0.0 0,0 70.87795799999998,58.98973049999995" fill="none" instance-id="1" semantic-id="4" stroke="rgb(0,178,0)" stroke-width="0.1"/>
  <path d="M 84.220958,55.09473049999997 A 9.02044,9.02044 0.0 0,0 89.90695799999997,44.058730500000024" fill="none" instance-id="2" semantic-id="4" stroke="rgb(0,178,0)" stroke-width="0.1"/>
  <path d="M 89.90695799999997,44.058730500000024 L 90.06306210726848,44.54107923083939" fill="none" instance-id="2" semantic-id="4" stroke="rgb(0,178,0)" stroke-width="0.1"/>
  <path d="M 90.06306210726848,44.54107923083939 L 90.24601862942416,45.013896004494086" fill="none" instance-id="2" semantic-id="4" stroke="rgb(0,178,0)" stroke-width="0.1"/>
  <path d="M 90.24601862942416,45.013896004494086 L 90.45524963781725,45.475687272899336" fill="none" instance-id="2" semantic-id="4" stroke="rgb(0,178,0)" stroke-width="0.1"/>
  <path d="M 90.45524963781725,45.475687272899336 L 90.69009420714838,45.9249943156932" fill="none" instance-id="2" semantic-id="4" stroke="rgb(0,178,0)" stroke-width="0.1"/>
  <path d="M 90.69009420714838,45.9249943156932 L 90.9498105032198,46.36039784806678" fill="none" instance-id="2" semantic-id="4" stroke="rgb(0,178,0)" stroke-width="0.1"/>
  <path d="M 90.9498105032198,46.36039784806678 L 91.23357812626352,46.780522504044825" fill="none" instance-id="2" semantic-id="4" stroke="rgb(0,178,0)" stroke-width="0.1"/>
  <path d="M 91.23357812626352,46.780522504044825 L 91.54050070244551,47.18404118103297" fill="none" instance-id="2" semantic-id="4" stroke="rgb(0,178,0)" stroke-width="0.1"/>
  <path d="M 91.54050070244551,47.18404118103297 L 91.8696087153586,47.56967923191087" fill="none" instance-id="2" semantic-id="4" stroke="rgb(0,178,0)" stroke-width="0.1"/>
  <path d="M 91.8696087153586,47.56967923191087 L 92.21986256856047,47.936218491425734" fill="none" instance-id="2" semantic-id="4" stroke="rgb(0,178,0)" stroke-width="0.1"/>
  <path d="M 92.21986256856047,47.936218491425734 L 92.59015586948271,48.282501124170494" fill="none" instance-id="2" semantic-id="4" stroke="rgb(0,178,0)" stroke-width="0.1"/>
  <path d="M 92.59015586948271,48.282501124170494 L 92.9793189243374,48.607433281989074" fill="none" instance-id="2" semantic-id="4" stroke="rgb(0,178,0)" stroke-width="0.1"/>
  <path d="M 92.9793189243374,48.607433281989074 L 93.38612243298178,48.90998855925784" fill="none" instance-id="2" semantic-id="4" stroke="rgb(0,178,0)" stroke-width="0.1"/>
  <path d="M 93.38612243298178,48.90998855925784 L 93.8092813720686,49.18921123512666" fill="none" instance-id="2" semantic-id="4" stroke="rgb(0,178,0)" stroke-width="0.1"/>
  <path d="M 93.8092813720686,49.18921123512666 L 94.24745905421776,49.4442192924796" fill="none" instance-id="2" semantic-id="4" stroke="rgb(0,178,0)" stroke-width="0.1"/>
  <path d="M 94.24745905421776,49.4442192924796 L 94.69927135038466,49.67420720407688" fill="none" instance-id="2" semantic-id="4" stroke="rgb(0,178,0)" stroke-width="0.1"/>
  <path d="M 94.69927135038466,49.67420720407688 L 95.16329106208963,49.87844847707947" fill="none" instance-id="2" semantic-id="4" stroke="rgb(0,178,0)" stroke-width="0.1"/>
  <path d="M 95.16329106208963,49.87844847707947 L 95.63805242969602,50.05629794791662" fill="none" instance-id="2" semantic-id="4" stroke="rgb(0,178,0)" stroke-width="0.1"/>
  <path d="M 95.63805242969602,50.05629794791662 L 96.1220557624963,50.20719382024811" fill="none" instance-id="2" semantic-id="4" stroke="rgb(0,178,0)" stroke-width="0.1"/>
  <path d="M 96.1220557624963,50.20719382024811 L 96.61377217598118,50.330659439584224" fill="none" instance-id="2" semantic-id="4" stroke="rgb(0,178,0)" stroke-width="0.1"/>
  <path d="M 96.61377217598118,50.330659439584224 L 97.11164842132655,50.4263047989557" fill="none" instance-id="2" semantic-id="4" stroke="rgb(0,178,0)" stroke-width="0.1"/>
  <path d="M 97.11164842132655,50.4263047989557 L 97.61411179184319,50.49382777088033" fill="none" instance-id="2" semantic-id="4" stroke="rgb(0,178,0)" stroke-width="0.1"/>
  <path d="M 97.61411179184319,50.49382777088033 L 98.11957509089092,50.533015061732385" fill="none" instance-id="2" semantic-id="4" stroke="rgb(0,178,0)" stroke-width="0.1"/>
  <path d="M 98.11957509089092,50.533015061732385 L 98.62644164556355,50.54374288550059" fill="none" instance-id="2" semantic-id="4" stroke="rgb(0,178,0)" stroke-width="0.1"/>
  <path d="M 98.62644164556355,50.54374288550059 L 99.13311035030824,50.52597735480754" fill="none" instance-id="2" semantic-id="4" stroke="rgb(0,178,0)" stroke-width="0.1"/>
  <path d="M 99.13311035030824,50.52597735480754 L 99.6379807245466,50.47977458795424" fill="none" instance-id="2" semantic-id="4" stroke="rgb(0,178,0)" stroke-width="0.1"/>
 </g>
 <g id="layerA-FLOR-HRAL" inkscape:groupmode="layer" inkscape:label="A-FLOR-HRAL">
  <path d="M 16.933547221906565,100.0 L 55.18195799999995,88.8337305" fill="none" stroke="rgb(0,178,178)" stroke-width="0.1"/>
  <path d="M 68.51695799999999,96.13973049999993 A 10.7499,10.7499 0.0 0,0 55.18195799999995,88.8337305" fill="none" stroke="rgb(0,178,178)" stroke-width="0.1"/>
  <path d="M 68.51695799999999,96.13973049999993 L 69.63695799999999,99.9777305" fill="none" stroke="rgb(0,178,178)" stroke-width="0.1"/>
  <path d="M 15.14937795181271,100.0 L 55.041957999999966,88.35373049999998" fill="none" stroke="rgb(0,178,178)" stroke-width="0.1"/>
  <path d="M 68.99695799999995,95.99873049999997 A 11.2498,11.2498 0.0 0,0 55.041957999999966,88.35373049999998" fill="none" stroke="rgb(0,178,178)" stroke-width="0.1"/>
  <path d="M 68.99695799999995,95.99873049999997 L 70.11695799999995,99.83673049999993" fill="none" stroke="rgb(0,178,178)" stroke-width="0.1"/>
 </g>
 <g id="layerA-FLOR-WDWK" inkscape:groupmode="layer" inkscape:label="A-FLOR-WDWK">
  <path d="M 19.60980112704698,100.0 L 55.39195799999999,89.55373049999992" fill="none" stroke="rgb(178,0,178)" stroke-width="0.1"/>
  <path d="M 67.79695799999996,96.34973049999996 A 10.0,10.0 0.0 0,0 55.39195799999999,89.55373049999992" fill="none" stroke="rgb(178,0,178)" stroke-width="0.1"/>
  <path d="M 67.79695799999996,96.34973049999996 L 68.86217473788429,100.0" fill="none" stroke="rgb(178,0,178)" stroke-width="0.1"/>
  <path d="M 12.472733808119187,100.0 L 54.831957999999986,87.63373049999996" fill="none" stroke="rgb(178,0,178)" stroke-width="0.1"/>
  <path d="M 69.71695799999998,95.78873049999993 A 11.9997,11.9997 0.0 0,0 54.831957999999986,87.63373049999996" fill="none" stroke="rgb(178,0,178)" stroke-width="0.1"/>
  <path d="M 69.71695799999998,95.78873049999993 L 70.83695799999998,99.62673050000001" fill="none" stroke="rgb(178,0,178)" stroke-width="0.1"/>
 </g>
 <g id="layerA-GLAZ" inkscape:groupmode="layer" inkscape:label="A-GLAZ">
  <path d="M 0.0,72.39030617130015 L 1.2179579999999532,72.03473050000002" fill="none" stroke="rgb(0,178,178)" stroke-width="0.1"/>
  <path d="M 21.539957999999956,66.10173049999992 L 100.0,43.195570832393855" fill="none" stroke="rgb(0,178,178)" stroke-width="0.1"/>
  <path d="M 0.0,72.07778447415183 L 1.13395799999995,71.74673050000001" fill="none" stroke="rgb(0,178,178)" stroke-width="0.1"/>
  <path d="M 21.455957999999953,65.81373050000002 L 100.0,42.883374725436965" fill="none" stroke="rgb(0,178,178)" stroke-width="0.1"/>
 </g>
 <g id="layerA-GLAZ-MULN" inkscape:groupmode="layer" inkscape:label="A-GLAZ-MULN">
  <path d="M 0.0,70.30680833363192 L 0.657957999999951,70.11473049999995" fill="none" stroke="rgb(178,0,0)" stroke-width="0.1"/>
  <path d="M 20.978957999999977,64.18173049999996 L 100.0,41.11210972791787" fill="none" stroke="rgb(178,0,0)" stroke-width="0.1"/>
  <path d="M 1.3089579999999614,72.34373049999999 L 0.7479579999999828,70.42373049999992" fill="none" stroke="rgb(178,0,0)" stroke-width="0.1"/>
  <path d="M 21.629957999999988,66.4107305 L 21.069957999999986,64.49073049999993" fill="none" stroke="rgb(178,0,0)" stroke-width="0.1"/>
  <path d="M 40.37395799999996,58.51973049999992 L 40.85095799999999,60.151730499999985" fill="none" stroke="rgb(178,0,0)" stroke-width="0.1"/>
  <path d="M 40.85095799999999,60.151730499999985 L 40.08295799999996,60.37573049999992" fill="none" stroke="rgb(178,0,0)" stroke-width="0.1"/>
  <path d="M 40.08295799999996,60.37573049999992 L 39.60595799999999,58.74373049999997" fill="none" stroke="rgb(178,0,0)" stroke-width="0.1"/>
  <path d="M 39.60595799999999,58.74373049999997 L 40.37395799999996,58.51973049999992" fill="none" stroke="rgb(178,0,0)" stroke-width="0.1"/>
  <path d="M 40.930957999999976,60.96173049999993 L 40.79095799999999,60.481730500000026" fill="none" stroke="rgb(178,0,0)" stroke-width="0.1"/>
  <path d="M 40.79095799999999,60.481730500000026 L 40.31095799999997,60.62173050000001" fill="none" stroke="rgb(178,0,0)" stroke-width="0.1"/>
  <path d="M 40.31095799999997,60.62173050000001 L 40.45095799999996,61.10173049999992" fill="none" stroke="rgb(178,0,0)" stroke-width="0.1"/>
  <path d="M 40.45095799999996,61.10173049999992 L 40.930957999999976,60.96173049999993" fill="none" stroke="rgb(178,0,0)" stroke-width="0.1"/>
  <path d="M 21.74695799999995,63.957730500000025 L 22.223957999999982,65.58973049999997" fill="none" stroke="rgb(178,0,0)" stroke-width="0.1"/>
  <path d="M 22.223957999999982,65.58973049999997 L 21.455957999999953,65.81373050000002" fill="none" stroke="rgb(178,0,0)" stroke-width="0.1"/>
  <path d="M 21.455957999999953,65.81373050000002 L 20.978957999999977,64.18173049999996" fill="none" stroke="rgb(178,0,0)" stroke-width="0.1"/>
  <path d="M 20.978957999999977,64.18173049999996 L 21.74695799999995,63.957730500000025" fill="none" stroke="rgb(178,0,0)" stroke-width="0.1"/>
  <path d="M 22.15995799999996,66.44173049999995 L 22.019957999999974,65.96173049999993" fill="none" stroke="rgb(178,0,0)" stroke-width="0.1"/>
  <path d="M 22.019957999999974,65.96173049999993 L 21.539957999999956,66.10173049999992" fill="none" stroke="rgb(178,0,0)" stroke-width="0.1"/>
  <path d="M 21.539957999999956,66.10173049999992 L 21.679958,66.58173049999994" fill="none" stroke="rgb(178,0,0)" stroke-width="0.1"/>
  <path d="M 21.679958,66.58173049999994 L 22.15995799999996,66.44173049999995" fill="none" stroke="rgb(178,0,0)" stroke-width="0.1"/>
  <path d="M 0.0,70.71601735714296 L 0.3659579999999778,71.97073049999995" fill="none" stroke="rgb(178,0,0)" stroke-width="0.1"/>
  <path d="M 0.3659579999999778,71.97073049999995 L 1.13395799999995,71.74673050000001" fill="none" stroke="rgb(178,0,0)" stroke-width="0.1"/>
  <path d="M 1.13395799999995,71.74673050000001 L 0.657957999999951,70.11473049999995" fill="none" stroke="rgb(178,0,0)" stroke-width="0.1"/>
  <path d="M 0.657957999999951,70.11473049999995 L 0.0,70.30663491666667" fill="none" stroke="rgb(178,0,0)" stroke-width="0.1"/>
  <path d="M 0.8779579999999783,72.65473049999991 L 0.7379579999999919,72.17473050000001" fill="none" stroke="rgb(178,0,0)" stroke-width="0.1"/>
  <path d="M 0.7379579999999919,72.17473050000001 L 1.2179579999999532,72.03473050000002" fill="none" stroke="rgb(178,0,0)" stroke-width="0.1"/>
  <path d="M 1.2179579999999532,72.03473050000002 L 1.3579579999999964,72.51473049999993" fill="none" stroke="rgb(178,0,0)" stroke-width="0.1"/>
  <path d="M 1.3579579999999964,72.51473049999993 L 0.8779579999999783,72.65473049999991" fill="none" stroke="rgb(178,0,0)" stroke-width="0.1"/>
  <path d="M 51.50895799999995,55.26873049999995 L 50.549958000000004,55.54873049999992" fill="none" stroke="rgb(178,0,0)" stroke-width="0.1"/>
  <path d="M 50.549958000000004,55.54873049999992 L 51.24995799999999,57.94873050000001" fill="none" stroke="rgb(178,0,0)" stroke-width="0.1"/>
  <path d="M 51.24995799999999,57.94873050000001 L 52.20995799999997,57.668730499999924" fill="none" stroke="rgb(178,0,0)" stroke-width="0.1"/>
  <path d="M 52.20995799999997,57.668730499999924 L 51.50895799999995,55.26873049999995" fill="none" stroke="rgb(178,0,0)" stroke-width="0.1"/>
  <path d="M 69.74795799999998,49.943730500000015 L 68.787958,50.224730499999964" fill="none" stroke="rgb(178,0,0)" stroke-width="0.1"/>
  <path d="M 68.787958,50.224730499999964 L 69.48895799999997,52.62473049999994" fill="none" stroke="rgb(178,0,0)" stroke-width="0.1"/>
  <path d="M 69.48895799999997,52.62473049999994 L 70.448958,52.34373049999999" fill="none" stroke="rgb(178,0,0)" stroke-width="0.1"/>
  <path d="M 70.448958,52.34373049999999 L 69.74795799999998,49.943730500000015" fill="none" stroke="rgb(178,0,0)" stroke-width="0.1"/>
  <path d="M 29.81495799999999,61.60273050000001 L 30.291957999999966,63.23373049999998" fill="none" stroke="rgb(178,0,0)" stroke-width="0.1"/>
  <path d="M 30.291957999999966,63.23373049999998 L 29.523957999999993,63.4587305" fill="none" stroke="rgb(178,0,0)" stroke-width="0.1"/>
  <path d="M 29.523957999999993,63.4587305 L 29.04695799999996,61.82673049999994" fill="none" stroke="rgb(178,0,0)" stroke-width="0.1"/>
  <path d="M 29.04695799999996,61.82673049999994 L 29.81495799999999,61.60273050000001" fill="none" stroke="rgb(178,0,0)" stroke-width="0.1"/>
  <path d="M 30.37195799999995,64.04373049999992 L 30.231957999999963,63.56373050000002" fill="none" stroke="rgb(178,0,0)" stroke-width="0.1"/>
  <path d="M 30.231957999999963,63.56373050000002 L 29.751958000000002,63.70473049999998" fill="none" stroke="rgb(178,0,0)" stroke-width="0.1"/>
  <path d="M 29.751958000000002,63.70473049999998 L 29.89195799999999,64.1847305" fill="none" stroke="rgb(178,0,0)" stroke-width="0.1"/>
  <path d="M 29.89195799999999,64.1847305 L 30.37195799999995,64.04373049999992" fill="none" stroke="rgb(178,0,0)" stroke-width="0.1"/>
  <path d="M 81.26695799999999,46.581730499999935 L 80.30695799999995,46.86173050000002" fill="none" stroke="rgb(178,0,0)" stroke-width="0.1"/>
  <path d="M 80.30695799999995,46.86173050000002 L 81.00795799999997,49.2617305" fill="none" stroke="rgb(178,0,0)" stroke-width="0.1"/>
  <path d="M 81.00795799999997,49.2617305 L 81.96795799999995,48.980730499999936" fill="none" stroke="rgb(178,0,0)" stroke-width="0.1"/>
  <path d="M 81.96795799999995,48.980730499999936 L 81.26695799999999,46.581730499999935" fill="none" stroke="rgb(178,0,0)" stroke-width="0.1"/>
  <path d="M 99.50595799999996,41.2567305 L 98.54595799999998,41.536730499999976" fill="none" stroke="rgb(178,0,0)" stroke-width="0.1"/>
  <path d="M 98.54595799999998,41.536730499999976 L 99.24695799999995,43.93673049999995" fill="none" stroke="rgb(178,0,0)" stroke-width="0.1"/>
  <path d="M 99.24695799999995,43.93673049999995 L 100.0,43.71709324999995" fill="none" stroke="rgb(178,0,0)" stroke-width="0.1"/>
  <path d="M 100.0,42.948172440085614 L 99.50595799999996,41.2567305" fill="none" stroke="rgb(178,0,0)" stroke-width="0.1"/>
 </g>
 <g id="layerA-变坡线" inkscape:groupmode="layer" inkscape:label="A-变坡线">
  <path d="M 73.79895799999997,85.9057305 L 75.38495799999998,83.35973049999996" fill="none" stroke="rgb(0,178,178)" stroke-width="0.1"/>
 </g>
 <g id="layerA-坡道" inkscape:groupmode="layer" inkscape:label="A-坡道">
  <path d="M 0.0,39.053391437050436 L 12.405957999999998,35.43173049999996" fill="none" stroke="rgb(178,178,0)" stroke-width="0.1"/>
 </g>
 <g id="layerA-散水、排水沟" inkscape:groupmode="layer" inkscape:label="A-散水、排水沟">
  <path d="M 81.3616089085337,100.0 L 79.40395799999999,93.29573049999999" fill="none" stroke="rgb(107,53,93)" stroke-width="0.1"/>
  <path d="M 79.40395799999999,93.29573049999999 A 13.0007,13.0007 0.0 0,0 63.281957999999975,84.46073049999995" fill="none" stroke="rgb(107,53,93)" stroke-width="0.1"/>
  <path d="M 84.48603604294567,100.0 L 82.28295799999995,92.45573049999996" fill="none" stroke="rgb(107,53,93)" stroke-width="0.1"/>
  <path d="M 82.28295799999995,92.45573049999996 A 16.0007,16.0007 0.0 0,0 62.440957999999966,81.58073049999996" fill="none" stroke="rgb(107,53,93)" stroke-width="0.1"/>
 </g>
 <g id="layerA-空调板投影线" inkscape:groupmode="layer" inkscape:label="A-空调板投影线">
  <path d="M 12.472318798258414,100.0 L 66.35395799999998,84.26973049999992" fill="none" stroke="rgb(178,88,0)" stroke-width="0.1"/>
  <path d="M 66.35395799999998,84.26973049999992 L 70.9462622006194,100.0" fill="none" stroke="rgb(178,88,0)" stroke-width="0.1"/>
 </g>
 <g id="layerCOLUMN" inkscape:groupmode="layer" inkscape:label="COLUMN">
  <path d="M 79.48895799999997,43.97573049999994 L 77.24695799999995,36.29573049999999" fill="none" stroke="rgb(134,134,134)" stroke-width="0.1"/>
  <path d="M 77.24695799999995,36.29573049999999 L 71.48795799999999,37.97773050000001" fill="none" stroke="rgb(134,134,134)" stroke-width="0.1"/>
  <path d="M 71.48795799999999,37.97773050000001 L 73.72995799999995,45.65673049999998" fill="none" stroke="rgb(134,134,134)" stroke-width="0.1"/>
  <path d="M 73.72995799999995,45.65673049999998 L 79.48895799999997,43.97573049999994" fill="none" stroke="rgb(134,134,134)" stroke-width="0.1"/>
 </g>
 <g id="layerDIM_LEAD" inkscape:groupmode="layer" inkscape:label="DIM_LEAD">
  <path d="M 82.37411571543538,100.0 L 95.48795799999999,80.43373050000002" fill="none" stroke="rgb(0,178,0)" stroke-width="0.1"/>
  <path d="M 95.48795799999999,80.43373050000002 L 100.0,79.12258560922328" fill="none" stroke="rgb(0,178,0)" stroke-width="0.1"/>
  <path d="M 74.59295799999995,84.76573050000002 L 75.65295799999996,79.2037305" fill="none" stroke="rgb(0,178,0)" stroke-width="0.1"/>
  <path d="M 75.65295799999996,79.2037305 L 82.07695799999999,77.3287305" fill="none" stroke="rgb(0,178,0)" stroke-width="0.1"/>
  <text fill="rgb(0,0,0)" font-family="Noto Sans CJK SC" font-size="2" transform="rotate(-16.2,80.56595799999997,82.85473049999996)" x="80.56595799999997" y="82.85473049999996">
   CFT-05-01
  </text>
  <text fill="rgb(0,0,0)" font-family="Noto Sans CJK SC" font-size="2" transform="rotate(-16.2,95.025958,55.692730499999925)" x="95.025958" y="55.692730499999925">
   （室外）
  </text>
  <text fill="rgb(0,0,0)" font-family="Noto Sans CJK SC" font-size="2" transform="rotate(-16.2746,74.12995799999999,77.73373049999998)" x="74.12995799999999" y="77.73373049999998">
   分水线
  </text>
 </g>
 <g id="layerDIM_SYMB" inkscape:groupmode="layer" inkscape:label="DIM_SYMB">
  <path d="M 2.3994370350285976,100.0 L 2.9449579999999855,99.84073049999995" fill="none" stroke="rgb(0,178,0)" stroke-width="0.1"/>
  <path d="M 100.0,14.807042486226578 L 74.90495799999997,22.13273049999998" fill="none" stroke="rgb(0,0,0)" stroke-width="0.1"/>
  <path d="M 74.90495799999997,22.13273049999998 L 80.48595799999998,25.19173049999995" fill="none" stroke="rgb(0,0,0)" stroke-width="0.1"/>
  <path d="M 80.48595799999998,25.19173049999995 L 83.54495799999995,19.61073049999993" fill="none" stroke="rgb(0,0,0)" stroke-width="0.1"/>
  <path d="M 67.073958,24.419730500000014 L 35.708957999999996,33.57573049999996" fill="none" stroke="rgb(0,0,0)" stroke-width="0.1"/>
  <path d="M 35.708957999999996,33.57573049999996 L 41.289957999999956,36.63473049999993" fill="none" stroke="rgb(0,0,0)" stroke-width="0.1"/>
  <path d="M 41.289957999999956,36.63473049999993 L 44.34795799999995,31.053730499999915" fill="none" stroke="rgb(0,0,0)" stroke-width="0.1"/>
  <text fill="rgb(0,178,0)" font-family="Noto Sans CJK SC" font-size="2" transform="rotate(-16.2745,79.55095799999998,9.85073049999994)" x="79.55095799999998" y="9.85073049999994">
   商铺
  </text>
  <text fill="rgb(0,0,0)" font-family="Noto Sans CJK SC" font-size="2" transform="rotate(-16.2745,65.578958,24.089730499999973)" x="65.578958" y="24.089730499999973">
   6.000(308.000)
  </text>
  <text fill="rgb(0,178,0)" font-family="Noto Sans CJK SC" font-size="2" transform="rotate(-16.2745,40.72695799999997,17.810730499999977)" x="40.72695799999997" y="17.810730499999977">
   商铺
  </text>
  <text fill="rgb(0,0,0)" font-family="Noto Sans CJK SC" font-size="2" transform="rotate(-16.2745,26.382957999999974,35.53273049999996)" x="26.382957999999974" y="35.53273049999996">
   6.000(308.000)
  </text>
  <text fill="rgb(0,0,0)" font-family="Noto Sans CJK SC" font-size="2" transform="rotate(-16.2746,71.51995799999997,90.53773049999995)" x="71.51995799999997" y="90.53773049999995">
   0.3%
  </text>
 </g>
 <g id="layerDOOR_FIRE" inkscape:groupmode="layer" inkscape:label="DOOR_FIRE">
  <path d="M 11.963957999999991,30.349730499999964 A 6.0,6.0 0.0 0,0 7.816958,34.68573049999998" fill="none" instance-id="6" semantic-id="4" stroke="rgb(0,178,178)" stroke-width="0.1"/>
  <path d="M 6.134957999999983,28.925730499999986 A 6.0,6.0 0.0 0,0 11.963957999999991,30.349730499999964" fill="none" instance-id="6" semantic-id="4" stroke="rgb(0,178,178)" stroke-width="0.1"/>
  <path d="M 5.7989579999999705,9.233730499999979 A 6.0,6.0 0.0 0,0 1.6519579999999792,13.569730499999991" fill="none" instance-id="7" semantic-id="4" stroke="rgb(0,178,178)" stroke-width="0.1"/>
  <path d="M 0.36364411288701604,8.154745076426934 L 0.7859042073293949,8.464131931462475" fill="none" instance-id="7" semantic-id="4" stroke="rgb(0,178,178)" stroke-width="0.1"/>
  <path d="M 0.7859042073293949,8.464131931462475 L 1.2335241355122548,8.735536082721865" fill="none" instance-id="7" semantic-id="4" stroke="rgb(0,178,178)" stroke-width="0.1"/>
  <path d="M 1.2335241355122548,8.735536082721865 L 1.7030967163330502,8.966891663524507" fill="none" instance-id="7" semantic-id="4" stroke="rgb(0,178,178)" stroke-width="0.1"/>
  <path d="M 1.7030967163330502,8.966891663524507 L 2.1910476700897448,9.156437647800658" fill="none" instance-id="7" semantic-id="4" stroke="rgb(0,178,178)" stroke-width="0.1"/>
  <path d="M 2.1910476700897448,9.156437647800658 L 2.6936628250846297,9.302731254621676" fill="none" instance-id="7" semantic-id="4" stroke="rgb(0,178,178)" stroke-width="0.1"/>
  <path d="M 2.6936628250846297,9.302731254621676 L 3.207116389055045,9.404658930320238" fill="none" instance-id="7" semantic-id="4" stroke="rgb(0,178,178)" stroke-width="0.1"/>
  <path d="M 3.207116389055045,9.404658930320238 L 3.727500070233873,9.461444824607838" fill="none" instance-id="7" semantic-id="4" stroke="rgb(0,178,178)" stroke-width="0.1"/>
  <path d="M 3.727500070233873,9.461444824607838 L 4.250852826377638,9.472656696170588" fill="none" instance-id="7" semantic-id="4" stroke="rgb(0,178,178)" stroke-width="0.1"/>
  <path d="M 4.250852826377638,9.472656696170588 L 4.7731910153196395,9.438209202791654" fill="none" instance-id="7" semantic-id="4" stroke="rgb(0,178,178)" stroke-width="0.1"/>
  <path d="M 4.7731910153196395,9.438209202791654 L 5.29053871754769,9.358364550957162" fill="none" instance-id="7" semantic-id="4" stroke="rgb(0,178,178)" stroke-width="0.1"/>
  <path d="M 5.29053871754769,9.358364550957162 L 5.7989579999999705,9.233730499999979" fill="none" instance-id="7" semantic-id="4" stroke="rgb(0,178,178)" stroke-width="0.1"/>
  <path d="M 6.134957999999983,28.925730499999986 L 10.281957999999975,24.589730499999973" fill="none" instance-id="6" semantic-id="4" stroke="rgb(0,178,178)" stroke-width="0.1"/>
  <path d="M 7.815957999999966,34.68573049999998 L 13.644957999999974,36.10873049999998" fill="none" instance-id="6" semantic-id="4" stroke="rgb(0,178,178)" stroke-width="0.1"/>
  <path d="M 9.321957999999995,24.870730499999922 L 12.684957999999995,36.38973049999993" fill="none" instance-id="6" semantic-id="4" stroke="rgb(0,178,178)" stroke-width="0.1"/>
  <path d="M 11.241957999999954,24.3097305 L 14.604957999999954,35.828730500000006" fill="none" instance-id="6" semantic-id="4" stroke="rgb(0,178,178)" stroke-width="0.1"/>
  <path d="M 0.0,7.77832690501441 L 4.117957999999987,3.473730499999988" fill="none" instance-id="7" semantic-id="4" stroke="rgb(0,178,178)" stroke-width="0.1"/>
  <path d="M 1.6519579999999792,13.569730499999991 L 7.480957999999987,14.992730499999993" fill="none" instance-id="7" semantic-id="4" stroke="rgb(0,178,178)" stroke-width="0.1"/>
  <path d="M 3.157957999999951,3.7537304999999606 L 6.5209579999999505,15.273730499999942" fill="none" instance-id="7" semantic-id="4" stroke="rgb(0,178,178)" stroke-width="0.1"/>
  <path d="M 5.077957999999967,3.193730500000015 L 8.43995799999999,14.71273050000002" fill="none" instance-id="7" semantic-id="4" stroke="rgb(0,178,178)" stroke-width="0.1"/>
 </g>
 <g id="layerDOOR_FIRE_TEXT" inkscape:groupmode="layer" inkscape:label="DOOR_FIRE_TEXT">
  <text fill="rgb(0,0,0)" font-family="Noto Sans CJK SC" font-size="2" transform="rotate(-286.275,13.66595799999999,22.97273050000001)" x="13.66595799999999" y="22.97273050000001">
   FM乙1218
  </text>
  <text fill="rgb(0,0,0)" font-family="Noto Sans CJK SC" font-size="2" transform="rotate(-286.275,7.502957999999978,1.855730499999936)" x="7.502957999999978" y="1.855730499999936">
   FM乙1218
  </text>
 </g>
 <g id="layerPUB_DIM" inkscape:groupmode="layer" inkscape:label="PUB_DIM">
  <path d="M 0.0,2.5932185377031374 L 2.8969579999999837,1.7467305000000124" fill="none" stroke="rgb(26,107,0)" stroke-width="0.1"/>
  <path d="M 0.0,4.15394208973089 L 3.3169579999999996,3.1847305000000006" fill="none" stroke="rgb(26,107,0)" stroke-width="0.1"/>
  <path d="M 0.0,4.753364255700376 L 0.206957999999986,4.866730500000017" fill="none" stroke="rgb(26,107,0)" stroke-width="0.1"/>
  <path d="M 0.0,16.655483699553542 L 6.682957999999985,14.702730499999916" fill="none" stroke="rgb(26,107,0)" stroke-width="0.1"/>
  <path d="M 0.7239579999999819,24.260730500000022 L 8.78695799999997,21.904730499999914" fill="none" stroke="rgb(26,107,0)" stroke-width="0.1"/>
  <path d="M 1.56495799999999,27.137730499999975 L 9.627957999999978,24.78173049999998" fill="none" stroke="rgb(26,107,0)" stroke-width="0.1"/>
  <path d="M 1.7299579999999537,15.376730500000008 L 3.571957999999995,16.385730500000022" fill="none" stroke="rgb(26,107,0)" stroke-width="0.1"/>
  <path d="M 3.834957999999972,22.577730499999916 L 5.67595799999998,23.58673049999993" fill="none" stroke="rgb(26,107,0)" stroke-width="0.1"/>
  <path d="M 4.674958000000004,25.45573049999996 L 6.516957999999988,26.464730499999973" fill="none" stroke="rgb(26,107,0)" stroke-width="0.1"/>
  <path d="M 4.929957999999999,38.655730500000004 L 12.992957999999987,36.300730499999986" fill="none" stroke="rgb(26,107,0)" stroke-width="0.1"/>
  <path d="M 6.612957999999992,44.41673049999997 L 14.67595799999998,42.06073049999998" fill="none" stroke="rgb(26,107,0)" stroke-width="0.1"/>
  <path d="M 8.04095799999999,36.97373049999999 L 9.882957999999974,37.9827305" fill="none" stroke="rgb(26,107,0)" stroke-width="0.1"/>
  <path d="M 9.723957999999982,42.734730499999955 L 11.565957999999966,43.74373049999997" fill="none" stroke="rgb(26,107,0)" stroke-width="0.1"/>
  <path d="M 70.381958,10.171730499999967 L 78.44595799999996,7.817730499999925" fill="none" stroke="rgb(26,107,0)" stroke-width="0.1"/>
  <path d="M 73.49295799999999,8.48973049999995 L 75.33495799999997,9.498730499999965" fill="none" stroke="rgb(26,107,0)" stroke-width="0.1"/>
  <path d="M 81.31095799999997,47.609730499999955 L 89.37395799999996,45.25573050000003" fill="none" stroke="rgb(26,107,0)" stroke-width="0.1"/>
  <path d="M 84.42195799999996,45.92773049999994 L 86.26295799999997,46.93673049999995" fill="none" stroke="rgb(26,107,0)" stroke-width="0.1"/>
  <path d="M 96.41195799999997,42.15873049999993 L 100.0,41.11140243531099" fill="none" stroke="rgb(26,107,0)" stroke-width="0.1"/>
  <path d="M 87.02895799999999,94.12673050000001 L 88.87095799999997,95.13573050000002" fill="none" stroke="rgb(26,107,0)" stroke-width="0.1"/>
  <path d="M 83.917958,95.80773049999993 L 91.98095799999999,93.4537305" fill="none" stroke="rgb(26,107,0)" stroke-width="0.1"/>
  <path d="M 73.821958,84.87673050000001 L 76.17595799999998,92.9397305" fill="none" stroke="rgb(26,107,0)" stroke-width="0.1"/>
  <path d="M 75.50295799999998,87.9877305 L 74.49395799999996,89.8287305" fill="none" stroke="rgb(26,107,0)" stroke-width="0.1"/>
  <path d="M 0.0,6.806812448291225 L 2.650958000000003,15.880730500000027" fill="none" stroke="rgb(26,107,0)" stroke-width="0.1"/>
  <path d="M 2.650958000000003,15.880730500000027 L 4.755957999999964,23.082730500000025" fill="none" stroke="rgb(26,107,0)" stroke-width="0.1"/>
  <path d="M 4.755957999999964,23.082730500000025 L 5.595957999999996,25.959730499999978" fill="none" stroke="rgb(26,107,0)" stroke-width="0.1"/>
  <path d="M 5.595957999999996,25.959730499999978 L 8.961957999999981,37.47873049999998" fill="none" stroke="rgb(26,107,0)" stroke-width="0.1"/>
  <path d="M 8.961957999999981,37.47873049999998 L 10.644957999999974,43.238730499999974" fill="none" stroke="rgb(26,107,0)" stroke-width="0.1"/>
  <path d="M 10.644957999999974,43.238730499999974 L 17.723957999999982,41.17073049999999" fill="none" stroke="rgb(26,107,0)" stroke-width="0.1"/>
  <path d="M 71.788514923283,0.0 L 74.41395799999998,8.994730499999946" fill="none" stroke="rgb(26,107,0)" stroke-width="0.1"/>
  <path d="M 74.41395799999998,8.994730499999946 L 85.34195799999998,46.432730499999934" fill="none" stroke="rgb(26,107,0)" stroke-width="0.1"/>
  <path d="M 85.34195799999998,46.432730499999934 L 81.56595799999997,47.53473050000002" fill="none" stroke="rgb(26,107,0)" stroke-width="0.1"/>
  <path d="M 77.554958,97.6657305 L 87.94995799999998,94.63073050000003" fill="none" stroke="rgb(26,107,0)" stroke-width="0.1"/>
  <path d="M 87.94995799999998,94.63073050000003 L 89.51732044568331,100.0" fill="none" stroke="rgb(26,107,0)" stroke-width="0.1"/>
  <path d="M 37.006552820090576,100.0 L 74.99895799999996,88.90873049999993" fill="none" stroke="rgb(26,107,0)" stroke-width="0.1"/>
  <path d="M 74.99895799999996,88.90873049999993 L 74.68295799999999,87.82673049999994" fill="none" stroke="rgb(26,107,0)" stroke-width="0.1"/>
  <text fill="rgb(0,0,0)" font-family="Noto Sans CJK SC" font-size="2" transform="rotate(-286.288,10.718957999999986,36.15273049999996)" x="10.718957999999986" y="36.15273049999996">
   600
  </text>
  <text fill="rgb(0,0,0)" font-family="Noto Sans CJK SC" font-size="2" transform="rotate(-286.288,7.879957999999988,26.43873050000002)" x="7.879957999999988" y="26.43873050000002">
   1200
  </text>
  <text fill="rgb(0,0,0)" font-family="Noto Sans CJK SC" font-size="2" transform="rotate(-286.288,9.477958000000001,19.32673049999994)" x="9.477958000000001" y="19.32673049999994">
   300
  </text>
  <text fill="rgb(0,0,0)" font-family="Noto Sans CJK SC" font-size="2" transform="rotate(-286.288,4.618957999999964,15.275730500000009)" x="4.618957999999964" y="15.275730500000009">
   750
  </text>
  <text fill="rgb(0,0,0)" font-family="Noto Sans CJK SC" font-size="2" transform="rotate(-286.288,1.5699579999999855,4.84073049999995)" x="1.5699579999999855" y="4.84073049999995">
   1200
  </text>
  <text fill="rgb(0,0,0)" font-family="Noto Sans CJK SC" font-size="2" transform="rotate(-286.273,80.40195799999998,22.16473050000002)" x="80.40195799999998" y="22.16473050000002">
   3900
  </text>
  <text fill="rgb(0,0,0)" font-family="Noto Sans CJK SC" font-size="2" transform="rotate(-53.5094,93.56495799999999,43.141730499999994)" x="93.56495799999999" y="43.141730499999994">
   105.53%%d
  </text>
 </g>
 <g id="layerPUB_HATCH" inkscape:groupmode="layer" inkscape:label="PUB_HATCH">
  <path d="M 77.24695799999995,36.29573049999999 L 71.48795799999999,37.97773050000001" fill="none" stroke="rgb(89,89,89)" stroke-width="0.1"/>
  <path d="M 71.48795799999999,37.97773050000001 L 73.72995799999995,45.65673049999998" fill="none" stroke="rgb(89,89,89)" stroke-width="0.1"/>
  <path d="M 73.72995799999995,45.65673049999998 L 79.48895799999997,43.97573049999994" fill="none" stroke="rgb(89,89,89)" stroke-width="0.1"/>
  <path d="M 79.48895799999997,43.97573049999994 L 77.24695799999995,36.29573049999999" fill="none" stroke="rgb(89,89,89)" stroke-width="0.1"/>
 </g>
 <g id="layerPUB_TEXT" inkscape:groupmode="layer" inkscape:label="PUB_TEXT">
  <path d="M 78.23722748419726,100.0 L 75.715958,91.36373049999997" fill="none" stroke="rgb(107,53,53)" stroke-width="0.1"/>
  <path d="M 77.554958,97.6657305 L 69.55926210479697,100.0" fill="none" stroke="rgb(107,53,53)" stroke-width="0.1"/>
  <text fill="rgb(0,178,0)" font-family="Noto Sans CJK SC" font-size="2" transform="rotate(-16.2746,87.756958,91.82373050000001)" x="87.756958" y="91.82373050000001">
   上L3
  </text>
  <text fill="rgb(0,178,0)" font-family="Noto Sans CJK SC" font-size="2" transform="rotate(-16.2746,17.02895799999999,22.574730499999987)" x="17.02895799999999" y="22.574730499999987">
   4号
  </text>
  <text fill="rgb(0,178,0)" font-family="Noto Sans CJK SC" font-size="2" transform="rotate(-16.2746,19.08895799999999,29.629730499999937)" x="19.08895799999999" y="29.629730499999937">
   强电井
  </text>
  <text fill="rgb(0,178,0)" font-family="Noto Sans CJK SC" font-size="2" transform="rotate(-16.2746,11.03495799999996,2.105730499999936)" x="11.03495799999996" y="2.105730499999936">
   4号
  </text>
  <text fill="rgb(0,178,0)" font-family="Noto Sans CJK SC" font-size="2" transform="rotate(-16.2746,13.094957999999963,9.1607305)" x="13.094957999999963" y="9.1607305">
   弱电井
  </text>
  <text fill="rgb(0,178,0)" font-family="Noto Sans CJK SC" font-size="2" transform="rotate(-16.2746,94.45295799999997,71.00373049999996)" x="94.45295799999997" y="71.00373049999996">
   外廊
  </text>
 </g>
 <g id="layerSPACE" inkscape:groupmode="layer" inkscape:label="SPACE">
  <text fill="rgb(0,0,0)" font-family="Noto Sans CJK SC" font-size="2" transform="rotate(-16.2746,42.64595799999995,5.765730500000018)" x="42.64595799999995" y="5.765730500000018">
   房间
  </text>
  <text fill="rgb(0,0,0)" font-family="Noto Sans CJK SC" font-size="2" transform="rotate(-16.2746,36.190957999999966,14.134730499999932)" x="36.190957999999966" y="14.134730499999932">
   34.05m%%172
  </text>
  <text fill="rgb(0,0,0)" font-family="Noto Sans CJK SC" font-size="2" transform="rotate(-16.2746,88.85395799999998,38.81973049999999)" x="88.85395799999998" y="38.81973049999999">
   房间
  </text>
  <text fill="rgb(0,0,0)" font-family="Noto Sans CJK SC" font-size="2" transform="rotate(-16.2746,83.03895799999998,47.002730499999984)" x="83.03895799999998" y="47.002730499999984">
   12.17m%%172
  </text>
  <text fill="rgb(0,0,0)" font-family="Noto Sans CJK SC" font-size="2" transform="rotate(-16.2746,42.321957999999995,48.97273050000001)" x="42.321957999999995" y="48.97273050000001">
   房间
  </text>
  <text fill="rgb(0,0,0)" font-family="Noto Sans CJK SC" font-size="2" transform="rotate(-16.2746,36.506958,57.155730500000004)" x="36.506958" y="57.155730500000004">
   18.17m%%172
  </text>
 </g>
 <g id="layerSTAIR" inkscape:groupmode="layer" inkscape:label="STAIR">
  <path d="M 78.2368506543603,100.0 L 77.703958,98.17473050000001" fill="none" stroke="rgb(178,178,0)" stroke-width="0.1"/>
  <path d="M 71.45152110208869,100.0 L 77.703958,98.17473050000001" fill="none" stroke="rgb(178,178,0)" stroke-width="0.1"/>
  <path d="M 77.554958,97.6657305 L 79.47495799999996,97.10473049999996" fill="none" stroke="rgb(0,178,0)" stroke-width="0.1"/>
  <path d="M 79.47495799999996,97.10473049999996 L 80.32022061071683,100.0" fill="none" stroke="rgb(0,178,0)" stroke-width="0.1"/>
 </g>
 <g id="layerWALL" inkscape:groupmode="layer" inkscape:label="WALL">
  <path d="M 4.145371570182249,0.0 L 4.236957999999959,0.3137305000000197" fill="none" instance-id="-1" semantic-id="1" stroke="rgb(0,0,0)" stroke-width="0.1"/>
  <path d="M 2.0614460353124855,0.0 L 2.5969579999999723,1.8347304999999778" fill="none" instance-id="-1" semantic-id="1" stroke="rgb(0,0,0)" stroke-width="0.1"/>
  <path d="M 10.12195799999995,20.47173049999992 L 24.52095799999995,16.268730499999947" fill="none" instance-id="-1" semantic-id="1" stroke="rgb(0,0,0)" stroke-width="0.1"/>
  <path d="M 10.681957999999952,22.391730499999994 L 25.080957999999953,18.18873050000002" fill="none" instance-id="-1" semantic-id="1" stroke="rgb(0,0,0)" stroke-width="0.1"/>
  <path d="M 30.405958,36.42673049999996 L 26.481957999999963,22.987730499999998" fill="none" instance-id="-1" semantic-id="1" stroke="rgb(0,0,0)" stroke-width="0.1"/>
  <path d="M 32.88595799999996,37.7857305 L 28.681957999999952,23.3867305" fill="none" instance-id="-1" semantic-id="1" stroke="rgb(0,0,0)" stroke-width="0.1"/>
  <path d="M 24.52095799999995,16.268730499999947 L 19.771191570234123,0.0" fill="none" instance-id="-1" semantic-id="1" stroke="rgb(0,0,0)" stroke-width="0.1"/>
  <path d="M 26.720957999999996,16.667730499999948 L 21.854920000570473,0.0" fill="none" instance-id="-1" semantic-id="1" stroke="rgb(0,0,0)" stroke-width="0.1"/>
  <path d="M 4.236957999999959,0.3137305000000197 L 5.311763012966935,0.0" fill="none" instance-id="-1" semantic-id="1" stroke="rgb(0,0,0)" stroke-width="0.1"/>
  <path d="M 4.796957999999961,2.2337304999999787 L 12.44764436286846,0.0" fill="none" instance-id="-1" semantic-id="1" stroke="rgb(0,0,0)" stroke-width="0.1"/>
  <path d="M 16.006957999999997,40.63073050000003 L 30.405958,36.42673049999996" fill="none" instance-id="-1" semantic-id="1" stroke="rgb(0,0,0)" stroke-width="0.1"/>
  <path d="M 16.566958,42.550730499999986 L 32.88595799999996,37.7857305" fill="none" instance-id="-1" semantic-id="1" stroke="rgb(0,0,0)" stroke-width="0.1"/>
  <path d="M 16.566958,42.550730499999986 L 22.732957999999996,63.668730499999924" fill="none" instance-id="-1" semantic-id="1" stroke="rgb(0,0,0)" stroke-width="0.1"/>
  <path d="M 14.366957999999954,42.15073050000001 L 20.81295799999998,64.22973049999996" fill="none" instance-id="-1" semantic-id="1" stroke="rgb(0,0,0)" stroke-width="0.1"/>
  <path d="M 22.732957999999996,63.668730499999924 L 20.81295799999998,64.22973049999996" fill="none" instance-id="-1" semantic-id="1" stroke="rgb(0,0,0)" stroke-width="0.1"/>
  <path d="M 68.03995799999996,11.89673049999999 L 77.84795799999995,45.494730499999946" fill="none" instance-id="-1" semantic-id="1" stroke="rgb(0,0,0)" stroke-width="0.1"/>
  <path d="M 66.119958,12.457730500000025 L 76.48895799999997,47.974730499999964" fill="none" instance-id="-1" semantic-id="1" stroke="rgb(0,0,0)" stroke-width="0.1"/>
  <path d="M 66.518958,10.25773049999998 L 100.0,0.48277499070900376" fill="none" instance-id="-1" semantic-id="1" stroke="rgb(0,0,0)" stroke-width="0.1"/>
  <path d="M 68.03995799999996,11.89673049999999 L 100.0,2.5664671847272302" fill="none" instance-id="-1" semantic-id="1" stroke="rgb(0,0,0)" stroke-width="0.1"/>
  <path d="M 28.12195799999995,21.466730499999926 L 66.518958,10.25773049999998" fill="none" instance-id="-1" semantic-id="1" stroke="rgb(0,0,0)" stroke-width="0.1"/>
  <path d="M 28.681957999999952,23.3867305 L 66.119958,12.457730500000025" fill="none" instance-id="-1" semantic-id="1" stroke="rgb(0,0,0)" stroke-width="0.1"/>
  <path d="M 10.681957999999952,22.391730499999994 L 11.241957999999954,24.3097305" fill="none" instance-id="-1" semantic-id="1" stroke="rgb(0,0,0)" stroke-width="0.1"/>
  <path d="M 8.481957999999963,21.992730499999993 L 9.321957999999995,24.870730499999922" fill="none" instance-id="-1" semantic-id="1" stroke="rgb(0,0,0)" stroke-width="0.1"/>
  <path d="M 11.241957999999954,24.3097305 L 9.321957999999995,24.870730499999922" fill="none" instance-id="-1" semantic-id="1" stroke="rgb(0,0,0)" stroke-width="0.1"/>
  <path d="M 14.604957999999954,35.828730500000006 L 16.006957999999997,40.63073050000003" fill="none" instance-id="-1" semantic-id="1" stroke="rgb(0,0,0)" stroke-width="0.1"/>
  <path d="M 12.684957999999995,36.38973049999993 L 14.366957999999954,42.15073050000001" fill="none" instance-id="-1" semantic-id="1" stroke="rgb(0,0,0)" stroke-width="0.1"/>
  <path d="M 14.604957999999954,35.828730500000006 L 12.684957999999995,36.38973049999993" fill="none" instance-id="-1" semantic-id="1" stroke="rgb(0,0,0)" stroke-width="0.1"/>
  <path d="M 4.796957999999961,2.2337304999999787 L 5.077957999999967,3.193730500000015" fill="none" instance-id="-1" semantic-id="1" stroke="rgb(0,0,0)" stroke-width="0.1"/>
  <path d="M 2.5969579999999723,1.8347304999999778 L 3.157957999999951,3.7537304999999606" fill="none" instance-id="-1" semantic-id="1" stroke="rgb(0,0,0)" stroke-width="0.1"/>
  <path d="M 5.077957999999967,3.193730500000015 L 3.157957999999951,3.7537304999999606" fill="none" instance-id="-1" semantic-id="1" stroke="rgb(0,0,0)" stroke-width="0.1"/>
  <path d="M 8.43995799999999,14.71273050000002 L 10.12195799999995,20.47173049999992" fill="none" instance-id="-1" semantic-id="1" stroke="rgb(0,0,0)" stroke-width="0.1"/>
  <path d="M 6.5209579999999505,15.273730499999942 L 8.481957999999963,21.992730499999993" fill="none" instance-id="-1" semantic-id="1" stroke="rgb(0,0,0)" stroke-width="0.1"/>
  <path d="M 8.43995799999999,14.71273050000002 L 6.5209579999999505,15.273730499999942" fill="none" instance-id="-1" semantic-id="1" stroke="rgb(0,0,0)" stroke-width="0.1"/>
  <path d="M 26.481957999999963,22.987730499999998 L 25.080957999999953,18.18873050000002" fill="none" instance-id="-1" semantic-id="1" stroke="rgb(0,0,0)" stroke-width="0.1"/>
  <path d="M 28.12195799999995,21.466730499999926 L 26.720957999999996,16.667730499999948" fill="none" instance-id="-1" semantic-id="1" stroke="rgb(0,0,0)" stroke-width="0.1"/>
  <path d="M 77.84795799999995,45.494730499999946 L 80.70695799999999,44.661730499999976" fill="none" instance-id="-1" semantic-id="1" stroke="rgb(0,0,0)" stroke-width="0.1"/>
  <path d="M 76.48895799999997,47.974730499999964 L 81.26695799999999,46.581730499999935" fill="none" instance-id="-1" semantic-id="1" stroke="rgb(0,0,0)" stroke-width="0.1"/>
  <path d="M 80.70695799999999,44.661730499999976 L 81.26695799999999,46.581730499999935" fill="none" instance-id="-1" semantic-id="1" stroke="rgb(0,0,0)" stroke-width="0.1"/>
  <path d="M 0.0,67.86349330205871 L 0.657957999999951,70.11373049999997" fill="none" instance-id="-1" semantic-id="1" stroke="rgb(0,0,0)" stroke-width="0.1"/>
  <path d="M 0.657957999999951,70.11373049999997 L 0.0,70.30632028958325" fill="none" instance-id="-1" semantic-id="1" stroke="rgb(0,0,0)" stroke-width="0.1"/>
 </g>
 <g id="layer扶梯" inkscape:groupmode="layer" inkscape:label="扶梯">
  <path d="M 78.23643885409206,100.0 L 77.554958,97.6657305" fill="none" stroke="rgb(0,178,178)" stroke-width="0.1"/>
  <path d="M 77.554958,97.6657305 L 69.55926210479697,100.0" fill="none" stroke="rgb(0,178,178)" stroke-width="0.1"/>
 </g>
 <g id="layer竖向构件(板上)" inkscape:groupmode="layer" inkscape:label="竖向构件(板上)">
  <text fill="rgb(0,0,0)" font-family="Noto Sans CJK SC" font-size="2" transform="rotate(-16.2746,76.86795799999999,38.50373049999996)" x="76.86795799999999" y="38.50373049999996">
   L2
  </text>
 </g>
 <g id="layer轴网$0$DOTE" inkscape:groupmode="layer" inkscape:label="轴网$0$DOTE">
  <path d="M 0.0,97.39045565695926 L 100.0,68.19666027604615" fill="none" stroke="rgb(92,92,92)" stroke-width="0.1"/>
  <path d="M 63.524359066994975,0.0 L 92.71821482246588,100.0" fill="none" stroke="rgb(92,92,92)" stroke-width="0.1"/>
  <path d="M 0.0,82.1470174938471 L 5.211975321681791,100.0" fill="none" stroke="rgb(92,92,92)" stroke-width="0.1"/>
 </g>
 <g id="layer销售商业编号" inkscape:groupmode="layer" inkscape:label="销售商业编号">
  <text fill="rgb(107,0,26)" font-family="Noto Sans CJK SC" font-size="2" transform="rotate(-16.2746,76.90695799999997,15.939730499999996)" x="76.90695799999997" y="15.939730499999996">
   F109-L2-83
  </text>
  <text fill="rgb(107,0,26)" font-family="Noto Sans CJK SC" font-size="2" transform="rotate(-16.2746,32.866957999999954,25.76773049999997)" x="32.866957999999954" y="25.76773049999997">
   F109-L2-84
  </text>
 </g>
</svg>