<?xml version="1.0" encoding="utf-8"?>
<svg style="background-color: #000;" version="1.1" viewBox="0 0 100.0 100.0" xmlns="http://www.w3.org/2000/svg" xmlns:inkscape="http://www.inkscape.org/namespaces/inkscape">
 <g id="layerA-FLOR-HRAL" inkscape:groupmode="layer" inkscape:label="A-FLOR-HRAL">
  <path d="M 21.331609846100605,100.0 L 20.290958000000046,3.842730500000016" fill="none" instance-id="-1" semantic-id="33" stroke="rgb(0,178,178)" stroke-width="0.1"/>
  <path d="M 20.290958000000046,3.842730500000016 L 14.53895799999998,3.904730500000028" fill="none" instance-id="-1" semantic-id="33" stroke="rgb(0,178,178)" stroke-width="0.1"/>
  <path d="M 21.83142658763677,100.0 L 20.784958000000074,3.336730500000016" fill="none" instance-id="-1" semantic-id="33" stroke="rgb(0,178,178)" stroke-width="0.1"/>
  <path d="M 20.784958000000074,3.336730500000016 L 14.532958000000008,3.404730500000028" fill="none" instance-id="-1" semantic-id="33" stroke="rgb(0,178,178)" stroke-width="0.1"/>
 </g>
 <g id="layerA-FLOR-WDWK" inkscape:groupmode="layer" inkscape:label="A-FLOR-WDWK">
  <path d="M 19.49005053117844,0.0 L 20.572260104134898,100.0" fill="none" stroke="rgb(178,0,178)" stroke-width="0.1"/>
  <path d="M 20.58147365431512,100.0 L 19.548958000000084,4.600730500000026" fill="none" stroke="rgb(178,0,178)" stroke-width="0.1"/>
  <path d="M 19.548958000000084,4.600730500000026 L 14.546958000000018,4.654730500000028" fill="none" stroke="rgb(178,0,178)" stroke-width="0.1"/>
  <path d="M 22.58156331001976,100.0 L 21.526958000000036,2.5787305000000345" fill="none" stroke="rgb(178,0,178)" stroke-width="0.1"/>
  <path d="M 21.526958000000036,2.5787305000000345 L 14.524958000000083,2.654730500000028" fill="none" stroke="rgb(178,0,178)" stroke-width="0.1"/>
 </g>
 <g id="layerA-上部投影线" inkscape:groupmode="layer" inkscape:label="A-上部投影线">
  <path d="M 19.49005053117844,0.0 L 20.572260104134898,100.0" fill="none" stroke="rgb(0,0,0)" stroke-width="0.1"/>
 </g>
 <g id="layerA-散水、排水沟" inkscape:groupmode="layer" inkscape:label="A-散水、排水沟">
  <path d="M 22.49829637568007,0.0 L 23.581324796014542,100.0" fill="none" stroke="rgb(107,53,93)" stroke-width="0.1"/>
 </g>
 <g id="layerA-空调板投影线" inkscape:groupmode="layer" inkscape:label="A-空调板投影线">
  <path d="M 31.49806923641472,0.0 L 32.58048928186008,100.0" fill="none" stroke="rgb(178,88,0)" stroke-width="0.1"/>
 </g>
 <g id="layerDIM_IDEN" inkscape:groupmode="layer" inkscape:label="DIM_IDEN">
  <path d="M 0.0,55.792952827247234 L 56.617958000000044,55.1487305" fill="none" stroke="rgb(0,178,0)" stroke-width="0.1"/>
 </g>
 <g id="layerDIM_SYMB" inkscape:groupmode="layer" inkscape:label="DIM_SYMB">
  <path d="M 23.62295800000004,92.98073050000005 L 23.645958000000064,88.08773050000002" fill="none" stroke="rgb(0,178,0)" stroke-width="0.1"/>
  <path d="M 6.725957999999991,46.37173050000001 L 6.285958000000051,5.744730500000031" fill="none" stroke="rgb(0,178,0)" stroke-width="0.1"/>
  <path d="M 24.54595800000004,88.09173050000004 L 23.666958000000022,83.58773050000002" fill="none" stroke="rgb(0,178,0)" stroke-width="0.1"/>
  <path d="M 23.666958000000022,83.58773050000002 L 22.745958000000087,88.08273050000003" fill="none" stroke="rgb(0,178,0)" stroke-width="0.1"/>
  <path d="M 22.745958000000087,88.08273050000003 L 24.54595800000004,88.09173050000004" fill="none" stroke="rgb(0,178,0)" stroke-width="0.1"/>
  <path d="M 0.31395800000007057,63.20473050000004 L 6.806958000000009,67.22173050000004" fill="none" stroke="rgb(0,178,0)" stroke-width="0.1"/>
  <path d="M 6.806958000000009,67.22173050000004 L 6.145958000000064,69.35073050000005" fill="none" stroke="rgb(0,178,0)" stroke-width="0.1"/>
  <path d="M 6.145958000000064,69.35073050000005 L 9.389957999999979,66.2807305" fill="none" stroke="rgb(0,178,0)" stroke-width="0.1"/>
  <path d="M 9.389957999999979,66.2807305 L 8.728958000000034,68.40973050000002" fill="none" stroke="rgb(0,178,0)" stroke-width="0.1"/>
  <path d="M 8.728958000000034,68.40973050000002 L 15.221958000000086,72.42673050000002" fill="none" stroke="rgb(0,178,0)" stroke-width="0.1"/>
  <path d="M 7.325958000000014,46.36573050000004 L 6.758958000000007,49.37173050000001" fill="none" stroke="rgb(0,178,0)" stroke-width="0.1"/>
  <path d="M 6.758958000000007,49.37173050000001 L 6.125958000000082,46.37873050000002" fill="none" stroke="rgb(0,178,0)" stroke-width="0.1"/>
  <path d="M 6.125958000000082,46.37873050000002 L 7.325958000000014,46.36573050000004" fill="none" stroke="rgb(0,178,0)" stroke-width="0.1"/>
  <text fill="rgb(0,0,0)" font-family="Noto Sans CJK SC" font-size="2" transform="rotate(-89.736,22.31295799999998,92.52773050000002)" x="22.31295799999998" y="92.52773050000002">
   0.3%
  </text>
 </g>
 <g id="layerPUB_DIM" inkscape:groupmode="layer" inkscape:label="PUB_DIM">
  <path d="M 23.6130462871796,0.0 L 24.695318861002534,100.0" fill="none" stroke="rgb(26,107,0)" stroke-width="0.1"/>
  <text fill="rgb(0,0,0)" font-family="Noto Sans CJK SC" font-size="2" transform="rotate(-90.6202,22.402958000000012,78.32473050000004)" x="22.402958000000012" y="78.32473050000004">
   15108
  </text>
 </g>
 <g id="layerPUB_TEXT" inkscape:groupmode="layer" inkscape:label="PUB_TEXT">
  <path d="M 14.489974837331488,0.0 L 15.572247411154422,100.0" fill="none" stroke="rgb(107,53,53)" stroke-width="0.1"/>
 </g>
 <g id="layerSTAIR" inkscape:groupmode="layer" inkscape:label="STAIR">
  <path d="M 2.185958000000028,64.36273050000005 L 1.7139580000000478,20.794730500000014" fill="none" instance-id="1" semantic-id="32" stroke="rgb(178,178,0)" stroke-width="0.1"/>
  <path d="M 1.6169580000000678,11.795730500000019 L 11.085958000000005,11.692730500000039" fill="none" instance-id="1" semantic-id="32" stroke="rgb(178,178,0)" stroke-width="0.1"/>
  <path d="M 7.706957999999986,67.36273050000005 L 11.68795799999998,67.31973050000005" fill="none" instance-id="1" semantic-id="32" stroke="rgb(178,178,0)" stroke-width="0.1"/>
  <path d="M 2.185958000000028,64.4227305 L 11.655958000000055,64.31973050000005" fill="none" instance-id="1" semantic-id="32" stroke="rgb(178,178,0)" stroke-width="0.1"/>
  <path d="M 2.1539579999999887,61.4227305 L 11.62295800000004,61.31973050000005" fill="none" instance-id="1" semantic-id="32" stroke="rgb(178,178,0)" stroke-width="0.1"/>
  <path d="M 2.120958000000087,58.4227305 L 11.590958,58.31973050000005" fill="none" instance-id="1" semantic-id="32" stroke="rgb(178,178,0)" stroke-width="0.1"/>
  <path d="M 2.088958000000048,55.4227305 L 11.557957999999985,55.320730500000025" fill="none" instance-id="1" semantic-id="32" stroke="rgb(178,178,0)" stroke-width="0.1"/>
  <path d="M 2.0559580000000324,52.4227305 L 11.52595800000006,52.320730500000025" fill="none" instance-id="1" semantic-id="32" stroke="rgb(178,178,0)" stroke-width="0.1"/>
  <path d="M 2.0239579999999933,49.4227305 L 11.492958000000044,49.320730500000025" fill="none" instance-id="1" semantic-id="32" stroke="rgb(178,178,0)" stroke-width="0.1"/>
  <path d="M 1.9909579999999778,46.42373050000003 L 11.460958000000005,46.320730500000025" fill="none" instance-id="1" semantic-id="32" stroke="rgb(178,178,0)" stroke-width="0.1"/>
  <path d="M 1.9589580000000524,43.42373050000003 L 11.42795799999999,43.320730500000025" fill="none" instance-id="1" semantic-id="32" stroke="rgb(178,178,0)" stroke-width="0.1"/>
  <path d="M 1.925958000000037,40.42373050000003 L 11.395958000000064,40.320730500000025" fill="none" instance-id="1" semantic-id="32" stroke="rgb(178,178,0)" stroke-width="0.1"/>
  <path d="M 1.8939579999999978,37.42373050000003 L 11.362958000000049,37.3217305" fill="none" instance-id="1" semantic-id="32" stroke="rgb(178,178,0)" stroke-width="0.1"/>
  <path d="M 1.8619580000000724,34.42373050000003 L 11.33095800000001,34.3217305" fill="none" instance-id="1" semantic-id="32" stroke="rgb(178,178,0)" stroke-width="0.1"/>
  <path d="M 1.828958000000057,31.423730500000033 L 11.298958000000084,31.3217305" fill="none" instance-id="1" semantic-id="32" stroke="rgb(178,178,0)" stroke-width="0.1"/>
  <path d="M 1.7969580000000178,28.42473050000001 L 11.265958000000069,28.3217305" fill="none" instance-id="1" semantic-id="32" stroke="rgb(178,178,0)" stroke-width="0.1"/>
  <path d="M 1.7639580000000024,25.42473050000001 L 11.23395800000003,25.3217305" fill="none" instance-id="1" semantic-id="32" stroke="rgb(178,178,0)" stroke-width="0.1"/>
  <path d="M 1.731958000000077,22.42473050000001 L 11.200958000000014,22.322730500000034" fill="none" instance-id="1" semantic-id="32" stroke="rgb(178,178,0)" stroke-width="0.1"/>
  <path d="M 1.6989580000000615,19.42473050000001 L 11.168958000000089,19.322730500000034" fill="none" instance-id="1" semantic-id="32" stroke="rgb(178,178,0)" stroke-width="0.1"/>
  <path d="M 14.07695799999999,10.86573050000004 L 13.959753330044691,0.0" fill="none" instance-id="1" semantic-id="32" stroke="rgb(178,178,0)" stroke-width="0.1"/>
  <path d="M 11.71995800000002,70.25973050000005 L 11.182957999999985,20.69273050000004" fill="none" instance-id="1" semantic-id="32" stroke="rgb(178,178,0)" stroke-width="0.1"/>
  <path d="M 0.3229580000000851,63.21073050000001 L 0.0,33.35294677450247" fill="none" instance-id="1" semantic-id="32" stroke="rgb(178,178,0)" stroke-width="0.1"/>
  <path d="M 0.0,1.9123300800000322 L 0.25995799999998326,1.9097305000000233" fill="none" instance-id="1" semantic-id="32" stroke="rgb(178,178,0)" stroke-width="0.1"/>
  <path d="M 0.25995799999998326,1.9097305000000233 L 0.9269580000000133,63.584730500000035" fill="none" instance-id="1" semantic-id="32" stroke="rgb(178,178,0)" stroke-width="0.1"/>
  <path d="M 2.185958000000028,64.36273050000005 L 1.5519580000000133,5.82773050000003" fill="none" instance-id="1" semantic-id="32" stroke="rgb(178,178,0)" stroke-width="0.1"/>
  <path d="M 1.5519580000000133,5.82773050000003 L 0.29395800000008876,5.113730500000031" fill="none" instance-id="1" semantic-id="32" stroke="rgb(178,178,0)" stroke-width="0.1"/>
  <path d="M 12.977958000000058,71.03873050000004 L 12.228958000000034,1.7797305000000279" fill="none" instance-id="1" semantic-id="32" stroke="rgb(178,178,0)" stroke-width="0.1"/>
  <path d="M 12.228958000000034,1.7797305000000279 L 12.828958000000057,1.7737305000000276" fill="none" instance-id="1" semantic-id="32" stroke="rgb(178,178,0)" stroke-width="0.1"/>
  <path d="M 12.828958000000057,1.7737305000000276 L 13.582958000000076,71.41173050000003" fill="none" instance-id="1" semantic-id="32" stroke="rgb(178,178,0)" stroke-width="0.1"/>
  <path d="M 12.263958000000002,4.983730500000036 L 11.020958000000064,5.724730500000021" fill="none" instance-id="1" semantic-id="32" stroke="rgb(178,178,0)" stroke-width="0.1"/>
  <path d="M 11.020958000000064,5.724730500000021 L 11.71995800000002,70.25973050000005" fill="none" instance-id="1" semantic-id="32" stroke="rgb(178,178,0)" stroke-width="0.1"/>
  <path d="M 14.739958000000001,72.12873050000002 L 14.022958000000017,5.824730500000015" fill="none" instance-id="1" semantic-id="32" stroke="rgb(178,178,0)" stroke-width="0.1"/>
  <path d="M 14.022958000000017,5.824730500000015 L 12.862958000000049,4.977730500000035" fill="none" instance-id="1" semantic-id="32" stroke="rgb(178,178,0)" stroke-width="0.1"/>
 </g>
 <g id="layer扶梯" inkscape:groupmode="layer" inkscape:label="扶梯">
  <path d="M 15.572247411154422,100.0 L 14.489974837331488,0.0" fill="none" stroke="rgb(0,178,178)" stroke-width="0.1"/>
 </g>
 <g id="layer轴网$0$DOTE" inkscape:groupmode="layer" inkscape:label="轴网$0$DOTE">
  <path d="M 0.0,91.88661402014912 L 4.068958000000066,90.69873050000001" fill="none" stroke="rgb(92,92,92)" stroke-width="0.1"/>
  <path d="M 0.0,76.76151981916922 L 6.784210155034884,100.0" fill="none" stroke="rgb(92,92,92)" stroke-width="0.1"/>
 </g>
</svg>