<?xml version="1.0" encoding="utf-8"?>
<svg style="background-color: #000;" version="1.1" viewBox="0 0 100.0 100.0" xmlns="http://www.w3.org/2000/svg" xmlns:inkscape="http://www.inkscape.org/namespaces/inkscape">
 <g id="layer!消防-疏散楼梯" inkscape:groupmode="layer" inkscape:label="!消防-疏散楼梯">
  <path d="M 51.777364000000006,13.168914500000028 L 56.080364,8.86591450000003" fill="none" stroke="rgb(53,107,0)" stroke-width="0.1"/>
  <path d="M 53.132363999999995,15.181914500000062 L 66.38736399999999,1.9269145000000663" fill="none" stroke="rgb(53,107,0)" stroke-width="0.1"/>
  <path d="M 54.487363999999985,17.19491449999998 L 71.68150419845091,0.0" fill="none" stroke="rgb(53,107,0)" stroke-width="0.1"/>
  <path d="M 55.842364,19.20691450000004 L 75.04927850000001,0.0" fill="none" stroke="rgb(53,107,0)" stroke-width="0.1"/>
  <path d="M 57.19736399999999,21.21991449999996 L 78.41727849999995,0.0" fill="none" stroke="rgb(53,107,0)" stroke-width="0.1"/>
  <path d="M 58.55236399999998,23.231914500000016 L 81.78427850000003,0.0" fill="none" stroke="rgb(53,107,0)" stroke-width="0.1"/>
  <path d="M 59.907364,25.24491450000005 L 85.15227850000005,0.0" fill="none" stroke="rgb(53,107,0)" stroke-width="0.1"/>
  <path d="M 61.26236399999999,27.25791449999997 L 88.52027849999999,0.0" fill="none" stroke="rgb(53,107,0)" stroke-width="0.1"/>
  <path d="M 62.61736400000001,29.269914500000027 L 91.88727850000004,0.0" fill="none" stroke="rgb(53,107,0)" stroke-width="0.1"/>
  <path d="M 63.972364,31.28291450000006 L 95.25527850000006,0.0" fill="none" stroke="rgb(53,107,0)" stroke-width="0.1"/>
  <path d="M 66.908364,31.713914499999987 L 98.62227850000002,0.0" fill="none" stroke="rgb(53,107,0)" stroke-width="0.1"/>
  <path d="M 69.561364,32.42891450000002 L 100.0,1.990278500000045" fill="none" stroke="rgb(53,107,0)" stroke-width="0.1"/>
  <path d="M 72.764364,32.59391449999998 L 100.0,5.358278499999983" fill="none" stroke="rgb(53,107,0)" stroke-width="0.1"/>
  <path d="M 83.07136399999999,25.65391450000004 L 100.0,8.725278500000059" fill="none" stroke="rgb(53,107,0)" stroke-width="0.1"/>
  <path d="M 93.37936400000001,18.713914499999987 L 100.0,12.093278499999997" fill="none" stroke="rgb(53,107,0)" stroke-width="0.1"/>
  <path d="M 51.126363999999995,12.201914500000044 L 69.24972636130477,0.0" fill="none" stroke="rgb(53,107,0)" stroke-width="0.1"/>
  <path d="M 100.0,14.256113228115396 L 70.63636399999999,34.0259145" fill="none" stroke="rgb(53,107,0)" stroke-width="0.1"/>
  <path d="M 70.63636399999999,34.0259145 L 68.402364,30.707914500000015" fill="none" stroke="rgb(53,107,0)" stroke-width="0.1"/>
  <path d="M 68.402364,30.707914500000015 L 65.08736400000001,32.939914499999986" fill="none" stroke="rgb(53,107,0)" stroke-width="0.1"/>
  <path d="M 65.08736400000001,32.939914499999986 L 51.126363999999995,12.201914500000044" fill="none" stroke="rgb(53,107,0)" stroke-width="0.1"/>
  <path d="M 51.126363999999995,12.201914500000044 L 65.08736400000001,32.939914499999986" fill="none" stroke="rgb(53,107,0)" stroke-width="0.1"/>
  <path d="M 65.08736400000001,32.939914499999986 L 68.402364,30.707914500000015" fill="none" stroke="rgb(53,107,0)" stroke-width="0.1"/>
  <path d="M 68.402364,30.707914500000015 L 70.63636399999999,34.0259145" fill="none" stroke="rgb(53,107,0)" stroke-width="0.1"/>
  <path d="M 70.63636399999999,34.0259145 L 100.0,14.256113228115396" fill="none" stroke="rgb(53,107,0)" stroke-width="0.1"/>
  <path d="M 69.24972636130477,0.0 L 51.126363999999995,12.201914500000044" fill="none" stroke="rgb(53,107,0)" stroke-width="0.1"/>
 </g>
 <g id="layer0-石材边线" inkscape:groupmode="layer" inkscape:label="0-石材边线">
  <path d="M 95.76961948708009,100.0 L 37.539364000000006,13.50891450000006" fill="none" stroke="rgb(255,73,12)" stroke-width="0.1"/>
  <path d="M 37.539364000000006,13.50891450000006 L 41.687364,10.71691450000003" fill="none" stroke="rgb(255,73,12)" stroke-width="0.1"/>
 </g>
 <g id="layer0-结构边线" inkscape:groupmode="layer" inkscape:label="0-结构边线">
  <path d="M 38.088973345454804,0.0 L 100.0,91.95816537677445" fill="none" stroke="rgb(178,0,178)" stroke-width="0.1"/>
  <path d="M 66.23736399999999,41.80991449999999 L 72.87336400000001,37.34191450000003" fill="none" stroke="rgb(178,0,178)" stroke-width="0.1"/>
  <path d="M 72.87336400000001,37.34191450000003 L 68.406364,30.705914500000063" fill="none" stroke="rgb(178,0,178)" stroke-width="0.1"/>
  <path d="M 61.769363999999996,35.17391450000002 L 68.406364,30.705914500000063" fill="none" stroke="rgb(178,0,178)" stroke-width="0.1"/>
  <path d="M 66.23736399999999,41.80991449999999 L 61.769363999999996,35.17391450000002" fill="none" stroke="rgb(178,0,178)" stroke-width="0.1"/>
 </g>
 <g id="layer0-金属格栅" inkscape:groupmode="layer" inkscape:label="0-金属格栅">
  <path d="M 41.80436399999999,5.517914499999961 L 39.31536399999999,7.193914500000005" fill="none" stroke="rgb(73,73,73)" stroke-width="0.1"/>
  <path d="M 39.31536399999999,7.193914500000005 L 39.03636399999999,6.778914500000042" fill="none" stroke="rgb(73,73,73)" stroke-width="0.1"/>
  <path d="M 39.03636399999999,6.778914500000042 L 41.525363999999996,5.1039144999999735" fill="none" stroke="rgb(73,73,73)" stroke-width="0.1"/>
  <path d="M 41.525363999999996,5.1039144999999735 L 41.80436399999999,5.517914499999961" fill="none" stroke="rgb(73,73,73)" stroke-width="0.1"/>
  <path d="M 49.622364000000005,17.131914499999993 L 47.134364000000005,18.80691450000006" fill="none" stroke="rgb(73,73,73)" stroke-width="0.1"/>
  <path d="M 47.134364000000005,18.80691450000006 L 46.85536400000001,18.391914499999984" fill="none" stroke="rgb(73,73,73)" stroke-width="0.1"/>
  <path d="M 46.85536400000001,18.391914499999984 L 49.34336400000001,16.71691450000003" fill="none" stroke="rgb(73,73,73)" stroke-width="0.1"/>
  <path d="M 49.34336400000001,16.71691450000003 L 49.622364000000005,17.131914499999993" fill="none" stroke="rgb(73,73,73)" stroke-width="0.1"/>
  <path d="M 57.44136399999999,28.74491450000005 L 54.95336399999999,30.419914500000004" fill="none" stroke="rgb(73,73,73)" stroke-width="0.1"/>
  <path d="M 54.95336399999999,30.419914500000004 L 54.67336399999999,30.005914500000017" fill="none" stroke="rgb(73,73,73)" stroke-width="0.1"/>
  <path d="M 54.67336399999999,30.005914500000017 L 57.162364,28.329914499999973" fill="none" stroke="rgb(73,73,73)" stroke-width="0.1"/>
  <path d="M 57.162364,28.329914499999973 L 57.44136399999999,28.74491450000005" fill="none" stroke="rgb(73,73,73)" stroke-width="0.1"/>
  <path d="M 65.26036400000001,40.35791449999999 L 62.771364000000005,42.03391450000004" fill="none" stroke="rgb(73,73,73)" stroke-width="0.1"/>
  <path d="M 62.771364000000005,42.03391450000004 L 62.49236400000001,41.61891449999996" fill="none" stroke="rgb(73,73,73)" stroke-width="0.1"/>
  <path d="M 62.49236400000001,41.61891449999996 L 64.98136399999999,39.943914500000005" fill="none" stroke="rgb(73,73,73)" stroke-width="0.1"/>
  <path d="M 64.98136399999999,39.943914500000005 L 65.26036400000001,40.35791449999999" fill="none" stroke="rgb(73,73,73)" stroke-width="0.1"/>
  <path d="M 73.079364,51.971914500000025 L 70.590364,53.64691449999998" fill="none" stroke="rgb(73,73,73)" stroke-width="0.1"/>
  <path d="M 70.590364,53.64691449999998 L 70.311364,53.231914500000016" fill="none" stroke="rgb(73,73,73)" stroke-width="0.1"/>
  <path d="M 70.311364,53.231914500000016 L 72.799364,51.55691450000006" fill="none" stroke="rgb(73,73,73)" stroke-width="0.1"/>
  <path d="M 72.799364,51.55691450000006 L 73.079364,51.971914500000025" fill="none" stroke="rgb(73,73,73)" stroke-width="0.1"/>
  <path d="M 80.89736400000001,63.58491449999997 L 78.40936400000001,65.25991450000004" fill="none" stroke="rgb(73,73,73)" stroke-width="0.1"/>
  <path d="M 78.40936400000001,65.25991450000004 L 78.12936400000001,64.84591450000005" fill="none" stroke="rgb(73,73,73)" stroke-width="0.1"/>
  <path d="M 78.12936400000001,64.84591450000005 L 80.61836399999999,63.169914500000004" fill="none" stroke="rgb(73,73,73)" stroke-width="0.1"/>
  <path d="M 80.61836399999999,63.169914500000004 L 80.89736400000001,63.58491449999997" fill="none" stroke="rgb(73,73,73)" stroke-width="0.1"/>
  <path d="M 88.716364,75.19791450000002 L 86.227364,76.87391450000007" fill="none" stroke="rgb(73,73,73)" stroke-width="0.1"/>
  <path d="M 86.227364,76.87391450000007 L 85.948364,76.45891449999999" fill="none" stroke="rgb(73,73,73)" stroke-width="0.1"/>
  <path d="M 85.948364,76.45891449999999 L 88.437364,74.78291450000006" fill="none" stroke="rgb(73,73,73)" stroke-width="0.1"/>
  <path d="M 88.437364,74.78291450000006 L 88.716364,75.19791450000002" fill="none" stroke="rgb(73,73,73)" stroke-width="0.1"/>
  <path d="M 96.53536399999999,86.81091449999997 L 94.04636399999998,88.48691450000001" fill="none" stroke="rgb(73,73,73)" stroke-width="0.1"/>
  <path d="M 94.04636399999998,88.48691450000001 L 93.76736399999999,88.07191450000005" fill="none" stroke="rgb(73,73,73)" stroke-width="0.1"/>
  <path d="M 93.76736399999999,88.07191450000005 L 96.25536399999999,86.39691449999998" fill="none" stroke="rgb(73,73,73)" stroke-width="0.1"/>
  <path d="M 96.25536399999999,86.39691449999998 L 96.53536399999999,86.81091449999997" fill="none" stroke="rgb(73,73,73)" stroke-width="0.1"/>
 </g>
 <g id="layerAXIS" inkscape:groupmode="layer" inkscape:label="AXIS">
  <path d="M 64.16736399999999,74.54691450000007 L 26.361307033767076,100.0" fill="none" stroke="rgb(0,178,0)" stroke-width="0.1"/>
  <path d="M 17.255363999999986,4.866914500000007 L 0.0,16.48431900282344" fill="none" stroke="rgb(0,178,0)" stroke-width="0.1"/>
 </g>
 <g id="layerCOLUMN" inkscape:groupmode="layer" inkscape:label="COLUMN">
  <path d="M 66.23736399999999,41.80991449999999 L 72.87336400000001,37.34191450000003" fill="none" stroke="rgb(178,178,0)" stroke-width="0.1"/>
  <path d="M 72.87336400000001,37.34191450000003 L 68.406364,30.705914500000063" fill="none" stroke="rgb(178,178,0)" stroke-width="0.1"/>
  <path d="M 68.406364,30.705914500000063 L 61.769363999999996,35.17391450000002" fill="none" stroke="rgb(178,178,0)" stroke-width="0.1"/>
  <path d="M 61.769363999999996,35.17391450000002 L 66.23736399999999,41.80991449999999" fill="none" stroke="rgb(178,178,0)" stroke-width="0.1"/>
 </g>
 <g id="layerCURTWALL" inkscape:groupmode="layer" inkscape:label="CURTWALL">
  <path d="M 34.47164434310619,0.0 L 100.0,97.33063820148902" fill="none" instance-id="-1" semantic-id="2" stroke="rgb(0,178,178)" stroke-width="0.1"/>
  <path d="M 35.67801555936637,0.0 L 100.0,95.5385711032028" fill="none" instance-id="-1" semantic-id="2" stroke="rgb(0,178,178)" stroke-width="0.1"/>
  <path d="M 94.461364,88.20791450000002 L 100.0,96.43468806784722" fill="none" instance-id="-1" semantic-id="2" stroke="rgb(0,178,178)" stroke-width="0.1"/>
 </g>
 <g id="layerDIM_LEAD" inkscape:groupmode="layer" inkscape:label="DIM_LEAD">
  <path d="M 98.822364,94.5019145 L 93.57742418245138,100.0" fill="none" stroke="rgb(0,178,0)" stroke-width="0.1"/>
  <path d="M 98.822364,94.5019145 L 93.57742418245138,100.0" fill="none" stroke="rgb(0,178,0)" stroke-width="0.1"/>
 </g>
 <g id="layerDIM_SYMB" inkscape:groupmode="layer" inkscape:label="DIM_SYMB">
  <path d="M 94.34936400000001,8.718914499999983 L 87.63036399999999,13.241914500000007" fill="none" stroke="rgb(0,178,0)" stroke-width="0.1"/>
  <path d="M 87.63036399999999,13.241914500000007 L 83.89736400000001,15.755914500000017" fill="none" stroke="rgb(0,178,0)" stroke-width="0.1"/>
  <path d="M 81.33631107054816,0.0 L 60.70236399999999,13.891914499999984" fill="none" stroke="rgb(0,178,0)" stroke-width="0.1"/>
  <path d="M 60.70236399999999,13.891914499999984 L 68.800364,25.919914500000004" fill="none" stroke="rgb(0,178,0)" stroke-width="0.1"/>
  <path d="M 68.800364,25.919914500000004 L 77.842364,19.83191450000004" fill="none" stroke="rgb(0,178,0)" stroke-width="0.1"/>
  <path d="M 77.842364,19.83191450000004 L 81.574364,17.318914500000005" fill="none" stroke="rgb(0,178,0)" stroke-width="0.1"/>
 </g>
 <g id="layerEVTR" inkscape:groupmode="layer" inkscape:label="EVTR">
  <path d="M 50.80402154233121,0.0 L 52.18436399999999,2.0389145000000326" fill="none" stroke="rgb(178,88,0)" stroke-width="0.1"/>
  <path d="M 52.18436399999999,2.0389145000000326 L 48.989363999999995,4.2019145000000435" fill="none" stroke="rgb(178,88,0)" stroke-width="0.1"/>
  <path d="M 48.989363999999995,4.2019145000000435 L 46.143966440308986,0.0" fill="none" stroke="rgb(178,88,0)" stroke-width="0.1"/>
  <path d="M 60.12324682693105,0.0 L 54.469363999999985,3.82791450000002" fill="none" stroke="rgb(178,88,0)" stroke-width="0.1"/>
  <path d="M 54.469363999999985,3.82791450000002 L 51.87746662513976,0.0" fill="none" stroke="rgb(178,88,0)" stroke-width="0.1"/>
  <path d="M 55.32932155942524,0.0 L 54.469363999999985,3.82791450000002" fill="none" stroke="rgb(178,88,0)" stroke-width="0.1"/>
 </g>
 <g id="layerPUB_HATCH" inkscape:groupmode="layer" inkscape:label="PUB_HATCH">
  <path d="M 100.0,13.05229622143247 L 70.08136400000001,33.193914500000005" fill="none" instance-id="-1" semantic-id="1" stroke="rgb(63,63,63)" stroke-width="0.1"/>
  <path d="M 70.08136400000001,33.193914500000005 L 72.87336400000001,37.34191450000003" fill="none" instance-id="-1" semantic-id="1" stroke="rgb(63,63,63)" stroke-width="0.1"/>
  <path d="M 72.87336400000001,37.34191450000003 L 100.0,19.079225985961102" fill="none" instance-id="-1" semantic-id="1" stroke="rgb(63,63,63)" stroke-width="0.1"/>
 </g>
 <g id="layerPUB_TEXT" inkscape:groupmode="layer" inkscape:label="PUB_TEXT">
  <text fill="rgb(0,0,0)" font-family="Noto Sans CJK SC" font-size="2" transform="rotate(-33.95,82.020364,49.54891450000002)" x="82.020364" y="49.54891450000002">
   新风机房
  </text>
  <text fill="rgb(0,0,0)" font-family="Noto Sans CJK SC" font-size="2" transform="rotate(-33.95,88.453364,72.76491450000003)" x="88.453364" y="72.76491450000003">
   剧场运营管理
  </text>
  <text fill="rgb(0,0,0)" font-family="Noto Sans CJK SC" font-size="2" transform="rotate(-33.95,46.52236400000001,3.095914500000049)" x="46.52236400000001" y="3.095914500000049">
   XDT7
  </text>
  <text fill="rgb(0,0,0)" font-family="Noto Sans CJK SC" font-size="2" transform="rotate(-33.95,57.545364000000006,16.49391449999996)" x="57.545364000000006" y="16.49391449999996">
   LT19
  </text>
  <text fill="rgb(0,0,0)" font-family="Noto Sans CJK SC" font-size="2" transform="rotate(-0.0,95.65536399999999,10.463914499999987)" x="95.65536399999999" y="10.463914499999987">
   上
  </text>
 </g>
 <g id="layerS-WALL-LINE" inkscape:groupmode="layer" inkscape:label="S-WALL-LINE">
  <path d="M 70.08136400000001,33.19491449999998 L 100.0,13.052544836732068" fill="none" instance-id="-1" semantic-id="1" stroke="rgb(178,178,0)" stroke-width="0.1"/>
  <path d="M 100.0,19.079225985961102 L 72.87336400000001,37.34191450000003" fill="none" instance-id="-1" semantic-id="1" stroke="rgb(178,178,0)" stroke-width="0.1"/>
  <path d="M 72.87336400000001,37.34191450000003 L 70.08136400000001,33.193914500000005" fill="none" instance-id="-1" semantic-id="1" stroke="rgb(178,178,0)" stroke-width="0.1"/>
 </g>
 <g id="layerSTAIR" inkscape:groupmode="layer" inkscape:label="STAIR">
  <path d="M 96.95736399999998,15.099914500000068 L 90.217364,19.637914499999965" fill="none" instance-id="4" semantic-id="30" stroke="rgb(178,88,0)" stroke-width="0.1"/>
  <path d="M 89.259364,20.28291450000006 L 78.376364,27.60991450000006" fill="none" instance-id="4" semantic-id="30" stroke="rgb(178,88,0)" stroke-width="0.1"/>
  <path d="M 96.95736399999998,15.099914500000068 L 89.753364,4.398914500000046" fill="none" instance-id="4" semantic-id="30" stroke="rgb(178,88,0)" stroke-width="0.1"/>
  <path d="M 94.63536400000001,16.663914500000033 L 87.430364,5.962914500000011" fill="none" instance-id="4" semantic-id="30" stroke="rgb(178,88,0)" stroke-width="0.1"/>
  <path d="M 92.312364,18.22691450000002 L 85.108364,7.526914499999975" fill="none" instance-id="4" semantic-id="30" stroke="rgb(178,88,0)" stroke-width="0.1"/>
  <path d="M 89.72436400000001,19.39691449999998 L 82.78536399999999,9.089914499999963" fill="none" instance-id="4" semantic-id="30" stroke="rgb(178,88,0)" stroke-width="0.1"/>
  <path d="M 87.66736399999999,21.354914500000064 L 85.81036399999999,18.596914500000025" fill="none" instance-id="4" semantic-id="30" stroke="rgb(178,88,0)" stroke-width="0.1"/>
  <path d="M 84.693364,16.937914500000034 L 80.46236400000001,10.653914500000042" fill="none" instance-id="4" semantic-id="30" stroke="rgb(178,88,0)" stroke-width="0.1"/>
  <path d="M 85.34436399999998,22.918914500000028 L 80.77936399999999,16.13691449999999" fill="none" instance-id="4" semantic-id="30" stroke="rgb(178,88,0)" stroke-width="0.1"/>
  <path d="M 79.662364,14.477914499999997 L 78.140364,12.217914500000006" fill="none" instance-id="4" semantic-id="30" stroke="rgb(178,88,0)" stroke-width="0.1"/>
  <path d="M 83.021364,24.481914500000016 L 75.817364,13.780914499999994" fill="none" instance-id="4" semantic-id="30" stroke="rgb(178,88,0)" stroke-width="0.1"/>
  <path d="M 80.699364,26.04591449999998 L 73.49436399999999,15.344914499999959" fill="none" instance-id="4" semantic-id="30" stroke="rgb(178,88,0)" stroke-width="0.1"/>
  <path d="M 78.376364,27.60991450000006 L 71.17236399999999,16.908914500000037" fill="none" instance-id="4" semantic-id="30" stroke="rgb(178,88,0)" stroke-width="0.1"/>
  <path d="M 89.418364,3.900914499999999 L 76.21236400000001,12.791914499999962" fill="none" instance-id="4" semantic-id="30" stroke="rgb(178,88,0)" stroke-width="0.1"/>
  <path d="M 75.25436400000001,13.436914500000057 L 70.83736400000001,16.41091449999999" fill="none" instance-id="4" semantic-id="30" stroke="rgb(178,88,0)" stroke-width="0.1"/>
  <path d="M 89.259364,20.28291450000006 L 83.203364,17.321914500000048" fill="none" instance-id="4" semantic-id="30" stroke="rgb(178,88,0)" stroke-width="0.1"/>
  <path d="M 90.217364,19.637914499999965 L 83.883364,16.54191449999996" fill="none" instance-id="4" semantic-id="30" stroke="rgb(178,88,0)" stroke-width="0.1"/>
  <path d="M 83.883364,16.54191449999996 L 82.711364,17.88691449999999" fill="none" instance-id="4" semantic-id="30" stroke="rgb(178,88,0)" stroke-width="0.1"/>
  <path d="M 82.711364,17.88691449999999 L 82.99436399999999,15.211914500000034" fill="none" instance-id="4" semantic-id="30" stroke="rgb(178,88,0)" stroke-width="0.1"/>
  <path d="M 82.99436399999999,15.211914500000034 L 81.76836399999999,16.620914500000026" fill="none" instance-id="4" semantic-id="30" stroke="rgb(178,88,0)" stroke-width="0.1"/>
  <path d="M 81.76836399999999,16.620914500000026 L 75.25436400000001,13.436914500000057" fill="none" instance-id="4" semantic-id="30" stroke="rgb(178,88,0)" stroke-width="0.1"/>
  <path d="M 82.448364,15.839914499999963 L 76.21236400000001,12.791914499999962" fill="none" instance-id="4" semantic-id="30" stroke="rgb(178,88,0)" stroke-width="0.1"/>
  <path d="M 62.739363999999995,4.38291449999997 L 69.24927082050354,0.0" fill="none" instance-id="4" semantic-id="30" stroke="rgb(178,88,0)" stroke-width="0.1"/>
  <path d="M 62.739363999999995,4.38291449999997 L 69.943364,15.083914499999992" fill="none" instance-id="4" semantic-id="30" stroke="rgb(178,88,0)" stroke-width="0.1"/>
  <path d="M 65.061364,2.8189145000000053 L 72.26636400000001,13.519914500000027" fill="none" instance-id="4" semantic-id="30" stroke="rgb(178,88,0)" stroke-width="0.1"/>
  <path d="M 67.384364,1.2559145000000171 L 74.58836399999998,11.956914500000039" fill="none" instance-id="4" semantic-id="30" stroke="rgb(178,88,0)" stroke-width="0.1"/>
  <path d="M 69.91476965760205,0.0 L 76.91136399999999,10.39291449999996" fill="none" instance-id="4" semantic-id="30" stroke="rgb(178,88,0)" stroke-width="0.1"/>
  <path d="M 73.28984208873004,0.0 L 79.234364,8.828914499999996" fill="none" instance-id="4" semantic-id="30" stroke="rgb(178,88,0)" stroke-width="0.1"/>
  <path d="M 76.6651075459813,0.0 L 81.556364,7.264914500000032" fill="none" instance-id="4" semantic-id="30" stroke="rgb(178,88,0)" stroke-width="0.1"/>
  <path d="M 80.0407889081394,0.0 L 83.87936400000001,5.7019145000000435" fill="none" instance-id="4" semantic-id="30" stroke="rgb(178,88,0)" stroke-width="0.1"/>
  <path d="M 83.41629970951311,0.0 L 86.20236399999999,4.137914499999965" fill="none" instance-id="4" semantic-id="30" stroke="rgb(178,88,0)" stroke-width="0.1"/>
  <path d="M 86.79158388057189,0.0 L 88.52436399999999,2.5739145000000008" fill="none" instance-id="4" semantic-id="30" stroke="rgb(178,88,0)" stroke-width="0.1"/>
  <path d="M 70.27836400000001,15.581914500000039 L 88.859364,3.071914500000048" fill="none" instance-id="4" semantic-id="30" stroke="rgb(178,88,0)" stroke-width="0.1"/>
  <path d="M 89.02236400000001,2.2389144999999644 L 90.251364,4.06391450000001" fill="none" instance-id="4" semantic-id="30" stroke="rgb(178,88,0)" stroke-width="0.1"/>
  <path d="M 90.251364,4.06391450000001 L 76.835364,13.095914500000049" fill="none" instance-id="4" semantic-id="30" stroke="rgb(178,88,0)" stroke-width="0.1"/>
  <path d="M 75.877364,13.74091450000003 L 70.674364,17.24391449999996" fill="none" instance-id="4" semantic-id="30" stroke="rgb(178,88,0)" stroke-width="0.1"/>
  <path d="M 70.674364,17.24391449999996 L 69.44536399999998,15.418914500000028" fill="none" instance-id="4" semantic-id="30" stroke="rgb(178,88,0)" stroke-width="0.1"/>
  <path d="M 69.44536399999998,15.418914500000028 L 89.02236400000001,2.2389144999999644" fill="none" instance-id="4" semantic-id="30" stroke="rgb(178,88,0)" stroke-width="0.1"/>
  <path d="M 88.859364,3.071914500000048 L 89.418364,3.900914499999999" fill="none" instance-id="4" semantic-id="30" stroke="rgb(178,88,0)" stroke-width="0.1"/>
  <path d="M 89.418364,3.900914499999999 L 76.21236400000001,12.791914499999962" fill="none" instance-id="4" semantic-id="30" stroke="rgb(178,88,0)" stroke-width="0.1"/>
  <path d="M 75.25436400000001,13.436914500000057 L 70.83736400000001,16.41091449999999" fill="none" instance-id="4" semantic-id="30" stroke="rgb(178,88,0)" stroke-width="0.1"/>
  <path d="M 70.83736400000001,16.41091449999999 L 70.27836400000001,15.581914500000039" fill="none" instance-id="4" semantic-id="30" stroke="rgb(178,88,0)" stroke-width="0.1"/>
  <path d="M 70.27836400000001,15.581914500000039 L 88.859364,3.071914500000048" fill="none" instance-id="4" semantic-id="30" stroke="rgb(178,88,0)" stroke-width="0.1"/>
  <path d="M 62.739363999999995,4.38291449999997 L 51.126363999999995,12.201914500000044" fill="none" instance-id="4" semantic-id="30" stroke="rgb(178,88,0)" stroke-width="0.1"/>
  <path d="M 51.126363999999995,12.201914500000044 L 65.08736400000001,32.939914499999986" fill="none" instance-id="4" semantic-id="30" stroke="rgb(178,88,0)" stroke-width="0.1"/>
  <path d="M 70.08136400000001,33.19491449999998 L 78.376364,27.60991450000006" fill="none" instance-id="4" semantic-id="30" stroke="rgb(178,88,0)" stroke-width="0.1"/>
  <path d="M 78.376364,27.60991450000006 L 71.17236399999999,16.908914500000037" fill="none" instance-id="4" semantic-id="30" stroke="rgb(178,88,0)" stroke-width="0.1"/>
  <path d="M 69.943364,15.083914499999992 L 62.739363999999995,4.38291449999997" fill="none" instance-id="4" semantic-id="30" stroke="rgb(178,88,0)" stroke-width="0.1"/>
  <path d="M 70.83736400000001,16.41091449999999 L 70.27836400000001,15.581914500000039" fill="none" instance-id="4" semantic-id="30" stroke="rgb(178,88,0)" stroke-width="0.1"/>
  <path d="M 89.418364,3.900914499999999 L 88.859364,3.071914500000048" fill="none" instance-id="4" semantic-id="30" stroke="rgb(178,88,0)" stroke-width="0.1"/>
 </g>
 <g id="layerWALL" inkscape:groupmode="layer" inkscape:label="WALL">
  <path d="M 100.0,51.62456760415705 L 81.31436399999998,64.2039145" fill="none" instance-id="-1" semantic-id="1" stroke="rgb(178,178,0)" stroke-width="0.1"/>
  <path d="M 100.0,49.21316277871665 L 80.197364,62.544914500000004" fill="none" instance-id="-1" semantic-id="1" stroke="rgb(178,178,0)" stroke-width="0.1"/>
  <path d="M 81.31436399999998,64.2039145 L 80.197364,62.544914500000004" fill="none" instance-id="-1" semantic-id="1" stroke="rgb(178,178,0)" stroke-width="0.1"/>
  <path d="M 40.4612625321424,0.0 L 48.323364,11.677914500000043" fill="none" instance-id="-1" semantic-id="1" stroke="rgb(178,178,0)" stroke-width="0.1"/>
  <path d="M 38.050225987007906,0.0 L 47.222364,13.623914500000069" fill="none" instance-id="-1" semantic-id="1" stroke="rgb(178,178,0)" stroke-width="0.1"/>
  <path d="M 49.44036399999999,13.336914500000034 L 51.115364,15.824914499999977" fill="none" instance-id="-1" semantic-id="1" stroke="rgb(178,178,0)" stroke-width="0.1"/>
  <path d="M 47.222364,13.623914500000069 L 49.45636400000001,16.941914500000053" fill="none" instance-id="-1" semantic-id="1" stroke="rgb(178,178,0)" stroke-width="0.1"/>
  <path d="M 51.115364,15.824914499999977 L 49.45636400000001,16.941914500000053" fill="none" instance-id="-1" semantic-id="1" stroke="rgb(178,178,0)" stroke-width="0.1"/>
  <path d="M 69.25003224190846,0.0 L 49.44036399999999,13.336914500000034" fill="none" instance-id="-1" semantic-id="1" stroke="rgb(178,178,0)" stroke-width="0.1"/>
  <path d="M 65.66874943990541,0.0 L 48.323364,11.677914500000043" fill="none" instance-id="-1" semantic-id="1" stroke="rgb(178,178,0)" stroke-width="0.1"/>
 </g>
</svg>