<?xml version="1.0" encoding="utf-8"?>
<svg style="background-color: #000;" version="1.1" viewBox="0 0 100.0 100.0" xmlns="http://www.w3.org/2000/svg" xmlns:inkscape="http://www.inkscape.org/namespaces/inkscape">
 <g id="layer0" inkscape:groupmode="layer" inkscape:label="0">
  <path d="M 38.50436400000001,37.43491449999999 L 100.0,13.53198011625625" fill="none" stroke="rgb(0,0,0)" stroke-width="0.1"/>
  <path d="M 100.0,27.06369044847088 L 52.89536399999997,58.79691450000007" fill="none" stroke="rgb(0,0,0)" stroke-width="0.1"/>
  <path d="M 52.89536399999997,58.79691450000007 L 80.65294527665344,100.0" fill="none" stroke="rgb(0,0,0)" stroke-width="0.1"/>
 </g>
 <g id="layer0-结构边线" inkscape:groupmode="layer" inkscape:label="0-结构边线">
  <path d="M 22.220364000000018,54.43191450000006 L 28.857364000000018,49.96391449999999" fill="none" stroke="rgb(178,0,178)" stroke-width="0.1"/>
  <path d="M 28.857364000000018,49.96391449999999 L 23.272363999999982,41.66891450000003" fill="none" stroke="rgb(178,0,178)" stroke-width="0.1"/>
  <path d="M 16.636364000000015,46.13691449999999 L 23.272363999999982,41.66891450000003" fill="none" stroke="rgb(178,0,178)" stroke-width="0.1"/>
  <path d="M 22.220364000000018,54.43191450000006 L 16.636364000000015,46.13691449999999" fill="none" stroke="rgb(178,0,178)" stroke-width="0.1"/>
  <path d="M 62.437364,23.741914500000007 L 70.733364,18.14691449999998" fill="none" stroke="rgb(178,0,178)" stroke-width="0.1"/>
  <path d="M 70.733364,18.14691449999998 L 66.822364,12.349914500000068" fill="none" stroke="rgb(178,0,178)" stroke-width="0.1"/>
  <path d="M 58.52736399999998,17.94491449999998 L 66.822364,12.349914500000068" fill="none" stroke="rgb(178,0,178)" stroke-width="0.1"/>
  <path d="M 62.437364,23.741914500000007 L 58.52736399999998,17.94491449999998" fill="none" stroke="rgb(178,0,178)" stroke-width="0.1"/>
 </g>
 <g id="layer00 中心线" inkscape:groupmode="layer" inkscape:label="00 中心线">
  <path d="M 68.85136399999999,47.14391450000005 L 100.0,26.172824650652615" fill="none" stroke="rgb(178,0,178)" stroke-width="0.1"/>
  <path d="M 78.94636400000002,10.208914499999992 L 92.48936400000002,30.324914499999977" fill="none" stroke="rgb(178,0,178)" stroke-width="0.1"/>
  <path d="M 81.84936399999998,8.25491450000004 L 95.39336400000002,28.370914500000026" fill="none" stroke="rgb(178,0,178)" stroke-width="0.1"/>
  <path d="M 80.39836400000002,9.231914500000016 L 93.94136400000002,29.3479145" fill="none" stroke="rgb(178,0,178)" stroke-width="0.1"/>
 </g>
 <g id="layer00 舞台工艺" inkscape:groupmode="layer" inkscape:label="00 舞台工艺">
  <path d="M 69.269364,47.76591450000001 L 100.0,27.076388900725306" fill="none" stroke="rgb(178,0,0)" stroke-width="0.1"/>
  <path d="M 68.432364,46.52191449999998 L 100.0,25.26872925980217" fill="none" stroke="rgb(178,0,0)" stroke-width="0.1"/>
  <path d="M 70.43136399999997,46.98391449999997 L 70.12136399999997,46.523914500000046" fill="none" stroke="rgb(178,0,0)" stroke-width="0.1"/>
  <path d="M 69.35236400000002,47.70991449999997 L 69.269364,47.76591450000001" fill="none" stroke="rgb(178,0,0)" stroke-width="0.1"/>
  <path d="M 69.04236400000002,47.249914500000045 L 69.35236400000002,47.70991449999997" fill="none" stroke="rgb(178,0,0)" stroke-width="0.1"/>
  <path d="M 69.89936399999999,46.48091450000004 L 69.086364,47.027914500000065" fill="none" stroke="rgb(178,0,0)" stroke-width="0.1"/>
  <path d="M 70.514364,46.92891450000002 L 70.43136399999997,46.98391449999997" fill="none" stroke="rgb(178,0,0)" stroke-width="0.1"/>
  <path d="M 69.59336400000001,45.739914500000054 L 69.90336400000001,46.19991449999998" fill="none" stroke="rgb(178,0,0)" stroke-width="0.1"/>
  <path d="M 68.82536399999998,46.925914499999976 L 68.51536399999998,46.46591450000005" fill="none" stroke="rgb(178,0,0)" stroke-width="0.1"/>
  <path d="M 69.860364,46.42291450000005 L 69.04736400000002,46.96991449999996" fill="none" stroke="rgb(178,0,0)" stroke-width="0.1"/>
  <path d="M 69.67636399999998,45.683914500000014 L 69.59336400000001,45.739914500000054" fill="none" stroke="rgb(178,0,0)" stroke-width="0.1"/>
  <path d="M 69.67636399999998,45.683914500000014 L 70.514364,46.92891450000002" fill="none" stroke="rgb(178,0,0)" stroke-width="0.1"/>
  <path d="M 68.51536399999998,46.46591450000005 L 68.432364,46.52191449999998" fill="none" stroke="rgb(178,0,0)" stroke-width="0.1"/>
  <path d="M 68.432364,46.52191449999998 L 69.269364,47.76591450000001" fill="none" stroke="rgb(178,0,0)" stroke-width="0.1"/>
  <path d="M 95.31836399999997,30.228914499999973 L 95.00836399999997,29.76891450000005" fill="none" stroke="rgb(178,0,0)" stroke-width="0.1"/>
  <path d="M 94.23936400000002,30.954914499999973 L 94.156364,31.010914500000013" fill="none" stroke="rgb(178,0,0)" stroke-width="0.1"/>
  <path d="M 93.92936400000002,30.49491450000005 L 94.23936400000002,30.954914499999973" fill="none" stroke="rgb(178,0,0)" stroke-width="0.1"/>
  <path d="M 94.78636399999999,29.724914500000068 L 93.973364,30.27291450000007" fill="none" stroke="rgb(178,0,0)" stroke-width="0.1"/>
  <path d="M 95.401364,30.172914500000047 L 95.31836399999997,30.228914499999973" fill="none" stroke="rgb(178,0,0)" stroke-width="0.1"/>
  <path d="M 94.48036400000001,28.98491450000006 L 94.79036400000001,29.44491449999998" fill="none" stroke="rgb(178,0,0)" stroke-width="0.1"/>
  <path d="M 93.71236399999998,30.17091449999998 L 93.40236399999998,29.710914500000058" fill="none" stroke="rgb(178,0,0)" stroke-width="0.1"/>
  <path d="M 94.747364,29.66691449999996 L 93.93436400000002,30.214914499999963" fill="none" stroke="rgb(178,0,0)" stroke-width="0.1"/>
  <path d="M 94.56336399999998,28.92891450000002 L 94.48036400000001,28.98491450000006" fill="none" stroke="rgb(178,0,0)" stroke-width="0.1"/>
  <path d="M 94.56336399999998,28.92891450000002 L 95.401364,30.172914500000047" fill="none" stroke="rgb(178,0,0)" stroke-width="0.1"/>
  <path d="M 93.40236399999998,29.710914500000058 L 93.31936400000001,29.766914499999984" fill="none" stroke="rgb(178,0,0)" stroke-width="0.1"/>
  <path d="M 93.31936400000001,29.766914499999984 L 94.156364,31.010914500000013" fill="none" stroke="rgb(178,0,0)" stroke-width="0.1"/>
  <path d="M 70.12136399999997,46.523914500000046 A 0.16,0.16 0.0 0,0 69.89936399999999,46.48091450000004" fill="none" stroke="rgb(178,0,0)" stroke-width="0.1"/>
  <path d="M 69.086364,47.027914500000065 A 0.16,0.16 0.0 0,0 69.04236400000002,47.249914500000045" fill="none" stroke="rgb(178,0,0)" stroke-width="0.1"/>
  <path d="M 69.860364,46.42291450000005 A 0.16,0.16 0.0 0,0 69.90336400000001,46.19991449999998" fill="none" stroke="rgb(178,0,0)" stroke-width="0.1"/>
  <path d="M 68.82536399999998,46.925914499999976 A 0.16,0.16 0.0 0,0 69.04736400000002,46.96991449999996" fill="none" stroke="rgb(178,0,0)" stroke-width="0.1"/>
  <path d="M 95.00836399999997,29.76891450000005 A 0.16,0.16 0.0 0,0 94.78636399999999,29.724914500000068" fill="none" stroke="rgb(178,0,0)" stroke-width="0.1"/>
  <path d="M 93.973364,30.27291450000007 A 0.16,0.16 0.0 0,0 93.92936400000002,30.49491450000005" fill="none" stroke="rgb(178,0,0)" stroke-width="0.1"/>
  <path d="M 94.747364,29.66691449999996 A 0.16,0.16 0.0 0,0 94.79036400000001,29.44491449999998" fill="none" stroke="rgb(178,0,0)" stroke-width="0.1"/>
  <path d="M 93.71236399999998,30.17091449999998 A 0.16,0.16 0.0 0,0 93.93436400000002,30.214914499999963" fill="none" stroke="rgb(178,0,0)" stroke-width="0.1"/>
  <path d="M 78.324364,10.627914499999974 L 79.56836399999997,9.789914500000009" fill="none" stroke="rgb(178,0,0)" stroke-width="0.1"/>
  <path d="M 79.56836399999997,9.789914500000009 L 93.11136399999998,29.905914499999994" fill="none" stroke="rgb(178,0,0)" stroke-width="0.1"/>
  <path d="M 93.11136399999998,29.905914499999994 L 91.86736400000001,30.74391449999996" fill="none" stroke="rgb(178,0,0)" stroke-width="0.1"/>
  <path d="M 91.86736400000001,30.74391449999996 L 78.324364,10.627914499999974" fill="none" stroke="rgb(178,0,0)" stroke-width="0.1"/>
  <path d="M 81.22736400000002,8.673914500000024 L 82.47236399999997,7.835914500000058" fill="none" stroke="rgb(178,0,0)" stroke-width="0.1"/>
  <path d="M 82.47236399999997,7.835914500000058 L 96.01536399999998,27.951914500000044" fill="none" stroke="rgb(178,0,0)" stroke-width="0.1"/>
  <path d="M 96.01536399999998,27.951914500000044 L 94.77036399999997,28.788914500000033" fill="none" stroke="rgb(178,0,0)" stroke-width="0.1"/>
  <path d="M 94.77036399999997,28.788914500000033 L 81.22736400000002,8.673914500000024" fill="none" stroke="rgb(178,0,0)" stroke-width="0.1"/>
  <path d="M 33.642363999999986,34.69091449999996 L 23.58936399999999,19.75891450000006" fill="none" stroke="rgb(178,0,0)" stroke-width="0.1"/>
  <path d="M 23.58936399999999,19.75891450000006 L 52.93817668820088,0.0" fill="none" stroke="rgb(178,0,0)" stroke-width="0.1"/>
  <path d="M 38.613806274738465,0.0 L 19.122364000000005,13.122914499999979" fill="none" stroke="rgb(178,0,0)" stroke-width="0.1"/>
  <path d="M 19.122364000000005,13.122914499999979 L 10.28725852126098,0.0" fill="none" stroke="rgb(178,0,0)" stroke-width="0.1"/>
  <path d="M 33.22736400000002,34.96991449999996 L 22.895363999999972,19.62391450000007" fill="none" stroke="rgb(178,0,0)" stroke-width="0.1"/>
  <path d="M 22.895363999999972,19.62391450000007 L 52.04365505970219,0.0" fill="none" stroke="rgb(178,0,0)" stroke-width="0.1"/>
  <path d="M 39.509254343464306,0.0 L 18.98636399999998,13.816914500000053" fill="none" stroke="rgb(178,0,0)" stroke-width="0.1"/>
  <path d="M 18.98636399999998,13.816914500000053 L 9.684031612070726,0.0" fill="none" stroke="rgb(178,0,0)" stroke-width="0.1"/>
 </g>
 <g id="layerCOLUMN" inkscape:groupmode="layer" inkscape:label="COLUMN">
  <path d="M 22.220364000000018,54.43191450000006 L 28.857364000000018,49.96391449999999" fill="none" stroke="rgb(178,178,0)" stroke-width="0.1"/>
  <path d="M 28.857364000000018,49.96391449999999 L 23.272363999999982,41.66891450000003" fill="none" stroke="rgb(178,178,0)" stroke-width="0.1"/>
  <path d="M 23.272363999999982,41.66891450000003 L 16.636364000000015,46.13691449999999" fill="none" stroke="rgb(178,178,0)" stroke-width="0.1"/>
  <path d="M 16.636364000000015,46.13691449999999 L 22.220364000000018,54.43191450000006" fill="none" stroke="rgb(178,178,0)" stroke-width="0.1"/>
  <path d="M 62.437364,23.741914500000007 L 70.733364,18.14691449999998" fill="none" stroke="rgb(178,178,0)" stroke-width="0.1"/>
  <path d="M 70.733364,18.14691449999998 L 66.822364,12.349914500000068" fill="none" stroke="rgb(178,178,0)" stroke-width="0.1"/>
  <path d="M 66.822364,12.349914500000068 L 58.52736399999998,17.94491449999998" fill="none" stroke="rgb(178,178,0)" stroke-width="0.1"/>
  <path d="M 58.52736399999998,17.94491449999998 L 62.437364,23.741914500000007" fill="none" stroke="rgb(178,178,0)" stroke-width="0.1"/>
 </g>
 <g id="layerDIM_ELEV" inkscape:groupmode="layer" inkscape:label="DIM_ELEV">
  <path d="M 68.997364,93.39191449999998 L 62.751364000000024,92.17191450000007" fill="none" stroke="rgb(0,178,0)" stroke-width="0.1"/>
  <path d="M 68.997364,93.39191449999998 L 70.21736399999998,87.1459145" fill="none" stroke="rgb(0,178,0)" stroke-width="0.1"/>
  <path d="M 62.751364000000024,92.17191450000007 L 80.127364,80.47391449999998" fill="none" stroke="rgb(0,178,0)" stroke-width="0.1"/>
 </g>
 <g id="layerDIM_LEAD" inkscape:groupmode="layer" inkscape:label="DIM_LEAD">
  <path d="M 35.02436399999999,7.426914500000066 L 35.64403743890398,0.0" fill="none" stroke="rgb(0,178,0)" stroke-width="0.1"/>
 </g>
 <g id="layerDIM_SYMB" inkscape:groupmode="layer" inkscape:label="DIM_SYMB">
  <path d="M 50.050364,67.99791449999998 L 40.276364,53.481914500000016" fill="none" stroke="rgb(0,178,0)" stroke-width="0.1"/>
  <path d="M 40.276364,53.481914500000016 L 37.763364000000024,49.74891450000007" fill="none" stroke="rgb(0,178,0)" stroke-width="0.1"/>
 </g>
 <g id="layerDOOR_FIRE" inkscape:groupmode="layer" inkscape:label="DOOR_FIRE">
  <path d="M 37.54236400000002,82.09591450000005 L 37.263364000000024,81.68091449999997" fill="none" instance-id="1" semantic-id="3" stroke="rgb(0,178,178)" stroke-width="0.1"/>
  <path d="M 45.35136399999999,76.23591450000004 L 45.630363999999986,76.6509145" fill="none" instance-id="1" semantic-id="3" stroke="rgb(0,178,178)" stroke-width="0.1"/>
  <path d="M 45.35136399999999,76.23591450000004 L 37.263364000000024,81.68091449999997" fill="none" instance-id="1" semantic-id="3" stroke="rgb(0,178,178)" stroke-width="0.1"/>
  <path d="M 45.630363999999986,76.6509145 L 37.54236400000002,82.09591450000005" fill="none" instance-id="1" semantic-id="3" stroke="rgb(0,178,178)" stroke-width="0.1"/>
  <path d="M 37.545364000000006,82.09391449999998 A 9.75,9.75 0.0 0,0 50.93536399999999,84.53191449999997" fill="none" instance-id="1" semantic-id="3" stroke="rgb(0,178,178)" stroke-width="0.1"/>
 </g>
 <g id="layerDOOR_FIRE_TEXT" inkscape:groupmode="layer" inkscape:label="DOOR_FIRE_TEXT">
  <text fill="rgb(0,0,0)" font-family="Noto Sans CJK SC" font-size="2" transform="rotate(-303.949,43.79436399999997,70.84691450000003)" x="43.79436399999997" y="70.84691450000003">
   FM
  </text>
  <text fill="rgb(0,0,0)" font-family="Noto Sans CJK SC" font-size="2" transform="rotate(-303.949,47.547364000000016,76.42191450000007)" x="47.547364000000016" y="76.42191450000007">
   甲
  </text>
  <text fill="rgb(0,0,0)" font-family="Noto Sans CJK SC" font-size="2" transform="rotate(-303.949,49.892363999999986,79.9059145)" x="49.892363999999986" y="79.9059145">
   1021
  </text>
 </g>
 <g id="layerLVTRY" inkscape:groupmode="layer" inkscape:label="LVTRY">
  <path d="M 14.078364000000022,84.77391450000005 L 10.640363999999977,87.08891449999999" fill="none" instance-id="3" semantic-id="29" stroke="rgb(0,0,0)" stroke-width="0.1"/>
  <path d="M 12.152363999999977,81.91191449999997 L 8.713364000000013,84.22691450000002" fill="none" instance-id="3" semantic-id="29" stroke="rgb(0,0,0)" stroke-width="0.1"/>
  <path d="M 14.133363999999972,84.67691450000007 L 12.263364000000024,81.89791450000007" fill="none" instance-id="3" semantic-id="29" stroke="rgb(0,0,0)" stroke-width="0.1"/>
  <path d="M 14.092363999999975,84.70491449999997 L 12.221363999999994,81.92591449999998" fill="none" instance-id="3" semantic-id="29" stroke="rgb(0,0,0)" stroke-width="0.1"/>
  <path d="M 15.489364000000023,83.82491449999998 L 13.562364000000002,80.96291450000001" fill="none" instance-id="3" semantic-id="29" stroke="rgb(0,0,0)" stroke-width="0.1"/>
  <path d="M 15.489364000000023,83.82491449999998 L 14.203364000000022,84.69091449999996" fill="none" instance-id="3" semantic-id="29" stroke="rgb(0,0,0)" stroke-width="0.1"/>
  <path d="M 13.562364000000002,80.96291450000001 L 12.276364000000001,81.8289145" fill="none" instance-id="3" semantic-id="29" stroke="rgb(0,0,0)" stroke-width="0.1"/>
  <path d="M 11.283364000000006,86.17791450000004 L 10.463364000000013,86.72991450000006" fill="none" instance-id="3" semantic-id="29" stroke="rgb(0,0,0)" stroke-width="0.1"/>
  <path d="M 9.785364000000015,83.98791449999999 L 8.993363999999985,84.5209145" fill="none" instance-id="3" semantic-id="29" stroke="rgb(0,0,0)" stroke-width="0.1"/>
  <path d="M 13.117786932692297,100.0 L 10.559364000000016,96.1989145" fill="none" stroke="rgb(0,0,0)" stroke-width="0.1"/>
  <path d="M 10.983363999999995,96.11291449999999 L 13.551363999999978,99.92691450000007" fill="none" instance-id="6" semantic-id="24" stroke="rgb(0,0,0)" stroke-width="0.1"/>
  <path d="M 16.98436399999997,86.04591449999998 L 11.509364000000005,89.73191450000002" fill="none" instance-id="6" semantic-id="24" stroke="rgb(0,0,0)" stroke-width="0.1"/>
  <path d="M 16.76036399999998,85.71391449999999 L 11.148364000000015,89.49191450000001" fill="none" instance-id="6" semantic-id="24" stroke="rgb(0,0,0)" stroke-width="0.1"/>
  <path d="M 10.559364000000016,96.1989145 L 11.148364000000015,89.49191450000001" fill="none" stroke="rgb(0,0,0)" stroke-width="0.1"/>
  <path d="M 6.763364000000024,97.23091450000004 L 2.98836399999999,99.77191449999998" fill="none" stroke="rgb(0,0,0)" stroke-width="0.1"/>
  <path d="M 6.72436399999998,97.7999145 L 3.61336399999999,99.89391450000005" fill="none" stroke="rgb(0,0,0)" stroke-width="0.1"/>
  <path d="M 3.59936399999998,99.96291450000001 L 3.62433696273564,100.0" fill="none" stroke="rgb(0,0,0)" stroke-width="0.1"/>
  <path d="M 8.266123021481803,100.0 L 6.793363999999997,97.81291450000003" fill="none" stroke="rgb(0,0,0)" stroke-width="0.1"/>
  <path d="M 2.975364000000013,99.84091450000005 L 3.0824293517826504,100.0" fill="none" stroke="rgb(0,0,0)" stroke-width="0.1"/>
  <path d="M 8.688159431748716,100.0 L 6.832363999999984,97.24391449999996" fill="none" stroke="rgb(0,0,0)" stroke-width="0.1"/>
  <path d="M 9.444364000000007,99.43991449999999 L 9.452363999999989,99.49891450000007" fill="none" stroke="rgb(0,0,0)" stroke-width="0.1"/>
  <path d="M 9.033364000000006,99.5499145 L 9.452363999999989,99.49891450000007" fill="none" stroke="rgb(0,0,0)" stroke-width="0.1"/>
  <path d="M 9.026364000000001,99.48991450000005 L 9.444364000000007,99.43991449999999" fill="none" stroke="rgb(0,0,0)" stroke-width="0.1"/>
  <path d="M 7.783364000000006,99.83191450000004 L 7.744364000000019,99.51391450000006" fill="none" stroke="rgb(0,0,0)" stroke-width="0.1"/>
  <path d="M 8.604363999999975,99.73291449999999 L 7.668363999999997,99.84591450000005" fill="none" stroke="rgb(0,0,0)" stroke-width="0.1"/>
  <path d="M 8.565363999999988,99.41491450000001 L 7.630363999999986,99.52791450000007" fill="none" stroke="rgb(0,0,0)" stroke-width="0.1"/>
  <path d="M 7.668363999999997,99.84591450000005 L 7.630363999999986,99.52791450000007" fill="none" stroke="rgb(0,0,0)" stroke-width="0.1"/>
  <path d="M 10.707363999999984,96.41891450000003 L 7.659363999999982,98.47191450000003" fill="none" stroke="rgb(0,0,0)" stroke-width="0.1"/>
  <path d="M 10.983363999999995,96.11291449999999 L 10.590364000000022,96.03591449999999" fill="none" stroke="rgb(0,0,0)" stroke-width="0.1"/>
  <path d="M 11.509364000000005,89.73191450000002 L 11.116363999999976,89.65491450000002" fill="none" stroke="rgb(0,0,0)" stroke-width="0.1"/>
  <path d="M 11.279363999999987,86.18091449999997 A 1.33763,1.33763 0.0 0,0 9.785364000000015,83.98791449999999" fill="none" instance-id="3" semantic-id="29" stroke="rgb(0,0,0)" stroke-width="0.1"/>
  <path d="M 14.133363999999972,84.67691450000007 A 0.05,0.05 0.0 0,0 14.203364000000022,84.69091449999996" fill="none" stroke="rgb(0,0,0)" stroke-width="0.1"/>
  <path d="M 14.078364000000022,84.77391450000005 A 0.05,0.05 0.0 0,0 14.092363999999975,84.70491449999997" fill="none" stroke="rgb(0,0,0)" stroke-width="0.1"/>
  <path d="M 12.276364000000001,81.8289145 A 0.05,0.05 0.0 0,0 12.263364000000024,81.89791450000007" fill="none" stroke="rgb(0,0,0)" stroke-width="0.1"/>
  <path d="M 12.221363999999994,81.92591449999998 A 0.05,0.05 0.0 0,0 12.152363999999977,81.91191449999997" fill="none" stroke="rgb(0,0,0)" stroke-width="0.1"/>
  <path d="M 8.993363999999985,84.5209145 A 1.33763,1.33763 0.0 0,0 10.463364000000013,86.72991450000006" fill="none" instance-id="3" semantic-id="29" stroke="rgb(0,0,0)" stroke-width="0.1"/>
  <path d="M 8.713364000000013,84.22691450000002 A 1.74077,1.74077 0.0 0,0 10.640363999999977,87.08891449999999" fill="none" instance-id="3" semantic-id="29" stroke="rgb(0,0,0)" stroke-width="0.1"/>
  <path d="M 6.832363999999984,97.24391449999996 A 0.05,0.05 0.0 0,0 6.763364000000024,97.23091450000004" fill="none" stroke="rgb(0,0,0)" stroke-width="0.1"/>
  <path d="M 2.98836399999999,99.77191449999998 A 0.05,0.05 0.0 0,0 2.975364000000013,99.84091450000005" fill="none" stroke="rgb(0,0,0)" stroke-width="0.1"/>
  <path d="M 6.793363999999997,97.81291450000003 A 0.05,0.05 0.0 0,0 6.72436399999998,97.7999145" fill="none" stroke="rgb(0,0,0)" stroke-width="0.1"/>
  <path d="M 3.61336399999999,99.89391450000005 A 0.05,0.05 0.0 0,0 3.59936399999998,99.96291450000001" fill="none" stroke="rgb(0,0,0)" stroke-width="0.1"/>
  <path d="M 7.180363999999997,93.7179145 A 9.21956,9.21956 0.0 0,0 10.590364000000022,96.03591449999999" fill="none" instance-id="4" semantic-id="3" stroke="rgb(0,0,0)" stroke-width="0.1"/>
  <path d="M 11.116363999999976,89.65491450000002 L 10.890363999999977,89.45791450000002" fill="none" stroke="rgb(0,0,0)" stroke-width="0.1"/>
  <path d="M 10.890363999999977,89.45791450000002 L 7.175364000000002,93.72391449999998" fill="none" instance-id="4" semantic-id="3" stroke="rgb(0,0,0)" stroke-width="0.1"/>
  <path d="M 7.175364000000002,93.72391449999998 L 7.401364000000001,93.92091449999998" fill="none" instance-id="4" semantic-id="3" stroke="rgb(0,0,0)" stroke-width="0.1"/>
  <path d="M 7.401364000000001,93.92091449999998 L 11.116363999999976,89.65491450000002" fill="none" instance-id="4" semantic-id="3" stroke="rgb(0,0,0)" stroke-width="0.1"/>
  <circle cx="18.797364000000016" cy="92.69091449999996" fill="none" instance-id="6" r="0.3" semantic-id="24" stroke="rgb(0,0,0)" stroke-width="0.1"/>
  <circle cx="8.791363999999987" cy="99.54891450000002" fill="none" r="0.24" stroke="rgb(0,0,0)" stroke-width="0.1"/>
  <circle cx="8.791363999999987" cy="99.54891450000002" fill="none" r="0.24" stroke="rgb(0,0,0)" stroke-width="0.1"/>
  <circle cx="8.791363999999987" cy="99.54891450000002" fill="none" r="0.24" stroke="rgb(0,0,0)" stroke-width="0.1"/>
 </g>
 <g id="layerM-INFO-ROOM-JZTZ" inkscape:groupmode="layer" inkscape:label="M-INFO-ROOM-JZTZ">
  <path d="M 17.035629962751898,100.0 L 22.96436399999999,95.03691449999997" fill="none" stroke="rgb(178,0,0)" stroke-width="0.1"/>
 </g>
 <g id="layerPUB_TEXT" inkscape:groupmode="layer" inkscape:label="PUB_TEXT">
  <text fill="rgb(0,0,0)" font-family="Noto Sans CJK SC" font-size="2" transform="rotate(-0.0,49.505363999999986,74.55391450000002)" x="49.505363999999986" y="74.55391450000002">
   下
  </text>
  <text fill="rgb(0,0,0)" font-family="Noto Sans CJK SC" font-size="2" transform="rotate(-33.95,66.43136399999997,87.79591449999998)" x="66.43136399999997" y="87.79591449999998">
   16.200
  </text>
 </g>
 <g id="layerS-XF-LG" inkscape:groupmode="layer" inkscape:label="S-XF-LG">
  <circle cx="23.251364000000024" cy="98.21891449999998" fill="none" r="0.6" stroke="rgb(178,88,0)" stroke-width="0.1"/>
 </g>
 <g id="layerSTAIR" inkscape:groupmode="layer" inkscape:label="STAIR">
  <path d="M 45.21336400000001,47.384914500000036 L 57.499364000000014,65.63391450000006" fill="none" instance-id="11" semantic-id="30" stroke="rgb(178,88,0)" stroke-width="0.1"/>
  <path d="M 45.21236399999998,47.384914500000036 L 32.771364000000005,55.76091450000001" fill="none" instance-id="11" semantic-id="30" stroke="rgb(178,88,0)" stroke-width="0.1"/>
  <path d="M 46.44136400000002,49.20991449999997 L 34.00036399999999,57.58591450000006" fill="none" instance-id="11" semantic-id="30" stroke="rgb(178,88,0)" stroke-width="0.1"/>
  <path d="M 47.66936399999997,51.03491450000001 L 35.229363999999975,59.41091449999999" fill="none" instance-id="11" semantic-id="30" stroke="rgb(178,88,0)" stroke-width="0.1"/>
  <path d="M 48.898364000000015,52.85991450000006 L 36.457363999999984,61.235914500000035" fill="none" instance-id="11" semantic-id="30" stroke="rgb(178,88,0)" stroke-width="0.1"/>
  <path d="M 50.127364,54.68491449999999 L 37.68636399999997,63.06091449999997" fill="none" instance-id="11" semantic-id="30" stroke="rgb(178,88,0)" stroke-width="0.1"/>
  <path d="M 51.35536400000001,56.509914500000036 L 38.91536400000001,64.88591450000001" fill="none" instance-id="11" semantic-id="30" stroke="rgb(178,88,0)" stroke-width="0.1"/>
  <path d="M 52.584363999999994,58.33491449999997 L 40.14336400000002,66.71091450000006" fill="none" instance-id="11" semantic-id="30" stroke="rgb(178,88,0)" stroke-width="0.1"/>
  <path d="M 53.81336399999998,60.15991450000001 L 41.372364000000005,68.53591449999999" fill="none" instance-id="11" semantic-id="30" stroke="rgb(178,88,0)" stroke-width="0.1"/>
  <path d="M 55.04136399999999,61.98491450000006 L 42.60036400000001,70.36091450000004" fill="none" instance-id="11" semantic-id="30" stroke="rgb(178,88,0)" stroke-width="0.1"/>
  <path d="M 56.27036399999997,63.80991449999999 L 43.829364,72.18591449999997" fill="none" instance-id="11" semantic-id="30" stroke="rgb(178,88,0)" stroke-width="0.1"/>
 </g>
 <g id="layerWALL" inkscape:groupmode="layer" inkscape:label="WALL">
  <path d="M 16.636364000000015,46.13691449999999 L 0.0,21.426557480690008" fill="none" instance-id="-1" semantic-id="1" stroke="rgb(178,178,0)" stroke-width="0.1"/>
  <path d="M 18.295364000000006,45.01991450000003 L 0.0,17.845408325560015" fill="none" instance-id="-1" semantic-id="1" stroke="rgb(178,178,0)" stroke-width="0.1"/>
  <path d="M 0.0,12.473832195674277 L 20.783364000000006,43.34391449999998" fill="none" instance-id="-1" semantic-id="1" stroke="rgb(178,178,0)" stroke-width="0.1"/>
  <path d="M 0.0,16.054988938676843 L 19.124364000000014,44.46091450000006" fill="none" instance-id="-1" semantic-id="1" stroke="rgb(178,178,0)" stroke-width="0.1"/>
  <path d="M 23.88736399999999,53.30991449999999 L 39.526364,76.54091449999999" fill="none" instance-id="-1" semantic-id="1" stroke="rgb(178,178,0)" stroke-width="0.1"/>
  <path d="M 22.228364,54.426914500000066 L 38.425364,78.48791449999999" fill="none" instance-id="-1" semantic-id="1" stroke="rgb(178,178,0)" stroke-width="0.1"/>
  <path d="M 38.97436399999998,79.31791450000003 L 38.418364,78.49191450000001" fill="none" instance-id="-1" semantic-id="1" stroke="rgb(178,178,0)" stroke-width="0.1"/>
  <path d="M 40.63336399999997,78.20091450000007 L 40.636364000000015,78.20491449999997" fill="none" stroke="rgb(178,178,0)" stroke-width="0.1"/>
  <path d="M 38.97436399999998,79.31791450000003 L 40.63336399999997,78.20091450000007" fill="none" instance-id="-1" semantic-id="1" stroke="rgb(178,178,0)" stroke-width="0.1"/>
  <path d="M 60.143486650966906,100.0 L 51.781363999999996,87.5789145" fill="none" instance-id="-1" semantic-id="1" stroke="rgb(178,178,0)" stroke-width="0.1"/>
  <path d="M 62.55481404110418,100.0 L 52.882363999999995,85.6319145" fill="none" instance-id="-1" semantic-id="1" stroke="rgb(178,178,0)" stroke-width="0.1"/>
  <path d="M 11.789363999999978,78.32991449999997 L 7.64136400000001,81.1219145" fill="none" instance-id="-1" semantic-id="1" stroke="rgb(178,178,0)" stroke-width="0.1"/>
  <path d="M 12.890363999999977,76.38291449999997 L 7.912364000000025,79.73391449999997" fill="none" instance-id="-1" semantic-id="1" stroke="rgb(178,178,0)" stroke-width="0.1"/>
  <path d="M 0.0,71.56194916086963 L 0.11036400000000413,71.72591450000004" fill="none" instance-id="-1" semantic-id="1" stroke="rgb(178,178,0)" stroke-width="0.1"/>
  <path d="M 0.11036400000000413,71.72591450000004 L 1.769363999999996,70.60891449999997" fill="none" instance-id="-1" semantic-id="1" stroke="rgb(178,178,0)" stroke-width="0.1"/>
  <path d="M 1.769363999999996,70.60891449999997 L 0.0,67.98041673774344" fill="none" instance-id="-1" semantic-id="1" stroke="rgb(178,178,0)" stroke-width="0.1"/>
  <path d="M 7.912364000000025,79.73391449999997 L 7.3543639999999755,78.90391450000004" fill="none" instance-id="-1" semantic-id="1" stroke="rgb(178,178,0)" stroke-width="0.1"/>
  <path d="M 7.3543639999999755,78.90391450000004 L 5.695363999999984,80.0209145" fill="none" instance-id="-1" semantic-id="1" stroke="rgb(178,178,0)" stroke-width="0.1"/>
  <path d="M 5.695363999999984,80.0209145 L 6.253363999999976,80.85091450000004" fill="none" instance-id="-1" semantic-id="1" stroke="rgb(178,178,0)" stroke-width="0.1"/>
  <path d="M 12.890363999999977,76.38291449999997 L 24.338364000000013,93.38891450000006" fill="none" instance-id="-1" semantic-id="1" stroke="rgb(178,178,0)" stroke-width="0.1"/>
  <path d="M 11.789363999999978,78.32991449999997 L 22.344363999999985,94.00791449999997" fill="none" instance-id="-1" semantic-id="1" stroke="rgb(178,178,0)" stroke-width="0.1"/>
  <path d="M 6.253363999999976,80.85091450000004 L 0.4443640000000073,84.76191449999999" fill="none" instance-id="-1" semantic-id="1" stroke="rgb(178,178,0)" stroke-width="0.1"/>
  <path d="M 0.4443640000000073,84.76191449999999 L 1.002364,85.59191450000003" fill="none" instance-id="-1" semantic-id="1" stroke="rgb(178,178,0)" stroke-width="0.1"/>
  <path d="M 1.002364,85.59191450000003 L 7.64136400000001,81.1219145" fill="none" instance-id="-1" semantic-id="1" stroke="rgb(178,178,0)" stroke-width="0.1"/>
  <path d="M 25.806363999999974,99.1509145 L 24.545111371529686,100.0" fill="none" instance-id="-1" semantic-id="1" stroke="rgb(178,178,0)" stroke-width="0.1"/>
  <path d="M 25.136364000000015,98.15491450000002 L 22.396130032532767,100.0" fill="none" instance-id="-1" semantic-id="1" stroke="rgb(178,178,0)" stroke-width="0.1"/>
  <path d="M 23.014364,95.00291449999997 L 15.59184786133352,100.0" fill="none" instance-id="-1" semantic-id="1" stroke="rgb(178,178,0)" stroke-width="0.1"/>
  <path d="M 22.344363999999985,94.00791449999997 L 13.443571810174944,100.0" fill="none" instance-id="-1" semantic-id="1" stroke="rgb(178,178,0)" stroke-width="0.1"/>
  <path d="M 25.136364000000015,98.15491450000002 L 23.014364,95.00291449999997" fill="none" instance-id="-1" semantic-id="1" stroke="rgb(178,178,0)" stroke-width="0.1"/>
  <path d="M 27.130363999999986,97.53591449999999 L 24.338364000000013,93.38891450000006" fill="none" instance-id="-1" semantic-id="1" stroke="rgb(178,178,0)" stroke-width="0.1"/>
  <path d="M 26.37799925019135,100.0 L 25.806363999999974,99.1509145" fill="none" instance-id="-1" semantic-id="1" stroke="rgb(178,178,0)" stroke-width="0.1"/>
  <path d="M 28.78926761575326,100.0 L 27.130363999999986,97.53591449999999" fill="none" instance-id="-1" semantic-id="1" stroke="rgb(178,178,0)" stroke-width="0.1"/>
  <path d="M 52.89835351437233,100.0 L 45.67836399999999,89.2759145" fill="none" instance-id="-1" semantic-id="1" stroke="rgb(178,178,0)" stroke-width="0.1"/>
  <path d="M 55.309280932660556,100.0 L 48.454364,89.81791450000003" fill="none" instance-id="-1" semantic-id="1" stroke="rgb(178,178,0)" stroke-width="0.1"/>
  <path d="M 62.675364,15.141914499999984 L 66.49936400000001,12.567914500000029" fill="none" instance-id="-1" semantic-id="1" stroke="rgb(178,178,0)" stroke-width="0.1"/>
  <path d="M 66.822364,12.349914500000068 L 85.16700382985658,0.0" fill="none" instance-id="-1" semantic-id="1" stroke="rgb(178,178,0)" stroke-width="0.1"/>
  <path d="M 67.94136400000002,14.00791449999997 L 88.74862817864266,0.0" fill="none" instance-id="-1" semantic-id="1" stroke="rgb(178,178,0)" stroke-width="0.1"/>
  <path d="M 68.497364,14.832914500000015 L 90.53026747715012,0.0" fill="none" instance-id="-1" semantic-id="1" stroke="rgb(178,178,0)" stroke-width="0.1"/>
  <path d="M 69.615364,16.49091450000003 L 94.11107099193572,0.0" fill="none" instance-id="-1" semantic-id="1" stroke="rgb(178,178,0)" stroke-width="0.1"/>
  <path d="M 24.944364000000007,44.152914500000065 L 60.19736399999999,20.42091449999998" fill="none" instance-id="-1" semantic-id="1" stroke="rgb(178,178,0)" stroke-width="0.1"/>
  <path d="M 26.070363999999984,45.80591449999997 L 61.31536399999999,22.078914499999996" fill="none" instance-id="-1" semantic-id="1" stroke="rgb(178,178,0)" stroke-width="0.1"/>
  <path d="M 45.67836399999999,89.2759145 L 50.66436399999998,85.9199145" fill="none" instance-id="-1" semantic-id="1" stroke="rgb(178,178,0)" stroke-width="0.1"/>
  <path d="M 48.454364,89.81791450000003 L 51.781363999999996,87.5789145" fill="none" instance-id="-1" semantic-id="1" stroke="rgb(178,178,0)" stroke-width="0.1"/>
  <path d="M 39.526364,76.54091449999999 L 42.846363999999994,74.30591449999997" fill="none" instance-id="-1" semantic-id="1" stroke="rgb(178,178,0)" stroke-width="0.1"/>
  <path d="M 40.636364000000015,78.20491449999997 L 43.96336400000001,75.96491449999996" fill="none" instance-id="-1" semantic-id="1" stroke="rgb(178,178,0)" stroke-width="0.1"/>
  <path d="M 52.882363999999995,85.6319145 L 51.76536399999998,83.9729145" fill="none" instance-id="-1" semantic-id="1" stroke="rgb(178,178,0)" stroke-width="0.1"/>
  <path d="M 51.76536399999998,83.9729145 L 50.106363999999985,85.08991449999996" fill="none" instance-id="-1" semantic-id="1" stroke="rgb(178,178,0)" stroke-width="0.1"/>
  <path d="M 50.106363999999985,85.08991449999996 L 50.66436399999998,85.9199145" fill="none" instance-id="-1" semantic-id="1" stroke="rgb(178,178,0)" stroke-width="0.1"/>
  <path d="M 43.96336400000001,75.96491449999996 L 44.521364000000005,76.7949145" fill="none" instance-id="-1" semantic-id="1" stroke="rgb(178,178,0)" stroke-width="0.1"/>
  <path d="M 44.521364000000005,76.7949145 L 46.180364,75.67791450000004" fill="none" instance-id="-1" semantic-id="1" stroke="rgb(178,178,0)" stroke-width="0.1"/>
  <path d="M 46.180364,75.67791450000004 L 45.06336399999998,74.01891450000005" fill="none" instance-id="-1" semantic-id="1" stroke="rgb(178,178,0)" stroke-width="0.1"/>
  <path d="M 42.846363999999994,74.30591449999997 L 27.206364000000008,51.07491449999998" fill="none" instance-id="-1" semantic-id="1" stroke="rgb(178,178,0)" stroke-width="0.1"/>
  <path d="M 45.06336399999998,74.01891450000005 L 26.070363999999984,45.80591449999997" fill="none" instance-id="-1" semantic-id="1" stroke="rgb(178,178,0)" stroke-width="0.1"/>
  <path d="M 23.272363999999982,41.66891450000003 L 62.675364,15.141914499999984" fill="none" instance-id="-1" semantic-id="1" stroke="rgb(178,178,0)" stroke-width="0.1"/>
  <path d="M 24.389364,43.32791450000002 L 59.64036399999998,19.59591450000005" fill="none" instance-id="-1" semantic-id="1" stroke="rgb(178,178,0)" stroke-width="0.1"/>
 </g>
 <g id="layerWINDOW" inkscape:groupmode="layer" inkscape:label="WINDOW">
  <path d="M 0.9403639999999882,71.16791450000005 L 1.2193639999999846,71.58191450000004" fill="none" stroke="rgb(0,178,0)" stroke-width="0.1"/>
  <path d="M 0.9403639999999882,71.16791450000005 L 0.0,71.80098596142432" fill="none" stroke="rgb(0,178,0)" stroke-width="0.1"/>
  <path d="M 1.2193639999999846,71.58191450000004 L 0.0,72.40281422551936" fill="none" stroke="rgb(0,178,0)" stroke-width="0.1"/>
  <path d="M 0.0,93.4991846098194 L 1.3433640000000082,94.1559145" fill="none" stroke="rgb(0,178,0)" stroke-width="0.1"/>
  <path d="M 0.32936834045352725,81.09589483754019 L 0.8307951153017825,81.12162882189466" fill="none" stroke="rgb(0,178,0)" stroke-width="0.1"/>
  <path d="M 0.8307951153017825,81.12162882189466 L 1.3328817967595228,81.12151573682695" fill="none" stroke="rgb(0,178,0)" stroke-width="0.1"/>
  <path d="M 1.3328817967595228,81.12151573682695 L 1.8342969285957338,81.09555588222145" fill="none" stroke="rgb(0,178,0)" stroke-width="0.1"/>
  <path d="M 1.8342969285957338,81.09555588222145 L 2.3337108354251654,81.04381809959773" fill="none" stroke="rgb(0,178,0)" stroke-width="0.1"/>
  <path d="M 2.3337108354251654,81.04381809959773 L 2.8297991488018397,80.96643958955394" fill="none" stroke="rgb(0,178,0)" stroke-width="0.1"/>
  <path d="M 2.8297991488018397,80.96643958955394 L 3.321246319239151,80.8636255479322" fill="none" stroke="rgb(0,178,0)" stroke-width="0.1"/>
  <path d="M 3.321246319239151,80.8636255479322 L 3.806749104844016,80.7356486216704" fill="none" stroke="rgb(0,178,0)" stroke-width="0.1"/>
  <path d="M 3.806749104844016,80.7356486216704 L 4.285020027312498,80.58284818578534" fill="none" stroke="rgb(0,178,0)" stroke-width="0.1"/>
  <path d="M 4.285020027312498,80.58284818578534 L 4.7547907861232375,80.40562944340229" fill="none" stroke="rgb(0,178,0)" stroke-width="0.1"/>
  <path d="M 4.7547907861232375,80.40562944340229 L 5.214815621874436,80.20446235121881" fill="none" stroke="rgb(0,178,0)" stroke-width="0.1"/>
  <path d="M 5.214815621874436,80.20446235121881 L 5.663874619845103,79.97988037325285" fill="none" stroke="rgb(0,178,0)" stroke-width="0.1"/>
  <path d="M 5.663874619845103,79.97988037325285 L 6.100776945019902,79.73247906617803" fill="none" stroke="rgb(0,178,0)" stroke-width="0.1"/>
  <path d="M 6.100776945019902,79.73247906617803 L 6.524363999999991,79.46291450000001" fill="none" stroke="rgb(0,178,0)" stroke-width="0.1"/>
  <path d="M 1.3433640000000082,94.1559145 A 9.0,9.0 0.0 0,0 0.7233640000000037,85.17691450000007" fill="none" stroke="rgb(0,178,0)" stroke-width="0.1"/>
 </g>
 <g id="layerWINDOW_TEXT" inkscape:groupmode="layer" inkscape:label="WINDOW_TEXT">
  <text fill="rgb(178,0,178)" font-family="Noto Sans CJK SC" font-size="2" transform="rotate(-303.949,1.5013640000000237,65.41391450000003)" x="1.5013640000000237" y="65.41391450000003">
   M1023
  </text>
 </g>
 <g id="layers-消火栓" inkscape:groupmode="layer" inkscape:label="s-消火栓">
  <path d="M 23.241363999999976,96.05591449999997 L 21.324364000000003,88.90891450000004" fill="none" stroke="rgb(178,88,0)" stroke-width="0.1"/>
  <path d="M 25.232364000000018,94.71591450000005 L 21.324364000000003,88.90891450000004" fill="none" stroke="rgb(178,88,0)" stroke-width="0.1"/>
  <path d="M 21.324364000000003,88.90891450000004 L 19.333364000000017,90.24891450000007" fill="none" stroke="rgb(178,88,0)" stroke-width="0.1"/>
  <path d="M 19.333364000000017,90.24891450000007 L 23.241363999999976,96.05591449999997" fill="none" stroke="rgb(178,88,0)" stroke-width="0.1"/>
  <path d="M 23.241363999999976,96.05591449999997 L 25.232364000000018,94.71591450000005" fill="none" stroke="rgb(178,88,0)" stroke-width="0.1"/>
  <path d="M 19.333364000000017,90.24891450000007 L 23.241363999999976,96.05591449999997" fill="none" stroke="rgb(178,88,0)" stroke-width="0.1"/>
  <path d="M 23.241363999999976,96.05591449999997 L 21.324364000000003,88.90891450000004" fill="none" stroke="rgb(178,88,0)" stroke-width="0.1"/>
  <path d="M 21.324364000000003,88.90891450000004 L 19.333364000000017,90.24891450000007" fill="none" stroke="rgb(178,88,0)" stroke-width="0.1"/>
 </g>
</svg>