<?xml version="1.0" encoding="utf-8"?>
<svg style="background-color: #000;" version="1.1" viewBox="0 0 100.0 100.0" xmlns="http://www.w3.org/2000/svg" xmlns:inkscape="http://www.inkscape.org/namespaces/inkscape">
 <g id="layer0" inkscape:groupmode="layer" inkscape:label="0">
  <path d="M 0.0,88.49275929274518 L 11.891217390509041,100.0" fill="none" stroke="rgb(0,0,0)" stroke-width="0.1"/>
 </g>
 <g id="layer0-结构边线" inkscape:groupmode="layer" inkscape:label="0-结构边线">
  <path d="M 64.47636399999999,3.9249145 L 70.30706304231023,0.0" fill="none" stroke="rgb(178,0,178)" stroke-width="0.1"/>
  <path d="M 64.47636399999999,3.9249145 L 61.833730186558114,0.0" fill="none" stroke="rgb(178,0,178)" stroke-width="0.1"/>
  <path d="M 0.0,48.53969423960211 L 1.991363999999976,47.1989145" fill="none" stroke="rgb(178,0,178)" stroke-width="0.1"/>
  <path d="M 1.991363999999976,47.1989145 L 0.0,44.24079201213692" fill="none" stroke="rgb(178,0,178)" stroke-width="0.1"/>
 </g>
 <g id="layerCOLUMN" inkscape:groupmode="layer" inkscape:label="COLUMN">
  <path d="M 0.0,48.53969423960211 L 1.991363999999976,47.1989145" fill="none" stroke="rgb(178,178,0)" stroke-width="0.1"/>
  <path d="M 1.991363999999976,47.1989145 L 0.0,44.24079201213692" fill="none" stroke="rgb(178,178,0)" stroke-width="0.1"/>
  <path d="M 64.47636399999999,3.9249145 L 70.30706304231023,0.0" fill="none" stroke="rgb(178,178,0)" stroke-width="0.1"/>
  <path d="M 61.833730186558114,0.0 L 64.47636399999999,3.9249145" fill="none" stroke="rgb(178,178,0)" stroke-width="0.1"/>
 </g>
 <g id="layerDOOR_FIRE" inkscape:groupmode="layer" inkscape:label="DOOR_FIRE">
  <path d="M 73.57836399999997,94.23691450000001 L 77.45818602614986,100.0" fill="none" stroke="rgb(0,178,178)" stroke-width="0.1"/>
  <path d="M 73.99336400000004,93.95791450000002 L 78.06101429024477,100.0" fill="none" stroke="rgb(0,178,178)" stroke-width="0.1"/>
  <path d="M 73.99336400000004,93.95791450000002 L 73.57836399999997,94.23691450000001" fill="none" stroke="rgb(0,178,178)" stroke-width="0.1"/>
  <path d="M 65.96790767076743,99.96652472911535 L 65.69836399999997,99.54291450000005" fill="none" stroke="rgb(0,178,178)" stroke-width="0.1"/>
  <path d="M 65.69836399999997,99.54291450000005 L 65.98940811996601,99.95209603374201" fill="none" stroke="rgb(0,178,178)" stroke-width="0.1"/>
 </g>
 <g id="layerDOOR_FIRE_TEXT" inkscape:groupmode="layer" inkscape:label="DOOR_FIRE_TEXT">
  <text fill="rgb(0,0,0)" font-family="Noto Sans CJK SC" font-size="2" transform="rotate(-33.9493,62.28436399999998,98.82691450000004)" x="62.28436399999998" y="98.82691450000004">
   2023-40
  </text>
 </g>
 <g id="layerM-INFO-ROOM-JZTZ" inkscape:groupmode="layer" inkscape:label="M-INFO-ROOM-JZTZ">
  <path d="M 1.4573639999999841,51.777914500000065 L 9.752363999999943,46.19291450000003" fill="none" stroke="rgb(178,0,0)" stroke-width="0.1"/>
  <path d="M 9.752363999999943,46.19291450000003 L 32.091364,79.37391450000007" fill="none" stroke="rgb(178,0,0)" stroke-width="0.1"/>
  <path d="M 32.091364,79.37391450000007 L 23.79636400000004,84.95891449999999" fill="none" stroke="rgb(178,0,0)" stroke-width="0.1"/>
  <path d="M 23.79636400000004,84.95891449999999 L 1.4573639999999841,51.777914500000065" fill="none" stroke="rgb(178,0,0)" stroke-width="0.1"/>
  <path d="M 94.89236400000004,43.7229145 L 82.60636399999999,25.473914499999978" fill="none" stroke="rgb(178,0,0)" stroke-width="0.1"/>
  <path d="M 82.60636399999999,25.473914499999978 L 75.96236399999998,29.946914500000048" fill="none" stroke="rgb(178,0,0)" stroke-width="0.1"/>
  <path d="M 75.96236399999998,29.946914500000048 L 88.24836400000004,48.19591450000007" fill="none" stroke="rgb(178,0,0)" stroke-width="0.1"/>
  <path d="M 88.24836400000004,48.19591450000007 L 94.89236400000004,43.7229145" fill="none" stroke="rgb(178,0,0)" stroke-width="0.1"/>
  <path d="M 97.668364,44.26491450000003 L 83.14836400000002,22.697914500000024" fill="none" stroke="rgb(178,0,0)" stroke-width="0.1"/>
  <path d="M 83.14836400000002,22.697914500000024 L 73.18636400000003,29.404914500000018" fill="none" stroke="rgb(178,0,0)" stroke-width="0.1"/>
  <path d="M 73.18636400000003,29.404914500000018 L 87.70636400000001,50.971914500000025" fill="none" stroke="rgb(178,0,0)" stroke-width="0.1"/>
  <path d="M 87.70636400000001,50.971914500000025 L 97.668364,44.26491450000003" fill="none" stroke="rgb(178,0,0)" stroke-width="0.1"/>
  <path d="M 100.0,51.3092177023276 L 96.009364,45.38191449999999" fill="none" stroke="rgb(178,0,0)" stroke-width="0.1"/>
  <path d="M 96.009364,45.38191449999999 L 89.37336400000004,49.84991450000007" fill="none" stroke="rgb(178,0,0)" stroke-width="0.1"/>
  <path d="M 89.37336400000004,49.84991450000007 L 100.0,65.63486534115509" fill="none" stroke="rgb(178,0,0)" stroke-width="0.1"/>
  <path d="M 100.0,47.728146778552286 L 96.55136400000004,42.60591450000004" fill="none" stroke="rgb(178,0,0)" stroke-width="0.1"/>
  <path d="M 96.55136400000004,42.60591450000004 L 86.59736399999997,49.30791450000004" fill="none" stroke="rgb(178,0,0)" stroke-width="0.1"/>
  <path d="M 86.59736399999997,49.30791450000004 L 100.0,69.21601876373347" fill="none" stroke="rgb(178,0,0)" stroke-width="0.1"/>
  <path d="M 55.98816899809799,0.0 L 55.033364000000006,0.6429144999999608" fill="none" stroke="rgb(178,0,0)" stroke-width="0.1"/>
  <path d="M 55.033364000000006,0.6429144999999608 L 54.60054447489904,0.0" fill="none" stroke="rgb(178,0,0)" stroke-width="0.1"/>
  <path d="M 59.56974267017313,0.0 L 54.491363999999976,3.418914500000028" fill="none" stroke="rgb(178,0,0)" stroke-width="0.1"/>
  <path d="M 54.491363999999976,3.418914500000028 L 52.18967283943368,0.0" fill="none" stroke="rgb(178,0,0)" stroke-width="0.1"/>
  <path d="M 81.485364,23.816914500000053 L 66.96436400000005,2.2499145000000453" fill="none" stroke="rgb(178,0,0)" stroke-width="0.1"/>
  <path d="M 66.96436400000005,2.2499145000000453 L 60.328363999999965,6.717914500000006" fill="none" stroke="rgb(178,0,0)" stroke-width="0.1"/>
  <path d="M 60.328363999999965,6.717914500000006 L 74.84936400000004,28.284914500000014" fill="none" stroke="rgb(178,0,0)" stroke-width="0.1"/>
  <path d="M 74.84936400000004,28.284914500000014 L 81.485364,23.816914500000053" fill="none" stroke="rgb(178,0,0)" stroke-width="0.1"/>
  <path d="M 84.26136399999996,24.35891449999997 L 67.86057587673292,0.0" fill="none" stroke="rgb(178,0,0)" stroke-width="0.1"/>
  <path d="M 66.72500693240818,0.0 L 57.55236400000001,6.175914499999976" fill="none" stroke="rgb(178,0,0)" stroke-width="0.1"/>
  <path d="M 57.55236400000001,6.175914499999976 L 74.307364,31.060914499999967" fill="none" stroke="rgb(178,0,0)" stroke-width="0.1"/>
  <path d="M 74.307364,31.060914499999967 L 84.26136399999996,24.35891449999997" fill="none" stroke="rgb(178,0,0)" stroke-width="0.1"/>
  <path d="M 26.761363999999958,66.08591450000006 L 38.78936399999998,57.98791449999999" fill="none" stroke="rgb(178,0,0)" stroke-width="0.1"/>
  <path d="M 38.78936399999998,57.98791449999999 L 44.37336400000004,66.28291450000006" fill="none" stroke="rgb(178,0,0)" stroke-width="0.1"/>
  <path d="M 44.37336400000004,66.28291450000006 L 32.34536400000002,74.38091450000002" fill="none" stroke="rgb(178,0,0)" stroke-width="0.1"/>
  <path d="M 32.34536400000002,74.38091450000002 L 26.761363999999958,66.08591450000006" fill="none" stroke="rgb(178,0,0)" stroke-width="0.1"/>
  <path d="M 44.18136400000003,54.356914500000016 L 56.20936400000005,46.259914500000036" fill="none" stroke="rgb(178,0,0)" stroke-width="0.1"/>
  <path d="M 56.20936400000005,46.259914500000036 L 61.793364,54.554914499999995" fill="none" stroke="rgb(178,0,0)" stroke-width="0.1"/>
  <path d="M 61.793364,54.554914499999995 L 49.76536399999998,62.652914500000065" fill="none" stroke="rgb(178,0,0)" stroke-width="0.1"/>
  <path d="M 49.76536399999998,62.652914500000065 L 44.18136400000003,54.356914500000016" fill="none" stroke="rgb(178,0,0)" stroke-width="0.1"/>
  <path d="M 88.24836400000004,48.19591450000007 L 77.10836400000005,30.360914500000035" fill="none" stroke="rgb(178,0,0)" stroke-width="0.1"/>
  <path d="M 77.10836400000005,30.360914500000035 L 82.60636399999999,25.473914499999978" fill="none" stroke="rgb(178,0,0)" stroke-width="0.1"/>
  <path d="M 100.0,64.45766874637695 L 92.288364,49.73291449999999" fill="none" stroke="rgb(178,0,0)" stroke-width="0.1"/>
  <path d="M 92.288364,49.73291449999999 L 96.00636399999996,45.384914500000036" fill="none" stroke="rgb(178,0,0)" stroke-width="0.1"/>
  <path d="M 32.34536400000002,74.38091450000002 L 29.44836399999997,66.49191450000001" fill="none" stroke="rgb(178,0,0)" stroke-width="0.1"/>
  <path d="M 29.44836399999997,66.49191450000001 L 38.78936399999998,57.98791449999999" fill="none" stroke="rgb(178,0,0)" stroke-width="0.1"/>
  <path d="M 49.76536399999998,62.652914500000065 L 46.30736400000001,53.68291450000004" fill="none" stroke="rgb(178,0,0)" stroke-width="0.1"/>
  <path d="M 46.30736400000001,53.68291450000004 L 56.20936400000005,46.259914500000036" fill="none" stroke="rgb(178,0,0)" stroke-width="0.1"/>
  <path d="M 9.752363999999943,46.19291450000003 L 5.190364000000045,52.3529145" fill="none" stroke="rgb(178,0,0)" stroke-width="0.1"/>
  <path d="M 5.190364000000045,52.3529145 L 23.797364000000016,84.95791450000002" fill="none" stroke="rgb(178,0,0)" stroke-width="0.1"/>
  <path d="M 54.651810118398544,0.0 L 55.033364000000006,0.6429144999999608" fill="none" stroke="rgb(178,0,0)" stroke-width="0.1"/>
  <path d="M 74.85036400000001,28.284914500000014 L 62.77136399999995,7.782914500000061" fill="none" stroke="rgb(178,0,0)" stroke-width="0.1"/>
  <path d="M 62.77136399999995,7.782914500000061 L 66.96536400000002,2.2499145000000453" fill="none" stroke="rgb(178,0,0)" stroke-width="0.1"/>
  <text fill="rgb(178,0,0)" font-family="Noto Sans CJK SC" font-size="2" transform="rotate(-33.9489,52.341364,57.78591449999999)" x="52.341364" y="57.78591449999999">
   送风
  </text>
  <text fill="rgb(178,0,0)" font-family="Noto Sans CJK SC" font-size="2" transform="rotate(-33.9489,35.07136400000002,69.41291450000006)" x="35.07136400000002" y="69.41291450000006">
   回风
  </text>
  <text fill="rgb(178,0,0)" font-family="Noto Sans CJK SC" font-size="2" transform="rotate(-33.9489,15.068363999999974,66.7469145)" x="15.068363999999974" y="66.7469145">
   送风
  </text>
 </g>
 <g id="layerPUB_TEXT" inkscape:groupmode="layer" inkscape:label="PUB_TEXT">
  <text fill="rgb(0,0,0)" font-family="Noto Sans CJK SC" font-size="2" transform="rotate(-33.95,77.293364,39.1459145)" x="77.293364" y="39.1459145">
   排烟管井
  </text>
  <text fill="rgb(0,0,0)" font-family="Noto Sans CJK SC" font-size="2" transform="rotate(-33.95,90.68036399999994,57.61791449999998)" x="90.68036399999994" y="57.61791449999998">
   正压送风井
  </text>
  <text fill="rgb(0,0,0)" font-family="Noto Sans CJK SC" font-size="2" transform="rotate(-33.95,66.42336399999999,17.949914499999977)" x="66.42336399999999" y="17.949914499999977">
   水管井
  </text>
 </g>
 <g id="layerS-XF-LG" inkscape:groupmode="layer" inkscape:label="S-XF-LG">
  <circle cx="86.68936399999996" cy="86.78491450000001" fill="none" r="0.6" stroke="rgb(178,88,0)" stroke-width="0.1"/>
 </g>
 <g id="layerWALL" inkscape:groupmode="layer" inkscape:label="WALL">
  <path d="M 71.47997587093141,0.0 L 100.0,42.364082776330065" fill="none" instance-id="-1" semantic-id="1" stroke="rgb(178,178,0)" stroke-width="0.1"/>
  <path d="M 69.45436399999994,0.5729145000000244 L 100.0,45.945522977723044" fill="none" instance-id="-1" semantic-id="1" stroke="rgb(178,178,0)" stroke-width="0.1"/>
  <path d="M 23.71236399999998,90.20191450000004 L 30.308841135743023,100.0" fill="none" instance-id="-1" semantic-id="1" stroke="rgb(178,178,0)" stroke-width="0.1"/>
  <path d="M 22.888364000000024,92.55991449999999 L 27.897509744230774,100.0" fill="none" instance-id="-1" semantic-id="1" stroke="rgb(178,178,0)" stroke-width="0.1"/>
  <path d="M 68.62536399999999,1.1319144999999935 L 83.70336399999997,23.52891450000004" fill="none" instance-id="-1" semantic-id="1" stroke="rgb(178,178,0)" stroke-width="0.1"/>
  <path d="M 66.966364,2.248914500000069 L 81.48636399999998,23.816914500000053" fill="none" instance-id="-1" semantic-id="1" stroke="rgb(178,178,0)" stroke-width="0.1"/>
  <path d="M 74.85036400000001,28.284914500000014 L 81.48636399999998,23.816914500000053" fill="none" instance-id="-1" semantic-id="1" stroke="rgb(178,178,0)" stroke-width="0.1"/>
  <path d="M 75.96736399999998,29.943914500000005 L 82.60336399999994,25.475914500000044" fill="none" instance-id="-1" semantic-id="1" stroke="rgb(178,178,0)" stroke-width="0.1"/>
  <path d="M 88.25336400000003,48.19291450000003 L 94.889364,43.725914500000044" fill="none" instance-id="-1" semantic-id="1" stroke="rgb(178,178,0)" stroke-width="0.1"/>
  <path d="M 89.370364,49.85191450000002 L 96.00636399999996,45.384914500000036" fill="none" instance-id="-1" semantic-id="1" stroke="rgb(178,178,0)" stroke-width="0.1"/>
  <path d="M 75.96736399999998,29.943914500000005 L 88.25336400000003,48.19291450000003" fill="none" instance-id="-1" semantic-id="1" stroke="rgb(178,178,0)" stroke-width="0.1"/>
  <path d="M 73.74936400000001,30.23091450000004 L 87.15236400000003,50.13991450000003" fill="none" instance-id="-1" semantic-id="1" stroke="rgb(178,178,0)" stroke-width="0.1"/>
  <path d="M 89.370364,49.85191450000002 L 100.0,65.64204978856492" fill="none" instance-id="-1" semantic-id="1" stroke="rgb(178,178,0)" stroke-width="0.1"/>
  <path d="M 87.15236400000003,50.13991450000003 L 100.0,69.22362885518328" fill="none" instance-id="-1" semantic-id="1" stroke="rgb(178,178,0)" stroke-width="0.1"/>
  <path d="M 83.70336399999997,23.52891450000004 L 97.10636399999999,43.43791450000003" fill="none" instance-id="-1" semantic-id="1" stroke="rgb(178,178,0)" stroke-width="0.1"/>
  <path d="M 82.60336399999994,25.475914500000044 L 94.889364,43.725914500000044" fill="none" instance-id="-1" semantic-id="1" stroke="rgb(178,178,0)" stroke-width="0.1"/>
  <path d="M 97.10636399999999,43.43791450000003 L 100.0,47.73588208114893" fill="none" instance-id="-1" semantic-id="1" stroke="rgb(178,178,0)" stroke-width="0.1"/>
  <path d="M 96.00636399999996,45.384914500000036 L 100.0,51.316818214690784" fill="none" instance-id="-1" semantic-id="1" stroke="rgb(178,178,0)" stroke-width="0.1"/>
  <path d="M 60.33036400000003,6.71691450000003 L 74.85036400000001,28.284914500000014" fill="none" instance-id="-1" semantic-id="1" stroke="rgb(178,178,0)" stroke-width="0.1"/>
  <path d="M 57.554363999999964,6.1749145 L 73.74936400000001,30.23091450000004" fill="none" instance-id="-1" semantic-id="1" stroke="rgb(178,178,0)" stroke-width="0.1"/>
  <path d="M 0.0,54.981988302599575 L 23.71236399999998,90.20191450000004" fill="none" instance-id="-1" semantic-id="1" stroke="rgb(178,178,0)" stroke-width="0.1"/>
  <path d="M 0.0,58.563276891733835 L 21.68036399999994,90.76591450000001" fill="none" instance-id="-1" semantic-id="1" stroke="rgb(178,178,0)" stroke-width="0.1"/>
  <path d="M 55.033364000000006,0.6429144999999608 L 55.98823880349141,0.0" fill="none" instance-id="-1" semantic-id="1" stroke="rgb(178,178,0)" stroke-width="0.1"/>
  <path d="M 54.491363999999976,3.418914500000028 L 59.5692325367055,0.0" fill="none" instance-id="-1" semantic-id="1" stroke="rgb(178,178,0)" stroke-width="0.1"/>
  <path d="M 57.554363999999964,6.1749145 L 63.35936400000003,2.265914500000008" fill="none" instance-id="-1" semantic-id="1" stroke="rgb(178,178,0)" stroke-width="0.1"/>
  <path d="M 60.33036400000003,6.71691450000003 L 66.966364,2.248914500000069" fill="none" instance-id="-1" semantic-id="1" stroke="rgb(178,178,0)" stroke-width="0.1"/>
  <path d="M 54.60054447489904,0.0 L 55.033364000000006,0.6429144999999608" fill="none" instance-id="-1" semantic-id="1" stroke="rgb(178,178,0)" stroke-width="0.1"/>
  <path d="M 52.18969602959248,0.0 L 54.491363999999976,3.418914500000028" fill="none" instance-id="-1" semantic-id="1" stroke="rgb(178,178,0)" stroke-width="0.1"/>
  <path d="M 0.0,49.74500883279745 L 3.3793640000000096,47.46991449999996" fill="none" instance-id="-1" semantic-id="1" stroke="rgb(178,178,0)" stroke-width="0.1"/>
  <path d="M 1.179363999999964,51.36191450000001 L 4.496363999999971,49.128914500000064" fill="none" instance-id="-1" semantic-id="1" stroke="rgb(178,178,0)" stroke-width="0.1"/>
  <path d="M 6.155363999999963,48.01191449999999 L 5.596363999999994,47.18291450000004" fill="none" instance-id="-1" semantic-id="1" stroke="rgb(178,178,0)" stroke-width="0.1"/>
  <path d="M 4.496363999999971,49.128914500000064 L 6.155363999999963,48.01191449999999" fill="none" instance-id="-1" semantic-id="1" stroke="rgb(178,178,0)" stroke-width="0.1"/>
  <path d="M 1.179363999999964,51.36191450000001 L 33.925116306069526,100.0" fill="none" instance-id="-1" semantic-id="1" stroke="rgb(178,178,0)" stroke-width="0.1"/>
  <path d="M 0.0,53.19142944959401 L 31.51413777176947,100.0" fill="none" instance-id="-1" semantic-id="1" stroke="rgb(178,178,0)" stroke-width="0.1"/>
  <path d="M 77.370364,94.09591450000005 L 100.0,78.86054171355295" fill="none" instance-id="-1" semantic-id="1" stroke="rgb(178,178,0)" stroke-width="0.1"/>
  <path d="M 76.82836399999997,96.8719145 L 100.0,81.27220174010415" fill="none" instance-id="-1" semantic-id="1" stroke="rgb(178,178,0)" stroke-width="0.1"/>
  <path d="M 74.865364,92.16491450000001 L 100.0,75.24467071229049" fill="none" instance-id="-1" semantic-id="1" stroke="rgb(178,178,0)" stroke-width="0.1"/>
  <path d="M 76.812364,93.26591450000001 L 100.0,77.6557247664797" fill="none" instance-id="-1" semantic-id="1" stroke="rgb(178,178,0)" stroke-width="0.1"/>
  <path d="M 76.82836399999997,96.8719145 L 75.15236400000003,94.38291449999997" fill="none" instance-id="-1" semantic-id="1" stroke="rgb(178,178,0)" stroke-width="0.1"/>
  <path d="M 77.370364,94.09591450000005 L 76.812364,93.26591450000001" fill="none" instance-id="-1" semantic-id="1" stroke="rgb(178,178,0)" stroke-width="0.1"/>
  <path d="M 74.865364,92.16491450000001 L 73.43536400000005,93.12791449999997" fill="none" instance-id="-1" semantic-id="1" stroke="rgb(178,178,0)" stroke-width="0.1"/>
  <path d="M 73.43536400000005,93.12791449999997 L 74.55236400000001,94.78791450000006" fill="none" instance-id="-1" semantic-id="1" stroke="rgb(178,178,0)" stroke-width="0.1"/>
  <path d="M 74.55236400000001,94.78791450000006 L 75.15236400000003,94.38291449999997" fill="none" instance-id="-1" semantic-id="1" stroke="rgb(178,178,0)" stroke-width="0.1"/>
  <path d="M 3.3793640000000096,47.46991449999996 L 0.0,42.45010390257198" fill="none" instance-id="-1" semantic-id="1" stroke="rgb(178,178,0)" stroke-width="0.1"/>
  <path d="M 5.596363999999994,47.18291450000004 L 0.0,38.8692573631364" fill="none" instance-id="-1" semantic-id="1" stroke="rgb(178,178,0)" stroke-width="0.1"/>
  <path d="M 15.41781143022206,99.86352030199896 L 15.709257774977118,99.45471575156921" fill="none" instance-id="-1" semantic-id="1" stroke="rgb(178,178,0)" stroke-width="0.1"/>
  <path d="M 15.709257774977118,99.45471575156921 L 16.000062659929085,99.04545464761327" fill="none" instance-id="-1" semantic-id="1" stroke="rgb(178,178,0)" stroke-width="0.1"/>
  <path d="M 16.000062659929085,99.04545464761327 L 16.290225369883615,98.63573799665187" fill="none" instance-id="-1" semantic-id="1" stroke="rgb(178,178,0)" stroke-width="0.1"/>
  <path d="M 16.290225369883615,98.63573799665187 L 16.579745191225925,98.22556680632624" fill="none" instance-id="-1" semantic-id="1" stroke="rgb(178,178,0)" stroke-width="0.1"/>
  <path d="M 16.579745191225925,98.22556680632624 L 16.868621411922163,97.8149420853955" fill="none" instance-id="-1" semantic-id="1" stroke="rgb(178,178,0)" stroke-width="0.1"/>
  <path d="M 16.868621411922163,97.8149420853955 L 17.156853321521226,97.40386484373403" fill="none" instance-id="-1" semantic-id="1" stroke="rgb(178,178,0)" stroke-width="0.1"/>
  <path d="M 17.156853321521226,97.40386484373403 L 17.444440211157143,96.9923360923292" fill="none" instance-id="-1" semantic-id="1" stroke="rgb(178,178,0)" stroke-width="0.1"/>
  <path d="M 17.444440211157143,96.9923360923292 L 17.731381373549652,96.58035684327899" fill="none" instance-id="-1" semantic-id="1" stroke="rgb(178,178,0)" stroke-width="0.1"/>
  <path d="M 17.731381373549652,96.58035684327899 L 18.017676103006806,96.16792810978882" fill="none" instance-id="-1" semantic-id="1" stroke="rgb(178,178,0)" stroke-width="0.1"/>
  <path d="M 18.017676103006806,96.16792810978882 L 18.30332369542657,95.75505090617025" fill="none" instance-id="-1" semantic-id="1" stroke="rgb(178,178,0)" stroke-width="0.1"/>
  <path d="M 18.30332369542657,95.75505090617025 L 18.58832344829841,95.34172624783707" fill="none" instance-id="-1" semantic-id="1" stroke="rgb(178,178,0)" stroke-width="0.1"/>
  <path d="M 18.58832344829841,95.34172624783707 L 18.872674660704888,94.92795515130399" fill="none" instance-id="-1" semantic-id="1" stroke="rgb(178,178,0)" stroke-width="0.1"/>
  <path d="M 18.872674660704888,94.92795515130399 L 19.156376633323703,94.51373863418371" fill="none" instance-id="-1" semantic-id="1" stroke="rgb(178,178,0)" stroke-width="0.1"/>
  <path d="M 19.156376633323703,94.51373863418371 L 19.439428668429514,94.09907771518397" fill="none" instance-id="-1" semantic-id="1" stroke="rgb(178,178,0)" stroke-width="0.1"/>
  <path d="M 19.439428668429514,94.09907771518397 L 19.72183006989485,93.68397341410571" fill="none" instance-id="-1" semantic-id="1" stroke="rgb(178,178,0)" stroke-width="0.1"/>
  <path d="M 19.72183006989485,93.68397341410571 L 20.003580143192835,93.26842675184048" fill="none" instance-id="-1" semantic-id="1" stroke="rgb(178,178,0)" stroke-width="0.1"/>
  <path d="M 20.003580143192835,93.26842675184048 L 20.284678195398214,92.85243875036758" fill="none" instance-id="-1" semantic-id="1" stroke="rgb(178,178,0)" stroke-width="0.1"/>
  <path d="M 20.284678195398214,92.85243875036758 L 20.565123535189514,92.43601043275146" fill="none" instance-id="-1" semantic-id="1" stroke="rgb(178,178,0)" stroke-width="0.1"/>
  <path d="M 20.565123535189514,92.43601043275146 L 20.84491547285029,92.01914282313987" fill="none" instance-id="-1" semantic-id="1" stroke="rgb(178,178,0)" stroke-width="0.1"/>
  <path d="M 20.84491547285029,92.01914282313987 L 21.124053320271173,91.60183694676095" fill="none" instance-id="-1" semantic-id="1" stroke="rgb(178,178,0)" stroke-width="0.1"/>
  <path d="M 21.124053320271173,91.60183694676095 L 21.402536390951354,91.18409382992036" fill="none" instance-id="-1" semantic-id="1" stroke="rgb(178,178,0)" stroke-width="0.1"/>
  <path d="M 21.402536390951354,91.18409382992036 L 21.68036399999994,90.76591450000001" fill="none" instance-id="-1" semantic-id="1" stroke="rgb(178,178,0)" stroke-width="0.1"/>
  <path d="M 18.03744888918527,99.62829144403179 L 18.327990032171215,99.21609855018289" fill="none" instance-id="-1" semantic-id="1" stroke="rgb(178,178,0)" stroke-width="0.1"/>
  <path d="M 18.327990032171215,99.21609855018289 L 18.617885550107303,98.80345133258947" fill="none" instance-id="-1" semantic-id="1" stroke="rgb(178,178,0)" stroke-width="0.1"/>
  <path d="M 18.617885550107303,98.80345133258947 L 18.907134732561758,98.39035080250471" fill="none" instance-id="-1" semantic-id="1" stroke="rgb(178,178,0)" stroke-width="0.1"/>
  <path d="M 18.907134732561758,98.39035080250471 L 19.1957368706868,97.97679797229227" fill="none" instance-id="-1" semantic-id="1" stroke="rgb(178,178,0)" stroke-width="0.1"/>
  <path d="M 19.1957368706868,97.97679797229227 L 19.48369125722013,97.56279385542484" fill="none" instance-id="-1" semantic-id="1" stroke="rgb(178,178,0)" stroke-width="0.1"/>
  <path d="M 19.48369125722013,97.56279385542484 L 19.770997186486852,97.14833946648048" fill="none" instance-id="-1" semantic-id="1" stroke="rgb(178,178,0)" stroke-width="0.1"/>
  <path d="M 19.770997186486852,97.14833946648048 L 20.057653954401417,96.73343582114126" fill="none" instance-id="-1" semantic-id="1" stroke="rgb(178,178,0)" stroke-width="0.1"/>
  <path d="M 20.057653954401417,96.73343582114126 L 20.343660858468752,96.31808393618962" fill="none" instance-id="-1" semantic-id="1" stroke="rgb(178,178,0)" stroke-width="0.1"/>
  <path d="M 20.343660858468752,96.31808393618962 L 20.62901719778688,95.90228482950715" fill="none" instance-id="-1" semantic-id="1" stroke="rgb(178,178,0)" stroke-width="0.1"/>
  <path d="M 20.62901719778688,95.90228482950715 L 20.91372227304771,95.4860395200709" fill="none" instance-id="-1" semantic-id="1" stroke="rgb(178,178,0)" stroke-width="0.1"/>
  <path d="M 20.91372227304771,95.4860395200709 L 21.197775386539547,95.06934902795149" fill="none" instance-id="-1" semantic-id="1" stroke="rgb(178,178,0)" stroke-width="0.1"/>
  <path d="M 21.197775386539547,95.06934902795149 L 21.48117584214799,94.65221437431092" fill="none" instance-id="-1" semantic-id="1" stroke="rgb(178,178,0)" stroke-width="0.1"/>
  <path d="M 21.48117584214799,94.65221437431092 L 21.763922945358445,94.23463658139906" fill="none" instance-id="-1" semantic-id="1" stroke="rgb(178,178,0)" stroke-width="0.1"/>
  <path d="M 21.763922945358445,94.23463658139906 L 22.046016003257137,93.81661667255219" fill="none" instance-id="-1" semantic-id="1" stroke="rgb(178,178,0)" stroke-width="0.1"/>
  <path d="M 22.046016003257137,93.81661667255219 L 22.327454324533505,93.39815567218989" fill="none" instance-id="-1" semantic-id="1" stroke="rgb(178,178,0)" stroke-width="0.1"/>
  <path d="M 22.327454324533505,93.39815567218989 L 22.60823721948111,92.97925460581291" fill="none" instance-id="-1" semantic-id="1" stroke="rgb(178,178,0)" stroke-width="0.1"/>
  <path d="M 22.60823721948111,92.97925460581291 L 22.888364000000024,92.55991449999999" fill="none" instance-id="-1" semantic-id="1" stroke="rgb(178,178,0)" stroke-width="0.1"/>
 </g>
 <g id="layers-消火栓" inkscape:groupmode="layer" inkscape:label="s-消火栓">
  <path d="M 85.16236400000003,88.36791449999998 L 80.69636400000002,94.26891450000005" fill="none" stroke="rgb(178,88,0)" stroke-width="0.1"/>
  <path d="M 86.50236399999994,90.35891449999997 L 80.69636400000002,94.26891450000005" fill="none" stroke="rgb(178,88,0)" stroke-width="0.1"/>
  <path d="M 80.69636400000002,94.26891450000005 L 79.35536400000001,92.27791450000007" fill="none" stroke="rgb(178,88,0)" stroke-width="0.1"/>
  <path d="M 79.35536400000001,92.27791450000007 L 85.16236400000003,88.36791449999998" fill="none" stroke="rgb(178,88,0)" stroke-width="0.1"/>
  <path d="M 85.16236400000003,88.36791449999998 L 86.50236399999994,90.35891449999997" fill="none" stroke="rgb(178,88,0)" stroke-width="0.1"/>
  <path d="M 79.35536400000001,92.27791450000007 L 80.69636400000002,94.26891450000005" fill="none" stroke="rgb(178,88,0)" stroke-width="0.1"/>
  <path d="M 80.69636400000002,94.26891450000005 L 85.16236400000003,88.36791449999998" fill="none" stroke="rgb(178,88,0)" stroke-width="0.1"/>
  <path d="M 85.16236400000003,88.36791449999998 L 79.35536400000001,92.27791450000007" fill="none" stroke="rgb(178,88,0)" stroke-width="0.1"/>
 </g>
</svg>