<?xml version="1.0" encoding="utf-8"?>
<svg style="background-color: #000;" version="1.1" viewBox="0 0 100.0 100.0" xmlns="http://www.w3.org/2000/svg" xmlns:inkscape="http://www.inkscape.org/namespaces/inkscape">
 <g id="layer0-排水沟" inkscape:groupmode="layer" inkscape:label="0-排水沟">
  <path d="M 71.90936400000001,24.538914500000033 L 100.0,95.34441778476446" fill="none" stroke="rgb(0,0,178)" stroke-width="0.1"/>
  <path d="M 67.26236399999999,26.381914499999993 L 96.46799211588592,100.0" fill="none" stroke="rgb(0,0,178)" stroke-width="0.1"/>
 </g>
 <g id="layer0-结构边线" inkscape:groupmode="layer" inkscape:label="0-结构边线">
  <path d="M 34.128364000000005,36.2999145 L 41.56436399999998,33.34991450000001" fill="none" stroke="rgb(178,0,178)" stroke-width="0.1"/>
  <path d="M 41.56436399999998,33.34991450000001 L 38.614363999999995,25.913914500000033" fill="none" stroke="rgb(178,0,178)" stroke-width="0.1"/>
  <path d="M 31.177363999999983,28.86391450000002 L 38.614363999999995,25.913914500000033" fill="none" stroke="rgb(178,0,178)" stroke-width="0.1"/>
  <path d="M 34.128364000000005,36.2999145 L 31.177363999999983,28.86391450000002" fill="none" stroke="rgb(178,0,178)" stroke-width="0.1"/>
  <path d="M 34.128364000000005,36.2999145 L 41.56436399999998,33.34991450000001" fill="none" stroke="rgb(178,0,178)" stroke-width="0.1"/>
  <path d="M 41.56436399999998,33.34991450000001 L 38.614363999999995,25.913914500000033" fill="none" stroke="rgb(178,0,178)" stroke-width="0.1"/>
  <path d="M 31.177363999999983,28.86391450000002 L 38.614363999999995,25.913914500000033" fill="none" stroke="rgb(178,0,178)" stroke-width="0.1"/>
  <path d="M 34.128364000000005,36.2999145 L 31.177363999999983,28.86391450000002" fill="none" stroke="rgb(178,0,178)" stroke-width="0.1"/>
  <path d="M 0.0,49.8391518122574 L 100.0,10.166478630144809" fill="none" stroke="rgb(178,0,178)" stroke-width="0.1"/>
 </g>
 <g id="layer0-金属格栅" inkscape:groupmode="layer" inkscape:label="0-金属格栅">
  <path d="M 6.649363999999991,47.20191450000004 L 7.755363999999986,49.9899145" fill="none" stroke="rgb(73,73,73)" stroke-width="0.1"/>
  <path d="M 7.755363999999986,49.9899145 L 7.290364000000011,50.1749145" fill="none" stroke="rgb(73,73,73)" stroke-width="0.1"/>
  <path d="M 7.290364000000011,50.1749145 L 6.184363999999988,47.38591450000001" fill="none" stroke="rgb(73,73,73)" stroke-width="0.1"/>
  <path d="M 6.184363999999988,47.38591450000001 L 6.649363999999991,47.20191450000004" fill="none" stroke="rgb(73,73,73)" stroke-width="0.1"/>
  <path d="M 20.592364000000003,41.669914500000004 L 21.698363999999998,44.45891449999999" fill="none" stroke="rgb(73,73,73)" stroke-width="0.1"/>
  <path d="M 21.698363999999998,44.45891449999999 L 21.233363999999995,44.64291450000002" fill="none" stroke="rgb(73,73,73)" stroke-width="0.1"/>
  <path d="M 21.233363999999995,44.64291450000002 L 20.127364,41.85491450000001" fill="none" stroke="rgb(73,73,73)" stroke-width="0.1"/>
  <path d="M 20.127364,41.85491450000001 L 20.592364000000003,41.669914500000004" fill="none" stroke="rgb(73,73,73)" stroke-width="0.1"/>
  <path d="M 34.53436400000001,36.1389145 L 35.64136400000001,38.92691450000001" fill="none" stroke="rgb(73,73,73)" stroke-width="0.1"/>
  <path d="M 35.64136400000001,38.92691450000001 L 35.17636400000001,39.11191450000001" fill="none" stroke="rgb(73,73,73)" stroke-width="0.1"/>
  <path d="M 35.17636400000001,39.11191450000001 L 34.070363999999984,36.322914500000024" fill="none" stroke="rgb(73,73,73)" stroke-width="0.1"/>
  <path d="M 34.070363999999984,36.322914500000024 L 34.53436400000001,36.1389145" fill="none" stroke="rgb(73,73,73)" stroke-width="0.1"/>
  <path d="M 48.477363999999994,30.606914500000016 L 49.584363999999994,33.3959145" fill="none" stroke="rgb(73,73,73)" stroke-width="0.1"/>
  <path d="M 49.584363999999994,33.3959145 L 49.11936399999999,33.57991450000003" fill="none" stroke="rgb(73,73,73)" stroke-width="0.1"/>
  <path d="M 49.11936399999999,33.57991450000003 L 48.013363999999996,30.79191450000002" fill="none" stroke="rgb(73,73,73)" stroke-width="0.1"/>
  <path d="M 48.013363999999996,30.79191450000002 L 48.477363999999994,30.606914500000016" fill="none" stroke="rgb(73,73,73)" stroke-width="0.1"/>
  <path d="M 62.420364000000006,25.07591450000001 L 63.526364,27.86391450000002" fill="none" stroke="rgb(73,73,73)" stroke-width="0.1"/>
  <path d="M 63.526364,27.86391450000002 L 63.062364,28.048914500000024" fill="none" stroke="rgb(73,73,73)" stroke-width="0.1"/>
  <path d="M 63.062364,28.048914500000024 L 61.955364,25.259914500000036" fill="none" stroke="rgb(73,73,73)" stroke-width="0.1"/>
  <path d="M 61.955364,25.259914500000036 L 62.420364000000006,25.07591450000001" fill="none" stroke="rgb(73,73,73)" stroke-width="0.1"/>
  <path d="M 76.36336399999999,19.543914500000028 L 77.46936399999998,22.332914500000015" fill="none" stroke="rgb(73,73,73)" stroke-width="0.1"/>
  <path d="M 77.46936399999998,22.332914500000015 L 77.00436400000001,22.51691450000004" fill="none" stroke="rgb(73,73,73)" stroke-width="0.1"/>
  <path d="M 77.00436400000001,22.51691450000004 L 75.89836399999999,19.72891450000003" fill="none" stroke="rgb(73,73,73)" stroke-width="0.1"/>
  <path d="M 75.89836399999999,19.72891450000003 L 76.36336399999999,19.543914500000028" fill="none" stroke="rgb(73,73,73)" stroke-width="0.1"/>
  <path d="M 90.306364,14.012914500000022 L 91.412364,16.800914500000033" fill="none" stroke="rgb(73,73,73)" stroke-width="0.1"/>
  <path d="M 91.412364,16.800914500000033 L 90.947364,16.985914500000035" fill="none" stroke="rgb(73,73,73)" stroke-width="0.1"/>
  <path d="M 90.947364,16.985914500000035 L 89.841364,14.196914499999991" fill="none" stroke="rgb(73,73,73)" stroke-width="0.1"/>
  <path d="M 89.841364,14.196914499999991 L 90.306364,14.012914500000022" fill="none" stroke="rgb(73,73,73)" stroke-width="0.1"/>
 </g>
 <g id="layerCOLUMN" inkscape:groupmode="layer" inkscape:label="COLUMN">
  <path d="M 34.128364000000005,36.2999145 L 41.56436399999998,33.34991450000001" fill="none" stroke="rgb(178,178,0)" stroke-width="0.1"/>
  <path d="M 41.56436399999998,33.34991450000001 L 38.614363999999995,25.913914500000033" fill="none" stroke="rgb(178,178,0)" stroke-width="0.1"/>
  <path d="M 38.614363999999995,25.913914500000033 L 31.177363999999983,28.86391450000002" fill="none" stroke="rgb(178,178,0)" stroke-width="0.1"/>
  <path d="M 31.177363999999983,28.86391450000002 L 34.128364000000005,36.2999145" fill="none" stroke="rgb(178,178,0)" stroke-width="0.1"/>
  <path d="M 34.128364000000005,36.2999145 L 41.56436399999998,33.34991450000001" fill="none" stroke="rgb(178,178,0)" stroke-width="0.1"/>
  <path d="M 41.56436399999998,33.34991450000001 L 38.614363999999995,25.913914500000033" fill="none" stroke="rgb(178,178,0)" stroke-width="0.1"/>
  <path d="M 38.614363999999995,25.913914500000033 L 31.177363999999983,28.86391450000002" fill="none" stroke="rgb(178,178,0)" stroke-width="0.1"/>
  <path d="M 31.177363999999983,28.86391450000002 L 34.128364000000005,36.2999145" fill="none" stroke="rgb(178,178,0)" stroke-width="0.1"/>
 </g>
 <g id="layerCURTWALL" inkscape:groupmode="layer" inkscape:label="CURTWALL">
  <path d="M 0.0,51.99084645694336 L 100.0,12.318305148253103" fill="none" instance-id="-1" semantic-id="2" stroke="rgb(0,178,178)" stroke-width="0.1"/>
  <path d="M 0.0,53.06693713302013 L 100.0,13.39412565524583" fill="none" instance-id="-1" semantic-id="2" stroke="rgb(0,178,178)" stroke-width="0.1"/>
  <path d="M 100.0,9.090542500524862 L 41.195363999999984,32.419914500000004" fill="none" instance-id="-1" semantic-id="2" stroke="rgb(0,178,178)" stroke-width="0.1"/>
  <path d="M 100.0,10.166934670485887 L 41.56436399999998,33.34991450000001" fill="none" instance-id="-1" semantic-id="2" stroke="rgb(0,178,178)" stroke-width="0.1"/>
  <path d="M 100.0,10.166934670485887 L 41.56436399999998,33.34991450000001" fill="none" instance-id="-1" semantic-id="2" stroke="rgb(0,178,178)" stroke-width="0.1"/>
  <path d="M 34.128364000000005,36.2999145 L 0.0,49.83939301846209" fill="none" instance-id="-1" semantic-id="2" stroke="rgb(0,178,178)" stroke-width="0.1"/>
  <path d="M 33.759364000000005,35.370914500000026 L 0.0,48.76402804456853" fill="none" instance-id="-1" semantic-id="2" stroke="rgb(0,178,178)" stroke-width="0.1"/>
 </g>
 <g id="layerDIM_SYMB" inkscape:groupmode="layer" inkscape:label="DIM_SYMB">
  <path d="M 69.090364,36.41491450000001 L 0.0,63.824940485746424" fill="none" stroke="rgb(0,178,0)" stroke-width="0.1"/>
 </g>
 <g id="layerPUB_DIM" inkscape:groupmode="layer" inkscape:label="PUB_DIM">
  <path d="M 99.98736399999999,58.108914500000026 L 100.0,58.070580441437414" fill="none" stroke="rgb(0,178,0)" stroke-width="0.1"/>
  <text fill="rgb(0,0,0)" font-family="Noto Sans CJK SC" font-size="2" transform="rotate(-71.7566,98.658364,56.09191450000003)" x="98.658364" y="56.09191450000003">
   R5000
  </text>
 </g>
 <g id="layerPUB_TEXT" inkscape:groupmode="layer" inkscape:label="PUB_TEXT">
  <text fill="rgb(0,0,0)" font-family="Noto Sans CJK SC" font-size="2" transform="rotate(-21.6397,71.52236400000001,38.27391449999999)" x="71.52236400000001" y="38.27391449999999">
   下
  </text>
 </g>
 <g id="layerSTAIR" inkscape:groupmode="layer" inkscape:label="STAIR">
  <path d="M 0.0,53.066835035828376 L 17.997364000000005,45.92691450000001" fill="none" instance-id="1" semantic-id="30" stroke="rgb(178,88,0)" stroke-width="0.1"/>
  <path d="M 0.0,73.7798105325424 L 0.27536399999999617,74.47391450000003" fill="none" instance-id="1" semantic-id="30" stroke="rgb(178,88,0)" stroke-width="0.1"/>
  <path d="M 0.0,65.64427145173539 L 3.0643639999999834,73.36791450000004" fill="none" instance-id="1" semantic-id="30" stroke="rgb(178,88,0)" stroke-width="0.1"/>
  <path d="M 0.0,57.50919597471193 L 5.852363999999994,72.26191449999999" fill="none" instance-id="1" semantic-id="30" stroke="rgb(178,88,0)" stroke-width="0.1"/>
  <path d="M 1.2653640000000053,52.56491450000004 L 8.64136400000001,71.15491450000002" fill="none" instance-id="1" semantic-id="30" stroke="rgb(178,88,0)" stroke-width="0.1"/>
  <path d="M 4.0543639999999925,51.457914500000015 L 11.429363999999993,70.04891450000002" fill="none" instance-id="1" semantic-id="30" stroke="rgb(178,88,0)" stroke-width="0.1"/>
  <path d="M 6.843364000000008,50.35191450000002 L 14.218364000000008,68.94291450000003" fill="none" instance-id="1" semantic-id="30" stroke="rgb(178,88,0)" stroke-width="0.1"/>
  <path d="M 9.63136399999999,49.245914500000026 L 17.00636399999999,67.8359145" fill="none" instance-id="1" semantic-id="30" stroke="rgb(178,88,0)" stroke-width="0.1"/>
  <path d="M 12.420364000000006,48.13991450000003 L 19.795364000000006,66.7299145" fill="none" instance-id="1" semantic-id="30" stroke="rgb(178,88,0)" stroke-width="0.1"/>
  <path d="M 15.208363999999989,47.032914500000004 L 22.584363999999994,65.62391450000001" fill="none" instance-id="1" semantic-id="30" stroke="rgb(178,88,0)" stroke-width="0.1"/>
  <path d="M 17.997364000000005,45.92691450000001 L 25.372364000000005,64.51691450000004" fill="none" instance-id="1" semantic-id="30" stroke="rgb(178,88,0)" stroke-width="0.1"/>
  <path d="M 34.728364,39.28891450000003 L 65.40336400000001,27.119914499999993" fill="none" instance-id="1" semantic-id="30" stroke="rgb(178,88,0)" stroke-width="0.1"/>
  <path d="M 34.728364,39.28891450000003 L 42.104364000000004,57.87991450000004" fill="none" instance-id="1" semantic-id="30" stroke="rgb(178,88,0)" stroke-width="0.1"/>
  <path d="M 37.517363999999986,38.18291450000004 L 44.892363999999986,56.77291450000001" fill="none" instance-id="1" semantic-id="30" stroke="rgb(178,88,0)" stroke-width="0.1"/>
  <path d="M 40.305364,37.07691450000004 L 47.681364,55.66691450000002" fill="none" instance-id="1" semantic-id="30" stroke="rgb(178,88,0)" stroke-width="0.1"/>
  <path d="M 43.094363999999985,35.969914500000016 L 50.469363999999985,54.560914500000024" fill="none" instance-id="1" semantic-id="30" stroke="rgb(178,88,0)" stroke-width="0.1"/>
  <path d="M 45.883364,34.86391450000002 L 53.258364,53.453914499999996" fill="none" instance-id="1" semantic-id="30" stroke="rgb(178,88,0)" stroke-width="0.1"/>
  <path d="M 48.67136399999998,33.75791450000003 L 56.04636399999998,52.3479145" fill="none" instance-id="1" semantic-id="30" stroke="rgb(178,88,0)" stroke-width="0.1"/>
  <path d="M 51.460364,32.6509145 L 58.835364,51.24191450000001" fill="none" instance-id="1" semantic-id="30" stroke="rgb(178,88,0)" stroke-width="0.1"/>
  <path d="M 54.24836400000001,31.544914500000004 L 61.624363999999986,50.13591450000001" fill="none" instance-id="1" semantic-id="30" stroke="rgb(178,88,0)" stroke-width="0.1"/>
  <path d="M 57.037364,30.43891450000001 L 64.412364,49.02891450000004" fill="none" instance-id="1" semantic-id="30" stroke="rgb(178,88,0)" stroke-width="0.1"/>
  <path d="M 59.82536400000001,29.332914500000015 L 67.20136399999998,47.92291449999999" fill="none" instance-id="1" semantic-id="30" stroke="rgb(178,88,0)" stroke-width="0.1"/>
  <path d="M 62.614363999999995,28.225914499999988 L 69.989364,46.816914499999996" fill="none" instance-id="1" semantic-id="30" stroke="rgb(178,88,0)" stroke-width="0.1"/>
  <path d="M 72.77836400000001,45.709914500000025 L 65.40336400000001,27.119914499999993" fill="none" instance-id="1" semantic-id="30" stroke="rgb(178,88,0)" stroke-width="0.1"/>
  <path d="M 78.10636399999999,22.07991450000003 L 100.0,13.394231807615313" fill="none" stroke="rgb(178,88,0)" stroke-width="0.1"/>
  <path d="M 99.75437410132045,18.659146634295155 L 99.25305268816379,18.62941700941508" fill="none" stroke="rgb(178,88,0)" stroke-width="0.1"/>
  <path d="M 99.25305268816379,18.62941700941508 L 98.75145796049074,18.6047241145763" fill="none" stroke="rgb(178,88,0)" stroke-width="0.1"/>
  <path d="M 98.75145796049074,18.6047241145763 L 98.24964052058391,18.585070440867298" fill="none" stroke="rgb(178,88,0)" stroke-width="0.1"/>
  <path d="M 98.24964052058391,18.585070440867298 L 97.7476509931937,18.570457971005794" fill="none" stroke="rgb(178,88,0)" stroke-width="0.1"/>
  <path d="M 97.7476509931937,18.570457971005794 L 97.24554002043118,18.560888179138715" fill="none" stroke="rgb(178,88,0)" stroke-width="0.1"/>
  <path d="M 97.24554002043118,18.560888179138715 L 96.74335825665915,18.55636203069355" fill="none" stroke="rgb(178,88,0)" stroke-width="0.1"/>
  <path d="M 96.74335825665915,18.55636203069355 L 96.24115636338209,18.556879982280805" fill="none" stroke="rgb(178,88,0)" stroke-width="0.1"/>
  <path d="M 96.24115636338209,18.556879982280805 L 95.73898500413512,18.562441981648078" fill="none" stroke="rgb(178,88,0)" stroke-width="0.1"/>
  <path d="M 95.73898500413512,18.562441981648078 L 95.23689483937304,18.573047467685228" fill="none" stroke="rgb(178,88,0)" stroke-width="0.1"/>
  <path d="M 95.23689483937304,18.573047467685228 L 94.73493652135949,18.58869537048116" fill="none" stroke="rgb(178,88,0)" stroke-width="0.1"/>
  <path d="M 94.73493652135949,18.58869537048116 L 94.23316068905703,18.609384111431552" fill="none" stroke="rgb(178,88,0)" stroke-width="0.1"/>
  <path d="M 94.23316068905703,18.609384111431552 L 93.73161796301866,18.635111603398116" fill="none" stroke="rgb(178,88,0)" stroke-width="0.1"/>
  <path d="M 93.73161796301866,18.635111603398116 L 93.23035894028081,18.66587525091944" fill="none" stroke="rgb(178,88,0)" stroke-width="0.1"/>
  <path d="M 93.23035894028081,18.66587525091944 L 92.72943418925922,18.701671950472473" fill="none" stroke="rgb(178,88,0)" stroke-width="0.1"/>
  <path d="M 92.72943418925922,18.701671950472473 L 92.22889424464739,18.742498090785773" fill="none" stroke="rgb(178,88,0)" stroke-width="0.1"/>
  <path d="M 92.22889424464739,18.742498090785773 L 91.72878960231839,18.78834955320383" fill="none" stroke="rgb(178,88,0)" stroke-width="0.1"/>
  <path d="M 91.72878960231839,18.78834955320383 L 91.22917071423078,18.83922171210253" fill="none" stroke="rgb(178,88,0)" stroke-width="0.1"/>
  <path d="M 91.22917071423078,18.83922171210253 L 90.7300879833389,18.89510943535589" fill="none" stroke="rgb(178,88,0)" stroke-width="0.1"/>
  <path d="M 90.7300879833389,18.89510943535589 L 90.23159175850813,18.95600708485364" fill="none" stroke="rgb(178,88,0)" stroke-width="0.1"/>
  <path d="M 90.23159175850813,18.95600708485364 L 89.7337323294353,19.021908517070187" fill="none" stroke="rgb(178,88,0)" stroke-width="0.1"/>
  <path d="M 89.7337323294353,19.021908517070187 L 89.2365599215756,19.092807083684193" fill="none" stroke="rgb(178,88,0)" stroke-width="0.1"/>
  <path d="M 89.2365599215756,19.092807083684193 L 88.74012469107566,19.16869563224958" fill="none" stroke="rgb(178,88,0)" stroke-width="0.1"/>
  <path d="M 88.74012469107566,19.16869563224958 L 88.24447671971342,19.249566506916608" fill="none" stroke="rgb(178,88,0)" stroke-width="0.1"/>
  <path d="M 88.24447671971342,19.249566506916608 L 87.74966600984607,19.335411549204878" fill="none" stroke="rgb(178,88,0)" stroke-width="0.1"/>
  <path d="M 87.74966600984607,19.335411549204878 L 87.25574247936541,19.426222098825633" fill="none" stroke="rgb(178,88,0)" stroke-width="0.1"/>
  <path d="M 87.25574247936541,19.426222098825633 L 86.76275595666215,19.52198899455618" fill="none" stroke="rgb(178,88,0)" stroke-width="0.1"/>
  <path d="M 86.76275595666215,19.52198899455618 L 86.27075617559899,19.622702575163373" fill="none" stroke="rgb(178,88,0)" stroke-width="0.1"/>
  <path d="M 86.27075617559899,19.622702575163373 L 85.77979277049343,19.728352680378975" fill="none" stroke="rgb(178,88,0)" stroke-width="0.1"/>
  <path d="M 85.77979277049343,19.728352680378975 L 85.2899152711104,19.838928651923993" fill="none" stroke="rgb(178,88,0)" stroke-width="0.1"/>
  <path d="M 85.2899152711104,19.838928651923993 L 84.80117309766561,19.954419334584372" fill="none" stroke="rgb(178,88,0)" stroke-width="0.1"/>
  <path d="M 84.80117309766561,19.954419334584372 L 84.31361555583993,20.07481307733633" fill="none" stroke="rgb(178,88,0)" stroke-width="0.1"/>
  <path d="M 84.31361555583993,20.07481307733633 L 83.8272918318053,20.200097734521478" fill="none" stroke="rgb(178,88,0)" stroke-width="0.1"/>
  <path d="M 83.8272918318053,20.200097734521478 L 83.34225098726262,20.330260667072253" fill="none" stroke="rgb(178,88,0)" stroke-width="0.1"/>
  <path d="M 83.34225098726262,20.330260667072253 L 82.85854195449227,20.465288743787085" fill="none" stroke="rgb(178,88,0)" stroke-width="0.1"/>
  <path d="M 82.85854195449227,20.465288743787085 L 82.37621353141785,20.60516834265502" fill="none" stroke="rgb(178,88,0)" stroke-width="0.1"/>
  <path d="M 82.37621353141785,20.60516834265502 L 81.89531437668305,20.749885352229796" fill="none" stroke="rgb(178,88,0)" stroke-width="0.1"/>
  <path d="M 81.89531437668305,20.749885352229796 L 81.41589300474305,20.899425173053828" fill="none" stroke="rgb(178,88,0)" stroke-width="0.1"/>
  <path d="M 81.41589300474305,20.899425173053828 L 80.93799778097011,21.05377271913062" fill="none" stroke="rgb(178,88,0)" stroke-width="0.1"/>
  <path d="M 80.93799778097011,21.05377271913062 L 80.46167691677442,21.212912419446923" fill="none" stroke="rgb(178,88,0)" stroke-width="0.1"/>
  <path d="M 80.46167691677442,21.212912419446923 L 79.9869784647403,21.376828219543654" fill="none" stroke="rgb(178,88,0)" stroke-width="0.1"/>
  <path d="M 79.9869784647403,21.376828219543654 L 79.51395031377871,21.545503583135144" fill="none" stroke="rgb(178,88,0)" stroke-width="0.1"/>
  <path d="M 79.51395031377871,21.545503583135144 L 79.04264018429575,21.718921493777884" fill="none" stroke="rgb(178,88,0)" stroke-width="0.1"/>
  <path d="M 79.04264018429575,21.718921493777884 L 78.57309562337889,21.89706445658669" fill="none" stroke="rgb(178,88,0)" stroke-width="0.1"/>
  <path d="M 78.57309562337889,21.89706445658669 L 78.10536400000001,22.07991450000003" fill="none" stroke="rgb(178,88,0)" stroke-width="0.1"/>
  <path d="M 78.10536400000001,22.07991450000003 L 0.0,53.066921397787155" fill="none" instance-id="1" semantic-id="30" stroke="rgb(178,88,0)" stroke-width="0.1"/>
  <path d="M 99.87758471355204,16.663080304369544 L 99.37811312880208,16.633405853362945" fill="none" stroke="rgb(178,88,0)" stroke-width="0.1"/>
  <path d="M 99.37811312880208,16.633405853362945 L 98.87837913707341,16.608538715889438" fill="none" stroke="rgb(178,88,0)" stroke-width="0.1"/>
  <path d="M 98.87837913707341,16.608538715889438 L 98.37842900671762,16.58848119429689" fill="none" stroke="rgb(178,88,0)" stroke-width="0.1"/>
  <path d="M 98.37842900671762,16.58848119429689 L 97.87830902609775,16.57323514563018" fill="none" stroke="rgb(178,88,0)" stroke-width="0.1"/>
  <path d="M 97.87830902609775,16.57323514563018 L 97.37806549930247,16.56280198145936" fill="none" stroke="rgb(178,88,0)" stroke-width="0.1"/>
  <path d="M 97.37806549930247,16.56280198145936 L 96.8777447418592,16.557182667748975" fill="none" stroke="rgb(178,88,0)" stroke-width="0.1"/>
  <path d="M 96.8777447418592,16.557182667748975 L 96.37739307644577,16.55637772476848" fill="none" stroke="rgb(178,88,0)" stroke-width="0.1"/>
  <path d="M 96.37739307644577,16.55637772476848 L 95.8770568286017,16.56038722704443" fill="none" stroke="rgb(178,88,0)" stroke-width="0.1"/>
  <path d="M 95.8770568286017,16.56038722704443 L 95.37678232243903,16.569210803353144" fill="none" stroke="rgb(178,88,0)" stroke-width="0.1"/>
  <path d="M 95.37678232243903,16.569210803353144 L 94.87661587635336,16.582847636755332" fill="none" stroke="rgb(178,88,0)" stroke-width="0.1"/>
  <path d="M 94.87661587635336,16.582847636755332 L 94.37660379873554,16.60129646467169" fill="none" stroke="rgb(178,88,0)" stroke-width="0.1"/>
  <path d="M 94.37660379873554,16.60129646467169 L 93.87679238368395,16.624555578999775" fill="none" stroke="rgb(178,88,0)" stroke-width="0.1"/>
  <path d="M 93.87679238368395,16.624555578999775 L 93.3772279067185,16.65262282627208" fill="none" stroke="rgb(178,88,0)" stroke-width="0.1"/>
  <path d="M 93.3772279067185,16.65262282627208 L 92.87795662049615,16.68549560785567" fill="none" stroke="rgb(178,88,0)" stroke-width="0.1"/>
  <path d="M 92.87795662049615,16.68549560785567 L 92.37902475052837,16.723170880192413" fill="none" stroke="rgb(178,88,0)" stroke-width="0.1"/>
  <path d="M 92.37902475052837,16.723170880192413 L 91.88047849090154,16.765645155081017" fill="none" stroke="rgb(178,88,0)" stroke-width="0.1"/>
  <path d="M 91.88047849090154,16.765645155081017 L 91.382364,16.812914500000034" fill="none" stroke="rgb(178,88,0)" stroke-width="0.1"/>
  <path d="M 0.0,74.58330862678895 L 72.77836400000001,45.709914500000025" fill="none" instance-id="1" semantic-id="30" stroke="rgb(178,88,0)" stroke-width="0.1"/>
  <path d="M 72.77836400000001,45.709914500000025 L 94.31642716406213,100.0" fill="none" stroke="rgb(178,88,0)" stroke-width="0.1"/>
  <path d="M 0.0,72.43185570693367 L 73.89936399999999,43.11391450000002" fill="none" instance-id="1" semantic-id="30" stroke="rgb(178,88,0)" stroke-width="0.1"/>
  <path d="M 73.89936399999999,43.11391450000002 L 96.4675839224737,100.0" fill="none" stroke="rgb(178,88,0)" stroke-width="0.1"/>
 </g>
</svg>