<?xml version="1.0" encoding="utf-8"?>
<svg style="background-color: #000;" version="1.1" viewBox="0 0 100.0 100.0" xmlns="http://www.w3.org/2000/svg" xmlns:inkscape="http://www.inkscape.org/namespaces/inkscape">
 <g id="layer0-石材边线" inkscape:groupmode="layer" inkscape:label="0-石材边线">
  <path d="M 59.82728758720833,100.0 L 0.0,11.136796453066836" fill="none" stroke="rgb(255,73,12)" stroke-width="0.1"/>
 </g>
 <g id="layer0-结构边线" inkscape:groupmode="layer" inkscape:label="0-结构边线">
  <path d="M 2.1467027933717873,0.0 L 69.47191138238713,100.0" fill="none" stroke="rgb(178,0,178)" stroke-width="0.1"/>
  <path d="M 66.81636400000002,96.0549145 L 73.45236399999999,91.58691450000003" fill="none" stroke="rgb(178,0,178)" stroke-width="0.1"/>
  <path d="M 73.45236399999999,91.58691450000003 L 68.98436399999997,84.95091450000007" fill="none" stroke="rgb(178,0,178)" stroke-width="0.1"/>
  <path d="M 62.348364000000004,89.41891450000003 L 68.98436399999997,84.95091450000007" fill="none" stroke="rgb(178,0,178)" stroke-width="0.1"/>
  <path d="M 66.81636400000002,96.0549145 L 62.348364000000004,89.41891450000003" fill="none" stroke="rgb(178,0,178)" stroke-width="0.1"/>
  <path d="M 19.904363999999987,26.374914500000045 L 26.54036400000001,21.90691449999997" fill="none" stroke="rgb(178,0,178)" stroke-width="0.1"/>
  <path d="M 26.54036400000001,21.90691449999997 L 22.072363999999993,15.270914500000003" fill="none" stroke="rgb(178,0,178)" stroke-width="0.1"/>
  <path d="M 15.436363999999969,19.738914499999964 L 22.072363999999993,15.270914500000003" fill="none" stroke="rgb(178,0,178)" stroke-width="0.1"/>
  <path d="M 19.904363999999987,26.374914500000045 L 15.436363999999969,19.738914499999964" fill="none" stroke="rgb(178,0,178)" stroke-width="0.1"/>
 </g>
 <g id="layer0-金属格栅" inkscape:groupmode="layer" inkscape:label="0-金属格栅">
  <path d="M 2.1723639999999875,0.03791450000005625 L 0.0,1.499830811771858" fill="none" stroke="rgb(73,73,73)" stroke-width="0.1"/>
  <path d="M 0.0,0.897835377460865 L 1.3333605337111862,0.0" fill="none" stroke="rgb(73,73,73)" stroke-width="0.1"/>
  <path d="M 2.1468744927710475,0.0 L 2.1723639999999875,0.03791450000005625" fill="none" stroke="rgb(73,73,73)" stroke-width="0.1"/>
  <path d="M 9.991363999999976,11.650914499999999 L 7.502364,13.326914500000044" fill="none" stroke="rgb(73,73,73)" stroke-width="0.1"/>
  <path d="M 7.502364,13.326914500000044 L 7.223364000000004,12.911914499999966" fill="none" stroke="rgb(73,73,73)" stroke-width="0.1"/>
  <path d="M 7.223364000000004,12.911914499999966 L 9.711364000000003,11.235914500000035" fill="none" stroke="rgb(73,73,73)" stroke-width="0.1"/>
  <path d="M 9.711364000000003,11.235914500000035 L 9.991363999999976,11.650914499999999" fill="none" stroke="rgb(73,73,73)" stroke-width="0.1"/>
  <path d="M 17.809364000000016,23.263914500000055 L 15.321364000000017,24.939914499999986" fill="none" stroke="rgb(73,73,73)" stroke-width="0.1"/>
  <path d="M 15.321364000000017,24.939914499999986 L 15.04236400000002,24.524914500000023" fill="none" stroke="rgb(73,73,73)" stroke-width="0.1"/>
  <path d="M 15.04236400000002,24.524914500000023 L 17.53036400000002,22.849914500000068" fill="none" stroke="rgb(73,73,73)" stroke-width="0.1"/>
  <path d="M 17.53036400000002,22.849914500000068 L 17.809364000000016,23.263914500000055" fill="none" stroke="rgb(73,73,73)" stroke-width="0.1"/>
  <path d="M 25.628363999999976,34.877914499999974 L 23.139364,36.55291450000004" fill="none" stroke="rgb(73,73,73)" stroke-width="0.1"/>
  <path d="M 23.139364,36.55291450000004 L 22.860364000000004,36.137914499999965" fill="none" stroke="rgb(73,73,73)" stroke-width="0.1"/>
  <path d="M 22.860364000000004,36.137914499999965 L 25.34936399999998,34.46291450000001" fill="none" stroke="rgb(73,73,73)" stroke-width="0.1"/>
  <path d="M 25.34936399999998,34.46291450000001 L 25.628363999999976,34.877914499999974" fill="none" stroke="rgb(73,73,73)" stroke-width="0.1"/>
  <path d="M 33.44736399999999,46.49091450000003 L 30.958364000000017,48.165914499999985" fill="none" stroke="rgb(73,73,73)" stroke-width="0.1"/>
  <path d="M 30.958364000000017,48.165914499999985 L 30.67936400000002,47.7519145" fill="none" stroke="rgb(73,73,73)" stroke-width="0.1"/>
  <path d="M 30.67936400000002,47.7519145 L 33.16736400000002,46.07591450000007" fill="none" stroke="rgb(73,73,73)" stroke-width="0.1"/>
  <path d="M 33.16736400000002,46.07591450000007 L 33.44736399999999,46.49091450000003" fill="none" stroke="rgb(73,73,73)" stroke-width="0.1"/>
  <path d="M 41.26536399999998,58.10391449999997 L 38.77736399999998,59.77991450000002" fill="none" stroke="rgb(73,73,73)" stroke-width="0.1"/>
  <path d="M 38.77736399999998,59.77991450000002 L 38.49836399999998,59.364914500000054" fill="none" stroke="rgb(73,73,73)" stroke-width="0.1"/>
  <path d="M 38.49836399999998,59.364914500000054 L 40.98636399999998,57.689914499999986" fill="none" stroke="rgb(73,73,73)" stroke-width="0.1"/>
  <path d="M 40.98636399999998,57.689914499999986 L 41.26536399999998,58.10391449999997" fill="none" stroke="rgb(73,73,73)" stroke-width="0.1"/>
  <path d="M 49.084363999999994,69.7179145 L 46.59536400000002,71.39291449999996" fill="none" stroke="rgb(73,73,73)" stroke-width="0.1"/>
  <path d="M 46.59536400000002,71.39291449999996 L 46.31636400000002,70.9779145" fill="none" stroke="rgb(73,73,73)" stroke-width="0.1"/>
  <path d="M 46.31636400000002,70.9779145 L 48.805364,69.30291450000004" fill="none" stroke="rgb(73,73,73)" stroke-width="0.1"/>
  <path d="M 48.805364,69.30291450000004 L 49.084363999999994,69.7179145" fill="none" stroke="rgb(73,73,73)" stroke-width="0.1"/>
  <path d="M 56.90336400000001,81.33091450000006 L 54.41436399999998,83.00591450000002" fill="none" stroke="rgb(73,73,73)" stroke-width="0.1"/>
  <path d="M 54.41436399999998,83.00591450000002 L 54.13536399999998,82.59191450000003" fill="none" stroke="rgb(73,73,73)" stroke-width="0.1"/>
  <path d="M 54.13536399999998,82.59191450000003 L 56.62336399999998,80.91591449999999" fill="none" stroke="rgb(73,73,73)" stroke-width="0.1"/>
  <path d="M 56.62336399999998,80.91591449999999 L 56.90336400000001,81.33091450000006" fill="none" stroke="rgb(73,73,73)" stroke-width="0.1"/>
  <path d="M 64.721364,92.9439145 L 62.233363999999995,94.61991450000005" fill="none" stroke="rgb(73,73,73)" stroke-width="0.1"/>
  <path d="M 62.233363999999995,94.61991450000005 L 61.954364,94.20491449999997" fill="none" stroke="rgb(73,73,73)" stroke-width="0.1"/>
  <path d="M 61.954364,94.20491449999997 L 64.442364,92.52891450000004" fill="none" stroke="rgb(73,73,73)" stroke-width="0.1"/>
  <path d="M 64.442364,92.52891450000004 L 64.721364,92.9439145" fill="none" stroke="rgb(73,73,73)" stroke-width="0.1"/>
 </g>
 <g id="layerAXIS" inkscape:groupmode="layer" inkscape:label="AXIS">
  <path d="M 1.0793639999999982,34.22691450000002 L 0.0,34.953600813840126" fill="none" stroke="rgb(0,178,0)" stroke-width="0.1"/>
 </g>
 <g id="layerCOLUMN" inkscape:groupmode="layer" inkscape:label="COLUMN">
  <path d="M 66.81636400000002,96.0549145 L 73.45236399999999,91.58691450000003" fill="none" stroke="rgb(178,178,0)" stroke-width="0.1"/>
  <path d="M 73.45236399999999,91.58691450000003 L 68.98436399999997,84.95091450000007" fill="none" stroke="rgb(178,178,0)" stroke-width="0.1"/>
  <path d="M 68.98436399999997,84.95091450000007 L 62.348364000000004,89.41891450000003" fill="none" stroke="rgb(178,178,0)" stroke-width="0.1"/>
  <path d="M 62.348364000000004,89.41891450000003 L 66.81636400000002,96.0549145" fill="none" stroke="rgb(178,178,0)" stroke-width="0.1"/>
  <path d="M 19.904363999999987,26.374914500000045 L 26.54036400000001,21.90691449999997" fill="none" stroke="rgb(178,178,0)" stroke-width="0.1"/>
  <path d="M 26.54036400000001,21.90691449999997 L 22.072363999999993,15.270914500000003" fill="none" stroke="rgb(178,178,0)" stroke-width="0.1"/>
  <path d="M 22.072363999999993,15.270914500000003 L 15.436363999999969,19.738914499999964" fill="none" stroke="rgb(178,178,0)" stroke-width="0.1"/>
  <path d="M 15.436363999999969,19.738914499999964 L 19.904363999999987,26.374914500000045" fill="none" stroke="rgb(178,178,0)" stroke-width="0.1"/>
 </g>
 <g id="layerCURTWALL" inkscape:groupmode="layer" inkscape:label="CURTWALL">
  <path d="M 0.0,2.1838475069554306 L 65.85523066523075,100.0" fill="none" instance-id="-1" semantic-id="2" stroke="rgb(0,178,178)" stroke-width="0.1"/>
  <path d="M 0.0,0.3917464108428703 L 67.06192549812653,100.0" fill="none" instance-id="-1" semantic-id="2" stroke="rgb(0,178,178)" stroke-width="0.1"/>
 </g>
 <g id="layerLVTRY" inkscape:groupmode="layer" inkscape:label="LVTRY">
  <path d="M 94.33936399999999,40.600914500000044 L 90.90036400000002,42.915914499999985" fill="none" instance-id="6" semantic-id="29" stroke="rgb(0,0,0)" stroke-width="0.1"/>
  <path d="M 96.26536399999998,43.46291450000001 L 92.82736399999999,45.777914500000065" fill="none" instance-id="6" semantic-id="29" stroke="rgb(0,0,0)" stroke-width="0.1"/>
  <path d="M 94.449364,40.586914500000034 L 96.32036399999998,43.36591450000003" fill="none" instance-id="6" semantic-id="29" stroke="rgb(0,0,0)" stroke-width="0.1"/>
  <path d="M 94.408364,40.614914500000054 L 96.27936399999999,43.39391450000005" fill="none" instance-id="6" semantic-id="29" stroke="rgb(0,0,0)" stroke-width="0.1"/>
  <path d="M 95.74936400000001,39.651914499999975 L 97.67636399999998,42.512914499999965" fill="none" instance-id="6" semantic-id="29" stroke="rgb(0,0,0)" stroke-width="0.1"/>
  <path d="M 95.74936400000001,39.651914499999975 L 94.46336400000001,40.516914499999984" fill="none" instance-id="6" semantic-id="29" stroke="rgb(0,0,0)" stroke-width="0.1"/>
  <path d="M 97.67636399999998,42.512914499999965 L 96.39036399999998,43.378914500000064" fill="none" instance-id="6" semantic-id="29" stroke="rgb(0,0,0)" stroke-width="0.1"/>
  <path d="M 91.98636399999998,42.662914500000056 L 91.16636399999999,43.21491449999996" fill="none" instance-id="6" semantic-id="29" stroke="rgb(0,0,0)" stroke-width="0.1"/>
  <path d="M 93.45236399999999,44.874914500000045 L 92.66036400000002,45.40791450000006" fill="none" instance-id="6" semantic-id="29" stroke="rgb(0,0,0)" stroke-width="0.1"/>
  <path d="M 79.76836400000002,35.61191450000001 L 82.42936400000002,39.56391450000001" fill="none" stroke="rgb(0,0,0)" stroke-width="0.1"/>
  <path d="M 82.668364,39.20291450000002 L 80.10036400000001,35.388914500000055" fill="none" stroke="rgb(0,0,0)" stroke-width="0.1"/>
  <path d="M 94.25336399999998,37.43091449999997 L 88.77936399999999,41.11691450000001" fill="none" stroke="rgb(0,0,0)" stroke-width="0.1"/>
  <path d="M 94.47736400000002,37.762914499999965 L 88.865364,41.540914499999985" fill="none" stroke="rgb(0,0,0)" stroke-width="0.1"/>
  <path d="M 82.42936400000002,39.56391450000001 L 88.865364,41.540914499999985" fill="none" instance-id="5" semantic-id="3" stroke="rgb(0,0,0)" stroke-width="0.1"/>
  <path d="M 78.94636400000002,37.971914500000025 L 72.31036399999999,42.439914499999986" fill="none" stroke="rgb(0,0,0)" stroke-width="0.1"/>
  <path d="M 78.834364,37.80591449999997 L 72.19836399999997,42.273914500000046" fill="none" stroke="rgb(0,0,0)" stroke-width="0.1"/>
  <path d="M 73.13136400000002,40.078914499999996 L 73.85736400000002,41.15691449999997" fill="none" stroke="rgb(0,0,0)" stroke-width="0.1"/>
  <path d="M 76.449364,37.84491449999996 L 77.175364,38.92291450000005" fill="none" stroke="rgb(0,0,0)" stroke-width="0.1"/>
  <path d="M 72.19836399999997,42.273914500000046 L 72.31036399999999,42.439914499999986" fill="none" stroke="rgb(0,0,0)" stroke-width="0.1"/>
  <path d="M 78.834364,37.80591449999997 L 78.94636400000002,37.971914500000025" fill="none" stroke="rgb(0,0,0)" stroke-width="0.1"/>
  <path d="M 80.045364,42.69291450000003 L 76.271364,45.23391449999997" fill="none" instance-id="4" semantic-id="23" stroke="rgb(0,0,0)" stroke-width="0.1"/>
  <path d="M 79.50336399999998,42.51491450000003 L 76.39336400000002,44.60991450000006" fill="none" instance-id="4" semantic-id="23" stroke="rgb(0,0,0)" stroke-width="0.1"/>
  <path d="M 74.80136399999998,42.24491450000005 L 77.91236400000003,40.1509145" fill="none" instance-id="4" semantic-id="23" stroke="rgb(0,0,0)" stroke-width="0.1"/>
  <path d="M 74.23236400000002,42.20591450000006 L 78.007364,39.66491450000001" fill="none" instance-id="4" semantic-id="23" stroke="rgb(0,0,0)" stroke-width="0.1"/>
  <path d="M 76.32336399999997,44.59591450000005 L 74.78736400000003,42.314914499999986" fill="none" instance-id="4" semantic-id="23" stroke="rgb(0,0,0)" stroke-width="0.1"/>
  <path d="M 77.98136399999999,40.16491450000001 L 79.51736399999999,42.44591450000007" fill="none" instance-id="4" semantic-id="23" stroke="rgb(0,0,0)" stroke-width="0.1"/>
  <path d="M 76.20136400000001,45.22091450000005 L 74.21936399999998,42.2759145" fill="none" instance-id="4" semantic-id="23" stroke="rgb(0,0,0)" stroke-width="0.1"/>
  <path d="M 78.07636400000001,39.67891450000002 L 80.05936400000002,42.62391450000007" fill="none" instance-id="4" semantic-id="23" stroke="rgb(0,0,0)" stroke-width="0.1"/>
  <path d="M 79.007364,39.3769145 L 78.95536399999997,39.3479145" fill="none" stroke="rgb(0,0,0)" stroke-width="0.1"/>
  <path d="M 78.75036399999999,39.71691450000003 L 78.95536399999997,39.3479145" fill="none" instance-id="4" semantic-id="23" stroke="rgb(0,0,0)" stroke-width="0.1"/>
  <path d="M 78.80336399999999,39.745914500000026 L 79.007364,39.3769145" fill="none" instance-id="4" semantic-id="23" stroke="rgb(0,0,0)" stroke-width="0.1"/>
  <path d="M 78.019364,40.76891450000005 L 78.29936399999997,40.9249145" fill="none" instance-id="4" semantic-id="23" stroke="rgb(0,0,0)" stroke-width="0.1"/>
  <path d="M 78.420364,40.04591449999998 L 77.96336400000001,40.86991450000005" fill="none" instance-id="4" semantic-id="23" stroke="rgb(0,0,0)" stroke-width="0.1"/>
  <path d="M 78.70036399999998,40.20091450000007 L 78.24336399999999,41.0259145" fill="none" instance-id="4" semantic-id="23" stroke="rgb(0,0,0)" stroke-width="0.1"/>
  <path d="M 77.96336400000001,40.86991450000005 L 78.24336399999999,41.0259145" fill="none" instance-id="4" semantic-id="23" stroke="rgb(0,0,0)" stroke-width="0.1"/>
  <path d="M 82.281364,39.34391449999998 L 79.23236400000002,41.3959145" fill="none" stroke="rgb(0,0,0)" stroke-width="0.1"/>
  <path d="M 75.37536399999999,43.99291449999998 L 72.32636400000001,46.04591449999998" fill="none" stroke="rgb(0,0,0)" stroke-width="0.1"/>
  <path d="M 82.668364,39.20291450000002 L 82.59236399999998,39.59591450000005" fill="none" stroke="rgb(0,0,0)" stroke-width="0.1"/>
  <path d="M 88.77936399999999,41.11691450000001 L 88.70236399999999,41.50891450000006" fill="none" stroke="rgb(0,0,0)" stroke-width="0.1"/>
  <path d="M 77.16436399999998,15.092914500000006 L 73.72636399999999,17.40791450000006" fill="none" instance-id="1" semantic-id="29" stroke="rgb(0,0,0)" stroke-width="0.1"/>
  <path d="M 75.23736400000001,12.23091450000004 L 71.79936399999997,14.54591449999998" fill="none" instance-id="1" semantic-id="29" stroke="rgb(0,0,0)" stroke-width="0.1"/>
  <path d="M 77.21936399999998,14.995914500000026 L 75.348364,12.21691450000003" fill="none" instance-id="1" semantic-id="29" stroke="rgb(0,0,0)" stroke-width="0.1"/>
  <path d="M 77.17836399999999,15.023914500000046 L 75.307364,12.24491450000005" fill="none" instance-id="1" semantic-id="29" stroke="rgb(0,0,0)" stroke-width="0.1"/>
  <path d="M 78.574364,14.14391450000005 L 76.64836400000002,11.28191449999997" fill="none" instance-id="1" semantic-id="29" stroke="rgb(0,0,0)" stroke-width="0.1"/>
  <path d="M 78.574364,14.14391450000005 L 77.28936399999998,15.00891450000006" fill="none" instance-id="1" semantic-id="29" stroke="rgb(0,0,0)" stroke-width="0.1"/>
  <path d="M 76.64836400000002,11.28191449999997 L 75.36236400000001,12.14691449999998" fill="none" instance-id="1" semantic-id="29" stroke="rgb(0,0,0)" stroke-width="0.1"/>
  <path d="M 74.36936400000002,16.496914500000003 L 73.54936399999997,17.048914500000024" fill="none" instance-id="1" semantic-id="29" stroke="rgb(0,0,0)" stroke-width="0.1"/>
  <path d="M 72.87136399999997,14.306914500000062 L 72.079364,14.839914499999963" fill="none" instance-id="1" semantic-id="29" stroke="rgb(0,0,0)" stroke-width="0.1"/>
  <path d="M 76.30636399999997,30.46991449999996 L 73.64536399999997,26.51791449999996" fill="none" stroke="rgb(0,0,0)" stroke-width="0.1"/>
  <path d="M 74.07036399999998,26.43191450000006 L 76.63836400000002,30.245914500000026" fill="none" stroke="rgb(0,0,0)" stroke-width="0.1"/>
  <path d="M 80.07036399999998,16.363914499999964 L 74.59536400000002,20.0499145" fill="none" stroke="rgb(0,0,0)" stroke-width="0.1"/>
  <path d="M 79.846364,16.03291450000006 L 74.23436399999997,19.810914499999967" fill="none" stroke="rgb(0,0,0)" stroke-width="0.1"/>
  <path d="M 73.64536399999997,26.51791449999996 L 74.23436399999997,19.810914499999967" fill="none" instance-id="2" semantic-id="3" stroke="rgb(0,0,0)" stroke-width="0.1"/>
  <path d="M 73.81036399999999,30.343914499999983 L 67.17436399999997,34.81191450000006" fill="none" stroke="rgb(0,0,0)" stroke-width="0.1"/>
  <path d="M 73.92236400000002,30.509914500000036 L 67.28636399999999,34.9779145" fill="none" stroke="rgb(0,0,0)" stroke-width="0.1"/>
  <path d="M 69.67136399999998,34.93891450000001 L 68.94536399999998,33.860914500000035" fill="none" stroke="rgb(0,0,0)" stroke-width="0.1"/>
  <path d="M 72.98936400000002,32.70491449999997 L 72.26336400000002,31.626914499999998" fill="none" stroke="rgb(0,0,0)" stroke-width="0.1"/>
  <path d="M 67.28636399999999,34.9779145 L 67.17436399999997,34.81191450000006" fill="none" stroke="rgb(0,0,0)" stroke-width="0.1"/>
  <path d="M 73.92236400000002,30.509914500000036 L 73.81036399999999,30.343914499999983" fill="none" stroke="rgb(0,0,0)" stroke-width="0.1"/>
  <path d="M 69.84936399999998,27.5499145 L 66.07536399999998,30.090914500000054" fill="none" instance-id="3" semantic-id="23" stroke="rgb(0,0,0)" stroke-width="0.1"/>
  <path d="M 69.81036399999999,28.11891449999996 L 66.70036399999998,30.21291450000001" fill="none" instance-id="3" semantic-id="23" stroke="rgb(0,0,0)" stroke-width="0.1"/>
  <path d="M 68.29136399999999,32.57691450000004 L 71.40236399999998,30.482914499999993" fill="none" instance-id="3" semantic-id="23" stroke="rgb(0,0,0)" stroke-width="0.1"/>
  <path d="M 68.11436400000002,33.11891449999996 L 71.88836400000002,30.576914500000044" fill="none" instance-id="3" semantic-id="23" stroke="rgb(0,0,0)" stroke-width="0.1"/>
  <path d="M 66.68636399999997,30.28191449999997 L 68.22236399999997,32.56291450000003" fill="none" instance-id="3" semantic-id="23" stroke="rgb(0,0,0)" stroke-width="0.1"/>
  <path d="M 71.41636399999999,30.412914500000056 L 69.88036399999999,28.131914499999993" fill="none" instance-id="3" semantic-id="23" stroke="rgb(0,0,0)" stroke-width="0.1"/>
  <path d="M 66.062364,30.159914500000014 L 68.04436399999997,33.10491450000006" fill="none" instance-id="3" semantic-id="23" stroke="rgb(0,0,0)" stroke-width="0.1"/>
  <path d="M 71.901364,30.50791449999997 L 69.91936399999997,27.562914500000034" fill="none" instance-id="3" semantic-id="23" stroke="rgb(0,0,0)" stroke-width="0.1"/>
  <path d="M 72.531364,29.75791449999997 L 72.538364,29.81791450000003" fill="none" stroke="rgb(0,0,0)" stroke-width="0.1"/>
  <path d="M 72.11936400000002,29.86891449999996 L 72.538364,29.81791450000003" fill="none" instance-id="3" semantic-id="23" stroke="rgb(0,0,0)" stroke-width="0.1"/>
  <path d="M 72.11236400000001,29.808914500000014 L 72.531364,29.75791449999997" fill="none" instance-id="3" semantic-id="23" stroke="rgb(0,0,0)" stroke-width="0.1"/>
  <path d="M 70.86936400000002,30.1509145 L 70.83136400000001,29.832914500000015" fill="none" instance-id="3" semantic-id="23" stroke="rgb(0,0,0)" stroke-width="0.1"/>
  <path d="M 71.69036399999999,30.051914500000066 L 70.75536399999999,30.16491450000001" fill="none" instance-id="3" semantic-id="23" stroke="rgb(0,0,0)" stroke-width="0.1"/>
  <path d="M 71.65236399999998,29.73391449999997 L 70.716364,29.846914500000025" fill="none" instance-id="3" semantic-id="23" stroke="rgb(0,0,0)" stroke-width="0.1"/>
  <path d="M 70.75536399999999,30.16491450000001 L 70.716364,29.846914500000025" fill="none" instance-id="3" semantic-id="23" stroke="rgb(0,0,0)" stroke-width="0.1"/>
  <path d="M 73.79436399999997,26.737914499999988 L 70.745364,28.790914499999985" fill="none" stroke="rgb(0,0,0)" stroke-width="0.1"/>
  <path d="M 66.88836400000002,31.387914499999965 L 63.83936399999999,33.439914499999986" fill="none" stroke="rgb(0,0,0)" stroke-width="0.1"/>
  <path d="M 74.07036399999998,26.43191450000006 L 73.67736400000001,26.354914500000064" fill="none" stroke="rgb(0,0,0)" stroke-width="0.1"/>
  <path d="M 74.59536400000002,20.0499145 L 74.20236399999999,19.973914499999978" fill="none" stroke="rgb(0,0,0)" stroke-width="0.1"/>
  <path d="M 93.45236399999999,44.874914500000045 A 1.33763,1.33763 0.0 0,0 91.98236400000002,42.66491450000001" fill="none" instance-id="6" semantic-id="29" stroke="rgb(0,0,0)" stroke-width="0.1"/>
  <path d="M 94.46336400000001,40.516914499999984 A 0.05,0.05 0.0 0,0 94.449364,40.586914500000034" fill="none" stroke="rgb(0,0,0)" stroke-width="0.1"/>
  <path d="M 94.408364,40.614914500000054 A 0.05,0.05 0.0 0,0 94.33936399999999,40.600914500000044" fill="none" stroke="rgb(0,0,0)" stroke-width="0.1"/>
  <path d="M 96.32036399999998,43.36591450000003 A 0.05,0.05 0.0 0,0 96.39036399999998,43.378914500000064" fill="none" stroke="rgb(0,0,0)" stroke-width="0.1"/>
  <path d="M 96.26536399999998,43.46291450000001 A 0.05,0.05 0.0 0,0 96.27936399999999,43.39391450000005" fill="none" stroke="rgb(0,0,0)" stroke-width="0.1"/>
  <path d="M 91.16636399999999,43.21491449999996 A 1.33763,1.33763 0.0 0,0 92.66036400000002,45.40791450000006" fill="none" instance-id="6" semantic-id="29" stroke="rgb(0,0,0)" stroke-width="0.1"/>
  <path d="M 90.90036400000002,42.915914499999985 A 1.74077,1.74077 0.0 0,0 92.82736399999999,45.777914500000065" fill="none" instance-id="6" semantic-id="29" stroke="rgb(0,0,0)" stroke-width="0.1"/>
  <path d="M 80.045364,42.69291450000003 A 0.05,0.05 0.0 0,0 80.05936400000002,42.62391450000007" fill="none" stroke="rgb(0,0,0)" stroke-width="0.1"/>
  <path d="M 76.20136400000001,45.22091450000005 A 0.05,0.05 0.0 0,0 76.271364,45.23391449999997" fill="none" stroke="rgb(0,0,0)" stroke-width="0.1"/>
  <path d="M 79.50336399999998,42.51491450000003 A 0.05,0.05 0.0 0,0 79.51736399999999,42.44591450000007" fill="none" stroke="rgb(0,0,0)" stroke-width="0.1"/>
  <path d="M 76.32336399999997,44.59591450000005 A 0.05,0.05 0.0 0,0 76.39336400000002,44.60991450000006" fill="none" stroke="rgb(0,0,0)" stroke-width="0.1"/>
  <path d="M 78.07636400000001,39.67891450000002 A 0.05,0.05 0.0 0,0 78.007364,39.66491450000001" fill="none" stroke="rgb(0,0,0)" stroke-width="0.1"/>
  <path d="M 77.98136399999999,40.16491450000001 A 0.05,0.05 0.0 0,0 77.91236400000003,40.1509145" fill="none" stroke="rgb(0,0,0)" stroke-width="0.1"/>
  <path d="M 74.80136399999998,42.24491450000005 A 0.05,0.05 0.0 0,0 74.78736400000003,42.314914499999986" fill="none" stroke="rgb(0,0,0)" stroke-width="0.1"/>
  <path d="M 74.23236400000002,42.20591450000006 A 0.05,0.05 0.0 0,0 74.21936399999998,42.2759145" fill="none" stroke="rgb(0,0,0)" stroke-width="0.1"/>
  <path d="M 82.59236399999998,39.59591450000005 A 9.21956,9.21956 0.0 0,0 83.45736399999998,43.627914499999974" fill="none" instance-id="5" semantic-id="3" stroke="rgb(0,0,0)" stroke-width="0.1"/>
  <path d="M 74.365364,16.499914500000045 A 1.33763,1.33763 0.0 0,0 72.87136399999997,14.306914500000062" fill="none" instance-id="1" semantic-id="29" stroke="rgb(0,0,0)" stroke-width="0.1"/>
  <path d="M 77.21936399999998,14.995914500000026 A 0.05,0.05 0.0 0,0 77.28936399999998,15.00891450000006" fill="none" stroke="rgb(0,0,0)" stroke-width="0.1"/>
  <path d="M 77.16436399999998,15.092914500000006 A 0.05,0.05 0.0 0,0 77.17836399999999,15.023914500000046" fill="none" stroke="rgb(0,0,0)" stroke-width="0.1"/>
  <path d="M 75.36236400000001,12.14691449999998 A 0.05,0.05 0.0 0,0 75.348364,12.21691450000003" fill="none" stroke="rgb(0,0,0)" stroke-width="0.1"/>
  <path d="M 75.307364,12.24491450000005 A 0.05,0.05 0.0 0,0 75.23736400000001,12.23091450000004" fill="none" stroke="rgb(0,0,0)" stroke-width="0.1"/>
  <path d="M 72.079364,14.839914499999963 A 1.33763,1.33763 0.0 0,0 73.54936399999997,17.048914500000024" fill="none" instance-id="1" semantic-id="29" stroke="rgb(0,0,0)" stroke-width="0.1"/>
  <path d="M 71.79936399999997,14.54591449999998 A 1.74077,1.74077 0.0 0,0 73.72636399999999,17.40791450000006" fill="none" instance-id="1" semantic-id="29" stroke="rgb(0,0,0)" stroke-width="0.1"/>
  <path d="M 69.91936399999997,27.562914500000034 A 0.05,0.05 0.0 0,0 69.84936399999998,27.5499145" fill="none" stroke="rgb(0,0,0)" stroke-width="0.1"/>
  <path d="M 66.07536399999998,30.090914500000054 A 0.05,0.05 0.0 0,0 66.062364,30.159914500000014" fill="none" stroke="rgb(0,0,0)" stroke-width="0.1"/>
  <path d="M 69.88036399999999,28.131914499999993 A 0.05,0.05 0.0 0,0 69.81036399999999,28.11891449999996" fill="none" stroke="rgb(0,0,0)" stroke-width="0.1"/>
  <path d="M 66.70036399999998,30.21291450000001 A 0.05,0.05 0.0 0,0 66.68636399999997,30.28191449999997" fill="none" stroke="rgb(0,0,0)" stroke-width="0.1"/>
  <path d="M 71.88836400000002,30.576914500000044 A 0.05,0.05 0.0 0,0 71.901364,30.50791449999997" fill="none" stroke="rgb(0,0,0)" stroke-width="0.1"/>
  <path d="M 71.40236399999998,30.482914499999993 A 0.05,0.05 0.0 0,0 71.41636399999999,30.412914500000056" fill="none" stroke="rgb(0,0,0)" stroke-width="0.1"/>
  <path d="M 68.22236399999997,32.56291450000003 A 0.05,0.05 0.0 0,0 68.29136399999999,32.57691450000004" fill="none" stroke="rgb(0,0,0)" stroke-width="0.1"/>
  <path d="M 68.04436399999997,33.10491450000006 A 0.05,0.05 0.0 0,0 68.11436400000002,33.11891449999996" fill="none" stroke="rgb(0,0,0)" stroke-width="0.1"/>
  <path d="M 70.26736399999999,24.036914499999966 A 9.21956,9.21956 0.0 0,0 73.67736400000001,26.354914500000064" fill="none" instance-id="2" semantic-id="3" stroke="rgb(0,0,0)" stroke-width="0.1"/>
  <path d="M 88.70236399999999,41.50891450000006 L 88.800364,41.79291450000005" fill="none" stroke="rgb(0,0,0)" stroke-width="0.1"/>
  <path d="M 88.800364,41.79291450000005 L 83.449364,43.62991450000004" fill="none" instance-id="5" semantic-id="3" stroke="rgb(0,0,0)" stroke-width="0.1"/>
  <path d="M 83.449364,43.62991450000004 L 83.35236400000002,43.346914500000025" fill="none" instance-id="5" semantic-id="3" stroke="rgb(0,0,0)" stroke-width="0.1"/>
  <path d="M 83.35236400000002,43.346914500000025 L 88.70236399999999,41.50891450000006" fill="none" instance-id="5" semantic-id="3" stroke="rgb(0,0,0)" stroke-width="0.1"/>
  <path d="M 74.20236399999999,19.973914499999978 L 73.97636399999999,19.776914499999975" fill="none" instance-id="2" semantic-id="3" stroke="rgb(0,0,0)" stroke-width="0.1"/>
  <path d="M 73.97636399999999,19.776914499999975 L 70.26136400000001,24.04291450000005" fill="none" instance-id="2" semantic-id="3" stroke="rgb(0,0,0)" stroke-width="0.1"/>
  <path d="M 70.26136400000001,24.04291450000005 L 70.48836399999999,24.239914500000054" fill="none" instance-id="2" semantic-id="3" stroke="rgb(0,0,0)" stroke-width="0.1"/>
  <path d="M 70.48836399999999,24.239914500000054 L 74.20236399999999,19.973914499999978" fill="none" instance-id="2" semantic-id="3" stroke="rgb(0,0,0)" stroke-width="0.1"/>
  <circle cx="88.77936399999999" cy="33.25091450000002" fill="none" r="0.3" stroke="rgb(0,0,0)" stroke-width="0.1"/>
  <circle cx="76.932364" cy="42.05291450000004" fill="none" instance-id="4" r="0.2" semantic-id="23" stroke="rgb(0,0,0)" stroke-width="0.1"/>
  <circle cx="78.66036400000002" cy="39.94191450000005" fill="none" instance-id="4" r="0.24" semantic-id="23" stroke="rgb(0,0,0)" stroke-width="0.1"/>
  <circle cx="78.66036400000002" cy="39.94191450000005" fill="none" instance-id="4" r="0.24" semantic-id="23" stroke="rgb(0,0,0)" stroke-width="0.1"/>
  <circle cx="78.66036400000002" cy="39.94191450000005" fill="none" instance-id="4" r="0.24" semantic-id="23" stroke="rgb(0,0,0)" stroke-width="0.1"/>
  <circle cx="81.884364" cy="23.00891450000006" fill="none" r="0.3" stroke="rgb(0,0,0)" stroke-width="0.1"/>
  <circle cx="69.271364" cy="30.6749145" fill="none" instance-id="3" r="0.2" semantic-id="23" stroke="rgb(0,0,0)" stroke-width="0.1"/>
  <circle cx="71.87836399999998" cy="29.867914499999983" fill="none" instance-id="3" r="0.24" semantic-id="23" stroke="rgb(0,0,0)" stroke-width="0.1"/>
  <circle cx="71.87836399999998" cy="29.867914499999983" fill="none" instance-id="3" r="0.24" semantic-id="23" stroke="rgb(0,0,0)" stroke-width="0.1"/>
  <circle cx="71.87836399999998" cy="29.867914499999983" fill="none" instance-id="3" r="0.24" semantic-id="23" stroke="rgb(0,0,0)" stroke-width="0.1"/>
 </g>
 <g id="layerM-INFO-ROOM-JZTZ" inkscape:groupmode="layer" inkscape:label="M-INFO-ROOM-JZTZ">
  <path d="M 78.02036399999997,35.342914500000006 L 77.87536399999999,32.1989145" fill="none" stroke="rgb(178,0,0)" stroke-width="0.1"/>
  <path d="M 77.87536399999999,32.1989145 L 86.05436400000002,25.352914499999997" fill="none" stroke="rgb(178,0,0)" stroke-width="0.1"/>
 </g>
 <g id="layerPUB_TEXT" inkscape:groupmode="layer" inkscape:label="PUB_TEXT">
  <text fill="rgb(0,0,0)" font-family="Noto Sans CJK SC" font-size="2" transform="rotate(-33.95,60.39536399999997,84.19091449999996)" x="60.39536399999997" y="84.19091449999996">
   剧场运营管理
  </text>
  <text fill="rgb(0,0,0)" font-family="Noto Sans CJK SC" font-size="2" transform="rotate(-33.95,14.860364000000004,13.74091450000003)" x="14.860364000000004" y="13.74091450000003">
   剧场运营管理
  </text>
  <text fill="rgb(0,0,0)" font-family="Noto Sans CJK SC" font-size="2" transform="rotate(-33.95,27.725364000000013,34.100914500000044)" x="27.725364000000013" y="34.100914500000044">
   剧场运营管理
  </text>
 </g>
 <g id="layerWALL" inkscape:groupmode="layer" inkscape:label="WALL">
  <path d="M 100.0,6.573337739098747 L 95.5744694729774,0.0" fill="none" instance-id="-1" semantic-id="1" stroke="rgb(178,178,0)" stroke-width="0.1"/>
  <path d="M 100.0,2.992188583968641 L 97.98549497279026,0.0" fill="none" instance-id="-1" semantic-id="1" stroke="rgb(178,178,0)" stroke-width="0.1"/>
  <path d="M 99.19093652426903,0.0 L 100.0,1.2017234594571846" fill="none" instance-id="-1" semantic-id="1" stroke="rgb(178,178,0)" stroke-width="0.1"/>
  <path d="M 74.87536399999999,8.64791450000007 L 70.72736400000002,11.440914499999963" fill="none" instance-id="-1" semantic-id="1" stroke="rgb(178,178,0)" stroke-width="0.1"/>
  <path d="M 75.97536400000001,6.7019145000000435 L 70.99836399999998,10.052914500000043" fill="none" instance-id="-1" semantic-id="1" stroke="rgb(178,178,0)" stroke-width="0.1"/>
  <path d="M 61.819356319300994,0.0 L 63.19636400000002,2.0449145000000044" fill="none" instance-id="-1" semantic-id="1" stroke="rgb(178,178,0)" stroke-width="0.1"/>
  <path d="M 63.19636400000002,2.0449145000000044 L 64.85536400000001,0.9279145000000426" fill="none" instance-id="-1" semantic-id="1" stroke="rgb(178,178,0)" stroke-width="0.1"/>
  <path d="M 64.85536400000001,0.9279145000000426 L 64.23060179596143,0.0" fill="none" instance-id="-1" semantic-id="1" stroke="rgb(178,178,0)" stroke-width="0.1"/>
  <path d="M 70.99836399999998,10.052914500000043 L 70.44036399999999,9.222914500000002" fill="none" instance-id="-1" semantic-id="1" stroke="rgb(178,178,0)" stroke-width="0.1"/>
  <path d="M 70.44036399999999,9.222914500000002 L 68.781364,10.339914499999963" fill="none" instance-id="-1" semantic-id="1" stroke="rgb(178,178,0)" stroke-width="0.1"/>
  <path d="M 68.781364,10.339914499999963 L 69.33936399999999,11.169914500000004" fill="none" instance-id="-1" semantic-id="1" stroke="rgb(178,178,0)" stroke-width="0.1"/>
  <path d="M 55.79636399999998,21.49391449999996 L 66.35236400000002,37.17191450000007" fill="none" instance-id="-1" semantic-id="1" stroke="rgb(178,178,0)" stroke-width="0.1"/>
  <path d="M 54.408364000000006,21.2229145 L 65.85736400000002,38.2279145" fill="none" instance-id="-1" semantic-id="1" stroke="rgb(178,178,0)" stroke-width="0.1"/>
  <path d="M 75.97536400000001,6.7019145000000435 L 87.42436399999997,23.70691450000004" fill="none" instance-id="-1" semantic-id="1" stroke="rgb(178,178,0)" stroke-width="0.1"/>
  <path d="M 74.87536399999999,8.64791450000007 L 85.430364,24.325914500000067" fill="none" instance-id="-1" semantic-id="1" stroke="rgb(178,178,0)" stroke-width="0.1"/>
  <path d="M 69.33936399999999,11.169914500000004 L 63.535364000000015,15.07791450000002" fill="none" instance-id="-1" semantic-id="1" stroke="rgb(178,178,0)" stroke-width="0.1"/>
  <path d="M 63.535364000000015,15.07791450000002 L 64.09336400000001,15.90691449999997" fill="none" instance-id="-1" semantic-id="1" stroke="rgb(178,178,0)" stroke-width="0.1"/>
  <path d="M 64.09336400000001,15.90691449999997 L 70.72736400000002,11.440914499999963" fill="none" instance-id="-1" semantic-id="1" stroke="rgb(178,178,0)" stroke-width="0.1"/>
  <path d="M 55.79636399999998,21.49391449999996 L 56.628363999999976,20.933914500000014" fill="none" instance-id="-1" semantic-id="1" stroke="rgb(178,178,0)" stroke-width="0.1"/>
  <path d="M 56.628363999999976,20.933914500000014 L 56.06936400000001,20.103914499999973" fill="none" instance-id="-1" semantic-id="1" stroke="rgb(178,178,0)" stroke-width="0.1"/>
  <path d="M 56.06936400000001,20.103914499999973 L 54.408364000000006,21.2229145" fill="none" instance-id="-1" semantic-id="1" stroke="rgb(178,178,0)" stroke-width="0.1"/>
  <path d="M 88.89336400000002,29.468914499999983 L 78.192364,36.67391450000002" fill="none" instance-id="-1" semantic-id="1" stroke="rgb(178,178,0)" stroke-width="0.1"/>
  <path d="M 88.223364,28.473914499999978 L 78.02036399999997,35.342914500000006" fill="none" instance-id="-1" semantic-id="1" stroke="rgb(178,178,0)" stroke-width="0.1"/>
  <path d="M 100.0,45.98087266033747 L 96.68936400000001,48.20991449999997" fill="none" instance-id="-1" semantic-id="1" stroke="rgb(178,178,0)" stroke-width="0.1"/>
  <path d="M 99.44836399999997,45.14691449999998 L 95.30136399999998,47.93891450000001" fill="none" instance-id="-1" semantic-id="1" stroke="rgb(178,178,0)" stroke-width="0.1"/>
  <path d="M 95.03036400000002,49.32691450000004 L 95.58836400000001,50.15691449999997" fill="none" instance-id="-1" semantic-id="1" stroke="rgb(178,178,0)" stroke-width="0.1"/>
  <path d="M 95.58836400000001,50.15691449999997 L 97.247364,49.03991450000001" fill="none" instance-id="-1" semantic-id="1" stroke="rgb(178,178,0)" stroke-width="0.1"/>
  <path d="M 97.247364,49.03991450000001 L 96.68936400000001,48.20991449999997" fill="none" instance-id="-1" semantic-id="1" stroke="rgb(178,178,0)" stroke-width="0.1"/>
  <path d="M 77.02436399999999,36.012914499999965 L 75.776364,36.85391449999997" fill="none" instance-id="-1" semantic-id="1" stroke="rgb(178,178,0)" stroke-width="0.1"/>
  <path d="M 75.776364,36.85391449999997 L 76.44636400000002,37.84991450000007" fill="none" instance-id="-1" semantic-id="1" stroke="rgb(178,178,0)" stroke-width="0.1"/>
  <path d="M 76.44636400000002,37.84991450000007 L 78.192364,36.67391450000002" fill="none" instance-id="-1" semantic-id="1" stroke="rgb(178,178,0)" stroke-width="0.1"/>
  <path d="M 69.81436400000001,42.31391450000001 L 73.12836399999998,40.082914500000015" fill="none" instance-id="-1" semantic-id="1" stroke="rgb(178,178,0)" stroke-width="0.1"/>
  <path d="M 73.12836399999998,40.082914500000015 L 72.45836400000002,39.08791450000001" fill="none" instance-id="-1" semantic-id="1" stroke="rgb(178,178,0)" stroke-width="0.1"/>
  <path d="M 72.45836400000002,39.08791450000001 L 69.144364,41.318914500000005" fill="none" instance-id="-1" semantic-id="1" stroke="rgb(178,178,0)" stroke-width="0.1"/>
  <path d="M 67.812364,41.13091450000002 L 41.68236400000001,58.72391449999998" fill="none" instance-id="-1" semantic-id="1" stroke="rgb(178,178,0)" stroke-width="0.1"/>
  <path d="M 66.69536399999998,39.471914500000025 L 40.56536399999999,57.064914499999986" fill="none" instance-id="-1" semantic-id="1" stroke="rgb(178,178,0)" stroke-width="0.1"/>
  <path d="M 41.68236400000001,58.72391449999998 L 40.56536399999999,57.064914499999986" fill="none" instance-id="-1" semantic-id="1" stroke="rgb(178,178,0)" stroke-width="0.1"/>
  <path d="M 66.69536399999998,39.471914500000025 L 65.85736400000002,38.2279145" fill="none" instance-id="-1" semantic-id="1" stroke="rgb(178,178,0)" stroke-width="0.1"/>
  <path d="M 68.08336400000002,39.74291449999998 L 67.02236399999998,38.16691449999996" fill="none" instance-id="-1" semantic-id="1" stroke="rgb(178,178,0)" stroke-width="0.1"/>
  <path d="M 86.10036400000001,25.321914500000048 L 75.89836400000002,32.19091449999996" fill="none" instance-id="-1" semantic-id="1" stroke="rgb(178,178,0)" stroke-width="0.1"/>
  <path d="M 85.430364,24.325914500000067 L 74.73036400000001,31.530914499999994" fill="none" instance-id="-1" semantic-id="1" stroke="rgb(178,178,0)" stroke-width="0.1"/>
  <path d="M 74.73036400000001,31.530914499999994 L 72.983364,32.70691450000004" fill="none" instance-id="-1" semantic-id="1" stroke="rgb(178,178,0)" stroke-width="0.1"/>
  <path d="M 72.983364,32.70691450000004 L 73.65336400000001,33.70191450000004" fill="none" instance-id="-1" semantic-id="1" stroke="rgb(178,178,0)" stroke-width="0.1"/>
  <path d="M 73.65336400000001,33.70191450000004 L 74.90236399999998,32.860914500000035" fill="none" instance-id="-1" semantic-id="1" stroke="rgb(178,178,0)" stroke-width="0.1"/>
  <path d="M 67.02236399999998,38.16691449999996 L 70.33536399999997,35.93591449999997" fill="none" instance-id="-1" semantic-id="1" stroke="rgb(178,178,0)" stroke-width="0.1"/>
  <path d="M 70.33536399999997,35.93591449999997 L 69.66536400000001,34.939914499999986" fill="none" instance-id="-1" semantic-id="1" stroke="rgb(178,178,0)" stroke-width="0.1"/>
  <path d="M 69.66536400000001,34.939914499999986 L 66.35236400000002,37.17191450000007" fill="none" instance-id="-1" semantic-id="1" stroke="rgb(178,178,0)" stroke-width="0.1"/>
  <path d="M 77.02436399999999,36.012914499999965 L 74.90236399999998,32.860914500000035" fill="none" instance-id="-1" semantic-id="1" stroke="rgb(178,178,0)" stroke-width="0.1"/>
  <path d="M 78.02036399999997,35.342914500000006 L 75.89836400000002,32.19091449999996" fill="none" instance-id="-1" semantic-id="1" stroke="rgb(178,178,0)" stroke-width="0.1"/>
  <path d="M 68.65036400000002,42.374914500000045 L 67.812364,41.13091450000002" fill="none" instance-id="-1" semantic-id="1" stroke="rgb(178,178,0)" stroke-width="0.1"/>
  <path d="M 69.144364,41.318914500000005 L 68.08336400000002,39.74291449999998" fill="none" instance-id="-1" semantic-id="1" stroke="rgb(178,178,0)" stroke-width="0.1"/>
  <path d="M 88.223364,28.473914499999978 L 86.10036400000001,25.321914500000048" fill="none" instance-id="-1" semantic-id="1" stroke="rgb(178,178,0)" stroke-width="0.1"/>
  <path d="M 90.21736399999998,27.853914499999973 L 87.42436399999997,23.70691450000004" fill="none" instance-id="-1" semantic-id="1" stroke="rgb(178,178,0)" stroke-width="0.1"/>
  <path d="M 80.09936399999998,59.37991450000004 L 68.65036400000002,42.374914500000045" fill="none" instance-id="-1" semantic-id="1" stroke="rgb(178,178,0)" stroke-width="0.1"/>
  <path d="M 80.370364,57.99191450000001 L 69.81436400000001,42.31391450000001" fill="none" instance-id="-1" semantic-id="1" stroke="rgb(178,178,0)" stroke-width="0.1"/>
  <path d="M 99.44836399999997,45.14691449999998 L 88.89336400000002,29.468914499999983" fill="none" instance-id="-1" semantic-id="1" stroke="rgb(178,178,0)" stroke-width="0.1"/>
  <path d="M 100.0,42.38389311647302 L 90.21736399999998,27.853914499999973" fill="none" instance-id="-1" semantic-id="1" stroke="rgb(178,178,0)" stroke-width="0.1"/>
  <path d="M 95.30136399999998,47.93891450000001 L 88.66636399999999,52.40691449999997" fill="none" instance-id="-1" semantic-id="1" stroke="rgb(178,178,0)" stroke-width="0.1"/>
  <path d="M 88.66636399999999,52.40691449999997 L 89.22436399999998,53.235914500000035" fill="none" instance-id="-1" semantic-id="1" stroke="rgb(178,178,0)" stroke-width="0.1"/>
  <path d="M 89.22436399999998,53.235914500000035 L 95.03036400000002,49.32691450000004" fill="none" instance-id="-1" semantic-id="1" stroke="rgb(178,178,0)" stroke-width="0.1"/>
  <path d="M 80.09936399999998,59.37991450000004 L 81.759364,58.262914499999965" fill="none" instance-id="-1" semantic-id="1" stroke="rgb(178,178,0)" stroke-width="0.1"/>
  <path d="M 81.759364,58.262914499999965 L 81.20036399999998,57.43291450000004" fill="none" instance-id="-1" semantic-id="1" stroke="rgb(178,178,0)" stroke-width="0.1"/>
  <path d="M 81.20036399999998,57.43291450000004 L 80.370364,57.99191450000001" fill="none" instance-id="-1" semantic-id="1" stroke="rgb(178,178,0)" stroke-width="0.1"/>
  <path d="M 100.0,70.09161493443901 L 71.77436399999999,89.09591450000005" fill="none" instance-id="-1" semantic-id="1" stroke="rgb(178,178,0)" stroke-width="0.1"/>
  <path d="M 100.0,67.6805396715564 L 70.65736399999997,87.43691450000006" fill="none" instance-id="-1" semantic-id="1" stroke="rgb(178,178,0)" stroke-width="0.1"/>
  <path d="M 53.69618268870005,0.0 L 24.86136399999998,19.413914500000033" fill="none" instance-id="-1" semantic-id="1" stroke="rgb(178,178,0)" stroke-width="0.1"/>
  <path d="M 50.115127116365386,0.0 L 23.74436400000002,17.75491450000004" fill="none" instance-id="-1" semantic-id="1" stroke="rgb(178,178,0)" stroke-width="0.1"/>
 </g>
 <g id="layerWINDOW" inkscape:groupmode="layer" inkscape:label="WINDOW">
  <path d="M 70.33536399999997,35.93591449999997 L 73.65336400000001,33.70191450000004" fill="none" stroke="rgb(0,178,0)" stroke-width="0.1"/>
  <path d="M 72.983364,32.70691450000004 L 69.66536400000001,34.939914499999986" fill="none" stroke="rgb(0,178,0)" stroke-width="0.1"/>
  <path d="M 73.12836399999998,40.082914500000015 L 76.44636400000002,37.84991450000007" fill="none" stroke="rgb(0,178,0)" stroke-width="0.1"/>
  <path d="M 75.776364,36.85391449999997 L 72.45836400000002,39.08791450000001" fill="none" stroke="rgb(0,178,0)" stroke-width="0.1"/>
  <path d="M 56.217363999999975,7.346914500000025 L 55.93836399999998,6.931914500000062" fill="none" instance-id="15" semantic-id="3" stroke="rgb(0,178,0)" stroke-width="0.1"/>
  <path d="M 64.02536400000002,1.4869145000000117 L 64.30436400000002,1.9019144999999753" fill="none" instance-id="15" semantic-id="3" stroke="rgb(0,178,0)" stroke-width="0.1"/>
  <path d="M 64.02536400000002,1.4869145000000117 L 55.93836399999998,6.931914500000062" fill="none" instance-id="15" semantic-id="3" stroke="rgb(0,178,0)" stroke-width="0.1"/>
  <path d="M 64.30436400000002,1.9019144999999753 L 56.217363999999975,7.346914500000025" fill="none" instance-id="15" semantic-id="3" stroke="rgb(0,178,0)" stroke-width="0.1"/>
  <path d="M 93.63636400000001,62.92391450000002 L 93.91536400000001,63.33891449999999" fill="none" instance-id="12" semantic-id="3" stroke="rgb(0,178,0)" stroke-width="0.1"/>
  <path d="M 100.0,59.241866075667645 L 93.91536400000001,63.33891449999999" fill="none" instance-id="12" semantic-id="3" stroke="rgb(0,178,0)" stroke-width="0.1"/>
  <path d="M 100.0,58.63979011572701 L 93.63636400000001,62.92391450000002" fill="none" instance-id="12" semantic-id="3" stroke="rgb(0,178,0)" stroke-width="0.1"/>
  <path d="M 56.34936399999998,20.51891450000005 L 64.43436400000002,24.47091450000005" fill="none" instance-id="14" semantic-id="3" stroke="rgb(0,178,0)" stroke-width="0.1"/>
  <path d="M 81.47936399999998,57.8479145 L 80.85936399999997,48.86891449999996" fill="none" instance-id="13" semantic-id="3" stroke="rgb(0,178,0)" stroke-width="0.1"/>
  <path d="M 56.219363999999985,7.344914499999959 A 9.75,9.75 0.0 0,0 69.610364,9.78191449999997" fill="none" instance-id="15" semantic-id="3" stroke="rgb(0,178,0)" stroke-width="0.1"/>
  <path d="M 96.418364,49.5979145 A 9.75,9.75 0.0 0,0 93.639364,62.92191450000007" fill="none" instance-id="12" semantic-id="3" stroke="rgb(0,178,0)" stroke-width="0.1"/>
  <path d="M 64.43436400000002,24.47091450000005 A 9.0,9.0 0.0 0,0 63.81436400000001,15.492914499999983" fill="none" instance-id="14" semantic-id="3" stroke="rgb(0,178,0)" stroke-width="0.1"/>
  <path d="M 88.94536399999998,52.82191450000005 A 9.0,9.0 0.0 0,0 80.85936399999997,48.86891449999996" fill="none" instance-id="13" semantic-id="3" stroke="rgb(0,178,0)" stroke-width="0.1"/>
 </g>
 <g id="layerWINDOW_TEXT" inkscape:groupmode="layer" inkscape:label="WINDOW_TEXT">
  <text fill="rgb(178,0,178)" font-family="Noto Sans CJK SC" font-size="2" transform="rotate(-303.952,99.04636399999998,48.09491449999996)" x="99.04636399999998" y="48.09491449999996">
   M1023
  </text>
  <text fill="rgb(178,0,178)" font-family="Noto Sans CJK SC" font-size="2" transform="rotate(-33.9518,60.729363999999975,35.249914500000045)" x="60.729363999999975" y="35.249914500000045">
   M0921
  </text>
  <text fill="rgb(178,0,178)" font-family="Noto Sans CJK SC" font-size="2" transform="rotate(-33.9518,71.971364,51.9489145)" x="71.971364" y="51.9489145">
   M0921
  </text>
 </g>
</svg>