<?xml version="1.0" encoding="utf-8"?>
<svg style="background-color: #000;" version="1.1" viewBox="0 0 100.0 100.0" xmlns="http://www.w3.org/2000/svg" xmlns:inkscape="http://www.inkscape.org/namespaces/inkscape">
 <g id="layer0-结构边线" inkscape:groupmode="layer" inkscape:label="0-结构边线">
  <path d="M 51.841364,41.807914499999924 L 58.477363999999966,37.347914500000115" fill="none" stroke="rgb(178,0,178)" stroke-width="0.1"/>
  <path d="M 58.477363999999966,37.347914500000115 L 54.009364000000005,30.707914500000015" fill="none" stroke="rgb(178,0,178)" stroke-width="0.1"/>
  <path d="M 47.37336400000004,35.17791450000004 L 54.009364000000005,30.707914500000015" fill="none" stroke="rgb(178,0,178)" stroke-width="0.1"/>
  <path d="M 51.841364,41.807914499999924 L 47.37336400000004,35.17791450000004" fill="none" stroke="rgb(178,0,178)" stroke-width="0.1"/>
  <path d="M 70.82736399999999,70.01791449999996 L 77.46336399999996,65.54791449999993" fill="none" stroke="rgb(178,0,178)" stroke-width="0.1"/>
  <path d="M 77.46336399999996,65.54791449999993 L 72.99636399999997,58.91791450000005" fill="none" stroke="rgb(178,0,178)" stroke-width="0.1"/>
  <path d="M 66.35936400000003,63.37791450000009 L 72.99636399999997,58.91791450000005" fill="none" stroke="rgb(178,0,178)" stroke-width="0.1"/>
  <path d="M 70.82736399999999,70.01791449999996 L 66.35936400000003,63.37791450000009" fill="none" stroke="rgb(178,0,178)" stroke-width="0.1"/>
 </g>
 <g id="layerCOLUMN" inkscape:groupmode="layer" inkscape:label="COLUMN">
  <path d="M 51.841364,41.807914499999924 L 58.477363999999966,37.347914500000115" fill="none" stroke="rgb(178,178,0)" stroke-width="0.1"/>
  <path d="M 58.477363999999966,37.347914500000115 L 54.009364000000005,30.707914500000015" fill="none" stroke="rgb(178,178,0)" stroke-width="0.1"/>
  <path d="M 54.009364000000005,30.707914500000015 L 47.37336400000004,35.17791450000004" fill="none" stroke="rgb(178,178,0)" stroke-width="0.1"/>
  <path d="M 47.37336400000004,35.17791450000004 L 51.841364,41.807914499999924" fill="none" stroke="rgb(178,178,0)" stroke-width="0.1"/>
  <path d="M 70.82736399999999,70.01791449999996 L 77.46336399999996,65.54791449999993" fill="none" stroke="rgb(178,178,0)" stroke-width="0.1"/>
  <path d="M 77.46336399999996,65.54791449999993 L 72.99636399999997,58.91791450000005" fill="none" stroke="rgb(178,178,0)" stroke-width="0.1"/>
  <path d="M 72.99636399999997,58.91791450000005 L 66.35936400000003,63.37791450000009" fill="none" stroke="rgb(178,178,0)" stroke-width="0.1"/>
  <path d="M 66.35936400000003,63.37791450000009 L 70.82736399999999,70.01791449999996" fill="none" stroke="rgb(178,178,0)" stroke-width="0.1"/>
 </g>
 <g id="layerDIM_ELEV" inkscape:groupmode="layer" inkscape:label="DIM_ELEV">
  <path d="M 61.78348526219963,100.0 L 70.14936399999999,94.3679145000001" fill="none" stroke="rgb(0,178,0)" stroke-width="0.1"/>
 </g>
 <g id="layerDOOR_FIRE" inkscape:groupmode="layer" inkscape:label="DOOR_FIRE">
  <path d="M 83.60619388844088,100.0 L 87.25136399999997,97.54791449999993" fill="none" instance-id="2" semantic-id="3" stroke="rgb(0,178,178)" stroke-width="0.1"/>
  <path d="M 80.28838787176346,100.0 L 81.43136400000003,94.14791450000007" fill="none" instance-id="2" semantic-id="3" stroke="rgb(0,178,178)" stroke-width="0.1"/>
  <path d="M 87.81036400000005,98.37791450000009 A 10.0,10.0 0.0 0,0 81.43136400000003,94.14791450000007" fill="none" instance-id="2" semantic-id="3" stroke="rgb(0,178,178)" stroke-width="0.1"/>
 </g>
 <g id="layerDOOR_FIRE_TEXT" inkscape:groupmode="layer" inkscape:label="DOOR_FIRE_TEXT">
  <text fill="rgb(0,0,0)" font-family="Noto Sans CJK SC" font-size="2" transform="rotate(-303.951,42.14936399999999,96.53791449999994)" x="42.14936399999999" y="96.53791449999994">
   FM
  </text>
 </g>
 <g id="layerLVTRY" inkscape:groupmode="layer" inkscape:label="LVTRY">
  <path d="M 15.07536399999998,29.63791450000008 L 11.637363999999991,31.957914500000015" fill="none" instance-id="6" semantic-id="29" stroke="rgb(0,0,0)" stroke-width="0.1"/>
  <path d="M 17.002364,32.49791449999998 L 13.563363999999979,34.817914499999915" fill="none" instance-id="6" semantic-id="29" stroke="rgb(0,0,0)" stroke-width="0.1"/>
  <path d="M 15.186363999999969,29.627914500000088 L 17.057364000000007,32.40791450000006" fill="none" instance-id="6" semantic-id="29" stroke="rgb(0,0,0)" stroke-width="0.1"/>
  <path d="M 15.144363999999996,29.65791450000006 L 17.015363999999977,32.42791450000004" fill="none" instance-id="6" semantic-id="29" stroke="rgb(0,0,0)" stroke-width="0.1"/>
  <path d="M 16.485364000000004,28.687914500000034 L 18.412364000000025,31.547914499999933" fill="none" stroke="rgb(0,0,0)" stroke-width="0.1"/>
  <path d="M 16.485364000000004,28.687914500000034 L 15.199364000000003,29.557914499999924" fill="none" stroke="rgb(0,0,0)" stroke-width="0.1"/>
  <path d="M 18.412364000000025,31.547914499999933 L 17.126364000000024,32.41791450000005" fill="none" instance-id="6" semantic-id="29" stroke="rgb(0,0,0)" stroke-width="0.1"/>
  <path d="M 12.723364000000004,31.697914500000024 L 11.90336400000001,32.25791449999997" fill="none" instance-id="6" semantic-id="29" stroke="rgb(0,0,0)" stroke-width="0.1"/>
  <path d="M 14.188363999999979,33.91791450000005 L 13.397363999999982,34.447914500000024" fill="none" instance-id="6" semantic-id="29" stroke="rgb(0,0,0)" stroke-width="0.1"/>
  <path d="M 0.5053639999999859,24.64791450000007 L 3.165364000000011,28.607914500000106" fill="none" instance-id="13" semantic-id="24" stroke="rgb(0,0,0)" stroke-width="0.1"/>
  <path d="M 3.40536400000002,28.237914499999988 L 0.8373639999999796,24.427914500000043" fill="none" instance-id="13" semantic-id="24" stroke="rgb(0,0,0)" stroke-width="0.1"/>
  <path d="M 14.990364,26.467914500000006 L 9.515363999999977,30.15791450000006" fill="none" instance-id="13" semantic-id="24" stroke="rgb(0,0,0)" stroke-width="0.1"/>
  <path d="M 15.213364000000013,26.797914499999933 L 9.60136399999999,30.577914499999906" fill="none" instance-id="13" semantic-id="24" stroke="rgb(0,0,0)" stroke-width="0.1"/>
  <path d="M 3.165364000000011,28.607914500000106 L 9.60136399999999,30.577914499999906" fill="none" instance-id="13" semantic-id="24" stroke="rgb(0,0,0)" stroke-width="0.1"/>
  <path d="M 0.7813639999999964,31.727914499999997 L 0.0,32.25586314864859" fill="none" stroke="rgb(0,0,0)" stroke-width="0.1"/>
  <path d="M 0.24036399999999958,31.557914499999924 L 0.0,31.719393368530973" fill="none" stroke="rgb(0,0,0)" stroke-width="0.1"/>
  <path d="M 0.0,31.111827312500054 L 0.2533639999999764,31.487914499999988" fill="none" stroke="rgb(0,0,0)" stroke-width="0.1"/>
  <path d="M 0.0,30.478706149016716 L 0.7953640000000064,31.65791450000006" fill="none" stroke="rgb(0,0,0)" stroke-width="0.1"/>
  <path d="M 3.0173639999999864,28.377914500000088 L 0.0,30.41654022646776" fill="none" stroke="rgb(0,0,0)" stroke-width="0.1"/>
  <path d="M 3.40536400000002,28.237914499999988 L 3.328364000000022,28.63791450000008" fill="none" instance-id="7" semantic-id="3" stroke="rgb(0,0,0)" stroke-width="0.1"/>
  <path d="M 9.515363999999977,30.15791450000006 L 9.438363999999979,30.547914499999933" fill="none" instance-id="13" semantic-id="24" stroke="rgb(0,0,0)" stroke-width="0.1"/>
  <path d="M 0.8063639999999737,5.407914500000061 L 0.0,5.949908932876724" fill="none" stroke="rgb(0,0,0)" stroke-width="0.1"/>
  <path d="M 0.5833640000000173,5.067914500000029 L 0.0,5.4608432099073525" fill="none" stroke="rgb(0,0,0)" stroke-width="0.1"/>
  <path d="M 44.817364,73.80791449999992 L 41.37936400000001,76.12791450000009" fill="none" instance-id="3" semantic-id="29" stroke="rgb(0,0,0)" stroke-width="0.1"/>
  <path d="M 42.89036399999998,70.94791450000002 L 39.45236399999999,73.25791449999997" fill="none" instance-id="3" semantic-id="29" stroke="rgb(0,0,0)" stroke-width="0.1"/>
  <path d="M 44.87236399999995,73.70791450000002 L 43.00136399999997,70.92791450000004" fill="none" instance-id="3" semantic-id="29" stroke="rgb(0,0,0)" stroke-width="0.1"/>
  <path d="M 44.83136400000001,73.73791449999999 L 42.95936400000005,70.95791450000002" fill="none" instance-id="3" semantic-id="29" stroke="rgb(0,0,0)" stroke-width="0.1"/>
  <path d="M 46.227363999999966,72.8579145000001 L 44.300363999999945,69.99791449999998" fill="none" instance-id="3" semantic-id="29" stroke="rgb(0,0,0)" stroke-width="0.1"/>
  <path d="M 46.227363999999966,72.8579145000001 L 44.942364,73.7279145" fill="none" instance-id="3" semantic-id="29" stroke="rgb(0,0,0)" stroke-width="0.1"/>
  <path d="M 44.300363999999945,69.99791449999998 L 43.014364,70.8579145000001" fill="none" instance-id="3" semantic-id="29" stroke="rgb(0,0,0)" stroke-width="0.1"/>
  <path d="M 42.02236400000004,75.20791450000002 L 41.203363999999965,75.76791449999996" fill="none" instance-id="3" semantic-id="29" stroke="rgb(0,0,0)" stroke-width="0.1"/>
  <path d="M 40.52436399999999,73.01791449999996 L 39.73236399999996,73.55791449999992" fill="none" instance-id="3" semantic-id="29" stroke="rgb(0,0,0)" stroke-width="0.1"/>
  <path d="M 43.961364,89.18791450000003 L 41.300363999999945,85.23791449999999" fill="none" instance-id="14" semantic-id="24" stroke="rgb(0,0,0)" stroke-width="0.1"/>
  <path d="M 41.72436400000004,85.14791450000007 L 44.293364,88.95791450000002" fill="none" instance-id="14" semantic-id="24" stroke="rgb(0,0,0)" stroke-width="0.1"/>
  <path d="M 47.72336399999995,75.0779144999999 L 42.249364000000014,78.76791449999996" fill="none" instance-id="14" semantic-id="24" stroke="rgb(0,0,0)" stroke-width="0.1"/>
  <path d="M 47.499364000000014,74.74791449999998 L 41.888364000000024,78.52791449999995" fill="none" instance-id="14" semantic-id="24" stroke="rgb(0,0,0)" stroke-width="0.1"/>
  <path d="M 41.300363999999945,85.23791449999999 L 41.888364000000024,78.52791449999995" fill="none" instance-id="4" semantic-id="3" stroke="rgb(0,0,0)" stroke-width="0.1"/>
  <path d="M 41.46536400000002,89.05791449999992 L 34.830363999999975,93.52791449999995" fill="none" stroke="rgb(0,0,0)" stroke-width="0.1"/>
  <path d="M 41.57736399999999,89.2279145 L 34.942364,93.69791450000002" fill="none" stroke="rgb(0,0,0)" stroke-width="0.1"/>
  <path d="M 37.32736399999999,93.65791450000006 L 36.60036400000001,92.5779144999999" fill="none" stroke="rgb(0,0,0)" stroke-width="0.1"/>
  <path d="M 40.644363999999996,91.41791450000005 L 39.918364,90.33791450000012" fill="none" stroke="rgb(0,0,0)" stroke-width="0.1"/>
  <path d="M 34.942364,93.69791450000002 L 34.830363999999975,93.52791449999995" fill="none" stroke="rgb(0,0,0)" stroke-width="0.1"/>
  <path d="M 41.57736399999999,89.2279145 L 41.46536400000002,89.05791449999992" fill="none" stroke="rgb(0,0,0)" stroke-width="0.1"/>
  <path d="M 37.50436400000001,86.26791449999996 L 33.73036400000001,88.80791449999992" fill="none" instance-id="5" semantic-id="23" stroke="rgb(0,0,0)" stroke-width="0.1"/>
  <path d="M 37.46536400000002,86.83791450000012 L 34.35536400000001,88.92791450000004" fill="none" instance-id="5" semantic-id="23" stroke="rgb(0,0,0)" stroke-width="0.1"/>
  <path d="M 35.94736399999999,91.29791449999993 L 39.05736400000001,89.19791450000002" fill="none" instance-id="5" semantic-id="23" stroke="rgb(0,0,0)" stroke-width="0.1"/>
  <path d="M 35.769363999999996,91.83791450000012 L 39.543364,89.29791449999993" fill="none" instance-id="5" semantic-id="23" stroke="rgb(0,0,0)" stroke-width="0.1"/>
  <path d="M 34.341364,88.99791449999998 L 35.877364,91.27791449999995" fill="none" instance-id="5" semantic-id="23" stroke="rgb(0,0,0)" stroke-width="0.1"/>
  <path d="M 39.07136400000002,89.12791450000009 L 37.535364000000015,86.84791450000012" fill="none" instance-id="5" semantic-id="23" stroke="rgb(0,0,0)" stroke-width="0.1"/>
  <path d="M 33.717363999999975,88.87791450000009 L 35.70036399999998,91.81791449999992" fill="none" instance-id="5" semantic-id="23" stroke="rgb(0,0,0)" stroke-width="0.1"/>
  <path d="M 39.55736400000001,89.2279145 L 37.574364,86.27791449999995" fill="none" instance-id="5" semantic-id="23" stroke="rgb(0,0,0)" stroke-width="0.1"/>
  <path d="M 40.186364000000026,88.4779145 L 40.193363999999974,88.53791449999994" fill="none" stroke="rgb(0,0,0)" stroke-width="0.1"/>
  <path d="M 39.77536399999997,88.58791450000012 L 40.193363999999974,88.53791449999994" fill="none" stroke="rgb(0,0,0)" stroke-width="0.1"/>
  <path d="M 39.76736400000004,88.52791449999995 L 40.186364000000026,88.4779145" fill="none" stroke="rgb(0,0,0)" stroke-width="0.1"/>
  <path d="M 38.52436399999999,88.8679145000001 L 38.48636399999998,88.54791449999993" fill="none" instance-id="5" semantic-id="23" stroke="rgb(0,0,0)" stroke-width="0.1"/>
  <path d="M 39.346363999999994,88.76791449999996 L 38.410364000000015,88.87791450000009" fill="none" instance-id="5" semantic-id="23" stroke="rgb(0,0,0)" stroke-width="0.1"/>
  <path d="M 39.30736400000001,88.44791450000002 L 38.37136399999997,88.56791449999992" fill="none" instance-id="5" semantic-id="23" stroke="rgb(0,0,0)" stroke-width="0.1"/>
  <path d="M 38.410364000000015,88.87791450000009 L 38.37136399999997,88.56791449999992" fill="none" instance-id="5" semantic-id="23" stroke="rgb(0,0,0)" stroke-width="0.1"/>
  <path d="M 41.44836399999997,85.45791450000002 L 38.400364000000025,87.50791449999997" fill="none" stroke="rgb(0,0,0)" stroke-width="0.1"/>
  <path d="M 34.543364,90.1079145000001 L 31.495363999999995,92.15791450000006" fill="none" stroke="rgb(0,0,0)" stroke-width="0.1"/>
  <path d="M 41.72436400000004,85.14791450000007 L 41.332363999999984,85.06791449999992" fill="none" instance-id="4" semantic-id="3" stroke="rgb(0,0,0)" stroke-width="0.1"/>
  <path d="M 42.249364000000014,78.76791449999996 L 41.856363999999985,78.68791450000003" fill="none" instance-id="4" semantic-id="3" stroke="rgb(0,0,0)" stroke-width="0.1"/>
  <path d="M 14.188363999999979,33.91791450000005 A 1.33763,1.33763 0.0 0,0 12.719363999999985,31.707914500000015" fill="none" instance-id="6" semantic-id="29" stroke="rgb(0,0,0)" stroke-width="0.1"/>
  <path d="M 15.199364000000003,29.557914499999924 A 0.05,0.05 0.0 0,0 15.186363999999969,29.627914500000088" fill="none" stroke="rgb(0,0,0)" stroke-width="0.1"/>
  <path d="M 15.144363999999996,29.65791450000006 A 0.05,0.05 0.0 0,0 15.07536399999998,29.63791450000008" fill="none" stroke="rgb(0,0,0)" stroke-width="0.1"/>
  <path d="M 17.057364000000007,32.40791450000006 A 0.05,0.05 0.0 0,0 17.126364000000024,32.41791450000005" fill="none" stroke="rgb(0,0,0)" stroke-width="0.1"/>
  <path d="M 17.002364,32.49791449999998 A 0.05,0.05 0.0 0,0 17.015363999999977,32.42791450000004" fill="none" stroke="rgb(0,0,0)" stroke-width="0.1"/>
  <path d="M 11.90336400000001,32.25791449999997 A 1.33763,1.33763 0.0 0,0 13.397363999999982,34.447914500000024" fill="none" instance-id="6" semantic-id="29" stroke="rgb(0,0,0)" stroke-width="0.1"/>
  <path d="M 11.637363999999991,31.957914500000015 A 1.74077,1.74077 0.0 0,0 13.563363999999979,34.817914499999915" fill="none" instance-id="6" semantic-id="29" stroke="rgb(0,0,0)" stroke-width="0.1"/>
  <path d="M 0.7813639999999964,31.727914499999997 A 0.05,0.05 0.0 0,0 0.7953640000000064,31.65791450000006" fill="none" stroke="rgb(0,0,0)" stroke-width="0.1"/>
  <path d="M 0.24036399999999958,31.557914499999924 A 0.05,0.05 0.0 0,0 0.2533639999999764,31.487914499999988" fill="none" stroke="rgb(0,0,0)" stroke-width="0.1"/>
  <path d="M 3.328364000000022,28.63791450000008 A 9.21956,9.21956 0.0 0,0 4.193363999999974,32.66791450000005" fill="none" instance-id="7" semantic-id="3" stroke="rgb(0,0,0)" stroke-width="0.1"/>
  <path d="M 42.01836400000002,75.2179145 A 1.33763,1.33763 0.0 0,0 40.52436399999999,73.01791449999996" fill="none" instance-id="3" semantic-id="29" stroke="rgb(0,0,0)" stroke-width="0.1"/>
  <path d="M 44.87236399999995,73.70791450000002 A 0.05,0.05 0.0 0,0 44.942364,73.7279145" fill="none" stroke="rgb(0,0,0)" stroke-width="0.1"/>
  <path d="M 44.817364,73.80791449999992 A 0.05,0.05 0.0 0,0 44.83136400000001,73.73791449999999" fill="none" stroke="rgb(0,0,0)" stroke-width="0.1"/>
  <path d="M 43.014364,70.8579145000001 A 0.05,0.05 0.0 0,0 43.00136399999997,70.92791450000004" fill="none" stroke="rgb(0,0,0)" stroke-width="0.1"/>
  <path d="M 42.95936400000005,70.95791450000002 A 0.05,0.05 0.0 0,0 42.89036399999998,70.94791450000002" fill="none" stroke="rgb(0,0,0)" stroke-width="0.1"/>
  <path d="M 39.73236399999996,73.55791449999992 A 1.33763,1.33763 0.0 0,0 41.203363999999965,75.76791449999996" fill="none" instance-id="3" semantic-id="29" stroke="rgb(0,0,0)" stroke-width="0.1"/>
  <path d="M 39.45236399999999,73.25791449999997 A 1.74077,1.74077 0.0 0,0 41.37936400000001,76.12791450000009" fill="none" instance-id="3" semantic-id="29" stroke="rgb(0,0,0)" stroke-width="0.1"/>
  <path d="M 37.574364,86.27791449999995 A 0.05,0.05 0.0 0,0 37.50436400000001,86.26791449999996" fill="none" stroke="rgb(0,0,0)" stroke-width="0.1"/>
  <path d="M 33.73036400000001,88.80791449999992 A 0.05,0.05 0.0 0,0 33.717363999999975,88.87791450000009" fill="none" stroke="rgb(0,0,0)" stroke-width="0.1"/>
  <path d="M 37.535364000000015,86.84791450000012 A 0.05,0.05 0.0 0,0 37.46536400000002,86.83791450000012" fill="none" stroke="rgb(0,0,0)" stroke-width="0.1"/>
  <path d="M 34.35536400000001,88.92791450000004 A 0.05,0.05 0.0 0,0 34.341364,88.99791449999998" fill="none" stroke="rgb(0,0,0)" stroke-width="0.1"/>
  <path d="M 39.543364,89.29791449999993 A 0.05,0.05 0.0 0,0 39.55736400000001,89.2279145" fill="none" stroke="rgb(0,0,0)" stroke-width="0.1"/>
  <path d="M 39.05736400000001,89.19791450000002 A 0.05,0.05 0.0 0,0 39.07136400000002,89.12791450000009" fill="none" stroke="rgb(0,0,0)" stroke-width="0.1"/>
  <path d="M 35.877364,91.27791449999995 A 0.05,0.05 0.0 0,0 35.94736399999999,91.29791449999993" fill="none" stroke="rgb(0,0,0)" stroke-width="0.1"/>
  <path d="M 35.70036399999998,91.81791449999992 A 0.05,0.05 0.0 0,0 35.769363999999996,91.83791450000012" fill="none" stroke="rgb(0,0,0)" stroke-width="0.1"/>
  <path d="M 37.92136399999998,82.74791449999998 A 9.21956,9.21956 0.0 0,0 41.332363999999984,85.06791449999992" fill="none" instance-id="4" semantic-id="3" stroke="rgb(0,0,0)" stroke-width="0.1"/>
  <path d="M 9.438363999999979,30.547914499999933 L 9.536363999999992,30.827914499999906" fill="none" stroke="rgb(0,0,0)" stroke-width="0.1"/>
  <path d="M 9.536363999999992,30.827914499999906 L 4.186363999999969,32.66791450000005" fill="none" instance-id="7" semantic-id="3" stroke="rgb(0,0,0)" stroke-width="0.1"/>
  <path d="M 4.186363999999969,32.66791450000005 L 4.088364000000013,32.38791450000008" fill="none" instance-id="7" semantic-id="3" stroke="rgb(0,0,0)" stroke-width="0.1"/>
  <path d="M 4.088364000000013,32.38791450000008 L 9.438363999999979,30.547914499999933" fill="none" instance-id="7" semantic-id="3" stroke="rgb(0,0,0)" stroke-width="0.1"/>
  <path d="M 41.856363999999985,78.68791450000003 L 41.630363999999986,78.48791449999999" fill="none" instance-id="4" semantic-id="3" stroke="rgb(0,0,0)" stroke-width="0.1"/>
  <path d="M 41.630363999999986,78.48791449999999 L 37.91636399999999,82.75791449999997" fill="none" instance-id="4" semantic-id="3" stroke="rgb(0,0,0)" stroke-width="0.1"/>
  <path d="M 37.91636399999999,82.75791449999997 L 38.142363999999986,82.95791450000002" fill="none" instance-id="4" semantic-id="3" stroke="rgb(0,0,0)" stroke-width="0.1"/>
  <path d="M 38.142363999999986,82.95791450000002 L 41.856363999999985,78.68791450000003" fill="none" instance-id="4" semantic-id="3" stroke="rgb(0,0,0)" stroke-width="0.1"/>
  <circle cx="9.515363999999977" cy="22.287914499999943" fill="none" instance-id="13" r="0.3" semantic-id="24" stroke="rgb(0,0,0)" stroke-width="0.1"/>
  <circle cx="2.620363999999995" cy="12.047914499999933" fill="none" r="0.3" stroke="rgb(0,0,0)" stroke-width="0.1"/>
  <circle cx="49.538364" cy="81.7279145" fill="none" instance-id="14" r="0.3" semantic-id="24" stroke="rgb(0,0,0)" stroke-width="0.1"/>
  <circle cx="36.92736400000001" cy="89.38791450000008" fill="none" instance-id="5" r="0.2" semantic-id="23" stroke="rgb(0,0,0)" stroke-width="0.1"/>
  <circle cx="39.533364000000006" cy="88.58791450000012" fill="none" instance-id="5" r="0.24" semantic-id="23" stroke="rgb(0,0,0)" stroke-width="0.1"/>
  <circle cx="39.533364000000006" cy="88.58791450000012" fill="none" instance-id="5" r="0.24" semantic-id="23" stroke="rgb(0,0,0)" stroke-width="0.1"/>
  <circle cx="39.533364000000006" cy="88.58791450000012" fill="none" instance-id="5" r="0.24" semantic-id="23" stroke="rgb(0,0,0)" stroke-width="0.1"/>
 </g>
 <g id="layerM-INFO-ROOM-JZTZ" inkscape:groupmode="layer" inkscape:label="M-INFO-ROOM-JZTZ">
  <path d="M 86.2028093103579,0.0 L 78.02636399999994,5.50791449999997" fill="none" stroke="rgb(178,0,0)" stroke-width="0.1"/>
  <path d="M 78.02836400000001,5.50791449999997 L 86.20361453497833,0.0" fill="none" stroke="rgb(178,0,0)" stroke-width="0.1"/>
  <path d="M 68.91436399999998,35.26791449999996 A 3.68952,3.68952 0.0 0,0 74.533364,33.03791449999994" fill="none" stroke="rgb(178,0,0)" stroke-width="0.1"/>
  <path d="M 63.490364,37.41791450000005 A 3.56203,3.56203 0.0 0,0 68.91436399999998,35.26791449999996" fill="none" stroke="rgb(178,0,0)" stroke-width="0.1"/>
  <path d="M 57.543364,33.847914500000115 A 4.23171,4.23171 0.0 0,0 63.490364,37.41791450000005" fill="none" stroke="rgb(178,0,0)" stroke-width="0.1"/>
  <path d="M 55.03236400000003,27.51791449999996 A 4.15754,4.15754 0.0 0,0 57.543364,33.847914500000115" fill="none" stroke="rgb(178,0,0)" stroke-width="0.1"/>
  <path d="M 52.84036400000002,21.99791449999998 A 3.62845,3.62845 0.0 0,0 55.03236400000003,27.51791449999996" fill="none" stroke="rgb(178,0,0)" stroke-width="0.1"/>
  <path d="M 47.60136399999999,19.547914499999933 A 3.53042,3.53042 0.0 0,0 52.84036400000002,21.99791449999998" fill="none" stroke="rgb(178,0,0)" stroke-width="0.1"/>
  <path d="M 44.94836399999997,14.197914500000024 A 3.64098,3.64098 0.0 0,0 47.60136399999999,19.547914499999933" fill="none" stroke="rgb(178,0,0)" stroke-width="0.1"/>
  <path d="M 42.939363999999955,9.137914500000079 A 3.32607,3.32607 0.0 0,0 44.94836399999997,14.197914500000024" fill="none" stroke="rgb(178,0,0)" stroke-width="0.1"/>
  <path d="M 48.58336399999996,6.89791450000007 A 3.70609,3.70609 0.0 0,0 42.939363999999955,9.137914500000079" fill="none" stroke="rgb(178,0,0)" stroke-width="0.1"/>
  <path d="M 46.71036400000003,2.1779145000000426 A 3.09931,3.09931 0.0 0,0 48.58336399999996,6.89791450000007" fill="none" stroke="rgb(178,0,0)" stroke-width="0.1"/>
  <path d="M 51.54836399999999,0.25791449999996985 L 51.10329814832551,0.013453023078568549" fill="none" stroke="rgb(178,0,0)" stroke-width="0.1"/>
  <path d="M 48.17402989098798,0.1828556388202287 L 47.76011177046678,0.4769930480860012" fill="none" stroke="rgb(178,0,0)" stroke-width="0.1"/>
  <path d="M 47.76011177046678,0.4769930480860012 L 47.39834699706057,0.8333233369299933" fill="none" stroke="rgb(178,0,0)" stroke-width="0.1"/>
  <path d="M 47.39834699706057,0.8333233369299933 L 47.09797864034431,1.2427422865512199" fill="none" stroke="rgb(178,0,0)" stroke-width="0.1"/>
  <path d="M 47.09797864034431,1.2427422865512199 L 46.86668109490665,1.6947892658574801" fill="none" stroke="rgb(178,0,0)" stroke-width="0.1"/>
  <path d="M 46.86668109490665,1.6947892658574801 L 46.71036400000003,2.1779145000000426" fill="none" stroke="rgb(178,0,0)" stroke-width="0.1"/>
  <path d="M 75.634364,1.497914499999979 L 75.49720756960357,0.9965392678939224" fill="none" stroke="rgb(178,0,0)" stroke-width="0.1"/>
  <path d="M 75.49720756960357,0.9965392678939224 L 75.29716971460721,0.5167748816197673" fill="none" stroke="rgb(178,0,0)" stroke-width="0.1"/>
  <path d="M 75.29716971460721,0.5167748816197673 L 75.03752365402556,0.06647172485418196" fill="none" stroke="rgb(178,0,0)" stroke-width="0.1"/>
  <path d="M 77.87236399999995,7.137914500000079 A 3.70402,3.70402 0.0 0,0 75.634364,1.497914499999979" fill="none" stroke="rgb(178,0,0)" stroke-width="0.1"/>
  <path d="M 79.745364,11.857914500000106 A 3.09925,3.09925 0.0 0,0 77.87236399999995,7.137914500000079" fill="none" stroke="rgb(178,0,0)" stroke-width="0.1"/>
  <path d="M 82.211364,18.067914499999915 A 4.08197,4.08197 0.0 0,0 79.745364,11.857914500000106" fill="none" stroke="rgb(178,0,0)" stroke-width="0.1"/>
  <path d="M 84.31136400000003,23.367914500000097 A 3.47726,3.47726 0.0 0,0 82.211364,18.067914499999915" fill="none" stroke="rgb(178,0,0)" stroke-width="0.1"/>
  <path d="M 86.32136400000002,28.427914500000043 A 3.32601,3.32601 0.0 0,0 84.31136400000003,23.367914500000097" fill="none" stroke="rgb(178,0,0)" stroke-width="0.1"/>
  <path d="M 81.59836399999995,30.307914499999924 A 3.10109,3.10109 0.0 0,0 86.32136400000002,28.427914500000043" fill="none" stroke="rgb(178,0,0)" stroke-width="0.1"/>
  <path d="M 74.533364,33.03791449999994 A 4.62355,4.62355 0.0 0,0 81.59836399999995,30.307914499999924" fill="none" stroke="rgb(178,0,0)" stroke-width="0.1"/>
  <path d="M 66.45236399999999,22.337914500000124 L 60.588363999999956,13.627914500000088" fill="none" stroke="rgb(178,0,0)" stroke-width="0.1"/>
  <path d="M 60.588363999999956,13.627914500000088 L 52.707363999999984,18.927914500000043" fill="none" stroke="rgb(178,0,0)" stroke-width="0.1"/>
  <path d="M 52.707363999999984,18.927914500000043 L 58.57136400000002,27.63791450000008" fill="none" stroke="rgb(178,0,0)" stroke-width="0.1"/>
  <path d="M 58.57136400000002,27.63791450000008 L 66.45236399999999,22.337914500000124" fill="none" stroke="rgb(178,0,0)" stroke-width="0.1"/>
  <path d="M 75.99136399999998,15.90791450000006 L 70.12736399999994,7.197914500000024" fill="none" stroke="rgb(178,0,0)" stroke-width="0.1"/>
  <path d="M 70.12736399999994,7.197914500000024 L 62.24736399999995,12.50791449999997" fill="none" stroke="rgb(178,0,0)" stroke-width="0.1"/>
  <path d="M 62.24736399999995,12.50791449999997 L 68.11136399999998,21.217914500000006" fill="none" stroke="rgb(178,0,0)" stroke-width="0.1"/>
  <path d="M 68.11136399999998,21.217914500000006 L 75.99136399999998,15.90791450000006" fill="none" stroke="rgb(178,0,0)" stroke-width="0.1"/>
  <path d="M 74.45036400000004,0.19791450000002442 L 75.00792734052641,0.0" fill="none" stroke="rgb(178,0,0)" stroke-width="0.1"/>
  <path d="M 94.21351371123603,0.0 L 95.90236400000003,2.50791449999997" fill="none" stroke="rgb(178,0,0)" stroke-width="0.1"/>
  <path d="M 95.90236400000003,2.50791449999997 L 82.21536400000002,11.727914499999997" fill="none" stroke="rgb(178,0,0)" stroke-width="0.1"/>
  <path d="M 82.21536400000002,11.727914499999997 L 74.45036400000004,0.19791450000002442" fill="none" stroke="rgb(178,0,0)" stroke-width="0.1"/>
  <path d="M 95.90236400000003,2.50791449999997 L 92.5598620587748,0.0" fill="none" stroke="rgb(178,0,0)" stroke-width="0.1"/>
  <path d="M 90.69914202981715,0.0 L 78.02636399999994,5.50791449999997" fill="none" stroke="rgb(178,0,0)" stroke-width="0.1"/>
  <path d="M 0.0,20.07561239679626 L 6.790364000000011,14.387914500000079" fill="none" stroke="rgb(178,0,0)" stroke-width="0.1"/>
  <path d="M 45.72836399999994,94.01791449999996 L 45.58436400000005,90.87791450000009" fill="none" stroke="rgb(178,0,0)" stroke-width="0.1"/>
  <path d="M 45.58436400000005,90.87791450000009 L 53.763364000000024,84.02791449999995" fill="none" stroke="rgb(178,0,0)" stroke-width="0.1"/>
  <path d="M 78.02836400000001,5.50791449999997 L 90.69931215789029,0.0" fill="none" stroke="rgb(178,0,0)" stroke-width="0.1"/>
  <path d="M 92.55969249403972,0.0 L 95.90136399999994,2.50791449999997" fill="none" stroke="rgb(178,0,0)" stroke-width="0.1"/>
  <path d="M 58.57136400000002,27.63791450000008 L 56.36336400000005,18.90791450000006" fill="none" stroke="rgb(178,0,0)" stroke-width="0.1"/>
  <path d="M 56.36336400000005,18.90791450000006 L 60.588363999999956,13.627914500000088" fill="none" stroke="rgb(178,0,0)" stroke-width="0.1"/>
  <path d="M 68.11136399999998,21.217914500000006 L 65.90336400000001,12.487914499999988" fill="none" stroke="rgb(178,0,0)" stroke-width="0.1"/>
  <path d="M 65.90336400000001,12.487914499999988 L 70.12736399999994,7.197914500000024" fill="none" stroke="rgb(178,0,0)" stroke-width="0.1"/>
 </g>
 <g id="layerPUB_TEXT" inkscape:groupmode="layer" inkscape:label="PUB_TEXT">
  <text fill="rgb(0,0,0)" font-family="Noto Sans CJK SC" font-size="2" transform="rotate(-33.95,78.70436399999994,3.8579144999999926)" x="78.70436399999994" y="3.8579144999999926">
   送风井
  </text>
  <text fill="rgb(0,0,0)" font-family="Noto Sans CJK SC" font-size="2" transform="rotate(-33.95,64.28736400000003,16.177914500000043)" x="64.28736400000003" y="16.177914500000043">
   加压送风
  </text>
 </g>
 <g id="layerS-XF-LG" inkscape:groupmode="layer" inkscape:label="S-XF-LG">
  <circle cx="7.077363999999989" cy="17.577914499999906" fill="none" r="0.6" stroke="rgb(178,88,0)" stroke-width="0.1"/>
 </g>
 <g id="layerWALL" inkscape:groupmode="layer" inkscape:label="WALL">
  <path d="M 49.602363999999966,38.49791449999998 L 23.685005164619497,0.0" fill="none" instance-id="-1" semantic-id="1" stroke="rgb(178,178,0)" stroke-width="0.1"/>
  <path d="M 49.027364000000034,34.057914499999924 L 26.097336787339373,0.0" fill="none" instance-id="-1" semantic-id="1" stroke="rgb(178,178,0)" stroke-width="0.1"/>
  <path d="M 57.356363999999985,35.67791450000004 L 69.79736400000002,27.307914499999924" fill="none" instance-id="-1" semantic-id="1" stroke="rgb(178,178,0)" stroke-width="0.1"/>
  <path d="M 58.47336399999995,37.337914500000124 L 71.74436400000002,28.40791450000006" fill="none" instance-id="-1" semantic-id="1" stroke="rgb(178,178,0)" stroke-width="0.1"/>
  <path d="M 73.31636400000002,68.33791450000012 L 79.264364,77.17791450000004" fill="none" instance-id="-1" semantic-id="1" stroke="rgb(178,178,0)" stroke-width="0.1"/>
  <path d="M 79.264364,77.17791450000004 L 80.92336399999999,76.05791449999992" fill="none" instance-id="-1" semantic-id="1" stroke="rgb(178,178,0)" stroke-width="0.1"/>
  <path d="M 80.92336399999999,76.05791449999992 L 74.97536400000001,67.2279145" fill="none" instance-id="-1" semantic-id="1" stroke="rgb(178,178,0)" stroke-width="0.1"/>
  <path d="M 93.408364,94.6079145000001 L 90.97636399999999,90.98791449999999" fill="none" instance-id="-1" semantic-id="1" stroke="rgb(178,178,0)" stroke-width="0.1"/>
  <path d="M 90.97636399999999,90.98791449999999 L 89.317364,92.1079145000001" fill="none" instance-id="-1" semantic-id="1" stroke="rgb(178,178,0)" stroke-width="0.1"/>
  <path d="M 89.317364,92.1079145000001 L 91.19036400000005,94.88791450000008" fill="none" instance-id="-1" semantic-id="1" stroke="rgb(178,178,0)" stroke-width="0.1"/>
  <path d="M 52.35436400000003,31.827914499999906 L 37.16436399999998,9.25791449999997" fill="none" instance-id="-1" semantic-id="1" stroke="rgb(178,178,0)" stroke-width="0.1"/>
  <path d="M 56.24736399999995,34.02791449999995 L 39.658364000000006,9.387914500000079" fill="none" instance-id="-1" semantic-id="1" stroke="rgb(178,178,0)" stroke-width="0.1"/>
  <path d="M 37.16436399999998,9.25791449999997 L 30.9313561116781,0.0" fill="none" instance-id="-1" semantic-id="1" stroke="rgb(178,178,0)" stroke-width="0.1"/>
  <path d="M 38.45036399999998,7.5879145000001245 L 33.34175767100146,0.0" fill="none" instance-id="-1" semantic-id="1" stroke="rgb(178,178,0)" stroke-width="0.1"/>
  <path d="M 0.0,0.6224186802777467 L 8.161363999999992,12.747914499999979" fill="none" instance-id="-1" semantic-id="1" stroke="rgb(178,178,0)" stroke-width="0.1"/>
  <path d="M 0.0,4.206843306366068 L 6.1673640000000205,13.367914500000097" fill="none" instance-id="-1" semantic-id="1" stroke="rgb(178,178,0)" stroke-width="0.1"/>
  <path d="M 9.62936400000001,18.50791449999997 L 0.0,24.98748653738312" fill="none" instance-id="-1" semantic-id="1" stroke="rgb(178,178,0)" stroke-width="0.1"/>
  <path d="M 8.959363999999994,17.50791449999997 L 0.0,23.54053536445167" fill="none" instance-id="-1" semantic-id="1" stroke="rgb(178,178,0)" stroke-width="0.1"/>
  <path d="M 22.402363999999977,33.89791450000007 L 17.425364000000002,37.24791449999998" fill="none" instance-id="-1" semantic-id="1" stroke="rgb(178,178,0)" stroke-width="0.1"/>
  <path d="M 20.185363999999993,34.18791450000003 L 16.037364000000025,36.9779145" fill="none" instance-id="-1" semantic-id="1" stroke="rgb(178,178,0)" stroke-width="0.1"/>
  <path d="M 38.650364000000025,68.76791449999996 L 38.092363999999975,67.93791450000003" fill="none" instance-id="-1" semantic-id="1" stroke="rgb(178,178,0)" stroke-width="0.1"/>
  <path d="M 38.092363999999975,67.93791450000003 L 36.43336399999998,69.05791449999992" fill="none" instance-id="-1" semantic-id="1" stroke="rgb(178,178,0)" stroke-width="0.1"/>
  <path d="M 36.43336399999998,69.05791449999992 L 36.99236400000001,69.88791450000008" fill="none" instance-id="-1" semantic-id="1" stroke="rgb(178,178,0)" stroke-width="0.1"/>
  <path d="M 26.940363999999988,54.957914500000015 L 30.84736399999997,60.75791449999997" fill="none" instance-id="-1" semantic-id="1" stroke="rgb(178,178,0)" stroke-width="0.1"/>
  <path d="M 30.84736399999997,60.75791449999997 L 32.50636400000002,59.64791450000007" fill="none" instance-id="-1" semantic-id="1" stroke="rgb(178,178,0)" stroke-width="0.1"/>
  <path d="M 32.50636400000002,59.64791450000007 L 28.04036400000001,53.00791449999997" fill="none" instance-id="-1" semantic-id="1" stroke="rgb(178,178,0)" stroke-width="0.1"/>
  <path d="M 6.83736399999998,14.357914500000106 L 0.0,18.9617261906792" fill="none" instance-id="-1" semantic-id="1" stroke="rgb(178,178,0)" stroke-width="0.1"/>
  <path d="M 6.1673640000000205,13.367914500000097 L 0.0,17.51752862952071" fill="none" instance-id="-1" semantic-id="1" stroke="rgb(178,178,0)" stroke-width="0.1"/>
  <path d="M 8.959363999999994,17.50791449999997 L 6.83736399999998,14.357914500000106" fill="none" instance-id="-1" semantic-id="1" stroke="rgb(178,178,0)" stroke-width="0.1"/>
  <path d="M 10.953364000000022,16.89791450000007 L 8.161363999999992,12.747914499999979" fill="none" instance-id="-1" semantic-id="1" stroke="rgb(178,178,0)" stroke-width="0.1"/>
  <path d="M 0.83536399999997,48.41791450000005 L 0.0,47.17752774133123" fill="none" instance-id="-1" semantic-id="1" stroke="rgb(178,178,0)" stroke-width="0.1"/>
  <path d="M 1.106363999999985,47.02791449999995 L 0.0,45.385401579109384" fill="none" instance-id="-1" semantic-id="1" stroke="rgb(178,178,0)" stroke-width="0.1"/>
  <path d="M 20.185363999999993,34.18791450000003 L 9.62936400000001,18.50791449999997" fill="none" instance-id="-1" semantic-id="1" stroke="rgb(178,178,0)" stroke-width="0.1"/>
  <path d="M 22.402363999999977,33.89791450000007 L 10.953364000000022,16.89791450000007" fill="none" instance-id="-1" semantic-id="1" stroke="rgb(178,178,0)" stroke-width="0.1"/>
  <path d="M 16.037364000000025,36.9779145 L 9.400364000000025,41.447914500000024" fill="none" instance-id="-1" semantic-id="1" stroke="rgb(178,178,0)" stroke-width="0.1"/>
  <path d="M 9.400364000000025,41.447914500000024 L 9.958364000000017,42.27791449999995" fill="none" instance-id="-1" semantic-id="1" stroke="rgb(178,178,0)" stroke-width="0.1"/>
  <path d="M 9.958364000000017,42.27791449999995 L 15.76636400000001,38.3679145000001" fill="none" instance-id="-1" semantic-id="1" stroke="rgb(178,178,0)" stroke-width="0.1"/>
  <path d="M 0.83536399999997,48.41791450000005 L 2.4933639999999855,47.307914499999924" fill="none" instance-id="-1" semantic-id="1" stroke="rgb(178,178,0)" stroke-width="0.1"/>
  <path d="M 2.4933639999999855,47.307914499999924 L 1.9343640000000164,46.4779145" fill="none" instance-id="-1" semantic-id="1" stroke="rgb(178,178,0)" stroke-width="0.1"/>
  <path d="M 1.9343640000000164,46.4779145 L 1.106363999999985,47.02791449999995" fill="none" instance-id="-1" semantic-id="1" stroke="rgb(178,178,0)" stroke-width="0.1"/>
  <path d="M 53.755363999999986,84.03791449999994 L 43.55336399999999,90.90791450000006" fill="none" instance-id="-1" semantic-id="1" stroke="rgb(178,178,0)" stroke-width="0.1"/>
  <path d="M 53.08536400000003,83.03791449999994 L 42.38536399999998,90.24791449999998" fill="none" instance-id="-1" semantic-id="1" stroke="rgb(178,178,0)" stroke-width="0.1"/>
  <path d="M 42.38536399999998,90.24791449999998 L 40.64336400000002,91.41791450000005" fill="none" instance-id="-1" semantic-id="1" stroke="rgb(178,178,0)" stroke-width="0.1"/>
  <path d="M 40.64336400000002,91.41791450000005 L 41.314363999999955,92.41791450000005" fill="none" instance-id="-1" semantic-id="1" stroke="rgb(178,178,0)" stroke-width="0.1"/>
  <path d="M 41.314363999999955,92.41791450000005 L 42.55836399999998,91.5779144999999" fill="none" instance-id="-1" semantic-id="1" stroke="rgb(178,178,0)" stroke-width="0.1"/>
  <path d="M 34.67836399999999,96.88791450000008 L 37.99636399999997,94.64791450000007" fill="none" instance-id="-1" semantic-id="1" stroke="rgb(178,178,0)" stroke-width="0.1"/>
  <path d="M 37.99636399999997,94.64791450000007 L 37.32636400000001,93.65791450000006" fill="none" instance-id="-1" semantic-id="1" stroke="rgb(178,178,0)" stroke-width="0.1"/>
  <path d="M 37.32636400000001,93.65791450000006 L 34.00836399999997,95.88791450000008" fill="none" instance-id="-1" semantic-id="1" stroke="rgb(178,178,0)" stroke-width="0.1"/>
  <path d="M 35.047364000000016,99.2179145 L 33.88610034252844,100.0" fill="none" instance-id="-1" semantic-id="1" stroke="rgb(178,178,0)" stroke-width="0.1"/>
  <path d="M 33.930364,97.56791449999992 L 30.318539938895526,100.0" fill="none" instance-id="-1" semantic-id="1" stroke="rgb(178,178,0)" stroke-width="0.1"/>
  <path d="M 58.207363999999984,87.06791449999992 L 45.84836399999995,95.38791450000008" fill="none" instance-id="-1" semantic-id="1" stroke="rgb(178,178,0)" stroke-width="0.1"/>
  <path d="M 55.87836400000003,87.18791450000003 L 45.676364000000035,94.05791449999992" fill="none" instance-id="-1" semantic-id="1" stroke="rgb(178,178,0)" stroke-width="0.1"/>
  <path d="M 45.84836399999995,95.38791450000008 L 40.366363999999976,99.0779144999999" fill="none" instance-id="-1" semantic-id="1" stroke="rgb(178,178,0)" stroke-width="0.1"/>
  <path d="M 44.68036399999994,94.7279145 L 38.86736400000001,98.64791450000007" fill="none" instance-id="-1" semantic-id="1" stroke="rgb(178,178,0)" stroke-width="0.1"/>
  <path d="M 43.55336399999999,90.90791450000006 L 45.676364000000035,94.05791449999992" fill="none" instance-id="-1" semantic-id="1" stroke="rgb(178,178,0)" stroke-width="0.1"/>
  <path d="M 42.55836399999998,91.5779144999999 L 44.68036399999994,94.7279145" fill="none" instance-id="-1" semantic-id="1" stroke="rgb(178,178,0)" stroke-width="0.1"/>
  <path d="M 34.67836399999999,96.88791450000008 L 35.318363999999974,97.83791450000012" fill="none" instance-id="-1" semantic-id="1" stroke="rgb(178,178,0)" stroke-width="0.1"/>
  <path d="M 33.514364,96.94791450000002 L 33.930364,97.56791449999992" fill="none" instance-id="-1" semantic-id="1" stroke="rgb(178,178,0)" stroke-width="0.1"/>
  <path d="M 55.07936399999994,82.41791450000005 L 58.207363999999984,87.06791449999992" fill="none" instance-id="-1" semantic-id="1" stroke="rgb(178,178,0)" stroke-width="0.1"/>
  <path d="M 53.755363999999986,84.03791449999994 L 55.87836400000003,87.18791450000003" fill="none" instance-id="-1" semantic-id="1" stroke="rgb(178,178,0)" stroke-width="0.1"/>
  <path d="M 23.45036399999998,80.20791450000002 L 34.00836399999997,95.88791450000008" fill="none" instance-id="-1" semantic-id="1" stroke="rgb(178,178,0)" stroke-width="0.1"/>
  <path d="M 22.062364000000002,79.93791450000003 L 33.514364,96.94791450000002" fill="none" instance-id="-1" semantic-id="1" stroke="rgb(178,178,0)" stroke-width="0.1"/>
  <path d="M 43.62736399999994,65.41791450000005 L 55.07936399999994,82.41791450000005" fill="none" instance-id="-1" semantic-id="1" stroke="rgb(178,178,0)" stroke-width="0.1"/>
  <path d="M 42.527364000000034,67.3679145000001 L 53.08536400000003,83.03791449999994" fill="none" instance-id="-1" semantic-id="1" stroke="rgb(178,178,0)" stroke-width="0.1"/>
  <path d="M 36.99236400000001,69.88791450000008 L 31.18636399999997,73.79791449999993" fill="none" instance-id="-1" semantic-id="1" stroke="rgb(178,178,0)" stroke-width="0.1"/>
  <path d="M 31.18636399999997,73.79791449999993 L 31.74436400000002,74.62791450000009" fill="none" instance-id="-1" semantic-id="1" stroke="rgb(178,178,0)" stroke-width="0.1"/>
  <path d="M 31.74436400000002,74.62791450000009 L 38.380363999999986,70.15791450000006" fill="none" instance-id="-1" semantic-id="1" stroke="rgb(178,178,0)" stroke-width="0.1"/>
  <path d="M 23.45036399999998,80.20791450000002 L 24.279363999999987,79.65791450000006" fill="none" instance-id="-1" semantic-id="1" stroke="rgb(178,178,0)" stroke-width="0.1"/>
  <path d="M 24.279363999999987,79.65791450000006 L 23.721363999999994,78.8279144999999" fill="none" instance-id="-1" semantic-id="1" stroke="rgb(178,178,0)" stroke-width="0.1"/>
  <path d="M 23.721363999999994,78.8279144999999 L 22.062364000000002,79.93791450000003" fill="none" instance-id="-1" semantic-id="1" stroke="rgb(178,178,0)" stroke-width="0.1"/>
  <path d="M 26.940363999999988,54.957914500000015 L 0.0,73.09709704625743" fill="none" instance-id="-1" semantic-id="1" stroke="rgb(178,178,0)" stroke-width="0.1"/>
  <path d="M 25.82336399999997,53.29791449999993 L 0.0,70.68501118341715" fill="none" instance-id="-1" semantic-id="1" stroke="rgb(178,178,0)" stroke-width="0.1"/>
  <path d="M 28.04036400000001,53.00791449999997 L 23.569364000000007,46.37791450000009" fill="none" instance-id="-1" semantic-id="1" stroke="rgb(178,178,0)" stroke-width="0.1"/>
  <path d="M 23.569364000000007,46.37791450000009 L 21.910364000000015,47.48791449999999" fill="none" instance-id="-1" semantic-id="1" stroke="rgb(178,178,0)" stroke-width="0.1"/>
  <path d="M 21.910364000000015,47.48791449999999 L 25.82336399999997,53.29791449999993" fill="none" instance-id="-1" semantic-id="1" stroke="rgb(178,178,0)" stroke-width="0.1"/>
  <path d="M 15.76636400000001,38.3679145000001 L 16.32536399999998,39.197914500000024" fill="none" instance-id="-1" semantic-id="1" stroke="rgb(178,178,0)" stroke-width="0.1"/>
  <path d="M 16.32536399999998,39.197914500000024 L 17.98436399999997,38.077914499999906" fill="none" instance-id="-1" semantic-id="1" stroke="rgb(178,178,0)" stroke-width="0.1"/>
  <path d="M 17.98436399999997,38.077914499999906 L 17.425364000000002,37.24791449999998" fill="none" instance-id="-1" semantic-id="1" stroke="rgb(178,178,0)" stroke-width="0.1"/>
  <path d="M 91.19036400000005,94.88791450000008 L 87.25136399999997,97.54791449999993" fill="none" instance-id="-1" semantic-id="1" stroke="rgb(178,178,0)" stroke-width="0.1"/>
  <path d="M 87.25136399999997,97.54791449999993 L 88.36836400000004,99.19791450000002" fill="none" instance-id="-1" semantic-id="1" stroke="rgb(178,178,0)" stroke-width="0.1"/>
  <path d="M 88.36836400000004,99.19791450000002 L 92.307364,96.54791449999993" fill="none" instance-id="-1" semantic-id="1" stroke="rgb(178,178,0)" stroke-width="0.1"/>
  <path d="M 93.408364,94.6079145000001 L 97.03872189993297,100.0" fill="none" instance-id="-1" semantic-id="1" stroke="rgb(178,178,0)" stroke-width="0.1"/>
  <path d="M 92.307364,96.54791449999993 L 94.63024321897592,100.0" fill="none" instance-id="-1" semantic-id="1" stroke="rgb(178,178,0)" stroke-width="0.1"/>
  <path d="M 42.527364000000034,67.3679145000001 L 38.380363999999986,70.15791450000006" fill="none" instance-id="-1" semantic-id="1" stroke="rgb(178,178,0)" stroke-width="0.1"/>
  <path d="M 43.62736399999994,65.41791450000005 L 38.650364000000025,68.76791449999996" fill="none" instance-id="-1" semantic-id="1" stroke="rgb(178,178,0)" stroke-width="0.1"/>
  <path d="M 69.79736400000002,27.307914499999924 L 55.29636400000004,5.767914499999961" fill="none" instance-id="-1" semantic-id="1" stroke="rgb(178,178,0)" stroke-width="0.1"/>
  <path d="M 71.45636400000001,26.187914500000034 L 57.34736399999997,5.227914499999997" fill="none" instance-id="-1" semantic-id="1" stroke="rgb(178,178,0)" stroke-width="0.1"/>
  <path d="M 71.45636400000001,26.187914500000034 L 83.90036399999997,17.807914499999924" fill="none" instance-id="-1" semantic-id="1" stroke="rgb(178,178,0)" stroke-width="0.1"/>
  <path d="M 71.74436400000002,28.40791450000006 L 85.846364,18.90791450000006" fill="none" instance-id="-1" semantic-id="1" stroke="rgb(178,178,0)" stroke-width="0.1"/>
  <path d="M 99.24636399999997,7.477914499999997 L 94.21115808859781,0.0" fill="none" instance-id="-1" semantic-id="1" stroke="rgb(178,178,0)" stroke-width="0.1"/>
  <path d="M 100.0,5.013789791622571 L 96.6228544475,0.0" fill="none" instance-id="-1" semantic-id="1" stroke="rgb(178,178,0)" stroke-width="0.1"/>
  <path d="M 83.90036399999997,17.807914499999924 L 72.466364,0.8279145000000199" fill="none" instance-id="-1" semantic-id="1" stroke="rgb(178,178,0)" stroke-width="0.1"/>
  <path d="M 85.55936399999996,16.697914500000024 L 74.44836399999997,0.1879145000000335" fill="none" instance-id="-1" semantic-id="1" stroke="rgb(178,178,0)" stroke-width="0.1"/>
  <path d="M 85.55936399999996,16.697914500000024 L 99.24636399999997,7.477914499999997" fill="none" instance-id="-1" semantic-id="1" stroke="rgb(178,178,0)" stroke-width="0.1"/>
  <path d="M 85.846364,18.90791450000006 L 100.0,9.38054190258049" fill="none" instance-id="-1" semantic-id="1" stroke="rgb(178,178,0)" stroke-width="0.1"/>
  <path d="M 72.99636399999997,58.91791450000005 L 100.0,40.73588315463303" fill="none" instance-id="-1" semantic-id="1" stroke="rgb(178,178,0)" stroke-width="0.1"/>
  <path d="M 74.11336400000005,60.567914499999915 L 100.0,43.14208523501884" fill="none" instance-id="-1" semantic-id="1" stroke="rgb(178,178,0)" stroke-width="0.1"/>
  <path d="M 35.318363999999974,97.83791450000012 L 36.77580618022728,100.0" fill="none" instance-id="-1" semantic-id="1" stroke="rgb(178,178,0)" stroke-width="0.1"/>
  <path d="M 35.047364000000016,99.2179145 L 35.57370424156113,100.0" fill="none" instance-id="-1" semantic-id="1" stroke="rgb(178,178,0)" stroke-width="0.1"/>
  <path d="M 38.86736400000001,98.64791450000007 L 36.857717494244525,100.0" fill="none" instance-id="-1" semantic-id="1" stroke="rgb(178,178,0)" stroke-width="0.1"/>
  <path d="M 40.9843574734042,100.0 L 40.366363999999976,99.0779144999999" fill="none" instance-id="-1" semantic-id="1" stroke="rgb(178,178,0)" stroke-width="0.1"/>
  <path d="M 38.45036399999998,7.5879145000001245 A 320.142,320.142 0.0 0,0 55.47936400000003,3.64791450000007" fill="none" instance-id="-1" semantic-id="1" stroke="rgb(178,178,0)" stroke-width="0.1"/>
  <path d="M 39.658364000000006,9.387914500000079 A 322.142,322.142 0.0 0,0 55.29636400000004,5.767914499999961" fill="none" instance-id="-1" semantic-id="1" stroke="rgb(178,178,0)" stroke-width="0.1"/>
  <path d="M 55.47936400000003,3.64791450000007 L 55.971439134536354,3.5197065084248607" fill="none" instance-id="-1" semantic-id="1" stroke="rgb(178,178,0)" stroke-width="0.1"/>
  <path d="M 55.971439134536354,3.5197065084248607 L 56.46331000708767,3.3907170830127598" fill="none" instance-id="-1" semantic-id="1" stroke="rgb(178,178,0)" stroke-width="0.1"/>
  <path d="M 56.46331000708767,3.3907170830127598 L 56.95497537670872,3.2609465491925675" fill="none" instance-id="-1" semantic-id="1" stroke="rgb(178,178,0)" stroke-width="0.1"/>
  <path d="M 56.95497537670872,3.2609465491925675 L 57.446434002972296,3.130395234363391" fill="none" instance-id="-1" semantic-id="1" stroke="rgb(178,178,0)" stroke-width="0.1"/>
  <path d="M 57.446434002972296,3.130395234363391 L 57.93768464597315,2.999063467894416" fill="none" instance-id="-1" semantic-id="1" stroke="rgb(178,178,0)" stroke-width="0.1"/>
  <path d="M 57.93768464597315,2.999063467894416 L 58.428726066330455,2.866951581123658" fill="none" instance-id="-1" semantic-id="1" stroke="rgb(178,178,0)" stroke-width="0.1"/>
  <path d="M 58.428726066330455,2.866951581123658 L 58.919557025191125,2.734059907357505" fill="none" instance-id="-1" semantic-id="1" stroke="rgb(178,178,0)" stroke-width="0.1"/>
  <path d="M 58.919557025191125,2.734059907357505 L 59.41017628423367,2.6003887818696967" fill="none" instance-id="-1" semantic-id="1" stroke="rgb(178,178,0)" stroke-width="0.1"/>
  <path d="M 59.41017628423367,2.6003887818696967 L 59.90058260566991,2.465938541899959" fill="none" instance-id="-1" semantic-id="1" stroke="rgb(178,178,0)" stroke-width="0.1"/>
  <path d="M 59.90058260566991,2.465938541899959 L 60.3907747522494,2.3307095266543456" fill="none" instance-id="-1" semantic-id="1" stroke="rgb(178,178,0)" stroke-width="0.1"/>
  <path d="M 60.3907747522494,2.3307095266543456 L 60.880751487262046,2.194702077303191" fill="none" instance-id="-1" semantic-id="1" stroke="rgb(178,178,0)" stroke-width="0.1"/>
  <path d="M 60.880751487262046,2.194702077303191 L 61.37051157454084,2.0579165369811108" fill="none" instance-id="-1" semantic-id="1" stroke="rgb(178,178,0)" stroke-width="0.1"/>
  <path d="M 61.37051157454084,2.0579165369811108 L 61.860053778465726,1.9203532507854106" fill="none" instance-id="-1" semantic-id="1" stroke="rgb(178,178,0)" stroke-width="0.1"/>
  <path d="M 61.860053778465726,1.9203532507854106 L 62.3493768639662,1.782012565775858" fill="none" instance-id="-1" semantic-id="1" stroke="rgb(178,178,0)" stroke-width="0.1"/>
  <path d="M 62.3493768639662,1.782012565775858 L 62.83847959652451,1.642894830973546" fill="none" instance-id="-1" semantic-id="1" stroke="rgb(178,178,0)" stroke-width="0.1"/>
  <path d="M 62.83847959652451,1.642894830973546 L 63.32736074217894,1.5030003973595285" fill="none" instance-id="-1" semantic-id="1" stroke="rgb(178,178,0)" stroke-width="0.1"/>
  <path d="M 63.32736074217894,1.5030003973595285 L 63.816019067526895,1.3623296178752753" fill="none" instance-id="-1" semantic-id="1" stroke="rgb(178,178,0)" stroke-width="0.1"/>
  <path d="M 63.816019067526895,1.3623296178752753 L 64.30445333972762,1.2208828474198299" fill="none" instance-id="-1" semantic-id="1" stroke="rgb(178,178,0)" stroke-width="0.1"/>
  <path d="M 64.30445333972762,1.2208828474198299 L 64.79266232650605,1.0786604428508326" fill="none" instance-id="-1" semantic-id="1" stroke="rgb(178,178,0)" stroke-width="0.1"/>
  <path d="M 64.79266232650605,1.0786604428508326 L 65.28064479615512,0.9356627629824743" fill="none" instance-id="-1" semantic-id="1" stroke="rgb(178,178,0)" stroke-width="0.1"/>
  <path d="M 65.28064479615512,0.9356627629824743 L 65.76839951753948,0.7918901685848141" fill="none" instance-id="-1" semantic-id="1" stroke="rgb(178,178,0)" stroke-width="0.1"/>
  <path d="M 65.76839951753948,0.7918901685848141 L 66.25592526009837,0.6473430223830974" fill="none" instance-id="-1" semantic-id="1" stroke="rgb(178,178,0)" stroke-width="0.1"/>
  <path d="M 66.25592526009837,0.6473430223830974 L 66.74322079384842,0.5020216890566189" fill="none" instance-id="-1" semantic-id="1" stroke="rgb(178,178,0)" stroke-width="0.1"/>
  <path d="M 66.74322079384842,0.5020216890566189 L 67.23028488938746,0.35592653523804074" fill="none" instance-id="-1" semantic-id="1" stroke="rgb(178,178,0)" stroke-width="0.1"/>
  <path d="M 67.23028488938746,0.35592653523804074 L 67.71711631789697,0.20905792951191415" fill="none" instance-id="-1" semantic-id="1" stroke="rgb(178,178,0)" stroke-width="0.1"/>
  <path d="M 67.71711631789697,0.20905792951191415 L 68.20371385114561,0.06141624241445243" fill="none" instance-id="-1" semantic-id="1" stroke="rgb(178,178,0)" stroke-width="0.1"/>
  <path d="M 57.34736399999997,5.227914499999997 A 322.142,322.142 0.0 0,0 72.466364,0.8279145000000199" fill="none" instance-id="-1" semantic-id="1" stroke="rgb(178,178,0)" stroke-width="0.1"/>
  <path d="M 74.44836399999997,0.1879145000000335 L 74.92485309642518,0.032719887800681136" fill="none" instance-id="-1" semantic-id="1" stroke="rgb(178,178,0)" stroke-width="0.1"/>
 </g>
 <g id="layerWINDOW" inkscape:groupmode="layer" inkscape:label="WINDOW">
  <path d="M 37.99636399999997,94.64791450000007 L 41.314363999999955,92.41791450000005" fill="none" stroke="rgb(0,178,0)" stroke-width="0.1"/>
  <path d="M 40.64336400000002,91.41791450000005 L 37.32636400000001,93.65791450000006" fill="none" stroke="rgb(0,178,0)" stroke-width="0.1"/>
  <path d="M 14.373363999999981,51.967914500000006 L 14.65336400000001,52.37791450000009" fill="none" instance-id="18" semantic-id="3" stroke="rgb(0,178,0)" stroke-width="0.1"/>
  <path d="M 22.740364,46.92791450000004 L 22.461364000000003,46.51791449999996" fill="none" instance-id="18" semantic-id="3" stroke="rgb(0,178,0)" stroke-width="0.1"/>
  <path d="M 22.740364,46.92791450000004 L 14.65336400000001,52.37791450000009" fill="none" instance-id="18" semantic-id="3" stroke="rgb(0,178,0)" stroke-width="0.1"/>
  <path d="M 22.461364000000003,46.51791449999996 L 14.373363999999981,51.967914500000006" fill="none" instance-id="18" semantic-id="3" stroke="rgb(0,178,0)" stroke-width="0.1"/>
  <path d="M 23.86936400000002,66.06791449999992 L 23.590364000000022,65.64791450000007" fill="none" instance-id="15" semantic-id="3" stroke="rgb(0,178,0)" stroke-width="0.1"/>
  <path d="M 31.67736400000001,60.207914500000015 L 31.956364000000008,60.6179145000001" fill="none" instance-id="15" semantic-id="3" stroke="rgb(0,178,0)" stroke-width="0.1"/>
  <path d="M 31.67736400000001,60.207914500000015 L 23.590364000000022,65.64791450000007" fill="none" instance-id="15" semantic-id="3" stroke="rgb(0,178,0)" stroke-width="0.1"/>
  <path d="M 31.956364000000008,60.6179145000001 L 23.86936400000002,66.06791449999992" fill="none" instance-id="15" semantic-id="3" stroke="rgb(0,178,0)" stroke-width="0.1"/>
  <path d="M 80.09436400000004,76.6179145000001 L 87.37336400000004,71.7179145" fill="none" instance-id="17" semantic-id="4" stroke="rgb(0,178,0)" stroke-width="0.1"/>
  <path d="M 80.34536400000002,76.98791449999999 L 87.62436400000001,72.08791450000012" fill="none" instance-id="17" semantic-id="4" stroke="rgb(0,178,0)" stroke-width="0.1"/>
  <path d="M 80.09436400000004,76.6179145000001 L 80.34536400000002,76.98791449999999" fill="none" instance-id="17" semantic-id="4" stroke="rgb(0,178,0)" stroke-width="0.1"/>
  <path d="M 87.62436400000001,72.08791450000012 L 87.37336400000004,71.7179145" fill="none" instance-id="17" semantic-id="4" stroke="rgb(0,178,0)" stroke-width="0.1"/>
  <path d="M 89.89536399999997,91.17791450000004 L 97.17436399999997,86.27791449999995" fill="none" instance-id="17" semantic-id="4" stroke="rgb(0,178,0)" stroke-width="0.1"/>
  <path d="M 90.14636399999995,91.54791449999993 L 97.42536399999995,86.64791450000007" fill="none" instance-id="17" semantic-id="4" stroke="rgb(0,178,0)" stroke-width="0.1"/>
  <path d="M 97.17436399999997,86.27791449999995 L 97.42536399999995,86.64791450000007" fill="none" instance-id="17" semantic-id="4" stroke="rgb(0,178,0)" stroke-width="0.1"/>
  <path d="M 90.14636399999995,91.54791449999993 L 89.89536399999997,91.17791450000004" fill="none" instance-id="17" semantic-id="4" stroke="rgb(0,178,0)" stroke-width="0.1"/>
  <path d="M 2.2133640000000128,46.88791450000008 L 1.5933640000000082,37.90791450000006" fill="none" instance-id="19" semantic-id="3" stroke="rgb(0,178,0)" stroke-width="0.1"/>
  <path d="M 24.00036399999999,79.23791449999999 L 32.086364,83.18791450000003" fill="none" instance-id="16" semantic-id="3" stroke="rgb(0,178,0)" stroke-width="0.1"/>
  <path d="M 17.154363999999987,38.63791450000008 A 9.75,9.75 0.0 0,0 14.376364000000024,51.957914500000015" fill="none" instance-id="18" semantic-id="3" stroke="rgb(0,178,0)" stroke-width="0.1"/>
  <path d="M 23.87136399999997,66.05791449999992 A 9.75,9.75 0.0 0,0 37.26236399999999,68.49791449999998" fill="none" instance-id="15" semantic-id="3" stroke="rgb(0,178,0)" stroke-width="0.1"/>
  <path d="M 85.120364,84.08791450000012 A 8.775,8.775 0.0 0,0 87.62136399999997,72.09791450000012" fill="none" instance-id="17" semantic-id="4" stroke="rgb(0,178,0)" stroke-width="0.1"/>
  <path d="M 97.17136400000004,86.27791449999995 A 8.775,8.775 0.0 0,0 85.120364,84.08791450000012" fill="none" instance-id="17" semantic-id="4" stroke="rgb(0,178,0)" stroke-width="0.1"/>
  <path d="M 9.679364000000021,41.857914500000106 A 9.0,9.0 0.0 0,0 1.5933640000000082,37.90791450000006" fill="none" instance-id="19" semantic-id="3" stroke="rgb(0,178,0)" stroke-width="0.1"/>
  <path d="M 32.086364,83.18791450000003 A 9.0,9.0 0.0 0,0 31.465364000000022,74.20791450000002" fill="none" instance-id="16" semantic-id="3" stroke="rgb(0,178,0)" stroke-width="0.1"/>
 </g>
 <g id="layerWINDOW_TEXT" inkscape:groupmode="layer" inkscape:label="WINDOW_TEXT">
  <text fill="rgb(178,0,178)" font-family="Noto Sans CJK SC" font-size="2" transform="rotate(-303.956,20.491363999999976,37.857914500000106)" x="20.491363999999976" y="37.857914500000106">
   M1023
  </text>
  <text fill="rgb(178,0,178)" font-family="Noto Sans CJK SC" font-size="2" transform="rotate(-303.956,31.571364000000017,54.38791450000008)" x="31.571364000000017" y="54.38791450000008">
   M1023
  </text>
  <text fill="rgb(178,0,178)" font-family="Noto Sans CJK SC" font-size="2" transform="rotate(-303.951,75.08036400000003,82.34791450000012)" x="75.08036400000003" y="82.34791450000012">
   M1823
  </text>
  <text fill="rgb(178,0,178)" font-family="Noto Sans CJK SC" font-size="2" transform="rotate(-33.9603,28.382363999999995,93.9679145)" x="28.382363999999995" y="93.9679145">
   M0921
  </text>
 </g>
 <g id="layers-消火栓" inkscape:groupmode="layer" inkscape:label="s-消火栓">
  <path d="M 7.067363999999998,15.40791450000006 L 5.149363999999991,8.26791449999996" fill="none" stroke="rgb(178,88,0)" stroke-width="0.1"/>
  <path d="M 9.058363999999983,14.067914499999915 L 5.149363999999991,8.26791449999996" fill="none" stroke="rgb(178,88,0)" stroke-width="0.1"/>
  <path d="M 5.149363999999991,8.26791449999996 L 3.158364000000006,9.607914500000106" fill="none" stroke="rgb(178,88,0)" stroke-width="0.1"/>
  <path d="M 3.158364000000006,9.607914500000106 L 7.067363999999998,15.40791450000006" fill="none" stroke="rgb(178,88,0)" stroke-width="0.1"/>
  <path d="M 7.067363999999998,15.40791450000006 L 9.058363999999983,14.067914499999915" fill="none" stroke="rgb(178,88,0)" stroke-width="0.1"/>
  <path d="M 3.158364000000006,9.607914500000106 L 7.067363999999998,15.40791450000006" fill="none" stroke="rgb(178,88,0)" stroke-width="0.1"/>
  <path d="M 7.067363999999998,15.40791450000006 L 5.149363999999991,8.26791449999996" fill="none" stroke="rgb(178,88,0)" stroke-width="0.1"/>
  <path d="M 5.149363999999991,8.26791449999996 L 3.158364000000006,9.607914500000106" fill="none" stroke="rgb(178,88,0)" stroke-width="0.1"/>
 </g>
</svg>