<?xml version="1.0" encoding="utf-8"?>
<svg style="background-color: #000;" version="1.1" viewBox="0 0 100.0 100.0" xmlns="http://www.w3.org/2000/svg" xmlns:inkscape="http://www.inkscape.org/namespaces/inkscape">
 <g id="layer0-结构边线" inkscape:groupmode="layer" inkscape:label="0-结构边线">
  <path d="M 29.041663999999997,81.95791450000002 L 36.477864,79.00791450000003" fill="none" stroke="rgb(178,0,178)" stroke-width="0.1"/>
  <path d="M 36.477864,79.00791450000003 L 33.527664,71.57091450000001" fill="none" stroke="rgb(178,0,178)" stroke-width="0.1"/>
  <path d="M 26.091563999999998,74.52191450000004 L 33.527664,71.57091450000001" fill="none" stroke="rgb(178,0,178)" stroke-width="0.1"/>
  <path d="M 29.041663999999997,81.95791450000002 L 26.091563999999998,74.52191450000004" fill="none" stroke="rgb(178,0,178)" stroke-width="0.1"/>
  <path d="M 29.041663999999997,81.95791450000002 L 36.477864,79.00791450000003" fill="none" stroke="rgb(178,0,178)" stroke-width="0.1"/>
  <path d="M 36.477864,79.00791450000003 L 33.527664,71.57091450000001" fill="none" stroke="rgb(178,0,178)" stroke-width="0.1"/>
  <path d="M 26.091563999999998,74.52191450000004 L 33.527664,71.57091450000001" fill="none" stroke="rgb(178,0,178)" stroke-width="0.1"/>
  <path d="M 29.041663999999997,81.95791450000002 L 26.091563999999998,74.52191450000004" fill="none" stroke="rgb(178,0,178)" stroke-width="0.1"/>
  <path d="M 26.850164,82.82691450000004 L 100.0,53.80641913046867" fill="none" stroke="rgb(178,0,178)" stroke-width="0.1"/>
 </g>
 <g id="layer0-金属格栅" inkscape:groupmode="layer" inkscape:label="0-金属格栅">
  <path d="M 46.934963999999994,74.85891450000003 L 48.041264,77.64791450000001" fill="none" stroke="rgb(73,73,73)" stroke-width="0.1"/>
  <path d="M 48.041264,77.64791450000001 L 47.576464,77.83191450000004" fill="none" stroke="rgb(73,73,73)" stroke-width="0.1"/>
  <path d="M 47.576464,77.83191450000004 L 46.470264,75.0429145" fill="none" stroke="rgb(73,73,73)" stroke-width="0.1"/>
  <path d="M 46.470264,75.0429145 L 46.934963999999994,74.85891450000003" fill="none" stroke="rgb(73,73,73)" stroke-width="0.1"/>
  <path d="M 60.877764,69.32791450000002 L 61.984064000000004,72.11591450000003" fill="none" stroke="rgb(73,73,73)" stroke-width="0.1"/>
  <path d="M 61.984064000000004,72.11591450000003 L 61.519363999999996,72.30091450000003" fill="none" stroke="rgb(73,73,73)" stroke-width="0.1"/>
  <path d="M 61.519363999999996,72.30091450000003 L 60.41306399999999,69.51191449999999" fill="none" stroke="rgb(73,73,73)" stroke-width="0.1"/>
  <path d="M 60.41306399999999,69.51191449999999 L 60.877764,69.32791450000002" fill="none" stroke="rgb(73,73,73)" stroke-width="0.1"/>
  <path d="M 74.820364,63.79591450000004 L 75.927364,66.58491450000002" fill="none" stroke="rgb(73,73,73)" stroke-width="0.1"/>
  <path d="M 75.927364,66.58491450000002 L 75.462364,66.7689145" fill="none" stroke="rgb(73,73,73)" stroke-width="0.1"/>
  <path d="M 75.462364,66.7689145 L 74.356364,63.97991450000001" fill="none" stroke="rgb(73,73,73)" stroke-width="0.1"/>
  <path d="M 74.356364,63.97991450000001 L 74.820364,63.79591450000004" fill="none" stroke="rgb(73,73,73)" stroke-width="0.1"/>
  <path d="M 88.763364,58.26491450000003 L 89.86936399999999,61.05291450000004" fill="none" stroke="rgb(73,73,73)" stroke-width="0.1"/>
  <path d="M 89.86936399999999,61.05291450000004 L 89.40536399999999,61.23791449999999" fill="none" stroke="rgb(73,73,73)" stroke-width="0.1"/>
  <path d="M 89.40536399999999,61.23791449999999 L 88.29836399999999,58.4489145" fill="none" stroke="rgb(73,73,73)" stroke-width="0.1"/>
  <path d="M 88.29836399999999,58.4489145 L 88.763364,58.26491450000003" fill="none" stroke="rgb(73,73,73)" stroke-width="0.1"/>
  <path d="M 10.994963999999996,89.15491450000002 L 10.879163999999996,86.1579145" fill="none" stroke="rgb(73,73,73)" stroke-width="0.1"/>
  <path d="M 10.879163999999996,86.1579145 L 11.378763999999997,86.13791450000002" fill="none" stroke="rgb(73,73,73)" stroke-width="0.1"/>
  <path d="M 11.378763999999997,86.13791450000002 L 11.494563999999997,89.13591450000001" fill="none" stroke="rgb(73,73,73)" stroke-width="0.1"/>
  <path d="M 11.494563999999997,89.13591450000001 L 10.994963999999996,89.15491450000002" fill="none" stroke="rgb(73,73,73)" stroke-width="0.1"/>
  <path d="M 27.721863999999997,85.70891449999999 L 26.615364,82.9199145" fill="none" stroke="rgb(73,73,73)" stroke-width="0.1"/>
  <path d="M 26.615364,82.9199145 L 27.080064,82.73591450000004" fill="none" stroke="rgb(73,73,73)" stroke-width="0.1"/>
  <path d="M 27.080064,82.73591450000004 L 28.186563999999997,85.52391449999999" fill="none" stroke="rgb(73,73,73)" stroke-width="0.1"/>
  <path d="M 28.186563999999997,85.52391449999999 L 27.721863999999997,85.70891449999999" fill="none" stroke="rgb(73,73,73)" stroke-width="0.1"/>
  <path d="M 32.992164,80.39091450000001 L 34.09846399999999,83.17891450000002" fill="none" stroke="rgb(73,73,73)" stroke-width="0.1"/>
  <path d="M 34.09846399999999,83.17891450000002 L 33.633663999999996,83.36391450000002" fill="none" stroke="rgb(73,73,73)" stroke-width="0.1"/>
  <path d="M 33.633663999999996,83.36391450000002 L 32.52736399999999,80.57491450000003" fill="none" stroke="rgb(73,73,73)" stroke-width="0.1"/>
  <path d="M 32.52736399999999,80.57491450000003 L 32.992164,80.39091450000001" fill="none" stroke="rgb(73,73,73)" stroke-width="0.1"/>
 </g>
 <g id="layerCOLUMN" inkscape:groupmode="layer" inkscape:label="COLUMN">
  <path d="M 29.041663999999997,81.95791450000002 L 36.477864,79.00791450000003" fill="none" stroke="rgb(178,178,0)" stroke-width="0.1"/>
  <path d="M 36.477864,79.00791450000003 L 33.527664,71.57091450000001" fill="none" stroke="rgb(178,178,0)" stroke-width="0.1"/>
  <path d="M 33.527664,71.57091450000001 L 26.091563999999998,74.52191450000004" fill="none" stroke="rgb(178,178,0)" stroke-width="0.1"/>
  <path d="M 26.091563999999998,74.52191450000004 L 29.041663999999997,81.95791450000002" fill="none" stroke="rgb(178,178,0)" stroke-width="0.1"/>
  <path d="M 29.041663999999997,81.95791450000002 L 36.477864,79.00791450000003" fill="none" stroke="rgb(178,178,0)" stroke-width="0.1"/>
  <path d="M 36.477864,79.00791450000003 L 33.527664,71.57091450000001" fill="none" stroke="rgb(178,178,0)" stroke-width="0.1"/>
  <path d="M 33.527664,71.57091450000001 L 26.091563999999998,74.52191450000004" fill="none" stroke="rgb(178,178,0)" stroke-width="0.1"/>
  <path d="M 26.091563999999998,74.52191450000004 L 29.041663999999997,81.95791450000002" fill="none" stroke="rgb(178,178,0)" stroke-width="0.1"/>
 </g>
 <g id="layerCURTWALL" inkscape:groupmode="layer" inkscape:label="CURTWALL">
  <path d="M 27.587663999999997,84.68591450000002 L 100.0,55.958100587812396" fill="none" instance-id="-1" semantic-id="2" stroke="rgb(0,178,178)" stroke-width="0.1"/>
  <path d="M 27.956463999999997,85.61591450000003 L 100.0,57.034218280797575" fill="none" instance-id="-1" semantic-id="2" stroke="rgb(0,178,178)" stroke-width="0.1"/>
  <path d="M 100.0,53.806614687353715 L 39.107764,77.96391449999999" fill="none" instance-id="-1" semantic-id="2" stroke="rgb(0,178,178)" stroke-width="0.1"/>
  <path d="M 36.454764,78.94991450000003 A 64.0,64.0 0.0 0,0 39.107764,77.96391449999999" fill="none" instance-id="-1" semantic-id="2" stroke="rgb(0,178,178)" stroke-width="0.1"/>
  <path d="M 100.0,52.73125726860496 L 38.738963999999996,77.03491450000001" fill="none" instance-id="-1" semantic-id="2" stroke="rgb(0,178,178)" stroke-width="0.1"/>
  <path d="M 36.085663999999994,78.0189145 A 63.0,63.0 0.0 0,0 38.738963999999996,77.03491450000001" fill="none" instance-id="-1" semantic-id="2" stroke="rgb(0,178,178)" stroke-width="0.1"/>
 </g>
 <g id="layerDIM_SYMB" inkscape:groupmode="layer" inkscape:label="DIM_SYMB">
  <path d="M 100.0,67.7922123886338 L 57.787864,84.53891450000003" fill="none" stroke="rgb(0,178,0)" stroke-width="0.1"/>
  <path d="M 57.787864,84.53891450000003 L 53.605064,86.1989145" fill="none" stroke="rgb(0,178,0)" stroke-width="0.1"/>
 </g>
 <g id="layerSTAIR" inkscape:groupmode="layer" inkscape:label="STAIR">
  <path d="M 49.91736399999999,76.90291450000001 L 80.591364,64.73391450000003" fill="none" instance-id="1" semantic-id="30" stroke="rgb(178,88,0)" stroke-width="0.1"/>
  <path d="M 49.91736399999999,76.90291450000001 L 57.292664,95.49391450000002" fill="none" instance-id="1" semantic-id="30" stroke="rgb(178,88,0)" stroke-width="0.1"/>
  <path d="M 52.705963999999994,75.79691450000001 L 60.08126399999999,94.38691449999999" fill="none" instance-id="1" semantic-id="30" stroke="rgb(178,88,0)" stroke-width="0.1"/>
  <path d="M 55.494463999999994,74.69091450000002 L 62.869764,93.2809145" fill="none" instance-id="1" semantic-id="30" stroke="rgb(178,88,0)" stroke-width="0.1"/>
  <path d="M 58.283063999999996,73.58391449999999 L 65.65836399999999,92.1749145" fill="none" instance-id="1" semantic-id="30" stroke="rgb(178,88,0)" stroke-width="0.1"/>
  <path d="M 61.071664,72.4779145 L 68.447364,91.0689145" fill="none" instance-id="1" semantic-id="30" stroke="rgb(178,88,0)" stroke-width="0.1"/>
  <path d="M 63.860164,71.3719145 L 71.23536399999999,89.96191450000003" fill="none" instance-id="1" semantic-id="30" stroke="rgb(178,88,0)" stroke-width="0.1"/>
  <path d="M 66.648764,70.26591450000001 L 74.02436399999999,88.85591450000004" fill="none" instance-id="1" semantic-id="30" stroke="rgb(178,88,0)" stroke-width="0.1"/>
  <path d="M 69.437364,69.15891450000004 L 76.812364,87.74991449999999" fill="none" instance-id="1" semantic-id="30" stroke="rgb(178,88,0)" stroke-width="0.1"/>
  <path d="M 72.226364,68.05291450000004 L 79.601364,86.64291450000002" fill="none" instance-id="1" semantic-id="30" stroke="rgb(178,88,0)" stroke-width="0.1"/>
  <path d="M 75.014364,66.94691449999999 L 82.389364,85.53691450000002" fill="none" instance-id="1" semantic-id="30" stroke="rgb(178,88,0)" stroke-width="0.1"/>
  <path d="M 77.803364,65.83991450000002 L 85.178364,84.43091450000003" fill="none" instance-id="1" semantic-id="30" stroke="rgb(178,88,0)" stroke-width="0.1"/>
  <path d="M 80.591364,64.73391450000003 L 87.967364,83.3239145" fill="none" instance-id="1" semantic-id="30" stroke="rgb(178,88,0)" stroke-width="0.1"/>
  <path d="M 97.323364,58.09591449999999 L 100.0,57.034038530644864" fill="none" instance-id="1" semantic-id="30" stroke="rgb(178,88,0)" stroke-width="0.1"/>
  <path d="M 97.323364,58.09591449999999 L 100.0,64.8432148221695" fill="none" instance-id="1" semantic-id="30" stroke="rgb(178,88,0)" stroke-width="0.1"/>
  <path d="M 100.0,57.034255433614305 L 60.939364,72.5309145" fill="none" instance-id="1" semantic-id="30" stroke="rgb(178,88,0)" stroke-width="0.1"/>
  <path d="M 57.292664,95.49391450000002 L 100.0,78.55061326787558" fill="none" instance-id="1" semantic-id="30" stroke="rgb(178,88,0)" stroke-width="0.1"/>
  <path d="M 56.55516399999999,93.63491450000004 L 100.0,76.39913493912485" fill="none" instance-id="1" semantic-id="30" stroke="rgb(178,88,0)" stroke-width="0.1"/>
 </g>
</svg>