<?xml version="1.0" encoding="utf-8"?>
<svg style="background-color: #000;" version="1.1" viewBox="0 0 100.0 100.0" xmlns="http://www.w3.org/2000/svg" xmlns:inkscape="http://www.inkscape.org/namespaces/inkscape">
 <g id="layer!消防-疏散楼梯" inkscape:groupmode="layer" inkscape:label="!消防-疏散楼梯">
  <path d="M 0.0,2.0932784999999967 L 0.7333639999999946,1.359914500000059" fill="none" stroke="rgb(53,107,0)" stroke-width="0.1"/>
  <path d="M 0.0,5.4602784999999585 L 2.0883639999999843,3.3719145000000026" fill="none" stroke="rgb(53,107,0)" stroke-width="0.1"/>
  <path d="M 0.0,0.2699564844406268 L 3.360364000000004,5.260914500000013" fill="none" stroke="rgb(53,107,0)" stroke-width="0.1"/>
  <path d="M 3.360364000000004,5.260914500000013 L 0.0,7.523363485581854" fill="none" stroke="rgb(53,107,0)" stroke-width="0.1"/>
  <path d="M 0.0,7.523363485581854 L 3.360364000000004,5.260914500000013" fill="none" stroke="rgb(53,107,0)" stroke-width="0.1"/>
  <path d="M 3.360364000000004,5.260914500000013 L 0.0,0.2699564844406268" fill="none" stroke="rgb(53,107,0)" stroke-width="0.1"/>
 </g>
 <g id="layer00 细线" inkscape:groupmode="layer" inkscape:label="00 细线">
  <path d="M 33.05436400000002,8.181914500000062 L 38.86136399999998,4.27291450000007" fill="none" stroke="rgb(0,178,0)" stroke-width="0.1"/>
  <path d="M 38.86136399999998,4.27291450000007 L 67.34336400000001,46.57791450000002" fill="none" stroke="rgb(0,178,0)" stroke-width="0.1"/>
  <path d="M 67.34336400000001,46.57791450000002 L 61.53636399999999,50.48791449999999" fill="none" stroke="rgb(0,178,0)" stroke-width="0.1"/>
  <path d="M 39.02736399999998,4.16091449999999 L 39.275364000000025,3.99391449999996" fill="none" stroke="rgb(0,178,0)" stroke-width="0.1"/>
  <path d="M 39.275364000000025,3.99391449999996 L 68.31636400000002,47.128914500000064" fill="none" stroke="rgb(0,178,0)" stroke-width="0.1"/>
  <path d="M 68.31636400000002,47.128914500000064 L 67.901364,47.40791450000006" fill="none" stroke="rgb(0,178,0)" stroke-width="0.1"/>
  <path d="M 67.901364,47.40791450000006 L 67.34336400000001,46.57791450000002" fill="none" stroke="rgb(0,178,0)" stroke-width="0.1"/>
  <path d="M 61.53636399999999,50.48791449999999 L 67.34336400000001,46.57791450000002" fill="none" stroke="rgb(0,178,0)" stroke-width="0.1"/>
  <path d="M 59.86136399999998,47.99891450000007 L 65.668364,44.08991449999996" fill="none" stroke="rgb(0,178,0)" stroke-width="0.1"/>
  <path d="M 58.18536399999999,45.51091450000001 L 63.99236400000001,41.600914500000044" fill="none" stroke="rgb(0,178,0)" stroke-width="0.1"/>
  <path d="M 56.51036399999998,43.02191449999998 L 62.317364,39.11291449999999" fill="none" stroke="rgb(0,178,0)" stroke-width="0.1"/>
  <path d="M 54.83536399999997,40.53291450000006 L 60.64136400000001,36.62391450000007" fill="none" stroke="rgb(0,178,0)" stroke-width="0.1"/>
  <path d="M 53.15936399999998,38.044914500000004 L 58.966364,34.13591450000001" fill="none" stroke="rgb(0,178,0)" stroke-width="0.1"/>
  <path d="M 51.48436399999997,35.55591449999997 L 57.29036400000001,31.64691449999998" fill="none" stroke="rgb(0,178,0)" stroke-width="0.1"/>
  <path d="M 49.80836399999998,33.06791450000003 L 55.615364,29.15791450000006" fill="none" stroke="rgb(0,178,0)" stroke-width="0.1"/>
  <path d="M 48.13336399999997,30.578914499999996 L 53.94036399999999,26.669914500000004" fill="none" stroke="rgb(0,178,0)" stroke-width="0.1"/>
  <path d="M 46.457363999999984,28.090914500000054 L 52.264364,24.18091449999997" fill="none" stroke="rgb(0,178,0)" stroke-width="0.1"/>
  <path d="M 44.78236399999997,25.60191450000002 L 50.58936399999999,21.69291450000003" fill="none" stroke="rgb(0,178,0)" stroke-width="0.1"/>
  <path d="M 43.10736400000002,23.113914499999964 L 48.913364,19.203914499999996" fill="none" stroke="rgb(0,178,0)" stroke-width="0.1"/>
  <path d="M 41.431363999999974,20.624914500000045 L 47.23836399999999,16.715914500000054" fill="none" stroke="rgb(0,178,0)" stroke-width="0.1"/>
  <path d="M 39.75636400000002,18.135914500000013 L 45.562364,14.22691450000002" fill="none" stroke="rgb(0,178,0)" stroke-width="0.1"/>
  <path d="M 38.080363999999975,15.64791450000007 L 43.88736399999999,11.737914499999988" fill="none" stroke="rgb(0,178,0)" stroke-width="0.1"/>
  <path d="M 36.40536400000002,13.158914500000037 L 42.21236399999998,9.249914500000045" fill="none" stroke="rgb(0,178,0)" stroke-width="0.1"/>
  <path d="M 34.729363999999975,10.67091449999998 L 40.53636399999999,6.760914500000013" fill="none" stroke="rgb(0,178,0)" stroke-width="0.1"/>
 </g>
 <g id="layer00 舞台工艺" inkscape:groupmode="layer" inkscape:label="00 舞台工艺">
  <path d="M 100.0,79.86703105531012 L 46.22889270158748,0.0" fill="none" stroke="rgb(178,0,0)" stroke-width="0.1"/>
  <path d="M 100.0,80.76296884938313 L 45.62577767468014,0.0" fill="none" stroke="rgb(178,0,0)" stroke-width="0.1"/>
 </g>
 <g id="layerDOOR_FIRE" inkscape:groupmode="layer" inkscape:label="DOOR_FIRE">
  <path d="M 3.3853639999999814,10.669914500000004 L 11.473364000000004,5.224914500000068" fill="none" instance-id="1" semantic-id="4" stroke="rgb(0,178,178)" stroke-width="0.1"/>
  <path d="M 3.6643639999999778,11.084914499999968 L 11.752364,5.639914500000032" fill="none" instance-id="1" semantic-id="4" stroke="rgb(0,178,178)" stroke-width="0.1"/>
  <path d="M 3.3853639999999814,10.669914500000004 L 3.6643639999999778,11.084914499999968" fill="none" instance-id="1" semantic-id="4" stroke="rgb(0,178,178)" stroke-width="0.1"/>
  <path d="M 11.752364,5.639914500000032 L 11.473364000000004,5.224914500000068" fill="none" instance-id="1" semantic-id="4" stroke="rgb(0,178,178)" stroke-width="0.1"/>
  <path d="M 14.275364000000025,26.84591450000005 L 22.36336399999999,21.4009145" fill="none" instance-id="1" semantic-id="4" stroke="rgb(0,178,178)" stroke-width="0.1"/>
  <path d="M 14.554364000000021,27.260914500000013 L 22.642363999999986,21.815914499999963" fill="none" instance-id="1" semantic-id="4" stroke="rgb(0,178,178)" stroke-width="0.1"/>
  <path d="M 22.36336399999999,21.4009145 L 22.642363999999986,21.815914499999963" fill="none" instance-id="1" semantic-id="4" stroke="rgb(0,178,178)" stroke-width="0.1"/>
  <path d="M 14.554364000000021,27.260914500000013 L 14.275364000000025,26.84591450000005" fill="none" instance-id="1" semantic-id="4" stroke="rgb(0,178,178)" stroke-width="0.1"/>
  <path d="M 8.970364000000018,18.965914500000054 A 9.75,9.75 0.0 0,0 11.749364000000014,5.641914499999984" fill="none" instance-id="1" semantic-id="4" stroke="rgb(0,178,178)" stroke-width="0.1"/>
  <path d="M 22.360364000000004,21.402914500000065 A 9.75,9.75 0.0 0,0 8.970364000000018,18.965914500000054" fill="none" instance-id="1" semantic-id="4" stroke="rgb(0,178,178)" stroke-width="0.1"/>
 </g>
 <g id="layerLVTRY" inkscape:groupmode="layer" inkscape:label="LVTRY">
  <path d="M 30.25436400000001,55.41491450000001 L 26.81636400000002,57.72991450000006" fill="none" instance-id="8" semantic-id="29" stroke="rgb(0,0,0)" stroke-width="0.1"/>
  <path d="M 28.32736399999999,52.55291450000004 L 24.889364,54.86791449999998" fill="none" instance-id="8" semantic-id="29" stroke="rgb(0,0,0)" stroke-width="0.1"/>
  <path d="M 30.309364000000016,55.31791450000003 L 28.43836399999998,52.53891450000003" fill="none" instance-id="8" semantic-id="29" stroke="rgb(0,0,0)" stroke-width="0.1"/>
  <path d="M 30.26836400000002,55.34591450000005 L 28.397363999999982,52.56691450000005" fill="none" instance-id="8" semantic-id="29" stroke="rgb(0,0,0)" stroke-width="0.1"/>
  <path d="M 31.664363999999978,54.46591450000005 L 29.73836399999999,51.60391449999997" fill="none" instance-id="8" semantic-id="29" stroke="rgb(0,0,0)" stroke-width="0.1"/>
  <path d="M 31.664363999999978,54.46591450000005 L 30.37936400000001,55.33091450000006" fill="none" instance-id="8" semantic-id="29" stroke="rgb(0,0,0)" stroke-width="0.1"/>
  <path d="M 29.73836399999999,51.60391449999997 L 28.45236399999999,52.46891449999998" fill="none" instance-id="8" semantic-id="29" stroke="rgb(0,0,0)" stroke-width="0.1"/>
  <path d="M 27.458364000000017,56.818914500000005 L 26.639364,57.370914500000026" fill="none" instance-id="8" semantic-id="29" stroke="rgb(0,0,0)" stroke-width="0.1"/>
  <path d="M 25.961364000000003,54.627914499999974 L 25.169363999999973,55.16091449999999" fill="none" instance-id="8" semantic-id="29" stroke="rgb(0,0,0)" stroke-width="0.1"/>
  <path d="M 29.395363999999972,70.79091449999999 L 26.735364000000004,66.83991449999996" fill="none" instance-id="9" semantic-id="24" stroke="rgb(0,0,0)" stroke-width="0.1"/>
  <path d="M 27.159363999999982,66.75391450000006 L 29.727364000000023,70.56791450000003" fill="none" instance-id="9" semantic-id="24" stroke="rgb(0,0,0)" stroke-width="0.1"/>
  <path d="M 33.15936399999998,56.68691450000006 L 27.685363999999993,60.3719145" fill="none" instance-id="9" semantic-id="24" stroke="rgb(0,0,0)" stroke-width="0.1"/>
  <path d="M 32.93636399999997,56.35491450000006 L 27.324364000000003,60.13291449999997" fill="none" stroke="rgb(0,0,0)" stroke-width="0.1"/>
  <path d="M 26.735364000000004,66.83991449999996 L 27.324364000000003,60.13291449999997" fill="none" instance-id="6" semantic-id="3" stroke="rgb(0,0,0)" stroke-width="0.1"/>
  <path d="M 26.89936399999999,70.66591449999999 L 20.263364000000024,75.13291449999997" fill="none" stroke="rgb(0,0,0)" stroke-width="0.1"/>
  <path d="M 27.011364000000015,70.83191450000004 L 20.37536399999999,75.29891450000002" fill="none" stroke="rgb(0,0,0)" stroke-width="0.1"/>
  <path d="M 22.76036399999998,75.26091450000001 L 22.034363999999982,74.18191450000006" fill="none" stroke="rgb(0,0,0)" stroke-width="0.1"/>
  <path d="M 26.078364000000022,73.02691449999998 L 25.352364000000023,71.94791450000002" fill="none" stroke="rgb(0,0,0)" stroke-width="0.1"/>
  <path d="M 20.37536399999999,75.29891450000002 L 20.263364000000024,75.13291449999997" fill="none" stroke="rgb(0,0,0)" stroke-width="0.1"/>
  <path d="M 27.011364000000015,70.83191450000004 L 26.89936399999999,70.66591449999999" fill="none" stroke="rgb(0,0,0)" stroke-width="0.1"/>
  <path d="M 22.939364000000012,67.87091450000003 L 19.164363999999978,70.41191449999997" fill="none" instance-id="7" semantic-id="23" stroke="rgb(0,0,0)" stroke-width="0.1"/>
  <path d="M 22.900364000000025,68.43991449999999 L 19.789363999999978,70.53391450000004" fill="none" instance-id="7" semantic-id="23" stroke="rgb(0,0,0)" stroke-width="0.1"/>
  <path d="M 21.380363999999986,72.89891450000005 L 24.491363999999976,70.80391450000002" fill="none" instance-id="7" semantic-id="23" stroke="rgb(0,0,0)" stroke-width="0.1"/>
  <path d="M 21.203364000000022,73.43991449999999 L 24.977364000000023,70.89891450000005" fill="none" stroke="rgb(0,0,0)" stroke-width="0.1"/>
  <path d="M 19.775364000000025,70.60391449999997 L 21.31136399999997,72.88491450000004" fill="none" instance-id="7" semantic-id="23" stroke="rgb(0,0,0)" stroke-width="0.1"/>
  <path d="M 24.505363999999986,70.73491450000006 L 22.969363999999985,68.4539145" fill="none" instance-id="7" semantic-id="23" stroke="rgb(0,0,0)" stroke-width="0.1"/>
  <path d="M 19.151364,70.48191450000002 L 21.133363999999972,73.42691450000007" fill="none" stroke="rgb(0,0,0)" stroke-width="0.1"/>
  <path d="M 24.991363999999976,70.82991449999997 L 23.008363999999972,67.88491450000004" fill="none" instance-id="7" semantic-id="23" stroke="rgb(0,0,0)" stroke-width="0.1"/>
  <path d="M 25.620363999999995,70.07991449999997 L 25.627364,70.13991450000003" fill="none" stroke="rgb(0,0,0)" stroke-width="0.1"/>
  <path d="M 25.209363999999994,70.18991449999999 L 25.627364,70.13991450000003" fill="none" stroke="rgb(0,0,0)" stroke-width="0.1"/>
  <path d="M 25.201364000000012,70.13091450000002 L 25.620363999999995,70.07991449999997" fill="none" stroke="rgb(0,0,0)" stroke-width="0.1"/>
  <path d="M 23.959363999999994,70.4729145 L 23.920364000000006,70.15491450000002" fill="none" instance-id="7" semantic-id="23" stroke="rgb(0,0,0)" stroke-width="0.1"/>
  <path d="M 24.78036400000002,70.37291449999998 L 23.844363999999985,70.48591450000004" fill="none" instance-id="7" semantic-id="23" stroke="rgb(0,0,0)" stroke-width="0.1"/>
  <path d="M 24.741363999999976,70.05591449999997 L 23.805363999999997,70.16891450000003" fill="none" instance-id="7" semantic-id="23" stroke="rgb(0,0,0)" stroke-width="0.1"/>
  <path d="M 23.844363999999985,70.48591450000004 L 23.805363999999997,70.16891450000003" fill="none" instance-id="7" semantic-id="23" stroke="rgb(0,0,0)" stroke-width="0.1"/>
  <path d="M 26.883363999999972,67.05991449999999 L 23.834363999999994,69.11191450000001" fill="none" stroke="rgb(0,0,0)" stroke-width="0.1"/>
  <path d="M 19.977364000000023,71.70891449999999 L 16.928363999999988,73.76191449999999" fill="none" stroke="rgb(0,0,0)" stroke-width="0.1"/>
  <path d="M 27.159363999999982,66.75391450000006 L 26.76636400000001,66.67691450000007" fill="none" instance-id="6" semantic-id="3" stroke="rgb(0,0,0)" stroke-width="0.1"/>
  <path d="M 27.685363999999993,60.3719145 L 27.29236400000002,60.29591449999998" fill="none" instance-id="9" semantic-id="24" stroke="rgb(0,0,0)" stroke-width="0.1"/>
  <path d="M 47.42736400000001,80.92391450000002 L 43.98936400000002,83.23891449999996" fill="none" instance-id="3" semantic-id="29" stroke="rgb(0,0,0)" stroke-width="0.1"/>
  <path d="M 49.354363999999975,83.78591449999999 L 45.91636399999999,86.09991450000007" fill="none" instance-id="3" semantic-id="29" stroke="rgb(0,0,0)" stroke-width="0.1"/>
  <path d="M 47.538364,80.90891450000004 L 49.40936399999998,83.68791450000003" fill="none" instance-id="3" semantic-id="29" stroke="rgb(0,0,0)" stroke-width="0.1"/>
  <path d="M 47.497364000000005,80.93691450000006 L 49.36736400000001,83.71591450000005" fill="none" instance-id="3" semantic-id="29" stroke="rgb(0,0,0)" stroke-width="0.1"/>
  <path d="M 48.83736399999998,79.97391449999998 L 50.764364,82.83591450000006" fill="none" instance-id="3" semantic-id="29" stroke="rgb(0,0,0)" stroke-width="0.1"/>
  <path d="M 48.83736399999998,79.97391449999998 L 47.55236400000001,80.83991449999996" fill="none" instance-id="3" semantic-id="29" stroke="rgb(0,0,0)" stroke-width="0.1"/>
  <path d="M 50.764364,82.83591450000006 L 49.478364,83.70191450000004" fill="none" instance-id="3" semantic-id="29" stroke="rgb(0,0,0)" stroke-width="0.1"/>
  <path d="M 45.07536399999998,82.98591450000004 L 44.255363999999986,83.53691449999997" fill="none" instance-id="3" semantic-id="29" stroke="rgb(0,0,0)" stroke-width="0.1"/>
  <path d="M 46.54136399999999,85.19791450000002 L 45.749364000000014,85.72991450000006" fill="none" instance-id="3" semantic-id="29" stroke="rgb(0,0,0)" stroke-width="0.1"/>
  <path d="M 32.85736400000002,75.93491449999999 L 35.51836400000002,79.88591450000001" fill="none" instance-id="10" semantic-id="24" stroke="rgb(0,0,0)" stroke-width="0.1"/>
  <path d="M 35.757363999999995,79.5259145 L 33.18936400000001,75.71091450000006" fill="none" instance-id="10" semantic-id="24" stroke="rgb(0,0,0)" stroke-width="0.1"/>
  <path d="M 47.342363999999975,77.75391450000006 L 41.868363999999985,81.43891450000001" fill="none" instance-id="10" semantic-id="24" stroke="rgb(0,0,0)" stroke-width="0.1"/>
  <path d="M 47.56636400000002,78.08491449999997 L 41.95336400000002,81.86391449999996" fill="none" instance-id="10" semantic-id="24" stroke="rgb(0,0,0)" stroke-width="0.1"/>
  <path d="M 35.51836400000002,79.88591450000001 L 41.95336400000002,81.86391449999996" fill="none" instance-id="10" semantic-id="24" stroke="rgb(0,0,0)" stroke-width="0.1"/>
  <path d="M 32.035364000000015,78.29391450000003 L 25.39936399999999,82.76191449999999" fill="none" stroke="rgb(0,0,0)" stroke-width="0.1"/>
  <path d="M 31.923363999999992,78.12791449999997 L 25.287364000000025,82.59591450000005" fill="none" stroke="rgb(0,0,0)" stroke-width="0.1"/>
  <path d="M 26.220364000000018,80.4009145 L 26.946364000000017,81.47891449999997" fill="none" stroke="rgb(0,0,0)" stroke-width="0.1"/>
  <path d="M 29.538364,78.16691449999996 L 30.264364,79.24491450000005" fill="none" stroke="rgb(0,0,0)" stroke-width="0.1"/>
  <path d="M 25.287364000000025,82.59591450000005 L 25.39936399999999,82.76191449999999" fill="none" stroke="rgb(0,0,0)" stroke-width="0.1"/>
  <path d="M 31.923363999999992,78.12791449999997 L 32.035364000000015,78.29391450000003" fill="none" stroke="rgb(0,0,0)" stroke-width="0.1"/>
  <path d="M 33.134364000000005,83.01491450000003 L 29.35936399999997,85.55591449999997" fill="none" instance-id="4" semantic-id="23" stroke="rgb(0,0,0)" stroke-width="0.1"/>
  <path d="M 32.592363999999975,82.83691450000003 L 29.481363999999985,84.93191450000006" fill="none" instance-id="4" semantic-id="23" stroke="rgb(0,0,0)" stroke-width="0.1"/>
  <path d="M 27.890363999999977,82.56691450000005 L 31.00036399999999,80.4729145" fill="none" instance-id="4" semantic-id="23" stroke="rgb(0,0,0)" stroke-width="0.1"/>
  <path d="M 27.321364000000017,82.52791450000007 L 31.095364000000018,79.98691450000001" fill="none" instance-id="4" semantic-id="23" stroke="rgb(0,0,0)" stroke-width="0.1"/>
  <path d="M 29.412364000000025,84.91791450000005 L 27.876364000000024,82.63691449999999" fill="none" instance-id="4" semantic-id="23" stroke="rgb(0,0,0)" stroke-width="0.1"/>
  <path d="M 31.070363999999984,80.48691450000001 L 32.606363999999985,82.76791449999996" fill="none" instance-id="4" semantic-id="23" stroke="rgb(0,0,0)" stroke-width="0.1"/>
  <path d="M 29.29036400000001,85.54291450000005 L 27.307364000000007,82.5979145" fill="none" stroke="rgb(0,0,0)" stroke-width="0.1"/>
  <path d="M 31.16536400000001,80.00091450000002 L 33.14736399999998,82.94591450000007" fill="none" instance-id="4" semantic-id="23" stroke="rgb(0,0,0)" stroke-width="0.1"/>
  <path d="M 32.096363999999994,79.69991449999998 L 32.04436399999997,79.6699145" fill="none" stroke="rgb(0,0,0)" stroke-width="0.1"/>
  <path d="M 31.83936399999999,80.03891450000003 L 32.04436399999997,79.6699145" fill="none" instance-id="4" semantic-id="23" stroke="rgb(0,0,0)" stroke-width="0.1"/>
  <path d="M 31.892363999999986,80.06791450000003 L 32.096363999999994,79.69991449999998" fill="none" instance-id="4" semantic-id="23" stroke="rgb(0,0,0)" stroke-width="0.1"/>
  <path d="M 31.107364000000018,81.09191450000003 L 31.38736399999999,81.2469145" fill="none" instance-id="4" semantic-id="23" stroke="rgb(0,0,0)" stroke-width="0.1"/>
  <path d="M 31.508363999999972,80.36791449999998 L 31.051363999999978,81.19291450000003" fill="none" instance-id="4" semantic-id="23" stroke="rgb(0,0,0)" stroke-width="0.1"/>
  <path d="M 31.788364,80.52291450000007 L 31.331364000000008,81.3479145" fill="none" instance-id="4" semantic-id="23" stroke="rgb(0,0,0)" stroke-width="0.1"/>
  <path d="M 31.051363999999978,81.19291450000003 L 31.331364000000008,81.3479145" fill="none" instance-id="4" semantic-id="23" stroke="rgb(0,0,0)" stroke-width="0.1"/>
  <path d="M 35.36936400000002,79.66591449999999 L 32.32136400000002,81.7179145" fill="none" stroke="rgb(0,0,0)" stroke-width="0.1"/>
  <path d="M 28.46436399999999,84.31491449999999 L 25.41536400000001,86.36791449999998" fill="none" stroke="rgb(0,0,0)" stroke-width="0.1"/>
  <path d="M 35.757363999999995,79.5259145 L 35.680364,79.91791450000005" fill="none" instance-id="10" semantic-id="24" stroke="rgb(0,0,0)" stroke-width="0.1"/>
  <path d="M 41.868363999999985,81.43891450000001 L 41.79136399999999,81.83191450000004" fill="none" instance-id="5" semantic-id="3" stroke="rgb(0,0,0)" stroke-width="0.1"/>
  <path d="M 27.455363999999975,56.82191450000005 A 1.33763,1.33763 0.0 0,0 25.961364000000003,54.627914499999974" fill="none" instance-id="8" semantic-id="29" stroke="rgb(0,0,0)" stroke-width="0.1"/>
  <path d="M 30.309364000000016,55.31791450000003 A 0.05,0.05 0.0 0,0 30.37936400000001,55.33091450000006" fill="none" stroke="rgb(0,0,0)" stroke-width="0.1"/>
  <path d="M 30.25436400000001,55.41491450000001 A 0.05,0.05 0.0 0,0 30.26836400000002,55.34591450000005" fill="none" stroke="rgb(0,0,0)" stroke-width="0.1"/>
  <path d="M 28.45236399999999,52.46891449999998 A 0.05,0.05 0.0 0,0 28.43836399999998,52.53891450000003" fill="none" stroke="rgb(0,0,0)" stroke-width="0.1"/>
  <path d="M 28.397363999999982,52.56691450000005 A 0.05,0.05 0.0 0,0 28.32736399999999,52.55291450000004" fill="none" stroke="rgb(0,0,0)" stroke-width="0.1"/>
  <path d="M 25.169363999999973,55.16091449999999 A 1.33763,1.33763 0.0 0,0 26.639364,57.370914500000026" fill="none" instance-id="8" semantic-id="29" stroke="rgb(0,0,0)" stroke-width="0.1"/>
  <path d="M 24.889364,54.86791449999998 A 1.74077,1.74077 0.0 0,0 26.81636400000002,57.72991450000006" fill="none" instance-id="8" semantic-id="29" stroke="rgb(0,0,0)" stroke-width="0.1"/>
  <path d="M 23.008363999999972,67.88491450000004 A 0.05,0.05 0.0 0,0 22.939364000000012,67.87091450000003" fill="none" stroke="rgb(0,0,0)" stroke-width="0.1"/>
  <path d="M 19.164363999999978,70.41191449999997 A 0.05,0.05 0.0 0,0 19.151364,70.48191450000002" fill="none" stroke="rgb(0,0,0)" stroke-width="0.1"/>
  <path d="M 22.969363999999985,68.4539145 A 0.05,0.05 0.0 0,0 22.900364000000025,68.43991449999999" fill="none" stroke="rgb(0,0,0)" stroke-width="0.1"/>
  <path d="M 19.789363999999978,70.53391450000004 A 0.05,0.05 0.0 0,0 19.775364000000025,70.60391449999997" fill="none" stroke="rgb(0,0,0)" stroke-width="0.1"/>
  <path d="M 24.977364000000023,70.89891450000005 A 0.05,0.05 0.0 0,0 24.991363999999976,70.82991449999997" fill="none" stroke="rgb(0,0,0)" stroke-width="0.1"/>
  <path d="M 24.491363999999976,70.80391450000002 A 0.05,0.05 0.0 0,0 24.505363999999986,70.73491450000006" fill="none" stroke="rgb(0,0,0)" stroke-width="0.1"/>
  <path d="M 21.31136399999997,72.88491450000004 A 0.05,0.05 0.0 0,0 21.380363999999986,72.89891450000005" fill="none" stroke="rgb(0,0,0)" stroke-width="0.1"/>
  <path d="M 21.133363999999972,73.42691450000007 A 0.05,0.05 0.0 0,0 21.203364000000022,73.43991449999999" fill="none" stroke="rgb(0,0,0)" stroke-width="0.1"/>
  <path d="M 23.356363999999985,64.35891449999997 A 9.21956,9.21956 0.0 0,0 26.76636400000001,66.67691450000007" fill="none" instance-id="6" semantic-id="3" stroke="rgb(0,0,0)" stroke-width="0.1"/>
  <path d="M 46.54136399999999,85.19791450000002 A 1.33763,1.33763 0.0 0,0 45.07136400000002,82.98791449999999" fill="none" instance-id="3" semantic-id="29" stroke="rgb(0,0,0)" stroke-width="0.1"/>
  <path d="M 47.55236400000001,80.83991449999996 A 0.05,0.05 0.0 0,0 47.538364,80.90891450000004" fill="none" stroke="rgb(0,0,0)" stroke-width="0.1"/>
  <path d="M 47.497364000000005,80.93691450000006 A 0.05,0.05 0.0 0,0 47.42736400000001,80.92391450000002" fill="none" stroke="rgb(0,0,0)" stroke-width="0.1"/>
  <path d="M 49.40936399999998,83.68791450000003 A 0.05,0.05 0.0 0,0 49.478364,83.70191450000004" fill="none" stroke="rgb(0,0,0)" stroke-width="0.1"/>
  <path d="M 49.354363999999975,83.78591449999999 A 0.05,0.05 0.0 0,0 49.36736400000001,83.71591450000005" fill="none" stroke="rgb(0,0,0)" stroke-width="0.1"/>
  <path d="M 44.255363999999986,83.53691449999997 A 1.33763,1.33763 0.0 0,0 45.749364000000014,85.72991450000006" fill="none" instance-id="3" semantic-id="29" stroke="rgb(0,0,0)" stroke-width="0.1"/>
  <path d="M 43.98936400000002,83.23891449999996 A 1.74077,1.74077 0.0 0,0 45.91636399999999,86.09991450000007" fill="none" instance-id="3" semantic-id="29" stroke="rgb(0,0,0)" stroke-width="0.1"/>
  <path d="M 33.134364000000005,83.01491450000003 A 0.05,0.05 0.0 0,0 33.14736399999998,82.94591450000007" fill="none" stroke="rgb(0,0,0)" stroke-width="0.1"/>
  <path d="M 29.29036400000001,85.54291450000005 A 0.05,0.05 0.0 0,0 29.35936399999997,85.55591449999997" fill="none" stroke="rgb(0,0,0)" stroke-width="0.1"/>
  <path d="M 32.592363999999975,82.83691450000003 A 0.05,0.05 0.0 0,0 32.606363999999985,82.76791449999996" fill="none" stroke="rgb(0,0,0)" stroke-width="0.1"/>
  <path d="M 29.412364000000025,84.91791450000005 A 0.05,0.05 0.0 0,0 29.481363999999985,84.93191450000006" fill="none" stroke="rgb(0,0,0)" stroke-width="0.1"/>
  <path d="M 31.16536400000001,80.00091450000002 A 0.05,0.05 0.0 0,0 31.095364000000018,79.98691450000001" fill="none" stroke="rgb(0,0,0)" stroke-width="0.1"/>
  <path d="M 31.070363999999984,80.48691450000001 A 0.05,0.05 0.0 0,0 31.00036399999999,80.4729145" fill="none" stroke="rgb(0,0,0)" stroke-width="0.1"/>
  <path d="M 27.890363999999977,82.56691450000005 A 0.05,0.05 0.0 0,0 27.876364000000024,82.63691449999999" fill="none" stroke="rgb(0,0,0)" stroke-width="0.1"/>
  <path d="M 27.321364000000017,82.52791450000007 A 0.05,0.05 0.0 0,0 27.307364000000007,82.5979145" fill="none" stroke="rgb(0,0,0)" stroke-width="0.1"/>
  <path d="M 35.680364,79.91791450000005 A 9.21956,9.21956 0.0 0,0 36.545364000000006,83.94991449999998" fill="none" instance-id="5" semantic-id="3" stroke="rgb(0,0,0)" stroke-width="0.1"/>
  <path d="M 27.29236400000002,60.29591449999998 L 27.06636400000002,60.09891449999998" fill="none" stroke="rgb(0,0,0)" stroke-width="0.1"/>
  <path d="M 27.06636400000002,60.09891449999998 L 23.35136399999999,64.36491450000005" fill="none" stroke="rgb(0,0,0)" stroke-width="0.1"/>
  <path d="M 23.35136399999999,64.36491450000005 L 23.57736399999999,64.56191450000006" fill="none" stroke="rgb(0,0,0)" stroke-width="0.1"/>
  <path d="M 23.57736399999999,64.56191450000006 L 27.29236400000002,60.29591449999998" fill="none" instance-id="6" semantic-id="3" stroke="rgb(0,0,0)" stroke-width="0.1"/>
  <path d="M 41.79136399999999,81.83191450000004 L 41.888364000000024,82.11591450000003" fill="none" instance-id="5" semantic-id="3" stroke="rgb(0,0,0)" stroke-width="0.1"/>
  <path d="M 41.888364000000024,82.11591450000003 L 36.538364,83.95291450000002" fill="none" instance-id="5" semantic-id="3" stroke="rgb(0,0,0)" stroke-width="0.1"/>
  <path d="M 36.538364,83.95291450000002 L 36.44136400000002,83.66891450000003" fill="none" instance-id="5" semantic-id="3" stroke="rgb(0,0,0)" stroke-width="0.1"/>
  <path d="M 36.44136400000002,83.66891450000003 L 41.79136399999999,81.83191450000004" fill="none" instance-id="5" semantic-id="3" stroke="rgb(0,0,0)" stroke-width="0.1"/>
  <circle cx="34.973364000000004" cy="63.33091450000006" fill="none" instance-id="9" r="0.3" semantic-id="24" stroke="rgb(0,0,0)" stroke-width="0.1"/>
  <circle cx="22.36136399999998" cy="70.9969145" fill="none" instance-id="7" r="0.2" semantic-id="23" stroke="rgb(0,0,0)" stroke-width="0.1"/>
  <circle cx="24.967363999999975" cy="70.18891450000001" fill="none" instance-id="7" r="0.24" semantic-id="23" stroke="rgb(0,0,0)" stroke-width="0.1"/>
  <circle cx="24.967363999999975" cy="70.18891450000001" fill="none" instance-id="7" r="0.24" semantic-id="23" stroke="rgb(0,0,0)" stroke-width="0.1"/>
  <circle cx="24.967363999999975" cy="70.18891450000001" fill="none" instance-id="7" r="0.24" semantic-id="23" stroke="rgb(0,0,0)" stroke-width="0.1"/>
  <circle cx="41.868363999999985" cy="73.57291450000002" fill="none" instance-id="10" r="0.3" semantic-id="24" stroke="rgb(0,0,0)" stroke-width="0.1"/>
  <circle cx="30.020363999999972" cy="82.37491450000005" fill="none" instance-id="4" r="0.2" semantic-id="23" stroke="rgb(0,0,0)" stroke-width="0.1"/>
  <circle cx="31.749364000000014" cy="80.26391450000006" fill="none" instance-id="4" r="0.24" semantic-id="23" stroke="rgb(0,0,0)" stroke-width="0.1"/>
  <circle cx="31.749364000000014" cy="80.26391450000006" fill="none" instance-id="4" r="0.24" semantic-id="23" stroke="rgb(0,0,0)" stroke-width="0.1"/>
  <circle cx="31.749364000000014" cy="80.26391450000006" fill="none" instance-id="4" r="0.24" semantic-id="23" stroke="rgb(0,0,0)" stroke-width="0.1"/>
 </g>
 <g id="layerM-INFO-ROOM-JZTZ" inkscape:groupmode="layer" inkscape:label="M-INFO-ROOM-JZTZ">
  <path d="M 31.10936399999997,75.66491450000001 L 30.965364000000022,72.5209145" fill="none" stroke="rgb(178,0,0)" stroke-width="0.1"/>
  <path d="M 30.965364000000022,72.5209145 L 39.14336400000002,65.6749145" fill="none" stroke="rgb(178,0,0)" stroke-width="0.1"/>
 </g>
 <g id="layerPUB_HATCH" inkscape:groupmode="layer" inkscape:label="PUB_HATCH">
  <path d="M 2.691363999999993,10.534914500000014 L 0.0,6.537390679083046" fill="none" stroke="rgb(63,63,63)" stroke-width="0.1"/>
  <path d="M 0.0,12.346843646315733 L 2.691363999999993,10.534914500000014" fill="none" stroke="rgb(63,63,63)" stroke-width="0.1"/>
 </g>
 <g id="layerS-WALL-LINE" inkscape:groupmode="layer" inkscape:label="S-WALL-LINE">
  <path d="M 0.0,6.537390679083046 L 2.691363999999993,10.534914500000014" fill="none" stroke="rgb(178,178,0)" stroke-width="0.1"/>
  <path d="M 2.691363999999993,10.534914500000014 L 0.0,12.346843646315733" fill="none" stroke="rgb(178,178,0)" stroke-width="0.1"/>
 </g>
 <g id="layerS-XF-LG" inkscape:groupmode="layer" inkscape:label="S-XF-LG">
  <circle cx="39.42736400000001" cy="68.85991450000006" fill="none" r="0.6" stroke="rgb(178,88,0)" stroke-width="0.1"/>
  <circle cx="68.66636399999999" cy="58.93091449999997" fill="none" r="0.6" stroke="rgb(178,88,0)" stroke-width="0.1"/>
 </g>
 <g id="layerWALL" inkscape:groupmode="layer" inkscape:label="WALL">
  <path d="M 88.84192247375785,100.0 L 21.51645248156194,0.0" fill="none" instance-id="-1" semantic-id="1" stroke="rgb(178,178,0)" stroke-width="0.1"/>
  <path d="M 91.25294797357066,100.0 L 23.927477981374807,0.0" fill="none" instance-id="-1" semantic-id="1" stroke="rgb(178,178,0)" stroke-width="0.1"/>
  <path d="M 27.54417076364774,0.0 L 94.86943344066924,100.0" fill="none" instance-id="-1" semantic-id="1" stroke="rgb(178,178,0)" stroke-width="0.1"/>
  <path d="M 25.133147579545437,0.0 L 92.45841025656688,100.0" fill="none" instance-id="-1" semantic-id="1" stroke="rgb(178,178,0)" stroke-width="0.1"/>
  <path d="M 19.014364,32.09391449999998 L 15.384364000000005,26.701914500000044" fill="none" instance-id="-1" semantic-id="1" stroke="rgb(178,178,0)" stroke-width="0.1"/>
  <path d="M 15.384364000000005,26.701914500000044 L 13.725364000000013,27.818914500000005" fill="none" instance-id="-1" semantic-id="1" stroke="rgb(178,178,0)" stroke-width="0.1"/>
  <path d="M 13.725364000000013,27.818914500000005 L 16.23836399999999,31.551914500000066" fill="none" instance-id="-1" semantic-id="1" stroke="rgb(178,178,0)" stroke-width="0.1"/>
  <path d="M 0.6013639999999896,8.325914500000067 L 2.5553639999999973,11.228914499999973" fill="none" instance-id="-1" semantic-id="1" stroke="rgb(178,178,0)" stroke-width="0.1"/>
  <path d="M 2.5553639999999973,11.228914499999973 L 4.214363999999989,10.111914500000012" fill="none" instance-id="-1" semantic-id="1" stroke="rgb(178,178,0)" stroke-width="0.1"/>
  <path d="M 4.214363999999989,10.111914500000012 L 2.26036400000001,7.208914499999992" fill="none" instance-id="-1" semantic-id="1" stroke="rgb(178,178,0)" stroke-width="0.1"/>
  <path d="M 2.26036400000001,7.208914499999992 L 0.6013639999999896,8.325914500000067" fill="none" instance-id="-1" semantic-id="1" stroke="rgb(178,178,0)" stroke-width="0.1"/>
  <path d="M 12.091363999999999,34.34391449999998 L 16.23836399999999,31.551914500000066" fill="none" instance-id="-1" semantic-id="1" stroke="rgb(178,178,0)" stroke-width="0.1"/>
  <path d="M 14.037364000000025,35.44491449999998 L 19.014364,32.09391449999998" fill="none" instance-id="-1" semantic-id="1" stroke="rgb(178,178,0)" stroke-width="0.1"/>
  <path d="M 5.578364000000022,4.975914500000044 L 1.431364000000002,7.767914499999961" fill="none" instance-id="-1" semantic-id="1" stroke="rgb(178,178,0)" stroke-width="0.1"/>
  <path d="M 2.802363999999983,4.433914500000014 L 0.31436399999998343,6.108914499999969" fill="none" instance-id="-1" semantic-id="1" stroke="rgb(178,178,0)" stroke-width="0.1"/>
  <path d="M 1.431364000000002,7.767914499999961 L 0.31436399999998343,6.108914499999969" fill="none" instance-id="-1" semantic-id="1" stroke="rgb(178,178,0)" stroke-width="0.1"/>
  <path d="M 27.965364000000022,48.96991449999996 L 23.817363999999998,51.762914499999965" fill="none" instance-id="-1" semantic-id="1" stroke="rgb(178,178,0)" stroke-width="0.1"/>
  <path d="M 29.065363999999988,47.023914500000046 L 24.088364000000013,50.374914500000045" fill="none" instance-id="-1" semantic-id="1" stroke="rgb(178,178,0)" stroke-width="0.1"/>
  <path d="M 12.377364,36.55991449999999 L 16.286363999999992,42.36691450000001" fill="none" instance-id="-1" semantic-id="1" stroke="rgb(178,178,0)" stroke-width="0.1"/>
  <path d="M 16.286363999999992,42.36691450000001 L 17.945363999999984,41.249914500000045" fill="none" instance-id="-1" semantic-id="1" stroke="rgb(178,178,0)" stroke-width="0.1"/>
  <path d="M 17.945363999999984,41.249914500000045 L 14.037364000000025,35.44491449999998" fill="none" instance-id="-1" semantic-id="1" stroke="rgb(178,178,0)" stroke-width="0.1"/>
  <path d="M 24.088364000000013,50.374914500000045 L 23.53036400000002,49.544914500000004" fill="none" instance-id="-1" semantic-id="1" stroke="rgb(178,178,0)" stroke-width="0.1"/>
  <path d="M 23.53036400000002,49.544914500000004 L 21.87136399999997,50.661914499999966" fill="none" instance-id="-1" semantic-id="1" stroke="rgb(178,178,0)" stroke-width="0.1"/>
  <path d="M 21.87136399999997,50.661914499999966 L 22.42936400000002,51.49191450000001" fill="none" instance-id="-1" semantic-id="1" stroke="rgb(178,178,0)" stroke-width="0.1"/>
  <path d="M 12.377364,36.55991449999999 L 0.0,44.89247301778971" fill="none" instance-id="-1" semantic-id="1" stroke="rgb(178,178,0)" stroke-width="0.1"/>
  <path d="M 12.08936399999999,34.34191450000003 L 0.0,42.48085112016622" fill="none" instance-id="-1" semantic-id="1" stroke="rgb(178,178,0)" stroke-width="0.1"/>
  <path d="M 8.886364000000015,61.814914499999986 L 19.440363999999988,77.49291449999998" fill="none" instance-id="-1" semantic-id="1" stroke="rgb(178,178,0)" stroke-width="0.1"/>
  <path d="M 7.498363999999981,61.54391450000003 L 18.946364000000017,78.54891450000002" fill="none" instance-id="-1" semantic-id="1" stroke="rgb(178,178,0)" stroke-width="0.1"/>
  <path d="M 29.065363999999988,47.023914500000046 L 40.514364,64.02891450000004" fill="none" instance-id="-1" semantic-id="1" stroke="rgb(178,178,0)" stroke-width="0.1"/>
  <path d="M 27.965364000000022,48.96991449999996 L 38.52036399999997,64.64791450000007" fill="none" instance-id="-1" semantic-id="1" stroke="rgb(178,178,0)" stroke-width="0.1"/>
  <path d="M 22.42936400000002,51.49191450000001 L 16.622364000000005,55.4009145" fill="none" instance-id="-1" semantic-id="1" stroke="rgb(178,178,0)" stroke-width="0.1"/>
  <path d="M 16.622364000000005,55.4009145 L 17.181363999999974,56.22991450000006" fill="none" instance-id="-1" semantic-id="1" stroke="rgb(178,178,0)" stroke-width="0.1"/>
  <path d="M 17.181363999999974,56.22991450000006 L 23.817363999999998,51.762914499999965" fill="none" instance-id="-1" semantic-id="1" stroke="rgb(178,178,0)" stroke-width="0.1"/>
  <path d="M 8.886364000000015,61.814914499999986 L 9.715364000000022,61.25591450000002" fill="none" instance-id="-1" semantic-id="1" stroke="rgb(178,178,0)" stroke-width="0.1"/>
  <path d="M 9.715364000000022,61.25591450000002 L 9.157363999999973,60.426914500000066" fill="none" instance-id="-1" semantic-id="1" stroke="rgb(178,178,0)" stroke-width="0.1"/>
  <path d="M 9.157363999999973,60.426914500000066 L 7.498363999999981,61.54391450000003" fill="none" instance-id="-1" semantic-id="1" stroke="rgb(178,178,0)" stroke-width="0.1"/>
  <path d="M 41.98236400000002,69.79191449999996 L 31.281363999999996,76.99591450000003" fill="none" instance-id="-1" semantic-id="1" stroke="rgb(178,178,0)" stroke-width="0.1"/>
  <path d="M 41.312364,68.79591449999998 L 31.10936399999997,75.66491450000001" fill="none" instance-id="-1" semantic-id="1" stroke="rgb(178,178,0)" stroke-width="0.1"/>
  <path d="M 54.755363999999986,85.18191450000006 L 49.77736399999998,88.53291450000006" fill="none" instance-id="-1" semantic-id="1" stroke="rgb(178,178,0)" stroke-width="0.1"/>
  <path d="M 52.537364000000025,85.46991449999996 L 48.389364,88.26191449999999" fill="none" instance-id="-1" semantic-id="1" stroke="rgb(178,178,0)" stroke-width="0.1"/>
  <path d="M 57.49728353194695,100.0 L 55.920364000000006,97.65791450000006" fill="none" instance-id="-1" semantic-id="1" stroke="rgb(178,178,0)" stroke-width="0.1"/>
  <path d="M 55.920364000000006,97.65791450000006 L 54.261364000000015,98.77491450000002" fill="none" instance-id="-1" semantic-id="1" stroke="rgb(178,178,0)" stroke-width="0.1"/>
  <path d="M 54.261364000000015,98.77491450000002 L 55.08618031027055,100.0" fill="none" instance-id="-1" semantic-id="1" stroke="rgb(178,178,0)" stroke-width="0.1"/>
  <path d="M 48.118363999999985,89.64991450000002 L 48.67736400000001,90.47991450000006" fill="none" instance-id="-1" semantic-id="1" stroke="rgb(178,178,0)" stroke-width="0.1"/>
  <path d="M 48.67736400000001,90.47991450000006 L 50.336364,89.36291449999999" fill="none" instance-id="-1" semantic-id="1" stroke="rgb(178,178,0)" stroke-width="0.1"/>
  <path d="M 50.336364,89.36291449999999 L 49.77736399999998,88.53291450000006" fill="none" instance-id="-1" semantic-id="1" stroke="rgb(178,178,0)" stroke-width="0.1"/>
  <path d="M 30.11336399999999,76.33491449999997 L 28.86936400000002,77.17291450000005" fill="none" instance-id="-1" semantic-id="1" stroke="rgb(178,178,0)" stroke-width="0.1"/>
  <path d="M 28.86936400000002,77.17291450000005 L 29.539363999999978,78.16791450000005" fill="none" instance-id="-1" semantic-id="1" stroke="rgb(178,178,0)" stroke-width="0.1"/>
  <path d="M 29.539363999999978,78.16791450000005 L 31.281363999999996,76.99591450000003" fill="none" instance-id="-1" semantic-id="1" stroke="rgb(178,178,0)" stroke-width="0.1"/>
  <path d="M 22.90336400000001,82.63591450000001 L 26.221363999999994,80.40191449999998" fill="none" instance-id="-1" semantic-id="1" stroke="rgb(178,178,0)" stroke-width="0.1"/>
  <path d="M 26.221363999999994,80.40191449999998 L 25.551363999999978,79.40691449999997" fill="none" instance-id="-1" semantic-id="1" stroke="rgb(178,178,0)" stroke-width="0.1"/>
  <path d="M 25.551363999999978,79.40691449999997 L 22.233363999999995,81.64091450000001" fill="none" instance-id="-1" semantic-id="1" stroke="rgb(178,178,0)" stroke-width="0.1"/>
  <path d="M 20.901364,81.45291450000002 L 0.0,95.52340143597644" fill="none" instance-id="-1" semantic-id="1" stroke="rgb(178,178,0)" stroke-width="0.1"/>
  <path d="M 19.784363999999982,79.79391450000003 L 0.0,93.11245367278332" fill="none" instance-id="-1" semantic-id="1" stroke="rgb(178,178,0)" stroke-width="0.1"/>
  <path d="M 19.784363999999982,79.79391450000003 L 18.946364000000017,78.54891450000002" fill="none" instance-id="-1" semantic-id="1" stroke="rgb(178,178,0)" stroke-width="0.1"/>
  <path d="M 21.172364000000016,80.06491449999999 L 20.11136399999998,78.48791449999999" fill="none" instance-id="-1" semantic-id="1" stroke="rgb(178,178,0)" stroke-width="0.1"/>
  <path d="M 39.19036399999999,65.64391450000005 L 28.987364000000014,72.51291449999997" fill="none" instance-id="-1" semantic-id="1" stroke="rgb(178,178,0)" stroke-width="0.1"/>
  <path d="M 38.52036399999997,64.64791450000007 L 27.819364000000007,71.8529145" fill="none" instance-id="-1" semantic-id="1" stroke="rgb(178,178,0)" stroke-width="0.1"/>
  <path d="M 27.819364000000007,71.8529145 L 26.07736399999999,73.02491450000002" fill="none" instance-id="-1" semantic-id="1" stroke="rgb(178,178,0)" stroke-width="0.1"/>
  <path d="M 26.07736399999999,73.02491450000002 L 26.747364000000005,74.0209145" fill="none" instance-id="-1" semantic-id="1" stroke="rgb(178,178,0)" stroke-width="0.1"/>
  <path d="M 26.747364000000005,74.0209145 L 27.991363999999976,73.18291450000004" fill="none" instance-id="-1" semantic-id="1" stroke="rgb(178,178,0)" stroke-width="0.1"/>
  <path d="M 20.11136399999998,78.48791449999999 L 23.42936400000002,76.25491450000004" fill="none" instance-id="-1" semantic-id="1" stroke="rgb(178,178,0)" stroke-width="0.1"/>
  <path d="M 23.42936400000002,76.25491450000004 L 22.759364000000005,75.25891450000006" fill="none" instance-id="-1" semantic-id="1" stroke="rgb(178,178,0)" stroke-width="0.1"/>
  <path d="M 22.759364000000005,75.25891450000006 L 19.440363999999988,77.49291449999998" fill="none" instance-id="-1" semantic-id="1" stroke="rgb(178,178,0)" stroke-width="0.1"/>
  <path d="M 30.11336399999999,76.33491449999997 L 27.991363999999976,73.18291450000004" fill="none" instance-id="-1" semantic-id="1" stroke="rgb(178,178,0)" stroke-width="0.1"/>
  <path d="M 31.10936399999997,75.66491450000001 L 28.987364000000014,72.51291449999997" fill="none" instance-id="-1" semantic-id="1" stroke="rgb(178,178,0)" stroke-width="0.1"/>
  <path d="M 21.73836399999999,82.69691450000005 L 20.901364,81.45291450000002" fill="none" instance-id="-1" semantic-id="1" stroke="rgb(178,178,0)" stroke-width="0.1"/>
  <path d="M 22.233363999999995,81.64091450000001 L 21.172364000000016,80.06491449999999" fill="none" instance-id="-1" semantic-id="1" stroke="rgb(178,178,0)" stroke-width="0.1"/>
  <path d="M 41.312364,68.79591449999998 L 39.19036399999999,65.64391450000005" fill="none" instance-id="-1" semantic-id="1" stroke="rgb(178,178,0)" stroke-width="0.1"/>
  <path d="M 43.306363999999974,68.17691450000007 L 40.514364,64.02891450000004" fill="none" instance-id="-1" semantic-id="1" stroke="rgb(178,178,0)" stroke-width="0.1"/>
  <path d="M 33.187364,99.70191450000004 L 21.73836399999999,82.69691450000005" fill="none" instance-id="-1" semantic-id="1" stroke="rgb(178,178,0)" stroke-width="0.1"/>
  <path d="M 33.45836400000002,98.31391450000001 L 22.90336400000001,82.63591450000001" fill="none" instance-id="-1" semantic-id="1" stroke="rgb(178,178,0)" stroke-width="0.1"/>
  <path d="M 52.537364000000025,85.46991449999996 L 41.98236400000002,69.79191449999996" fill="none" instance-id="-1" semantic-id="1" stroke="rgb(178,178,0)" stroke-width="0.1"/>
  <path d="M 54.755363999999986,85.18191450000006 L 43.306363999999974,68.17691450000007" fill="none" instance-id="-1" semantic-id="1" stroke="rgb(178,178,0)" stroke-width="0.1"/>
  <path d="M 48.389364,88.26191449999999 L 41.753363999999976,92.72991450000006" fill="none" instance-id="-1" semantic-id="1" stroke="rgb(178,178,0)" stroke-width="0.1"/>
  <path d="M 41.753363999999976,92.72991450000006 L 42.312364,93.55891450000001" fill="none" instance-id="-1" semantic-id="1" stroke="rgb(178,178,0)" stroke-width="0.1"/>
  <path d="M 42.312364,93.55891450000001 L 48.118363999999985,89.64991450000002" fill="none" instance-id="-1" semantic-id="1" stroke="rgb(178,178,0)" stroke-width="0.1"/>
  <path d="M 33.187364,99.70191450000004 L 34.846363999999994,98.58491449999997" fill="none" instance-id="-1" semantic-id="1" stroke="rgb(178,178,0)" stroke-width="0.1"/>
  <path d="M 34.846363999999994,98.58491449999997 L 34.287364000000025,97.75591450000002" fill="none" instance-id="-1" semantic-id="1" stroke="rgb(178,178,0)" stroke-width="0.1"/>
  <path d="M 34.287364000000025,97.75591450000002 L 33.45836400000002,98.31391450000001" fill="none" instance-id="-1" semantic-id="1" stroke="rgb(178,178,0)" stroke-width="0.1"/>
  <path d="M 5.578364000000022,4.975914500000044 L 2.228599650745821,0.0" fill="none" instance-id="-1" semantic-id="1" stroke="rgb(178,178,0)" stroke-width="0.1"/>
  <path d="M 0.0,0.27009165428228243 L 2.802363999999983,4.433914500000014" fill="none" instance-id="-1" semantic-id="1" stroke="rgb(178,178,0)" stroke-width="0.1"/>
 </g>
 <g id="layerWINDOW" inkscape:groupmode="layer" inkscape:label="WINDOW">
  <path d="M 23.42936400000002,76.25491450000004 L 26.747364000000005,74.0209145" fill="none" stroke="rgb(0,178,0)" stroke-width="0.1"/>
  <path d="M 26.07736399999999,73.02491450000002 L 22.759364000000005,75.25891450000006" fill="none" stroke="rgb(0,178,0)" stroke-width="0.1"/>
  <path d="M 26.221363999999994,80.40191449999998 L 29.539363999999978,78.16791450000005" fill="none" stroke="rgb(0,178,0)" stroke-width="0.1"/>
  <path d="M 28.86936400000002,77.17291450000005 L 25.551363999999978,79.40691449999997" fill="none" stroke="rgb(0,178,0)" stroke-width="0.1"/>
  <path d="M 9.307364000000007,47.66791450000005 L 9.02836400000001,47.252914499999974" fill="none" instance-id="11" semantic-id="3" stroke="rgb(0,178,0)" stroke-width="0.1"/>
  <path d="M 17.116363999999976,41.80791450000004 L 17.395363999999972,42.2229145" fill="none" instance-id="11" semantic-id="3" stroke="rgb(0,178,0)" stroke-width="0.1"/>
  <path d="M 17.116363999999976,41.80791450000004 L 9.02836400000001,47.252914499999974" fill="none" instance-id="11" semantic-id="3" stroke="rgb(0,178,0)" stroke-width="0.1"/>
  <path d="M 17.395363999999972,42.2229145 L 9.307364000000007,47.66791450000005" fill="none" instance-id="11" semantic-id="3" stroke="rgb(0,178,0)" stroke-width="0.1"/>
  <path d="M 55.091364,98.21591450000005 L 54.812364,97.80191450000007" fill="none" instance-id="14" semantic-id="3" stroke="rgb(0,178,0)" stroke-width="0.1"/>
  <path d="M 55.091364,98.21591450000005 L 52.44128438126728,100.0" fill="none" instance-id="14" semantic-id="3" stroke="rgb(0,178,0)" stroke-width="0.1"/>
  <path d="M 54.812364,97.80191450000007 L 51.54732900936642,100.0" fill="none" instance-id="14" semantic-id="3" stroke="rgb(0,178,0)" stroke-width="0.1"/>
  <path d="M 9.436363999999969,60.84191450000003 L 17.522363999999982,64.79391450000003" fill="none" instance-id="12" semantic-id="3" stroke="rgb(0,178,0)" stroke-width="0.1"/>
  <path d="M 34.567364,98.17091449999998 L 33.94736399999999,89.19191450000005" fill="none" instance-id="13" semantic-id="3" stroke="rgb(0,178,0)" stroke-width="0.1"/>
  <path d="M 9.310363999999993,47.665914499999985 A 9.75,9.75 0.0 0,0 22.70036399999998,50.10391449999997" fill="none" instance-id="11" semantic-id="3" stroke="rgb(0,178,0)" stroke-width="0.1"/>
  <path d="M 49.50636400000002,89.92091449999998 L 49.097182466258005,90.21195861996603" fill="none" instance-id="14" semantic-id="3" stroke="rgb(0,178,0)" stroke-width="0.1"/>
  <path d="M 49.097182466258005,90.21195861996603 L 48.70352757359416,90.52368290969025" fill="none" instance-id="14" semantic-id="3" stroke="rgb(0,178,0)" stroke-width="0.1"/>
  <path d="M 48.70352757359416,90.52368290969025 L 48.326443420907935,90.85526057648201" fill="none" instance-id="14" semantic-id="3" stroke="rgb(0,178,0)" stroke-width="0.1"/>
  <path d="M 48.326443420907935,90.85526057648201 L 47.966930156187175,91.20581217013421" fill="none" instance-id="14" semantic-id="3" stroke="rgb(0,178,0)" stroke-width="0.1"/>
  <path d="M 47.966930156187175,91.20581217013421 L 47.6259413237953,91.57440791550607" fill="none" instance-id="14" semantic-id="3" stroke="rgb(0,178,0)" stroke-width="0.1"/>
  <path d="M 47.6259413237953,91.57440791550607 L 47.3043813353662,91.96007017858574" fill="none" instance-id="14" semantic-id="3" stroke="rgb(0,178,0)" stroke-width="0.1"/>
  <path d="M 47.3043813353662,91.96007017858574 L 47.00310307101455,92.36177605948797" fill="none" instance-id="14" semantic-id="3" stroke="rgb(0,178,0)" stroke-width="0.1"/>
  <path d="M 47.00310307101455,92.36177605948797 L 46.7229056172248,92.7784601055132" fill="none" instance-id="14" semantic-id="3" stroke="rgb(0,178,0)" stroke-width="0.1"/>
  <path d="M 46.7229056172248,92.7784601055132 L 46.46453214741757,93.20901713706883" fill="none" instance-id="14" semantic-id="3" stroke="rgb(0,178,0)" stroke-width="0.1"/>
  <path d="M 46.46453214741757,93.20901713706883 L 46.22866795081569,93.65230517895986" fill="none" instance-id="14" semantic-id="3" stroke="rgb(0,178,0)" stroke-width="0.1"/>
  <path d="M 46.22866795081569,93.65230517895986 L 46.01593861483775,94.10714848927296" fill="none" instance-id="14" semantic-id="3" stroke="rgb(0,178,0)" stroke-width="0.1"/>
  <path d="M 46.01593861483775,94.10714848927296 L 45.8269083658397,94.57234067782088" fill="none" instance-id="14" semantic-id="3" stroke="rgb(0,178,0)" stroke-width="0.1"/>
  <path d="M 45.8269083658397,94.57234067782088 L 45.66207857260571,95.04664790587526" fill="none" instance-id="14" semantic-id="3" stroke="rgb(0,178,0)" stroke-width="0.1"/>
  <path d="M 45.66207857260571,95.04664790587526 L 45.52188641655766,95.52881215870286" fill="none" instance-id="14" semantic-id="3" stroke="rgb(0,178,0)" stroke-width="0.1"/>
  <path d="M 45.52188641655766,95.52881215870286 L 45.40670373221002,96.0175545822234" fill="none" instance-id="14" semantic-id="3" stroke="rgb(0,178,0)" stroke-width="0.1"/>
  <path d="M 45.40670373221002,96.0175545822234 L 45.31683602094529,96.51157887494014" fill="none" instance-id="14" semantic-id="3" stroke="rgb(0,178,0)" stroke-width="0.1"/>
  <path d="M 45.31683602094529,96.51157887494014 L 45.252521640726684,97.0095747261471" fill="none" instance-id="14" semantic-id="3" stroke="rgb(0,178,0)" stroke-width="0.1"/>
  <path d="M 45.252521640726684,97.0095747261471 L 45.21393117389647,97.51022129129262" fill="none" instance-id="14" semantic-id="3" stroke="rgb(0,178,0)" stroke-width="0.1"/>
  <path d="M 45.21393117389647,97.51022129129262 L 45.20116697473668,98.01219069528258" fill="none" instance-id="14" semantic-id="3" stroke="rgb(0,178,0)" stroke-width="0.1"/>
  <path d="M 45.20116697473668,98.01219069528258 L 45.21426289799314,98.51415155443021" fill="none" instance-id="14" semantic-id="3" stroke="rgb(0,178,0)" stroke-width="0.1"/>
  <path d="M 45.21426289799314,98.51415155443021 L 45.253184209081496,99.01477250771268" fill="none" instance-id="14" semantic-id="3" stroke="rgb(0,178,0)" stroke-width="0.1"/>
  <path d="M 45.253184209081496,99.01477250771268 L 45.31782767621462,99.51272574796644" fill="none" instance-id="14" semantic-id="3" stroke="rgb(0,178,0)" stroke-width="0.1"/>
  <path d="M 17.522363999999982,64.79391450000003 A 9.0,9.0 0.0 0,0 16.902363999999977,55.81591449999996" fill="none" instance-id="12" semantic-id="3" stroke="rgb(0,178,0)" stroke-width="0.1"/>
  <path d="M 42.03236399999997,93.14391450000005 A 9.0,9.0 0.0 0,0 33.94736399999999,89.19191450000005" fill="none" instance-id="13" semantic-id="3" stroke="rgb(0,178,0)" stroke-width="0.1"/>
 </g>
 <g id="layerWINDOW_TEXT" inkscape:groupmode="layer" inkscape:label="WINDOW_TEXT">
  <text fill="rgb(178,0,178)" font-family="Noto Sans CJK SC" font-size="2" transform="rotate(-303.949,16.81636400000002,35.933914500000014)" x="16.81636400000002" y="35.933914500000014">
   M1023
  </text>
  <text fill="rgb(178,0,178)" font-family="Noto Sans CJK SC" font-size="2" transform="rotate(-303.949,51.50636400000002,87.71391449999999)" x="51.50636400000002" y="87.71391449999999">
   M1023
  </text>
  <text fill="rgb(178,0,178)" font-family="Noto Sans CJK SC" font-size="2" transform="rotate(-33.9493,13.816364000000021,75.57291450000002)" x="13.816364000000021" y="75.57291450000002">
   M0921
  </text>
  <text fill="rgb(178,0,178)" font-family="Noto Sans CJK SC" font-size="2" transform="rotate(-33.9493,25.058363999999983,92.2709145)" x="25.058363999999983" y="92.2709145">
   M0921
  </text>
 </g>
 <g id="layers-消火栓" inkscape:groupmode="layer" inkscape:label="s-消火栓">
  <path d="M 39.41736400000002,66.69591450000007 L 37.499364000000014,59.54891450000002" fill="none" stroke="rgb(178,88,0)" stroke-width="0.1"/>
  <path d="M 68.67636399999998,61.09491449999996 L 74.57636400000001,65.56091449999997" fill="none" stroke="rgb(178,88,0)" stroke-width="0.1"/>
  <path d="M 41.408364000000006,65.35591450000004 L 37.499364000000014,59.54891450000002" fill="none" stroke="rgb(178,88,0)" stroke-width="0.1"/>
  <path d="M 37.499364000000014,59.54891450000002 L 35.50836399999997,60.888914500000055" fill="none" stroke="rgb(178,88,0)" stroke-width="0.1"/>
  <path d="M 35.50836399999997,60.888914500000055 L 39.41736400000002,66.69591450000007" fill="none" stroke="rgb(178,88,0)" stroke-width="0.1"/>
  <path d="M 39.41736400000002,66.69591450000007 L 41.408364000000006,65.35591450000004" fill="none" stroke="rgb(178,88,0)" stroke-width="0.1"/>
  <path d="M 70.66736400000002,59.753914500000064 L 74.57636400000001,65.56091449999997" fill="none" stroke="rgb(178,88,0)" stroke-width="0.1"/>
  <path d="M 74.57636400000001,65.56091449999997 L 72.58536399999997,66.9009145" fill="none" stroke="rgb(178,88,0)" stroke-width="0.1"/>
  <path d="M 72.58536399999997,66.9009145 L 68.67636399999998,61.09491449999996" fill="none" stroke="rgb(178,88,0)" stroke-width="0.1"/>
  <path d="M 68.67636399999998,61.09491449999996 L 70.66736400000002,59.753914500000064" fill="none" stroke="rgb(178,88,0)" stroke-width="0.1"/>
  <path d="M 35.50836399999997,60.888914500000055 L 39.41736400000002,66.69591450000007" fill="none" stroke="rgb(178,88,0)" stroke-width="0.1"/>
  <path d="M 39.41736400000002,66.69591450000007 L 37.499364000000014,59.54891450000002" fill="none" stroke="rgb(178,88,0)" stroke-width="0.1"/>
  <path d="M 37.499364000000014,59.54891450000002 L 35.50836399999997,60.888914500000055" fill="none" stroke="rgb(178,88,0)" stroke-width="0.1"/>
  <path d="M 72.58536399999997,66.9009145 L 74.57636400000001,65.56091449999997" fill="none" stroke="rgb(178,88,0)" stroke-width="0.1"/>
  <path d="M 74.57636400000001,65.56091449999997 L 68.67636399999998,61.09491449999996" fill="none" stroke="rgb(178,88,0)" stroke-width="0.1"/>
  <path d="M 68.67636399999998,61.09491449999996 L 72.58536399999997,66.9009145" fill="none" stroke="rgb(178,88,0)" stroke-width="0.1"/>
 </g>
</svg>