<?xml version="1.0" encoding="utf-8"?>
<svg style="background-color: #000;" version="1.1" viewBox="0 0 100.0 100.0" xmlns="http://www.w3.org/2000/svg" xmlns:inkscape="http://www.inkscape.org/namespaces/inkscape">
 <g id="layer0-结构边线" inkscape:groupmode="layer" inkscape:label="0-结构边线">
  <path d="M 86.18199249999998,5.852378499999986 L 95.04099250000002,7.4373785000000225" fill="none" stroke="rgb(178,0,178)" stroke-width="0.1"/>
  <path d="M 95.04099250000002,7.4373785000000225 L 96.37248389869058,0.0" fill="none" stroke="rgb(178,0,178)" stroke-width="0.1"/>
  <path d="M 86.18199249999998,5.852378499999986 L 87.22972613822105,0.0" fill="none" stroke="rgb(178,0,178)" stroke-width="0.1"/>
 </g>
 <g id="layerA-车位" inkscape:groupmode="layer" inkscape:label="A-车位">
  <path d="M 100.0,34.23091291634239 L 49.20599249999998,25.13937850000002" fill="none" instance-id="-1" semantic-id="35" stroke="rgb(0,0,178)" stroke-width="0.1"/>
  <path d="M 49.20599249999998,25.13937850000002 L 53.43399249999993,1.515378499999997" fill="none" instance-id="-1" semantic-id="35" stroke="rgb(0,0,178)" stroke-width="0.1"/>
  <path d="M 53.43399249999993,1.515378499999997 L 100.0,9.849257705449418" fill="none" instance-id="-1" semantic-id="35" stroke="rgb(0,0,178)" stroke-width="0.1"/>
  <path d="M 63.32899249999991,5.8253784999999425 L 62.44799249999994,10.747378499999968" fill="none" instance-id="-1" semantic-id="35" stroke="rgb(0,0,178)" stroke-width="0.1"/>
  <path d="M 60.862992499999905,19.606378500000005 L 59.98199249999993,24.52837850000003" fill="none" instance-id="-1" semantic-id="35" stroke="rgb(0,0,178)" stroke-width="0.1"/>
  <path d="M 63.82099249999999,5.913378500000022 L 62.94099249999999,10.835378499999933" fill="none" instance-id="-1" semantic-id="35" stroke="rgb(0,0,178)" stroke-width="0.1"/>
  <path d="M 61.35499249999998,19.69437849999997 L 60.47399250000001,24.616378499999996" fill="none" instance-id="-1" semantic-id="35" stroke="rgb(0,0,178)" stroke-width="0.1"/>
  <path d="M 62.34499249999999,5.649378500000012 L 61.463992499999904,10.571378500000037" fill="none" instance-id="-1" semantic-id="35" stroke="rgb(0,0,178)" stroke-width="0.1"/>
  <path d="M 59.877992500000005,19.43037849999996 L 58.99799250000001,24.352378499999986" fill="none" instance-id="-1" semantic-id="35" stroke="rgb(0,0,178)" stroke-width="0.1"/>
  <path d="M 62.34499249999999,5.649378500000012 L 63.82099249999999,5.913378500000022" fill="none" instance-id="-1" semantic-id="35" stroke="rgb(0,0,178)" stroke-width="0.1"/>
  <path d="M 58.99799250000001,24.352378499999986 L 60.47399250000001,24.616378499999996" fill="none" instance-id="-1" semantic-id="35" stroke="rgb(0,0,178)" stroke-width="0.1"/>
  <path d="M 62.94099249999999,10.835378499999933 L 61.463992499999904,10.571378500000037" fill="none" instance-id="-1" semantic-id="35" stroke="rgb(0,0,178)" stroke-width="0.1"/>
  <path d="M 61.35499249999998,19.69437849999997 L 59.877992500000005,19.43037849999996" fill="none" instance-id="-1" semantic-id="35" stroke="rgb(0,0,178)" stroke-width="0.1"/>
  <path d="M 97.14799249999999,58.10137850000001 L 44.97699249999994,48.76437850000002" fill="none" instance-id="-1" semantic-id="35" stroke="rgb(0,0,178)" stroke-width="0.1"/>
  <path d="M 44.97699249999994,48.76437850000002 L 49.20599249999998,25.13937850000002" fill="none" instance-id="-1" semantic-id="35" stroke="rgb(0,0,178)" stroke-width="0.1"/>
  <path d="M 49.20599249999998,25.13937850000002 L 100.0,34.23091291634239" fill="none" instance-id="-1" semantic-id="35" stroke="rgb(0,0,178)" stroke-width="0.1"/>
  <path d="M 59.10099249999996,29.450378499999943 L 58.21999249999999,34.37237849999997" fill="none" instance-id="-1" semantic-id="35" stroke="rgb(0,0,178)" stroke-width="0.1"/>
  <path d="M 56.63499249999995,43.231378500000005 L 55.75399249999998,48.15337850000003" fill="none" instance-id="-1" semantic-id="35" stroke="rgb(0,0,178)" stroke-width="0.1"/>
  <path d="M 59.59299249999992,29.53837850000002 L 58.71199249999995,34.46037849999993" fill="none" instance-id="-1" semantic-id="35" stroke="rgb(0,0,178)" stroke-width="0.1"/>
  <path d="M 57.126992499999915,43.31937849999997 L 56.24599249999994,48.241378499999996" fill="none" instance-id="-1" semantic-id="35" stroke="rgb(0,0,178)" stroke-width="0.1"/>
  <path d="M 58.116992499999924,29.27437850000001 L 57.23599249999995,34.19637850000004" fill="none" instance-id="-1" semantic-id="35" stroke="rgb(0,0,178)" stroke-width="0.1"/>
  <path d="M 55.64999249999994,43.05537849999996 L 54.76899249999997,47.977378499999986" fill="none" instance-id="-1" semantic-id="35" stroke="rgb(0,0,178)" stroke-width="0.1"/>
  <path d="M 58.116992499999924,29.27437850000001 L 59.59299249999992,29.53837850000002" fill="none" instance-id="-1" semantic-id="35" stroke="rgb(0,0,178)" stroke-width="0.1"/>
  <path d="M 54.76899249999997,47.977378499999986 L 56.24599249999994,48.241378499999996" fill="none" instance-id="-1" semantic-id="35" stroke="rgb(0,0,178)" stroke-width="0.1"/>
  <path d="M 58.71199249999995,34.46037849999993 L 57.23599249999995,34.19637850000004" fill="none" instance-id="-1" semantic-id="35" stroke="rgb(0,0,178)" stroke-width="0.1"/>
  <path d="M 57.126992499999915,43.31937849999997 L 55.64999249999994,43.05537849999996" fill="none" instance-id="-1" semantic-id="35" stroke="rgb(0,0,178)" stroke-width="0.1"/>
  <path d="M 92.91999249999992,81.72637850000001 L 40.748992499999986,72.38837850000004" fill="none" instance-id="-1" semantic-id="35" stroke="rgb(0,0,178)" stroke-width="0.1"/>
  <path d="M 40.748992499999986,72.38837850000004 L 44.97699249999994,48.76437850000002" fill="none" instance-id="-1" semantic-id="35" stroke="rgb(0,0,178)" stroke-width="0.1"/>
  <path d="M 44.97699249999994,48.76437850000002 L 97.14799249999999,58.10137850000001" fill="none" instance-id="-1" semantic-id="35" stroke="rgb(0,0,178)" stroke-width="0.1"/>
  <path d="M 54.87299250000001,53.07537849999994 L 53.991992499999924,57.99637849999999" fill="none" instance-id="-1" semantic-id="35" stroke="rgb(0,0,178)" stroke-width="0.1"/>
  <path d="M 52.40599249999991,66.8563785 L 51.52499249999994,71.77737849999994" fill="none" instance-id="-1" semantic-id="35" stroke="rgb(0,0,178)" stroke-width="0.1"/>
  <path d="M 55.36499249999997,53.16337850000002 L 54.4839925,58.08437849999996" fill="none" instance-id="-1" semantic-id="35" stroke="rgb(0,0,178)" stroke-width="0.1"/>
  <path d="M 52.89799249999999,66.94437849999997 L 52.01799249999999,71.86537850000002" fill="none" instance-id="-1" semantic-id="35" stroke="rgb(0,0,178)" stroke-width="0.1"/>
  <path d="M 53.887992499999996,52.898378500000035 L 53.0079925,57.82037849999995" fill="none" instance-id="-1" semantic-id="35" stroke="rgb(0,0,178)" stroke-width="0.1"/>
  <path d="M 51.42199249999999,66.67937849999998 L 50.540992500000016,71.60137850000001" fill="none" instance-id="-1" semantic-id="35" stroke="rgb(0,0,178)" stroke-width="0.1"/>
  <path d="M 53.887992499999996,52.898378500000035 L 55.36499249999997,53.16337850000002" fill="none" instance-id="-1" semantic-id="35" stroke="rgb(0,0,178)" stroke-width="0.1"/>
  <path d="M 50.540992500000016,71.60137850000001 L 52.01799249999999,71.86537850000002" fill="none" instance-id="-1" semantic-id="35" stroke="rgb(0,0,178)" stroke-width="0.1"/>
  <path d="M 54.4839925,58.08437849999996 L 53.0079925,57.82037849999995" fill="none" instance-id="-1" semantic-id="35" stroke="rgb(0,0,178)" stroke-width="0.1"/>
  <path d="M 52.89799249999999,66.94437849999997 L 51.42199249999999,66.67937849999998" fill="none" instance-id="-1" semantic-id="35" stroke="rgb(0,0,178)" stroke-width="0.1"/>
  <path d="M 58.79645895351803,100.0 L 36.52099249999992,96.01337850000004" fill="none" instance-id="-1" semantic-id="35" stroke="rgb(0,0,178)" stroke-width="0.1"/>
  <path d="M 36.52099249999992,96.01337850000004 L 40.748992499999986,72.38837850000004" fill="none" instance-id="-1" semantic-id="35" stroke="rgb(0,0,178)" stroke-width="0.1"/>
  <path d="M 40.748992499999986,72.38837850000004 L 92.91999249999992,81.72637850000001" fill="none" instance-id="-1" semantic-id="35" stroke="rgb(0,0,178)" stroke-width="0.1"/>
  <path d="M 50.644992499999944,76.69937849999997 L 49.76399249999997,81.62137849999999" fill="none" instance-id="-1" semantic-id="35" stroke="rgb(0,0,178)" stroke-width="0.1"/>
  <path d="M 48.17799249999996,90.48037850000003 L 47.29699249999999,95.40237849999994" fill="none" instance-id="-1" semantic-id="35" stroke="rgb(0,0,178)" stroke-width="0.1"/>
  <path d="M 51.136992499999906,76.78737849999993 L 50.255992499999934,81.70937849999996" fill="none" instance-id="-1" semantic-id="35" stroke="rgb(0,0,178)" stroke-width="0.1"/>
  <path d="M 48.66999249999992,90.5683785 L 47.78899249999995,95.49037850000002" fill="none" instance-id="-1" semantic-id="35" stroke="rgb(0,0,178)" stroke-width="0.1"/>
  <path d="M 49.65999249999993,76.52337850000004 L 48.77899249999996,81.44537849999995" fill="none" instance-id="-1" semantic-id="35" stroke="rgb(0,0,178)" stroke-width="0.1"/>
  <path d="M 47.19399249999992,90.30437849999998 L 46.31299249999995,95.22637850000001" fill="none" instance-id="-1" semantic-id="35" stroke="rgb(0,0,178)" stroke-width="0.1"/>
  <path d="M 49.65999249999993,76.52337850000004 L 51.136992499999906,76.78737849999993" fill="none" instance-id="-1" semantic-id="35" stroke="rgb(0,0,178)" stroke-width="0.1"/>
  <path d="M 46.31299249999995,95.22637850000001 L 47.78899249999995,95.49037850000002" fill="none" instance-id="-1" semantic-id="35" stroke="rgb(0,0,178)" stroke-width="0.1"/>
  <path d="M 50.255992499999934,81.70937849999996 L 48.77899249999996,81.44537849999995" fill="none" instance-id="-1" semantic-id="35" stroke="rgb(0,0,178)" stroke-width="0.1"/>
  <path d="M 48.66999249999992,90.5683785 L 47.19399249999992,90.30437849999998" fill="none" instance-id="-1" semantic-id="35" stroke="rgb(0,0,178)" stroke-width="0.1"/>
  <path d="M 0.0,16.332080231517466 L 49.20599249999998,25.13937850000002" fill="none" instance-id="-1" semantic-id="35" stroke="rgb(0,0,178)" stroke-width="0.1"/>
  <path d="M 49.20599249999998,25.13937850000002 L 53.43399249999993,1.5143785000000207" fill="none" instance-id="-1" semantic-id="35" stroke="rgb(0,0,178)" stroke-width="0.1"/>
  <path d="M 53.43399249999993,1.5143785000000207 L 44.972319508300075,0.0" fill="none" instance-id="-1" semantic-id="35" stroke="rgb(0,0,178)" stroke-width="0.1"/>
  <path d="M 42.65799249999998,2.1253785000000107 L 41.776992500000006,7.047378500000036" fill="none" instance-id="-1" semantic-id="35" stroke="rgb(0,0,178)" stroke-width="0.1"/>
  <path d="M 40.19099249999999,15.90637849999996 L 39.30999249999991,20.828378499999985" fill="none" instance-id="-1" semantic-id="35" stroke="rgb(0,0,178)" stroke-width="0.1"/>
  <path d="M 42.165992500000016,2.0373784999999316 L 41.28499249999993,6.959378499999957" fill="none" instance-id="-1" semantic-id="35" stroke="rgb(0,0,178)" stroke-width="0.1"/>
  <path d="M 39.69899249999992,15.818378499999994 L 38.817992499999946,20.74037850000002" fill="none" instance-id="-1" semantic-id="35" stroke="rgb(0,0,178)" stroke-width="0.1"/>
  <path d="M 43.641992500000015,2.3013784999999416 L 42.76099249999993,7.223378499999967" fill="none" instance-id="-1" semantic-id="35" stroke="rgb(0,0,178)" stroke-width="0.1"/>
  <path d="M 41.17599250000001,16.082378500000004 L 40.29499249999992,21.00437850000003" fill="none" instance-id="-1" semantic-id="35" stroke="rgb(0,0,178)" stroke-width="0.1"/>
  <path d="M 43.641992500000015,2.3013784999999416 L 42.165992500000016,2.0373784999999316" fill="none" instance-id="-1" semantic-id="35" stroke="rgb(0,0,178)" stroke-width="0.1"/>
  <path d="M 40.29499249999992,21.00437850000003 L 38.817992499999946,20.74037850000002" fill="none" instance-id="-1" semantic-id="35" stroke="rgb(0,0,178)" stroke-width="0.1"/>
  <path d="M 41.28499249999993,6.959378499999957 L 42.76099249999993,7.223378499999967" fill="none" instance-id="-1" semantic-id="35" stroke="rgb(0,0,178)" stroke-width="0.1"/>
  <path d="M 39.69899249999992,15.818378499999994 L 41.17599250000001,16.082378500000004" fill="none" instance-id="-1" semantic-id="35" stroke="rgb(0,0,178)" stroke-width="0.1"/>
  <path d="M 0.0,40.713705003756786 L 44.977992499999914,48.763378500000044" fill="none" instance-id="-1" semantic-id="35" stroke="rgb(0,0,178)" stroke-width="0.1"/>
  <path d="M 44.977992499999914,48.763378500000044 L 49.20599249999998,25.13937850000002" fill="none" instance-id="-1" semantic-id="35" stroke="rgb(0,0,178)" stroke-width="0.1"/>
  <path d="M 49.20599249999998,25.13937850000002 L 0.0,16.332080231517466" fill="none" instance-id="-1" semantic-id="35" stroke="rgb(0,0,178)" stroke-width="0.1"/>
  <path d="M 38.42999249999991,25.75037850000001 L 37.54899249999994,30.671378499999946" fill="none" instance-id="-1" semantic-id="35" stroke="rgb(0,0,178)" stroke-width="0.1"/>
  <path d="M 35.96299249999993,39.53137849999996 L 35.081992499999956,44.45237850000001" fill="none" instance-id="-1" semantic-id="35" stroke="rgb(0,0,178)" stroke-width="0.1"/>
  <path d="M 37.936992499999974,25.66237849999993 L 37.0559925,30.58337849999998" fill="none" instance-id="-1" semantic-id="35" stroke="rgb(0,0,178)" stroke-width="0.1"/>
  <path d="M 35.470992499999966,39.443378499999994 L 34.589992499999994,44.36437850000004" fill="none" instance-id="-1" semantic-id="35" stroke="rgb(0,0,178)" stroke-width="0.1"/>
  <path d="M 39.41399249999995,25.92637849999994 L 38.53299249999998,30.848378499999967" fill="none" instance-id="-1" semantic-id="35" stroke="rgb(0,0,178)" stroke-width="0.1"/>
  <path d="M 36.946992499999965,39.707378500000004 L 36.06699249999997,44.62937850000003" fill="none" instance-id="-1" semantic-id="35" stroke="rgb(0,0,178)" stroke-width="0.1"/>
  <path d="M 39.41399249999995,25.92637849999994 L 37.936992499999974,25.66237849999993" fill="none" instance-id="-1" semantic-id="35" stroke="rgb(0,0,178)" stroke-width="0.1"/>
  <path d="M 36.06699249999997,44.62937850000003 L 34.589992499999994,44.36437850000004" fill="none" instance-id="-1" semantic-id="35" stroke="rgb(0,0,178)" stroke-width="0.1"/>
  <path d="M 37.0559925,30.58337849999998 L 38.53299249999998,30.848378499999967" fill="none" instance-id="-1" semantic-id="35" stroke="rgb(0,0,178)" stroke-width="0.1"/>
  <path d="M 35.470992499999966,39.443378499999994 L 36.946992499999965,39.707378500000004" fill="none" instance-id="-1" semantic-id="35" stroke="rgb(0,0,178)" stroke-width="0.1"/>
  <path d="M 0.0,65.0947845116732 L 40.748992499999986,72.38837850000004" fill="none" instance-id="-1" semantic-id="35" stroke="rgb(0,0,178)" stroke-width="0.1"/>
  <path d="M 40.748992499999986,72.38837850000004 L 44.977992499999914,48.763378500000044" fill="none" instance-id="-1" semantic-id="35" stroke="rgb(0,0,178)" stroke-width="0.1"/>
  <path d="M 44.977992499999914,48.763378500000044 L 0.0,40.713705003756786" fill="none" instance-id="-1" semantic-id="35" stroke="rgb(0,0,178)" stroke-width="0.1"/>
  <path d="M 34.200992499999984,49.374378500000034 L 33.31999250000001,54.296378499999946" fill="none" instance-id="-1" semantic-id="35" stroke="rgb(0,0,178)" stroke-width="0.1"/>
  <path d="M 31.734992499999976,63.15537849999998 L 30.853992500000004,68.07737850000001" fill="none" instance-id="-1" semantic-id="35" stroke="rgb(0,0,178)" stroke-width="0.1"/>
  <path d="M 33.70899249999991,49.286378499999955 L 32.82799249999994,54.20837849999998" fill="none" instance-id="-1" semantic-id="35" stroke="rgb(0,0,178)" stroke-width="0.1"/>
  <path d="M 31.242992500000014,63.06737850000002 L 30.36199249999993,67.98937850000004" fill="none" instance-id="-1" semantic-id="35" stroke="rgb(0,0,178)" stroke-width="0.1"/>
  <path d="M 35.1859925,49.550378499999965 L 34.30499249999991,54.47237849999999" fill="none" instance-id="-1" semantic-id="35" stroke="rgb(0,0,178)" stroke-width="0.1"/>
  <path d="M 32.71899250000001,63.33137850000003 L 31.837992499999928,68.25337849999994" fill="none" instance-id="-1" semantic-id="35" stroke="rgb(0,0,178)" stroke-width="0.1"/>
  <path d="M 35.1859925,49.550378499999965 L 33.70899249999991,49.286378499999955" fill="none" instance-id="-1" semantic-id="35" stroke="rgb(0,0,178)" stroke-width="0.1"/>
  <path d="M 31.837992499999928,68.25337849999994 L 30.36199249999993,67.98937850000004" fill="none" instance-id="-1" semantic-id="35" stroke="rgb(0,0,178)" stroke-width="0.1"/>
  <path d="M 32.82799249999994,54.20837849999998 L 34.30499249999991,54.47237849999999" fill="none" instance-id="-1" semantic-id="35" stroke="rgb(0,0,178)" stroke-width="0.1"/>
  <path d="M 31.242992500000014,63.06737850000002 L 32.71899250000001,63.33137850000003" fill="none" instance-id="-1" semantic-id="35" stroke="rgb(0,0,178)" stroke-width="0.1"/>
  <path d="M 0.0,89.47624718236182 L 36.52099249999992,96.01237849999995" fill="none" instance-id="-1" semantic-id="35" stroke="rgb(0,0,178)" stroke-width="0.1"/>
  <path d="M 36.52099249999992,96.01237849999995 L 40.748992499999986,72.38837850000004" fill="none" instance-id="-1" semantic-id="35" stroke="rgb(0,0,178)" stroke-width="0.1"/>
  <path d="M 40.748992499999986,72.38837850000004 L 0.0,65.0947845116732" fill="none" instance-id="-1" semantic-id="35" stroke="rgb(0,0,178)" stroke-width="0.1"/>
  <path d="M 29.97299249999992,72.99937850000003 L 29.091992499999947,77.92137849999995" fill="none" instance-id="-1" semantic-id="35" stroke="rgb(0,0,178)" stroke-width="0.1"/>
  <path d="M 27.50699249999991,86.78037849999998 L 26.62599249999994,91.70237850000001" fill="none" instance-id="-1" semantic-id="35" stroke="rgb(0,0,178)" stroke-width="0.1"/>
  <path d="M 29.480992499999957,72.91137849999996 L 28.599992499999985,77.83337849999998" fill="none" instance-id="-1" semantic-id="35" stroke="rgb(0,0,178)" stroke-width="0.1"/>
  <path d="M 27.013992499999972,86.69237850000002 L 26.133992499999977,91.61437850000004" fill="none" instance-id="-1" semantic-id="35" stroke="rgb(0,0,178)" stroke-width="0.1"/>
  <path d="M 30.956992499999956,73.17537849999997 L 30.07699249999996,78.09737849999999" fill="none" instance-id="-1" semantic-id="35" stroke="rgb(0,0,178)" stroke-width="0.1"/>
  <path d="M 28.490992499999948,86.95637850000003 L 27.609992499999976,91.87837849999994" fill="none" instance-id="-1" semantic-id="35" stroke="rgb(0,0,178)" stroke-width="0.1"/>
  <path d="M 30.956992499999956,73.17537849999997 L 29.480992499999957,72.91137849999996" fill="none" instance-id="-1" semantic-id="35" stroke="rgb(0,0,178)" stroke-width="0.1"/>
  <path d="M 27.609992499999976,91.87837849999994 L 26.133992499999977,91.61437850000004" fill="none" instance-id="-1" semantic-id="35" stroke="rgb(0,0,178)" stroke-width="0.1"/>
  <path d="M 28.599992499999985,77.83337849999998 L 30.07699249999996,78.09737849999999" fill="none" instance-id="-1" semantic-id="35" stroke="rgb(0,0,178)" stroke-width="0.1"/>
  <path d="M 27.013992499999972,86.69237850000002 L 28.490992499999948,86.95637850000003" fill="none" instance-id="-1" semantic-id="35" stroke="rgb(0,0,178)" stroke-width="0.1"/>
 </g>
 <g id="layerA-车位-text" inkscape:groupmode="layer" inkscape:label="A-车位-text">
  <text fill="rgb(178,88,0)" font-family="Noto Sans CJK SC" font-size="2" transform="rotate(-349.853,5.523992499999963,76.91837850000002)" x="5.523992499999963" y="76.91837850000002">
   B-297
  </text>
  <text fill="rgb(178,88,0)" font-family="Noto Sans CJK SC" font-size="2" transform="rotate(-349.853,10.797992499999964,54.25437850000003)" x="10.797992499999964" y="54.25437850000003">
   B-298
  </text>
  <text fill="rgb(178,88,0)" font-family="Noto Sans CJK SC" font-size="2" transform="rotate(-349.853,14.489992499999971,36.860378500000024)" x="14.489992499999971" y="36.860378500000024">
   B-299
  </text>
  <text fill="rgb(178,88,0)" font-family="Noto Sans CJK SC" font-size="2" transform="rotate(-349.853,17.126992499999915,11.296378499999946)" x="17.126992499999915" y="11.296378499999946">
   B-300
  </text>
  <text fill="rgb(178,88,0)" font-family="Noto Sans CJK SC" font-size="2" transform="rotate(-349.853,67.49399249999999,21.311378499999933)" x="67.49399249999999" y="21.311378499999933">
   B-317
  </text>
  <text fill="rgb(178,88,0)" font-family="Noto Sans CJK SC" font-size="2" transform="rotate(-349.853,66.17499249999992,40.286378499999955)" x="66.17499249999992" y="40.286378499999955">
   B-316
  </text>
  <text fill="rgb(178,88,0)" font-family="Noto Sans CJK SC" font-size="2" transform="rotate(-349.853,59.05499249999991,68.22237849999999)" x="59.05499249999991" y="68.22237849999999">
   B-315
  </text>
  <text fill="rgb(178,88,0)" font-family="Noto Sans CJK SC" font-size="2" transform="rotate(-349.853,58.26399249999997,90.35937849999993)" x="58.26399249999997" y="90.35937849999993">
   B-314
  </text>
 </g>
 <g id="layerCOLUMN" inkscape:groupmode="layer" inkscape:label="COLUMN">
  <path d="M 86.18199249999998,5.852378499999986 L 95.04099250000002,7.4373785000000225" fill="none" stroke="rgb(178,178,0)" stroke-width="0.1"/>
  <path d="M 95.04099250000002,7.4373785000000225 L 96.37248389869058,0.0" fill="none" stroke="rgb(178,178,0)" stroke-width="0.1"/>
  <path d="M 87.22972613822105,0.0 L 86.18199249999998,5.852378499999986" fill="none" stroke="rgb(178,178,0)" stroke-width="0.1"/>
 </g>
 <g id="layers-消火栓" inkscape:groupmode="layer" inkscape:label="s-消火栓">
  <path d="M 97.75599249999993,5.89237849999995 L 95.39399249999997,5.469378499999948" fill="none" stroke="rgb(178,88,0)" stroke-width="0.1"/>
  <path d="M 95.39399249999997,5.469378499999948 L 96.37262313278177,0.0" fill="none" stroke="rgb(178,88,0)" stroke-width="0.1"/>
  <path d="M 95.39399249999997,5.469378499999948 L 98.4339454541589,0.0" fill="none" stroke="rgb(178,88,0)" stroke-width="0.1"/>
  <path d="M 98.81031011580319,0.0 L 97.75599249999993,5.89237849999995" fill="none" stroke="rgb(178,88,0)" stroke-width="0.1"/>
  <circle cx="96.2579925" cy="7.452378500000009" fill="none" r="0.5" stroke="rgb(178,178,0)" stroke-width="0.1"/>
 </g>
</svg>