<?xml version="1.0" encoding="utf-8"?>
<svg style="background-color: #000;" version="1.1" viewBox="0 0 100.0 100.0" xmlns="http://www.w3.org/2000/svg" xmlns:inkscape="http://www.inkscape.org/namespaces/inkscape">
 <g id="layer0-结构边线" inkscape:groupmode="layer" inkscape:label="0-结构边线">
  <path d="M 39.35599249999996,52.3853785 L 48.35599249999996,52.3853785" fill="none" stroke="rgb(178,0,178)" stroke-width="0.1"/>
  <path d="M 48.35599249999996,52.3853785 L 48.35599249999996,43.3853785" fill="none" stroke="rgb(178,0,178)" stroke-width="0.1"/>
  <path d="M 39.35599249999996,43.3853785 L 48.35599249999996,43.3853785" fill="none" stroke="rgb(178,0,178)" stroke-width="0.1"/>
  <path d="M 39.35599249999996,52.3853785 L 39.35599249999996,43.3853785" fill="none" stroke="rgb(178,0,178)" stroke-width="0.1"/>
 </g>
 <g id="layerA-车位" inkscape:groupmode="layer" inkscape:label="A-车位">
  <path d="M 97.55299249999996,43.0873785 L 99.64299249999999,96.04637849999995" fill="none" instance-id="-1" semantic-id="35" stroke="rgb(0,0,178)" stroke-width="0.1"/>
  <path d="M 99.64299249999999,96.04637849999995 L 75.6609924999999,96.99237849999997" fill="none" instance-id="-1" semantic-id="35" stroke="rgb(0,0,178)" stroke-width="0.1"/>
  <path d="M 75.6609924999999,96.99237849999997 L 73.57199249999996,44.033378500000026" fill="none" instance-id="-1" semantic-id="35" stroke="rgb(0,0,178)" stroke-width="0.1"/>
  <path d="M 77.74499249999997,86.40237849999994 L 82.74099249999995,86.20437849999996" fill="none" instance-id="-1" semantic-id="35" stroke="rgb(0,0,178)" stroke-width="0.1"/>
  <path d="M 91.7339925,85.85037850000003 L 96.73099249999996,85.65237849999994" fill="none" instance-id="-1" semantic-id="35" stroke="rgb(0,0,178)" stroke-width="0.1"/>
  <path d="M 77.72599249999996,85.90237849999994 L 82.72199249999994,85.70537849999994" fill="none" instance-id="-1" semantic-id="35" stroke="rgb(0,0,178)" stroke-width="0.1"/>
  <path d="M 91.7149925,85.35037850000003 L 96.71099249999997,85.15337850000003" fill="none" instance-id="-1" semantic-id="35" stroke="rgb(0,0,178)" stroke-width="0.1"/>
  <path d="M 77.78499249999993,87.40137849999996 L 82.78099249999991,87.20437849999996" fill="none" instance-id="-1" semantic-id="35" stroke="rgb(0,0,178)" stroke-width="0.1"/>
  <path d="M 91.77399249999996,86.84937849999994 L 96.76999249999994,86.65237849999994" fill="none" instance-id="-1" semantic-id="35" stroke="rgb(0,0,178)" stroke-width="0.1"/>
  <path d="M 77.78499249999993,87.40137849999996 L 77.72599249999996,85.90237849999994" fill="none" instance-id="-1" semantic-id="35" stroke="rgb(0,0,178)" stroke-width="0.1"/>
  <path d="M 96.76999249999994,86.65237849999994 L 96.71099249999997,85.15337850000003" fill="none" instance-id="-1" semantic-id="35" stroke="rgb(0,0,178)" stroke-width="0.1"/>
  <path d="M 82.72199249999994,85.70537849999994 L 82.78099249999991,87.20437849999996" fill="none" instance-id="-1" semantic-id="35" stroke="rgb(0,0,178)" stroke-width="0.1"/>
  <path d="M 91.7149925,85.35037850000003 L 91.77399249999996,86.84937849999994" fill="none" instance-id="-1" semantic-id="35" stroke="rgb(0,0,178)" stroke-width="0.1"/>
  <path d="M 73.57199249999996,44.033378500000026 L 75.6609924999999,96.99237849999997" fill="none" instance-id="-1" semantic-id="35" stroke="rgb(0,0,178)" stroke-width="0.1"/>
  <path d="M 75.6609924999999,96.99237849999997 L 51.67999249999991,97.9383785" fill="none" instance-id="-1" semantic-id="35" stroke="rgb(0,0,178)" stroke-width="0.1"/>
  <path d="M 51.67999249999991,97.9383785 L 49.589992499999994,44.97937849999994" fill="none" instance-id="-1" semantic-id="35" stroke="rgb(0,0,178)" stroke-width="0.1"/>
  <path d="M 53.76399249999997,87.34837849999997 L 58.75999249999995,87.15137849999996" fill="none" instance-id="-1" semantic-id="35" stroke="rgb(0,0,178)" stroke-width="0.1"/>
  <path d="M 67.7529925,86.79637849999995 L 72.74899249999999,86.59937849999994" fill="none" instance-id="-1" semantic-id="35" stroke="rgb(0,0,178)" stroke-width="0.1"/>
  <path d="M 53.74399249999999,86.84837849999997 L 58.73999249999997,86.65137849999996" fill="none" instance-id="-1" semantic-id="35" stroke="rgb(0,0,178)" stroke-width="0.1"/>
  <path d="M 67.73299249999991,86.29637849999995 L 72.72999249999998,86.09937849999994" fill="none" instance-id="-1" semantic-id="35" stroke="rgb(0,0,178)" stroke-width="0.1"/>
  <path d="M 53.80299249999996,88.34737849999999 L 58.79999249999992,88.15037849999999" fill="none" instance-id="-1" semantic-id="35" stroke="rgb(0,0,178)" stroke-width="0.1"/>
  <path d="M 67.79299249999997,87.79537849999997 L 72.78899249999995,87.59837849999997" fill="none" instance-id="-1" semantic-id="35" stroke="rgb(0,0,178)" stroke-width="0.1"/>
  <path d="M 53.80299249999996,88.34737849999999 L 53.74399249999999,86.84837849999997" fill="none" instance-id="-1" semantic-id="35" stroke="rgb(0,0,178)" stroke-width="0.1"/>
  <path d="M 72.78899249999995,87.59837849999997 L 72.72999249999998,86.09937849999994" fill="none" instance-id="-1" semantic-id="35" stroke="rgb(0,0,178)" stroke-width="0.1"/>
  <path d="M 58.73999249999997,86.65137849999996 L 58.79999249999992,88.15037849999999" fill="none" instance-id="-1" semantic-id="35" stroke="rgb(0,0,178)" stroke-width="0.1"/>
  <path d="M 67.73299249999991,86.29637849999995 L 67.79299249999997,87.79537849999997" fill="none" instance-id="-1" semantic-id="35" stroke="rgb(0,0,178)" stroke-width="0.1"/>
  <path d="M 100.0,96.03228041808097 L 99.64299249999999,96.04637849999995" fill="none" instance-id="-1" semantic-id="35" stroke="rgb(0,0,178)" stroke-width="0.1"/>
  <path d="M 99.64299249999999,96.04637849999995 L 97.55299249999996,43.0873785" fill="none" instance-id="-1" semantic-id="35" stroke="rgb(0,0,178)" stroke-width="0.1"/>
  <path d="M 13.283992499999954,46.41237849999993 L 15.37299250000001,99.37137849999999" fill="none" instance-id="-1" semantic-id="35" stroke="rgb(0,0,178)" stroke-width="0.1"/>
  <path d="M 15.37299250000001,99.37137849999999 L 0.0,99.97781071321049" fill="none" instance-id="-1" semantic-id="35" stroke="rgb(0,0,178)" stroke-width="0.1"/>
  <path d="M 7.464992499999994,89.17537849999997 L 12.460992499999975,88.97837849999996" fill="none" instance-id="-1" semantic-id="35" stroke="rgb(0,0,178)" stroke-width="0.1"/>
  <path d="M 7.444992500000012,88.67537849999997 L 12.44199249999997,88.47837849999996" fill="none" instance-id="-1" semantic-id="35" stroke="rgb(0,0,178)" stroke-width="0.1"/>
  <path d="M 7.5049924999999575,90.17437849999999 L 12.500992499999938,89.97737849999999" fill="none" instance-id="-1" semantic-id="35" stroke="rgb(0,0,178)" stroke-width="0.1"/>
  <path d="M 12.500992499999938,89.97737849999999 L 12.44199249999997,88.47837849999996" fill="none" instance-id="-1" semantic-id="35" stroke="rgb(0,0,178)" stroke-width="0.1"/>
  <path d="M 7.444992500000012,88.67537849999997 L 7.5049924999999575,90.17437849999999" fill="none" instance-id="-1" semantic-id="35" stroke="rgb(0,0,178)" stroke-width="0.1"/>
  <path d="M 37.26499249999995,45.46637850000002 L 39.35499249999998,98.42537849999997" fill="none" instance-id="-1" semantic-id="35" stroke="rgb(0,0,178)" stroke-width="0.1"/>
  <path d="M 39.35499249999998,98.42537849999997 L 15.37299250000001,99.37137849999999" fill="none" instance-id="-1" semantic-id="35" stroke="rgb(0,0,178)" stroke-width="0.1"/>
  <path d="M 15.37299250000001,99.37137849999999 L 13.283992499999954,46.41237849999993" fill="none" instance-id="-1" semantic-id="35" stroke="rgb(0,0,178)" stroke-width="0.1"/>
  <path d="M 17.456992499999956,88.78137849999996 L 22.453992499999913,88.58337849999998" fill="none" instance-id="-1" semantic-id="35" stroke="rgb(0,0,178)" stroke-width="0.1"/>
  <path d="M 31.446992499999965,88.22937849999994 L 36.442992499999946,88.03137849999996" fill="none" instance-id="-1" semantic-id="35" stroke="rgb(0,0,178)" stroke-width="0.1"/>
  <path d="M 17.43799249999995,88.28137849999996 L 22.43399249999993,88.08437849999996" fill="none" instance-id="-1" semantic-id="35" stroke="rgb(0,0,178)" stroke-width="0.1"/>
  <path d="M 31.426992499999983,87.72937849999994 L 36.422992499999964,87.53237849999994" fill="none" instance-id="-1" semantic-id="35" stroke="rgb(0,0,178)" stroke-width="0.1"/>
  <path d="M 17.49699249999992,89.78037849999998 L 22.492992500000014,89.58337849999998" fill="none" instance-id="-1" semantic-id="35" stroke="rgb(0,0,178)" stroke-width="0.1"/>
  <path d="M 31.485992499999952,89.22837849999996 L 36.48199249999993,89.03137849999996" fill="none" instance-id="-1" semantic-id="35" stroke="rgb(0,0,178)" stroke-width="0.1"/>
  <path d="M 17.49699249999992,89.78037849999998 L 17.43799249999995,88.28137849999996" fill="none" instance-id="-1" semantic-id="35" stroke="rgb(0,0,178)" stroke-width="0.1"/>
  <path d="M 36.48199249999993,89.03137849999996 L 36.422992499999964,87.53237849999994" fill="none" instance-id="-1" semantic-id="35" stroke="rgb(0,0,178)" stroke-width="0.1"/>
  <path d="M 22.43399249999993,88.08437849999996 L 22.492992500000014,89.58337849999998" fill="none" instance-id="-1" semantic-id="35" stroke="rgb(0,0,178)" stroke-width="0.1"/>
  <path d="M 31.426992499999983,87.72937849999994 L 31.485992499999952,89.22837849999996" fill="none" instance-id="-1" semantic-id="35" stroke="rgb(0,0,178)" stroke-width="0.1"/>
 </g>
 <g id="layerA-车位-lx" inkscape:groupmode="layer" inkscape:label="A-车位-lx">
  <path d="M 0.0,20.430135909870046 L 59.741992499999924,18.59337849999997" fill="none" stroke="rgb(0,178,0)" stroke-width="0.1"/>
  <path d="M 18.685992499999998,11.228378499999963 L 23.554992499999912,20.06937849999997" fill="none" stroke="rgb(0,178,0)" stroke-width="0.1"/>
  <path d="M 23.554992499999912,20.06937849999997 L 19.40399249999996,29.269378500000016" fill="none" stroke="rgb(0,178,0)" stroke-width="0.1"/>
  <path d="M 16.429992499999912,11.318378499999994 L 21.299992499999917,20.159378500000003" fill="none" stroke="rgb(0,178,0)" stroke-width="0.1"/>
  <path d="M 21.299992499999917,20.159378500000003 L 17.148992499999963,29.359378499999934" fill="none" stroke="rgb(0,178,0)" stroke-width="0.1"/>
  <path d="M 16.429992499999912,11.318378499999994 L 18.685992499999998,11.228378499999963" fill="none" stroke="rgb(0,178,0)" stroke-width="0.1"/>
  <path d="M 17.148992499999963,29.359378499999934 L 19.40399249999996,29.269378500000016" fill="none" stroke="rgb(0,178,0)" stroke-width="0.1"/>
  <path d="M 59.741992499999924,18.59337849999997 L 60.24460572495093,18.570059704312257" fill="none" stroke="rgb(0,178,0)" stroke-width="0.1"/>
  <path d="M 60.24460572495093,18.570059704312257 L 60.746926803779616,18.541122636521777" fill="none" stroke="rgb(0,178,0)" stroke-width="0.1"/>
  <path d="M 60.746926803779616,18.541122636521777 L 61.24889293672163,18.506570914316853" fill="none" stroke="rgb(0,178,0)" stroke-width="0.1"/>
  <path d="M 61.24889293672163,18.506570914316853 L 61.7504413683871,18.466408857325177" fill="none" stroke="rgb(0,178,0)" stroke-width="0.1"/>
  <path d="M 61.7504413683871,18.466408857325177 L 62.25150939560751,18.4206414865738" fill="none" stroke="rgb(0,178,0)" stroke-width="0.1"/>
  <path d="M 62.25150939560751,18.4206414865738 L 62.752034375273524,18.36927452386135" fill="none" stroke="rgb(0,178,0)" stroke-width="0.1"/>
  <path d="M 62.752034375273524,18.36927452386135 L 63.25195373216752,18.312314391042946" fill="none" stroke="rgb(0,178,0)" stroke-width="0.1"/>
  <path d="M 63.25195373216752,18.312314391042946 L 63.75120496678619,18.249768209227113" fill="none" stroke="rgb(0,178,0)" stroke-width="0.1"/>
  <path d="M 63.75120496678619,18.249768209227113 L 64.24972566315432,18.181643797885613" fill="none" stroke="rgb(0,178,0)" stroke-width="0.1"/>
  <path d="M 64.24972566315432,18.181643797885613 L 64.74745349662805,18.107949673875964" fill="none" stroke="rgb(0,178,0)" stroke-width="0.1"/>
  <path d="M 64.74745349662805,18.107949673875964 L 65.24432624168651,18.028695050376314" fill="none" stroke="rgb(0,178,0)" stroke-width="0.1"/>
  <path d="M 65.24432624168651,18.028695050376314 L 65.74028177971127,17.9438898357339" fill="none" stroke="rgb(0,178,0)" stroke-width="0.1"/>
  <path d="M 65.74028177971127,17.9438898357339 L 66.23525810675244,17.853544632226317" fill="none" stroke="rgb(0,178,0)" stroke-width="0.1"/>
  <path d="M 66.23525810675244,17.853544632226317 L 66.72919334128028,17.757670734736053" fill="none" stroke="rgb(0,178,0)" stroke-width="0.1"/>
  <path d="M 66.72919334128028,17.757670734736053 L 67.22202573192135,17.656280129338143" fill="none" stroke="rgb(0,178,0)" stroke-width="0.1"/>
  <path d="M 67.22202573192135,17.656280129338143 L 67.71369366517922,17.549385491802013" fill="none" stroke="rgb(0,178,0)" stroke-width="0.1"/>
  <path d="M 67.71369366517922,17.549385491802013 L 68.20413567313653,17.43700018600657" fill="none" stroke="rgb(0,178,0)" stroke-width="0.1"/>
  <path d="M 68.20413567313653,17.43700018600657 L 68.69329044114045,17.319138262269576" fill="none" stroke="rgb(0,178,0)" stroke-width="0.1"/>
  <path d="M 68.69329044114045,17.319138262269576 L 69.18109681546764,17.195814455590835" fill="none" stroke="rgb(0,178,0)" stroke-width="0.1"/>
  <path d="M 69.18109681546764,17.195814455590835 L 69.66749381096986,17.067044183810367" fill="none" stroke="rgb(0,178,0)" stroke-width="0.1"/>
  <path d="M 69.66749381096986,17.067044183810367 L 70.15242061869822,16.932843545680726" fill="none" stroke="rgb(0,178,0)" stroke-width="0.1"/>
  <path d="M 70.15242061869822,16.932843545680726 L 70.63581661350554,16.793229318854515" fill="none" stroke="rgb(0,178,0)" stroke-width="0.1"/>
  <path d="M 70.63581661350554,16.793229318854515 L 71.11762136162542,16.648218957786412" fill="none" stroke="rgb(0,178,0)" stroke-width="0.1"/>
  <path d="M 71.11762136162542,16.648218957786412 L 71.59777462822808,16.49783059155152" fill="none" stroke="rgb(0,178,0)" stroke-width="0.1"/>
  <path d="M 71.59777462822808,16.49783059155152 L 72.07621638495038,16.34208302157856" fill="none" stroke="rgb(0,178,0)" stroke-width="0.1"/>
  <path d="M 72.07621638495038,16.34208302157856 L 72.5528868174008,16.180995719299517" fill="none" stroke="rgb(0,178,0)" stroke-width="0.1"/>
  <path d="M 72.5528868174008,16.180995719299517 L 73.02772633263726,16.014588823715485" fill="none" stroke="rgb(0,178,0)" stroke-width="0.1"/>
  <path d="M 73.02772633263726,16.014588823715485 L 73.50067556661759,15.842883138878278" fill="none" stroke="rgb(0,178,0)" stroke-width="0.1"/>
  <path d="M 73.50067556661759,15.842883138878278 L 73.97167539162092,15.665900131290186" fill="none" stroke="rgb(0,178,0)" stroke-width="0.1"/>
  <path d="M 73.97167539162092,15.665900131290186 L 74.4406669236397,15.483661927220169" fill="none" stroke="rgb(0,178,0)" stroke-width="0.1"/>
  <path d="M 74.4406669236397,15.483661927220169 L 74.9075915297417,15.296191309937171" fill="none" stroke="rgb(0,178,0)" stroke-width="0.1"/>
  <path d="M 74.9075915297417,15.296191309937171 L 75.37239083539998,15.103511716862272" fill="none" stroke="rgb(0,178,0)" stroke-width="0.1"/>
  <path d="M 75.37239083539998,15.103511716862272 L 75.83500673179117,14.905647236638401" fill="none" stroke="rgb(0,178,0)" stroke-width="0.1"/>
  <path d="M 75.83500673179117,14.905647236638401 L 76.29538138305941,14.70262260611878" fill="none" stroke="rgb(0,178,0)" stroke-width="0.1"/>
  <path d="M 76.29538138305941,14.70262260611878 L 76.75345723354769,14.49446320727418" fill="none" stroke="rgb(0,178,0)" stroke-width="0.1"/>
  <path d="M 76.75345723354769,14.49446320727418 L 77.20917701499343,14.28119506402004" fill="none" stroke="rgb(0,178,0)" stroke-width="0.1"/>
  <path d="M 77.20917701499343,14.28119506402004 L 77.66248375368741,14.062844838962633" fill="none" stroke="rgb(0,178,0)" stroke-width="0.1"/>
  <path d="M 77.66248375368741,14.062844838962633 L 78.11332077759721,13.839439830065999" fill="none" stroke="rgb(0,178,0)" stroke-width="0.1"/>
  <path d="M 78.11332077759721,13.839439830065999 L 78.56163172345225,13.611007967239061" fill="none" stroke="rgb(0,178,0)" stroke-width="0.1"/>
  <path d="M 78.56163172345225,13.611007967239061 L 79.0073605437899,13.37757780884374" fill="none" stroke="rgb(0,178,0)" stroke-width="0.1"/>
  <path d="M 79.0073605437899,13.37757780884374 L 79.45045151396266,13.139178538124838" fill="none" stroke="rgb(0,178,0)" stroke-width="0.1"/>
  <path d="M 79.45045151396266,13.139178538124838 L 79.89084923910525,12.895839959561386" fill="none" stroke="rgb(0,178,0)" stroke-width="0.1"/>
  <path d="M 79.89084923910525,12.895839959561386 L 80.32849866105926,12.647592495140657" fill="none" stroke="rgb(0,178,0)" stroke-width="0.1"/>
  <path d="M 80.32849866105926,12.647592495140657 L 80.763345065257,12.39446718055467" fill="none" stroke="rgb(0,178,0)" stroke-width="0.1"/>
  <path d="M 80.763345065257,12.39446718055467 L 81.19533408756183,12.136495661320282" fill="none" stroke="rgb(0,178,0)" stroke-width="0.1"/>
  <path d="M 81.19533408756183,12.136495661320282 L 81.62441172106458,11.873710188822884" fill="none" stroke="rgb(0,178,0)" stroke-width="0.1"/>
  <path d="M 81.62441172106458,11.873710188822884 L 82.05052432283537,11.606143616284157" fill="none" stroke="rgb(0,178,0)" stroke-width="0.1"/>
  <path d="M 82.05052432283537,11.606143616284157 L 82.47361862063019,11.333829394655027" fill="none" stroke="rgb(0,178,0)" stroke-width="0.1"/>
  <path d="M 82.47361862063019,11.333829394655027 L 82.89364171955106,11.056801568433684" fill="none" stroke="rgb(0,178,0)" stroke-width="0.1"/>
  <path d="M 82.89364171955106,11.056801568433684 L 83.31054110865853,10.775094771409158" fill="none" stroke="rgb(0,178,0)" stroke-width="0.1"/>
  <path d="M 83.31054110865853,10.775094771409158 L 83.72426466753666,10.48874422233132" fill="none" stroke="rgb(0,178,0)" stroke-width="0.1"/>
  <path d="M 83.72426466753666,10.48874422233132 L 84.13476067280953,10.197785720508477" fill="none" stroke="rgb(0,178,0)" stroke-width="0.1"/>
  <path d="M 84.13476067280953,10.197785720508477 L 84.54197780460697,9.902255641330953" fill="none" stroke="rgb(0,178,0)" stroke-width="0.1"/>
  <path d="M 84.54197780460697,9.902255641330953 L 84.94586515298113,9.602190931724408" fill="none" stroke="rgb(0,178,0)" stroke-width="0.1"/>
  <path d="M 84.94586515298113,9.602190931724408 L 85.34637222427068,9.297629105529495" fill="none" stroke="rgb(0,178,0)" stroke-width="0.1"/>
  <path d="M 85.34637222427068,9.297629105529495 L 85.74344894741364,8.988608238813413" fill="none" stroke="rgb(0,178,0)" stroke-width="0.1"/>
  <path d="M 85.74344894741364,8.988608238813413 L 86.13704568020785,8.675166965108474" fill="none" stroke="rgb(0,178,0)" stroke-width="0.1"/>
  <path d="M 86.13704568020785,8.675166965108474 L 86.5271132155159,8.357344470582689" fill="none" stroke="rgb(0,178,0)" stroke-width="0.1"/>
  <path d="M 86.5271132155159,8.357344470582689 L 86.91360278741843,8.035180489140544" fill="none" stroke="rgb(0,178,0)" stroke-width="0.1"/>
  <path d="M 86.91360278741843,8.035180489140544 L 87.29646607730956,7.70871529745591" fill="none" stroke="rgb(0,178,0)" stroke-width="0.1"/>
  <path d="M 87.29646607730956,7.70871529745591 L 87.67565521993856,7.377989709936173" fill="none" stroke="rgb(0,178,0)" stroke-width="0.1"/>
  <path d="M 87.67565521993856,7.377989709936173 L 88.05112280939329,7.043045073619851" fill="none" stroke="rgb(0,178,0)" stroke-width="0.1"/>
  <path d="M 88.05112280939329,7.043045073619851 L 88.42282190502726,6.703923263007596" fill="none" stroke="rgb(0,178,0)" stroke-width="0.1"/>
  <path d="M 88.42282190502726,6.703923263007596 L 88.79070603732771,6.360666674826916" fill="none" stroke="rgb(0,178,0)" stroke-width="0.1"/>
  <path d="M 88.79070603732771,6.360666674826916 L 89.15472921372589,6.013318222731527" fill="none" stroke="rgb(0,178,0)" stroke-width="0.1"/>
  <path d="M 89.15472921372589,6.013318222731527 L 89.51484592434599,5.661921331936924" fill="none" stroke="rgb(0,178,0)" stroke-width="0.1"/>
  <path d="M 89.51484592434599,5.661921331936924 L 89.87101114769575,5.30651993379081" fill="none" stroke="rgb(0,178,0)" stroke-width="0.1"/>
  <path d="M 89.87101114769575,5.30651993379081 L 90.22318035629428,4.947158460281116" fill="none" stroke="rgb(0,178,0)" stroke-width="0.1"/>
  <path d="M 90.22318035629428,4.947158460281116 L 90.57130952223952,4.583881838481261" fill="none" stroke="rgb(0,178,0)" stroke-width="0.1"/>
  <path d="M 90.57130952223952,4.583881838481261 L 90.91535512271162,4.216735484932997" fill="none" stroke="rgb(0,178,0)" stroke-width="0.1"/>
  <path d="M 90.91535512271162,4.216735484932997 L 91.25527414541523,3.8457652999691163" fill="none" stroke="rgb(0,178,0)" stroke-width="0.1"/>
  <path d="M 91.25527414541523,3.8457652999691163 L 91.5910240939561,3.471017661974088" fill="none" stroke="rgb(0,178,0)" stroke-width="0.1"/>
  <path d="M 91.5910240939561,3.471017661974088 L 91.92256299315409,3.0925394215869346" fill="none" stroke="rgb(0,178,0)" stroke-width="0.1"/>
  <path d="M 91.92256299315409,3.0925394215869346 L 92.24984939429112,2.7103778958431803" fill="none" stroke="rgb(0,178,0)" stroke-width="0.1"/>
  <path d="M 92.24984939429112,2.7103778958431803 L 92.57284238029285,2.324580862259836" fill="none" stroke="rgb(0,178,0)" stroke-width="0.1"/>
  <path d="M 92.57284238029285,2.324580862259836 L 92.89150157084407,1.9351965528620667" fill="none" stroke="rgb(0,178,0)" stroke-width="0.1"/>
  <path d="M 92.89150157084407,1.9351965528620667 L 93.20578712743713,1.5422736481530137" fill="none" stroke="rgb(0,178,0)" stroke-width="0.1"/>
  <path d="M 93.20578712743713,1.5422736481530137 L 93.51565975835251,1.145861271028366" fill="none" stroke="rgb(0,178,0)" stroke-width="0.1"/>
  <path d="M 93.51565975835251,1.145861271028366 L 93.82108072357084,0.7460089806347696" fill="none" stroke="rgb(0,178,0)" stroke-width="0.1"/>
  <path d="M 93.82108072357084,0.7460089806347696 L 94.12201183961656,0.34276676617366775" fill="none" stroke="rgb(0,178,0)" stroke-width="0.1"/>
 </g>
 <g id="layerA-车位-text" inkscape:groupmode="layer" inkscape:label="A-车位-text">
  <text fill="rgb(178,88,0)" font-family="Noto Sans CJK SC" font-size="2" transform="rotate(-349.853,18.74399249999999,61.47037850000004)" x="18.74399249999999" y="61.47037850000004">
   B-247
  </text>
  <text fill="rgb(178,88,0)" font-family="Noto Sans CJK SC" font-size="2" transform="rotate(-349.853,53.02499249999994,60.943378499999994)" x="53.02499249999994" y="60.943378499999994">
   B-248
  </text>
  <text fill="rgb(178,88,0)" font-family="Noto Sans CJK SC" font-size="2" transform="rotate(-349.853,76.7579925,61.47037850000004)" x="76.7579925" y="61.47037850000004">
   B-249
  </text>
 </g>
 <g id="layerA-车位-充电桩" inkscape:groupmode="layer" inkscape:label="A-车位-充电桩">
  <path d="M 1.4879924999999048,77.22437849999994 L 1.4879924999999048,82.02437850000001" fill="none" stroke="rgb(0,178,178)" stroke-width="0.1"/>
  <path d="M 1.4879924999999048,77.22437849999994 L 2.6879924999999503,77.22437849999994" fill="none" stroke="rgb(0,178,178)" stroke-width="0.1"/>
  <path d="M 1.4879924999999048,82.02437850000001 L 2.6879924999999503,82.02437850000001" fill="none" stroke="rgb(0,178,178)" stroke-width="0.1"/>
  <path d="M 5.060992499999998,79.26437850000002 L 7.114992499999971,79.26437850000002" fill="none" stroke="rgb(0,178,178)" stroke-width="0.1"/>
  <path d="M 5.060992499999998,79.98437849999993 L 7.114992499999971,79.98437849999993" fill="none" stroke="rgb(0,178,178)" stroke-width="0.1"/>
  <path d="M 27.046992499999988,75.80637849999994 L 27.046992499999988,80.6063785" fill="none" stroke="rgb(0,178,178)" stroke-width="0.1"/>
  <path d="M 27.046992499999988,75.80637849999994 L 28.24699249999992,75.80637849999994" fill="none" stroke="rgb(0,178,178)" stroke-width="0.1"/>
  <path d="M 27.046992499999988,80.6063785 L 28.24699249999992,80.6063785" fill="none" stroke="rgb(0,178,178)" stroke-width="0.1"/>
  <path d="M 30.619992499999967,77.84637850000001 L 32.67399249999994,77.84637850000001" fill="none" stroke="rgb(0,178,178)" stroke-width="0.1"/>
  <path d="M 30.619992499999967,78.56637850000004 L 32.67399249999994,78.56637850000004" fill="none" stroke="rgb(0,178,178)" stroke-width="0.1"/>
  <path d="M 62.626992499999915,73.83137850000003 L 62.626992499999915,78.63137849999998" fill="none" stroke="rgb(0,178,178)" stroke-width="0.1"/>
  <path d="M 62.626992499999915,73.83137850000003 L 63.82699249999996,73.83137850000003" fill="none" stroke="rgb(0,178,178)" stroke-width="0.1"/>
  <path d="M 62.626992499999915,78.63137849999998 L 63.82699249999996,78.63137849999998" fill="none" stroke="rgb(0,178,178)" stroke-width="0.1"/>
  <path d="M 66.19999250000001,75.87137849999999 L 68.25499249999996,75.87137849999999" fill="none" stroke="rgb(0,178,178)" stroke-width="0.1"/>
  <path d="M 66.19999250000001,76.59137850000002 L 68.25499249999996,76.59137850000002" fill="none" stroke="rgb(0,178,178)" stroke-width="0.1"/>
  <path d="M 85.24499249999997,72.57537849999994 L 85.24499249999997,77.37537850000001" fill="none" stroke="rgb(0,178,178)" stroke-width="0.1"/>
  <path d="M 85.24499249999997,72.57537849999994 L 86.44499250000001,72.57537849999994" fill="none" stroke="rgb(0,178,178)" stroke-width="0.1"/>
  <path d="M 85.24499249999997,77.37537850000001 L 86.44499250000001,77.37537850000001" fill="none" stroke="rgb(0,178,178)" stroke-width="0.1"/>
  <path d="M 88.81799249999995,74.61537850000002 L 90.87299250000001,74.61537850000002" fill="none" stroke="rgb(0,178,178)" stroke-width="0.1"/>
  <path d="M 88.81799249999995,75.33537849999993 L 90.87299250000001,75.33537849999993" fill="none" stroke="rgb(0,178,178)" stroke-width="0.1"/>
  <path d="M 2.6879924999999503,82.02437850000001 A 2.400000000000034,2.400000000000034 0.0 1,0 2.6879924999999503,77.22437849999994" fill="none" stroke="rgb(0,178,178)" stroke-width="0.1"/>
  <path d="M 28.24699249999992,80.6063785 A 2.400000000000034,2.400000000000034 0.0 1,0 28.24699249999992,75.80637849999994" fill="none" stroke="rgb(0,178,178)" stroke-width="0.1"/>
  <path d="M 25.24699249999992,76.64637849999997 A 0.3600000000000136,0.3600000000000136 0.0 1,0 25.24699249999992,77.3663785" fill="none" stroke="rgb(0,178,178)" stroke-width="0.1"/>
  <path d="M 25.24699249999992,79.04637849999995 A 0.3600000000000136,0.3600000000000136 0.0 1,0 25.24699249999992,79.76637849999997" fill="none" stroke="rgb(0,178,178)" stroke-width="0.1"/>
  <path d="M 63.82699249999996,78.63137849999998 A 2.4,2.4 0.0 1,0 63.82699249999996,73.83137850000003" fill="none" stroke="rgb(0,178,178)" stroke-width="0.1"/>
  <path d="M 60.82699249999996,74.67137849999995 A 0.3600000000000136,0.3600000000000136 0.0 1,0 60.82699249999996,75.39137849999997" fill="none" stroke="rgb(0,178,178)" stroke-width="0.1"/>
  <path d="M 60.82699249999996,77.07137850000004 A 0.36,0.36 0.0 1,0 60.82699249999996,77.79137849999995" fill="none" stroke="rgb(0,178,178)" stroke-width="0.1"/>
  <path d="M 86.44499250000001,77.37537850000001 A 2.400000000000034,2.400000000000034 0.0 1,0 86.44499250000001,72.57537849999994" fill="none" stroke="rgb(0,178,178)" stroke-width="0.1"/>
  <path d="M 83.44499250000001,73.41537849999997 A 0.3600000000000136,0.3600000000000136 0.0 1,0 83.44499250000001,74.1353785" fill="none" stroke="rgb(0,178,178)" stroke-width="0.1"/>
  <path d="M 83.44499250000001,75.81537849999995 A 0.3600000000000136,0.3600000000000136 0.0 1,0 83.44499250000001,76.53537849999998" fill="none" stroke="rgb(0,178,178)" stroke-width="0.1"/>
  <path d="M 1.4879924999999048,78.7843785 L 0.0,78.7843785" fill="none" stroke="rgb(0,178,178)" stroke-width="0.1"/>
  <path d="M 1.4879924999999048,78.06437849999998 L 0.0,78.06437849999998" fill="none" stroke="rgb(0,178,178)" stroke-width="0.1"/>
  <path d="M 1.4879924999999048,80.46437849999995 L 0.0,80.46437849999995" fill="none" stroke="rgb(0,178,178)" stroke-width="0.1"/>
  <path d="M 1.4879924999999048,81.18437849999998 L 0.0,81.18437849999998" fill="none" stroke="rgb(0,178,178)" stroke-width="0.1"/>
  <path d="M 27.046992499999988,77.3663785 L 25.24699249999992,77.3663785" fill="none" stroke="rgb(0,178,178)" stroke-width="0.1"/>
  <path d="M 27.046992499999988,76.64637849999997 L 25.24699249999992,76.64637849999997" fill="none" stroke="rgb(0,178,178)" stroke-width="0.1"/>
  <path d="M 27.046992499999988,79.04637849999995 L 25.24699249999992,79.04637849999995" fill="none" stroke="rgb(0,178,178)" stroke-width="0.1"/>
  <path d="M 27.046992499999988,79.76637849999997 L 25.24699249999992,79.76637849999997" fill="none" stroke="rgb(0,178,178)" stroke-width="0.1"/>
  <path d="M 62.626992499999915,75.39137849999997 L 60.82699249999996,75.39137849999997" fill="none" stroke="rgb(0,178,178)" stroke-width="0.1"/>
  <path d="M 62.626992499999915,74.67137849999995 L 60.82699249999996,74.67137849999995" fill="none" stroke="rgb(0,178,178)" stroke-width="0.1"/>
  <path d="M 62.626992499999915,77.07137850000004 L 60.82699249999996,77.07137850000004" fill="none" stroke="rgb(0,178,178)" stroke-width="0.1"/>
  <path d="M 62.626992499999915,77.79137849999995 L 60.82699249999996,77.79137849999995" fill="none" stroke="rgb(0,178,178)" stroke-width="0.1"/>
  <path d="M 85.24499249999997,74.1353785 L 83.44499250000001,74.1353785" fill="none" stroke="rgb(0,178,178)" stroke-width="0.1"/>
  <path d="M 85.24499249999997,73.41537849999997 L 83.44499250000001,73.41537849999997" fill="none" stroke="rgb(0,178,178)" stroke-width="0.1"/>
  <path d="M 85.24499249999997,75.81537849999995 L 83.44499250000001,75.81537849999995" fill="none" stroke="rgb(0,178,178)" stroke-width="0.1"/>
  <path d="M 85.24499249999997,76.53537849999998 L 83.44499250000001,76.53537849999998" fill="none" stroke="rgb(0,178,178)" stroke-width="0.1"/>
  <path d="M 8.087992499999928,79.62437850000003 L 8.066377431255091,79.11554295314693" fill="none" stroke="rgb(0,178,178)" stroke-width="0.1"/>
  <path d="M 8.066377431255091,79.11554295314693 L 8.00168796208618,78.6103735780689" fill="none" stroke="rgb(0,178,178)" stroke-width="0.1"/>
  <path d="M 8.00168796208618,78.6103735780689 L 7.8943901816008974,78.1125101316893" fill="none" stroke="rgb(0,178,178)" stroke-width="0.1"/>
  <path d="M 7.8943901816008974,78.1125101316893 L 7.745257172766401,77.62553973154763" fill="none" stroke="rgb(0,178,178)" stroke-width="0.1"/>
  <path d="M 7.745257172766401,77.62553973154763 L 7.555363442328712,77.15297101053613" fill="none" stroke="rgb(0,178,178)" stroke-width="0.1"/>
  <path d="M 7.555363442328712,77.15297101053613 L 7.326077178967012,76.69820883711827" fill="none" stroke="rgb(0,178,178)" stroke-width="0.1"/>
  <path d="M 7.326077178967012,76.69820883711827 L 7.059050395463032,76.26452978317445" fill="none" stroke="rgb(0,178,178)" stroke-width="0.1"/>
  <path d="M 7.059050395463032,76.26452978317445 L 6.756207025910612,75.85505851622622" fill="none" stroke="rgb(0,178,178)" stroke-width="0.1"/>
  <path d="M 6.756207025910612,75.85505851622622 L 6.419729063727118,75.4727452861348" fill="none" stroke="rgb(0,178,178)" stroke-width="0.1"/>
  <path d="M 6.419729063727118,75.4727452861348 L 6.052040840340396,75.12034466848365" fill="none" stroke="rgb(0,178,178)" stroke-width="0.1"/>
  <path d="M 6.052040840340396,75.12034466848365 L 5.655791557825637,74.80039571779844" fill="none" stroke="rgb(0,178,178)" stroke-width="0.1"/>
  <path d="M 5.655791557825637,74.80039571779844 L 5.233836201343365,74.51520367360013" fill="none" stroke="rgb(0,178,178)" stroke-width="0.1"/>
  <path d="M 5.233836201343365,74.51520367360013 L 4.789214968905981,74.26682335110263" fill="none" stroke="rgb(0,178,178)" stroke-width="0.1"/>
  <path d="M 4.789214968905981,74.26682335110263 L 4.3251313666818305,74.057044336221" fill="none" stroke="rgb(0,178,178)" stroke-width="0.1"/>
  <path d="M 4.3251313666818305,74.057044336221 L 3.8449291276592703,73.88737809156453" fill="none" stroke="rgb(0,178,178)" stroke-width="0.1"/>
  <path d="M 3.8449291276592703,73.88737809156453 L 3.3520681199743194,73.75904706631388" fill="none" stroke="rgb(0,178,178)" stroke-width="0.1"/>
  <path d="M 3.3520681199743194,73.75904706631388 L 2.85009941848125,73.67297588844679" fill="none" stroke="rgb(0,178,178)" stroke-width="0.1"/>
  <path d="M 2.85009941848125,73.67297588844679 L 2.342639719176873,73.62978470277199" fill="none" stroke="rgb(0,178,178)" stroke-width="0.1"/>
  <path d="M 2.342639719176873,73.62978470277199 L 1.8333452808229822,73.62978470277199" fill="none" stroke="rgb(0,178,178)" stroke-width="0.1"/>
  <path d="M 1.8333452808229822,73.62978470277199 L 1.3258855815186052,73.67297588844679" fill="none" stroke="rgb(0,178,178)" stroke-width="0.1"/>
  <path d="M 1.3258855815186052,73.67297588844679 L 0.8239168800255356,73.75904706631388" fill="none" stroke="rgb(0,178,178)" stroke-width="0.1"/>
  <path d="M 0.8239168800255356,73.75904706631388 L 0.33105587234058476,73.88737809156453" fill="none" stroke="rgb(0,178,178)" stroke-width="0.1"/>
  <path d="M 0.33105587234058476,85.36137890843554 L 0.8239168800255356,85.48970993368619" fill="none" stroke="rgb(0,178,178)" stroke-width="0.1"/>
  <path d="M 0.8239168800255356,85.48970993368619 L 1.3258855815186052,85.57578111155328" fill="none" stroke="rgb(0,178,178)" stroke-width="0.1"/>
  <path d="M 1.3258855815186052,85.57578111155328 L 1.8333452808229822,85.61897229722808" fill="none" stroke="rgb(0,178,178)" stroke-width="0.1"/>
  <path d="M 1.8333452808229822,85.61897229722808 L 2.342639719176873,85.61897229722808" fill="none" stroke="rgb(0,178,178)" stroke-width="0.1"/>
  <path d="M 2.342639719176873,85.61897229722808 L 2.85009941848125,85.57578111155328" fill="none" stroke="rgb(0,178,178)" stroke-width="0.1"/>
  <path d="M 2.85009941848125,85.57578111155328 L 3.3520681199743194,85.48970993368619" fill="none" stroke="rgb(0,178,178)" stroke-width="0.1"/>
  <path d="M 3.3520681199743194,85.48970993368619 L 3.8449291276592703,85.36137890843554" fill="none" stroke="rgb(0,178,178)" stroke-width="0.1"/>
  <path d="M 3.8449291276592703,85.36137890843554 L 4.3251313666818305,85.19171266377907" fill="none" stroke="rgb(0,178,178)" stroke-width="0.1"/>
  <path d="M 4.3251313666818305,85.19171266377907 L 4.789214968905981,84.98193364889744" fill="none" stroke="rgb(0,178,178)" stroke-width="0.1"/>
  <path d="M 4.789214968905981,84.98193364889744 L 5.233836201343365,84.73355332639994" fill="none" stroke="rgb(0,178,178)" stroke-width="0.1"/>
  <path d="M 5.233836201343365,84.73355332639994 L 5.655791557825637,84.44836128220163" fill="none" stroke="rgb(0,178,178)" stroke-width="0.1"/>
  <path d="M 5.655791557825637,84.44836128220163 L 6.052040840340396,84.12841233151642" fill="none" stroke="rgb(0,178,178)" stroke-width="0.1"/>
  <path d="M 6.052040840340396,84.12841233151642 L 6.419729063727118,83.77601171386527" fill="none" stroke="rgb(0,178,178)" stroke-width="0.1"/>
  <path d="M 6.419729063727118,83.77601171386527 L 6.756207025910612,83.39369848377385" fill="none" stroke="rgb(0,178,178)" stroke-width="0.1"/>
  <path d="M 6.756207025910612,83.39369848377385 L 7.059050395463032,82.98422721682562" fill="none" stroke="rgb(0,178,178)" stroke-width="0.1"/>
  <path d="M 7.059050395463032,82.98422721682562 L 7.326077178967012,82.5505481628818" fill="none" stroke="rgb(0,178,178)" stroke-width="0.1"/>
  <path d="M 7.326077178967012,82.5505481628818 L 7.555363442328712,82.09578598946393" fill="none" stroke="rgb(0,178,178)" stroke-width="0.1"/>
  <path d="M 7.555363442328712,82.09578598946393 L 7.745257172766401,81.62321726845244" fill="none" stroke="rgb(0,178,178)" stroke-width="0.1"/>
  <path d="M 7.745257172766401,81.62321726845244 L 7.8943901816008974,81.13624686831076" fill="none" stroke="rgb(0,178,178)" stroke-width="0.1"/>
  <path d="M 7.8943901816008974,81.13624686831076 L 8.00168796208618,80.63838342193117" fill="none" stroke="rgb(0,178,178)" stroke-width="0.1"/>
  <path d="M 8.00168796208618,80.63838342193117 L 8.066377431255091,80.13321404685314" fill="none" stroke="rgb(0,178,178)" stroke-width="0.1"/>
  <path d="M 8.066377431255091,80.13321404685314 L 8.087992499999928,79.62437850000003" fill="none" stroke="rgb(0,178,178)" stroke-width="0.1"/>
  <path d="M 7.127992500000005,79.62437850000003 L 7.102133889895072,79.11449015718335" fill="none" stroke="rgb(0,178,178)" stroke-width="0.1"/>
  <path d="M 7.102133889895072,79.11449015718335 L 7.024823403912478,78.60983395875314" fill="none" stroke="rgb(0,178,178)" stroke-width="0.1"/>
  <path d="M 7.024823403912478,78.60983395875314 L 6.896854352256241,78.11558836021436" fill="none" stroke="rgb(0,178,178)" stroke-width="0.1"/>
  <path d="M 6.896854352256241,78.11558836021436 L 6.719539870565882,77.63682499022889" fill="none" stroke="rgb(0,178,178)" stroke-width="0.1"/>
  <path d="M 6.719539870565882,77.63682499022889 L 6.49469944536861,77.17845660884336" fill="none" stroke="rgb(0,178,178)" stroke-width="0.1"/>
  <path d="M 6.49469944536861,77.17845660884336 L 6.224640243684576,76.74518669592226" fill="none" stroke="rgb(0,178,178)" stroke-width="0.1"/>
  <path d="M 6.224640243684576,76.74518669592226 L 5.9121334383715975,76.34146118707997" fill="none" stroke="rgb(0,178,178)" stroke-width="0.1"/>
  <path d="M 5.9121334383715975,76.34146118707997 L 5.560385772141444,75.97142285236521" fill="none" stroke="rgb(0,178,178)" stroke-width="0.1"/>
  <path d="M 5.560385772141444,75.97142285236521 L 5.173006652040158,75.638868785834" fill="none" stroke="rgb(0,178,178)" stroke-width="0.1"/>
  <path d="M 5.173006652040158,75.638868785834 L 4.753971112047793,75.34721144222647" fill="none" stroke="rgb(0,178,178)" stroke-width="0.1"/>
  <path d="M 4.753971112047793,75.34721144222647 L 4.307579023850394,75.09944362056353" fill="none" stroke="rgb(0,178,178)" stroke-width="0.1"/>
  <path d="M 4.307579023850394,75.09944362056353 L 3.838410974337876,74.8981077539787" fill="none" stroke="rgb(0,178,178)" stroke-width="0.1"/>
  <path d="M 3.838410974337876,74.8981077539787 L 3.3512812625839388,74.74526982091436" fill="none" stroke="rgb(0,178,178)" stroke-width="0.1"/>
  <path d="M 3.3512812625839388,74.74526982091436 L 2.851188498622946,74.6424981453863" fill="none" stroke="rgb(0,178,178)" stroke-width="0.1"/>
  <path d="M 2.851188498622946,74.6424981453863 L 2.3432643109470064,74.59084730385791" fill="none" stroke="rgb(0,178,178)" stroke-width="0.1"/>
  <path d="M 2.3432643109470064,74.59084730385791 L 1.8327206890528487,74.59084730385791" fill="none" stroke="rgb(0,178,178)" stroke-width="0.1"/>
  <path d="M 1.8327206890528487,74.59084730385791 L 1.324796501376909,74.6424981453863" fill="none" stroke="rgb(0,178,178)" stroke-width="0.1"/>
  <path d="M 1.324796501376909,74.6424981453863 L 0.8247037374159163,74.74526982091436" fill="none" stroke="rgb(0,178,178)" stroke-width="0.1"/>
  <path d="M 0.8247037374159163,74.74526982091436 L 0.33757402566197925,74.8981077539787" fill="none" stroke="rgb(0,178,178)" stroke-width="0.1"/>
  <path d="M 0.33757402566197925,84.35064924602136 L 0.8247037374159163,84.50348717908571" fill="none" stroke="rgb(0,178,178)" stroke-width="0.1"/>
  <path d="M 0.8247037374159163,84.50348717908571 L 1.324796501376909,84.60625885461377" fill="none" stroke="rgb(0,178,178)" stroke-width="0.1"/>
  <path d="M 1.324796501376909,84.60625885461377 L 1.8327206890528487,84.65790969614216" fill="none" stroke="rgb(0,178,178)" stroke-width="0.1"/>
  <path d="M 1.8327206890528487,84.65790969614216 L 2.3432643109470064,84.65790969614216" fill="none" stroke="rgb(0,178,178)" stroke-width="0.1"/>
  <path d="M 2.3432643109470064,84.65790969614216 L 2.851188498622946,84.60625885461377" fill="none" stroke="rgb(0,178,178)" stroke-width="0.1"/>
  <path d="M 2.851188498622946,84.60625885461377 L 3.3512812625839388,84.50348717908571" fill="none" stroke="rgb(0,178,178)" stroke-width="0.1"/>
  <path d="M 3.3512812625839388,84.50348717908571 L 3.838410974337876,84.35064924602136" fill="none" stroke="rgb(0,178,178)" stroke-width="0.1"/>
  <path d="M 3.838410974337876,84.35064924602136 L 4.307579023850394,84.14931337943653" fill="none" stroke="rgb(0,178,178)" stroke-width="0.1"/>
  <path d="M 4.307579023850394,84.14931337943653 L 4.753971112047793,83.9015455577736" fill="none" stroke="rgb(0,178,178)" stroke-width="0.1"/>
  <path d="M 4.753971112047793,83.9015455577736 L 5.173006652040158,83.60988821416606" fill="none" stroke="rgb(0,178,178)" stroke-width="0.1"/>
  <path d="M 5.173006652040158,83.60988821416606 L 5.560385772141444,83.27733414763486" fill="none" stroke="rgb(0,178,178)" stroke-width="0.1"/>
  <path d="M 5.560385772141444,83.27733414763486 L 5.9121334383715975,82.9072958129201" fill="none" stroke="rgb(0,178,178)" stroke-width="0.1"/>
  <path d="M 5.9121334383715975,82.9072958129201 L 6.224640243684576,82.50357030407781" fill="none" stroke="rgb(0,178,178)" stroke-width="0.1"/>
  <path d="M 6.224640243684576,82.50357030407781 L 6.49469944536861,82.0703003911567" fill="none" stroke="rgb(0,178,178)" stroke-width="0.1"/>
  <path d="M 6.49469944536861,82.0703003911567 L 6.719539870565882,81.61193200977118" fill="none" stroke="rgb(0,178,178)" stroke-width="0.1"/>
  <path d="M 6.719539870565882,81.61193200977118 L 6.896854352256241,81.13316863978582" fill="none" stroke="rgb(0,178,178)" stroke-width="0.1"/>
  <path d="M 6.896854352256241,81.13316863978582 L 7.024823403912478,80.63892304124693" fill="none" stroke="rgb(0,178,178)" stroke-width="0.1"/>
  <path d="M 7.024823403912478,80.63892304124693 L 7.102133889895072,80.13426684281671" fill="none" stroke="rgb(0,178,178)" stroke-width="0.1"/>
  <path d="M 7.102133889895072,80.13426684281671 L 7.127992500000005,79.62437850000003" fill="none" stroke="rgb(0,178,178)" stroke-width="0.1"/>
  <path d="M 2.6879924999999503,82.02437850000001 L 1.4879924999999048,82.02437850000001" fill="none" stroke="rgb(0,178,178)" stroke-width="0.1"/>
  <path d="M 1.4879924999999048,82.02437850000001 L 1.4879924999999048,81.18437849999998" fill="none" stroke="rgb(0,178,178)" stroke-width="0.1"/>
  <path d="M 1.4879924999999048,81.18437849999998 L 0.0,81.18437849999998" fill="none" stroke="rgb(0,178,178)" stroke-width="0.1"/>
  <path d="M 0.0,80.46437849999995 L 1.4879924999999048,80.46437849999995" fill="none" stroke="rgb(0,178,178)" stroke-width="0.1"/>
  <path d="M 1.4879924999999048,80.46437849999995 L 1.4879924999999048,78.7843785" fill="none" stroke="rgb(0,178,178)" stroke-width="0.1"/>
  <path d="M 1.4879924999999048,78.7843785 L 0.0,78.7843785" fill="none" stroke="rgb(0,178,178)" stroke-width="0.1"/>
  <path d="M 0.0,78.06437849999998 L 1.4879924999999048,78.06437849999998" fill="none" stroke="rgb(0,178,178)" stroke-width="0.1"/>
  <path d="M 1.4879924999999048,78.06437849999998 L 1.4879924999999048,77.22437849999994" fill="none" stroke="rgb(0,178,178)" stroke-width="0.1"/>
  <path d="M 1.4879924999999048,77.22437849999994 L 2.6879924999999503,77.22437849999994" fill="none" stroke="rgb(0,178,178)" stroke-width="0.1"/>
  <path d="M 2.6879924999999503,82.02437850000001 A 2.400000000000034,2.400000000000034 0.0 1,0 2.6879924999999503,77.22437849999994" fill="none" stroke="rgb(0,178,178)" stroke-width="0.1"/>
  <path d="M 7.114992499999971,79.26437850000002 L 5.060992499999998,79.26437850000002" fill="none" stroke="rgb(0,178,178)" stroke-width="0.1"/>
  <path d="M 5.060992499999998,79.98437849999993 A 2.4,2.4 0.0 0,0 5.060992499999998,79.26437850000002" fill="none" stroke="rgb(0,178,178)" stroke-width="0.1"/>
  <path d="M 5.060992499999998,79.98437849999993 L 7.114992499999971,79.98437849999993" fill="none" stroke="rgb(0,178,178)" stroke-width="0.1"/>
  <path d="M 7.114992499999971,79.98437849999993 A 5.04,5.04 0.0 0,0 7.127992500000005,79.62437850000003" fill="none" stroke="rgb(0,178,178)" stroke-width="0.1"/>
  <path d="M 7.127992500000005,79.62437850000003 A 5.04,5.04 0.0 0,0 7.114992499999971,79.26437850000002" fill="none" stroke="rgb(0,178,178)" stroke-width="0.1"/>
  <path d="M 2.6879924999999503,77.22437849999994 L 1.4879924999999048,77.22437849999994" fill="none" stroke="rgb(0,178,178)" stroke-width="0.1"/>
  <path d="M 1.4879924999999048,77.22437849999994 L 1.4879924999999048,82.02437850000001" fill="none" stroke="rgb(0,178,178)" stroke-width="0.1"/>
  <path d="M 1.4879924999999048,82.02437850000001 L 2.6879924999999503,82.02437850000001" fill="none" stroke="rgb(0,178,178)" stroke-width="0.1"/>
  <path d="M 2.6879924999999503,82.02437850000001 A 2.400000000000034,2.400000000000034 0.0 1,0 2.6879924999999503,77.22437849999994" fill="none" stroke="rgb(0,178,178)" stroke-width="0.1"/>
  <path d="M 1.4879924999999048,80.46437849999995 L 0.0,80.46437849999995" fill="none" stroke="rgb(0,178,178)" stroke-width="0.1"/>
  <path d="M 0.0,81.18437849999998 L 1.4879924999999048,81.18437849999998" fill="none" stroke="rgb(0,178,178)" stroke-width="0.1"/>
  <path d="M 1.4879924999999048,81.18437849999998 L 1.4879924999999048,80.46437849999995" fill="none" stroke="rgb(0,178,178)" stroke-width="0.1"/>
  <path d="M 1.4879924999999048,78.06437849999998 L 0.0,78.06437849999998" fill="none" stroke="rgb(0,178,178)" stroke-width="0.1"/>
  <path d="M 0.0,78.7843785 L 1.4879924999999048,78.7843785" fill="none" stroke="rgb(0,178,178)" stroke-width="0.1"/>
  <path d="M 1.4879924999999048,78.7843785 L 1.4879924999999048,78.06437849999998" fill="none" stroke="rgb(0,178,178)" stroke-width="0.1"/>
  <path d="M 33.64699250000001,78.20637850000003 A 6.0,6.0 0.0 1,0 21.64699250000001,78.20637850000003" fill="none" stroke="rgb(0,178,178)" stroke-width="0.1"/>
  <path d="M 21.64699250000001,78.20637850000003 A 6.0,6.0 0.0 1,0 33.64699250000001,78.20637850000003" fill="none" stroke="rgb(0,178,178)" stroke-width="0.1"/>
  <path d="M 32.686992499999974,78.20637850000003 A 5.0400000000000205,5.0400000000000205 0.0 1,0 22.606992499999933,78.20637850000003" fill="none" stroke="rgb(0,178,178)" stroke-width="0.1"/>
  <path d="M 22.606992499999933,78.20637850000003 A 5.0400000000000205,5.0400000000000205 0.0 1,0 32.686992499999974,78.20637850000003" fill="none" stroke="rgb(0,178,178)" stroke-width="0.1"/>
  <path d="M 28.24699249999992,80.6063785 L 27.046992499999988,80.6063785" fill="none" stroke="rgb(0,178,178)" stroke-width="0.1"/>
  <path d="M 27.046992499999988,80.6063785 L 27.046992499999988,79.76637849999997" fill="none" stroke="rgb(0,178,178)" stroke-width="0.1"/>
  <path d="M 27.046992499999988,79.76637849999997 L 25.24699249999992,79.76637849999997" fill="none" stroke="rgb(0,178,178)" stroke-width="0.1"/>
  <path d="M 25.24699249999992,79.04637849999995 A 0.3600000000000136,0.3600000000000136 0.0 1,0 25.24699249999992,79.76637849999997" fill="none" stroke="rgb(0,178,178)" stroke-width="0.1"/>
  <path d="M 25.24699249999992,79.04637849999995 L 27.046992499999988,79.04637849999995" fill="none" stroke="rgb(0,178,178)" stroke-width="0.1"/>
  <path d="M 27.046992499999988,79.04637849999995 L 27.046992499999988,77.3663785" fill="none" stroke="rgb(0,178,178)" stroke-width="0.1"/>
  <path d="M 27.046992499999988,77.3663785 L 25.24699249999992,77.3663785" fill="none" stroke="rgb(0,178,178)" stroke-width="0.1"/>
  <path d="M 25.24699249999992,76.64637849999997 A 0.3600000000000136,0.3600000000000136 0.0 1,0 25.24699249999992,77.3663785" fill="none" stroke="rgb(0,178,178)" stroke-width="0.1"/>
  <path d="M 25.24699249999992,76.64637849999997 L 27.046992499999988,76.64637849999997" fill="none" stroke="rgb(0,178,178)" stroke-width="0.1"/>
  <path d="M 27.046992499999988,76.64637849999997 L 27.046992499999988,75.80637849999994" fill="none" stroke="rgb(0,178,178)" stroke-width="0.1"/>
  <path d="M 27.046992499999988,75.80637849999994 L 28.24699249999992,75.80637849999994" fill="none" stroke="rgb(0,178,178)" stroke-width="0.1"/>
  <path d="M 28.24699249999992,80.6063785 A 2.400000000000034,2.400000000000034 0.0 1,0 28.24699249999992,75.80637849999994" fill="none" stroke="rgb(0,178,178)" stroke-width="0.1"/>
  <path d="M 32.67399249999994,77.84637850000001 L 30.619992499999967,77.84637850000001" fill="none" stroke="rgb(0,178,178)" stroke-width="0.1"/>
  <path d="M 30.619992499999967,78.56637850000004 A 2.4,2.4 0.0 0,0 30.619992499999967,77.84637850000001" fill="none" stroke="rgb(0,178,178)" stroke-width="0.1"/>
  <path d="M 30.619992499999967,78.56637850000004 L 32.67399249999994,78.56637850000004" fill="none" stroke="rgb(0,178,178)" stroke-width="0.1"/>
  <path d="M 32.67399249999994,78.56637850000004 A 5.04,5.04 0.0 0,0 32.686992499999974,78.20637850000003" fill="none" stroke="rgb(0,178,178)" stroke-width="0.1"/>
  <path d="M 32.686992499999974,78.20637850000003 A 5.04,5.04 0.0 0,0 32.67399249999994,77.84637850000001" fill="none" stroke="rgb(0,178,178)" stroke-width="0.1"/>
  <path d="M 28.24699249999992,75.80637849999994 L 27.046992499999988,75.80637849999994" fill="none" stroke="rgb(0,178,178)" stroke-width="0.1"/>
  <path d="M 27.046992499999988,75.80637849999994 L 27.046992499999988,80.6063785" fill="none" stroke="rgb(0,178,178)" stroke-width="0.1"/>
  <path d="M 27.046992499999988,80.6063785 L 28.24699249999992,80.6063785" fill="none" stroke="rgb(0,178,178)" stroke-width="0.1"/>
  <path d="M 28.24699249999992,80.6063785 A 2.400000000000034,2.400000000000034 0.0 1,0 28.24699249999992,75.80637849999994" fill="none" stroke="rgb(0,178,178)" stroke-width="0.1"/>
  <path d="M 27.046992499999988,79.04637849999995 L 25.24699249999992,79.04637849999995" fill="none" stroke="rgb(0,178,178)" stroke-width="0.1"/>
  <path d="M 25.24699249999992,79.04637849999995 A 0.3600000000000136,0.3600000000000136 0.0 1,0 25.24699249999992,79.76637849999997" fill="none" stroke="rgb(0,178,178)" stroke-width="0.1"/>
  <path d="M 25.24699249999992,79.76637849999997 L 27.046992499999988,79.76637849999997" fill="none" stroke="rgb(0,178,178)" stroke-width="0.1"/>
  <path d="M 27.046992499999988,79.76637849999997 L 27.046992499999988,79.04637849999995" fill="none" stroke="rgb(0,178,178)" stroke-width="0.1"/>
  <path d="M 27.046992499999988,76.64637849999997 L 25.24699249999992,76.64637849999997" fill="none" stroke="rgb(0,178,178)" stroke-width="0.1"/>
  <path d="M 25.24699249999992,76.64637849999997 A 0.3600000000000136,0.3600000000000136 0.0 1,0 25.24699249999992,77.3663785" fill="none" stroke="rgb(0,178,178)" stroke-width="0.1"/>
  <path d="M 25.24699249999992,77.3663785 L 27.046992499999988,77.3663785" fill="none" stroke="rgb(0,178,178)" stroke-width="0.1"/>
  <path d="M 27.046992499999988,77.3663785 L 27.046992499999988,76.64637849999997" fill="none" stroke="rgb(0,178,178)" stroke-width="0.1"/>
  <path d="M 69.22699249999994,76.2313785 A 6.0,6.0 0.0 1,0 57.22699249999994,76.2313785" fill="none" stroke="rgb(0,178,178)" stroke-width="0.1"/>
  <path d="M 57.22699249999994,76.2313785 A 6.0,6.0 0.0 1,0 69.22699249999994,76.2313785" fill="none" stroke="rgb(0,178,178)" stroke-width="0.1"/>
  <path d="M 68.26699250000001,76.2313785 A 5.0400000000000205,5.0400000000000205 0.0 1,0 58.186992499999974,76.2313785" fill="none" stroke="rgb(0,178,178)" stroke-width="0.1"/>
  <path d="M 58.186992499999974,76.2313785 A 5.0400000000000205,5.0400000000000205 0.0 1,0 68.26699250000001,76.2313785" fill="none" stroke="rgb(0,178,178)" stroke-width="0.1"/>
  <path d="M 63.82699249999996,78.63137849999998 L 62.626992499999915,78.63137849999998" fill="none" stroke="rgb(0,178,178)" stroke-width="0.1"/>
  <path d="M 62.626992499999915,78.63137849999998 L 62.626992499999915,77.79137849999995" fill="none" stroke="rgb(0,178,178)" stroke-width="0.1"/>
  <path d="M 62.626992499999915,77.79137849999995 L 60.82699249999996,77.79137849999995" fill="none" stroke="rgb(0,178,178)" stroke-width="0.1"/>
  <path d="M 60.82699249999996,77.07137850000004 A 0.36,0.36 0.0 1,0 60.82699249999996,77.79137849999995" fill="none" stroke="rgb(0,178,178)" stroke-width="0.1"/>
  <path d="M 60.82699249999996,77.07137850000004 L 62.626992499999915,77.07137850000004" fill="none" stroke="rgb(0,178,178)" stroke-width="0.1"/>
  <path d="M 62.626992499999915,77.07137850000004 L 62.626992499999915,75.39137849999997" fill="none" stroke="rgb(0,178,178)" stroke-width="0.1"/>
  <path d="M 62.626992499999915,75.39137849999997 L 60.82699249999996,75.39137849999997" fill="none" stroke="rgb(0,178,178)" stroke-width="0.1"/>
  <path d="M 60.82699249999996,74.67137849999995 A 0.3600000000000136,0.3600000000000136 0.0 1,0 60.82699249999996,75.39137849999997" fill="none" stroke="rgb(0,178,178)" stroke-width="0.1"/>
  <path d="M 60.82699249999996,74.67137849999995 L 62.626992499999915,74.67137849999995" fill="none" stroke="rgb(0,178,178)" stroke-width="0.1"/>
  <path d="M 62.626992499999915,74.67137849999995 L 62.626992499999915,73.83137850000003" fill="none" stroke="rgb(0,178,178)" stroke-width="0.1"/>
  <path d="M 62.626992499999915,73.83137850000003 L 63.82699249999996,73.83137850000003" fill="none" stroke="rgb(0,178,178)" stroke-width="0.1"/>
  <path d="M 63.82699249999996,78.63137849999998 A 2.4,2.4 0.0 1,0 63.82699249999996,73.83137850000003" fill="none" stroke="rgb(0,178,178)" stroke-width="0.1"/>
  <path d="M 68.25499249999996,75.87137849999999 L 66.19999250000001,75.87137849999999" fill="none" stroke="rgb(0,178,178)" stroke-width="0.1"/>
  <path d="M 66.19999250000001,76.59137850000002 A 2.4,2.4 0.0 0,0 66.19999250000001,75.87137849999999" fill="none" stroke="rgb(0,178,178)" stroke-width="0.1"/>
  <path d="M 66.19999250000001,76.59137850000002 L 68.25499249999996,76.59137850000002" fill="none" stroke="rgb(0,178,178)" stroke-width="0.1"/>
  <path d="M 68.25499249999996,76.59137850000002 A 5.04,5.04 0.0 0,0 68.26699250000001,76.2313785" fill="none" stroke="rgb(0,178,178)" stroke-width="0.1"/>
  <path d="M 68.26699250000001,76.2313785 A 5.04,5.04 0.0 0,0 68.25499249999996,75.87137849999999" fill="none" stroke="rgb(0,178,178)" stroke-width="0.1"/>
  <path d="M 63.82699249999996,73.83137850000003 L 62.626992499999915,73.83137850000003" fill="none" stroke="rgb(0,178,178)" stroke-width="0.1"/>
  <path d="M 62.626992499999915,73.83137850000003 L 62.626992499999915,78.63137849999998" fill="none" stroke="rgb(0,178,178)" stroke-width="0.1"/>
  <path d="M 62.626992499999915,78.63137849999998 L 63.82699249999996,78.63137849999998" fill="none" stroke="rgb(0,178,178)" stroke-width="0.1"/>
  <path d="M 63.82699249999996,78.63137849999998 A 2.4,2.4 0.0 1,0 63.82699249999996,73.83137850000003" fill="none" stroke="rgb(0,178,178)" stroke-width="0.1"/>
  <path d="M 62.626992499999915,77.07137850000004 L 60.82699249999996,77.07137850000004" fill="none" stroke="rgb(0,178,178)" stroke-width="0.1"/>
  <path d="M 60.82699249999996,77.07137850000004 A 0.36,0.36 0.0 1,0 60.82699249999996,77.79137849999995" fill="none" stroke="rgb(0,178,178)" stroke-width="0.1"/>
  <path d="M 60.82699249999996,77.79137849999995 L 62.626992499999915,77.79137849999995" fill="none" stroke="rgb(0,178,178)" stroke-width="0.1"/>
  <path d="M 62.626992499999915,77.79137849999995 L 62.626992499999915,77.07137850000004" fill="none" stroke="rgb(0,178,178)" stroke-width="0.1"/>
  <path d="M 62.626992499999915,74.67137849999995 L 60.82699249999996,74.67137849999995" fill="none" stroke="rgb(0,178,178)" stroke-width="0.1"/>
  <path d="M 60.82699249999996,74.67137849999995 A 0.3600000000000136,0.3600000000000136 0.0 1,0 60.82699249999996,75.39137849999997" fill="none" stroke="rgb(0,178,178)" stroke-width="0.1"/>
  <path d="M 60.82699249999996,75.39137849999997 L 62.626992499999915,75.39137849999997" fill="none" stroke="rgb(0,178,178)" stroke-width="0.1"/>
  <path d="M 62.626992499999915,75.39137849999997 L 62.626992499999915,74.67137849999995" fill="none" stroke="rgb(0,178,178)" stroke-width="0.1"/>
  <path d="M 91.84499249999999,74.97537850000003 A 6.0,6.0 0.0 1,0 79.84499249999999,74.97537850000003" fill="none" stroke="rgb(0,178,178)" stroke-width="0.1"/>
  <path d="M 79.84499249999999,74.97537850000003 A 6.0,6.0 0.0 1,0 91.84499249999999,74.97537850000003" fill="none" stroke="rgb(0,178,178)" stroke-width="0.1"/>
  <path d="M 90.88499249999995,74.97537850000003 A 5.0400000000000205,5.0400000000000205 0.0 1,0 80.80499249999991,74.97537850000003" fill="none" stroke="rgb(0,178,178)" stroke-width="0.1"/>
  <path d="M 80.80499249999991,74.97537850000003 A 5.0400000000000205,5.0400000000000205 0.0 1,0 90.88499249999995,74.97537850000003" fill="none" stroke="rgb(0,178,178)" stroke-width="0.1"/>
  <path d="M 86.44499250000001,77.37537850000001 L 85.24499249999997,77.37537850000001" fill="none" stroke="rgb(0,178,178)" stroke-width="0.1"/>
  <path d="M 85.24499249999997,77.37537850000001 L 85.24499249999997,76.53537849999998" fill="none" stroke="rgb(0,178,178)" stroke-width="0.1"/>
  <path d="M 85.24499249999997,76.53537849999998 L 83.44499250000001,76.53537849999998" fill="none" stroke="rgb(0,178,178)" stroke-width="0.1"/>
  <path d="M 83.44499250000001,75.81537849999995 A 0.3600000000000136,0.3600000000000136 0.0 1,0 83.44499250000001,76.53537849999998" fill="none" stroke="rgb(0,178,178)" stroke-width="0.1"/>
  <path d="M 83.44499250000001,75.81537849999995 L 85.24499249999997,75.81537849999995" fill="none" stroke="rgb(0,178,178)" stroke-width="0.1"/>
  <path d="M 85.24499249999997,75.81537849999995 L 85.24499249999997,74.1353785" fill="none" stroke="rgb(0,178,178)" stroke-width="0.1"/>
  <path d="M 85.24499249999997,74.1353785 L 83.44499250000001,74.1353785" fill="none" stroke="rgb(0,178,178)" stroke-width="0.1"/>
  <path d="M 83.44499250000001,73.41537849999997 A 0.3600000000000136,0.3600000000000136 0.0 1,0 83.44499250000001,74.1353785" fill="none" stroke="rgb(0,178,178)" stroke-width="0.1"/>
  <path d="M 83.44499250000001,73.41537849999997 L 85.24499249999997,73.41537849999997" fill="none" stroke="rgb(0,178,178)" stroke-width="0.1"/>
  <path d="M 85.24499249999997,73.41537849999997 L 85.24499249999997,72.57537849999994" fill="none" stroke="rgb(0,178,178)" stroke-width="0.1"/>
  <path d="M 85.24499249999997,72.57537849999994 L 86.44499250000001,72.57537849999994" fill="none" stroke="rgb(0,178,178)" stroke-width="0.1"/>
  <path d="M 86.44499250000001,77.37537850000001 A 2.400000000000034,2.400000000000034 0.0 1,0 86.44499250000001,72.57537849999994" fill="none" stroke="rgb(0,178,178)" stroke-width="0.1"/>
  <path d="M 90.87299250000001,74.61537850000002 L 88.81799249999995,74.61537850000002" fill="none" stroke="rgb(0,178,178)" stroke-width="0.1"/>
  <path d="M 88.81799249999995,75.33537849999993 A 2.4,2.4 0.0 0,0 88.81799249999995,74.61537850000002" fill="none" stroke="rgb(0,178,178)" stroke-width="0.1"/>
  <path d="M 88.81799249999995,75.33537849999993 L 90.87299250000001,75.33537849999993" fill="none" stroke="rgb(0,178,178)" stroke-width="0.1"/>
  <path d="M 90.87299250000001,75.33537849999993 A 5.04,5.04 0.0 0,0 90.88499249999995,74.97537850000003" fill="none" stroke="rgb(0,178,178)" stroke-width="0.1"/>
  <path d="M 90.88499249999995,74.97537850000003 A 5.04,5.04 0.0 0,0 90.87299250000001,74.61537850000002" fill="none" stroke="rgb(0,178,178)" stroke-width="0.1"/>
  <path d="M 86.44499250000001,72.57537849999994 L 85.24499249999997,72.57537849999994" fill="none" stroke="rgb(0,178,178)" stroke-width="0.1"/>
  <path d="M 85.24499249999997,72.57537849999994 L 85.24499249999997,77.37537850000001" fill="none" stroke="rgb(0,178,178)" stroke-width="0.1"/>
  <path d="M 85.24499249999997,77.37537850000001 L 86.44499250000001,77.37537850000001" fill="none" stroke="rgb(0,178,178)" stroke-width="0.1"/>
  <path d="M 86.44499250000001,77.37537850000001 A 2.400000000000034,2.400000000000034 0.0 1,0 86.44499250000001,72.57537849999994" fill="none" stroke="rgb(0,178,178)" stroke-width="0.1"/>
  <path d="M 85.24499249999997,75.81537849999995 L 83.44499250000001,75.81537849999995" fill="none" stroke="rgb(0,178,178)" stroke-width="0.1"/>
  <path d="M 83.44499250000001,75.81537849999995 A 0.3600000000000136,0.3600000000000136 0.0 1,0 83.44499250000001,76.53537849999998" fill="none" stroke="rgb(0,178,178)" stroke-width="0.1"/>
  <path d="M 83.44499250000001,76.53537849999998 L 85.24499249999997,76.53537849999998" fill="none" stroke="rgb(0,178,178)" stroke-width="0.1"/>
  <path d="M 85.24499249999997,76.53537849999998 L 85.24499249999997,75.81537849999995" fill="none" stroke="rgb(0,178,178)" stroke-width="0.1"/>
  <path d="M 85.24499249999997,73.41537849999997 L 83.44499250000001,73.41537849999997" fill="none" stroke="rgb(0,178,178)" stroke-width="0.1"/>
  <path d="M 83.44499250000001,73.41537849999997 A 0.3600000000000136,0.3600000000000136 0.0 1,0 83.44499250000001,74.1353785" fill="none" stroke="rgb(0,178,178)" stroke-width="0.1"/>
  <path d="M 83.44499250000001,74.1353785 L 85.24499249999997,74.1353785" fill="none" stroke="rgb(0,178,178)" stroke-width="0.1"/>
  <path d="M 85.24499249999997,74.1353785 L 85.24499249999997,73.41537849999997" fill="none" stroke="rgb(0,178,178)" stroke-width="0.1"/>
  <circle cx="27.64699250000001" cy="78.20637850000003" fill="none" r="6" stroke="rgb(0,178,178)" stroke-width="0.1"/>
  <circle cx="27.64699250000001" cy="78.20637850000003" fill="none" r="5.04" stroke="rgb(0,178,178)" stroke-width="0.1"/>
  <circle cx="63.22699249999994" cy="76.2313785" fill="none" r="6" stroke="rgb(0,178,178)" stroke-width="0.1"/>
  <circle cx="63.22699249999994" cy="76.2313785" fill="none" r="5.04" stroke="rgb(0,178,178)" stroke-width="0.1"/>
  <circle cx="85.84499249999999" cy="74.97537850000003" fill="none" r="6" stroke="rgb(0,178,178)" stroke-width="0.1"/>
  <circle cx="85.84499249999999" cy="74.97537850000003" fill="none" r="5.04" stroke="rgb(0,178,178)" stroke-width="0.1"/>
 </g>
 <g id="layerCOLUMN" inkscape:groupmode="layer" inkscape:label="COLUMN">
  <path d="M 39.35599249999996,52.3853785 L 48.35599249999996,52.3853785" fill="none" stroke="rgb(178,178,0)" stroke-width="0.1"/>
  <path d="M 48.35599249999996,52.3853785 L 48.35599249999996,43.3853785" fill="none" stroke="rgb(178,178,0)" stroke-width="0.1"/>
  <path d="M 48.35599249999996,43.3853785 L 39.35599249999996,43.3853785" fill="none" stroke="rgb(178,178,0)" stroke-width="0.1"/>
  <path d="M 39.35599249999996,43.3853785 L 39.35599249999996,52.3853785" fill="none" stroke="rgb(178,178,0)" stroke-width="0.1"/>
 </g>
 <g id="layerPUB_TEXT" inkscape:groupmode="layer" inkscape:label="PUB_TEXT">
  <text fill="rgb(0,0,0)" font-family="Noto Sans CJK SC" font-size="2" transform="rotate(-79.8529,80.50699249999991,35.286378499999955)" x="80.50699249999991" y="35.286378499999955">
   0.5%
  </text>
 </g>
 <g id="layerS-JSJ" inkscape:groupmode="layer" inkscape:label="S-JSJ">
  <path d="M 84.14499249999994,23.898378500000035 L 82.55899249999993,32.758378499999935" fill="none" stroke="rgb(0,133,178)" stroke-width="0.1"/>
  <path d="M 82.55899249999993,32.758378499999935 L 81.76699250000001,37.18737850000002" fill="none" stroke="rgb(0,133,178)" stroke-width="0.1"/>
 </g>
</svg>