<?xml version="1.0" encoding="utf-8"?>
<svg style="background-color: #000;" version="1.1" viewBox="0 0 100.0 100.0" xmlns="http://www.w3.org/2000/svg" xmlns:inkscape="http://www.inkscape.org/namespaces/inkscape">
 <g id="layer!消防分区" inkscape:groupmode="layer" inkscape:label="!消防分区">
  <path d="M 52.91007341429946,0.0 L 39.472992499999975,75.07637850000003" fill="none" stroke="rgb(142,35,0)" stroke-width="0.1"/>
  <path d="M 39.472992499999975,75.07637850000003 L 44.31497092058561,100.0" fill="none" stroke="rgb(142,35,0)" stroke-width="0.1"/>
  <path d="M 52.91007341429946,0.0 L 39.472992499999975,75.07637850000003" fill="none" stroke="rgb(142,35,0)" stroke-width="0.1"/>
  <path d="M 39.472992499999975,75.07637850000003 L 44.31497092058561,100.0" fill="none" stroke="rgb(142,35,0)" stroke-width="0.1"/>
 </g>
 <g id="layer0-结构边线" inkscape:groupmode="layer" inkscape:label="0-结构边线">
  <path d="M 97.24999249999996,58.77137849999997 L 100.0,59.26370403279145" fill="none" stroke="rgb(178,0,178)" stroke-width="0.1"/>
  <path d="M 98.83499249999994,49.91237849999993 L 100.0,50.12079124125273" fill="none" stroke="rgb(178,0,178)" stroke-width="0.1"/>
  <path d="M 97.24999249999996,58.77137849999997 L 98.83499249999994,49.91237849999993" fill="none" stroke="rgb(178,0,178)" stroke-width="0.1"/>
  <path d="M 62.880992499999934,52.11237849999998 L 70.75599249999993,53.52137849999997" fill="none" stroke="rgb(178,0,178)" stroke-width="0.1"/>
  <path d="M 70.75599249999993,53.52137849999997 L 72.16599249999996,45.64637849999997" fill="none" stroke="rgb(178,0,178)" stroke-width="0.1"/>
  <path d="M 64.29099249999996,44.23737849999998 L 72.16599249999996,45.64637849999997" fill="none" stroke="rgb(178,0,178)" stroke-width="0.1"/>
  <path d="M 62.880992499999934,52.11237849999998 L 64.29099249999996,44.23737849999998" fill="none" stroke="rgb(178,0,178)" stroke-width="0.1"/>
 </g>
 <g id="layerA-车位" inkscape:groupmode="layer" inkscape:label="A-车位">
  <path d="M 100.0,83.64507509442024 L 52.635992499999986,75.16837850000002" fill="none" instance-id="-1" semantic-id="35" stroke="rgb(0,0,178)" stroke-width="0.1"/>
  <path d="M 52.635992499999986,75.16837850000002 L 56.86399249999994,51.54337850000002" fill="none" instance-id="-1" semantic-id="35" stroke="rgb(0,0,178)" stroke-width="0.1"/>
  <path d="M 56.86399249999994,51.54337850000002 L 100.0,59.263393489697364" fill="none" instance-id="-1" semantic-id="35" stroke="rgb(0,0,178)" stroke-width="0.1"/>
  <path d="M 66.75899249999998,55.85437849999994 L 65.87899249999998,60.776378499999964" fill="none" instance-id="-1" semantic-id="35" stroke="rgb(0,0,178)" stroke-width="0.1"/>
  <path d="M 64.29299249999997,69.6353785 L 63.41199249999994,74.55737850000003" fill="none" instance-id="-1" semantic-id="35" stroke="rgb(0,0,178)" stroke-width="0.1"/>
  <path d="M 67.25199249999997,55.94237850000002 L 66.37099249999994,60.86437850000004" fill="none" instance-id="-1" semantic-id="35" stroke="rgb(0,0,178)" stroke-width="0.1"/>
  <path d="M 64.78499249999999,69.72337849999997 L 63.90399249999996,74.64537849999999" fill="none" instance-id="-1" semantic-id="35" stroke="rgb(0,0,178)" stroke-width="0.1"/>
  <path d="M 65.77499249999994,55.67837850000001 L 64.89399249999997,60.59937849999994" fill="none" instance-id="-1" semantic-id="35" stroke="rgb(0,0,178)" stroke-width="0.1"/>
  <path d="M 63.30899249999999,69.45937849999996 L 62.42799249999996,74.3803785" fill="none" instance-id="-1" semantic-id="35" stroke="rgb(0,0,178)" stroke-width="0.1"/>
  <path d="M 65.77499249999994,55.67837850000001 L 67.25199249999997,55.94237850000002" fill="none" instance-id="-1" semantic-id="35" stroke="rgb(0,0,178)" stroke-width="0.1"/>
  <path d="M 62.42799249999996,74.3803785 L 63.90399249999996,74.64537849999999" fill="none" instance-id="-1" semantic-id="35" stroke="rgb(0,0,178)" stroke-width="0.1"/>
  <path d="M 66.37099249999994,60.86437850000004 L 64.89399249999997,60.59937849999994" fill="none" instance-id="-1" semantic-id="35" stroke="rgb(0,0,178)" stroke-width="0.1"/>
  <path d="M 64.78499249999999,69.72337849999997 L 63.30899249999999,69.45937849999996" fill="none" instance-id="-1" semantic-id="35" stroke="rgb(0,0,178)" stroke-width="0.1"/>
  <path d="M 100.0,22.6652280914397 L 60.27199249999995,15.554378499999984" fill="none" instance-id="-1" semantic-id="35" stroke="rgb(0,0,178)" stroke-width="0.1"/>
  <path d="M 60.27199249999995,15.554378499999984 L 63.05642640943523,0.0" fill="none" instance-id="-1" semantic-id="35" stroke="rgb(0,0,178)" stroke-width="0.1"/>
  <path d="M 73.72304927742783,0.0 L 73.51499249999995,1.1623784999999884" fill="none" instance-id="-1" semantic-id="35" stroke="rgb(0,0,178)" stroke-width="0.1"/>
  <path d="M 71.92899249999994,10.021378499999969 L 71.04799249999996,14.943378499999994" fill="none" instance-id="-1" semantic-id="35" stroke="rgb(0,0,178)" stroke-width="0.1"/>
  <path d="M 74.23080059802919,0.0 L 74.00699249999997,1.2503785000000107" fill="none" instance-id="-1" semantic-id="35" stroke="rgb(0,0,178)" stroke-width="0.1"/>
  <path d="M 72.42199249999999,10.109378499999991 L 71.54099249999996,15.03137849999996" fill="none" instance-id="-1" semantic-id="35" stroke="rgb(0,0,178)" stroke-width="0.1"/>
  <path d="M 72.70734623425432,0.0 L 72.53099249999997,0.9863785000000007" fill="none" instance-id="-1" semantic-id="35" stroke="rgb(0,0,178)" stroke-width="0.1"/>
  <path d="M 70.94499249999996,9.845378499999981 L 70.06399249999998,14.767378500000007" fill="none" instance-id="-1" semantic-id="35" stroke="rgb(0,0,178)" stroke-width="0.1"/>
  <path d="M 70.06399249999998,14.767378500000007 L 71.54099249999996,15.03137849999996" fill="none" instance-id="-1" semantic-id="35" stroke="rgb(0,0,178)" stroke-width="0.1"/>
  <path d="M 74.00699249999997,1.2503785000000107 L 72.53099249999997,0.9863785000000007" fill="none" instance-id="-1" semantic-id="35" stroke="rgb(0,0,178)" stroke-width="0.1"/>
  <path d="M 72.42199249999999,10.109378499999991 L 70.94499249999996,9.845378499999981" fill="none" instance-id="-1" semantic-id="35" stroke="rgb(0,0,178)" stroke-width="0.1"/>
  <path d="M 100.0,47.04614820016866 L 56.043992499999945,39.179378499999984" fill="none" instance-id="-1" semantic-id="35" stroke="rgb(0,0,178)" stroke-width="0.1"/>
  <path d="M 56.043992499999945,39.179378499999984 L 60.27199249999995,15.554378499999984" fill="none" instance-id="-1" semantic-id="35" stroke="rgb(0,0,178)" stroke-width="0.1"/>
  <path d="M 60.27199249999995,15.554378499999984 L 100.0,22.6652280914397" fill="none" instance-id="-1" semantic-id="35" stroke="rgb(0,0,178)" stroke-width="0.1"/>
  <path d="M 70.16799249999997,19.865378499999963 L 69.28699249999994,24.78737849999999" fill="none" instance-id="-1" semantic-id="35" stroke="rgb(0,0,178)" stroke-width="0.1"/>
  <path d="M 67.70099249999998,33.64637849999997 L 66.81999249999996,38.568378499999994" fill="none" instance-id="-1" semantic-id="35" stroke="rgb(0,0,178)" stroke-width="0.1"/>
  <path d="M 70.65999249999999,19.953378499999985 L 69.77899249999996,24.87537850000001" fill="none" instance-id="-1" semantic-id="35" stroke="rgb(0,0,178)" stroke-width="0.1"/>
  <path d="M 68.19299249999995,33.73437849999999 L 67.31199249999997,38.65637849999996" fill="none" instance-id="-1" semantic-id="35" stroke="rgb(0,0,178)" stroke-width="0.1"/>
  <path d="M 69.18299249999995,19.689378499999975 L 68.30199249999998,24.6113785" fill="none" instance-id="-1" semantic-id="35" stroke="rgb(0,0,178)" stroke-width="0.1"/>
  <path d="M 66.71699249999995,33.47037849999998 L 65.83599249999997,38.39237849999995" fill="none" instance-id="-1" semantic-id="35" stroke="rgb(0,0,178)" stroke-width="0.1"/>
  <path d="M 69.18299249999995,19.689378499999975 L 70.65999249999999,19.953378499999985" fill="none" instance-id="-1" semantic-id="35" stroke="rgb(0,0,178)" stroke-width="0.1"/>
  <path d="M 65.83599249999997,38.39237849999995 L 67.31199249999997,38.65637849999996" fill="none" instance-id="-1" semantic-id="35" stroke="rgb(0,0,178)" stroke-width="0.1"/>
  <path d="M 69.77899249999996,24.87537850000001 L 68.30199249999998,24.6113785" fill="none" instance-id="-1" semantic-id="35" stroke="rgb(0,0,178)" stroke-width="0.1"/>
  <path d="M 68.19299249999995,33.73437849999999 L 66.71699249999995,33.47037849999998" fill="none" instance-id="-1" semantic-id="35" stroke="rgb(0,0,178)" stroke-width="0.1"/>
  <path d="M 55.154921315217166,100.0 L 48.40799249999998,98.79237850000004" fill="none" instance-id="-1" semantic-id="35" stroke="rgb(0,0,178)" stroke-width="0.1"/>
  <path d="M 48.40799249999998,98.79237850000004 L 52.635992499999986,75.16837850000002" fill="none" instance-id="-1" semantic-id="35" stroke="rgb(0,0,178)" stroke-width="0.1"/>
  <path d="M 52.635992499999986,75.16837850000002 L 100.0,83.64507509442024" fill="none" instance-id="-1" semantic-id="35" stroke="rgb(0,0,178)" stroke-width="0.1"/>
  <path d="M 62.53099249999997,79.47837849999996 L 61.64999249999994,84.40037849999999" fill="none" instance-id="-1" semantic-id="35" stroke="rgb(0,0,178)" stroke-width="0.1"/>
  <path d="M 60.06499249999996,93.25937850000003 L 59.18399249999999,98.18137849999994" fill="none" instance-id="-1" semantic-id="35" stroke="rgb(0,0,178)" stroke-width="0.1"/>
  <path d="M 63.02299249999999,79.56637850000004 L 62.14199249999996,84.48837849999995" fill="none" instance-id="-1" semantic-id="35" stroke="rgb(0,0,178)" stroke-width="0.1"/>
  <path d="M 60.55699249999998,93.34737849999999 L 59.67599249999995,98.26937850000002" fill="none" instance-id="-1" semantic-id="35" stroke="rgb(0,0,178)" stroke-width="0.1"/>
  <path d="M 61.54699249999999,79.30237850000003 L 60.66599249999996,84.22437849999994" fill="none" instance-id="-1" semantic-id="35" stroke="rgb(0,0,178)" stroke-width="0.1"/>
  <path d="M 59.079992499999946,93.08337849999998 L 58.198992499999974,98.0053785" fill="none" instance-id="-1" semantic-id="35" stroke="rgb(0,0,178)" stroke-width="0.1"/>
  <path d="M 61.54699249999999,79.30237850000003 L 63.02299249999999,79.56637850000004" fill="none" instance-id="-1" semantic-id="35" stroke="rgb(0,0,178)" stroke-width="0.1"/>
  <path d="M 58.198992499999974,98.0053785 L 59.67599249999995,98.26937850000002" fill="none" instance-id="-1" semantic-id="35" stroke="rgb(0,0,178)" stroke-width="0.1"/>
  <path d="M 62.14199249999996,84.48837849999995 L 60.66599249999996,84.22437849999994" fill="none" instance-id="-1" semantic-id="35" stroke="rgb(0,0,178)" stroke-width="0.1"/>
  <path d="M 60.55699249999998,93.34737849999999 L 59.079992499999946,93.08337849999998" fill="none" instance-id="-1" semantic-id="35" stroke="rgb(0,0,178)" stroke-width="0.1"/>
 </g>
 <g id="layerA-车位-text" inkscape:groupmode="layer" inkscape:label="A-车位-text">
  <text fill="rgb(178,88,0)" font-family="Noto Sans CJK SC" font-size="2" transform="rotate(-349.853,82.07999249999995,95.41537849999997)" x="82.07999249999995" y="95.41537849999997">
   B-257
  </text>
  <text fill="rgb(178,88,0)" font-family="Noto Sans CJK SC" font-size="2" transform="rotate(-349.853,88.25599249999993,71.79237850000004)" x="88.25599249999993" y="71.79237850000004">
   B-258
  </text>
  <text fill="rgb(178,88,0)" font-family="Noto Sans CJK SC" font-size="2" transform="rotate(-349.853,96.48499249999998,39.18437849999998)" x="96.48499249999998" y="39.18437849999998">
   B-259
  </text>
  <text fill="rgb(178,88,0)" font-family="Noto Sans CJK SC" font-size="2" transform="rotate(-349.853,99.12199249999998,9.404378500000007)" x="99.12199249999998" y="9.404378500000007">
   B-260
  </text>
 </g>
 <g id="layerA-车位-充电桩" inkscape:groupmode="layer" inkscape:label="A-车位-充电桩">
  <path d="M 83.25599249999993,31.85937849999999 L 83.25599249999993,36.6593785" fill="none" stroke="rgb(0,178,178)" stroke-width="0.1"/>
  <path d="M 83.25599249999993,31.85937849999999 L 84.45599249999998,31.85937849999999" fill="none" stroke="rgb(0,178,178)" stroke-width="0.1"/>
  <path d="M 83.25599249999993,36.6593785 L 84.45599249999998,36.6593785" fill="none" stroke="rgb(0,178,178)" stroke-width="0.1"/>
  <path d="M 86.82899249999997,33.89937850000001 L 88.88299249999994,33.89937850000001" fill="none" stroke="rgb(0,178,178)" stroke-width="0.1"/>
  <path d="M 86.82899249999997,34.61937849999998 L 88.88299249999994,34.61937849999998" fill="none" stroke="rgb(0,178,178)" stroke-width="0.1"/>
  <path d="M 87.69499249999996,7.660378499999979 L 87.69499249999996,12.46037849999999" fill="none" stroke="rgb(0,178,178)" stroke-width="0.1"/>
  <path d="M 87.69499249999996,7.660378499999979 L 88.89499249999994,7.660378499999979" fill="none" stroke="rgb(0,178,178)" stroke-width="0.1"/>
  <path d="M 87.69499249999996,12.46037849999999 L 88.89499249999994,12.46037849999999" fill="none" stroke="rgb(0,178,178)" stroke-width="0.1"/>
  <path d="M 91.26799249999993,9.7003785 L 93.32199249999996,9.7003785" fill="none" stroke="rgb(0,178,178)" stroke-width="0.1"/>
  <path d="M 91.26799249999993,10.42037849999997 L 93.32199249999996,10.42037849999997" fill="none" stroke="rgb(0,178,178)" stroke-width="0.1"/>
  <path d="M 71.08899249999996,88.02237849999995 L 71.08899249999996,92.82237850000001" fill="none" stroke="rgb(0,178,178)" stroke-width="0.1"/>
  <path d="M 71.08899249999996,88.02237849999995 L 72.28899249999995,88.02237849999995" fill="none" stroke="rgb(0,178,178)" stroke-width="0.1"/>
  <path d="M 71.08899249999996,92.82237850000001 L 72.28899249999995,92.82237850000001" fill="none" stroke="rgb(0,178,178)" stroke-width="0.1"/>
  <path d="M 74.66199249999994,90.06237850000002 L 76.71599249999997,90.06237850000002" fill="none" stroke="rgb(0,178,178)" stroke-width="0.1"/>
  <path d="M 74.66199249999994,90.78237849999994 L 76.71599249999997,90.78237849999994" fill="none" stroke="rgb(0,178,178)" stroke-width="0.1"/>
  <path d="M 75.25699249999997,64.96337849999998 L 75.25699249999997,69.76337850000004" fill="none" stroke="rgb(0,178,178)" stroke-width="0.1"/>
  <path d="M 75.25699249999997,64.96337849999998 L 76.45699249999996,64.96337849999998" fill="none" stroke="rgb(0,178,178)" stroke-width="0.1"/>
  <path d="M 75.25699249999997,69.76337850000004 L 76.45699249999996,69.76337850000004" fill="none" stroke="rgb(0,178,178)" stroke-width="0.1"/>
  <path d="M 78.82999249999995,67.00337849999994 L 80.88399249999998,67.00337849999994" fill="none" stroke="rgb(0,178,178)" stroke-width="0.1"/>
  <path d="M 78.82999249999995,67.72337849999997 L 80.88399249999998,67.72337849999997" fill="none" stroke="rgb(0,178,178)" stroke-width="0.1"/>
  <path d="M 84.45599249999998,36.6593785 A 2.4000000000000057,2.4000000000000057 0.0 1,0 84.45599249999998,31.85937849999999" fill="none" stroke="rgb(0,178,178)" stroke-width="0.1"/>
  <path d="M 81.45599249999998,32.699378499999966 A 0.3600000000000136,0.3600000000000136 0.0 1,0 81.45599249999998,33.41937849999999" fill="none" stroke="rgb(0,178,178)" stroke-width="0.1"/>
  <path d="M 81.45599249999998,35.0993785 A 0.36,0.36 0.0 1,0 81.45599249999998,35.81937849999997" fill="none" stroke="rgb(0,178,178)" stroke-width="0.1"/>
  <path d="M 88.89499249999994,12.46037849999999 A 2.4000000000000057,2.4000000000000057 0.0 1,0 88.89499249999994,7.660378499999979" fill="none" stroke="rgb(0,178,178)" stroke-width="0.1"/>
  <path d="M 85.89499249999994,8.50037850000001 A 0.36,0.36 0.0 1,0 85.89499249999994,9.220378499999981" fill="none" stroke="rgb(0,178,178)" stroke-width="0.1"/>
  <path d="M 85.89499249999994,10.900378499999988 A 0.3600000000000136,0.3600000000000136 0.0 1,0 85.89499249999994,11.620378500000015" fill="none" stroke="rgb(0,178,178)" stroke-width="0.1"/>
  <path d="M 72.28899249999995,92.82237850000001 A 2.400000000000034,2.400000000000034 0.0 1,0 72.28899249999995,88.02237849999995" fill="none" stroke="rgb(0,178,178)" stroke-width="0.1"/>
  <path d="M 69.28899249999995,88.86237849999998 A 0.3600000000000136,0.3600000000000136 0.0 1,0 69.28899249999995,89.5823785" fill="none" stroke="rgb(0,178,178)" stroke-width="0.1"/>
  <path d="M 69.28899249999995,91.26237849999995 A 0.3600000000000136,0.3600000000000136 0.0 1,0 69.28899249999995,91.98237849999998" fill="none" stroke="rgb(0,178,178)" stroke-width="0.1"/>
  <path d="M 76.45699249999996,69.76337850000004 A 2.400000000000034,2.400000000000034 0.0 1,0 76.45699249999996,64.96337849999998" fill="none" stroke="rgb(0,178,178)" stroke-width="0.1"/>
  <path d="M 73.45699249999996,65.80337850000001 A 0.3600000000000136,0.3600000000000136 0.0 1,0 73.45699249999996,66.52337850000004" fill="none" stroke="rgb(0,178,178)" stroke-width="0.1"/>
  <path d="M 73.45699249999996,68.20337849999999 A 0.3600000000000136,0.3600000000000136 0.0 1,0 73.45699249999996,68.92337850000001" fill="none" stroke="rgb(0,178,178)" stroke-width="0.1"/>
  <path d="M 83.25599249999993,33.41937849999999 L 81.45599249999998,33.41937849999999" fill="none" stroke="rgb(0,178,178)" stroke-width="0.1"/>
  <path d="M 83.25599249999993,32.699378499999966 L 81.45599249999998,32.699378499999966" fill="none" stroke="rgb(0,178,178)" stroke-width="0.1"/>
  <path d="M 83.25599249999993,35.0993785 L 81.45599249999998,35.0993785" fill="none" stroke="rgb(0,178,178)" stroke-width="0.1"/>
  <path d="M 83.25599249999993,35.81937849999997 L 81.45599249999998,35.81937849999997" fill="none" stroke="rgb(0,178,178)" stroke-width="0.1"/>
  <path d="M 87.69499249999996,9.220378499999981 L 85.89499249999994,9.220378499999981" fill="none" stroke="rgb(0,178,178)" stroke-width="0.1"/>
  <path d="M 87.69499249999996,8.50037850000001 L 85.89499249999994,8.50037850000001" fill="none" stroke="rgb(0,178,178)" stroke-width="0.1"/>
  <path d="M 87.69499249999996,10.900378499999988 L 85.89499249999994,10.900378499999988" fill="none" stroke="rgb(0,178,178)" stroke-width="0.1"/>
  <path d="M 87.69499249999996,11.620378500000015 L 85.89499249999994,11.620378500000015" fill="none" stroke="rgb(0,178,178)" stroke-width="0.1"/>
  <path d="M 71.08899249999996,89.5823785 L 69.28899249999995,89.5823785" fill="none" stroke="rgb(0,178,178)" stroke-width="0.1"/>
  <path d="M 71.08899249999996,88.86237849999998 L 69.28899249999995,88.86237849999998" fill="none" stroke="rgb(0,178,178)" stroke-width="0.1"/>
  <path d="M 71.08899249999996,91.26237849999995 L 69.28899249999995,91.26237849999995" fill="none" stroke="rgb(0,178,178)" stroke-width="0.1"/>
  <path d="M 71.08899249999996,91.98237849999998 L 69.28899249999995,91.98237849999998" fill="none" stroke="rgb(0,178,178)" stroke-width="0.1"/>
  <path d="M 75.25699249999997,66.52337850000004 L 73.45699249999996,66.52337850000004" fill="none" stroke="rgb(0,178,178)" stroke-width="0.1"/>
  <path d="M 75.25699249999997,65.80337850000001 L 73.45699249999996,65.80337850000001" fill="none" stroke="rgb(0,178,178)" stroke-width="0.1"/>
  <path d="M 75.25699249999997,68.20337849999999 L 73.45699249999996,68.20337849999999" fill="none" stroke="rgb(0,178,178)" stroke-width="0.1"/>
  <path d="M 75.25699249999997,68.92337850000001 L 73.45699249999996,68.92337850000001" fill="none" stroke="rgb(0,178,178)" stroke-width="0.1"/>
  <path d="M 89.85599249999996,34.25937849999997 A 6.0,6.0 0.0 1,0 77.85599249999996,34.25937849999997" fill="none" stroke="rgb(0,178,178)" stroke-width="0.1"/>
  <path d="M 77.85599249999996,34.25937849999997 A 6.0,6.0 0.0 1,0 89.85599249999996,34.25937849999997" fill="none" stroke="rgb(0,178,178)" stroke-width="0.1"/>
  <path d="M 88.89599249999998,34.25937849999997 A 5.0400000000000205,5.0400000000000205 0.0 1,0 78.81599249999994,34.25937849999997" fill="none" stroke="rgb(0,178,178)" stroke-width="0.1"/>
  <path d="M 78.81599249999994,34.25937849999997 A 5.0400000000000205,5.0400000000000205 0.0 1,0 88.89599249999998,34.25937849999997" fill="none" stroke="rgb(0,178,178)" stroke-width="0.1"/>
  <path d="M 84.45599249999998,36.6593785 L 83.25599249999993,36.6593785" fill="none" stroke="rgb(0,178,178)" stroke-width="0.1"/>
  <path d="M 83.25599249999993,36.6593785 L 83.25599249999993,35.81937849999997" fill="none" stroke="rgb(0,178,178)" stroke-width="0.1"/>
  <path d="M 83.25599249999993,35.81937849999997 L 81.45599249999998,35.81937849999997" fill="none" stroke="rgb(0,178,178)" stroke-width="0.1"/>
  <path d="M 81.45599249999998,35.0993785 A 0.36,0.36 0.0 1,0 81.45599249999998,35.81937849999997" fill="none" stroke="rgb(0,178,178)" stroke-width="0.1"/>
  <path d="M 81.45599249999998,35.0993785 L 83.25599249999993,35.0993785" fill="none" stroke="rgb(0,178,178)" stroke-width="0.1"/>
  <path d="M 83.25599249999993,35.0993785 L 83.25599249999993,33.41937849999999" fill="none" stroke="rgb(0,178,178)" stroke-width="0.1"/>
  <path d="M 83.25599249999993,33.41937849999999 L 81.45599249999998,33.41937849999999" fill="none" stroke="rgb(0,178,178)" stroke-width="0.1"/>
  <path d="M 81.45599249999998,32.699378499999966 A 0.3600000000000136,0.3600000000000136 0.0 1,0 81.45599249999998,33.41937849999999" fill="none" stroke="rgb(0,178,178)" stroke-width="0.1"/>
  <path d="M 81.45599249999998,32.699378499999966 L 83.25599249999993,32.699378499999966" fill="none" stroke="rgb(0,178,178)" stroke-width="0.1"/>
  <path d="M 83.25599249999993,32.699378499999966 L 83.25599249999993,31.85937849999999" fill="none" stroke="rgb(0,178,178)" stroke-width="0.1"/>
  <path d="M 83.25599249999993,31.85937849999999 L 84.45599249999998,31.85937849999999" fill="none" stroke="rgb(0,178,178)" stroke-width="0.1"/>
  <path d="M 84.45599249999998,36.6593785 A 2.4000000000000057,2.4000000000000057 0.0 1,0 84.45599249999998,31.85937849999999" fill="none" stroke="rgb(0,178,178)" stroke-width="0.1"/>
  <path d="M 88.88299249999994,33.89937850000001 L 86.82899249999997,33.89937850000001" fill="none" stroke="rgb(0,178,178)" stroke-width="0.1"/>
  <path d="M 86.82899249999997,34.61937849999998 A 2.4,2.4 0.0 0,0 86.82899249999997,33.89937850000001" fill="none" stroke="rgb(0,178,178)" stroke-width="0.1"/>
  <path d="M 86.82899249999997,34.61937849999998 L 88.88299249999994,34.61937849999998" fill="none" stroke="rgb(0,178,178)" stroke-width="0.1"/>
  <path d="M 88.88299249999994,34.61937849999998 A 5.04,5.04 0.0 0,0 88.89599249999998,34.25937849999997" fill="none" stroke="rgb(0,178,178)" stroke-width="0.1"/>
  <path d="M 88.89599249999998,34.25937849999997 A 5.04,5.04 0.0 0,0 88.88299249999994,33.89937850000001" fill="none" stroke="rgb(0,178,178)" stroke-width="0.1"/>
  <path d="M 84.45599249999998,31.85937849999999 L 83.25599249999993,31.85937849999999" fill="none" stroke="rgb(0,178,178)" stroke-width="0.1"/>
  <path d="M 83.25599249999993,31.85937849999999 L 83.25599249999993,36.6593785" fill="none" stroke="rgb(0,178,178)" stroke-width="0.1"/>
  <path d="M 83.25599249999993,36.6593785 L 84.45599249999998,36.6593785" fill="none" stroke="rgb(0,178,178)" stroke-width="0.1"/>
  <path d="M 84.45599249999998,36.6593785 A 2.4000000000000057,2.4000000000000057 0.0 1,0 84.45599249999998,31.85937849999999" fill="none" stroke="rgb(0,178,178)" stroke-width="0.1"/>
  <path d="M 83.25599249999993,35.0993785 L 81.45599249999998,35.0993785" fill="none" stroke="rgb(0,178,178)" stroke-width="0.1"/>
  <path d="M 81.45599249999998,35.0993785 A 0.36,0.36 0.0 1,0 81.45599249999998,35.81937849999997" fill="none" stroke="rgb(0,178,178)" stroke-width="0.1"/>
  <path d="M 81.45599249999998,35.81937849999997 L 83.25599249999993,35.81937849999997" fill="none" stroke="rgb(0,178,178)" stroke-width="0.1"/>
  <path d="M 83.25599249999993,35.81937849999997 L 83.25599249999993,35.0993785" fill="none" stroke="rgb(0,178,178)" stroke-width="0.1"/>
  <path d="M 83.25599249999993,32.699378499999966 L 81.45599249999998,32.699378499999966" fill="none" stroke="rgb(0,178,178)" stroke-width="0.1"/>
  <path d="M 81.45599249999998,32.699378499999966 A 0.3600000000000136,0.3600000000000136 0.0 1,0 81.45599249999998,33.41937849999999" fill="none" stroke="rgb(0,178,178)" stroke-width="0.1"/>
  <path d="M 81.45599249999998,33.41937849999999 L 83.25599249999993,33.41937849999999" fill="none" stroke="rgb(0,178,178)" stroke-width="0.1"/>
  <path d="M 83.25599249999993,33.41937849999999 L 83.25599249999993,32.699378499999966" fill="none" stroke="rgb(0,178,178)" stroke-width="0.1"/>
  <path d="M 94.29499249999998,10.060378500000013 A 6.0,6.0 0.0 1,0 82.29499249999998,10.060378500000013" fill="none" stroke="rgb(0,178,178)" stroke-width="0.1"/>
  <path d="M 82.29499249999998,10.060378500000013 A 6.0,6.0 0.0 1,0 94.29499249999998,10.060378500000013" fill="none" stroke="rgb(0,178,178)" stroke-width="0.1"/>
  <path d="M 93.33499249999994,10.060378500000013 A 5.04,5.04 0.0 1,0 83.25499249999996,10.060378500000013" fill="none" stroke="rgb(0,178,178)" stroke-width="0.1"/>
  <path d="M 83.25499249999996,10.060378500000013 A 5.04,5.04 0.0 1,0 93.33499249999994,10.060378500000013" fill="none" stroke="rgb(0,178,178)" stroke-width="0.1"/>
  <path d="M 88.89499249999994,12.46037849999999 L 87.69499249999996,12.46037849999999" fill="none" stroke="rgb(0,178,178)" stroke-width="0.1"/>
  <path d="M 87.69499249999996,12.46037849999999 L 87.69499249999996,11.620378500000015" fill="none" stroke="rgb(0,178,178)" stroke-width="0.1"/>
  <path d="M 87.69499249999996,11.620378500000015 L 85.89499249999994,11.620378500000015" fill="none" stroke="rgb(0,178,178)" stroke-width="0.1"/>
  <path d="M 85.89499249999994,10.900378499999988 A 0.3600000000000136,0.3600000000000136 0.0 1,0 85.89499249999994,11.620378500000015" fill="none" stroke="rgb(0,178,178)" stroke-width="0.1"/>
  <path d="M 85.89499249999994,10.900378499999988 L 87.69499249999996,10.900378499999988" fill="none" stroke="rgb(0,178,178)" stroke-width="0.1"/>
  <path d="M 87.69499249999996,10.900378499999988 L 87.69499249999996,9.220378499999981" fill="none" stroke="rgb(0,178,178)" stroke-width="0.1"/>
  <path d="M 87.69499249999996,9.220378499999981 L 85.89499249999994,9.220378499999981" fill="none" stroke="rgb(0,178,178)" stroke-width="0.1"/>
  <path d="M 85.89499249999994,8.50037850000001 A 0.36,0.36 0.0 1,0 85.89499249999994,9.220378499999981" fill="none" stroke="rgb(0,178,178)" stroke-width="0.1"/>
  <path d="M 85.89499249999994,8.50037850000001 L 87.69499249999996,8.50037850000001" fill="none" stroke="rgb(0,178,178)" stroke-width="0.1"/>
  <path d="M 87.69499249999996,8.50037850000001 L 87.69499249999996,7.660378499999979" fill="none" stroke="rgb(0,178,178)" stroke-width="0.1"/>
  <path d="M 87.69499249999996,7.660378499999979 L 88.89499249999994,7.660378499999979" fill="none" stroke="rgb(0,178,178)" stroke-width="0.1"/>
  <path d="M 88.89499249999994,12.46037849999999 A 2.4000000000000057,2.4000000000000057 0.0 1,0 88.89499249999994,7.660378499999979" fill="none" stroke="rgb(0,178,178)" stroke-width="0.1"/>
  <path d="M 93.32199249999996,9.7003785 L 91.26799249999993,9.7003785" fill="none" stroke="rgb(0,178,178)" stroke-width="0.1"/>
  <path d="M 91.26799249999993,10.42037849999997 A 2.4,2.4 0.0 0,0 91.26799249999993,9.7003785" fill="none" stroke="rgb(0,178,178)" stroke-width="0.1"/>
  <path d="M 91.26799249999993,10.42037849999997 L 93.32199249999996,10.42037849999997" fill="none" stroke="rgb(0,178,178)" stroke-width="0.1"/>
  <path d="M 93.32199249999996,10.42037849999997 A 5.04,5.04 0.0 0,0 93.33499249999994,10.060378500000013" fill="none" stroke="rgb(0,178,178)" stroke-width="0.1"/>
  <path d="M 93.33499249999994,10.060378500000013 A 5.04,5.04 0.0 0,0 93.32199249999996,9.7003785" fill="none" stroke="rgb(0,178,178)" stroke-width="0.1"/>
  <path d="M 88.89499249999994,7.660378499999979 L 87.69499249999996,7.660378499999979" fill="none" stroke="rgb(0,178,178)" stroke-width="0.1"/>
  <path d="M 87.69499249999996,7.660378499999979 L 87.69499249999996,12.46037849999999" fill="none" stroke="rgb(0,178,178)" stroke-width="0.1"/>
  <path d="M 87.69499249999996,12.46037849999999 L 88.89499249999994,12.46037849999999" fill="none" stroke="rgb(0,178,178)" stroke-width="0.1"/>
  <path d="M 88.89499249999994,12.46037849999999 A 2.4000000000000057,2.4000000000000057 0.0 1,0 88.89499249999994,7.660378499999979" fill="none" stroke="rgb(0,178,178)" stroke-width="0.1"/>
  <path d="M 87.69499249999996,10.900378499999988 L 85.89499249999994,10.900378499999988" fill="none" stroke="rgb(0,178,178)" stroke-width="0.1"/>
  <path d="M 85.89499249999994,10.900378499999988 A 0.3600000000000136,0.3600000000000136 0.0 1,0 85.89499249999994,11.620378500000015" fill="none" stroke="rgb(0,178,178)" stroke-width="0.1"/>
  <path d="M 85.89499249999994,11.620378500000015 L 87.69499249999996,11.620378500000015" fill="none" stroke="rgb(0,178,178)" stroke-width="0.1"/>
  <path d="M 87.69499249999996,11.620378500000015 L 87.69499249999996,10.900378499999988" fill="none" stroke="rgb(0,178,178)" stroke-width="0.1"/>
  <path d="M 87.69499249999996,8.50037850000001 L 85.89499249999994,8.50037850000001" fill="none" stroke="rgb(0,178,178)" stroke-width="0.1"/>
  <path d="M 85.89499249999994,8.50037850000001 A 0.36,0.36 0.0 1,0 85.89499249999994,9.220378499999981" fill="none" stroke="rgb(0,178,178)" stroke-width="0.1"/>
  <path d="M 85.89499249999994,9.220378499999981 L 87.69499249999996,9.220378499999981" fill="none" stroke="rgb(0,178,178)" stroke-width="0.1"/>
  <path d="M 87.69499249999996,9.220378499999981 L 87.69499249999996,8.50037850000001" fill="none" stroke="rgb(0,178,178)" stroke-width="0.1"/>
  <path d="M 77.68899249999998,90.42237850000004 A 6.0,6.0 0.0 1,0 65.68899249999998,90.42237850000004" fill="none" stroke="rgb(0,178,178)" stroke-width="0.1"/>
  <path d="M 65.68899249999998,90.42237850000004 A 6.0,6.0 0.0 1,0 77.68899249999998,90.42237850000004" fill="none" stroke="rgb(0,178,178)" stroke-width="0.1"/>
  <path d="M 76.72899249999995,90.42237850000004 A 5.04,5.04 0.0 1,0 66.64899249999996,90.42237850000004" fill="none" stroke="rgb(0,178,178)" stroke-width="0.1"/>
  <path d="M 66.64899249999996,90.42237850000004 A 5.04,5.04 0.0 1,0 76.72899249999995,90.42237850000004" fill="none" stroke="rgb(0,178,178)" stroke-width="0.1"/>
  <path d="M 72.28899249999995,92.82237850000001 L 71.08899249999996,92.82237850000001" fill="none" stroke="rgb(0,178,178)" stroke-width="0.1"/>
  <path d="M 71.08899249999996,92.82237850000001 L 71.08899249999996,91.98237849999998" fill="none" stroke="rgb(0,178,178)" stroke-width="0.1"/>
  <path d="M 71.08899249999996,91.98237849999998 L 69.28899249999995,91.98237849999998" fill="none" stroke="rgb(0,178,178)" stroke-width="0.1"/>
  <path d="M 69.28899249999995,91.26237849999995 A 0.3600000000000136,0.3600000000000136 0.0 1,0 69.28899249999995,91.98237849999998" fill="none" stroke="rgb(0,178,178)" stroke-width="0.1"/>
  <path d="M 69.28899249999995,91.26237849999995 L 71.08899249999996,91.26237849999995" fill="none" stroke="rgb(0,178,178)" stroke-width="0.1"/>
  <path d="M 71.08899249999996,91.26237849999995 L 71.08899249999996,89.5823785" fill="none" stroke="rgb(0,178,178)" stroke-width="0.1"/>
  <path d="M 71.08899249999996,89.5823785 L 69.28899249999995,89.5823785" fill="none" stroke="rgb(0,178,178)" stroke-width="0.1"/>
  <path d="M 69.28899249999995,88.86237849999998 A 0.3600000000000136,0.3600000000000136 0.0 1,0 69.28899249999995,89.5823785" fill="none" stroke="rgb(0,178,178)" stroke-width="0.1"/>
  <path d="M 69.28899249999995,88.86237849999998 L 71.08899249999996,88.86237849999998" fill="none" stroke="rgb(0,178,178)" stroke-width="0.1"/>
  <path d="M 71.08899249999996,88.86237849999998 L 71.08899249999996,88.02237849999995" fill="none" stroke="rgb(0,178,178)" stroke-width="0.1"/>
  <path d="M 71.08899249999996,88.02237849999995 L 72.28899249999995,88.02237849999995" fill="none" stroke="rgb(0,178,178)" stroke-width="0.1"/>
  <path d="M 72.28899249999995,92.82237850000001 A 2.400000000000034,2.400000000000034 0.0 1,0 72.28899249999995,88.02237849999995" fill="none" stroke="rgb(0,178,178)" stroke-width="0.1"/>
  <path d="M 76.71599249999997,90.06237850000002 L 74.66199249999994,90.06237850000002" fill="none" stroke="rgb(0,178,178)" stroke-width="0.1"/>
  <path d="M 74.66199249999994,90.78237849999994 A 2.4,2.4 0.0 0,0 74.66199249999994,90.06237850000002" fill="none" stroke="rgb(0,178,178)" stroke-width="0.1"/>
  <path d="M 74.66199249999994,90.78237849999994 L 76.71599249999997,90.78237849999994" fill="none" stroke="rgb(0,178,178)" stroke-width="0.1"/>
  <path d="M 76.71599249999997,90.78237849999994 A 5.04,5.04 0.0 0,0 76.72899249999995,90.42237850000004" fill="none" stroke="rgb(0,178,178)" stroke-width="0.1"/>
  <path d="M 76.72899249999995,90.42237850000004 A 5.04,5.04 0.0 0,0 76.71599249999997,90.06237850000002" fill="none" stroke="rgb(0,178,178)" stroke-width="0.1"/>
  <path d="M 72.28899249999995,88.02237849999995 L 71.08899249999996,88.02237849999995" fill="none" stroke="rgb(0,178,178)" stroke-width="0.1"/>
  <path d="M 71.08899249999996,88.02237849999995 L 71.08899249999996,92.82237850000001" fill="none" stroke="rgb(0,178,178)" stroke-width="0.1"/>
  <path d="M 71.08899249999996,92.82237850000001 L 72.28899249999995,92.82237850000001" fill="none" stroke="rgb(0,178,178)" stroke-width="0.1"/>
  <path d="M 72.28899249999995,92.82237850000001 A 2.400000000000034,2.400000000000034 0.0 1,0 72.28899249999995,88.02237849999995" fill="none" stroke="rgb(0,178,178)" stroke-width="0.1"/>
  <path d="M 71.08899249999996,91.26237849999995 L 69.28899249999995,91.26237849999995" fill="none" stroke="rgb(0,178,178)" stroke-width="0.1"/>
  <path d="M 69.28899249999995,91.26237849999995 A 0.3600000000000136,0.3600000000000136 0.0 1,0 69.28899249999995,91.98237849999998" fill="none" stroke="rgb(0,178,178)" stroke-width="0.1"/>
  <path d="M 69.28899249999995,91.98237849999998 L 71.08899249999996,91.98237849999998" fill="none" stroke="rgb(0,178,178)" stroke-width="0.1"/>
  <path d="M 71.08899249999996,91.98237849999998 L 71.08899249999996,91.26237849999995" fill="none" stroke="rgb(0,178,178)" stroke-width="0.1"/>
  <path d="M 71.08899249999996,88.86237849999998 L 69.28899249999995,88.86237849999998" fill="none" stroke="rgb(0,178,178)" stroke-width="0.1"/>
  <path d="M 69.28899249999995,88.86237849999998 A 0.3600000000000136,0.3600000000000136 0.0 1,0 69.28899249999995,89.5823785" fill="none" stroke="rgb(0,178,178)" stroke-width="0.1"/>
  <path d="M 69.28899249999995,89.5823785 L 71.08899249999996,89.5823785" fill="none" stroke="rgb(0,178,178)" stroke-width="0.1"/>
  <path d="M 71.08899249999996,89.5823785 L 71.08899249999996,88.86237849999998" fill="none" stroke="rgb(0,178,178)" stroke-width="0.1"/>
  <path d="M 81.85699249999993,67.36337849999995 A 6.0,6.0 0.0 1,0 69.85699249999993,67.36337849999995" fill="none" stroke="rgb(0,178,178)" stroke-width="0.1"/>
  <path d="M 69.85699249999993,67.36337849999995 A 6.0,6.0 0.0 1,0 81.85699249999993,67.36337849999995" fill="none" stroke="rgb(0,178,178)" stroke-width="0.1"/>
  <path d="M 80.89699249999995,67.36337849999995 A 5.04,5.04 0.0 1,0 70.81699249999997,67.36337849999995" fill="none" stroke="rgb(0,178,178)" stroke-width="0.1"/>
  <path d="M 70.81699249999997,67.36337849999995 A 5.04,5.04 0.0 1,0 80.89699249999995,67.36337849999995" fill="none" stroke="rgb(0,178,178)" stroke-width="0.1"/>
  <path d="M 76.45699249999996,69.76337850000004 L 75.25699249999997,69.76337850000004" fill="none" stroke="rgb(0,178,178)" stroke-width="0.1"/>
  <path d="M 75.25699249999997,69.76337850000004 L 75.25699249999997,68.92337850000001" fill="none" stroke="rgb(0,178,178)" stroke-width="0.1"/>
  <path d="M 75.25699249999997,68.92337850000001 L 73.45699249999996,68.92337850000001" fill="none" stroke="rgb(0,178,178)" stroke-width="0.1"/>
  <path d="M 73.45699249999996,68.20337849999999 A 0.3600000000000136,0.3600000000000136 0.0 1,0 73.45699249999996,68.92337850000001" fill="none" stroke="rgb(0,178,178)" stroke-width="0.1"/>
  <path d="M 73.45699249999996,68.20337849999999 L 75.25699249999997,68.20337849999999" fill="none" stroke="rgb(0,178,178)" stroke-width="0.1"/>
  <path d="M 75.25699249999997,68.20337849999999 L 75.25699249999997,66.52337850000004" fill="none" stroke="rgb(0,178,178)" stroke-width="0.1"/>
  <path d="M 75.25699249999997,66.52337850000004 L 73.45699249999996,66.52337850000004" fill="none" stroke="rgb(0,178,178)" stroke-width="0.1"/>
  <path d="M 73.45699249999996,65.80337850000001 A 0.3600000000000136,0.3600000000000136 0.0 1,0 73.45699249999996,66.52337850000004" fill="none" stroke="rgb(0,178,178)" stroke-width="0.1"/>
  <path d="M 73.45699249999996,65.80337850000001 L 75.25699249999997,65.80337850000001" fill="none" stroke="rgb(0,178,178)" stroke-width="0.1"/>
  <path d="M 75.25699249999997,65.80337850000001 L 75.25699249999997,64.96337849999998" fill="none" stroke="rgb(0,178,178)" stroke-width="0.1"/>
  <path d="M 75.25699249999997,64.96337849999998 L 76.45699249999996,64.96337849999998" fill="none" stroke="rgb(0,178,178)" stroke-width="0.1"/>
  <path d="M 76.45699249999996,69.76337850000004 A 2.400000000000034,2.400000000000034 0.0 1,0 76.45699249999996,64.96337849999998" fill="none" stroke="rgb(0,178,178)" stroke-width="0.1"/>
  <path d="M 80.88399249999998,67.00337849999994 L 78.82999249999995,67.00337849999994" fill="none" stroke="rgb(0,178,178)" stroke-width="0.1"/>
  <path d="M 78.82999249999995,67.72337849999997 A 2.4,2.4 0.0 0,0 78.82999249999995,67.00337849999994" fill="none" stroke="rgb(0,178,178)" stroke-width="0.1"/>
  <path d="M 78.82999249999995,67.72337849999997 L 80.88399249999998,67.72337849999997" fill="none" stroke="rgb(0,178,178)" stroke-width="0.1"/>
  <path d="M 80.88399249999998,67.72337849999997 A 5.04,5.04 0.0 0,0 80.89699249999995,67.36337849999995" fill="none" stroke="rgb(0,178,178)" stroke-width="0.1"/>
  <path d="M 80.89699249999995,67.36337849999995 A 5.04,5.04 0.0 0,0 80.88399249999998,67.00337849999994" fill="none" stroke="rgb(0,178,178)" stroke-width="0.1"/>
  <path d="M 76.45699249999996,64.96337849999998 L 75.25699249999997,64.96337849999998" fill="none" stroke="rgb(0,178,178)" stroke-width="0.1"/>
  <path d="M 75.25699249999997,64.96337849999998 L 75.25699249999997,69.76337850000004" fill="none" stroke="rgb(0,178,178)" stroke-width="0.1"/>
  <path d="M 75.25699249999997,69.76337850000004 L 76.45699249999996,69.76337850000004" fill="none" stroke="rgb(0,178,178)" stroke-width="0.1"/>
  <path d="M 76.45699249999996,69.76337850000004 A 2.400000000000034,2.400000000000034 0.0 1,0 76.45699249999996,64.96337849999998" fill="none" stroke="rgb(0,178,178)" stroke-width="0.1"/>
  <path d="M 75.25699249999997,68.20337849999999 L 73.45699249999996,68.20337849999999" fill="none" stroke="rgb(0,178,178)" stroke-width="0.1"/>
  <path d="M 73.45699249999996,68.20337849999999 A 0.3600000000000136,0.3600000000000136 0.0 1,0 73.45699249999996,68.92337850000001" fill="none" stroke="rgb(0,178,178)" stroke-width="0.1"/>
  <path d="M 73.45699249999996,68.92337850000001 L 75.25699249999997,68.92337850000001" fill="none" stroke="rgb(0,178,178)" stroke-width="0.1"/>
  <path d="M 75.25699249999997,68.92337850000001 L 75.25699249999997,68.20337849999999" fill="none" stroke="rgb(0,178,178)" stroke-width="0.1"/>
  <path d="M 75.25699249999997,65.80337850000001 L 73.45699249999996,65.80337850000001" fill="none" stroke="rgb(0,178,178)" stroke-width="0.1"/>
  <path d="M 73.45699249999996,65.80337850000001 A 0.3600000000000136,0.3600000000000136 0.0 1,0 73.45699249999996,66.52337850000004" fill="none" stroke="rgb(0,178,178)" stroke-width="0.1"/>
  <path d="M 73.45699249999996,66.52337850000004 L 75.25699249999997,66.52337850000004" fill="none" stroke="rgb(0,178,178)" stroke-width="0.1"/>
  <path d="M 75.25699249999997,66.52337850000004 L 75.25699249999997,65.80337850000001" fill="none" stroke="rgb(0,178,178)" stroke-width="0.1"/>
  <path d="M 79.23999249999997,5.505378500000006 L 81.34099249999997,2.505378500000006" fill="none" stroke="rgb(0,178,178)" stroke-width="0.1"/>
  <path d="M 81.34099249999997,2.505378500000006 L 78.94099249999994,2.505378500000006" fill="none" stroke="rgb(0,178,178)" stroke-width="0.1"/>
  <path d="M 78.94099249999994,2.505378500000006 L 76.16999249999998,7.305378499999961" fill="none" stroke="rgb(0,178,178)" stroke-width="0.1"/>
  <path d="M 76.16999249999998,7.305378499999961 L 77.97999249999998,7.305378499999961" fill="none" stroke="rgb(0,178,178)" stroke-width="0.1"/>
  <path d="M 77.97999249999998,7.305378499999961 L 75.03599249999996,11.509378499999968" fill="none" stroke="rgb(0,178,178)" stroke-width="0.1"/>
  <path d="M 75.03599249999996,11.509378499999968 L 81.03999249999998,5.505378500000006" fill="none" stroke="rgb(0,178,178)" stroke-width="0.1"/>
  <path d="M 81.03999249999998,5.505378500000006 L 79.23999249999997,5.505378500000006" fill="none" stroke="rgb(0,178,178)" stroke-width="0.1"/>
  <path d="M 74.88399249999998,29.848378499999967 L 76.98399249999994,26.848378499999967" fill="none" stroke="rgb(0,178,178)" stroke-width="0.1"/>
  <path d="M 76.98399249999994,26.848378499999967 L 74.58399249999997,26.848378499999967" fill="none" stroke="rgb(0,178,178)" stroke-width="0.1"/>
  <path d="M 74.58399249999997,26.848378499999967 L 71.81299249999995,31.64837849999998" fill="none" stroke="rgb(0,178,178)" stroke-width="0.1"/>
  <path d="M 71.81299249999995,31.64837849999998 L 73.62299249999995,31.64837849999998" fill="none" stroke="rgb(0,178,178)" stroke-width="0.1"/>
  <path d="M 73.62299249999995,31.64837849999998 L 70.67999249999997,35.852378499999986" fill="none" stroke="rgb(0,178,178)" stroke-width="0.1"/>
  <path d="M 70.67999249999997,35.852378499999986 L 76.68399249999999,29.848378499999967" fill="none" stroke="rgb(0,178,178)" stroke-width="0.1"/>
  <path d="M 76.68399249999999,29.848378499999967 L 74.88399249999998,29.848378499999967" fill="none" stroke="rgb(0,178,178)" stroke-width="0.1"/>
  <path d="M 78.94099249999994,2.505378500000006 L 76.16999249999998,7.305378499999961" fill="none" stroke="rgb(0,178,178)" stroke-width="0.1"/>
  <path d="M 76.16999249999998,7.305378499999961 L 77.97999249999998,7.305378499999961" fill="none" stroke="rgb(0,178,178)" stroke-width="0.1"/>
  <path d="M 77.97999249999998,7.305378499999961 L 75.03599249999996,11.509378499999968" fill="none" stroke="rgb(0,178,178)" stroke-width="0.1"/>
  <path d="M 75.03599249999996,11.509378499999968 L 81.03999249999998,5.505378500000006" fill="none" stroke="rgb(0,178,178)" stroke-width="0.1"/>
  <path d="M 81.03999249999998,5.505378500000006 L 79.23999249999997,5.505378500000006" fill="none" stroke="rgb(0,178,178)" stroke-width="0.1"/>
  <path d="M 79.23999249999997,5.505378500000006 L 81.34099249999997,2.505378500000006" fill="none" stroke="rgb(0,178,178)" stroke-width="0.1"/>
  <path d="M 81.34099249999997,2.505378500000006 L 78.94099249999994,2.505378500000006" fill="none" stroke="rgb(0,178,178)" stroke-width="0.1"/>
  <path d="M 74.58399249999997,26.848378499999967 L 71.81299249999995,31.64837849999998" fill="none" stroke="rgb(0,178,178)" stroke-width="0.1"/>
  <path d="M 71.81299249999995,31.64837849999998 L 73.62299249999995,31.64837849999998" fill="none" stroke="rgb(0,178,178)" stroke-width="0.1"/>
  <path d="M 73.62299249999995,31.64837849999998 L 70.67999249999997,35.852378499999986" fill="none" stroke="rgb(0,178,178)" stroke-width="0.1"/>
  <path d="M 70.67999249999997,35.852378499999986 L 76.68399249999999,29.848378499999967" fill="none" stroke="rgb(0,178,178)" stroke-width="0.1"/>
  <path d="M 76.68399249999999,29.848378499999967 L 74.88399249999998,29.848378499999967" fill="none" stroke="rgb(0,178,178)" stroke-width="0.1"/>
  <path d="M 74.88399249999998,29.848378499999967 L 76.98399249999994,26.848378499999967" fill="none" stroke="rgb(0,178,178)" stroke-width="0.1"/>
  <path d="M 76.98399249999994,26.848378499999967 L 74.58399249999997,26.848378499999967" fill="none" stroke="rgb(0,178,178)" stroke-width="0.1"/>
  <circle cx="83.85599249999996" cy="34.25937849999997" fill="none" r="6" stroke="rgb(0,178,178)" stroke-width="0.1"/>
  <circle cx="83.85599249999996" cy="34.25937849999997" fill="none" r="5.04" stroke="rgb(0,178,178)" stroke-width="0.1"/>
  <circle cx="88.29499249999998" cy="10.060378500000013" fill="none" r="6" stroke="rgb(0,178,178)" stroke-width="0.1"/>
  <circle cx="88.29499249999998" cy="10.060378500000013" fill="none" r="5.04" stroke="rgb(0,178,178)" stroke-width="0.1"/>
  <circle cx="71.68899249999998" cy="90.42237850000004" fill="none" r="6" stroke="rgb(0,178,178)" stroke-width="0.1"/>
  <circle cx="71.68899249999998" cy="90.42237850000004" fill="none" r="5.04" stroke="rgb(0,178,178)" stroke-width="0.1"/>
  <circle cx="75.85699249999993" cy="67.36337849999995" fill="none" r="6" stroke="rgb(0,178,178)" stroke-width="0.1"/>
  <circle cx="75.85699249999993" cy="67.36337849999995" fill="none" r="5.04" stroke="rgb(0,178,178)" stroke-width="0.1"/>
 </g>
 <g id="layerCOLUMN" inkscape:groupmode="layer" inkscape:label="COLUMN">
  <path d="M 44.31496058052227,100.0 L 39.472992499999975,75.07637850000003" fill="none" instance-id="-1" semantic-id="1" stroke="rgb(178,178,0)" stroke-width="0.1"/>
  <path d="M 48.38983622057009,100.0 L 43.541992499999935,75.04637849999995" fill="none" instance-id="-1" semantic-id="1" stroke="rgb(178,178,0)" stroke-width="0.1"/>
  <path d="M 39.472992499999975,75.07637850000003 L 52.90989066557944,0.0" fill="none" instance-id="-1" semantic-id="1" stroke="rgb(178,178,0)" stroke-width="0.1"/>
  <path d="M 43.541992499999935,75.04637849999995 L 56.97362054981676,0.0" fill="none" instance-id="-1" semantic-id="1" stroke="rgb(178,178,0)" stroke-width="0.1"/>
  <path d="M 97.24999249999996,58.77137849999997 L 100.0,59.26370403279145" fill="none" stroke="rgb(178,178,0)" stroke-width="0.1"/>
  <path d="M 100.0,50.12079124125273 L 98.83499249999994,49.91237849999993" fill="none" stroke="rgb(178,178,0)" stroke-width="0.1"/>
  <path d="M 98.83499249999994,49.91237849999993 L 97.24999249999996,58.77137849999997" fill="none" stroke="rgb(178,178,0)" stroke-width="0.1"/>
  <path d="M 62.880992499999934,52.11237849999998 L 70.75599249999993,53.52137849999997" fill="none" stroke="rgb(178,178,0)" stroke-width="0.1"/>
  <path d="M 70.75599249999993,53.52137849999997 L 72.16599249999996,45.64637849999997" fill="none" stroke="rgb(178,178,0)" stroke-width="0.1"/>
  <path d="M 72.16599249999996,45.64637849999997 L 64.29099249999996,44.23737849999998" fill="none" stroke="rgb(178,178,0)" stroke-width="0.1"/>
  <path d="M 64.29099249999996,44.23737849999998 L 62.880992499999934,52.11237849999998" fill="none" stroke="rgb(178,178,0)" stroke-width="0.1"/>
 </g>
 <g id="layerPUB_HATCH" inkscape:groupmode="layer" inkscape:label="PUB_HATCH">
  <path d="M 48.38983622057009,100.0 L 43.541992499999935,75.04637849999995" fill="none" instance-id="-1" semantic-id="1" stroke="rgb(63,63,63)" stroke-width="0.1"/>
  <path d="M 43.541992499999935,75.04637849999995 L 39.472992499999975,75.07637850000003" fill="none" instance-id="-1" semantic-id="1" stroke="rgb(63,63,63)" stroke-width="0.1"/>
  <path d="M 39.472992499999975,75.07637850000003 L 44.31496058052227,100.0" fill="none" instance-id="-1" semantic-id="1" stroke="rgb(63,63,63)" stroke-width="0.1"/>
  <path d="M 39.472992499999975,75.07637850000003 L 43.541992499999935,75.04637849999995" fill="none" instance-id="-1" semantic-id="1" stroke="rgb(63,63,63)" stroke-width="0.1"/>
  <path d="M 43.541992499999935,75.04637849999995 L 56.97362054981676,0.0" fill="none" instance-id="-1" semantic-id="1" stroke="rgb(63,63,63)" stroke-width="0.1"/>
  <path d="M 52.90989066557944,0.0 L 39.472992499999975,75.07637850000003" fill="none" instance-id="-1" semantic-id="1" stroke="rgb(63,63,63)" stroke-width="0.1"/>
 </g>
 <g id="layerS-EQ1" inkscape:groupmode="layer" inkscape:label="S-EQ1">
  <path d="M 93.74599249999994,64.89137849999997 L 95.43999249999996,63.467378499999995" fill="none" stroke="rgb(88,0,178)" stroke-width="0.1"/>
  <path d="M 93.31499249999996,64.50937850000003 L 95.15299249999998,62.98937850000004" fill="none" stroke="rgb(88,0,178)" stroke-width="0.1"/>
  <path d="M 93.11699249999998,63.915378499999974 L 94.64099249999998,62.68437849999998" fill="none" stroke="rgb(88,0,178)" stroke-width="0.1"/>
  <path d="M 95.09499249999993,63.28737849999993 L 94.85699249999993,64.6163785" fill="none" stroke="rgb(88,0,178)" stroke-width="0.1"/>
  <path d="M 95.09499249999993,63.28737849999993 L 93.76699249999996,63.050378499999965" fill="none" stroke="rgb(88,0,178)" stroke-width="0.1"/>
  <path d="M 94.85699249999993,64.6163785 L 93.52899249999996,64.37837849999994" fill="none" stroke="rgb(88,0,178)" stroke-width="0.1"/>
  <path d="M 93.76699249999996,63.050378499999965 L 93.52899249999996,64.37837849999994" fill="none" stroke="rgb(88,0,178)" stroke-width="0.1"/>
  <circle cx="94.31199249999997" cy="63.83337849999998" fill="none" r="1.2" stroke="rgb(88,0,178)" stroke-width="0.1"/>
 </g>
</svg>