<?xml version="1.0" encoding="utf-8"?>
<svg style="background-color: #000;" version="1.1" viewBox="0 0 100.0 100.0" xmlns="http://www.w3.org/2000/svg" xmlns:inkscape="http://www.inkscape.org/namespaces/inkscape">
 <g id="layer!消防-疏散楼梯" inkscape:groupmode="layer" inkscape:label="!消防-疏散楼梯">
  <path d="M 32.268148999999994,63.43107999999984 L 8.211148999999978,79.62107999999989" fill="none" stroke="rgb(53,107,0)" stroke-width="0.1"/>
  <path d="M 8.211148999999978,79.62107999999989 L 0.0,67.42674369692713" fill="none" stroke="rgb(53,107,0)" stroke-width="0.1"/>
  <path d="M 0.0,15.501092458041512 L 32.268148999999994,63.43107999999984" fill="none" stroke="rgb(53,107,0)" stroke-width="0.1"/>
  <path d="M 32.268148999999994,63.43107999999984 L 8.211148999999978,79.62107999999989" fill="none" stroke="rgb(53,107,0)" stroke-width="0.1"/>
  <path d="M 8.211148999999978,79.62107999999989 L 0.0,67.42674369692713" fill="none" stroke="rgb(53,107,0)" stroke-width="0.1"/>
  <path d="M 0.0,15.501092458041512 L 32.268148999999994,63.43107999999984" fill="none" stroke="rgb(53,107,0)" stroke-width="0.1"/>
 </g>
 <g id="layer0-结构边线" inkscape:groupmode="layer" inkscape:label="0-结构边线">
  <path d="M 2.373149000000012,79.88107999999988 L 9.83914900000002,74.8610799999999" fill="none" stroke="rgb(178,0,178)" stroke-width="0.1"/>
  <path d="M 9.83914900000002,74.8610799999999 L 4.813149000000067,67.39107999999987" fill="none" stroke="rgb(178,0,178)" stroke-width="0.1"/>
  <path d="M 0.0,70.63379892177863 L 4.813149000000067,67.39107999999987" fill="none" stroke="rgb(178,0,178)" stroke-width="0.1"/>
  <path d="M 2.373149000000012,79.88107999999988 L 0.0,76.35865828491819" fill="none" stroke="rgb(178,0,178)" stroke-width="0.1"/>
  <path d="M 70.02814899999998,41.62107999999989 L 76.66414900000007,37.161079999999856" fill="none" stroke="rgb(178,0,178)" stroke-width="0.1"/>
  <path d="M 76.66414900000007,37.161079999999856 L 72.19614899999999,30.521079999999756" fill="none" stroke="rgb(178,0,178)" stroke-width="0.1"/>
  <path d="M 65.56014900000002,34.99107999999978 L 72.19614899999999,30.521079999999756" fill="none" stroke="rgb(178,0,178)" stroke-width="0.1"/>
  <path d="M 70.02814899999998,41.62107999999989 L 65.56014900000002,34.99107999999978" fill="none" stroke="rgb(178,0,178)" stroke-width="0.1"/>
 </g>
 <g id="layerA-车位" inkscape:groupmode="layer" inkscape:label="A-车位">
  <path d="M 99.06914900000004,20.301079999999956 L 100.0,21.683519525675592" fill="none" stroke="rgb(0,0,178)" stroke-width="0.1"/>
  <path d="M 79.16114900000002,33.70107999999982 L 100.0,64.65767577924908" fill="none" stroke="rgb(0,0,178)" stroke-width="0.1"/>
  <path d="M 100.0,21.683519525675592 L 99.06914900000004,20.301079999999956" fill="none" stroke="rgb(0,0,178)" stroke-width="0.1"/>
 </g>
 <g id="layerA-车位-text" inkscape:groupmode="layer" inkscape:label="A-车位-text">
  <text fill="rgb(178,88,0)" font-family="Noto Sans CJK SC" font-size="2" transform="rotate(-0.0,86.18414900000005,38.551079999999956)" x="86.18414900000005" y="38.551079999999956">
   A-374
  </text>
 </g>
 <g id="layerA-车位-充电桩" inkscape:groupmode="layer" inkscape:label="A-车位-充电桩">
  <path d="M 99.62134994217433,42.59709721779814 L 99.22510065965957,42.917046168483466" fill="none" stroke="rgb(0,178,178)" stroke-width="0.1"/>
  <path d="M 99.22510065965957,42.917046168483466 L 98.85741243627285,43.269446786134495" fill="none" stroke="rgb(0,178,178)" stroke-width="0.1"/>
  <path d="M 98.85741243627285,43.269446786134495 L 98.52093447408936,43.651760016226035" fill="none" stroke="rgb(0,178,178)" stroke-width="0.1"/>
  <path d="M 98.52093447408936,43.651760016226035 L 98.21809110453694,44.061231283174266" fill="none" stroke="rgb(0,178,178)" stroke-width="0.1"/>
  <path d="M 98.21809110453694,44.061231283174266 L 97.95106432103296,44.49491033711797" fill="none" stroke="rgb(0,178,178)" stroke-width="0.1"/>
  <path d="M 97.95106432103296,44.49491033711797 L 97.72177805767126,44.94967251053595" fill="none" stroke="rgb(0,178,178)" stroke-width="0.1"/>
  <path d="M 97.72177805767126,44.94967251053595 L 97.53188432723357,45.42224123154756" fill="none" stroke="rgb(0,178,178)" stroke-width="0.1"/>
  <path d="M 97.53188432723357,45.42224123154756 L 97.38275131839907,45.909211631689004" fill="none" stroke="rgb(0,178,178)" stroke-width="0.1"/>
  <path d="M 97.38275131839907,45.909211631689004 L 97.27545353791379,46.40707507806883" fill="none" stroke="rgb(0,178,178)" stroke-width="0.1"/>
  <path d="M 97.27545353791379,46.40707507806883 L 97.21076406874488,46.91224445314674" fill="none" stroke="rgb(0,178,178)" stroke-width="0.1"/>
  <path d="M 97.21076406874488,46.91224445314674 L 97.18914900000004,47.42107999999985" fill="none" stroke="rgb(0,178,178)" stroke-width="0.1"/>
  <path d="M 97.18914900000004,47.42107999999985 L 97.21076406874488,47.92991554685295" fill="none" stroke="rgb(0,178,178)" stroke-width="0.1"/>
  <path d="M 97.21076406874488,47.92991554685295 L 97.27545353791379,48.435084921930866" fill="none" stroke="rgb(0,178,178)" stroke-width="0.1"/>
  <path d="M 97.27545353791379,48.435084921930866 L 97.38275131839907,48.93294836831069" fill="none" stroke="rgb(0,178,178)" stroke-width="0.1"/>
  <path d="M 97.38275131839907,48.93294836831069 L 97.53188432723357,49.419918768452135" fill="none" stroke="rgb(0,178,178)" stroke-width="0.1"/>
  <path d="M 97.53188432723357,49.419918768452135 L 97.72177805767126,49.89248748946375" fill="none" stroke="rgb(0,178,178)" stroke-width="0.1"/>
  <path d="M 97.72177805767126,49.89248748946375 L 97.95106432103296,50.34724966288172" fill="none" stroke="rgb(0,178,178)" stroke-width="0.1"/>
  <path d="M 97.95106432103296,50.34724966288172 L 98.21809110453694,50.78092871682543" fill="none" stroke="rgb(0,178,178)" stroke-width="0.1"/>
  <path d="M 98.21809110453694,50.78092871682543 L 98.52093447408936,51.19039998377366" fill="none" stroke="rgb(0,178,178)" stroke-width="0.1"/>
  <path d="M 98.52093447408936,51.19039998377366 L 98.85741243627285,51.5727132138652" fill="none" stroke="rgb(0,178,178)" stroke-width="0.1"/>
  <path d="M 98.85741243627285,51.5727132138652 L 99.22510065965957,51.92511383151623" fill="none" stroke="rgb(0,178,178)" stroke-width="0.1"/>
  <path d="M 99.22510065965957,51.92511383151623 L 99.62134994217433,52.24506278220156" fill="none" stroke="rgb(0,178,178)" stroke-width="0.1"/>
  <path d="M 99.71675572785841,43.76812435236502 L 99.36500806162826,44.138162687079785" fill="none" stroke="rgb(0,178,178)" stroke-width="0.1"/>
  <path d="M 99.36500806162826,44.138162687079785 L 99.05250125631528,44.54188819592218" fill="none" stroke="rgb(0,178,178)" stroke-width="0.1"/>
  <path d="M 99.05250125631528,44.54188819592218 L 98.78244205463125,44.97515810884329" fill="none" stroke="rgb(0,178,178)" stroke-width="0.1"/>
  <path d="M 98.78244205463125,44.97515810884329 L 98.55760162943398,45.433526490228815" fill="none" stroke="rgb(0,178,178)" stroke-width="0.1"/>
  <path d="M 98.55760162943398,45.433526490228815 L 98.38028714774362,45.91228986021406" fill="none" stroke="rgb(0,178,178)" stroke-width="0.1"/>
  <path d="M 98.38028714774362,45.91228986021406 L 98.25231809608738,46.40653545875307" fill="none" stroke="rgb(0,178,178)" stroke-width="0.1"/>
  <path d="M 98.25231809608738,46.40653545875307 L 98.17500761010479,46.91119165718328" fill="none" stroke="rgb(0,178,178)" stroke-width="0.1"/>
  <path d="M 98.17500761010479,46.91119165718328 L 98.14914899999997,47.42107999999985" fill="none" stroke="rgb(0,178,178)" stroke-width="0.1"/>
  <path d="M 98.14914899999997,47.42107999999985 L 98.17500761010479,47.93096834281641" fill="none" stroke="rgb(0,178,178)" stroke-width="0.1"/>
  <path d="M 98.17500761010479,47.93096834281641 L 98.25231809608738,48.435624541246625" fill="none" stroke="rgb(0,178,178)" stroke-width="0.1"/>
  <path d="M 98.25231809608738,48.435624541246625 L 98.38028714774362,48.929870139785635" fill="none" stroke="rgb(0,178,178)" stroke-width="0.1"/>
  <path d="M 98.38028714774362,48.929870139785635 L 98.55760162943398,49.40863350977088" fill="none" stroke="rgb(0,178,178)" stroke-width="0.1"/>
  <path d="M 98.55760162943398,49.40863350977088 L 98.78244205463125,49.867001891156406" fill="none" stroke="rgb(0,178,178)" stroke-width="0.1"/>
  <path d="M 98.78244205463125,49.867001891156406 L 99.05250125631528,50.30027180407751" fill="none" stroke="rgb(0,178,178)" stroke-width="0.1"/>
  <path d="M 99.05250125631528,50.30027180407751 L 99.36500806162826,50.70399731291991" fill="none" stroke="rgb(0,178,178)" stroke-width="0.1"/>
  <path d="M 99.36500806162826,50.70399731291991 L 99.71675572785841,51.07403564763467" fill="none" stroke="rgb(0,178,178)" stroke-width="0.1"/>
 </g>
 <g id="layerCOLUMN" inkscape:groupmode="layer" inkscape:label="COLUMN">
  <path d="M 6.512149000000022,77.10107999999991 L 8.212149000000068,79.62107999999989" fill="none" stroke="rgb(178,178,0)" stroke-width="0.1"/>
  <path d="M 0.0,76.38199318390207 L 5.740148999999974,84.90107999999987" fill="none" stroke="rgb(178,178,0)" stroke-width="0.1"/>
  <path d="M 0.22763207677917308,100.0 L 0.0,99.66189964814657" fill="none" stroke="rgb(178,178,0)" stroke-width="0.1"/>
  <path d="M 9.041149000000019,79.07107999999994 L 23.133587558056547,100.0" fill="none" stroke="rgb(178,178,0)" stroke-width="0.1"/>
  <path d="M 8.22814900000003,83.23107999999979 L 19.518484502061142,100.0" fill="none" stroke="rgb(178,178,0)" stroke-width="0.1"/>
  <path d="M 8.22814900000003,83.23107999999979 L 5.740148999999974,84.90107999999987" fill="none" stroke="rgb(178,178,0)" stroke-width="0.1"/>
  <path d="M 9.041149000000019,79.07107999999994 L 8.212149000000068,79.62107999999989" fill="none" stroke="rgb(178,178,0)" stroke-width="0.1"/>
  <path d="M 0.0,67.42400437615515 L 1.4861490000000686,69.63107999999988" fill="none" stroke="rgb(178,178,0)" stroke-width="0.1"/>
  <path d="M 99.92631312659603,88.69701500744213 L 99.48791645962376,88.93748370312005" fill="none" stroke="rgb(178,178,0)" stroke-width="0.1"/>
  <path d="M 99.48791645962376,88.93748370312005 L 99.04956028603613,89.1780262072457" fill="none" stroke="rgb(178,178,0)" stroke-width="0.1"/>
  <path d="M 99.04956028603613,89.1780262072457 L 98.61124461825932,89.41864251299967" fill="none" stroke="rgb(178,178,0)" stroke-width="0.1"/>
  <path d="M 98.61124461825932,89.41864251299967 L 98.1729694687184,89.65933261356167" fill="none" stroke="rgb(178,178,0)" stroke-width="0.1"/>
  <path d="M 98.1729694687184,89.65933261356167 L 97.73473484983799,89.90009650210823" fill="none" stroke="rgb(178,178,0)" stroke-width="0.1"/>
  <path d="M 97.73473484983799,89.90009650210823 L 97.29654077404064,90.14093417181448" fill="none" stroke="rgb(178,178,0)" stroke-width="0.1"/>
  <path d="M 97.29654077404064,90.14093417181448 L 96.85838725374822,90.38184561585285" fill="none" stroke="rgb(178,178,0)" stroke-width="0.1"/>
  <path d="M 96.85838725374822,90.38184561585285 L 96.42027430138126,90.62283082739441" fill="none" stroke="rgb(178,178,0)" stroke-width="0.1"/>
  <path d="M 96.42027430138126,90.62283082739441 L 95.98220192935935,90.86388979960793" fill="none" stroke="rgb(178,178,0)" stroke-width="0.1"/>
  <path d="M 95.98220192935935,90.86388979960793 L 95.54417015010097,91.10502252565993" fill="none" stroke="rgb(178,178,0)" stroke-width="0.1"/>
  <path d="M 95.54417015010097,91.10502252565993 L 95.10617897602322,91.3462289987142" fill="none" stroke="rgb(178,178,0)" stroke-width="0.1"/>
  <path d="M 95.10617897602322,91.3462289987142 L 94.66822841954206,91.58750921193405" fill="none" stroke="rgb(178,178,0)" stroke-width="0.1"/>
  <path d="M 94.66822841954206,91.58750921193405 L 94.23031849307256,91.82886315847873" fill="none" stroke="rgb(178,178,0)" stroke-width="0.1"/>
  <path d="M 94.23031849307256,91.82886315847873 L 93.79244920902818,92.07029083150701" fill="none" stroke="rgb(178,178,0)" stroke-width="0.1"/>
  <path d="M 93.79244920902818,92.07029083150701 L 93.3546205798217,92.31179222417495" fill="none" stroke="rgb(178,178,0)" stroke-width="0.1"/>
  <path d="M 93.3546205798217,92.31179222417495 L 92.9168326178634,92.55336732963724" fill="none" stroke="rgb(178,178,0)" stroke-width="0.1"/>
  <path d="M 92.9168326178634,92.55336732963724 L 92.47908533556699,92.79501614104402" fill="none" stroke="rgb(178,178,0)" stroke-width="0.1"/>
  <path d="M 92.47908533556699,92.79501614104402 L 92.04137874533797,93.03673865154678" fill="none" stroke="rgb(178,178,0)" stroke-width="0.1"/>
  <path d="M 92.04137874533797,93.03673865154678 L 91.60371285958456,93.2785348542925" fill="none" stroke="rgb(178,178,0)" stroke-width="0.1"/>
  <path d="M 91.60371285958456,93.2785348542925 L 91.16608769071593,93.52040474242676" fill="none" stroke="rgb(178,178,0)" stroke-width="0.1"/>
  <path d="M 91.16608769071593,93.52040474242676 L 90.72850325113757,93.76234830909243" fill="none" stroke="rgb(178,178,0)" stroke-width="0.1"/>
  <path d="M 90.72850325113757,93.76234830909243 L 90.29095955325045,94.00436554743328" fill="none" stroke="rgb(178,178,0)" stroke-width="0.1"/>
  <path d="M 90.29095955325045,94.00436554743328 L 89.85345660946143,94.24645645058627" fill="none" stroke="rgb(178,178,0)" stroke-width="0.1"/>
  <path d="M 89.85345660946143,94.24645645058627 L 89.41599443217171,94.4886210116897" fill="none" stroke="rgb(178,178,0)" stroke-width="0.1"/>
  <path d="M 89.41599443217171,94.4886210116897 L 88.97857303378225,94.73085922387872" fill="none" stroke="rgb(178,178,0)" stroke-width="0.1"/>
  <path d="M 88.97857303378225,94.73085922387872 L 88.54119242669333,94.97317108028574" fill="none" stroke="rgb(178,178,0)" stroke-width="0.1"/>
  <path d="M 88.54119242669333,94.97317108028574 L 88.10385262330271,95.21555657404315" fill="none" stroke="rgb(178,178,0)" stroke-width="0.1"/>
  <path d="M 88.10385262330271,95.21555657404315 L 87.66655363600887,95.45801569827881" fill="none" stroke="rgb(178,178,0)" stroke-width="0.1"/>
  <path d="M 87.66655363600887,95.45801569827881 L 87.22929547720776,95.70054844612014" fill="none" stroke="rgb(178,178,0)" stroke-width="0.1"/>
  <path d="M 87.22929547720776,95.70054844612014 L 86.7920781592951,95.94315481069134" fill="none" stroke="rgb(178,178,0)" stroke-width="0.1"/>
  <path d="M 86.7920781592951,95.94315481069134 L 86.35490169466436,96.18583478511528" fill="none" stroke="rgb(178,178,0)" stroke-width="0.1"/>
  <path d="M 86.35490169466436,96.18583478511528 L 85.917766095709,96.42858836251298" fill="none" stroke="rgb(178,178,0)" stroke-width="0.1"/>
  <path d="M 85.917766095709,96.42858836251298 L 85.48067137482064,96.67141553600231" fill="none" stroke="rgb(178,178,0)" stroke-width="0.1"/>
  <path d="M 85.48067137482064,96.67141553600231 L 85.04361754438958,96.91431629870021" fill="none" stroke="rgb(178,178,0)" stroke-width="0.1"/>
  <path d="M 85.04361754438958,96.91431629870021 L 84.60660461680607,97.15729064372044" fill="none" stroke="rgb(178,178,0)" stroke-width="0.1"/>
  <path d="M 84.60660461680607,97.15729064372044 L 84.16963260445766,97.40033856417585" fill="none" stroke="rgb(178,178,0)" stroke-width="0.1"/>
  <path d="M 84.16963260445766,97.40033856417585 L 83.7327015197319,97.64346005317611" fill="none" stroke="rgb(178,178,0)" stroke-width="0.1"/>
  <path d="M 83.7327015197319,97.64346005317611 L 83.29581137501452,97.88665510382953" fill="none" stroke="rgb(178,178,0)" stroke-width="0.1"/>
  <path d="M 83.29581137501452,97.88665510382953 L 82.8589621826892,98.12992370924303" fill="none" stroke="rgb(178,178,0)" stroke-width="0.1"/>
  <path d="M 82.8589621826892,98.12992370924303 L 82.42215395514347,98.37326586251766" fill="none" stroke="rgb(178,178,0)" stroke-width="0.1"/>
  <path d="M 82.42215395514347,98.37326586251766 L 81.98538670475511,98.61668155675807" fill="none" stroke="rgb(178,178,0)" stroke-width="0.1"/>
  <path d="M 81.98538670475511,98.61668155675807 L 81.54866044390849,98.86017078506302" fill="none" stroke="rgb(178,178,0)" stroke-width="0.1"/>
  <path d="M 81.54866044390849,98.86017078506302 L 81.11197518498409,99.10373354052945" fill="none" stroke="rgb(178,178,0)" stroke-width="0.1"/>
  <path d="M 81.11197518498409,99.10373354052945 L 80.67533094035764,99.34736981625474" fill="none" stroke="rgb(178,178,0)" stroke-width="0.1"/>
  <path d="M 80.67533094035764,99.34736981625474 L 80.23872772241032,99.59107960533038" fill="none" stroke="rgb(178,178,0)" stroke-width="0.1"/>
  <path d="M 80.23872772241032,99.59107960533038 L 79.80216554351739,99.83486290084875" fill="none" stroke="rgb(178,178,0)" stroke-width="0.1"/>
  <path d="M 99.68882559274073,84.26949680133475 L 99.25017243066202,84.50973715373766" fill="none" stroke="rgb(178,178,0)" stroke-width="0.1"/>
  <path d="M 99.25017243066202,84.50973715373766 L 98.81155967840834,84.75005127543272" fill="none" stroke="rgb(178,178,0)" stroke-width="0.1"/>
  <path d="M 98.81155967840834,84.75005127543272 L 98.37298734838794,84.99043915962147" fill="none" stroke="rgb(178,178,0)" stroke-width="0.1"/>
  <path d="M 98.37298734838794,84.99043915962147 L 97.93445545300449,85.23090079950543" fill="none" stroke="rgb(178,178,0)" stroke-width="0.1"/>
  <path d="M 97.93445545300449,85.23090079950543 L 97.49596400466078,85.47143618828386" fill="none" stroke="rgb(178,178,0)" stroke-width="0.1"/>
  <path d="M 97.49596400466078,85.47143618828386 L 97.05751301576117,85.71204531915191" fill="none" stroke="rgb(178,178,0)" stroke-width="0.1"/>
  <path d="M 97.05751301576117,85.71204531915191 L 96.61910249870482,85.95272818530611" fill="none" stroke="rgb(178,178,0)" stroke-width="0.1"/>
  <path d="M 96.61910249870482,85.95272818530611 L 96.18073246589427,86.19348477993617" fill="none" stroke="rgb(178,178,0)" stroke-width="0.1"/>
  <path d="M 96.18073246589427,86.19348477993617 L 95.74240292972752,86.43431509623406" fill="none" stroke="rgb(178,178,0)" stroke-width="0.1"/>
  <path d="M 95.74240292972752,86.43431509623406 L 95.30411390260144,86.67521912738812" fill="none" stroke="rgb(178,178,0)" stroke-width="0.1"/>
  <path d="M 95.30411390260144,86.67521912738812 L 94.86586539691496,86.91619686658441" fill="none" stroke="rgb(178,178,0)" stroke-width="0.1"/>
  <path d="M 94.86586539691496,86.91619686658441 L 94.42765742506151,87.15724830700628" fill="none" stroke="rgb(178,178,0)" stroke-width="0.1"/>
  <path d="M 94.42765742506151,87.15724830700628 L 93.98948999943798,87.39837344183616" fill="none" stroke="rgb(178,178,0)" stroke-width="0.1"/>
  <path d="M 93.98948999943798,87.39837344183616 L 93.55136313243668,87.63957226425373" fill="none" stroke="rgb(178,178,0)" stroke-width="0.1"/>
  <path d="M 93.55136313243668,87.63957226425373 L 93.11327683644811,87.8808447674378" fill="none" stroke="rgb(178,178,0)" stroke-width="0.1"/>
  <path d="M 93.11327683644811,87.8808447674378 L 92.67523112386596,88.12219094456259" fill="none" stroke="rgb(178,178,0)" stroke-width="0.1"/>
  <path d="M 92.67523112386596,88.12219094456259 L 92.23722600707913,88.36361078880236" fill="none" stroke="rgb(178,178,0)" stroke-width="0.1"/>
  <path d="M 92.23722600707913,88.36361078880236 L 91.79926149847518,88.60510429332953" fill="none" stroke="rgb(178,178,0)" stroke-width="0.1"/>
  <path d="M 91.79926149847518,88.60510429332953 L 91.36133761044391,88.84667145131243" fill="none" stroke="rgb(178,178,0)" stroke-width="0.1"/>
  <path d="M 91.36133761044391,88.84667145131243 L 90.92345435536947,89.08831225591894" fill="none" stroke="rgb(178,178,0)" stroke-width="0.1"/>
  <path d="M 90.92345435536947,89.08831225591894 L 90.48561174563963,89.33002670031374" fill="none" stroke="rgb(178,178,0)" stroke-width="0.1"/>
  <path d="M 90.48561174563963,89.33002670031374 L 90.04780979363738,89.57181477766107" fill="none" stroke="rgb(178,178,0)" stroke-width="0.1"/>
  <path d="M 90.04780979363738,89.57181477766107 L 89.61004851174414,89.81367648112155" fill="none" stroke="rgb(178,178,0)" stroke-width="0.1"/>
  <path d="M 89.61004851174414,89.81367648112155 L 89.17232791234471,90.05561180385394" fill="none" stroke="rgb(178,178,0)" stroke-width="0.1"/>
  <path d="M 89.17232791234471,90.05561180385394 L 88.73464800781733,90.29762073901611" fill="none" stroke="rgb(178,178,0)" stroke-width="0.1"/>
  <path d="M 88.73464800781733,90.29762073901611 L 88.29700881054339,90.53970327976185" fill="none" stroke="rgb(178,178,0)" stroke-width="0.1"/>
  <path d="M 88.29700881054339,90.53970327976185 L 87.8594103329009,90.78185941924448" fill="none" stroke="rgb(178,178,0)" stroke-width="0.1"/>
  <path d="M 87.8594103329009,90.78185941924448 L 87.42185258726556,91.02408915061505" fill="none" stroke="rgb(178,178,0)" stroke-width="0.1"/>
  <path d="M 87.42185258726556,91.02408915061505 L 86.98433558601562,91.26639246702189" fill="none" stroke="rgb(178,178,0)" stroke-width="0.1"/>
  <path d="M 86.98433558601562,91.26639246702189 L 86.54685934152519,91.50876936161103" fill="none" stroke="rgb(178,178,0)" stroke-width="0.1"/>
  <path d="M 86.54685934152519,91.50876936161103 L 86.10942386616682,91.75121982752853" fill="none" stroke="rgb(178,178,0)" stroke-width="0.1"/>
  <path d="M 86.10942386616682,91.75121982752853 L 85.67202917231555,91.99374385791498" fill="none" stroke="rgb(178,178,0)" stroke-width="0.1"/>
  <path d="M 85.67202917231555,91.99374385791498 L 85.23467527234027,92.23634144591233" fill="none" stroke="rgb(178,178,0)" stroke-width="0.1"/>
  <path d="M 85.23467527234027,92.23634144591233 L 84.79736217861398,92.47901258465708" fill="none" stroke="rgb(178,178,0)" stroke-width="0.1"/>
  <path d="M 84.79736217861398,92.47901258465708 L 84.36008990350467,92.7217572672862" fill="none" stroke="rgb(178,178,0)" stroke-width="0.1"/>
  <path d="M 84.36008990350467,92.7217572672862 L 83.92285845937897,92.96457548693525" fill="none" stroke="rgb(178,178,0)" stroke-width="0.1"/>
  <path d="M 83.92285845937897,92.96457548693525 L 83.48566785860623,93.20746723673346" fill="none" stroke="rgb(178,178,0)" stroke-width="0.1"/>
  <path d="M 83.48566785860623,93.20746723673346 L 83.04851811355104,93.4504325098128" fill="none" stroke="rgb(178,178,0)" stroke-width="0.1"/>
  <path d="M 83.04851811355104,93.4504325098128 L 82.61140923657683,93.69347129930111" fill="none" stroke="rgb(178,178,0)" stroke-width="0.1"/>
  <path d="M 82.61140923657683,93.69347129930111 L 82.1743412400491,93.93658359832261" fill="none" stroke="rgb(178,178,0)" stroke-width="0.1"/>
  <path d="M 82.1743412400491,93.93658359832261 L 81.73731413632811,94.1797694000029" fill="none" stroke="rgb(178,178,0)" stroke-width="0.1"/>
  <path d="M 81.73731413632811,94.1797694000029 L 81.30032793777707,94.42302869746163" fill="none" stroke="rgb(178,178,0)" stroke-width="0.1"/>
  <path d="M 81.30032793777707,94.42302869746163 L 80.86338265675488,94.6663614838194" fill="none" stroke="rgb(178,178,0)" stroke-width="0.1"/>
  <path d="M 80.86338265675488,94.6663614838194 L 80.42647830561907,94.90976775219406" fill="none" stroke="rgb(178,178,0)" stroke-width="0.1"/>
  <path d="M 80.42647830561907,94.90976775219406 L 79.98961489672968,95.15324749570027" fill="none" stroke="rgb(178,178,0)" stroke-width="0.1"/>
  <path d="M 79.98961489672968,95.15324749570027 L 79.55279244244082,95.3968007074518" fill="none" stroke="rgb(178,178,0)" stroke-width="0.1"/>
  <path d="M 79.55279244244082,95.3968007074518 L 79.1160109551098,95.64042738055878" fill="none" stroke="rgb(178,178,0)" stroke-width="0.1"/>
  <path d="M 79.1160109551098,95.64042738055878 L 78.67927044709006,95.88412750813177" fill="none" stroke="rgb(178,178,0)" stroke-width="0.1"/>
  <path d="M 78.67927044709006,95.88412750813177 L 78.24257093073345,96.12790108327727" fill="none" stroke="rgb(178,178,0)" stroke-width="0.1"/>
  <path d="M 78.24257093073345,96.12790108327727 L 77.80591241839386,96.37174809910039" fill="none" stroke="rgb(178,178,0)" stroke-width="0.1"/>
  <path d="M 77.80591241839386,96.37174809910039 L 77.36929492242086,96.61566854870307" fill="none" stroke="rgb(178,178,0)" stroke-width="0.1"/>
  <path d="M 77.36929492242086,96.61566854870307 L 76.93271845516313,96.85966242518816" fill="none" stroke="rgb(178,178,0)" stroke-width="0.1"/>
  <path d="M 76.93271845516313,96.85966242518816 L 76.4961830289709,97.10372972165214" fill="none" stroke="rgb(178,178,0)" stroke-width="0.1"/>
  <path d="M 76.4961830289709,97.10372972165214 L 76.059688656189,97.34787043119377" fill="none" stroke="rgb(178,178,0)" stroke-width="0.1"/>
  <path d="M 76.059688656189,97.34787043119377 L 75.62323534916607,97.59208454690588" fill="none" stroke="rgb(178,178,0)" stroke-width="0.1"/>
  <path d="M 75.62323534916607,97.59208454690588 L 75.18682312024578,97.83637206188178" fill="none" stroke="rgb(178,178,0)" stroke-width="0.1"/>
  <path d="M 75.18682312024578,97.83637206188178 L 74.75045198177065,98.08073296921248" fill="none" stroke="rgb(178,178,0)" stroke-width="0.1"/>
  <path d="M 74.75045198177065,98.08073296921248 L 74.31412194608549,98.32516726198492" fill="none" stroke="rgb(178,178,0)" stroke-width="0.1"/>
  <path d="M 74.31412194608549,98.32516726198492 L 73.87783302553055,98.56967493328648" fill="none" stroke="rgb(178,178,0)" stroke-width="0.1"/>
  <path d="M 73.87783302553055,98.56967493328648 L 73.44158523244494,98.81425597620137" fill="none" stroke="rgb(178,178,0)" stroke-width="0.1"/>
  <path d="M 73.44158523244494,98.81425597620137 L 73.00537857917004,99.05891038381151" fill="none" stroke="rgb(178,178,0)" stroke-width="0.1"/>
  <path d="M 73.00537857917004,99.05891038381151 L 72.56921307804112,99.30363814919701" fill="none" stroke="rgb(178,178,0)" stroke-width="0.1"/>
  <path d="M 72.56921307804112,99.30363814919701 L 72.13308874139773,99.54843926543526" fill="none" stroke="rgb(178,178,0)" stroke-width="0.1"/>
  <path d="M 72.13308874139773,99.54843926543526 L 71.69700558157376,99.79331372560273" fill="none" stroke="rgb(178,178,0)" stroke-width="0.1"/>
  <path d="M 2.373149000000012,79.88107999999988 L 9.83914900000002,74.8610799999999" fill="none" stroke="rgb(178,178,0)" stroke-width="0.1"/>
  <path d="M 9.83914900000002,74.8610799999999 L 4.813149000000067,67.39107999999987" fill="none" stroke="rgb(178,178,0)" stroke-width="0.1"/>
  <path d="M 4.813149000000067,67.39107999999987 L 0.0,70.63379892177863" fill="none" stroke="rgb(178,178,0)" stroke-width="0.1"/>
  <path d="M 0.0,76.35865828491819 L 2.373149000000012,79.88107999999988" fill="none" stroke="rgb(178,178,0)" stroke-width="0.1"/>
  <path d="M 70.02814899999998,41.62107999999989 L 76.66414900000007,37.161079999999856" fill="none" stroke="rgb(178,178,0)" stroke-width="0.1"/>
  <path d="M 76.66414900000007,37.161079999999856 L 72.19614899999999,30.521079999999756" fill="none" stroke="rgb(178,178,0)" stroke-width="0.1"/>
  <path d="M 72.19614899999999,30.521079999999756 L 65.56014900000002,34.99107999999978" fill="none" stroke="rgb(178,178,0)" stroke-width="0.1"/>
  <path d="M 65.56014900000002,34.99107999999978 L 70.02814899999998,41.62107999999989" fill="none" stroke="rgb(178,178,0)" stroke-width="0.1"/>
 </g>
 <g id="layerDIM_IDEN" inkscape:groupmode="layer" inkscape:label="DIM_IDEN">
  <path d="M 34.511149000000046,39.98107999999979 L 0.0,63.21707648462325" fill="none" stroke="rgb(0,178,0)" stroke-width="0.1"/>
 </g>
 <g id="layerDIM_SYMB" inkscape:groupmode="layer" inkscape:label="DIM_SYMB">
  <path d="M 0.0,88.02250173031007 L 1.6031490000000304,90.40107999999987" fill="none" stroke="rgb(0,178,0)" stroke-width="0.1"/>
  <path d="M 1.1321490000000267,29.7210799999998 L 17.38514900000007,53.85107999999991" fill="none" stroke="rgb(0,178,0)" stroke-width="0.1"/>
  <path d="M 17.38514900000007,53.85107999999991 L 4.942148999999972,62.23107999999979" fill="none" stroke="rgb(0,178,0)" stroke-width="0.1"/>
  <path d="M 4.942148999999972,62.23107999999979 L 0.0,54.89346656814996" fill="none" stroke="rgb(0,178,0)" stroke-width="0.1"/>
 </g>
 <g id="layerDOOR_FIRE" inkscape:groupmode="layer" inkscape:label="DOOR_FIRE">
  <path d="M 42.84875743265286,0.0 L 40.79714899999999,1.3810799999998835" fill="none" stroke="rgb(0,178,178)" stroke-width="0.1"/>
  <path d="M 43.66461071428546,0.0 L 41.04814899999997,1.7610799999997653" fill="none" stroke="rgb(0,178,178)" stroke-width="0.1"/>
  <path d="M 40.79714899999999,1.3810799999998835 L 41.04814899999997,1.7610799999997653" fill="none" stroke="rgb(0,178,178)" stroke-width="0.1"/>
  <path d="M 71.41614900000002,41.891079999999874 L 78.69514900000001,36.99107999999978" fill="none" instance-id="2" semantic-id="4" stroke="rgb(0,178,178)" stroke-width="0.1"/>
  <path d="M 71.667149,42.271079999999756 L 78.94614899999999,37.37107999999989" fill="none" instance-id="2" semantic-id="4" stroke="rgb(0,178,178)" stroke-width="0.1"/>
  <path d="M 71.41614900000002,41.891079999999874 L 71.667149,42.271079999999756" fill="none" instance-id="2" semantic-id="4" stroke="rgb(0,178,178)" stroke-width="0.1"/>
  <path d="M 78.94614899999999,37.37107999999989 L 78.69514900000001,36.99107999999978" fill="none" instance-id="2" semantic-id="4" stroke="rgb(0,178,178)" stroke-width="0.1"/>
  <path d="M 81.21814900000004,56.45107999999982 L 88.49714900000004,51.551079999999956" fill="none" instance-id="2" semantic-id="4" stroke="rgb(0,178,178)" stroke-width="0.1"/>
  <path d="M 81.46914900000002,56.82107999999994 L 88.74814900000001,51.92107999999985" fill="none" instance-id="2" semantic-id="4" stroke="rgb(0,178,178)" stroke-width="0.1"/>
  <path d="M 88.49714900000004,51.551079999999956 L 88.74814900000001,51.92107999999985" fill="none" instance-id="2" semantic-id="4" stroke="rgb(0,178,178)" stroke-width="0.1"/>
  <path d="M 81.46914900000002,56.82107999999994 L 81.21814900000004,56.45107999999982" fill="none" instance-id="2" semantic-id="4" stroke="rgb(0,178,178)" stroke-width="0.1"/>
  <path d="M 40.10411720019681,0.047335680017340565 L 40.310548756443495,0.504956962115557" fill="none" stroke="rgb(0,178,178)" stroke-width="0.1"/>
  <path d="M 40.310548756443495,0.504956962115557 L 40.54281276463507,0.9500239859924022" fill="none" stroke="rgb(0,178,178)" stroke-width="0.1"/>
  <path d="M 40.54281276463507,0.9500239859924022 L 40.80014900000003,1.3810799999998835" fill="none" stroke="rgb(0,178,178)" stroke-width="0.1"/>
  <path d="M 76.44314900000006,49.3610799999999 A 8.775,8.775 0.0 0,0 78.94414900000004,37.37107999999989" fill="none" instance-id="2" semantic-id="4" stroke="rgb(0,178,178)" stroke-width="0.1"/>
  <path d="M 88.494149,51.551079999999956 A 8.775,8.775 0.0 0,0 76.44314900000006,49.3610799999999" fill="none" instance-id="2" semantic-id="4" stroke="rgb(0,178,178)" stroke-width="0.1"/>
 </g>
 <g id="layerDOOR_FIRE_TEXT" inkscape:groupmode="layer" inkscape:label="DOOR_FIRE_TEXT">
  <text fill="rgb(0,0,0)" font-family="Noto Sans CJK SC" font-size="2" transform="rotate(-123.953,79.37514899999996,55.08107999999993)" x="79.37514899999996" y="55.08107999999993">
   FM
  </text>
  <text fill="rgb(0,0,0)" font-family="Noto Sans CJK SC" font-size="2" transform="rotate(-123.953,77.31714899999997,52.021079999999756)" x="77.31714899999997" y="52.021079999999756">
   甲
  </text>
  <text fill="rgb(0,0,0)" font-family="Noto Sans CJK SC" font-size="2" transform="rotate(-123.953,75.417149,49.20107999999982)" x="75.417149" y="49.20107999999982">
   1823
  </text>
 </g>
 <g id="layerEVTR" inkscape:groupmode="layer" inkscape:label="EVTR">
  <path d="M 33.19814900000006,50.59107999999992 L 31.03414900000007,47.391079999999874" fill="none" instance-id="4" semantic-id="31" stroke="rgb(178,88,0)" stroke-width="0.1"/>
  <path d="M 31.03414900000007,47.391079999999874 L 41.00314900000001,40.651079999999865" fill="none" instance-id="4" semantic-id="31" stroke="rgb(178,88,0)" stroke-width="0.1"/>
  <path d="M 41.00314900000001,40.651079999999865 L 43.16614900000002,43.84107999999992" fill="none" instance-id="4" semantic-id="31" stroke="rgb(178,88,0)" stroke-width="0.1"/>
  <path d="M 43.16614900000002,43.84107999999992 L 33.19814900000006,50.59107999999992" fill="none" instance-id="4" semantic-id="31" stroke="rgb(178,88,0)" stroke-width="0.1"/>
  <path d="M 29.379148999999984,47.44107999999983 L 19.72114899999997,33.18107999999984" fill="none" instance-id="4" semantic-id="31" stroke="rgb(178,88,0)" stroke-width="0.1"/>
  <path d="M 19.72114899999997,33.18107999999984 L 33.13414899999998,24.10107999999991" fill="none" instance-id="4" semantic-id="31" stroke="rgb(178,88,0)" stroke-width="0.1"/>
  <path d="M 33.13414899999998,24.10107999999991 L 42.792148999999995,38.3610799999999" fill="none" instance-id="4" semantic-id="31" stroke="rgb(178,88,0)" stroke-width="0.1"/>
  <path d="M 42.792148999999995,38.3610799999999 L 29.379148999999984,47.44107999999983" fill="none" instance-id="4" semantic-id="31" stroke="rgb(178,88,0)" stroke-width="0.1"/>
  <path d="M 29.379148999999984,47.44107999999983 L 33.13414899999998,24.10107999999991" fill="none" instance-id="4" semantic-id="31" stroke="rgb(178,88,0)" stroke-width="0.1"/>
  <path d="M 19.72114899999997,33.18107999999984 L 42.792148999999995,38.3610799999999" fill="none" instance-id="4" semantic-id="31" stroke="rgb(178,88,0)" stroke-width="0.1"/>
 </g>
 <g id="layerPUB_HATCH" inkscape:groupmode="layer" inkscape:label="PUB_HATCH">
  <path d="M 99.68882559274073,84.26949680133475 L 99.25017243066202,84.50973715373766" fill="none" stroke="rgb(63,63,63)" stroke-width="0.1"/>
  <path d="M 99.25017243066202,84.50973715373766 L 98.81155967840834,84.75005127543272" fill="none" stroke="rgb(63,63,63)" stroke-width="0.1"/>
  <path d="M 98.81155967840834,84.75005127543272 L 98.37298734838794,84.99043915962147" fill="none" stroke="rgb(63,63,63)" stroke-width="0.1"/>
  <path d="M 98.37298734838794,84.99043915962147 L 97.93445545300449,85.23090079950543" fill="none" stroke="rgb(63,63,63)" stroke-width="0.1"/>
  <path d="M 97.93445545300449,85.23090079950543 L 97.49596400466078,85.47143618828386" fill="none" stroke="rgb(63,63,63)" stroke-width="0.1"/>
  <path d="M 97.49596400466078,85.47143618828386 L 97.05751301576117,85.71204531915191" fill="none" stroke="rgb(63,63,63)" stroke-width="0.1"/>
  <path d="M 97.05751301576117,85.71204531915191 L 96.61910249870482,85.95272818530611" fill="none" stroke="rgb(63,63,63)" stroke-width="0.1"/>
  <path d="M 96.61910249870482,85.95272818530611 L 96.18073246589427,86.19348477993617" fill="none" stroke="rgb(63,63,63)" stroke-width="0.1"/>
  <path d="M 96.18073246589427,86.19348477993617 L 95.74240292972752,86.43431509623406" fill="none" stroke="rgb(63,63,63)" stroke-width="0.1"/>
  <path d="M 95.74240292972752,86.43431509623406 L 95.30411390260144,86.67521912738812" fill="none" stroke="rgb(63,63,63)" stroke-width="0.1"/>
  <path d="M 95.30411390260144,86.67521912738812 L 94.86586539691496,86.91619686658441" fill="none" stroke="rgb(63,63,63)" stroke-width="0.1"/>
  <path d="M 94.86586539691496,86.91619686658441 L 94.42765742506151,87.15724830700628" fill="none" stroke="rgb(63,63,63)" stroke-width="0.1"/>
  <path d="M 94.42765742506151,87.15724830700628 L 93.98948999943798,87.39837344183616" fill="none" stroke="rgb(63,63,63)" stroke-width="0.1"/>
  <path d="M 93.98948999943798,87.39837344183616 L 93.55136313243668,87.63957226425373" fill="none" stroke="rgb(63,63,63)" stroke-width="0.1"/>
  <path d="M 93.55136313243668,87.63957226425373 L 93.11327683644811,87.8808447674378" fill="none" stroke="rgb(63,63,63)" stroke-width="0.1"/>
  <path d="M 93.11327683644811,87.8808447674378 L 92.67523112386596,88.12219094456259" fill="none" stroke="rgb(63,63,63)" stroke-width="0.1"/>
  <path d="M 92.67523112386596,88.12219094456259 L 92.23722600707913,88.36361078880236" fill="none" stroke="rgb(63,63,63)" stroke-width="0.1"/>
  <path d="M 92.23722600707913,88.36361078880236 L 91.79926149847518,88.60510429332953" fill="none" stroke="rgb(63,63,63)" stroke-width="0.1"/>
  <path d="M 91.79926149847518,88.60510429332953 L 91.36133761044391,88.84667145131243" fill="none" stroke="rgb(63,63,63)" stroke-width="0.1"/>
  <path d="M 91.36133761044391,88.84667145131243 L 90.92345435536947,89.08831225591894" fill="none" stroke="rgb(63,63,63)" stroke-width="0.1"/>
  <path d="M 90.92345435536947,89.08831225591894 L 90.48561174563963,89.33002670031374" fill="none" stroke="rgb(63,63,63)" stroke-width="0.1"/>
  <path d="M 90.48561174563963,89.33002670031374 L 90.04780979363738,89.57181477766107" fill="none" stroke="rgb(63,63,63)" stroke-width="0.1"/>
  <path d="M 90.04780979363738,89.57181477766107 L 89.61004851174414,89.81367648112155" fill="none" stroke="rgb(63,63,63)" stroke-width="0.1"/>
  <path d="M 89.61004851174414,89.81367648112155 L 89.17232791234471,90.05561180385394" fill="none" stroke="rgb(63,63,63)" stroke-width="0.1"/>
  <path d="M 89.17232791234471,90.05561180385394 L 88.73464800781733,90.29762073901611" fill="none" stroke="rgb(63,63,63)" stroke-width="0.1"/>
  <path d="M 88.73464800781733,90.29762073901611 L 88.29700881054339,90.53970327976185" fill="none" stroke="rgb(63,63,63)" stroke-width="0.1"/>
  <path d="M 88.29700881054339,90.53970327976185 L 87.8594103329009,90.78185941924448" fill="none" stroke="rgb(63,63,63)" stroke-width="0.1"/>
  <path d="M 87.8594103329009,90.78185941924448 L 87.42185258726556,91.02408915061505" fill="none" stroke="rgb(63,63,63)" stroke-width="0.1"/>
  <path d="M 87.42185258726556,91.02408915061505 L 86.98433558601562,91.26639246702189" fill="none" stroke="rgb(63,63,63)" stroke-width="0.1"/>
  <path d="M 86.98433558601562,91.26639246702189 L 86.54685934152519,91.50876936161103" fill="none" stroke="rgb(63,63,63)" stroke-width="0.1"/>
  <path d="M 86.54685934152519,91.50876936161103 L 86.10942386616682,91.75121982752853" fill="none" stroke="rgb(63,63,63)" stroke-width="0.1"/>
  <path d="M 86.10942386616682,91.75121982752853 L 85.67202917231555,91.99374385791498" fill="none" stroke="rgb(63,63,63)" stroke-width="0.1"/>
  <path d="M 85.67202917231555,91.99374385791498 L 85.23467527234027,92.23634144591233" fill="none" stroke="rgb(63,63,63)" stroke-width="0.1"/>
  <path d="M 85.23467527234027,92.23634144591233 L 84.79736217861398,92.47901258465708" fill="none" stroke="rgb(63,63,63)" stroke-width="0.1"/>
  <path d="M 84.79736217861398,92.47901258465708 L 84.36008990350467,92.7217572672862" fill="none" stroke="rgb(63,63,63)" stroke-width="0.1"/>
  <path d="M 84.36008990350467,92.7217572672862 L 83.92285845937897,92.96457548693525" fill="none" stroke="rgb(63,63,63)" stroke-width="0.1"/>
  <path d="M 83.92285845937897,92.96457548693525 L 83.48566785860623,93.20746723673346" fill="none" stroke="rgb(63,63,63)" stroke-width="0.1"/>
  <path d="M 83.48566785860623,93.20746723673346 L 83.04851811355104,93.4504325098128" fill="none" stroke="rgb(63,63,63)" stroke-width="0.1"/>
  <path d="M 83.04851811355104,93.4504325098128 L 82.61140923657683,93.69347129930111" fill="none" stroke="rgb(63,63,63)" stroke-width="0.1"/>
  <path d="M 82.61140923657683,93.69347129930111 L 82.1743412400491,93.93658359832261" fill="none" stroke="rgb(63,63,63)" stroke-width="0.1"/>
  <path d="M 82.1743412400491,93.93658359832261 L 81.73731413632811,94.1797694000029" fill="none" stroke="rgb(63,63,63)" stroke-width="0.1"/>
  <path d="M 81.73731413632811,94.1797694000029 L 81.30032793777707,94.42302869746163" fill="none" stroke="rgb(63,63,63)" stroke-width="0.1"/>
  <path d="M 81.30032793777707,94.42302869746163 L 80.86338265675488,94.6663614838194" fill="none" stroke="rgb(63,63,63)" stroke-width="0.1"/>
  <path d="M 80.86338265675488,94.6663614838194 L 80.42647830561907,94.90976775219406" fill="none" stroke="rgb(63,63,63)" stroke-width="0.1"/>
  <path d="M 80.42647830561907,94.90976775219406 L 79.98961489672968,95.15324749570027" fill="none" stroke="rgb(63,63,63)" stroke-width="0.1"/>
  <path d="M 79.98961489672968,95.15324749570027 L 79.55279244244082,95.3968007074518" fill="none" stroke="rgb(63,63,63)" stroke-width="0.1"/>
  <path d="M 79.55279244244082,95.3968007074518 L 79.1160109551098,95.64042738055878" fill="none" stroke="rgb(63,63,63)" stroke-width="0.1"/>
  <path d="M 79.1160109551098,95.64042738055878 L 78.67927044709006,95.88412750813177" fill="none" stroke="rgb(63,63,63)" stroke-width="0.1"/>
  <path d="M 78.67927044709006,95.88412750813177 L 78.24257093073345,96.12790108327727" fill="none" stroke="rgb(63,63,63)" stroke-width="0.1"/>
  <path d="M 78.24257093073345,96.12790108327727 L 77.80591241839386,96.37174809910039" fill="none" stroke="rgb(63,63,63)" stroke-width="0.1"/>
  <path d="M 77.80591241839386,96.37174809910039 L 77.36929492242086,96.61566854870307" fill="none" stroke="rgb(63,63,63)" stroke-width="0.1"/>
  <path d="M 77.36929492242086,96.61566854870307 L 76.93271845516313,96.85966242518816" fill="none" stroke="rgb(63,63,63)" stroke-width="0.1"/>
  <path d="M 76.93271845516313,96.85966242518816 L 76.4961830289709,97.10372972165214" fill="none" stroke="rgb(63,63,63)" stroke-width="0.1"/>
  <path d="M 76.4961830289709,97.10372972165214 L 76.059688656189,97.34787043119377" fill="none" stroke="rgb(63,63,63)" stroke-width="0.1"/>
  <path d="M 76.059688656189,97.34787043119377 L 75.62323534916607,97.59208454690588" fill="none" stroke="rgb(63,63,63)" stroke-width="0.1"/>
  <path d="M 75.62323534916607,97.59208454690588 L 75.18682312024578,97.83637206188178" fill="none" stroke="rgb(63,63,63)" stroke-width="0.1"/>
  <path d="M 75.18682312024578,97.83637206188178 L 74.75045198177065,98.08073296921248" fill="none" stroke="rgb(63,63,63)" stroke-width="0.1"/>
  <path d="M 74.75045198177065,98.08073296921248 L 74.31412194608549,98.32516726198492" fill="none" stroke="rgb(63,63,63)" stroke-width="0.1"/>
  <path d="M 74.31412194608549,98.32516726198492 L 73.87783302553055,98.56967493328648" fill="none" stroke="rgb(63,63,63)" stroke-width="0.1"/>
  <path d="M 73.87783302553055,98.56967493328648 L 73.44158523244494,98.81425597620137" fill="none" stroke="rgb(63,63,63)" stroke-width="0.1"/>
  <path d="M 73.44158523244494,98.81425597620137 L 73.00537857917004,99.05891038381151" fill="none" stroke="rgb(63,63,63)" stroke-width="0.1"/>
  <path d="M 73.00537857917004,99.05891038381151 L 72.56921307804112,99.30363814919701" fill="none" stroke="rgb(63,63,63)" stroke-width="0.1"/>
  <path d="M 72.56921307804112,99.30363814919701 L 72.13308874139773,99.54843926543526" fill="none" stroke="rgb(63,63,63)" stroke-width="0.1"/>
  <path d="M 72.13308874139773,99.54843926543526 L 71.69700558157376,99.79331372560273" fill="none" stroke="rgb(63,63,63)" stroke-width="0.1"/>
  <path d="M 99.92631312659603,88.69701500744213 L 99.48791645962376,88.93748370312005" fill="none" stroke="rgb(63,63,63)" stroke-width="0.1"/>
  <path d="M 99.48791645962376,88.93748370312005 L 99.04956028603613,89.1780262072457" fill="none" stroke="rgb(63,63,63)" stroke-width="0.1"/>
  <path d="M 99.04956028603613,89.1780262072457 L 98.61124461825932,89.41864251299967" fill="none" stroke="rgb(63,63,63)" stroke-width="0.1"/>
  <path d="M 98.61124461825932,89.41864251299967 L 98.1729694687184,89.65933261356167" fill="none" stroke="rgb(63,63,63)" stroke-width="0.1"/>
  <path d="M 98.1729694687184,89.65933261356167 L 97.73473484983799,89.90009650210823" fill="none" stroke="rgb(63,63,63)" stroke-width="0.1"/>
  <path d="M 97.73473484983799,89.90009650210823 L 97.29654077404064,90.14093417181448" fill="none" stroke="rgb(63,63,63)" stroke-width="0.1"/>
  <path d="M 97.29654077404064,90.14093417181448 L 96.85838725374822,90.38184561585285" fill="none" stroke="rgb(63,63,63)" stroke-width="0.1"/>
  <path d="M 96.85838725374822,90.38184561585285 L 96.42027430138126,90.62283082739441" fill="none" stroke="rgb(63,63,63)" stroke-width="0.1"/>
  <path d="M 96.42027430138126,90.62283082739441 L 95.98220192935935,90.86388979960793" fill="none" stroke="rgb(63,63,63)" stroke-width="0.1"/>
  <path d="M 95.98220192935935,90.86388979960793 L 95.54417015010097,91.10502252565993" fill="none" stroke="rgb(63,63,63)" stroke-width="0.1"/>
  <path d="M 95.54417015010097,91.10502252565993 L 95.10617897602322,91.3462289987142" fill="none" stroke="rgb(63,63,63)" stroke-width="0.1"/>
  <path d="M 95.10617897602322,91.3462289987142 L 94.66822841954206,91.58750921193405" fill="none" stroke="rgb(63,63,63)" stroke-width="0.1"/>
  <path d="M 94.66822841954206,91.58750921193405 L 94.23031849307256,91.82886315847873" fill="none" stroke="rgb(63,63,63)" stroke-width="0.1"/>
  <path d="M 94.23031849307256,91.82886315847873 L 93.79244920902818,92.07029083150701" fill="none" stroke="rgb(63,63,63)" stroke-width="0.1"/>
  <path d="M 93.79244920902818,92.07029083150701 L 93.3546205798217,92.31179222417495" fill="none" stroke="rgb(63,63,63)" stroke-width="0.1"/>
  <path d="M 93.3546205798217,92.31179222417495 L 92.9168326178634,92.55336732963724" fill="none" stroke="rgb(63,63,63)" stroke-width="0.1"/>
  <path d="M 92.9168326178634,92.55336732963724 L 92.47908533556699,92.79501614104402" fill="none" stroke="rgb(63,63,63)" stroke-width="0.1"/>
  <path d="M 92.47908533556699,92.79501614104402 L 92.04137874533797,93.03673865154678" fill="none" stroke="rgb(63,63,63)" stroke-width="0.1"/>
  <path d="M 92.04137874533797,93.03673865154678 L 91.60371285958456,93.2785348542925" fill="none" stroke="rgb(63,63,63)" stroke-width="0.1"/>
  <path d="M 91.60371285958456,93.2785348542925 L 91.16608769071593,93.52040474242676" fill="none" stroke="rgb(63,63,63)" stroke-width="0.1"/>
  <path d="M 91.16608769071593,93.52040474242676 L 90.72850325113757,93.76234830909243" fill="none" stroke="rgb(63,63,63)" stroke-width="0.1"/>
  <path d="M 90.72850325113757,93.76234830909243 L 90.29095955325045,94.00436554743328" fill="none" stroke="rgb(63,63,63)" stroke-width="0.1"/>
  <path d="M 90.29095955325045,94.00436554743328 L 89.85345660946143,94.24645645058627" fill="none" stroke="rgb(63,63,63)" stroke-width="0.1"/>
  <path d="M 89.85345660946143,94.24645645058627 L 89.41599443217171,94.4886210116897" fill="none" stroke="rgb(63,63,63)" stroke-width="0.1"/>
  <path d="M 89.41599443217171,94.4886210116897 L 88.97857303378225,94.73085922387872" fill="none" stroke="rgb(63,63,63)" stroke-width="0.1"/>
  <path d="M 88.97857303378225,94.73085922387872 L 88.54119242669333,94.97317108028574" fill="none" stroke="rgb(63,63,63)" stroke-width="0.1"/>
  <path d="M 88.54119242669333,94.97317108028574 L 88.10385262330271,95.21555657404315" fill="none" stroke="rgb(63,63,63)" stroke-width="0.1"/>
  <path d="M 88.10385262330271,95.21555657404315 L 87.66655363600887,95.45801569827881" fill="none" stroke="rgb(63,63,63)" stroke-width="0.1"/>
  <path d="M 87.66655363600887,95.45801569827881 L 87.22929547720776,95.70054844612014" fill="none" stroke="rgb(63,63,63)" stroke-width="0.1"/>
  <path d="M 87.22929547720776,95.70054844612014 L 86.7920781592951,95.94315481069134" fill="none" stroke="rgb(63,63,63)" stroke-width="0.1"/>
  <path d="M 86.7920781592951,95.94315481069134 L 86.35490169466436,96.18583478511528" fill="none" stroke="rgb(63,63,63)" stroke-width="0.1"/>
  <path d="M 86.35490169466436,96.18583478511528 L 85.917766095709,96.42858836251298" fill="none" stroke="rgb(63,63,63)" stroke-width="0.1"/>
  <path d="M 85.917766095709,96.42858836251298 L 85.48067137482064,96.67141553600231" fill="none" stroke="rgb(63,63,63)" stroke-width="0.1"/>
  <path d="M 85.48067137482064,96.67141553600231 L 85.04361754438958,96.91431629870021" fill="none" stroke="rgb(63,63,63)" stroke-width="0.1"/>
  <path d="M 85.04361754438958,96.91431629870021 L 84.60660461680607,97.15729064372044" fill="none" stroke="rgb(63,63,63)" stroke-width="0.1"/>
  <path d="M 84.60660461680607,97.15729064372044 L 84.16963260445766,97.40033856417585" fill="none" stroke="rgb(63,63,63)" stroke-width="0.1"/>
  <path d="M 84.16963260445766,97.40033856417585 L 83.7327015197319,97.64346005317611" fill="none" stroke="rgb(63,63,63)" stroke-width="0.1"/>
  <path d="M 83.7327015197319,97.64346005317611 L 83.29581137501452,97.88665510382953" fill="none" stroke="rgb(63,63,63)" stroke-width="0.1"/>
  <path d="M 83.29581137501452,97.88665510382953 L 82.8589621826892,98.12992370924303" fill="none" stroke="rgb(63,63,63)" stroke-width="0.1"/>
  <path d="M 82.8589621826892,98.12992370924303 L 82.42215395514347,98.37326586251766" fill="none" stroke="rgb(63,63,63)" stroke-width="0.1"/>
  <path d="M 82.42215395514347,98.37326586251766 L 81.98538670475511,98.61668155675807" fill="none" stroke="rgb(63,63,63)" stroke-width="0.1"/>
  <path d="M 81.98538670475511,98.61668155675807 L 81.54866044390849,98.86017078506302" fill="none" stroke="rgb(63,63,63)" stroke-width="0.1"/>
  <path d="M 81.54866044390849,98.86017078506302 L 81.11197518498409,99.10373354052945" fill="none" stroke="rgb(63,63,63)" stroke-width="0.1"/>
  <path d="M 81.11197518498409,99.10373354052945 L 80.67533094035764,99.34736981625474" fill="none" stroke="rgb(63,63,63)" stroke-width="0.1"/>
  <path d="M 80.67533094035764,99.34736981625474 L 80.23872772241032,99.59107960533038" fill="none" stroke="rgb(63,63,63)" stroke-width="0.1"/>
  <path d="M 80.23872772241032,99.59107960533038 L 79.80216554351739,99.83486290084875" fill="none" stroke="rgb(63,63,63)" stroke-width="0.1"/>
  <path d="M 2.373149000000012,79.88107999999988 L 0.0,76.35865828491842" fill="none" instance-id="-1" semantic-id="1" stroke="rgb(63,63,63)" stroke-width="0.1"/>
  <path d="M 0.0,76.38199318390207 L 5.740148999999974,84.90107999999987" fill="none" instance-id="-1" semantic-id="1" stroke="rgb(63,63,63)" stroke-width="0.1"/>
  <path d="M 5.740148999999974,84.90107999999987 L 8.212149000000068,79.62107999999989" fill="none" instance-id="-1" semantic-id="1" stroke="rgb(63,63,63)" stroke-width="0.1"/>
  <path d="M 8.212149000000068,79.62107999999989 L 6.512149000000022,77.10107999999991" fill="none" instance-id="-1" semantic-id="1" stroke="rgb(63,63,63)" stroke-width="0.1"/>
  <path d="M 6.512149000000022,77.10107999999991 L 2.373149000000012,79.88107999999988" fill="none" instance-id="-1" semantic-id="1" stroke="rgb(63,63,63)" stroke-width="0.1"/>
  <path d="M 0.22763207677917308,100.0 L 0.0,99.66189964814657" fill="none" instance-id="-1" semantic-id="1" stroke="rgb(63,63,63)" stroke-width="0.1"/>
  <path d="M 8.22814900000003,83.23107999999979 L 19.518484502061142,100.0" fill="none" instance-id="-1" semantic-id="1" stroke="rgb(63,63,63)" stroke-width="0.1"/>
  <path d="M 23.133587558056547,100.0 L 9.041149000000019,79.07107999999994" fill="none" instance-id="-1" semantic-id="1" stroke="rgb(63,63,63)" stroke-width="0.1"/>
  <path d="M 9.041149000000019,79.07107999999994 L 8.22814900000003,83.23107999999979" fill="none" instance-id="-1" semantic-id="1" stroke="rgb(63,63,63)" stroke-width="0.1"/>
  <path d="M 8.22814900000003,83.23107999999979 L 9.041149000000019,79.07107999999994" fill="none" instance-id="-1" semantic-id="1" stroke="rgb(63,63,63)" stroke-width="0.1"/>
  <path d="M 9.041149000000019,79.07107999999994 L 8.212149000000068,79.62107999999989" fill="none" instance-id="-1" semantic-id="1" stroke="rgb(63,63,63)" stroke-width="0.1"/>
  <path d="M 8.212149000000068,79.62107999999989 L 5.740148999999974,84.90107999999987" fill="none" instance-id="-1" semantic-id="1" stroke="rgb(63,63,63)" stroke-width="0.1"/>
  <path d="M 5.740148999999974,84.90107999999987 L 8.22814900000003,83.23107999999979" fill="none" instance-id="-1" semantic-id="1" stroke="rgb(63,63,63)" stroke-width="0.1"/>
  <path d="M 0.0,70.63285717081408 L 1.4861490000000686,69.63107999999988" fill="none" instance-id="-1" semantic-id="1" stroke="rgb(63,63,63)" stroke-width="0.1"/>
  <path d="M 1.4861490000000686,69.63107999999988 L 0.0,67.42400437615515" fill="none" instance-id="-1" semantic-id="1" stroke="rgb(63,63,63)" stroke-width="0.1"/>
 </g>
 <g id="layerPUB_TEXT" inkscape:groupmode="layer" inkscape:label="PUB_TEXT">
  <text fill="rgb(0,0,0)" font-family="Noto Sans CJK SC" font-size="2" transform="rotate(-33.9506,37.99314900000002,56.911079999999856)" x="37.99314900000002" y="56.911079999999856">
   XHT1
  </text>
  <text fill="rgb(0,0,0)" font-family="Noto Sans CJK SC" font-size="2" transform="rotate(-33.9506,18.08914900000002,16.391079999999874)" x="18.08914900000002" y="16.391079999999874">
   电梯厅
  </text>
  <text fill="rgb(0,0,0)" font-family="Noto Sans CJK SC" font-size="2" transform="rotate(-33.9506,51.765149000000065,86.48107999999979)" x="51.765149000000065" y="86.48107999999979">
   设备
  </text>
  <text fill="rgb(0,0,0)" font-family="Noto Sans CJK SC" font-size="2" transform="rotate(-33.9506,55.917148999999995,30.931079999999838)" x="55.917148999999995" y="30.931079999999838">
   竖井
  </text>
  <text fill="rgb(0,0,0)" font-family="Noto Sans CJK SC" font-size="2" transform="rotate(-34.0,11.82914900000003,69.33107999999993)" x="11.82914900000003" y="69.33107999999993">
   LTA17
  </text>
 </g>
 <g id="layerSTAIR" inkscape:groupmode="layer" inkscape:label="STAIR">
  <path d="M 6.995148999999969,86.77107999999976 L 0.0,76.38278995572819" fill="none" stroke="rgb(178,88,0)" stroke-width="0.1"/>
  <path d="M 0.0,91.48035130378321 L 6.995148999999969,86.77107999999976" fill="none" stroke="rgb(178,88,0)" stroke-width="0.1"/>
  <path d="M 0.0,88.3425092627283 L 5.542148999999995,84.6110799999999" fill="none" stroke="rgb(178,88,0)" stroke-width="0.1"/>
  <path d="M 0.0,85.21490377260488 L 4.090148999999997,82.46107999999981" fill="none" stroke="rgb(178,88,0)" stroke-width="0.1"/>
  <path d="M 0.0,82.0772982824817 L 2.6381489999999985,80.30107999999996" fill="none" stroke="rgb(178,88,0)" stroke-width="0.1"/>
  <path d="M 0.0,78.9396927923583 L 1.1861490000000003,78.14107999999987" fill="none" stroke="rgb(178,88,0)" stroke-width="0.1"/>
  <path d="M 0.5331489999999803,44.2210799999998 L 0.0,44.579982975333905" fill="none" instance-id="5" semantic-id="30" stroke="rgb(178,88,0)" stroke-width="0.1"/>
  <path d="M 1.9851489999999785,46.38107999999988 L 0.0,47.71680890903622" fill="none" instance-id="5" semantic-id="30" stroke="rgb(178,88,0)" stroke-width="0.1"/>
  <path d="M 3.4371489999999767,48.541079999999965 L 0.0,50.8541591291048" fill="none" instance-id="5" semantic-id="30" stroke="rgb(178,88,0)" stroke-width="0.1"/>
  <path d="M 4.889148999999975,50.69107999999983 L 0.0,53.985702223121734" fill="none" instance-id="5" semantic-id="30" stroke="rgb(178,88,0)" stroke-width="0.1"/>
  <path d="M 6.341148999999973,52.85107999999991 L 0.0,57.1241529653621" fill="none" instance-id="5" semantic-id="30" stroke="rgb(178,88,0)" stroke-width="0.1"/>
  <path d="M 0.2801490000000513,42.771079999999756 L 6.83914900000002,52.521079999999756" fill="none" instance-id="5" semantic-id="30" stroke="rgb(178,88,0)" stroke-width="0.1"/>
  <path d="M 0.2801490000000513,42.771079999999756 L 0.0,43.22840085616417" fill="none" instance-id="5" semantic-id="30" stroke="rgb(178,88,0)" stroke-width="0.1"/>
  <path d="M 17.830149000000006,41.98107999999979 L 7.665149000000042,26.881079999999884" fill="none" instance-id="5" semantic-id="30" stroke="rgb(178,88,0)" stroke-width="0.1"/>
  <path d="M 6.71414900000002,49.4710799999998 L 17.830149000000006,41.98107999999979" fill="none" instance-id="5" semantic-id="30" stroke="rgb(178,88,0)" stroke-width="0.1"/>
  <path d="M 5.262149000000022,47.31107999999995 L 16.378149000000008,39.83107999999993" fill="none" instance-id="5" semantic-id="30" stroke="rgb(178,88,0)" stroke-width="0.1"/>
  <path d="M 3.810149000000024,45.151079999999865 L 14.925149000000033,37.67107999999985" fill="none" instance-id="5" semantic-id="30" stroke="rgb(178,88,0)" stroke-width="0.1"/>
  <path d="M 2.358149000000026,43.001079999999774 L 13.473149000000035,35.511079999999765" fill="none" instance-id="5" semantic-id="30" stroke="rgb(178,88,0)" stroke-width="0.1"/>
  <path d="M 0.9061490000000276,40.84107999999992 L 12.021149000000037,33.3610799999999" fill="none" instance-id="5" semantic-id="30" stroke="rgb(178,88,0)" stroke-width="0.1"/>
  <path d="M 0.0,38.31374167521358 L 10.569149000000039,31.20107999999982" fill="none" instance-id="5" semantic-id="30" stroke="rgb(178,88,0)" stroke-width="0.1"/>
  <path d="M 0.0,35.18479983895622 L 9.11714900000004,29.041079999999965" fill="none" instance-id="5" semantic-id="30" stroke="rgb(178,88,0)" stroke-width="0.1"/>
  <path d="M 0.0,32.046349096716085 L 7.665149000000042,26.881079999999884" fill="none" instance-id="5" semantic-id="30" stroke="rgb(178,88,0)" stroke-width="0.1"/>
  <path d="M 6.217149000000063,49.801079999999956 L 0.0,40.56557090998513" fill="none" instance-id="5" semantic-id="30" stroke="rgb(178,88,0)" stroke-width="0.1"/>
  <path d="M 0.2801490000000513,42.771079999999756 L 7.342149000000063,53.261079999999765" fill="none" instance-id="5" semantic-id="30" stroke="rgb(178,88,0)" stroke-width="0.1"/>
  <path d="M 7.342149000000063,53.261079999999765 L 8.171149000000014,52.70107999999982" fill="none" instance-id="5" semantic-id="30" stroke="rgb(178,88,0)" stroke-width="0.1"/>
  <path d="M 8.171149000000014,52.70107999999982 L 0.0,40.56929959594345" fill="none" instance-id="5" semantic-id="30" stroke="rgb(178,88,0)" stroke-width="0.1"/>
  <path d="M 0.0,43.43593527543817 L 7.179149000000052,54.10107999999991" fill="none" instance-id="5" semantic-id="30" stroke="rgb(178,88,0)" stroke-width="0.1"/>
  <path d="M 7.179149000000052,54.10107999999991 L 9.004148999999984,52.87107999999989" fill="none" instance-id="5" semantic-id="30" stroke="rgb(178,88,0)" stroke-width="0.1"/>
  <path d="M 9.004148999999984,52.87107999999989 L 0.0,39.49220979611778" fill="none" instance-id="5" semantic-id="30" stroke="rgb(178,88,0)" stroke-width="0.1"/>
  <path d="M 6.83914900000002,52.521079999999756 L 7.669149000000061,51.96107999999981" fill="none" instance-id="5" semantic-id="30" stroke="rgb(178,88,0)" stroke-width="0.1"/>
  <path d="M 7.669149000000061,51.96107999999981 L 6.217149000000063,49.801079999999956" fill="none" instance-id="5" semantic-id="30" stroke="rgb(178,88,0)" stroke-width="0.1"/>
  <path d="M 7.665149000000042,26.891079999999874 L 7.3720398086917385,26.472350616119" fill="none" instance-id="5" semantic-id="30" stroke="rgb(178,88,0)" stroke-width="0.1"/>
  <path d="M 7.3720398086917385,26.472350616119 L 7.063841294649023,26.064599502207102" fill="none" instance-id="5" semantic-id="30" stroke="rgb(178,88,0)" stroke-width="0.1"/>
  <path d="M 7.063841294649023,26.064599502207102 L 6.740964248065211,25.668370139660738" fill="none" instance-id="5" semantic-id="30" stroke="rgb(178,88,0)" stroke-width="0.1"/>
  <path d="M 6.740964248065211,25.668370139660738 L 6.403839023787555,25.28419065281878" fill="none" instance-id="5" semantic-id="30" stroke="rgb(178,88,0)" stroke-width="0.1"/>
  <path d="M 6.403839023787555,25.28419065281878 L 6.052914967707238,24.912573105037836" fill="none" instance-id="5" semantic-id="30" stroke="rgb(178,88,0)" stroke-width="0.1"/>
  <path d="M 6.052914967707238,24.912573105037836 L 5.6886598178383565,24.554012816176055" fill="none" instance-id="5" semantic-id="30" stroke="rgb(178,88,0)" stroke-width="0.1"/>
  <path d="M 5.6886598178383565,24.554012816176055 L 5.311559080880443,24.20898770239387" fill="none" instance-id="5" semantic-id="30" stroke="rgb(178,88,0)" stroke-width="0.1"/>
  <path d="M 5.311559080880443,24.20898770239387 L 4.922115385099573,23.87795763915028" fill="none" instance-id="5" semantic-id="30" stroke="rgb(178,88,0)" stroke-width="0.1"/>
  <path d="M 4.922115385099573,23.87795763915028 L 4.520847810386385,23.561363848247083" fill="none" instance-id="5" semantic-id="30" stroke="rgb(178,88,0)" stroke-width="0.1"/>
  <path d="M 4.520847810386385,23.561363848247083 L 4.1082911963885635,23.259628309735035" fill="none" instance-id="5" semantic-id="30" stroke="rgb(178,88,0)" stroke-width="0.1"/>
  <path d="M 4.1082911963885635,23.259628309735035 L 3.6849954296352507,22.97315319946665" fill="none" instance-id="5" semantic-id="30" stroke="rgb(178,88,0)" stroke-width="0.1"/>
  <path d="M 3.6849954296352507,22.97315319946665 L 3.2515247106073275,22.702320353046616" fill="none" instance-id="5" semantic-id="30" stroke="rgb(178,88,0)" stroke-width="0.1"/>
  <path d="M 3.2515247106073275,22.702320353046616 L 2.808456801728539,22.447490756891966" fill="none" instance-id="5" semantic-id="30" stroke="rgb(178,88,0)" stroke-width="0.1"/>
  <path d="M 2.808456801728539,22.447490756891966 L 2.3563822572801882,22.209004067082333" fill="none" instance-id="5" semantic-id="30" stroke="rgb(178,88,0)" stroke-width="0.1"/>
  <path d="M 2.3563822572801882,22.209004067082333 L 1.8959036362656434,21.987178156640994" fill="none" instance-id="5" semantic-id="30" stroke="rgb(178,88,0)" stroke-width="0.1"/>
  <path d="M 1.8959036362656434,21.987178156640994 L 1.4276346992746767,21.782308691849494" fill="none" instance-id="5" semantic-id="30" stroke="rgb(178,88,0)" stroke-width="0.1"/>
  <path d="M 1.4276346992746767,21.782308691849494 L 0.9521995904169671,21.594668738161545" fill="none" instance-id="5" semantic-id="30" stroke="rgb(178,88,0)" stroke-width="0.1"/>
  <path d="M 0.9521995904169671,21.594668738161545 L 0.47023200541582355,21.424508396240526" fill="none" instance-id="5" semantic-id="30" stroke="rgb(178,88,0)" stroke-width="0.1"/>
  <path d="M 0.35487512746919947,65.09758648971228 L 0.8011132212270695,65.3341929788046" fill="none" instance-id="5" semantic-id="30" stroke="rgb(178,88,0)" stroke-width="0.1"/>
  <path d="M 0.8011132212270695,65.3341929788046 L 1.2553214806400774,65.55511360727155" fill="none" instance-id="5" semantic-id="30" stroke="rgb(178,88,0)" stroke-width="0.1"/>
  <path d="M 1.2553214806400774,65.55511360727155 L 1.7169487373668062,65.76008029443892" fill="none" instance-id="5" semantic-id="30" stroke="rgb(178,88,0)" stroke-width="0.1"/>
  <path d="M 1.7169487373668062,65.76008029443892 L 2.18543482033067,65.94884431926994" fill="none" instance-id="5" semantic-id="30" stroke="rgb(178,88,0)" stroke-width="0.1"/>
  <path d="M 2.18543482033067,65.94884431926994 L 2.660211235471934,66.12117662218179" fill="none" instance-id="5" semantic-id="30" stroke="rgb(178,88,0)" stroke-width="0.1"/>
  <path d="M 2.660211235471934,66.12117662218179 L 3.140701855597854,66.27686808300155" fill="none" instance-id="5" semantic-id="30" stroke="rgb(178,88,0)" stroke-width="0.1"/>
  <path d="M 3.140701855597854,66.27686808300155 L 3.6263236194964747,66.41572977472879" fill="none" instance-id="5" semantic-id="30" stroke="rgb(178,88,0)" stroke-width="0.1"/>
  <path d="M 3.6263236194964747,66.41572977472879 L 4.116487239463709,66.53759319279106" fill="none" instance-id="5" semantic-id="30" stroke="rgb(178,88,0)" stroke-width="0.1"/>
  <path d="M 4.116487239463709,66.53759319279106 L 4.610597916387292,66.64231045952079" fill="none" instance-id="5" semantic-id="30" stroke="rgb(178,88,0)" stroke-width="0.1"/>
  <path d="M 4.610597916387292,66.64231045952079 L 5.108056061517459,66.7297545035999" fill="none" instance-id="5" semantic-id="30" stroke="rgb(178,88,0)" stroke-width="0.1"/>
  <path d="M 5.108056061517459,66.7297545035999 L 5.6082580240504285,66.79981921425724" fill="none" instance-id="5" semantic-id="30" stroke="rgb(178,88,0)" stroke-width="0.1"/>
  <path d="M 5.6082580240504285,66.79981921425724 L 6.110596823640776,66.85241957002995" fill="none" instance-id="5" semantic-id="30" stroke="rgb(178,88,0)" stroke-width="0.1"/>
  <path d="M 6.110596823640776,66.85241957002995 L 6.614462886954243,66.88749174193663" fill="none" instance-id="5" semantic-id="30" stroke="rgb(178,88,0)" stroke-width="0.1"/>
  <path d="M 6.614462886954243,66.88749174193663 L 7.119244787367165,66.9049931709294" fill="none" instance-id="5" semantic-id="30" stroke="rgb(178,88,0)" stroke-width="0.1"/>
  <path d="M 7.119244787367165,66.9049931709294 L 7.624329986914404,66.90490261954005" fill="none" instance-id="5" semantic-id="30" stroke="rgb(178,88,0)" stroke-width="0.1"/>
  <path d="M 7.624329986914404,66.90490261954005 L 8.129105579586394,66.88722019764987" fill="none" instance-id="5" semantic-id="30" stroke="rgb(178,88,0)" stroke-width="0.1"/>
  <path d="M 8.129105579586394,66.88722019764987 L 8.632959035072304,66.85196736235685" fill="none" instance-id="5" semantic-id="30" stroke="rgb(178,88,0)" stroke-width="0.1"/>
  <path d="M 8.632959035072304,66.85196736235685 L 9.135278942047648,66.79918689193823" fill="none" instance-id="5" semantic-id="30" stroke="rgb(178,88,0)" stroke-width="0.1"/>
  <path d="M 9.135278942047648,66.79918689193823 L 9.635455750103688,66.72894283393998" fill="none" instance-id="5" semantic-id="30" stroke="rgb(178,88,0)" stroke-width="0.1"/>
  <path d="M 9.635455750103688,66.72894283393998 L 10.13288250941946,66.64132042745678" fill="none" instance-id="5" semantic-id="30" stroke="rgb(178,88,0)" stroke-width="0.1"/>
  <path d="M 10.13288250941946,66.64132042745678 L 10.626955607276841,66.53642599969771" fill="none" instance-id="5" semantic-id="30" stroke="rgb(178,88,0)" stroke-width="0.1"/>
  <path d="M 10.626955607276841,66.53642599969771 L 11.117075500527108,66.4143868369606" fill="none" instance-id="5" semantic-id="30" stroke="rgb(178,88,0)" stroke-width="0.1"/>
  <path d="M 11.117075500527108,66.4143868369606 L 11.602647443119054,66.27535103017408" fill="none" instance-id="5" semantic-id="30" stroke="rgb(178,88,0)" stroke-width="0.1"/>
  <path d="M 11.602647443119054,66.27535103017408 L 12.083082207805433,66.11948729519372" fill="none" instance-id="5" semantic-id="30" stroke="rgb(178,88,0)" stroke-width="0.1"/>
  <path d="M 12.083082207805433,66.11948729519372 L 12.557796801153017,65.94698476807002" fill="none" instance-id="5" semantic-id="30" stroke="rgb(178,88,0)" stroke-width="0.1"/>
  <path d="M 12.557796801153017,65.94698476807002 L 13.026215170988166,65.75805277553764" fill="none" instance-id="5" semantic-id="30" stroke="rgb(178,88,0)" stroke-width="0.1"/>
  <path d="M 13.026215170988166,65.75805277553764 L 13.487768905418875,65.55292058100349" fill="none" instance-id="5" semantic-id="30" stroke="rgb(178,88,0)" stroke-width="0.1"/>
  <path d="M 13.487768905418875,65.55292058100349 L 13.941897922585895,65.33183710634239" fill="none" instance-id="5" semantic-id="30" stroke="rgb(178,88,0)" stroke-width="0.1"/>
  <path d="M 13.941897922585895,65.33183710634239 L 14.388051150305728,65.09507062983789" fill="none" instance-id="5" semantic-id="30" stroke="rgb(178,88,0)" stroke-width="0.1"/>
  <path d="M 14.388051150305728,65.09507062983789 L 14.825687194780357,64.84290846063345" fill="none" instance-id="5" semantic-id="30" stroke="rgb(178,88,0)" stroke-width="0.1"/>
  <path d="M 14.825687194780357,64.84290846063345 L 15.254274997562902,64.5756565900931" fill="none" instance-id="5" semantic-id="30" stroke="rgb(178,88,0)" stroke-width="0.1"/>
  <path d="M 15.254274997562902,64.5756565900931 L 15.673294479980882,64.29363932048818" fill="none" instance-id="5" semantic-id="30" stroke="rgb(178,88,0)" stroke-width="0.1"/>
  <path d="M 15.673294479980882,64.29363932048818 L 16.082237174236866,63.997198871466935" fill="none" instance-id="5" semantic-id="30" stroke="rgb(178,88,0)" stroke-width="0.1"/>
  <path d="M 16.082237174236866,63.997198871466935 L 16.480606840419114,63.68669496478128" fill="none" instance-id="5" semantic-id="30" stroke="rgb(178,88,0)" stroke-width="0.1"/>
  <path d="M 16.480606840419114,63.68669496478128 L 16.86792006867381,63.36250438777415" fill="none" instance-id="5" semantic-id="30" stroke="rgb(178,88,0)" stroke-width="0.1"/>
  <path d="M 16.86792006867381,63.36250438777415 L 17.243706865808804,63.0250205361599" fill="none" instance-id="5" semantic-id="30" stroke="rgb(178,88,0)" stroke-width="0.1"/>
  <path d="M 17.243706865808804,63.0250205361599 L 17.607511225616577,62.67465293665032" fill="none" instance-id="5" semantic-id="30" stroke="rgb(178,88,0)" stroke-width="0.1"/>
  <path d="M 17.607511225616577,62.67465293665032 L 17.958891682224362,62.311826750005366" fill="none" instance-id="5" semantic-id="30" stroke="rgb(178,88,0)" stroke-width="0.1"/>
  <path d="M 17.958891682224362,62.311826750005366 L 18.29742184579993,61.936982255113435" fill="none" instance-id="5" semantic-id="30" stroke="rgb(178,88,0)" stroke-width="0.1"/>
  <path d="M 18.29742184579993,61.936982255113435 L 18.62269091996302,61.55057431472619" fill="none" instance-id="5" semantic-id="30" stroke="rgb(178,88,0)" stroke-width="0.1"/>
  <path d="M 18.62269091996302,61.55057431472619 L 18.934304200274596,61.15307182349534" fill="none" instance-id="5" semantic-id="30" stroke="rgb(178,88,0)" stroke-width="0.1"/>
  <path d="M 18.934304200274596,61.15307182349534 L 19.231883553199282,60.74495713898341" fill="none" instance-id="5" semantic-id="30" stroke="rgb(178,88,0)" stroke-width="0.1"/>
  <path d="M 19.231883553199282,60.74495713898341 L 19.515067874959072,60.326725496337076" fill="none" instance-id="5" semantic-id="30" stroke="rgb(178,88,0)" stroke-width="0.1"/>
  <path d="M 19.515067874959072,60.326725496337076 L 19.783513529722313,59.8988844073333" fill="none" instance-id="5" semantic-id="30" stroke="rgb(178,88,0)" stroke-width="0.1"/>
  <path d="M 19.783513529722313,59.8988844073333 L 20.036894766595537,59.46195304452908" fill="none" instance-id="5" semantic-id="30" stroke="rgb(178,88,0)" stroke-width="0.1"/>
  <path d="M 20.036894766595537,59.46195304452908 L 20.27490411491226,59.01646161126109" fill="none" instance-id="5" semantic-id="30" stroke="rgb(178,88,0)" stroke-width="0.1"/>
  <path d="M 20.27490411491226,59.01646161126109 L 20.497252757340334,58.56295069825933" fill="none" instance-id="5" semantic-id="30" stroke="rgb(178,88,0)" stroke-width="0.1"/>
  <path d="M 20.497252757340334,58.56295069825933 L 20.70367088035266,58.1019706276561" fill="none" instance-id="5" semantic-id="30" stroke="rgb(178,88,0)" stroke-width="0.1"/>
  <path d="M 20.70367088035266,58.1019706276561 L 20.893908001638124,57.6340807851866" fill="none" instance-id="5" semantic-id="30" stroke="rgb(178,88,0)" stroke-width="0.1"/>
  <path d="M 20.893908001638124,57.6340807851866 L 21.067733274054376,57.15984894139001" fill="none" instance-id="5" semantic-id="30" stroke="rgb(178,88,0)" stroke-width="0.1"/>
  <path d="M 21.067733274054376,57.15984894139001 L 21.224935765754367,56.67985056263797" fill="none" instance-id="5" semantic-id="30" stroke="rgb(178,88,0)" stroke-width="0.1"/>
  <path d="M 21.224935765754367,56.67985056263797 L 21.365324716145665,56.194668112822" fill="none" instance-id="5" semantic-id="30" stroke="rgb(178,88,0)" stroke-width="0.1"/>
  <path d="M 21.365324716145665,56.194668112822 L 21.488729767373002,55.704890346551565" fill="none" instance-id="5" semantic-id="30" stroke="rgb(178,88,0)" stroke-width="0.1"/>
  <path d="M 21.488729767373002,55.704890346551565 L 21.5950011710421,55.21111159471684" fill="none" instance-id="5" semantic-id="30" stroke="rgb(178,88,0)" stroke-width="0.1"/>
  <path d="M 21.5950011710421,55.21111159471684 L 21.68400996993546,54.713931043286266" fill="none" instance-id="5" semantic-id="30" stroke="rgb(178,88,0)" stroke-width="0.1"/>
  <path d="M 21.68400996993546,54.713931043286266 L 21.755648154497976,54.21395200621191" fill="none" instance-id="5" semantic-id="30" stroke="rgb(178,88,0)" stroke-width="0.1"/>
  <path d="M 21.755648154497976,54.21395200621191 L 21.809828793902966,53.71178119332558" fill="none" instance-id="5" semantic-id="30" stroke="rgb(178,88,0)" stroke-width="0.1"/>
  <path d="M 21.809828793902966,53.71178119332558 L 21.846486141540822,53.20802797411466" fill="none" instance-id="5" semantic-id="30" stroke="rgb(178,88,0)" stroke-width="0.1"/>
  <path d="M 21.846486141540822,53.20802797411466 L 21.865575714800116,52.703303638269745" fill="none" instance-id="5" semantic-id="30" stroke="rgb(178,88,0)" stroke-width="0.1"/>
  <path d="M 21.865575714800116,52.703303638269745 L 21.867074349046106,52.198220653903036" fill="none" instance-id="5" semantic-id="30" stroke="rgb(178,88,0)" stroke-width="0.1"/>
  <path d="M 21.867074349046106,52.198220653903036 L 21.850980225730268,51.69339192433631" fill="none" instance-id="5" semantic-id="30" stroke="rgb(178,88,0)" stroke-width="0.1"/>
  <path d="M 21.850980225730268,51.69339192433631 L 21.81731287459695,51.18943004436028" fill="none" instance-id="5" semantic-id="30" stroke="rgb(178,88,0)" stroke-width="0.1"/>
  <path d="M 21.81731287459695,51.18943004436028 L 21.766113149985244,50.68694655686954" fill="none" instance-id="5" semantic-id="30" stroke="rgb(178,88,0)" stroke-width="0.1"/>
  <path d="M 21.766113149985244,50.68694655686954 L 21.697443181252197,50.18655121077268" fill="none" instance-id="5" semantic-id="30" stroke="rgb(178,88,0)" stroke-width="0.1"/>
  <path d="M 21.697443181252197,50.18655121077268 L 21.611386297382182,49.688851221080085" fill="none" instance-id="5" semantic-id="30" stroke="rgb(178,88,0)" stroke-width="0.1"/>
  <path d="M 21.611386297382182,49.688851221080085 L 21.508046925868257,49.19445053206732" fill="none" instance-id="5" semantic-id="30" stroke="rgb(178,88,0)" stroke-width="0.1"/>
  <path d="M 21.508046925868257,49.19445053206732 L 21.387550465993513,48.70394908440494" fill="none" instance-id="5" semantic-id="30" stroke="rgb(178,88,0)" stroke-width="0.1"/>
  <path d="M 21.387550465993513,48.70394908440494 L 21.25004313666193,48.21794208714937" fill="none" instance-id="5" semantic-id="30" stroke="rgb(178,88,0)" stroke-width="0.1"/>
  <path d="M 21.25004313666193,48.21794208714937 L 21.095691798966868,47.73701929547383" fill="none" instance-id="5" semantic-id="30" stroke="rgb(178,88,0)" stroke-width="0.1"/>
  <path d="M 21.095691798966868,47.73701929547383 L 20.924683753709132,47.26176429501788" fill="none" instance-id="5" semantic-id="30" stroke="rgb(178,88,0)" stroke-width="0.1"/>
  <path d="M 20.924683753709132,47.26176429501788 L 20.737226514113786,46.79275379372325" fill="none" instance-id="5" semantic-id="30" stroke="rgb(178,88,0)" stroke-width="0.1"/>
  <path d="M 20.737226514113786,46.79275379372325 L 20.533547554018583,46.33055692201606" fill="none" instance-id="5" semantic-id="30" stroke="rgb(178,88,0)" stroke-width="0.1"/>
  <path d="M 20.533547554018583,46.33055692201606 L 20.313894031841073,45.875734542183864" fill="none" instance-id="5" semantic-id="30" stroke="rgb(178,88,0)" stroke-width="0.1"/>
  <path d="M 20.313894031841073,45.875734542183864 L 20.078532490659427,45.42883856778508" fill="none" instance-id="5" semantic-id="30" stroke="rgb(178,88,0)" stroke-width="0.1"/>
  <path d="M 20.078532490659427,45.42883856778508 L 19.827748534769853,44.990411293919124" fill="none" instance-id="5" semantic-id="30" stroke="rgb(178,88,0)" stroke-width="0.1"/>
  <path d="M 19.827748534769853,44.990411293919124 L 19.561846483114664,44.560984739166315" fill="none" instance-id="5" semantic-id="30" stroke="rgb(178,88,0)" stroke-width="0.1"/>
  <path d="M 19.561846483114664,44.560984739166315 L 19.281149000000028,44.141079999999874" fill="none" instance-id="5" semantic-id="30" stroke="rgb(178,88,0)" stroke-width="0.1"/>
 </g>
 <g id="layerWALL" inkscape:groupmode="layer" inkscape:label="WALL">
  <path d="M 33.57214899999997,15.231079999999793 L 51.407149000000004,3.2210799999998017" fill="none" instance-id="-1" semantic-id="1" stroke="rgb(178,178,0)" stroke-width="0.1"/>
  <path d="M 35.51914899999997,16.33107999999993 L 52.524148999999966,4.8810799999998835" fill="none" instance-id="-1" semantic-id="1" stroke="rgb(178,178,0)" stroke-width="0.1"/>
  <path d="M 70.02814899999998,41.62107999999989 L 57.17014900000004,50.28107999999975" fill="none" instance-id="-1" semantic-id="1" stroke="rgb(178,178,0)" stroke-width="0.1"/>
  <path d="M 68.91114900000002,39.96107999999981 L 56.88214900000003,48.06107999999995" fill="none" instance-id="-1" semantic-id="1" stroke="rgb(178,178,0)" stroke-width="0.1"/>
  <path d="M 55.223149000000035,49.18107999999984 L 33.859149,17.45107999999982" fill="none" instance-id="-1" semantic-id="1" stroke="rgb(178,178,0)" stroke-width="0.1"/>
  <path d="M 56.88214900000003,48.06107999999995 L 35.51914899999997,16.33107999999993" fill="none" instance-id="-1" semantic-id="1" stroke="rgb(178,178,0)" stroke-width="0.1"/>
  <path d="M 32.82614899999999,64.26107999999977 L 10.904148999999961,31.70107999999982" fill="none" instance-id="-1" semantic-id="1" stroke="rgb(178,178,0)" stroke-width="0.1"/>
  <path d="M 34.48514899999998,63.141079999999874 L 13.12114900000006,31.411079999999856" fill="none" instance-id="-1" semantic-id="1" stroke="rgb(178,178,0)" stroke-width="0.1"/>
  <path d="M 53.625148999999965,2.931079999999838 L 51.64987517797897,0.0" fill="none" instance-id="-1" semantic-id="1" stroke="rgb(178,178,0)" stroke-width="0.1"/>
  <path d="M 49.23998863511201,0.0 L 51.407149000000004,3.2210799999998017" fill="none" instance-id="-1" semantic-id="1" stroke="rgb(178,178,0)" stroke-width="0.1"/>
  <path d="M 57.17014900000004,50.28107999999975 L 34.77314899999999,65.3610799999999" fill="none" instance-id="-1" semantic-id="1" stroke="rgb(178,178,0)" stroke-width="0.1"/>
  <path d="M 55.223149000000035,49.18107999999984 L 34.48514899999998,63.141079999999874" fill="none" instance-id="-1" semantic-id="1" stroke="rgb(178,178,0)" stroke-width="0.1"/>
  <path d="M 34.77314899999999,65.3610799999999 L 7.398148999999989,83.79107999999997" fill="none" instance-id="-1" semantic-id="1" stroke="rgb(178,178,0)" stroke-width="0.1"/>
  <path d="M 32.82614899999999,64.26107999999977 L 6.281149000000028,82.13107999999988" fill="none" instance-id="-1" semantic-id="1" stroke="rgb(178,178,0)" stroke-width="0.1"/>
  <path d="M 7.398148999999989,83.79107999999997 L 6.281149000000028,82.13107999999988" fill="none" instance-id="-1" semantic-id="1" stroke="rgb(178,178,0)" stroke-width="0.1"/>
  <path d="M 0.0,2.871246184474103 L 4.265327842552892,0.0" fill="none" instance-id="-1" semantic-id="1" stroke="rgb(178,178,0)" stroke-width="0.1"/>
  <path d="M 0.0,5.28140670854259 L 7.843874373539279,0.0" fill="none" instance-id="-1" semantic-id="1" stroke="rgb(178,178,0)" stroke-width="0.1"/>
  <path d="M 13.12114900000006,31.411079999999856 L 17.685149000000024,28.34107999999992" fill="none" instance-id="-1" semantic-id="1" stroke="rgb(178,178,0)" stroke-width="0.1"/>
  <path d="M 17.685149000000024,28.34107999999992 L 16.568149000000062,26.681079999999838" fill="none" instance-id="-1" semantic-id="1" stroke="rgb(178,178,0)" stroke-width="0.1"/>
  <path d="M 16.568149000000062,26.681079999999838 L 12.00514899999996,29.751079999999774" fill="none" instance-id="-1" semantic-id="1" stroke="rgb(178,178,0)" stroke-width="0.1"/>
  <path d="M 33.57214899999997,15.231079999999793 L 27.352149000000054,19.421079999999847" fill="none" instance-id="-1" semantic-id="1" stroke="rgb(178,178,0)" stroke-width="0.1"/>
  <path d="M 27.352149000000054,19.421079999999847 L 28.469149000000016,21.08107999999993" fill="none" instance-id="-1" semantic-id="1" stroke="rgb(178,178,0)" stroke-width="0.1"/>
  <path d="M 28.469149000000016,21.08107999999993 L 33.859149,17.45107999999982" fill="none" instance-id="-1" semantic-id="1" stroke="rgb(178,178,0)" stroke-width="0.1"/>
  <path d="M 70.02814899999998,41.62107999999989 L 70.58714900000007,42.45107999999982" fill="none" instance-id="-1" semantic-id="1" stroke="rgb(178,178,0)" stroke-width="0.1"/>
  <path d="M 70.58714900000007,42.45107999999982 L 72.24614900000006,41.34107999999992" fill="none" instance-id="-1" semantic-id="1" stroke="rgb(178,178,0)" stroke-width="0.1"/>
  <path d="M 72.24614900000006,41.34107999999992 L 71.68714899999998,40.511079999999765" fill="none" instance-id="-1" semantic-id="1" stroke="rgb(178,178,0)" stroke-width="0.1"/>
  <path d="M 82.85714900000005,57.10107999999991 L 82.29914900000006,56.271079999999756" fill="none" instance-id="-1" semantic-id="1" stroke="rgb(178,178,0)" stroke-width="0.1"/>
  <path d="M 82.29914900000006,56.271079999999756 L 80.64014900000006,57.38107999999988" fill="none" instance-id="-1" semantic-id="1" stroke="rgb(178,178,0)" stroke-width="0.1"/>
  <path d="M 80.64014900000006,57.38107999999988 L 82.31514900000002,59.87107999999989" fill="none" instance-id="-1" semantic-id="1" stroke="rgb(178,178,0)" stroke-width="0.1"/>
  <path d="M 87.29314899999997,56.521079999999756 L 82.31514900000002,59.87107999999989" fill="none" instance-id="-1" semantic-id="1" stroke="rgb(178,178,0)" stroke-width="0.1"/>
  <path d="M 87.835149,53.74107999999978 L 82.85714900000005,57.10107999999991" fill="none" instance-id="-1" semantic-id="1" stroke="rgb(178,178,0)" stroke-width="0.1"/>
  <path d="M 87.835149,53.74107999999978 L 100.0,71.80887716019265" fill="none" instance-id="-1" semantic-id="1" stroke="rgb(178,178,0)" stroke-width="0.1"/>
  <path d="M 87.29314899999997,56.521079999999756 L 100.0,75.39319493889661" fill="none" instance-id="-1" semantic-id="1" stroke="rgb(178,178,0)" stroke-width="0.1"/>
  <path d="M 53.625148999999965,2.931079999999838 L 72.19614899999999,30.521079999999756" fill="none" instance-id="-1" semantic-id="1" stroke="rgb(178,178,0)" stroke-width="0.1"/>
  <path d="M 52.524148999999966,4.8810799999998835 L 70.537149,31.641079999999874" fill="none" instance-id="-1" semantic-id="1" stroke="rgb(178,178,0)" stroke-width="0.1"/>
  <path d="M 10.904148999999961,31.70107999999982 L 0.0,15.502104411971459" fill="none" instance-id="-1" semantic-id="1" stroke="rgb(178,178,0)" stroke-width="0.1"/>
  <path d="M 12.00514899999996,29.751079999999774 L 0.0,11.917315320644548" fill="none" instance-id="-1" semantic-id="1" stroke="rgb(178,178,0)" stroke-width="0.1"/>
 </g>
 <g id="layerWINDOW" inkscape:groupmode="layer" inkscape:label="WINDOW">
  <path d="M 29.15814899999998,21.321079999999938 L 23.76614900000004,24.95107999999982" fill="none" instance-id="7" semantic-id="5" stroke="rgb(0,178,0)" stroke-width="0.1"/>
  <path d="M 29.04114900000002,21.151079999999865 L 23.649148999999966,24.781079999999747" fill="none" instance-id="7" semantic-id="5" stroke="rgb(0,178,0)" stroke-width="0.1"/>
  <path d="M 17.65514900000005,29.071079999999938 L 17.538148999999976,28.891079999999874" fill="none" instance-id="7" semantic-id="5" stroke="rgb(0,178,0)" stroke-width="0.1"/>
  <path d="M 29.15814899999998,21.321079999999938 L 29.04114900000002,21.151079999999865" fill="none" instance-id="7" semantic-id="5" stroke="rgb(0,178,0)" stroke-width="0.1"/>
  <path d="M 23.04714899999999,25.44107999999983 L 22.93014900000003,25.261079999999765" fill="none" instance-id="7" semantic-id="5" stroke="rgb(0,178,0)" stroke-width="0.1"/>
  <path d="M 22.93014900000003,25.261079999999765 L 17.538148999999976,28.891079999999874" fill="none" instance-id="7" semantic-id="5" stroke="rgb(0,178,0)" stroke-width="0.1"/>
  <path d="M 23.04714899999999,25.44107999999983 L 17.65514900000005,29.071079999999938" fill="none" instance-id="7" semantic-id="5" stroke="rgb(0,178,0)" stroke-width="0.1"/>
  <path d="M 23.76614900000004,24.95107999999982 L 23.649148999999966,24.781079999999747" fill="none" instance-id="7" semantic-id="5" stroke="rgb(0,178,0)" stroke-width="0.1"/>
  <path d="M 28.469149000000016,21.08107999999993 L 17.685149000000024,28.34107999999992" fill="none" instance-id="7" semantic-id="5" stroke="rgb(0,178,0)" stroke-width="0.1"/>
 </g>
 <g id="layers-消火栓" inkscape:groupmode="layer" inkscape:label="s-消火栓">
  <path d="M 5.2211489999999685,1.7710799999997562 L 0.7551489999999603,7.671079999999847" fill="none" stroke="rgb(178,88,0)" stroke-width="0.1"/>
  <path d="M 6.561149,3.7610799999997653 L 0.7551489999999603,7.671079999999847" fill="none" stroke="rgb(178,88,0)" stroke-width="0.1"/>
  <path d="M 0.7551489999999603,7.671079999999847 L 0.0,6.550463661446429" fill="none" stroke="rgb(178,88,0)" stroke-width="0.1"/>
  <path d="M 0.0,5.286611701394804 L 5.2211489999999685,1.7710799999997562" fill="none" stroke="rgb(178,88,0)" stroke-width="0.1"/>
  <path d="M 5.2211489999999685,1.7710799999997562 L 6.561149,3.7610799999997653" fill="none" stroke="rgb(178,88,0)" stroke-width="0.1"/>
  <path d="M 0.0,6.550463661446429 L 0.7551489999999603,7.671079999999847" fill="none" stroke="rgb(178,88,0)" stroke-width="0.1"/>
  <path d="M 0.7551489999999603,7.671079999999847 L 5.2211489999999685,1.7710799999997562" fill="none" stroke="rgb(178,88,0)" stroke-width="0.1"/>
  <path d="M 5.2211489999999685,1.7710799999997562 L 0.0,5.286611701394804" fill="none" stroke="rgb(178,88,0)" stroke-width="0.1"/>
 </g>
</svg>