<?xml version="1.0" encoding="utf-8"?>
<svg style="background-color: #000;" version="1.1" viewBox="0 0 100.0 100.00000000000011" xmlns="http://www.w3.org/2000/svg" xmlns:inkscape="http://www.inkscape.org/namespaces/inkscape">
 <g id="layerA-TEXT-300" inkscape:groupmode="layer" inkscape:label="A-TEXT-300">
  <path d="M 24.718148999999812,5.144079999999917 L 24.478148999999803,4.774080000000026" fill="none" stroke="rgb(178,0,178)" stroke-width="0.1"/>
  <path d="M 27.048148999999967,6.870079999999916 L 26.638148999999885,6.704079999999976" fill="none" stroke="rgb(178,0,178)" stroke-width="0.1"/>
  <path d="M 25.038148999999976,3.09107999999992 A 0.567995,0.567995 -46.7221 1,0 24.45814899999982,2.6070799999999963" fill="none" stroke="rgb(178,0,178)" stroke-width="0.1"/>
  <path d="M 24.478148999999803,4.774080000000026 A 1.7386,1.7386 -46.7221 1,0 27.048148999999967,6.870079999999916" fill="none" stroke="rgb(178,0,178)" stroke-width="0.1"/>
  <path d="M 24.718148999999812,5.144079999999917 A 1.29415,1.29415 -46.7221 1,0 26.638148999999885,6.704079999999976" fill="none" stroke="rgb(178,0,178)" stroke-width="0.1"/>
  <path d="M 26.638148999999885,6.704079999999976 L 27.048148999999967,6.870079999999916" fill="none" stroke="rgb(178,0,178)" stroke-width="0.1"/>
  <path d="M 24.478148999999803,4.774080000000026 L 24.718148999999812,5.144079999999917" fill="none" stroke="rgb(178,0,178)" stroke-width="0.1"/>
  <path d="M 24.868148999999903,5.402079999999955 L 24.45814899999982,2.6070799999999963" fill="none" stroke="rgb(178,0,178)" stroke-width="0.1"/>
  <path d="M 25.038148999999976,3.09107999999992 L 25.148148999999876,3.8580799999999726" fill="none" stroke="rgb(178,0,178)" stroke-width="0.1"/>
  <path d="M 25.148148999999876,3.8580799999999726 L 26.44814899999983,3.8190799999999854" fill="none" stroke="rgb(178,0,178)" stroke-width="0.1"/>
  <path d="M 26.44814899999983,3.8190799999999854 L 26.45814899999982,4.263079999999945" fill="none" stroke="rgb(178,0,178)" stroke-width="0.1"/>
  <path d="M 26.45814899999982,4.263079999999945 L 25.218148999999812,4.301079999999956" fill="none" stroke="rgb(178,0,178)" stroke-width="0.1"/>
  <path d="M 25.218148999999812,4.301079999999956 L 25.308148999999958,4.945079999999962" fill="none" stroke="rgb(178,0,178)" stroke-width="0.1"/>
  <path d="M 25.308148999999958,4.945079999999962 L 26.70814899999982,4.903079999999932" fill="none" stroke="rgb(178,0,178)" stroke-width="0.1"/>
  <path d="M 26.70814899999982,4.903079999999932 L 27.56814899999995,6.660079999999994" fill="none" stroke="rgb(178,0,178)" stroke-width="0.1"/>
  <path d="M 27.56814899999995,6.660079999999994 L 28.06814899999995,6.413079999999923" fill="none" stroke="rgb(178,0,178)" stroke-width="0.1"/>
  <path d="M 28.06814899999995,6.413079999999923 L 28.268148999999994,6.813080000000014" fill="none" stroke="rgb(178,0,178)" stroke-width="0.1"/>
  <path d="M 28.268148999999994,6.813080000000014 L 27.368148999999903,7.254079999999931" fill="none" stroke="rgb(178,0,178)" stroke-width="0.1"/>
  <path d="M 27.368148999999903,7.254079999999931 L 26.43814899999984,5.35608000000002" fill="none" stroke="rgb(178,0,178)" stroke-width="0.1"/>
  <path d="M 26.43814899999984,5.35608000000002 L 24.868148999999903,5.402079999999955" fill="none" stroke="rgb(178,0,178)" stroke-width="0.1"/>
  <path d="M 22.008149000000003,1.668079999999918 L 28.668148999999858,1.46708000000001" fill="none" stroke="rgb(178,0,178)" stroke-width="0.1"/>
  <path d="M 28.668148999999858,1.46708000000001 L 28.878148999999894,8.131079999999997" fill="none" stroke="rgb(178,0,178)" stroke-width="0.1"/>
  <path d="M 28.878148999999894,8.131079999999997 L 22.20814899999982,8.331079999999929" fill="none" stroke="rgb(178,0,178)" stroke-width="0.1"/>
  <path d="M 22.20814899999982,8.331079999999929 L 22.008149000000003,1.668079999999918" fill="none" stroke="rgb(178,0,178)" stroke-width="0.1"/>
  <path d="M 25.038148999999976,3.09107999999992 L 25.148148999999876,3.8580799999999726" fill="none" stroke="rgb(178,0,178)" stroke-width="0.1"/>
  <path d="M 25.148148999999876,3.8580799999999726 L 26.44814899999983,3.8190799999999854" fill="none" stroke="rgb(178,0,178)" stroke-width="0.1"/>
  <path d="M 26.44814899999983,3.8190799999999854 L 26.45814899999982,4.263079999999945" fill="none" stroke="rgb(178,0,178)" stroke-width="0.1"/>
  <path d="M 26.45814899999982,4.263079999999945 L 25.218148999999812,4.301079999999956" fill="none" stroke="rgb(178,0,178)" stroke-width="0.1"/>
  <path d="M 25.218148999999812,4.301079999999956 L 25.308148999999958,4.945079999999962" fill="none" stroke="rgb(178,0,178)" stroke-width="0.1"/>
  <path d="M 25.308148999999958,4.945079999999962 L 26.70814899999982,4.903079999999932" fill="none" stroke="rgb(178,0,178)" stroke-width="0.1"/>
  <path d="M 26.70814899999982,4.903079999999932 L 27.56814899999995,6.660079999999994" fill="none" stroke="rgb(178,0,178)" stroke-width="0.1"/>
  <path d="M 27.56814899999995,6.660079999999994 L 28.06814899999995,6.413079999999923" fill="none" stroke="rgb(178,0,178)" stroke-width="0.1"/>
  <path d="M 28.06814899999995,6.413079999999923 L 28.268148999999994,6.813080000000014" fill="none" stroke="rgb(178,0,178)" stroke-width="0.1"/>
  <path d="M 28.268148999999994,6.813080000000014 L 27.368148999999903,7.254079999999931" fill="none" stroke="rgb(178,0,178)" stroke-width="0.1"/>
  <path d="M 27.368148999999903,7.254079999999931 L 26.43814899999984,5.35608000000002" fill="none" stroke="rgb(178,0,178)" stroke-width="0.1"/>
  <path d="M 26.43814899999984,5.35608000000002 L 24.868148999999903,5.402079999999955" fill="none" stroke="rgb(178,0,178)" stroke-width="0.1"/>
  <path d="M 24.868148999999903,5.402079999999955 L 24.45814899999982,2.6070799999999963" fill="none" stroke="rgb(178,0,178)" stroke-width="0.1"/>
 </g>
 <g id="layerA-车位" inkscape:groupmode="layer" inkscape:label="A-车位">
  <path d="M 18.82814899999994,72.18107999999995 L 62.79814899999997,42.57808" fill="none" instance-id="-1" semantic-id="35" stroke="rgb(0,0,178)" stroke-width="0.1"/>
  <path d="M 62.79814899999997,42.57808 L 76.19814899999983,62.486080000000015" fill="none" instance-id="-1" semantic-id="35" stroke="rgb(0,0,178)" stroke-width="0.1"/>
  <path d="M 76.19814899999983,62.486080000000015 L 32.2281489999998,92.08107999999993" fill="none" instance-id="-1" semantic-id="35" stroke="rgb(0,0,178)" stroke-width="0.1"/>
  <path d="M 66.08814899999993,66.27607999999998 L 63.29814899999997,62.12907999999993" fill="none" instance-id="-1" semantic-id="35" stroke="rgb(0,0,178)" stroke-width="0.1"/>
  <path d="M 58.268148999999994,54.66307999999992 L 55.4781489999998,50.51508000000001" fill="none" instance-id="-1" semantic-id="35" stroke="rgb(0,0,178)" stroke-width="0.1"/>
  <path d="M 65.67814899999985,66.55607999999995 L 62.888148999999885,62.40807999999993" fill="none" instance-id="-1" semantic-id="35" stroke="rgb(0,0,178)" stroke-width="0.1"/>
  <path d="M 57.85814899999991,54.94207999999992 L 55.06814899999995,50.795079999999984" fill="none" instance-id="-1" semantic-id="35" stroke="rgb(0,0,178)" stroke-width="0.1"/>
  <path d="M 66.91814899999986,65.71807999999999 L 64.1281489999999,61.57007999999996" fill="none" instance-id="-1" semantic-id="35" stroke="rgb(0,0,178)" stroke-width="0.1"/>
  <path d="M 59.09814899999992,54.10507999999993 L 56.30814899999996,49.95708000000002" fill="none" instance-id="-1" semantic-id="35" stroke="rgb(0,0,178)" stroke-width="0.1"/>
  <path d="M 66.91814899999986,65.71807999999999 L 65.67814899999985,66.55607999999995" fill="none" instance-id="-1" semantic-id="35" stroke="rgb(0,0,178)" stroke-width="0.1"/>
  <path d="M 56.30814899999996,49.95708000000002 L 55.06814899999995,50.795079999999984" fill="none" instance-id="-1" semantic-id="35" stroke="rgb(0,0,178)" stroke-width="0.1"/>
  <path d="M 62.888148999999885,62.40807999999993 L 64.1281489999999,61.57007999999996" fill="none" instance-id="-1" semantic-id="35" stroke="rgb(0,0,178)" stroke-width="0.1"/>
  <path d="M 57.85814899999991,54.94207999999992 L 59.09814899999992,54.10507999999993" fill="none" instance-id="-1" semantic-id="35" stroke="rgb(0,0,178)" stroke-width="0.1"/>
  <path d="M 54.16814899999986,64.29107999999997 L 56.56814899999995,69.96107999999992" fill="none" instance-id="-1" semantic-id="35" stroke="rgb(0,0,178)" stroke-width="0.1"/>
  <path d="M 56.56814899999995,69.96107999999992 L 58.55814899999996,69.11507999999992" fill="none" instance-id="-1" semantic-id="35" stroke="rgb(0,0,178)" stroke-width="0.1"/>
  <path d="M 58.55814899999996,69.11507999999992 L 58.93814899999984,70.00108" fill="none" instance-id="-1" semantic-id="35" stroke="rgb(0,0,178)" stroke-width="0.1"/>
  <path d="M 58.93814899999984,70.00108 L 55.83814899999993,71.31107999999995" fill="none" instance-id="-1" semantic-id="35" stroke="rgb(0,0,178)" stroke-width="0.1"/>
  <path d="M 55.83814899999993,71.31107999999995 L 53.3681489999999,65.49108000000001" fill="none" instance-id="-1" semantic-id="35" stroke="rgb(0,0,178)" stroke-width="0.1"/>
  <path d="M 53.3681489999999,65.49108000000001 L 48.508149,65.49108000000001" fill="none" instance-id="-1" semantic-id="35" stroke="rgb(0,0,178)" stroke-width="0.1"/>
  <path d="M 48.508149,65.49108000000001 L 46.49814900000001,58.00707999999997" fill="none" instance-id="-1" semantic-id="35" stroke="rgb(0,0,178)" stroke-width="0.1"/>
  <path d="M 47.82814899999994,58.319079999999985 A 1.44,1.44 0.0 1,0 46.49814900000001,58.00707999999997" fill="none" instance-id="-1" semantic-id="35" stroke="rgb(0,0,178)" stroke-width="0.1"/>
  <path d="M 47.82814899999994,58.319079999999985 L 48.788148999999976,61.89107999999999" fill="none" instance-id="-1" semantic-id="35" stroke="rgb(0,0,178)" stroke-width="0.1"/>
  <path d="M 48.788148999999976,61.89107999999999 L 52.54814899999997,61.89107999999999" fill="none" instance-id="-1" semantic-id="35" stroke="rgb(0,0,178)" stroke-width="0.1"/>
  <path d="M 52.54814899999997,61.89107999999999 L 52.54814899999997,63.09107999999992" fill="none" instance-id="-1" semantic-id="35" stroke="rgb(0,0,178)" stroke-width="0.1"/>
  <path d="M 52.54814899999997,63.09107999999992 L 49.10814899999991,63.09107999999992" fill="none" instance-id="-1" semantic-id="35" stroke="rgb(0,0,178)" stroke-width="0.1"/>
  <path d="M 49.10814899999991,63.09107999999992 L 49.42814899999985,64.29107999999997" fill="none" instance-id="-1" semantic-id="35" stroke="rgb(0,0,178)" stroke-width="0.1"/>
  <path d="M 49.42814899999985,64.29107999999997 L 54.16814899999986,64.29107999999997" fill="none" instance-id="-1" semantic-id="35" stroke="rgb(0,0,178)" stroke-width="0.1"/>
  <path d="M 47.46814899999981,64.39307999999994 A 4.56,4.56 0.0 1,0 54.46814899999981,69.93107999999995" fill="none" instance-id="-1" semantic-id="35" stroke="rgb(0,0,178)" stroke-width="0.1"/>
  <path d="M 47.46814899999981,64.39307999999994 L 47.138148999999885,63.14307999999994" fill="none" instance-id="-1" semantic-id="35" stroke="rgb(0,0,178)" stroke-width="0.1"/>
  <path d="M 47.138148999999885,63.14307999999994 A 5.76,5.76 0.0 1,0 55.04814899999997,71.28107999999997" fill="none" instance-id="-1" semantic-id="35" stroke="rgb(0,0,178)" stroke-width="0.1"/>
  <path d="M 55.04814899999997,71.28107999999997 L 54.46814899999981,69.93107999999995" fill="none" instance-id="-1" semantic-id="35" stroke="rgb(0,0,178)" stroke-width="0.1"/>
  <path d="M 55.04814899999997,71.28107999999997 L 54.46814899999981,69.93107999999995" fill="none" instance-id="-1" semantic-id="35" stroke="rgb(0,0,178)" stroke-width="0.1"/>
  <path d="M 47.46814899999981,64.39307999999994 A 4.56,4.56 0.0 1,0 54.46814899999981,69.93107999999995" fill="none" instance-id="-1" semantic-id="35" stroke="rgb(0,0,178)" stroke-width="0.1"/>
  <path d="M 47.46814899999981,64.39307999999994 L 47.138148999999885,63.14307999999994" fill="none" instance-id="-1" semantic-id="35" stroke="rgb(0,0,178)" stroke-width="0.1"/>
  <path d="M 47.138148999999885,63.14307999999994 A 5.76,5.76 0.0 1,0 55.04814899999997,71.28107999999997" fill="none" instance-id="-1" semantic-id="35" stroke="rgb(0,0,178)" stroke-width="0.1"/>
  <path d="M 49.10814899999991,63.09107999999992 L 52.54814899999997,63.09107999999992" fill="none" instance-id="-1" semantic-id="35" stroke="rgb(0,0,178)" stroke-width="0.1"/>
  <path d="M 52.54814899999997,63.09107999999992 L 52.54814899999997,61.89107999999999" fill="none" instance-id="-1" semantic-id="35" stroke="rgb(0,0,178)" stroke-width="0.1"/>
  <path d="M 52.54814899999997,61.89107999999999 L 48.788148999999976,61.89107999999999" fill="none" instance-id="-1" semantic-id="35" stroke="rgb(0,0,178)" stroke-width="0.1"/>
  <path d="M 48.788148999999976,61.89107999999999 L 47.82814899999994,58.319079999999985" fill="none" instance-id="-1" semantic-id="35" stroke="rgb(0,0,178)" stroke-width="0.1"/>
  <path d="M 47.82814899999994,58.319079999999985 A 1.44,1.44 0.0 1,0 46.49814900000001,58.00707999999997" fill="none" instance-id="-1" semantic-id="35" stroke="rgb(0,0,178)" stroke-width="0.1"/>
  <path d="M 46.49814900000001,58.00707999999997 L 48.508149,65.49108000000001" fill="none" instance-id="-1" semantic-id="35" stroke="rgb(0,0,178)" stroke-width="0.1"/>
  <path d="M 48.508149,65.49108000000001 L 53.3681489999999,65.49108000000001" fill="none" instance-id="-1" semantic-id="35" stroke="rgb(0,0,178)" stroke-width="0.1"/>
  <path d="M 53.3681489999999,65.49108000000001 L 55.83814899999993,71.31107999999995" fill="none" instance-id="-1" semantic-id="35" stroke="rgb(0,0,178)" stroke-width="0.1"/>
  <path d="M 55.83814899999993,71.31107999999995 L 58.93814899999984,70.00108" fill="none" instance-id="-1" semantic-id="35" stroke="rgb(0,0,178)" stroke-width="0.1"/>
  <path d="M 58.93814899999984,70.00108 L 58.55814899999996,69.11507999999992" fill="none" instance-id="-1" semantic-id="35" stroke="rgb(0,0,178)" stroke-width="0.1"/>
  <path d="M 58.55814899999996,69.11507999999992 L 56.56814899999995,69.96107999999992" fill="none" instance-id="-1" semantic-id="35" stroke="rgb(0,0,178)" stroke-width="0.1"/>
  <path d="M 56.56814899999995,69.96107999999992 L 54.16814899999986,64.29107999999997" fill="none" instance-id="-1" semantic-id="35" stroke="rgb(0,0,178)" stroke-width="0.1"/>
  <path d="M 54.16814899999986,64.29107999999997 L 49.42814899999985,64.29107999999997" fill="none" instance-id="-1" semantic-id="35" stroke="rgb(0,0,178)" stroke-width="0.1"/>
  <path d="M 49.42814899999985,64.29107999999997 L 49.10814899999991,63.09107999999992" fill="none" instance-id="-1" semantic-id="35" stroke="rgb(0,0,178)" stroke-width="0.1"/>
  <path d="M 12.128148999999894,62.222080000000005 L 56.08814899999993,32.62307999999996" fill="none" stroke="rgb(0,0,178)" stroke-width="0.1"/>
  <path d="M 56.08814899999993,32.62307999999996 L 62.79814899999997,42.57808" fill="none" stroke="rgb(0,0,178)" stroke-width="0.1"/>
  <path d="M 62.79814899999997,42.57808 L 18.82814899999994,72.18107999999995" fill="none" instance-id="-1" semantic-id="35" stroke="rgb(0,0,178)" stroke-width="0.1"/>
  <path d="M 18.82814899999994,72.18107999999995 L 12.128148999999894,62.222080000000005" fill="none" stroke="rgb(0,0,178)" stroke-width="0.1"/>
 </g>
 <g id="layerA-车位-text" inkscape:groupmode="layer" inkscape:label="A-车位-text">
  <text fill="rgb(178,88,0)" font-family="Noto Sans CJK SC" font-size="2" transform="rotate(-0.0,26.32814899999994,77.58107999999993)" x="26.32814899999994" y="77.58107999999993">
   A-393
  </text>
 </g>
 <g id="layerAXIS" inkscape:groupmode="layer" inkscape:label="AXIS">
  <path d="M 39.008149,17.594079999999963 L 9.638148999999885,23.75407999999993" fill="none" stroke="rgb(0,178,0)" stroke-width="0.1"/>
 </g>
 <g id="layerCOLUMN" inkscape:groupmode="layer" inkscape:label="COLUMN">
  <path d="M 22.608148999999912,21.538079999999923 L 22.59814899999992,21.302079999999933" fill="none" instance-id="-1" semantic-id="1" stroke="rgb(178,178,0)" stroke-width="0.1"/>
  <path d="M 22.59814899999992,21.302079999999933 L 15.598148999999921,21.511079999999993" fill="none" instance-id="-1" semantic-id="1" stroke="rgb(178,178,0)" stroke-width="0.1"/>
  <path d="M 15.598148999999921,21.511079999999993 L 15.608148999999912,21.74807999999996" fill="none" instance-id="-1" semantic-id="1" stroke="rgb(178,178,0)" stroke-width="0.1"/>
  <path d="M 20.758149000000003,34.197079999999914 L 20.918148999999858,34.09007999999994" fill="none" stroke="rgb(178,178,0)" stroke-width="0.1"/>
  <path d="M 20.918148999999858,34.09007999999994 L 21.478148999999803,34.920079999999984" fill="none" instance-id="-1" semantic-id="1" stroke="rgb(178,178,0)" stroke-width="0.1"/>
  <path d="M 15.018148999999994,2.046079999999961 L 15.298148999999967,11.516079999999988" fill="none" instance-id="-1" semantic-id="1" stroke="rgb(178,178,0)" stroke-width="0.1"/>
  <path d="M 15.298148999999967,11.516079999999988 L 22.298148999999967,11.306079999999952" fill="none" instance-id="-1" semantic-id="1" stroke="rgb(178,178,0)" stroke-width="0.1"/>
  <path d="M 22.298148999999967,11.306079999999952 L 22.018148999999994,1.8360799999999244" fill="none" instance-id="-1" semantic-id="1" stroke="rgb(178,178,0)" stroke-width="0.1"/>
  <path d="M 22.018148999999994,1.8360799999999244 L 15.018148999999994,2.046079999999961" fill="none" instance-id="-1" semantic-id="1" stroke="rgb(178,178,0)" stroke-width="0.1"/>
  <path d="M 51.84814899999992,29.136079999999993 L 52.056573464790745,28.681486900860932" fill="none" stroke="rgb(178,178,0)" stroke-width="0.1"/>
  <path d="M 52.056573464790745,28.681486900860932 L 52.262915694400135,28.22594488568768" fill="none" stroke="rgb(178,178,0)" stroke-width="0.1"/>
  <path d="M 52.262915694400135,28.22594488568768 L 52.467171368729396,27.7694634919676" fill="none" stroke="rgb(178,178,0)" stroke-width="0.1"/>
  <path d="M 52.467171368729396,27.7694634919676 L 52.669336211365135,27.312052276855525" fill="none" stroke="rgb(178,178,0)" stroke-width="0.1"/>
  <path d="M 52.669336211365135,27.312052276855525 L 52.869405989669076,26.85372081697335" fill="none" stroke="rgb(178,178,0)" stroke-width="0.1"/>
  <path d="M 52.869405989669076,26.85372081697335 L 53.06737651486628,26.39447870820993" fill="none" stroke="rgb(178,178,0)" stroke-width="0.1"/>
  <path d="M 53.06737651486628,26.39447870820993 L 53.26324364213269,25.934335565519973" fill="none" stroke="rgb(178,178,0)" stroke-width="0.1"/>
  <path d="M 53.26324364213269,25.934335565519973 L 53.45700327068289,25.47330102272258" fill="none" stroke="rgb(178,178,0)" stroke-width="0.1"/>
  <path d="M 53.45700327068289,25.47330102272258 L 53.64865134385445,25.011384732299916" fill="none" stroke="rgb(178,178,0)" stroke-width="0.1"/>
  <path d="M 53.64865134385445,25.011384732299916 L 53.83818384919414,24.548596365194612" fill="none" stroke="rgb(178,178,0)" stroke-width="0.1"/>
  <path d="M 53.83818384919414,24.548596365194612 L 54.025596818541544,24.084945610608088" fill="none" stroke="rgb(178,178,0)" stroke-width="0.1"/>
  <path d="M 54.025596818541544,24.084945610608088 L 54.21088632811143,23.62044217579671" fill="none" stroke="rgb(178,178,0)" stroke-width="0.1"/>
  <path d="M 54.21088632811143,23.62044217579671 L 54.39404849857738,23.15509578586932" fill="none" stroke="rgb(178,178,0)" stroke-width="0.1"/>
  <path d="M 54.39404849857738,23.15509578586932 L 54.57507949515184,22.688916183583274" fill="none" stroke="rgb(178,178,0)" stroke-width="0.1"/>
  <path d="M 54.57507949515184,22.688916183583274 L 54.75397552766617,22.22191312914049" fill="none" stroke="rgb(178,178,0)" stroke-width="0.1"/>
  <path d="M 54.75397552766617,22.22191312914049 L 54.93073285065134,21.754096399983155" fill="none" stroke="rgb(178,178,0)" stroke-width="0.1"/>
  <path d="M 54.93073285065134,21.754096399983155 L 55.10534776341524,21.285475790589317" fill="none" stroke="rgb(178,178,0)" stroke-width="0.1"/>
  <path d="M 55.10534776341524,21.285475790589317 L 55.27781661012045,20.816061112266993" fill="none" stroke="rgb(178,178,0)" stroke-width="0.1"/>
  <path d="M 55.27781661012045,20.816061112266993 L 55.44813577986065,20.34586219294954" fill="none" stroke="rgb(178,178,0)" stroke-width="0.1"/>
  <path d="M 55.44813577986065,20.34586219294954 L 55.61630170673698,19.87488887698987" fill="none" stroke="rgb(178,178,0)" stroke-width="0.1"/>
  <path d="M 55.61630170673698,19.87488887698987 L 55.78231086993151,19.403151024953672" fill="none" stroke="rgb(178,178,0)" stroke-width="0.1"/>
  <path d="M 55.78231086993151,19.403151024953672 L 55.94615979378182,18.93065851341362" fill="none" stroke="rgb(178,178,0)" stroke-width="0.1"/>
  <path d="M 55.94615979378182,18.93065851341362 L 56.10784504785329,18.45742123474247" fill="none" stroke="rgb(178,178,0)" stroke-width="0.1"/>
  <path d="M 56.10784504785329,18.45742123474247 L 56.26736324701119,17.983449096905588" fill="none" stroke="rgb(178,178,0)" stroke-width="0.1"/>
  <path d="M 56.26736324701119,17.983449096905588 L 56.42471105149184,17.50875202325392" fill="none" stroke="rgb(178,178,0)" stroke-width="0.1"/>
  <path d="M 56.42471105149184,17.50875202325392 L 56.57988516697151,17.03333995231617" fill="none" stroke="rgb(178,178,0)" stroke-width="0.1"/>
  <path d="M 56.57988516697151,17.03333995231617 L 56.73288234463689,16.557222837590416" fill="none" stroke="rgb(178,178,0)" stroke-width="0.1"/>
  <path d="M 56.73288234463689,16.557222837590416 L 56.88369938125129,16.08041064733618" fill="none" stroke="rgb(178,178,0)" stroke-width="0.1"/>
  <path d="M 56.88369938125129,16.08041064733618 L 57.03233311922372,15.602913364365236" fill="none" stroke="rgb(178,178,0)" stroke-width="0.1"/>
  <path d="M 57.03233311922372,15.602913364365236 L 57.17878044667327,15.124740985833" fill="none" stroke="rgb(178,178,0)" stroke-width="0.1"/>
  <path d="M 57.17878044667327,15.124740985833 L 57.32303829749503,14.645903523029006" fill="none" stroke="rgb(178,178,0)" stroke-width="0.1"/>
  <path d="M 57.32303829749503,14.645903523029006 L 57.4651036514249,14.16641100116749" fill="none" stroke="rgb(178,178,0)" stroke-width="0.1"/>
  <path d="M 57.4651036514249,14.16641100116749 L 57.604973534100964,13.6862734591773" fill="none" stroke="rgb(178,178,0)" stroke-width="0.1"/>
  <path d="M 57.604973534100964,13.6862734591773 L 57.7426450171281,13.205500949491693" fill="none" stroke="rgb(178,178,0)" stroke-width="0.1"/>
  <path d="M 57.7426450171281,13.205500949491693 L 57.87811521813751,12.724103537838118" fill="none" stroke="rgb(178,178,0)" stroke-width="0.1"/>
  <path d="M 57.87811521813751,12.724103537838118 L 58.01138130084769,12.242091303027223" fill="none" stroke="rgb(178,178,0)" stroke-width="0.1"/>
  <path d="M 58.01138130084769,12.242091303027223 L 58.142440475123976,11.759474336742073" fill="none" stroke="rgb(178,178,0)" stroke-width="0.1"/>
  <path d="M 58.142440475123976,11.759474336742073 L 58.271289997037,11.276262743326697" fill="none" stroke="rgb(178,178,0)" stroke-width="0.1"/>
  <path d="M 58.271289997037,11.276262743326697 L 58.397927168919296,10.7924666395744" fill="none" stroke="rgb(178,178,0)" stroke-width="0.1"/>
  <path d="M 58.397927168919296,10.7924666395744 L 58.52234933942327,10.308096154516306" fill="none" stroke="rgb(178,178,0)" stroke-width="0.1"/>
  <path d="M 58.52234933942327,10.308096154516306 L 58.644553903575115,9.823161429209222" fill="none" stroke="rgb(178,178,0)" stroke-width="0.1"/>
  <path d="M 58.644553903575115,9.823161429209222 L 58.76453830283049,9.33767261652281" fill="none" stroke="rgb(178,178,0)" stroke-width="0.1"/>
  <path d="M 58.76453830283049,9.33767261652281 L 58.88230002512773,8.851639880927905" fill="none" stroke="rgb(178,178,0)" stroke-width="0.1"/>
  <path d="M 58.88230002512773,8.851639880927905 L 58.99783660493995,8.365073398282902" fill="none" stroke="rgb(178,178,0)" stroke-width="0.1"/>
  <path d="M 58.99783660493995,8.365073398282902 L 59.1111456233275,7.877983355621041" fill="none" stroke="rgb(178,178,0)" stroke-width="0.1"/>
  <path d="M 59.1111456233275,7.877983355621041 L 59.22222470798852,7.3903799509373584" fill="none" stroke="rgb(178,178,0)" stroke-width="0.1"/>
  <path d="M 59.22222470798852,7.3903799509373584 L 59.33107153330775,6.902273392974621" fill="none" stroke="rgb(178,178,0)" stroke-width="0.1"/>
  <path d="M 59.33107153330775,6.902273392974621 L 59.43768382040571,6.413673901010156" fill="none" stroke="rgb(178,178,0)" stroke-width="0.1"/>
  <path d="M 59.43768382040571,6.413673901010156 L 59.54205933718731,5.92459170464133" fill="none" stroke="rgb(178,178,0)" stroke-width="0.1"/>
  <path d="M 59.54205933718731,5.92459170464133 L 59.64419589838667,5.435037043572152" fill="none" stroke="rgb(178,178,0)" stroke-width="0.1"/>
  <path d="M 59.64419589838667,5.435037043572152 L 59.74409136561485,4.945020167397956" fill="none" stroke="rgb(178,178,0)" stroke-width="0.1"/>
  <path d="M 59.74409136561485,4.945020167397956 L 59.84174364740352,4.454551335391443" fill="none" stroke="rgb(178,178,0)" stroke-width="0.1"/>
  <path d="M 59.84174364740352,4.454551335391443 L 59.93715069924838,3.9636408162879206" fill="none" stroke="rgb(178,178,0)" stroke-width="0.1"/>
  <path d="M 59.93715069924838,3.9636408162879206 L 60.03031052365327,3.4722988880697585" fill="none" stroke="rgb(178,178,0)" stroke-width="0.1"/>
  <path d="M 60.03031052365327,3.4722988880697585 L 60.121221170170884,2.9805358377518587" fill="none" stroke="rgb(178,178,0)" stroke-width="0.1"/>
  <path d="M 60.121221170170884,2.9805358377518587 L 60.20988073544413,2.4883619611656513" fill="none" stroke="rgb(178,178,0)" stroke-width="0.1"/>
  <path d="M 60.20988073544413,2.4883619611656513 L 60.29628736324594,1.9957875627442263" fill="none" stroke="rgb(178,178,0)" stroke-width="0.1"/>
  <path d="M 60.29628736324594,1.9957875627442263 L 60.380439244517675,1.502822955306101" fill="none" stroke="rgb(178,178,0)" stroke-width="0.1"/>
  <path d="M 60.380439244517675,1.502822955306101 L 60.46233461740758,1.0094784598392152" fill="none" stroke="rgb(178,178,0)" stroke-width="0.1"/>
  <path d="M 60.46233461740758,1.0094784598392152 L 60.54197176730759,0.5157644052852675" fill="none" stroke="rgb(178,178,0)" stroke-width="0.1"/>
  <path d="M 60.54197176730759,0.5157644052852675 L 60.61934902688881,0.021691128323254816" fill="none" stroke="rgb(178,178,0)" stroke-width="0.1"/>
  <path d="M 45.49814900000001,26.204079999999976 L 45.706581789285565,25.749313782674335" fill="none" stroke="rgb(178,178,0)" stroke-width="0.1"/>
  <path d="M 45.706581789285565,25.749313782674335 L 45.91278813523104,25.29353370087847" fill="none" stroke="rgb(178,178,0)" stroke-width="0.1"/>
  <path d="M 45.91278813523104,25.29353370087847 L 46.11676310634061,24.836750654749494" fill="none" stroke="rgb(178,178,0)" stroke-width="0.1"/>
  <path d="M 46.11676310634061,24.836750654749494 L 46.318501824483064,24.378975568410738" fill="none" stroke="rgb(178,178,0)" stroke-width="0.1"/>
  <path d="M 46.318501824483064,24.378975568410738 L 46.51799946500728,23.920219389710837" fill="none" stroke="rgb(178,178,0)" stroke-width="0.1"/>
  <path d="M 46.51799946500728,23.920219389710837 L 46.715251256858664,23.460493089961346" fill="none" stroke="rgb(178,178,0)" stroke-width="0.1"/>
  <path d="M 46.715251256858664,23.460493089961346 L 46.910252482693295,22.99980766367446" fill="none" stroke="rgb(178,178,0)" stroke-width="0.1"/>
  <path d="M 46.910252482693295,22.99980766367446 L 47.10299847898932,22.53817412830051" fill="none" stroke="rgb(178,178,0)" stroke-width="0.1"/>
  <path d="M 47.10299847898932,22.53817412830051 L 47.293484636160656,22.075603523964105" fill="none" stroke="rgb(178,178,0)" stroke-width="0.1"/>
  <path d="M 47.293484636160656,22.075603523964105 L 47.481706398664755,21.61210691319991" fill="none" stroke="rgb(178,178,0)" stroke-width="0.1"/>
  <path d="M 47.481706398664755,21.61210691319991 L 47.667659265114025,21.147695380688788" fill="none" stroke="rgb(178,178,0)" stroke-width="0.1"/>
  <path d="M 47.667659265114025,21.147695380688788 L 47.85133878838178,20.682380032991887" fill="none" stroke="rgb(178,178,0)" stroke-width="0.1"/>
  <path d="M 47.85133878838178,20.682380032991887 L 48.032740575708885,20.216171998285745" fill="none" stroke="rgb(178,178,0)" stroke-width="0.1"/>
  <path d="M 48.032740575708885,20.216171998285745 L 48.21186028880925,19.74908242609547" fill="none" stroke="rgb(178,178,0)" stroke-width="0.1"/>
  <path d="M 48.21186028880925,19.74908242609547 L 48.38869364397374,19.28112248702871" fill="none" stroke="rgb(178,178,0)" stroke-width="0.1"/>
  <path d="M 48.38869364397374,19.28112248702871 L 48.56323641217159,18.812303372508154" fill="none" stroke="rgb(178,178,0)" stroke-width="0.1"/>
  <path d="M 48.56323641217159,18.812303372508154 L 48.735484419152726,18.342636294503905" fill="none" stroke="rgb(178,178,0)" stroke-width="0.1"/>
  <path d="M 48.735484419152726,18.342636294503905 L 48.905433545546884,17.87213248526541" fill="none" stroke="rgb(178,178,0)" stroke-width="0.1"/>
  <path d="M 48.905433545546884,17.87213248526541 L 49.07307972696253,17.400803197052937" fill="none" stroke="rgb(178,178,0)" stroke-width="0.1"/>
  <path d="M 49.07307972696253,17.400803197052937 L 49.238418954083045,16.92865970186824" fill="none" stroke="rgb(178,178,0)" stroke-width="0.1"/>
  <path d="M 49.238418954083045,16.92865970186824 L 49.4014472727647,16.45571329118536" fill="none" stroke="rgb(178,178,0)" stroke-width="0.1"/>
  <path d="M 49.4014472727647,16.45571329118536 L 49.56216078412899,15.981975275679929" fill="none" stroke="rgb(178,178,0)" stroke-width="0.1"/>
  <path d="M 49.56216078412899,15.981975275679929 L 49.720555644657,15.507456984959276" fill="none" stroke="rgb(178,178,0)" stroke-width="0.1"/>
  <path d="M 49.720555644657,15.507456984959276 L 49.876628066281455,15.03216976729152" fill="none" stroke="rgb(178,178,0)" stroke-width="0.1"/>
  <path d="M 49.876628066281455,15.03216976729152 L 50.030374316476355,14.556124989333625" fill="none" stroke="rgb(178,178,0)" stroke-width="0.1"/>
  <path d="M 50.030374316476355,14.556124989333625 L 50.181790718347884,14.079334035859915" fill="none" stroke="rgb(178,178,0)" stroke-width="0.1"/>
  <path d="M 50.181790718347884,14.079334035859915 L 50.33087365072038,13.601808309489797" fill="none" stroke="rgb(178,178,0)" stroke-width="0.1"/>
  <path d="M 50.33087365072038,13.601808309489797 L 50.47761954822454,13.12355923041514" fill="none" stroke="rgb(178,178,0)" stroke-width="0.1"/>
  <path d="M 50.47761954822454,13.12355923041514 L 50.62202490138179,12.644598236126853" fill="none" stroke="rgb(178,178,0)" stroke-width="0.1"/>
  <path d="M 50.62202490138179,12.644598236126853 L 50.76408625668819,12.164936781141705" fill="none" stroke="rgb(178,178,0)" stroke-width="0.1"/>
  <path d="M 50.76408625668819,12.164936781141705 L 50.90380021669807,11.684586336727989" fill="none" stroke="rgb(178,178,0)" stroke-width="0.1"/>
  <path d="M 50.90380021669807,11.684586336727989 L 51.0411634401039,11.20355839063177" fill="none" stroke="rgb(178,178,0)" stroke-width="0.1"/>
  <path d="M 51.0411634401039,11.20355839063177 L 51.17617264181695,10.721864446801305" fill="none" stroke="rgb(178,178,0)" stroke-width="0.1"/>
  <path d="M 51.17617264181695,10.721864446801305 L 51.30882459304598,10.239516025113062" fill="none" stroke="rgb(178,178,0)" stroke-width="0.1"/>
  <path d="M 51.30882459304598,10.239516025113062 L 51.4391161213739,9.756524661095" fill="none" stroke="rgb(178,178,0)" stroke-width="0.1"/>
  <path d="M 51.4391161213739,9.756524661095 L 51.567044110833876,9.272901905651452" fill="none" stroke="rgb(178,178,0)" stroke-width="0.1"/>
  <path d="M 51.567044110833876,9.272901905651452 L 51.69260550198442,8.788659324786863" fill="none" stroke="rgb(178,178,0)" stroke-width="0.1"/>
  <path d="M 51.69260550198442,8.788659324786863 L 51.81579729198165,8.303808499328852" fill="none" stroke="rgb(178,178,0)" stroke-width="0.1"/>
  <path d="M 51.81579729198165,8.303808499328852 L 51.93661653465142,7.818361024651267" fill="none" stroke="rgb(178,178,0)" stroke-width="0.1"/>
  <path d="M 51.93661653465142,7.818361024651267 L 52.0550603405602,7.332328510397474" fill="none" stroke="rgb(178,178,0)" stroke-width="0.1"/>
  <path d="M 52.0550603405602,7.332328510397474 L 52.17112587708357,6.845722580201823" fill="none" stroke="rgb(178,178,0)" stroke-width="0.1"/>
  <path d="M 52.17112587708357,6.845722580201823 L 52.28481036847461,6.358554871412252" fill="none" stroke="rgb(178,178,0)" stroke-width="0.1"/>
  <path d="M 52.28481036847461,6.358554871412252 L 52.39611109592943,5.870837034811984" fill="none" stroke="rgb(178,178,0)" stroke-width="0.1"/>
  <path d="M 52.39611109592943,5.870837034811984 L 52.505025397652844,5.382580734340422" fill="none" stroke="rgb(178,178,0)" stroke-width="0.1"/>
  <path d="M 52.505025397652844,5.382580734340422 L 52.611550668922064,4.893797646814846" fill="none" stroke="rgb(178,178,0)" stroke-width="0.1"/>
  <path d="M 52.611550668922064,4.893797646814846 L 52.71568436214875,4.40449946165063" fill="none" stroke="rgb(178,178,0)" stroke-width="0.1"/>
  <path d="M 52.71568436214875,4.40449946165063 L 52.81742398693973,3.914697880581798" fill="none" stroke="rgb(178,178,0)" stroke-width="0.1"/>
  <path d="M 52.81742398693973,3.914697880581798 L 52.9167671101568,3.424404617381583" fill="none" stroke="rgb(178,178,0)" stroke-width="0.1"/>
  <path d="M 52.9167671101568,3.424404617381583 L 53.013711355975374,2.9336313975817347" fill="none" stroke="rgb(178,178,0)" stroke-width="0.1"/>
  <path d="M 53.013711355975374,2.9336313975817347 L 53.108254405940215,2.4423899581922797" fill="none" stroke="rgb(178,178,0)" stroke-width="0.1"/>
  <path d="M 53.108254405940215,2.4423899581922797 L 53.2003939990218,1.9506920474210574" fill="none" stroke="rgb(178,178,0)" stroke-width="0.1"/>
  <path d="M 53.2003939990218,1.9506920474210574 L 53.29012793167044,1.4585494243924586" fill="none" stroke="rgb(178,178,0)" stroke-width="0.1"/>
  <path d="M 53.29012793167044,1.4585494243924586 L 53.37745405786791,0.9659738588662776" fill="none" stroke="rgb(178,178,0)" stroke-width="0.1"/>
  <path d="M 53.37745405786791,0.9659738588662776 L 53.46237028918017,0.4729771309565649" fill="none" stroke="rgb(178,178,0)" stroke-width="0.1"/>
  <path d="M 22.608148999999912,21.538079999999923 A 12.0,12.0 0.0 0,0 45.49814900000001,26.204079999999976" fill="none" instance-id="-1" semantic-id="1" stroke="rgb(178,178,0)" stroke-width="0.1"/>
  <path d="M 15.608148999999912,21.74807999999996 A 19.0,19.0 0.0 0,0 20.758149000000003,34.197079999999914" fill="none" instance-id="-1" semantic-id="1" stroke="rgb(178,178,0)" stroke-width="0.1"/>
  <path d="M 21.478148999999803,34.920079999999984 A 19.0,19.0 0.0 0,0 51.84814899999992,29.136079999999993" fill="none" instance-id="-1" semantic-id="1" stroke="rgb(178,178,0)" stroke-width="0.1"/>
 </g>
 <g id="layerDOOR_FIRE" inkscape:groupmode="layer" inkscape:label="DOOR_FIRE">
  <path d="M 19.81814899999995,36.03908000000001 L 15.728148999999803,29.97307999999998" fill="none" instance-id="1" semantic-id="4" stroke="rgb(0,178,178)" stroke-width="0.1"/>
  <path d="M 19.508149000000003,36.24807999999996 L 15.418148999999858,30.182079999999928" fill="none" instance-id="1" semantic-id="4" stroke="rgb(0,178,178)" stroke-width="0.1"/>
  <path d="M 19.81814899999995,36.03908000000001 L 19.508149000000003,36.24807999999996" fill="none" instance-id="1" semantic-id="4" stroke="rgb(0,178,178)" stroke-width="0.1"/>
  <path d="M 15.418148999999858,30.182079999999928 L 15.728148999999803,29.97307999999998" fill="none" instance-id="1" semantic-id="4" stroke="rgb(0,178,178)" stroke-width="0.1"/>
  <path d="M 7.688148999999839,44.20708000000002 L 3.598148999999921,38.14107999999999" fill="none" instance-id="1" semantic-id="4" stroke="rgb(0,178,178)" stroke-width="0.1"/>
  <path d="M 7.378148999999894,44.416079999999965 L 3.288148999999976,38.350079999999934" fill="none" instance-id="1" semantic-id="4" stroke="rgb(0,178,178)" stroke-width="0.1"/>
  <path d="M 3.598148999999921,38.14107999999999 L 3.288148999999976,38.350079999999934" fill="none" instance-id="1" semantic-id="4" stroke="rgb(0,178,178)" stroke-width="0.1"/>
  <path d="M 7.378148999999894,44.416079999999965 L 7.688148999999839,44.20708000000002" fill="none" instance-id="1" semantic-id="4" stroke="rgb(0,178,178)" stroke-width="0.1"/>
  <path d="M 72.92814899999985,18.32808 L 66.03814899999998,15.870079999999916" fill="none" instance-id="3" semantic-id="4" stroke="rgb(0,178,178)" stroke-width="0.1"/>
  <path d="M 72.79814899999997,18.68107999999995 L 65.90814899999987,16.224079999999958" fill="none" instance-id="3" semantic-id="4" stroke="rgb(0,178,178)" stroke-width="0.1"/>
  <path d="M 72.92814899999985,18.32808 L 72.79814899999997,18.68107999999995" fill="none" instance-id="3" semantic-id="4" stroke="rgb(0,178,178)" stroke-width="0.1"/>
  <path d="M 65.90814899999987,16.224079999999958 L 66.03814899999998,15.870079999999916" fill="none" instance-id="3" semantic-id="4" stroke="rgb(0,178,178)" stroke-width="0.1"/>
  <path d="M 68.008149,32.10208 L 61.1181489999999,29.645080000000007" fill="none" instance-id="3" semantic-id="4" stroke="rgb(0,178,178)" stroke-width="0.1"/>
  <path d="M 67.8781489999999,32.45507999999995 L 60.99814900000001,29.99807999999996" fill="none" instance-id="3" semantic-id="4" stroke="rgb(0,178,178)" stroke-width="0.1"/>
  <path d="M 61.1181489999999,29.645080000000007 L 60.99814900000001,29.99807999999996" fill="none" instance-id="3" semantic-id="4" stroke="rgb(0,178,178)" stroke-width="0.1"/>
  <path d="M 67.8781489999999,32.45507999999995 L 68.008149,32.10208" fill="none" instance-id="3" semantic-id="4" stroke="rgb(0,178,178)" stroke-width="0.1"/>
  <path d="M 16.298148999999967,11.510080000000016 L 9.44814899999983,18.789080000000013" fill="none" instance-id="2" semantic-id="3" stroke="rgb(0,178,178)" stroke-width="0.1"/>
  <path d="M 15.418148999999858,30.184079999999994 A 7.3125,7.3125 0.0 0,0 13.598148999999921,40.22708" fill="none" instance-id="1" semantic-id="4" stroke="rgb(0,178,178)" stroke-width="0.1"/>
  <path d="M 13.598148999999921,40.22708 A 7.3125,7.3125 0.0 0,0 3.598148999999921,38.14307999999994" fill="none" instance-id="1" semantic-id="4" stroke="rgb(0,178,178)" stroke-width="0.1"/>
  <path d="M 65.90814899999987,16.224079999999958 A 7.3125,7.3125 0.0 0,0 70.39814899999988,25.392079999999964" fill="none" instance-id="3" semantic-id="4" stroke="rgb(0,178,178)" stroke-width="0.1"/>
  <path d="M 70.39814899999988,25.392079999999964 A 7.3125,7.3125 0.0 0,0 61.128148999999894,29.645080000000007" fill="none" instance-id="3" semantic-id="4" stroke="rgb(0,178,178)" stroke-width="0.1"/>
  <path d="M 9.44814899999983,18.789080000000013 A 10.0,10.0 0.0 0,0 16.59814899999992,21.506079999999997" fill="none" instance-id="2" semantic-id="3" stroke="rgb(0,178,178)" stroke-width="0.1"/>
 </g>
 <g id="layerDOOR_FIRE_TEXT" inkscape:groupmode="layer" inkscape:label="DOOR_FIRE_TEXT">
  <text fill="rgb(0,0,0)" font-family="Noto Sans CJK SC" font-size="2" transform="rotate(-33.9506,3.5481489999999667,36.73407999999995)" x="3.5481489999999667" y="36.73407999999995">
   FM
  </text>
  <text fill="rgb(0,0,0)" font-family="Noto Sans CJK SC" font-size="2" transform="rotate(-33.9506,6.608148999999912,34.676079999999956)" x="6.608148999999912" y="34.676079999999956">
   乙
  </text>
  <text fill="rgb(0,0,0)" font-family="Noto Sans CJK SC" font-size="2" transform="rotate(-33.9506,9.428148999999848,32.77607999999998)" x="9.428148999999848" y="32.77607999999998">
   1523
  </text>
  <text fill="rgb(0,0,0)" font-family="Noto Sans CJK SC" font-size="2" transform="rotate(-70.362,75.55814899999996,34.00508000000002)" x="75.55814899999996" y="34.00508000000002">
   FM
  </text>
  <text fill="rgb(0,0,0)" font-family="Noto Sans CJK SC" font-size="2" transform="rotate(-70.362,76.79814899999997,30.535079999999994)" x="76.79814899999997" y="30.535079999999994">
   甲
  </text>
  <text fill="rgb(0,0,0)" font-family="Noto Sans CJK SC" font-size="2" transform="rotate(-70.362,77.93814899999984,27.33107999999993)" x="77.93814899999984" y="27.33107999999993">
   1523
  </text>
  <text fill="rgb(0,0,0)" font-family="Noto Sans CJK SC" font-size="2" transform="rotate(-91.7119,7.398148999999876,25.093079999999986)" x="7.398148999999876" y="25.093079999999986">
   FM
  </text>
  <text fill="rgb(0,0,0)" font-family="Noto Sans CJK SC" font-size="2" transform="rotate(-91.7119,7.288148999999976,21.41107999999997)" x="7.288148999999976" y="21.41107999999997">
   甲
  </text>
  <text fill="rgb(0,0,0)" font-family="Noto Sans CJK SC" font-size="2" transform="rotate(-91.7119,7.188148999999839,18.011079999999993)" x="7.188148999999839" y="18.011079999999993">
   1021
  </text>
 </g>
 <g id="layerEVTR" inkscape:groupmode="layer" inkscape:label="EVTR">
  <path d="M 29.0293069643501,0.0 L 25.418148999999858,5.3640799999999444" fill="none" stroke="rgb(178,88,0)" stroke-width="0.1"/>
  <path d="M 43.6181489999999,1.1700799999999845 L 43.583023517539914,0.0" fill="none" stroke="rgb(178,88,0)" stroke-width="0.1"/>
  <path d="M 41.22089211690536,0.0 L 41.258149,1.2410800000000108" fill="none" stroke="rgb(178,88,0)" stroke-width="0.1"/>
  <path d="M 41.258149,1.2410800000000108 L 43.6181489999999,1.1700799999999845" fill="none" stroke="rgb(178,88,0)" stroke-width="0.1"/>
  <path d="M 39.018148999999994,4.955079999999953 L 25.418148999999858,5.3640799999999444" fill="none" stroke="rgb(178,88,0)" stroke-width="0.1"/>
  <path d="M 25.418148999999858,5.3640799999999444 L 25.256767938034272,0.0" fill="none" stroke="rgb(178,88,0)" stroke-width="0.1"/>
  <path d="M 35.23040105804603,0.0 L 39.018148999999994,4.955079999999953" fill="none" stroke="rgb(178,88,0)" stroke-width="0.1"/>
  <path d="M 39.018148999999994,4.955079999999953 L 38.86907291006014,0.0" fill="none" stroke="rgb(178,88,0)" stroke-width="0.1"/>
 </g>
 <g id="layerPUB_HATCH" inkscape:groupmode="layer" inkscape:label="PUB_HATCH">
  <path d="M 45.49814900000001,26.204079999999976 L 51.84814899999992,29.136079999999993" fill="none" instance-id="-1" semantic-id="1" stroke="rgb(63,63,63)" stroke-width="0.1"/>
  <path d="M 51.84814899999992,29.136079999999993 A 109.295,109.295 0.0 0,0 58.67814899999985,9.723079999999982" fill="none" instance-id="-1" semantic-id="1" stroke="rgb(63,63,63)" stroke-width="0.1"/>
  <path d="M 58.67814899999985,9.723079999999982 L 51.878148999999894,8.034080000000017" fill="none" instance-id="-1" semantic-id="1" stroke="rgb(63,63,63)" stroke-width="0.1"/>
  <path d="M 45.49814900000001,26.204079999999976 A 102.295,102.295 0.0 0,0 51.878148999999894,8.034080000000017" fill="none" instance-id="-1" semantic-id="1" stroke="rgb(63,63,63)" stroke-width="0.1"/>
  <path d="M 51.878148999999894,8.034080000000017 L 58.67814899999985,9.723079999999982" fill="none" instance-id="-1" semantic-id="1" stroke="rgb(63,63,63)" stroke-width="0.1"/>
  <path d="M 58.67814899999985,9.723079999999982 L 58.79908219585377,9.231707520562964" fill="none" instance-id="-1" semantic-id="1" stroke="rgb(63,63,63)" stroke-width="0.1"/>
  <path d="M 58.79908219585377,9.231707520562964 L 58.917739049364855,8.739780389249518" fill="none" instance-id="-1" semantic-id="1" stroke="rgb(63,63,63)" stroke-width="0.1"/>
  <path d="M 58.917739049364855,8.739780389249518 L 59.034117016903565,8.247309151430613" fill="none" instance-id="-1" semantic-id="1" stroke="rgb(63,63,63)" stroke-width="0.1"/>
  <path d="M 59.034117016903565,8.247309151430613 L 59.14821360369251,7.754304364140921" fill="none" instance-id="-1" semantic-id="1" stroke="rgb(63,63,63)" stroke-width="0.1"/>
  <path d="M 59.14821360369251,7.754304364140921 L 59.26002636385897,7.260776595852917" fill="none" instance-id="-1" semantic-id="1" stroke="rgb(63,63,63)" stroke-width="0.1"/>
  <path d="M 59.26002636385897,7.260776595852917 L 59.36955290048945,6.766736426250191" fill="none" instance-id="-1" semantic-id="1" stroke="rgb(63,63,63)" stroke-width="0.1"/>
  <path d="M 59.36955290048945,6.766736426250191 L 59.47679086567928,6.272194446000412" fill="none" instance-id="-1" semantic-id="1" stroke="rgb(63,63,63)" stroke-width="0.1"/>
  <path d="M 59.47679086567928,6.272194446000412 L 59.581737960583496,5.777161256528757" fill="none" instance-id="-1" semantic-id="1" stroke="rgb(63,63,63)" stroke-width="0.1"/>
  <path d="M 59.581737960583496,5.777161256528757 L 59.68439193546669,5.281647469790073" fill="none" instance-id="-1" semantic-id="1" stroke="rgb(63,63,63)" stroke-width="0.1"/>
  <path d="M 59.68439193546669,5.281647469790073 L 59.78475058975005,4.78566370804208" fill="none" instance-id="-1" semantic-id="1" stroke="rgb(63,63,63)" stroke-width="0.1"/>
  <path d="M 59.78475058975005,4.78566370804208 L 59.882811772059995,4.2892206036168545" fill="none" instance-id="-1" semantic-id="1" stroke="rgb(63,63,63)" stroke-width="0.1"/>
  <path d="M 59.882811772059995,4.2892206036168545 L 59.97857338027302,3.7923287986935748" fill="none" instance-id="-1" semantic-id="1" stroke="rgb(63,63,63)" stroke-width="0.1"/>
  <path d="M 59.97857338027302,3.7923287986935748 L 60.072033361561125,3.2949989450702333" fill="none" instance-id="-1" semantic-id="1" stroke="rgb(63,63,63)" stroke-width="0.1"/>
  <path d="M 60.072033361561125,3.2949989450702333 L 60.16318971243618,2.7972417039351285" fill="none" instance-id="-1" semantic-id="1" stroke="rgb(63,63,63)" stroke-width="0.1"/>
  <path d="M 60.16318971243618,2.7972417039351285 L 60.252040478793106,2.29906774563824" fill="none" instance-id="-1" semantic-id="1" stroke="rgb(63,63,63)" stroke-width="0.1"/>
  <path d="M 60.252040478793106,2.29906774563824 L 60.33858375595037,1.8004877494628317" fill="none" instance-id="-1" semantic-id="1" stroke="rgb(63,63,63)" stroke-width="0.1"/>
  <path d="M 60.33858375595037,1.8004877494628317 L 60.42281768869225,1.3015124033962593" fill="none" instance-id="-1" semantic-id="1" stroke="rgb(63,63,63)" stroke-width="0.1"/>
  <path d="M 60.42281768869225,1.3015124033962593 L 60.50474047130842,0.8021524039011183" fill="none" instance-id="-1" semantic-id="1" stroke="rgb(63,63,63)" stroke-width="0.1"/>
  <path d="M 60.50474047130842,0.8021524039011183 L 60.584350347631926,0.3024184556855971" fill="none" instance-id="-1" semantic-id="1" stroke="rgb(63,63,63)" stroke-width="0.1"/>
  <path d="M 51.878148999999894,8.034080000000017 L 51.99954962637503,7.540731397914783" fill="none" instance-id="-1" semantic-id="1" stroke="rgb(63,63,63)" stroke-width="0.1"/>
  <path d="M 51.99954962637503,7.540731397914783 L 52.11849846138216,7.046785925302515" fill="none" instance-id="-1" semantic-id="1" stroke="rgb(63,63,63)" stroke-width="0.1"/>
  <path d="M 52.11849846138216,7.046785925302515 L 52.23499257080971,6.55225576673547" fill="none" instance-id="-1" semantic-id="1" stroke="rgb(63,63,63)" stroke-width="0.1"/>
  <path d="M 52.23499257080971,6.55225576673547 L 52.34902908099821,6.057153121208671" fill="none" instance-id="-1" semantic-id="1" stroke="rgb(63,63,63)" stroke-width="0.1"/>
  <path d="M 52.34902908099821,6.057153121208671 L 52.4606051789126,5.561490201839206" fill="none" instance-id="-1" semantic-id="1" stroke="rgb(63,63,63)" stroke-width="0.1"/>
  <path d="M 52.4606051789126,5.561490201839206 L 52.569718112210694,5.065279235564958" fill="none" instance-id="-1" semantic-id="1" stroke="rgb(63,63,63)" stroke-width="0.1"/>
  <path d="M 52.569718112210694,5.065279235564958 L 52.67636518931067,4.568532462842995" fill="none" instance-id="-1" semantic-id="1" stroke="rgb(63,63,63)" stroke-width="0.1"/>
  <path d="M 52.67636518931067,4.568532462842995 L 52.780543779459094,4.071262137347503" fill="none" instance-id="-1" semantic-id="1" stroke="rgb(63,63,63)" stroke-width="0.1"/>
  <path d="M 52.780543779459094,4.071262137347503 L 52.88225131279387,3.5734805256676054" fill="none" instance-id="-1" semantic-id="1" stroke="rgb(63,63,63)" stroke-width="0.1"/>
  <path d="M 52.88225131279387,3.5734805256676054 L 52.98148528040929,3.075199907004844" fill="none" instance-id="-1" semantic-id="1" stroke="rgb(63,63,63)" stroke-width="0.1"/>
  <path d="M 52.98148528040929,3.075199907004844 L 53.07824323441673,2.576432572869976" fill="none" instance-id="-1" semantic-id="1" stroke="rgb(63,63,63)" stroke-width="0.1"/>
  <path d="M 53.07824323441673,2.576432572869976 L 53.17252278800538,2.0771908267802246" fill="none" instance-id="-1" semantic-id="1" stroke="rgb(63,63,63)" stroke-width="0.1"/>
  <path d="M 53.17252278800538,2.0771908267802246 L 53.264321615501785,1.5774869839553958" fill="none" instance-id="-1" semantic-id="1" stroke="rgb(63,63,63)" stroke-width="0.1"/>
  <path d="M 53.264321615501785,1.5774869839553958 L 53.35363745242648,1.077333371014106" fill="none" instance-id="-1" semantic-id="1" stroke="rgb(63,63,63)" stroke-width="0.1"/>
  <path d="M 53.35363745242648,1.077333371014106 L 53.44046809554948,0.5767423256702386" fill="none" instance-id="-1" semantic-id="1" stroke="rgb(63,63,63)" stroke-width="0.1"/>
  <path d="M 53.44046809554948,0.5767423256702386 L 53.52481140294594,0.07572619642780865" fill="none" instance-id="-1" semantic-id="1" stroke="rgb(63,63,63)" stroke-width="0.1"/>
  <path d="M 22.608148999999912,21.538079999999923 L 15.608148999999912,21.74807999999996" fill="none" instance-id="-1" semantic-id="1" stroke="rgb(63,63,63)" stroke-width="0.1"/>
  <path d="M 15.608148999999912,21.74807999999996 A 19.0,19.0 0.0 0,0 51.84814899999992,29.136079999999993" fill="none" instance-id="-1" semantic-id="1" stroke="rgb(63,63,63)" stroke-width="0.1"/>
  <path d="M 51.84814899999992,29.136079999999993 L 45.49814900000001,26.204079999999976" fill="none" instance-id="-1" semantic-id="1" stroke="rgb(63,63,63)" stroke-width="0.1"/>
  <path d="M 22.608148999999912,21.538079999999923 A 12.0,12.0 0.0 0,0 45.49814900000001,26.204079999999976" fill="none" instance-id="-1" semantic-id="1" stroke="rgb(63,63,63)" stroke-width="0.1"/>
  <path d="M 51.84814899999992,29.136079999999993 L 52.056573464790745,28.681486900860932" fill="none" stroke="rgb(63,63,63)" stroke-width="0.1"/>
  <path d="M 52.056573464790745,28.681486900860932 L 52.262915694400135,28.22594488568768" fill="none" stroke="rgb(63,63,63)" stroke-width="0.1"/>
  <path d="M 52.262915694400135,28.22594488568768 L 52.467171368729396,27.7694634919676" fill="none" stroke="rgb(63,63,63)" stroke-width="0.1"/>
  <path d="M 52.467171368729396,27.7694634919676 L 52.669336211365135,27.312052276855525" fill="none" stroke="rgb(63,63,63)" stroke-width="0.1"/>
  <path d="M 52.669336211365135,27.312052276855525 L 52.869405989669076,26.85372081697335" fill="none" stroke="rgb(63,63,63)" stroke-width="0.1"/>
  <path d="M 52.869405989669076,26.85372081697335 L 53.06737651486628,26.39447870820993" fill="none" stroke="rgb(63,63,63)" stroke-width="0.1"/>
  <path d="M 53.06737651486628,26.39447870820993 L 53.26324364213269,25.934335565519973" fill="none" stroke="rgb(63,63,63)" stroke-width="0.1"/>
  <path d="M 53.26324364213269,25.934335565519973 L 53.45700327068289,25.47330102272258" fill="none" stroke="rgb(63,63,63)" stroke-width="0.1"/>
  <path d="M 53.45700327068289,25.47330102272258 L 53.64865134385445,25.011384732299916" fill="none" stroke="rgb(63,63,63)" stroke-width="0.1"/>
  <path d="M 53.64865134385445,25.011384732299916 L 53.83818384919414,24.548596365194612" fill="none" stroke="rgb(63,63,63)" stroke-width="0.1"/>
  <path d="M 53.83818384919414,24.548596365194612 L 54.025596818541544,24.084945610608088" fill="none" stroke="rgb(63,63,63)" stroke-width="0.1"/>
  <path d="M 54.025596818541544,24.084945610608088 L 54.21088632811143,23.62044217579671" fill="none" stroke="rgb(63,63,63)" stroke-width="0.1"/>
  <path d="M 54.21088632811143,23.62044217579671 L 54.39404849857738,23.15509578586932" fill="none" stroke="rgb(63,63,63)" stroke-width="0.1"/>
  <path d="M 54.39404849857738,23.15509578586932 L 54.57507949515184,22.688916183583274" fill="none" stroke="rgb(63,63,63)" stroke-width="0.1"/>
  <path d="M 54.57507949515184,22.688916183583274 L 54.75397552766617,22.22191312914049" fill="none" stroke="rgb(63,63,63)" stroke-width="0.1"/>
  <path d="M 54.75397552766617,22.22191312914049 L 54.93073285065134,21.754096399983155" fill="none" stroke="rgb(63,63,63)" stroke-width="0.1"/>
  <path d="M 54.93073285065134,21.754096399983155 L 55.10534776341524,21.285475790589317" fill="none" stroke="rgb(63,63,63)" stroke-width="0.1"/>
  <path d="M 55.10534776341524,21.285475790589317 L 55.27781661012045,20.816061112266993" fill="none" stroke="rgb(63,63,63)" stroke-width="0.1"/>
  <path d="M 55.27781661012045,20.816061112266993 L 55.44813577986065,20.34586219294954" fill="none" stroke="rgb(63,63,63)" stroke-width="0.1"/>
  <path d="M 55.44813577986065,20.34586219294954 L 55.61630170673698,19.87488887698987" fill="none" stroke="rgb(63,63,63)" stroke-width="0.1"/>
  <path d="M 55.61630170673698,19.87488887698987 L 55.78231086993151,19.403151024953672" fill="none" stroke="rgb(63,63,63)" stroke-width="0.1"/>
  <path d="M 55.78231086993151,19.403151024953672 L 55.94615979378182,18.93065851341362" fill="none" stroke="rgb(63,63,63)" stroke-width="0.1"/>
  <path d="M 55.94615979378182,18.93065851341362 L 56.10784504785329,18.45742123474247" fill="none" stroke="rgb(63,63,63)" stroke-width="0.1"/>
  <path d="M 56.10784504785329,18.45742123474247 L 56.26736324701119,17.983449096905588" fill="none" stroke="rgb(63,63,63)" stroke-width="0.1"/>
  <path d="M 56.26736324701119,17.983449096905588 L 56.42471105149184,17.50875202325392" fill="none" stroke="rgb(63,63,63)" stroke-width="0.1"/>
  <path d="M 56.42471105149184,17.50875202325392 L 56.57988516697151,17.03333995231617" fill="none" stroke="rgb(63,63,63)" stroke-width="0.1"/>
  <path d="M 56.57988516697151,17.03333995231617 L 56.73288234463689,16.557222837590416" fill="none" stroke="rgb(63,63,63)" stroke-width="0.1"/>
  <path d="M 56.73288234463689,16.557222837590416 L 56.88369938125129,16.08041064733618" fill="none" stroke="rgb(63,63,63)" stroke-width="0.1"/>
  <path d="M 56.88369938125129,16.08041064733618 L 57.03233311922372,15.602913364365236" fill="none" stroke="rgb(63,63,63)" stroke-width="0.1"/>
  <path d="M 57.03233311922372,15.602913364365236 L 57.17878044667327,15.124740985833" fill="none" stroke="rgb(63,63,63)" stroke-width="0.1"/>
  <path d="M 57.17878044667327,15.124740985833 L 57.32303829749503,14.645903523029006" fill="none" stroke="rgb(63,63,63)" stroke-width="0.1"/>
  <path d="M 57.32303829749503,14.645903523029006 L 57.4651036514249,14.16641100116749" fill="none" stroke="rgb(63,63,63)" stroke-width="0.1"/>
  <path d="M 57.4651036514249,14.16641100116749 L 57.604973534100964,13.6862734591773" fill="none" stroke="rgb(63,63,63)" stroke-width="0.1"/>
  <path d="M 57.604973534100964,13.6862734591773 L 57.7426450171281,13.205500949491693" fill="none" stroke="rgb(63,63,63)" stroke-width="0.1"/>
  <path d="M 57.7426450171281,13.205500949491693 L 57.87811521813751,12.724103537838118" fill="none" stroke="rgb(63,63,63)" stroke-width="0.1"/>
  <path d="M 57.87811521813751,12.724103537838118 L 58.01138130084769,12.242091303027223" fill="none" stroke="rgb(63,63,63)" stroke-width="0.1"/>
  <path d="M 58.01138130084769,12.242091303027223 L 58.142440475123976,11.759474336742073" fill="none" stroke="rgb(63,63,63)" stroke-width="0.1"/>
  <path d="M 58.142440475123976,11.759474336742073 L 58.271289997037,11.276262743326697" fill="none" stroke="rgb(63,63,63)" stroke-width="0.1"/>
  <path d="M 58.271289997037,11.276262743326697 L 58.397927168919296,10.7924666395744" fill="none" stroke="rgb(63,63,63)" stroke-width="0.1"/>
  <path d="M 58.397927168919296,10.7924666395744 L 58.52234933942327,10.308096154516306" fill="none" stroke="rgb(63,63,63)" stroke-width="0.1"/>
  <path d="M 58.52234933942327,10.308096154516306 L 58.644553903575115,9.823161429209222" fill="none" stroke="rgb(63,63,63)" stroke-width="0.1"/>
  <path d="M 58.644553903575115,9.823161429209222 L 58.76453830283049,9.33767261652281" fill="none" stroke="rgb(63,63,63)" stroke-width="0.1"/>
  <path d="M 58.76453830283049,9.33767261652281 L 58.88230002512773,8.851639880927905" fill="none" stroke="rgb(63,63,63)" stroke-width="0.1"/>
  <path d="M 58.88230002512773,8.851639880927905 L 58.99783660493995,8.365073398282902" fill="none" stroke="rgb(63,63,63)" stroke-width="0.1"/>
  <path d="M 58.99783660493995,8.365073398282902 L 59.1111456233275,7.877983355621041" fill="none" stroke="rgb(63,63,63)" stroke-width="0.1"/>
  <path d="M 59.1111456233275,7.877983355621041 L 59.22222470798852,7.3903799509373584" fill="none" stroke="rgb(63,63,63)" stroke-width="0.1"/>
  <path d="M 59.22222470798852,7.3903799509373584 L 59.33107153330775,6.902273392974621" fill="none" stroke="rgb(63,63,63)" stroke-width="0.1"/>
  <path d="M 59.33107153330775,6.902273392974621 L 59.43768382040571,6.413673901010156" fill="none" stroke="rgb(63,63,63)" stroke-width="0.1"/>
  <path d="M 59.43768382040571,6.413673901010156 L 59.54205933718731,5.92459170464133" fill="none" stroke="rgb(63,63,63)" stroke-width="0.1"/>
  <path d="M 59.54205933718731,5.92459170464133 L 59.64419589838667,5.435037043572152" fill="none" stroke="rgb(63,63,63)" stroke-width="0.1"/>
  <path d="M 59.64419589838667,5.435037043572152 L 59.74409136561485,4.945020167397956" fill="none" stroke="rgb(63,63,63)" stroke-width="0.1"/>
  <path d="M 59.74409136561485,4.945020167397956 L 59.84174364740352,4.454551335391443" fill="none" stroke="rgb(63,63,63)" stroke-width="0.1"/>
  <path d="M 59.84174364740352,4.454551335391443 L 59.93715069924838,3.9636408162879206" fill="none" stroke="rgb(63,63,63)" stroke-width="0.1"/>
  <path d="M 59.93715069924838,3.9636408162879206 L 60.03031052365327,3.4722988880697585" fill="none" stroke="rgb(63,63,63)" stroke-width="0.1"/>
  <path d="M 60.03031052365327,3.4722988880697585 L 60.121221170170884,2.9805358377518587" fill="none" stroke="rgb(63,63,63)" stroke-width="0.1"/>
  <path d="M 60.121221170170884,2.9805358377518587 L 60.20988073544413,2.4883619611656513" fill="none" stroke="rgb(63,63,63)" stroke-width="0.1"/>
  <path d="M 60.20988073544413,2.4883619611656513 L 60.29628736324594,1.9957875627442263" fill="none" stroke="rgb(63,63,63)" stroke-width="0.1"/>
  <path d="M 60.29628736324594,1.9957875627442263 L 60.380439244517675,1.502822955306101" fill="none" stroke="rgb(63,63,63)" stroke-width="0.1"/>
  <path d="M 60.380439244517675,1.502822955306101 L 60.46233461740758,1.0094784598392152" fill="none" stroke="rgb(63,63,63)" stroke-width="0.1"/>
  <path d="M 60.46233461740758,1.0094784598392152 L 60.54197176730759,0.5157644052852675" fill="none" stroke="rgb(63,63,63)" stroke-width="0.1"/>
  <path d="M 60.54197176730759,0.5157644052852675 L 60.61934902688881,0.021691128323254816" fill="none" stroke="rgb(63,63,63)" stroke-width="0.1"/>
  <path d="M 45.49814900000001,26.204079999999976 L 45.706581789285565,25.749313782674335" fill="none" stroke="rgb(63,63,63)" stroke-width="0.1"/>
  <path d="M 45.706581789285565,25.749313782674335 L 45.91278813523104,25.29353370087847" fill="none" stroke="rgb(63,63,63)" stroke-width="0.1"/>
  <path d="M 45.91278813523104,25.29353370087847 L 46.11676310634061,24.836750654749494" fill="none" stroke="rgb(63,63,63)" stroke-width="0.1"/>
  <path d="M 46.11676310634061,24.836750654749494 L 46.318501824483064,24.378975568410738" fill="none" stroke="rgb(63,63,63)" stroke-width="0.1"/>
  <path d="M 46.318501824483064,24.378975568410738 L 46.51799946500728,23.920219389710837" fill="none" stroke="rgb(63,63,63)" stroke-width="0.1"/>
  <path d="M 46.51799946500728,23.920219389710837 L 46.715251256858664,23.460493089961346" fill="none" stroke="rgb(63,63,63)" stroke-width="0.1"/>
  <path d="M 46.715251256858664,23.460493089961346 L 46.910252482693295,22.99980766367446" fill="none" stroke="rgb(63,63,63)" stroke-width="0.1"/>
  <path d="M 46.910252482693295,22.99980766367446 L 47.10299847898932,22.53817412830051" fill="none" stroke="rgb(63,63,63)" stroke-width="0.1"/>
  <path d="M 47.10299847898932,22.53817412830051 L 47.293484636160656,22.075603523964105" fill="none" stroke="rgb(63,63,63)" stroke-width="0.1"/>
  <path d="M 47.293484636160656,22.075603523964105 L 47.481706398664755,21.61210691319991" fill="none" stroke="rgb(63,63,63)" stroke-width="0.1"/>
  <path d="M 47.481706398664755,21.61210691319991 L 47.667659265114025,21.147695380688788" fill="none" stroke="rgb(63,63,63)" stroke-width="0.1"/>
  <path d="M 47.667659265114025,21.147695380688788 L 47.85133878838178,20.682380032991887" fill="none" stroke="rgb(63,63,63)" stroke-width="0.1"/>
  <path d="M 47.85133878838178,20.682380032991887 L 48.032740575708885,20.216171998285745" fill="none" stroke="rgb(63,63,63)" stroke-width="0.1"/>
  <path d="M 48.032740575708885,20.216171998285745 L 48.21186028880925,19.74908242609547" fill="none" stroke="rgb(63,63,63)" stroke-width="0.1"/>
  <path d="M 48.21186028880925,19.74908242609547 L 48.38869364397374,19.28112248702871" fill="none" stroke="rgb(63,63,63)" stroke-width="0.1"/>
  <path d="M 48.38869364397374,19.28112248702871 L 48.56323641217159,18.812303372508154" fill="none" stroke="rgb(63,63,63)" stroke-width="0.1"/>
  <path d="M 48.56323641217159,18.812303372508154 L 48.735484419152726,18.342636294503905" fill="none" stroke="rgb(63,63,63)" stroke-width="0.1"/>
  <path d="M 48.735484419152726,18.342636294503905 L 48.905433545546884,17.87213248526541" fill="none" stroke="rgb(63,63,63)" stroke-width="0.1"/>
  <path d="M 48.905433545546884,17.87213248526541 L 49.07307972696253,17.400803197052937" fill="none" stroke="rgb(63,63,63)" stroke-width="0.1"/>
  <path d="M 49.07307972696253,17.400803197052937 L 49.238418954083045,16.92865970186824" fill="none" stroke="rgb(63,63,63)" stroke-width="0.1"/>
  <path d="M 49.238418954083045,16.92865970186824 L 49.4014472727647,16.45571329118536" fill="none" stroke="rgb(63,63,63)" stroke-width="0.1"/>
  <path d="M 49.4014472727647,16.45571329118536 L 49.56216078412899,15.981975275679929" fill="none" stroke="rgb(63,63,63)" stroke-width="0.1"/>
  <path d="M 49.56216078412899,15.981975275679929 L 49.720555644657,15.507456984959276" fill="none" stroke="rgb(63,63,63)" stroke-width="0.1"/>
  <path d="M 49.720555644657,15.507456984959276 L 49.876628066281455,15.03216976729152" fill="none" stroke="rgb(63,63,63)" stroke-width="0.1"/>
  <path d="M 49.876628066281455,15.03216976729152 L 50.030374316476355,14.556124989333625" fill="none" stroke="rgb(63,63,63)" stroke-width="0.1"/>
  <path d="M 50.030374316476355,14.556124989333625 L 50.181790718347884,14.079334035859915" fill="none" stroke="rgb(63,63,63)" stroke-width="0.1"/>
  <path d="M 50.181790718347884,14.079334035859915 L 50.33087365072038,13.601808309489797" fill="none" stroke="rgb(63,63,63)" stroke-width="0.1"/>
  <path d="M 50.33087365072038,13.601808309489797 L 50.47761954822454,13.12355923041514" fill="none" stroke="rgb(63,63,63)" stroke-width="0.1"/>
  <path d="M 50.47761954822454,13.12355923041514 L 50.62202490138179,12.644598236126853" fill="none" stroke="rgb(63,63,63)" stroke-width="0.1"/>
  <path d="M 50.62202490138179,12.644598236126853 L 50.76408625668819,12.164936781141705" fill="none" stroke="rgb(63,63,63)" stroke-width="0.1"/>
  <path d="M 50.76408625668819,12.164936781141705 L 50.90380021669807,11.684586336727989" fill="none" stroke="rgb(63,63,63)" stroke-width="0.1"/>
  <path d="M 50.90380021669807,11.684586336727989 L 51.0411634401039,11.20355839063177" fill="none" stroke="rgb(63,63,63)" stroke-width="0.1"/>
  <path d="M 51.0411634401039,11.20355839063177 L 51.17617264181695,10.721864446801305" fill="none" stroke="rgb(63,63,63)" stroke-width="0.1"/>
  <path d="M 51.17617264181695,10.721864446801305 L 51.30882459304598,10.239516025113062" fill="none" stroke="rgb(63,63,63)" stroke-width="0.1"/>
  <path d="M 51.30882459304598,10.239516025113062 L 51.4391161213739,9.756524661095" fill="none" stroke="rgb(63,63,63)" stroke-width="0.1"/>
  <path d="M 51.4391161213739,9.756524661095 L 51.567044110833876,9.272901905651452" fill="none" stroke="rgb(63,63,63)" stroke-width="0.1"/>
  <path d="M 51.567044110833876,9.272901905651452 L 51.69260550198442,8.788659324786863" fill="none" stroke="rgb(63,63,63)" stroke-width="0.1"/>
  <path d="M 51.69260550198442,8.788659324786863 L 51.81579729198165,8.303808499328852" fill="none" stroke="rgb(63,63,63)" stroke-width="0.1"/>
  <path d="M 51.81579729198165,8.303808499328852 L 51.93661653465142,7.818361024651267" fill="none" stroke="rgb(63,63,63)" stroke-width="0.1"/>
  <path d="M 51.93661653465142,7.818361024651267 L 52.0550603405602,7.332328510397474" fill="none" stroke="rgb(63,63,63)" stroke-width="0.1"/>
  <path d="M 52.0550603405602,7.332328510397474 L 52.17112587708357,6.845722580201823" fill="none" stroke="rgb(63,63,63)" stroke-width="0.1"/>
  <path d="M 52.17112587708357,6.845722580201823 L 52.28481036847461,6.358554871412252" fill="none" stroke="rgb(63,63,63)" stroke-width="0.1"/>
  <path d="M 52.28481036847461,6.358554871412252 L 52.39611109592943,5.870837034811984" fill="none" stroke="rgb(63,63,63)" stroke-width="0.1"/>
  <path d="M 52.39611109592943,5.870837034811984 L 52.505025397652844,5.382580734340422" fill="none" stroke="rgb(63,63,63)" stroke-width="0.1"/>
  <path d="M 52.505025397652844,5.382580734340422 L 52.611550668922064,4.893797646814846" fill="none" stroke="rgb(63,63,63)" stroke-width="0.1"/>
  <path d="M 52.611550668922064,4.893797646814846 L 52.71568436214875,4.40449946165063" fill="none" stroke="rgb(63,63,63)" stroke-width="0.1"/>
  <path d="M 52.71568436214875,4.40449946165063 L 52.81742398693973,3.914697880581798" fill="none" stroke="rgb(63,63,63)" stroke-width="0.1"/>
  <path d="M 52.81742398693973,3.914697880581798 L 52.9167671101568,3.424404617381583" fill="none" stroke="rgb(63,63,63)" stroke-width="0.1"/>
  <path d="M 52.9167671101568,3.424404617381583 L 53.013711355975374,2.9336313975817347" fill="none" stroke="rgb(63,63,63)" stroke-width="0.1"/>
  <path d="M 53.013711355975374,2.9336313975817347 L 53.108254405940215,2.4423899581922797" fill="none" stroke="rgb(63,63,63)" stroke-width="0.1"/>
  <path d="M 53.108254405940215,2.4423899581922797 L 53.2003939990218,1.9506920474210574" fill="none" stroke="rgb(63,63,63)" stroke-width="0.1"/>
  <path d="M 53.2003939990218,1.9506920474210574 L 53.29012793167044,1.4585494243924586" fill="none" stroke="rgb(63,63,63)" stroke-width="0.1"/>
  <path d="M 53.29012793167044,1.4585494243924586 L 53.37745405786791,0.9659738588662776" fill="none" stroke="rgb(63,63,63)" stroke-width="0.1"/>
  <path d="M 53.37745405786791,0.9659738588662776 L 53.46237028918017,0.4729771309565649" fill="none" stroke="rgb(63,63,63)" stroke-width="0.1"/>
  <path d="M 22.608148999999912,21.538079999999923 A 12.0,12.0 0.0 0,0 45.49814900000001,26.204079999999976" fill="none" instance-id="-1" semantic-id="1" stroke="rgb(63,63,63)" stroke-width="0.1"/>
  <path d="M 22.608148999999912,21.538079999999923 L 22.59814899999992,21.302079999999933" fill="none" instance-id="-1" semantic-id="1" stroke="rgb(63,63,63)" stroke-width="0.1"/>
  <path d="M 22.59814899999992,21.302079999999933 L 15.598148999999921,21.511079999999993" fill="none" instance-id="-1" semantic-id="1" stroke="rgb(63,63,63)" stroke-width="0.1"/>
  <path d="M 15.598148999999921,21.511079999999993 L 15.608148999999912,21.74807999999996" fill="none" instance-id="-1" semantic-id="1" stroke="rgb(63,63,63)" stroke-width="0.1"/>
  <path d="M 15.608148999999912,21.74807999999996 A 19.0,19.0 0.0 0,0 20.758149000000003,34.197079999999914" fill="none" instance-id="-1" semantic-id="1" stroke="rgb(63,63,63)" stroke-width="0.1"/>
  <path d="M 20.758149000000003,34.197079999999914 L 20.918148999999858,34.09007999999994" fill="none" stroke="rgb(63,63,63)" stroke-width="0.1"/>
  <path d="M 20.918148999999858,34.09007999999994 L 21.478148999999803,34.920079999999984" fill="none" instance-id="-1" semantic-id="1" stroke="rgb(63,63,63)" stroke-width="0.1"/>
  <path d="M 21.478148999999803,34.920079999999984 A 19.0,19.0 0.0 0,0 51.84814899999992,29.136079999999993" fill="none" instance-id="-1" semantic-id="1" stroke="rgb(63,63,63)" stroke-width="0.1"/>
  <path d="M 22.59814899999992,21.302079999999933 L 15.598148999999921,21.511079999999993" fill="none" instance-id="-1" semantic-id="1" stroke="rgb(63,63,63)" stroke-width="0.1"/>
  <path d="M 15.598148999999921,21.511079999999993 L 15.608148999999912,21.74807999999996" fill="none" instance-id="-1" semantic-id="1" stroke="rgb(63,63,63)" stroke-width="0.1"/>
  <path d="M 15.608148999999912,21.74807999999996 L 22.608148999999912,21.538079999999923" fill="none" instance-id="-1" semantic-id="1" stroke="rgb(63,63,63)" stroke-width="0.1"/>
  <path d="M 22.608148999999912,21.538079999999923 L 22.59814899999992,21.302079999999933" fill="none" instance-id="-1" semantic-id="1" stroke="rgb(63,63,63)" stroke-width="0.1"/>
  <path d="M 15.238148999999794,9.541079999999965 L 15.298148999999967,11.516079999999988" fill="none" instance-id="-1" semantic-id="1" stroke="rgb(63,63,63)" stroke-width="0.1"/>
  <path d="M 15.298148999999967,11.516079999999988 L 22.298148999999967,11.306079999999952" fill="none" instance-id="-1" semantic-id="1" stroke="rgb(63,63,63)" stroke-width="0.1"/>
  <path d="M 22.298148999999967,11.306079999999952 L 22.238148999999794,9.331079999999929" fill="none" instance-id="-1" semantic-id="1" stroke="rgb(63,63,63)" stroke-width="0.1"/>
  <path d="M 22.238148999999794,9.331079999999929 L 15.238148999999794,9.541079999999965" fill="none" instance-id="-1" semantic-id="1" stroke="rgb(63,63,63)" stroke-width="0.1"/>
  <path d="M 22.018148999999994,1.8360799999999244 L 15.018148999999994,2.046079999999961" fill="none" instance-id="-1" semantic-id="1" stroke="rgb(63,63,63)" stroke-width="0.1"/>
  <path d="M 15.018148999999994,2.046079999999961 L 15.238148999999794,9.541079999999965" fill="none" instance-id="-1" semantic-id="1" stroke="rgb(63,63,63)" stroke-width="0.1"/>
  <path d="M 15.238148999999794,9.541079999999965 L 22.238148999999794,9.331079999999929" fill="none" instance-id="-1" semantic-id="1" stroke="rgb(63,63,63)" stroke-width="0.1"/>
  <path d="M 22.238148999999794,9.331079999999929 L 22.018148999999994,1.8360799999999244" fill="none" instance-id="-1" semantic-id="1" stroke="rgb(63,63,63)" stroke-width="0.1"/>
  <path d="M 15.018148999999994,2.046079999999961 L 15.298148999999967,11.516079999999988" fill="none" instance-id="-1" semantic-id="1" stroke="rgb(63,63,63)" stroke-width="0.1"/>
  <path d="M 15.298148999999967,11.516079999999988 L 22.298148999999967,11.306079999999952" fill="none" instance-id="-1" semantic-id="1" stroke="rgb(63,63,63)" stroke-width="0.1"/>
  <path d="M 22.298148999999967,11.306079999999952 L 22.018148999999994,1.8360799999999244" fill="none" instance-id="-1" semantic-id="1" stroke="rgb(63,63,63)" stroke-width="0.1"/>
  <path d="M 22.018148999999994,1.8360799999999244 L 15.018148999999994,2.046079999999961" fill="none" instance-id="-1" semantic-id="1" stroke="rgb(63,63,63)" stroke-width="0.1"/>
 </g>
 <g id="layerPUB_TEXT" inkscape:groupmode="layer" inkscape:label="PUB_TEXT">
  <text fill="rgb(0,0,0)" font-family="Noto Sans CJK SC" font-size="2" transform="rotate(-33.9506,96.3681489999999,52.57007999999996)" x="96.3681489999999" y="52.57007999999996">
   储藏
  </text>
  <text fill="rgb(0,0,0)" font-family="Noto Sans CJK SC" font-size="2" transform="rotate(-33.9506,34.35814899999991,26.25108)" x="34.35814899999991" y="26.25108">
   弱电
  </text>
  <text fill="rgb(0,0,0)" font-family="Noto Sans CJK SC" font-size="2" transform="rotate(-34.0,39.55814899999996,3.28607999999997)" x="39.55814899999996" y="3.28607999999997">
   XDT9
  </text>
 </g>
 <g id="layerWALL" inkscape:groupmode="layer" inkscape:label="WALL">
  <path d="M 4.618148999999903,47.47907999999995 L 0.0,40.62265613836587" fill="none" instance-id="-1" semantic-id="1" stroke="rgb(178,178,0)" stroke-width="0.1"/>
  <path d="M 5.158148999999867,44.70308 L 0.0,37.04086396755031" fill="none" instance-id="-1" semantic-id="1" stroke="rgb(178,178,0)" stroke-width="0.1"/>
  <path d="M 4.618148999999903,47.47907999999995 L 7.9281489999998485,45.246080000000006" fill="none" instance-id="-1" semantic-id="1" stroke="rgb(178,178,0)" stroke-width="0.1"/>
  <path d="M 7.9281489999998485,45.246080000000006 L 6.8181489999999485,43.586079999999924" fill="none" instance-id="-1" semantic-id="1" stroke="rgb(178,178,0)" stroke-width="0.1"/>
  <path d="M 6.8181489999999485,43.586079999999924 L 5.158148999999867,44.70308" fill="none" instance-id="-1" semantic-id="1" stroke="rgb(178,178,0)" stroke-width="0.1"/>
  <path d="M 20.758149000000003,34.197079999999914 L 19.258149000000003,35.20907999999997" fill="none" instance-id="-1" semantic-id="1" stroke="rgb(178,178,0)" stroke-width="0.1"/>
  <path d="M 19.258149000000003,35.20907999999997 L 20.378148999999894,36.86807999999996" fill="none" instance-id="-1" semantic-id="1" stroke="rgb(178,178,0)" stroke-width="0.1"/>
  <path d="M 20.378148999999894,36.86807999999996 L 22.038148999999976,35.749079999999935" fill="none" instance-id="-1" semantic-id="1" stroke="rgb(178,178,0)" stroke-width="0.1"/>
  <path d="M 85.83814899999993,66.05507999999998 L 37.278148999999985,98.7410799999999" fill="none" instance-id="-1" semantic-id="1" stroke="rgb(178,178,0)" stroke-width="0.1"/>
  <path d="M 84.71814899999981,64.39607999999998 L 32.278148999999985,99.70107999999993" fill="none" instance-id="-1" semantic-id="1" stroke="rgb(178,178,0)" stroke-width="0.1"/>
  <path d="M 68.82814899999994,32.79207999999994 L 66.93814899999984,32.11907999999994" fill="none" instance-id="-1" semantic-id="1" stroke="rgb(178,178,0)" stroke-width="0.1"/>
  <path d="M 71.9781489999998,17.99108000000001 L 73.8681489999999,18.66507999999999" fill="none" instance-id="-1" semantic-id="1" stroke="rgb(178,178,0)" stroke-width="0.1"/>
  <path d="M 77.768149,9.182079999999928 L 76.27814899999998,8.969079999999963" fill="none" instance-id="-1" semantic-id="1" stroke="rgb(178,178,0)" stroke-width="0.1"/>
  <path d="M 76.96814899999981,8.058080000000018 L 76.4781489999998,7.987079999999992" fill="none" instance-id="-1" semantic-id="1" stroke="rgb(178,178,0)" stroke-width="0.1"/>
  <path d="M 100.0,87.09019764475704 L 85.83814899999993,66.05507999999998" fill="none" instance-id="-1" semantic-id="1" stroke="rgb(178,178,0)" stroke-width="0.1"/>
  <path d="M 100.0,83.5126173597838 L 86.93814899999984,64.10907999999995" fill="none" instance-id="-1" semantic-id="1" stroke="rgb(178,178,0)" stroke-width="0.1"/>
  <path d="M 84.71814899999981,64.39607999999998 L 65.3681489999999,35.65307999999993" fill="none" instance-id="-1" semantic-id="1" stroke="rgb(178,178,0)" stroke-width="0.1"/>
  <path d="M 86.93814899999984,64.10907999999995 L 67.64814899999988,35.46708000000001" fill="none" instance-id="-1" semantic-id="1" stroke="rgb(178,178,0)" stroke-width="0.1"/>
  <path d="M 51.518148999999994,9.451079999999934 L 22.268148999999994,10.330079999999953" fill="none" instance-id="-1" semantic-id="1" stroke="rgb(178,178,0)" stroke-width="0.1"/>
  <path d="M 51.74814900000001,7.443080000000009 L 22.20814899999982,8.331079999999929" fill="none" instance-id="-1" semantic-id="1" stroke="rgb(178,178,0)" stroke-width="0.1"/>
  <path d="M 22.268148999999994,10.330079999999953 L 22.20814899999982,8.331079999999929" fill="none" instance-id="-1" semantic-id="1" stroke="rgb(178,178,0)" stroke-width="0.1"/>
  <path d="M 17.298148999999967,11.48007999999993 L 15.308148999999958,11.540079999999989" fill="none" instance-id="-1" semantic-id="1" stroke="rgb(178,178,0)" stroke-width="0.1"/>
  <path d="M 67.64814899999988,35.46708000000001 A 126.295,126.295 0.0 0,0 68.82814899999994,32.79207999999994" fill="none" instance-id="-1" semantic-id="1" stroke="rgb(178,178,0)" stroke-width="0.1"/>
  <path d="M 65.3681489999999,35.65307999999993 A 124.295,124.295 0.0 0,0 66.93814899999984,32.11907999999994" fill="none" instance-id="-1" semantic-id="1" stroke="rgb(178,178,0)" stroke-width="0.1"/>
  <path d="M 71.9781489999998,17.99108000000001 A 124.295,124.295 0.0 0,0 74.508149,7.6420799999999645" fill="none" instance-id="-1" semantic-id="1" stroke="rgb(178,178,0)" stroke-width="0.1"/>
  <path d="M 73.8681489999999,18.66507999999999 A 126.295,126.295 0.0 0,0 76.27814899999998,8.969079999999963" fill="none" instance-id="-1" semantic-id="1" stroke="rgb(178,178,0)" stroke-width="0.1"/>
  <path d="M 76.96814899999981,8.058080000000018 L 77.06477675591441,7.566893683891294" fill="none" instance-id="-1" semantic-id="1" stroke="rgb(178,178,0)" stroke-width="0.1"/>
  <path d="M 77.06477675591441,7.566893683891294 L 77.15946450509045,7.075329699753411" fill="none" instance-id="-1" semantic-id="1" stroke="rgb(178,178,0)" stroke-width="0.1"/>
  <path d="M 77.15946450509045,7.075329699753411 L 77.25221077157585,6.583395709874026" fill="none" instance-id="-1" semantic-id="1" stroke="rgb(178,178,0)" stroke-width="0.1"/>
  <path d="M 77.25221077157585,6.583395709874026 L 77.34301410968146,6.091099382308585" fill="none" instance-id="-1" semantic-id="1" stroke="rgb(178,178,0)" stroke-width="0.1"/>
  <path d="M 77.34301410968146,6.091099382308585 L 77.43187310400435,5.598448390760268" fill="none" instance-id="-1" semantic-id="1" stroke="rgb(178,178,0)" stroke-width="0.1"/>
  <path d="M 77.43187310400435,5.598448390760268 L 77.51878636944843,5.1054504144607336" fill="none" instance-id="-1" semantic-id="1" stroke="rgb(178,178,0)" stroke-width="0.1"/>
  <path d="M 77.51878636944843,5.1054504144607336 L 77.60375255124723,4.61211313805029" fill="none" instance-id="-1" semantic-id="1" stroke="rgb(178,178,0)" stroke-width="0.1"/>
  <path d="M 77.60375255124723,4.61211313805029 L 77.68677032498476,4.118444251457959" fill="none" instance-id="-1" semantic-id="1" stroke="rgb(178,178,0)" stroke-width="0.1"/>
  <path d="M 77.68677032498476,4.118444251457959 L 77.76783839661516,3.6244514497819864" fill="none" instance-id="-1" semantic-id="1" stroke="rgb(178,178,0)" stroke-width="0.1"/>
  <path d="M 77.76783839661516,3.6244514497819864 L 77.84695550248466,3.1301424331694534" fill="none" instance-id="-1" semantic-id="1" stroke="rgb(178,178,0)" stroke-width="0.1"/>
  <path d="M 77.84695550248466,3.1301424331694534 L 77.9241204093496,2.6355249066966735" fill="none" instance-id="-1" semantic-id="1" stroke="rgb(178,178,0)" stroke-width="0.1"/>
  <path d="M 77.9241204093496,2.6355249066966735 L 77.99933191439686,2.1406065802486864" fill="none" instance-id="-1" semantic-id="1" stroke="rgb(178,178,0)" stroke-width="0.1"/>
  <path d="M 77.99933191439686,2.1406065802486864 L 78.07258884526163,1.6453951683993182" fill="none" instance-id="-1" semantic-id="1" stroke="rgb(178,178,0)" stroke-width="0.1"/>
  <path d="M 78.07258884526163,1.6453951683993182 L 78.14389006004649,1.1498983902909004" fill="none" instance-id="-1" semantic-id="1" stroke="rgb(178,178,0)" stroke-width="0.1"/>
  <path d="M 78.14389006004649,1.1498983902909004 L 78.21323444733889,0.654123969514103" fill="none" instance-id="-1" semantic-id="1" stroke="rgb(178,178,0)" stroke-width="0.1"/>
  <path d="M 78.21323444733889,0.654123969514103 L 78.28062092622827,0.1580796339869721" fill="none" instance-id="-1" semantic-id="1" stroke="rgb(178,178,0)" stroke-width="0.1"/>
  <path d="M 77.768149,9.182079999999928 L 77.87137666220201,8.676129317964978" fill="none" instance-id="-1" semantic-id="1" stroke="rgb(178,178,0)" stroke-width="0.1"/>
  <path d="M 77.87137666220201,8.676129317964978 L 77.97255911994534,8.169765660955136" fill="none" instance-id="-1" semantic-id="1" stroke="rgb(178,178,0)" stroke-width="0.1"/>
  <path d="M 77.97255911994534,8.169765660955136 L 78.07169472124474,7.6629972962654165" fill="none" instance-id="-1" semantic-id="1" stroke="rgb(178,178,0)" stroke-width="0.1"/>
  <path d="M 78.07169472124474,7.6629972962654165 L 78.16878184753341,7.155832497798201" fill="none" instance-id="-1" semantic-id="1" stroke="rgb(178,178,0)" stroke-width="0.1"/>
  <path d="M 78.16878184753341,7.155832497798201 L 78.26381891369033,6.648279545928631" fill="none" instance-id="-1" semantic-id="1" stroke="rgb(178,178,0)" stroke-width="0.1"/>
  <path d="M 78.26381891369033,6.648279545928631 L 78.35680436806479,6.140346727368865" fill="none" instance-id="-1" semantic-id="1" stroke="rgb(178,178,0)" stroke-width="0.1"/>
  <path d="M 78.35680436806479,6.140346727368865 L 78.4477366925023,5.632042335033248" fill="none" instance-id="-1" semantic-id="1" stroke="rgb(178,178,0)" stroke-width="0.1"/>
  <path d="M 78.4477366925023,5.632042335033248 L 78.53661440236988,5.123374667902681" fill="none" instance-id="-1" semantic-id="1" stroke="rgb(178,178,0)" stroke-width="0.1"/>
  <path d="M 78.53661440236988,5.123374667902681 L 78.62343604657917,4.614352030889336" fill="none" instance-id="-1" semantic-id="1" stroke="rgb(178,178,0)" stroke-width="0.1"/>
  <path d="M 78.62343604657917,4.614352030889336 L 78.7082002076113,4.10498273470057" fill="none" instance-id="-1" semantic-id="1" stroke="rgb(178,178,0)" stroke-width="0.1"/>
  <path d="M 78.7082002076113,4.10498273470057 L 78.7909055015391,3.595275095703869" fill="none" instance-id="-1" semantic-id="1" stroke="rgb(178,178,0)" stroke-width="0.1"/>
  <path d="M 78.7909055015391,3.595275095703869 L 78.87155057805057,3.0852374357906456" fill="none" instance-id="-1" semantic-id="1" stroke="rgb(178,178,0)" stroke-width="0.1"/>
  <path d="M 78.87155057805057,3.0852374357906456 L 78.95013412047001,2.5748780822405024" fill="none" instance-id="-1" semantic-id="1" stroke="rgb(178,178,0)" stroke-width="0.1"/>
  <path d="M 78.95013412047001,2.5748780822405024 L 79.02665484578029,2.064205367585373" fill="none" instance-id="-1" semantic-id="1" stroke="rgb(178,178,0)" stroke-width="0.1"/>
  <path d="M 79.02665484578029,2.064205367585373 L 79.10111150464309,1.5532276294732128" fill="none" instance-id="-1" semantic-id="1" stroke="rgb(178,178,0)" stroke-width="0.1"/>
  <path d="M 79.10111150464309,1.5532276294732128 L 79.17350288142029,1.0419532105320286" fill="none" instance-id="-1" semantic-id="1" stroke="rgb(178,178,0)" stroke-width="0.1"/>
  <path d="M 79.17350288142029,1.0419532105320286 L 79.24382779419238,0.5303904582337964" fill="none" instance-id="-1" semantic-id="1" stroke="rgb(178,178,0)" stroke-width="0.1"/>
  <path d="M 79.24382779419238,0.5303904582337964 L 79.31208509477938,0.018547724758150252" fill="none" instance-id="-1" semantic-id="1" stroke="rgb(178,178,0)" stroke-width="0.1"/>
  <path d="M 74.508149,7.6420799999999645 L 74.60857109709627,7.131270346993233" fill="none" instance-id="-1" semantic-id="1" stroke="rgb(178,178,0)" stroke-width="0.1"/>
  <path d="M 74.60857109709627,7.131270346993233 L 74.70685288367372,6.620044575325551" fill="none" instance-id="-1" semantic-id="1" stroke="rgb(178,178,0)" stroke-width="0.1"/>
  <path d="M 74.70685288367372,6.620044575325551 L 74.80299263567076,6.108411652932887" fill="none" instance-id="-1" semantic-id="1" stroke="rgb(178,178,0)" stroke-width="0.1"/>
  <path d="M 74.80299263567076,6.108411652932887 L 74.89698866660092,5.5963805548934715" fill="none" instance-id="-1" semantic-id="1" stroke="rgb(178,178,0)" stroke-width="0.1"/>
  <path d="M 74.89698866660092,5.5963805548934715 L 74.98883932758395,5.083960263270342" fill="none" instance-id="-1" semantic-id="1" stroke="rgb(178,178,0)" stroke-width="0.1"/>
  <path d="M 74.98883932758395,5.083960263270342 L 75.07854300737267,4.571159766953883" fill="none" instance-id="-1" semantic-id="1" stroke="rgb(178,178,0)" stroke-width="0.1"/>
  <path d="M 75.07854300737267,4.571159766953883 L 75.16609813238301,4.057988061503806" fill="none" instance-id="-1" semantic-id="1" stroke="rgb(178,178,0)" stroke-width="0.1"/>
  <path d="M 75.16609813238301,4.057988061503806 L 75.25150316672034,3.5444541489918038" fill="none" instance-id="-1" semantic-id="1" stroke="rgb(178,178,0)" stroke-width="0.1"/>
  <path d="M 75.25150316672034,3.5444541489918038 L 75.33475661220768,3.030567037843184" fill="none" instance-id="-1" semantic-id="1" stroke="rgb(178,178,0)" stroke-width="0.1"/>
  <path d="M 75.33475661220768,3.030567037843184 L 75.41585700841074,2.5163357426794164" fill="none" instance-id="-1" semantic-id="1" stroke="rgb(178,178,0)" stroke-width="0.1"/>
  <path d="M 75.41585700841074,2.5163357426794164 L 75.49480293266424,2.0017692841594226" fill="none" instance-id="-1" semantic-id="1" stroke="rgb(178,178,0)" stroke-width="0.1"/>
  <path d="M 75.49480293266424,2.0017692841594226 L 75.57159300009653,1.4868766888214395" fill="none" instance-id="-1" semantic-id="1" stroke="rgb(178,178,0)" stroke-width="0.1"/>
  <path d="M 75.57159300009653,1.4868766888214395 L 75.64622586365431,0.9716669889251079" fill="none" instance-id="-1" semantic-id="1" stroke="rgb(178,178,0)" stroke-width="0.1"/>
  <path d="M 75.64622586365431,0.9716669889251079 L 75.7187002141261,0.45614922229253807" fill="none" instance-id="-1" semantic-id="1" stroke="rgb(178,178,0)" stroke-width="0.1"/>
  <path d="M 76.4781489999998,7.987079999999992 L 76.5754518594913,7.492979064022052" fill="none" instance-id="-1" semantic-id="1" stroke="rgb(178,178,0)" stroke-width="0.1"/>
  <path d="M 76.5754518594913,7.492979064022052 L 76.67078376344807,6.9984940698235505" fill="none" instance-id="-1" semantic-id="1" stroke="rgb(178,178,0)" stroke-width="0.1"/>
  <path d="M 76.67078376344807,6.9984940698235505 L 76.76414319614196,6.5036328794614064" fill="none" instance-id="-1" semantic-id="1" stroke="rgb(178,178,0)" stroke-width="0.1"/>
  <path d="M 76.76414319614196,6.5036328794614064 L 76.85552867320598,6.008403360973944" fill="none" instance-id="-1" semantic-id="1" stroke="rgb(178,178,0)" stroke-width="0.1"/>
  <path d="M 76.85552867320598,6.008403360973944 L 76.944938741658,5.512813388255722" fill="none" instance-id="-1" semantic-id="1" stroke="rgb(178,178,0)" stroke-width="0.1"/>
  <path d="M 76.944938741658,5.512813388255722 L 77.03237197992416,5.016870840932029" fill="none" instance-id="-1" semantic-id="1" stroke="rgb(178,178,0)" stroke-width="0.1"/>
  <path d="M 77.03237197992416,5.016870840932029 L 77.11782699786067,4.520583604234389" fill="none" instance-id="-1" semantic-id="1" stroke="rgb(178,178,0)" stroke-width="0.1"/>
  <path d="M 77.11782699786067,4.520583604234389 L 77.20130243677704,4.023959568874375" fill="none" instance-id="-1" semantic-id="1" stroke="rgb(178,178,0)" stroke-width="0.1"/>
  <path d="M 77.20130243677704,4.023959568874375 L 77.28279696945651,3.527006630918663" fill="none" instance-id="-1" semantic-id="1" stroke="rgb(178,178,0)" stroke-width="0.1"/>
  <path d="M 77.28279696945651,3.527006630918663 L 77.36230930017814,3.029732691663071" fill="none" instance-id="-1" semantic-id="1" stroke="rgb(178,178,0)" stroke-width="0.1"/>
  <path d="M 77.36230930017814,3.029732691663071 L 77.43983816473656,2.5321456575073853" fill="none" instance-id="-1" semantic-id="1" stroke="rgb(178,178,0)" stroke-width="0.1"/>
  <path d="M 77.43983816473656,2.5321456575073853 L 77.51538233046313,2.034253439829513" fill="none" instance-id="-1" semantic-id="1" stroke="rgb(178,178,0)" stroke-width="0.1"/>
  <path d="M 77.51538233046313,2.034253439829513 L 77.5889405962439,1.5360639548592872" fill="none" instance-id="-1" semantic-id="1" stroke="rgb(178,178,0)" stroke-width="0.1"/>
  <path d="M 77.5889405962439,1.5360639548592872 L 77.66051179254077,1.0375851235534128" fill="none" instance-id="-1" semantic-id="1" stroke="rgb(178,178,0)" stroke-width="0.1"/>
  <path d="M 77.66051179254077,1.0375851235534128 L 77.7300947814083,0.5388248714684778" fill="none" instance-id="-1" semantic-id="1" stroke="rgb(178,178,0)" stroke-width="0.1"/>
  <path d="M 77.7300947814083,0.5388248714684778 L 77.79768845651279,0.03979112863601131" fill="none" instance-id="-1" semantic-id="1" stroke="rgb(178,178,0)" stroke-width="0.1"/>
 </g>
 <g id="layerWINDOW" inkscape:groupmode="layer" inkscape:label="WINDOW">
  <path d="M 24.08814899999993,2.2050799999999526 L 23.358148999999912,2.227080000000001" fill="none" stroke="rgb(0,178,0)" stroke-width="0.1"/>
  <path d="M 23.28959181976279,0.0 L 23.358148999999912,2.227080000000001" fill="none" stroke="rgb(0,178,0)" stroke-width="0.1"/>
  <path d="M 24.020269055410154,0.0 L 24.08814899999993,2.2050799999999526" fill="none" stroke="rgb(0,178,0)" stroke-width="0.1"/>
  <path d="M 21.95310119331998,0.0 L 22.008149000000003,1.8340799999999717" fill="none" stroke="rgb(0,178,0)" stroke-width="0.1"/>
  <path d="M 51.69814899999983,7.445079999999962 L 22.20814899999982,8.331079999999929" fill="none" stroke="rgb(0,178,0)" stroke-width="0.1"/>
  <path d="M 22.20814899999982,8.331079999999929 L 21.958101193319862,0.0" fill="none" stroke="rgb(0,178,0)" stroke-width="0.1"/>
  <path d="M 51.474693466676854,0.0 L 51.69814899999983,7.445079999999962" fill="none" stroke="rgb(0,178,0)" stroke-width="0.1"/>
 </g>
 <g id="layers-消火栓" inkscape:groupmode="layer" inkscape:label="s-消火栓">
  <path d="M 77.88814899999988,1.3200799999999617 L 74.53814899999998,7.917079999999942" fill="none" stroke="rgb(178,88,0)" stroke-width="0.1"/>
  <path d="M 75.518149,0.9860800000000154 L 74.53814899999998,7.917079999999942" fill="none" stroke="rgb(178,88,0)" stroke-width="0.1"/>
  <path d="M 74.53814899999998,7.917079999999942 L 76.91814899999986,8.252079999999978" fill="none" stroke="rgb(178,88,0)" stroke-width="0.1"/>
  <path d="M 76.91814899999986,8.252079999999978 L 77.88814899999988,1.3200799999999617" fill="none" stroke="rgb(178,88,0)" stroke-width="0.1"/>
  <path d="M 77.88814899999988,1.3200799999999617 L 75.518149,0.9860800000000154" fill="none" stroke="rgb(178,88,0)" stroke-width="0.1"/>
  <path d="M 76.91814899999986,8.252079999999978 L 77.88814899999988,1.3200799999999617" fill="none" stroke="rgb(178,88,0)" stroke-width="0.1"/>
  <path d="M 77.88814899999988,1.3200799999999617 L 74.53814899999998,7.917079999999942" fill="none" stroke="rgb(178,88,0)" stroke-width="0.1"/>
  <path d="M 74.53814899999998,7.917079999999942 L 76.91814899999986,8.252079999999978" fill="none" stroke="rgb(178,88,0)" stroke-width="0.1"/>
 </g>
</svg>