<?xml version="1.0" encoding="utf-8"?>
<svg style="background-color: #000;" version="1.1" viewBox="0 0 100.0 100.0" xmlns="http://www.w3.org/2000/svg" xmlns:inkscape="http://www.inkscape.org/namespaces/inkscape">
 <g id="layer0-结构边线" inkscape:groupmode="layer" inkscape:label="0-结构边线">
  <path d="M 40.70614899999998,41.66908000000001 L 47.34314900000004,37.20107999999993" fill="none" stroke="rgb(178,0,178)" stroke-width="0.1"/>
  <path d="M 47.34314900000004,37.20107999999993 L 42.875148999999965,30.565079999999966" fill="none" stroke="rgb(178,0,178)" stroke-width="0.1"/>
  <path d="M 36.239149,35.03207999999995 L 42.875148999999965,30.565079999999966" fill="none" stroke="rgb(178,0,178)" stroke-width="0.1"/>
  <path d="M 40.70614899999998,41.66908000000001 L 36.239149,35.03207999999995" fill="none" stroke="rgb(178,0,178)" stroke-width="0.1"/>
  <path d="M 70.864149,86.46307999999999 L 77.50014899999996,81.99507999999992" fill="none" stroke="rgb(178,0,178)" stroke-width="0.1"/>
  <path d="M 77.50014899999996,81.99507999999992 L 73.03314899999998,75.35907999999995" fill="none" stroke="rgb(178,0,178)" stroke-width="0.1"/>
  <path d="M 66.39614900000004,79.82607999999993 L 73.03314899999998,75.35907999999995" fill="none" stroke="rgb(178,0,178)" stroke-width="0.1"/>
  <path d="M 70.864149,86.46307999999999 L 66.39614900000004,79.82607999999993" fill="none" stroke="rgb(178,0,178)" stroke-width="0.1"/>
 </g>
 <g id="layerA-留洞" inkscape:groupmode="layer" inkscape:label="A-留洞">
  <path d="M 45.864149,77.97807999999998 L 53.12414899999999,88.76207999999997" fill="none" stroke="rgb(0,178,178)" stroke-width="0.1"/>
  <path d="M 53.12414899999999,88.76207999999997 L 66.39614900000004,79.82607999999993" fill="none" stroke="rgb(0,178,178)" stroke-width="0.1"/>
  <path d="M 66.39614900000004,79.82607999999993 L 57.789149000000066,74.81707999999992" fill="none" stroke="rgb(0,178,178)" stroke-width="0.1"/>
  <path d="M 57.789149000000066,74.81707999999992 L 45.864149,77.97807999999998" fill="none" stroke="rgb(0,178,178)" stroke-width="0.1"/>
  <path d="M 45.864149,77.97807999999998 L 59.136149000000046,69.04307999999992" fill="none" stroke="rgb(0,178,178)" stroke-width="0.1"/>
  <path d="M 59.136149000000046,69.04307999999992 L 66.39614900000004,79.82607999999993" fill="none" stroke="rgb(0,178,178)" stroke-width="0.1"/>
 </g>
 <g id="layerA-留洞-up" inkscape:groupmode="layer" inkscape:label="A-留洞-up">
  <path d="M 23.39514900000006,15.955079999999953 L 59.136149000000046,69.04307999999992" fill="none" stroke="rgb(178,0,178)" stroke-width="0.1"/>
  <path d="M 16.077148999999963,53.430079999999975 L 45.67514900000003,97.39407999999992" fill="none" stroke="rgb(178,0,178)" stroke-width="0.1"/>
  <path d="M 0.9981490000000122,31.033079999999927 L 16.077148999999963,53.430079999999975" fill="none" stroke="rgb(178,0,178)" stroke-width="0.1"/>
  <path d="M 16.077148999999963,53.430079999999975 L 38.473149000000035,38.35208" fill="none" stroke="rgb(178,0,178)" stroke-width="0.1"/>
  <path d="M 38.473149000000035,38.35208 L 22.048148999999967,21.729079999999954" fill="none" stroke="rgb(178,0,178)" stroke-width="0.1"/>
  <path d="M 22.048148999999967,21.729079999999954 L 0.9981490000000122,31.033079999999927" fill="none" stroke="rgb(178,0,178)" stroke-width="0.1"/>
  <path d="M 0.9981490000000122,31.033079999999927 L 23.39514900000006,15.955079999999953" fill="none" stroke="rgb(178,0,178)" stroke-width="0.1"/>
  <path d="M 23.39514900000006,15.955079999999953 L 38.473149000000035,38.35208" fill="none" stroke="rgb(178,0,178)" stroke-width="0.1"/>
 </g>
 <g id="layerA-车位" inkscape:groupmode="layer" inkscape:label="A-车位">
  <path d="M 0.0,68.9451512309198 L 20.907844343462898,100.0" fill="none" instance-id="-1" semantic-id="35" stroke="rgb(0,0,178)" stroke-width="0.1"/>
  <path d="M 15.841392495701939,100.0 L 17.254148999999984,99.04908" fill="none" instance-id="-1" semantic-id="35" stroke="rgb(0,0,178)" stroke-width="0.1"/>
  <path d="M 14.94532728080219,100.0 L 16.97414900000001,98.63407999999993" fill="none" instance-id="-1" semantic-id="35" stroke="rgb(0,0,178)" stroke-width="0.1"/>
  <path d="M 17.6310593724927,100.0 L 17.812148999999977,99.87807999999995" fill="none" instance-id="-1" semantic-id="35" stroke="rgb(0,0,178)" stroke-width="0.1"/>
  <path d="M 17.812148999999977,99.87807999999995 L 16.97414900000001,98.63407999999993" fill="none" instance-id="-1" semantic-id="35" stroke="rgb(0,0,178)" stroke-width="0.1"/>
  <path d="M 15.501149000000055,48.99407999999994 L 45.10014899999999,92.95907999999997" fill="none" instance-id="-1" semantic-id="35" stroke="rgb(0,0,178)" stroke-width="0.1"/>
  <path d="M 45.10014899999999,92.95907999999997 L 34.64146987741549,100.0" fill="none" instance-id="-1" semantic-id="35" stroke="rgb(0,0,178)" stroke-width="0.1"/>
  <path d="M 20.907844343462898,100.0 L 0.0,68.9451512309198" fill="none" instance-id="-1" semantic-id="35" stroke="rgb(0,0,178)" stroke-width="0.1"/>
  <path d="M 21.401149000000032,96.25608 L 25.549149000000057,93.46407999999997" fill="none" instance-id="-1" semantic-id="35" stroke="rgb(0,0,178)" stroke-width="0.1"/>
  <path d="M 33.015149000000065,88.43808000000001 L 37.162149,85.64508000000001" fill="none" instance-id="-1" semantic-id="35" stroke="rgb(0,0,178)" stroke-width="0.1"/>
  <path d="M 21.122149000000036,95.84107999999992 L 25.27014900000006,93.04908" fill="none" instance-id="-1" semantic-id="35" stroke="rgb(0,0,178)" stroke-width="0.1"/>
  <path d="M 32.73514899999998,88.02307999999994 L 36.883149,85.23007999999993" fill="none" instance-id="-1" semantic-id="35" stroke="rgb(0,0,178)" stroke-width="0.1"/>
  <path d="M 21.960149,97.08607999999992 L 26.10714900000005,94.29307999999992" fill="none" instance-id="-1" semantic-id="35" stroke="rgb(0,0,178)" stroke-width="0.1"/>
  <path d="M 33.57314900000006,89.26707999999996 L 37.72114899999997,86.47507999999993" fill="none" instance-id="-1" semantic-id="35" stroke="rgb(0,0,178)" stroke-width="0.1"/>
  <path d="M 21.960149,97.08607999999992 L 21.122149000000036,95.84107999999992" fill="none" instance-id="-1" semantic-id="35" stroke="rgb(0,0,178)" stroke-width="0.1"/>
  <path d="M 37.72114899999997,86.47507999999993 L 36.883149,85.23007999999993" fill="none" instance-id="-1" semantic-id="35" stroke="rgb(0,0,178)" stroke-width="0.1"/>
  <path d="M 25.27014900000006,93.04908 L 26.10714900000005,94.29307999999992" fill="none" instance-id="-1" semantic-id="35" stroke="rgb(0,0,178)" stroke-width="0.1"/>
  <path d="M 32.73514899999998,88.02307999999994 L 33.57314900000006,89.26707999999996" fill="none" instance-id="-1" semantic-id="35" stroke="rgb(0,0,178)" stroke-width="0.1"/>
  <path d="M 65.27214900000001,15.486080000000015 L 94.87114900000006,59.45007999999996" fill="none" instance-id="-1" semantic-id="35" stroke="rgb(0,0,178)" stroke-width="0.1"/>
  <path d="M 94.87114900000006,59.45007999999996 L 74.96314900000004,72.85407999999995" fill="none" instance-id="-1" semantic-id="35" stroke="rgb(0,0,178)" stroke-width="0.1"/>
  <path d="M 74.96314900000004,72.85407999999995 L 45.36314900000002,28.88907999999992" fill="none" instance-id="-1" semantic-id="35" stroke="rgb(0,0,178)" stroke-width="0.1"/>
  <path d="M 71.17214899999999,62.74807999999996 L 75.32014900000001,59.95507999999995" fill="none" instance-id="-1" semantic-id="35" stroke="rgb(0,0,178)" stroke-width="0.1"/>
  <path d="M 82.78614900000002,54.92908 L 86.93314900000007,52.13607999999999" fill="none" instance-id="-1" semantic-id="35" stroke="rgb(0,0,178)" stroke-width="0.1"/>
  <path d="M 70.893149,62.333079999999995 L 75.04114900000002,59.54007999999999" fill="none" instance-id="-1" semantic-id="35" stroke="rgb(0,0,178)" stroke-width="0.1"/>
  <path d="M 82.50614900000005,54.51407999999992 L 86.65414899999996,51.722080000000005" fill="none" instance-id="-1" semantic-id="35" stroke="rgb(0,0,178)" stroke-width="0.1"/>
  <path d="M 71.73114900000007,63.577080000000024 L 75.87914899999998,60.785079999999994" fill="none" instance-id="-1" semantic-id="35" stroke="rgb(0,0,178)" stroke-width="0.1"/>
  <path d="M 83.34414900000002,55.75807999999995 L 87.49214900000004,52.96607999999992" fill="none" instance-id="-1" semantic-id="35" stroke="rgb(0,0,178)" stroke-width="0.1"/>
  <path d="M 71.73114900000007,63.577080000000024 L 70.893149,62.333079999999995" fill="none" instance-id="-1" semantic-id="35" stroke="rgb(0,0,178)" stroke-width="0.1"/>
  <path d="M 87.49214900000004,52.96607999999992 L 86.65414899999996,51.722080000000005" fill="none" instance-id="-1" semantic-id="35" stroke="rgb(0,0,178)" stroke-width="0.1"/>
  <path d="M 75.04114900000002,59.54007999999999 L 75.87914899999998,60.785079999999994" fill="none" instance-id="-1" semantic-id="35" stroke="rgb(0,0,178)" stroke-width="0.1"/>
  <path d="M 82.50614900000005,54.51407999999992 L 83.34414900000002,55.75807999999995" fill="none" instance-id="-1" semantic-id="35" stroke="rgb(0,0,178)" stroke-width="0.1"/>
  <path d="M 85.18014900000003,2.082080000000019 L 100.0,24.09406477077698" fill="none" instance-id="-1" semantic-id="35" stroke="rgb(0,0,178)" stroke-width="0.1"/>
  <path d="M 100.0,55.99727021784122 L 94.87114900000006,59.45007999999996" fill="none" instance-id="-1" semantic-id="35" stroke="rgb(0,0,178)" stroke-width="0.1"/>
  <path d="M 94.87114900000006,59.45007999999996 L 65.27214900000001,15.486080000000015" fill="none" instance-id="-1" semantic-id="35" stroke="rgb(0,0,178)" stroke-width="0.1"/>
  <path d="M 91.08114899999998,49.34407999999996 L 95.229149,46.55207999999993" fill="none" instance-id="-1" semantic-id="35" stroke="rgb(0,0,178)" stroke-width="0.1"/>
  <path d="M 90.80214899999999,48.92908 L 94.94914900000003,46.13707999999997" fill="none" instance-id="-1" semantic-id="35" stroke="rgb(0,0,178)" stroke-width="0.1"/>
  <path d="M 91.63914899999997,50.174080000000004 L 95.787149,47.38108" fill="none" instance-id="-1" semantic-id="35" stroke="rgb(0,0,178)" stroke-width="0.1"/>
  <path d="M 91.63914899999997,50.174080000000004 L 90.80214899999999,48.92908" fill="none" instance-id="-1" semantic-id="35" stroke="rgb(0,0,178)" stroke-width="0.1"/>
  <path d="M 94.94914900000003,46.13707999999997 L 95.787149,47.38108" fill="none" instance-id="-1" semantic-id="35" stroke="rgb(0,0,178)" stroke-width="0.1"/>
  <path d="M 100.0,24.09406477077698 L 85.18014900000003,2.082080000000019" fill="none" instance-id="-1" semantic-id="35" stroke="rgb(0,0,178)" stroke-width="0.1"/>
 </g>
 <g id="layerA-车位-lx" inkscape:groupmode="layer" inkscape:label="A-车位-lx">
  <path d="M 0.0,3.6769733727358016 L 5.461468581040549,0.0" fill="none" stroke="rgb(0,178,0)" stroke-width="0.1"/>
 </g>
 <g id="layerA-车位-text" inkscape:groupmode="layer" inkscape:label="A-车位-text">
  <text fill="rgb(178,88,0)" font-family="Noto Sans CJK SC" font-size="2" transform="rotate(-0.0,78.49114900000006,29.863079999999968)" x="78.49114900000006" y="29.863079999999968">
   A-485
  </text>
  <text fill="rgb(178,88,0)" font-family="Noto Sans CJK SC" font-size="2" transform="rotate(-0.0,58.92414900000006,43.92808000000002)" x="58.92414900000006" y="43.92808000000002">
   A-484
  </text>
  <text fill="rgb(178,88,0)" font-family="Noto Sans CJK SC" font-size="2" transform="rotate(-0.0,11.012149000000022,84.32607999999993)" x="11.012149000000022" y="84.32607999999993">
   A-483
  </text>
 </g>
 <g id="layerA-车位-充电桩" inkscape:groupmode="layer" inkscape:label="A-车位-充电桩">
  <path d="M 13.38414899999998,64.04908 L 13.38414899999998,68.84907999999996" fill="none" stroke="rgb(0,178,178)" stroke-width="0.1"/>
  <path d="M 13.38414899999998,64.04908 L 14.584149000000025,64.04908" fill="none" stroke="rgb(0,178,178)" stroke-width="0.1"/>
  <path d="M 13.38414899999998,68.84907999999996 L 14.584149000000025,68.84907999999996" fill="none" stroke="rgb(0,178,178)" stroke-width="0.1"/>
  <path d="M 16.957149000000072,66.08907999999997 L 19.012149000000022,66.08907999999997" fill="none" stroke="rgb(0,178,178)" stroke-width="0.1"/>
  <path d="M 16.957149000000072,66.80908 L 19.012149000000022,66.80908" fill="none" stroke="rgb(0,178,178)" stroke-width="0.1"/>
  <path d="M 14.584149000000025,68.84907999999996 A 2.4,2.4 0.0 1,0 14.584149000000025,64.04908" fill="none" stroke="rgb(0,178,178)" stroke-width="0.1"/>
  <path d="M 11.584149000000025,64.88907999999992 A 0.3600000000000136,0.3600000000000136 0.0 1,0 11.584149000000025,65.60907999999995" fill="none" stroke="rgb(0,178,178)" stroke-width="0.1"/>
  <path d="M 11.584149000000025,67.28908000000001 A 0.36,0.36 0.0 1,0 11.584149000000025,68.00907999999993" fill="none" stroke="rgb(0,178,178)" stroke-width="0.1"/>
  <path d="M 13.38414899999998,65.60907999999995 L 11.584149000000025,65.60907999999995" fill="none" stroke="rgb(0,178,178)" stroke-width="0.1"/>
  <path d="M 13.38414899999998,64.88907999999992 L 11.584149000000025,64.88907999999992" fill="none" stroke="rgb(0,178,178)" stroke-width="0.1"/>
  <path d="M 13.38414899999998,67.28908000000001 L 11.584149000000025,67.28908000000001" fill="none" stroke="rgb(0,178,178)" stroke-width="0.1"/>
  <path d="M 13.38414899999998,68.00907999999993 L 11.584149000000025,68.00907999999993" fill="none" stroke="rgb(0,178,178)" stroke-width="0.1"/>
  <path d="M 19.984149000000002,66.44907999999998 A 6.0,6.0 0.0 1,0 7.984149000000002,66.44907999999998" fill="none" stroke="rgb(0,178,178)" stroke-width="0.1"/>
  <path d="M 7.984149000000002,66.44907999999998 A 6.0,6.0 0.0 1,0 19.984149000000002,66.44907999999998" fill="none" stroke="rgb(0,178,178)" stroke-width="0.1"/>
  <path d="M 19.024148999999966,66.44907999999998 A 5.04,5.04 0.0 1,0 8.944149000000039,66.44907999999998" fill="none" stroke="rgb(0,178,178)" stroke-width="0.1"/>
  <path d="M 8.944149000000039,66.44907999999998 A 5.04,5.04 0.0 1,0 19.024148999999966,66.44907999999998" fill="none" stroke="rgb(0,178,178)" stroke-width="0.1"/>
  <path d="M 14.584149000000025,68.84907999999996 L 13.38414899999998,68.84907999999996" fill="none" stroke="rgb(0,178,178)" stroke-width="0.1"/>
  <path d="M 13.38414899999998,68.84907999999996 L 13.38414899999998,68.00907999999993" fill="none" stroke="rgb(0,178,178)" stroke-width="0.1"/>
  <path d="M 13.38414899999998,68.00907999999993 L 11.584149000000025,68.00907999999993" fill="none" stroke="rgb(0,178,178)" stroke-width="0.1"/>
  <path d="M 11.584149000000025,67.28908000000001 A 0.36,0.36 0.0 1,0 11.584149000000025,68.00907999999993" fill="none" stroke="rgb(0,178,178)" stroke-width="0.1"/>
  <path d="M 11.584149000000025,67.28908000000001 L 13.38414899999998,67.28908000000001" fill="none" stroke="rgb(0,178,178)" stroke-width="0.1"/>
  <path d="M 13.38414899999998,67.28908000000001 L 13.38414899999998,65.60907999999995" fill="none" stroke="rgb(0,178,178)" stroke-width="0.1"/>
  <path d="M 13.38414899999998,65.60907999999995 L 11.584149000000025,65.60907999999995" fill="none" stroke="rgb(0,178,178)" stroke-width="0.1"/>
  <path d="M 11.584149000000025,64.88907999999992 A 0.3600000000000136,0.3600000000000136 0.0 1,0 11.584149000000025,65.60907999999995" fill="none" stroke="rgb(0,178,178)" stroke-width="0.1"/>
  <path d="M 11.584149000000025,64.88907999999992 L 13.38414899999998,64.88907999999992" fill="none" stroke="rgb(0,178,178)" stroke-width="0.1"/>
  <path d="M 13.38414899999998,64.88907999999992 L 13.38414899999998,64.04908" fill="none" stroke="rgb(0,178,178)" stroke-width="0.1"/>
  <path d="M 13.38414899999998,64.04908 L 14.584149000000025,64.04908" fill="none" stroke="rgb(0,178,178)" stroke-width="0.1"/>
  <path d="M 14.584149000000025,68.84907999999996 A 2.4,2.4 0.0 1,0 14.584149000000025,64.04908" fill="none" stroke="rgb(0,178,178)" stroke-width="0.1"/>
  <path d="M 19.012149000000022,66.08907999999997 L 16.957149000000072,66.08907999999997" fill="none" stroke="rgb(0,178,178)" stroke-width="0.1"/>
  <path d="M 16.957149000000072,66.80908 A 2.4,2.4 0.0 0,0 16.957149000000072,66.08907999999997" fill="none" stroke="rgb(0,178,178)" stroke-width="0.1"/>
  <path d="M 16.957149000000072,66.80908 L 19.012149000000022,66.80908" fill="none" stroke="rgb(0,178,178)" stroke-width="0.1"/>
  <path d="M 19.012149000000022,66.80908 A 5.04,5.04 0.0 0,0 19.024148999999966,66.44907999999998" fill="none" stroke="rgb(0,178,178)" stroke-width="0.1"/>
  <path d="M 19.024148999999966,66.44907999999998 A 5.04,5.04 0.0 0,0 19.012149000000022,66.08907999999997" fill="none" stroke="rgb(0,178,178)" stroke-width="0.1"/>
  <path d="M 14.584149000000025,64.04908 L 13.38414899999998,64.04908" fill="none" stroke="rgb(0,178,178)" stroke-width="0.1"/>
  <path d="M 13.38414899999998,64.04908 L 13.38414899999998,68.84907999999996" fill="none" stroke="rgb(0,178,178)" stroke-width="0.1"/>
  <path d="M 13.38414899999998,68.84907999999996 L 14.584149000000025,68.84907999999996" fill="none" stroke="rgb(0,178,178)" stroke-width="0.1"/>
  <path d="M 14.584149000000025,68.84907999999996 A 2.4,2.4 0.0 1,0 14.584149000000025,64.04908" fill="none" stroke="rgb(0,178,178)" stroke-width="0.1"/>
  <path d="M 13.38414899999998,67.28908000000001 L 11.584149000000025,67.28908000000001" fill="none" stroke="rgb(0,178,178)" stroke-width="0.1"/>
  <path d="M 11.584149000000025,67.28908000000001 A 0.36,0.36 0.0 1,0 11.584149000000025,68.00907999999993" fill="none" stroke="rgb(0,178,178)" stroke-width="0.1"/>
  <path d="M 11.584149000000025,68.00907999999993 L 13.38414899999998,68.00907999999993" fill="none" stroke="rgb(0,178,178)" stroke-width="0.1"/>
  <path d="M 13.38414899999998,68.00907999999993 L 13.38414899999998,67.28908000000001" fill="none" stroke="rgb(0,178,178)" stroke-width="0.1"/>
  <path d="M 13.38414899999998,64.88907999999992 L 11.584149000000025,64.88907999999992" fill="none" stroke="rgb(0,178,178)" stroke-width="0.1"/>
  <path d="M 11.584149000000025,64.88907999999992 A 0.3600000000000136,0.3600000000000136 0.0 1,0 11.584149000000025,65.60907999999995" fill="none" stroke="rgb(0,178,178)" stroke-width="0.1"/>
  <path d="M 11.584149000000025,65.60907999999995 L 13.38414899999998,65.60907999999995" fill="none" stroke="rgb(0,178,178)" stroke-width="0.1"/>
  <path d="M 13.38414899999998,65.60907999999995 L 13.38414899999998,64.88907999999992" fill="none" stroke="rgb(0,178,178)" stroke-width="0.1"/>
  <path d="M 6.397149000000013,99.33607999999992 L 8.498149000000012,96.33607999999992" fill="none" stroke="rgb(0,178,178)" stroke-width="0.1"/>
  <path d="M 8.498149000000012,96.33607999999992 L 6.098149000000035,96.33607999999992" fill="none" stroke="rgb(0,178,178)" stroke-width="0.1"/>
  <path d="M 6.098149000000035,96.33607999999992 L 3.982235199999991,100.0" fill="none" stroke="rgb(0,178,178)" stroke-width="0.1"/>
  <path d="M 7.533228999999892,100.0 L 8.197148999999968,99.33607999999992" fill="none" stroke="rgb(0,178,178)" stroke-width="0.1"/>
  <path d="M 8.197148999999968,99.33607999999992 L 6.397149000000013,99.33607999999992" fill="none" stroke="rgb(0,178,178)" stroke-width="0.1"/>
  <path d="M 28.036149000000023,84.85307999999998 L 30.137149000000022,81.85307999999998" fill="none" stroke="rgb(0,178,178)" stroke-width="0.1"/>
  <path d="M 30.137149000000022,81.85307999999998 L 27.737149000000045,81.85307999999998" fill="none" stroke="rgb(0,178,178)" stroke-width="0.1"/>
  <path d="M 27.737149000000045,81.85307999999998 L 24.966148999999973,86.65307999999993" fill="none" stroke="rgb(0,178,178)" stroke-width="0.1"/>
  <path d="M 24.966148999999973,86.65307999999993 L 26.776149000000032,86.65307999999993" fill="none" stroke="rgb(0,178,178)" stroke-width="0.1"/>
  <path d="M 26.776149000000032,86.65307999999993 L 23.832149000000072,90.85708" fill="none" stroke="rgb(0,178,178)" stroke-width="0.1"/>
  <path d="M 23.832149000000072,90.85708 L 29.836148999999978,84.85307999999998" fill="none" stroke="rgb(0,178,178)" stroke-width="0.1"/>
  <path d="M 29.836148999999978,84.85307999999998 L 28.036149000000023,84.85307999999998" fill="none" stroke="rgb(0,178,178)" stroke-width="0.1"/>
  <path d="M 6.098149000000035,96.33607999999992 L 3.982235199999991,100.0" fill="none" stroke="rgb(0,178,178)" stroke-width="0.1"/>
  <path d="M 7.533228999999892,100.0 L 8.197148999999968,99.33607999999992" fill="none" stroke="rgb(0,178,178)" stroke-width="0.1"/>
  <path d="M 8.197148999999968,99.33607999999992 L 6.397149000000013,99.33607999999992" fill="none" stroke="rgb(0,178,178)" stroke-width="0.1"/>
  <path d="M 6.397149000000013,99.33607999999992 L 8.498149000000012,96.33607999999992" fill="none" stroke="rgb(0,178,178)" stroke-width="0.1"/>
  <path d="M 8.498149000000012,96.33607999999992 L 6.098149000000035,96.33607999999992" fill="none" stroke="rgb(0,178,178)" stroke-width="0.1"/>
  <path d="M 27.737149000000045,81.85307999999998 L 24.966148999999973,86.65307999999993" fill="none" stroke="rgb(0,178,178)" stroke-width="0.1"/>
  <path d="M 24.966148999999973,86.65307999999993 L 26.776149000000032,86.65307999999993" fill="none" stroke="rgb(0,178,178)" stroke-width="0.1"/>
  <path d="M 26.776149000000032,86.65307999999993 L 23.832149000000072,90.85708" fill="none" stroke="rgb(0,178,178)" stroke-width="0.1"/>
  <path d="M 23.832149000000072,90.85708 L 29.836148999999978,84.85307999999998" fill="none" stroke="rgb(0,178,178)" stroke-width="0.1"/>
  <path d="M 29.836148999999978,84.85307999999998 L 28.036149000000023,84.85307999999998" fill="none" stroke="rgb(0,178,178)" stroke-width="0.1"/>
  <path d="M 28.036149000000023,84.85307999999998 L 30.137149000000022,81.85307999999998" fill="none" stroke="rgb(0,178,178)" stroke-width="0.1"/>
  <path d="M 30.137149000000022,81.85307999999998 L 27.737149000000045,81.85307999999998" fill="none" stroke="rgb(0,178,178)" stroke-width="0.1"/>
  <circle cx="13.984149000000002" cy="66.44907999999998" fill="none" r="6" stroke="rgb(0,178,178)" stroke-width="0.1"/>
  <circle cx="13.984149000000002" cy="66.44907999999998" fill="none" r="5.04" stroke="rgb(0,178,178)" stroke-width="0.1"/>
 </g>
 <g id="layerCOLUMN" inkscape:groupmode="layer" inkscape:label="COLUMN">
  <path d="M 40.70614899999998,41.66908000000001 L 47.34314900000004,37.20107999999993" fill="none" stroke="rgb(178,178,0)" stroke-width="0.1"/>
  <path d="M 47.34314900000004,37.20107999999993 L 42.875148999999965,30.565079999999966" fill="none" stroke="rgb(178,178,0)" stroke-width="0.1"/>
  <path d="M 42.875148999999965,30.565079999999966 L 36.239149,35.03207999999995" fill="none" stroke="rgb(178,178,0)" stroke-width="0.1"/>
  <path d="M 36.239149,35.03207999999995 L 40.70614899999998,41.66908000000001" fill="none" stroke="rgb(178,178,0)" stroke-width="0.1"/>
  <path d="M 70.864149,86.46307999999999 L 77.50014899999996,81.99507999999992" fill="none" stroke="rgb(178,178,0)" stroke-width="0.1"/>
  <path d="M 77.50014899999996,81.99507999999992 L 73.03314899999998,75.35907999999995" fill="none" stroke="rgb(178,178,0)" stroke-width="0.1"/>
  <path d="M 73.03314899999998,75.35907999999995 L 66.39614900000004,79.82607999999993" fill="none" stroke="rgb(178,178,0)" stroke-width="0.1"/>
  <path d="M 66.39614900000004,79.82607999999993 L 70.864149,86.46307999999999" fill="none" stroke="rgb(178,178,0)" stroke-width="0.1"/>
 </g>
 <g id="layerDIM_LEAD" inkscape:groupmode="layer" inkscape:label="DIM_LEAD">
  <path d="M 16.207149000000072,35.010080000000016 L 3.892840867314362,0.0" fill="none" stroke="rgb(0,178,0)" stroke-width="0.1"/>
  <path d="M 16.306149000000005,35.29307999999992 A 0.3,0.3 0.0 1,0 16.10714900000005,34.72708" fill="none" stroke="rgb(0,178,0)" stroke-width="0.1"/>
  <path d="M 16.10714900000005,34.72708 A 0.3,0.3 0.0 1,0 16.306149000000005,35.29307999999992" fill="none" stroke="rgb(0,178,0)" stroke-width="0.1"/>
 </g>
 <g id="layerPUB_HATCH" inkscape:groupmode="layer" inkscape:label="PUB_HATCH">
  <path d="M 43.088149000000044,77.43607999999995 L 45.864149,77.97807999999998" fill="none" instance-id="-1" semantic-id="1" stroke="rgb(63,63,63)" stroke-width="0.1"/>
  <path d="M 45.864149,77.97807999999998 L 59.136149000000046,69.04307999999992" fill="none" instance-id="-1" semantic-id="1" stroke="rgb(63,63,63)" stroke-width="0.1"/>
  <path d="M 59.136149000000046,69.04307999999992 L 59.67814899999996,66.26707999999996" fill="none" instance-id="-1" semantic-id="1" stroke="rgb(63,63,63)" stroke-width="0.1"/>
  <path d="M 59.67814899999996,66.26707999999996 L 43.088149000000044,77.43607999999995" fill="none" instance-id="-1" semantic-id="1" stroke="rgb(63,63,63)" stroke-width="0.1"/>
  <path d="M 54.80014900000003,91.25108 L 54.25714900000003,94.02707999999996" fill="none" stroke="rgb(63,63,63)" stroke-width="0.1"/>
  <path d="M 54.25714900000003,94.02707999999996 L 69.18914900000004,83.97407999999996" fill="none" instance-id="-1" semantic-id="1" stroke="rgb(63,63,63)" stroke-width="0.1"/>
  <path d="M 69.18914900000004,83.97407999999996 L 68.07214899999997,82.31507999999997" fill="none" instance-id="-1" semantic-id="1" stroke="rgb(63,63,63)" stroke-width="0.1"/>
  <path d="M 68.07214899999997,82.31507999999997 L 54.80014900000003,91.25108" fill="none" instance-id="-1" semantic-id="1" stroke="rgb(63,63,63)" stroke-width="0.1"/>
  <path d="M 66.39614900000004,79.82607999999993 L 68.05514900000003,78.71007999999995" fill="none" instance-id="-1" semantic-id="1" stroke="rgb(63,63,63)" stroke-width="0.1"/>
  <path d="M 68.05514900000003,78.71007999999995 L 59.67814899999996,66.26707999999996" fill="none" instance-id="-1" semantic-id="1" stroke="rgb(63,63,63)" stroke-width="0.1"/>
  <path d="M 59.67814899999996,66.26707999999996 L 59.136149000000046,69.04307999999992" fill="none" instance-id="-1" semantic-id="1" stroke="rgb(63,63,63)" stroke-width="0.1"/>
  <path d="M 59.136149000000046,69.04307999999992 L 66.39614900000004,79.82607999999993" fill="none" instance-id="-1" semantic-id="1" stroke="rgb(63,63,63)" stroke-width="0.1"/>
  <path d="M 43.088149000000044,77.43607999999995 L 54.25714900000003,94.02707999999996" fill="none" instance-id="-1" semantic-id="1" stroke="rgb(63,63,63)" stroke-width="0.1"/>
  <path d="M 54.25714900000003,94.02707999999996 L 54.80014900000003,91.25108" fill="none" stroke="rgb(63,63,63)" stroke-width="0.1"/>
  <path d="M 54.80014900000003,91.25108 L 45.864149,77.97807999999998" fill="none" instance-id="-1" semantic-id="1" stroke="rgb(63,63,63)" stroke-width="0.1"/>
  <path d="M 45.864149,77.97807999999998 L 43.088149000000044,77.43607999999995" fill="none" instance-id="-1" semantic-id="1" stroke="rgb(63,63,63)" stroke-width="0.1"/>
 </g>
 <g id="layerPUB_TEXT" inkscape:groupmode="layer" inkscape:label="PUB_TEXT">
  <text fill="rgb(0,0,0)" font-family="Noto Sans CJK SC" font-size="2" transform="rotate(-33.9506,50.556149000000005,89.46107999999992)" x="50.556149000000005" y="89.46107999999992">
   排风井
  </text>
 </g>
 <g id="layerWALL" inkscape:groupmode="layer" inkscape:label="WALL">
  <path d="M 43.088149000000044,77.43607999999995 L 59.67814899999996,66.26707999999996" fill="none" instance-id="-1" semantic-id="1" stroke="rgb(178,178,0)" stroke-width="0.1"/>
  <path d="M 45.864149,77.97807999999998 L 59.136149000000046,69.04307999999992" fill="none" instance-id="-1" semantic-id="1" stroke="rgb(178,178,0)" stroke-width="0.1"/>
  <path d="M 69.18914900000004,83.97407999999996 L 54.25714900000003,94.02707999999996" fill="none" instance-id="-1" semantic-id="1" stroke="rgb(178,178,0)" stroke-width="0.1"/>
  <path d="M 68.07214899999997,82.31507999999997 L 54.80014900000003,91.25108" fill="none" instance-id="-1" semantic-id="1" stroke="rgb(178,178,0)" stroke-width="0.1"/>
  <path d="M 75.01214900000002,83.67007999999998 L 86.00623063586534,100.0" fill="none" instance-id="-1" semantic-id="1" stroke="rgb(178,178,0)" stroke-width="0.1"/>
  <path d="M 73.35314900000003,84.78707999999995 L 83.59521291702401,100.0" fill="none" instance-id="-1" semantic-id="1" stroke="rgb(178,178,0)" stroke-width="0.1"/>
  <path d="M 70.864149,86.46307999999999 L 50.75746613410604,100.0" fill="none" instance-id="-1" semantic-id="1" stroke="rgb(178,178,0)" stroke-width="0.1"/>
  <path d="M 69.74714900000004,84.80408 L 47.17631720846293,100.0" fill="none" instance-id="-1" semantic-id="1" stroke="rgb(178,178,0)" stroke-width="0.1"/>
  <path d="M 59.67814899999996,66.26707999999996 L 68.05514900000003,78.71007999999995" fill="none" instance-id="-1" semantic-id="1" stroke="rgb(178,178,0)" stroke-width="0.1"/>
  <path d="M 59.136149000000046,69.04307999999992 L 66.39614900000004,79.82607999999993" fill="none" instance-id="-1" semantic-id="1" stroke="rgb(178,178,0)" stroke-width="0.1"/>
  <path d="M 72.52314899999999,85.34607999999992 L 82.3890340900158,100.0" fill="none" instance-id="-1" semantic-id="1" stroke="rgb(178,178,0)" stroke-width="0.1"/>
  <path d="M 70.864149,86.46307999999999 L 79.97800366774334,100.0" fill="none" instance-id="-1" semantic-id="1" stroke="rgb(178,178,0)" stroke-width="0.1"/>
  <path d="M 45.864149,77.97807999999998 L 54.80014900000003,91.25108" fill="none" instance-id="-1" semantic-id="1" stroke="rgb(178,178,0)" stroke-width="0.1"/>
  <path d="M 43.088149000000044,77.43607999999995 L 54.25714900000003,94.02707999999996" fill="none" instance-id="-1" semantic-id="1" stroke="rgb(178,178,0)" stroke-width="0.1"/>
  <path d="M 54.25714900000003,94.02707999999996 L 45.385267087122884,100.0" fill="none" instance-id="-1" semantic-id="1" stroke="rgb(178,178,0)" stroke-width="0.1"/>
  <path d="M 53.140149000000065,92.36807999999996 L 41.80406999533818,100.0" fill="none" instance-id="-1" semantic-id="1" stroke="rgb(178,178,0)" stroke-width="0.1"/>
  <path d="M 100.0,59.61411707362993 L 74.15014900000006,77.01807999999994" fill="none" instance-id="-1" semantic-id="1" stroke="rgb(178,178,0)" stroke-width="0.1"/>
  <path d="M 100.0,57.203039006233325 L 73.03314899999998,75.35907999999995" fill="none" instance-id="-1" semantic-id="1" stroke="rgb(178,178,0)" stroke-width="0.1"/>
 </g>
 <g id="layers-消火栓" inkscape:groupmode="layer" inkscape:label="s-消火栓">
  <path d="M 48.89514900000006,73.52707999999996 L 41.74814900000001,75.44507999999996" fill="none" stroke="rgb(178,88,0)" stroke-width="0.1"/>
  <path d="M 47.55414900000005,71.53607999999997 L 41.74814900000001,75.44507999999996" fill="none" stroke="rgb(178,88,0)" stroke-width="0.1"/>
  <path d="M 41.74814900000001,75.44507999999996 L 43.088149000000044,77.43607999999995" fill="none" stroke="rgb(178,88,0)" stroke-width="0.1"/>
  <path d="M 43.088149000000044,77.43607999999995 L 48.89514900000006,73.52707999999996" fill="none" stroke="rgb(178,88,0)" stroke-width="0.1"/>
  <path d="M 48.89514900000006,73.52707999999996 L 47.55414900000005,71.53607999999997" fill="none" stroke="rgb(178,88,0)" stroke-width="0.1"/>
  <path d="M 43.088149000000044,77.43607999999995 L 48.89514900000006,73.52707999999996" fill="none" stroke="rgb(178,88,0)" stroke-width="0.1"/>
  <path d="M 48.89514900000006,73.52707999999996 L 41.74814900000001,75.44507999999996" fill="none" stroke="rgb(178,88,0)" stroke-width="0.1"/>
  <path d="M 41.74814900000001,75.44507999999996 L 43.088149000000044,77.43607999999995" fill="none" stroke="rgb(178,88,0)" stroke-width="0.1"/>
  <circle cx="49.63514900000007" cy="71.58308" fill="none" r="0.6" stroke="rgb(178,178,0)" stroke-width="0.1"/>
 </g>
</svg>