<?xml version="1.0" encoding="utf-8"?>
<svg style="background-color: #000;" version="1.1" viewBox="0 0 100.0 100.0" xmlns="http://www.w3.org/2000/svg" xmlns:inkscape="http://www.inkscape.org/namespaces/inkscape">
 <g id="layer0-1F" inkscape:groupmode="layer" inkscape:label="0-1F">
  <path d="M 83.67220750000001,15.35978099999997 L 83.17678906260494,15.288682118081113" fill="none" stroke="rgb(178,0,178)" stroke-width="0.1"/>
  <path d="M 83.17678906260494,15.288682118081113 L 82.6813625442229,15.217639567417052" fill="none" stroke="rgb(178,0,178)" stroke-width="0.1"/>
  <path d="M 82.6813625442229,15.217639567417052 L 82.18592795125926,15.146653348923962" fill="none" stroke="rgb(178,0,178)" stroke-width="0.1"/>
  <path d="M 82.18592795125926,15.146653348923962 L 81.690485290119,15.075723463521342" fill="none" stroke="rgb(178,0,178)" stroke-width="0.1"/>
  <path d="M 81.690485290119,15.075723463521342 L 81.19503456720861,15.004849912124143" fill="none" stroke="rgb(178,0,178)" stroke-width="0.1"/>
  <path d="M 81.19503456720861,15.004849912124143 L 80.6995757889323,14.934032695650956" fill="none" stroke="rgb(178,0,178)" stroke-width="0.1"/>
  <path d="M 80.6995757889323,14.934032695650956 L 80.20410896169494,14.863271815015821" fill="none" stroke="rgb(178,0,178)" stroke-width="0.1"/>
  <path d="M 80.20410896169494,14.863271815015821 L 79.70863409190292,14.792567271133692" fill="none" stroke="rgb(178,0,178)" stroke-width="0.1"/>
  <path d="M 79.70863409190292,14.792567271133692 L 79.21315118596192,14.721919064918609" fill="none" stroke="rgb(178,0,178)" stroke-width="0.1"/>
  <path d="M 79.21315118596192,14.721919064918609 L 78.71766025027807,14.651327197284616" fill="none" stroke="rgb(178,0,178)" stroke-width="0.1"/>
  <path d="M 78.71766025027807,14.651327197284616 L 78.22216129125684,14.580791669143935" fill="none" stroke="rgb(178,0,178)" stroke-width="0.1"/>
  <path d="M 78.22216129125684,14.580791669143935 L 77.72665431530493,14.51031248140879" fill="none" stroke="rgb(178,0,178)" stroke-width="0.1"/>
  <path d="M 77.72665431530493,14.51031248140879 L 77.23113932882984,14.439889634989584" fill="none" stroke="rgb(178,0,178)" stroke-width="0.1"/>
  <path d="M 77.23113932882984,14.439889634989584 L 76.7356163382342,14.369523130797631" fill="none" stroke="rgb(178,0,178)" stroke-width="0.1"/>
  <path d="M 76.7356163382342,14.369523130797631 L 76.24008534992629,14.299212969742428" fill="none" stroke="rgb(178,0,178)" stroke-width="0.1"/>
  <path d="M 76.24008534992629,14.299212969742428 L 75.7445463703126,14.228959152732557" fill="none" stroke="rgb(178,0,178)" stroke-width="0.1"/>
  <path d="M 75.7445463703126,14.228959152732557 L 75.24899940579962,14.158761680677515" fill="none" stroke="rgb(178,0,178)" stroke-width="0.1"/>
  <path d="M 75.24899940579962,14.158761680677515 L 74.75344446279405,14.088620554483157" fill="none" stroke="rgb(178,0,178)" stroke-width="0.1"/>
  <path d="M 74.75344446279405,14.088620554483157 L 74.25788154770271,14.01853577505716" fill="none" stroke="rgb(178,0,178)" stroke-width="0.1"/>
  <path d="M 74.25788154770271,14.01853577505716 L 73.76231066693242,13.94850734330538" fill="none" stroke="rgb(178,0,178)" stroke-width="0.1"/>
  <path d="M 73.76231066693242,13.94850734330538 L 73.26673182689206,13.878535260133674" fill="none" stroke="rgb(178,0,178)" stroke-width="0.1"/>
  <path d="M 73.26673182689206,13.878535260133674 L 72.77114503398491,13.80861952644699" fill="none" stroke="rgb(178,0,178)" stroke-width="0.1"/>
  <path d="M 72.77114503398491,13.80861952644699 L 72.27555029462007,13.738760143147545" fill="none" stroke="rgb(178,0,178)" stroke-width="0.1"/>
  <path d="M 72.27555029462007,13.738760143147545 L 71.77994761520483,13.668957111140287" fill="none" stroke="rgb(178,0,178)" stroke-width="0.1"/>
  <path d="M 71.77994761520483,13.668957111140287 L 71.28433700214646,13.599210431326526" fill="none" stroke="rgb(178,0,178)" stroke-width="0.1"/>
  <path d="M 71.28433700214646,13.599210431326526 L 70.78871846185268,13.52952010460848" fill="none" stroke="rgb(178,0,178)" stroke-width="0.1"/>
  <path d="M 70.78871846185268,13.52952010460848 L 70.29309200073101,13.459886131887458" fill="none" stroke="rgb(178,0,178)" stroke-width="0.1"/>
  <path d="M 70.29309200073101,13.459886131887458 L 69.79745762518985,13.390308514062951" fill="none" stroke="rgb(178,0,178)" stroke-width="0.1"/>
  <path d="M 69.79745762518985,13.390308514062951 L 69.30181534163637,13.320787252035359" fill="none" stroke="rgb(178,0,178)" stroke-width="0.1"/>
  <path d="M 69.30181534163637,13.320787252035359 L 68.80616515647739,13.251322346702352" fill="none" stroke="rgb(178,0,178)" stroke-width="0.1"/>
  <path d="M 68.80616515647739,13.251322346702352 L 68.3105070761219,13.181913798962512" fill="none" stroke="rgb(178,0,178)" stroke-width="0.1"/>
  <path d="M 68.3105070761219,13.181913798962512 L 67.81484110697795,13.11256160971351" fill="none" stroke="rgb(178,0,178)" stroke-width="0.1"/>
  <path d="M 67.81484110697795,13.11256160971351 L 67.31916725545375,13.043265779852106" fill="none" stroke="rgb(178,0,178)" stroke-width="0.1"/>
  <path d="M 67.31916725545375,13.043265779852106 L 66.8234855279577,12.974026310273246" fill="none" stroke="rgb(178,0,178)" stroke-width="0.1"/>
  <path d="M 66.8234855279577,12.974026310273246 L 66.32779593089901,12.904843201873689" fill="none" stroke="rgb(178,0,178)" stroke-width="0.1"/>
  <path d="M 66.32779593089901,12.904843201873689 L 65.8320984706844,12.83571645554656" fill="none" stroke="rgb(178,0,178)" stroke-width="0.1"/>
  <path d="M 65.8320984706844,12.83571645554656 L 65.3363931537234,12.766646072184983" fill="none" stroke="rgb(178,0,178)" stroke-width="0.1"/>
  <path d="M 65.3363931537234,12.766646072184983 L 64.8406799864257,12.6976320526839" fill="none" stroke="rgb(178,0,178)" stroke-width="0.1"/>
  <path d="M 64.8406799864257,12.6976320526839 L 64.34495897519821,12.628674397934617" fill="none" stroke="rgb(178,0,178)" stroke-width="0.1"/>
  <path d="M 64.34495897519821,12.628674397934617 L 63.84923012645072,12.559773108827528" fill="none" stroke="rgb(178,0,178)" stroke-width="0.1"/>
  <path d="M 63.84923012645072,12.559773108827528 L 63.35349344659335,12.490928186255758" fill="none" stroke="rgb(178,0,178)" stroke-width="0.1"/>
  <path d="M 63.35349344659335,12.490928186255758 L 62.85774894203314,12.422139631106973" fill="none" stroke="rgb(178,0,178)" stroke-width="0.1"/>
  <path d="M 62.85774894203314,12.422139631106973 L 62.361996619180445,12.353407444271568" fill="none" stroke="rgb(178,0,178)" stroke-width="0.1"/>
  <path d="M 62.361996619180445,12.353407444271568 L 61.86623648444447,12.28473162663812" fill="none" stroke="rgb(178,0,178)" stroke-width="0.1"/>
  <path d="M 61.86623648444447,12.28473162663812 L 61.370468544234654,12.216112179095205" fill="none" stroke="rgb(178,0,178)" stroke-width="0.1"/>
  <path d="M 61.370468544234654,12.216112179095205 L 60.87469280496157,12.147549102528671" fill="none" stroke="rgb(178,0,178)" stroke-width="0.1"/>
  <path d="M 60.87469280496157,12.147549102528671 L 60.37890927303272,12.079042397826186" fill="none" stroke="rgb(178,0,178)" stroke-width="0.1"/>
  <path d="M 60.37890927303272,12.079042397826186 L 59.88311795486004,12.010592065872686" fill="none" stroke="rgb(178,0,178)" stroke-width="0.1"/>
  <path d="M 59.88311795486004,12.010592065872686 L 59.38731885685115,11.942198107552201" fill="none" stroke="rgb(178,0,178)" stroke-width="0.1"/>
  <path d="M 59.38731885685115,11.942198107552201 L 58.89151198541708,11.87386052375058" fill="none" stroke="rgb(178,0,178)" stroke-width="0.1"/>
  <path d="M 58.89151198541708,11.87386052375058 L 58.39569734696795,11.80557931535094" fill="none" stroke="rgb(178,0,178)" stroke-width="0.1"/>
  <path d="M 58.39569734696795,11.80557931535094 L 57.89987494791376,11.737354483236402" fill="none" stroke="rgb(178,0,178)" stroke-width="0.1"/>
  <path d="M 57.89987494791376,11.737354483236402 L 57.40404479466474,11.669186028287356" fill="none" stroke="rgb(178,0,178)" stroke-width="0.1"/>
  <path d="M 57.40404479466474,11.669186028287356 L 56.908206893632155,11.601073951386923" fill="none" stroke="rgb(178,0,178)" stroke-width="0.1"/>
  <path d="M 56.908206893632155,11.601073951386923 L 56.41236125122555,11.533018253414582" fill="none" stroke="rgb(178,0,178)" stroke-width="0.1"/>
  <path d="M 56.41236125122555,11.533018253414582 L 55.916507873854584,11.465018935251635" fill="none" stroke="rgb(178,0,178)" stroke-width="0.1"/>
  <path d="M 55.916507873854584,11.465018935251635 L 55.420646767930634,11.397075997774834" fill="none" stroke="rgb(178,0,178)" stroke-width="0.1"/>
  <path d="M 55.420646767930634,11.397075997774834 L 54.9247779398645,11.329189441864571" fill="none" stroke="rgb(178,0,178)" stroke-width="0.1"/>
  <path d="M 54.9247779398645,11.329189441864571 L 54.428901396066976,11.261359268397598" fill="none" stroke="rgb(178,0,178)" stroke-width="0.1"/>
  <path d="M 54.428901396066976,11.261359268397598 L 53.93301714294921,11.193585478251578" fill="none" stroke="rgb(178,0,178)" stroke-width="0.1"/>
  <path d="M 53.93301714294921,11.193585478251578 L 53.437125186922,11.125868072301444" fill="none" stroke="rgb(178,0,178)" stroke-width="0.1"/>
  <path d="M 53.437125186922,11.125868072301444 L 52.941225534396494,11.058207051423949" fill="none" stroke="rgb(178,0,178)" stroke-width="0.1"/>
  <path d="M 52.941225534396494,11.058207051423949 L 52.44531819178599,10.990602416494028" fill="none" stroke="rgb(178,0,178)" stroke-width="0.1"/>
  <path d="M 52.44531819178599,10.990602416494028 L 51.94940316549787,10.923054168384795" fill="none" stroke="rgb(178,0,178)" stroke-width="0.1"/>
  <path d="M 51.94940316549787,10.923054168384795 L 51.453480461945446,10.855562307969365" fill="none" stroke="rgb(178,0,178)" stroke-width="0.1"/>
  <path d="M 51.453480461945446,10.855562307969365 L 50.95755008754031,10.788126836120853" fill="none" stroke="rgb(178,0,178)" stroke-width="0.1"/>
  <path d="M 50.95755008754031,10.788126836120853 L 50.461612048694064,10.720747753711464" fill="none" stroke="rgb(178,0,178)" stroke-width="0.1"/>
  <path d="M 50.461612048694064,10.720747753711464 L 49.96566635181853,10.653425061611586" fill="none" stroke="rgb(178,0,178)" stroke-width="0.1"/>
  <path d="M 49.96566635181853,10.653425061611586 L 49.469713003325296,10.586158760691603" fill="none" stroke="rgb(178,0,178)" stroke-width="0.1"/>
  <path d="M 49.469713003325296,10.586158760691603 L 48.97375200962745,10.518948851821904" fill="none" stroke="rgb(178,0,178)" stroke-width="0.1"/>
  <path d="M 48.97375200962745,10.518948851821904 L 48.47778337713601,10.451795335870145" fill="none" stroke="rgb(178,0,178)" stroke-width="0.1"/>
  <path d="M 48.47778337713601,10.451795335870145 L 47.981807112262004,10.384698213705803" fill="none" stroke="rgb(178,0,178)" stroke-width="0.1"/>
  <path d="M 47.981807112262004,10.384698213705803 L 47.485823221418855,10.317657486196538" fill="none" stroke="rgb(178,0,178)" stroke-width="0.1"/>
  <path d="M 47.485823221418855,10.317657486196538 L 46.989831711018724,10.250673154207277" fill="none" stroke="rgb(178,0,178)" stroke-width="0.1"/>
  <path d="M 46.989831711018724,10.250673154207277 L 46.49383258747389,10.18374521860568" fill="none" stroke="rgb(178,0,178)" stroke-width="0.1"/>
  <path d="M 46.49383258747389,10.18374521860568 L 45.9978258571972,10.116873680256674" fill="none" stroke="rgb(178,0,178)" stroke-width="0.1"/>
  <path d="M 45.9978258571972,10.116873680256674 L 45.50181152660207,10.050058540024281" fill="none" stroke="rgb(178,0,178)" stroke-width="0.1"/>
  <path d="M 45.50181152660207,10.050058540024281 L 45.00578960209907,9.98329979877343" fill="none" stroke="rgb(178,0,178)" stroke-width="0.1"/>
  <path d="M 45.00578960209907,9.98329979877343 L 44.50976009010333,9.916597457365413" fill="none" stroke="rgb(178,0,178)" stroke-width="0.1"/>
  <path d="M 44.50976009010333,9.916597457365413 L 44.013722997025525,9.849951516664248" fill="none" stroke="rgb(178,0,178)" stroke-width="0.1"/>
  <path d="M 44.013722997025525,9.849951516664248 L 43.517678329279875,9.783361977530319" fill="none" stroke="rgb(178,0,178)" stroke-width="0.1"/>
  <path d="M 43.517678329279875,9.783361977530319 L 43.02162609327911,9.716828840825826" fill="none" stroke="rgb(178,0,178)" stroke-width="0.1"/>
  <path d="M 43.02162609327911,9.716828840825826 L 42.525566295436874,9.650352107410242" fill="none" stroke="rgb(178,0,178)" stroke-width="0.1"/>
  <path d="M 42.525566295436874,9.650352107410242 L 42.02949894216704,9.58393177814213" fill="none" stroke="rgb(178,0,178)" stroke-width="0.1"/>
  <path d="M 42.02949894216704,9.58393177814213 L 41.53342403988131,9.517567853881872" fill="none" stroke="rgb(178,0,178)" stroke-width="0.1"/>
  <path d="M 41.53342403988131,9.517567853881872 L 41.03734159499413,9.45126033548712" fill="none" stroke="rgb(178,0,178)" stroke-width="0.1"/>
  <path d="M 41.03734159499413,9.45126033548712 L 40.54125161391994,9.38500922381371" fill="none" stroke="rgb(178,0,178)" stroke-width="0.1"/>
  <path d="M 40.54125161391994,9.38500922381371 L 40.04515410307067,9.318814519719297" fill="none" stroke="rgb(178,0,178)" stroke-width="0.1"/>
  <path d="M 40.04515410307067,9.318814519719297 L 39.54904906886077,9.252676224059712" fill="none" stroke="rgb(178,0,178)" stroke-width="0.1"/>
  <path d="M 39.54904906886077,9.252676224059712 L 39.05293651770455,9.186594337689883" fill="none" stroke="rgb(178,0,178)" stroke-width="0.1"/>
  <path d="M 39.05293651770455,9.186594337689883 L 38.55681645601658,9.120568861464733" fill="none" stroke="rgb(178,0,178)" stroke-width="0.1"/>
  <path d="M 38.55681645601658,9.120568861464733 L 38.060688890209235,9.05459979623646" fill="none" stroke="rgb(178,0,178)" stroke-width="0.1"/>
  <path d="M 38.060688890209235,9.05459979623646 L 37.564553826697534,8.988687142858168" fill="none" stroke="rgb(178,0,178)" stroke-width="0.1"/>
  <path d="M 37.564553826697534,8.988687142858168 L 37.0684112718958,8.922830902183875" fill="none" stroke="rgb(178,0,178)" stroke-width="0.1"/>
  <path d="M 37.0684112718958,8.922830902183875 L 36.57226123221835,8.857031075063048" fill="none" stroke="rgb(178,0,178)" stroke-width="0.1"/>
  <path d="M 36.57226123221835,8.857031075063048 L 36.07610371408066,8.791287662346974" fill="none" stroke="rgb(178,0,178)" stroke-width="0.1"/>
  <path d="M 36.07610371408066,8.791287662346974 L 35.57993872389545,8.72560066488603" fill="none" stroke="rgb(178,0,178)" stroke-width="0.1"/>
  <path d="M 35.57993872389545,8.72560066488603 L 35.0837662680791,8.659970083528776" fill="none" stroke="rgb(178,0,178)" stroke-width="0.1"/>
  <path d="M 35.0837662680791,8.659970083528776 L 34.58758635304457,8.594395919124679" fill="none" stroke="rgb(178,0,178)" stroke-width="0.1"/>
  <path d="M 34.58758635304457,8.594395919124679 L 34.091398985207775,8.528878172519569" fill="none" stroke="rgb(178,0,178)" stroke-width="0.1"/>
  <path d="M 34.091398985207775,8.528878172519569 L 33.59520417098338,8.463416844562914" fill="none" stroke="rgb(178,0,178)" stroke-width="0.1"/>
  <path d="M 33.59520417098338,8.463416844562914 L 33.09900191678662,8.398011936099635" fill="none" stroke="rgb(178,0,178)" stroke-width="0.1"/>
  <path d="M 33.09900191678662,8.398011936099635 L 32.602792229032616,8.332663447975563" fill="none" stroke="rgb(178,0,178)" stroke-width="0.1"/>
  <path d="M 32.602792229032616,8.332663447975563 L 32.10657511413774,8.267371381035616" fill="none" stroke="rgb(178,0,178)" stroke-width="0.1"/>
  <path d="M 32.10657511413774,8.267371381035616 L 31.610350578515977,8.202135736122898" fill="none" stroke="rgb(178,0,178)" stroke-width="0.1"/>
  <path d="M 31.610350578515977,8.202135736122898 L 31.11411862858199,8.136956514082328" fill="none" stroke="rgb(178,0,178)" stroke-width="0.1"/>
  <path d="M 31.11411862858199,8.136956514082328 L 30.61787927075227,8.0718337157561" fill="none" stroke="rgb(178,0,178)" stroke-width="0.1"/>
  <path d="M 30.61787927075227,8.0718337157561 L 30.1216325114425,8.006767341986404" fill="none" stroke="rgb(178,0,178)" stroke-width="0.1"/>
  <path d="M 30.1216325114425,8.006767341986404 L 29.625378357068257,7.941757393614523" fill="none" stroke="rgb(178,0,178)" stroke-width="0.1"/>
  <path d="M 29.625378357068257,7.941757393614523 L 29.129116814045574,7.876803871479922" fill="none" stroke="rgb(178,0,178)" stroke-width="0.1"/>
  <path d="M 29.129116814045574,7.876803871479922 L 28.63284788879014,7.811906776422973" fill="none" stroke="rgb(178,0,178)" stroke-width="0.1"/>
  <path d="M 28.63284788879014,7.811906776422973 L 28.136571587719914,7.747066109283139" fill="none" stroke="rgb(178,0,178)" stroke-width="0.1"/>
  <path d="M 28.136571587719914,7.747066109283139 L 27.64028791724718,7.682281870897157" fill="none" stroke="rgb(178,0,178)" stroke-width="0.1"/>
  <path d="M 27.64028791724718,7.682281870897157 L 27.14399688379001,7.617554062104489" fill="none" stroke="rgb(178,0,178)" stroke-width="0.1"/>
  <path d="M 27.14399688379001,7.617554062104489 L 26.647698493764892,7.5528826837418706" fill="none" stroke="rgb(178,0,178)" stroke-width="0.1"/>
  <path d="M 26.647698493764892,7.5528826837418706 L 26.15139275358797,7.488267736643309" fill="none" stroke="rgb(178,0,178)" stroke-width="0.1"/>
  <path d="M 26.15139275358797,7.488267736643309 L 25.65507966967573,7.4237092216464475" fill="none" stroke="rgb(178,0,178)" stroke-width="0.1"/>
  <path d="M 25.65507966967573,7.4237092216464475 L 25.158759248444994,7.359207139585294" fill="none" stroke="rgb(178,0,178)" stroke-width="0.1"/>
  <path d="M 25.158759248444994,7.359207139585294 L 24.662431496312138,7.294761491292945" fill="none" stroke="rgb(178,0,178)" stroke-width="0.1"/>
  <path d="M 24.662431496312138,7.294761491292945 L 24.166096419695123,7.230372277603408" fill="none" stroke="rgb(178,0,178)" stroke-width="0.1"/>
  <path d="M 24.166096419695123,7.230372277603408 L 23.669754025009638,7.166039499348869" fill="none" stroke="rgb(178,0,178)" stroke-width="0.1"/>
  <path d="M 23.669754025009638,7.166039499348869 L 23.173404318671714,7.101763157360608" fill="none" stroke="rgb(178,0,178)" stroke-width="0.1"/>
  <path d="M 23.173404318671714,7.101763157360608 L 22.677047307099542,7.037543252470812" fill="none" stroke="rgb(178,0,178)" stroke-width="0.1"/>
  <path d="M 22.677047307099542,7.037543252470812 L 22.18068299671006,6.97337978550803" fill="none" stroke="rgb(178,0,178)" stroke-width="0.1"/>
  <path d="M 22.18068299671006,6.97337978550803 L 21.684311393920552,6.90927275730354" fill="none" stroke="rgb(178,0,178)" stroke-width="0.1"/>
  <path d="M 21.684311393920552,6.90927275730354 L 21.18793250514841,6.845222168685893" fill="none" stroke="rgb(178,0,178)" stroke-width="0.1"/>
  <path d="M 21.18793250514841,6.845222168685893 L 20.69154633681194,6.781228020481819" fill="none" stroke="rgb(178,0,178)" stroke-width="0.1"/>
  <path d="M 20.69154633681194,6.781228020481819 L 20.195152895326828,6.717290313519868" fill="none" stroke="rgb(178,0,178)" stroke-width="0.1"/>
  <path d="M 20.195152895326828,6.717290313519868 L 19.698752187112518,6.65340904862677" fill="none" stroke="rgb(178,0,178)" stroke-width="0.1"/>
  <path d="M 19.698752187112518,6.65340904862677 L 19.202344218584813,6.589584226626528" fill="none" stroke="rgb(178,0,178)" stroke-width="0.1"/>
  <path d="M 19.202344218584813,6.589584226626528 L 18.70592899616247,6.525815848346781" fill="none" stroke="rgb(178,0,178)" stroke-width="0.1"/>
  <path d="M 18.70592899616247,6.525815848346781 L 18.209506526263453,6.462103914610623" fill="none" stroke="rgb(178,0,178)" stroke-width="0.1"/>
  <path d="M 18.209506526263453,6.462103914610623 L 17.71307681530675,6.398448426242965" fill="none" stroke="rgb(178,0,178)" stroke-width="0.1"/>
  <path d="M 17.71307681530675,6.398448426242965 L 17.216639869708274,6.33484938406508" fill="none" stroke="rgb(178,0,178)" stroke-width="0.1"/>
  <path d="M 17.216639869708274,6.33484938406508 L 16.720195695887355,6.271306788899153" fill="none" stroke="rgb(178,0,178)" stroke-width="0.1"/>
  <path d="M 16.720195695887355,6.271306788899153 L 16.223744300262297,6.207820641569185" fill="none" stroke="rgb(178,0,178)" stroke-width="0.1"/>
  <path d="M 16.223744300262297,6.207820641569185 L 15.727285689252312,6.144390942893722" fill="none" stroke="rgb(178,0,178)" stroke-width="0.1"/>
  <path d="M 15.727285689252312,6.144390942893722 L 15.230819869274,6.081017693693127" fill="none" stroke="rgb(178,0,178)" stroke-width="0.1"/>
  <path d="M 15.230819869274,6.081017693693127 L 14.73434684674669,6.017700894785946" fill="none" stroke="rgb(178,0,178)" stroke-width="0.1"/>
  <path d="M 14.73434684674669,6.017700894785946 L 14.237866628090387,5.954440546993453" fill="none" stroke="rgb(178,0,178)" stroke-width="0.1"/>
  <path d="M 14.237866628090387,5.954440546993453 L 13.741379219721466,5.891236651130555" fill="none" stroke="rgb(178,0,178)" stroke-width="0.1"/>
  <path d="M 13.741379219721466,5.891236651130555 L 13.244884628059935,5.828089208016706" fill="none" stroke="rgb(178,0,178)" stroke-width="0.1"/>
  <path d="M 13.244884628059935,5.828089208016706 L 12.748382859524668,5.764998218466815" fill="none" stroke="rgb(178,0,178)" stroke-width="0.1"/>
  <path d="M 12.748382859524668,5.764998218466815 L 12.251873920534763,5.701963683296697" fill="none" stroke="rgb(178,0,178)" stroke-width="0.1"/>
  <path d="M 12.251873920534763,5.701963683296697 L 11.755357817510003,5.638985603322169" fill="none" stroke="rgb(178,0,178)" stroke-width="0.1"/>
  <path d="M 11.755357817510003,5.638985603322169 L 11.25883455686801,5.57606397935632" fill="none" stroke="rgb(178,0,178)" stroke-width="0.1"/>
  <path d="M 11.25883455686801,5.57606397935632 L 10.76230414502993,5.513198812214057" fill="none" stroke="rgb(178,0,178)" stroke-width="0.1"/>
  <path d="M 10.76230414502993,5.513198812214057 L 10.265766588413044,5.450390102706649" fill="none" stroke="rgb(178,0,178)" stroke-width="0.1"/>
  <path d="M 10.265766588413044,5.450390102706649 L 9.76922189343793,5.387637851646275" fill="none" stroke="rgb(178,0,178)" stroke-width="0.1"/>
  <path d="M 9.76922189343793,5.387637851646275 L 9.272670066524142,5.324942059845114" fill="none" stroke="rgb(178,0,178)" stroke-width="0.1"/>
  <path d="M 9.272670066524142,5.324942059845114 L 8.776111114091236,5.262302728113525" fill="none" stroke="rgb(178,0,178)" stroke-width="0.1"/>
  <path d="M 8.776111114091236,5.262302728113525 L 8.279545042559107,5.199719857260959" fill="none" stroke="rgb(178,0,178)" stroke-width="0.1"/>
  <path d="M 8.279545042559107,5.199719857260959 L 7.782971858347537,5.137193448096866" fill="none" stroke="rgb(178,0,178)" stroke-width="0.1"/>
  <path d="M 7.782971858347537,5.137193448096866 L 7.286391567878354,5.074723501428878" fill="none" stroke="rgb(178,0,178)" stroke-width="0.1"/>
  <path d="M 7.286391567878354,5.074723501428878 L 6.789804177567703,5.012310018065534" fill="none" stroke="rgb(178,0,178)" stroke-width="0.1"/>
  <path d="M 6.789804177567703,5.012310018065534 L 6.293209693837866,4.949952998813558" fill="none" stroke="rgb(178,0,178)" stroke-width="0.1"/>
  <path d="M 6.293209693837866,4.949952998813558 L 5.79660812310874,4.887652444478761" fill="none" stroke="rgb(178,0,178)" stroke-width="0.1"/>
  <path d="M 5.79660812310874,4.887652444478761 L 5.299999471800788,4.825408355866045" fill="none" stroke="rgb(178,0,178)" stroke-width="0.1"/>
  <path d="M 5.299999471800788,4.825408355866045 L 4.803383746334362,4.763220733782134" fill="none" stroke="rgb(178,0,178)" stroke-width="0.1"/>
  <path d="M 4.803383746334362,4.763220733782134 L 4.306760953130038,4.701089579029201" fill="none" stroke="rgb(178,0,178)" stroke-width="0.1"/>
  <path d="M 4.306760953130038,4.701089579029201 L 3.810131098608281,4.6390148924112395" fill="none" stroke="rgb(178,0,178)" stroke-width="0.1"/>
  <path d="M 3.810131098608281,4.6390148924112395 L 3.313494189191715,4.576996674730424" fill="none" stroke="rgb(178,0,178)" stroke-width="0.1"/>
  <path d="M 3.313494189191715,4.576996674730424 L 2.816850231297394,4.515034926788928" fill="none" stroke="rgb(178,0,178)" stroke-width="0.1"/>
  <path d="M 2.816850231297394,4.515034926788928 L 2.320199231347715,4.453129649387108" fill="none" stroke="rgb(178,0,178)" stroke-width="0.1"/>
  <path d="M 2.320199231347715,4.453129649387108 L 1.8235411957640508,4.3912808433262285" fill="none" stroke="rgb(178,0,178)" stroke-width="0.1"/>
  <path d="M 1.8235411957640508,4.3912808433262285 L 1.3268761309672072,4.329488509405735" fill="none" stroke="rgb(178,0,178)" stroke-width="0.1"/>
  <path d="M 1.3268761309672072,4.329488509405735 L 0.8302040433784441,4.267752648424164" fill="none" stroke="rgb(178,0,178)" stroke-width="0.1"/>
  <path d="M 0.8302040433784441,4.267752648424164 L 0.33352493941868033,4.206073261180052" fill="none" stroke="rgb(178,0,178)" stroke-width="0.1"/>
 </g>
 <g id="layer0-金属格栅" inkscape:groupmode="layer" inkscape:label="0-金属格栅">
  <path d="M 62.98320750000005,91.13978099999997 L 65.93620750000002,91.66778099999999" fill="none" stroke="rgb(73,73,73)" stroke-width="0.1"/>
  <path d="M 65.93620750000002,91.66778099999999 L 65.84820750000006,92.15978099999998" fill="none" stroke="rgb(73,73,73)" stroke-width="0.1"/>
  <path d="M 65.84820750000006,92.15978099999998 L 62.89520750000008,91.63178099999999" fill="none" stroke="rgb(73,73,73)" stroke-width="0.1"/>
  <path d="M 62.89520750000008,91.63178099999999 L 62.98320750000005,91.13978099999997" fill="none" stroke="rgb(73,73,73)" stroke-width="0.1"/>
  <path d="M 65.62620750000008,76.37378099999998 L 68.57920750000005,76.90278099999998" fill="none" stroke="rgb(73,73,73)" stroke-width="0.1"/>
  <path d="M 68.57920750000005,76.90278099999998 L 68.49120750000009,77.39478099999997" fill="none" stroke="rgb(73,73,73)" stroke-width="0.1"/>
  <path d="M 68.49120750000009,77.39478099999997 L 65.5382075,76.86578099999997" fill="none" stroke="rgb(73,73,73)" stroke-width="0.1"/>
  <path d="M 65.5382075,76.86578099999997 L 65.62620750000008,76.37378099999998" fill="none" stroke="rgb(73,73,73)" stroke-width="0.1"/>
  <path d="M 68.2692075,61.608780999999965 L 71.22220750000008,62.136780999999985" fill="none" stroke="rgb(73,73,73)" stroke-width="0.1"/>
  <path d="M 71.22220750000008,62.136780999999985 L 71.1342075,62.62978099999998" fill="none" stroke="rgb(73,73,73)" stroke-width="0.1"/>
  <path d="M 71.1342075,62.62978099999998 L 68.18020750000005,62.100780999999984" fill="none" stroke="rgb(73,73,73)" stroke-width="0.1"/>
  <path d="M 68.18020750000005,62.100780999999984 L 68.2692075,61.608780999999965" fill="none" stroke="rgb(73,73,73)" stroke-width="0.1"/>
  <path d="M 70.91120750000005,46.842780999999974 L 73.86420750000002,47.37178099999997" fill="none" stroke="rgb(73,73,73)" stroke-width="0.1"/>
  <path d="M 73.86420750000002,47.37178099999997 L 73.77620750000006,47.86378099999999" fill="none" stroke="rgb(73,73,73)" stroke-width="0.1"/>
  <path d="M 73.77620750000006,47.86378099999999 L 70.82320750000008,47.33578099999997" fill="none" stroke="rgb(73,73,73)" stroke-width="0.1"/>
  <path d="M 70.82320750000008,47.33578099999997 L 70.91120750000005,46.842780999999974" fill="none" stroke="rgb(73,73,73)" stroke-width="0.1"/>
  <path d="M 73.55420750000008,32.07778099999999 L 76.50720750000005,32.606780999999984" fill="none" stroke="rgb(73,73,73)" stroke-width="0.1"/>
  <path d="M 76.50720750000005,32.606780999999984 L 76.41920750000008,33.098780999999974" fill="none" stroke="rgb(73,73,73)" stroke-width="0.1"/>
  <path d="M 76.41920750000008,33.098780999999974 L 73.4662075,32.56978099999998" fill="none" stroke="rgb(73,73,73)" stroke-width="0.1"/>
  <path d="M 73.4662075,32.56978099999998 L 73.55420750000008,32.07778099999999" fill="none" stroke="rgb(73,73,73)" stroke-width="0.1"/>
  <path d="M 53.14420749999999,18.150780999999967 L 53.550207500000056,15.177780999999982" fill="none" stroke="rgb(73,73,73)" stroke-width="0.1"/>
  <path d="M 53.550207500000056,15.177780999999982 L 53.054207500000075,15.110780999999974" fill="none" stroke="rgb(73,73,73)" stroke-width="0.1"/>
  <path d="M 53.054207500000075,15.110780999999974 L 52.64820750000001,18.082780999999983" fill="none" stroke="rgb(73,73,73)" stroke-width="0.1"/>
  <path d="M 52.64820750000001,18.082780999999983 L 53.14420749999999,18.150780999999967" fill="none" stroke="rgb(73,73,73)" stroke-width="0.1"/>
  <path d="M 39.279207499999984,16.27878099999998 L 39.67620750000003,13.304780999999963" fill="none" stroke="rgb(73,73,73)" stroke-width="0.1"/>
  <path d="M 39.67620750000003,13.304780999999963 L 39.18020750000005,13.238780999999989" fill="none" stroke="rgb(73,73,73)" stroke-width="0.1"/>
  <path d="M 39.18020750000005,13.238780999999989 L 38.7832075,16.21278099999998" fill="none" stroke="rgb(73,73,73)" stroke-width="0.1"/>
  <path d="M 38.7832075,16.21278099999998 L 39.279207499999984,16.27878099999998" fill="none" stroke="rgb(73,73,73)" stroke-width="0.1"/>
  <path d="M 25.409207500000093,14.450780999999978 L 25.796207500000037,11.475780999999984" fill="none" stroke="rgb(73,73,73)" stroke-width="0.1"/>
  <path d="M 25.796207500000037,11.475780999999984 L 25.300207500000056,11.410780999999986" fill="none" stroke="rgb(73,73,73)" stroke-width="0.1"/>
  <path d="M 25.300207500000056,11.410780999999986 L 24.9132075,14.38578099999998" fill="none" stroke="rgb(73,73,73)" stroke-width="0.1"/>
  <path d="M 24.9132075,14.38578099999998 L 25.409207500000093,14.450780999999978" fill="none" stroke="rgb(73,73,73)" stroke-width="0.1"/>
  <path d="M 11.036207500000046,12.60378099999997 L 11.414207500000089,9.62778099999997" fill="none" stroke="rgb(73,73,73)" stroke-width="0.1"/>
  <path d="M 11.414207500000089,9.62778099999997 L 11.91020750000007,9.690780999999987" fill="none" stroke="rgb(73,73,73)" stroke-width="0.1"/>
  <path d="M 11.91020750000007,9.690780999999987 L 11.532207500000027,12.666780999999986" fill="none" stroke="rgb(73,73,73)" stroke-width="0.1"/>
  <path d="M 11.532207500000027,12.666780999999986 L 11.036207500000046,12.60378099999997" fill="none" stroke="rgb(73,73,73)" stroke-width="0.1"/>
 </g>
 <g id="layerAXIS" inkscape:groupmode="layer" inkscape:label="AXIS">
  <path d="M 73.86120750000009,78.04178099999999 L 100.0,82.71977556028511" fill="none" stroke="rgb(0,178,0)" stroke-width="0.1"/>
  <path d="M 68.26120750000007,38.94378099999997 L 75.23142030943757,0.0" fill="none" stroke="rgb(0,178,0)" stroke-width="0.1"/>
 </g>
 <g id="layerCOLUMN" inkscape:groupmode="layer" inkscape:label="COLUMN">
  <path d="M 12.63472592127789,100.0 L 15.789207500000089,82.37878099999998" fill="none" instance-id="-1" semantic-id="1" stroke="rgb(178,178,0)" stroke-width="0.1"/>
  <path d="M 15.789207500000089,82.37878099999998 L 10.863207500000044,81.49678099999997" fill="none" instance-id="-1" semantic-id="1" stroke="rgb(178,178,0)" stroke-width="0.1"/>
  <path d="M 10.863207500000044,81.49678099999997 L 7.553785168163699,100.0" fill="none" instance-id="-1" semantic-id="1" stroke="rgb(178,178,0)" stroke-width="0.1"/>
  <path d="M 61.39654408390959,100.0 L 63.0382075,90.83478099999996" fill="none" instance-id="-1" semantic-id="1" stroke="rgb(178,178,0)" stroke-width="0.1"/>
  <path d="M 63.0382075,90.83478099999996 L 58.11620750000009,89.95378099999996" fill="none" instance-id="-1" semantic-id="1" stroke="rgb(178,178,0)" stroke-width="0.1"/>
  <path d="M 58.11620750000009,89.95378099999996 L 56.31797826036677,100.0" fill="none" instance-id="-1" semantic-id="1" stroke="rgb(178,178,0)" stroke-width="0.1"/>
  <path d="M 66.68120750000003,25.070780999999982 L 65.97620749999999,29.01078099999998" fill="none" instance-id="-1" semantic-id="1" stroke="rgb(178,178,0)" stroke-width="0.1"/>
  <path d="M 68.94920750000006,29.42778099999998 L 62.873207500000035,63.376780999999966" fill="none" instance-id="-1" semantic-id="1" stroke="rgb(178,178,0)" stroke-width="0.1"/>
  <path d="M 62.873207500000035,63.376780999999966 L 67.79520750000006,64.25678099999999" fill="none" instance-id="-1" semantic-id="1" stroke="rgb(178,178,0)" stroke-width="0.1"/>
  <path d="M 67.79520750000006,64.25678099999999 L 75.48920750000002,21.263780999999966" fill="none" instance-id="-1" semantic-id="1" stroke="rgb(178,178,0)" stroke-width="0.1"/>
  <path d="M 75.48920750000002,21.263780999999966 L 55.154207499999984,18.521780999999976" fill="none" instance-id="-1" semantic-id="1" stroke="rgb(178,178,0)" stroke-width="0.1"/>
  <path d="M 55.154207499999984,18.521780999999976 L 54.28920750000009,23.35378099999997" fill="none" instance-id="-1" semantic-id="1" stroke="rgb(178,178,0)" stroke-width="0.1"/>
  <path d="M 38.42420750000008,21.15578099999999 L 39.28920750000009,16.32378099999997" fill="none" instance-id="-1" semantic-id="1" stroke="rgb(178,178,0)" stroke-width="0.1"/>
  <path d="M 39.28920750000009,16.32378099999997 L 22.9372075,14.057780999999977" fill="none" instance-id="-1" semantic-id="1" stroke="rgb(178,178,0)" stroke-width="0.1"/>
  <path d="M 22.9372075,14.057780999999977 L 18.70720749999998,37.69378099999997" fill="none" instance-id="-1" semantic-id="1" stroke="rgb(178,178,0)" stroke-width="0.1"/>
  <path d="M 18.70720749999998,37.69378099999997 L 23.62820750000003,38.57478099999997" fill="none" instance-id="-1" semantic-id="1" stroke="rgb(178,178,0)" stroke-width="0.1"/>
  <path d="M 23.62820750000003,38.57478099999997 L 27.028207500000008,19.577780999999987" fill="none" instance-id="-1" semantic-id="1" stroke="rgb(178,178,0)" stroke-width="0.1"/>
  <path d="M 27.028207500000008,19.577780999999987 L 38.42420750000008,21.15578099999999" fill="none" instance-id="-1" semantic-id="1" stroke="rgb(178,178,0)" stroke-width="0.1"/>
  <path d="M 66.68120750000003,25.070780999999982 A 4389.75,4389.75 0.0 0,0 54.28920750000009,23.35378099999997" fill="none" instance-id="-1" semantic-id="1" stroke="rgb(178,178,0)" stroke-width="0.1"/>
 </g>
 <g id="layerDIM_SYMB" inkscape:groupmode="layer" inkscape:label="DIM_SYMB">
  <path d="M 51.58320750000007,68.26278099999999 L 57.758207500000026,33.761780999999985" fill="none" stroke="rgb(0,178,0)" stroke-width="0.1"/>
  <path d="M 57.758207500000026,33.761780999999985 L 35.609207500000025,29.797780999999986" fill="none" stroke="rgb(0,178,0)" stroke-width="0.1"/>
  <path d="M 35.609207500000025,29.797780999999986 L 32.85820750000005,45.17178099999998" fill="none" stroke="rgb(0,178,0)" stroke-width="0.1"/>
  <path d="M 32.85820750000005,45.17178099999998 L 32.06620750000002,49.60178099999999" fill="none" stroke="rgb(0,178,0)" stroke-width="0.1"/>
  <path d="M 29.4372075,64.29978099999997 L 30.863207500000044,56.32678099999998" fill="none" stroke="rgb(0,178,0)" stroke-width="0.1"/>
  <path d="M 30.863207500000044,56.32678099999998 L 31.65620750000005,51.896780999999976" fill="none" stroke="rgb(0,178,0)" stroke-width="0.1"/>
 </g>
 <g id="layerPUB_HATCH" inkscape:groupmode="layer" inkscape:label="PUB_HATCH">
  <path d="M 66.68120750000003,25.070780999999982 L 65.97620749999999,29.01078099999998" fill="none" instance-id="-1" semantic-id="1" stroke="rgb(63,63,63)" stroke-width="0.1"/>
  <path d="M 68.94920750000006,29.42778099999998 A 4385.75,4385.75 0.0 0,0 65.97620749999999,29.01078099999998" fill="none" instance-id="-1" semantic-id="1" stroke="rgb(63,63,63)" stroke-width="0.1"/>
  <path d="M 68.94920750000006,29.42778099999998 L 62.873207500000035,63.376780999999966" fill="none" instance-id="-1" semantic-id="1" stroke="rgb(63,63,63)" stroke-width="0.1"/>
  <path d="M 62.873207500000035,63.376780999999966 L 67.79520750000006,64.25678099999999" fill="none" instance-id="-1" semantic-id="1" stroke="rgb(63,63,63)" stroke-width="0.1"/>
  <path d="M 67.79520750000006,64.25678099999999 L 75.48920750000002,21.263780999999966" fill="none" instance-id="-1" semantic-id="1" stroke="rgb(63,63,63)" stroke-width="0.1"/>
  <path d="M 75.48920750000002,21.263780999999966 L 55.154207499999984,18.521780999999976" fill="none" instance-id="-1" semantic-id="1" stroke="rgb(63,63,63)" stroke-width="0.1"/>
  <path d="M 55.154207499999984,18.521780999999976 L 54.28920750000009,23.35378099999997" fill="none" instance-id="-1" semantic-id="1" stroke="rgb(63,63,63)" stroke-width="0.1"/>
  <path d="M 66.68120750000003,25.070780999999982 A 4389.75,4389.75 0.0 0,0 54.28920750000009,23.35378099999997" fill="none" instance-id="-1" semantic-id="1" stroke="rgb(63,63,63)" stroke-width="0.1"/>
  <path d="M 12.63472592127789,100.0 L 15.789207500000089,82.37878099999998" fill="none" instance-id="-1" semantic-id="1" stroke="rgb(63,63,63)" stroke-width="0.1"/>
  <path d="M 15.789207500000089,82.37878099999998 L 10.863207500000044,81.49678099999997" fill="none" instance-id="-1" semantic-id="1" stroke="rgb(63,63,63)" stroke-width="0.1"/>
  <path d="M 10.863207500000044,81.49678099999997 L 7.553785168163699,100.0" fill="none" instance-id="-1" semantic-id="1" stroke="rgb(63,63,63)" stroke-width="0.1"/>
  <path d="M 61.39654408390959,100.0 L 63.0382075,90.83478099999996" fill="none" instance-id="-1" semantic-id="1" stroke="rgb(63,63,63)" stroke-width="0.1"/>
  <path d="M 63.0382075,90.83478099999996 L 58.11620750000009,89.95378099999996" fill="none" instance-id="-1" semantic-id="1" stroke="rgb(63,63,63)" stroke-width="0.1"/>
  <path d="M 58.11620750000009,89.95378099999996 L 56.31797826036677,100.0" fill="none" instance-id="-1" semantic-id="1" stroke="rgb(63,63,63)" stroke-width="0.1"/>
  <path d="M 38.42420750000008,21.15578099999999 L 39.28920750000009,16.32378099999997" fill="none" instance-id="-1" semantic-id="1" stroke="rgb(63,63,63)" stroke-width="0.1"/>
  <path d="M 39.28920750000009,16.32378099999997 L 22.9372075,14.057780999999977" fill="none" instance-id="-1" semantic-id="1" stroke="rgb(63,63,63)" stroke-width="0.1"/>
  <path d="M 22.9372075,14.057780999999977 L 18.70720749999998,37.69378099999997" fill="none" instance-id="-1" semantic-id="1" stroke="rgb(63,63,63)" stroke-width="0.1"/>
  <path d="M 18.70720749999998,37.69378099999997 L 23.62820750000003,38.57478099999997" fill="none" instance-id="-1" semantic-id="1" stroke="rgb(63,63,63)" stroke-width="0.1"/>
  <path d="M 23.62820750000003,38.57478099999997 L 27.028207500000008,19.577780999999987" fill="none" instance-id="-1" semantic-id="1" stroke="rgb(63,63,63)" stroke-width="0.1"/>
  <path d="M 27.028207500000008,19.577780999999987 L 38.42420750000008,21.15578099999999" fill="none" instance-id="-1" semantic-id="1" stroke="rgb(63,63,63)" stroke-width="0.1"/>
 </g>
 <g id="layerPUB_TEXT" inkscape:groupmode="layer" inkscape:label="PUB_TEXT">
  <text fill="rgb(0,178,0)" font-family="Noto Sans CJK SC" font-size="2" transform="rotate(-349.853,20.452207499999986,92.12278099999997)" x="20.452207499999986" y="92.12278099999997">
   LTB1
  </text>
  <text fill="rgb(0,0,0)" font-family="Noto Sans CJK SC" font-size="2" transform="rotate(-339.753,43.786207500000046,72.63578099999998)" x="43.786207500000046" y="72.63578099999998">
   下
  </text>
  <text fill="rgb(0,0,0)" font-family="Noto Sans CJK SC" font-size="2" transform="rotate(-339.753,47.244207500000016,73.91078099999999)" x="47.244207500000016" y="73.91078099999999">
   18
  </text>
  <text fill="rgb(0,0,0)" font-family="Noto Sans CJK SC" font-size="2" transform="rotate(-339.753,52.31020750000005,75.77978099999999)" x="52.31020750000005" y="75.77978099999999">
   级
  </text>
  <text fill="rgb(0,0,0)" font-family="Noto Sans CJK SC" font-size="2" transform="rotate(-339.753,21.639207499999998,68.67178099999998)" x="21.639207499999998" y="68.67178099999998">
   上
  </text>
  <text fill="rgb(0,0,0)" font-family="Noto Sans CJK SC" font-size="2" transform="rotate(-339.753,25.09720750000008,69.94778099999996)" x="25.09720750000008" y="69.94778099999996">
   18
  </text>
  <text fill="rgb(0,0,0)" font-family="Noto Sans CJK SC" font-size="2" transform="rotate(-339.753,30.16420750000009,71.81678099999996)" x="30.16420750000009" y="71.81678099999996">
   级
  </text>
 </g>
 <g id="layerSTAIR" inkscape:groupmode="layer" inkscape:label="STAIR">
  <path d="M 55.026207500000055,19.499780999999984 L 39.085207500000024,17.464780999999988" fill="none" instance-id="3" semantic-id="9" stroke="rgb(178,88,0)" stroke-width="0.1"/>
  <path d="M 55.15220750000003,18.507780999999966 L 39.26120750000007,16.47878099999997" fill="none" instance-id="3" semantic-id="9" stroke="rgb(178,88,0)" stroke-width="0.1"/>
  <path d="M 55.08920750000004,19.003780999999975 L 39.17320749999999,16.971780999999964" fill="none" instance-id="3" semantic-id="9" stroke="rgb(178,88,0)" stroke-width="0.1"/>
  <path d="M 20.18320749999998,61.221780999999964 L 39.18120750000003,64.62178099999997" fill="none" instance-id="2" semantic-id="30" stroke="rgb(178,88,0)" stroke-width="0.1"/>
  <path d="M 20.676207500000032,58.465780999999964 L 39.67420750000008,61.86578099999997" fill="none" instance-id="2" semantic-id="30" stroke="rgb(178,88,0)" stroke-width="0.1"/>
  <path d="M 21.169207500000084,55.709780999999964 L 40.16720750000002,59.108780999999965" fill="none" instance-id="2" semantic-id="30" stroke="rgb(178,88,0)" stroke-width="0.1"/>
  <path d="M 21.662207500000022,52.95278099999999 L 22.48920750000002,53.100780999999984" fill="none" instance-id="2" semantic-id="30" stroke="rgb(178,88,0)" stroke-width="0.1"/>
  <path d="M 24.557207500000004,53.47078099999999 L 40.661207500000046,56.352780999999965" fill="none" instance-id="2" semantic-id="30" stroke="rgb(178,88,0)" stroke-width="0.1"/>
  <path d="M 22.15620750000005,50.19678099999999 L 28.075207500000033,51.255780999999985" fill="none" instance-id="2" semantic-id="30" stroke="rgb(178,88,0)" stroke-width="0.1"/>
  <path d="M 30.143207500000017,51.62578099999999 L 41.154207499999984,53.596780999999964" fill="none" instance-id="2" semantic-id="30" stroke="rgb(178,88,0)" stroke-width="0.1"/>
  <path d="M 22.64920749999999,47.44078099999999 L 33.66020750000007,49.410780999999986" fill="none" instance-id="2" semantic-id="30" stroke="rgb(178,88,0)" stroke-width="0.1"/>
  <path d="M 35.72820750000005,49.78078099999999 L 41.647207500000036,50.840780999999964" fill="none" instance-id="2" semantic-id="30" stroke="rgb(178,88,0)" stroke-width="0.1"/>
  <path d="M 23.14220750000004,44.68478099999999 L 39.24520749999999,47.56578099999999" fill="none" instance-id="2" semantic-id="30" stroke="rgb(178,88,0)" stroke-width="0.1"/>
  <path d="M 41.31320750000009,47.93678099999997 L 42.14020750000009,48.08378099999999" fill="none" instance-id="2" semantic-id="30" stroke="rgb(178,88,0)" stroke-width="0.1"/>
  <path d="M 23.635207500000092,41.92778099999998 L 42.633207500000026,45.32778099999999" fill="none" instance-id="2" semantic-id="30" stroke="rgb(178,88,0)" stroke-width="0.1"/>
  <path d="M 24.129207500000007,39.17178099999998 L 43.127207500000054,42.57178099999999" fill="none" instance-id="2" semantic-id="30" stroke="rgb(178,88,0)" stroke-width="0.1"/>
  <path d="M 39.77120750000006,64.72678099999999 L 42.86820750000004,47.422780999999986" fill="none" instance-id="2" semantic-id="30" stroke="rgb(178,88,0)" stroke-width="0.1"/>
  <path d="M 43.068207500000085,46.30378099999999 L 43.717207500000086,42.67778099999998" fill="none" instance-id="2" semantic-id="30" stroke="rgb(178,88,0)" stroke-width="0.1"/>
  <path d="M 19.592207500000086,61.11578099999997 L 20.734207500000025,54.733780999999965" fill="none" instance-id="2" semantic-id="30" stroke="rgb(178,88,0)" stroke-width="0.1"/>
  <path d="M 20.93420750000007,53.614780999999965 L 23.5382075,39.06678099999996" fill="none" instance-id="2" semantic-id="30" stroke="rgb(178,88,0)" stroke-width="0.1"/>
  <path d="M 20.93420750000007,53.614780999999965 L 31.019207499999993,50.283780999999976" fill="none" instance-id="2" semantic-id="30" stroke="rgb(178,88,0)" stroke-width="0.1"/>
  <path d="M 20.734207500000025,54.733780999999965 L 31.078207500000076,51.31678099999996" fill="none" instance-id="2" semantic-id="30" stroke="rgb(178,88,0)" stroke-width="0.1"/>
  <path d="M 31.078207500000076,51.31678099999996 L 30.976207499999987,49.535780999999986" fill="none" instance-id="2" semantic-id="30" stroke="rgb(178,88,0)" stroke-width="0.1"/>
  <path d="M 30.976207499999987,49.535780999999986 L 32.64220750000004,51.64778099999998" fill="none" instance-id="2" semantic-id="30" stroke="rgb(178,88,0)" stroke-width="0.1"/>
  <path d="M 32.64220750000004,51.64778099999998 L 32.53520750000007,49.78278099999997" fill="none" instance-id="2" semantic-id="30" stroke="rgb(178,88,0)" stroke-width="0.1"/>
  <path d="M 32.53520750000007,49.78278099999997 L 43.068207500000085,46.30378099999999" fill="none" instance-id="2" semantic-id="30" stroke="rgb(178,88,0)" stroke-width="0.1"/>
  <path d="M 32.59420750000004,50.81678099999996 L 42.86820750000004,47.422780999999986" fill="none" instance-id="2" semantic-id="30" stroke="rgb(178,88,0)" stroke-width="0.1"/>
  <path d="M 65.27520750000008,46.535780999999986 L 46.27720750000003,43.13578099999998" fill="none" instance-id="2" semantic-id="30" stroke="rgb(178,88,0)" stroke-width="0.1"/>
  <path d="M 64.78220750000003,49.291780999999986 L 45.7832075,45.89178099999998" fill="none" instance-id="2" semantic-id="30" stroke="rgb(178,88,0)" stroke-width="0.1"/>
  <path d="M 64.2882075,52.047780999999986 L 45.290207500000065,48.64778099999998" fill="none" instance-id="2" semantic-id="30" stroke="rgb(178,88,0)" stroke-width="0.1"/>
  <path d="M 63.79520750000006,54.80378099999999 L 44.79720750000001,51.40378099999998" fill="none" instance-id="2" semantic-id="30" stroke="rgb(178,88,0)" stroke-width="0.1"/>
  <path d="M 63.30220750000001,57.55978099999999 L 44.304207500000075,54.160780999999986" fill="none" instance-id="2" semantic-id="30" stroke="rgb(178,88,0)" stroke-width="0.1"/>
  <path d="M 62.80920750000007,60.31678099999996 L 43.81120750000002,56.916780999999986" fill="none" instance-id="2" semantic-id="30" stroke="rgb(178,88,0)" stroke-width="0.1"/>
  <path d="M 62.31520750000004,63.072780999999964 L 43.317207499999995,59.672780999999986" fill="none" instance-id="2" semantic-id="30" stroke="rgb(178,88,0)" stroke-width="0.1"/>
  <path d="M 61.82220749999999,65.82878099999996 L 42.82420750000006,62.42878099999999" fill="none" instance-id="2" semantic-id="30" stroke="rgb(178,88,0)" stroke-width="0.1"/>
  <path d="M 61.32920750000005,68.58478099999996 L 42.331207500000005,65.18478099999999" fill="none" instance-id="2" semantic-id="30" stroke="rgb(178,88,0)" stroke-width="0.1"/>
  <path d="M 45.68620750000002,43.029780999999986 L 41.7402075,65.07978099999997" fill="none" instance-id="2" semantic-id="30" stroke="rgb(178,88,0)" stroke-width="0.1"/>
  <path d="M 65.8652075,46.640780999999976 L 61.92020750000006,68.69078099999999" fill="none" instance-id="2" semantic-id="30" stroke="rgb(178,88,0)" stroke-width="0.1"/>
  <path d="M 42.067207499999995,66.66178099999999 L 38.91720750000002,66.09778099999997" fill="none" instance-id="2" semantic-id="30" stroke="rgb(178,88,0)" stroke-width="0.1"/>
  <path d="M 38.91720750000002,66.09778099999997 L 42.220207500000015,47.636780999999985" fill="none" instance-id="2" semantic-id="30" stroke="rgb(178,88,0)" stroke-width="0.1"/>
  <path d="M 42.42120750000004,46.517780999999985 L 43.391207500000064,41.09478099999998" fill="none" instance-id="2" semantic-id="30" stroke="rgb(178,88,0)" stroke-width="0.1"/>
  <path d="M 43.391207500000064,41.09478099999998 L 46.54120750000004,41.658780999999976" fill="none" instance-id="2" semantic-id="30" stroke="rgb(178,88,0)" stroke-width="0.1"/>
  <path d="M 46.54120750000004,41.658780999999976 L 42.067207499999995,66.66178099999999" fill="none" instance-id="2" semantic-id="30" stroke="rgb(178,88,0)" stroke-width="0.1"/>
  <path d="M 41.58220749999998,65.96578099999996 L 39.613207500000044,65.61278099999998" fill="none" instance-id="2" semantic-id="30" stroke="rgb(178,88,0)" stroke-width="0.1"/>
  <path d="M 39.613207500000044,65.61278099999998 L 42.86820750000004,47.422780999999986" fill="none" instance-id="2" semantic-id="30" stroke="rgb(178,88,0)" stroke-width="0.1"/>
  <path d="M 43.068207500000085,46.30378099999999 L 43.87620750000008,41.791780999999986" fill="none" instance-id="2" semantic-id="30" stroke="rgb(178,88,0)" stroke-width="0.1"/>
  <path d="M 43.87620750000008,41.791780999999986 L 45.845207500000015,42.14378099999999" fill="none" instance-id="2" semantic-id="30" stroke="rgb(178,88,0)" stroke-width="0.1"/>
  <path d="M 45.845207500000015,42.14378099999999 L 41.58220749999998,65.96578099999996" fill="none" instance-id="2" semantic-id="30" stroke="rgb(178,88,0)" stroke-width="0.1"/>
  <path d="M 19.328207500000076,62.592780999999974 L 20.734207500000025,54.733780999999965" fill="none" instance-id="2" semantic-id="30" stroke="rgb(178,88,0)" stroke-width="0.1"/>
  <path d="M 20.93420750000007,53.614780999999965 L 23.74920750000001,37.884780999999975" fill="none" instance-id="2" semantic-id="30" stroke="rgb(178,88,0)" stroke-width="0.1"/>
  <path d="M 19.918207499999994,62.69878099999997 L 21.38220750000005,54.519780999999966" fill="none" instance-id="2" semantic-id="30" stroke="rgb(178,88,0)" stroke-width="0.1"/>
  <path d="M 21.58220749999998,53.40078099999997 L 24.34020750000002,37.99078099999997" fill="none" instance-id="2" semantic-id="30" stroke="rgb(178,88,0)" stroke-width="0.1"/>
  <path d="M 19.328207500000076,62.592780999999974 L 19.918207499999994,62.69878099999997" fill="none" instance-id="2" semantic-id="30" stroke="rgb(178,88,0)" stroke-width="0.1"/>
  <path d="M 23.74920750000001,37.884780999999975 L 24.34020750000002,37.99078099999997" fill="none" instance-id="2" semantic-id="30" stroke="rgb(178,88,0)" stroke-width="0.1"/>
  <path d="M 66.07720749999999,45.459780999999964 L 61.655207500000074,70.16678099999999" fill="none" instance-id="2" semantic-id="30" stroke="rgb(178,88,0)" stroke-width="0.1"/>
  <path d="M 65.48620750000009,45.35378099999997 L 61.06520750000004,70.06178099999997" fill="none" instance-id="2" semantic-id="30" stroke="rgb(178,88,0)" stroke-width="0.1"/>
  <path d="M 66.07720749999999,45.459780999999964 L 65.48620750000009,45.35378099999997" fill="none" instance-id="2" semantic-id="30" stroke="rgb(178,88,0)" stroke-width="0.1"/>
  <path d="M 61.655207500000074,70.16678099999999 L 61.06520750000004,70.06178099999997" fill="none" instance-id="2" semantic-id="30" stroke="rgb(178,88,0)" stroke-width="0.1"/>
  <path d="M 43.717207500000086,42.67778099999998 L 45.68620750000002,43.029780999999986" fill="none" instance-id="2" semantic-id="30" stroke="rgb(178,88,0)" stroke-width="0.1"/>
  <path d="M 39.77120750000006,64.72678099999999 L 41.7402075,65.07978099999997" fill="none" instance-id="2" semantic-id="30" stroke="rgb(178,88,0)" stroke-width="0.1"/>
  <path d="M 65.8652075,46.64178099999998 A 20.4976,20.4976 0.0 0,0 49.300207500000056,22.852780999999965" fill="none" instance-id="2" semantic-id="30" stroke="rgb(178,88,0)" stroke-width="0.1"/>
  <path d="M 47.32920750000005,22.50078099999999 A 20.4976,20.4976 0.0 0,0 23.540207500000065,39.06678099999996" fill="none" instance-id="2" semantic-id="30" stroke="rgb(178,88,0)" stroke-width="0.1"/>
 </g>
 <g id="layerWALL" inkscape:groupmode="layer" inkscape:label="WALL">
  <path d="M 46.8842075,87.43478099999999 L 44.63559385689496,100.0" fill="none" instance-id="-1" semantic-id="1" stroke="rgb(178,178,0)" stroke-width="0.1"/>
  <path d="M 45.26820750000002,85.11378099999999 L 42.60376391013517,100.0" fill="none" instance-id="-1" semantic-id="1" stroke="rgb(178,178,0)" stroke-width="0.1"/>
  <path d="M 58.20420750000005,89.46078099999997 L 46.8842075,87.43478099999999" fill="none" instance-id="-1" semantic-id="1" stroke="rgb(178,178,0)" stroke-width="0.1"/>
  <path d="M 58.56020750000005,87.49278099999998 L 45.26820750000002,85.11378099999999" fill="none" instance-id="-1" semantic-id="1" stroke="rgb(178,178,0)" stroke-width="0.1"/>
  <path d="M 60.349207500000034,88.82878099999996 L 60.085207500000024,90.30678099999997" fill="none" instance-id="-1" semantic-id="1" stroke="rgb(178,178,0)" stroke-width="0.1"/>
  <path d="M 58.20420750000005,89.46078099999997 L 57.7642075,91.91978099999997" fill="none" instance-id="-1" semantic-id="1" stroke="rgb(178,178,0)" stroke-width="0.1"/>
  <path d="M 7.5514275892722935,100.0 L 7.8092075000000705,98.55978099999999" fill="none" instance-id="-1" semantic-id="1" stroke="rgb(178,178,0)" stroke-width="0.1"/>
  <path d="M 58.56020750000005,87.49278099999998 L 62.877207500000054,63.376780999999966" fill="none" instance-id="-1" semantic-id="1" stroke="rgb(178,178,0)" stroke-width="0.1"/>
  <path d="M 60.35320750000005,88.82978099999997 L 64.84520750000001,63.729780999999974" fill="none" instance-id="-1" semantic-id="1" stroke="rgb(178,178,0)" stroke-width="0.1"/>
  <path d="M 61.06920750000006,90.48278099999999 L 65.82620750000001,63.904780999999986" fill="none" instance-id="-1" semantic-id="1" stroke="rgb(178,178,0)" stroke-width="0.1"/>
  <path d="M 61.39798957370988,100.0 L 63.0382075,90.83478099999996" fill="none" instance-id="-1" semantic-id="1" stroke="rgb(178,178,0)" stroke-width="0.1"/>
  <path d="M 63.0382075,90.83478099999996 L 67.79520750000006,64.25678099999999" fill="none" instance-id="-1" semantic-id="1" stroke="rgb(178,178,0)" stroke-width="0.1"/>
  <path d="M 7.8092075000000705,98.55978099999999 L 10.863207500000044,81.49678099999997" fill="none" instance-id="-1" semantic-id="1" stroke="rgb(178,178,0)" stroke-width="0.1"/>
  <path d="M 10.863207500000044,81.49678099999997 L 18.703207500000076,37.69278099999997" fill="none" instance-id="-1" semantic-id="1" stroke="rgb(178,178,0)" stroke-width="0.1"/>
  <path d="M 12.832207499999981,81.84878099999997 L 20.672207500000013,38.04478099999997" fill="none" instance-id="-1" semantic-id="1" stroke="rgb(178,178,0)" stroke-width="0.1"/>
  <path d="M 13.816207500000019,82.02578099999997 L 21.65620750000005,38.221780999999964" fill="none" instance-id="-1" semantic-id="1" stroke="rgb(178,178,0)" stroke-width="0.1"/>
  <path d="M 15.78520750000007,82.37778099999997 L 23.625207499999988,38.57378099999997" fill="none" instance-id="-1" semantic-id="1" stroke="rgb(178,178,0)" stroke-width="0.1"/>
  <path d="M 22.57220749999999,16.098780999999974 L 22.074473839986467,16.0343209712384" fill="none" instance-id="-1" semantic-id="1" stroke="rgb(178,178,0)" stroke-width="0.1"/>
  <path d="M 22.074473839986467,16.0343209712384 L 21.576732818388678,15.969917811078801" fill="none" instance-id="-1" semantic-id="1" stroke="rgb(178,178,0)" stroke-width="0.1"/>
  <path d="M 21.576732818388678,15.969917811078801 L 21.07898444170644,15.905571520362344" fill="none" instance-id="-1" semantic-id="1" stroke="rgb(178,178,0)" stroke-width="0.1"/>
  <path d="M 21.07898444170644,15.905571520362344 L 20.581228716435476,15.841282099928492" fill="none" instance-id="-1" semantic-id="1" stroke="rgb(178,178,0)" stroke-width="0.1"/>
  <path d="M 20.581228716435476,15.841282099928492 L 20.083465649075265,15.77704955061671" fill="none" instance-id="-1" semantic-id="1" stroke="rgb(178,178,0)" stroke-width="0.1"/>
  <path d="M 20.083465649075265,15.77704955061671 L 19.585695246121986,15.71287387326646" fill="none" instance-id="-1" semantic-id="1" stroke="rgb(178,178,0)" stroke-width="0.1"/>
  <path d="M 19.585695246121986,15.71287387326646 L 19.087917514075343,15.648755068714479" fill="none" instance-id="-1" semantic-id="1" stroke="rgb(178,178,0)" stroke-width="0.1"/>
  <path d="M 19.087917514075343,15.648755068714479 L 18.590132459432084,15.58469313779841" fill="none" instance-id="-1" semantic-id="1" stroke="rgb(178,178,0)" stroke-width="0.1"/>
  <path d="M 18.590132459432084,15.58469313779841 L 18.092340088689866,15.520688081353171" fill="none" instance-id="-1" semantic-id="1" stroke="rgb(178,178,0)" stroke-width="0.1"/>
  <path d="M 18.092340088689866,15.520688081353171 L 17.594540408348394,15.456739900215496" fill="none" instance-id="-1" semantic-id="1" stroke="rgb(178,178,0)" stroke-width="0.1"/>
  <path d="M 17.594540408348394,15.456739900215496 L 17.0967334249043,15.39284859522121" fill="none" instance-id="-1" semantic-id="1" stroke="rgb(178,178,0)" stroke-width="0.1"/>
  <path d="M 17.0967334249043,15.39284859522121 L 16.59891914485786,15.329014167201592" fill="none" instance-id="-1" semantic-id="1" stroke="rgb(178,178,0)" stroke-width="0.1"/>
  <path d="M 16.59891914485786,15.329014167201592 L 16.101097574705477,15.265236616991558" fill="none" instance-id="-1" semantic-id="1" stroke="rgb(178,178,0)" stroke-width="0.1"/>
  <path d="M 16.101097574705477,15.265236616991558 L 15.603268720947767,15.201515945423296" fill="none" instance-id="-1" semantic-id="1" stroke="rgb(178,178,0)" stroke-width="0.1"/>
  <path d="M 15.603268720947767,15.201515945423296 L 15.105432590081477,15.137852153328993" fill="none" instance-id="-1" semantic-id="1" stroke="rgb(178,178,0)" stroke-width="0.1"/>
  <path d="M 15.105432590081477,15.137852153328993 L 14.607589188607221,15.074245241540837" fill="none" instance-id="-1" semantic-id="1" stroke="rgb(178,178,0)" stroke-width="0.1"/>
  <path d="M 14.607589188607221,15.074245241540837 L 14.109738523023111,15.010695210886468" fill="none" instance-id="-1" semantic-id="1" stroke="rgb(178,178,0)" stroke-width="0.1"/>
  <path d="M 14.109738523023111,15.010695210886468 L 13.611880599826804,14.947202062196254" fill="none" instance-id="-1" semantic-id="1" stroke="rgb(178,178,0)" stroke-width="0.1"/>
  <path d="M 13.611880599826804,14.947202062196254 L 13.114015425519597,14.883765796301475" fill="none" instance-id="-1" semantic-id="1" stroke="rgb(178,178,0)" stroke-width="0.1"/>
  <path d="M 13.114015425519597,14.883765796301475 L 12.616143006597554,14.820386414027041" fill="none" instance-id="-1" semantic-id="1" stroke="rgb(178,178,0)" stroke-width="0.1"/>
  <path d="M 12.616143006597554,14.820386414027041 L 12.118263349564813,14.757063916202412" fill="none" instance-id="-1" semantic-id="1" stroke="rgb(178,178,0)" stroke-width="0.1"/>
  <path d="M 12.118263349564813,14.757063916202412 L 11.62037646091494,14.6937983036525" fill="none" instance-id="-1" semantic-id="1" stroke="rgb(178,178,0)" stroke-width="0.1"/>
  <path d="M 11.62037646091494,14.6937983036525 L 11.122482347152072,14.630589577204944" fill="none" instance-id="-1" semantic-id="1" stroke="rgb(178,178,0)" stroke-width="0.1"/>
  <path d="M 11.122482347152072,14.630589577204944 L 10.62458101477398,14.567437737683747" fill="none" instance-id="-1" semantic-id="1" stroke="rgb(178,178,0)" stroke-width="0.1"/>
  <path d="M 10.62458101477398,14.567437737683747 L 10.126672470279345,14.50434278591382" fill="none" instance-id="-1" semantic-id="1" stroke="rgb(178,178,0)" stroke-width="0.1"/>
  <path d="M 10.126672470279345,14.50434278591382 L 9.628756720169577,14.441304722718257" fill="none" instance-id="-1" semantic-id="1" stroke="rgb(178,178,0)" stroke-width="0.1"/>
  <path d="M 9.628756720169577,14.441304722718257 L 9.130833770942672,14.37832354892106" fill="none" instance-id="-1" semantic-id="1" stroke="rgb(178,178,0)" stroke-width="0.1"/>
  <path d="M 9.130833770942672,14.37832354892106 L 8.632903629100497,14.315399265342592" fill="none" instance-id="-1" semantic-id="1" stroke="rgb(178,178,0)" stroke-width="0.1"/>
  <path d="M 8.632903629100497,14.315399265342592 L 8.134966301141048,14.252531872805946" fill="none" instance-id="-1" semantic-id="1" stroke="rgb(178,178,0)" stroke-width="0.1"/>
  <path d="M 8.134966301141048,14.252531872805946 L 7.637021793566532,14.189721372130577" fill="none" instance-id="-1" semantic-id="1" stroke="rgb(178,178,0)" stroke-width="0.1"/>
  <path d="M 7.637021793566532,14.189721372130577 L 7.1390701128758565,14.12696776413776" fill="none" instance-id="-1" semantic-id="1" stroke="rgb(178,178,0)" stroke-width="0.1"/>
  <path d="M 7.1390701128758565,14.12696776413776 L 6.641111265568497,14.064271049646038" fill="none" instance-id="-1" semantic-id="1" stroke="rgb(178,178,0)" stroke-width="0.1"/>
  <path d="M 6.641111265568497,14.064271049646038 L 6.143145258146774,14.001631229473048" fill="none" instance-id="-1" semantic-id="1" stroke="rgb(178,178,0)" stroke-width="0.1"/>
  <path d="M 6.143145258146774,14.001631229473048 L 5.645172097109253,13.939048304437335" fill="none" instance-id="-1" semantic-id="1" stroke="rgb(178,178,0)" stroke-width="0.1"/>
  <path d="M 5.645172097109253,13.939048304437335 L 5.1471917889583665,13.876522275355626" fill="none" instance-id="-1" semantic-id="1" stroke="rgb(178,178,0)" stroke-width="0.1"/>
  <path d="M 5.1471917889583665,13.876522275355626 L 4.6492043401929095,13.814053143044646" fill="none" instance-id="-1" semantic-id="1" stroke="rgb(178,178,0)" stroke-width="0.1"/>
  <path d="M 4.6492043401929095,13.814053143044646 L 4.151209757315428,13.751640908318393" fill="none" instance-id="-1" semantic-id="1" stroke="rgb(178,178,0)" stroke-width="0.1"/>
  <path d="M 4.151209757315428,13.751640908318393 L 3.653208046825739,13.689285571993594" fill="none" instance-id="-1" semantic-id="1" stroke="rgb(178,178,0)" stroke-width="0.1"/>
  <path d="M 3.653208046825739,13.689285571993594 L 3.155199215224002,13.626987134883336" fill="none" instance-id="-1" semantic-id="1" stroke="rgb(178,178,0)" stroke-width="0.1"/>
  <path d="M 3.155199215224002,13.626987134883336 L 2.657183269013103,13.5647455977998" fill="none" instance-id="-1" semantic-id="1" stroke="rgb(178,178,0)" stroke-width="0.1"/>
  <path d="M 2.657183269013103,13.5647455977998 L 2.1591602146922924,13.50256096155789" fill="none" instance-id="-1" semantic-id="1" stroke="rgb(178,178,0)" stroke-width="0.1"/>
  <path d="M 2.1591602146922924,13.50256096155789 L 1.66113005876457,13.440433226967059" fill="none" instance-id="-1" semantic-id="1" stroke="rgb(178,178,0)" stroke-width="0.1"/>
  <path d="M 1.66113005876457,13.440433226967059 L 1.1630928077292992,13.378362394839485" fill="none" instance-id="-1" semantic-id="1" stroke="rgb(178,178,0)" stroke-width="0.1"/>
  <path d="M 1.1630928077292992,13.378362394839485 L 0.6650484680899353,13.316348465984618" fill="none" instance-id="-1" semantic-id="1" stroke="rgb(178,178,0)" stroke-width="0.1"/>
  <path d="M 0.6650484680899353,13.316348465984618 L 0.1669970463459549,13.254391441212817" fill="none" instance-id="-1" semantic-id="1" stroke="rgb(178,178,0)" stroke-width="0.1"/>
  <path d="M 22.92420750000008,14.12778099999997 L 22.424056252766377,14.062999816225044" fill="none" instance-id="-1" semantic-id="1" stroke="rgb(178,178,0)" stroke-width="0.1"/>
  <path d="M 22.424056252766377,14.062999816225044 L 21.92389757472074,13.998276028824137" fill="none" instance-id="-1" semantic-id="1" stroke="rgb(178,178,0)" stroke-width="0.1"/>
  <path d="M 21.92389757472074,13.998276028824137 L 21.423731472447912,13.933609638651603" fill="none" instance-id="-1" semantic-id="1" stroke="rgb(178,178,0)" stroke-width="0.1"/>
  <path d="M 21.423731472447912,13.933609638651603 L 20.923557952537635,13.869000646556913" fill="none" instance-id="-1" semantic-id="1" stroke="rgb(178,178,0)" stroke-width="0.1"/>
  <path d="M 20.923557952537635,13.869000646556913 L 20.423377021572833,13.804449053392261" fill="none" instance-id="-1" semantic-id="1" stroke="rgb(178,178,0)" stroke-width="0.1"/>
  <path d="M 20.423377021572833,13.804449053392261 L 19.923188686142794,13.739954860007117" fill="none" instance-id="-1" semantic-id="1" stroke="rgb(178,178,0)" stroke-width="0.1"/>
  <path d="M 19.923188686142794,13.739954860007117 L 19.42299295283601,13.675518067250948" fill="none" instance-id="-1" semantic-id="1" stroke="rgb(178,178,0)" stroke-width="0.1"/>
  <path d="M 19.42299295283601,13.675518067250948 L 18.922789828236205,13.611138675971404" fill="none" instance-id="-1" semantic-id="1" stroke="rgb(178,178,0)" stroke-width="0.1"/>
  <path d="M 18.922789828236205,13.611138675971404 L 18.422579318933344,13.546816687018861" fill="none" instance-id="-1" semantic-id="1" stroke="rgb(178,178,0)" stroke-width="0.1"/>
  <path d="M 18.422579318933344,13.546816687018861 L 17.922361431514105,13.482552101237331" fill="none" instance-id="-1" semantic-id="1" stroke="rgb(178,178,0)" stroke-width="0.1"/>
  <path d="M 17.922361431514105,13.482552101237331 L 17.422136172564706,13.418344919475373" fill="none" instance-id="-1" semantic-id="1" stroke="rgb(178,178,0)" stroke-width="0.1"/>
  <path d="M 17.422136172564706,13.418344919475373 L 16.921903548674663,13.354195142577908" fill="none" instance-id="-1" semantic-id="1" stroke="rgb(178,178,0)" stroke-width="0.1"/>
  <path d="M 16.921903548674663,13.354195142577908 L 16.42166356642997,13.290102771388945" fill="none" instance-id="-1" semantic-id="1" stroke="rgb(178,178,0)" stroke-width="0.1"/>
  <path d="M 16.42166356642997,13.290102771388945 L 15.921416232420938,13.226067806753406" fill="none" instance-id="-1" semantic-id="1" stroke="rgb(178,178,0)" stroke-width="0.1"/>
  <path d="M 15.921416232420938,13.226067806753406 L 15.421161553231968,13.162090249514392" fill="none" instance-id="-1" semantic-id="1" stroke="rgb(178,178,0)" stroke-width="0.1"/>
  <path d="M 15.421161553231968,13.162090249514392 L 14.920899535452577,13.098170100514096" fill="none" instance-id="-1" semantic-id="1" stroke="rgb(178,178,0)" stroke-width="0.1"/>
  <path d="M 14.920899535452577,13.098170100514096 L 14.420630185672962,13.03430736059471" fill="none" instance-id="-1" semantic-id="1" stroke="rgb(178,178,0)" stroke-width="0.1"/>
  <path d="M 14.420630185672962,13.03430736059471 L 13.920353510477298,12.970502030597515" fill="none" instance-id="-1" semantic-id="1" stroke="rgb(178,178,0)" stroke-width="0.1"/>
  <path d="M 13.920353510477298,12.970502030597515 L 13.420069516457033,12.906754111361977" fill="none" instance-id="-1" semantic-id="1" stroke="rgb(178,178,0)" stroke-width="0.1"/>
  <path d="M 13.420069516457033,12.906754111361977 L 12.919778210198047,12.843063603728467" fill="none" instance-id="-1" semantic-id="1" stroke="rgb(178,178,0)" stroke-width="0.1"/>
  <path d="M 12.919778210198047,12.843063603728467 L 12.419479598291105,12.779430508534631" fill="none" instance-id="-1" semantic-id="1" stroke="rgb(178,178,0)" stroke-width="0.1"/>
  <path d="M 12.419479598291105,12.779430508534631 L 11.919173687323905,12.715854826619932" fill="none" instance-id="-1" semantic-id="1" stroke="rgb(178,178,0)" stroke-width="0.1"/>
  <path d="M 11.919173687323905,12.715854826619932 L 11.418860483883577,12.652336558820195" fill="none" instance-id="-1" semantic-id="1" stroke="rgb(178,178,0)" stroke-width="0.1"/>
  <path d="M 11.418860483883577,12.652336558820195 L 10.918539994562252,12.588875705973066" fill="none" instance-id="-1" semantic-id="1" stroke="rgb(178,178,0)" stroke-width="0.1"/>
  <path d="M 10.918539994562252,12.588875705973066 L 10.418212225944671,12.525472268912551" fill="none" instance-id="-1" semantic-id="1" stroke="rgb(178,178,0)" stroke-width="0.1"/>
  <path d="M 10.418212225944671,12.525472268912551 L 9.91787718462183,12.462126248476295" fill="none" instance-id="-1" semantic-id="1" stroke="rgb(178,178,0)" stroke-width="0.1"/>
  <path d="M 9.91787718462183,12.462126248476295 L 9.417534877183357,12.398837645495576" fill="none" instance-id="-1" semantic-id="1" stroke="rgb(178,178,0)" stroke-width="0.1"/>
  <path d="M 9.417534877183357,12.398837645495576 L 8.91718531021786,12.335606460806218" fill="none" instance-id="-1" semantic-id="1" stroke="rgb(178,178,0)" stroke-width="0.1"/>
  <path d="M 8.91718531021786,12.335606460806218 L 8.416828490314288,12.272432695239502" fill="none" instance-id="-1" semantic-id="1" stroke="rgb(178,178,0)" stroke-width="0.1"/>
  <path d="M 8.416828490314288,12.272432695239502 L 7.916464424061019,12.209316349628523" fill="none" instance-id="-1" semantic-id="1" stroke="rgb(178,178,0)" stroke-width="0.1"/>
  <path d="M 7.916464424061019,12.209316349628523 L 7.416093118049389,12.14625742480365" fill="none" instance-id="-1" semantic-id="1" stroke="rgb(178,178,0)" stroke-width="0.1"/>
  <path d="M 7.416093118049389,12.14625742480365 L 6.9157145788680054,12.083255921595253" fill="none" instance-id="-1" semantic-id="1" stroke="rgb(178,178,0)" stroke-width="0.1"/>
  <path d="M 6.9157145788680054,12.083255921595253 L 6.415328813105361,12.02031184083279" fill="none" instance-id="-1" semantic-id="1" stroke="rgb(178,178,0)" stroke-width="0.1"/>
  <path d="M 6.415328813105361,12.02031184083279 L 5.914935827354043,11.95742518334663" fill="none" instance-id="-1" semantic-id="1" stroke="rgb(178,178,0)" stroke-width="0.1"/>
  <path d="M 5.914935827354043,11.95742518334663 L 5.414535628200156,11.894595949963502" fill="none" instance-id="-1" semantic-id="1" stroke="rgb(178,178,0)" stroke-width="0.1"/>
  <path d="M 5.414535628200156,11.894595949963502 L 4.914128222235263,11.83182414151105" fill="none" instance-id="-1" semantic-id="1" stroke="rgb(178,178,0)" stroke-width="0.1"/>
  <path d="M 4.914128222235263,11.83182414151105 L 4.413713616050472,11.769109758816" fill="none" instance-id="-1" semantic-id="1" stroke="rgb(178,178,0)" stroke-width="0.1"/>
  <path d="M 4.413713616050472,11.769109758816 L 3.913291816234846,11.706452802705087" fill="none" instance-id="-1" semantic-id="1" stroke="rgb(178,178,0)" stroke-width="0.1"/>
  <path d="M 3.913291816234846,11.706452802705087 L 3.4128628293784686,11.64385327400231" fill="none" instance-id="-1" semantic-id="1" stroke="rgb(178,178,0)" stroke-width="0.1"/>
  <path d="M 3.4128628293784686,11.64385327400231 L 2.9124266620706294,11.581311173532583" fill="none" instance-id="-1" semantic-id="1" stroke="rgb(178,178,0)" stroke-width="0.1"/>
  <path d="M 2.9124266620706294,11.581311173532583 L 2.411983320902891,11.518826502118998" fill="none" instance-id="-1" semantic-id="1" stroke="rgb(178,178,0)" stroke-width="0.1"/>
  <path d="M 2.411983320902891,11.518826502118998 L 1.9115328124672715,11.456399260585556" fill="none" instance-id="-1" semantic-id="1" stroke="rgb(178,178,0)" stroke-width="0.1"/>
  <path d="M 1.9115328124672715,11.456399260585556 L 1.411075143350672,11.394029449753532" fill="none" instance-id="-1" semantic-id="1" stroke="rgb(178,178,0)" stroke-width="0.1"/>
  <path d="M 1.411075143350672,11.394029449753532 L 0.9106103201465885,11.331717070445109" fill="none" instance-id="-1" semantic-id="1" stroke="rgb(178,178,0)" stroke-width="0.1"/>
  <path d="M 0.9106103201465885,11.331717070445109 L 0.41013834944476457,11.269462123478831" fill="none" instance-id="-1" semantic-id="1" stroke="rgb(178,178,0)" stroke-width="0.1"/>
  <path d="M 33.99920750000001,20.620780999999965 A 4389.75,4389.75 0.0 0,0 27.006207500000073,19.700780999999978" fill="none" stroke="rgb(178,178,0)" stroke-width="0.1"/>
  <path d="M 22.042207500000018,19.055780999999968 L 21.5444857488377,18.99133122222537" fill="none" instance-id="-1" semantic-id="1" stroke="rgb(178,178,0)" stroke-width="0.1"/>
  <path d="M 21.5444857488377,18.99133122222537 L 21.04675663242847,18.926938349067484" fill="none" instance-id="-1" semantic-id="1" stroke="rgb(178,178,0)" stroke-width="0.1"/>
  <path d="M 21.04675663242847,18.926938349067484 L 20.549020157278733,18.86260238136964" fill="none" instance-id="-1" semantic-id="1" stroke="rgb(178,178,0)" stroke-width="0.1"/>
  <path d="M 20.549020157278733,18.86260238136964 L 20.051276329892858,18.798323319970393" fill="none" instance-id="-1" semantic-id="1" stroke="rgb(178,178,0)" stroke-width="0.1"/>
  <path d="M 20.051276329892858,18.798323319970393 L 19.55352515677771,18.734101165711934" fill="none" instance-id="-1" semantic-id="1" stroke="rgb(178,178,0)" stroke-width="0.1"/>
  <path d="M 19.55352515677771,18.734101165711934 L 19.05576664444061,18.669935919432817" fill="none" instance-id="-1" semantic-id="1" stroke="rgb(178,178,0)" stroke-width="0.1"/>
  <path d="M 19.05576664444061,18.669935919432817 L 18.55800079938581,18.605827581971596" fill="none" instance-id="-1" semantic-id="1" stroke="rgb(178,178,0)" stroke-width="0.1"/>
  <path d="M 18.55800079938581,18.605827581971596 L 18.060227628120856,18.541776154166826" fill="none" instance-id="-1" semantic-id="1" stroke="rgb(178,178,0)" stroke-width="0.1"/>
  <path d="M 18.060227628120856,18.541776154166826 L 17.562447137152958,18.47778163685524" fill="none" instance-id="-1" semantic-id="1" stroke="rgb(178,178,0)" stroke-width="0.1"/>
  <path d="M 17.562447137152958,18.47778163685524 L 17.064659332986935,18.413844030873577" fill="none" instance-id="-1" semantic-id="1" stroke="rgb(178,178,0)" stroke-width="0.1"/>
  <path d="M 17.064659332986935,18.413844030873577 L 16.566864222130334,18.34996333705766" fill="none" instance-id="-1" semantic-id="1" stroke="rgb(178,178,0)" stroke-width="0.1"/>
  <path d="M 16.566864222130334,18.34996333705766 L 16.069061811091046,18.286139556242404" fill="none" instance-id="-1" semantic-id="1" stroke="rgb(178,178,0)" stroke-width="0.1"/>
  <path d="M 16.069061811091046,18.286139556242404 L 15.571252106374004,18.222372689262727" fill="none" instance-id="-1" semantic-id="1" stroke="rgb(178,178,0)" stroke-width="0.1"/>
  <path d="M 15.571252106374004,18.222372689262727 L 15.07343511448687,18.158662736950816" fill="none" instance-id="-1" semantic-id="1" stroke="rgb(178,178,0)" stroke-width="0.1"/>
  <path d="M 15.07343511448687,18.158662736950816 L 14.575610841937987,18.09500970013977" fill="none" instance-id="-1" semantic-id="1" stroke="rgb(178,178,0)" stroke-width="0.1"/>
  <path d="M 14.575610841937987,18.09500970013977 L 14.077779295233313,18.031413579662683" fill="none" instance-id="-1" semantic-id="1" stroke="rgb(178,178,0)" stroke-width="0.1"/>
  <path d="M 14.077779295233313,18.031413579662683 L 13.579940480878236,17.967874376349016" fill="none" instance-id="-1" semantic-id="1" stroke="rgb(178,178,0)" stroke-width="0.1"/>
  <path d="M 13.579940480878236,17.967874376349016 L 13.082094405384169,17.904392091030957" fill="none" instance-id="-1" semantic-id="1" stroke="rgb(178,178,0)" stroke-width="0.1"/>
  <path d="M 13.082094405384169,17.904392091030957 L 12.5842410752565,17.840966724537054" fill="none" instance-id="-1" semantic-id="1" stroke="rgb(178,178,0)" stroke-width="0.1"/>
  <path d="M 12.5842410752565,17.840966724537054 L 12.086380497000619,17.777598277697678" fill="none" instance-id="-1" semantic-id="1" stroke="rgb(178,178,0)" stroke-width="0.1"/>
  <path d="M 12.086380497000619,17.777598277697678 L 11.588512677128392,17.714286751340467" fill="none" instance-id="-1" semantic-id="1" stroke="rgb(178,178,0)" stroke-width="0.1"/>
  <path d="M 11.588512677128392,17.714286751340467 L 11.090637622145323,17.651032146293062" fill="none" instance-id="-1" semantic-id="1" stroke="rgb(178,178,0)" stroke-width="0.1"/>
  <path d="M 11.090637622145323,17.651032146293062 L 10.592755338557367,17.587834463381284" fill="none" instance-id="-1" semantic-id="1" stroke="rgb(178,178,0)" stroke-width="0.1"/>
  <path d="M 10.592755338557367,17.587834463381284 L 10.094865832876508,17.524693703432774" fill="none" instance-id="-1" semantic-id="1" stroke="rgb(178,178,0)" stroke-width="0.1"/>
  <path d="M 10.094865832876508,17.524693703432774 L 9.596969111608473,17.461609867271534" fill="none" instance-id="-1" semantic-id="1" stroke="rgb(178,178,0)" stroke-width="0.1"/>
  <path d="M 9.596969111608473,17.461609867271534 L 9.099065181259789,17.398582955723384" fill="none" instance-id="-1" semantic-id="1" stroke="rgb(178,178,0)" stroke-width="0.1"/>
  <path d="M 9.099065181259789,17.398582955723384 L 8.601154048342323,17.335612969611418" fill="none" instance-id="-1" semantic-id="1" stroke="rgb(178,178,0)" stroke-width="0.1"/>
  <path d="M 8.601154048342323,17.335612969611418 L 8.103235719362374,17.272699909759638" fill="none" instance-id="-1" semantic-id="1" stroke="rgb(178,178,0)" stroke-width="0.1"/>
  <path d="M 8.103235719362374,17.272699909759638 L 7.605310200827603,17.209843776988407" fill="none" instance-id="-1" semantic-id="1" stroke="rgb(178,178,0)" stroke-width="0.1"/>
  <path d="M 7.605310200827603,17.209843776988407 L 7.10737749924715,17.14704457212082" fill="none" instance-id="-1" semantic-id="1" stroke="rgb(178,178,0)" stroke-width="0.1"/>
  <path d="M 7.10737749924715,17.14704457212082 L 6.609437621130837,17.08430229597724" fill="none" instance-id="-1" semantic-id="1" stroke="rgb(178,178,0)" stroke-width="0.1"/>
  <path d="M 6.609437621130837,17.08430229597724 L 6.111490572985417,17.021616949378938" fill="none" instance-id="-1" semantic-id="1" stroke="rgb(178,178,0)" stroke-width="0.1"/>
  <path d="M 6.111490572985417,17.021616949378938 L 5.613536361320371,16.958988533143554" fill="none" instance-id="-1" semantic-id="1" stroke="rgb(178,178,0)" stroke-width="0.1"/>
  <path d="M 5.613536361320371,16.958988533143554 L 5.115574992645634,16.89641704809054" fill="none" instance-id="-1" semantic-id="1" stroke="rgb(178,178,0)" stroke-width="0.1"/>
  <path d="M 5.115574992645634,16.89641704809054 L 4.617606473468186,16.833902495038444" fill="none" instance-id="-1" semantic-id="1" stroke="rgb(178,178,0)" stroke-width="0.1"/>
  <path d="M 4.617606473468186,16.833902495038444 L 4.11963081029819,16.77144487480308" fill="none" instance-id="-1" semantic-id="1" stroke="rgb(178,178,0)" stroke-width="0.1"/>
  <path d="M 4.11963081029819,16.77144487480308 L 3.621648009644673,16.709044188201176" fill="none" instance-id="-1" semantic-id="1" stroke="rgb(178,178,0)" stroke-width="0.1"/>
  <path d="M 3.621648009644673,16.709044188201176 L 3.1236580780177974,16.646700436049457" fill="none" instance-id="-1" semantic-id="1" stroke="rgb(178,178,0)" stroke-width="0.1"/>
  <path d="M 3.1236580780177974,16.646700436049457 L 2.625661021926021,16.584413619161012" fill="none" instance-id="-1" semantic-id="1" stroke="rgb(178,178,0)" stroke-width="0.1"/>
  <path d="M 2.625661021926021,16.584413619161012 L 2.127656847876665,16.522183738351657" fill="none" instance-id="-1" semantic-id="1" stroke="rgb(178,178,0)" stroke-width="0.1"/>
  <path d="M 2.127656847876665,16.522183738351657 L 1.6296455623833026,16.46001079443448" fill="none" instance-id="-1" semantic-id="1" stroke="rgb(178,178,0)" stroke-width="0.1"/>
  <path d="M 1.6296455623833026,16.46001079443448 L 1.1316271719534825,16.397894788221663" fill="none" instance-id="-1" semantic-id="1" stroke="rgb(178,178,0)" stroke-width="0.1"/>
  <path d="M 1.1316271719534825,16.397894788221663 L 0.6336016830950939,16.33583572052538" fill="none" instance-id="-1" semantic-id="1" stroke="rgb(178,178,0)" stroke-width="0.1"/>
  <path d="M 0.6336016830950939,16.33583572052538 L 0.1355691023215968,16.273833592156905" fill="none" instance-id="-1" semantic-id="1" stroke="rgb(178,178,0)" stroke-width="0.1"/>
  <path d="M 22.395207500000083,17.084780999999964 L 21.897473909528003,17.020320427265858" fill="none" instance-id="-1" semantic-id="1" stroke="rgb(178,178,0)" stroke-width="0.1"/>
  <path d="M 21.897473909528003,17.020320427265858 L 21.399732955734862,16.95591673607504" fill="none" instance-id="-1" semantic-id="1" stroke="rgb(178,178,0)" stroke-width="0.1"/>
  <path d="M 21.399732955734862,16.95591673607504 L 20.90198464512173,16.891569927269472" fill="none" instance-id="-1" semantic-id="1" stroke="rgb(178,178,0)" stroke-width="0.1"/>
  <path d="M 20.90198464512173,16.891569927269472 L 20.4042289841899,16.82728000168862" fill="none" instance-id="-1" semantic-id="1" stroke="rgb(178,178,0)" stroke-width="0.1"/>
  <path d="M 20.4042289841899,16.82728000168862 L 19.906465979438394,16.763046960172858" fill="none" instance-id="-1" semantic-id="1" stroke="rgb(178,178,0)" stroke-width="0.1"/>
  <path d="M 19.906465979438394,16.763046960172858 L 19.408695637369533,16.698870803559828" fill="none" instance-id="-1" semantic-id="1" stroke="rgb(178,178,0)" stroke-width="0.1"/>
  <path d="M 19.408695637369533,16.698870803559828 L 18.910917964482564,16.634751532688995" fill="none" instance-id="-1" semantic-id="1" stroke="rgb(178,178,0)" stroke-width="0.1"/>
  <path d="M 18.910917964482564,16.634751532688995 L 18.413132967279466,16.570689148397094" fill="none" instance-id="-1" semantic-id="1" stroke="rgb(178,178,0)" stroke-width="0.1"/>
  <path d="M 18.413132967279466,16.570689148397094 L 17.915340652260966,16.50668365152086" fill="none" instance-id="-1" semantic-id="1" stroke="rgb(178,178,0)" stroke-width="0.1"/>
  <path d="M 17.915340652260966,16.50668365152086 L 17.41754102592847,16.442735042896118" fill="none" instance-id="-1" semantic-id="1" stroke="rgb(178,178,0)" stroke-width="0.1"/>
  <path d="M 17.41754102592847,16.442735042896118 L 16.91973409478419,16.378843323358694" fill="none" instance-id="-1" semantic-id="1" stroke="rgb(178,178,0)" stroke-width="0.1"/>
  <path d="M 16.91973409478419,16.378843323358694 L 16.42191986532748,16.315008493741686" fill="none" instance-id="-1" semantic-id="1" stroke="rgb(178,178,0)" stroke-width="0.1"/>
  <path d="M 16.42191986532748,16.315008493741686 L 15.924098344060667,16.25123055488001" fill="none" instance-id="-1" semantic-id="1" stroke="rgb(178,178,0)" stroke-width="0.1"/>
  <path d="M 15.924098344060667,16.25123055488001 L 15.426269537486519,16.187509507606762" fill="none" instance-id="-1" semantic-id="1" stroke="rgb(178,178,0)" stroke-width="0.1"/>
  <path d="M 15.426269537486519,16.187509507606762 L 14.9284334521044,16.123845352752312" fill="none" instance-id="-1" semantic-id="1" stroke="rgb(178,178,0)" stroke-width="0.1"/>
  <path d="M 14.9284334521044,16.123845352752312 L 14.430590094417198,16.060238091149756" fill="none" instance-id="-1" semantic-id="1" stroke="rgb(178,178,0)" stroke-width="0.1"/>
  <path d="M 14.430590094417198,16.060238091149756 L 13.932739470926776,15.996687723630373" fill="none" instance-id="-1" semantic-id="1" stroke="rgb(178,178,0)" stroke-width="0.1"/>
  <path d="M 13.932739470926776,15.996687723630373 L 13.434881588136022,15.933194251021803" fill="none" instance-id="-1" semantic-id="1" stroke="rgb(178,178,0)" stroke-width="0.1"/>
  <path d="M 13.434881588136022,15.933194251021803 L 12.937016452544754,15.869757674155323" fill="none" instance-id="-1" semantic-id="1" stroke="rgb(178,178,0)" stroke-width="0.1"/>
  <path d="M 12.937016452544754,15.869757674155323 L 12.439144070656312,15.806377993858575" fill="none" instance-id="-1" semantic-id="1" stroke="rgb(178,178,0)" stroke-width="0.1"/>
  <path d="M 12.439144070656312,15.806377993858575 L 11.941264448972902,15.743055210959199" fill="none" instance-id="-1" semantic-id="1" stroke="rgb(178,178,0)" stroke-width="0.1"/>
  <path d="M 11.941264448972902,15.743055210959199 L 11.443377593996729,15.679789326284833" fill="none" instance-id="-1" semantic-id="1" stroke="rgb(178,178,0)" stroke-width="0.1"/>
  <path d="M 11.443377593996729,15.679789326284833 L 10.945483512231135,15.616580340660391" fill="none" instance-id="-1" semantic-id="1" stroke="rgb(178,178,0)" stroke-width="0.1"/>
  <path d="M 10.945483512231135,15.616580340660391 L 10.447582210176506,15.553428254913513" fill="none" instance-id="-1" semantic-id="1" stroke="rgb(178,178,0)" stroke-width="0.1"/>
  <path d="M 10.447582210176506,15.553428254913513 L 9.949673694336866,15.49033306986729" fill="none" instance-id="-1" semantic-id="1" stroke="rgb(178,178,0)" stroke-width="0.1"/>
  <path d="M 9.949673694336866,15.49033306986729 L 9.451757971215443,15.427294786345726" fill="none" instance-id="-1" semantic-id="1" stroke="rgb(178,178,0)" stroke-width="0.1"/>
  <path d="M 9.451757971215443,15.427294786345726 L 8.953835047313305,15.364313405172823" fill="none" instance-id="-1" semantic-id="1" stroke="rgb(178,178,0)" stroke-width="0.1"/>
  <path d="M 8.953835047313305,15.364313405172823 L 8.455904929133908,15.301388927170763" fill="none" instance-id="-1" semantic-id="1" stroke="rgb(178,178,0)" stroke-width="0.1"/>
  <path d="M 8.455904929133908,15.301388927170763 L 7.957967623180707,15.23852135316173" fill="none" instance-id="-1" semantic-id="1" stroke="rgb(178,178,0)" stroke-width="0.1"/>
  <path d="M 7.957967623180707,15.23852135316173 L 7.46002313595659,15.175710683966997" fill="none" instance-id="-1" semantic-id="1" stroke="rgb(178,178,0)" stroke-width="0.1"/>
  <path d="M 7.46002313595659,15.175710683966997 L 6.962071473965466,15.11295692040511" fill="none" instance-id="-1" semantic-id="1" stroke="rgb(178,178,0)" stroke-width="0.1"/>
  <path d="M 6.962071473965466,15.11295692040511 L 6.464112643708745,15.050260063298253" fill="none" instance-id="-1" semantic-id="1" stroke="rgb(178,178,0)" stroke-width="0.1"/>
  <path d="M 6.464112643708745,15.050260063298253 L 5.966146651691702,14.987620113462242" fill="none" instance-id="-1" semantic-id="1" stroke="rgb(178,178,0)" stroke-width="0.1"/>
  <path d="M 5.966146651691702,14.987620113462242 L 5.468173504415972,14.92503707171835" fill="none" instance-id="-1" semantic-id="1" stroke="rgb(178,178,0)" stroke-width="0.1"/>
  <path d="M 5.468173504415972,14.92503707171835 L 4.970193208385808,14.862510938881485" fill="none" instance-id="-1" semantic-id="1" stroke="rgb(178,178,0)" stroke-width="0.1"/>
  <path d="M 4.970193208385808,14.862510938881485 L 4.4722057701048925,14.800041715769282" fill="none" instance-id="-1" semantic-id="1" stroke="rgb(178,178,0)" stroke-width="0.1"/>
  <path d="M 4.4722057701048925,14.800041715769282 L 3.9742111960770217,14.737629403197559" fill="none" instance-id="-1" semantic-id="1" stroke="rgb(178,178,0)" stroke-width="0.1"/>
  <path d="M 3.9742111960770217,14.737629403197559 L 3.4762094928059923,14.675274001981222" fill="none" instance-id="-1" semantic-id="1" stroke="rgb(178,178,0)" stroke-width="0.1"/>
  <path d="M 3.4762094928059923,14.675274001981222 L 2.9782006667954875,14.61297551293427" fill="none" instance-id="-1" semantic-id="1" stroke="rgb(178,178,0)" stroke-width="0.1"/>
  <path d="M 2.9782006667954875,14.61297551293427 L 2.480184724551691,14.5507339368707" fill="none" instance-id="-1" semantic-id="1" stroke="rgb(178,178,0)" stroke-width="0.1"/>
  <path d="M 2.480184724551691,14.5507339368707 L 1.982161672574648,14.488549274604509" fill="none" instance-id="-1" semantic-id="1" stroke="rgb(178,178,0)" stroke-width="0.1"/>
  <path d="M 1.982161672574648,14.488549274604509 L 1.4841315173705425,14.426421526945148" fill="none" instance-id="-1" semantic-id="1" stroke="rgb(178,178,0)" stroke-width="0.1"/>
  <path d="M 1.4841315173705425,14.426421526945148 L 0.9860942654435121,14.364350694706616" fill="none" instance-id="-1" semantic-id="1" stroke="rgb(178,178,0)" stroke-width="0.1"/>
  <path d="M 0.9860942654435121,14.364350694706616 L 0.4880499232981492,14.302336778698361" fill="none" instance-id="-1" semantic-id="1" stroke="rgb(178,178,0)" stroke-width="0.1"/>
 </g>
 <g id="layerm-洞口" inkscape:groupmode="layer" inkscape:label="m-洞口">
  <path d="M 46.8842075,87.43478099999999 L 44.63559385689496,100.0" fill="none" stroke="rgb(160,107,53)" stroke-width="0.1"/>
  <path d="M 56.31786447821128,100.0 L 58.20420750000005,89.46078099999997" fill="none" stroke="rgb(160,107,53)" stroke-width="0.1"/>
  <path d="M 58.20420750000005,89.46078099999997 L 46.8842075,87.43478099999999" fill="none" stroke="rgb(160,107,53)" stroke-width="0.1"/>
  <path d="M 45.570566928292465,100.0 L 48.32220749999999,89.55678099999997" fill="none" stroke="rgb(160,107,53)" stroke-width="0.1"/>
  <path d="M 48.32220749999999,89.55678099999997 L 58.20420750000005,89.46078099999997" fill="none" stroke="rgb(160,107,53)" stroke-width="0.1"/>
 </g>
 <g id="layer设备" inkscape:groupmode="layer" inkscape:label="设备">
  <path d="M 0.0,82.17336909420979 L 9.413207499999999,83.85778099999999" fill="none" stroke="rgb(53,107,93)" stroke-width="0.1"/>
  <path d="M 0.0,81.15768712558429 L 9.589207500000043,82.87378099999998" fill="none" stroke="rgb(53,107,93)" stroke-width="0.1"/>
  <path d="M 3.922207500000013,59.39778099999998 L 3.3822075000000495,60.251780999999966" fill="none" stroke="rgb(53,107,93)" stroke-width="0.1"/>
  <path d="M 3.3822075000000495,60.251780999999966 L 2.958247693224621,59.9837714822159" fill="none" stroke="rgb(53,107,93)" stroke-width="0.1"/>
  <path d="M 2.958247693224621,59.9837714822159 L 2.533767335806033,59.71658719085582" fill="none" stroke="rgb(53,107,93)" stroke-width="0.1"/>
  <path d="M 2.533767335806033,59.71658719085582 L 2.108768034023228,59.450229136973576" fill="none" stroke="rgb(53,107,93)" stroke-width="0.1"/>
  <path d="M 2.108768034023228,59.450229136973576 L 1.6832513961189761,59.18469832849655" fill="none" stroke="rgb(53,107,93)" stroke-width="0.1"/>
  <path d="M 1.6832513961189761,59.18469832849655 L 1.257219032293733,58.91999577022165" fill="none" stroke="rgb(53,107,93)" stroke-width="0.1"/>
  <path d="M 1.257219032293733,58.91999577022165 L 0.830672554699504,58.656122463811755" fill="none" stroke="rgb(53,107,93)" stroke-width="0.1"/>
  <path d="M 0.830672554699504,58.656122463811755 L 0.40361357743358894,58.39307940779156" fill="none" stroke="rgb(53,107,93)" stroke-width="0.1"/>
  <path d="M 3.9172075000000177,59.40678099999997 L 3.49381048653197,59.13912429658649" fill="none" stroke="rgb(53,107,93)" stroke-width="0.1"/>
  <path d="M 3.49381048653197,59.13912429658649 L 3.0698962978012787,58.87228745038871" fill="none" stroke="rgb(53,107,93)" stroke-width="0.1"/>
  <path d="M 3.0698962978012787,58.87228745038871 L 2.6454665213607313,58.60627146070675" fill="none" stroke="rgb(53,107,93)" stroke-width="0.1"/>
  <path d="M 2.6454665213607313,58.60627146070675 L 2.2205227466934048,58.34107732376657" fill="none" stroke="rgb(53,107,93)" stroke-width="0.1"/>
  <path d="M 2.2205227466934048,58.34107732376657 L 1.7950665652076623,58.07670603271646" fill="none" stroke="rgb(53,107,93)" stroke-width="0.1"/>
  <path d="M 1.7950665652076623,58.07670603271646 L 1.3690995702306736,57.813158577623" fill="none" stroke="rgb(53,107,93)" stroke-width="0.1"/>
  <path d="M 1.3690995702306736,57.813158577623 L 0.9426233570027307,57.55043594546757" fill="none" stroke="rgb(53,107,93)" stroke-width="0.1"/>
  <path d="M 0.9426233570027307,57.55043594546757 L 0.5156395226709947,57.288539120142616" fill="none" stroke="rgb(53,107,93)" stroke-width="0.1"/>
  <path d="M 0.5156395226709947,57.288539120142616 L 0.08814966628369802,57.027469082447965" fill="none" stroke="rgb(53,107,93)" stroke-width="0.1"/>
 </g>
</svg>