<?xml version="1.0" encoding="utf-8"?>
<svg style="background-color: #000;" version="1.1" viewBox="0 0 100.0 100.0" xmlns="http://www.w3.org/2000/svg" xmlns:inkscape="http://www.inkscape.org/namespaces/inkscape">
 <g id="layer0-结构边线" inkscape:groupmode="layer" inkscape:label="0-结构边线">
  <path d="M 92.32020750000004,20.96278099999995 L 97.24820750000003,21.844780999999955" fill="none" stroke="rgb(178,0,178)" stroke-width="0.1"/>
  <path d="M 97.24820750000003,21.844780999999955 L 98.1292075,16.922780999999986" fill="none" stroke="rgb(178,0,178)" stroke-width="0.1"/>
  <path d="M 93.20120750000001,16.04078099999998 L 98.1292075,16.922780999999986" fill="none" stroke="rgb(178,0,178)" stroke-width="0.1"/>
  <path d="M 92.32020750000004,20.96278099999995 L 93.20120750000001,16.04078099999998" fill="none" stroke="rgb(178,0,178)" stroke-width="0.1"/>
 </g>
 <g id="layerCOLUMN" inkscape:groupmode="layer" inkscape:label="COLUMN">
  <path d="M 26.87420750000001,96.61578099999997 L 35.73320750000005,98.20178099999998" fill="none" instance-id="-1" semantic-id="1" stroke="rgb(178,178,0)" stroke-width="0.1"/>
  <path d="M 35.73320750000005,98.20178099999998 L 37.31920750000006,89.34178099999997" fill="none" instance-id="-1" semantic-id="1" stroke="rgb(178,178,0)" stroke-width="0.1"/>
  <path d="M 37.31920750000006,89.34178099999997 L 28.460207500000024,87.75678099999999" fill="none" instance-id="-1" semantic-id="1" stroke="rgb(178,178,0)" stroke-width="0.1"/>
  <path d="M 28.460207500000024,87.75678099999999 L 26.87420750000001,96.61578099999997" fill="none" instance-id="-1" semantic-id="1" stroke="rgb(178,178,0)" stroke-width="0.1"/>
  <path d="M 92.32020750000004,20.96278099999995 L 97.24820750000003,21.844780999999955" fill="none" instance-id="-1" semantic-id="1" stroke="rgb(178,178,0)" stroke-width="0.1"/>
  <path d="M 97.24820750000003,21.844780999999955 L 98.1292075,16.922780999999986" fill="none" instance-id="-1" semantic-id="1" stroke="rgb(178,178,0)" stroke-width="0.1"/>
  <path d="M 98.1292075,16.922780999999986 L 93.20120750000001,16.04078099999998" fill="none" instance-id="-1" semantic-id="1" stroke="rgb(178,178,0)" stroke-width="0.1"/>
  <path d="M 93.20120750000001,16.04078099999998 L 92.32020750000004,20.96278099999995" fill="none" instance-id="-1" semantic-id="1" stroke="rgb(178,178,0)" stroke-width="0.1"/>
 </g>
 <g id="layerDOOR_FIRE" inkscape:groupmode="layer" inkscape:label="DOOR_FIRE">
  <path d="M 66.16420750000009,37.10778099999999 L 48.446207500000014,33.936780999999996" fill="none" instance-id="1" semantic-id="4" stroke="rgb(0,178,178)" stroke-width="0.1"/>
  <path d="M 48.27020750000008,34.92078099999998 L 46.724207500000034,43.558780999999954" fill="none" instance-id="1" semantic-id="4" stroke="rgb(0,178,178)" stroke-width="0.1"/>
  <path d="M 48.71320750000007,34.999780999999984 L 47.16720750000002,43.63778099999996" fill="none" instance-id="1" semantic-id="4" stroke="rgb(0,178,178)" stroke-width="0.1"/>
  <path d="M 48.27020750000008,34.92078099999998 L 48.71320750000007,34.999780999999984" fill="none" instance-id="1" semantic-id="4" stroke="rgb(0,178,178)" stroke-width="0.1"/>
  <path d="M 47.16720750000002,43.63778099999996 L 46.724207500000034,43.558780999999954" fill="none" instance-id="1" semantic-id="4" stroke="rgb(0,178,178)" stroke-width="0.1"/>
  <path d="M 65.54520750000006,38.01278099999996 L 63.99920750000001,46.650780999999995" fill="none" instance-id="1" semantic-id="4" stroke="rgb(0,178,178)" stroke-width="0.1"/>
  <path d="M 65.98820750000004,38.09178099999997 L 64.4422075,46.729781" fill="none" instance-id="1" semantic-id="4" stroke="rgb(0,178,178)" stroke-width="0.1"/>
  <path d="M 63.99920750000001,46.650780999999995 L 64.4422075,46.729781" fill="none" instance-id="1" semantic-id="4" stroke="rgb(0,178,178)" stroke-width="0.1"/>
  <path d="M 65.98820750000004,38.09178099999997 L 65.54520750000006,38.01278099999996" fill="none" instance-id="1" semantic-id="4" stroke="rgb(0,178,178)" stroke-width="0.1"/>
  <path d="M 63.69420750000006,66.12578099999996 L 61.89020750000009,76.20278099999996" fill="none" instance-id="2" semantic-id="4" stroke="rgb(0,178,178)" stroke-width="0.1"/>
  <path d="M 64.2112075,66.217781 L 62.40720750000003,76.29578099999998" fill="none" instance-id="2" semantic-id="4" stroke="rgb(0,178,178)" stroke-width="0.1"/>
  <path d="M 63.69420750000006,66.12578099999996 L 64.2112075,66.217781" fill="none" instance-id="2" semantic-id="4" stroke="rgb(0,178,178)" stroke-width="0.1"/>
  <path d="M 62.40720750000003,76.29578099999998 L 61.89020750000009,76.20278099999996" fill="none" instance-id="2" semantic-id="4" stroke="rgb(0,178,178)" stroke-width="0.1"/>
  <path d="M 83.84820750000006,69.73278099999999 L 82.04520750000006,79.80978099999999" fill="none" instance-id="2" semantic-id="4" stroke="rgb(0,178,178)" stroke-width="0.1"/>
  <path d="M 84.3652075,69.82578099999995 L 82.5622075,79.902781" fill="none" instance-id="2" semantic-id="4" stroke="rgb(0,178,178)" stroke-width="0.1"/>
  <path d="M 82.04520750000006,79.80978099999999 L 82.5622075,79.902781" fill="none" instance-id="2" semantic-id="4" stroke="rgb(0,178,178)" stroke-width="0.1"/>
  <path d="M 84.3652075,69.82578099999995 L 83.84820750000006,69.73278099999999" fill="none" instance-id="2" semantic-id="4" stroke="rgb(0,178,178)" stroke-width="0.1"/>
  <path d="M 58.28220750000003,97.23078099999998 L 57.78659942630634,100.0" fill="none" stroke="rgb(0,178,178)" stroke-width="0.1"/>
  <path d="M 57.76520750000009,97.138781 L 57.25310128108754,100.0" fill="none" stroke="rgb(0,178,178)" stroke-width="0.1"/>
  <path d="M 58.28220750000003,97.23078099999998 L 57.76520750000009,97.138781" fill="none" stroke="rgb(0,178,178)" stroke-width="0.1"/>
  <path d="M 27.52420749999999,98.66078099999999 L 35.00685544437272,100.0" fill="none" stroke="rgb(0,178,178)" stroke-width="0.1"/>
  <path d="M 27.603207500000053,98.217781 L 36.24120750000009,99.763781" fill="none" stroke="rgb(0,178,178)" stroke-width="0.1"/>
  <path d="M 36.199082667042944,100.0 L 36.24120750000009,99.763781" fill="none" stroke="rgb(0,178,178)" stroke-width="0.1"/>
  <path d="M 27.603207500000053,98.217781 L 27.52420749999999,98.66078099999999" fill="none" stroke="rgb(0,178,178)" stroke-width="0.1"/>
  <path d="M 47.16720750000002,43.634780999999975 A 8.775,8.775 0.0 0,0 57.12920750000001,36.50678099999999" fill="none" instance-id="1" semantic-id="4" stroke="rgb(0,178,178)" stroke-width="0.1"/>
  <path d="M 57.12920750000001,36.50678099999999 A 8.775,8.775 0.0 0,0 64.00020749999999,46.64778099999995" fill="none" instance-id="1" semantic-id="4" stroke="rgb(0,178,178)" stroke-width="0.1"/>
  <path d="M 62.40720750000003,76.29178099999996 A 10.2375,10.2375 0.0 0,0 74.02920749999998,67.97578099999998" fill="none" instance-id="2" semantic-id="4" stroke="rgb(0,178,178)" stroke-width="0.1"/>
  <path d="M 74.02920749999998,67.97578099999998 A 10.2375,10.2375 0.0 0,0 82.04520750000006,79.806781" fill="none" instance-id="2" semantic-id="4" stroke="rgb(0,178,178)" stroke-width="0.1"/>
 </g>
 <g id="layerDOOR_FIRE_TEXT" inkscape:groupmode="layer" inkscape:label="DOOR_FIRE_TEXT">
  <text fill="rgb(0,0,0)" font-family="Noto Sans CJK SC" font-size="2" transform="rotate(-349.853,51.26920749999999,33.03678099999996)" x="51.26920749999999" y="33.03678099999996">
   FM
  </text>
  <text fill="rgb(0,0,0)" font-family="Noto Sans CJK SC" font-size="2" transform="rotate(-349.853,54.89520750000008,33.686780999999996)" x="54.89520750000008" y="33.686780999999996">
   甲
  </text>
  <text fill="rgb(0,0,0)" font-family="Noto Sans CJK SC" font-size="2" transform="rotate(-349.853,58.244207500000016,34.285780999999986)" x="58.244207500000016" y="34.285780999999986">
   1823
  </text>
  <text fill="rgb(0,0,0)" font-family="Noto Sans CJK SC" font-size="2" transform="rotate(-349.853,67.72620749999999,66.98378099999996)" x="67.72620749999999" y="66.98378099999996">
   FM
  </text>
  <text fill="rgb(0,0,0)" font-family="Noto Sans CJK SC" font-size="2" transform="rotate(-349.853,71.35220750000008,67.63278099999997)" x="71.35220750000008" y="67.63278099999997">
   乙
  </text>
  <text fill="rgb(0,0,0)" font-family="Noto Sans CJK SC" font-size="2" transform="rotate(-349.853,74.70120750000001,68.23178099999996)" x="74.70120750000001" y="68.23178099999996">
   2122
  </text>
  <text fill="rgb(0,0,0)" font-family="Noto Sans CJK SC" font-size="2" transform="rotate(-349.853,61.544207500000084,99.41078099999999)" x="61.544207500000084" y="99.41078099999999">
   FM
  </text>
  <text fill="rgb(0,0,0)" font-family="Noto Sans CJK SC" font-size="2" transform="rotate(-259.853,20.2882075,99.56978099999998)" x="20.2882075" y="99.56978099999998">
   FM
  </text>
 </g>
 <g id="layerPUB_HATCH" inkscape:groupmode="layer" inkscape:label="PUB_HATCH">
  <path d="M 26.87420750000001,96.61578099999997 L 35.73320750000005,98.20178099999998" fill="none" instance-id="-1" semantic-id="1" stroke="rgb(63,63,63)" stroke-width="0.1"/>
  <path d="M 35.73320750000005,98.20178099999998 L 37.31920750000006,89.34178099999997" fill="none" instance-id="-1" semantic-id="1" stroke="rgb(63,63,63)" stroke-width="0.1"/>
  <path d="M 37.31920750000006,89.34178099999997 L 28.460207500000024,87.75678099999999" fill="none" instance-id="-1" semantic-id="1" stroke="rgb(63,63,63)" stroke-width="0.1"/>
  <path d="M 28.460207500000024,87.75678099999999 L 26.87420750000001,96.61578099999997" fill="none" instance-id="-1" semantic-id="1" stroke="rgb(63,63,63)" stroke-width="0.1"/>
 </g>
 <g id="layerPUB_TEXT" inkscape:groupmode="layer" inkscape:label="PUB_TEXT">
  <text fill="rgb(0,0,0)" font-family="Noto Sans CJK SC" font-size="2" transform="rotate(-349.9,83.5332075,89.04178099999996)" x="83.5332075" y="89.04178099999996">
   强电
  </text>
  <text fill="rgb(0,0,0)" font-family="Noto Sans CJK SC" font-size="2" transform="rotate(-349.9,64.15720750000003,92.491781)" x="64.15720750000003" y="92.491781">
   前室
  </text>
 </g>
 <g id="layerWALL" inkscape:groupmode="layer" inkscape:label="WALL">
  <path d="M 14.926976072308662,0.0 L 93.5622075,14.073780999999997" fill="none" instance-id="-1" semantic-id="1" stroke="rgb(178,178,0)" stroke-width="0.1"/>
  <path d="M 3.573037755923224,0.0 L 93.21020750000002,16.04278099999999" fill="none" instance-id="-1" semantic-id="1" stroke="rgb(178,178,0)" stroke-width="0.1"/>
  <path d="M 81.52220750000004,92.681781 L 85.39820750000001,71.025781" fill="none" instance-id="-1" semantic-id="1" stroke="rgb(178,178,0)" stroke-width="0.1"/>
  <path d="M 83.66720750000002,92.049781 L 87.36720750000006,71.378781" fill="none" instance-id="-1" semantic-id="1" stroke="rgb(178,178,0)" stroke-width="0.1"/>
  <path d="M 100.0,97.0053027512269 L 83.31520750000004,94.01878099999999" fill="none" instance-id="-1" semantic-id="1" stroke="rgb(178,178,0)" stroke-width="0.1"/>
  <path d="M 100.0,94.97339902766146 L 83.66720750000002,92.049781" fill="none" instance-id="-1" semantic-id="1" stroke="rgb(178,178,0)" stroke-width="0.1"/>
  <path d="M 87.36720750000006,71.378781 L 93.63220750000005,72.49978099999998" fill="none" instance-id="-1" semantic-id="1" stroke="rgb(178,178,0)" stroke-width="0.1"/>
  <path d="M 93.63220750000005,72.49978099999998 L 93.98420750000002,70.53078099999999" fill="none" instance-id="-1" semantic-id="1" stroke="rgb(178,178,0)" stroke-width="0.1"/>
  <path d="M 93.98420750000002,70.53078099999999 L 86.7352075,69.23378099999996" fill="none" instance-id="-1" semantic-id="1" stroke="rgb(178,178,0)" stroke-width="0.1"/>
  <path d="M 86.7352075,69.23378099999996 L 84.54120750000004,68.84078099999999" fill="none" instance-id="-1" semantic-id="1" stroke="rgb(178,178,0)" stroke-width="0.1"/>
  <path d="M 84.54120750000004,68.84078099999999 L 84.18920750000007,70.80978099999999" fill="none" instance-id="-1" semantic-id="1" stroke="rgb(178,178,0)" stroke-width="0.1"/>
  <path d="M 84.18920750000007,70.80978099999999 L 85.39820750000001,71.025781" fill="none" instance-id="-1" semantic-id="1" stroke="rgb(178,178,0)" stroke-width="0.1"/>
  <path d="M 63.151207500000055,67.044781 L 63.51820750000002,67.109781" fill="none" instance-id="-1" semantic-id="1" stroke="rgb(178,178,0)" stroke-width="0.1"/>
  <path d="M 63.51820750000002,67.109781 L 63.87020749999999,65.14178099999998" fill="none" instance-id="-1" semantic-id="1" stroke="rgb(178,178,0)" stroke-width="0.1"/>
  <path d="M 63.87020749999999,65.14178099999998 L 61.53520750000007,64.72378099999997" fill="none" instance-id="-1" semantic-id="1" stroke="rgb(178,178,0)" stroke-width="0.1"/>
  <path d="M 98.11297479842017,0.0 L 95.3552075,15.410780999999986" fill="none" instance-id="-1" semantic-id="1" stroke="rgb(178,178,0)" stroke-width="0.1"/>
  <path d="M 96.08076739081218,0.0 L 93.5622075,14.073780999999997" fill="none" instance-id="-1" semantic-id="1" stroke="rgb(178,178,0)" stroke-width="0.1"/>
  <path d="M 79.25730297872349,100.0 L 78.60820750000005,99.883781" fill="none" instance-id="-1" semantic-id="1" stroke="rgb(178,178,0)" stroke-width="0.1"/>
  <path d="M 78.60820750000005,99.883781 L 78.58737189461658,100.0" fill="none" instance-id="-1" semantic-id="1" stroke="rgb(178,178,0)" stroke-width="0.1"/>
  <path d="M 57.93620750000002,96.18378099999995 L 57.58420750000005,98.152781" fill="none" instance-id="-1" semantic-id="1" stroke="rgb(178,178,0)" stroke-width="0.1"/>
  <path d="M 55.22135051914836,100.0 L 55.79120750000004,96.81578099999996" fill="none" instance-id="-1" semantic-id="1" stroke="rgb(178,178,0)" stroke-width="0.1"/>
  <path d="M 57.253608086238955,100.0 L 57.58420750000005,98.152781" fill="none" instance-id="-1" semantic-id="1" stroke="rgb(178,178,0)" stroke-width="0.1"/>
  <path d="M 35.35020750000001,88.989781 L 45.12820750000003,34.358780999999965" fill="none" instance-id="-1" semantic-id="1" stroke="rgb(178,178,0)" stroke-width="0.1"/>
  <path d="M 37.31920750000006,89.34178099999997 L 46.92120750000004,35.69478099999998" fill="none" instance-id="-1" semantic-id="1" stroke="rgb(178,178,0)" stroke-width="0.1"/>
  <path d="M 45.12820750000003,34.358780999999965 L 48.564207500000066,15.162780999999995" fill="none" instance-id="-1" semantic-id="1" stroke="rgb(178,178,0)" stroke-width="0.1"/>
  <path d="M 47.27320750000001,33.72678099999996 L 50.53220750000003,15.515781000000004" fill="none" instance-id="-1" semantic-id="1" stroke="rgb(178,178,0)" stroke-width="0.1"/>
  <path d="M 48.564207500000066,15.162780999999995 L 0.0,6.471449763581461" fill="none" instance-id="-1" semantic-id="1" stroke="rgb(178,178,0)" stroke-width="0.1"/>
  <path d="M 49.897207500000036,13.369780999999989 L 0.0,4.439511819411564" fill="none" instance-id="-1" semantic-id="1" stroke="rgb(178,178,0)" stroke-width="0.1"/>
  <path d="M 98.6682075,19.55178099999995 L 97.87420750000001,23.98878099999996" fill="none" instance-id="-1" semantic-id="1" stroke="rgb(178,178,0)" stroke-width="0.1"/>
  <path d="M 100.0,43.163508298136605 L 66.16420750000009,37.10778099999999" fill="none" instance-id="-1" semantic-id="1" stroke="rgb(178,178,0)" stroke-width="0.1"/>
  <path d="M 66.16420750000009,37.10778099999999 L 65.8122075,39.07678099999998" fill="none" instance-id="-1" semantic-id="1" stroke="rgb(178,178,0)" stroke-width="0.1"/>
  <path d="M 65.8122075,39.07678099999998 L 100.0,45.195441489172936" fill="none" instance-id="-1" semantic-id="1" stroke="rgb(178,178,0)" stroke-width="0.1"/>
  <path d="M 46.92120750000004,35.69478099999998 L 48.09420750000004,35.90478099999996" fill="none" instance-id="-1" semantic-id="1" stroke="rgb(178,178,0)" stroke-width="0.1"/>
  <path d="M 48.09420750000004,35.90478099999996 L 48.446207500000014,33.936780999999996" fill="none" instance-id="-1" semantic-id="1" stroke="rgb(178,178,0)" stroke-width="0.1"/>
  <path d="M 48.446207500000014,33.936780999999996 L 47.27320750000001,33.72678099999996" fill="none" instance-id="-1" semantic-id="1" stroke="rgb(178,178,0)" stroke-width="0.1"/>
  <path d="M 26.87420750000001,96.61578099999997 L 26.619207500000016,98.04178099999996" fill="none" instance-id="-1" semantic-id="1" stroke="rgb(178,178,0)" stroke-width="0.1"/>
  <path d="M 26.619207500000016,98.04178099999996 L 28.588207500000067,98.39378099999999" fill="none" instance-id="-1" semantic-id="1" stroke="rgb(178,178,0)" stroke-width="0.1"/>
  <path d="M 28.588207500000067,98.39378099999999 L 28.843207500000062,96.967781" fill="none" instance-id="-1" semantic-id="1" stroke="rgb(178,178,0)" stroke-width="0.1"/>
  <path d="M 100.0,12.110448736334945 L 98.6682075,19.55178099999995" fill="none" instance-id="-1" semantic-id="1" stroke="rgb(178,178,0)" stroke-width="0.1"/>
  <path d="M 100.0,0.7570257507590554 L 97.13820750000002,16.745780999999965" fill="none" instance-id="-1" semantic-id="1" stroke="rgb(178,178,0)" stroke-width="0.1"/>
  <path d="M 95.3552075,15.410780999999986 L 95.17820749999998,16.394780999999966" fill="none" instance-id="-1" semantic-id="1" stroke="rgb(178,178,0)" stroke-width="0.1"/>
  <path d="M 80.21286821071612,100.0 L 81.52220750000004,92.681781" fill="none" instance-id="-1" semantic-id="1" stroke="rgb(178,178,0)" stroke-width="0.1"/>
  <path d="M 82.24427838989845,100.0 L 83.31520750000004,94.01878099999999" fill="none" instance-id="-1" semantic-id="1" stroke="rgb(178,178,0)" stroke-width="0.1"/>
  <path d="M 55.79120750000004,96.81578099999996 L 61.53520750000007,64.72378099999997" fill="none" instance-id="-1" semantic-id="1" stroke="rgb(178,178,0)" stroke-width="0.1"/>
  <path d="M 57.93620750000002,96.18378099999995 L 63.151207500000055,67.044781" fill="none" instance-id="-1" semantic-id="1" stroke="rgb(178,178,0)" stroke-width="0.1"/>
  <path d="M 97.87420750000001,23.98878099999996 L 50.53220750000003,15.515781000000004" fill="none" instance-id="-1" semantic-id="1" stroke="rgb(178,178,0)" stroke-width="0.1"/>
  <path d="M 96.25820750000003,21.66778099999999 L 49.897207500000036,13.369780999999989" fill="none" instance-id="-1" semantic-id="1" stroke="rgb(178,178,0)" stroke-width="0.1"/>
 </g>
 <g id="layerWINDOW" inkscape:groupmode="layer" inkscape:label="WINDOW">
  <path d="M 100.0,73.63978764917033 L 93.63220750000005,72.49978099999998" fill="none" instance-id="6" semantic-id="3" stroke="rgb(0,178,0)" stroke-width="0.1"/>
  <path d="M 99.79955022358922,64.69488792439586 L 99.32532950778511,64.85996285914956" fill="none" instance-id="6" semantic-id="3" stroke="rgb(0,178,0)" stroke-width="0.1"/>
  <path d="M 99.32532950778511,64.85996285914956 L 98.86132738960066,65.05189267888079" fill="none" instance-id="6" semantic-id="3" stroke="rgb(0,178,0)" stroke-width="0.1"/>
  <path d="M 98.86132738960066,65.05189267888079 L 98.40906322272929,65.27004891818166" fill="none" instance-id="6" semantic-id="3" stroke="rgb(0,178,0)" stroke-width="0.1"/>
  <path d="M 98.40906322272929,65.27004891818166 L 97.9700179254803,65.51371723443407" fill="none" instance-id="6" semantic-id="3" stroke="rgb(0,178,0)" stroke-width="0.1"/>
  <path d="M 97.9700179254803,65.51371723443407 L 97.5456291315794,65.78209974689179" fill="none" instance-id="6" semantic-id="3" stroke="rgb(0,178,0)" stroke-width="0.1"/>
  <path d="M 97.5456291315794,65.78209974689179 L 97.1372864827033,66.07431764930476" fill="none" instance-id="6" semantic-id="3" stroke="rgb(0,178,0)" stroke-width="0.1"/>
  <path d="M 97.1372864827033,66.07431764930476 L 96.74632707816136,66.38941408752947" fill="none" instance-id="6" semantic-id="3" stroke="rgb(0,178,0)" stroke-width="0.1"/>
  <path d="M 96.74632707816136,66.38941408752947 L 96.374031096625,66.72635729270456" fill="none" instance-id="6" semantic-id="3" stroke="rgb(0,178,0)" stroke-width="0.1"/>
  <path d="M 96.374031096625,66.72635729270456 L 96.02161760424178,67.08404395973031" fill="none" instance-id="6" semantic-id="3" stroke="rgb(0,178,0)" stroke-width="0.1"/>
  <path d="M 96.02161760424178,67.08404395973031 L 95.69024056285855,67.4613028599909" fill="none" instance-id="6" semantic-id="3" stroke="rgb(0,178,0)" stroke-width="0.1"/>
  <path d="M 95.69024056285855,67.4613028599909 L 95.38098505142636,67.8568986764887" fill="none" instance-id="6" semantic-id="3" stroke="rgb(0,178,0)" stroke-width="0.1"/>
  <path d="M 95.38098505142636,67.8568986764887 L 95.09486371295941,68.26953604883352" fill="none" instance-id="6" semantic-id="3" stroke="rgb(0,178,0)" stroke-width="0.1"/>
  <path d="M 95.09486371295941,68.26953604883352 L 94.83281343868157,68.69786381484062" fill="none" instance-id="6" semantic-id="3" stroke="rgb(0,178,0)" stroke-width="0.1"/>
  <path d="M 94.83281343868157,68.69786381484062 L 94.59569230021896,69.14047943484962" fill="none" instance-id="6" semantic-id="3" stroke="rgb(0,178,0)" stroke-width="0.1"/>
  <path d="M 94.59569230021896,69.14047943484962 L 94.38427673988372,69.59593358427617" fill="none" instance-id="6" semantic-id="3" stroke="rgb(0,178,0)" stroke-width="0.1"/>
  <path d="M 94.38427673988372,69.59593358427617 L 94.19925902824934,70.06273489935933" fill="none" instance-id="6" semantic-id="3" stroke="rgb(0,178,0)" stroke-width="0.1"/>
  <path d="M 94.19925902824934,70.06273489935933 L 94.04124499734235,70.53935486056344" fill="none" instance-id="6" semantic-id="3" stroke="rgb(0,178,0)" stroke-width="0.1"/>
  <path d="M 94.04124499734235,70.53935486056344 L 93.91075205687264,71.02423279764588" fill="none" instance-id="6" semantic-id="3" stroke="rgb(0,178,0)" stroke-width="0.1"/>
  <path d="M 93.91075205687264,71.02423279764588 L 93.80820749999998,71.515781" fill="none" instance-id="6" semantic-id="3" stroke="rgb(0,178,0)" stroke-width="0.1"/>
 </g>
 <g id="layerWINDOW_TEXT" inkscape:groupmode="layer" inkscape:label="WINDOW_TEXT">
  <text fill="rgb(178,0,178)" font-family="Noto Sans CJK SC" font-size="2" transform="rotate(-349.853,90.64920749999999,78.496781)" x="90.64920749999999" y="78.496781">
   FM
  </text>
  <text fill="rgb(178,0,178)" font-family="Noto Sans CJK SC" font-size="2" transform="rotate(-349.853,94.27520750000008,79.145781)" x="94.27520750000008" y="79.145781">
   丙
  </text>
  <text fill="rgb(178,0,178)" font-family="Noto Sans CJK SC" font-size="2" transform="rotate(-349.853,97.62420750000001,79.74478099999999)" x="97.62420750000001" y="79.74478099999999">
   0923
  </text>
 </g>
 <g id="layerm-洞口" inkscape:groupmode="layer" inkscape:label="m-洞口">
  <path d="M 100.0,97.00498821825897 L 83.31520750000004,94.01878099999999" fill="none" stroke="rgb(160,107,53)" stroke-width="0.1"/>
  <path d="M 83.31520750000004,94.01878099999999 L 82.24428447904768,100.0" fill="none" stroke="rgb(160,107,53)" stroke-width="0.1"/>
  <path d="M 82.79618287850928,100.0 L 84.82120750000001,95.69578099999995" fill="none" stroke="rgb(160,107,53)" stroke-width="0.1"/>
  <path d="M 84.82120750000001,95.69578099999995 L 100.0,97.91318300788731" fill="none" stroke="rgb(160,107,53)" stroke-width="0.1"/>
 </g>
</svg>