<?xml version="1.0" encoding="utf-8"?>
<svg style="background-color: #000;" version="1.1" viewBox="0 0 100.0 100.0" xmlns="http://www.w3.org/2000/svg" xmlns:inkscape="http://www.inkscape.org/namespaces/inkscape">
 <g id="layer0-1F" inkscape:groupmode="layer" inkscape:label="0-1F">
  <path d="M 62.43863288917635,100.0 L 80.33421166002142,0.0" fill="none" stroke="rgb(178,0,178)" stroke-width="0.1"/>
 </g>
 <g id="layer0-金属格栅" inkscape:groupmode="layer" inkscape:label="0-金属格栅">
  <path d="M 57.45640149999997,87.97313900000006 L 60.40940150000006,88.50213900000006" fill="none" stroke="rgb(73,73,73)" stroke-width="0.1"/>
  <path d="M 60.40940150000006,88.50213900000006 L 60.32140149999998,88.99413900000002" fill="none" stroke="rgb(73,73,73)" stroke-width="0.1"/>
  <path d="M 60.32140149999998,88.99413900000002 L 57.368401500000004,88.466139" fill="none" stroke="rgb(73,73,73)" stroke-width="0.1"/>
  <path d="M 57.368401500000004,88.466139 L 57.45640149999997,87.97313900000006" fill="none" stroke="rgb(73,73,73)" stroke-width="0.1"/>
  <path d="M 59.92240149999998,74.192139 L 62.875401500000066,74.721139" fill="none" stroke="rgb(73,73,73)" stroke-width="0.1"/>
  <path d="M 62.875401500000066,74.721139 L 62.78740149999999,75.21313900000007" fill="none" stroke="rgb(73,73,73)" stroke-width="0.1"/>
  <path d="M 62.78740149999999,75.21313900000007 L 59.83440150000001,74.68513900000005" fill="none" stroke="rgb(73,73,73)" stroke-width="0.1"/>
  <path d="M 59.83440150000001,74.68513900000005 L 59.92240149999998,74.192139" fill="none" stroke="rgb(73,73,73)" stroke-width="0.1"/>
  <path d="M 62.38940149999996,60.41113900000005 L 65.34240150000005,60.940139000000045" fill="none" stroke="rgb(73,73,73)" stroke-width="0.1"/>
  <path d="M 65.34240150000005,60.940139000000045 L 65.25440149999997,61.43213900000001" fill="none" stroke="rgb(73,73,73)" stroke-width="0.1"/>
  <path d="M 65.25440149999997,61.43213900000001 L 62.3014015,60.90413899999999" fill="none" stroke="rgb(73,73,73)" stroke-width="0.1"/>
  <path d="M 62.3014015,60.90413899999999 L 62.38940149999996,60.41113900000005" fill="none" stroke="rgb(73,73,73)" stroke-width="0.1"/>
  <path d="M 64.85540149999997,46.630138999999986 L 67.80840150000006,47.15913899999998" fill="none" stroke="rgb(73,73,73)" stroke-width="0.1"/>
  <path d="M 67.80840150000006,47.15913899999998 L 67.72040149999998,47.65113900000006" fill="none" stroke="rgb(73,73,73)" stroke-width="0.1"/>
  <path d="M 67.72040149999998,47.65113900000006 L 64.7674015,47.12213900000006" fill="none" stroke="rgb(73,73,73)" stroke-width="0.1"/>
  <path d="M 64.7674015,47.12213900000006 L 64.85540149999997,46.630138999999986" fill="none" stroke="rgb(73,73,73)" stroke-width="0.1"/>
  <path d="M 67.32240150000007,32.84913900000004 L 70.27540150000004,33.37813900000003" fill="none" stroke="rgb(73,73,73)" stroke-width="0.1"/>
  <path d="M 70.27540150000004,33.37813900000003 L 70.18740149999996,33.870138999999995" fill="none" stroke="rgb(73,73,73)" stroke-width="0.1"/>
  <path d="M 70.18740149999996,33.870138999999995 L 67.23440149999999,33.341139" fill="none" stroke="rgb(73,73,73)" stroke-width="0.1"/>
  <path d="M 67.23440149999999,33.341139 L 67.32240150000007,32.84913900000004" fill="none" stroke="rgb(73,73,73)" stroke-width="0.1"/>
  <path d="M 69.78840149999996,19.068138999999974 L 72.74140150000005,19.59713899999997" fill="none" stroke="rgb(73,73,73)" stroke-width="0.1"/>
  <path d="M 72.74140150000005,19.59713899999997 L 72.65340149999997,20.089139000000046" fill="none" stroke="rgb(73,73,73)" stroke-width="0.1"/>
  <path d="M 72.65340149999997,20.089139000000046 L 69.7004015,19.56013900000005" fill="none" stroke="rgb(73,73,73)" stroke-width="0.1"/>
  <path d="M 69.7004015,19.56013900000005 L 69.78840149999996,19.068138999999974" fill="none" stroke="rgb(73,73,73)" stroke-width="0.1"/>
  <path d="M 72.25540150000006,5.287139000000025 L 75.20840150000004,5.816139000000021" fill="none" stroke="rgb(73,73,73)" stroke-width="0.1"/>
  <path d="M 75.20840150000004,5.816139000000021 L 75.12040150000007,6.308138999999983" fill="none" stroke="rgb(73,73,73)" stroke-width="0.1"/>
  <path d="M 75.12040150000007,6.308138999999983 L 72.16740149999998,5.7791389999999865" fill="none" stroke="rgb(73,73,73)" stroke-width="0.1"/>
  <path d="M 72.16740149999998,5.7791389999999865 L 72.25540150000006,5.287139000000025" fill="none" stroke="rgb(73,73,73)" stroke-width="0.1"/>
  <path d="M 8.594401500000004,93.97313900000006 L 8.561401499999988,96.97313900000006" fill="none" stroke="rgb(73,73,73)" stroke-width="0.1"/>
  <path d="M 8.561401499999988,96.97313900000006 L 9.061401499999988,96.97913900000003" fill="none" stroke="rgb(73,73,73)" stroke-width="0.1"/>
  <path d="M 9.061401499999988,96.97913900000003 L 9.094401500000004,93.97913900000003" fill="none" stroke="rgb(73,73,73)" stroke-width="0.1"/>
  <path d="M 9.094401500000004,93.97913900000003 L 8.594401500000004,93.97313900000006" fill="none" stroke="rgb(73,73,73)" stroke-width="0.1"/>
  <path d="M 22.856401500000004,94.16113900000005 L 22.81040150000001,97.16113900000005" fill="none" stroke="rgb(73,73,73)" stroke-width="0.1"/>
  <path d="M 22.81040150000001,97.16113900000005 L 23.31040150000001,97.16913899999997" fill="none" stroke="rgb(73,73,73)" stroke-width="0.1"/>
  <path d="M 23.31040150000001,97.16913899999997 L 23.356401500000004,94.16913899999997" fill="none" stroke="rgb(73,73,73)" stroke-width="0.1"/>
  <path d="M 23.356401500000004,94.16913899999997 L 22.856401500000004,94.16113900000005" fill="none" stroke="rgb(73,73,73)" stroke-width="0.1"/>
  <path d="M 37.118401500000004,94.41613900000004 L 37.05740149999997,97.41613900000004" fill="none" stroke="rgb(73,73,73)" stroke-width="0.1"/>
  <path d="M 37.05740149999997,97.41613900000004 L 37.55740149999997,97.42613900000003" fill="none" stroke="rgb(73,73,73)" stroke-width="0.1"/>
  <path d="M 37.55740149999997,97.42613900000003 L 37.618401500000004,94.42613900000003" fill="none" stroke="rgb(73,73,73)" stroke-width="0.1"/>
  <path d="M 37.618401500000004,94.42613900000003 L 37.118401500000004,94.41613900000004" fill="none" stroke="rgb(73,73,73)" stroke-width="0.1"/>
  <path d="M 51.37940149999997,94.73913900000002 L 51.30440150000004,97.73813900000005" fill="none" stroke="rgb(73,73,73)" stroke-width="0.1"/>
  <path d="M 51.30440150000004,97.73813900000005 L 51.80440150000004,97.75013899999999" fill="none" stroke="rgb(73,73,73)" stroke-width="0.1"/>
  <path d="M 51.80440150000004,97.75013899999999 L 51.87940149999997,94.75113899999997" fill="none" stroke="rgb(73,73,73)" stroke-width="0.1"/>
  <path d="M 51.87940149999997,94.75113899999997 L 51.37940149999997,94.73913900000002" fill="none" stroke="rgb(73,73,73)" stroke-width="0.1"/>
 </g>
 <g id="layerAXIS" inkscape:groupmode="layer" inkscape:label="AXIS">
  <path d="M 73.09040149999998,48.29813899999999 L 100.0,53.114001248907925" fill="none" stroke="rgb(0,178,0)" stroke-width="0.1"/>
 </g>
 <g id="layerCOLUMN" inkscape:groupmode="layer" inkscape:label="COLUMN">
  <path d="M 63.42340150000007,26.25013899999999 L 59.900401500000044,45.936139000000026" fill="none" instance-id="-1" semantic-id="1" stroke="rgb(178,178,0)" stroke-width="0.1"/>
  <path d="M 59.900401500000044,45.936139000000026 L 64.82240150000007,46.817139" fill="none" instance-id="-1" semantic-id="1" stroke="rgb(178,178,0)" stroke-width="0.1"/>
  <path d="M 64.82240150000007,46.817139 L 69.93140149999999,18.27213900000004" fill="none" instance-id="-1" semantic-id="1" stroke="rgb(178,178,0)" stroke-width="0.1"/>
  <path d="M 69.93140149999999,18.27213900000004 L 61.07240150000007,16.686139000000026" fill="none" instance-id="-1" semantic-id="1" stroke="rgb(178,178,0)" stroke-width="0.1"/>
  <path d="M 61.07240150000007,16.686139000000026 L 59.486401500000056,25.545139000000063" fill="none" instance-id="-1" semantic-id="1" stroke="rgb(178,178,0)" stroke-width="0.1"/>
  <path d="M 59.486401500000056,25.545139000000063 L 63.42340150000007,26.25013899999999" fill="none" instance-id="-1" semantic-id="1" stroke="rgb(178,178,0)" stroke-width="0.1"/>
  <path d="M 15.791401500000006,8.582138999999984 L 9.801401499999997,42.05013900000006" fill="none" instance-id="-1" semantic-id="1" stroke="rgb(178,178,0)" stroke-width="0.1"/>
  <path d="M 9.801401499999997,42.05013900000006 L 14.723401500000023,42.93113900000003" fill="none" instance-id="-1" semantic-id="1" stroke="rgb(178,178,0)" stroke-width="0.1"/>
  <path d="M 14.723401500000023,42.93113900000003 L 19.832401500000003,14.385138999999981" fill="none" instance-id="-1" semantic-id="1" stroke="rgb(178,178,0)" stroke-width="0.1"/>
  <path d="M 19.832401500000003,14.385138999999981 L 38.535401500000035,17.732139000000075" fill="none" instance-id="-1" semantic-id="1" stroke="rgb(178,178,0)" stroke-width="0.1"/>
  <path d="M 38.535401500000035,17.732139000000075 L 39.416401500000006,12.81013900000005" fill="none" instance-id="-1" semantic-id="1" stroke="rgb(178,178,0)" stroke-width="0.1"/>
  <path d="M 39.416401500000006,12.81013900000005 L 15.791401500000006,8.582138999999984" fill="none" instance-id="-1" semantic-id="1" stroke="rgb(178,178,0)" stroke-width="0.1"/>
  <path d="M 6.49640149999999,88.89913899999999 L 9.613401500000009,71.48213900000007" fill="none" instance-id="-1" semantic-id="1" stroke="rgb(178,178,0)" stroke-width="0.1"/>
  <path d="M 9.613401500000009,71.48213900000007 L 4.69140150000004,70.60113899999999" fill="none" instance-id="-1" semantic-id="1" stroke="rgb(178,178,0)" stroke-width="0.1"/>
  <path d="M 4.69140150000004,70.60113899999999 L 0.5224015000000009,93.89713900000004" fill="none" instance-id="-1" semantic-id="1" stroke="rgb(178,178,0)" stroke-width="0.1"/>
  <path d="M 56.22340150000002,94.86313900000005 L 60.77040150000005,69.45713899999998" fill="none" instance-id="-1" semantic-id="1" stroke="rgb(178,178,0)" stroke-width="0.1"/>
  <path d="M 60.77040150000005,69.45713899999998 L 55.84840150000002,68.57613900000001" fill="none" instance-id="-1" semantic-id="1" stroke="rgb(178,178,0)" stroke-width="0.1"/>
  <path d="M 55.84840150000002,68.57613900000001 L 52.677401499999974,86.29513900000006" fill="none" instance-id="-1" semantic-id="1" stroke="rgb(178,178,0)" stroke-width="0.1"/>
  <path d="M 52.677401499999974,86.29513900000006 L 48.739401499999985,85.59013900000002" fill="none" instance-id="-1" semantic-id="1" stroke="rgb(178,178,0)" stroke-width="0.1"/>
  <path d="M 48.739401499999985,85.59013900000002 L 48.02440150000007,89.58713899999998" fill="none" instance-id="-1" semantic-id="1" stroke="rgb(178,178,0)" stroke-width="0.1"/>
  <path d="M 56.22340150000002,94.86313900000005 A 3025.79,3025.79 0.0 0,0 0.5224015000000009,93.89713900000004" fill="none" instance-id="-1" semantic-id="1" stroke="rgb(178,178,0)" stroke-width="0.1"/>
  <path d="M 48.02440150000007,89.58713899999998 A 3040.24,3040.24 0.0 0,0 6.49640149999999,88.89913899999999" fill="none" instance-id="-1" semantic-id="1" stroke="rgb(178,178,0)" stroke-width="0.1"/>
 </g>
 <g id="layerCURTWALL" inkscape:groupmode="layer" inkscape:label="CURTWALL">
  <path d="M 76.24896504686785,0.0 L 58.72140150000007,97.932139" fill="none" instance-id="-1" semantic-id="2" stroke="rgb(0,178,178)" stroke-width="0.1"/>
  <path d="M 75.23331909407102,0.0 L 57.73740150000003,97.75613900000008" fill="none" instance-id="-1" semantic-id="2" stroke="rgb(0,178,178)" stroke-width="0.1"/>
  <path d="M 58.71440150000001,97.93113900000003 L 76.24178607024453,0.0" fill="none" instance-id="-1" semantic-id="2" stroke="rgb(0,178,178)" stroke-width="0.1"/>
 </g>
 <g id="layerDIM_SYMB" inkscape:groupmode="layer" inkscape:label="DIM_SYMB">
  <path d="M 47.39040150000005,46.33813900000007 L 45.96340150000003,54.311139000000026" fill="none" stroke="rgb(0,178,0)" stroke-width="0.1"/>
  <path d="M 45.96340150000003,54.311139000000026 L 45.170401500000025,58.741138999999976" fill="none" stroke="rgb(0,178,0)" stroke-width="0.1"/>
  <path d="M 25.242401500000028,42.374139000000014 L 19.156401500000015,76.384139" fill="none" stroke="rgb(0,178,0)" stroke-width="0.1"/>
  <path d="M 19.156401500000015,76.384139 L 41.30440150000004,80.34713899999997" fill="none" stroke="rgb(0,178,0)" stroke-width="0.1"/>
  <path d="M 41.30440150000004,80.34713899999997 L 43.88540150000006,65.92613900000003" fill="none" stroke="rgb(0,178,0)" stroke-width="0.1"/>
  <path d="M 43.88540150000006,65.92613900000003 L 44.677401499999974,61.49713900000006" fill="none" stroke="rgb(0,178,0)" stroke-width="0.1"/>
 </g>
 <g id="layerDOOR_FIRE" inkscape:groupmode="layer" inkscape:label="DOOR_FIRE">
  <path d="M 64.05826535404435,0.0 L 62.882401500000014,6.572138999999993" fill="none" stroke="rgb(0,178,178)" stroke-width="0.1"/>
  <path d="M 63.49963354603574,0.0 L 62.340401499999984,6.475139000000013" fill="none" stroke="rgb(0,178,178)" stroke-width="0.1"/>
  <path d="M 62.340401499999984,6.475139000000013 L 62.882401500000014,6.572138999999993" fill="none" stroke="rgb(0,178,178)" stroke-width="0.1"/>
  <path d="M 42.2674045981247,0.0 L 41.767401500000005,2.7931389999999965" fill="none" stroke="rgb(0,178,178)" stroke-width="0.1"/>
  <path d="M 41.708830842710995,0.0 L 41.226401500000065,2.6961390000000165" fill="none" stroke="rgb(0,178,178)" stroke-width="0.1"/>
  <path d="M 41.767401500000005,2.7931389999999965 L 41.226401500000065,2.6961390000000165" fill="none" stroke="rgb(0,178,178)" stroke-width="0.1"/>
  <path d="M 39.24040149999996,13.795139000000063 L 37.350401499999975,24.352138999999966" fill="none" instance-id="3" semantic-id="4" stroke="rgb(0,178,178)" stroke-width="0.1"/>
  <path d="M 39.781401500000015,13.891139000000067 L 37.89140150000003,24.44913900000006" fill="none" instance-id="3" semantic-id="4" stroke="rgb(0,178,178)" stroke-width="0.1"/>
  <path d="M 39.24040149999996,13.795139000000063 L 39.781401500000015,13.891139000000067" fill="none" instance-id="3" semantic-id="4" stroke="rgb(0,178,178)" stroke-width="0.1"/>
  <path d="M 37.89140150000003,24.44913900000006 L 37.350401499999975,24.352138999999966" fill="none" instance-id="3" semantic-id="4" stroke="rgb(0,178,178)" stroke-width="0.1"/>
  <path d="M 60.354401499999994,17.57413900000006 L 58.465401499999984,28.131139000000076" fill="none" instance-id="3" semantic-id="4" stroke="rgb(0,178,178)" stroke-width="0.1"/>
  <path d="M 60.89540150000005,17.670139000000063 L 59.00640150000004,28.228139000000056" fill="none" instance-id="3" semantic-id="4" stroke="rgb(0,178,178)" stroke-width="0.1"/>
  <path d="M 58.465401499999984,28.131139000000076 L 59.00640150000004,28.228139000000056" fill="none" instance-id="3" semantic-id="4" stroke="rgb(0,178,178)" stroke-width="0.1"/>
  <path d="M 60.89540150000005,17.670139000000063 L 60.354401499999994,17.57413900000006" fill="none" instance-id="3" semantic-id="4" stroke="rgb(0,178,178)" stroke-width="0.1"/>
  <path d="M 54.75953785597301,0.4528065770506373 L 54.98022300691525,0.9038167762799958" fill="none" stroke="rgb(0,178,178)" stroke-width="0.1"/>
  <path d="M 54.98022300691525,0.9038167762799958 L 55.22177527402857,1.344003825053278" fill="none" stroke="rgb(0,178,178)" stroke-width="0.1"/>
  <path d="M 55.22177527402857,1.344003825053278 L 55.48366522521542,1.7724029253355411" fill="none" stroke="rgb(0,178,178)" stroke-width="0.1"/>
  <path d="M 55.48366522521542,1.7724029253355411 L 55.76531885242389,2.1880751158121257" fill="none" stroke="rgb(0,178,178)" stroke-width="0.1"/>
  <path d="M 55.76531885242389,2.1880751158121257 L 56.066118829754146,2.590109329895199" fill="none" stroke="rgb(0,178,178)" stroke-width="0.1"/>
  <path d="M 56.066118829754146,2.590109329895199 L 56.38540586650731,2.9776243925916788" fill="none" stroke="rgb(0,178,178)" stroke-width="0.1"/>
  <path d="M 56.38540586650731,2.9776243925916788 L 56.72248015221328,3.349770951854566" fill="none" stroke="rgb(0,178,178)" stroke-width="0.1"/>
  <path d="M 56.72248015221328,3.349770951854566 L 57.07660289046851,3.7057333401849064" fill="none" stroke="rgb(0,178,178)" stroke-width="0.1"/>
  <path d="M 57.07660289046851,3.7057333401849064 L 57.44699791822393,4.0447313624054" fill="none" stroke="rgb(0,178,178)" stroke-width="0.1"/>
  <path d="M 57.44699791822393,4.0447313624054 L 57.832853406971935,4.366022005683931" fill="none" stroke="rgb(0,178,178)" stroke-width="0.1"/>
  <path d="M 57.832853406971935,4.366022005683931 L 58.23332364210489,4.6689010680634055" fill="none" stroke="rgb(0,178,178)" stroke-width="0.1"/>
  <path d="M 58.23332364210489,4.6689010680634055 L 58.64753087654458,4.952704701925086" fill="none" stroke="rgb(0,178,178)" stroke-width="0.1"/>
  <path d="M 58.64753087654458,4.952704701925086 L 59.07456725458087,5.216810869003666" fill="none" stroke="rgb(0,178,178)" stroke-width="0.1"/>
  <path d="M 59.07456725458087,5.216810869003666 L 59.51349680170142,5.460640703765193" fill="none" stroke="rgb(0,178,178)" stroke-width="0.1"/>
  <path d="M 59.51349680170142,5.460640703765193 L 59.96335747605224,5.68365978215968" fill="none" stroke="rgb(0,178,178)" stroke-width="0.1"/>
  <path d="M 59.96335747605224,5.68365978215968 L 60.423163277032586,5.8853792929664905" fill="none" stroke="rgb(0,178,178)" stroke-width="0.1"/>
  <path d="M 60.423163277032586,5.8853792929664905 L 60.89190640640197,6.065357109166939" fill="none" stroke="rgb(0,178,178)" stroke-width="0.1"/>
  <path d="M 60.89190640640197,6.065357109166939 L 61.36855947716367,6.223198756993838" fill="none" stroke="rgb(0,178,178)" stroke-width="0.1"/>
  <path d="M 61.36855947716367,6.223198756993838 L 61.85207776538232,6.35855828053559" fill="none" stroke="rgb(0,178,178)" stroke-width="0.1"/>
  <path d="M 61.85207776538232,6.35855828053559 L 62.34140149999996,6.471138999999994" fill="none" stroke="rgb(0,178,178)" stroke-width="0.1"/>
  <path d="M 41.76840149999998,2.7891389999999774 L 42.26638890738025,2.853242252856603" fill="none" stroke="rgb(0,178,178)" stroke-width="0.1"/>
  <path d="M 42.26638890738025,2.853242252856603 L 42.766830801248716,2.8939681143883718" fill="none" stroke="rgb(0,178,178)" stroke-width="0.1"/>
  <path d="M 42.766830801248716,2.8939681143883718 L 43.268630367358696,2.911227326070957" fill="none" stroke="rgb(0,178,178)" stroke-width="0.1"/>
  <path d="M 43.268630367358696,2.911227326070957 L 43.77068781586502,2.9049820610365487" fill="none" stroke="rgb(0,178,178)" stroke-width="0.1"/>
  <path d="M 43.77068781586502,2.9049820610365487 L 44.27190279172396,2.875246006979637" fill="none" stroke="rgb(0,178,178)" stroke-width="0.1"/>
  <path d="M 44.27190279172396,2.875246006979637 L 44.771176786331466,2.8220843361569905" fill="none" stroke="rgb(0,178,178)" stroke-width="0.1"/>
  <path d="M 44.771176786331466,2.8220843361569905 L 45.26741554511625,2.745613562551057" fill="none" stroke="rgb(0,178,178)" stroke-width="0.1"/>
  <path d="M 45.26741554511625,2.745613562551057 L 45.75953146580696,2.646001286506362" fill="none" stroke="rgb(0,178,178)" stroke-width="0.1"/>
  <path d="M 45.75953146580696,2.646001286506362 L 46.24644598212183,2.523465827402106" fill="none" stroke="rgb(0,178,178)" stroke-width="0.1"/>
  <path d="M 46.24644598212183,2.523465827402106 L 46.72709192765285,2.378275745162682" fill="none" stroke="rgb(0,178,178)" stroke-width="0.1"/>
  <path d="M 46.72709192765285,2.378275745162682 L 47.20041587476521,2.2107492516577167" fill="none" stroke="rgb(0,178,178)" stroke-width="0.1"/>
  <path d="M 47.20041587476521,2.2107492516577167 L 47.66538044338597,2.0212535132795892" fill="none" stroke="rgb(0,178,178)" stroke-width="0.1"/>
  <path d="M 47.66538044338597,2.0212535132795892 L 48.12096657462064,1.8102038462278642" fill="none" stroke="rgb(0,178,178)" stroke-width="0.1"/>
  <path d="M 48.12096657462064,1.8102038462278642 L 48.56617576421684,1.5780628062645974" fill="none" stroke="rgb(0,178,178)" stroke-width="0.1"/>
  <path d="M 48.56617576421684,1.5780628062645974 L 49.00003225097646,1.32533917493447" fill="none" stroke="rgb(0,178,178)" stroke-width="0.1"/>
  <path d="M 49.00003225097646,1.32533917493447 L 49.42158515532401,1.0525868444728985" fill="none" stroke="rgb(0,178,178)" stroke-width="0.1"/>
  <path d="M 49.42158515532401,1.0525868444728985 L 49.82991056334106,0.7604036038450204" fill="none" stroke="rgb(0,178,178)" stroke-width="0.1"/>
  <path d="M 49.82991056334106,0.7604036038450204 L 50.224113551700384,0.4494298285766263" fill="none" stroke="rgb(0,178,178)" stroke-width="0.1"/>
  <path d="M 50.224113551700384,0.4494298285766263 L 50.60333014906189,0.12034707724853888" fill="none" stroke="rgb(0,178,178)" stroke-width="0.1"/>
  <path d="M 37.892401500000005,24.44513900000004 A 10.725,10.725 0.0 0,0 50.06740149999996,15.732139000000075" fill="none" instance-id="3" semantic-id="4" stroke="rgb(0,178,178)" stroke-width="0.1"/>
  <path d="M 50.06740149999996,15.732139000000075 A 10.725,10.725 0.0 0,0 58.465401499999984,28.127139000000057" fill="none" instance-id="3" semantic-id="4" stroke="rgb(0,178,178)" stroke-width="0.1"/>
 </g>
 <g id="layerDOOR_FIRE_TEXT" inkscape:groupmode="layer" inkscape:label="DOOR_FIRE_TEXT">
  <text fill="rgb(0,0,0)" font-family="Noto Sans CJK SC" font-size="2" transform="rotate(-349.853,44.527401499999996,13.780139000000077)" x="44.527401499999996" y="13.780139000000077">
   FM
  </text>
  <text fill="rgb(0,0,0)" font-family="Noto Sans CJK SC" font-size="2" transform="rotate(-349.853,48.15440150000006,14.429138999999964)" x="48.15440150000006" y="14.429138999999964">
   乙
  </text>
  <text fill="rgb(0,0,0)" font-family="Noto Sans CJK SC" font-size="2" transform="rotate(-349.853,51.50240150000002,15.02813900000001)" x="51.50240150000002" y="15.02813900000001">
   2223
  </text>
  <text fill="rgb(0,0,0)" font-family="Noto Sans CJK SC" font-size="2" transform="rotate(-349.853,4.78840150000002,0.26313900000002377)" x="4.78840150000002" y="0.26313900000002377">
   乙
  </text>
  <text fill="rgb(0,0,0)" font-family="Noto Sans CJK SC" font-size="2" transform="rotate(-349.853,8.13740150000001,0.8631390000000465)" x="8.13740150000001" y="0.8631390000000465">
   1823
  </text>
 </g>
 <g id="layerPUB_HATCH" inkscape:groupmode="layer" inkscape:label="PUB_HATCH">
  <path d="M 6.49640149999999,88.89913899999999 L 9.613401500000009,71.48213900000007" fill="none" instance-id="-1" semantic-id="1" stroke="rgb(63,63,63)" stroke-width="0.1"/>
  <path d="M 9.613401500000009,71.48213900000007 L 4.69140150000004,70.60113899999999" fill="none" instance-id="-1" semantic-id="1" stroke="rgb(63,63,63)" stroke-width="0.1"/>
  <path d="M 4.69140150000004,70.60113899999999 L 0.5224015000000009,93.89713900000004" fill="none" instance-id="-1" semantic-id="1" stroke="rgb(63,63,63)" stroke-width="0.1"/>
  <path d="M 56.22340150000002,94.86313900000005 A 3025.79,3025.79 0.0 0,0 0.5224015000000009,93.89713900000004" fill="none" instance-id="-1" semantic-id="1" stroke="rgb(63,63,63)" stroke-width="0.1"/>
  <path d="M 56.22340150000002,94.86313900000005 L 60.77040150000005,69.45713899999998" fill="none" instance-id="-1" semantic-id="1" stroke="rgb(63,63,63)" stroke-width="0.1"/>
  <path d="M 60.77040150000005,69.45713899999998 L 55.84840150000002,68.57613900000001" fill="none" instance-id="-1" semantic-id="1" stroke="rgb(63,63,63)" stroke-width="0.1"/>
  <path d="M 55.84840150000002,68.57613900000001 L 52.677401499999974,86.29513900000006" fill="none" instance-id="-1" semantic-id="1" stroke="rgb(63,63,63)" stroke-width="0.1"/>
  <path d="M 52.677401499999974,86.29513900000006 L 48.739401499999985,85.59013900000002" fill="none" instance-id="-1" semantic-id="1" stroke="rgb(63,63,63)" stroke-width="0.1"/>
  <path d="M 48.739401499999985,85.59013900000002 L 48.02440150000007,89.58713899999998" fill="none" instance-id="-1" semantic-id="1" stroke="rgb(63,63,63)" stroke-width="0.1"/>
  <path d="M 48.02440150000007,89.58713899999998 A 3040.24,3040.24 0.0 0,0 6.49640149999999,88.89913899999999" fill="none" instance-id="-1" semantic-id="1" stroke="rgb(63,63,63)" stroke-width="0.1"/>
  <path d="M 59.900401500000044,45.936139000000026 L 64.82240150000007,46.817139" fill="none" instance-id="-1" semantic-id="1" stroke="rgb(63,63,63)" stroke-width="0.1"/>
  <path d="M 64.82240150000007,46.817139 L 69.93140149999999,18.27213900000004" fill="none" instance-id="-1" semantic-id="1" stroke="rgb(63,63,63)" stroke-width="0.1"/>
  <path d="M 69.93140149999999,18.27213900000004 L 61.07240150000007,16.686139000000026" fill="none" instance-id="-1" semantic-id="1" stroke="rgb(63,63,63)" stroke-width="0.1"/>
  <path d="M 61.07240150000007,16.686139000000026 L 59.486401500000056,25.545139000000063" fill="none" instance-id="-1" semantic-id="1" stroke="rgb(63,63,63)" stroke-width="0.1"/>
  <path d="M 59.486401500000056,25.545139000000063 L 63.42340150000007,26.25013899999999" fill="none" instance-id="-1" semantic-id="1" stroke="rgb(63,63,63)" stroke-width="0.1"/>
  <path d="M 63.42340150000007,26.25013899999999 L 59.900401500000044,45.936139000000026" fill="none" instance-id="-1" semantic-id="1" stroke="rgb(63,63,63)" stroke-width="0.1"/>
  <path d="M 9.801401499999997,42.05013900000006 L 14.723401500000023,42.93113900000003" fill="none" instance-id="-1" semantic-id="1" stroke="rgb(63,63,63)" stroke-width="0.1"/>
  <path d="M 14.723401500000023,42.93113900000003 L 19.832401500000003,14.385138999999981" fill="none" instance-id="-1" semantic-id="1" stroke="rgb(63,63,63)" stroke-width="0.1"/>
  <path d="M 19.832401500000003,14.385138999999981 L 38.535401500000035,17.732139000000075" fill="none" instance-id="-1" semantic-id="1" stroke="rgb(63,63,63)" stroke-width="0.1"/>
  <path d="M 38.535401500000035,17.732139000000075 L 39.416401500000006,12.81013900000005" fill="none" instance-id="-1" semantic-id="1" stroke="rgb(63,63,63)" stroke-width="0.1"/>
  <path d="M 39.416401500000006,12.81013900000005 L 15.791401500000006,8.582138999999984" fill="none" instance-id="-1" semantic-id="1" stroke="rgb(63,63,63)" stroke-width="0.1"/>
  <path d="M 15.791401500000006,8.582138999999984 L 9.801401499999997,42.05013900000006" fill="none" instance-id="-1" semantic-id="1" stroke="rgb(63,63,63)" stroke-width="0.1"/>
 </g>
 <g id="layerPUB_TEXT" inkscape:groupmode="layer" inkscape:label="PUB_TEXT">
  <text fill="rgb(0,178,0)" font-family="Noto Sans CJK SC" font-size="2" transform="rotate(-349.853,21.350401500000032,23.555139000000054)" x="21.350401500000032" y="23.555139000000054">
   LTB9
  </text>
  <text fill="rgb(0,0,0)" font-family="Noto Sans CJK SC" font-size="2" transform="rotate(-349.9,23.158401500000025,2.8311390000000074)" x="23.158401500000025" y="2.8311390000000074">
   正压
  </text>
  <text fill="rgb(0,0,0)" font-family="Noto Sans CJK SC" font-size="2" transform="rotate(-339.753,41.96440150000001,42.68313899999998)" x="41.96440150000001" y="42.68313899999998">
   上
  </text>
  <text fill="rgb(0,0,0)" font-family="Noto Sans CJK SC" font-size="2" transform="rotate(-339.753,45.42240149999998,43.95913900000005)" x="45.42240149999998" y="43.95913900000005">
   18
  </text>
  <text fill="rgb(0,0,0)" font-family="Noto Sans CJK SC" font-size="2" transform="rotate(-339.753,50.489401499999985,45.828138999999965)" x="50.489401499999985" y="45.828138999999965">
   级
  </text>
  <text fill="rgb(0,0,0)" font-family="Noto Sans CJK SC" font-size="2" transform="rotate(-339.753,19.81640150000004,38.72013900000002)" x="19.81640150000004" y="38.72013900000002">
   下
  </text>
  <text fill="rgb(0,0,0)" font-family="Noto Sans CJK SC" font-size="2" transform="rotate(-339.753,23.27440150000001,39.99613899999997)" x="23.27440150000001" y="39.99613899999997">
   18
  </text>
  <text fill="rgb(0,0,0)" font-family="Noto Sans CJK SC" font-size="2" transform="rotate(-339.753,28.34140149999996,41.86413900000002)" x="28.34140149999996" y="41.86413900000002">
   级
  </text>
  <text fill="rgb(0,0,0)" font-family="Noto Sans CJK SC" font-size="2" transform="rotate(-349.9,46.99040149999996,7.527139000000034)" x="46.99040149999996" y="7.527139000000034">
   前室
  </text>
 </g>
 <g id="layerS-XIAO" inkscape:groupmode="layer" inkscape:label="S-XIAO">
  <path d="M 69.73140150000006,8.077138999999988 L 67.3684015,7.6541389999999865" fill="none" stroke="rgb(178,88,0)" stroke-width="0.1"/>
  <path d="M 66.13540150000006,14.545139000000063 L 68.4984015,14.967138999999975" fill="none" stroke="rgb(178,88,0)" stroke-width="0.1"/>
  <path d="M 68.4984015,14.967138999999975 L 69.73140150000006,8.077138999999988" fill="none" stroke="rgb(178,88,0)" stroke-width="0.1"/>
  <path d="M 68.4984015,14.967138999999975 L 67.3684015,7.6541389999999865" fill="none" stroke="rgb(178,88,0)" stroke-width="0.1"/>
  <path d="M 67.3684015,7.6541389999999865 L 66.13540150000006,14.545139000000063" fill="none" stroke="rgb(178,88,0)" stroke-width="0.1"/>
 </g>
 <g id="layerSTAIR" inkscape:groupmode="layer" inkscape:label="STAIR">
  <path d="M 32.517401500000005,67.85513900000001 L 31.73040149999997,67.71413900000005" fill="none" instance-id="4" semantic-id="30" stroke="rgb(178,88,0)" stroke-width="0.1"/>
  <path d="M 36.46340150000003,45.80613900000003 L 35.67540150000002,45.66513900000007" fill="none" instance-id="4" semantic-id="30" stroke="rgb(178,88,0)" stroke-width="0.1"/>
  <path d="M 57.233401500000014,49.52113900000006 L 55.98040149999997,56.52413899999999" fill="none" instance-id="4" semantic-id="30" stroke="rgb(178,88,0)" stroke-width="0.1"/>
  <path d="M 55.785401500000035,57.616138999999976 L 53.28740149999999,71.57113900000002" fill="none" instance-id="4" semantic-id="30" stroke="rgb(178,88,0)" stroke-width="0.1"/>
  <path d="M 37.05440150000004,45.91013900000007 L 34.063401500000055,62.62113899999997" fill="none" instance-id="4" semantic-id="30" stroke="rgb(178,88,0)" stroke-width="0.1"/>
  <path d="M 33.868401500000004,63.714139000000046 L 33.108401500000014,67.96013900000003" fill="none" instance-id="4" semantic-id="30" stroke="rgb(178,88,0)" stroke-width="0.1"/>
  <path d="M 57.233401500000014,49.52113900000006 L 37.05440150000004,45.91013900000007" fill="none" instance-id="4" semantic-id="30" stroke="rgb(178,88,0)" stroke-width="0.1"/>
  <path d="M 56.74040149999996,52.277139000000034 L 36.56040150000001,48.666139000000044" fill="none" instance-id="4" semantic-id="30" stroke="rgb(178,88,0)" stroke-width="0.1"/>
  <path d="M 56.247401500000024,55.03413899999998 L 36.06740149999996,51.42313899999999" fill="none" instance-id="4" semantic-id="30" stroke="rgb(178,88,0)" stroke-width="0.1"/>
  <path d="M 55.753401499999995,57.79013900000007 L 55.392401500000005,57.72513900000001" fill="none" instance-id="4" semantic-id="30" stroke="rgb(178,88,0)" stroke-width="0.1"/>
  <path d="M 53.122401500000024,57.319139000000064 L 35.57440150000002,54.179138999999964" fill="none" instance-id="4" semantic-id="30" stroke="rgb(178,88,0)" stroke-width="0.1"/>
  <path d="M 55.26040150000006,60.54613900000004 L 49.170401500000025,59.45613900000001" fill="none" instance-id="4" semantic-id="30" stroke="rgb(178,88,0)" stroke-width="0.1"/>
  <path d="M 46.900401500000044,59.05013900000006 L 35.08140149999997,56.93513900000005" fill="none" instance-id="4" semantic-id="30" stroke="rgb(178,88,0)" stroke-width="0.1"/>
  <path d="M 54.767401500000005,63.30213900000001 L 42.948401500000045,61.187139" fill="none" instance-id="4" semantic-id="30" stroke="rgb(178,88,0)" stroke-width="0.1"/>
  <path d="M 40.678401500000064,60.78113900000005 L 34.58840150000003,59.69113900000002" fill="none" instance-id="4" semantic-id="30" stroke="rgb(178,88,0)" stroke-width="0.1"/>
  <path d="M 54.27440150000007,66.05913900000007 L 36.726401500000065,62.918139" fill="none" instance-id="4" semantic-id="30" stroke="rgb(178,88,0)" stroke-width="0.1"/>
  <path d="M 34.45640149999997,62.51213900000005 L 34.094401500000004,62.44713899999999" fill="none" instance-id="4" semantic-id="30" stroke="rgb(178,88,0)" stroke-width="0.1"/>
  <path d="M 53.78040150000004,68.81513900000004 L 33.601401500000065,65.20413900000005" fill="none" instance-id="4" semantic-id="30" stroke="rgb(178,88,0)" stroke-width="0.1"/>
  <path d="M 53.28740149999999,71.57113900000002 L 33.108401500000014,67.96013900000003" fill="none" instance-id="4" semantic-id="30" stroke="rgb(178,88,0)" stroke-width="0.1"/>
  <path d="M 55.785401500000035,57.616138999999976 L 45.79440150000005,60.39513899999997" fill="none" instance-id="4" semantic-id="30" stroke="rgb(178,88,0)" stroke-width="0.1"/>
  <path d="M 55.98040149999997,56.52413899999999 L 45.78440150000006,59.360139000000004" fill="none" instance-id="4" semantic-id="30" stroke="rgb(178,88,0)" stroke-width="0.1"/>
  <path d="M 45.78440150000006,59.360139000000004 L 45.8014015,61.144138999999996" fill="none" instance-id="4" semantic-id="30" stroke="rgb(178,88,0)" stroke-width="0.1"/>
  <path d="M 45.8014015,61.144138999999996 L 44.23840150000001,58.95613900000001" fill="none" instance-id="4" semantic-id="30" stroke="rgb(178,88,0)" stroke-width="0.1"/>
  <path d="M 44.23840150000001,58.95613900000001 L 44.25640150000004,60.82413900000006" fill="none" instance-id="4" semantic-id="30" stroke="rgb(178,88,0)" stroke-width="0.1"/>
  <path d="M 44.25640150000004,60.82413900000006 L 33.868401500000004,63.714139000000046" fill="none" instance-id="4" semantic-id="30" stroke="rgb(178,88,0)" stroke-width="0.1"/>
  <path d="M 44.24640150000005,59.788139 L 34.063401500000055,62.62113899999997" fill="none" instance-id="4" semantic-id="30" stroke="rgb(178,88,0)" stroke-width="0.1"/>
  <path d="M 10.960401499999989,63.99613899999997 L 14.906401500000015,41.94713899999999" fill="none" instance-id="4" semantic-id="30" stroke="rgb(178,88,0)" stroke-width="0.1"/>
  <path d="M 31.139401499999963,67.60713900000007 L 35.08540149999999,45.55813899999998" fill="none" instance-id="4" semantic-id="30" stroke="rgb(178,88,0)" stroke-width="0.1"/>
  <path d="M 10.960401499999989,63.99613899999997 L 31.139401499999963,67.60713900000007" fill="none" instance-id="4" semantic-id="30" stroke="rgb(178,88,0)" stroke-width="0.1"/>
  <path d="M 11.45340150000004,61.240139 L 31.632401500000014,64.85113899999999" fill="none" instance-id="4" semantic-id="30" stroke="rgb(178,88,0)" stroke-width="0.1"/>
  <path d="M 11.946401500000036,58.48413900000003 L 32.12640150000004,62.09513900000002" fill="none" instance-id="4" semantic-id="30" stroke="rgb(178,88,0)" stroke-width="0.1"/>
  <path d="M 12.43940150000003,55.728139000000056 L 32.61940149999998,59.339139000000046" fill="none" instance-id="4" semantic-id="30" stroke="rgb(178,88,0)" stroke-width="0.1"/>
  <path d="M 12.933401500000002,52.971138999999994 L 33.11240150000003,56.583139000000074" fill="none" instance-id="4" semantic-id="30" stroke="rgb(178,88,0)" stroke-width="0.1"/>
  <path d="M 13.426401499999997,50.21513900000002 L 33.60540149999997,53.82613900000001" fill="none" instance-id="4" semantic-id="30" stroke="rgb(178,88,0)" stroke-width="0.1"/>
  <path d="M 13.919401499999992,47.45913900000005 L 34.09840150000002,51.07013900000004" fill="none" instance-id="4" semantic-id="30" stroke="rgb(178,88,0)" stroke-width="0.1"/>
  <path d="M 14.412401499999987,44.703138999999965 L 34.59240150000005,48.31413900000007" fill="none" instance-id="4" semantic-id="30" stroke="rgb(178,88,0)" stroke-width="0.1"/>
  <path d="M 14.906401500000015,41.94713899999999 L 35.08540149999999,45.55813899999998" fill="none" instance-id="4" semantic-id="30" stroke="rgb(178,88,0)" stroke-width="0.1"/>
  <path d="M 35.3494015,44.082138999999984 L 37.31840150000005,44.43513900000005" fill="none" instance-id="4" semantic-id="30" stroke="rgb(178,88,0)" stroke-width="0.1"/>
  <path d="M 37.31840150000005,44.43513900000005 L 32.84340150000003,69.43813899999998" fill="none" instance-id="4" semantic-id="30" stroke="rgb(178,88,0)" stroke-width="0.1"/>
  <path d="M 32.84340150000003,69.43813899999998 L 30.875401500000066,69.08513900000003" fill="none" instance-id="4" semantic-id="30" stroke="rgb(178,88,0)" stroke-width="0.1"/>
  <path d="M 30.875401500000066,69.08513900000003 L 35.3494015,44.082138999999984" fill="none" instance-id="4" semantic-id="30" stroke="rgb(178,88,0)" stroke-width="0.1"/>
  <path d="M 35.83440150000001,44.77913899999999 L 36.62140150000005,44.92013900000006" fill="none" instance-id="4" semantic-id="30" stroke="rgb(178,88,0)" stroke-width="0.1"/>
  <path d="M 36.62140150000005,44.92013900000006 L 32.358401500000014,68.74113899999998" fill="none" instance-id="4" semantic-id="30" stroke="rgb(178,88,0)" stroke-width="0.1"/>
  <path d="M 32.358401500000014,68.74113899999998 L 31.57140149999998,68.60013900000001" fill="none" instance-id="4" semantic-id="30" stroke="rgb(178,88,0)" stroke-width="0.1"/>
  <path d="M 31.57140149999998,68.60013900000001 L 35.83440150000001,44.77913899999999" fill="none" instance-id="4" semantic-id="30" stroke="rgb(178,88,0)" stroke-width="0.1"/>
  <path d="M 57.233401500000014,49.52113900000006 A 21.5,21.5 0.0 1,0 14.906401500000015,41.94713899999999" fill="none" instance-id="4" semantic-id="30" stroke="rgb(134,134,134)" stroke-width="0.1"/>
  <path d="M 10.960401499999989,63.99613899999997 A 21.5,21.5 0.0 1,0 53.28740149999999,71.57113900000002" fill="none" instance-id="4" semantic-id="30" stroke="rgb(134,134,134)" stroke-width="0.1"/>
 </g>
 <g id="layerWALL" inkscape:groupmode="layer" inkscape:label="WALL">
  <path d="M 15.515401499999996,9.548138999999992 L 17.22490341067521,0.0" fill="none" instance-id="-1" semantic-id="1" stroke="rgb(178,178,0)" stroke-width="0.1"/>
  <path d="M 17.660401500000035,8.916139000000044 L 19.25674992521101,0.0" fill="none" instance-id="-1" semantic-id="1" stroke="rgb(178,178,0)" stroke-width="0.1"/>
  <path d="M 37.44740150000007,12.458139000000074 L 39.6774254668818,0.0" fill="none" instance-id="-1" semantic-id="1" stroke="rgb(178,178,0)" stroke-width="0.1"/>
  <path d="M 39.416401500000006,12.81013900000005 L 41.708783259384404,0.0" fill="none" instance-id="-1" semantic-id="1" stroke="rgb(178,178,0)" stroke-width="0.1"/>
  <path d="M 67.96240150000006,17.919138999999973 L 71.16904175483819,0.0" fill="none" instance-id="-1" semantic-id="1" stroke="rgb(178,178,0)" stroke-width="0.1"/>
  <path d="M 69.93140149999999,18.27213900000004 L 73.20091288829883,0.0" fill="none" instance-id="-1" semantic-id="1" stroke="rgb(178,178,0)" stroke-width="0.1"/>
  <path d="M 4.69140150000004,70.60113899999999 L 9.801401499999997,42.05013900000006" fill="none" instance-id="-1" semantic-id="1" stroke="rgb(178,178,0)" stroke-width="0.1"/>
  <path d="M 6.6604015000000345,70.95313899999996 L 11.770401499999991,42.402139000000034" fill="none" instance-id="-1" semantic-id="1" stroke="rgb(178,178,0)" stroke-width="0.1"/>
  <path d="M 7.644401500000015,71.13013899999999 L 12.754401500000029,42.579139000000055" fill="none" instance-id="-1" semantic-id="1" stroke="rgb(178,178,0)" stroke-width="0.1"/>
  <path d="M 9.613401500000009,71.48213900000007 L 14.723401500000023,42.93113900000003" fill="none" instance-id="-1" semantic-id="1" stroke="rgb(178,178,0)" stroke-width="0.1"/>
  <path d="M 55.84840150000002,68.57613900000001 L 59.900401500000044,45.936139000000026" fill="none" instance-id="-1" semantic-id="1" stroke="rgb(178,178,0)" stroke-width="0.1"/>
  <path d="M 57.81740149999996,68.92913899999996 L 61.86940149999998,46.288139" fill="none" instance-id="-1" semantic-id="1" stroke="rgb(178,178,0)" stroke-width="0.1"/>
  <path d="M 58.8014015,69.10513900000001 L 62.85340150000002,46.46513900000002" fill="none" instance-id="-1" semantic-id="1" stroke="rgb(178,178,0)" stroke-width="0.1"/>
  <path d="M 60.77040150000005,69.45713899999998 L 64.82240150000007,46.817139" fill="none" instance-id="-1" semantic-id="1" stroke="rgb(178,178,0)" stroke-width="0.1"/>
  <path d="M 50.708401500000036,85.942139 L 61.455401499999994,25.898139000000015" fill="none" instance-id="-1" semantic-id="1" stroke="rgb(178,178,0)" stroke-width="0.1"/>
  <path d="M 55.84840150000002,68.57613900000001 L 59.900401500000044,45.936139000000026" fill="none" instance-id="-1" semantic-id="1" stroke="rgb(178,178,0)" stroke-width="0.1"/>
 </g>
 <g id="layerm-洞口" inkscape:groupmode="layer" inkscape:label="m-洞口">
  <path d="M 37.44740150000007,12.458139000000074 L 17.660401500000035,8.916139000000044" fill="none" stroke="rgb(160,107,53)" stroke-width="0.1"/>
  <path d="M 17.660401500000035,8.916139000000044 L 19.256402609158386,0.0" fill="none" stroke="rgb(160,107,53)" stroke-width="0.1"/>
  <path d="M 39.6774254668818,0.0 L 37.44740150000007,12.458139000000074" fill="none" stroke="rgb(160,107,53)" stroke-width="0.1"/>
  <path d="M 17.660401500000035,8.916139000000044 L 20.83087718344177,0.0" fill="none" stroke="rgb(160,107,53)" stroke-width="0.1"/>
 </g>
</svg>