<?xml version="1.0" encoding="utf-8"?>
<svg style="background-color: #000;" version="1.1" viewBox="0 0 100.0 100.0" xmlns="http://www.w3.org/2000/svg" xmlns:inkscape="http://www.inkscape.org/namespaces/inkscape">
 <g id="layer!消防-疏散楼梯" inkscape:groupmode="layer" inkscape:label="!消防-疏散楼梯">
  <path d="M 28.94525349999998,85.05410600000005 L 30.724253499999975,83.27510600000005" fill="none" stroke="rgb(53,107,0)" stroke-width="0.1"/>
  <path d="M 29.901253499999996,87.46510599999999 L 36.30625349999997,81.06010600000002" fill="none" stroke="rgb(53,107,0)" stroke-width="0.1"/>
  <path d="M 30.85825349999999,89.87610600000005 L 41.88825349999996,78.84510599999999" fill="none" stroke="rgb(53,107,0)" stroke-width="0.1"/>
  <path d="M 31.81425349999995,92.287106 L 47.47125349999999,76.63110600000005" fill="none" stroke="rgb(53,107,0)" stroke-width="0.1"/>
  <path d="M 32.7712535,94.69810600000005 L 53.05325349999998,74.41610600000001" fill="none" stroke="rgb(53,107,0)" stroke-width="0.1"/>
  <path d="M 33.72725349999996,97.109106 L 58.635253499999976,72.20110599999998" fill="none" stroke="rgb(53,107,0)" stroke-width="0.1"/>
  <path d="M 34.684253499999954,99.52010600000006 L 64.21725349999997,69.98710600000004" fill="none" stroke="rgb(53,107,0)" stroke-width="0.1"/>
  <path d="M 37.57135949999997,100.0 L 69.79925349999996,67.77210600000001" fill="none" stroke="rgb(53,107,0)" stroke-width="0.1"/>
  <path d="M 40.93947145611594,100.0 L 75.38225349999999,65.55810599999995" fill="none" stroke="rgb(53,107,0)" stroke-width="0.1"/>
  <path d="M 44.30651506567608,100.0 L 80.96425349999998,63.343106000000034" fill="none" stroke="rgb(53,107,0)" stroke-width="0.1"/>
  <path d="M 47.67435950000004,100.0 L 86.54625349999998,61.128106" fill="none" stroke="rgb(53,107,0)" stroke-width="0.1"/>
  <path d="M 51.04313968104134,100.0 L 92.12825349999997,58.91410600000006" fill="none" stroke="rgb(53,107,0)" stroke-width="0.1"/>
  <path d="M 54.410115345796726,100.0 L 97.71025349999996,56.69910600000003" fill="none" stroke="rgb(53,107,0)" stroke-width="0.1"/>
  <path d="M 57.77735949999999,100.0 L 100.0,57.77735949999999" fill="none" stroke="rgb(53,107,0)" stroke-width="0.1"/>
  <path d="M 61.14459108160571,100.0 L 100.0,61.14528848995758" fill="none" stroke="rgb(53,107,0)" stroke-width="0.1"/>
  <path d="M 64.51315029028348,100.0 L 100.0,64.51245565466752" fill="none" stroke="rgb(53,107,0)" stroke-width="0.1"/>
  <path d="M 67.8803595,100.0 L 100.0,67.88035950000005" fill="none" stroke="rgb(53,107,0)" stroke-width="0.1"/>
  <path d="M 71.24820989304914,100.0 L 100.0,71.24752264307051" fill="none" stroke="rgb(53,107,0)" stroke-width="0.1"/>
  <path d="M 74.61535950000001,100.0 L 100.0,74.61535949999995" fill="none" stroke="rgb(53,107,0)" stroke-width="0.1"/>
  <path d="M 77.98235949999997,100.0 L 100.0,77.98235949999992" fill="none" stroke="rgb(53,107,0)" stroke-width="0.1"/>
  <path d="M 81.73625349999998,99.61510599999997 L 100.0,81.35135949999994" fill="none" stroke="rgb(53,107,0)" stroke-width="0.1"/>
  <path d="M 87.31825349999997,97.40010600000005 L 100.0,84.71835950000002" fill="none" stroke="rgb(53,107,0)" stroke-width="0.1"/>
  <path d="M 92.90025349999996,95.186106 L 100.0,88.08635949999996" fill="none" stroke="rgb(53,107,0)" stroke-width="0.1"/>
  <path d="M 98.48225349999996,92.97110599999996 L 100.0,91.45346727153299" fill="none" stroke="rgb(53,107,0)" stroke-width="0.1"/>
  <path d="M 28.577253499999983,84.12610600000005 L 34.874775426718145,100.0" fill="none" stroke="rgb(53,107,0)" stroke-width="0.1"/>
  <path d="M 80.76550747010265,100.0 L 100.0,92.36926435377609" fill="none" stroke="rgb(53,107,0)" stroke-width="0.1"/>
  <path d="M 100.0,55.7911708920617 L 28.577253499999983,84.12610600000005" fill="none" stroke="rgb(53,107,0)" stroke-width="0.1"/>
  <path d="M 28.577253499999983,84.12610600000005 L 34.874775426718145,100.0" fill="none" stroke="rgb(53,107,0)" stroke-width="0.1"/>
  <path d="M 80.76550747010265,100.0 L 100.0,92.36926435377609" fill="none" stroke="rgb(53,107,0)" stroke-width="0.1"/>
  <path d="M 100.0,55.7911708920617 L 28.577253499999983,84.12610600000005" fill="none" stroke="rgb(53,107,0)" stroke-width="0.1"/>
 </g>
 <g id="layer0-结构边线" inkscape:groupmode="layer" inkscape:label="0-结构边线">
  <path d="M 78.01825349999996,67.73910599999999 L 85.4542535,64.78910600000006" fill="none" stroke="rgb(178,0,178)" stroke-width="0.1"/>
  <path d="M 85.4542535,64.78910600000006 L 82.50425349999995,57.353106000000025" fill="none" stroke="rgb(178,0,178)" stroke-width="0.1"/>
  <path d="M 75.06825349999997,60.30310599999996 L 82.50425349999995,57.353106000000025" fill="none" stroke="rgb(178,0,178)" stroke-width="0.1"/>
  <path d="M 78.01825349999996,67.73910599999999 L 75.06825349999997,60.30310599999996" fill="none" stroke="rgb(178,0,178)" stroke-width="0.1"/>
  <path d="M 99.42362403523396,100.0 L 96.88625349999995,93.604106" fill="none" stroke="rgb(178,0,178)" stroke-width="0.1"/>
  <path d="M 87.5912535,97.29210599999999 L 96.88625349999995,93.604106" fill="none" stroke="rgb(178,0,178)" stroke-width="0.1"/>
  <path d="M 88.66552559521244,100.0 L 87.5912535,97.29210599999999" fill="none" stroke="rgb(178,0,178)" stroke-width="0.1"/>
 </g>
 <g id="layerCOLUMN" inkscape:groupmode="layer" inkscape:label="COLUMN">
  <path d="M 99.42362403523396,100.0 L 96.88625349999995,93.604106" fill="none" stroke="rgb(178,178,0)" stroke-width="0.1"/>
  <path d="M 96.88625349999995,93.604106 L 87.5912535,97.29210599999999" fill="none" stroke="rgb(178,178,0)" stroke-width="0.1"/>
  <path d="M 87.5912535,97.29210599999999 L 88.66552559521244,100.0" fill="none" stroke="rgb(178,178,0)" stroke-width="0.1"/>
  <path d="M 78.01825349999996,67.73910599999999 L 85.4542535,64.78910600000006" fill="none" stroke="rgb(178,178,0)" stroke-width="0.1"/>
  <path d="M 85.4542535,64.78910600000006 L 82.50425349999995,57.353106000000025" fill="none" stroke="rgb(178,178,0)" stroke-width="0.1"/>
  <path d="M 82.50425349999995,57.353106000000025 L 75.06825349999997,60.30310599999996" fill="none" stroke="rgb(178,178,0)" stroke-width="0.1"/>
  <path d="M 75.06825349999997,60.30310599999996 L 78.01825349999996,67.73910599999999" fill="none" stroke="rgb(178,178,0)" stroke-width="0.1"/>
 </g>
 <g id="layerDIM_SYMB" inkscape:groupmode="layer" inkscape:label="DIM_SYMB">
  <path d="M 49.65325349999995,84.64110600000004 L 55.788253499999996,82.20710599999995" fill="none" stroke="rgb(0,178,0)" stroke-width="0.1"/>
  <path d="M 55.788253499999996,82.20710599999995 L 61.365253499999994,79.99410599999999" fill="none" stroke="rgb(0,178,0)" stroke-width="0.1"/>
  <path d="M 58.39270707864455,100.0 L 85.89725349999998,89.08810600000004" fill="none" stroke="rgb(0,178,0)" stroke-width="0.1"/>
  <path d="M 85.89725349999998,89.08810600000004 L 79.44425349999995,72.82210599999996" fill="none" stroke="rgb(0,178,0)" stroke-width="0.1"/>
  <path d="M 79.44425349999995,72.82210599999996 L 69.54425349999997,76.74910599999998" fill="none" stroke="rgb(0,178,0)" stroke-width="0.1"/>
  <path d="M 69.54425349999997,76.74910599999998 L 63.96725349999997,78.96210600000006" fill="none" stroke="rgb(0,178,0)" stroke-width="0.1"/>
 </g>
 <g id="layerDOOR_FIRE" inkscape:groupmode="layer" inkscape:label="DOOR_FIRE">
  <path d="M 8.295253500000001,33.003106 L 18.51925349999999,28.946105999999986" fill="none" instance-id="2" semantic-id="3" stroke="rgb(0,178,178)" stroke-width="0.1"/>
  <path d="M 31.5332535,23.78410599999995 L 41.75725349999999,19.72710600000005" fill="none" instance-id="3" semantic-id="3" stroke="rgb(0,178,178)" stroke-width="0.1"/>
  <path d="M 86.55125349999997,5.1841060000000425 L 84.49488573325601,0.0" fill="none" stroke="rgb(0,178,178)" stroke-width="0.1"/>
  <path d="M 87.01625349999995,4.999105999999983 L 85.03326927071606,0.0" fill="none" stroke="rgb(0,178,178)" stroke-width="0.1"/>
  <path d="M 86.55125349999997,5.1841060000000425 L 87.01625349999995,4.999105999999983" fill="none" stroke="rgb(0,178,178)" stroke-width="0.1"/>
  <path d="M 62.30125349999997,24.19110599999999 L 62.81325349999997,23.988106000000016" fill="none" instance-id="4" semantic-id="3" stroke="rgb(0,178,178)" stroke-width="0.1"/>
  <path d="M 58.85825349999999,14.019105999999965 L 58.34625349999999,14.222106000000053" fill="none" instance-id="4" semantic-id="3" stroke="rgb(0,178,178)" stroke-width="0.1"/>
  <path d="M 58.85825349999999,14.019105999999965 L 62.81325349999997,23.988106000000016" fill="none" instance-id="4" semantic-id="3" stroke="rgb(0,178,178)" stroke-width="0.1"/>
  <path d="M 58.34625349999999,14.222106000000053 L 62.30125349999997,24.19110599999999" fill="none" instance-id="4" semantic-id="3" stroke="rgb(0,178,178)" stroke-width="0.1"/>
  <path d="M 18.888253499999962,29.87610600000005 L 14.526253499999996,39.974106000000006" fill="none" instance-id="2" semantic-id="3" stroke="rgb(0,178,178)" stroke-width="0.1"/>
  <path d="M 42.12625349999996,20.657106 L 37.76525349999997,30.755105999999955" fill="none" instance-id="3" semantic-id="3" stroke="rgb(0,178,178)" stroke-width="0.1"/>
  <path d="M 27.499253499999952,80.22310600000003 L 32.36225349999995,92.48110599999995" fill="none" instance-id="6" semantic-id="4" stroke="rgb(0,178,178)" stroke-width="0.1"/>
  <path d="M 42.962253499999974,74.11610600000006 L 44.58825349999995,78.21610599999997" fill="none" instance-id="6" semantic-id="4" stroke="rgb(0,178,178)" stroke-width="0.1"/>
  <path d="M 43.36825349999998,73.955106 L 44.99525349999999,78.05510600000002" fill="none" instance-id="6" semantic-id="4" stroke="rgb(0,178,178)" stroke-width="0.1"/>
  <path d="M 27.09225349999997,80.38510600000006 L 31.95525349999997,92.64310599999999" fill="none" instance-id="6" semantic-id="4" stroke="rgb(0,178,178)" stroke-width="0.1"/>
  <path d="M 27.499253499999952,80.22310600000003 L 27.09225349999997,80.38510600000006" fill="none" instance-id="6" semantic-id="4" stroke="rgb(0,178,178)" stroke-width="0.1"/>
  <path d="M 42.962253499999974,74.11610600000006 L 43.36825349999998,73.955106" fill="none" instance-id="6" semantic-id="4" stroke="rgb(0,178,178)" stroke-width="0.1"/>
  <path d="M 32.36225349999995,92.48110599999995 L 31.95525349999997,92.64310599999999" fill="none" instance-id="6" semantic-id="4" stroke="rgb(0,178,178)" stroke-width="0.1"/>
  <path d="M 44.58825349999995,78.21610599999997 L 44.99525349999999,78.05510600000002" fill="none" instance-id="6" semantic-id="4" stroke="rgb(0,178,178)" stroke-width="0.1"/>
  <path d="M 95.84625349999999,1.4961060000000543 L 95.64914845401262,1.0343169176800302" fill="none" stroke="rgb(0,178,178)" stroke-width="0.1"/>
  <path d="M 95.64914845401262,1.0343169176800302 L 95.42853192260662,0.5832870940828343" fill="none" stroke="rgb(0,178,178)" stroke-width="0.1"/>
  <path d="M 95.42853192260662,0.5832870940828343 L 95.18498896644792,0.14421263091162473" fill="none" stroke="rgb(0,178,178)" stroke-width="0.1"/>
  <path d="M 95.40094004015805,0.05844239853297495 L 95.524618506433,0.545100391768301" fill="none" stroke="rgb(0,178,178)" stroke-width="0.1"/>
  <path d="M 95.524618506433,0.545100391768301 L 95.67318767539103,1.0247456434231026" fill="none" stroke="rgb(0,178,178)" stroke-width="0.1"/>
  <path d="M 95.67318767539103,1.0247456434231026 L 95.84625349999999,1.4961060000000543" fill="none" stroke="rgb(0,178,178)" stroke-width="0.1"/>
  <path d="M 48.63325349999997,18.075106000000005 A 10.725,10.725 0.0 0,0 62.3002535,24.18710599999997" fill="none" instance-id="4" semantic-id="3" stroke="rgb(0,178,178)" stroke-width="0.1"/>
  <path d="M 8.663253499999996,33.932105999999976 A 11.0,11.0 0.0 0,0 14.526253499999996,39.974106000000006" fill="none" instance-id="2" semantic-id="3" stroke="rgb(0,178,178)" stroke-width="0.1"/>
  <path d="M 31.901253499999996,24.71310600000004 A 11.0,11.0 0.0 0,0 37.76525349999997,30.755105999999955" fill="none" instance-id="3" semantic-id="3" stroke="rgb(0,178,178)" stroke-width="0.1"/>
  <path d="M 32.36225349999995,92.48110599999995 A 13.2059,13.2059 0.0 0,0 39.31325349999997,75.59610599999996" fill="none" instance-id="6" semantic-id="4" stroke="rgb(0,178,178)" stroke-width="0.1"/>
  <path d="M 39.3122535,75.59510599999999 A 4.38888,4.38888 0.0 0,0 44.58825349999995,78.21610599999997" fill="none" instance-id="6" semantic-id="4" stroke="rgb(0,178,178)" stroke-width="0.1"/>
 </g>
 <g id="layerDOOR_FIRE_TEXT" inkscape:groupmode="layer" inkscape:label="DOOR_FIRE_TEXT">
  <text fill="rgb(0,0,0)" font-family="Noto Sans CJK SC" font-size="2" transform="rotate(-21.6395,72.5622535,19.77410599999996)" x="72.5622535" y="19.77410599999996">
   GSFM
  </text>
  <text fill="rgb(0,0,0)" font-family="Noto Sans CJK SC" font-size="2" transform="rotate(-21.6395,84.13525349999998,15.183105999999952)" x="84.13525349999998" y="15.183105999999952">
   甲
  </text>
  <text fill="rgb(0,0,0)" font-family="Noto Sans CJK SC" font-size="2" transform="rotate(-21.6395,87.56125349999996,13.823106000000053)" x="87.56125349999996" y="13.823106000000053">
   2023-40
  </text>
  <text fill="rgb(0,0,0)" font-family="Noto Sans CJK SC" font-size="2" transform="rotate(-21.6395,34.52025349999997,16.342106000000058)" x="34.52025349999997" y="16.342106000000058">
   GSFM
  </text>
  <text fill="rgb(0,0,0)" font-family="Noto Sans CJK SC" font-size="2" transform="rotate(-21.6395,46.093253499999946,11.75110600000005)" x="46.093253499999946" y="11.75110600000005">
   甲
  </text>
  <text fill="rgb(0,0,0)" font-family="Noto Sans CJK SC" font-size="2" transform="rotate(-21.6395,49.51925349999999,10.392106000000013)" x="49.51925349999999" y="10.392106000000013">
   1123-40
  </text>
  <text fill="rgb(0,0,0)" font-family="Noto Sans CJK SC" font-size="2" transform="rotate(-21.6395,8.485253499999999,49.66710599999999)" x="8.485253499999999" y="49.66710599999999">
   FM
  </text>
  <text fill="rgb(0,0,0)" font-family="Noto Sans CJK SC" font-size="2" transform="rotate(-21.6395,14.341253499999993,47.343106000000034)" x="14.341253499999993" y="47.343106000000034">
   丙
  </text>
  <text fill="rgb(0,0,0)" font-family="Noto Sans CJK SC" font-size="2" transform="rotate(-21.6395,17.76725349999998,45.984106)" x="17.76725349999998" y="45.984106">
   1121
  </text>
  <text fill="rgb(0,0,0)" font-family="Noto Sans CJK SC" font-size="2" transform="rotate(-21.6395,31.635253499999976,40.39710600000001)" x="31.635253499999976" y="40.39710600000001">
   FM
  </text>
  <text fill="rgb(0,0,0)" font-family="Noto Sans CJK SC" font-size="2" transform="rotate(-21.6395,37.49125349999997,38.07310600000005)" x="37.49125349999997" y="38.07310600000005">
   丙
  </text>
  <text fill="rgb(0,0,0)" font-family="Noto Sans CJK SC" font-size="2" transform="rotate(-21.6395,40.91725349999996,36.714106000000015)" x="40.91725349999996" y="36.714106000000015">
   1121
  </text>
  <text fill="rgb(0,0,0)" font-family="Noto Sans CJK SC" font-size="2" transform="rotate(-21.6395,22.87025349999999,79.282106)" x="22.87025349999999" y="79.282106">
   FM
  </text>
  <text fill="rgb(0,0,0)" font-family="Noto Sans CJK SC" font-size="2" transform="rotate(-21.6395,28.726253499999984,76.95910600000002)" x="28.726253499999984" y="76.95910600000002">
   乙
  </text>
  <text fill="rgb(0,0,0)" font-family="Noto Sans CJK SC" font-size="2" transform="rotate(-21.6395,32.15225349999997,75.599106)" x="32.15225349999997" y="75.599106">
   1722a'
  </text>
 </g>
 <g id="layerM-INFO-ROOM-JZTZ" inkscape:groupmode="layer" inkscape:label="M-INFO-ROOM-JZTZ">
  <path d="M 94.75725349999999,25.596105999999963 L 100.0,23.516680635467083" fill="none" stroke="rgb(178,0,0)" stroke-width="0.1"/>
  <path d="M 100.0,34.27444843177341 L 98.44525349999998,34.891106000000036" fill="none" stroke="rgb(178,0,0)" stroke-width="0.1"/>
  <path d="M 98.44525349999998,34.891106000000036 L 94.75725349999999,25.596105999999963" fill="none" stroke="rgb(178,0,0)" stroke-width="0.1"/>
  <path d="M 98.44525349999998,34.891106000000036 L 96.9612535,26.27510600000005" fill="none" stroke="rgb(178,0,0)" stroke-width="0.1"/>
  <path d="M 96.9612535,26.27510600000005 L 100.0,23.670594843314575" fill="none" stroke="rgb(178,0,0)" stroke-width="0.1"/>
  <text fill="rgb(178,0,0)" font-family="Noto Sans CJK SC" font-size="2" transform="rotate(-21.6395,98.19225349999999,31.630105999999955)" x="98.19225349999999" y="31.630105999999955">
   送风
  </text>
 </g>
 <g id="layerPUB_TEXT" inkscape:groupmode="layer" inkscape:label="PUB_TEXT">
  <text fill="rgb(0,0,0)" font-family="Noto Sans CJK SC" font-size="2" transform="rotate(-0.0,43.53025349999996,88.91510600000004)" x="43.53025349999996" y="88.91510600000004">
   上
  </text>
  <text fill="rgb(0,0,0)" font-family="Noto Sans CJK SC" font-size="2" transform="rotate(-21.64,25.53125349999999,19.131106000000045)" x="25.53125349999999" y="19.131106000000045">
   弱电井
  </text>
  <text fill="rgb(0,0,0)" font-family="Noto Sans CJK SC" font-size="2" transform="rotate(-21.64,4.946253499999955,26.64610600000003)" x="4.946253499999955" y="26.64610600000003">
   强电井
  </text>
  <text fill="rgb(0,0,0)" font-family="Noto Sans CJK SC" font-size="2" transform="rotate(-21.64,89.99425349999996,80.561106)" x="89.99425349999996" y="80.561106">
   LT2
  </text>
 </g>
 <g id="layerSTAIR" inkscape:groupmode="layer" inkscape:label="STAIR">
  <path d="M 47.91225349999996,76.45610599999998 L 54.66025349999995,73.77910599999996" fill="none" instance-id="7" semantic-id="30" stroke="rgb(178,88,0)" stroke-width="0.1"/>
  <path d="M 55.73325349999999,73.35310600000003 L 68.73325349999999,68.19510600000001" fill="none" instance-id="7" semantic-id="30" stroke="rgb(178,88,0)" stroke-width="0.1"/>
  <path d="M 47.91225349999996,76.45610599999998 L 53.77525349999996,91.23510599999997" fill="none" instance-id="7" semantic-id="30" stroke="rgb(178,88,0)" stroke-width="0.1"/>
  <path d="M 50.514253499999995,75.42310599999996 L 56.37825349999997,90.20310600000005" fill="none" instance-id="7" semantic-id="30" stroke="rgb(178,88,0)" stroke-width="0.1"/>
  <path d="M 53.11725349999995,74.39110600000004 L 58.98025349999995,89.17010600000003" fill="none" instance-id="7" semantic-id="30" stroke="rgb(178,88,0)" stroke-width="0.1"/>
  <path d="M 56.448253499999964,75.19410600000003 L 61.583253499999955,88.13710600000002" fill="none" instance-id="7" semantic-id="30" stroke="rgb(178,88,0)" stroke-width="0.1"/>
  <path d="M 58.32225349999999,72.32610599999998 L 60.10225349999996,76.811106" fill="none" instance-id="7" semantic-id="30" stroke="rgb(178,88,0)" stroke-width="0.1"/>
  <path d="M 60.839253499999984,78.67010600000003 L 64.18625349999996,87.10510599999998" fill="none" instance-id="7" semantic-id="30" stroke="rgb(178,88,0)" stroke-width="0.1"/>
  <path d="M 60.9252535,71.29310599999997 L 64.49325349999998,80.28610600000002" fill="none" instance-id="7" semantic-id="30" stroke="rgb(178,88,0)" stroke-width="0.1"/>
  <path d="M 65.23025349999995,82.14510600000006 L 66.7882535,86.07210599999996" fill="none" instance-id="7" semantic-id="30" stroke="rgb(178,88,0)" stroke-width="0.1"/>
  <path d="M 63.52825349999995,70.26010600000006 L 68.8842535,83.76110600000004" fill="none" instance-id="7" semantic-id="30" stroke="rgb(178,88,0)" stroke-width="0.1"/>
  <path d="M 66.13025349999998,69.22810600000003 L 71.99425349999996,84.00710600000002" fill="none" instance-id="7" semantic-id="30" stroke="rgb(178,88,0)" stroke-width="0.1"/>
  <path d="M 68.73325349999999,68.19510600000001 L 74.59625349999999,82.97510599999998" fill="none" instance-id="7" semantic-id="30" stroke="rgb(178,88,0)" stroke-width="0.1"/>
  <path d="M 53.996253499999966,91.79310599999997 L 69.59925349999997,85.60310600000003" fill="none" instance-id="7" semantic-id="30" stroke="rgb(178,88,0)" stroke-width="0.1"/>
  <path d="M 70.67225349999995,85.17710599999998 L 74.81825349999997,83.532106" fill="none" instance-id="7" semantic-id="30" stroke="rgb(178,88,0)" stroke-width="0.1"/>
  <path d="M 55.73325349999999,73.35310600000003 L 62.377253499999995,78.61110600000006" fill="none" instance-id="7" semantic-id="30" stroke="rgb(178,88,0)" stroke-width="0.1"/>
  <path d="M 54.66025349999995,73.77910599999996 L 61.54625349999998,79.229106" fill="none" instance-id="7" semantic-id="30" stroke="rgb(178,88,0)" stroke-width="0.1"/>
  <path d="M 61.54625349999998,79.229106 L 62.978253499999994,78.16410600000006" fill="none" instance-id="7" semantic-id="30" stroke="rgb(178,88,0)" stroke-width="0.1"/>
  <path d="M 62.978253499999994,78.16410600000006 L 62.13125349999996,80.71710600000006" fill="none" instance-id="7" semantic-id="30" stroke="rgb(178,88,0)" stroke-width="0.1"/>
  <path d="M 62.13125349999996,80.71710600000006 L 63.62925349999995,79.60310600000003" fill="none" instance-id="7" semantic-id="30" stroke="rgb(178,88,0)" stroke-width="0.1"/>
  <path d="M 63.62925349999995,79.60310600000003 L 70.67225349999995,85.17710599999998" fill="none" instance-id="7" semantic-id="30" stroke="rgb(178,88,0)" stroke-width="0.1"/>
  <path d="M 62.79925349999996,80.22010599999999 L 69.59925349999997,85.60310600000003" fill="none" instance-id="7" semantic-id="30" stroke="rgb(178,88,0)" stroke-width="0.1"/>
  <path d="M 81.2712535,99.79910600000005 L 80.76485955641658,100.0" fill="none" instance-id="7" semantic-id="30" stroke="rgb(178,88,0)" stroke-width="0.1"/>
  <path d="M 81.2712535,99.79910600000005 L 75.4082535,85.02010600000006" fill="none" instance-id="7" semantic-id="30" stroke="rgb(178,88,0)" stroke-width="0.1"/>
  <path d="M 78.33816977347766,100.0 L 72.80525349999999,86.05210599999998" fill="none" instance-id="7" semantic-id="30" stroke="rgb(178,88,0)" stroke-width="0.1"/>
  <path d="M 75.32661498697473,100.0 L 70.20225349999998,87.085106" fill="none" instance-id="7" semantic-id="30" stroke="rgb(178,88,0)" stroke-width="0.1"/>
  <path d="M 72.31401584925572,100.0 L 67.60025349999995,88.11710600000004" fill="none" instance-id="7" semantic-id="30" stroke="rgb(178,88,0)" stroke-width="0.1"/>
  <path d="M 69.30153176794772,100.0 L 64.9972535,89.15010600000005" fill="none" instance-id="7" semantic-id="30" stroke="rgb(178,88,0)" stroke-width="0.1"/>
  <path d="M 66.28952619391066,100.0 L 62.39425349999999,90.18210599999998" fill="none" instance-id="7" semantic-id="30" stroke="rgb(178,88,0)" stroke-width="0.1"/>
  <path d="M 63.2773224168414,100.0 L 59.79225349999996,91.21510599999999" fill="none" instance-id="7" semantic-id="30" stroke="rgb(178,88,0)" stroke-width="0.1"/>
  <path d="M 60.264519385513154,100.0 L 57.18925349999995,92.248106" fill="none" instance-id="7" semantic-id="30" stroke="rgb(178,88,0)" stroke-width="0.1"/>
  <path d="M 57.252567757798204,100.0 L 54.5862535,93.28010600000005" fill="none" instance-id="7" semantic-id="30" stroke="rgb(178,88,0)" stroke-width="0.1"/>
  <path d="M 75.18625349999996,84.46210600000006 L 54.365253499999994,92.72210600000005" fill="none" instance-id="7" semantic-id="30" stroke="rgb(178,88,0)" stroke-width="0.1"/>
  <path d="M 54.02925349999998,93.50110600000005 L 53.21725349999997,91.45610599999998" fill="none" instance-id="7" semantic-id="30" stroke="rgb(178,88,0)" stroke-width="0.1"/>
  <path d="M 53.21725349999997,91.45610599999998 L 69.05625349999997,85.17310599999996" fill="none" instance-id="7" semantic-id="30" stroke="rgb(178,88,0)" stroke-width="0.1"/>
  <path d="M 70.12925349999995,84.74710600000003 L 75.15425349999998,82.75410599999998" fill="none" instance-id="7" semantic-id="30" stroke="rgb(178,88,0)" stroke-width="0.1"/>
  <path d="M 75.15425349999998,82.75410599999998 L 75.96525349999996,84.79810599999996" fill="none" instance-id="7" semantic-id="30" stroke="rgb(178,88,0)" stroke-width="0.1"/>
  <path d="M 75.96525349999996,84.79810599999996 L 54.02925349999998,93.50110600000005" fill="none" instance-id="7" semantic-id="30" stroke="rgb(178,88,0)" stroke-width="0.1"/>
  <path d="M 54.365253499999994,92.72210600000005 L 53.996253499999966,91.79310599999997" fill="none" instance-id="7" semantic-id="30" stroke="rgb(178,88,0)" stroke-width="0.1"/>
  <path d="M 53.996253499999966,91.79310599999997 L 69.59925349999997,85.60310600000003" fill="none" instance-id="7" semantic-id="30" stroke="rgb(178,88,0)" stroke-width="0.1"/>
  <path d="M 70.67225349999995,85.17710599999998 L 74.81825349999997,83.532106" fill="none" instance-id="7" semantic-id="30" stroke="rgb(178,88,0)" stroke-width="0.1"/>
  <path d="M 74.81825349999997,83.532106 L 75.18625349999996,84.46210600000006" fill="none" instance-id="7" semantic-id="30" stroke="rgb(178,88,0)" stroke-width="0.1"/>
  <path d="M 75.18625349999996,84.46210600000006 L 54.365253499999994,92.72210600000005" fill="none" instance-id="7" semantic-id="30" stroke="rgb(178,88,0)" stroke-width="0.1"/>
  <path d="M 53.996253499999966,91.79310599999997 L 54.365253499999994,92.72210600000005" fill="none" instance-id="7" semantic-id="30" stroke="rgb(178,88,0)" stroke-width="0.1"/>
 </g>
 <g id="layerWALL" inkscape:groupmode="layer" inkscape:label="WALL">
  <path d="M 59.41825349999999,12.721105999999963 L 54.3714989349553,0.0" fill="none" instance-id="-1" semantic-id="1" stroke="rgb(178,178,0)" stroke-width="0.1"/>
  <path d="M 62.01525349999997,13.842106000000058 L 56.523510826775976,0.0" fill="none" instance-id="-1" semantic-id="1" stroke="rgb(178,178,0)" stroke-width="0.1"/>
  <path d="M 80.76557027685948,100.0 L 87.5912535,97.29210599999999" fill="none" instance-id="-1" semantic-id="1" stroke="rgb(178,178,0)" stroke-width="0.1"/>
  <path d="M 86.18853417755685,100.0 L 88.32825349999996,99.15110600000003" fill="none" instance-id="-1" semantic-id="1" stroke="rgb(178,178,0)" stroke-width="0.1"/>
  <path d="M 85.99125349999997,6.482106000000044 L 100.0,41.79342963656188" fill="none" instance-id="-1" semantic-id="1" stroke="rgb(178,178,0)" stroke-width="0.1"/>
  <path d="M 83.39425349999999,5.360105999999973 L 100.0,47.21735685232488" fill="none" instance-id="-1" semantic-id="1" stroke="rgb(178,178,0)" stroke-width="0.1"/>
  <path d="M 32.722978080933444,100.0 L 24.874253499999952,80.21610599999997" fill="none" instance-id="-1" semantic-id="1" stroke="rgb(178,178,0)" stroke-width="0.1"/>
  <path d="M 34.87434583629914,100.0 L 27.470253499999956,81.33810600000004" fill="none" instance-id="-1" semantic-id="1" stroke="rgb(178,178,0)" stroke-width="0.1"/>
  <path d="M 27.470253499999956,81.33810600000004 L 26.73325349999999,79.479106" fill="none" instance-id="-1" semantic-id="1" stroke="rgb(178,178,0)" stroke-width="0.1"/>
  <path d="M 26.73325349999999,79.479106 L 24.874253499999952,80.21610599999997" fill="none" instance-id="-1" semantic-id="1" stroke="rgb(178,178,0)" stroke-width="0.1"/>
  <path d="M 43.92925349999996,72.657106 L 43.000253499999985,73.02510600000005" fill="none" instance-id="-1" semantic-id="1" stroke="rgb(178,178,0)" stroke-width="0.1"/>
  <path d="M 43.000253499999985,73.02510600000005 L 43.73725349999995,74.88410599999997" fill="none" instance-id="-1" semantic-id="1" stroke="rgb(178,178,0)" stroke-width="0.1"/>
  <path d="M 21.308253499999978,27.84010599999999 L 14.670253500000001,11.109105999999997" fill="none" instance-id="-1" semantic-id="1" stroke="rgb(178,178,0)" stroke-width="0.1"/>
  <path d="M 23.16725349999996,27.10210600000005 L 16.52925349999998,10.371106000000054" fill="none" instance-id="-1" semantic-id="1" stroke="rgb(178,178,0)" stroke-width="0.1"/>
  <path d="M 0.0,14.77754687218112 L 14.862253499999952,8.881106000000045" fill="none" instance-id="-1" semantic-id="1" stroke="rgb(178,178,0)" stroke-width="0.1"/>
  <path d="M 0.0,16.928761733827628 L 14.670253500000001,11.109105999999997" fill="none" instance-id="-1" semantic-id="1" stroke="rgb(178,178,0)" stroke-width="0.1"/>
  <path d="M 14.862253499999952,8.881106000000045 L 37.248420563829654,0.0" fill="none" instance-id="-1" semantic-id="1" stroke="rgb(178,178,0)" stroke-width="0.1"/>
  <path d="M 16.52925349999998,10.371106000000054 L 37.9082535,1.8891059999999698" fill="none" instance-id="-1" semantic-id="1" stroke="rgb(178,178,0)" stroke-width="0.1"/>
  <path d="M 39.310691544647625,0.0 L 46.40525349999996,17.883105999999998" fill="none" instance-id="-1" semantic-id="1" stroke="rgb(178,178,0)" stroke-width="0.1"/>
  <path d="M 37.9082535,1.8891059999999698 L 44.54625349999998,18.621106000000054" fill="none" instance-id="-1" semantic-id="1" stroke="rgb(178,178,0)" stroke-width="0.1"/>
  <path d="M 22.97525349999995,29.330106 L 32.27025349999997,25.64310599999999" fill="none" instance-id="-1" semantic-id="1" stroke="rgb(178,178,0)" stroke-width="0.1"/>
  <path d="M 32.27025349999997,25.64310599999999 L 31.5332535,23.78410599999995" fill="none" instance-id="-1" semantic-id="1" stroke="rgb(178,178,0)" stroke-width="0.1"/>
  <path d="M 31.5332535,23.78410599999995 L 23.16725349999996,27.10210600000005" fill="none" instance-id="-1" semantic-id="1" stroke="rgb(178,178,0)" stroke-width="0.1"/>
  <path d="M 44.54625349999998,18.621106000000054 L 41.75725349999999,19.72710600000005" fill="none" instance-id="-1" semantic-id="1" stroke="rgb(178,178,0)" stroke-width="0.1"/>
  <path d="M 41.75725349999999,19.72710600000005 L 42.49525349999999,21.586105999999972" fill="none" instance-id="-1" semantic-id="1" stroke="rgb(178,178,0)" stroke-width="0.1"/>
  <path d="M 42.49525349999999,21.586105999999972 L 46.21325349999995,20.111106000000063" fill="none" instance-id="-1" semantic-id="1" stroke="rgb(178,178,0)" stroke-width="0.1"/>
  <path d="M 0.0,38.444883692791905 L 9.032253499999968,34.86210600000004" fill="none" instance-id="-1" semantic-id="1" stroke="rgb(178,178,0)" stroke-width="0.1"/>
  <path d="M 9.032253499999968,34.86210600000004 L 8.295253500000001,33.003106" fill="none" instance-id="-1" semantic-id="1" stroke="rgb(178,178,0)" stroke-width="0.1"/>
  <path d="M 8.295253500000001,33.003106 L 0.0,36.29403910620363" fill="none" instance-id="-1" semantic-id="1" stroke="rgb(178,178,0)" stroke-width="0.1"/>
  <path d="M 21.308253499999978,27.84010599999999 L 18.51925349999999,28.946105999999986" fill="none" instance-id="-1" semantic-id="1" stroke="rgb(178,178,0)" stroke-width="0.1"/>
  <path d="M 18.51925349999999,28.946105999999986 L 19.25725349999999,30.805106000000023" fill="none" instance-id="-1" semantic-id="1" stroke="rgb(178,178,0)" stroke-width="0.1"/>
  <path d="M 19.25725349999999,30.805106000000023 L 22.97525349999995,29.330106" fill="none" instance-id="-1" semantic-id="1" stroke="rgb(178,178,0)" stroke-width="0.1"/>
  <path d="M 46.21325349999995,20.111106000000063 L 49.002253499999995,19.005105999999955" fill="none" instance-id="-1" semantic-id="1" stroke="rgb(178,178,0)" stroke-width="0.1"/>
  <path d="M 49.002253499999995,19.005105999999955 L 48.264253499999995,17.14610600000003" fill="none" instance-id="-1" semantic-id="1" stroke="rgb(178,178,0)" stroke-width="0.1"/>
  <path d="M 48.264253499999995,17.14610600000003 L 46.40525349999996,17.883105999999998" fill="none" instance-id="-1" semantic-id="1" stroke="rgb(178,178,0)" stroke-width="0.1"/>
  <path d="M 59.41825349999999,12.721105999999963 L 58.48925349999996,13.089106000000015" fill="none" instance-id="-1" semantic-id="1" stroke="rgb(178,178,0)" stroke-width="0.1"/>
  <path d="M 58.48925349999996,13.089106000000015 L 59.226253499999984,14.948106000000053" fill="none" instance-id="-1" semantic-id="1" stroke="rgb(178,178,0)" stroke-width="0.1"/>
  <path d="M 59.226253499999984,14.948106000000053 L 62.01525349999997,13.842106000000058" fill="none" instance-id="-1" semantic-id="1" stroke="rgb(178,178,0)" stroke-width="0.1"/>
  <path d="M 85.99125349999997,6.482106000000044 L 86.9202535,6.113106000000016" fill="none" instance-id="-1" semantic-id="1" stroke="rgb(178,178,0)" stroke-width="0.1"/>
  <path d="M 86.9202535,6.113106000000016 L 86.18325349999998,4.254105999999979" fill="none" instance-id="-1" semantic-id="1" stroke="rgb(178,178,0)" stroke-width="0.1"/>
  <path d="M 86.18325349999998,4.254105999999979 L 83.39425349999999,5.360105999999973" fill="none" instance-id="-1" semantic-id="1" stroke="rgb(178,178,0)" stroke-width="0.1"/>
  <path d="M 97.99225349999995,96.39310599999999 L 100.0,95.59658929017871" fill="none" instance-id="-1" semantic-id="1" stroke="rgb(178,178,0)" stroke-width="0.1"/>
  <path d="M 98.73025349999995,98.25210600000003 L 100.0,97.74836994343752" fill="none" instance-id="-1" semantic-id="1" stroke="rgb(178,178,0)" stroke-width="0.1"/>
  <path d="M 82.50425349999995,57.353106000000025 L 100.0,50.412590135468804" fill="none" instance-id="-1" semantic-id="1" stroke="rgb(178,178,0)" stroke-width="0.1"/>
  <path d="M 83.24225349999995,59.21210600000006 L 100.0,52.56399516420129" fill="none" instance-id="-1" semantic-id="1" stroke="rgb(178,178,0)" stroke-width="0.1"/>
  <path d="M 96.88625349999995,93.604106 L 100.0,92.36889108754235" fill="none" instance-id="-1" semantic-id="1" stroke="rgb(178,178,0)" stroke-width="0.1"/>
  <path d="M 97.62425349999995,95.46310600000004 L 100.0,94.52059673278688" fill="none" instance-id="-1" semantic-id="1" stroke="rgb(178,178,0)" stroke-width="0.1"/>
  <path d="M 45.96525349999996,75.07610599999998 L 76.17425349999996,63.09210600000006" fill="none" instance-id="-1" semantic-id="1" stroke="rgb(178,178,0)" stroke-width="0.1"/>
  <path d="M 44.843253499999946,77.67310599999996 L 76.91225349999996,64.95110599999998" fill="none" instance-id="-1" semantic-id="1" stroke="rgb(178,178,0)" stroke-width="0.1"/>
  <path d="M 45.59625349999999,74.14710600000001 L 45.96525349999996,75.07610599999998" fill="none" instance-id="-1" semantic-id="1" stroke="rgb(178,178,0)" stroke-width="0.1"/>
  <path d="M 43.73725349999995,74.88410599999997 L 44.843253499999946,77.67310599999996" fill="none" instance-id="-1" semantic-id="1" stroke="rgb(178,178,0)" stroke-width="0.1"/>
  <path d="M 43.92925349999996,72.657106 L 75.06825349999997,60.30310599999996" fill="none" instance-id="-1" semantic-id="1" stroke="rgb(178,178,0)" stroke-width="0.1"/>
  <path d="M 45.59625349999999,74.14710600000001 L 75.80625349999997,62.162105999999994" fill="none" instance-id="-1" semantic-id="1" stroke="rgb(178,178,0)" stroke-width="0.1"/>
 </g>
 <g id="layers-消火栓" inkscape:groupmode="layer" inkscape:label="s-消火栓">
  <path d="M 56.22902342090384,0.0 L 54.25325349999997,0.7841059999999516" fill="none" stroke="rgb(178,88,0)" stroke-width="0.1"/>
  <path d="M 54.25325349999997,0.7841059999999516 L 53.94206971703045,0.0" fill="none" stroke="rgb(178,88,0)" stroke-width="0.1"/>
  <path d="M 54.25325349999997,0.7841059999999516 L 56.22902342090384,0.0" fill="none" stroke="rgb(178,88,0)" stroke-width="0.1"/>
  <path d="M 53.94206971703045,0.0 L 54.25325349999997,0.7841059999999516" fill="none" stroke="rgb(178,88,0)" stroke-width="0.1"/>
 </g>
 <g id="layer线路" inkscape:groupmode="layer" inkscape:label="线路">
  <path d="M 19.31825349999997,9.26510600000006 L 17.944253499999945,11.273105999999984" fill="none" stroke="rgb(178,0,0)" stroke-width="0.1"/>
  <path d="M 17.944253499999945,11.273105999999984 L 23.16725349999996,27.10210600000005" fill="none" stroke="rgb(178,0,0)" stroke-width="0.1"/>
  <path d="M 19.095253499999956,22.263105999999993 L 17.853253499999994,24.197105999999962" fill="none" stroke="rgb(178,0,0)" stroke-width="0.1"/>
  <path d="M 17.853253499999994,24.197105999999962 L 18.51925349999999,28.946105999999986" fill="none" stroke="rgb(178,0,0)" stroke-width="0.1"/>
  <path d="M 5.375253499999985,14.796106000000009 L 0.0,17.746736022168307" fill="none" stroke="rgb(178,0,0)" stroke-width="0.1"/>
  <path d="M 16.52925349999998,10.371106000000054 L 19.31825349999997,9.26510600000006" fill="none" stroke="rgb(178,0,0)" stroke-width="0.1"/>
  <path d="M 19.31825349999997,9.26510600000006 L 25.956253499999946,25.996106000000054" fill="none" stroke="rgb(178,0,0)" stroke-width="0.1"/>
  <path d="M 25.956253499999946,25.996106000000054 L 23.16725349999996,27.10210600000005" fill="none" stroke="rgb(178,0,0)" stroke-width="0.1"/>
  <path d="M 23.16725349999996,27.10210600000005 L 16.52925349999998,10.371106000000054" fill="none" stroke="rgb(178,0,0)" stroke-width="0.1"/>
  <path d="M 16.3072535,23.369105999999988 L 18.51925349999999,28.946105999999986" fill="none" stroke="rgb(178,0,0)" stroke-width="0.1"/>
  <path d="M 18.51925349999999,28.946105999999986 L 21.308253499999978,27.84010599999999" fill="none" stroke="rgb(178,0,0)" stroke-width="0.1"/>
  <path d="M 21.308253499999978,27.84010599999999 L 19.095253499999956,22.263105999999993" fill="none" stroke="rgb(178,0,0)" stroke-width="0.1"/>
  <path d="M 19.095253499999956,22.263105999999993 L 16.3072535,23.369105999999988" fill="none" stroke="rgb(178,0,0)" stroke-width="0.1"/>
  <path d="M 0.0,20.156367939672236 L 6.48125349999998,17.585105999999996" fill="none" stroke="rgb(178,0,0)" stroke-width="0.1"/>
  <path d="M 6.48125349999998,17.585105999999996 L 5.375253499999985,14.796106000000009" fill="none" stroke="rgb(178,0,0)" stroke-width="0.1"/>
  <path d="M 5.375253499999985,14.796106000000009 L 0.0,16.928592368669342" fill="none" stroke="rgb(178,0,0)" stroke-width="0.1"/>
 </g>
</svg>