<?xml version="1.0" encoding="utf-8"?>
<svg style="background-color: #000;" version="1.1" viewBox="0 0 100.0 100.0" xmlns="http://www.w3.org/2000/svg" xmlns:inkscape="http://www.inkscape.org/namespaces/inkscape">
 <g id="layer!消防分区" inkscape:groupmode="layer" inkscape:label="!消防分区">
  <path d="M 100.0,39.91508152095946 L 0.0,22.017333642523226" fill="none" stroke="rgb(142,35,0)" stroke-width="0.1"/>
 </g>
 <g id="layer0-结构边线" inkscape:groupmode="layer" inkscape:label="0-结构边线">
  <path d="M 57.383236500000066,34.82703399999997 L 66.2422365000001,36.413033999999925" fill="none" stroke="rgb(178,0,178)" stroke-width="0.1"/>
  <path d="M 66.2422365000001,36.413033999999925 L 67.82723650000003,27.554033999999945" fill="none" stroke="rgb(178,0,178)" stroke-width="0.1"/>
  <path d="M 58.9682365000001,25.968033999999932 L 67.82723650000003,27.554033999999945" fill="none" stroke="rgb(178,0,178)" stroke-width="0.1"/>
  <path d="M 57.383236500000066,34.82703399999997 L 58.9682365000001,25.968033999999932" fill="none" stroke="rgb(178,0,178)" stroke-width="0.1"/>
 </g>
 <g id="layerA-车位" inkscape:groupmode="layer" inkscape:label="A-车位">
  <path d="M 100.0,94.26493007067961 L 48.890236500000015,85.11803399999997" fill="none" instance-id="-1" semantic-id="35" stroke="rgb(0,0,178)" stroke-width="0.1"/>
  <path d="M 90.28223650000007,95.06603399999995 L 89.40223650000007,99.98803399999997" fill="none" instance-id="-1" semantic-id="35" stroke="rgb(0,0,178)" stroke-width="0.1"/>
  <path d="M 89.79223650000006,94.97803399999992 L 88.91223650000006,99.90003399999995" fill="none" instance-id="-1" semantic-id="35" stroke="rgb(0,0,178)" stroke-width="0.1"/>
  <path d="M 91.27223650000008,95.24203399999993 L 90.4215639928891,100.0" fill="none" instance-id="-1" semantic-id="35" stroke="rgb(0,0,178)" stroke-width="0.1"/>
  <path d="M 91.27223650000008,95.24203399999993 L 89.79223650000006,94.97803399999992" fill="none" instance-id="-1" semantic-id="35" stroke="rgb(0,0,178)" stroke-width="0.1"/>
  <path d="M 88.91223650000006,99.90003399999995 L 89.47265195454577,100.0" fill="none" instance-id="-1" semantic-id="35" stroke="rgb(0,0,178)" stroke-width="0.1"/>
  <path d="M 48.890236500000015,85.11803399999997 L 100.0,94.26493007067961" fill="none" instance-id="-1" semantic-id="35" stroke="rgb(0,0,178)" stroke-width="0.1"/>
  <path d="M 100.0,69.88294134464479 L 53.11823650000008,61.493033999999966" fill="none" instance-id="-1" semantic-id="35" stroke="rgb(0,0,178)" stroke-width="0.1"/>
  <path d="M 94.51223650000009,71.44103399999995 L 93.63223650000009,76.36303399999997" fill="none" instance-id="-1" semantic-id="35" stroke="rgb(0,0,178)" stroke-width="0.1"/>
  <path d="M 92.04223650000006,85.22203399999995 L 91.16223650000006,90.14403399999992" fill="none" instance-id="-1" semantic-id="35" stroke="rgb(0,0,178)" stroke-width="0.1"/>
  <path d="M 94.02223650000008,71.35303399999992 L 93.14223650000008,76.27503399999995" fill="none" instance-id="-1" semantic-id="35" stroke="rgb(0,0,178)" stroke-width="0.1"/>
  <path d="M 91.55223650000005,85.13403399999993 L 90.67223650000005,90.05603399999995" fill="none" instance-id="-1" semantic-id="35" stroke="rgb(0,0,178)" stroke-width="0.1"/>
  <path d="M 95.5022365000001,71.61803399999997 L 94.61223650000011,76.53903399999996" fill="none" instance-id="-1" semantic-id="35" stroke="rgb(0,0,178)" stroke-width="0.1"/>
  <path d="M 93.03223650000007,85.39903399999997 L 92.15223650000007,90.32003399999996" fill="none" instance-id="-1" semantic-id="35" stroke="rgb(0,0,178)" stroke-width="0.1"/>
  <path d="M 95.5022365000001,71.61803399999997 L 94.02223650000008,71.35303399999992" fill="none" instance-id="-1" semantic-id="35" stroke="rgb(0,0,178)" stroke-width="0.1"/>
  <path d="M 92.15223650000007,90.32003399999996 L 90.67223650000005,90.05603399999995" fill="none" instance-id="-1" semantic-id="35" stroke="rgb(0,0,178)" stroke-width="0.1"/>
  <path d="M 93.14223650000008,76.27503399999995 L 94.61223650000011,76.53903399999996" fill="none" instance-id="-1" semantic-id="35" stroke="rgb(0,0,178)" stroke-width="0.1"/>
  <path d="M 91.55223650000005,85.13403399999993 L 93.03223650000007,85.39903399999997" fill="none" instance-id="-1" semantic-id="35" stroke="rgb(0,0,178)" stroke-width="0.1"/>
  <path d="M 53.11823650000008,61.493033999999966 L 100.0,69.88294134464479" fill="none" instance-id="-1" semantic-id="35" stroke="rgb(0,0,178)" stroke-width="0.1"/>
  <path d="M 100.0,45.50182814985811 L 57.34623650000003,37.868033999999966" fill="none" instance-id="-1" semantic-id="35" stroke="rgb(0,0,178)" stroke-width="0.1"/>
  <path d="M 98.7422365000001,47.81703399999992 L 97.86223650000011,52.73903399999995" fill="none" instance-id="-1" semantic-id="35" stroke="rgb(0,0,178)" stroke-width="0.1"/>
  <path d="M 96.27223650000008,61.59803399999993 L 95.39223650000008,66.52003399999995" fill="none" instance-id="-1" semantic-id="35" stroke="rgb(0,0,178)" stroke-width="0.1"/>
  <path d="M 98.2522365000001,47.729033999999956 L 97.3722365000001,52.65003399999995" fill="none" instance-id="-1" semantic-id="35" stroke="rgb(0,0,178)" stroke-width="0.1"/>
  <path d="M 95.78223650000007,61.51003399999996 L 94.90223650000007,66.43103399999995" fill="none" instance-id="-1" semantic-id="35" stroke="rgb(0,0,178)" stroke-width="0.1"/>
  <path d="M 99.72223650000001,47.993033999999966 L 98.84223650000001,52.915033999999935" fill="none" instance-id="-1" semantic-id="35" stroke="rgb(0,0,178)" stroke-width="0.1"/>
  <path d="M 97.26223650000009,61.77403399999997 L 96.38223650000009,66.69603399999994" fill="none" instance-id="-1" semantic-id="35" stroke="rgb(0,0,178)" stroke-width="0.1"/>
  <path d="M 99.72223650000001,47.993033999999966 L 98.2522365000001,47.729033999999956" fill="none" instance-id="-1" semantic-id="35" stroke="rgb(0,0,178)" stroke-width="0.1"/>
  <path d="M 96.38223650000009,66.69603399999994 L 94.90223650000007,66.43103399999995" fill="none" instance-id="-1" semantic-id="35" stroke="rgb(0,0,178)" stroke-width="0.1"/>
  <path d="M 97.3722365000001,52.65003399999995 L 98.84223650000001,52.915033999999935" fill="none" instance-id="-1" semantic-id="35" stroke="rgb(0,0,178)" stroke-width="0.1"/>
  <path d="M 95.78223650000007,61.51003399999996 L 97.26223650000009,61.77403399999997" fill="none" instance-id="-1" semantic-id="35" stroke="rgb(0,0,178)" stroke-width="0.1"/>
 </g>
 <g id="layerA-车位-lx" inkscape:groupmode="layer" inkscape:label="A-车位-lx">
  <path d="M 11.431967239858864,100.0 L 29.329512149200355,0.0" fill="none" stroke="rgb(0,178,0)" stroke-width="0.1"/>
 </g>
 <g id="layerA-车位-text" inkscape:groupmode="layer" inkscape:label="A-车位-text">
  <text fill="rgb(178,88,0)" font-family="Noto Sans CJK SC" font-size="2" transform="rotate(-349.853,61.581236500000045,82.85103399999997)" x="61.581236500000045" y="82.85103399999997">
   B-227
  </text>
  <text fill="rgb(178,88,0)" font-family="Noto Sans CJK SC" font-size="2" transform="rotate(-349.853,67.41223650000006,60.02903399999997)" x="67.41223650000006" y="60.02903399999997">
   B-228
  </text>
 </g>
 <g id="layerCOLUMN" inkscape:groupmode="layer" inkscape:label="COLUMN">
  <path d="M 58.26423650000004,29.905033999999944 L 55.311236500000064,29.376033999999947" fill="none" instance-id="-1" semantic-id="1" stroke="rgb(178,178,0)" stroke-width="0.1"/>
  <path d="M 55.311236500000064,29.376033999999947 L 54.43023650000009,34.298033999999916" fill="none" instance-id="-1" semantic-id="1" stroke="rgb(178,178,0)" stroke-width="0.1"/>
  <path d="M 54.43023650000009,34.298033999999916 L 57.383236500000066,34.82703399999997" fill="none" instance-id="-1" semantic-id="1" stroke="rgb(178,178,0)" stroke-width="0.1"/>
  <path d="M 61.92123650000008,26.496033999999952 L 62.626236500000005,22.55903399999994" fill="none" instance-id="-1" semantic-id="1" stroke="rgb(178,178,0)" stroke-width="0.1"/>
  <path d="M 62.626236500000005,22.55903399999994 L 59.67323650000003,22.03103399999992" fill="none" instance-id="-1" semantic-id="1" stroke="rgb(178,178,0)" stroke-width="0.1"/>
  <path d="M 59.67323650000003,22.03103399999992 L 58.9682365000001,25.968033999999932" fill="none" instance-id="-1" semantic-id="1" stroke="rgb(178,178,0)" stroke-width="0.1"/>
  <path d="M 63.616413354149245,0.0 L 62.31623650000006,7.265033999999957" fill="none" instance-id="-1" semantic-id="1" stroke="rgb(178,178,0)" stroke-width="0.1"/>
  <path d="M 62.31623650000006,7.265033999999957 L 65.26923650000003,7.794033999999954" fill="none" instance-id="-1" semantic-id="1" stroke="rgb(178,178,0)" stroke-width="0.1"/>
  <path d="M 65.26923650000003,7.794033999999954 L 66.6639951025794,0.0" fill="none" instance-id="-1" semantic-id="1" stroke="rgb(178,178,0)" stroke-width="0.1"/>
  <path d="M 65.26923650000003,7.794033999999954 L 62.626236500000005,22.55903399999994" fill="none" instance-id="-1" semantic-id="1" stroke="rgb(178,178,0)" stroke-width="0.1"/>
  <path d="M 62.626236500000005,22.55903399999994 L 59.67323650000003,22.03103399999992" fill="none" instance-id="-1" semantic-id="1" stroke="rgb(178,178,0)" stroke-width="0.1"/>
  <path d="M 59.67323650000003,22.03103399999992 L 62.31623650000006,7.265033999999957" fill="none" instance-id="-1" semantic-id="1" stroke="rgb(178,178,0)" stroke-width="0.1"/>
  <path d="M 62.31623650000006,7.265033999999957 L 65.26923650000003,7.794033999999954" fill="none" instance-id="-1" semantic-id="1" stroke="rgb(178,178,0)" stroke-width="0.1"/>
  <path d="M 100.0,42.45469005658708 L 65.99623650000001,36.36903399999994" fill="none" instance-id="-1" semantic-id="1" stroke="rgb(178,178,0)" stroke-width="0.1"/>
  <path d="M 100.0,39.40657329836961 L 66.77023650000001,33.46003399999995" fill="none" instance-id="-1" semantic-id="1" stroke="rgb(178,178,0)" stroke-width="0.1"/>
  <path d="M 57.383236500000066,34.82703399999997 L 66.2422365000001,36.413033999999925" fill="none" instance-id="-1" semantic-id="1" stroke="rgb(178,178,0)" stroke-width="0.1"/>
  <path d="M 66.2422365000001,36.413033999999925 L 67.82723650000003,27.554033999999945" fill="none" instance-id="-1" semantic-id="1" stroke="rgb(178,178,0)" stroke-width="0.1"/>
  <path d="M 67.82723650000003,27.554033999999945 L 58.9682365000001,25.968033999999932" fill="none" instance-id="-1" semantic-id="1" stroke="rgb(178,178,0)" stroke-width="0.1"/>
  <path d="M 58.9682365000001,25.968033999999932 L 57.383236500000066,34.82703399999997" fill="none" instance-id="-1" semantic-id="1" stroke="rgb(178,178,0)" stroke-width="0.1"/>
 </g>
 <g id="layerDIM_LEAD" inkscape:groupmode="layer" inkscape:label="DIM_LEAD">
  <path d="M 13.449286348597639,100.0 L 8.6222365000001,99.13603399999994" fill="none" stroke="rgb(0,178,0)" stroke-width="0.1"/>
 </g>
 <g id="layerDOOR_FIRE_TEXT" inkscape:groupmode="layer" inkscape:label="DOOR_FIRE_TEXT">
  <text fill="rgb(0,0,0)" font-family="Noto Sans CJK SC" font-size="2" transform="rotate(-79.8529,77.20223650000003,18.379033999999933)" x="77.20223650000003" y="18.379033999999933">
   FM
  </text>
  <text fill="rgb(0,0,0)" font-family="Noto Sans CJK SC" font-size="2" transform="rotate(-79.8529,77.8522365,14.752033999999924)" x="77.8522365" y="14.752033999999924">
   甲
  </text>
  <text fill="rgb(0,0,0)" font-family="Noto Sans CJK SC" font-size="2" transform="rotate(-79.8529,78.45223650000003,11.404033999999967)" x="78.45223650000003" y="11.404033999999967">
   1520
  </text>
 </g>
 <g id="layerPUB_HATCH" inkscape:groupmode="layer" inkscape:label="PUB_HATCH">
  <path d="M 57.383236500000066,34.82703399999997 L 58.26423650000004,29.905033999999944" fill="none" instance-id="-1" semantic-id="1" stroke="rgb(63,63,63)" stroke-width="0.1"/>
  <path d="M 58.26423650000004,29.905033999999944 L 55.311236500000064,29.376033999999947" fill="none" instance-id="-1" semantic-id="1" stroke="rgb(63,63,63)" stroke-width="0.1"/>
  <path d="M 55.311236500000064,29.376033999999947 L 54.43023650000009,34.298033999999916" fill="none" instance-id="-1" semantic-id="1" stroke="rgb(63,63,63)" stroke-width="0.1"/>
  <path d="M 54.43023650000009,34.298033999999916 L 57.383236500000066,34.82703399999997" fill="none" instance-id="-1" semantic-id="1" stroke="rgb(63,63,63)" stroke-width="0.1"/>
  <path d="M 61.92123650000008,26.496033999999952 L 62.626236500000005,22.55903399999994" fill="none" instance-id="-1" semantic-id="1" stroke="rgb(63,63,63)" stroke-width="0.1"/>
  <path d="M 62.626236500000005,22.55903399999994 L 59.67323650000003,22.03103399999992" fill="none" instance-id="-1" semantic-id="1" stroke="rgb(63,63,63)" stroke-width="0.1"/>
  <path d="M 59.67323650000003,22.03103399999992 L 58.9682365000001,25.968033999999932" fill="none" instance-id="-1" semantic-id="1" stroke="rgb(63,63,63)" stroke-width="0.1"/>
  <path d="M 58.9682365000001,25.968033999999932 L 61.92123650000008,26.496033999999952" fill="none" instance-id="-1" semantic-id="1" stroke="rgb(63,63,63)" stroke-width="0.1"/>
  <path d="M 62.31623650000006,7.265033999999957 L 65.26923650000003,7.794033999999954" fill="none" instance-id="-1" semantic-id="1" stroke="rgb(63,63,63)" stroke-width="0.1"/>
  <path d="M 65.26923650000003,7.794033999999954 L 66.6639951025794,0.0" fill="none" instance-id="-1" semantic-id="1" stroke="rgb(63,63,63)" stroke-width="0.1"/>
  <path d="M 63.616413354149245,0.0 L 62.31623650000006,7.265033999999957" fill="none" instance-id="-1" semantic-id="1" stroke="rgb(63,63,63)" stroke-width="0.1"/>
  <path d="M 62.31623650000006,7.265033999999957 L 59.67323650000003,22.03103399999992" fill="none" instance-id="-1" semantic-id="1" stroke="rgb(63,63,63)" stroke-width="0.1"/>
  <path d="M 59.67323650000003,22.03103399999992 L 62.626236500000005,22.55903399999994" fill="none" instance-id="-1" semantic-id="1" stroke="rgb(63,63,63)" stroke-width="0.1"/>
  <path d="M 62.626236500000005,22.55903399999994 L 65.26923650000003,7.794033999999954" fill="none" instance-id="-1" semantic-id="1" stroke="rgb(63,63,63)" stroke-width="0.1"/>
  <path d="M 65.26923650000003,7.794033999999954 L 62.31623650000006,7.265033999999957" fill="none" instance-id="-1" semantic-id="1" stroke="rgb(63,63,63)" stroke-width="0.1"/>
  <path d="M 66.2422365000001,36.413033999999925 L 65.99623650000001,36.36903399999994" fill="none" instance-id="-1" semantic-id="1" stroke="rgb(63,63,63)" stroke-width="0.1"/>
  <path d="M 65.99623650000001,36.36903399999994 L 100.0,42.45469005658708" fill="none" instance-id="-1" semantic-id="1" stroke="rgb(63,63,63)" stroke-width="0.1"/>
  <path d="M 100.0,39.40657329836961 L 66.77023650000001,33.46003399999995" fill="none" instance-id="-1" semantic-id="1" stroke="rgb(63,63,63)" stroke-width="0.1"/>
  <path d="M 66.77023650000001,33.46003399999995 L 66.2422365000001,36.413033999999925" fill="none" instance-id="-1" semantic-id="1" stroke="rgb(63,63,63)" stroke-width="0.1"/>
 </g>
 <g id="layerPUB_TEXT" inkscape:groupmode="layer" inkscape:label="PUB_TEXT">
  <text fill="rgb(0,0,0)" font-family="Noto Sans CJK SC" font-size="2" transform="rotate(-349.853,10.450236500000074,97.86303399999997)" x="10.450236500000074" y="97.86303399999997">
   洗消集水井
  </text>
 </g>
 <g id="layerRF-WINDOW" inkscape:groupmode="layer" inkscape:label="RF-WINDOW">
  <path d="M 62.31623650000006,7.265033999999957 L 52.644236500000034,18.731033999999966" fill="none" stroke="rgb(0,178,178)" stroke-width="0.1"/>
  <path d="M 63.79223650000006,7.529033999999967 L 56.59423650000008,6.2410339999999564" fill="none" instance-id="1" semantic-id="4" stroke="rgb(0,178,178)" stroke-width="0.1"/>
  <path d="M 63.72623650000003,7.899033999999972 L 56.52823650000005,6.610033999999928" fill="none" instance-id="1" semantic-id="4" stroke="rgb(0,178,178)" stroke-width="0.1"/>
  <path d="M 63.79223650000006,7.529033999999967 L 63.72623650000003,7.899033999999972" fill="none" instance-id="1" semantic-id="4" stroke="rgb(0,178,178)" stroke-width="0.1"/>
  <path d="M 56.52823650000005,6.610033999999928 L 56.59423650000008,6.2410339999999564" fill="none" instance-id="1" semantic-id="4" stroke="rgb(0,178,178)" stroke-width="0.1"/>
  <path d="M 61.216236500000036,21.92603399999996 L 54.01723650000008,20.63703399999997" fill="none" instance-id="1" semantic-id="4" stroke="rgb(0,178,178)" stroke-width="0.1"/>
  <path d="M 61.150236500000005,22.29503399999993 L 53.95123650000005,21.006033999999943" fill="none" instance-id="1" semantic-id="4" stroke="rgb(0,178,178)" stroke-width="0.1"/>
  <path d="M 54.01723650000008,20.63703399999997 L 53.95123650000005,21.006033999999943" fill="none" stroke="rgb(0,178,178)" stroke-width="0.1"/>
  <path d="M 61.150236500000005,22.29503399999993 L 61.216236500000036,21.92603399999996" fill="none" instance-id="1" semantic-id="4" stroke="rgb(0,178,178)" stroke-width="0.1"/>
  <path d="M 56.5302365,6.611033999999961 A 7.3125,7.3125 0.0 0,0 62.47123650000003,14.912033999999949" fill="none" instance-id="1" semantic-id="4" stroke="rgb(0,178,178)" stroke-width="0.1"/>
  <path d="M 62.47123650000003,14.912033999999949 A 7.3125,7.3125 0.0 0,0 54.02023650000001,20.638033999999948" fill="none" instance-id="1" semantic-id="4" stroke="rgb(0,178,178)" stroke-width="0.1"/>
 </g>
 <g id="layerSTAIR" inkscape:groupmode="layer" inkscape:label="STAIR">
  <path d="M 80.13223650000009,15.536033999999972 L 91.45223650000003,17.562033999999926" fill="none" stroke="rgb(178,88,0)" stroke-width="0.1"/>
  <path d="M 91.45223650000003,17.562033999999926 L 94.59667687333331,0.0" fill="none" stroke="rgb(178,88,0)" stroke-width="0.1"/>
  <path d="M 82.91392639714297,0.0 L 80.13223650000009,15.536033999999972" fill="none" stroke="rgb(178,88,0)" stroke-width="0.1"/>
 </g>
 <g id="layerWINDOW_TEXT" inkscape:groupmode="layer" inkscape:label="WINDOW_TEXT">
  <text fill="rgb(178,0,178)" font-family="Noto Sans CJK SC" font-size="2" transform="rotate(-349.853,18.92323650000003,33.26903399999992)" x="18.92323650000003" y="33.26903399999992">
   FJM6025
  </text>
 </g>
 <g id="layer建-门窗-编号" inkscape:groupmode="layer" inkscape:label="建-门窗-编号">
  <text fill="rgb(0,0,0)" font-family="Noto Sans CJK SC" font-size="2" transform="rotate(-79.8529,69.01823650000006,26.471033999999918)" x="69.01823650000006" y="26.471033999999918">
   HHFM1520(6)
  </text>
 </g>
</svg>