<?xml version="1.0" encoding="utf-8"?>
<svg style="background-color: #000;" version="1.1" viewBox="0 0 100.0 100.0" xmlns="http://www.w3.org/2000/svg" xmlns:inkscape="http://www.inkscape.org/namespaces/inkscape">
 <g id="layer0-结构边线" inkscape:groupmode="layer" inkscape:label="0-结构边线">
  <path d="M 27.615236500000037,8.961033999999927 L 36.47523650000005,10.546033999999963" fill="none" stroke="rgb(178,0,178)" stroke-width="0.1"/>
  <path d="M 36.47523650000005,10.546033999999963 L 38.06023650000009,1.687033999999926" fill="none" stroke="rgb(178,0,178)" stroke-width="0.1"/>
  <path d="M 29.20123650000005,0.10103399999991325 L 38.06023650000009,1.687033999999926" fill="none" stroke="rgb(178,0,178)" stroke-width="0.1"/>
  <path d="M 27.615236500000037,8.961033999999927 L 29.20123650000005,0.10103399999991325" fill="none" stroke="rgb(178,0,178)" stroke-width="0.1"/>
 </g>
 <g id="layerA-车位" inkscape:groupmode="layer" inkscape:label="A-车位">
  <path d="M 51.613236500000085,2.5880339999999933 L 37.152454470012,0.0" fill="none" instance-id="-1" semantic-id="35" stroke="rgb(0,0,178)" stroke-width="0.1"/>
  <path d="M 45.2712365000001,38.02503399999989 L 0.0,29.922878871662306" fill="none" instance-id="-1" semantic-id="35" stroke="rgb(0,0,178)" stroke-width="0.1"/>
  <path d="M 0.0,5.541248478599073 L 49.49923650000005,14.401033999999981" fill="none" instance-id="-1" semantic-id="35" stroke="rgb(0,0,178)" stroke-width="0.1"/>
  <path d="M 7.224236500000075,9.374033999999938 L 6.343236500000103,14.296033999999963" fill="none" instance-id="-1" semantic-id="35" stroke="rgb(0,0,178)" stroke-width="0.1"/>
  <path d="M 4.75723650000009,23.155034 L 3.8762365000000045,28.077033999999912" fill="none" instance-id="-1" semantic-id="35" stroke="rgb(0,0,178)" stroke-width="0.1"/>
  <path d="M 7.716236500000036,9.462033999999903 L 6.8352365000000646,14.384033999999929" fill="none" instance-id="-1" semantic-id="35" stroke="rgb(0,0,178)" stroke-width="0.1"/>
  <path d="M 5.249236500000052,23.243033999999966 L 4.36823650000008,28.16503399999999" fill="none" instance-id="-1" semantic-id="35" stroke="rgb(0,0,178)" stroke-width="0.1"/>
  <path d="M 6.239236500000061,9.198033999999893 L 5.358236500000089,14.120033999999919" fill="none" instance-id="-1" semantic-id="35" stroke="rgb(0,0,178)" stroke-width="0.1"/>
  <path d="M 3.7732365000000527,22.979033999999956 L 2.892236500000081,27.90103399999998" fill="none" instance-id="-1" semantic-id="35" stroke="rgb(0,0,178)" stroke-width="0.1"/>
  <path d="M 6.239236500000061,9.198033999999893 L 7.716236500000036,9.462033999999903" fill="none" instance-id="-1" semantic-id="35" stroke="rgb(0,0,178)" stroke-width="0.1"/>
  <path d="M 2.892236500000081,27.90103399999998 L 4.36823650000008,28.16503399999999" fill="none" instance-id="-1" semantic-id="35" stroke="rgb(0,0,178)" stroke-width="0.1"/>
  <path d="M 6.8352365000000646,14.384033999999929 L 5.358236500000089,14.120033999999919" fill="none" instance-id="-1" semantic-id="35" stroke="rgb(0,0,178)" stroke-width="0.1"/>
  <path d="M 5.249236500000052,23.243033999999966 L 3.7732365000000527,22.979033999999956" fill="none" instance-id="-1" semantic-id="35" stroke="rgb(0,0,178)" stroke-width="0.1"/>
  <path d="M 41.043236500000035,61.65003399999989 L 0.0,54.30377377042794" fill="none" instance-id="-1" semantic-id="35" stroke="rgb(0,0,178)" stroke-width="0.1"/>
  <path d="M 0.0,29.922878871662306 L 45.2712365000001,38.02503399999989" fill="none" instance-id="-1" semantic-id="35" stroke="rgb(0,0,178)" stroke-width="0.1"/>
  <path d="M 2.9952365000000327,32.99903399999994 L 2.114236500000061,37.92003399999999" fill="none" instance-id="-1" semantic-id="35" stroke="rgb(0,0,178)" stroke-width="0.1"/>
  <path d="M 0.5292365000000245,46.780034 L 0.0,49.736189296821976" fill="none" instance-id="-1" semantic-id="35" stroke="rgb(0,0,178)" stroke-width="0.1"/>
  <path d="M 3.487236500000108,33.0870339999999 L 2.607236499999999,38.00803399999995" fill="none" instance-id="-1" semantic-id="35" stroke="rgb(0,0,178)" stroke-width="0.1"/>
  <path d="M 1.0212365000001,46.868033999999966 L 0.14023650000001453,51.7890339999999" fill="none" instance-id="-1" semantic-id="35" stroke="rgb(0,0,178)" stroke-width="0.1"/>
  <path d="M 2.011236500000109,32.82203399999992 L 1.1302365000000236,37.74403399999994" fill="none" instance-id="-1" semantic-id="35" stroke="rgb(0,0,178)" stroke-width="0.1"/>
  <path d="M 2.011236500000109,32.82203399999992 L 3.487236500000108,33.0870339999999" fill="none" instance-id="-1" semantic-id="35" stroke="rgb(0,0,178)" stroke-width="0.1"/>
  <path d="M 0.0,51.76395104878043 L 0.14023650000001453,51.7890339999999" fill="none" instance-id="-1" semantic-id="35" stroke="rgb(0,0,178)" stroke-width="0.1"/>
  <path d="M 2.607236499999999,38.00803399999995 L 1.1302365000000236,37.74403399999994" fill="none" instance-id="-1" semantic-id="35" stroke="rgb(0,0,178)" stroke-width="0.1"/>
  <path d="M 1.0212365000001,46.868033999999966 L 0.0,46.68480605653349" fill="none" instance-id="-1" semantic-id="35" stroke="rgb(0,0,178)" stroke-width="0.1"/>
  <path d="M 36.814236500000106,85.27403399999992 L 0.0,78.68542105026734" fill="none" instance-id="-1" semantic-id="35" stroke="rgb(0,0,178)" stroke-width="0.1"/>
  <path d="M 0.0,54.30377377042794 L 41.043236500000035,61.65003399999989" fill="none" instance-id="-1" semantic-id="35" stroke="rgb(0,0,178)" stroke-width="0.1"/>
  <path d="M 0.0,78.68542105026734 L 36.814236500000106,85.27403399999992" fill="none" instance-id="-1" semantic-id="35" stroke="rgb(0,0,178)" stroke-width="0.1"/>
 </g>
 <g id="layerA-车位-lx" inkscape:groupmode="layer" inkscape:label="A-车位-lx">
  <path d="M 62.36997500686982,100.0 L 74.61323650000008,31.59303399999999" fill="none" stroke="rgb(0,178,0)" stroke-width="0.1"/>
  <path d="M 74.61323650000008,31.59303399999999 L 80.26761394837354,0.0" fill="none" stroke="rgb(0,178,0)" stroke-width="0.1"/>
  <path d="M 73.90823650000004,35.53203399999995 L 73.82266738741862,36.025990750795586" fill="none" stroke="rgb(0,178,0)" stroke-width="0.1"/>
  <path d="M 73.82266738741862,36.025990750795586 L 73.74260632700248,36.520870101031164" fill="none" stroke="rgb(0,178,0)" stroke-width="0.1"/>
  <path d="M 73.74260632700248,36.520870101031164 L 73.66806325483697,37.01661063304016" fill="none" stroke="rgb(0,178,0)" stroke-width="0.1"/>
  <path d="M 73.66806325483697,37.01661063304016 L 73.59904742219032,37.51315082227825" fill="none" stroke="rgb(0,178,0)" stroke-width="0.1"/>
  <path d="M 73.59904742219032,37.51315082227825 L 73.53556739436499,38.0104290449583" fill="none" stroke="rgb(0,178,0)" stroke-width="0.1"/>
  <path d="M 73.53556739436499,38.0104290449583 L 73.4776310496353,38.50838358569854" fill="none" stroke="rgb(0,178,0)" stroke-width="0.1"/>
  <path d="M 73.4776310496353,38.50838358569854 L 73.42524557826891,39.00695264518208" fill="none" stroke="rgb(0,178,0)" stroke-width="0.1"/>
  <path d="M 73.42524557826891,39.00695264518208 L 73.37841748163532,39.50607434782603" fill="none" stroke="rgb(0,178,0)" stroke-width="0.1"/>
  <path d="M 73.37841748163532,39.50607434782603 L 73.33715257139818,40.00568674946112" fill="none" stroke="rgb(0,178,0)" stroke-width="0.1"/>
  <path d="M 73.33715257139818,40.00568674946112 L 73.30145596879458,40.50572784501935" fill="none" stroke="rgb(0,178,0)" stroke-width="0.1"/>
  <path d="M 73.30145596879458,40.50572784501935 L 73.27133210399938,41.00613557622887" fill="none" stroke="rgb(0,178,0)" stroke-width="0.1"/>
  <path d="M 73.27133210399938,41.00613557622887 L 73.24678471557536,41.50684783931615" fill="none" stroke="rgb(0,178,0)" stroke-width="0.1"/>
  <path d="M 73.24678471557536,41.50684783931615 L 73.22781685000905,42.007802492713495" fill="none" stroke="rgb(0,178,0)" stroke-width="0.1"/>
  <path d="M 73.22781685000905,42.007802492713495 L 73.21443086133286,42.50893736477053" fill="none" stroke="rgb(0,178,0)" stroke-width="0.1"/>
  <path d="M 73.21443086133286,42.50893736477053 L 73.20662841083299,43.01019026147105" fill="none" stroke="rgb(0,178,0)" stroke-width="0.1"/>
  <path d="M 73.20662841083299,43.01019026147105 L 73.204410466843,43.51149897415121" fill="none" stroke="rgb(0,178,0)" stroke-width="0.1"/>
  <path d="M 73.204410466843,43.51149897415121 L 73.20777730462362,44.012801287219645" fill="none" stroke="rgb(0,178,0)" stroke-width="0.1"/>
  <path d="M 73.20777730462362,44.012801287219645 L 73.21672850632922,44.51403498587979" fill="none" stroke="rgb(0,178,0)" stroke-width="0.1"/>
  <path d="M 73.21672850632922,44.51403498587979 L 73.23126296105875,45.015137863850214" fill="none" stroke="rgb(0,178,0)" stroke-width="0.1"/>
  <path d="M 73.23126296105875,45.015137863850214 L 73.2513788649942,45.51604773108522" fill="none" stroke="rgb(0,178,0)" stroke-width="0.1"/>
  <path d="M 73.2513788649942,45.51604773108522 L 73.27707372162422,46.01670242149294" fill="none" stroke="rgb(0,178,0)" stroke-width="0.1"/>
  <path d="M 73.27707372162422,46.01670242149294 L 73.30834434205417,46.51703980065065" fill="none" stroke="rgb(0,178,0)" stroke-width="0.1"/>
  <path d="M 73.30834434205417,46.51703980065065 L 73.34518684540183,47.01699777351598" fill="none" stroke="rgb(0,178,0)" stroke-width="0.1"/>
  <path d="M 73.34518684540183,47.01699777351598 L 73.38759665927864,47.51651429213314" fill="none" stroke="rgb(0,178,0)" stroke-width="0.1"/>
  <path d="M 73.38759665927864,47.51651429213314 L 73.43556852035783,48.01552736333372" fill="none" stroke="rgb(0,178,0)" stroke-width="0.1"/>
  <path d="M 73.43556852035783,48.01552736333372 L 73.48909647502705,48.51397505643047" fill="none" stroke="rgb(0,178,0)" stroke-width="0.1"/>
  <path d="M 73.48909647502705,48.51397505643047 L 73.5481738801277,49.01179551090286" fill="none" stroke="rgb(0,178,0)" stroke-width="0.1"/>
  <path d="M 73.5481738801277,49.01179551090286 L 73.61279340377894,49.5089269440748" fill="none" stroke="rgb(0,178,0)" stroke-width="0.1"/>
  <path d="M 73.61279340377894,49.5089269440748 L 73.68294702628816,50.005307658782044" fill="none" stroke="rgb(0,178,0)" stroke-width="0.1"/>
  <path d="M 73.68294702628816,50.005307658782044 L 73.7586260411457,50.50087605102942" fill="none" stroke="rgb(0,178,0)" stroke-width="0.1"/>
  <path d="M 73.7586260411457,50.50087605102942 L 73.83982105610585,50.995570617636076" fill="none" stroke="rgb(0,178,0)" stroke-width="0.1"/>
  <path d="M 73.83982105610585,50.995570617636076 L 73.92652199435224,51.489329963868386" fill="none" stroke="rgb(0,178,0)" stroke-width="0.1"/>
  <path d="M 73.92652199435224,51.489329963868386 L 74.01871809574834,51.982092811059374" fill="none" stroke="rgb(0,178,0)" stroke-width="0.1"/>
  <path d="M 74.01871809574834,51.982092811059374 L 74.11639791817333,52.47379800421436" fill="none" stroke="rgb(0,178,0)" stroke-width="0.1"/>
  <path d="M 74.11639791817333,52.47379800421436 L 74.21954933894165,52.964384519599776" fill="none" stroke="rgb(0,178,0)" stroke-width="0.1"/>
  <path d="M 74.21954933894165,52.964384519599776 L 74.32815955630758,53.45379147231722" fill="none" stroke="rgb(0,178,0)" stroke-width="0.1"/>
  <path d="M 74.32815955630758,53.45379147231722 L 74.44221509105421,53.94195812385965" fill="none" stroke="rgb(0,178,0)" stroke-width="0.1"/>
  <path d="M 74.44221509105421,53.94195812385965 L 74.56170178816637,54.42882388964904" fill="none" stroke="rgb(0,178,0)" stroke-width="0.1"/>
  <path d="M 74.56170178816637,54.42882388964904 L 74.68660481858694,54.91432834655575" fill="none" stroke="rgb(0,178,0)" stroke-width="0.1"/>
  <path d="M 74.68660481858694,54.91432834655575 L 74.81690868105761,55.39841124039697" fill="none" stroke="rgb(0,178,0)" stroke-width="0.1"/>
  <path d="M 74.81690868105761,55.39841124039697 L 74.95259720404238,55.88101249341514" fill="none" stroke="rgb(0,178,0)" stroke-width="0.1"/>
  <path d="M 74.95259720404238,55.88101249341514 L 75.09365354773513,56.36207221173356" fill="none" stroke="rgb(0,178,0)" stroke-width="0.1"/>
  <path d="M 75.09365354773513,56.36207221173356 L 75.24006020614866,56.84153069278966" fill="none" stroke="rgb(0,178,0)" stroke-width="0.1"/>
  <path d="M 75.24006020614866,56.84153069278966 L 75.3917990092882,57.319328432744896" fill="none" stroke="rgb(0,178,0)" stroke-width="0.1"/>
  <path d="M 75.3917990092882,57.319328432744896 L 75.54885112540558,57.79540613386894" fill="none" stroke="rgb(0,178,0)" stroke-width="0.1"/>
  <path d="M 75.54885112540558,57.79540613386894 L 75.71119706333707,58.269704711899294" fill="none" stroke="rgb(0,178,0)" stroke-width="0.1"/>
  <path d="M 75.71119706333707,58.269704711899294 L 75.87881667492206,58.74216530337401" fill="none" stroke="rgb(0,178,0)" stroke-width="0.1"/>
  <path d="M 75.87881667492206,58.74216530337401 L 76.05168915750346,59.21272927293671" fill="none" stroke="rgb(0,178,0)" stroke-width="0.1"/>
  <path d="M 76.05168915750346,59.21272927293671 L 76.22979305650972,59.681338220614066" fill="none" stroke="rgb(0,178,0)" stroke-width="0.1"/>
  <path d="M 76.22979305650972,59.681338220614066 L 76.41310626811719,60.147933989063176" fill="none" stroke="rgb(0,178,0)" stroke-width="0.1"/>
  <path d="M 76.41310626811719,60.147933989063176 L 76.60160604199348,60.61245867078958" fill="none" stroke="rgb(0,178,0)" stroke-width="0.1"/>
  <path d="M 76.60160604199348,60.61245867078958 L 76.79526898412121,61.074854615333834" fill="none" stroke="rgb(0,178,0)" stroke-width="0.1"/>
  <path d="M 76.79526898412121,61.074854615333834 L 76.99407105970067,61.53506443642618" fill="none" stroke="rgb(0,178,0)" stroke-width="0.1"/>
  <path d="M 76.99407105970067,61.53506443642618 L 77.1979875961332,61.99303101910857" fill="none" stroke="rgb(0,178,0)" stroke-width="0.1"/>
  <path d="M 77.1979875961332,61.99303101910857 L 77.40699328608343,62.448697526823366" fill="none" stroke="rgb(0,178,0)" stroke-width="0.1"/>
  <path d="M 77.40699328608343,62.448697526823366 L 77.62106219061923,62.90200740846649" fill="none" stroke="rgb(0,178,0)" stroke-width="0.1"/>
  <path d="M 77.62106219061923,62.90200740846649 L 77.84016774243196,63.35290440540632" fill="none" stroke="rgb(0,178,0)" stroke-width="0.1"/>
  <path d="M 77.84016774243196,63.35290440540632 L 78.06428274913253,63.80133255846545" fill="none" stroke="rgb(0,178,0)" stroke-width="0.1"/>
  <path d="M 78.06428274913253,63.80133255846545 L 78.2933793966273,64.24723621486578" fill="none" stroke="rgb(0,178,0)" stroke-width="0.1"/>
  <path d="M 78.2933793966273,64.24723621486578 L 78.52742925256905,64.69056003513504" fill="none" stroke="rgb(0,178,0)" stroke-width="0.1"/>
  <path d="M 78.52742925256905,64.69056003513504 L 78.76640326988604,65.13124899997524" fill="none" stroke="rgb(0,178,0)" stroke-width="0.1"/>
  <path d="M 78.76640326988604,65.13124899997524 L 79.01027179038704,65.56924841709031" fill="none" stroke="rgb(0,178,0)" stroke-width="0.1"/>
  <path d="M 79.01027179038704,65.56924841709031 L 79.25900454844145,66.00450392797461" fill="none" stroke="rgb(0,178,0)" stroke-width="0.1"/>
  <path d="M 79.25900454844145,66.00450392797461 L 79.51257067473671,66.43696151465815" fill="none" stroke="rgb(0,178,0)" stroke-width="0.1"/>
  <path d="M 79.51257067473671,66.43696151465815 L 79.77093870010776,66.86656750641146" fill="none" stroke="rgb(0,178,0)" stroke-width="0.1"/>
  <path d="M 79.77093870010776,66.86656750641146 L 80.03407655944409,67.29326858640582" fill="none" stroke="rgb(0,178,0)" stroke-width="0.1"/>
  <path d="M 80.03407655944409,67.29326858640582 L 80.30195159566813,67.71701179833076" fill="none" stroke="rgb(0,178,0)" stroke-width="0.1"/>
  <path d="M 80.30195159566813,67.71701179833076 L 80.57453056378881,68.13774455296573" fill="none" stroke="rgb(0,178,0)" stroke-width="0.1"/>
  <path d="M 80.57453056378881,68.13774455296573 L 80.85177963502713,68.55541463470729" fill="none" stroke="rgb(0,178,0)" stroke-width="0.1"/>
  <path d="M 80.85177963502713,68.55541463470729 L 81.1336644010147,68.96997020804895" fill="none" stroke="rgb(0,178,0)" stroke-width="0.1"/>
  <path d="M 81.1336644010147,68.96997020804895 L 81.4201498780642,69.38135982401445" fill="none" stroke="rgb(0,178,0)" stroke-width="0.1"/>
  <path d="M 81.4201498780642,69.38135982401445 L 81.7112005115107,69.7895324265429" fill="none" stroke="rgb(0,178,0)" stroke-width="0.1"/>
  <path d="M 81.7112005115107,69.7895324265429 L 82.00678018012434,70.19443735882555" fill="none" stroke="rgb(0,178,0)" stroke-width="0.1"/>
  <path d="M 82.00678018012434,70.19443735882555 L 82.30685220059343,70.59602436959165" fill="none" stroke="rgb(0,178,0)" stroke-width="0.1"/>
  <path d="M 82.30685220059343,70.59602436959165 L 82.61137933207681,70.9942436193461" fill="none" stroke="rgb(0,178,0)" stroke-width="0.1"/>
  <path d="M 82.61137933207681,70.9942436193461 L 82.92032378082592,71.38904568655391" fill="none" stroke="rgb(0,178,0)" stroke-width="0.1"/>
  <path d="M 82.92032378082592,71.38904568655391 L 83.23364720487496,71.78038157377443" fill="none" stroke="rgb(0,178,0)" stroke-width="0.1"/>
  <path d="M 83.23364720487496,71.78038157377443 L 83.55131071879964,72.16820271374183" fill="none" stroke="rgb(0,178,0)" stroke-width="0.1"/>
  <path d="M 83.55131071879964,72.16820271374183 L 83.87327489854283,72.55246097539248" fill="none" stroke="rgb(0,178,0)" stroke-width="0.1"/>
  <path d="M 83.87327489854283,72.55246097539248 L 84.19949978630768,72.93310866983882" fill="none" stroke="rgb(0,178,0)" stroke-width="0.1"/>
  <path d="M 84.19949978630768,72.93310866983882 L 84.52994489551622,73.31009855628758" fill="none" stroke="rgb(0,178,0)" stroke-width="0.1"/>
  <path d="M 84.52994489551622,73.31009855628758 L 84.86456921583454,73.6833838479024" fill="none" stroke="rgb(0,178,0)" stroke-width="0.1"/>
  <path d="M 84.86456921583454,73.6833838479024 L 85.20333121826184,74.05291821761102" fill="none" stroke="rgb(0,178,0)" stroke-width="0.1"/>
  <path d="M 85.20333121826184,74.05291821761102 L 85.54618886028481,74.41865580385411" fill="none" stroke="rgb(0,178,0)" stroke-width="0.1"/>
  <path d="M 85.54618886028481,74.41865580385411 L 85.89309959109539,74.78055121627733" fill="none" stroke="rgb(0,178,0)" stroke-width="0.1"/>
  <path d="M 85.89309959109539,74.78055121627733 L 86.24402035687137,75.13855954136443" fill="none" stroke="rgb(0,178,0)" stroke-width="0.1"/>
  <path d="M 86.24402035687137,75.13855954136443 L 86.59890760611984,75.4926363480115" fill="none" stroke="rgb(0,178,0)" stroke-width="0.1"/>
  <path d="M 86.59890760611984,75.4926363480115 L 86.95771729508215,75.84273769304082" fill="none" stroke="rgb(0,178,0)" stroke-width="0.1"/>
  <path d="M 86.95771729508215,75.84273769304082 L 87.32040489319968,76.18882012665472" fill="none" stroke="rgb(0,178,0)" stroke-width="0.1"/>
  <path d="M 87.32040489319968,76.18882012665472 L 87.68692538864138,76.53084069782813" fill="none" stroke="rgb(0,178,0)" stroke-width="0.1"/>
  <path d="M 87.68692538864138,76.53084069782813 L 88.05723329388854,76.86875695963852" fill="none" stroke="rgb(0,178,0)" stroke-width="0.1"/>
  <path d="M 88.05723329388854,76.86875695963852 L 88.43128265138137,77.20252697453452" fill="none" stroke="rgb(0,178,0)" stroke-width="0.1"/>
  <path d="M 88.43128265138137,77.20252697453452 L 88.80902703922209,77.53210931954004" fill="none" stroke="rgb(0,178,0)" stroke-width="0.1"/>
  <path d="M 88.80902703922209,77.53210931954004 L 89.19041957693594,77.85746309139563" fill="none" stroke="rgb(0,178,0)" stroke-width="0.1"/>
  <path d="M 89.19041957693594,77.85746309139563 L 89.57541293128986,78.1785479116345" fill="none" stroke="rgb(0,178,0)" stroke-width="0.1"/>
  <path d="M 89.57541293128986,78.1785479116345 L 89.9639593221666,78.49532393159359" fill="none" stroke="rgb(0,178,0)" stroke-width="0.1"/>
  <path d="M 89.9639593221666,78.49532393159359 L 90.3560105284945,78.80775183735966" fill="none" stroke="rgb(0,178,0)" stroke-width="0.1"/>
  <path d="M 90.3560105284945,78.80775183735966 L 90.75151789423194,79.1157928546478" fill="none" stroke="rgb(0,178,0)" stroke-width="0.1"/>
  <path d="M 90.75151789423194,79.1157928546478 L 91.15043233440622,79.419408753614" fill="none" stroke="rgb(0,178,0)" stroke-width="0.1"/>
  <path d="M 91.15043233440622,79.419408753614 L 91.55270434120484,79.718561853599" fill="none" stroke="rgb(0,178,0)" stroke-width="0.1"/>
  <path d="M 91.55270434120484,79.718561853599 L 91.95828399012021,80.01321502780581" fill="none" stroke="rgb(0,178,0)" stroke-width="0.1"/>
  <path d="M 91.95828399012021,80.01321502780581 L 92.36712094614529,80.30333170790652" fill="none" stroke="rgb(0,178,0)" stroke-width="0.1"/>
  <path d="M 92.36712094614529,80.30333170790652 L 92.77916447002053,80.5888758885809" fill="none" stroke="rgb(0,178,0)" stroke-width="0.1"/>
  <path d="M 92.77916447002053,80.5888758885809 L 93.19436342453105,80.86981213198465" fill="none" stroke="rgb(0,178,0)" stroke-width="0.1"/>
  <path d="M 93.19436342453105,80.86981213198465 L 93.61266628085298,81.14610557214826" fill="none" stroke="rgb(0,178,0)" stroke-width="0.1"/>
  <path d="M 93.61266628085298,81.14610557214826 L 94.03402112494837,81.41772191930318" fill="none" stroke="rgb(0,178,0)" stroke-width="0.1"/>
  <path d="M 94.03402112494837,81.41772191930318 L 94.4583756640086,81.68462746413786" fill="none" stroke="rgb(0,178,0)" stroke-width="0.1"/>
  <path d="M 94.4583756640086,81.68462746413786 L 94.88567723294364,81.94678908198114" fill="none" stroke="rgb(0,178,0)" stroke-width="0.1"/>
  <path d="M 94.88567723294364,81.94678908198114 L 95.31587280091821,82.20417423691333" fill="none" stroke="rgb(0,178,0)" stroke-width="0.1"/>
  <path d="M 95.31587280091821,82.20417423691333 L 95.74890897793375,82.4567509858042" fill="none" stroke="rgb(0,178,0)" stroke-width="0.1"/>
  <path d="M 95.74890897793375,82.4567509858042 L 96.1847320214539,82.70448798227699" fill="none" stroke="rgb(0,178,0)" stroke-width="0.1"/>
  <path d="M 96.1847320214539,82.70448798227699 L 96.62328784307442,82.94735448059907" fill="none" stroke="rgb(0,178,0)" stroke-width="0.1"/>
  <path d="M 96.62328784307442,82.94735448059907 L 97.0645220152361,83.18532033949748" fill="none" stroke="rgb(0,178,0)" stroke-width="0.1"/>
  <path d="M 97.0645220152361,83.18532033949748 L 97.50837977797948,83.41835602589981" fill="none" stroke="rgb(0,178,0)" stroke-width="0.1"/>
  <path d="M 97.50837977797948,83.41835602589981 L 97.95480604574061,83.64643261859896" fill="none" stroke="rgb(0,178,0)" stroke-width="0.1"/>
  <path d="M 97.95480604574061,83.64643261859896 L 98.40374541418817,83.86952181184336" fill="none" stroke="rgb(0,178,0)" stroke-width="0.1"/>
  <path d="M 98.40374541418817,83.86952181184336 L 98.85514216709885,84.08759591884893" fill="none" stroke="rgb(0,178,0)" stroke-width="0.1"/>
  <path d="M 98.85514216709885,84.08759591884893 L 99.30894028327214,84.30062787523559" fill="none" stroke="rgb(0,178,0)" stroke-width="0.1"/>
  <path d="M 99.30894028327214,84.30062787523559 L 99.76508344348372,84.50859124238661" fill="none" stroke="rgb(0,178,0)" stroke-width="0.1"/>
  <path d="M 99.79156807850723,87.12487122162406 L 99.29123069934951,87.15614184205401" fill="none" stroke="rgb(0,178,0)" stroke-width="0.1"/>
  <path d="M 99.29123069934951,87.15614184205401 L 98.79127272648418,87.19298434540167" fill="none" stroke="rgb(0,178,0)" stroke-width="0.1"/>
  <path d="M 98.79127272648418,87.19298434540167 L 98.29175620786702,87.23539415927848" fill="none" stroke="rgb(0,178,0)" stroke-width="0.1"/>
  <path d="M 98.29175620786702,87.23539415927848 L 97.79274313666633,87.28336602035768" fill="none" stroke="rgb(0,178,0)" stroke-width="0.1"/>
  <path d="M 97.79274313666633,87.28336602035768 L 97.29429544356958,87.3368939750269" fill="none" stroke="rgb(0,178,0)" stroke-width="0.1"/>
  <path d="M 97.29429544356958,87.3368939750269 L 96.7964749890973,87.39597138012755" fill="none" stroke="rgb(0,178,0)" stroke-width="0.1"/>
  <path d="M 96.7964749890973,87.39597138012755 L 96.29934355592536,87.46059090377878" fill="none" stroke="rgb(0,178,0)" stroke-width="0.1"/>
  <path d="M 96.29934355592536,87.46059090377878 L 95.802962841218,87.530744526288" fill="none" stroke="rgb(0,178,0)" stroke-width="0.1"/>
  <path d="M 95.802962841218,87.530744526288 L 95.30739444897063,87.60642354114555" fill="none" stroke="rgb(0,178,0)" stroke-width="0.1"/>
  <path d="M 95.30739444897063,87.60642354114555 L 94.81269988236397,87.68761855610569" fill="none" stroke="rgb(0,178,0)" stroke-width="0.1"/>
  <path d="M 94.81269988236397,87.68761855610569 L 94.31894053613178,87.77431949435208" fill="none" stroke="rgb(0,178,0)" stroke-width="0.1"/>
  <path d="M 94.31894053613178,87.77431949435208 L 93.82617768894067,87.86651559574818" fill="none" stroke="rgb(0,178,0)" stroke-width="0.1"/>
  <path d="M 93.82617768894067,87.86651559574818 L 93.3344724957858,87.96419541817318" fill="none" stroke="rgb(0,178,0)" stroke-width="0.1"/>
  <path d="M 93.3344724957858,87.96419541817318 L 92.84388598040039,88.06734683894149" fill="none" stroke="rgb(0,178,0)" stroke-width="0.1"/>
  <path d="M 92.84388598040039,88.06734683894149 L 92.35447902768294,88.17595705630742" fill="none" stroke="rgb(0,178,0)" stroke-width="0.1"/>
  <path d="M 92.35447902768294,88.17595705630742 L 91.86631237614051,88.29001259105405" fill="none" stroke="rgb(0,178,0)" stroke-width="0.1"/>
  <path d="M 91.86631237614051,88.29001259105405 L 91.37944661035101,88.40949928816622" fill="none" stroke="rgb(0,178,0)" stroke-width="0.1"/>
  <path d="M 91.37944661035101,88.40949928816622 L 90.8939421534443,88.53440231858679" fill="none" stroke="rgb(0,178,0)" stroke-width="0.1"/>
  <path d="M 90.8939421534443,88.53440231858679 L 90.40985925960308,88.66470618105734" fill="none" stroke="rgb(0,178,0)" stroke-width="0.1"/>
  <path d="M 90.40985925960308,88.66470618105734 L 89.9272580065849,88.80039470404222" fill="none" stroke="rgb(0,178,0)" stroke-width="0.1"/>
  <path d="M 89.9272580065849,88.80039470404222 L 89.4461982882666,88.94145104773497" fill="none" stroke="rgb(0,178,0)" stroke-width="0.1"/>
  <path d="M 89.4461982882666,88.94145104773497 L 88.96673980721039,89.0878577061485" fill="none" stroke="rgb(0,178,0)" stroke-width="0.1"/>
  <path d="M 88.96673980721039,89.0878577061485 L 88.48894206725527,89.23959650928794" fill="none" stroke="rgb(0,178,0)" stroke-width="0.1"/>
  <path d="M 88.48894206725527,89.23959650928794 L 88.01286436613123,89.39664862540542" fill="none" stroke="rgb(0,178,0)" stroke-width="0.1"/>
  <path d="M 88.01286436613123,89.39664862540542 L 87.53856578810075,89.55899456333691" fill="none" stroke="rgb(0,178,0)" stroke-width="0.1"/>
  <path d="M 87.53856578810075,89.55899456333691 L 87.06610519662615,89.72661417492179" fill="none" stroke="rgb(0,178,0)" stroke-width="0.1"/>
  <path d="M 87.06610519662615,89.72661417492179 L 86.59554122706345,89.8994866575033" fill="none" stroke="rgb(0,178,0)" stroke-width="0.1"/>
  <path d="M 86.59554122706345,89.8994866575033 L 86.1269322793861,90.07759055650956" fill="none" stroke="rgb(0,178,0)" stroke-width="0.1"/>
  <path d="M 86.1269322793861,90.07759055650956 L 85.66033651093687,90.26090376811692" fill="none" stroke="rgb(0,178,0)" stroke-width="0.1"/>
  <path d="M 85.66033651093687,90.26090376811692 L 85.19581182921047,90.44940354199332" fill="none" stroke="rgb(0,178,0)" stroke-width="0.1"/>
  <path d="M 85.19581182921047,90.44940354199332 L 84.73341588466621,90.64306648412105" fill="none" stroke="rgb(0,178,0)" stroke-width="0.1"/>
  <path d="M 84.73341588466621,90.64306648412105 L 84.27320606357398,90.8418685597004" fill="none" stroke="rgb(0,178,0)" stroke-width="0.1"/>
  <path d="M 84.27320606357398,90.8418685597004 L 83.81523948089148,91.04578509613305" fill="none" stroke="rgb(0,178,0)" stroke-width="0.1"/>
  <path d="M 83.81523948089148,91.04578509613305 L 83.3595729731768,91.25479078608316" fill="none" stroke="rgb(0,178,0)" stroke-width="0.1"/>
  <path d="M 83.3595729731768,91.25479078608316 L 82.90626309153367,91.46885969061907" fill="none" stroke="rgb(0,178,0)" stroke-width="0.1"/>
  <path d="M 82.90626309153367,91.46885969061907 L 82.45536609459373,91.68796524243169" fill="none" stroke="rgb(0,178,0)" stroke-width="0.1"/>
  <path d="M 82.45536609459373,91.68796524243169 L 82.0069379415346,91.91208024913237" fill="none" stroke="rgb(0,178,0)" stroke-width="0.1"/>
  <path d="M 82.0069379415346,91.91208024913237 L 81.56103428513427,92.14117689662714" fill="none" stroke="rgb(0,178,0)" stroke-width="0.1"/>
  <path d="M 81.56103428513427,92.14117689662714 L 81.11771046486501,92.37522675256889" fill="none" stroke="rgb(0,178,0)" stroke-width="0.1"/>
  <path d="M 81.11771046486501,92.37522675256889 L 80.67702150002492,92.61420076988588" fill="none" stroke="rgb(0,178,0)" stroke-width="0.1"/>
  <path d="M 80.67702150002492,92.61420076988588 L 80.23902208290974,92.85806929038677" fill="none" stroke="rgb(0,178,0)" stroke-width="0.1"/>
  <path d="M 80.23902208290974,92.85806929038677 L 79.80376657202555,93.1068020484413" fill="none" stroke="rgb(0,178,0)" stroke-width="0.1"/>
  <path d="M 79.80376657202555,93.1068020484413 L 79.37130898534201,93.36036817473644" fill="none" stroke="rgb(0,178,0)" stroke-width="0.1"/>
  <path d="M 79.37130898534201,93.36036817473644 L 78.9417029935887,93.6187362001076" fill="none" stroke="rgb(0,178,0)" stroke-width="0.1"/>
  <path d="M 78.9417029935887,93.6187362001076 L 78.51500191359435,93.88187405944393" fill="none" stroke="rgb(0,178,0)" stroke-width="0.1"/>
  <path d="M 78.51500191359435,93.88187405944393 L 78.0912587016694,94.14974909566797" fill="none" stroke="rgb(0,178,0)" stroke-width="0.1"/>
  <path d="M 78.0912587016694,94.14974909566797 L 77.67052594703432,94.42232806378854" fill="none" stroke="rgb(0,178,0)" stroke-width="0.1"/>
  <path d="M 77.67052594703432,94.42232806378854 L 77.25285586529276,94.69957713502686" fill="none" stroke="rgb(0,178,0)" stroke-width="0.1"/>
  <path d="M 77.25285586529276,94.69957713502686 L 76.83830029195121,94.98146190101454" fill="none" stroke="rgb(0,178,0)" stroke-width="0.1"/>
  <path d="M 76.83830029195121,94.98146190101454 L 76.42691067598571,95.26794737806404" fill="none" stroke="rgb(0,178,0)" stroke-width="0.1"/>
  <path d="M 76.42691067598571,95.26794737806404 L 76.01873807345714,95.55899801151043" fill="none" stroke="rgb(0,178,0)" stroke-width="0.1"/>
  <path d="M 76.01873807345714,95.55899801151043 L 75.61383314117461,95.85457768012407" fill="none" stroke="rgb(0,178,0)" stroke-width="0.1"/>
  <path d="M 75.61383314117461,95.85457768012407 L 75.2122461304084,96.15464970059315" fill="none" stroke="rgb(0,178,0)" stroke-width="0.1"/>
  <path d="M 75.2122461304084,96.15464970059315 L 74.81402688065407,96.45917683207665" fill="none" stroke="rgb(0,178,0)" stroke-width="0.1"/>
  <path d="M 74.81402688065407,96.45917683207665 L 74.41922481344614,96.76812128082577" fill="none" stroke="rgb(0,178,0)" stroke-width="0.1"/>
  <path d="M 74.41922481344614,96.76812128082577 L 74.02788892622561,97.0814447048748" fill="none" stroke="rgb(0,178,0)" stroke-width="0.1"/>
  <path d="M 74.02788892622561,97.0814447048748 L 73.64006778625833,97.39910821879937" fill="none" stroke="rgb(0,178,0)" stroke-width="0.1"/>
  <path d="M 73.64006778625833,97.39910821879937 L 73.25580952460768,97.72107239854267" fill="none" stroke="rgb(0,178,0)" stroke-width="0.1"/>
  <path d="M 73.25580952460768,97.72107239854267 L 72.87516183016135,98.04729728630741" fill="none" stroke="rgb(0,178,0)" stroke-width="0.1"/>
  <path d="M 72.87516183016135,98.04729728630741 L 72.49817194371258,98.37774239551607" fill="none" stroke="rgb(0,178,0)" stroke-width="0.1"/>
  <path d="M 72.49817194371258,98.37774239551607 L 72.12488665209764,98.71236671583426" fill="none" stroke="rgb(0,178,0)" stroke-width="0.1"/>
  <path d="M 72.12488665209764,98.71236671583426 L 71.75535228238903,99.05112871826157" fill="none" stroke="rgb(0,178,0)" stroke-width="0.1"/>
  <path d="M 71.75535228238903,99.05112871826157 L 71.38961469614594,99.39398636028454" fill="none" stroke="rgb(0,178,0)" stroke-width="0.1"/>
  <path d="M 71.38961469614594,99.39398636028454 L 71.02771928372272,99.74089709109523" fill="none" stroke="rgb(0,178,0)" stroke-width="0.1"/>
 </g>
 <g id="layerA-车位-text" inkscape:groupmode="layer" inkscape:label="A-车位-text">
  <text fill="rgb(178,88,0)" font-family="Noto Sans CJK SC" font-size="2" transform="rotate(-349.853,0.6142365000000609,91.75903399999993)" x="0.6142365000000609" y="91.75903399999993">
   B-201
  </text>
  <text fill="rgb(178,88,0)" font-family="Noto Sans CJK SC" font-size="2" transform="rotate(-349.853,4.545236500000101,73.23503399999993)" x="4.545236500000101" y="73.23503399999993">
   B-202
  </text>
  <text fill="rgb(178,88,0)" font-family="Noto Sans CJK SC" font-size="2" transform="rotate(-349.853,7.9152365000001055,46.85203399999989)" x="7.9152365000001055" y="46.85203399999989">
   B-203
  </text>
  <text fill="rgb(178,88,0)" font-family="Noto Sans CJK SC" font-size="2" transform="rotate(-349.853,14.374236500000052,25.240033999999923)" x="14.374236500000052" y="25.240033999999923">
   B-204
  </text>
 </g>
 <g id="layerCOLUMN" inkscape:groupmode="layer" inkscape:label="COLUMN">
  <path d="M 27.615236500000037,8.961033999999927 L 36.47523650000005,10.546033999999963" fill="none" instance-id="-1" semantic-id="1" stroke="rgb(178,178,0)" stroke-width="0.1"/>
  <path d="M 36.47523650000005,10.546033999999963 L 38.06023650000009,1.687033999999926" fill="none" instance-id="-1" semantic-id="1" stroke="rgb(178,178,0)" stroke-width="0.1"/>
  <path d="M 38.06023650000009,1.687033999999926 L 29.20123650000005,0.10103399999991325" fill="none" instance-id="-1" semantic-id="1" stroke="rgb(178,178,0)" stroke-width="0.1"/>
  <path d="M 29.20123650000005,0.10103399999991325 L 27.615236500000037,8.961033999999927" fill="none" instance-id="-1" semantic-id="1" stroke="rgb(178,178,0)" stroke-width="0.1"/>
 </g>
 <g id="layerDIM_LEAD" inkscape:groupmode="layer" inkscape:label="DIM_LEAD">
  <path d="M 100.0,38.1683720342221 L 55.32923650000009,30.173033999999916" fill="none" stroke="rgb(0,178,0)" stroke-width="0.1"/>
 </g>
 <g id="layerPUB_TEXT" inkscape:groupmode="layer" inkscape:label="PUB_TEXT">
  <text fill="rgb(0,0,0)" font-family="Noto Sans CJK SC" font-size="2" transform="rotate(-349.853,57.15723650000007,28.90003399999989)" x="57.15723650000007" y="28.90003399999989">
   集水井
  </text>
  <text fill="rgb(0,0,0)" font-family="Noto Sans CJK SC" font-size="2" transform="rotate(-349.853,55.81623650000006,36.39303399999994)" x="55.81623650000006" y="36.39303399999994">
   2500x1500x1500d
  </text>
 </g>
 <g id="layerS-JSJ" inkscape:groupmode="layer" inkscape:label="S-JSJ">
  <path d="M 2.8060083965181093,0.0 L 0.0,15.677904374885657" fill="none" stroke="rgb(0,133,178)" stroke-width="0.1"/>
 </g>
 <g id="layerWINDOW_TEXT" inkscape:groupmode="layer" inkscape:label="WINDOW_TEXT">
  <text fill="rgb(178,0,178)" font-family="Noto Sans CJK SC" font-size="2" transform="rotate(-79.8529,94.6272365000001,90.08403399999997)" x="94.6272365000001" y="90.08403399999997">
   FJM7025
  </text>
 </g>
 <g id="layers-消火栓" inkscape:groupmode="layer" inkscape:label="s-消火栓">
  <path d="M 38.06023650000009,1.687033999999926 L 40.42323650000003,2.110033999999928" fill="none" stroke="rgb(178,88,0)" stroke-width="0.1"/>
  <path d="M 39.189236500000106,9.000033999999914 L 36.827236500000026,8.577033999999912" fill="none" stroke="rgb(178,88,0)" stroke-width="0.1"/>
  <path d="M 36.827236500000026,8.577033999999912 L 38.06023650000009,1.687033999999926" fill="none" stroke="rgb(178,88,0)" stroke-width="0.1"/>
  <path d="M 36.827236500000026,8.577033999999912 L 40.42323650000003,2.110033999999928" fill="none" stroke="rgb(178,88,0)" stroke-width="0.1"/>
  <path d="M 40.42323650000003,2.110033999999928 L 39.189236500000106,9.000033999999914" fill="none" stroke="rgb(178,88,0)" stroke-width="0.1"/>
  <circle cx="37.69123650000006" cy="10.56103399999995" fill="none" r="0.5" stroke="rgb(178,178,0)" stroke-width="0.1"/>
 </g>
</svg>