<?xml version="1.0" encoding="utf-8"?>
<svg style="background-color: #000;" version="1.1" viewBox="0 0 100.0 100.0" xmlns="http://www.w3.org/2000/svg" xmlns:inkscape="http://www.inkscape.org/namespaces/inkscape">
 <g id="layer0-结构边线" inkscape:groupmode="layer" inkscape:label="0-结构边线">
  <path d="M 93.91223650000006,40.514033999999924 L 100.0,41.60309778639953" fill="none" stroke="rgb(178,0,178)" stroke-width="0.1"/>
  <path d="M 95.5022365000001,31.655034 L 100.0,32.45965647714445" fill="none" stroke="rgb(178,0,178)" stroke-width="0.1"/>
  <path d="M 93.91223650000006,40.514033999999924 L 95.5022365000001,31.655034" fill="none" stroke="rgb(178,0,178)" stroke-width="0.1"/>
  <path d="M 0.30123650000007274,23.75903399999993 L 9.161236500000086,25.34503399999994" fill="none" stroke="rgb(178,0,178)" stroke-width="0.1"/>
  <path d="M 9.161236500000086,25.34503399999994 L 10.746236500000009,16.486033999999904" fill="none" stroke="rgb(178,0,178)" stroke-width="0.1"/>
  <path d="M 1.8872365000000855,14.900033999999891 L 10.746236500000009,16.486033999999904" fill="none" stroke="rgb(178,0,178)" stroke-width="0.1"/>
  <path d="M 0.30123650000007274,23.75903399999993 L 1.8872365000000855,14.900033999999891" fill="none" stroke="rgb(178,0,178)" stroke-width="0.1"/>
 </g>
 <g id="layerA-留洞-up" inkscape:groupmode="layer" inkscape:label="A-留洞-up">
  <path d="M 62.52423650000003,25.753033999999957 L 72.85923650000007,27.60203399999989" fill="none" stroke="rgb(178,0,178)" stroke-width="0.1"/>
  <path d="M 72.85923650000007,27.60203399999989 L 77.79543605100218,0.0" fill="none" stroke="rgb(178,0,178)" stroke-width="0.1"/>
  <path d="M 77.59088461758392,0.0 L 69.68023650000009,24.622033999999985" fill="none" stroke="rgb(178,0,178)" stroke-width="0.1"/>
  <path d="M 69.68023650000009,24.622033999999985 L 62.52423650000003,25.753033999999957" fill="none" stroke="rgb(178,0,178)" stroke-width="0.1"/>
  <path d="M 62.52423650000003,25.753033999999957 L 67.13315959301292,0.0" fill="none" stroke="rgb(178,0,178)" stroke-width="0.1"/>
 </g>
 <g id="layerA-车位" inkscape:groupmode="layer" inkscape:label="A-车位">
  <path d="M 2.416236500000082,11.947033999999917 L 54.58723650000002,21.284033999999906" fill="none" instance-id="-1" semantic-id="35" stroke="rgb(0,0,178)" stroke-width="0.1"/>
  <path d="M 54.58723650000002,21.284033999999906 L 58.39629028844445,0.0" fill="none" instance-id="-1" semantic-id="35" stroke="rgb(0,0,178)" stroke-width="0.1"/>
  <path d="M 47.72958594209672,0.0 L 47.158236500000044,3.1920339999999214" fill="none" instance-id="-1" semantic-id="35" stroke="rgb(0,0,178)" stroke-width="0.1"/>
  <path d="M 45.57223650000003,12.051033999999959 L 44.69123650000006,16.973033999999984" fill="none" instance-id="-1" semantic-id="35" stroke="rgb(0,0,178)" stroke-width="0.1"/>
  <path d="M 47.22120397663559,0.0 L 46.66623650000008,3.104033999999956" fill="none" instance-id="-1" semantic-id="35" stroke="rgb(0,0,178)" stroke-width="0.1"/>
  <path d="M 45.08023650000007,11.963033999999993 L 44.1992365000001,16.885033999999905" fill="none" instance-id="-1" semantic-id="35" stroke="rgb(0,0,178)" stroke-width="0.1"/>
  <path d="M 48.74521108931117,0.0 L 48.14223650000008,3.368033999999966" fill="none" instance-id="-1" semantic-id="35" stroke="rgb(0,0,178)" stroke-width="0.1"/>
  <path d="M 46.557236500000045,12.22803399999998 L 45.67623650000007,17.149033999999915" fill="none" instance-id="-1" semantic-id="35" stroke="rgb(0,0,178)" stroke-width="0.1"/>
  <path d="M 45.67623650000007,17.149033999999915 L 44.1992365000001,16.885033999999905" fill="none" instance-id="-1" semantic-id="35" stroke="rgb(0,0,178)" stroke-width="0.1"/>
  <path d="M 46.66623650000008,3.104033999999956 L 48.14223650000008,3.368033999999966" fill="none" instance-id="-1" semantic-id="35" stroke="rgb(0,0,178)" stroke-width="0.1"/>
  <path d="M 45.08023650000007,11.963033999999993 L 46.557236500000045,12.22803399999998" fill="none" instance-id="-1" semantic-id="35" stroke="rgb(0,0,178)" stroke-width="0.1"/>
 </g>
 <g id="layerA-车位-lx" inkscape:groupmode="layer" inkscape:label="A-车位-lx">
  <path d="M 0.12523650000002817,87.72903399999996 L 68.68776983009752,100.0" fill="none" stroke="rgb(0,178,0)" stroke-width="0.1"/>
  <path d="M 55.26423650000004,89.44203399999992 L 58.117236500000104,99.12403399999994" fill="none" stroke="rgb(0,178,0)" stroke-width="0.1"/>
  <path d="M 58.117236500000104,99.12403399999994 L 57.464078314608855,100.0" fill="none" stroke="rgb(0,178,0)" stroke-width="0.1"/>
  <path d="M 53.043236500000035,89.0440339999999 L 55.8962365000001,98.72603399999991" fill="none" stroke="rgb(0,178,0)" stroke-width="0.1"/>
  <path d="M 55.8962365000001,98.72603399999991 L 54.946154823569486,100.0" fill="none" stroke="rgb(0,178,0)" stroke-width="0.1"/>
  <path d="M 53.043236500000035,89.0440339999999 L 55.26423650000004,89.44203399999992" fill="none" stroke="rgb(0,178,0)" stroke-width="0.1"/>
 </g>
 <g id="layerA-车位-text" inkscape:groupmode="layer" inkscape:label="A-车位-text">
  <text fill="rgb(178,88,0)" font-family="Noto Sans CJK SC" font-size="2" transform="rotate(-349.853,11.750236500000028,7.546033999999963)" x="11.750236500000028" y="7.546033999999963">
   B-217
  </text>
 </g>
 <g id="layerCOLUMN" inkscape:groupmode="layer" inkscape:label="COLUMN">
  <path d="M 81.64223650000008,35.270033999999896 L 83.41223650000006,25.427033999999935" fill="none" instance-id="-1" semantic-id="1" stroke="rgb(178,178,0)" stroke-width="0.1"/>
  <path d="M 83.41223650000006,25.427033999999935 L 80.45223650000003,24.89803399999994" fill="none" instance-id="-1" semantic-id="1" stroke="rgb(178,178,0)" stroke-width="0.1"/>
  <path d="M 80.45223650000003,24.89803399999994 L 78.69223650000004,34.74203399999999" fill="none" instance-id="-1" semantic-id="1" stroke="rgb(178,178,0)" stroke-width="0.1"/>
  <path d="M 84.91582845750611,0.0 L 81.86223650000011,17.02303399999994" fill="none" instance-id="-1" semantic-id="1" stroke="rgb(178,178,0)" stroke-width="0.1"/>
  <path d="M 81.86223650000011,17.02303399999994 L 84.81223650000004,17.552033999999935" fill="none" instance-id="-1" semantic-id="1" stroke="rgb(178,178,0)" stroke-width="0.1"/>
  <path d="M 84.81223650000004,17.552033999999935 L 87.960817425669,0.0" fill="none" instance-id="-1" semantic-id="1" stroke="rgb(178,178,0)" stroke-width="0.1"/>
  <path d="M 78.69223650000004,34.74203399999999 L 80.45223650000003,24.89803399999994" fill="none" instance-id="-1" semantic-id="1" stroke="rgb(178,178,0)" stroke-width="0.1"/>
  <path d="M 80.45223650000003,24.89803399999994 L 77.5022365000001,24.37003399999992" fill="none" instance-id="-1" semantic-id="1" stroke="rgb(178,178,0)" stroke-width="0.1"/>
  <path d="M 77.5022365000001,24.37003399999992 L 75.7422365000001,34.21303399999999" fill="none" instance-id="-1" semantic-id="1" stroke="rgb(178,178,0)" stroke-width="0.1"/>
  <path d="M 81.86136895022355,0.0 L 78.91223650000006,16.49503399999992" fill="none" instance-id="-1" semantic-id="1" stroke="rgb(178,178,0)" stroke-width="0.1"/>
  <path d="M 78.91223650000006,16.49503399999992 L 81.86223650000011,17.02303399999994" fill="none" instance-id="-1" semantic-id="1" stroke="rgb(178,178,0)" stroke-width="0.1"/>
  <path d="M 81.86223650000011,17.02303399999994 L 84.91582845750611,0.0" fill="none" instance-id="-1" semantic-id="1" stroke="rgb(178,178,0)" stroke-width="0.1"/>
  <path d="M 9.689236500000106,22.392033999999967 L 58.51323650000006,31.13003399999991" fill="none" instance-id="-1" semantic-id="1" stroke="rgb(178,178,0)" stroke-width="0.1"/>
  <path d="M 9.161236500000086,25.34503399999994 L 59.46123650000004,34.348033999999984" fill="none" instance-id="-1" semantic-id="1" stroke="rgb(178,178,0)" stroke-width="0.1"/>
  <path d="M 67.13306316103876,0.0 L 61.466236500000036,31.659033999999906" fill="none" instance-id="-1" semantic-id="1" stroke="rgb(178,178,0)" stroke-width="0.1"/>
  <path d="M 64.08490309512388,0.0 L 58.51323650000006,31.13003399999991" fill="none" instance-id="-1" semantic-id="1" stroke="rgb(178,178,0)" stroke-width="0.1"/>
  <path d="M 0.0,42.47479466018524 L 3.2552365000000236,24.288033999999925" fill="none" instance-id="-1" semantic-id="1" stroke="rgb(178,178,0)" stroke-width="0.1"/>
  <path d="M 4.4042365000000245,51.92203399999994 L 9.161236500000086,25.34503399999994" fill="none" instance-id="-1" semantic-id="1" stroke="rgb(178,178,0)" stroke-width="0.1"/>
  <path d="M 0.0,51.133805422197725 L 4.4042365000000245,51.92203399999994" fill="none" instance-id="-1" semantic-id="1" stroke="rgb(178,178,0)" stroke-width="0.1"/>
  <path d="M 61.466236500000036,31.659033999999906 L 75.7422365000001,34.21303399999999" fill="none" instance-id="-1" semantic-id="1" stroke="rgb(178,178,0)" stroke-width="0.1"/>
  <path d="M 59.46123650000004,34.348033999999984 L 76.69223650000004,37.431033999999954" fill="none" instance-id="-1" semantic-id="1" stroke="rgb(178,178,0)" stroke-width="0.1"/>
  <path d="M 76.69223650000004,37.431033999999954 L 79.64223650000008,37.959033999999974" fill="none" instance-id="-1" semantic-id="1" stroke="rgb(178,178,0)" stroke-width="0.1"/>
  <path d="M 81.64223650000008,35.270033999999896 L 94.44223650000004,37.56103399999995" fill="none" instance-id="-1" semantic-id="1" stroke="rgb(178,178,0)" stroke-width="0.1"/>
  <path d="M 79.64223650000008,37.959033999999974 L 93.91223650000006,40.514033999999924" fill="none" instance-id="-1" semantic-id="1" stroke="rgb(178,178,0)" stroke-width="0.1"/>
  <path d="M 93.91223650000006,40.514033999999924 L 100.0,41.60309778639953" fill="none" instance-id="-1" semantic-id="1" stroke="rgb(178,178,0)" stroke-width="0.1"/>
  <path d="M 100.0,32.45965647714445 L 95.5022365000001,31.655034" fill="none" instance-id="-1" semantic-id="1" stroke="rgb(178,178,0)" stroke-width="0.1"/>
  <path d="M 95.5022365000001,31.655034 L 93.91223650000006,40.514033999999924" fill="none" instance-id="-1" semantic-id="1" stroke="rgb(178,178,0)" stroke-width="0.1"/>
  <path d="M 0.30123650000007274,23.75903399999993 L 9.161236500000086,25.34503399999994" fill="none" instance-id="-1" semantic-id="1" stroke="rgb(178,178,0)" stroke-width="0.1"/>
  <path d="M 9.161236500000086,25.34503399999994 L 10.746236500000009,16.486033999999904" fill="none" instance-id="-1" semantic-id="1" stroke="rgb(178,178,0)" stroke-width="0.1"/>
  <path d="M 10.746236500000009,16.486033999999904 L 1.8872365000000855,14.900033999999891" fill="none" instance-id="-1" semantic-id="1" stroke="rgb(178,178,0)" stroke-width="0.1"/>
  <path d="M 1.8872365000000855,14.900033999999891 L 0.30123650000007274,23.75903399999993" fill="none" instance-id="-1" semantic-id="1" stroke="rgb(178,178,0)" stroke-width="0.1"/>
 </g>
 <g id="layerDIM_LEAD" inkscape:groupmode="layer" inkscape:label="DIM_LEAD">
  <path d="M 32.82223650000003,38.108033999999975 L 0.0,38.62428121034452" fill="none" stroke="rgb(0,178,0)" stroke-width="0.1"/>
  <path d="M 33.11823650000008,38.15603399999998 A 0.3,0.3 0.0 1,0 32.526236500000095,38.06003399999997" fill="none" stroke="rgb(0,178,0)" stroke-width="0.1"/>
  <path d="M 32.526236500000095,38.06003399999997 A 0.3,0.3 0.0 1,0 33.11823650000008,38.15603399999998" fill="none" stroke="rgb(0,178,0)" stroke-width="0.1"/>
 </g>
 <g id="layerDIM_SYMB" inkscape:groupmode="layer" inkscape:label="DIM_SYMB">
  <path d="M 98.14223650000008,24.193033999999898 L 100.0,23.870360786475203" fill="none" stroke="rgb(0,178,0)" stroke-width="0.1"/>
 </g>
 <g id="layerPUB_HATCH" inkscape:groupmode="layer" inkscape:label="PUB_HATCH">
  <path d="M 81.64223650000008,35.270033999999896 L 83.41223650000006,25.427033999999935" fill="none" instance-id="-1" semantic-id="1" stroke="rgb(63,63,63)" stroke-width="0.1"/>
  <path d="M 83.41223650000006,25.427033999999935 L 80.45223650000003,24.89803399999994" fill="none" instance-id="-1" semantic-id="1" stroke="rgb(63,63,63)" stroke-width="0.1"/>
  <path d="M 80.45223650000003,24.89803399999994 L 78.69223650000004,34.74203399999999" fill="none" instance-id="-1" semantic-id="1" stroke="rgb(63,63,63)" stroke-width="0.1"/>
  <path d="M 78.69223650000004,34.74203399999999 L 79.9922365000001,35.99003399999992" fill="none" instance-id="-1" semantic-id="1" stroke="rgb(63,63,63)" stroke-width="0.1"/>
  <path d="M 79.9922365000001,35.99003399999992 L 81.64223650000008,35.270033999999896" fill="none" instance-id="-1" semantic-id="1" stroke="rgb(63,63,63)" stroke-width="0.1"/>
  <path d="M 81.86223650000011,17.02303399999994 L 84.81223650000004,17.552033999999935" fill="none" instance-id="-1" semantic-id="1" stroke="rgb(63,63,63)" stroke-width="0.1"/>
  <path d="M 84.81223650000004,17.552033999999935 L 87.960817425669,0.0" fill="none" instance-id="-1" semantic-id="1" stroke="rgb(63,63,63)" stroke-width="0.1"/>
  <path d="M 84.91582845750611,0.0 L 81.86223650000011,17.02303399999994" fill="none" instance-id="-1" semantic-id="1" stroke="rgb(63,63,63)" stroke-width="0.1"/>
  <path d="M 78.69223650000004,34.74203399999999 L 80.45223650000003,24.89803399999994" fill="none" instance-id="-1" semantic-id="1" stroke="rgb(63,63,63)" stroke-width="0.1"/>
  <path d="M 80.45223650000003,24.89803399999994 L 77.5022365000001,24.37003399999992" fill="none" instance-id="-1" semantic-id="1" stroke="rgb(63,63,63)" stroke-width="0.1"/>
  <path d="M 77.5022365000001,24.37003399999992 L 75.7422365000001,34.21303399999999" fill="none" instance-id="-1" semantic-id="1" stroke="rgb(63,63,63)" stroke-width="0.1"/>
  <path d="M 75.7422365000001,34.21303399999999 L 77.04223650000006,35.4620339999999" fill="none" instance-id="-1" semantic-id="1" stroke="rgb(63,63,63)" stroke-width="0.1"/>
  <path d="M 77.04223650000006,35.4620339999999 L 78.69223650000004,34.74203399999999" fill="none" instance-id="-1" semantic-id="1" stroke="rgb(63,63,63)" stroke-width="0.1"/>
  <path d="M 78.91223650000006,16.49503399999992 L 81.86223650000011,17.02303399999994" fill="none" instance-id="-1" semantic-id="1" stroke="rgb(63,63,63)" stroke-width="0.1"/>
  <path d="M 81.86223650000011,17.02303399999994 L 84.91582845750611,0.0" fill="none" instance-id="-1" semantic-id="1" stroke="rgb(63,63,63)" stroke-width="0.1"/>
  <path d="M 81.86136895022355,0.0 L 78.91223650000006,16.49503399999992" fill="none" instance-id="-1" semantic-id="1" stroke="rgb(63,63,63)" stroke-width="0.1"/>
  <path d="M 9.161236500000086,25.34503399999994 L 59.46123650000004,34.348033999999984" fill="none" instance-id="-1" semantic-id="1" stroke="rgb(63,63,63)" stroke-width="0.1"/>
  <path d="M 59.46123650000004,34.348033999999984 L 59.814236500000106,32.37903399999993" fill="none" instance-id="-1" semantic-id="1" stroke="rgb(63,63,63)" stroke-width="0.1"/>
  <path d="M 59.814236500000106,32.37903399999993 L 58.51323650000006,31.13003399999991" fill="none" instance-id="-1" semantic-id="1" stroke="rgb(63,63,63)" stroke-width="0.1"/>
  <path d="M 58.51323650000006,31.13003399999991 L 9.689236500000106,22.392033999999967" fill="none" instance-id="-1" semantic-id="1" stroke="rgb(63,63,63)" stroke-width="0.1"/>
  <path d="M 9.689236500000106,22.392033999999967 L 9.161236500000086,25.34503399999994" fill="none" instance-id="-1" semantic-id="1" stroke="rgb(63,63,63)" stroke-width="0.1"/>
  <path d="M 64.08490309512388,0.0 L 58.51323650000006,31.13003399999991" fill="none" instance-id="-1" semantic-id="1" stroke="rgb(63,63,63)" stroke-width="0.1"/>
  <path d="M 58.51323650000006,31.13003399999991 L 59.814236500000106,32.37903399999993" fill="none" instance-id="-1" semantic-id="1" stroke="rgb(63,63,63)" stroke-width="0.1"/>
  <path d="M 59.814236500000106,32.37903399999993 L 61.466236500000036,31.659033999999906" fill="none" instance-id="-1" semantic-id="1" stroke="rgb(63,63,63)" stroke-width="0.1"/>
  <path d="M 61.466236500000036,31.659033999999906 L 67.13306316103876,0.0" fill="none" instance-id="-1" semantic-id="1" stroke="rgb(63,63,63)" stroke-width="0.1"/>
  <path d="M 3.2552365000000236,24.288033999999925 L 0.0,42.47479466018524" fill="none" instance-id="-1" semantic-id="1" stroke="rgb(63,63,63)" stroke-width="0.1"/>
  <path d="M 0.0,51.133805422197725 L 4.4042365000000245,51.92203399999994" fill="none" instance-id="-1" semantic-id="1" stroke="rgb(63,63,63)" stroke-width="0.1"/>
  <path d="M 4.4042365000000245,51.92203399999994 L 9.161236500000086,25.34503399999994" fill="none" instance-id="-1" semantic-id="1" stroke="rgb(63,63,63)" stroke-width="0.1"/>
  <path d="M 9.161236500000086,25.34503399999994 L 3.2552365000000236,24.288033999999925" fill="none" instance-id="-1" semantic-id="1" stroke="rgb(63,63,63)" stroke-width="0.1"/>
  <path d="M 59.46123650000004,34.348033999999984 L 76.69223650000004,37.431033999999954" fill="none" instance-id="-1" semantic-id="1" stroke="rgb(63,63,63)" stroke-width="0.1"/>
  <path d="M 76.69223650000004,37.431033999999954 L 77.04223650000006,35.4620339999999" fill="none" instance-id="-1" semantic-id="1" stroke="rgb(63,63,63)" stroke-width="0.1"/>
  <path d="M 77.04223650000006,35.4620339999999 L 75.7422365000001,34.21303399999999" fill="none" instance-id="-1" semantic-id="1" stroke="rgb(63,63,63)" stroke-width="0.1"/>
  <path d="M 75.7422365000001,34.21303399999999 L 61.466236500000036,31.659033999999906" fill="none" instance-id="-1" semantic-id="1" stroke="rgb(63,63,63)" stroke-width="0.1"/>
  <path d="M 61.466236500000036,31.659033999999906 L 59.814236500000106,32.37903399999993" fill="none" instance-id="-1" semantic-id="1" stroke="rgb(63,63,63)" stroke-width="0.1"/>
  <path d="M 59.814236500000106,32.37903399999993 L 59.46123650000004,34.348033999999984" fill="none" instance-id="-1" semantic-id="1" stroke="rgb(63,63,63)" stroke-width="0.1"/>
  <path d="M 76.69223650000004,37.431033999999954 L 79.64223650000008,37.959033999999974" fill="none" instance-id="-1" semantic-id="1" stroke="rgb(63,63,63)" stroke-width="0.1"/>
  <path d="M 79.64223650000008,37.959033999999974 L 79.9922365000001,35.99003399999992" fill="none" instance-id="-1" semantic-id="1" stroke="rgb(63,63,63)" stroke-width="0.1"/>
  <path d="M 79.9922365000001,35.99003399999992 L 78.69223650000004,34.74203399999999" fill="none" instance-id="-1" semantic-id="1" stroke="rgb(63,63,63)" stroke-width="0.1"/>
  <path d="M 78.69223650000004,34.74203399999999 L 77.04223650000006,35.4620339999999" fill="none" instance-id="-1" semantic-id="1" stroke="rgb(63,63,63)" stroke-width="0.1"/>
  <path d="M 77.04223650000006,35.4620339999999 L 76.69223650000004,37.431033999999954" fill="none" instance-id="-1" semantic-id="1" stroke="rgb(63,63,63)" stroke-width="0.1"/>
  <path d="M 79.64223650000008,37.959033999999974 L 93.91223650000006,40.514033999999924" fill="none" instance-id="-1" semantic-id="1" stroke="rgb(63,63,63)" stroke-width="0.1"/>
  <path d="M 93.91223650000006,40.514033999999924 L 94.44223650000004,37.56103399999995" fill="none" instance-id="-1" semantic-id="1" stroke="rgb(63,63,63)" stroke-width="0.1"/>
  <path d="M 94.44223650000004,37.56103399999995 L 81.64223650000008,35.270033999999896" fill="none" instance-id="-1" semantic-id="1" stroke="rgb(63,63,63)" stroke-width="0.1"/>
  <path d="M 81.64223650000008,35.270033999999896 L 79.9922365000001,35.99003399999992" fill="none" instance-id="-1" semantic-id="1" stroke="rgb(63,63,63)" stroke-width="0.1"/>
  <path d="M 79.9922365000001,35.99003399999992 L 79.64223650000008,37.959033999999974" fill="none" instance-id="-1" semantic-id="1" stroke="rgb(63,63,63)" stroke-width="0.1"/>
 </g>
 <g id="layerPUB_TEXT" inkscape:groupmode="layer" inkscape:label="PUB_TEXT">
  <text fill="rgb(0,0,0)" font-family="Noto Sans CJK SC" font-size="2" transform="rotate(-349.853,62.14323650000006,17.369033999999942)" x="62.14323650000006" y="17.369033999999942">
   竖井
  </text>
  <text fill="rgb(0,0,0)" font-family="Noto Sans CJK SC" font-size="2" transform="rotate(-349.853,89.02223650000008,16.473033999999984)" x="89.02223650000008" y="16.473033999999984">
   集气
  </text>
  <text fill="rgb(0,0,0)" font-family="Noto Sans CJK SC" font-size="2" transform="rotate(-349.853,25.945236500000078,87.04503399999999)" x="25.945236500000078" y="87.04503399999999">
   上
  </text>
  <text fill="rgb(0,0,0)" font-family="Noto Sans CJK SC" font-size="2" transform="rotate(-349.853,99.31223650000015,88.88903399999992)" x="99.31223650000015" y="88.88903399999992">
   PD7
  </text>
 </g>
 <g id="layerRF-WINDOW" inkscape:groupmode="layer" inkscape:label="RF-WINDOW">
  <path d="M 83.41223650000006,25.427033999999935 L 84.81223650000004,17.552033999999935" fill="none" stroke="rgb(0,178,178)" stroke-width="0.1"/>
  <path d="M 77.5022365000001,24.37003399999992 L 78.91223650000006,16.49503399999992" fill="none" stroke="rgb(0,178,178)" stroke-width="0.1"/>
  <path d="M 84.13223650000009,17.429033999999888 L 86.84223650000001,24.95303399999989" fill="none" stroke="rgb(0,178,178)" stroke-width="0.1"/>
  <path d="M 79.6022365,16.618033999999966 L 74.44223650000004,22.733033999999975" fill="none" stroke="rgb(0,178,178)" stroke-width="0.1"/>
  <path d="M 9.544997333781339,100.0 L 13.013236500000062,95.88803399999995" fill="none" stroke="rgb(0,178,178)" stroke-width="0.1"/>
  <path d="M 4.322236500000031,51.90803399999993 L 15.39523650000001,82.57703399999991" fill="none" stroke="rgb(0,178,178)" stroke-width="0.1"/>
 </g>
 <g id="layerS-JSJ" inkscape:groupmode="layer" inkscape:label="S-JSJ">
  <path d="M 46.70123650000005,48.31703399999992 L 37.44995177022281,100.0" fill="none" stroke="rgb(0,133,178)" stroke-width="0.1"/>
  <path d="M 42.76323650000006,47.612033999999994 L 33.38635766076095,100.0" fill="none" stroke="rgb(0,133,178)" stroke-width="0.1"/>
  <path d="M 24.379236500000047,31.13003399999991 L 26.116236500000014,29.39403399999992" fill="none" stroke="rgb(0,133,178)" stroke-width="0.1"/>
  <path d="M 23.890236500000015,33.86503399999992 L 28.02023650000001,29.735033999999928" fill="none" stroke="rgb(0,133,178)" stroke-width="0.1"/>
  <path d="M 23.401236500000095,36.59903399999996 L 29.924236500000006,30.076033999999936" fill="none" stroke="rgb(0,133,178)" stroke-width="0.1"/>
  <path d="M 22.911236500000086,39.334033999999974 L 25.414236500000015,36.83103399999993" fill="none" stroke="rgb(0,133,178)" stroke-width="0.1"/>
  <path d="M 22.422236500000054,42.0680339999999 L 23.430236500000092,41.06003399999997" fill="none" stroke="rgb(0,133,178)" stroke-width="0.1"/>
  <path d="M 29.3572365,32.88803399999995 L 31.828236500000003,30.417033999999944" fill="none" stroke="rgb(0,133,178)" stroke-width="0.1"/>
  <path d="M 31.5302365,32.96103399999993 L 33.73323650000009,30.758033999999952" fill="none" stroke="rgb(0,133,178)" stroke-width="0.1"/>
  <path d="M 33.7032365,33.03303399999993 L 35.637236500000085,31.098033999999984" fill="none" stroke="rgb(0,133,178)" stroke-width="0.1"/>
  <path d="M 35.87523650000003,33.10503399999993 L 37.54123650000008,31.439033999999992" fill="none" stroke="rgb(0,133,178)" stroke-width="0.1"/>
  <path d="M 38.04823650000003,33.177033999999935 L 39.44523650000008,31.780034" fill="none" stroke="rgb(0,133,178)" stroke-width="0.1"/>
  <path d="M 40.22123650000003,33.24903399999994 L 41.35023650000005,32.121033999999895" fill="none" stroke="rgb(0,133,178)" stroke-width="0.1"/>
  <path d="M 42.394236500000034,33.32103399999994 L 43.25423650000005,32.4620339999999" fill="none" stroke="rgb(0,133,178)" stroke-width="0.1"/>
  <path d="M 44.567236500000035,33.39303399999994 L 45.158236500000044,32.802033999999935" fill="none" stroke="rgb(0,133,178)" stroke-width="0.1"/>
  <path d="M 46.74023650000004,33.465033999999946 L 47.06223650000004,33.14303399999994" fill="none" stroke="rgb(0,133,178)" stroke-width="0.1"/>
  <path d="M 48.91323650000004,33.53703399999995 L 48.96723650000001,33.48403399999995" fill="none" stroke="rgb(0,133,178)" stroke-width="0.1"/>
  <path d="M 22.092236500000013,43.91203399999995 L 46.70123650000005,48.31703399999992" fill="none" stroke="rgb(0,133,178)" stroke-width="0.1"/>
  <path d="M 46.70123650000005,48.31703399999992 L 49.3432365000001,33.552033999999935" fill="none" stroke="rgb(0,133,178)" stroke-width="0.1"/>
  <path d="M 49.3432365000001,33.552033999999935 L 24.734236500000065,29.147033999999962" fill="none" stroke="rgb(0,133,178)" stroke-width="0.1"/>
  <path d="M 24.734236500000065,29.147033999999962 L 22.092236500000013,43.91203399999995" fill="none" stroke="rgb(0,133,178)" stroke-width="0.1"/>
  <path d="M 22.092236500000013,43.91203399999995 L 27.296236500000077,32.820033999999964" fill="none" stroke="rgb(0,133,178)" stroke-width="0.1"/>
  <path d="M 27.296236500000077,32.820033999999964 L 49.3432365000001,33.552033999999935" fill="none" stroke="rgb(0,133,178)" stroke-width="0.1"/>
  <path d="M 22.092236500000013,43.91203399999995 L 27.296236500000077,32.820033999999964" fill="none" stroke="rgb(0,133,178)" stroke-width="0.1"/>
  <path d="M 27.296236500000077,32.820033999999964 L 49.3432365000001,33.552033999999935" fill="none" stroke="rgb(0,133,178)" stroke-width="0.1"/>
  <path d="M 49.3432365000001,33.552033999999935 L 24.734236500000065,29.147033999999962" fill="none" stroke="rgb(0,133,178)" stroke-width="0.1"/>
  <path d="M 24.734236500000065,29.147033999999962 L 22.092236500000013,43.91203399999995" fill="none" stroke="rgb(0,133,178)" stroke-width="0.1"/>
 </g>
 <g id="layerSTAIR" inkscape:groupmode="layer" inkscape:label="STAIR">
  <path d="M 38.5685347216089,100.0 L 50.59723650000001,32.79003399999999" fill="none" stroke="rgb(178,88,0)" stroke-width="0.1"/>
  <path d="M 75.13982432286491,100.0 L 86.03223650000007,39.132033999999976" fill="none" stroke="rgb(178,88,0)" stroke-width="0.1"/>
  <path d="M 45.845236500000055,59.340033999999946 L 81.28223650000007,65.68203399999993" fill="none" stroke="rgb(178,88,0)" stroke-width="0.1"/>
  <path d="M 81.28223650000007,65.68203399999993 L 81.77936187222372,65.76733459082345" fill="none" stroke="rgb(178,88,0)" stroke-width="0.1"/>
  <path d="M 81.77936187222372,65.76733459082345 L 82.27766487100484,65.84546235739208" fill="none" stroke="rgb(178,88,0)" stroke-width="0.1"/>
  <path d="M 82.27766487100484,65.84546235739208 L 82.77704200803385,65.91640107401486" fill="none" stroke="rgb(178,88,0)" stroke-width="0.1"/>
  <path d="M 82.77704200803385,65.91640107401486 L 83.27738957192207,65.98013600803347" fill="none" stroke="rgb(178,88,0)" stroke-width="0.1"/>
  <path d="M 83.27738957192207,65.98013600803347 L 83.77860364974163,66.03665392288156" fill="none" stroke="rgb(178,88,0)" stroke-width="0.1"/>
  <path d="M 83.77860364974163,66.03665392288156 L 84.28058014860551,66.08594308083445" fill="none" stroke="rgb(178,88,0)" stroke-width="0.1"/>
  <path d="M 84.28058014860551,66.08594308083445 L 84.78321481728585,66.1279932454463" fill="none" stroke="rgb(178,88,0)" stroke-width="0.1"/>
  <path d="M 84.78321481728585,66.1279932454463 L 85.28640326786535,66.16279568367622" fill="none" stroke="rgb(178,88,0)" stroke-width="0.1"/>
  <path d="M 85.28640326786535,66.16279568367622 L 85.79004099741621,66.19034316770194" fill="none" stroke="rgb(178,88,0)" stroke-width="0.1"/>
  <path d="M 85.79004099741621,66.19034316770194 L 86.29402340970387,66.21062997642093" fill="none" stroke="rgb(178,88,0)" stroke-width="0.1"/>
  <path d="M 86.29402340970387,66.21062997642093 L 86.79824583690947,66.22365189663844" fill="none" stroke="rgb(178,88,0)" stroke-width="0.1"/>
  <path d="M 86.79824583690947,66.22365189663844 L 87.30260356136762,66.22940622394276" fill="none" stroke="rgb(178,88,0)" stroke-width="0.1"/>
  <path d="M 87.30260356136762,66.22940622394276 L 87.80699183731406,66.2278917632666" fill="none" stroke="rgb(178,88,0)" stroke-width="0.1"/>
  <path d="M 87.80699183731406,66.2278917632666 L 88.31130591263945,66.21910882913528" fill="none" stroke="rgb(178,88,0)" stroke-width="0.1"/>
  <path d="M 88.31130591263945,66.21910882913528 L 88.81544105064484,66.20305924560182" fill="none" stroke="rgb(178,88,0)" stroke-width="0.1"/>
  <path d="M 88.81544105064484,66.20305924560182 L 89.31929255179296,66.17974634586756" fill="none" stroke="rgb(178,88,0)" stroke-width="0.1"/>
  <path d="M 89.31929255179296,66.17974634586756 L 89.82275577545295,66.14917497159024" fill="none" stroke="rgb(178,88,0)" stroke-width="0.1"/>
  <path d="M 89.82275577545295,66.14917497159024 L 90.32572616163179,66.1113514718786" fill="none" stroke="rgb(178,88,0)" stroke-width="0.1"/>
  <path d="M 90.32572616163179,66.1113514718786 L 90.82809925268964,66.06628370197336" fill="none" stroke="rgb(178,88,0)" stroke-width="0.1"/>
  <path d="M 90.82809925268964,66.06628370197336 L 91.3297707150341,66.01398102161613" fill="none" stroke="rgb(178,88,0)" stroke-width="0.1"/>
  <path d="M 91.3297707150341,66.01398102161613 L 91.8306363607876,65.95445429310564" fill="none" stroke="rgb(178,88,0)" stroke-width="0.1"/>
  <path d="M 91.8306363607876,65.95445429310564 L 92.33059216942627,65.8877158790416" fill="none" stroke="rgb(178,88,0)" stroke-width="0.1"/>
  <path d="M 92.33059216942627,65.8877158790416 L 92.82953430938221,65.8137796397574" fill="none" stroke="rgb(178,88,0)" stroke-width="0.1"/>
  <path d="M 92.82953430938221,65.8137796397574 L 93.32735915960791,65.73266093044128" fill="none" stroke="rgb(178,88,0)" stroke-width="0.1"/>
  <path d="M 93.32735915960791,65.73266093044128 L 93.82396333109614,65.64437659794794" fill="none" stroke="rgb(178,88,0)" stroke-width="0.1"/>
  <path d="M 93.82396333109614,65.64437659794794 L 94.31924368835212,65.54894497729913" fill="none" stroke="rgb(178,88,0)" stroke-width="0.1"/>
  <path d="M 94.31924368835212,65.54894497729913 L 94.81309737081278,65.44638588787598" fill="none" stroke="rgb(178,88,0)" stroke-width="0.1"/>
  <path d="M 94.81309737081278,65.44638588787598 L 95.30542181420913,65.33672062930327" fill="none" stroke="rgb(178,88,0)" stroke-width="0.1"/>
  <path d="M 95.30542181420913,65.33672062930327 L 95.79611477186654,65.21997197702535" fill="none" stroke="rgb(178,88,0)" stroke-width="0.1"/>
  <path d="M 95.79611477186654,65.21997197702535 L 96.28507433593995,65.09616417757638" fill="none" stroke="rgb(178,88,0)" stroke-width="0.1"/>
  <path d="M 96.28507433593995,65.09616417757638 L 96.7721989585782,64.96532294354483" fill="none" stroke="rgb(178,88,0)" stroke-width="0.1"/>
  <path d="M 96.7721989585782,64.96532294354483 L 97.25738747301318,64.82747544823326" fill="none" stroke="rgb(178,88,0)" stroke-width="0.1"/>
  <path d="M 97.25738747301318,64.82747544823326 L 97.74053911457077,64.68265032001489" fill="none" stroke="rgb(178,88,0)" stroke-width="0.1"/>
  <path d="M 97.74053911457077,64.68265032001489 L 98.22155354159781,64.53087763638837" fill="none" stroke="rgb(178,88,0)" stroke-width="0.1"/>
  <path d="M 98.22155354159781,64.53087763638837 L 98.70033085630075,64.37218891773091" fill="none" stroke="rgb(178,88,0)" stroke-width="0.1"/>
  <path d="M 98.70033085630075,64.37218891773091 L 99.17677162549307,64.20661712075241" fill="none" stroke="rgb(178,88,0)" stroke-width="0.1"/>
  <path d="M 99.17677162549307,64.20661712075241 L 99.65077690124554,64.03419663165016" fill="none" stroke="rgb(178,88,0)" stroke-width="0.1"/>
 </g>
 <g id="layerWALL" inkscape:groupmode="layer" inkscape:label="WALL">
  <path d="M 91.75601351475632,0.0 L 97.92223650000005,1.1030339999999796" fill="none" instance-id="-1" semantic-id="1" stroke="rgb(178,178,0)" stroke-width="0.1"/>
  <path d="M 97.92223650000005,1.1030339999999796 L 98.11830653555114,0.0" fill="none" instance-id="-1" semantic-id="1" stroke="rgb(178,178,0)" stroke-width="0.1"/>
 </g>
 <g id="layers-消火栓" inkscape:groupmode="layer" inkscape:label="s-消火栓">
  <path d="M 18.512236500000085,27.01903399999992 L 18.089236500000084,29.381034" fill="none" stroke="rgb(178,88,0)" stroke-width="0.1"/>
  <path d="M 11.199236500000097,28.14803399999994 L 11.6222365000001,25.785033999999996" fill="none" stroke="rgb(178,88,0)" stroke-width="0.1"/>
  <path d="M 11.6222365000001,25.785033999999996 L 18.512236500000085,27.01903399999992" fill="none" stroke="rgb(178,88,0)" stroke-width="0.1"/>
  <path d="M 11.6222365000001,25.785033999999996 L 18.089236500000084,29.381034" fill="none" stroke="rgb(178,88,0)" stroke-width="0.1"/>
  <path d="M 18.089236500000084,29.381034 L 11.199236500000097,28.14803399999994" fill="none" stroke="rgb(178,88,0)" stroke-width="0.1"/>
  <circle cx="9.638236500000062" cy="26.65003399999989" fill="none" r="0.5" stroke="rgb(178,178,0)" stroke-width="0.1"/>
 </g>
 <g id="layer建-门窗-编号" inkscape:groupmode="layer" inkscape:label="建-门窗-编号">
  <text fill="rgb(0,0,0)" font-family="Noto Sans CJK SC" font-size="2" transform="rotate(-79.8529,90.54223650000006,34.899033999999915)" x="90.54223650000006" y="34.899033999999915">
   HM0820
  </text>
  <text fill="rgb(0,0,0)" font-family="Noto Sans CJK SC" font-size="2" transform="rotate(-79.8529,58.23523650000004,23.50103399999989)" x="58.23523650000004" y="23.50103399999989">
   HFM0820(6)
  </text>
 </g>
</svg>