<?xml version="1.0" encoding="utf-8"?>
<svg style="background-color: #000;" version="1.1" viewBox="0 0 100.0 100.0" xmlns="http://www.w3.org/2000/svg" xmlns:inkscape="http://www.inkscape.org/namespaces/inkscape">
 <g id="layer0-结构边线" inkscape:groupmode="layer" inkscape:label="0-结构边线">
  <path d="M 66.24867750000021,33.28053699999998 L 73.67867750000005,30.330536999999993" fill="none" stroke="rgb(178,0,178)" stroke-width="0.1"/>
  <path d="M 73.67867750000005,30.330536999999993 L 70.72867750000023,22.894536999999957" fill="none" stroke="rgb(178,0,178)" stroke-width="0.1"/>
  <path d="M 63.29867750000017,25.844536999999946 L 70.72867750000023,22.894536999999957" fill="none" stroke="rgb(178,0,178)" stroke-width="0.1"/>
  <path d="M 66.24867750000021,33.28053699999998 L 63.29867750000017,25.844536999999946" fill="none" stroke="rgb(178,0,178)" stroke-width="0.1"/>
  <path d="M 100.0,91.97023036357535 L 93.06867750000015,94.71853699999997" fill="none" stroke="rgb(178,0,178)" stroke-width="0.1"/>
  <path d="M 95.16393245562153,100.0 L 93.06867750000015,94.71853699999997" fill="none" stroke="rgb(178,0,178)" stroke-width="0.1"/>
  <path d="M 13.288677500000176,80.10753699999998 L 16.23867750000022,87.54353699999996" fill="none" stroke="rgb(178,0,178)" stroke-width="0.1"/>
  <path d="M 16.23867750000022,87.54353699999996 L 23.67867750000005,84.59353699999997" fill="none" stroke="rgb(178,0,178)" stroke-width="0.1"/>
  <path d="M 20.72867750000023,77.15753699999999 L 23.67867750000005,84.59353699999997" fill="none" stroke="rgb(178,0,178)" stroke-width="0.1"/>
  <path d="M 13.288677500000176,80.10753699999998 L 20.72867750000023,77.15753699999999" fill="none" stroke="rgb(178,0,178)" stroke-width="0.1"/>
 </g>
 <g id="layerA-留洞" inkscape:groupmode="layer" inkscape:label="A-留洞">
  <path d="M 4.338677500000131,85.81353699999994 L 8.058677500000158,84.33853699999997" fill="none" stroke="rgb(0,178,178)" stroke-width="0.1"/>
  <path d="M 8.058677500000158,84.33853699999997 L 14.270811193811824,100.0" fill="none" stroke="rgb(0,178,178)" stroke-width="0.1"/>
  <path d="M 13.955046661575352,100.0 L 9.068677500000149,89.18653699999999" fill="none" stroke="rgb(0,178,178)" stroke-width="0.1"/>
  <path d="M 9.068677500000149,89.18653699999999 L 4.338677500000131,85.81353699999994" fill="none" stroke="rgb(0,178,178)" stroke-width="0.1"/>
  <path d="M 4.338677500000131,85.81353699999994 L 9.96575108810066,100.0" fill="none" stroke="rgb(0,178,178)" stroke-width="0.1"/>
  <path d="M 27.667834181011358,99.67726025982063 L 27.42524059384209,99.23275432811948" fill="none" stroke="rgb(0,178,178)" stroke-width="0.1"/>
  <path d="M 27.42524059384209,99.23275432811948 L 27.181493486474892,98.78887988697284" fill="none" stroke="rgb(0,178,178)" stroke-width="0.1"/>
  <path d="M 27.181493486474892,98.78887988697284 L 26.93659450271798,98.34563992982987" fill="none" stroke="rgb(0,178,178)" stroke-width="0.1"/>
  <path d="M 26.93659450271798,98.34563992982987 L 26.69054529414825,97.90303744586112" fill="none" stroke="rgb(0,178,178)" stroke-width="0.1"/>
  <path d="M 26.69054529414825,97.90303744586112 L 26.44334752009945,97.46107541993757" fill="none" stroke="rgb(0,178,178)" stroke-width="0.1"/>
  <path d="M 26.44334752009945,97.46107541993757 L 26.195002847650812,97.01975683261145" fill="none" stroke="rgb(0,178,178)" stroke-width="0.1"/>
  <path d="M 26.195002847650812,97.01975683261145 L 25.945512951616365,96.57908466009548" fill="none" stroke="rgb(0,178,178)" stroke-width="0.1"/>
  <path d="M 25.945512951616365,96.57908466009548 L 25.694879514533795,96.13906187424305" fill="none" stroke="rgb(0,178,178)" stroke-width="0.1"/>
  <path d="M 25.694879514533795,96.13906187424305 L 25.443104226652395,95.69969144252815" fill="none" stroke="rgb(0,178,178)" stroke-width="0.1"/>
  <path d="M 25.443104226652395,95.69969144252815 L 25.19018878592169,95.26097632802538" fill="none" stroke="rgb(0,178,178)" stroke-width="0.1"/>
  <path d="M 25.19018878592169,95.26097632802538 L 24.936134897980764,94.82291948938996" fill="none" stroke="rgb(0,178,178)" stroke-width="0.1"/>
  <path d="M 24.936134897980764,94.82291948938996 L 24.68094427614642,94.38552388083758" fill="none" stroke="rgb(0,178,178)" stroke-width="0.1"/>
  <path d="M 24.68094427614642,94.38552388083758 L 24.424618641400684,93.9487924521249" fill="none" stroke="rgb(0,178,178)" stroke-width="0.1"/>
  <path d="M 24.424618641400684,93.9487924521249 L 24.167159722380802,93.51272814852933" fill="none" stroke="rgb(0,178,178)" stroke-width="0.1"/>
  <path d="M 24.167159722380802,93.51272814852933 L 23.9085692553665,93.07733391082911" fill="none" stroke="rgb(0,178,178)" stroke-width="0.1"/>
  <path d="M 23.9085692553665,93.07733391082911 L 23.648848984268625,92.64261267528383" fill="none" stroke="rgb(0,178,178)" stroke-width="0.1"/>
  <path d="M 23.648848984268625,92.64261267528383 L 23.38800066061731,92.2085673736143" fill="none" stroke="rgb(0,178,178)" stroke-width="0.1"/>
  <path d="M 23.38800066061731,92.2085673736143 L 23.126026043550155,91.77520093298278" fill="none" stroke="rgb(0,178,178)" stroke-width="0.1"/>
  <path d="M 23.126026043550155,91.77520093298278 L 22.86292689979996,91.3425162759736" fill="none" stroke="rgb(0,178,178)" stroke-width="0.1"/>
  <path d="M 22.86292689979996,91.3425162759736 L 22.598705003684017,90.9105163205731" fill="none" stroke="rgb(0,178,178)" stroke-width="0.1"/>
  <path d="M 22.598705003684017,90.9105163205731 L 22.333362137090944,90.47920398014992" fill="none" stroke="rgb(0,178,178)" stroke-width="0.1"/>
  <path d="M 22.333362137090944,90.47920398014992 L 22.066900089469073,90.0485821634357" fill="none" stroke="rgb(0,178,178)" stroke-width="0.1"/>
  <path d="M 22.066900089469073,90.0485821634357 L 21.799320657814178,89.61865377450505" fill="none" stroke="rgb(0,178,178)" stroke-width="0.1"/>
  <path d="M 21.799320657814178,89.61865377450505 L 21.530625646658336,89.18942171275637" fill="none" stroke="rgb(0,178,178)" stroke-width="0.1"/>
  <path d="M 21.530625646658336,89.18942171275637 L 21.260816868055826,88.76088887289188" fill="none" stroke="rgb(0,178,178)" stroke-width="0.1"/>
  <path d="M 21.260816868055826,88.76088887289188 L 20.989896141573354,88.33305814489853" fill="none" stroke="rgb(0,178,178)" stroke-width="0.1"/>
  <path d="M 20.989896141573354,88.33305814489853 L 20.717865294275725,87.90593241402809" fill="none" stroke="rgb(0,178,178)" stroke-width="0.1"/>
  <path d="M 20.717865294275725,87.90593241402809 L 20.444726160714026,87.47951456077806" fill="none" stroke="rgb(0,178,178)" stroke-width="0.1"/>
  <path d="M 20.444726160714026,87.47951456077806 L 20.17048058291448,87.0538074608719" fill="none" stroke="rgb(0,178,178)" stroke-width="0.1"/>
  <path d="M 20.17048058291448,87.0538074608719 L 19.895130410364118,86.62881398523996" fill="none" stroke="rgb(0,178,178)" stroke-width="0.1"/>
  <path d="M 19.895130410364118,86.62881398523996 L 19.618677500000103,86.20453699999996" fill="none" stroke="rgb(0,178,178)" stroke-width="0.1"/>
  <path d="M 19.618677500000103,86.20453699999996 L 16.23867750000022,87.54353699999996" fill="none" stroke="rgb(0,178,178)" stroke-width="0.1"/>
  <path d="M 16.23867750000022,87.54353699999996 L 14.028677500000185,81.96653699999996" fill="none" stroke="rgb(0,178,178)" stroke-width="0.1"/>
  <path d="M 14.028677500000185,81.96653699999996 L 13.658677500000067,85.22653699999995" fill="none" stroke="rgb(0,178,178)" stroke-width="0.1"/>
  <path d="M 13.658677500000067,85.22653699999995 L 17.203590662903707,100.0" fill="none" stroke="rgb(0,178,178)" stroke-width="0.1"/>
  <path d="M 16.42332771467659,100.0 L 9.918677500000058,83.59953699999994" fill="none" stroke="rgb(0,178,178)" stroke-width="0.1"/>
  <path d="M 9.918677500000058,83.59953699999994 L 14.028677500000185,81.96653699999996" fill="none" stroke="rgb(0,178,178)" stroke-width="0.1"/>
 </g>
 <g id="layerA-车位" inkscape:groupmode="layer" inkscape:label="A-车位">
  <path d="M 93.63867750000009,91.26453699999996 L 71.62236092901003,100.0" fill="none" instance-id="-1" semantic-id="35" stroke="rgb(0,0,178)" stroke-width="0.1"/>
  <path d="M 40.09052462672025,100.0 L 35.528677500000185,88.50053699999995" fill="none" instance-id="-1" semantic-id="35" stroke="rgb(0,0,178)" stroke-width="0.1"/>
  <path d="M 35.528677500000185,88.50053699999995 L 84.78867750000018,68.95653699999997" fill="none" instance-id="-1" semantic-id="35" stroke="rgb(0,0,178)" stroke-width="0.1"/>
  <path d="M 46.20867750000002,86.95253699999995 L 48.04867750000017,91.60053699999997" fill="none" instance-id="-1" semantic-id="35" stroke="rgb(0,0,178)" stroke-width="0.1"/>
  <path d="M 51.3686775000001,99.96553699999998 L 51.38239448580043,100.0" fill="none" instance-id="-1" semantic-id="35" stroke="rgb(0,0,178)" stroke-width="0.1"/>
  <path d="M 46.66867750000006,86.76853699999998 L 48.518677500000194,91.41553699999997" fill="none" instance-id="-1" semantic-id="35" stroke="rgb(0,0,178)" stroke-width="0.1"/>
  <path d="M 51.83867750000013,99.78153699999996 L 51.92517888153657,100.0" fill="none" instance-id="-1" semantic-id="35" stroke="rgb(0,0,178)" stroke-width="0.1"/>
  <path d="M 45.278677500000185,87.32153699999998 L 47.1186775000001,91.96853699999997" fill="none" instance-id="-1" semantic-id="35" stroke="rgb(0,0,178)" stroke-width="0.1"/>
  <path d="M 45.278677500000185,87.32153699999998 L 46.66867750000006,86.76853699999998" fill="none" instance-id="-1" semantic-id="35" stroke="rgb(0,0,178)" stroke-width="0.1"/>
  <path d="M 48.518677500000194,91.41553699999997 L 47.1186775000001,91.96853699999997" fill="none" instance-id="-1" semantic-id="35" stroke="rgb(0,0,178)" stroke-width="0.1"/>
  <path d="M 51.83867750000013,99.78153699999996 L 51.285606613924074,100.0" fill="none" instance-id="-1" semantic-id="35" stroke="rgb(0,0,178)" stroke-width="0.1"/>
  <path d="M 58.8686775000001,14.689536999999973 L 78.41867750000006,63.95453699999996" fill="none" instance-id="-1" semantic-id="35" stroke="rgb(0,0,178)" stroke-width="0.1"/>
  <path d="M 78.41867750000006,63.95453699999996 L 56.10867750000011,72.80553699999996" fill="none" instance-id="-1" semantic-id="35" stroke="rgb(0,0,178)" stroke-width="0.1"/>
  <path d="M 56.10867750000011,72.80553699999996 L 36.55867750000016,23.540536999999972" fill="none" instance-id="-1" semantic-id="35" stroke="rgb(0,0,178)" stroke-width="0.1"/>
  <path d="M 54.55867750000016,62.12353699999994 L 59.20867750000002,60.27953699999995" fill="none" instance-id="-1" semantic-id="35" stroke="rgb(0,0,178)" stroke-width="0.1"/>
  <path d="M 67.56867750000015,56.96053699999999 L 72.21867750000001,55.116536999999994" fill="none" instance-id="-1" semantic-id="35" stroke="rgb(0,0,178)" stroke-width="0.1"/>
  <path d="M 54.3686775000001,61.65853699999997 L 59.018677500000194,59.81453699999997" fill="none" instance-id="-1" semantic-id="35" stroke="rgb(0,0,178)" stroke-width="0.1"/>
  <path d="M 67.38867750000009,56.495536999999956 L 72.02867750000019,54.65153699999996" fill="none" instance-id="-1" semantic-id="35" stroke="rgb(0,0,178)" stroke-width="0.1"/>
  <path d="M 54.92867750000005,63.05253699999997 L 59.56867750000015,61.20853699999998" fill="none" instance-id="-1" semantic-id="35" stroke="rgb(0,0,178)" stroke-width="0.1"/>
  <path d="M 67.93867750000004,57.88953699999996 L 72.58867750000013,56.046536999999944" fill="none" instance-id="-1" semantic-id="35" stroke="rgb(0,0,178)" stroke-width="0.1"/>
  <path d="M 54.92867750000005,63.05253699999997 L 54.3686775000001,61.65853699999997" fill="none" instance-id="-1" semantic-id="35" stroke="rgb(0,0,178)" stroke-width="0.1"/>
  <path d="M 72.58867750000013,56.046536999999944 L 72.02867750000019,54.65153699999996" fill="none" instance-id="-1" semantic-id="35" stroke="rgb(0,0,178)" stroke-width="0.1"/>
  <path d="M 59.018677500000194,59.81453699999997 L 59.56867750000015,61.20853699999998" fill="none" instance-id="-1" semantic-id="35" stroke="rgb(0,0,178)" stroke-width="0.1"/>
  <path d="M 67.38867750000009,56.495536999999956 L 67.93867750000004,57.88953699999996" fill="none" instance-id="-1" semantic-id="35" stroke="rgb(0,0,178)" stroke-width="0.1"/>
  <path d="M 0.0,95.06256774294042 L 1.3386775000001307,94.53153699999996" fill="none" instance-id="-1" semantic-id="35" stroke="rgb(0,0,178)" stroke-width="0.1"/>
  <path d="M 1.3386775000001307,94.53153699999996 L 0.0,91.15641176778365" fill="none" instance-id="-1" semantic-id="35" stroke="rgb(0,0,178)" stroke-width="0.1"/>
  <path d="M 36.55867750000016,23.540536999999972 L 56.10867750000011,72.80553699999996" fill="none" instance-id="-1" semantic-id="35" stroke="rgb(0,0,178)" stroke-width="0.1"/>
  <path d="M 56.10867750000011,72.80553699999996 L 33.79867750000017,81.65553699999998" fill="none" instance-id="-1" semantic-id="35" stroke="rgb(0,0,178)" stroke-width="0.1"/>
  <path d="M 33.79867750000017,81.65553699999998 L 14.248677500000213,32.390536999999995" fill="none" instance-id="-1" semantic-id="35" stroke="rgb(0,0,178)" stroke-width="0.1"/>
  <path d="M 32.24867750000021,70.97353699999996 L 36.898677500000076,69.12953699999997" fill="none" instance-id="-1" semantic-id="35" stroke="rgb(0,0,178)" stroke-width="0.1"/>
  <path d="M 45.2586775000002,65.81053699999995 L 49.90867750000007,63.96653699999996" fill="none" instance-id="-1" semantic-id="35" stroke="rgb(0,0,178)" stroke-width="0.1"/>
  <path d="M 32.06867750000015,70.50853699999999 L 36.70867750000002,68.66453699999994" fill="none" instance-id="-1" semantic-id="35" stroke="rgb(0,0,178)" stroke-width="0.1"/>
  <path d="M 45.07867750000014,65.34653699999996 L 49.72867750000023,63.50253699999996" fill="none" instance-id="-1" semantic-id="35" stroke="rgb(0,0,178)" stroke-width="0.1"/>
  <path d="M 32.6186775000001,71.90353699999997 L 37.268677500000194,70.05953699999998" fill="none" instance-id="-1" semantic-id="35" stroke="rgb(0,0,178)" stroke-width="0.1"/>
  <path d="M 45.628677500000094,66.74053699999996 L 50.278677500000185,64.89653699999997" fill="none" instance-id="-1" semantic-id="35" stroke="rgb(0,0,178)" stroke-width="0.1"/>
  <path d="M 32.6186775000001,71.90353699999997 L 32.06867750000015,70.50853699999999" fill="none" instance-id="-1" semantic-id="35" stroke="rgb(0,0,178)" stroke-width="0.1"/>
  <path d="M 50.278677500000185,64.89653699999997 L 49.72867750000023,63.50253699999996" fill="none" instance-id="-1" semantic-id="35" stroke="rgb(0,0,178)" stroke-width="0.1"/>
  <path d="M 36.70867750000002,68.66453699999994 L 37.268677500000194,70.05953699999998" fill="none" instance-id="-1" semantic-id="35" stroke="rgb(0,0,178)" stroke-width="0.1"/>
  <path d="M 45.07867750000014,65.34653699999996 L 45.628677500000094,66.74053699999996" fill="none" instance-id="-1" semantic-id="35" stroke="rgb(0,0,178)" stroke-width="0.1"/>
 </g>
 <g id="layerA-车位-lx" inkscape:groupmode="layer" inkscape:label="A-车位-lx">
  <path d="M 0.0,15.460170274470556 L 32.648677500000076,2.50853699999999" fill="none" stroke="rgb(0,178,0)" stroke-width="0.1"/>
  <path d="M 99.86655553577134,18.70808389764278 L 99.534361760004,18.332694895137365" fill="none" stroke="rgb(0,178,0)" stroke-width="0.1"/>
  <path d="M 99.534361760004,18.332694895137365 L 99.19904342977316,17.960094270779507" fill="none" stroke="rgb(0,178,0)" stroke-width="0.1"/>
  <path d="M 99.19904342977316,17.960094270779507 L 98.8606239493306,17.590308031017116" fill="none" stroke="rgb(0,178,0)" stroke-width="0.1"/>
  <path d="M 98.8606239493306,17.590308031017116 L 98.51912693937902,17.223361985862198" fill="none" stroke="rgb(0,178,0)" stroke-width="0.1"/>
  <path d="M 98.51912693937902,17.223361985862198 L 98.17457623542396,16.859281747089597" fill="none" stroke="rgb(0,178,0)" stroke-width="0.1"/>
  <path d="M 98.17457623542396,16.859281747089597 L 97.8269958861099,16.498092726448874" fill="none" stroke="rgb(0,178,0)" stroke-width="0.1"/>
  <path d="M 97.8269958861099,16.498092726448874 L 97.47641015154181,16.13982013389102" fill="none" stroke="rgb(0,178,0)" stroke-width="0.1"/>
  <path d="M 97.47641015154181,16.13982013389102 L 97.12284350159234,15.784488975808813" fill="none" stroke="rgb(0,178,0)" stroke-width="0.1"/>
  <path d="M 97.12284350159234,15.784488975808813 L 96.76632061419241,15.432124053291375" fill="none" stroke="rgb(0,178,0)" stroke-width="0.1"/>
  <path d="M 96.76632061419241,15.432124053291375 L 96.40686637361068,15.082749960393073" fill="none" stroke="rgb(0,178,0)" stroke-width="0.1"/>
  <path d="M 96.40686637361068,15.082749960393073 L 96.04450586871553,14.736391082417072" fill="none" stroke="rgb(0,178,0)" stroke-width="0.1"/>
  <path d="M 96.04450586871553,14.736391082417072 L 95.67926439122425,14.393071594213154" fill="none" stroke="rgb(0,178,0)" stroke-width="0.1"/>
  <path d="M 95.67926439122425,14.393071594213154 L 95.31116743393727,14.05281545849067" fill="none" stroke="rgb(0,178,0)" stroke-width="0.1"/>
  <path d="M 95.31116743393727,14.05281545849067 L 94.9402406889601,13.715646424145518" fill="none" stroke="rgb(0,178,0)" stroke-width="0.1"/>
  <path d="M 94.9402406889601,13.715646424145518 L 94.56651004590844,13.381588024603161" fill="none" stroke="rgb(0,178,0)" stroke-width="0.1"/>
  <path d="M 94.56651004590844,13.381588024603161 L 94.19000159010238,13.050663576175339" fill="none" stroke="rgb(0,178,0)" stroke-width="0.1"/>
  <path d="M 94.19000159010238,13.050663576175339 L 93.81074160074536,12.722896176433494" fill="none" stroke="rgb(0,178,0)" stroke-width="0.1"/>
  <path d="M 93.81074160074536,12.722896176433494 L 93.42875654908971,12.398308702595841" fill="none" stroke="rgb(0,178,0)" stroke-width="0.1"/>
  <path d="M 93.42875654908971,12.398308702595841 L 93.0440730965895,12.076923809931088" fill="none" stroke="rgb(0,178,0)" stroke-width="0.1"/>
  <path d="M 93.0440730965895,12.076923809931088 L 92.65671809303899,11.758763930176997" fill="none" stroke="rgb(0,178,0)" stroke-width="0.1"/>
  <path d="M 92.65671809303899,11.758763930176997 L 92.26671857469955,11.443851269974687" fill="none" stroke="rgb(0,178,0)" stroke-width="0.1"/>
  <path d="M 92.26671857469955,11.443851269974687 L 91.87410176241178,11.132207809318857" fill="none" stroke="rgb(0,178,0)" stroke-width="0.1"/>
  <path d="M 91.87410176241178,11.132207809318857 L 91.47889505969533,10.823855300023467" fill="none" stroke="rgb(0,178,0)" stroke-width="0.1"/>
  <path d="M 91.47889505969533,10.823855300023467 L 91.08112605083784,10.518815264203454" fill="none" stroke="rgb(0,178,0)" stroke-width="0.1"/>
  <path d="M 91.08112605083784,10.518815264203454 L 90.68082249896725,10.217108992772808" fill="none" stroke="rgb(0,178,0)" stroke-width="0.1"/>
  <path d="M 90.68082249896725,10.217108992772808 L 90.2780123441164,9.918757543958293" fill="none" stroke="rgb(0,178,0)" stroke-width="0.1"/>
  <path d="M 90.2780123441164,9.918757543958293 L 89.8727237012713,9.623781741829816" fill="none" stroke="rgb(0,178,0)" stroke-width="0.1"/>
  <path d="M 89.8727237012713,9.623781741829816 L 89.46498485840903,9.332202174846884" fill="none" stroke="rgb(0,178,0)" stroke-width="0.1"/>
  <path d="M 89.46498485840903,9.332202174846884 L 89.05482427452375,9.044039194421543" fill="none" stroke="rgb(0,178,0)" stroke-width="0.1"/>
  <path d="M 89.05482427452375,9.044039194421543 L 88.64227057764037,8.759312913497979" fill="none" stroke="rgb(0,178,0)" stroke-width="0.1"/>
  <path d="M 88.64227057764037,8.759312913497979 L 88.22735256281612,8.478043205148651" fill="none" stroke="rgb(0,178,0)" stroke-width="0.1"/>
  <path d="M 88.22735256281612,8.478043205148651 L 87.81009919013059,8.200249701187317" fill="none" stroke="rgb(0,178,0)" stroke-width="0.1"/>
  <path d="M 87.81009919013059,8.200249701187317 L 87.39053958266436,7.925951790798592" fill="none" stroke="rgb(0,178,0)" stroke-width="0.1"/>
  <path d="M 87.39053958266436,7.925951790798592 L 86.96870302446746,7.655168619184849" fill="none" stroke="rgb(0,178,0)" stroke-width="0.1"/>
  <path d="M 86.96870302446746,7.655168619184849 L 86.54461895851364,7.387919086229829" fill="none" stroke="rgb(0,178,0)" stroke-width="0.1"/>
  <path d="M 86.54461895851364,7.387919086229829 L 86.11831698464653,7.124221845179363" fill="none" stroke="rgb(0,178,0)" stroke-width="0.1"/>
  <path d="M 86.11831698464653,7.124221845179363 L 85.68982685751325,6.86409530133966" fill="none" stroke="rgb(0,178,0)" stroke-width="0.1"/>
  <path d="M 85.68982685751325,6.86409530133966 L 85.25917848448762,6.607557610792696" fill="none" stroke="rgb(0,178,0)" stroke-width="0.1"/>
  <path d="M 85.25917848448762,6.607557610792696 L 84.82640192358349,6.354626679128614" fill="none" stroke="rgb(0,178,0)" stroke-width="0.1"/>
  <path d="M 84.82640192358349,6.354626679128614 L 84.39152738135476,6.1053201601963565" fill="none" stroke="rgb(0,178,0)" stroke-width="0.1"/>
  <path d="M 84.39152738135476,6.1053201601963565 L 83.95458521078967,5.859655454871188" fill="none" stroke="rgb(0,178,0)" stroke-width="0.1"/>
  <path d="M 83.95458521078967,5.859655454871188 L 83.51560590919007,5.617649709840521" fill="none" stroke="rgb(0,178,0)" stroke-width="0.1"/>
  <path d="M 83.51560590919007,5.617649709840521 L 83.07462011604434,5.379319816406621" fill="none" stroke="rgb(0,178,0)" stroke-width="0.1"/>
  <path d="M 83.07462011604434,5.379319816406621 L 82.6316586108876,5.144682409308189" fill="none" stroke="rgb(0,178,0)" stroke-width="0.1"/>
  <path d="M 82.6316586108876,5.144682409308189 L 82.18675231115412,4.9137538655587605" fill="none" stroke="rgb(0,178,0)" stroke-width="0.1"/>
  <path d="M 82.18675231115412,4.9137538655587605 L 81.73993227001961,4.686550303304216" fill="none" stroke="rgb(0,178,0)" stroke-width="0.1"/>
  <path d="M 81.73993227001961,4.686550303304216 L 81.29122967423291,4.46308758069722" fill="none" stroke="rgb(0,178,0)" stroke-width="0.1"/>
  <path d="M 81.29122967423291,4.46308758069722 L 80.84067584193986,4.243381294790822" fill="none" stroke="rgb(0,178,0)" stroke-width="0.1"/>
  <path d="M 80.84067584193986,4.243381294790822 L 80.38830222049751,4.027446780449509" fill="none" stroke="rgb(0,178,0)" stroke-width="0.1"/>
  <path d="M 80.38830222049751,4.027446780449509 L 79.93414038427886,3.815299109279067" fill="none" stroke="rgb(0,178,0)" stroke-width="0.1"/>
  <path d="M 79.93414038427886,3.815299109279067 L 79.4782220324687,3.606953088574471" fill="none" stroke="rgb(0,178,0)" stroke-width="0.1"/>
  <path d="M 79.4782220324687,3.606953088574471 L 79.02057898685212,3.4024232602865823" fill="none" stroke="rgb(0,178,0)" stroke-width="0.1"/>
  <path d="M 79.02057898685212,3.4024232602865823 L 78.56124318959269,3.201723900006982" fill="none" stroke="rgb(0,178,0)" stroke-width="0.1"/>
  <path d="M 78.56124318959269,3.201723900006982 L 78.10024670100279,3.0048690159717353" fill="none" stroke="rgb(0,178,0)" stroke-width="0.1"/>
  <path d="M 78.10024670100279,3.0048690159717353 L 77.63762169730694,2.811872348083341" fill="none" stroke="rgb(0,178,0)" stroke-width="0.1"/>
  <path d="M 77.63762169730694,2.811872348083341 L 77.17340046839468,2.6227473669522396" fill="none" stroke="rgb(0,178,0)" stroke-width="0.1"/>
  <path d="M 77.17340046839468,2.6227473669522396 L 76.70761541556772,2.4375072729560543" fill="none" stroke="rgb(0,178,0)" stroke-width="0.1"/>
  <path d="M 76.70761541556772,2.4375072729560543 L 76.24029904927829,2.2561649953186134" fill="none" stroke="rgb(0,178,0)" stroke-width="0.1"/>
  <path d="M 76.24029904927829,2.2561649953186134 L 75.77148398685972,2.0787331912075615" fill="none" stroke="rgb(0,178,0)" stroke-width="0.1"/>
  <path d="M 75.77148398685972,2.0787331912075615 L 75.30120295024994,1.9052242448504444" fill="none" stroke="rgb(0,178,0)" stroke-width="0.1"/>
  <path d="M 75.30120295024994,1.9052242448504444 L 74.82948876370801,1.735650266670973" fill="none" stroke="rgb(0,178,0)" stroke-width="0.1"/>
  <path d="M 74.82948876370801,1.735650266670973 L 74.35637435152216,1.5700230924432503" fill="none" stroke="rgb(0,178,0)" stroke-width="0.1"/>
  <path d="M 74.35637435152216,1.5700230924432503 L 73.88189273571265,1.4083542824659503" fill="none" stroke="rgb(0,178,0)" stroke-width="0.1"/>
  <path d="M 73.88189273571265,1.4083542824659503 L 73.40607703372666,1.2506551207553684" fill="none" stroke="rgb(0,178,0)" stroke-width="0.1"/>
  <path d="M 73.40607703372666,1.2506551207553684 L 72.92896045612656,1.0969366142576291" fill="none" stroke="rgb(0,178,0)" stroke-width="0.1"/>
  <path d="M 72.92896045612656,1.0969366142576291 L 72.45057630427232,0.9472094920808445" fill="none" stroke="rgb(0,178,0)" stroke-width="0.1"/>
  <path d="M 72.45057630427232,0.9472094920808445 L 71.97095796799658,0.8014842047459183" fill="none" stroke="rgb(0,178,0)" stroke-width="0.1"/>
  <path d="M 71.97095796799658,0.8014842047459183 L 71.49013892327503,0.659770923457188" fill="none" stroke="rgb(0,178,0)" stroke-width="0.1"/>
  <path d="M 71.49013892327503,0.659770923457188 L 71.0081527298887,0.5220795393926778" fill="none" stroke="rgb(0,178,0)" stroke-width="0.1"/>
  <path d="M 71.0081527298887,0.5220795393926778 L 70.52503302908258,0.3884196630134511" fill="none" stroke="rgb(0,178,0)" stroke-width="0.1"/>
  <path d="M 70.52503302908258,0.3884196630134511 L 70.04081354121718,0.2588006233930855" fill="none" stroke="rgb(0,178,0)" stroke-width="0.1"/>
  <path d="M 70.04081354121718,0.2588006233930855 L 69.55552806341507,0.13323146756636106" fill="none" stroke="rgb(0,178,0)" stroke-width="0.1"/>
  <path d="M 69.55552806341507,0.13323146756636106 L 69.06921046720163,0.01172095989790023" fill="none" stroke="rgb(0,178,0)" stroke-width="0.1"/>
  <path d="M 40.2792212888703,0.05813481301561296 L 39.79329800648361,0.18121272125011956" fill="none" stroke="rgb(0,178,0)" stroke-width="0.1"/>
  <path d="M 39.79329800648361,0.18121272125011956 L 39.30841992342903,0.30834592868990285" fill="none" stroke="rgb(0,178,0)" stroke-width="0.1"/>
  <path d="M 39.30841992342903,0.30834592868990285 L 38.82462088279681,0.4395255618039755" fill="none" stroke="rgb(0,178,0)" stroke-width="0.1"/>
  <path d="M 38.82462088279681,0.4395255618039755 L 38.34193465236331,0.5747424646327772" fill="none" stroke="rgb(0,178,0)" stroke-width="0.1"/>
  <path d="M 38.34193465236331,0.5747424646327772 L 37.86039492223426,0.7139871994266969" fill="none" stroke="rgb(0,178,0)" stroke-width="0.1"/>
  <path d="M 37.86039492223426,0.7139871994266969 L 37.380035302492615,0.8572500473052287" fill="none" stroke="rgb(0,178,0)" stroke-width="0.1"/>
  <path d="M 37.380035302492615,0.8572500473052287 L 36.90088932085314,1.0045210089351713" fill="none" stroke="rgb(0,178,0)" stroke-width="0.1"/>
  <path d="M 36.90088932085314,1.0045210089351713 L 36.422990420322094,1.155789805228494" fill="none" stroke="rgb(0,178,0)" stroke-width="0.1"/>
  <path d="M 36.422990420322094,1.155789805228494 L 35.946371956863686,1.3110458780599288" fill="none" stroke="rgb(0,178,0)" stroke-width="0.1"/>
  <path d="M 35.946371956863686,1.3110458780599288 L 35.47106719707017,1.4702783910037738" fill="none" stroke="rgb(0,178,0)" stroke-width="0.1"/>
  <path d="M 35.47106719707017,1.4702783910037738 L 34.99710931584218,1.6334762300902526" fill="none" stroke="rgb(0,178,0)" stroke-width="0.1"/>
  <path d="M 34.99710931584218,1.6334762300902526 L 34.524531394071346,1.8006280045813128" fill="none" stroke="rgb(0,178,0)" stroke-width="0.1"/>
  <path d="M 34.524531394071346,1.8006280045813128 L 34.053366416332665,1.9717220477655815" fill="none" stroke="rgb(0,178,0)" stroke-width="0.1"/>
  <path d="M 34.053366416332665,1.9717220477655815 L 33.583647268581444,2.1467464177727607" fill="none" stroke="rgb(0,178,0)" stroke-width="0.1"/>
  <path d="M 33.583647268581444,2.1467464177727607 L 33.11540673585796,2.3256888984071225" fill="none" stroke="rgb(0,178,0)" stroke-width="0.1"/>
  <path d="M 33.11540673585796,2.3256888984071225 L 32.648677500000076,2.50853699999999" fill="none" stroke="rgb(0,178,0)" stroke-width="0.1"/>
 </g>
 <g id="layerA-车位-text" inkscape:groupmode="layer" inkscape:label="A-车位-text">
  <text fill="rgb(178,88,0)" font-family="Noto Sans CJK SC" font-size="2" transform="rotate(-0.0,24.648677500000076,53.39953699999995)" x="24.648677500000076" y="53.39953699999995">
   A-575
  </text>
  <text fill="rgb(178,88,0)" font-family="Noto Sans CJK SC" font-size="2" transform="rotate(-0.0,49.81867750000015,47.55153699999994)" x="49.81867750000015" y="47.55153699999994">
   A-574
  </text>
  <text fill="rgb(178,88,0)" font-family="Noto Sans CJK SC" font-size="2" transform="rotate(-0.0,55.98867750000022,92.14453699999996)" x="55.98867750000022" y="92.14453699999996">
   A-573
  </text>
 </g>
 <g id="layerCOLUMN" inkscape:groupmode="layer" inkscape:label="COLUMN">
  <path d="M 17.858677500000113,78.29653699999994 L 20.308677500000158,76.55953699999998" fill="none" stroke="rgb(178,178,0)" stroke-width="0.1"/>
  <path d="M 34.564583044407755,99.84494141472032 L 34.32867750000014,99.39453699999996" fill="none" stroke="rgb(178,178,0)" stroke-width="0.1"/>
  <path d="M 27.837846066400516,99.97471796507557 L 27.598275251041287,99.5343857122952" fill="none" stroke="rgb(178,178,0)" stroke-width="0.1"/>
  <path d="M 27.598275251041287,99.5343857122952 L 27.35757326944031,99.09467077683826" fill="none" stroke="rgb(178,178,0)" stroke-width="0.1"/>
  <path d="M 27.35757326944031,99.09467077683826 L 27.11574171226698,98.65557606454297" fill="none" stroke="rgb(178,178,0)" stroke-width="0.1"/>
  <path d="M 27.11574171226698,98.65557606454297 L 26.872782177655154,98.21710447714906" fill="none" stroke="rgb(178,178,0)" stroke-width="0.1"/>
  <path d="M 26.872782177655154,98.21710447714906 L 26.62869627119312,97.77925891227801" fill="none" stroke="rgb(178,178,0)" stroke-width="0.1"/>
  <path d="M 26.62869627119312,97.77925891227801 L 26.38348560591271,97.34204226341467" fill="none" stroke="rgb(178,178,0)" stroke-width="0.1"/>
  <path d="M 26.38348560591271,97.34204226341467 L 26.137151802278822,96.90545741988734" fill="none" stroke="rgb(178,178,0)" stroke-width="0.1"/>
  <path d="M 26.137151802278822,96.90545741988734 L 25.88969648817806,96.46950726684929" fill="none" stroke="rgb(178,178,0)" stroke-width="0.1"/>
  <path d="M 25.88969648817806,96.46950726684929 L 25.641121298908956,96.03419468525942" fill="none" stroke="rgb(178,178,0)" stroke-width="0.1"/>
  <path d="M 25.641121298908956,96.03419468525942 L 25.391427877170827,95.59952255186329" fill="none" stroke="rgb(178,178,0)" stroke-width="0.1"/>
  <path d="M 25.391427877170827,95.59952255186329 L 25.14061787305195,95.16549373917394" fill="none" stroke="rgb(178,178,0)" stroke-width="0.1"/>
  <path d="M 25.14061787305195,95.16549373917394 L 24.888692944020477,94.73211111545322" fill="none" stroke="rgb(178,178,0)" stroke-width="0.1"/>
  <path d="M 24.888692944020477,94.73211111545322 L 24.63565475491214,94.29937754469256" fill="none" stroke="rgb(178,178,0)" stroke-width="0.1"/>
  <path d="M 24.63565475491214,94.29937754469256 L 24.38150497791912,93.8672958865942" fill="none" stroke="rgb(178,178,0)" stroke-width="0.1"/>
  <path d="M 24.38150497791912,93.8672958865942 L 24.12624529258028,93.4358689965523" fill="none" stroke="rgb(178,178,0)" stroke-width="0.1"/>
  <path d="M 24.12624529258028,93.4358689965523 L 23.869877385768632,93.0050997256339" fill="none" stroke="rgb(178,178,0)" stroke-width="0.1"/>
  <path d="M 23.869877385768632,93.0050997256339 L 23.612402951681133,92.5749909205602" fill="none" stroke="rgb(178,178,0)" stroke-width="0.1"/>
  <path d="M 23.612402951681133,92.5749909205602 L 23.3538236918273,92.14554542368779" fill="none" stroke="rgb(178,178,0)" stroke-width="0.1"/>
  <path d="M 23.3538236918273,92.14554542368779 L 23.094141315017396,91.7167660729898" fill="none" stroke="rgb(178,178,0)" stroke-width="0.1"/>
  <path d="M 23.094141315017396,91.7167660729898 L 22.833357537352185,91.2886557020372" fill="none" stroke="rgb(178,178,0)" stroke-width="0.1"/>
  <path d="M 22.833357537352185,91.2886557020372 L 22.571474082210443,90.86121713997989" fill="none" stroke="rgb(178,178,0)" stroke-width="0.1"/>
  <path d="M 22.571474082210443,90.86121713997989 L 22.308492680238487,90.43445321152836" fill="none" stroke="rgb(178,178,0)" stroke-width="0.1"/>
  <path d="M 22.308492680238487,90.43445321152836 L 22.0444150693379,90.0083667369347" fill="none" stroke="rgb(178,178,0)" stroke-width="0.1"/>
  <path d="M 22.0444150693379,90.0083667369347 L 21.779242994655306,89.58296053197398" fill="none" stroke="rgb(178,178,0)" stroke-width="0.1"/>
  <path d="M 21.779242994655306,89.58296053197398 L 21.512978208569393,89.15823740792587" fill="none" stroke="rgb(178,178,0)" stroke-width="0.1"/>
  <path d="M 21.512978208569393,89.15823740792587 L 21.245622470680246,88.73420017155593" fill="none" stroke="rgb(178,178,0)" stroke-width="0.1"/>
  <path d="M 21.245622470680246,88.73420017155593 L 20.977177547797282,88.31085162509697" fill="none" stroke="rgb(178,178,0)" stroke-width="0.1"/>
  <path d="M 20.977177547797282,88.31085162509697 L 20.70764521392789,87.88819456623071" fill="none" stroke="rgb(178,178,0)" stroke-width="0.1"/>
  <path d="M 20.70764521392789,87.88819456623071 L 20.4370272502656,87.46623178806914" fill="none" stroke="rgb(178,178,0)" stroke-width="0.1"/>
  <path d="M 20.4370272502656,87.46623178806914 L 20.16532544517827,87.04496607913615" fill="none" stroke="rgb(178,178,0)" stroke-width="0.1"/>
  <path d="M 20.16532544517827,87.04496607913615 L 19.892541594196018,86.62440022334897" fill="none" stroke="rgb(178,178,0)" stroke-width="0.1"/>
  <path d="M 19.892541594196018,86.62440022334897 L 19.618677500000103,86.20453699999996" fill="none" stroke="rgb(178,178,0)" stroke-width="0.1"/>
  <path d="M 34.32867750000014,99.39453699999996 A 201.0,201.0 0.0 0,0 20.72867750000023,77.15753699999999" fill="none" stroke="rgb(178,178,0)" stroke-width="0.1"/>
  <path d="M 20.72867750000023,77.15753699999999 A 201.0,201.0 0.0 0,0 20.308677500000158,76.55953699999998" fill="none" stroke="rgb(178,178,0)" stroke-width="0.1"/>
  <path d="M 66.24867750000021,33.28053699999998 L 73.67867750000005,30.330536999999993" fill="none" stroke="rgb(178,178,0)" stroke-width="0.1"/>
  <path d="M 73.67867750000005,30.330536999999993 L 70.72867750000023,22.894536999999957" fill="none" stroke="rgb(178,178,0)" stroke-width="0.1"/>
  <path d="M 70.72867750000023,22.894536999999957 L 63.29867750000017,25.844536999999946" fill="none" stroke="rgb(178,178,0)" stroke-width="0.1"/>
  <path d="M 63.29867750000017,25.844536999999946 L 66.24867750000021,33.28053699999998" fill="none" stroke="rgb(178,178,0)" stroke-width="0.1"/>
  <path d="M 100.0,91.97023036357535 L 93.06867750000015,94.71853699999997" fill="none" stroke="rgb(178,178,0)" stroke-width="0.1"/>
  <path d="M 93.06867750000015,94.71853699999997 L 95.16393245562153,100.0" fill="none" stroke="rgb(178,178,0)" stroke-width="0.1"/>
  <path d="M 13.288677500000176,80.10753699999998 L 16.23867750000022,87.54353699999996" fill="none" stroke="rgb(178,178,0)" stroke-width="0.1"/>
  <path d="M 16.23867750000022,87.54353699999996 L 23.67867750000005,84.59353699999997" fill="none" stroke="rgb(178,178,0)" stroke-width="0.1"/>
  <path d="M 23.67867750000005,84.59353699999997 L 20.72867750000023,77.15753699999999" fill="none" stroke="rgb(178,178,0)" stroke-width="0.1"/>
  <path d="M 20.72867750000023,77.15753699999999 L 13.288677500000176,80.10753699999998" fill="none" stroke="rgb(178,178,0)" stroke-width="0.1"/>
 </g>
 <g id="layerPUB_HATCH" inkscape:groupmode="layer" inkscape:label="PUB_HATCH">
  <path d="M 34.564583044407755,99.84494141472032 L 34.32867750000014,99.39453699999996" fill="none" stroke="rgb(63,63,63)" stroke-width="0.1"/>
  <path d="M 34.32867750000014,99.39453699999996 L 33.17675756807603,100.0" fill="none" stroke="rgb(63,63,63)" stroke-width="0.1"/>
  <path d="M 20.72867750000023,77.15753699999999 L 23.67867750000005,84.59353699999997" fill="none" stroke="rgb(63,63,63)" stroke-width="0.1"/>
  <path d="M 23.67867750000005,84.59353699999997 L 19.618677500000103,86.20453699999996" fill="none" stroke="rgb(63,63,63)" stroke-width="0.1"/>
  <path d="M 27.837846066400516,99.97471796507557 L 27.598275251041287,99.5343857122952" fill="none" stroke="rgb(63,63,63)" stroke-width="0.1"/>
  <path d="M 27.598275251041287,99.5343857122952 L 27.35757326944031,99.09467077683826" fill="none" stroke="rgb(63,63,63)" stroke-width="0.1"/>
  <path d="M 27.35757326944031,99.09467077683826 L 27.11574171226698,98.65557606454297" fill="none" stroke="rgb(63,63,63)" stroke-width="0.1"/>
  <path d="M 27.11574171226698,98.65557606454297 L 26.872782177655154,98.21710447714906" fill="none" stroke="rgb(63,63,63)" stroke-width="0.1"/>
  <path d="M 26.872782177655154,98.21710447714906 L 26.62869627119312,97.77925891227801" fill="none" stroke="rgb(63,63,63)" stroke-width="0.1"/>
  <path d="M 26.62869627119312,97.77925891227801 L 26.38348560591271,97.34204226341467" fill="none" stroke="rgb(63,63,63)" stroke-width="0.1"/>
  <path d="M 26.38348560591271,97.34204226341467 L 26.137151802278822,96.90545741988734" fill="none" stroke="rgb(63,63,63)" stroke-width="0.1"/>
  <path d="M 26.137151802278822,96.90545741988734 L 25.88969648817806,96.46950726684929" fill="none" stroke="rgb(63,63,63)" stroke-width="0.1"/>
  <path d="M 25.88969648817806,96.46950726684929 L 25.641121298908956,96.03419468525942" fill="none" stroke="rgb(63,63,63)" stroke-width="0.1"/>
  <path d="M 25.641121298908956,96.03419468525942 L 25.391427877170827,95.59952255186329" fill="none" stroke="rgb(63,63,63)" stroke-width="0.1"/>
  <path d="M 25.391427877170827,95.59952255186329 L 25.14061787305195,95.16549373917394" fill="none" stroke="rgb(63,63,63)" stroke-width="0.1"/>
  <path d="M 25.14061787305195,95.16549373917394 L 24.888692944020477,94.73211111545322" fill="none" stroke="rgb(63,63,63)" stroke-width="0.1"/>
  <path d="M 24.888692944020477,94.73211111545322 L 24.63565475491214,94.29937754469256" fill="none" stroke="rgb(63,63,63)" stroke-width="0.1"/>
  <path d="M 24.63565475491214,94.29937754469256 L 24.38150497791912,93.8672958865942" fill="none" stroke="rgb(63,63,63)" stroke-width="0.1"/>
  <path d="M 24.38150497791912,93.8672958865942 L 24.12624529258028,93.4358689965523" fill="none" stroke="rgb(63,63,63)" stroke-width="0.1"/>
  <path d="M 24.12624529258028,93.4358689965523 L 23.869877385768632,93.0050997256339" fill="none" stroke="rgb(63,63,63)" stroke-width="0.1"/>
  <path d="M 23.869877385768632,93.0050997256339 L 23.612402951681133,92.5749909205602" fill="none" stroke="rgb(63,63,63)" stroke-width="0.1"/>
  <path d="M 23.612402951681133,92.5749909205602 L 23.3538236918273,92.14554542368779" fill="none" stroke="rgb(63,63,63)" stroke-width="0.1"/>
  <path d="M 23.3538236918273,92.14554542368779 L 23.094141315017396,91.7167660729898" fill="none" stroke="rgb(63,63,63)" stroke-width="0.1"/>
  <path d="M 23.094141315017396,91.7167660729898 L 22.833357537352185,91.2886557020372" fill="none" stroke="rgb(63,63,63)" stroke-width="0.1"/>
  <path d="M 22.833357537352185,91.2886557020372 L 22.571474082210443,90.86121713997989" fill="none" stroke="rgb(63,63,63)" stroke-width="0.1"/>
  <path d="M 22.571474082210443,90.86121713997989 L 22.308492680238487,90.43445321152836" fill="none" stroke="rgb(63,63,63)" stroke-width="0.1"/>
  <path d="M 22.308492680238487,90.43445321152836 L 22.0444150693379,90.0083667369347" fill="none" stroke="rgb(63,63,63)" stroke-width="0.1"/>
  <path d="M 22.0444150693379,90.0083667369347 L 21.779242994655306,89.58296053197398" fill="none" stroke="rgb(63,63,63)" stroke-width="0.1"/>
  <path d="M 21.779242994655306,89.58296053197398 L 21.512978208569393,89.15823740792587" fill="none" stroke="rgb(63,63,63)" stroke-width="0.1"/>
  <path d="M 21.512978208569393,89.15823740792587 L 21.245622470680246,88.73420017155593" fill="none" stroke="rgb(63,63,63)" stroke-width="0.1"/>
  <path d="M 21.245622470680246,88.73420017155593 L 20.977177547797282,88.31085162509697" fill="none" stroke="rgb(63,63,63)" stroke-width="0.1"/>
  <path d="M 20.977177547797282,88.31085162509697 L 20.70764521392789,87.88819456623071" fill="none" stroke="rgb(63,63,63)" stroke-width="0.1"/>
  <path d="M 20.70764521392789,87.88819456623071 L 20.4370272502656,87.46623178806914" fill="none" stroke="rgb(63,63,63)" stroke-width="0.1"/>
  <path d="M 20.4370272502656,87.46623178806914 L 20.16532544517827,87.04496607913615" fill="none" stroke="rgb(63,63,63)" stroke-width="0.1"/>
  <path d="M 20.16532544517827,87.04496607913615 L 19.892541594196018,86.62440022334897" fill="none" stroke="rgb(63,63,63)" stroke-width="0.1"/>
  <path d="M 19.892541594196018,86.62440022334897 L 19.618677500000103,86.20453699999996" fill="none" stroke="rgb(63,63,63)" stroke-width="0.1"/>
  <path d="M 33.17675756807603,100.0 L 34.32867750000014,99.39453699999996" fill="none" stroke="rgb(63,63,63)" stroke-width="0.1"/>
  <path d="M 34.32867750000014,99.39453699999996 A 201.0,201.0 0.0 0,0 20.72867750000023,77.15753699999999" fill="none" stroke="rgb(63,63,63)" stroke-width="0.1"/>
  <path d="M 17.858677500000113,78.29653699999994 L 20.72867750000023,77.15753699999999" fill="none" stroke="rgb(63,63,63)" stroke-width="0.1"/>
  <path d="M 20.72867750000023,77.15753699999999 A 201.0,201.0 0.0 0,0 20.308677500000158,76.55953699999998" fill="none" stroke="rgb(63,63,63)" stroke-width="0.1"/>
  <path d="M 20.308677500000158,76.55953699999998 L 17.858677500000113,78.29653699999994" fill="none" stroke="rgb(63,63,63)" stroke-width="0.1"/>
 </g>
 <g id="layerPUB_TEXT" inkscape:groupmode="layer" inkscape:label="PUB_TEXT">
  <text fill="rgb(0,0,0)" font-family="Noto Sans CJK SC" font-size="2" transform="rotate(-22.0,14.568677500000149,96.28953699999994)" x="14.568677500000149" y="96.28953699999994">
   柴发
  </text>
  <text fill="rgb(0,0,0)" font-family="Noto Sans CJK SC" font-size="2" transform="rotate(-22.0,6.638677500000085,95.42653699999994)" x="6.638677500000085" y="95.42653699999994">
   送
  </text>
  <text fill="rgb(0,0,0)" font-family="Noto Sans CJK SC" font-size="2" transform="rotate(-21.6395,93.77867750000019,35.49053699999996)" x="93.77867750000019" y="35.49053699999996">
   0.5%
  </text>
 </g>
 <g id="layerS-EQ1" inkscape:groupmode="layer" inkscape:label="S-EQ1">
  <path d="M 66.20867750000002,40.977536999999984 L 66.89867750000008,38.874536999999975" fill="none" stroke="rgb(88,0,178)" stroke-width="0.1"/>
  <path d="M 65.63867750000009,40.87953699999997 L 66.40867750000007,38.61953699999998" fill="none" stroke="rgb(88,0,178)" stroke-width="0.1"/>
  <path d="M 65.15867750000007,40.47953699999999 L 65.80867750000016,38.62953699999997" fill="none" stroke="rgb(88,0,178)" stroke-width="0.1"/>
  <circle cx="66.1286775000001" cy="39.77953699999995" fill="none" r="1.2" stroke="rgb(88,0,178)" stroke-width="0.1"/>
 </g>
 <g id="layerS-JSJ" inkscape:groupmode="layer" inkscape:label="S-JSJ">
  <path d="M 100.0,34.71595334240436 L 97.0086775000002,35.90353699999997" fill="none" stroke="rgb(0,133,178)" stroke-width="0.1"/>
  <path d="M 97.0086775000002,35.90353699999997 L 92.82867750000014,37.56253699999996" fill="none" stroke="rgb(0,133,178)" stroke-width="0.1"/>
  <path d="M 29.408677500000067,0.3375369999999407 L 29.274727841860113,0.0" fill="none" stroke="rgb(0,133,178)" stroke-width="0.1"/>
 </g>
 <g id="layerWALL" inkscape:groupmode="layer" inkscape:label="WALL">
  <path d="M 14.270917268007679,100.0 L 8.058677500000158,84.33753699999994" fill="none" instance-id="-1" semantic-id="1" stroke="rgb(178,178,0)" stroke-width="0.1"/>
  <path d="M 16.42332771467659,100.0 L 9.918677500000058,83.59953699999994" fill="none" instance-id="-1" semantic-id="1" stroke="rgb(178,178,0)" stroke-width="0.1"/>
  <path d="M 2.668677500000058,84.32153699999998 L 3.228677500000231,84.10053699999997" fill="none" instance-id="-1" semantic-id="1" stroke="rgb(178,178,0)" stroke-width="0.1"/>
  <path d="M 3.408677500000067,86.18053699999996 L 3.0386775000001762,86.32853699999998" fill="none" instance-id="-1" semantic-id="1" stroke="rgb(178,178,0)" stroke-width="0.1"/>
  <path d="M 2.668677500000058,84.32153699999998 L 3.408677500000067,86.18053699999996" fill="none" instance-id="-1" semantic-id="1" stroke="rgb(178,178,0)" stroke-width="0.1"/>
  <path d="M 8.461222225912252,100.0 L 3.0386775000001762,86.32853699999998" fill="none" instance-id="-1" semantic-id="1" stroke="rgb(178,178,0)" stroke-width="0.1"/>
  <path d="M 10.613669607010934,100.0 L 4.898677500000076,85.59053699999998" fill="none" instance-id="-1" semantic-id="1" stroke="rgb(178,178,0)" stroke-width="0.1"/>
  <path d="M 8.248677500000213,82.10953699999999 L 13.288677500000176,80.10753699999998" fill="none" instance-id="-1" semantic-id="1" stroke="rgb(178,178,0)" stroke-width="0.1"/>
  <path d="M 9.918677500000058,83.59953699999994 L 14.028677500000185,81.96653699999996" fill="none" instance-id="-1" semantic-id="1" stroke="rgb(178,178,0)" stroke-width="0.1"/>
  <path d="M 3.228677500000231,84.10053699999997 L 8.248677500000213,82.10953699999999" fill="none" instance-id="-1" semantic-id="1" stroke="rgb(178,178,0)" stroke-width="0.1"/>
  <path d="M 4.898677500000076,85.59053699999998 L 8.058677500000158,84.33753699999994" fill="none" instance-id="-1" semantic-id="1" stroke="rgb(178,178,0)" stroke-width="0.1"/>
 </g>
</svg>