<?xml version="1.0" encoding="utf-8"?>
<svg style="background-color: #000;" version="1.1" viewBox="0 0 100.0 100.0" xmlns="http://www.w3.org/2000/svg" xmlns:inkscape="http://www.inkscape.org/namespaces/inkscape">
 <g id="layer!消防分区" inkscape:groupmode="layer" inkscape:label="!消防分区">
  <path d="M 0.0,2.223169606065312 L 5.6038581405159675,0.0" fill="none" stroke="rgb(142,35,0)" stroke-width="0.1"/>
  <path d="M 5.604614785081139,0.0 L 0.0,2.223503819908615" fill="none" stroke="rgb(142,35,0)" stroke-width="0.1"/>
  <path d="M 93.8811710693941,100.0 L 64.19167749999997,25.168537000000015" fill="none" stroke="rgb(142,35,0)" stroke-width="0.1"/>
  <path d="M 64.19167749999997,25.168537000000015 L 41.8826775,34.019537000000014" fill="none" stroke="rgb(142,35,0)" stroke-width="0.1"/>
  <path d="M 41.8826775,34.019537000000014 L 34.13867749999997,14.499536999999918" fill="none" stroke="rgb(142,35,0)" stroke-width="0.1"/>
  <path d="M 34.13867749999997,14.499536999999918 L 0.0,28.043383253866182" fill="none" stroke="rgb(142,35,0)" stroke-width="0.1"/>
 </g>
 <g id="layer0-结构边线" inkscape:groupmode="layer" inkscape:label="0-结构边线">
  <path d="M 79.12667750000003,62.81453699999997 L 86.55867750000004,59.86453699999993" fill="none" stroke="rgb(178,0,178)" stroke-width="0.1"/>
  <path d="M 86.55867750000004,59.86453699999993 L 82.50567750000005,49.63953700000002" fill="none" stroke="rgb(178,0,178)" stroke-width="0.1"/>
  <path d="M 75.06967750000001,52.58953699999995 L 82.50567750000005,49.63953700000002" fill="none" stroke="rgb(178,0,178)" stroke-width="0.1"/>
  <path d="M 79.12667750000003,62.81453699999997 L 75.06967750000001,52.58953699999995" fill="none" stroke="rgb(178,0,178)" stroke-width="0.1"/>
  <path d="M 0.4936774999999898,92.39653699999997 L 7.929677500000025,89.44653699999992" fill="none" stroke="rgb(178,0,178)" stroke-width="0.1"/>
  <path d="M 7.929677500000025,89.44653699999992 L 4.97967749999998,82.010537" fill="none" stroke="rgb(178,0,178)" stroke-width="0.1"/>
  <path d="M 0.0,83.98580237918509 L 4.97967749999998,82.010537" fill="none" stroke="rgb(178,0,178)" stroke-width="0.1"/>
  <path d="M 0.4936774999999898,92.39653699999997 L 0.0,91.15255669162991" fill="none" stroke="rgb(178,0,178)" stroke-width="0.1"/>
 </g>
 <g id="layerCOLUMN" inkscape:groupmode="layer" inkscape:label="COLUMN">
  <path d="M 5.603845694819142,0.0 L 0.0,2.2231665738491984" fill="none" instance-id="-1" semantic-id="1" stroke="rgb(178,178,0)" stroke-width="0.1"/>
  <path d="M 79.12667750000003,62.81453699999997 L 86.55867750000004,59.86453699999993" fill="none" stroke="rgb(178,178,0)" stroke-width="0.1"/>
  <path d="M 86.55867750000004,59.86453699999993 L 82.50567750000005,49.63953700000002" fill="none" stroke="rgb(178,178,0)" stroke-width="0.1"/>
  <path d="M 82.50567750000005,49.63953700000002 L 75.06967750000001,52.58953699999995" fill="none" stroke="rgb(178,178,0)" stroke-width="0.1"/>
  <path d="M 75.06967750000001,52.58953699999995 L 79.12667750000003,62.81453699999997" fill="none" stroke="rgb(178,178,0)" stroke-width="0.1"/>
  <path d="M 0.4936774999999898,92.39653699999997 L 7.929677500000025,89.44653699999992" fill="none" stroke="rgb(178,178,0)" stroke-width="0.1"/>
  <path d="M 7.929677500000025,89.44653699999992 L 4.97967749999998,82.010537" fill="none" stroke="rgb(178,178,0)" stroke-width="0.1"/>
  <path d="M 4.97967749999998,82.010537 L 0.0,83.98580237918509" fill="none" stroke="rgb(178,178,0)" stroke-width="0.1"/>
  <path d="M 0.0,91.15255669162991 L 0.4936774999999898,92.39653699999997" fill="none" stroke="rgb(178,178,0)" stroke-width="0.1"/>
 </g>
 <g id="layerDIM_SYMB" inkscape:groupmode="layer" inkscape:label="DIM_SYMB">
  <path d="M 19.19267750000006,36.483536999999956 L 15.009677499999952,38.143536999999924" fill="none" stroke="rgb(0,178,0)" stroke-width="0.1"/>
  <path d="M 15.009677499999952,38.143536999999924 L 10.82667749999996,39.802536999999916" fill="none" stroke="rgb(0,178,0)" stroke-width="0.1"/>
 </g>
 <g id="layerDOOR_FIRE" inkscape:groupmode="layer" inkscape:label="DOOR_FIRE">
  <path d="M 31.718677500000013,16.535536999999977 L 28.482677500000023,8.378536999999938" fill="none" instance-id="1" semantic-id="4" stroke="rgb(0,178,178)" stroke-width="0.1"/>
  <path d="M 31.300677500000006,16.701536999999917 L 28.064677500000016,8.544536999999991" fill="none" instance-id="1" semantic-id="4" stroke="rgb(0,178,178)" stroke-width="0.1"/>
  <path d="M 31.718677500000013,16.535536999999977 L 31.300677500000006,16.701536999999917" fill="none" instance-id="1" semantic-id="4" stroke="rgb(0,178,178)" stroke-width="0.1"/>
  <path d="M 28.064677500000016,8.544536999999991 L 28.482677500000023,8.378536999999938" fill="none" instance-id="1" semantic-id="4" stroke="rgb(0,178,178)" stroke-width="0.1"/>
  <path d="M 15.405677500000024,23.00653699999998 L 12.169677500000034,14.850536999999917" fill="none" instance-id="1" semantic-id="4" stroke="rgb(0,178,178)" stroke-width="0.1"/>
  <path d="M 14.987677500000018,23.17253699999992 L 11.751677500000028,15.016536999999971" fill="none" instance-id="1" semantic-id="4" stroke="rgb(0,178,178)" stroke-width="0.1"/>
  <path d="M 12.169677500000034,14.850536999999917 L 11.751677500000028,15.016536999999971" fill="none" instance-id="1" semantic-id="4" stroke="rgb(0,178,178)" stroke-width="0.1"/>
  <path d="M 14.987677500000018,23.17253699999992 L 15.405677500000024,23.00653699999998" fill="none" instance-id="1" semantic-id="4" stroke="rgb(0,178,178)" stroke-width="0.1"/>
  <path d="M 65.6756775,0.911536999999953 L 65.31406453632667,0.0" fill="none" stroke="rgb(0,178,178)" stroke-width="0.1"/>
  <path d="M 65.37367749999999,1.0315369999999575 L 64.96445971541334,0.0" fill="none" stroke="rgb(0,178,178)" stroke-width="0.1"/>
  <path d="M 65.37367749999999,1.0315369999999575 L 65.6756775,0.911536999999953" fill="none" stroke="rgb(0,178,178)" stroke-width="0.1"/>
  <path d="M 28.065677499999993,8.54753699999992 A 8.775,8.775 0.0 0,0 23.352677500000027,19.85353699999996" fill="none" instance-id="1" semantic-id="4" stroke="rgb(0,178,178)" stroke-width="0.1"/>
  <path d="M 23.352677500000027,19.85353699999996 A 8.775,8.775 0.0 0,0 12.17067750000001,14.85353699999996" fill="none" instance-id="1" semantic-id="4" stroke="rgb(0,178,178)" stroke-width="0.1"/>
 </g>
 <g id="layerDOOR_FIRE_TEXT" inkscape:groupmode="layer" inkscape:label="DOOR_FIRE_TEXT">
  <text fill="rgb(0,0,0)" font-family="Noto Sans CJK SC" font-size="2" transform="rotate(-21.6395,13.685677499999997,12.786536999999953)" x="13.685677499999997" y="12.786536999999953">
   FM
  </text>
  <text fill="rgb(0,0,0)" font-family="Noto Sans CJK SC" font-size="2" transform="rotate(-21.6395,17.11067749999995,11.428537000000006)" x="17.11067749999995" y="11.428537000000006">
   甲
  </text>
  <text fill="rgb(0,0,0)" font-family="Noto Sans CJK SC" font-size="2" transform="rotate(-21.6395,20.272677499999986,10.17353700000001)" x="20.272677499999986" y="10.17353700000001">
   1823
  </text>
  <text fill="rgb(0,0,0)" font-family="Noto Sans CJK SC" font-size="2" transform="rotate(-21.6395,69.21167750000006,5.8235369999999875)" x="69.21167750000006" y="5.8235369999999875">
   FM
  </text>
  <text fill="rgb(0,0,0)" font-family="Noto Sans CJK SC" font-size="2" transform="rotate(-21.6395,72.63567750000004,4.465536999999927)" x="72.63567750000004" y="4.465536999999927">
   乙
  </text>
  <text fill="rgb(0,0,0)" font-family="Noto Sans CJK SC" font-size="2" transform="rotate(-21.6395,75.79767749999996,3.210536999999931)" x="75.79767749999996" y="3.210536999999931">
   1321
  </text>
 </g>
 <g id="layerPUB_HATCH" inkscape:groupmode="layer" inkscape:label="PUB_HATCH">
  <path d="M 0.0,2.2231665738491984 L 5.603845694819142,0.0" fill="none" instance-id="-1" semantic-id="1" stroke="rgb(63,63,63)" stroke-width="0.1"/>
 </g>
 <g id="layerPUB_TEXT" inkscape:groupmode="layer" inkscape:label="PUB_TEXT">
  <text fill="rgb(0,0,0)" font-family="Noto Sans CJK SC" font-size="2" transform="rotate(-0.0,20.6566775,38.52753699999994)" x="20.6566775" y="38.52753699999994">
   下
  </text>
  <text fill="rgb(0,0,0)" font-family="Noto Sans CJK SC" font-size="2" transform="rotate(-0.0,24.342677500000036,38.52753699999994)" x="24.342677500000036" y="38.52753699999994">
   12
  </text>
 </g>
 <g id="layerSTAIR" inkscape:groupmode="layer" inkscape:label="STAIR">
  <path d="M 40.207677500000045,35.22153700000001 L 13.251677500000028,45.91553699999997" fill="none" instance-id="4" semantic-id="30" stroke="rgb(178,88,0)" stroke-width="0.1"/>
  <path d="M 40.39267749999999,35.68653699999993 L 13.436677499999973,46.380537000000004" fill="none" instance-id="4" semantic-id="30" stroke="rgb(178,88,0)" stroke-width="0.1"/>
  <path d="M 6.060677499999997,27.790536999999972 L 14.426677499999983,24.471537000000012" fill="none" instance-id="4" semantic-id="30" stroke="rgb(178,88,0)" stroke-width="0.1"/>
  <path d="M 13.436677499999973,46.380537000000004 L 21.801677499999983,43.06153699999993" fill="none" instance-id="4" semantic-id="30" stroke="rgb(178,88,0)" stroke-width="0.1"/>
  <path d="M 6.060677499999997,27.790536999999972 L 13.436677499999973,46.380537000000004" fill="none" instance-id="4" semantic-id="30" stroke="rgb(178,88,0)" stroke-width="0.1"/>
  <path d="M 8.849677499999984,26.683537 L 16.224677499999984,45.27453700000001" fill="none" instance-id="4" semantic-id="30" stroke="rgb(178,88,0)" stroke-width="0.1"/>
  <path d="M 11.637677499999995,25.577537000000007 L 19.01367749999997,44.167536999999925" fill="none" instance-id="4" semantic-id="30" stroke="rgb(178,88,0)" stroke-width="0.1"/>
  <path d="M 14.426677499999983,24.471537000000012 L 21.801677499999983,43.06153699999993" fill="none" instance-id="4" semantic-id="30" stroke="rgb(178,88,0)" stroke-width="0.1"/>
  <path d="M 21.801677499999983,43.06153699999993 L 16.224677499999984,45.27453700000001" fill="none" instance-id="4" semantic-id="30" stroke="rgb(178,88,0)" stroke-width="0.1"/>
  <path d="M 14.426677499999983,24.471537000000012 L 8.849677499999984,26.683537" fill="none" instance-id="4" semantic-id="30" stroke="rgb(178,88,0)" stroke-width="0.1"/>
  <path d="M 21.801677499999983,43.06153699999993 L 14.426677499999983,24.471537000000012" fill="none" instance-id="4" semantic-id="30" stroke="rgb(178,88,0)" stroke-width="0.1"/>
  <path d="M 19.01367749999997,44.167536999999925 L 11.637677499999995,25.577537000000007" fill="none" instance-id="4" semantic-id="30" stroke="rgb(178,88,0)" stroke-width="0.1"/>
  <path d="M 16.224677499999984,45.27453700000001 L 8.849677499999984,26.683537" fill="none" instance-id="4" semantic-id="30" stroke="rgb(178,88,0)" stroke-width="0.1"/>
 </g>
 <g id="layerWALL" inkscape:groupmode="layer" inkscape:label="WALL">
  <path d="M 0.0,0.07178276206036571 L 0.18093989306339608,0.0" fill="none" instance-id="-1" semantic-id="1" stroke="rgb(178,178,0)" stroke-width="0.1"/>
  <path d="M 0.0,2.2231665738491984 L 5.603845694819142,0.0" fill="none" instance-id="-1" semantic-id="1" stroke="rgb(178,178,0)" stroke-width="0.1"/>
  <path d="M 88.3586775,15.580536999999936 L 89.83867750000002,19.299536999999987" fill="none" instance-id="-1" semantic-id="1" stroke="rgb(178,178,0)" stroke-width="0.1"/>
  <path d="M 89.83867750000002,19.299536999999987 L 91.68867750000004,18.56153699999993" fill="none" instance-id="-1" semantic-id="1" stroke="rgb(178,178,0)" stroke-width="0.1"/>
  <path d="M 91.68867750000004,18.56153699999993 L 90.95867750000002,16.702537000000007" fill="none" instance-id="-1" semantic-id="1" stroke="rgb(178,178,0)" stroke-width="0.1"/>
  <path d="M 100.0,39.50095456698568 L 95.74867749999999,28.786536999999953" fill="none" instance-id="-1" semantic-id="1" stroke="rgb(178,178,0)" stroke-width="0.1"/>
  <path d="M 95.74867749999999,28.786536999999953 L 93.88867749999997,29.52353699999992" fill="none" instance-id="-1" semantic-id="1" stroke="rgb(178,178,0)" stroke-width="0.1"/>
  <path d="M 93.88867749999997,29.52353699999992 L 99.78867750000006,44.39653699999997" fill="none" instance-id="-1" semantic-id="1" stroke="rgb(178,178,0)" stroke-width="0.1"/>
  <path d="M 34.13867749999997,14.499536999999918 L 31.349677499999984,15.605536999999913" fill="none" instance-id="-1" semantic-id="1" stroke="rgb(178,178,0)" stroke-width="0.1"/>
  <path d="M 31.349677499999984,15.605536999999913 L 32.08767750000004,17.46453699999995" fill="none" instance-id="-1" semantic-id="1" stroke="rgb(178,178,0)" stroke-width="0.1"/>
  <path d="M 32.08767750000004,17.46453699999995 L 33.016677500000014,17.095536999999922" fill="none" instance-id="-1" semantic-id="1" stroke="rgb(178,178,0)" stroke-width="0.1"/>
  <path d="M 0.0,30.19494149444165 L 15.356677500000046,24.102536999999984" fill="none" instance-id="-1" semantic-id="1" stroke="rgb(178,178,0)" stroke-width="0.1"/>
  <path d="M 15.356677500000046,24.102536999999984 L 14.61867749999999,22.243536999999947" fill="none" instance-id="-1" semantic-id="1" stroke="rgb(178,178,0)" stroke-width="0.1"/>
  <path d="M 14.61867749999999,22.243536999999947 L 0.0,28.043076490638327" fill="none" instance-id="-1" semantic-id="1" stroke="rgb(178,178,0)" stroke-width="0.1"/>
  <path d="M 56.447677500000054,5.648536999999919 L 54.20649312167018,0.0" fill="none" instance-id="-1" semantic-id="1" stroke="rgb(178,178,0)" stroke-width="0.1"/>
  <path d="M 57.568677500000035,3.0525369999999157 L 56.35758374772104,0.0" fill="none" instance-id="-1" semantic-id="1" stroke="rgb(178,178,0)" stroke-width="0.1"/>
  <path d="M 41.8826775,34.019537000000014 L 66.0506775,24.431536999999935" fill="none" instance-id="-1" semantic-id="1" stroke="rgb(178,178,0)" stroke-width="0.1"/>
  <path d="M 40.76167750000002,36.61553700000002 L 64.92867750000005,27.02753699999994" fill="none" instance-id="-1" semantic-id="1" stroke="rgb(178,178,0)" stroke-width="0.1"/>
  <path d="M 40.76167750000002,36.61553700000002 L 33.016677500000014,17.095536999999922" fill="none" instance-id="-1" semantic-id="1" stroke="rgb(178,178,0)" stroke-width="0.1"/>
  <path d="M 41.8826775,34.019537000000014 L 34.13867749999997,14.499536999999918" fill="none" instance-id="-1" semantic-id="1" stroke="rgb(178,178,0)" stroke-width="0.1"/>
  <path d="M 99.78867750000006,44.39653699999997 L 95.13867749999997,46.23953699999993" fill="none" instance-id="-1" semantic-id="1" stroke="rgb(178,178,0)" stroke-width="0.1"/>
  <path d="M 95.13867749999997,46.23953699999993 L 95.87867749999998,48.098536999999965" fill="none" instance-id="-1" semantic-id="1" stroke="rgb(178,178,0)" stroke-width="0.1"/>
  <path d="M 95.87867749999998,48.098536999999965 L 100.0,46.465075200537626" fill="none" instance-id="-1" semantic-id="1" stroke="rgb(178,178,0)" stroke-width="0.1"/>
  <path d="M 83.79867750000005,52.89253699999995 L 85.65867749999995,52.15553699999998" fill="none" instance-id="-1" semantic-id="1" stroke="rgb(178,178,0)" stroke-width="0.1"/>
  <path d="M 85.65867749999995,52.15553699999998 L 84.91867750000006,50.296536999999944" fill="none" instance-id="-1" semantic-id="1" stroke="rgb(178,178,0)" stroke-width="0.1"/>
  <path d="M 84.91867750000006,50.296536999999944 L 83.05867750000004,51.03353699999991" fill="none" instance-id="-1" semantic-id="1" stroke="rgb(178,178,0)" stroke-width="0.1"/>
  <path d="M 66.0506775,24.431536999999935 L 76.92867750000005,51.852536999999984" fill="none" instance-id="-1" semantic-id="1" stroke="rgb(178,178,0)" stroke-width="0.1"/>
  <path d="M 64.92867750000005,27.02753699999994 L 75.06967750000001,52.58953699999995" fill="none" instance-id="-1" semantic-id="1" stroke="rgb(178,178,0)" stroke-width="0.1"/>
  <path d="M 80.98567749999995,62.07653699999992 L 96.03173238475335,100.0" fill="none" instance-id="-1" semantic-id="1" stroke="rgb(178,178,0)" stroke-width="0.1"/>
  <path d="M 79.12667750000003,62.81453699999997 L 93.8795343644465,100.0" fill="none" instance-id="-1" semantic-id="1" stroke="rgb(178,178,0)" stroke-width="0.1"/>
  <path d="M 56.447677500000054,5.648536999999919 L 65.74267750000001,1.9615370000000212" fill="none" instance-id="-1" semantic-id="1" stroke="rgb(178,178,0)" stroke-width="0.1"/>
  <path d="M 65.74267750000001,1.9615370000000212 L 65.00467749999996,0.10253699999998389" fill="none" instance-id="-1" semantic-id="1" stroke="rgb(178,178,0)" stroke-width="0.1"/>
  <path d="M 65.00467749999996,0.10253699999998389 L 57.568677500000035,3.0525369999999157" fill="none" instance-id="-1" semantic-id="1" stroke="rgb(178,178,0)" stroke-width="0.1"/>
  <path d="M 88.3586775,15.580536999999936 L 100.0,10.962621082250052" fill="none" instance-id="-1" semantic-id="1" stroke="rgb(178,178,0)" stroke-width="0.1"/>
  <path d="M 90.95867750000002,16.702537000000007 L 100.0,13.115619790162555" fill="none" instance-id="-1" semantic-id="1" stroke="rgb(178,178,0)" stroke-width="0.1"/>
 </g>
 <g id="layerWINDOW" inkscape:groupmode="layer" inkscape:label="WINDOW">
  <path d="M 89.74867749999999,60.99253699999997 L 89.2386775,61.195536999999945" fill="none" instance-id="7" semantic-id="3" stroke="rgb(0,178,0)" stroke-width="0.1"/>
  <path d="M 85.28867750000006,51.22553699999992 L 85.79867750000005,51.02353699999992" fill="none" instance-id="7" semantic-id="3" stroke="rgb(0,178,0)" stroke-width="0.1"/>
  <path d="M 85.28867750000006,51.22553699999992 L 89.2386775,61.195536999999945" fill="none" instance-id="7" semantic-id="3" stroke="rgb(0,178,0)" stroke-width="0.1"/>
  <path d="M 85.79867750000005,51.02353699999992 L 89.74867749999999,60.99253699999997" fill="none" instance-id="7" semantic-id="3" stroke="rgb(0,178,0)" stroke-width="0.1"/>
  <path d="M 90.75867749999998,18.93053699999996 L 90.96867750000001,19.441536999999926" fill="none" instance-id="6" semantic-id="3" stroke="rgb(0,178,0)" stroke-width="0.1"/>
  <path d="M 90.75867749999998,18.93053699999996 L 100.0,15.264596128635844" fill="none" instance-id="6" semantic-id="3" stroke="rgb(0,178,0)" stroke-width="0.1"/>
  <path d="M 90.96867750000001,19.441536999999926 L 100.0,15.858901043380115" fill="none" instance-id="6" semantic-id="3" stroke="rgb(0,178,0)" stroke-width="0.1"/>
  <path d="M 89.74867749999999,60.98853699999995 A 10.725,10.725 0.0 0,0 95.50867749999998,47.16953699999999" fill="none" instance-id="7" semantic-id="3" stroke="rgb(0,178,0)" stroke-width="0.1"/>
  <path d="M 94.81867750000004,29.154537000000005 L 95.28087166851344,28.958419113138348" fill="none" instance-id="6" semantic-id="3" stroke="rgb(0,178,0)" stroke-width="0.1"/>
  <path d="M 95.28087166851344,28.958419113138348 L 95.73338080455505,28.74088484743811" fill="none" instance-id="6" semantic-id="3" stroke="rgb(0,178,0)" stroke-width="0.1"/>
  <path d="M 95.73338080455505,28.74088484743811 L 96.17521320674552,28.502410942514643" fill="none" instance-id="6" semantic-id="3" stroke="rgb(0,178,0)" stroke-width="0.1"/>
  <path d="M 96.17521320674552,28.502410942514643 L 96.60540057241906,28.24352002848002" fill="none" instance-id="6" semantic-id="3" stroke="rgb(0,178,0)" stroke-width="0.1"/>
  <path d="M 96.60540057241906,28.24352002848002 L 97.02300011971784,27.964779480567245" fill="none" instance-id="6" semantic-id="3" stroke="rgb(0,178,0)" stroke-width="0.1"/>
  <path d="M 97.02300011971784,27.964779480567245 L 97.42709665375594,27.66680017569331" fill="none" instance-id="6" semantic-id="3" stroke="rgb(0,178,0)" stroke-width="0.1"/>
  <path d="M 97.42709665375594,27.66680017569331 L 97.81680457232505,27.350235153684594" fill="none" instance-id="6" semantic-id="3" stroke="rgb(0,178,0)" stroke-width="0.1"/>
  <path d="M 97.81680457232505,27.350235153684594 L 98.19126980674537,27.015778186100647" fill="none" instance-id="6" semantic-id="3" stroke="rgb(0,178,0)" stroke-width="0.1"/>
  <path d="M 98.19126980674537,27.015778186100647 L 98.54967169360918,26.664162255791325" fill="none" instance-id="6" semantic-id="3" stroke="rgb(0,178,0)" stroke-width="0.1"/>
  <path d="M 98.54967169360918,26.664162255791325 L 98.89122477331534,26.296157950520183" fill="none" instance-id="6" semantic-id="3" stroke="rgb(0,178,0)" stroke-width="0.1"/>
  <path d="M 98.89122477331534,26.296157950520183 L 99.2151805114512,25.912571774174353" fill="none" instance-id="6" semantic-id="3" stroke="rgb(0,178,0)" stroke-width="0.1"/>
  <path d="M 99.2151805114512,25.912571774174353 L 99.52082893925206,25.514244379261868" fill="none" instance-id="6" semantic-id="3" stroke="rgb(0,178,0)" stroke-width="0.1"/>
  <path d="M 99.52082893925206,25.514244379261868 L 99.80750020954065,25.10204872457109" fill="none" instance-id="6" semantic-id="3" stroke="rgb(0,178,0)" stroke-width="0.1"/>
 </g>
 <g id="layerWINDOW_TEXT" inkscape:groupmode="layer" inkscape:label="WINDOW_TEXT">
  <text fill="rgb(178,0,178)" font-family="Noto Sans CJK SC" font-size="2" transform="rotate(-21.6395,86.14867749999996,47.84053699999993)" x="86.14867749999996" y="47.84053699999993">
   M1123
  </text>
  <text fill="rgb(178,0,178)" font-family="Noto Sans CJK SC" font-size="2" transform="rotate(-111.64,92.18867750000004,28.476537000000008)" x="92.18867750000004" y="28.476537000000008">
   M1123
  </text>
 </g>
</svg>