<?xml version="1.0" encoding="utf-8"?>
<svg style="background-color: #000;" version="1.1" viewBox="0 0 100.0 99.99999999999989" xmlns="http://www.w3.org/2000/svg" xmlns:inkscape="http://www.inkscape.org/namespaces/inkscape">
 <g id="layer!消防-疏散楼梯" inkscape:groupmode="layer" inkscape:label="!消防-疏散楼梯">
  <path d="M 20.94867750000003,78.03153699999996 L 81.27867750000019,54.094536999999946" fill="none" stroke="rgb(53,107,0)" stroke-width="0.1"/>
  <path d="M 81.27867750000019,54.094536999999946 L 100.0,41.491518265035666" fill="none" stroke="rgb(53,107,0)" stroke-width="0.1"/>
  <path d="M 100.0,38.622865971436454 L 92.05867750000016,18.619536999999923" fill="none" stroke="rgb(53,107,0)" stroke-width="0.1"/>
  <path d="M 92.05867750000016,18.619536999999923 L 10.258677500000204,51.07153699999992" fill="none" stroke="rgb(53,107,0)" stroke-width="0.1"/>
  <path d="M 10.258677500000204,51.07153699999992 L 20.94867750000003,78.03153699999996" fill="none" stroke="rgb(53,107,0)" stroke-width="0.1"/>
  <path d="M 20.94867750000003,78.03153699999996 L 81.27867750000019,54.094536999999946" fill="none" stroke="rgb(53,107,0)" stroke-width="0.1"/>
  <path d="M 81.27867750000019,54.094536999999946 L 100.0,41.491518265035666" fill="none" stroke="rgb(53,107,0)" stroke-width="0.1"/>
  <path d="M 100.0,38.622865971436454 L 92.05867750000016,18.619536999999923" fill="none" stroke="rgb(53,107,0)" stroke-width="0.1"/>
  <path d="M 92.05867750000016,18.619536999999923 L 10.258677500000204,51.07153699999992" fill="none" stroke="rgb(53,107,0)" stroke-width="0.1"/>
  <path d="M 10.258677500000204,51.07153699999992 L 20.94867750000003,78.03153699999996" fill="none" stroke="rgb(53,107,0)" stroke-width="0.1"/>
 </g>
 <g id="layer!消防分区" inkscape:groupmode="layer" inkscape:label="!消防分区">
  <path d="M 6.928677500000049,48.09053699999993 L 0.0,30.62701668873831" fill="none" stroke="rgb(142,35,0)" stroke-width="0.1"/>
 </g>
 <g id="layer0-结构边线" inkscape:groupmode="layer" inkscape:label="0-结构边线">
  <path d="M 98.99867750000021,73.22853699999996 L 100.0,72.55373927300161" fill="none" instance-id="-1" semantic-id="1" stroke="rgb(178,0,178)" stroke-width="0.1"/>
  <path d="M 100.0,74.71772357903558 L 98.99867750000021,73.22853699999996" fill="none" instance-id="-1" semantic-id="1" stroke="rgb(178,0,178)" stroke-width="0.1"/>
  <path d="M 87.21867750000001,22.691536999999926 L 94.64867750000008,19.741536999999994" fill="none" instance-id="-1" semantic-id="1" stroke="rgb(178,0,178)" stroke-width="0.1"/>
  <path d="M 94.64867750000008,19.741536999999994 L 91.69867750000003,12.305536999999958" fill="none" instance-id="-1" semantic-id="1" stroke="rgb(178,0,178)" stroke-width="0.1"/>
  <path d="M 84.2686775000002,15.255537000000004 L 91.69867750000003,12.305536999999958" fill="none" instance-id="-1" semantic-id="1" stroke="rgb(178,0,178)" stroke-width="0.1"/>
  <path d="M 87.21867750000001,22.691536999999926 L 84.2686775000002,15.255537000000004" fill="none" instance-id="-1" semantic-id="1" stroke="rgb(178,0,178)" stroke-width="0.1"/>
  <path d="M 9.138677500000085,53.667536999999925 L 16.56867750000015,50.71753699999999" fill="none" instance-id="-1" semantic-id="1" stroke="rgb(178,0,178)" stroke-width="0.1"/>
  <path d="M 16.56867750000015,50.71753699999999 L 13.618677500000103,43.28153699999996" fill="none" instance-id="-1" semantic-id="1" stroke="rgb(178,0,178)" stroke-width="0.1"/>
  <path d="M 6.18867750000004,46.231537 L 13.618677500000103,43.28153699999996" fill="none" instance-id="-1" semantic-id="1" stroke="rgb(178,0,178)" stroke-width="0.1"/>
  <path d="M 9.138677500000085,53.667536999999925 L 6.18867750000004,46.231537" fill="none" instance-id="-1" semantic-id="1" stroke="rgb(178,0,178)" stroke-width="0.1"/>
 </g>
 <g id="layerA-留洞" inkscape:groupmode="layer" inkscape:label="A-留洞">
  <path d="M 85.74383638904851,0.0 L 90.77867750000019,12.694536999999968" fill="none" stroke="rgb(0,178,178)" stroke-width="0.1"/>
  <path d="M 90.77867750000019,12.694536999999968 L 85.82867750000014,1.943536999999992" fill="none" stroke="rgb(0,178,178)" stroke-width="0.1"/>
  <path d="M 85.82867750000014,1.943536999999992 L 82.68883105225314,0.0" fill="none" stroke="rgb(0,178,178)" stroke-width="0.1"/>
  <path d="M 82.51518043265446,0.0 L 87.98867750000022,13.800536999999963" fill="none" stroke="rgb(0,178,178)" stroke-width="0.1"/>
  <path d="M 87.98867750000022,13.800536999999963 L 90.77867750000019,12.694536999999968" fill="none" stroke="rgb(0,178,178)" stroke-width="0.1"/>
  <path d="M 0.0,52.98883426901011 L 7.658677500000067,49.949536999999964" fill="none" stroke="rgb(0,178,178)" stroke-width="0.1"/>
  <path d="M 7.658677500000067,49.949536999999964 L 19.09867750000012,78.76153699999998" fill="none" stroke="rgb(0,178,178)" stroke-width="0.1"/>
  <path d="M 19.09867750000012,78.76153699999998 L 7.128677500000094,57.23553700000002" fill="none" stroke="rgb(0,178,178)" stroke-width="0.1"/>
  <path d="M 7.128677500000094,57.23553700000002 L 0.0,56.30312086763604" fill="none" stroke="rgb(0,178,178)" stroke-width="0.1"/>
  <path d="M 0.0,71.31398680096208 L 5.148677500000076,84.29153699999995" fill="none" stroke="rgb(0,178,178)" stroke-width="0.1"/>
  <path d="M 5.148677500000076,84.29153699999995 L 19.09867750000012,78.76153699999998" fill="none" stroke="rgb(0,178,178)" stroke-width="0.1"/>
  <path d="M 11.278677500000185,99.741537 L 23.56867750000015,91.42153699999994" fill="none" stroke="rgb(0,178,178)" stroke-width="0.1"/>
  <path d="M 23.56867750000015,91.42153699999994 L 19.358677500000113,80.78153699999996" fill="none" stroke="rgb(0,178,178)" stroke-width="0.1"/>
  <path d="M 19.358677500000113,80.78153699999996 L 12.82867750000014,89.70153699999992" fill="none" stroke="rgb(0,178,178)" stroke-width="0.1"/>
  <path d="M 12.82867750000014,89.70153699999992 L 11.278677500000185,99.741537" fill="none" stroke="rgb(0,178,178)" stroke-width="0.1"/>
  <path d="M 11.278677500000185,99.741537 L 5.888677500000085,86.15153699999996" fill="none" stroke="rgb(0,178,178)" stroke-width="0.1"/>
  <path d="M 5.888677500000085,86.15153699999996 L 19.358677500000113,80.78153699999996" fill="none" stroke="rgb(0,178,178)" stroke-width="0.1"/>
 </g>
 <g id="layerA-车位" inkscape:groupmode="layer" inkscape:label="A-车位">
  <path d="M 0.0,90.922082172297 L 6.112519738398532,99.99999999999989" fill="none" instance-id="-1" semantic-id="35" stroke="rgb(0,0,178)" stroke-width="0.1"/>
  <path d="M 1.3386775000001307,97.38153699999998 L 0.0,98.28474109638557" fill="none" instance-id="-1" semantic-id="35" stroke="rgb(0,0,178)" stroke-width="0.1"/>
  <path d="M 1.6186775000001035,97.80153699999994 L 0.0,98.88975633132532" fill="none" instance-id="-1" semantic-id="35" stroke="rgb(0,0,178)" stroke-width="0.1"/>
  <path d="M 0.7786775000001853,96.56153699999993 L 0.0,97.08503343975906" fill="none" instance-id="-1" semantic-id="35" stroke="rgb(0,0,178)" stroke-width="0.1"/>
  <path d="M 0.7786775000001853,96.56153699999993 L 1.6186775000001035,97.80153699999994" fill="none" instance-id="-1" semantic-id="35" stroke="rgb(0,0,178)" stroke-width="0.1"/>
  <path d="M 100.0,38.9070913667623 L 90.45867750000002,24.730536999999913" fill="none" instance-id="-1" semantic-id="35" stroke="rgb(0,0,178)" stroke-width="0.1"/>
  <path d="M 90.45867750000002,24.730536999999913 L 100.0,18.304288484045173" fill="none" instance-id="-1" semantic-id="35" stroke="rgb(0,0,178)" stroke-width="0.1"/>
  <path d="M 100.0,30.960097543975962 L 98.38867750000009,32.04453699999999" fill="none" instance-id="-1" semantic-id="35" stroke="rgb(0,0,178)" stroke-width="0.1"/>
  <path d="M 100.0,31.563540917469936 L 98.66867750000006,32.459536999999955" fill="none" instance-id="-1" semantic-id="35" stroke="rgb(0,0,178)" stroke-width="0.1"/>
  <path d="M 100.0,29.753734007229014 L 97.82867750000014,31.21453699999995" fill="none" instance-id="-1" semantic-id="35" stroke="rgb(0,0,178)" stroke-width="0.1"/>
  <path d="M 97.82867750000014,31.21453699999995 L 98.66867750000006,32.459536999999955" fill="none" instance-id="-1" semantic-id="35" stroke="rgb(0,0,178)" stroke-width="0.1"/>
 </g>
 <g id="layerCOLUMN" inkscape:groupmode="layer" inkscape:label="COLUMN">
  <path d="M 13.618677500000103,43.28153699999996 L 50.80867750000016,28.53053699999998" fill="none" instance-id="-1" semantic-id="1" stroke="rgb(178,178,0)" stroke-width="0.1"/>
  <path d="M 15.83867750000013,48.858536999999956 L 53.018677500000194,34.10753699999998" fill="none" instance-id="-1" semantic-id="1" stroke="rgb(178,178,0)" stroke-width="0.1"/>
  <path d="M 50.80867750000016,28.53053699999998 L 53.018677500000194,34.10753699999998" fill="none" instance-id="-1" semantic-id="1" stroke="rgb(178,178,0)" stroke-width="0.1"/>
  <path d="M 100.0,72.55373927300161 L 98.99867750000021,73.22853699999996" fill="none" instance-id="-1" semantic-id="1" stroke="rgb(178,178,0)" stroke-width="0.1"/>
  <path d="M 98.99867750000021,73.22853699999996 L 100.0,74.71772357903558" fill="none" instance-id="-1" semantic-id="1" stroke="rgb(178,178,0)" stroke-width="0.1"/>
  <path d="M 87.21867750000001,22.691536999999926 L 94.64867750000008,19.741536999999994" fill="none" instance-id="-1" semantic-id="1" stroke="rgb(178,178,0)" stroke-width="0.1"/>
  <path d="M 94.64867750000008,19.741536999999994 L 91.69867750000003,12.305536999999958" fill="none" instance-id="-1" semantic-id="1" stroke="rgb(178,178,0)" stroke-width="0.1"/>
  <path d="M 91.69867750000003,12.305536999999958 L 84.2686775000002,15.255537000000004" fill="none" instance-id="-1" semantic-id="1" stroke="rgb(178,178,0)" stroke-width="0.1"/>
  <path d="M 84.2686775000002,15.255537000000004 L 87.21867750000001,22.691536999999926" fill="none" instance-id="-1" semantic-id="1" stroke="rgb(178,178,0)" stroke-width="0.1"/>
  <path d="M 9.138677500000085,53.667536999999925 L 16.56867750000015,50.71753699999999" fill="none" instance-id="-1" semantic-id="1" stroke="rgb(178,178,0)" stroke-width="0.1"/>
  <path d="M 16.56867750000015,50.71753699999999 L 13.618677500000103,43.28153699999996" fill="none" instance-id="-1" semantic-id="1" stroke="rgb(178,178,0)" stroke-width="0.1"/>
  <path d="M 13.618677500000103,43.28153699999996 L 6.18867750000004,46.231537" fill="none" instance-id="-1" semantic-id="1" stroke="rgb(178,178,0)" stroke-width="0.1"/>
  <path d="M 6.18867750000004,46.231537 L 9.138677500000085,53.667536999999925" fill="none" instance-id="-1" semantic-id="1" stroke="rgb(178,178,0)" stroke-width="0.1"/>
 </g>
 <g id="layerDIM_IDEN" inkscape:groupmode="layer" inkscape:label="DIM_IDEN">
  <path d="M 65.66867750000006,6.161536999999953 L 51.71867750000001,11.692537000000016" fill="none" stroke="rgb(0,178,0)" stroke-width="0.1"/>
  <path d="M 13.548677500000167,26.83553699999993 L 51.71867750000001,11.692537000000016" fill="none" stroke="rgb(0,178,0)" stroke-width="0.1"/>
  <path d="M 24.508677500000204,54.442537000000016 L 13.548677500000167,26.83553699999993" fill="none" stroke="rgb(0,178,0)" stroke-width="0.1"/>
  <circle cx="58.68867750000004" cy="8.927536999999916" fill="none" r="7.5" stroke="rgb(0,178,0)" stroke-width="0.1"/>
 </g>
 <g id="layerDIM_SYMB" inkscape:groupmode="layer" inkscape:label="DIM_SYMB">
  <path d="M 68.74867750000021,51.53353699999991 L 62.05867750000016,54.188537" fill="none" stroke="rgb(0,178,0)" stroke-width="0.1"/>
  <path d="M 62.05867750000016,54.188537 L 57.878677500000094,55.848536999999965" fill="none" stroke="rgb(0,178,0)" stroke-width="0.1"/>
  <path d="M 63.21867750000001,37.59053699999993 L 20.278677500000185,54.62753699999996" fill="none" stroke="rgb(0,178,0)" stroke-width="0.1"/>
  <path d="M 20.278677500000185,54.62753699999996 L 25.808677500000158,68.57053699999994" fill="none" stroke="rgb(0,178,0)" stroke-width="0.1"/>
  <path d="M 25.808677500000158,68.57053699999994 L 51.278677500000185,58.46653700000002" fill="none" stroke="rgb(0,178,0)" stroke-width="0.1"/>
  <path d="M 51.278677500000185,58.46653700000002 L 55.45867750000002,56.806536999999935" fill="none" stroke="rgb(0,178,0)" stroke-width="0.1"/>
 </g>
 <g id="layerDOOR_FIRE" inkscape:groupmode="layer" inkscape:label="DOOR_FIRE">
  <path d="M 94.70867750000002,44.802536999999916 L 87.1286775000001,33.55153699999994" fill="none" instance-id="1" semantic-id="4" stroke="rgb(0,178,178)" stroke-width="0.1"/>
  <path d="M 80.5086775000002,54.33153699999991 L 77.96867750000001,50.56853699999999" fill="none" instance-id="1" semantic-id="4" stroke="rgb(0,178,178)" stroke-width="0.1"/>
  <path d="M 80.1286775000001,54.582537 L 77.59867750000012,50.81953699999997" fill="none" instance-id="1" semantic-id="4" stroke="rgb(0,178,178)" stroke-width="0.1"/>
  <path d="M 95.07867750000014,44.55153699999994 L 87.49867750000021,33.29953699999999" fill="none" instance-id="1" semantic-id="4" stroke="rgb(0,178,178)" stroke-width="0.1"/>
  <path d="M 94.70867750000002,44.802536999999916 L 95.07867750000014,44.55153699999994" fill="none" instance-id="1" semantic-id="4" stroke="rgb(0,178,178)" stroke-width="0.1"/>
  <path d="M 80.5086775000002,54.33153699999991 L 80.1286775000001,54.582537" fill="none" instance-id="1" semantic-id="4" stroke="rgb(0,178,178)" stroke-width="0.1"/>
  <path d="M 87.1286775000001,33.55153699999994 L 87.49867750000021,33.29953699999999" fill="none" instance-id="1" semantic-id="4" stroke="rgb(0,178,178)" stroke-width="0.1"/>
  <path d="M 77.96867750000001,50.56853699999999 L 77.59867750000012,50.81953699999997" fill="none" instance-id="1" semantic-id="4" stroke="rgb(0,178,178)" stroke-width="0.1"/>
  <path d="M 87.1286775000001,33.55153699999994 A 13.5832,13.5832 0.0 0,0 83.84867750000012,52.043537000000015" fill="none" instance-id="1" semantic-id="4" stroke="rgb(0,178,178)" stroke-width="0.1"/>
  <path d="M 83.84867750000012,52.04453699999999 A 4.51428,4.51428 0.0 0,0 77.96867750000001,50.56853699999999" fill="none" instance-id="1" semantic-id="4" stroke="rgb(0,178,178)" stroke-width="0.1"/>
 </g>
 <g id="layerDOOR_FIRE_TEXT" inkscape:groupmode="layer" inkscape:label="DOOR_FIRE_TEXT">
  <text fill="rgb(0,0,0)" font-family="Noto Sans CJK SC" font-size="2" transform="rotate(-33.9518,85.73867750000022,60.73853699999995)" x="85.73867750000022" y="60.73853699999995">
   FM
  </text>
  <text fill="rgb(0,0,0)" font-family="Noto Sans CJK SC" font-size="2" transform="rotate(-33.9518,88.79867750000017,58.68053699999996)" x="88.79867750000017" y="58.68053699999996">
   乙
  </text>
  <text fill="rgb(0,0,0)" font-family="Noto Sans CJK SC" font-size="2" transform="rotate(-33.9518,91.6186775000001,56.78053699999998)" x="91.6186775000001" y="56.78053699999998">
   1823a
  </text>
 </g>
 <g id="layerPUB_HATCH" inkscape:groupmode="layer" inkscape:label="PUB_HATCH">
  <path d="M 13.618677500000103,43.28153699999996 L 15.83867750000013,48.858536999999956" fill="none" stroke="rgb(63,63,63)" stroke-width="0.1"/>
  <path d="M 15.83867750000013,48.858536999999956 L 53.018677500000194,34.10753699999998" fill="none" stroke="rgb(63,63,63)" stroke-width="0.1"/>
  <path d="M 53.018677500000194,34.10753699999998 L 50.80867750000016,28.53053699999998" fill="none" stroke="rgb(63,63,63)" stroke-width="0.1"/>
  <path d="M 50.80867750000016,28.53053699999998 L 13.618677500000103,43.28153699999996" fill="none" stroke="rgb(63,63,63)" stroke-width="0.1"/>
 </g>
 <g id="layerPUB_TEXT" inkscape:groupmode="layer" inkscape:label="PUB_TEXT">
  <text fill="rgb(0,0,0)" font-family="Noto Sans CJK SC" font-size="2" transform="rotate(-21.6395,13.798677500000167,5.663537000000019)" x="13.798677500000167" y="5.663537000000019">
   指挥家
  </text>
  <text fill="rgb(0,0,0)" font-family="Noto Sans CJK SC" font-size="2" transform="rotate(-21.6395,17.33867750000013,14.587536999999998)" x="17.33867750000013" y="14.587536999999998">
   休息
  </text>
  <text fill="rgb(0,0,0)" font-family="Noto Sans CJK SC" font-size="2" transform="rotate(-21.6395,1.8986775000000762,72.19853699999999)" x="1.8986775000000762" y="72.19853699999999">
   排风
  </text>
  <text fill="rgb(0,0,0)" font-family="Noto Sans CJK SC" font-size="2" transform="rotate(-21.6395,13.348677500000122,92.991537)" x="13.348677500000122" y="92.991537">
   正压
  </text>
  <text fill="rgb(0,0,0)" font-family="Noto Sans CJK SC" font-size="2" transform="rotate(-21.6391,70.34867750000012,40.00253699999996)" x="70.34867750000012" y="40.00253699999996">
   LTA7
  </text>
  <text fill="rgb(0,0,0)" font-family="Noto Sans CJK SC" font-size="2" transform="rotate(-0.0,70.21867750000001,53.57753700000001)" x="70.21867750000001" y="53.57753700000001">
   上
  </text>
  <text fill="rgb(0,0,0)" font-family="Noto Sans CJK SC" font-size="2" transform="rotate(-0.0,64.68867750000004,39.63453700000002)" x="64.68867750000004" y="39.63453700000002">
   下
  </text>
  <text fill="rgb(0,0,0)" font-family="Noto Sans CJK SC" font-size="2" transform="rotate(-21.6395,17.84867750000012,23.43753700000002)" x="17.84867750000012" y="23.43753700000002">
   LTA7
  </text>
  <text fill="rgb(0,0,0)" font-family="Noto Sans CJK SC" font-size="2" transform="rotate(-21.6395,31.22867750000023,18.12753699999996)" x="31.22867750000023" y="18.12753699999996">
   详见子项
  </text>
  <text fill="rgb(0,0,0)" font-family="Noto Sans CJK SC" font-size="2" transform="rotate(-21.6395,44.93867750000004,12.69053699999995)" x="44.93867750000004" y="12.69053699999995">
   02
  </text>
  <text fill="rgb(0,0,0)" font-family="Noto Sans CJK SC" font-size="2" transform="rotate(-21.6395,44.95867750000002,20.872536999999966)" x="44.95867750000002" y="20.872536999999966">
   41-
  </text>
  <text fill="rgb(0,0,0)" font-family="Noto Sans CJK SC" font-size="2" transform="rotate(-21.6395,56.96867750000001,8.11753699999997)" x="56.96867750000001" y="8.11753699999997">
   -
  </text>
  <text fill="rgb(0,0,0)" font-family="Noto Sans CJK SC" font-size="2" transform="rotate(-21.6395,57.1186775000001,14.164536999999996)" x="57.1186775000001" y="14.164536999999996">
   006
  </text>
 </g>
 <g id="layerSTAIR" inkscape:groupmode="layer" inkscape:label="STAIR">
  <path d="M 70.1286775000001,58.519537000000014 L 63.038677500000176,61.32953699999996" fill="none" instance-id="2" semantic-id="30" stroke="rgb(178,88,0)" stroke-width="0.1"/>
  <path d="M 61.99867750000021,61.74253699999997 L 36.288677500000176,71.94253700000002" fill="none" instance-id="2" semantic-id="30" stroke="rgb(178,88,0)" stroke-width="0.1"/>
  <path d="M 70.1286775000001,58.519537000000014 L 65.17867750000005,46.063537" fill="none" instance-id="2" semantic-id="30" stroke="rgb(178,88,0)" stroke-width="0.1"/>
  <path d="M 67.70867750000002,59.47853699999996 L 62.768677500000194,47.02253699999994" fill="none" instance-id="2" semantic-id="30" stroke="rgb(178,88,0)" stroke-width="0.1"/>
  <path d="M 65.28867750000018,60.43753700000002 L 60.34867750000012,47.981537" fill="none" instance-id="2" semantic-id="30" stroke="rgb(178,88,0)" stroke-width="0.1"/>
  <path d="M 62.73867750000022,61.06253700000002 L 57.92867750000005,48.94053699999995" fill="none" instance-id="2" semantic-id="30" stroke="rgb(178,88,0)" stroke-width="0.1"/>
  <path d="M 60.45867750000002,62.35453699999994 L 59.23867750000022,59.28553699999998" fill="none" instance-id="2" semantic-id="30" stroke="rgb(178,88,0)" stroke-width="0.1"/>
  <path d="M 58.41867750000006,57.21653700000002 L 55.518677500000194,49.89953700000001" fill="none" instance-id="2" semantic-id="30" stroke="rgb(178,88,0)" stroke-width="0.1"/>
  <path d="M 58.038677500000176,63.313537 L 54.91867750000006,55.438537" fill="none" instance-id="2" semantic-id="30" stroke="rgb(178,88,0)" stroke-width="0.1"/>
  <path d="M 54.09867750000012,53.36953699999992 L 53.09867750000012,50.85753699999998" fill="none" instance-id="2" semantic-id="30" stroke="rgb(178,88,0)" stroke-width="0.1"/>
  <path d="M 55.628677500000094,64.27253699999994 L 50.67867750000005,51.816536999999926" fill="none" instance-id="2" semantic-id="30" stroke="rgb(178,88,0)" stroke-width="0.1"/>
  <path d="M 53.20867750000002,65.231537 L 48.268677500000194,52.775536999999986" fill="none" instance-id="2" semantic-id="30" stroke="rgb(178,88,0)" stroke-width="0.1"/>
  <path d="M 50.788677500000176,66.18953699999997 L 45.84867750000012,53.73453699999993" fill="none" instance-id="2" semantic-id="30" stroke="rgb(178,88,0)" stroke-width="0.1"/>
  <path d="M 48.378677500000094,67.14853699999992 L 43.42867750000005,54.69353699999999" fill="none" instance-id="2" semantic-id="30" stroke="rgb(178,88,0)" stroke-width="0.1"/>
  <path d="M 45.95867750000002,68.10753699999998 L 41.018677500000194,55.65153699999996" fill="none" instance-id="2" semantic-id="30" stroke="rgb(178,88,0)" stroke-width="0.1"/>
  <path d="M 43.538677500000176,69.06653699999993 L 38.59867750000012,56.61053700000002" fill="none" instance-id="2" semantic-id="30" stroke="rgb(178,88,0)" stroke-width="0.1"/>
  <path d="M 41.128677500000094,70.02553699999999 L 36.17867750000005,57.56953699999997" fill="none" instance-id="2" semantic-id="30" stroke="rgb(178,88,0)" stroke-width="0.1"/>
  <path d="M 38.70867750000002,70.98353699999996 L 33.768677500000194,58.528536999999915" fill="none" instance-id="2" semantic-id="30" stroke="rgb(178,88,0)" stroke-width="0.1"/>
  <path d="M 36.288677500000176,71.94253700000002 L 31.34867750000012,59.487536999999975" fill="none" instance-id="2" semantic-id="30" stroke="rgb(178,88,0)" stroke-width="0.1"/>
  <path d="M 64.95867750000002,45.50653699999998 L 51.33867750000013,50.91253699999993" fill="none" instance-id="2" semantic-id="30" stroke="rgb(178,88,0)" stroke-width="0.1"/>
  <path d="M 50.29867750000017,51.32553699999994 L 31.128677500000094,58.92953699999998" fill="none" instance-id="2" semantic-id="30" stroke="rgb(178,88,0)" stroke-width="0.1"/>
  <path d="M 61.99867750000021,61.74253699999997 L 56.90867750000007,57.209536999999955" fill="none" instance-id="2" semantic-id="30" stroke="rgb(178,88,0)" stroke-width="0.1"/>
  <path d="M 63.038677500000176,61.32953699999996 L 57.768677500000194,56.640536999999995" fill="none" instance-id="2" semantic-id="30" stroke="rgb(178,88,0)" stroke-width="0.1"/>
  <path d="M 57.768677500000194,56.640536999999995 L 56.278677500000185,57.62053700000001" fill="none" instance-id="2" semantic-id="30" stroke="rgb(178,88,0)" stroke-width="0.1"/>
  <path d="M 56.278677500000185,57.62053700000001 L 57.278677500000185,55.12053700000001" fill="none" instance-id="2" semantic-id="30" stroke="rgb(178,88,0)" stroke-width="0.1"/>
  <path d="M 57.278677500000185,55.12053700000001 L 55.70867750000002,56.14753699999994" fill="none" instance-id="2" semantic-id="30" stroke="rgb(178,88,0)" stroke-width="0.1"/>
  <path d="M 55.70867750000002,56.14753699999994 L 50.29867750000017,51.32553699999994" fill="none" instance-id="2" semantic-id="30" stroke="rgb(178,88,0)" stroke-width="0.1"/>
  <path d="M 56.57867750000014,55.57853699999998 L 51.33867750000013,50.91253699999993" fill="none" instance-id="2" semantic-id="30" stroke="rgb(178,88,0)" stroke-width="0.1"/>
  <path d="M 25.59867750000012,44.986537 L 59.42867750000005,31.563536999999997" fill="none" instance-id="2" semantic-id="30" stroke="rgb(178,88,0)" stroke-width="0.1"/>
  <path d="M 25.59867750000012,44.986537 L 30.538677500000176,57.442537000000016" fill="none" instance-id="2" semantic-id="30" stroke="rgb(178,88,0)" stroke-width="0.1"/>
  <path d="M 28.008677500000204,44.02753699999994 L 32.95867750000002,56.483536999999956" fill="none" instance-id="2" semantic-id="30" stroke="rgb(178,88,0)" stroke-width="0.1"/>
  <path d="M 30.42867750000005,43.06853699999999 L 35.3686775000001,55.52453700000001" fill="none" instance-id="2" semantic-id="30" stroke="rgb(178,88,0)" stroke-width="0.1"/>
  <path d="M 32.84867750000012,42.11053700000002 L 37.788677500000176,54.56553699999995" fill="none" instance-id="2" semantic-id="30" stroke="rgb(178,88,0)" stroke-width="0.1"/>
  <path d="M 35.2586775000002,41.15153699999996 L 40.20867750000002,53.606537" fill="none" instance-id="2" semantic-id="30" stroke="rgb(178,88,0)" stroke-width="0.1"/>
  <path d="M 37.67867750000005,40.192537000000016 L 42.6186775000001,52.64853699999992" fill="none" instance-id="2" semantic-id="30" stroke="rgb(178,88,0)" stroke-width="0.1"/>
  <path d="M 40.09867750000012,39.233536999999956 L 45.038677500000176,51.68953699999997" fill="none" instance-id="2" semantic-id="30" stroke="rgb(178,88,0)" stroke-width="0.1"/>
  <path d="M 42.5086775000002,38.27453700000001 L 47.45867750000002,50.73053699999991" fill="none" instance-id="2" semantic-id="30" stroke="rgb(178,88,0)" stroke-width="0.1"/>
  <path d="M 44.92867750000005,37.316536999999926 L 49.8686775000001,49.77153699999997" fill="none" instance-id="2" semantic-id="30" stroke="rgb(178,88,0)" stroke-width="0.1"/>
  <path d="M 47.34867750000012,36.35753699999998 L 52.288677500000176,48.81253700000002" fill="none" instance-id="2" semantic-id="30" stroke="rgb(178,88,0)" stroke-width="0.1"/>
  <path d="M 49.7586775000002,35.39853699999992 L 54.70867750000002,47.85453699999994" fill="none" instance-id="2" semantic-id="30" stroke="rgb(178,88,0)" stroke-width="0.1"/>
  <path d="M 52.17867750000005,34.43953699999997 L 57.1186775000001,46.89553699999999" fill="none" instance-id="2" semantic-id="30" stroke="rgb(178,88,0)" stroke-width="0.1"/>
  <path d="M 54.59867750000012,33.48053699999991 L 59.538677500000176,45.93653699999993" fill="none" instance-id="2" semantic-id="30" stroke="rgb(178,88,0)" stroke-width="0.1"/>
  <path d="M 57.018677500000194,32.52253699999994 L 61.95867750000002,44.977536999999984" fill="none" instance-id="2" semantic-id="30" stroke="rgb(178,88,0)" stroke-width="0.1"/>
  <path d="M 59.42867750000005,31.563536999999997 L 64.3686775000001,44.018536999999924" fill="none" instance-id="2" semantic-id="30" stroke="rgb(178,88,0)" stroke-width="0.1"/>
  <path d="M 30.758677500000204,57.99953699999992 L 64.58867750000013,44.57653699999992" fill="none" instance-id="2" semantic-id="30" stroke="rgb(178,88,0)" stroke-width="0.1"/>
  <path d="M 65.7686775000002,43.46553699999993 L 66.57867750000014,45.510537" fill="none" instance-id="2" semantic-id="30" stroke="rgb(178,88,0)" stroke-width="0.1"/>
  <path d="M 66.57867750000014,45.510537 L 51.83867750000013,51.35953699999993" fill="none" instance-id="2" semantic-id="30" stroke="rgb(178,88,0)" stroke-width="0.1"/>
  <path d="M 50.79867750000017,51.77153699999997 L 29.95867750000002,60.04053699999997" fill="none" instance-id="2" semantic-id="30" stroke="rgb(178,88,0)" stroke-width="0.1"/>
  <path d="M 29.95867750000002,60.04053699999997 L 29.138677500000085,57.99553700000001" fill="none" instance-id="2" semantic-id="30" stroke="rgb(178,88,0)" stroke-width="0.1"/>
  <path d="M 29.138677500000085,57.99553700000001 L 65.7686775000002,43.46553699999993" fill="none" instance-id="2" semantic-id="30" stroke="rgb(178,88,0)" stroke-width="0.1"/>
  <path d="M 65.42867750000005,44.24453699999992 L 65.79867750000017,45.17453699999999" fill="none" instance-id="2" semantic-id="30" stroke="rgb(178,88,0)" stroke-width="0.1"/>
  <path d="M 65.79867750000017,45.17453699999999 L 51.33867750000013,50.91253699999993" fill="none" instance-id="2" semantic-id="30" stroke="rgb(178,88,0)" stroke-width="0.1"/>
  <path d="M 50.29867750000017,51.32553699999994 L 30.288677500000176,59.261536999999976" fill="none" instance-id="2" semantic-id="30" stroke="rgb(178,88,0)" stroke-width="0.1"/>
  <path d="M 30.288677500000176,59.261536999999976 L 29.918677500000058,58.33153699999991" fill="none" instance-id="2" semantic-id="30" stroke="rgb(178,88,0)" stroke-width="0.1"/>
  <path d="M 29.918677500000058,58.33153699999991 L 65.42867750000005,44.24453699999992" fill="none" instance-id="2" semantic-id="30" stroke="rgb(178,88,0)" stroke-width="0.1"/>
  <path d="M 31.128677500000094,58.92953699999998 L 30.758677500000204,57.99953699999992" fill="none" instance-id="2" semantic-id="30" stroke="rgb(178,88,0)" stroke-width="0.1"/>
  <path d="M 64.95867750000002,45.50653699999998 L 64.58867750000013,44.57653699999992" fill="none" instance-id="2" semantic-id="30" stroke="rgb(178,88,0)" stroke-width="0.1"/>
  <path d="M 25.59867750000012,44.986537 A 14.5,14.5 0.0 1,0 36.288677500000176,71.94253700000002" fill="none" instance-id="2" semantic-id="30" stroke="rgb(178,88,0)" stroke-width="0.1"/>
  <path d="M 70.1286775000001,58.519537000000014 A 14.500999413833535,14.500999413833535 0.0 1,0 59.42867750000005,31.563536999999997" fill="none" instance-id="2" semantic-id="30" stroke="rgb(178,88,0)" stroke-width="0.1"/>
 </g>
 <g id="layerWALL" inkscape:groupmode="layer" inkscape:label="WALL">
  <path d="M 19.09867750000012,78.76153699999998 L 9.138677500000085,53.667536999999925" fill="none" instance-id="-1" semantic-id="1" stroke="rgb(178,178,0)" stroke-width="0.1"/>
  <path d="M 20.94867750000003,78.03153699999996 L 10.998677500000213,52.93053699999996" fill="none" instance-id="-1" semantic-id="1" stroke="rgb(178,178,0)" stroke-width="0.1"/>
  <path d="M 89.07867750000014,21.953536999999983 L 97.78867750000018,43.90153699999996" fill="none" instance-id="-1" semantic-id="1" stroke="rgb(178,178,0)" stroke-width="0.1"/>
  <path d="M 86.84867750000012,21.762536999999952 L 87.21867750000001,22.691536999999926" fill="none" instance-id="-1" semantic-id="1" stroke="rgb(178,178,0)" stroke-width="0.1"/>
  <path d="M 87.21867750000001,22.691536999999926 L 95.33867750000013,43.14153699999997" fill="none" instance-id="-1" semantic-id="1" stroke="rgb(178,178,0)" stroke-width="0.1"/>
  <path d="M 91.69867750000003,12.305536999999958 L 100.0,9.01327276410916" fill="none" instance-id="-1" semantic-id="1" stroke="rgb(178,178,0)" stroke-width="0.1"/>
  <path d="M 92.43867750000004,14.164536999999996 L 100.0,11.164353835394309" fill="none" instance-id="-1" semantic-id="1" stroke="rgb(178,178,0)" stroke-width="0.1"/>
  <path d="M 13.618677500000103,43.28153699999996 L 56.288677500000176,26.355536999999913" fill="none" instance-id="-1" semantic-id="1" stroke="rgb(178,178,0)" stroke-width="0.1"/>
  <path d="M 14.358677500000113,45.140536999999995 L 56.09867750000012,28.582537000000002" fill="none" instance-id="-1" semantic-id="1" stroke="rgb(178,178,0)" stroke-width="0.1"/>
  <path d="M 0.0,78.39074220479301 L 0.5186775000001944,78.04153699999995" fill="none" instance-id="-1" semantic-id="1" stroke="rgb(178,178,0)" stroke-width="0.1"/>
  <path d="M 0.0,80.81225584329604 L 1.2786775000001853,79.95153699999992" fill="none" instance-id="-1" semantic-id="1" stroke="rgb(178,178,0)" stroke-width="0.1"/>
  <path d="M 11.278677500000185,99.741537 L 27.408677500000067,88.87153699999999" fill="none" instance-id="-1" semantic-id="1" stroke="rgb(178,178,0)" stroke-width="0.1"/>
  <path d="M 14.470368608129775,99.99999999999989 L 29.158677500000067,90.111537" fill="none" instance-id="-1" semantic-id="1" stroke="rgb(178,178,0)" stroke-width="0.1"/>
  <path d="M 0.0,48.68703188908228 L 6.18867750000004,46.231537" fill="none" instance-id="-1" semantic-id="1" stroke="rgb(178,178,0)" stroke-width="0.1"/>
  <path d="M 0.0,50.838167389247246 L 6.928677500000049,48.09053699999993" fill="none" instance-id="-1" semantic-id="1" stroke="rgb(178,178,0)" stroke-width="0.1"/>
  <path d="M 5.148677500000076,84.29153699999995 L 19.09867750000012,78.76153699999998" fill="none" instance-id="-1" semantic-id="1" stroke="rgb(178,178,0)" stroke-width="0.1"/>
  <path d="M 5.888677500000085,86.15153699999996 L 20.758677500000204,80.25153699999998" fill="none" instance-id="-1" semantic-id="1" stroke="rgb(178,178,0)" stroke-width="0.1"/>
  <path d="M 9.234000498810929,99.99999999999989 L 3.658677500000067,85.96153700000002" fill="none" instance-id="-1" semantic-id="1" stroke="rgb(178,178,0)" stroke-width="0.1"/>
  <path d="M 11.278677500000185,99.741537 L 5.888677500000085,86.15153699999996" fill="none" instance-id="-1" semantic-id="1" stroke="rgb(178,178,0)" stroke-width="0.1"/>
  <path d="M 0.5186775000001944,78.04153699999995 L 0.0,76.73378359155924" fill="none" instance-id="-1" semantic-id="1" stroke="rgb(178,178,0)" stroke-width="0.1"/>
  <path d="M 2.678677500000049,78.06153699999993 L 0.0,71.31265046159774" fill="none" instance-id="-1" semantic-id="1" stroke="rgb(178,178,0)" stroke-width="0.1"/>
  <path d="M 0.0,25.20690866399059 L 8.048677500000167,45.49353699999995" fill="none" instance-id="-1" semantic-id="1" stroke="rgb(178,178,0)" stroke-width="0.1"/>
  <path d="M 0.0,30.632603158936263 L 6.18867750000004,46.231537" fill="none" instance-id="-1" semantic-id="1" stroke="rgb(178,178,0)" stroke-width="0.1"/>
  <path d="M 80.36791698153525,0.0 L 86.1286775000001,14.517536999999948" fill="none" instance-id="-1" semantic-id="1" stroke="rgb(178,178,0)" stroke-width="0.1"/>
  <path d="M 78.2155059400709,0.0 L 84.2686775000002,15.255537000000004" fill="none" instance-id="-1" semantic-id="1" stroke="rgb(178,178,0)" stroke-width="0.1"/>
  <path d="M 3.658677500000067,85.96153700000002 L 1.2786775000001853,79.95153699999992" fill="none" instance-id="-1" semantic-id="1" stroke="rgb(178,178,0)" stroke-width="0.1"/>
  <path d="M 5.148677500000076,84.29153699999995 L 2.678677500000049,78.06153699999993" fill="none" instance-id="-1" semantic-id="1" stroke="rgb(178,178,0)" stroke-width="0.1"/>
  <path d="M 52.278677500000185,32.24853699999994 L 56.83867750000013,30.441536999999926" fill="none" instance-id="-1" semantic-id="1" stroke="rgb(178,178,0)" stroke-width="0.1"/>
  <path d="M 53.018677500000194,34.10753699999998 L 59.42867750000005,31.563536999999997" fill="none" instance-id="-1" semantic-id="1" stroke="rgb(178,178,0)" stroke-width="0.1"/>
  <path d="M 52.278677500000185,32.24853699999994 L 53.018677500000194,34.10753699999998" fill="none" instance-id="-1" semantic-id="1" stroke="rgb(178,178,0)" stroke-width="0.1"/>
  <path d="M 56.83867750000013,30.441536999999926 L 56.09867750000012,28.582537000000002" fill="none" instance-id="-1" semantic-id="1" stroke="rgb(178,178,0)" stroke-width="0.1"/>
  <path d="M 59.42867750000005,31.563536999999997 L 57.95867750000002,27.845536999999922" fill="none" instance-id="-1" semantic-id="1" stroke="rgb(178,178,0)" stroke-width="0.1"/>
  <path d="M 56.288677500000176,26.355536999999913 L 84.2686775000002,15.255537000000004" fill="none" instance-id="-1" semantic-id="1" stroke="rgb(178,178,0)" stroke-width="0.1"/>
  <path d="M 57.95867750000002,27.845536999999922 L 85.0086775000002,17.114536999999928" fill="none" instance-id="-1" semantic-id="1" stroke="rgb(178,178,0)" stroke-width="0.1"/>
  <path d="M 76.92867750000005,57.949536999999964 L 80.68867750000004,55.41253699999993" fill="none" instance-id="-1" semantic-id="1" stroke="rgb(178,178,0)" stroke-width="0.1"/>
  <path d="M 80.68867750000004,55.41253699999993 L 79.57867750000014,53.75353699999994" fill="none" instance-id="-1" semantic-id="1" stroke="rgb(178,178,0)" stroke-width="0.1"/>
  <path d="M 79.57867750000014,53.75353699999994 L 75.89867750000008,56.22953699999994" fill="none" instance-id="-1" semantic-id="1" stroke="rgb(178,178,0)" stroke-width="0.1"/>
  <path d="M 95.33867750000013,43.14153699999997 L 94.5086775000002,43.70053699999994" fill="none" instance-id="-1" semantic-id="1" stroke="rgb(178,178,0)" stroke-width="0.1"/>
  <path d="M 94.5086775000002,43.70053699999994 L 95.6186775000001,45.35953699999993" fill="none" instance-id="-1" semantic-id="1" stroke="rgb(178,178,0)" stroke-width="0.1"/>
  <path d="M 95.6186775000001,45.35953699999993 L 97.78867750000018,43.90153699999996" fill="none" instance-id="-1" semantic-id="1" stroke="rgb(178,178,0)" stroke-width="0.1"/>
  <path d="M 20.94867750000003,78.03153699999996 L 23.73867750000022,76.92153699999994" fill="none" instance-id="-1" semantic-id="1" stroke="rgb(178,178,0)" stroke-width="0.1"/>
  <path d="M 20.758677500000204,80.25153699999998 L 23.548677500000167,79.15153699999996" fill="none" instance-id="-1" semantic-id="1" stroke="rgb(178,178,0)" stroke-width="0.1"/>
  <path d="M 27.408677500000067,88.87153699999999 L 23.548677500000167,79.15153699999996" fill="none" instance-id="-1" semantic-id="1" stroke="rgb(178,178,0)" stroke-width="0.1"/>
  <path d="M 29.108677500000113,87.731537 L 25.408677500000067,78.41153699999995" fill="none" instance-id="-1" semantic-id="1" stroke="rgb(178,178,0)" stroke-width="0.1"/>
  <path d="M 29.108677500000113,87.731537 L 68.1186775000001,61.46853699999997" fill="none" instance-id="-1" semantic-id="1" stroke="rgb(178,178,0)" stroke-width="0.1"/>
  <path d="M 29.158677500000067,90.111537 L 76.92867750000005,57.949536999999964" fill="none" instance-id="-1" semantic-id="1" stroke="rgb(178,178,0)" stroke-width="0.1"/>
  <path d="M 23.73867750000022,76.92153699999994 L 75.89867750000008,56.22953699999994" fill="none" instance-id="-1" semantic-id="1" stroke="rgb(178,178,0)" stroke-width="0.1"/>
  <path d="M 25.408677500000067,78.41153699999995 L 68.1186775000001,61.46853699999997" fill="none" instance-id="-1" semantic-id="1" stroke="rgb(178,178,0)" stroke-width="0.1"/>
 </g>
 <g id="layers-消火栓" inkscape:groupmode="layer" inkscape:label="s-消火栓">
  <path d="M 89.42867750000005,28.268536999999924 L 84.6186775000001,22.646536999999967" fill="none" instance-id="3" semantic-id="19" stroke="rgb(178,88,0)" stroke-width="0.1"/>
  <path d="M 41.538677500000176,81.77153699999997 L 48.67867750000005,79.861537" fill="none" instance-id="4" semantic-id="19" stroke="rgb(178,88,0)" stroke-width="0.1"/>
  <path d="M 87.19867750000003,29.153536999999915 L 84.6186775000001,22.646536999999967" fill="none" instance-id="3" semantic-id="19" stroke="rgb(178,88,0)" stroke-width="0.1"/>
  <path d="M 84.6186775000001,22.646536999999967 L 86.84867750000012,21.761536999999976" fill="none" instance-id="3" semantic-id="19" stroke="rgb(178,88,0)" stroke-width="0.1"/>
  <path d="M 86.84867750000012,21.761536999999976 L 89.42867750000005,28.268536999999924" fill="none" instance-id="3" semantic-id="19" stroke="rgb(178,88,0)" stroke-width="0.1"/>
  <path d="M 89.42867750000005,28.268536999999924 L 87.19867750000003,29.153536999999915" fill="none" instance-id="3" semantic-id="19" stroke="rgb(178,88,0)" stroke-width="0.1"/>
  <path d="M 42.878677500000094,83.77153699999997 L 48.67867750000005,79.861537" fill="none" instance-id="4" semantic-id="19" stroke="rgb(178,88,0)" stroke-width="0.1"/>
  <path d="M 48.67867750000005,79.861537 L 47.33867750000013,77.87153699999999" fill="none" instance-id="4" semantic-id="19" stroke="rgb(178,88,0)" stroke-width="0.1"/>
  <path d="M 47.33867750000013,77.87153699999999 L 41.538677500000176,81.77153699999997" fill="none" instance-id="4" semantic-id="19" stroke="rgb(178,88,0)" stroke-width="0.1"/>
  <path d="M 41.538677500000176,81.77153699999997 L 42.878677500000094,83.77153699999997" fill="none" instance-id="4" semantic-id="19" stroke="rgb(178,88,0)" stroke-width="0.1"/>
  <path d="M 84.6186775000001,22.646536999999967 L 89.42867750000005,28.268536999999924" fill="none" instance-id="3" semantic-id="19" stroke="rgb(178,88,0)" stroke-width="0.1"/>
  <path d="M 89.42867750000005,28.268536999999924 L 86.84867750000012,21.761536999999976" fill="none" instance-id="3" semantic-id="19" stroke="rgb(178,88,0)" stroke-width="0.1"/>
  <path d="M 86.84867750000012,21.761536999999976 L 84.6186775000001,22.646536999999967" fill="none" instance-id="3" semantic-id="19" stroke="rgb(178,88,0)" stroke-width="0.1"/>
  <path d="M 41.538677500000176,81.77153699999997 L 48.67867750000005,79.861537" fill="none" instance-id="4" semantic-id="19" stroke="rgb(178,88,0)" stroke-width="0.1"/>
  <path d="M 48.67867750000005,79.861537 L 47.33867750000013,77.87153699999999" fill="none" instance-id="4" semantic-id="19" stroke="rgb(178,88,0)" stroke-width="0.1"/>
  <path d="M 47.33867750000013,77.87153699999999 L 41.538677500000176,81.77153699999997" fill="none" instance-id="4" semantic-id="19" stroke="rgb(178,88,0)" stroke-width="0.1"/>
  <circle cx="85.10867750000011" cy="20.623536999999942" fill="none" instance-id="3" r="0.6" semantic-id="19" stroke="rgb(178,178,0)" stroke-width="0.1"/>
  <circle cx="49.41867750000006" cy="77.91153699999995" fill="none" instance-id="4" r="0.6" semantic-id="19" stroke="rgb(178,178,0)" stroke-width="0.1"/>
 </g>
</svg>