<?xml version="1.0" encoding="utf-8"?>
<svg style="background-color: #000;" version="1.1" viewBox="0 0 100.0 100.0" xmlns="http://www.w3.org/2000/svg" xmlns:inkscape="http://www.inkscape.org/namespaces/inkscape">
 <g id="layer0-结构边线" inkscape:groupmode="layer" inkscape:label="0-结构边线">
  <path d="M 46.648677500000076,30.443536999999992 L 54.08867750000013,27.493536999999947" fill="none" stroke="rgb(178,0,178)" stroke-width="0.1"/>
  <path d="M 54.08867750000013,27.493536999999947 L 51.138677500000085,20.05753699999991" fill="none" stroke="rgb(178,0,178)" stroke-width="0.1"/>
  <path d="M 43.69867750000003,23.007536999999957 L 51.138677500000085,20.05753699999991" fill="none" stroke="rgb(178,0,178)" stroke-width="0.1"/>
  <path d="M 46.648677500000076,30.443536999999992 L 43.69867750000003,23.007536999999957" fill="none" stroke="rgb(178,0,178)" stroke-width="0.1"/>
 </g>
 <g id="layerA-fixt" inkscape:groupmode="layer" inkscape:label="A-fixt">
  <path d="M 33.31867750000015,69.98053699999991 L 33.22867750000023,70.01653699999997" fill="none" stroke="rgb(12,133,255)" stroke-width="0.1"/>
  <path d="M 33.43867750000004,70.29053699999997 L 33.34867750000012,70.327537" fill="none" stroke="rgb(12,133,255)" stroke-width="0.1"/>
  <path d="M 47.49867750000021,71.90253699999994 L 48.29867750000017,73.90153699999996" fill="none" stroke="rgb(12,133,255)" stroke-width="0.1"/>
  <path d="M 50.5086775000002,79.47853699999996 L 51.29867750000017,81.47753699999998" fill="none" stroke="rgb(12,133,255)" stroke-width="0.1"/>
  <path d="M 34.59867750000012,77.34453699999995 L 47.32867750000014,72.29253699999992" fill="none" stroke="rgb(12,133,255)" stroke-width="0.1"/>
  <path d="M 34.48867750000022,77.06553699999995 L 47.49867750000021,71.90253699999994" fill="none" stroke="rgb(12,133,255)" stroke-width="0.1"/>
  <path d="M 51.29867750000017,81.47753699999998 L 38.288677500000176,86.63953700000002" fill="none" stroke="rgb(12,133,255)" stroke-width="0.1"/>
  <path d="M 50.90867750000007,81.308537 L 38.17867750000005,86.36053700000002" fill="none" stroke="rgb(12,133,255)" stroke-width="0.1"/>
  <path d="M 47.32867750000014,72.29253699999992 L 48.018677500000194,74.01253699999995" fill="none" stroke="rgb(12,133,255)" stroke-width="0.1"/>
  <path d="M 38.288677500000176,86.63953700000002 L 34.48867750000022,77.06553699999995" fill="none" stroke="rgb(12,133,255)" stroke-width="0.1"/>
  <path d="M 50.22867750000023,79.58953699999995 L 50.90867750000007,81.308537" fill="none" stroke="rgb(12,133,255)" stroke-width="0.1"/>
  <path d="M 50.22867750000023,79.58953699999995 L 50.5086775000002,79.47853699999996" fill="none" stroke="rgb(12,133,255)" stroke-width="0.1"/>
  <path d="M 48.29867750000017,73.90153699999996 L 48.018677500000194,74.01253699999995" fill="none" stroke="rgb(12,133,255)" stroke-width="0.1"/>
  <path d="M 38.288677500000176,79.59353699999997 L 39.31867750000015,82.19153699999993" fill="none" instance-id="3" semantic-id="29" stroke="rgb(12,133,255)" stroke-width="0.1"/>
  <path d="M 38.8686775000001,82.69353699999999 L 37.6186775000001,79.53753699999993" fill="none" instance-id="3" semantic-id="29" stroke="rgb(12,133,255)" stroke-width="0.1"/>
  <path d="M 28.618677500000103,71.84353699999997 L 28.718677500000013,71.80753699999991" fill="none" stroke="rgb(12,133,255)" stroke-width="0.1"/>
  <path d="M 28.748677500000213,72.15353699999991 L 28.83867750000013,72.11753699999997" fill="none" stroke="rgb(12,133,255)" stroke-width="0.1"/>
  <path d="M 19.618677500000103,82.96553699999993 L 20.408677500000067,84.96453699999995" fill="none" stroke="rgb(12,133,255)" stroke-width="0.1"/>
  <path d="M 22.618677500000103,90.54153699999995 L 23.418677500000058,92.539537" fill="none" stroke="rgb(12,133,255)" stroke-width="0.1"/>
  <path d="M 32.73867750000022,78.082537 L 20.008677500000204,83.13453700000002" fill="none" stroke="rgb(12,133,255)" stroke-width="0.1"/>
  <path d="M 32.628677500000094,77.803537 L 19.618677500000103,82.96553699999993" fill="none" stroke="rgb(12,133,255)" stroke-width="0.1"/>
  <path d="M 23.418677500000058,92.539537 L 36.42867750000005,87.37753699999996" fill="none" stroke="rgb(12,133,255)" stroke-width="0.1"/>
  <path d="M 23.57867750000014,92.15053699999999 L 36.31867750000015,87.09853699999996" fill="none" stroke="rgb(12,133,255)" stroke-width="0.1"/>
  <path d="M 20.008677500000204,83.13453700000002 L 20.68867750000004,84.85353699999996" fill="none" stroke="rgb(12,133,255)" stroke-width="0.1"/>
  <path d="M 36.42867750000005,87.37753699999996 L 32.628677500000094,77.803537" fill="none" stroke="rgb(12,133,255)" stroke-width="0.1"/>
  <path d="M 22.898677500000076,90.43053699999996 L 23.57867750000014,92.15053699999999" fill="none" stroke="rgb(12,133,255)" stroke-width="0.1"/>
  <path d="M 22.898677500000076,90.43053699999996 L 22.618677500000103,90.54153699999995" fill="none" instance-id="5" semantic-id="3" stroke="rgb(12,133,255)" stroke-width="0.1"/>
  <path d="M 20.408677500000067,84.96453699999995 L 20.68867750000004,84.85353699999996" fill="none" stroke="rgb(12,133,255)" stroke-width="0.1"/>
  <path d="M 31.58867750000013,82.25153699999998 L 32.6186775000001,84.84953699999994" fill="none" instance-id="4" semantic-id="29" stroke="rgb(12,133,255)" stroke-width="0.1"/>
  <path d="M 33.29867750000017,84.90553699999998 L 32.038677500000176,81.74953699999992" fill="none" instance-id="4" semantic-id="29" stroke="rgb(12,133,255)" stroke-width="0.1"/>
  <path d="M 33.22867750000023,69.74053700000002 A 0.100645,0.100645 0.0 0,0 33.04867750000017,69.80453699999998" fill="none" instance-id="2" semantic-id="23" stroke="rgb(12,133,255)" stroke-width="0.1"/>
  <path d="M 33.128677500000094,70.14153699999997 A 2.58711,2.58711 0.0 0,0 33.04867750000017,69.80453699999998" fill="none" instance-id="2" semantic-id="23" stroke="rgb(12,133,255)" stroke-width="0.1"/>
  <path d="M 33.22867750000023,69.74053700000002 A 1.7258,1.7258 0.0 0,0 33.40867750000007,69.97053699999992" fill="none" instance-id="2" semantic-id="23" stroke="rgb(12,133,255)" stroke-width="0.1"/>
  <path d="M 33.22867750000023,70.01653699999997 A 0.166923,0.166923 0.0 1,0 33.34867750000012,70.327537" fill="none" instance-id="2" semantic-id="23" stroke="rgb(12,133,255)" stroke-width="0.1"/>
  <path d="M 33.3686775000001,70.60553699999991 A 2.58711,2.58711 0.0 0,0 33.18867750000004,70.30653699999993" fill="none" instance-id="2" semantic-id="23" stroke="rgb(12,133,255)" stroke-width="0.1"/>
  <path d="M 33.878677500000094,70.04353700000001 A 0.250415,0.250415 0.0 1,0 33.79867750000017,69.86453699999993" fill="none" instance-id="2" semantic-id="23" stroke="rgb(12,133,255)" stroke-width="0.1"/>
  <path d="M 33.82867750000014,70.30253699999992 A 0.0337068,0.0337068 0.0 0,0 33.84867750000012,70.23953699999993" fill="none" stroke="rgb(12,133,255)" stroke-width="0.1"/>
  <path d="M 33.82867750000014,70.303537 A 1.69653,1.69653 0.0 0,0 33.648677500000076,70.26853699999992" fill="none" stroke="rgb(12,133,255)" stroke-width="0.1"/>
  <path d="M 33.648677500000076,70.26853699999992 A 0.105994,0.105994 0.0 0,0 33.67867750000005,70.16753699999992" fill="none" stroke="rgb(12,133,255)" stroke-width="0.1"/>
  <path d="M 33.67867750000005,70.16753699999992 A 1.69653,1.69653 0.0 0,0 33.84867750000012,70.24253699999997" fill="none" stroke="rgb(12,133,255)" stroke-width="0.1"/>
  <path d="M 33.518677500000194,70.29253699999992 A 1.7258,1.7258 0.0 0,0 33.538677500000176,70.52553699999999" fill="none" instance-id="2" semantic-id="23" stroke="rgb(12,133,255)" stroke-width="0.1"/>
  <path d="M 33.93867750000004,70.01153699999998 A 3.72217,3.72217 0.0 0,0 33.68867750000004,70.13653699999998" fill="none" instance-id="2" semantic-id="23" stroke="rgb(12,133,255)" stroke-width="0.1"/>
  <path d="M 33.3686775000001,70.60553699999991 A 0.100645,0.100645 0.0 0,0 33.538677500000176,70.52553699999999" fill="none" instance-id="2" semantic-id="23" stroke="rgb(12,133,255)" stroke-width="0.1"/>
  <path d="M 33.40867750000007,69.97053699999992 A 3.72217,3.72217 0.0 0,0 33.878677500000094,69.84053699999993" fill="none" instance-id="2" semantic-id="23" stroke="rgb(12,133,255)" stroke-width="0.1"/>
  <path d="M 33.93867750000004,70.01153699999998 A 0.0990252,0.0990252 0.0 0,0 33.878677500000094,69.84053699999993" fill="none" instance-id="2" semantic-id="23" stroke="rgb(12,133,255)" stroke-width="0.1"/>
  <path d="M 33.82867750000014,70.33653700000002 A 1.66249,1.66249 0.0 0,0 33.43867750000004,70.29053699999997" fill="none" instance-id="2" semantic-id="23" stroke="rgb(12,133,255)" stroke-width="0.1"/>
  <path d="M 33.82867750000014,70.33653700000002 A 0.0677434,0.0677434 0.0 0,0 33.85867750000011,70.21053699999993" fill="none" stroke="rgb(12,133,255)" stroke-width="0.1"/>
  <path d="M 33.518677500000194,70.04053699999997 A 1.66249,1.66249 0.0 0,0 33.85867750000011,70.21053699999993" fill="none" instance-id="2" semantic-id="23" stroke="rgb(12,133,255)" stroke-width="0.1"/>
  <path d="M 48.018677500000194,74.01253699999995 A 6.0,6.0 0.0 0,0 44.71867750000001,77.21053699999993" fill="none" instance-id="6" semantic-id="3" stroke="rgb(12,133,255)" stroke-width="0.1"/>
  <path d="M 42.768677500000194,80.30653699999993 A 1.09782,1.09782 0.0 0,0 42.08867750000013,78.60453699999994" fill="none" instance-id="3" semantic-id="29" stroke="rgb(12,133,255)" stroke-width="0.1"/>
  <path d="M 39.31867750000015,82.19153699999993 A 3.9753,3.9753 0.0 0,0 42.768677500000194,80.30653699999993" fill="none" instance-id="3" semantic-id="29" stroke="rgb(12,133,255)" stroke-width="0.1"/>
  <path d="M 42.08867750000013,78.60453699999994 A 3.9753,3.9753 0.0 0,0 38.288677500000176,79.59353699999997" fill="none" instance-id="3" semantic-id="29" stroke="rgb(12,133,255)" stroke-width="0.1"/>
  <path d="M 28.69867750000003,71.52853699999991 A 0.100645,0.100645 0.0 0,0 28.518677500000194,71.60853699999996" fill="none" instance-id="1" semantic-id="23" stroke="rgb(12,133,255)" stroke-width="0.1"/>
  <path d="M 28.69867750000003,71.52853699999991 A 2.58711,2.58711 0.0 0,0 28.878677500000094,71.827537" fill="none" instance-id="1" semantic-id="23" stroke="rgb(12,133,255)" stroke-width="0.1"/>
  <path d="M 28.548677500000167,71.89553699999999 A 1.7258,1.7258 0.0 0,0 28.518677500000194,71.60853699999996" fill="none" instance-id="1" semantic-id="23" stroke="rgb(12,133,255)" stroke-width="0.1"/>
  <path d="M 28.83867750000013,72.11753699999997 A 0.166923,0.166923 0.0 1,0 28.718677500000013,71.80753699999991" fill="none" instance-id="1" semantic-id="23" stroke="rgb(12,133,255)" stroke-width="0.1"/>
  <path d="M 28.93867750000004,71.99253699999997 A 2.58711,2.58711 0.0 0,0 29.018677500000194,72.32953699999996" fill="none" instance-id="1" semantic-id="23" stroke="rgb(12,133,255)" stroke-width="0.1"/>
  <path d="M 28.18867750000004,72.09153700000002 A 0.250415,0.250415 0.0 1,0 28.258677500000204,72.26953700000001" fill="none" instance-id="1" semantic-id="23" stroke="rgb(12,133,255)" stroke-width="0.1"/>
  <path d="M 28.418677500000058,72.39353699999992 A 0.03423813663161942,0.03423813663161942 0.0 0,0 28.47867750000023,72.42653699999994" fill="none" stroke="rgb(12,133,255)" stroke-width="0.1"/>
  <path d="M 28.58867750000013,72.27653699999996 A 1.69653,1.69653 0.0 0,0 28.468677500000013,72.43153699999993" fill="none" stroke="rgb(12,133,255)" stroke-width="0.1"/>
  <path d="M 28.48867750000022,72.22253699999999 A 0.105994,0.105994 0.0 0,0 28.58867750000013,72.27653699999996" fill="none" stroke="rgb(12,133,255)" stroke-width="0.1"/>
  <path d="M 28.418677500000058,72.39953700000001 A 1.69653,1.69653 0.0 0,0 28.48867750000022,72.22253699999999" fill="none" stroke="rgb(12,133,255)" stroke-width="0.1"/>
  <path d="M 28.83867750000013,72.39353699999992 A 1.7258,1.7258 0.0 0,0 28.69867750000003,72.20453699999996" fill="none" instance-id="1" semantic-id="23" stroke="rgb(12,133,255)" stroke-width="0.1"/>
  <path d="M 28.45867750000002,72.21053699999993 A 3.72217,3.72217 0.0 0,0 28.18867750000004,72.29353700000001" fill="none" instance-id="1" semantic-id="23" stroke="rgb(12,133,255)" stroke-width="0.1"/>
  <path d="M 28.83867750000013,72.39353699999992 A 0.100645,0.100645 0.0 0,0 29.018677500000194,72.32953699999996" fill="none" instance-id="1" semantic-id="23" stroke="rgb(12,133,255)" stroke-width="0.1"/>
  <path d="M 28.118677500000103,72.12253699999997 A 3.72217,3.72217 0.0 0,0 28.548677500000167,71.89553699999999" fill="none" instance-id="1" semantic-id="23" stroke="rgb(12,133,255)" stroke-width="0.1"/>
  <path d="M 28.118677500000103,72.12253699999997 A 0.0990252,0.0990252 0.0 0,0 28.18867750000004,72.29353700000001" fill="none" instance-id="1" semantic-id="23" stroke="rgb(12,133,255)" stroke-width="0.1"/>
  <path d="M 28.748677500000213,72.154537 A 1.66249,1.66249 0.0 0,0 28.498677500000213,72.44953699999996" fill="none" instance-id="1" semantic-id="23" stroke="rgb(12,133,255)" stroke-width="0.1"/>
  <path d="M 28.388677500000085,72.38353699999993 A 0.0677434,0.0677434 0.0 0,0 28.498677500000213,72.44953699999996" fill="none" stroke="rgb(12,133,255)" stroke-width="0.1"/>
  <path d="M 28.388677500000085,72.38353699999993 A 1.66249,1.66249 0.0 0,0 28.518677500000194,72.02353699999992" fill="none" instance-id="1" semantic-id="23" stroke="rgb(12,133,255)" stroke-width="0.1"/>
  <path d="M 25.278677500000185,84.92253699999992 A 6.0,6.0 0.0 0,0 20.68867750000004,84.85353699999996" fill="none" instance-id="5" semantic-id="3" stroke="rgb(12,133,255)" stroke-width="0.1"/>
  <path d="M 28.148677500000076,84.13653699999998 A 1.09782,1.09782 0.0 0,0 28.81867750000015,85.83853699999997" fill="none" instance-id="4" semantic-id="29" stroke="rgb(12,133,255)" stroke-width="0.1"/>
  <path d="M 28.81867750000015,85.83853699999997 A 3.9753,3.9753 0.0 0,0 32.6186775000001,84.84953699999994" fill="none" instance-id="4" semantic-id="29" stroke="rgb(12,133,255)" stroke-width="0.1"/>
  <path d="M 31.58867750000013,82.25153699999998 A 3.9753,3.9753 0.0 0,0 28.148677500000076,84.13653699999998" fill="none" instance-id="4" semantic-id="29" stroke="rgb(12,133,255)" stroke-width="0.1"/>
  <path d="M 33.74867750000021,70.31953699999997 L 34.92867750000005,73.28753699999993" fill="none" instance-id="2" semantic-id="23" stroke="rgb(12,133,255)" stroke-width="0.1"/>
  <path d="M 36.24867750000021,65.23253699999998 L 38.82867750000014,71.73953699999993" fill="none" stroke="rgb(12,133,255)" stroke-width="0.1"/>
  <path d="M 32.34867750000012,66.78153699999996 L 33.58867750000013,69.92653699999994" fill="none" instance-id="2" semantic-id="23" stroke="rgb(12,133,255)" stroke-width="0.1"/>
  <path d="M 50.22867750000023,79.58953699999995 L 44.71867750000001,77.21053699999993" fill="none" instance-id="6" semantic-id="3" stroke="rgb(12,133,255)" stroke-width="0.1"/>
  <path d="M 28.538677500000176,72.38453700000002 L 29.718677500000013,75.35353699999996" fill="none" instance-id="1" semantic-id="23" stroke="rgb(12,133,255)" stroke-width="0.1"/>
  <path d="M 23.23867750000022,70.39553699999999 L 25.81867750000015,76.90153699999996" fill="none" instance-id="1" semantic-id="23" stroke="rgb(12,133,255)" stroke-width="0.1"/>
  <path d="M 27.138677500000085,68.84653700000001 L 28.388677500000085,71.991537" fill="none" instance-id="1" semantic-id="23" stroke="rgb(12,133,255)" stroke-width="0.1"/>
  <path d="M 22.898677500000076,90.43053699999996 L 25.278677500000185,84.92253699999992" fill="none" instance-id="5" semantic-id="3" stroke="rgb(12,133,255)" stroke-width="0.1"/>
  <path d="M 33.74867750000021,70.31953699999997 L 34.55867750000016,72.35853699999996" fill="none" instance-id="2" semantic-id="23" stroke="rgb(12,133,255)" stroke-width="0.1"/>
  <path d="M 34.55867750000016,72.35853699999996 L 36.71867750000001,71.50253699999996" fill="none" instance-id="2" semantic-id="23" stroke="rgb(12,133,255)" stroke-width="0.1"/>
  <path d="M 36.71867750000001,71.50253699999996 A 0.5,0.5 0.0 0,0 36.99867750000021,70.85353699999996" fill="none" instance-id="2" semantic-id="23" stroke="rgb(12,133,255)" stroke-width="0.1"/>
  <path d="M 36.99867750000021,70.85353699999996 L 35.518677500000194,67.135537" fill="none" instance-id="2" semantic-id="23" stroke="rgb(12,133,255)" stroke-width="0.1"/>
  <path d="M 35.518677500000194,67.135537 A 0.5,0.5 0.0 0,0 34.8686775000001,66.85553699999991" fill="none" instance-id="2" semantic-id="23" stroke="rgb(12,133,255)" stroke-width="0.1"/>
  <path d="M 34.8686775000001,66.85553699999991 L 32.70867750000002,67.71053699999993" fill="none" instance-id="2" semantic-id="23" stroke="rgb(12,133,255)" stroke-width="0.1"/>
  <path d="M 32.70867750000002,67.71053699999993 L 33.58867750000013,69.92653699999994" fill="none" instance-id="2" semantic-id="23" stroke="rgb(12,133,255)" stroke-width="0.1"/>
  <path d="M 39.7586775000002,78.68753700000002 L 37.6186775000001,79.53753699999993" fill="none" instance-id="3" semantic-id="29" stroke="rgb(12,133,255)" stroke-width="0.1"/>
  <path d="M 37.6186775000001,79.53753699999993 L 37.43867750000004,79.07053699999994" fill="none" instance-id="3" semantic-id="29" stroke="rgb(12,133,255)" stroke-width="0.1"/>
  <path d="M 37.43867750000004,79.07053699999994 A 0.3,0.3 0.0 0,0 37.04867750000017,78.90153699999996" fill="none" instance-id="3" semantic-id="29" stroke="rgb(12,133,255)" stroke-width="0.1"/>
  <path d="M 37.04867750000017,78.90153699999996 L 35.74867750000021,79.41853700000001" fill="none" instance-id="3" semantic-id="29" stroke="rgb(12,133,255)" stroke-width="0.1"/>
  <path d="M 35.74867750000021,79.41853700000001 A 0.3,0.3 0.0 0,0 35.57867750000014,79.80753699999991" fill="none" stroke="rgb(12,133,255)" stroke-width="0.1"/>
  <path d="M 35.57867750000014,79.80753699999991 L 37.19867750000003,83.89753699999994" fill="none" stroke="rgb(12,133,255)" stroke-width="0.1"/>
  <path d="M 37.19867750000003,83.89753699999994 A 0.3,0.3 0.0 0,0 37.58867750000013,84.06553699999995" fill="none" instance-id="3" semantic-id="29" stroke="rgb(12,133,255)" stroke-width="0.1"/>
  <path d="M 37.58867750000013,84.06553699999995 L 38.888677500000085,83.54953699999999" fill="none" stroke="rgb(12,133,255)" stroke-width="0.1"/>
  <path d="M 38.888677500000085,83.54953699999999 A 0.3,0.3 0.0 0,0 39.05867750000016,83.16053699999998" fill="none" stroke="rgb(12,133,255)" stroke-width="0.1"/>
  <path d="M 39.05867750000016,83.16053699999998 L 38.8686775000001,82.69353699999999" fill="none" instance-id="3" semantic-id="29" stroke="rgb(12,133,255)" stroke-width="0.1"/>
  <path d="M 38.8686775000001,82.69353699999999 L 41.018677500000194,81.84353699999997" fill="none" instance-id="3" semantic-id="29" stroke="rgb(12,133,255)" stroke-width="0.1"/>
  <path d="M 28.538677500000176,72.38453700000002 L 29.34867750000012,74.42353700000001" fill="none" instance-id="1" semantic-id="23" stroke="rgb(12,133,255)" stroke-width="0.1"/>
  <path d="M 29.34867750000012,74.42353700000001 L 27.19867750000003,75.279537" fill="none" instance-id="1" semantic-id="23" stroke="rgb(12,133,255)" stroke-width="0.1"/>
  <path d="M 26.548677500000167,74.99853699999994 A 0.5,0.5 0.0 0,0 27.19867750000003,75.279537" fill="none" instance-id="1" semantic-id="23" stroke="rgb(12,133,255)" stroke-width="0.1"/>
  <path d="M 26.548677500000167,74.99853699999994 L 25.06867750000015,71.28053699999998" fill="none" instance-id="1" semantic-id="23" stroke="rgb(12,133,255)" stroke-width="0.1"/>
  <path d="M 25.34867750000012,70.63153699999998 A 0.5,0.5 0.0 0,0 25.06867750000015,71.28053699999998" fill="none" instance-id="1" semantic-id="23" stroke="rgb(12,133,255)" stroke-width="0.1"/>
  <path d="M 25.34867750000012,70.63153699999998 L 27.508677500000204,69.77553699999999" fill="none" instance-id="1" semantic-id="23" stroke="rgb(12,133,255)" stroke-width="0.1"/>
  <path d="M 27.508677500000204,69.77553699999999 L 28.388677500000085,71.991537" fill="none" instance-id="1" semantic-id="23" stroke="rgb(12,133,255)" stroke-width="0.1"/>
  <path d="M 29.898677500000076,82.59953699999994 L 32.038677500000176,81.74953699999992" fill="none" instance-id="4" semantic-id="29" stroke="rgb(12,133,255)" stroke-width="0.1"/>
  <path d="M 32.038677500000176,81.74953699999992 L 31.858677500000113,81.28253699999993" fill="none" instance-id="4" semantic-id="29" stroke="rgb(12,133,255)" stroke-width="0.1"/>
  <path d="M 32.028677500000185,80.89353699999992 A 0.3,0.3 0.0 0,0 31.858677500000113,81.28253699999993" fill="none" instance-id="4" semantic-id="29" stroke="rgb(12,133,255)" stroke-width="0.1"/>
  <path d="M 32.028677500000185,80.89353699999992 L 33.32867750000014,80.37753699999996" fill="none" instance-id="4" semantic-id="29" stroke="rgb(12,133,255)" stroke-width="0.1"/>
  <path d="M 33.71867750000001,80.54553699999997 A 0.3,0.3 0.0 0,0 33.32867750000014,80.37753699999996" fill="none" instance-id="4" semantic-id="29" stroke="rgb(12,133,255)" stroke-width="0.1"/>
  <path d="M 33.71867750000001,80.54553699999997 L 35.33867750000013,84.635537" fill="none" instance-id="4" semantic-id="29" stroke="rgb(12,133,255)" stroke-width="0.1"/>
  <path d="M 35.16867750000006,85.02453700000001 A 0.3,0.3 0.0 0,0 35.33867750000013,84.635537" fill="none" instance-id="4" semantic-id="29" stroke="rgb(12,133,255)" stroke-width="0.1"/>
  <path d="M 35.16867750000006,85.02453700000001 L 33.8686775000001,85.54053699999997" fill="none" instance-id="4" semantic-id="29" stroke="rgb(12,133,255)" stroke-width="0.1"/>
  <path d="M 33.47867750000023,85.37253699999997 A 0.3,0.3 0.0 0,0 33.8686775000001,85.54053699999997" fill="none" instance-id="4" semantic-id="29" stroke="rgb(12,133,255)" stroke-width="0.1"/>
  <path d="M 33.47867750000023,85.37253699999997 L 33.29867750000017,84.90553699999998" fill="none" instance-id="4" semantic-id="29" stroke="rgb(12,133,255)" stroke-width="0.1"/>
  <path d="M 33.29867750000017,84.90553699999998 L 31.148677500000076,85.755537" fill="none" instance-id="4" semantic-id="29" stroke="rgb(12,133,255)" stroke-width="0.1"/>
  <path d="M 29.378677500000094,64.19153699999993 L 34.95867750000002,61.97953699999994" fill="none" instance-id="2" semantic-id="23" stroke="rgb(12,133,255)" stroke-width="0.1"/>
  <path d="M 34.95867750000002,61.97953699999994 L 40.1186775000001,74.99253699999997" fill="none" stroke="rgb(12,133,255)" stroke-width="0.1"/>
  <path d="M 40.1186775000001,74.99253699999997 L 34.538677500000176,77.20553699999994" fill="none" stroke="rgb(12,133,255)" stroke-width="0.1"/>
  <path d="M 34.538677500000176,77.20553699999994 L 29.378677500000094,64.19153699999993" fill="none" instance-id="2" semantic-id="23" stroke="rgb(12,133,255)" stroke-width="0.1"/>
  <path d="M 27.518677500000194,64.92953699999998 L 21.94867750000003,67.14153699999997" fill="none" instance-id="1" semantic-id="23" stroke="rgb(12,133,255)" stroke-width="0.1"/>
  <path d="M 21.94867750000003,67.14153699999997 L 27.108677500000113,80.15553699999998" fill="none" instance-id="1" semantic-id="23" stroke="rgb(12,133,255)" stroke-width="0.1"/>
  <path d="M 27.108677500000113,80.15553699999998 L 32.68867750000004,77.94253700000002" fill="none" stroke="rgb(12,133,255)" stroke-width="0.1"/>
  <path d="M 32.68867750000004,77.94253700000002 L 27.518677500000194,64.92953699999998" fill="none" instance-id="1" semantic-id="23" stroke="rgb(12,133,255)" stroke-width="0.1"/>
  <path d="M 31.388677500000085,68.34853699999996 L 33.15867750000007,72.80153699999994" fill="none" instance-id="2" semantic-id="23" stroke="rgb(12,133,255)" stroke-width="0.1"/>
  <path d="M 33.15867750000007,72.80153699999994 L 32.84867750000012,72.92453699999999" fill="none" instance-id="2" semantic-id="23" stroke="rgb(12,133,255)" stroke-width="0.1"/>
  <path d="M 32.84867750000012,72.92453699999999 L 31.07867750000014,68.47253699999999" fill="none" instance-id="2" semantic-id="23" stroke="rgb(12,133,255)" stroke-width="0.1"/>
  <path d="M 31.07867750000014,68.47253699999999 L 31.388677500000085,68.34853699999996" fill="none" instance-id="2" semantic-id="23" stroke="rgb(12,133,255)" stroke-width="0.1"/>
  <path d="M 28.908677500000067,69.33353699999998 L 30.67867750000005,73.78553699999998" fill="none" instance-id="1" semantic-id="23" stroke="rgb(12,133,255)" stroke-width="0.1"/>
  <path d="M 30.67867750000005,73.78553699999998 L 30.98867750000022,73.66253699999993" fill="none" instance-id="1" semantic-id="23" stroke="rgb(12,133,255)" stroke-width="0.1"/>
  <path d="M 30.98867750000022,73.66253699999993 L 29.218677500000013,69.20953699999995" fill="none" instance-id="1" semantic-id="23" stroke="rgb(12,133,255)" stroke-width="0.1"/>
  <path d="M 29.218677500000013,69.20953699999995 L 28.908677500000067,69.33353699999998" fill="none" instance-id="1" semantic-id="23" stroke="rgb(12,133,255)" stroke-width="0.1"/>
  <circle cx="33.378677500000094" cy="70.135537" fill="none" instance-id="2" r="0.166923" semantic-id="23" stroke="rgb(12,133,255)" stroke-width="0.1"/>
  <circle cx="28.68867750000004" cy="71.99853699999994" fill="none" instance-id="1" r="0.166923" semantic-id="23" stroke="rgb(12,133,255)" stroke-width="0.1"/>
 </g>
 <g id="layerA-辅助线" inkscape:groupmode="layer" inkscape:label="A-辅助线">
  <path d="M 47.8686775000001,60.622536999999966 L 50.44867750000003,67.12953699999991" fill="none" stroke="rgb(92,92,92)" stroke-width="0.1"/>
  <path d="M 30.668677500000058,67.44553699999994 L 33.24867750000021,73.95153699999992" fill="none" stroke="rgb(92,92,92)" stroke-width="0.1"/>
  <path d="M 33.24867750000021,73.95153699999992 L 38.82867750000014,71.73953699999993" fill="none" stroke="rgb(92,92,92)" stroke-width="0.1"/>
  <path d="M 30.668677500000058,67.44553699999994 L 36.24867750000021,65.23253699999998" fill="none" stroke="rgb(92,92,92)" stroke-width="0.1"/>
  <path d="M 11.618677500000103,75.00453699999991 L 14.19867750000003,81.51153699999998" fill="none" stroke="rgb(92,92,92)" stroke-width="0.1"/>
  <path d="M 28.808677500000158,68.18253699999991 L 31.398677500000076,74.68953699999997" fill="none" stroke="rgb(92,92,92)" stroke-width="0.1"/>
  <path d="M 31.398677500000076,74.68953699999997 L 25.81867750000015,76.90153699999996" fill="none" stroke="rgb(92,92,92)" stroke-width="0.1"/>
  <path d="M 28.808677500000158,68.18253699999991 L 23.23867750000022,70.39553699999999" fill="none" stroke="rgb(92,92,92)" stroke-width="0.1"/>
 </g>
 <g id="layerCOLUMN" inkscape:groupmode="layer" inkscape:label="COLUMN">
  <path d="M 46.648677500000076,30.443536999999992 L 54.08867750000013,27.493536999999947" fill="none" stroke="rgb(178,178,0)" stroke-width="0.1"/>
  <path d="M 54.08867750000013,27.493536999999947 L 51.138677500000085,20.05753699999991" fill="none" stroke="rgb(178,178,0)" stroke-width="0.1"/>
  <path d="M 51.138677500000085,20.05753699999991 L 43.69867750000003,23.007536999999957" fill="none" stroke="rgb(178,178,0)" stroke-width="0.1"/>
  <path d="M 43.69867750000003,23.007536999999957 L 46.648677500000076,30.443536999999992" fill="none" stroke="rgb(178,178,0)" stroke-width="0.1"/>
 </g>
 <g id="layerDIM_IDEN" inkscape:groupmode="layer" inkscape:label="DIM_IDEN">
  <path d="M 100.0,78.60363484289815 L 94.09867750000012,80.94553699999994" fill="none" stroke="rgb(0,178,0)" stroke-width="0.1"/>
  <path d="M 53.56867750000015,97.02253699999994 L 94.09867750000012,80.94553699999994" fill="none" stroke="rgb(0,178,0)" stroke-width="0.1"/>
  <path d="M 42.6186775000001,69.41553699999997 L 53.56867750000015,97.02253699999994" fill="none" stroke="rgb(0,178,0)" stroke-width="0.1"/>
 </g>
 <g id="layerDIM_LEAD" inkscape:groupmode="layer" inkscape:label="DIM_LEAD">
  <path d="M 51.70867750000002,62.654537000000005 L 62.888677500000085,35.74253699999997" fill="none" stroke="rgb(0,178,0)" stroke-width="0.1"/>
  <path d="M 62.888677500000085,35.74253699999997 L 100.0,21.018013605426404" fill="none" stroke="rgb(0,178,0)" stroke-width="0.1"/>
  <path d="M 51.69867750000003,62.95453699999996 A 0.3000416637735613,0.3000416637735613 0.0 1,0 51.70867750000002,62.35453699999994" fill="none" stroke="rgb(0,178,0)" stroke-width="0.1"/>
  <path d="M 51.70867750000002,62.35453699999994 A 0.3000416637735613,0.3000416637735613 0.0 1,0 51.69867750000003,62.95453699999996" fill="none" stroke="rgb(0,178,0)" stroke-width="0.1"/>
 </g>
 <g id="layerPUB_TEXT" inkscape:groupmode="layer" inkscape:label="PUB_TEXT">
  <text fill="rgb(0,0,0)" font-family="Noto Sans CJK SC" font-size="2" transform="rotate(-21.6395,85.84867750000012,24.93653699999993)" x="85.84867750000012" y="24.93653699999993">
   污水提升装置
  </text>
  <text fill="rgb(0,0,0)" font-family="Noto Sans CJK SC" font-size="2" transform="rotate(-21.6395,70.59867750000012,39.177536999999916)" x="70.59867750000012" y="39.177536999999916">
   1200x1200x1500d
  </text>
  <text fill="rgb(0,0,0)" font-family="Noto Sans CJK SC" font-size="2" transform="rotate(-21.64,12.028677500000185,93.65653699999996)" x="12.028677500000185" y="93.65653699999996">
   T1
  </text>
  <text fill="rgb(0,0,0)" font-family="Noto Sans CJK SC" font-size="2" transform="rotate(-21.64,49.878677500000094,80.21153700000002)" x="49.878677500000094" y="80.21153700000002">
   T1
  </text>
  <text fill="rgb(0,0,0)" font-family="Noto Sans CJK SC" font-size="2" transform="rotate(-21.6395,66.07867750000014,90.366537)" x="66.07867750000014" y="90.366537">
   T1
  </text>
  <text fill="rgb(0,0,0)" font-family="Noto Sans CJK SC" font-size="2" transform="rotate(-21.6395,73.46867750000001,87.43553699999995)" x="73.46867750000001" y="87.43553699999995">
   详见子项
  </text>
  <text fill="rgb(0,0,0)" font-family="Noto Sans CJK SC" font-size="2" transform="rotate(-21.6395,87.16867750000006,81.99753699999997)" x="87.16867750000006" y="81.99753699999997">
   04
  </text>
  <text fill="rgb(0,0,0)" font-family="Noto Sans CJK SC" font-size="2" transform="rotate(-21.6395,86.7686775000002,90.34653700000001)" x="86.7686775000002" y="90.34653700000001">
   43-
  </text>
  <text fill="rgb(0,0,0)" font-family="Noto Sans CJK SC" font-size="2" transform="rotate(-21.6395,99.33867750000013,77.37053700000001)" x="99.33867750000013" y="77.37053700000001">
   -
  </text>
  <text fill="rgb(0,0,0)" font-family="Noto Sans CJK SC" font-size="2" transform="rotate(-21.6395,99.79867750000017,83.50453699999991)" x="99.79867750000017" y="83.50453699999991">
   001
  </text>
 </g>
 <g id="layerS-JSJ" inkscape:groupmode="layer" inkscape:label="S-JSJ">
  <path d="M 56.23867750000022,66.25653699999998 L 56.46867750000001,66.029537" fill="none" stroke="rgb(0,133,178)" stroke-width="0.1"/>
  <path d="M 56.30867750000016,68.42953699999998 L 57.10867750000011,67.63653699999998" fill="none" stroke="rgb(0,133,178)" stroke-width="0.1"/>
  <path d="M 56.388677500000085,70.60153700000001 L 57.73867750000022,69.24353699999995" fill="none" stroke="rgb(0,133,178)" stroke-width="0.1"/>
  <path d="M 56.45867750000002,72.77453700000001 L 58.378677500000094,70.85153700000001" fill="none" stroke="rgb(0,133,178)" stroke-width="0.1"/>
  <path d="M 51.19867750000003,80.28153699999996 L 59.018677500000194,72.45853699999998" fill="none" stroke="rgb(0,133,178)" stroke-width="0.1"/>
  <path d="M 54.91867750000006,78.80453699999998 L 59.65867750000007,74.06553699999995" fill="none" stroke="rgb(0,133,178)" stroke-width="0.1"/>
  <path d="M 58.638677500000085,77.32853699999998 L 60.288677500000176,75.67353700000001" fill="none" stroke="rgb(0,133,178)" stroke-width="0.1"/>
  <path d="M 56.20867750000002,65.38153699999998 L 45.05867750000016,69.80653699999993" fill="none" stroke="rgb(0,133,178)" stroke-width="0.1"/>
  <path d="M 45.05867750000016,69.80653699999993 L 49.47867750000023,80.96153700000002" fill="none" stroke="rgb(0,133,178)" stroke-width="0.1"/>
  <path d="M 49.47867750000023,80.96153700000002 L 60.638677500000085,76.53653699999995" fill="none" stroke="rgb(0,133,178)" stroke-width="0.1"/>
  <path d="M 60.638677500000085,76.53653699999995 L 56.20867750000002,65.38153699999998" fill="none" stroke="rgb(0,133,178)" stroke-width="0.1"/>
  <path d="M 56.20867750000002,65.38153699999998 L 56.528677500000185,74.76353699999993" fill="none" stroke="rgb(0,133,178)" stroke-width="0.1"/>
  <path d="M 56.528677500000185,74.76353699999993 L 49.47867750000023,80.96153700000002" fill="none" stroke="rgb(0,133,178)" stroke-width="0.1"/>
  <path d="M 56.20867750000002,65.38153699999998 L 56.528677500000185,74.76353699999993" fill="none" stroke="rgb(0,133,178)" stroke-width="0.1"/>
  <path d="M 56.528677500000185,74.76353699999993 L 49.47867750000023,80.96153700000002" fill="none" stroke="rgb(0,133,178)" stroke-width="0.1"/>
  <path d="M 49.47867750000023,80.96153700000002 L 60.638677500000085,76.53653699999995" fill="none" stroke="rgb(0,133,178)" stroke-width="0.1"/>
  <path d="M 60.638677500000085,76.53653699999995 L 56.20867750000002,65.38153699999998" fill="none" stroke="rgb(0,133,178)" stroke-width="0.1"/>
 </g>
 <g id="layerWALL" inkscape:groupmode="layer" inkscape:label="WALL">
  <path d="M 48.5086775000002,29.706536999999912 L 57.35867750000011,52.01453700000002" fill="none" instance-id="-1" semantic-id="1" stroke="rgb(178,178,0)" stroke-width="0.1"/>
  <path d="M 46.648677500000076,30.443536999999992 L 55.138677500000085,51.82253700000001" fill="none" instance-id="-1" semantic-id="1" stroke="rgb(178,178,0)" stroke-width="0.1"/>
  <path d="M 55.8686775000001,53.681536999999935 L 54.93867750000004,54.05053699999996" fill="none" instance-id="-1" semantic-id="1" stroke="rgb(178,178,0)" stroke-width="0.1"/>
  <path d="M 55.138677500000085,51.82253700000001 L 53.278677500000185,52.560536999999954" fill="none" instance-id="-1" semantic-id="1" stroke="rgb(178,178,0)" stroke-width="0.1"/>
  <path d="M 65.45867750000002,77.84953699999994 L 63.59867750000012,78.587537" fill="none" instance-id="-1" semantic-id="1" stroke="rgb(178,178,0)" stroke-width="0.1"/>
  <path d="M 64.71867750000001,75.99053700000002 L 63.788677500000176,76.35953699999993" fill="none" instance-id="-1" semantic-id="1" stroke="rgb(178,178,0)" stroke-width="0.1"/>
  <path d="M 28.638677500000085,62.332537 L 26.788677500000176,63.070536999999945" fill="none" instance-id="-1" semantic-id="1" stroke="rgb(178,178,0)" stroke-width="0.1"/>
  <path d="M 27.518677500000194,64.92953699999998 L 3.818677500000149,74.332537" fill="none" instance-id="-1" semantic-id="1" stroke="rgb(178,178,0)" stroke-width="0.1"/>
  <path d="M 26.788677500000176,63.070536999999945 L 3.07867750000014,72.47353699999996" fill="none" instance-id="-1" semantic-id="1" stroke="rgb(178,178,0)" stroke-width="0.1"/>
  <path d="M 38.038677500000176,88.72853699999996 L 11.548677500000167,99.23753699999997" fill="none" instance-id="-1" semantic-id="1" stroke="rgb(178,178,0)" stroke-width="0.1"/>
  <path d="M 36.3686775000001,87.23753699999997 L 12.668677500000058,96.64153699999997" fill="none" instance-id="-1" semantic-id="1" stroke="rgb(178,178,0)" stroke-width="0.1"/>
  <path d="M 66.94867750000003,76.18253699999991 L 76.39977795184654,100.0" fill="none" instance-id="-1" semantic-id="1" stroke="rgb(178,178,0)" stroke-width="0.1"/>
  <path d="M 65.45867750000002,77.84953699999994 L 74.2476537694597,100.0" fill="none" instance-id="-1" semantic-id="1" stroke="rgb(178,178,0)" stroke-width="0.1"/>
  <path d="M 57.35867750000011,52.01453700000002 L 66.94867750000003,76.18253699999991" fill="none" instance-id="-1" semantic-id="1" stroke="rgb(178,178,0)" stroke-width="0.1"/>
  <path d="M 55.8686775000001,53.681536999999935 L 64.71867750000001,75.99053700000002" fill="none" instance-id="-1" semantic-id="1" stroke="rgb(178,178,0)" stroke-width="0.1"/>
  <path d="M 29.378677500000094,64.19153699999993 L 38.22867750000023,86.50053700000001" fill="none" instance-id="-1" semantic-id="1" stroke="rgb(178,178,0)" stroke-width="0.1"/>
  <path d="M 27.518677500000194,64.92953699999998 L 36.3686775000001,87.23753699999997" fill="none" instance-id="-1" semantic-id="1" stroke="rgb(178,178,0)" stroke-width="0.1"/>
  <path d="M 1.5886775000001307,74.140537 L 2.6986775000000307,76.92953699999998" fill="none" instance-id="-1" semantic-id="1" stroke="rgb(178,178,0)" stroke-width="0.1"/>
  <path d="M 2.6986775000000307,76.92953699999998 L 4.558677500000158,76.19153699999993" fill="none" instance-id="-1" semantic-id="1" stroke="rgb(178,178,0)" stroke-width="0.1"/>
  <path d="M 4.558677500000158,76.19153699999993 L 3.818677500000149,74.332537" fill="none" instance-id="-1" semantic-id="1" stroke="rgb(178,178,0)" stroke-width="0.1"/>
  <path d="M 12.668677500000058,96.64153699999997 L 7.878677500000094,84.55753699999991" fill="none" instance-id="-1" semantic-id="1" stroke="rgb(178,178,0)" stroke-width="0.1"/>
  <path d="M 7.878677500000094,84.55753699999991 L 6.018677500000194,85.29553699999997" fill="none" instance-id="-1" semantic-id="1" stroke="rgb(178,178,0)" stroke-width="0.1"/>
  <path d="M 6.018677500000194,85.29553699999997 L 11.548677500000167,99.23753699999997" fill="none" instance-id="-1" semantic-id="1" stroke="rgb(178,178,0)" stroke-width="0.1"/>
  <path d="M 0.0,64.71142831216059 L 3.07867750000014,72.47353699999996" fill="none" instance-id="-1" semantic-id="1" stroke="rgb(178,178,0)" stroke-width="0.1"/>
  <path d="M 0.0,70.13508744416788 L 1.5886775000001307,74.140537" fill="none" instance-id="-1" semantic-id="1" stroke="rgb(178,178,0)" stroke-width="0.1"/>
  <path d="M 54.93867750000004,54.05053699999996 L 63.788677500000176,76.35953699999993" fill="none" instance-id="-1" semantic-id="1" stroke="rgb(178,178,0)" stroke-width="0.1"/>
  <path d="M 53.07867750000014,54.78853700000002 L 61.93867750000004,77.09653700000001" fill="none" instance-id="-1" semantic-id="1" stroke="rgb(178,178,0)" stroke-width="0.1"/>
  <path d="M 53.278677500000185,52.560536999999954 L 50.48867750000022,53.66653699999995" fill="none" instance-id="-1" semantic-id="1" stroke="rgb(178,178,0)" stroke-width="0.1"/>
  <path d="M 50.48867750000022,53.66653699999995 L 51.22867750000023,55.525536999999986" fill="none" instance-id="-1" semantic-id="1" stroke="rgb(178,178,0)" stroke-width="0.1"/>
  <path d="M 51.22867750000023,55.525536999999986 L 53.07867750000014,54.78853700000002" fill="none" instance-id="-1" semantic-id="1" stroke="rgb(178,178,0)" stroke-width="0.1"/>
  <path d="M 29.378677500000094,64.19153699999993 L 42.85867750000011,58.844536999999946" fill="none" instance-id="-1" semantic-id="1" stroke="rgb(178,178,0)" stroke-width="0.1"/>
  <path d="M 42.85867750000011,58.844536999999946 L 42.1186775000001,56.98553700000002" fill="none" instance-id="-1" semantic-id="1" stroke="rgb(178,178,0)" stroke-width="0.1"/>
  <path d="M 42.1186775000001,56.98553700000002 L 28.638677500000085,62.332537" fill="none" instance-id="-1" semantic-id="1" stroke="rgb(178,178,0)" stroke-width="0.1"/>
  <path d="M 63.59867750000012,78.587537 L 38.038677500000176,88.72853699999996" fill="none" instance-id="-1" semantic-id="1" stroke="rgb(178,178,0)" stroke-width="0.1"/>
  <path d="M 61.93867750000004,77.09653700000001 L 38.22867750000023,86.50053700000001" fill="none" instance-id="-1" semantic-id="1" stroke="rgb(178,178,0)" stroke-width="0.1"/>
  <path d="M 36.723431241884555,0.0 L 45.55867750000016,22.27053699999999" fill="none" instance-id="-1" semantic-id="1" stroke="rgb(178,178,0)" stroke-width="0.1"/>
  <path d="M 34.57198846236611,0.0 L 43.69867750000003,23.007536999999957" fill="none" instance-id="-1" semantic-id="1" stroke="rgb(178,178,0)" stroke-width="0.1"/>
  <path d="M 23.81533260775859,0.0 L 23.898677500000076,0.20353699999998298" fill="none" instance-id="-1" semantic-id="1" stroke="rgb(178,178,0)" stroke-width="0.1"/>
  <path d="M 22.788677500000176,0.10753699999997934 L 23.33867750000013,1.5025369999999612" fill="none" instance-id="-1" semantic-id="1" stroke="rgb(178,178,0)" stroke-width="0.1"/>
  <path d="M 0.0,6.995790064769153 L 17.635714841243043,0.0" fill="none" instance-id="-1" semantic-id="1" stroke="rgb(178,178,0)" stroke-width="0.1"/>
  <path d="M 0.0,9.148371403837018 L 22.788677500000176,0.10753699999997934" fill="none" instance-id="-1" semantic-id="1" stroke="rgb(178,178,0)" stroke-width="0.1"/>
  <path d="M 23.898677500000076,0.20353699999998298 L 24.411522287089838,0.0" fill="none" instance-id="-1" semantic-id="1" stroke="rgb(178,178,0)" stroke-width="0.1"/>
  <path d="M 23.33867750000013,1.5025369999999612 L 27.12372264173041,0.0" fill="none" instance-id="-1" semantic-id="1" stroke="rgb(178,178,0)" stroke-width="0.1"/>
 </g>
 <g id="layerWINDOW" inkscape:groupmode="layer" inkscape:label="WINDOW">
  <path d="M 11.94867750000003,73.74253699999997 L 11.778677500000185,73.32453699999996" fill="none" stroke="rgb(0,178,0)" stroke-width="0.1"/>
  <path d="M 3.6286775000000944,76.56053699999995 L 3.7886775000001762,76.97853699999996" fill="none" instance-id="9" semantic-id="3" stroke="rgb(0,178,0)" stroke-width="0.1"/>
  <path d="M 3.6286775000000944,76.56053699999995 L 11.778677500000185,73.32453699999996" fill="none" instance-id="9" semantic-id="3" stroke="rgb(0,178,0)" stroke-width="0.1"/>
  <path d="M 3.7886775000001762,76.97853699999996 L 11.94867750000003,73.74253699999997" fill="none" instance-id="9" semantic-id="3" stroke="rgb(0,178,0)" stroke-width="0.1"/>
  <path d="M 53.66867750000006,62.918537000000015 L 54.08867750000013,62.75253699999996" fill="none" instance-id="8" semantic-id="3" stroke="rgb(0,178,0)" stroke-width="0.1"/>
  <path d="M 50.85867750000011,54.59653700000001 L 50.43867750000004,54.76253699999995" fill="none" instance-id="8" semantic-id="3" stroke="rgb(0,178,0)" stroke-width="0.1"/>
  <path d="M 50.85867750000011,54.59653700000001 L 54.08867750000013,62.75253699999996" fill="none" instance-id="8" semantic-id="3" stroke="rgb(0,178,0)" stroke-width="0.1"/>
  <path d="M 50.43867750000004,54.76253699999995 L 53.66867750000006,62.918537000000015" fill="none" instance-id="8" semantic-id="3" stroke="rgb(0,178,0)" stroke-width="0.1"/>
  <path d="M 6.948677500000031,84.92653699999994 A 8.775,8.775 0.0 0,0 11.94867750000003,73.74453699999992" fill="none" instance-id="9" semantic-id="3" stroke="rgb(0,178,0)" stroke-width="0.1"/>
  <path d="M 42.48867750000022,57.91553699999997 A 8.775,8.775 0.0 0,0 53.66867750000006,62.91653699999995" fill="none" instance-id="8" semantic-id="3" stroke="rgb(0,178,0)" stroke-width="0.1"/>
 </g>
 <g id="layerWINDOW_TEXT" inkscape:groupmode="layer" inkscape:label="WINDOW_TEXT">
  <text fill="rgb(178,0,178)" font-family="Noto Sans CJK SC" font-size="2" transform="rotate(-111.64,5.068677500000149,85.02553699999999)" x="5.068677500000149" y="85.02553699999999">
   M0921
  </text>
  <text fill="rgb(178,0,178)" font-family="Noto Sans CJK SC" font-size="2" transform="rotate(-21.6395,41.79867750000017,54.534537)" x="41.79867750000017" y="54.534537">
   M0921
  </text>
 </g>
 <g id="layers-消火栓" inkscape:groupmode="layer" inkscape:label="s-消火栓">
  <path d="M 23.81468262774547,0.0 L 23.858677500000113,0.11153699999999844" fill="none" stroke="rgb(178,88,0)" stroke-width="0.1"/>
  <path d="M 23.858677500000113,0.11153699999999844 L 24.13989588497293,0.0" fill="none" stroke="rgb(178,88,0)" stroke-width="0.1"/>
  <path d="M 23.858677500000113,0.11153699999999844 L 24.13989588497293,0.0" fill="none" stroke="rgb(178,88,0)" stroke-width="0.1"/>
  <path d="M 23.81468262774547,0.0 L 23.858677500000113,0.11153699999999844" fill="none" stroke="rgb(178,88,0)" stroke-width="0.1"/>
 </g>
</svg>