<?xml version="1.0" encoding="utf-8"?>
<svg style="background-color: #000;" version="1.1" viewBox="0 0 100.0 100.0" xmlns="http://www.w3.org/2000/svg" xmlns:inkscape="http://www.inkscape.org/namespaces/inkscape">
 <g id="layer0-结构边线" inkscape:groupmode="layer" inkscape:label="0-结构边线">
  <path d="M 11.404253499999982,70.15810599999998 L 18.84025349999996,67.20810600000004" fill="none" instance-id="-1" semantic-id="1" stroke="rgb(178,0,178)" stroke-width="0.1"/>
  <path d="M 18.84025349999996,67.20810600000004 L 15.890253499999972,59.77210600000001" fill="none" instance-id="-1" semantic-id="1" stroke="rgb(178,0,178)" stroke-width="0.1"/>
  <path d="M 8.454253499999993,62.72210600000005 L 15.890253499999972,59.77210600000001" fill="none" instance-id="-1" semantic-id="1" stroke="rgb(178,0,178)" stroke-width="0.1"/>
  <path d="M 11.404253499999982,70.15810599999998 L 8.454253499999993,62.72210600000005" fill="none" instance-id="-1" semantic-id="1" stroke="rgb(178,0,178)" stroke-width="0.1"/>
  <path d="M 89.48225349999996,39.182105999999976 L 96.91825349999999,36.232106000000044" fill="none" instance-id="-1" semantic-id="1" stroke="rgb(178,0,178)" stroke-width="0.1"/>
  <path d="M 96.91825349999999,36.232106000000044 L 92.49325349999992,25.07810599999999" fill="none" instance-id="-1" semantic-id="1" stroke="rgb(178,0,178)" stroke-width="0.1"/>
  <path d="M 85.05625350000003,28.02810599999998 L 92.49325349999992,25.07810599999999" fill="none" instance-id="-1" semantic-id="1" stroke="rgb(178,0,178)" stroke-width="0.1"/>
  <path d="M 89.48225349999996,39.182105999999976 L 85.05625350000003,28.02810599999998" fill="none" instance-id="-1" semantic-id="1" stroke="rgb(178,0,178)" stroke-width="0.1"/>
 </g>
 <g id="layerCOLUMN" inkscape:groupmode="layer" inkscape:label="COLUMN">
  <path d="M 89.48225349999996,39.182105999999976 L 96.91825349999999,36.232106000000044" fill="none" instance-id="-1" semantic-id="1" stroke="rgb(178,178,0)" stroke-width="0.1"/>
  <path d="M 96.91825349999999,36.232106000000044 L 92.49325349999992,25.07810599999999" fill="none" instance-id="-1" semantic-id="1" stroke="rgb(178,178,0)" stroke-width="0.1"/>
  <path d="M 92.49325349999992,25.07810599999999 L 85.05625350000003,28.02810599999998" fill="none" instance-id="-1" semantic-id="1" stroke="rgb(178,178,0)" stroke-width="0.1"/>
  <path d="M 85.05625350000003,28.02810599999998 L 89.48225349999996,39.182105999999976" fill="none" instance-id="-1" semantic-id="1" stroke="rgb(178,178,0)" stroke-width="0.1"/>
  <path d="M 11.404253499999982,70.15810599999998 L 18.84025349999996,67.20810600000004" fill="none" instance-id="-1" semantic-id="1" stroke="rgb(178,178,0)" stroke-width="0.1"/>
  <path d="M 18.84025349999996,67.20810600000004 L 15.890253499999972,59.77210600000001" fill="none" instance-id="-1" semantic-id="1" stroke="rgb(178,178,0)" stroke-width="0.1"/>
  <path d="M 15.890253499999972,59.77210600000001 L 8.454253499999993,62.72210600000005" fill="none" instance-id="-1" semantic-id="1" stroke="rgb(178,178,0)" stroke-width="0.1"/>
  <path d="M 8.454253499999993,62.72210600000005 L 11.404253499999982,70.15810599999998" fill="none" instance-id="-1" semantic-id="1" stroke="rgb(178,178,0)" stroke-width="0.1"/>
 </g>
 <g id="layerDOOR_FIRE" inkscape:groupmode="layer" inkscape:label="DOOR_FIRE">
  <path d="M 5.328698697396021,100.0 L 3.024253499999986,94.19210599999997" fill="none" stroke="rgb(0,178,178)" stroke-width="0.1"/>
  <path d="M 5.866307012469633,100.0 L 3.489253499999961,94.008106" fill="none" stroke="rgb(0,178,178)" stroke-width="0.1"/>
  <path d="M 3.024253499999986,94.19210599999997 L 3.489253499999961,94.008106" fill="none" stroke="rgb(0,178,178)" stroke-width="0.1"/>
  <path d="M 99.67225350000001,88.92910600000005 L 100.0,89.75540160849414" fill="none" instance-id="2" semantic-id="4" stroke="rgb(0,178,178)" stroke-width="0.1"/>
  <path d="M 100.0,88.79913756034478 L 99.67225350000001,88.92910600000005" fill="none" instance-id="2" semantic-id="4" stroke="rgb(0,178,178)" stroke-width="0.1"/>
  <path d="M 86.42625350000003,94.18410600000004 L 88.7339577986611,100.0" fill="none" instance-id="2" semantic-id="4" stroke="rgb(0,178,178)" stroke-width="0.1"/>
  <path d="M 86.07725349999998,94.32210599999996 L 88.33020040569363,100.0" fill="none" instance-id="2" semantic-id="4" stroke="rgb(0,178,178)" stroke-width="0.1"/>
  <path d="M 86.07725349999998,94.32210599999996 L 86.42625350000003,94.18410600000004" fill="none" instance-id="2" semantic-id="4" stroke="rgb(0,178,178)" stroke-width="0.1"/>
  <path d="M 3.0252534999999625,94.19510600000001 L 2.568664356817294,94.40400966523009" fill="none" stroke="rgb(0,178,178)" stroke-width="0.1"/>
  <path d="M 2.568664356817294,94.40400966523009 L 2.1234353204988565,94.63614215377424" fill="none" stroke="rgb(0,178,178)" stroke-width="0.1"/>
  <path d="M 2.1234353204988565,94.63614215377424 L 1.6907471789007218,94.89088782918247" fill="none" stroke="rgb(0,178,178)" stroke-width="0.1"/>
  <path d="M 1.6907471789007218,94.89088782918247 L 1.2717474602869174,95.16757108277818" fill="none" stroke="rgb(0,178,178)" stroke-width="0.1"/>
  <path d="M 1.2717474602869174,95.16757108277818 L 0.8675473899799044,95.46545812543457" fill="none" stroke="rgb(0,178,178)" stroke-width="0.1"/>
  <path d="M 0.8675473899799044,95.46545812543457 L 0.4792189432901637,95.78375893364955" fill="none" stroke="rgb(0,178,178)" stroke-width="0.1"/>
  <path d="M 0.4792189432901637,95.78375893364955 L 0.10779200254046373,96.12162934476021" fill="none" stroke="rgb(0,178,178)" stroke-width="0.1"/>
  <path d="M 93.04925349999996,91.556106 L 93.25521996540215,92.02644971639836" fill="none" instance-id="2" semantic-id="4" stroke="rgb(0,178,178)" stroke-width="0.1"/>
  <path d="M 93.25521996540215,92.02644971639836 L 93.49368458704157,92.48118042863587" fill="none" instance-id="2" semantic-id="4" stroke="rgb(0,178,178)" stroke-width="0.1"/>
  <path d="M 93.49368458704157,92.48118042863587 L 93.76347162194759,92.9180560999913" fill="none" instance-id="2" semantic-id="4" stroke="rgb(0,178,178)" stroke-width="0.1"/>
  <path d="M 93.76347162194759,92.9180560999913 L 94.06325089289032,93.33492272751005" fill="none" instance-id="2" semantic-id="4" stroke="rgb(0,178,178)" stroke-width="0.1"/>
  <path d="M 94.06325089289032,93.33492272751005 L 94.39154434678107,93.72972496225316" fill="none" instance-id="2" semantic-id="4" stroke="rgb(0,178,178)" stroke-width="0.1"/>
  <path d="M 94.39154434678107,93.72972496225316 L 94.74673334217084,94.10051624313735" fill="none" instance-id="2" semantic-id="4" stroke="rgb(0,178,178)" stroke-width="0.1"/>
  <path d="M 94.74673334217084,94.10051624313735 L 95.12706662991548,94.44546839439761" fill="none" instance-id="2" semantic-id="4" stroke="rgb(0,178,178)" stroke-width="0.1"/>
  <path d="M 95.12706662991548,94.44546839439761 L 95.53066898765906,94.76288063935601" fill="none" instance-id="2" semantic-id="4" stroke="rgb(0,178,178)" stroke-width="0.1"/>
  <path d="M 95.53066898765906,94.76288063935601 L 95.95555046556444,95.05118798605156" fill="none" instance-id="2" semantic-id="4" stroke="rgb(0,178,178)" stroke-width="0.1"/>
  <path d="M 95.95555046556444,95.05118798605156 L 96.39961619770327,95.30896894338878" fill="none" instance-id="2" semantic-id="4" stroke="rgb(0,178,178)" stroke-width="0.1"/>
  <path d="M 96.39961619770327,95.30896894338878 L 96.8606767307324,95.5349525297587" fill="none" instance-id="2" semantic-id="4" stroke="rgb(0,178,178)" stroke-width="0.1"/>
  <path d="M 96.8606767307324,95.5349525297587 L 97.33645881893096,95.7280245395765" fill="none" instance-id="2" semantic-id="4" stroke="rgb(0,178,178)" stroke-width="0.1"/>
  <path d="M 97.33645881893096,95.7280245395765 L 97.82461663237302,95.88723303684117" fill="none" instance-id="2" semantic-id="4" stroke="rgb(0,178,178)" stroke-width="0.1"/>
  <path d="M 97.82461663237302,95.88723303684117 L 98.32274332297436,96.01179304862774" fill="none" instance-id="2" semantic-id="4" stroke="rgb(0,178,178)" stroke-width="0.1"/>
  <path d="M 98.32274332297436,96.01179304862774 L 98.8283828913884,96.1010904353742" fill="none" instance-id="2" semantic-id="4" stroke="rgb(0,178,178)" stroke-width="0.1"/>
  <path d="M 98.8283828913884,96.1010904353742 L 99.33904229624011,96.15468491887907" fill="none" instance-id="2" semantic-id="4" stroke="rgb(0,178,178)" stroke-width="0.1"/>
  <path d="M 99.33904229624011,96.15468491887907 L 99.85220374599521,96.17231225308001" fill="none" instance-id="2" semantic-id="4" stroke="rgb(0,178,178)" stroke-width="0.1"/>
  <path d="M 90.87461691936414,99.91964630829511 L 91.26089008973759,99.58127906247205" fill="none" instance-id="2" semantic-id="4" stroke="rgb(0,178,178)" stroke-width="0.1"/>
  <path d="M 91.26089008973759,99.58127906247205 L 91.62246379226735,99.21663702864271" fill="none" instance-id="2" semantic-id="4" stroke="rgb(0,178,178)" stroke-width="0.1"/>
  <path d="M 91.62246379226735,99.21663702864271 L 91.95755493333331,98.82751843184292" fill="none" instance-id="2" semantic-id="4" stroke="rgb(0,178,178)" stroke-width="0.1"/>
  <path d="M 91.95755493333331,98.82751843184292 L 92.26451101754753,98.41584220279856" fill="none" instance-id="2" semantic-id="4" stroke="rgb(0,178,178)" stroke-width="0.1"/>
  <path d="M 92.26451101754753,98.41584220279856 L 92.54181829700292,97.98363851475631" fill="none" instance-id="2" semantic-id="4" stroke="rgb(0,178,178)" stroke-width="0.1"/>
  <path d="M 92.54181829700292,97.98363851475631 L 92.78810923629158,97.53303877172425" fill="none" instance-id="2" semantic-id="4" stroke="rgb(0,178,178)" stroke-width="0.1"/>
  <path d="M 92.78810923629158,97.53303877172425 L 93.00216925647851,97.06626509749458" fill="none" instance-id="2" semantic-id="4" stroke="rgb(0,178,178)" stroke-width="0.1"/>
  <path d="M 93.00216925647851,97.06626509749458 L 93.18294272477374,96.58561937728393" fill="none" instance-id="2" semantic-id="4" stroke="rgb(0,178,178)" stroke-width="0.1"/>
  <path d="M 93.18294272477374,96.58561937728393 L 93.32953816036513,96.09347190603171" fill="none" instance-id="2" semantic-id="4" stroke="rgb(0,178,178)" stroke-width="0.1"/>
  <path d="M 93.32953816036513,96.09347190603171 L 93.44123263073811,95.59224969933655" fill="none" instance-id="2" semantic-id="4" stroke="rgb(0,178,178)" stroke-width="0.1"/>
  <path d="M 93.44123263073811,95.59224969933655 L 93.51747531680348,95.08442452467716" fill="none" instance-id="2" semantic-id="4" stroke="rgb(0,178,178)" stroke-width="0.1"/>
  <path d="M 93.51747531680348,95.08442452467716 L 93.5578902292508,94.57250071193914" fill="none" instance-id="2" semantic-id="4" stroke="rgb(0,178,178)" stroke-width="0.1"/>
  <path d="M 93.5578902292508,94.57250071193914 L 93.56227806273205,94.05900280336152" fill="none" instance-id="2" semantic-id="4" stroke="rgb(0,178,178)" stroke-width="0.1"/>
  <path d="M 93.56227806273205,94.05900280336152 L 93.53061717873265,93.54646310380588" fill="none" instance-id="2" semantic-id="4" stroke="rgb(0,178,178)" stroke-width="0.1"/>
  <path d="M 93.53061717873265,93.54646310380588 L 93.46306371228093,93.03740919274469" fill="none" instance-id="2" semantic-id="4" stroke="rgb(0,178,178)" stroke-width="0.1"/>
  <path d="M 93.46306371228093,93.03740919274469 L 93.3599508019712,92.53435145955325" fill="none" instance-id="2" semantic-id="4" stroke="rgb(0,178,178)" stroke-width="0.1"/>
  <path d="M 93.3599508019712,92.53435145955325 L 93.22178694709771,92.03977072357293" fill="none" instance-id="2" semantic-id="4" stroke="rgb(0,178,178)" stroke-width="0.1"/>
  <path d="M 93.22178694709771,92.03977072357293 L 93.04925349999996,91.556106" fill="none" instance-id="2" semantic-id="4" stroke="rgb(0,178,178)" stroke-width="0.1"/>
 </g>
 <g id="layerDOOR_FIRE_TEXT" inkscape:groupmode="layer" inkscape:label="DOOR_FIRE_TEXT">
  <text fill="rgb(0,0,0)" font-family="Noto Sans CJK SC" font-size="2" transform="rotate(-21.6395,81.53525349999995,90.33710600000006)" x="81.53525349999995" y="90.33710600000006">
   FM
  </text>
  <text fill="rgb(0,0,0)" font-family="Noto Sans CJK SC" font-size="2" transform="rotate(-21.6395,87.39125349999995,88.01410599999997)" x="87.39125349999995" y="88.01410599999997">
   乙
  </text>
  <text fill="rgb(0,0,0)" font-family="Noto Sans CJK SC" font-size="2" transform="rotate(-21.6395,90.81725349999999,86.65410599999996)" x="90.81725349999999" y="86.65410599999996">
   1523
  </text>
 </g>
 <g id="layerM-INFO-ROOM-JZTZ" inkscape:groupmode="layer" inkscape:label="M-INFO-ROOM-JZTZ">
  <path d="M 63.50534574072776,0.0 L 60.90125349999994,1.033106000000032" fill="none" stroke="rgb(178,0,0)" stroke-width="0.1"/>
  <path d="M 60.90125349999994,1.033106000000032 L 74.1772535,34.496106000000054" fill="none" stroke="rgb(178,0,0)" stroke-width="0.1"/>
  <path d="M 74.1772535,34.496106000000054 L 88.58425349999993,28.78010599999999" fill="none" stroke="rgb(178,0,0)" stroke-width="0.1"/>
  <path d="M 88.58425349999993,28.78010599999999 L 77.16698944268296,0.0" fill="none" stroke="rgb(178,0,0)" stroke-width="0.1"/>
  <path d="M 58.340121752602045,0.0 L 73.05525349999994,37.093106000000034" fill="none" stroke="rgb(178,0,0)" stroke-width="0.1"/>
  <path d="M 73.05525349999994,37.093106000000034 L 91.18125350000003,29.902106000000003" fill="none" stroke="rgb(178,0,0)" stroke-width="0.1"/>
  <path d="M 91.18125350000003,29.902106000000003 L 79.3180447211613,0.0" fill="none" stroke="rgb(178,0,0)" stroke-width="0.1"/>
  <path d="M 100.0,67.28426331912317 L 95.89925349999999,68.91110600000002" fill="none" stroke="rgb(178,0,0)" stroke-width="0.1"/>
  <path d="M 95.89925349999999,68.91110600000002 L 100.0,79.24784353782479" fill="none" stroke="rgb(178,0,0)" stroke-width="0.1"/>
  <path d="M 100.0,65.13262271815336 L 93.3022535,67.79010600000004" fill="none" stroke="rgb(178,0,0)" stroke-width="0.1"/>
  <path d="M 93.3022535,67.79010600000004 L 100.0,84.67228108908148" fill="none" stroke="rgb(178,0,0)" stroke-width="0.1"/>
  <path d="M 74.1772535,34.496106000000054 L 64.36625349999997,1.522106000000008" fill="none" stroke="rgb(178,0,0)" stroke-width="0.1"/>
  <path d="M 64.36625349999997,1.522106000000008 L 67.05060578976634,0.0" fill="none" stroke="rgb(178,0,0)" stroke-width="0.1"/>
  <path d="M 100.0,77.0289260118916 L 97.56525349999993,69.032106" fill="none" stroke="rgb(178,0,0)" stroke-width="0.1"/>
  <path d="M 97.56525349999993,69.032106 L 100.0,67.7362469876083" fill="none" stroke="rgb(178,0,0)" stroke-width="0.1"/>
 </g>
 <g id="layerPUB_TEXT" inkscape:groupmode="layer" inkscape:label="PUB_TEXT">
  <text fill="rgb(0,0,0)" font-family="Noto Sans CJK SC" font-size="2" transform="rotate(-21.64,71.03025349999996,16.21110600000003)" x="71.03025349999996" y="16.21110600000003">
   空调风井
  </text>
  <text fill="rgb(0,0,0)" font-family="Noto Sans CJK SC" font-size="2" transform="rotate(-21.64,0.5362534999999866,35.98010599999998)" x="0.5362534999999866" y="35.98010599999998">
   (
  </text>
  <text fill="rgb(0,0,0)" font-family="Noto Sans CJK SC" font-size="2" transform="rotate(-21.64,2.488253499999985,35.205106)" x="2.488253499999985" y="35.205106">
   结构
  </text>
  <text fill="rgb(0,0,0)" font-family="Noto Sans CJK SC" font-size="2" transform="rotate(-21.64,9.34025349999996,32.48710599999998)" x="9.34025349999996" y="32.48710599999998">
   )
  </text>
 </g>
 <g id="layerS-XF-LG" inkscape:groupmode="layer" inkscape:label="S-XF-LG">
  <circle cx="76.98925350000002" cy="84.15910599999995" fill="none" r="0.6" stroke="rgb(178,88,0)" stroke-width="0.1"/>
 </g>
 <g id="layerWALL" inkscape:groupmode="layer" inkscape:label="WALL">
  <path d="M 89.48225349999996,39.182105999999976 L 76.01025349999998,44.54110600000001" fill="none" instance-id="-1" semantic-id="1" stroke="rgb(178,178,0)" stroke-width="0.1"/>
  <path d="M 88.74425350000001,37.32310600000005 L 77.13125349999996,41.94310600000006" fill="none" instance-id="-1" semantic-id="1" stroke="rgb(178,178,0)" stroke-width="0.1"/>
  <path d="M 11.404253499999982,70.15810599999998 L 0.0,74.69455116229949" fill="none" instance-id="-1" semantic-id="1" stroke="rgb(178,178,0)" stroke-width="0.1"/>
  <path d="M 10.666253499999982,68.29910600000005 L 0.0,72.54209645720687" fill="none" instance-id="-1" semantic-id="1" stroke="rgb(178,178,0)" stroke-width="0.1"/>
  <path d="M 60.90125349999994,1.033106000000032 L 74.90725350000002,36.33710600000006" fill="none" instance-id="-1" semantic-id="1" stroke="rgb(178,178,0)" stroke-width="0.1"/>
  <path d="M 58.340123023760725,0.0 L 73.04825349999999,37.07410600000003" fill="none" instance-id="-1" semantic-id="1" stroke="rgb(178,178,0)" stroke-width="0.1"/>
  <path d="M 74.90725350000002,36.33710600000006 L 73.04825349999999,37.07410600000003" fill="none" instance-id="-1" semantic-id="1" stroke="rgb(178,178,0)" stroke-width="0.1"/>
  <path d="M 63.50534574072776,0.0 L 60.90125349999994,1.033106000000032" fill="none" instance-id="-1" semantic-id="1" stroke="rgb(178,178,0)" stroke-width="0.1"/>
  <path d="M 82.54629370237274,0.0 L 95.44525349999992,32.51310599999999" fill="none" instance-id="-1" semantic-id="1" stroke="rgb(178,178,0)" stroke-width="0.1"/>
  <path d="M 80.39445442404883,0.0 L 90.63625349999995,25.815106000000014" fill="none" instance-id="-1" semantic-id="1" stroke="rgb(178,178,0)" stroke-width="0.1"/>
  <path d="M 10.297253499999954,67.36910599999999 L 0.0,71.46553147643999" fill="none" instance-id="-1" semantic-id="1" stroke="rgb(178,178,0)" stroke-width="0.1"/>
  <path d="M 9.560253499999988,65.51010600000006 L 0.0,69.31330032590029" fill="none" instance-id="-1" semantic-id="1" stroke="rgb(178,178,0)" stroke-width="0.1"/>
  <path d="M 88.37525349999999,36.394105999999965 L 76.76225349999993,41.01310599999999" fill="none" instance-id="-1" semantic-id="1" stroke="rgb(178,178,0)" stroke-width="0.1"/>
  <path d="M 87.63825350000002,34.53510600000004 L 76.02525349999996,39.154105999999956" fill="none" instance-id="-1" semantic-id="1" stroke="rgb(178,178,0)" stroke-width="0.1"/>
  <path d="M 76.57125350000001,74.42710599999998 L 12.113055103160946,100.0" fill="none" instance-id="-1" semantic-id="1" stroke="rgb(178,178,0)" stroke-width="0.1"/>
  <path d="M 17.535964338374697,100.0 L 75.44925349999994,77.02410599999996" fill="none" instance-id="-1" semantic-id="1" stroke="rgb(178,178,0)" stroke-width="0.1"/>
  <path d="M 94.13125349999996,37.33810600000004 L 100.0,52.13125455563886" fill="none" instance-id="-1" semantic-id="1" stroke="rgb(178,178,0)" stroke-width="0.1"/>
  <path d="M 92.27225349999992,38.075106000000005 L 100.0,57.55312828893102" fill="none" instance-id="-1" semantic-id="1" stroke="rgb(178,178,0)" stroke-width="0.1"/>
  <path d="M 95.44525349999992,32.51310599999999 L 100.0,43.99425471493248" fill="none" instance-id="-1" semantic-id="1" stroke="rgb(178,178,0)" stroke-width="0.1"/>
  <path d="M 95.06125350000002,36.96910600000001 L 100.0,49.41783802625616" fill="none" instance-id="-1" semantic-id="1" stroke="rgb(178,178,0)" stroke-width="0.1"/>
  <path d="M 54.80425349999996,50.74910599999998 L 54.42925349999996,49.82210599999996" fill="none" instance-id="-1" semantic-id="1" stroke="rgb(178,178,0)" stroke-width="0.1"/>
  <path d="M 57.41025349999995,51.86510599999997 L 55.847253499999965,47.99010599999997" fill="none" instance-id="-1" semantic-id="1" stroke="rgb(178,178,0)" stroke-width="0.1"/>
  <path d="M 55.18325349999998,46.31410600000004 L 56.11325349999993,45.94510600000001" fill="none" instance-id="-1" semantic-id="1" stroke="rgb(178,178,0)" stroke-width="0.1"/>
  <path d="M 56.11325349999993,45.94510600000001 L 55.375253499999985,44.08610599999997" fill="none" instance-id="-1" semantic-id="1" stroke="rgb(178,178,0)" stroke-width="0.1"/>
  <path d="M 55.375253499999985,44.08610599999997 L 52.587253499999974,45.19210599999997" fill="none" instance-id="-1" semantic-id="1" stroke="rgb(178,178,0)" stroke-width="0.1"/>
  <path d="M 74.90725350000002,36.33710600000006 L 72.10725349999996,37.44810600000005" fill="none" instance-id="-1" semantic-id="1" stroke="rgb(178,178,0)" stroke-width="0.1"/>
  <path d="M 72.10725349999996,37.44810600000005 L 72.84425349999992,39.307105999999976" fill="none" instance-id="-1" semantic-id="1" stroke="rgb(178,178,0)" stroke-width="0.1"/>
  <path d="M 72.84425349999992,39.307105999999976 L 73.78625349999993,38.93410600000004" fill="none" instance-id="-1" semantic-id="1" stroke="rgb(178,178,0)" stroke-width="0.1"/>
  <path d="M 55.18325349999998,46.31410600000004 L 55.92125349999992,48.17310599999996" fill="none" instance-id="-1" semantic-id="1" stroke="rgb(178,178,0)" stroke-width="0.1"/>
  <path d="M 52.587253499999974,45.19210599999997 L 53.6872535,47.96510599999999" fill="none" instance-id="-1" semantic-id="1" stroke="rgb(178,178,0)" stroke-width="0.1"/>
  <path d="M 74.90725350000002,36.33710600000006 L 76.02525349999996,39.154105999999956" fill="none" instance-id="-1" semantic-id="1" stroke="rgb(178,178,0)" stroke-width="0.1"/>
  <path d="M 73.78625349999993,38.93410600000004 L 74.53525349999995,40.82210599999996" fill="none" instance-id="-1" semantic-id="1" stroke="rgb(178,178,0)" stroke-width="0.1"/>
  <path d="M 76.57125350000001,74.42710599999998 L 84.31425349999995,93.94610599999999" fill="none" instance-id="-1" semantic-id="1" stroke="rgb(178,178,0)" stroke-width="0.1"/>
  <path d="M 75.44925349999994,77.02410599999996 L 82.82425349999994,95.61310600000002" fill="none" instance-id="-1" semantic-id="1" stroke="rgb(178,178,0)" stroke-width="0.1"/>
  <path d="M 85.0522535,95.80510600000002 L 86.71646955599488,100.0" fill="none" instance-id="-1" semantic-id="1" stroke="rgb(178,178,0)" stroke-width="0.1"/>
  <path d="M 82.82425349999994,95.61310600000002 L 84.56469562919744,100.0" fill="none" instance-id="-1" semantic-id="1" stroke="rgb(178,178,0)" stroke-width="0.1"/>
  <path d="M 85.0522535,95.80510600000002 L 86.44625350000001,95.25210600000003" fill="none" instance-id="-1" semantic-id="1" stroke="rgb(178,178,0)" stroke-width="0.1"/>
  <path d="M 86.44625350000001,95.25210600000003 L 85.70925349999993,93.39310599999999" fill="none" instance-id="-1" semantic-id="1" stroke="rgb(178,178,0)" stroke-width="0.1"/>
  <path d="M 85.70925349999993,93.39310599999999 L 84.31425349999995,93.94610599999999" fill="none" instance-id="-1" semantic-id="1" stroke="rgb(178,178,0)" stroke-width="0.1"/>
  <path d="M 100.0,87.72315491355812 L 99.65225350000003,87.86110600000006" fill="none" instance-id="-1" semantic-id="1" stroke="rgb(178,178,0)" stroke-width="0.1"/>
  <path d="M 99.65225350000003,87.86110600000006 L 100.0,88.73825761940293" fill="none" instance-id="-1" semantic-id="1" stroke="rgb(178,178,0)" stroke-width="0.1"/>
  <path d="M 79.31840521383776,0.0 L 89.7062535,26.184105999999986" fill="none" instance-id="-1" semantic-id="1" stroke="rgb(178,178,0)" stroke-width="0.1"/>
  <path d="M 77.16706026408042,0.0 L 87.84725349999997,26.92110600000001" fill="none" instance-id="-1" semantic-id="1" stroke="rgb(178,178,0)" stroke-width="0.1"/>
  <path d="M 57.41025349999995,51.86510599999997 L 18.84025349999996,67.20810600000004" fill="none" instance-id="-1" semantic-id="1" stroke="rgb(178,178,0)" stroke-width="0.1"/>
  <path d="M 18.84025349999996,67.20810600000004 L 15.126253499999962,68.68510600000002" fill="none" instance-id="-1" semantic-id="1" stroke="rgb(178,178,0)" stroke-width="0.1"/>
  <path d="M 54.80425349999996,50.74910599999998 L 18.10225349999996,65.349106" fill="none" instance-id="-1" semantic-id="1" stroke="rgb(178,178,0)" stroke-width="0.1"/>
  <path d="M 54.42925349999996,49.82210599999996 L 17.734253499999966,64.41910600000006" fill="none" instance-id="-1" semantic-id="1" stroke="rgb(178,178,0)" stroke-width="0.1"/>
  <path d="M 53.6872535,47.96510599999999 L 16.996253499999966,62.56010600000002" fill="none" instance-id="-1" semantic-id="1" stroke="rgb(178,178,0)" stroke-width="0.1"/>
  <path d="M 76.76225349999993,41.01310599999999 L 77.13125349999996,41.94310600000006" fill="none" instance-id="-1" semantic-id="1" stroke="rgb(178,178,0)" stroke-width="0.1"/>
  <path d="M 74.53525349999995,40.82210599999996 L 76.01025349999998,44.54110600000001" fill="none" instance-id="-1" semantic-id="1" stroke="rgb(178,178,0)" stroke-width="0.1"/>
  <path d="M 95.89925349999999,68.91110600000002 L 100.0,79.24784353782479" fill="none" instance-id="-1" semantic-id="1" stroke="rgb(178,178,0)" stroke-width="0.1"/>
  <path d="M 93.3022535,67.79010600000004 L 100.0,84.67112565224704" fill="none" instance-id="-1" semantic-id="1" stroke="rgb(178,178,0)" stroke-width="0.1"/>
  <path d="M 93.3022535,67.79010600000004 L 100.0,65.13291052969021" fill="none" instance-id="-1" semantic-id="1" stroke="rgb(178,178,0)" stroke-width="0.1"/>
  <path d="M 95.89925349999999,68.91110600000002 L 100.0,67.28426331912317" fill="none" instance-id="-1" semantic-id="1" stroke="rgb(178,178,0)" stroke-width="0.1"/>
 </g>
 <g id="layerWINDOW" inkscape:groupmode="layer" inkscape:label="WINDOW">
  <path d="M 55.74425350000001,45.01510600000006 L 58.9802535,53.172105999999985" fill="none" instance-id="3" semantic-id="4" stroke="rgb(0,178,0)" stroke-width="0.1"/>
  <path d="M 56.16225350000002,44.849106000000006 L 59.39825350000001,53.006106000000045" fill="none" instance-id="3" semantic-id="4" stroke="rgb(0,178,0)" stroke-width="0.1"/>
  <path d="M 55.74425350000001,45.01510600000006 L 56.16225350000002,44.849106000000006" fill="none" instance-id="3" semantic-id="4" stroke="rgb(0,178,0)" stroke-width="0.1"/>
  <path d="M 59.39825350000001,53.006106000000045 L 58.9802535,53.172105999999985" fill="none" instance-id="3" semantic-id="4" stroke="rgb(0,178,0)" stroke-width="0.1"/>
  <path d="M 72.0572535,38.544106000000056 L 75.29325349999999,46.700106000000005" fill="none" instance-id="3" semantic-id="4" stroke="rgb(0,178,0)" stroke-width="0.1"/>
  <path d="M 72.47625349999998,38.378106 L 75.7112535,46.53410599999995" fill="none" instance-id="3" semantic-id="4" stroke="rgb(0,178,0)" stroke-width="0.1"/>
  <path d="M 75.29325349999999,46.700106000000005 L 75.7112535,46.53410599999995" fill="none" instance-id="3" semantic-id="4" stroke="rgb(0,178,0)" stroke-width="0.1"/>
  <path d="M 72.47625349999998,38.378106 L 72.0572535,38.544106000000056" fill="none" instance-id="3" semantic-id="4" stroke="rgb(0,178,0)" stroke-width="0.1"/>
  <path d="M 59.39725349999992,53.003106 A 8.775,8.775 0.0 0,0 64.1102535,41.696105999999986" fill="none" instance-id="3" semantic-id="4" stroke="rgb(0,178,0)" stroke-width="0.1"/>
  <path d="M 64.1102535,41.696105999999986 A 8.775,8.775 0.0 0,0 75.29225350000002,46.69710599999996" fill="none" instance-id="3" semantic-id="4" stroke="rgb(0,178,0)" stroke-width="0.1"/>
 </g>
 <g id="layerWINDOW_TEXT" inkscape:groupmode="layer" inkscape:label="WINDOW_TEXT">
  <text fill="rgb(178,0,178)" font-family="Noto Sans CJK SC" font-size="2" transform="rotate(-21.6395,48.87625349999996,45.76310599999999)" x="48.87625349999996" y="45.76310599999999">
   GSM1823-40
  </text>
 </g>
 <g id="layers-消火栓" inkscape:groupmode="layer" inkscape:label="s-消火栓">
  <path d="M 78.76825350000001,85.39010600000006 L 83.5812535,91.01110600000004" fill="none" stroke="rgb(178,88,0)" stroke-width="0.1"/>
  <path d="M 80.99925350000001,84.50510599999996 L 83.5812535,91.01110600000004" fill="none" stroke="rgb(178,88,0)" stroke-width="0.1"/>
  <path d="M 83.5812535,91.01110600000004 L 81.35025350000001,91.89610600000003" fill="none" stroke="rgb(178,88,0)" stroke-width="0.1"/>
  <path d="M 81.35025350000001,91.89610600000003 L 78.76825350000001,85.39010600000006" fill="none" stroke="rgb(178,88,0)" stroke-width="0.1"/>
  <path d="M 78.76825350000001,85.39010600000006 L 80.99925350000001,84.50510599999996" fill="none" stroke="rgb(178,88,0)" stroke-width="0.1"/>
  <path d="M 81.35025350000001,91.89610600000003 L 83.5812535,91.01110600000004" fill="none" stroke="rgb(178,88,0)" stroke-width="0.1"/>
  <path d="M 83.5812535,91.01110600000004 L 78.76825350000001,85.39010600000006" fill="none" stroke="rgb(178,88,0)" stroke-width="0.1"/>
  <path d="M 78.76825350000001,85.39010600000006 L 81.35025350000001,91.89610600000003" fill="none" stroke="rgb(178,88,0)" stroke-width="0.1"/>
 </g>
</svg>