<?xml version="1.0" encoding="utf-8"?>
<svg style="background-color: #000;" version="1.1" viewBox="0 0 100.0 100.0" xmlns="http://www.w3.org/2000/svg" xmlns:inkscape="http://www.inkscape.org/namespaces/inkscape">
 <g id="layer0-石材边线" inkscape:groupmode="layer" inkscape:label="0-石材边线">
  <path d="M 100.0,64.71240726496251 L 56.43228485028163,0.0" fill="none" stroke="rgb(255,73,12)" stroke-width="0.1"/>
 </g>
 <g id="layer0-结构边线" inkscape:groupmode="layer" inkscape:label="0-结构边线">
  <path d="M 100.0,50.38686857187042 L 66.07692641134963,0.0" fill="none" stroke="rgb(178,0,178)" stroke-width="0.1"/>
 </g>
 <g id="layer0-金属格栅" inkscape:groupmode="layer" inkscape:label="0-金属格栅">
  <path d="M 66.53225349999997,0.675106000000028 L 64.04325349999999,2.3501059999999825" fill="none" stroke="rgb(73,73,73)" stroke-width="0.1"/>
  <path d="M 64.04325349999999,2.3501059999999825 L 63.764253499999995,1.9361059999999952" fill="none" stroke="rgb(73,73,73)" stroke-width="0.1"/>
  <path d="M 63.764253499999995,1.9361059999999952 L 66.2522535,0.26010600000006434" fill="none" stroke="rgb(73,73,73)" stroke-width="0.1"/>
  <path d="M 66.2522535,0.26010600000006434 L 66.53225349999997,0.675106000000028" fill="none" stroke="rgb(73,73,73)" stroke-width="0.1"/>
  <path d="M 75.10625349999998,13.411106000000018 L 72.61725349999995,15.086105999999972" fill="none" stroke="rgb(73,73,73)" stroke-width="0.1"/>
  <path d="M 72.61725349999995,15.086105999999972 L 72.33825349999995,14.671106000000009" fill="none" stroke="rgb(73,73,73)" stroke-width="0.1"/>
  <path d="M 72.33825349999995,14.671106000000009 L 74.82725349999998,12.996106000000054" fill="none" stroke="rgb(73,73,73)" stroke-width="0.1"/>
  <path d="M 74.82725349999998,12.996106000000054 L 75.10625349999998,13.411106000000018" fill="none" stroke="rgb(73,73,73)" stroke-width="0.1"/>
  <path d="M 83.68025349999999,26.14610600000003 L 81.19225349999999,27.822105999999962" fill="none" stroke="rgb(73,73,73)" stroke-width="0.1"/>
  <path d="M 81.19225349999999,27.822105999999962 L 80.91225349999996,27.407106" fill="none" stroke="rgb(73,73,73)" stroke-width="0.1"/>
  <path d="M 80.91225349999996,27.407106 L 83.4012535,25.732106000000044" fill="none" stroke="rgb(73,73,73)" stroke-width="0.1"/>
  <path d="M 83.4012535,25.732106000000044 L 83.68025349999999,26.14610600000003" fill="none" stroke="rgb(73,73,73)" stroke-width="0.1"/>
  <path d="M 99.68625349999996,49.92010600000003 L 97.19725349999999,51.59510599999999" fill="none" stroke="rgb(73,73,73)" stroke-width="0.1"/>
  <path d="M 97.19725349999999,51.59510599999999 L 96.91825349999999,51.18010600000002" fill="none" stroke="rgb(73,73,73)" stroke-width="0.1"/>
  <path d="M 96.91825349999999,51.18010600000002 L 99.40625349999999,49.505105999999955" fill="none" stroke="rgb(73,73,73)" stroke-width="0.1"/>
  <path d="M 99.40625349999999,49.505105999999955 L 99.68625349999996,49.92010600000003" fill="none" stroke="rgb(73,73,73)" stroke-width="0.1"/>
  <path d="M 91.68325349999998,38.033105999999975 L 89.19425349999995,39.70810600000004" fill="none" stroke="rgb(73,73,73)" stroke-width="0.1"/>
  <path d="M 89.19425349999995,39.70810600000004 L 88.91525349999995,39.294106000000056" fill="none" stroke="rgb(73,73,73)" stroke-width="0.1"/>
  <path d="M 88.91525349999995,39.294106000000056 L 91.40425349999998,37.61810600000001" fill="none" stroke="rgb(73,73,73)" stroke-width="0.1"/>
  <path d="M 91.40425349999998,37.61810600000001 L 91.68325349999998,38.033105999999975" fill="none" stroke="rgb(73,73,73)" stroke-width="0.1"/>
 </g>
 <g id="layerA-FUR" inkscape:groupmode="layer" inkscape:label="A-FUR">
  <path d="M 99.81925349999995,24.746106000000054 L 100.0,25.2018533098161" fill="none" stroke="rgb(92,92,92)" stroke-width="0.1"/>
  <path d="M 100.0,24.469951604813787 L 99.97625349999998,24.41010600000004" fill="none" stroke="rgb(92,92,92)" stroke-width="0.1"/>
  <path d="M 99.9612535,24.416106000000013 L 100.0,24.400738683105146" fill="none" stroke="rgb(92,92,92)" stroke-width="0.1"/>
  <path d="M 100.0,29.753303635295424 L 98.16525349999995,25.128106000000002" fill="none" stroke="rgb(92,92,92)" stroke-width="0.1"/>
  <path d="M 96.21825349999995,40.42410600000005 L 94.0092535,34.854106" fill="none" instance-id="5" semantic-id="3" stroke="rgb(92,92,92)" stroke-width="0.1"/>
  <path d="M 95.93925349999995,40.53510600000004 L 93.72725349999996,34.95810600000004" fill="none" instance-id="5" semantic-id="3" stroke="rgb(92,92,92)" stroke-width="0.1"/>
  <path d="M 95.93925349999995,40.53510600000004 L 96.21825349999995,40.42410600000005" fill="none" instance-id="5" semantic-id="3" stroke="rgb(92,92,92)" stroke-width="0.1"/>
  <path d="M 91.45325349999996,28.065106000000014 L 92.10525349999995,29.70910600000002" fill="none" instance-id="1" semantic-id="29" stroke="rgb(92,92,92)" stroke-width="0.1"/>
  <path d="M 95.8892535,26.031106000000023 L 96.5332535,27.654105999999956" fill="none" instance-id="1" semantic-id="29" stroke="rgb(92,92,92)" stroke-width="0.1"/>
  <path d="M 96.5332535,27.654105999999956 L 92.25425349999995,29.35210600000005" fill="none" instance-id="1" semantic-id="29" stroke="rgb(92,92,92)" stroke-width="0.1"/>
  <path d="M 92.25425349999995,29.35210600000005 L 91.6102535,27.729106" fill="none" instance-id="1" semantic-id="29" stroke="rgb(92,92,92)" stroke-width="0.1"/>
  <path d="M 93.20025349999997,29.62610600000005 L 96.0332535,28.502106000000026" fill="none" instance-id="1" semantic-id="29" stroke="rgb(92,92,92)" stroke-width="0.1"/>
  <path d="M 100.0,31.10889211809615 L 97.70025349999997,25.31310600000006" fill="none" stroke="rgb(92,92,92)" stroke-width="0.1"/>
  <path d="M 96.12425349999995,41.00010599999996 L 94.4972535,41.645106000000055" fill="none" stroke="rgb(92,92,92)" stroke-width="0.1"/>
  <path d="M 95.93925349999995,40.53510600000004 L 94.77825349999995,40.996106000000054" fill="none" stroke="rgb(92,92,92)" stroke-width="0.1"/>
  <path d="M 96.12425349999995,41.00010599999996 L 95.93925349999995,40.53510600000004" fill="none" instance-id="5" semantic-id="3" stroke="rgb(92,92,92)" stroke-width="0.1"/>
  <path d="M 91.59525349999996,27.735105999999973 L 95.90425349999998,26.02510600000005" fill="none" instance-id="1" semantic-id="29" stroke="rgb(92,92,92)" stroke-width="0.1"/>
  <path d="M 96.23425349999997,26.168105999999966 L 96.88625349999995,27.81210599999997" fill="none" instance-id="1" semantic-id="29" stroke="rgb(92,92,92)" stroke-width="0.1"/>
  <path d="M 96.88025349999998,27.920106000000033 L 96.68825349999997,28.27110600000003" fill="none" instance-id="1" semantic-id="29" stroke="rgb(92,92,92)" stroke-width="0.1"/>
  <path d="M 97.06425349999995,29.596105999999963 L 96.67925349999996,28.370105999999964" fill="none" instance-id="1" semantic-id="29" stroke="rgb(92,92,92)" stroke-width="0.1"/>
  <path d="M 92.18425349999995,29.783105999999975 L 92.56425349999995,29.907106" fill="none" instance-id="1" semantic-id="29" stroke="rgb(92,92,92)" stroke-width="0.1"/>
  <path d="M 93.19825349999996,31.12910599999998 L 92.6392535,29.97310600000003" fill="none" instance-id="1" semantic-id="29" stroke="rgb(92,92,92)" stroke-width="0.1"/>
  <path d="M 94.77825349999995,40.996106000000054 L 89.79925349999996,28.447105999999962" fill="none" stroke="rgb(92,92,92)" stroke-width="0.1"/>
  <path d="M 99.9612535,24.416106000000013 A 0.254,0.254 0.0 0,0 99.81925349999995,24.746106000000054" fill="none" stroke="rgb(92,92,92)" stroke-width="0.1"/>
  <path d="M 99.66358218088965,35.83008414981509 L 99.23934467548435,35.52347827538847" fill="none" instance-id="5" semantic-id="3" stroke="rgb(92,92,92)" stroke-width="0.1"/>
  <path d="M 99.23934467548435,35.52347827538847 L 98.78999893569102,35.255014070409516" fill="none" instance-id="5" semantic-id="3" stroke="rgb(92,92,92)" stroke-width="0.1"/>
  <path d="M 98.78999893569102,35.255014070409516 L 98.31896478993235,35.02673473110178" fill="none" instance-id="5" semantic-id="3" stroke="rgb(92,92,92)" stroke-width="0.1"/>
  <path d="M 98.31896478993235,35.02673473110178 L 97.82982713023478,34.840377619375545" fill="none" instance-id="5" semantic-id="3" stroke="rgb(92,92,92)" stroke-width="0.1"/>
  <path d="M 97.82982713023478,34.840377619375545 L 97.32630862874817,34.697361040315286" fill="none" instance-id="5" semantic-id="3" stroke="rgb(92,92,92)" stroke-width="0.1"/>
  <path d="M 97.32630862874817,34.697361040315286 L 96.81224140566474,34.598773447908" fill="none" instance-id="5" semantic-id="3" stroke="rgb(92,92,92)" stroke-width="0.1"/>
  <path d="M 96.81224140566474,34.598773447908 L 96.29153786416305,34.545365161163545" fill="none" instance-id="5" semantic-id="3" stroke="rgb(92,92,92)" stroke-width="0.1"/>
  <path d="M 96.29153786416305,34.545365161163545 L 95.76816091434392,34.537542653674336" fill="none" instance-id="5" semantic-id="3" stroke="rgb(92,92,92)" stroke-width="0.1"/>
  <path d="M 95.76816091434392,34.537542653674336 L 95.24609381277406,34.57536546007259" fill="none" instance-id="5" semantic-id="3" stroke="rgb(92,92,92)" stroke-width="0.1"/>
  <path d="M 95.24609381277406,34.57536546007259 L 94.72930984717908,34.658545722931876" fill="none" instance-id="5" semantic-id="3" stroke="rgb(92,92,92)" stroke-width="0.1"/>
  <path d="M 94.72930984717908,34.658545722931876 L 94.22174209700631,34.786450383558076" fill="none" instance-id="5" semantic-id="3" stroke="rgb(92,92,92)" stroke-width="0.1"/>
  <path d="M 94.22174209700631,34.786450383558076 L 93.72725349999996,34.95810600000004" fill="none" instance-id="5" semantic-id="3" stroke="rgb(92,92,92)" stroke-width="0.1"/>
  <path d="M 94.70525349999997,33.24710600000003 A 1.53454,1.53454 0.0 0,0 96.4542535,33.69710599999996" fill="none" instance-id="1" semantic-id="29" stroke="rgb(92,92,92)" stroke-width="0.1"/>
  <path d="M 93.19825349999996,31.12910599999998 A 7.41027,7.41027 0.0 0,0 94.70525349999997,33.24710600000003" fill="none" instance-id="1" semantic-id="29" stroke="rgb(92,92,92)" stroke-width="0.1"/>
  <path d="M 94.85225349999996,33.18910600000004 A 1.34376,1.34376 0.0 0,0 96.4082535,33.579106000000024" fill="none" instance-id="1" semantic-id="29" stroke="rgb(92,92,92)" stroke-width="0.1"/>
  <path d="M 96.23425349999997,26.168105999999966 A 0.254,0.254 0.0 0,0 95.90425349999998,26.02510600000005" fill="none" instance-id="1" semantic-id="29" stroke="rgb(92,92,92)" stroke-width="0.1"/>
  <path d="M 91.59525349999996,27.735105999999973 A 0.254,0.254 0.0 0,0 91.45325349999996,28.065106000000014" fill="none" instance-id="1" semantic-id="29" stroke="rgb(92,92,92)" stroke-width="0.1"/>
  <path d="M 96.4082535,33.579106000000024 A 1.34376,1.34376 0.0 0,0 97.27225349999998,32.229106" fill="none" instance-id="1" semantic-id="29" stroke="rgb(92,92,92)" stroke-width="0.1"/>
  <path d="M 97.4202535,32.17010600000003 A 7.41027,7.41027 0.0 0,0 97.06425349999995,29.596105999999963" fill="none" instance-id="1" semantic-id="29" stroke="rgb(92,92,92)" stroke-width="0.1"/>
  <path d="M 96.4542535,33.69710599999996 A 1.53454,1.53454 0.0 0,0 97.4202535,32.17010600000003" fill="none" instance-id="1" semantic-id="29" stroke="rgb(92,92,92)" stroke-width="0.1"/>
  <path d="M 96.88025349999998,27.920106000000033 A 0.127,0.127 0.0 0,0 96.88625349999995,27.81210599999997" fill="none" stroke="rgb(92,92,92)" stroke-width="0.1"/>
  <path d="M 96.68825349999997,28.27110600000003 A 0.127,0.127 0.0 0,0 96.67925349999996,28.370105999999964" fill="none" stroke="rgb(92,92,92)" stroke-width="0.1"/>
  <path d="M 97.26925349999999,32.35010599999998 A 4.92718,4.92718 0.0 0,0 96.0332535,28.502106000000026" fill="none" instance-id="1" semantic-id="29" stroke="rgb(92,92,92)" stroke-width="0.1"/>
  <path d="M 93.20025349999997,29.62610600000005 A 4.92718,4.92718 0.0 0,0 94.9372535,33.27510600000005" fill="none" instance-id="1" semantic-id="29" stroke="rgb(92,92,92)" stroke-width="0.1"/>
  <path d="M 92.6392535,29.97310600000003 A 0.127,0.127 0.0 0,0 92.56425349999995,29.907106" fill="none" stroke="rgb(92,92,92)" stroke-width="0.1"/>
  <path d="M 92.10525349999995,29.70910600000002 A 0.127,0.127 0.0 0,0 92.18425349999995,29.783105999999975" fill="none" stroke="rgb(92,92,92)" stroke-width="0.1"/>
  <path d="M 94.87925349999995,37.86110600000006 L 94.78625349999999,37.898105999999984" fill="none" stroke="rgb(92,92,92)" stroke-width="0.1"/>
  <path d="M 94.78625349999999,37.898105999999984 L 94.82225349999999,37.99110600000006" fill="none" stroke="rgb(92,92,92)" stroke-width="0.1"/>
  <path d="M 94.82225349999999,37.99110600000006 L 94.73025349999995,38.027106" fill="none" stroke="rgb(92,92,92)" stroke-width="0.1"/>
  <path d="M 94.73025349999995,38.027106 L 94.58225349999998,37.65610600000002" fill="none" instance-id="5" semantic-id="3" stroke="rgb(92,92,92)" stroke-width="0.1"/>
  <path d="M 94.58225349999998,37.65610600000002 L 94.6752535,37.61910599999999" fill="none" stroke="rgb(92,92,92)" stroke-width="0.1"/>
  <path d="M 94.6752535,37.61910599999999 L 94.71225349999997,37.71210600000006" fill="none" stroke="rgb(92,92,92)" stroke-width="0.1"/>
  <path d="M 94.71225349999997,37.71210600000006 L 94.80525349999999,37.67510600000003" fill="none" stroke="rgb(92,92,92)" stroke-width="0.1"/>
  <path d="M 94.80525349999999,37.67510600000003 L 94.87925349999995,37.86110600000006" fill="none" instance-id="5" semantic-id="3" stroke="rgb(92,92,92)" stroke-width="0.1"/>
 </g>
 <g id="layerCOLUMN" inkscape:groupmode="layer" inkscape:label="COLUMN">
  <circle cx="87.71225349999997" cy="24.972106000000053" fill="none" r="4" stroke="rgb(178,178,0)" stroke-width="0.1"/>
 </g>
 <g id="layerCURTWALL" inkscape:groupmode="layer" inkscape:label="CURTWALL">
  <path d="M 100.0,55.75447025696076 L 62.46276288386588,0.0" fill="none" instance-id="-1" semantic-id="2" stroke="rgb(0,178,178)" stroke-width="0.1"/>
  <path d="M 100.0,53.970237716618385 L 63.66456389879846,0.0" fill="none" instance-id="-1" semantic-id="2" stroke="rgb(0,178,178)" stroke-width="0.1"/>
  <path d="M 66.07714966054846,0.0 L 83.90625349999999,26.482106000000044" fill="none" instance-id="-1" semantic-id="2" stroke="rgb(0,178,178)" stroke-width="0.1"/>
  <path d="M 67.28291911753439,0.0 L 83.74625349999997,24.453106000000048" fill="none" instance-id="-1" semantic-id="2" stroke="rgb(0,178,178)" stroke-width="0.1"/>
 </g>
 <g id="layerDIM_LEAD" inkscape:groupmode="layer" inkscape:label="DIM_LEAD">
  <path d="M 56.957683906739135,0.0 L 42.96325349999995,9.998106000000007" fill="none" stroke="rgb(0,178,0)" stroke-width="0.1"/>
  <path d="M 42.96325349999995,9.998106000000007 L 0.0,27.043937543342622" fill="none" stroke="rgb(0,178,0)" stroke-width="0.1"/>
 </g>
 <g id="layerM-INFO-ROOM-JZTZ" inkscape:groupmode="layer" inkscape:label="M-INFO-ROOM-JZTZ">
  <path d="M 100.0,7.18788593239708 L 84.36425349999996,13.391106000000036" fill="none" instance-id="-1" semantic-id="1" stroke="rgb(178,0,0)" stroke-width="0.1"/>
  <path d="M 84.36425349999996,13.391106000000036 L 87.86825349999998,22.22310600000003" fill="none" instance-id="-1" semantic-id="1" stroke="rgb(178,0,0)" stroke-width="0.1"/>
  <path d="M 87.86825349999998,22.22310600000003 L 100.0,17.41003913786642" fill="none" instance-id="-1" semantic-id="1" stroke="rgb(178,0,0)" stroke-width="0.1"/>
  <path d="M 100.0,5.035590777284256 L 81.76725349999998,12.269105999999965" fill="none" instance-id="-1" semantic-id="1" stroke="rgb(178,0,0)" stroke-width="0.1"/>
  <path d="M 81.76725349999998,12.269105999999965 L 87.29925349999996,26.212106000000063" fill="none" instance-id="-1" semantic-id="1" stroke="rgb(178,0,0)" stroke-width="0.1"/>
  <path d="M 87.29925349999996,26.212106000000063 L 100.0,21.17331257699027" fill="none" instance-id="-1" semantic-id="1" stroke="rgb(178,0,0)" stroke-width="0.1"/>
  <path d="M 100.0,7.18788593239708 L 84.36425349999996,13.391106000000036" fill="none" instance-id="-1" semantic-id="1" stroke="rgb(178,0,0)" stroke-width="0.1"/>
  <path d="M 84.36425349999996,13.391106000000036 L 88.4202535,23.61510599999997" fill="none" instance-id="-1" semantic-id="1" stroke="rgb(178,0,0)" stroke-width="0.1"/>
  <path d="M 88.4202535,23.61510599999997 L 100.0,19.02130378276604" fill="none" instance-id="-1" semantic-id="1" stroke="rgb(178,0,0)" stroke-width="0.1"/>
  <path d="M 87.86825349999998,22.22310600000003 L 88.24825349999998,13.576105999999982" fill="none" instance-id="-1" semantic-id="1" stroke="rgb(178,0,0)" stroke-width="0.1"/>
  <path d="M 88.24825349999998,13.576105999999982 L 100.0,8.39821581253966" fill="none" instance-id="-1" semantic-id="1" stroke="rgb(178,0,0)" stroke-width="0.1"/>
 </g>
 <g id="layerPUB_HATCH" inkscape:groupmode="layer" inkscape:label="PUB_HATCH">
  <path d="M 85.71225349999997,24.972106000000053 L 89.71225349999997,24.972106000000053" fill="none" stroke="rgb(63,63,63)" stroke-width="0.1"/>
  <path d="M 89.71225349999997,24.972106000000053 L 85.71225349999997,24.972106000000053" fill="none" stroke="rgb(63,63,63)" stroke-width="0.1"/>
 </g>
 <g id="layerPUB_TEXT" inkscape:groupmode="layer" inkscape:label="PUB_TEXT">
  <text fill="rgb(0,0,0)" font-family="Noto Sans CJK SC" font-size="2" transform="rotate(-21.64,18.35425349999997,27.104106)" x="18.35425349999997" y="27.104106">
   透明中空钢化玻璃
  </text>
 </g>
 <g id="layerWALL" inkscape:groupmode="layer" inkscape:label="WALL">
  <path d="M 85.48825349999998,21.647106000000008 L 81.76725349999998,12.269105999999965" fill="none" instance-id="-1" semantic-id="1" stroke="rgb(178,178,0)" stroke-width="0.1"/>
  <path d="M 87.3772535,20.986106000000063 L 84.36425349999996,13.391106000000036" fill="none" instance-id="-1" semantic-id="1" stroke="rgb(178,178,0)" stroke-width="0.1"/>
  <path d="M 100.0,7.18788593239708 L 84.36425349999996,13.391106000000036" fill="none" instance-id="-1" semantic-id="1" stroke="rgb(178,178,0)" stroke-width="0.1"/>
  <path d="M 100.0,5.0357635108449585 L 81.76725349999998,12.269105999999965" fill="none" instance-id="-1" semantic-id="1" stroke="rgb(178,178,0)" stroke-width="0.1"/>
  <path d="M 100.0,21.173704424319567 L 91.68125349999997,24.474106000000006" fill="none" instance-id="-1" semantic-id="1" stroke="rgb(178,178,0)" stroke-width="0.1"/>
  <path d="M 100.0,19.02122568085997 L 90.94325349999997,22.614105999999992" fill="none" instance-id="-1" semantic-id="1" stroke="rgb(178,178,0)" stroke-width="0.1"/>
  <path d="M 100.0,24.40040409904259 L 89.1872535,28.690106000000014" fill="none" instance-id="-1" semantic-id="1" stroke="rgb(178,178,0)" stroke-width="0.1"/>
  <path d="M 100.0,22.24916509161949 L 91.66925349999997,25.554106000000047" fill="none" instance-id="-1" semantic-id="1" stroke="rgb(178,178,0)" stroke-width="0.1"/>
 </g>
</svg>