<?xml version="1.0" encoding="utf-8"?>
<svg style="background-color: #000;" version="1.1" viewBox="0 0 100.0 100.0" xmlns="http://www.w3.org/2000/svg" xmlns:inkscape="http://www.inkscape.org/namespaces/inkscape">
 <g id="layerCOLUMN" inkscape:groupmode="layer" inkscape:label="COLUMN">
  <path d="M 21.946230000000014,77.19441850000001 L 21.065229999999985,82.1154185" fill="none" instance-id="-1" semantic-id="1" stroke="rgb(178,178,0)" stroke-width="0.1"/>
  <path d="M 21.065229999999985,82.1154185 L 53.057230000000004,87.8414185" fill="none" instance-id="-1" semantic-id="1" stroke="rgb(178,178,0)" stroke-width="0.1"/>
  <path d="M 53.057230000000004,87.8414185 L 52.35223000000002,91.77841850000002" fill="none" instance-id="-1" semantic-id="1" stroke="rgb(178,178,0)" stroke-width="0.1"/>
  <path d="M 52.35223000000002,91.77841850000002 L 61.21123,93.3644185" fill="none" instance-id="-1" semantic-id="1" stroke="rgb(178,178,0)" stroke-width="0.1"/>
  <path d="M 61.21123,93.3644185 L 62.79723000000001,84.50541850000002" fill="none" instance-id="-1" semantic-id="1" stroke="rgb(178,178,0)" stroke-width="0.1"/>
  <path d="M 62.79723000000001,84.50541850000002 L 21.946230000000014,77.19441850000001" fill="none" instance-id="-1" semantic-id="1" stroke="rgb(178,178,0)" stroke-width="0.1"/>
  <path d="M 62.093230000000005,40.19041850000002 L 61.21222999999998,45.11141850000001" fill="none" instance-id="-1" semantic-id="1" stroke="rgb(178,178,0)" stroke-width="0.1"/>
  <path d="M 61.21222999999998,45.11141850000001 L 100.0,52.0527327413935" fill="none" instance-id="-1" semantic-id="1" stroke="rgb(178,178,0)" stroke-width="0.1"/>
  <path d="M 100.0,46.973206904255335 L 62.093230000000005,40.19041850000002" fill="none" instance-id="-1" semantic-id="1" stroke="rgb(178,178,0)" stroke-width="0.1"/>
  <path d="M 75.94415959515294,0.0 L 100.0,4.305492392795173" fill="none" instance-id="-1" semantic-id="1" stroke="rgb(178,178,0)" stroke-width="0.1"/>
 </g>
 <g id="layerDIM_SYMB" inkscape:groupmode="layer" inkscape:label="DIM_SYMB">
  <path d="M 33.66023000000001,24.941418499999997 L 49.902229999999975,27.847418500000003" fill="none" stroke="rgb(0,178,0)" stroke-width="0.1"/>
  <path d="M 49.902229999999975,27.847418500000003 L 54.331230000000005,28.64041850000001" fill="none" stroke="rgb(0,178,0)" stroke-width="0.1"/>
  <path d="M 84.39123000000001,11.670418500000011 L 68.14922999999999,8.7634185" fill="none" stroke="rgb(0,178,0)" stroke-width="0.1"/>
  <path d="M 68.14922999999999,8.7634185 L 63.71922999999998,7.970418500000022" fill="none" stroke="rgb(0,178,0)" stroke-width="0.1"/>
  <path d="M 37.52823000000001,3.328418499999998 L 53.770230000000026,6.234418500000004" fill="none" stroke="rgb(0,178,0)" stroke-width="0.1"/>
  <path d="M 53.770230000000026,6.234418500000004 L 58.200229999999976,7.02741850000001" fill="none" stroke="rgb(0,178,0)" stroke-width="0.1"/>
  <path d="M 80.49923000000001,33.27941850000002 L 64.25722999999999,30.37241850000001" fill="none" stroke="rgb(0,178,0)" stroke-width="0.1"/>
  <path d="M 64.25722999999999,30.37241850000001 L 59.82823000000002,29.579418500000003" fill="none" stroke="rgb(0,178,0)" stroke-width="0.1"/>
  <path d="M 49.78823,52.46341850000002 L 41.81423000000001,51.036418499999996" fill="none" stroke="rgb(0,178,0)" stroke-width="0.1"/>
  <path d="M 41.81423000000001,51.036418499999996 L 37.38522999999998,50.24341850000002" fill="none" stroke="rgb(0,178,0)" stroke-width="0.1"/>
  <path d="M 46.26423,72.1504185 L 12.992230000000006,66.19541850000002" fill="none" stroke="rgb(0,178,0)" stroke-width="0.1"/>
  <path d="M 12.992230000000006,66.19541850000002 L 16.516230000000007,46.5074185" fill="none" stroke="rgb(0,178,0)" stroke-width="0.1"/>
  <path d="M 16.516230000000007,46.5074185 L 30.19923,48.95741850000002" fill="none" stroke="rgb(0,178,0)" stroke-width="0.1"/>
  <path d="M 30.19923,48.95741850000002 L 34.62923000000001,49.75041850000002" fill="none" stroke="rgb(0,178,0)" stroke-width="0.1"/>
 </g>
 <g id="layerDOOR_FIRE" inkscape:groupmode="layer" inkscape:label="DOOR_FIRE">
  <path d="M 98.22023000000002,85.2574185 L 88.62223,83.54041850000002" fill="none" instance-id="5" semantic-id="4" stroke="rgb(0,178,178)" stroke-width="0.1"/>
  <path d="M 98.30822999999998,84.76541850000001 L 88.71023000000002,83.0484185" fill="none" instance-id="5" semantic-id="4" stroke="rgb(0,178,178)" stroke-width="0.1"/>
  <path d="M 98.22023000000002,85.2574185 L 98.30822999999998,84.76541850000001" fill="none" instance-id="5" semantic-id="4" stroke="rgb(0,178,178)" stroke-width="0.1"/>
  <path d="M 88.71023000000002,83.0484185 L 88.62223,83.54041850000002" fill="none" instance-id="5" semantic-id="4" stroke="rgb(0,178,178)" stroke-width="0.1"/>
  <path d="M 100.0,65.76646008487029 L 92.05723,64.34541850000002" fill="none" instance-id="5" semantic-id="4" stroke="rgb(0,178,178)" stroke-width="0.1"/>
  <path d="M 100.0,65.2585695825172 L 92.14523000000003,63.853418500000004" fill="none" instance-id="5" semantic-id="4" stroke="rgb(0,178,178)" stroke-width="0.1"/>
  <path d="M 92.05723,64.34541850000002 L 92.14523000000003,63.853418500000004" fill="none" instance-id="5" semantic-id="4" stroke="rgb(0,178,178)" stroke-width="0.1"/>
  <path d="M 90.42622999999998,97.57741850000002 L 92.14423,87.97941850000001" fill="none" instance-id="6" semantic-id="4" stroke="rgb(0,178,178)" stroke-width="0.1"/>
  <path d="M 89.93423000000001,97.4894185 L 91.65123,87.89141850000001" fill="none" instance-id="6" semantic-id="4" stroke="rgb(0,178,178)" stroke-width="0.1"/>
  <path d="M 90.42622999999998,97.57741850000002 L 89.93423000000001,97.4894185" fill="none" instance-id="6" semantic-id="4" stroke="rgb(0,178,178)" stroke-width="0.1"/>
  <path d="M 91.65123,87.89141850000001 L 92.14423,87.97941850000001" fill="none" instance-id="6" semantic-id="4" stroke="rgb(0,178,178)" stroke-width="0.1"/>
  <path d="M 71.23122999999998,94.14141850000001 L 72.94923,84.5444185" fill="none" instance-id="6" semantic-id="4" stroke="rgb(0,178,178)" stroke-width="0.1"/>
  <path d="M 70.73923000000002,94.05341850000002 L 72.45623,84.45641850000001" fill="none" instance-id="6" semantic-id="4" stroke="rgb(0,178,178)" stroke-width="0.1"/>
  <path d="M 72.94923,84.5444185 L 72.45623,84.45641850000001" fill="none" instance-id="6" semantic-id="4" stroke="rgb(0,178,178)" stroke-width="0.1"/>
  <path d="M 70.73923000000002,94.05341850000002 L 71.23122999999998,94.14141850000001" fill="none" instance-id="6" semantic-id="4" stroke="rgb(0,178,178)" stroke-width="0.1"/>
  <path d="M 72.13222999999999,80.58841850000002 L 62.53523000000001,78.8714185" fill="none" instance-id="3" semantic-id="4" stroke="rgb(0,178,178)" stroke-width="0.1"/>
  <path d="M 72.22122999999999,80.0964185 L 62.62322999999998,78.37941850000001" fill="none" instance-id="3" semantic-id="4" stroke="rgb(0,178,178)" stroke-width="0.1"/>
  <path d="M 72.13222999999999,80.58841850000002 L 72.22122999999999,80.0964185" fill="none" instance-id="3" semantic-id="4" stroke="rgb(0,178,178)" stroke-width="0.1"/>
  <path d="M 62.62322999999998,78.37941850000001 L 62.53523000000001,78.8714185" fill="none" instance-id="3" semantic-id="4" stroke="rgb(0,178,178)" stroke-width="0.1"/>
  <path d="M 75.56723,61.393418499999996 L 65.97023000000002,59.67641850000001" fill="none" instance-id="3" semantic-id="4" stroke="rgb(0,178,178)" stroke-width="0.1"/>
  <path d="M 75.65523000000002,60.901418500000005 L 66.05822999999998,59.18441850000002" fill="none" instance-id="3" semantic-id="4" stroke="rgb(0,178,178)" stroke-width="0.1"/>
  <path d="M 65.97023000000002,59.67641850000001 L 66.05822999999998,59.18441850000002" fill="none" instance-id="3" semantic-id="4" stroke="rgb(0,178,178)" stroke-width="0.1"/>
  <path d="M 75.65523000000002,60.901418500000005 L 75.56723,61.393418499999996" fill="none" instance-id="3" semantic-id="4" stroke="rgb(0,178,178)" stroke-width="0.1"/>
  <path d="M 100.0,35.29004968253804 L 97.34123,34.814418500000016" fill="none" stroke="rgb(0,178,178)" stroke-width="0.1"/>
  <path d="M 100.0,35.79807831037718 L 97.25322999999997,35.30641850000001" fill="none" stroke="rgb(0,178,178)" stroke-width="0.1"/>
  <path d="M 97.34123,34.814418500000016 L 97.25322999999997,35.30641850000001" fill="none" stroke="rgb(0,178,178)" stroke-width="0.1"/>
  <path d="M 13.487002791327086,0.0 L 20.55023,1.264418500000005" fill="none" instance-id="1" semantic-id="4" stroke="rgb(0,178,178)" stroke-width="0.1"/>
  <path d="M 10.865229999999997,0.038418500000005906 L 20.462229999999977,1.7564185000000236" fill="none" instance-id="1" semantic-id="4" stroke="rgb(0,178,178)" stroke-width="0.1"/>
  <path d="M 10.872101601626014,0.0 L 10.865229999999997,0.038418500000005906" fill="none" instance-id="1" semantic-id="4" stroke="rgb(0,178,178)" stroke-width="0.1"/>
  <path d="M 20.462229999999977,1.7564185000000236 L 20.55023,1.264418500000005" fill="none" instance-id="1" semantic-id="4" stroke="rgb(0,178,178)" stroke-width="0.1"/>
  <path d="M 7.517229999999984,18.74141850000001 L 17.115229999999997,20.459418499999998" fill="none" instance-id="1" semantic-id="4" stroke="rgb(0,178,178)" stroke-width="0.1"/>
  <path d="M 7.429230000000018,19.2334185 L 17.027229999999975,20.951418500000017" fill="none" instance-id="1" semantic-id="4" stroke="rgb(0,178,178)" stroke-width="0.1"/>
  <path d="M 17.115229999999997,20.459418499999998 L 17.027229999999975,20.951418500000017" fill="none" instance-id="1" semantic-id="4" stroke="rgb(0,178,178)" stroke-width="0.1"/>
  <path d="M 7.429230000000018,19.2334185 L 7.517229999999984,18.74141850000001" fill="none" instance-id="1" semantic-id="4" stroke="rgb(0,178,178)" stroke-width="0.1"/>
  <path d="M 99.98122999999998,75.41441850000001 A 9.75,9.75 0.0 0,0 88.71323000000001,83.0484185" fill="none" instance-id="5" semantic-id="4" stroke="rgb(0,178,178)" stroke-width="0.1"/>
  <path d="M 92.06022999999999,64.34541850000002 A 9.75,9.75 0.0 0,0 99.98122999999998,75.41441850000001" fill="none" instance-id="5" semantic-id="4" stroke="rgb(0,178,178)" stroke-width="0.1"/>
  <path d="M 91.65123,87.8954185 A 9.75,9.75 0.0 0,0 80.58222999999998,95.81541850000002" fill="none" instance-id="6" semantic-id="4" stroke="rgb(0,178,178)" stroke-width="0.1"/>
  <path d="M 80.58222999999998,95.81541850000002 A 9.75,9.75 0.0 0,0 72.94823000000002,84.54741850000002" fill="none" instance-id="6" semantic-id="4" stroke="rgb(0,178,178)" stroke-width="0.1"/>
  <path d="M 73.89423,70.7454185 A 9.75,9.75 0.0 0,0 62.62623000000002,78.37941850000001" fill="none" instance-id="3" semantic-id="4" stroke="rgb(0,178,178)" stroke-width="0.1"/>
  <path d="M 65.97323,59.67641850000001 A 9.75,9.75 0.0 0,0 73.89423,70.7454185" fill="none" instance-id="3" semantic-id="4" stroke="rgb(0,178,178)" stroke-width="0.1"/>
  <path d="M 99.89072572343827,29.996252322113378 L 99.55088172519424,30.365860067032628" fill="none" stroke="rgb(0,178,178)" stroke-width="0.1"/>
  <path d="M 99.55088172519424,30.365860067032628 L 99.23051587513436,30.752472987616272" fill="none" stroke="rgb(0,178,178)" stroke-width="0.1"/>
  <path d="M 99.23051587513436,30.752472987616272 L 98.93047777701662,31.155065794214522" fill="none" stroke="rgb(0,178,178)" stroke-width="0.1"/>
  <path d="M 98.93047777701662,31.155065794214522 L 98.65156312581166,31.57257081884299" fill="none" stroke="rgb(0,178,178)" stroke-width="0.1"/>
  <path d="M 98.65156312581166,31.57257081884299 L 98.39451159753611,32.00388084661651" fill="none" stroke="rgb(0,178,178)" stroke-width="0.1"/>
  <path d="M 98.39451159753611,32.00388084661651 L 98.1600048876465,32.447852052060625" fill="none" stroke="rgb(0,178,178)" stroke-width="0.1"/>
  <path d="M 98.1600048876465,32.447852052060625 L 97.94866490319663,32.90330703251371" fill="none" stroke="rgb(0,178,178)" stroke-width="0.1"/>
  <path d="M 97.94866490319663,32.90330703251371 L 97.76105211355298,33.36903793057493" fill="none" stroke="rgb(0,178,178)" stroke-width="0.1"/>
  <path d="M 97.76105211355298,33.36903793057493 L 97.59766406404088,33.84380963731769" fill="none" stroke="rgb(0,178,178)" stroke-width="0.1"/>
  <path d="M 97.59766406404088,33.84380963731769 L 97.45893405646473,34.326363067773514" fill="none" stroke="rgb(0,178,178)" stroke-width="0.1"/>
  <path d="M 97.45893405646473,34.326363067773514 L 97.34523000000002,34.81541850000002" fill="none" stroke="rgb(0,178,178)" stroke-width="0.1"/>
  <path d="M 9.191230000000019,9.39041850000001 A 9.75,9.75 0.0 0,0 20.45922999999999,1.7554185000000189" fill="none" instance-id="1" semantic-id="4" stroke="rgb(0,178,178)" stroke-width="0.1"/>
  <path d="M 17.11223000000001,20.458418500000022 A 9.75,9.75 0.0 0,0 9.191230000000019,9.39041850000001" fill="none" instance-id="1" semantic-id="4" stroke="rgb(0,178,178)" stroke-width="0.1"/>
 </g>
 <g id="layerDOOR_FIRE_TEXT" inkscape:groupmode="layer" inkscape:label="DOOR_FIRE_TEXT">
  <text fill="rgb(0,0,0)" font-family="Noto Sans CJK SC" font-size="2" transform="rotate(-259.854,99.59823,72.60641850000002)" x="99.59823" y="72.60641850000002">
   乙
  </text>
  <text fill="rgb(0,0,0)" font-family="Noto Sans CJK SC" font-size="2" transform="rotate(-259.854,98.99822999999998,75.95541850000001)" x="98.99822999999998" y="75.95541850000001">
   2023
  </text>
  <text fill="rgb(0,0,0)" font-family="Noto Sans CJK SC" font-size="2" transform="rotate(-259.854,74.15922999999998,64.3114185)" x="74.15922999999998" y="64.3114185">
   FM
  </text>
  <text fill="rgb(0,0,0)" font-family="Noto Sans CJK SC" font-size="2" transform="rotate(-259.854,73.51022999999998,67.93841850000001)" x="73.51022999999998" y="67.93841850000001">
   乙
  </text>
  <text fill="rgb(0,0,0)" font-family="Noto Sans CJK SC" font-size="2" transform="rotate(-259.854,72.91122999999999,71.2864185)" x="72.91122999999999" y="71.2864185">
   2023
  </text>
  <text fill="rgb(0,0,0)" font-family="Noto Sans CJK SC" font-size="2" transform="rotate(-259.853,0.034229999999979555,1.1824185000000114)" x="0.034229999999979555" y="1.1824185000000114">
   FM
  </text>
 </g>
 <g id="layerPUB_HATCH" inkscape:groupmode="layer" inkscape:label="PUB_HATCH">
  <path d="M 21.065229999999985,82.1154185 L 53.057230000000004,87.8414185" fill="none" stroke="rgb(63,63,63)" stroke-width="0.1"/>
  <path d="M 53.057230000000004,87.8414185 L 52.35223000000002,91.77841850000002" fill="none" stroke="rgb(63,63,63)" stroke-width="0.1"/>
  <path d="M 52.35223000000002,91.77841850000002 L 61.21123,93.3644185" fill="none" stroke="rgb(63,63,63)" stroke-width="0.1"/>
  <path d="M 61.21123,93.3644185 L 62.79723000000001,84.50541850000002" fill="none" stroke="rgb(63,63,63)" stroke-width="0.1"/>
  <path d="M 62.79723000000001,84.50541850000002 L 21.946230000000014,77.19441850000001" fill="none" stroke="rgb(63,63,63)" stroke-width="0.1"/>
  <path d="M 21.946230000000014,77.19441850000001 L 21.065229999999985,82.1154185" fill="none" stroke="rgb(63,63,63)" stroke-width="0.1"/>
  <path d="M 61.21222999999998,45.11141850000001 L 100.0,52.0527327413935" fill="none" stroke="rgb(63,63,63)" stroke-width="0.1"/>
  <path d="M 100.0,46.973206904255335 L 62.093230000000005,40.19041850000002" fill="none" stroke="rgb(63,63,63)" stroke-width="0.1"/>
  <path d="M 62.093230000000005,40.19041850000002 L 61.21222999999998,45.11141850000001" fill="none" stroke="rgb(63,63,63)" stroke-width="0.1"/>
  <path d="M 75.94415959515294,0.0 L 100.0,4.305492392795173" fill="none" stroke="rgb(63,63,63)" stroke-width="0.1"/>
 </g>
 <g id="layerPUB_TEXT" inkscape:groupmode="layer" inkscape:label="PUB_TEXT">
  <text fill="rgb(0,178,0)" font-family="Noto Sans CJK SC" font-size="2" transform="rotate(-349.853,77.28422999999998,68.75941850000001)" x="77.28422999999998" y="68.75941850000001">
   LTB11
  </text>
  <text fill="rgb(0,0,0)" font-family="Noto Sans CJK SC" font-size="2" transform="rotate(-349.9,79.18623000000002,56.25941850000001)" x="79.18623000000002" y="56.25941850000001">
   正压
  </text>
  <text fill="rgb(0,0,0)" font-family="Noto Sans CJK SC" font-size="2" transform="rotate(-349.9,22.745229999999992,90.21141850000001)" x="22.745229999999992" y="90.21141850000001">
   空调水
  </text>
  <text fill="rgb(0,0,0)" font-family="Noto Sans CJK SC" font-size="2" transform="rotate(-349.9,6.116229999999973,87.23541850000001)" x="6.116229999999973" y="87.23541850000001">
   正压
  </text>
  <text fill="rgb(0,178,0)" font-family="Noto Sans CJK SC" font-size="2" transform="rotate(-349.853,17.678229999999985,15.944418500000012)" x="17.678229999999985" y="15.944418500000012">
   LTB2
  </text>
  <text fill="rgb(0,0,0)" font-family="Noto Sans CJK SC" font-size="2" transform="rotate(-339.753,19.794230000000027,22.919418500000006)" x="19.794230000000027" y="22.919418500000006">
   上
  </text>
  <text fill="rgb(0,0,0)" font-family="Noto Sans CJK SC" font-size="2" transform="rotate(-339.753,23.253229999999974,24.194418500000012)" x="23.253229999999974" y="24.194418500000012">
   17
  </text>
  <text fill="rgb(0,0,0)" font-family="Noto Sans CJK SC" font-size="2" transform="rotate(-339.753,28.319230000000005,26.06341850000001)" x="28.319230000000005" y="26.06341850000001">
   级
  </text>
  <text fill="rgb(0,0,0)" font-family="Noto Sans CJK SC" font-size="2" transform="rotate(-339.753,85.03323,14.41041850000002)" x="85.03323" y="14.41041850000002">
   上
  </text>
  <text fill="rgb(0,0,0)" font-family="Noto Sans CJK SC" font-size="2" transform="rotate(-339.753,88.49122999999997,15.686418500000002)" x="88.49122999999997" y="15.686418500000002">
   17
  </text>
  <text fill="rgb(0,0,0)" font-family="Noto Sans CJK SC" font-size="2" transform="rotate(-339.753,93.55723,17.554418499999997)" x="93.55723" y="17.554418499999997">
   级
  </text>
  <text fill="rgb(0,0,0)" font-family="Noto Sans CJK SC" font-size="2" transform="rotate(-339.753,23.662230000000022,1.3054185000000018)" x="23.662230000000022" y="1.3054185000000018">
   上
  </text>
  <text fill="rgb(0,0,0)" font-family="Noto Sans CJK SC" font-size="2" transform="rotate(-339.753,27.121230000000025,2.5814185000000123)" x="27.121230000000025" y="2.5814185000000123">
   17
  </text>
  <text fill="rgb(0,0,0)" font-family="Noto Sans CJK SC" font-size="2" transform="rotate(-339.753,32.18723,4.450418500000012)" x="32.18723" y="4.450418500000012">
   级
  </text>
  <text fill="rgb(0,0,0)" font-family="Noto Sans CJK SC" font-size="2" transform="rotate(-339.753,81.14123000000001,36.0194185)" x="81.14123000000001" y="36.0194185">
   上
  </text>
  <text fill="rgb(0,0,0)" font-family="Noto Sans CJK SC" font-size="2" transform="rotate(-339.753,84.59922999999998,37.294418500000006)" x="84.59922999999998" y="37.294418500000006">
   17
  </text>
  <text fill="rgb(0,0,0)" font-family="Noto Sans CJK SC" font-size="2" transform="rotate(-339.753,89.66622999999998,39.163418500000006)" x="89.66622999999998" y="39.163418500000006">
   级
  </text>
  <text fill="rgb(0,0,0)" font-family="Noto Sans CJK SC" font-size="2" transform="rotate(-339.753,50.430229999999995,55.2034185)" x="50.430229999999995" y="55.2034185">
   上
  </text>
  <text fill="rgb(0,0,0)" font-family="Noto Sans CJK SC" font-size="2" transform="rotate(-339.753,53.88823000000002,56.47941850000001)" x="53.88823000000002" y="56.47941850000001">
   18
  </text>
  <text fill="rgb(0,0,0)" font-family="Noto Sans CJK SC" font-size="2" transform="rotate(-339.753,58.954229999999995,58.34841850000001)" x="58.954229999999995" y="58.34841850000001">
   级
  </text>
  <text fill="rgb(0,0,0)" font-family="Noto Sans CJK SC" font-size="2" transform="rotate(-339.753,46.906229999999994,74.89041850000001)" x="46.906229999999994" y="74.89041850000001">
   下
  </text>
  <text fill="rgb(0,0,0)" font-family="Noto Sans CJK SC" font-size="2" transform="rotate(-339.753,50.36423000000002,76.16641850000002)" x="50.36423000000002" y="76.16641850000002">
   18
  </text>
  <text fill="rgb(0,0,0)" font-family="Noto Sans CJK SC" font-size="2" transform="rotate(-339.753,55.430229999999995,78.03541850000002)" x="55.430229999999995" y="78.03541850000002">
   级
  </text>
 </g>
 <g id="layerSTAIR" inkscape:groupmode="layer" inkscape:label="STAIR">
  <path d="M 81.33323000000001,20.67241850000002 L 84.75123000000002,1.5764185000000168" fill="none" instance-id="7" semantic-id="30" stroke="rgb(178,88,0)" stroke-width="0.1"/>
  <path d="M 78.57722999999999,20.179418499999997 L 81.99522999999999,1.082418500000017" fill="none" instance-id="7" semantic-id="30" stroke="rgb(178,88,0)" stroke-width="0.1"/>
  <path d="M 75.82123000000001,19.686418500000002 L 79.23822999999999,0.589418500000022" fill="none" instance-id="7" semantic-id="30" stroke="rgb(178,88,0)" stroke-width="0.1"/>
  <path d="M 73.06522999999999,19.192418500000002 L 76.48223000000002,0.09641849999999863" fill="none" instance-id="7" semantic-id="30" stroke="rgb(178,88,0)" stroke-width="0.1"/>
  <path d="M 70.30822999999998,18.699418500000007 L 73.65524573277122,0.0" fill="none" instance-id="7" semantic-id="30" stroke="rgb(178,88,0)" stroke-width="0.1"/>
  <path d="M 67.55223000000001,18.206418500000012 L 70.81083283987016,0.0" fill="none" instance-id="7" semantic-id="30" stroke="rgb(178,88,0)" stroke-width="0.1"/>
  <path d="M 64.79622999999998,17.713418500000017 L 64.99423000000002,16.605418500000013" fill="none" instance-id="7" semantic-id="30" stroke="rgb(178,88,0)" stroke-width="0.1"/>
  <path d="M 65.34723000000002,14.636418500000019 L 67.96570536960053,0.0" fill="none" instance-id="7" semantic-id="30" stroke="rgb(178,88,0)" stroke-width="0.1"/>
  <path d="M 63.44522999999998,9.369418500000023 L 65.1214944515383,0.0" fill="none" instance-id="7" semantic-id="30" stroke="rgb(178,88,0)" stroke-width="0.1"/>
  <path d="M 59.28422999999998,16.726418500000023 L 61.190229999999985,6.071418500000021" fill="none" instance-id="7" semantic-id="30" stroke="rgb(178,88,0)" stroke-width="0.1"/>
  <path d="M 61.543229999999994,4.102418499999999 L 62.27725358204572,0.0" fill="none" instance-id="7" semantic-id="30" stroke="rgb(178,88,0)" stroke-width="0.1"/>
  <path d="M 56.527229999999975,16.2334185 L 59.289229999999975,0.804418499999997" fill="none" instance-id="7" semantic-id="30" stroke="rgb(178,88,0)" stroke-width="0.1"/>
  <path d="M 53.77123,15.740418500000004 L 56.58846571414358,0.0" fill="none" instance-id="7" semantic-id="30" stroke="rgb(178,88,0)" stroke-width="0.1"/>
  <path d="M 51.015229999999974,15.247418500000009 L 53.74342966562813,0.0" fill="none" instance-id="7" semantic-id="30" stroke="rgb(178,88,0)" stroke-width="0.1"/>
  <path d="M 48.25923,14.75341850000001 L 50.89917716246856,0.0" fill="none" instance-id="7" semantic-id="30" stroke="rgb(178,88,0)" stroke-width="0.1"/>
  <path d="M 45.503229999999974,14.260418500000014 L 48.05496072970777,0.0" fill="none" instance-id="7" semantic-id="30" stroke="rgb(178,88,0)" stroke-width="0.1"/>
  <path d="M 42.746230000000025,13.76741850000002 L 45.21033621736399,0.0" fill="none" instance-id="7" semantic-id="30" stroke="rgb(178,88,0)" stroke-width="0.1"/>
  <path d="M 39.99023,13.274418499999996 L 42.36609858841706,0.0" fill="none" instance-id="7" semantic-id="30" stroke="rgb(178,88,0)" stroke-width="0.1"/>
  <path d="M 37.234230000000025,12.780418499999996 L 39.521132493427956,0.0" fill="none" instance-id="7" semantic-id="30" stroke="rgb(178,88,0)" stroke-width="0.1"/>
  <path d="M 81.22823,21.2634185 L 66.80822999999998,18.68241850000001" fill="none" instance-id="7" semantic-id="30" stroke="rgb(178,88,0)" stroke-width="0.1"/>
  <path d="M 65.67122999999998,18.47941850000001 L 37.128229999999974,13.371418500000004" fill="none" instance-id="7" semantic-id="30" stroke="rgb(178,88,0)" stroke-width="0.1"/>
  <path d="M 81.22823,21.2634185 L 81.33323000000001,20.67241850000002" fill="none" instance-id="7" semantic-id="30" stroke="rgb(178,88,0)" stroke-width="0.1"/>
  <path d="M 37.128229999999974,13.371418500000004 L 37.234230000000025,12.780418499999996" fill="none" instance-id="7" semantic-id="30" stroke="rgb(178,88,0)" stroke-width="0.1"/>
  <path d="M 65.67122999999998,18.47941850000001 L 62.107230000000015,8.609418500000004" fill="none" instance-id="7" semantic-id="30" stroke="rgb(178,88,0)" stroke-width="0.1"/>
  <path d="M 66.80822999999998,18.68241850000001 L 63.13823000000002,8.52141850000001" fill="none" instance-id="7" semantic-id="30" stroke="rgb(178,88,0)" stroke-width="0.1"/>
  <path d="M 63.13823000000002,8.52141850000001 L 61.36122999999998,8.67241850000002" fill="none" instance-id="7" semantic-id="30" stroke="rgb(178,88,0)" stroke-width="0.1"/>
  <path d="M 61.36122999999998,8.67241850000002 L 63.42523,6.9484185000000025" fill="none" instance-id="7" semantic-id="30" stroke="rgb(178,88,0)" stroke-width="0.1"/>
  <path d="M 63.42523,6.9484185000000025 L 61.56423000000001,7.106418500000018" fill="none" instance-id="7" semantic-id="30" stroke="rgb(178,88,0)" stroke-width="0.1"/>
  <path d="M 61.56423000000001,7.106418500000018 L 58.99855745303444,0.0" fill="none" instance-id="7" semantic-id="30" stroke="rgb(178,88,0)" stroke-width="0.1"/>
  <path d="M 62.59622999999999,7.0194185000000004 L 60.061478758003545,0.0" fill="none" instance-id="7" semantic-id="30" stroke="rgb(178,88,0)" stroke-width="0.1"/>
  <path d="M 36.670230000000004,15.930418500000002 L 33.253229999999974,35.02741850000001" fill="none" instance-id="7" semantic-id="30" stroke="rgb(178,88,0)" stroke-width="0.1"/>
  <path d="M 39.426229999999975,16.4244185 L 36.00923,35.520418500000005" fill="none" instance-id="7" semantic-id="30" stroke="rgb(178,88,0)" stroke-width="0.1"/>
  <path d="M 42.18322999999998,16.917418499999997 L 38.765229999999974,36.014418500000005" fill="none" instance-id="7" semantic-id="30" stroke="rgb(178,88,0)" stroke-width="0.1"/>
  <path d="M 44.93923000000001,17.41041850000002 L 41.52123,36.5074185" fill="none" instance-id="7" semantic-id="30" stroke="rgb(178,88,0)" stroke-width="0.1"/>
  <path d="M 47.69522999999998,17.903418500000015 L 44.27823000000001,37.00041850000002" fill="none" instance-id="7" semantic-id="30" stroke="rgb(178,88,0)" stroke-width="0.1"/>
  <path d="M 50.45123000000001,18.397418500000015 L 47.03422999999998,37.49341850000002" fill="none" instance-id="7" semantic-id="30" stroke="rgb(178,88,0)" stroke-width="0.1"/>
  <path d="M 53.208230000000015,18.89041850000001 L 53.00923,19.998418500000014" fill="none" instance-id="7" semantic-id="30" stroke="rgb(178,88,0)" stroke-width="0.1"/>
  <path d="M 52.65723000000003,21.966418500000003 L 49.79023000000001,37.98641850000001" fill="none" instance-id="7" semantic-id="30" stroke="rgb(178,88,0)" stroke-width="0.1"/>
  <path d="M 55.964229999999986,19.383418500000005 L 54.91122999999999,25.26541850000001" fill="none" instance-id="7" semantic-id="30" stroke="rgb(178,88,0)" stroke-width="0.1"/>
  <path d="M 54.559230000000014,27.2334185 L 52.54622999999998,38.48041850000001" fill="none" instance-id="7" semantic-id="30" stroke="rgb(178,88,0)" stroke-width="0.1"/>
  <path d="M 58.720230000000015,19.8764185 L 56.813229999999976,30.532418500000006" fill="none" instance-id="7" semantic-id="30" stroke="rgb(178,88,0)" stroke-width="0.1"/>
  <path d="M 56.46123,32.5014185 L 55.303229999999985,38.97341850000001" fill="none" instance-id="7" semantic-id="30" stroke="rgb(178,88,0)" stroke-width="0.1"/>
  <path d="M 61.47622999999999,20.3704185 L 58.71523000000002,35.7994185" fill="none" instance-id="7" semantic-id="30" stroke="rgb(178,88,0)" stroke-width="0.1"/>
  <path d="M 64.23223000000002,20.863418500000023 L 60.815229999999985,39.9594185" fill="none" instance-id="7" semantic-id="30" stroke="rgb(178,88,0)" stroke-width="0.1"/>
  <path d="M 66.98923000000002,21.356418500000018 L 63.571230000000014,40.4534185" fill="none" instance-id="7" semantic-id="30" stroke="rgb(178,88,0)" stroke-width="0.1"/>
  <path d="M 69.74522999999999,21.849418500000013 L 66.32722999999999,40.94641850000002" fill="none" instance-id="7" semantic-id="30" stroke="rgb(178,88,0)" stroke-width="0.1"/>
  <path d="M 72.50123000000002,22.342418500000008 L 69.08422999999999,41.439418500000016" fill="none" instance-id="7" semantic-id="30" stroke="rgb(178,88,0)" stroke-width="0.1"/>
  <path d="M 75.25722999999999,22.836418500000008 L 71.84023000000002,41.93241850000001" fill="none" instance-id="7" semantic-id="30" stroke="rgb(178,88,0)" stroke-width="0.1"/>
  <path d="M 78.01323000000002,23.329418500000003 L 74.59622999999999,42.42641850000001" fill="none" instance-id="7" semantic-id="30" stroke="rgb(178,88,0)" stroke-width="0.1"/>
  <path d="M 80.77023000000003,23.822418499999998 L 77.35223000000002,42.919418500000006" fill="none" instance-id="7" semantic-id="30" stroke="rgb(178,88,0)" stroke-width="0.1"/>
  <path d="M 36.77623,15.340418499999998 L 51.196230000000014,17.92041850000001" fill="none" instance-id="7" semantic-id="30" stroke="rgb(178,88,0)" stroke-width="0.1"/>
  <path d="M 52.333230000000015,18.12441850000002 L 80.87522999999999,23.232418500000023" fill="none" instance-id="7" semantic-id="30" stroke="rgb(178,88,0)" stroke-width="0.1"/>
  <path d="M 36.77623,15.340418499999998 L 36.670230000000004,15.930418500000002" fill="none" instance-id="7" semantic-id="30" stroke="rgb(178,88,0)" stroke-width="0.1"/>
  <path d="M 80.87522999999999,23.232418500000023 L 80.77023000000003,23.822418499999998" fill="none" instance-id="7" semantic-id="30" stroke="rgb(178,88,0)" stroke-width="0.1"/>
  <path d="M 52.333230000000015,18.12441850000002 L 55.89722999999998,27.994418500000023" fill="none" instance-id="7" semantic-id="30" stroke="rgb(178,88,0)" stroke-width="0.1"/>
  <path d="M 51.196230000000014,17.92041850000001 L 54.86523,28.081418500000012" fill="none" instance-id="7" semantic-id="30" stroke="rgb(178,88,0)" stroke-width="0.1"/>
  <path d="M 54.86523,28.081418500000012 L 56.64323000000002,27.930418500000002" fill="none" instance-id="7" semantic-id="30" stroke="rgb(178,88,0)" stroke-width="0.1"/>
  <path d="M 56.64323000000002,27.930418500000002 L 54.57823000000002,29.65441850000002" fill="none" instance-id="7" semantic-id="30" stroke="rgb(178,88,0)" stroke-width="0.1"/>
  <path d="M 54.57823000000002,29.65441850000002 L 56.43923000000001,29.496418500000004" fill="none" instance-id="7" semantic-id="30" stroke="rgb(178,88,0)" stroke-width="0.1"/>
  <path d="M 56.43923000000001,29.496418500000004 L 60.176229999999975,39.84541850000002" fill="none" instance-id="7" semantic-id="30" stroke="rgb(178,88,0)" stroke-width="0.1"/>
  <path d="M 55.40823,29.584418499999998 L 59.039229999999975,39.64241850000002" fill="none" instance-id="7" semantic-id="30" stroke="rgb(178,88,0)" stroke-width="0.1"/>
  <path d="M 81.22823,21.2634185 L 66.80822999999998,18.68241850000001" fill="none" instance-id="7" semantic-id="30" stroke="rgb(178,88,0)" stroke-width="0.1"/>
  <path d="M 65.67122999999998,18.47941850000001 L 37.128229999999974,13.371418500000004" fill="none" instance-id="7" semantic-id="30" stroke="rgb(178,88,0)" stroke-width="0.1"/>
  <path d="M 81.33323000000001,20.67241850000002 L 66.57222999999999,18.0314185" fill="none" instance-id="7" semantic-id="30" stroke="rgb(178,88,0)" stroke-width="0.1"/>
  <path d="M 65.43623000000002,17.82741850000002 L 37.234230000000025,12.780418499999996" fill="none" instance-id="7" semantic-id="30" stroke="rgb(178,88,0)" stroke-width="0.1"/>
  <path d="M 81.22823,21.2634185 L 81.33323000000001,20.67241850000002" fill="none" instance-id="7" semantic-id="30" stroke="rgb(178,88,0)" stroke-width="0.1"/>
  <path d="M 37.128229999999974,13.371418500000004 L 37.234230000000025,12.780418499999996" fill="none" instance-id="7" semantic-id="30" stroke="rgb(178,88,0)" stroke-width="0.1"/>
  <path d="M 36.77623,15.340418499999998 L 51.196230000000014,17.92041850000001" fill="none" instance-id="7" semantic-id="30" stroke="rgb(178,88,0)" stroke-width="0.1"/>
  <path d="M 52.333230000000015,18.12441850000002 L 80.87522999999999,23.232418500000023" fill="none" instance-id="7" semantic-id="30" stroke="rgb(178,88,0)" stroke-width="0.1"/>
  <path d="M 36.670230000000004,15.930418500000002 L 51.43123000000003,18.572418499999998" fill="none" instance-id="7" semantic-id="30" stroke="rgb(178,88,0)" stroke-width="0.1"/>
  <path d="M 52.56823000000003,18.7754185 L 80.77023000000003,23.822418499999998" fill="none" instance-id="7" semantic-id="30" stroke="rgb(178,88,0)" stroke-width="0.1"/>
  <path d="M 36.77623,15.340418499999998 L 36.670230000000004,15.930418500000002" fill="none" instance-id="7" semantic-id="30" stroke="rgb(178,88,0)" stroke-width="0.1"/>
  <path d="M 80.87522999999999,23.232418500000023 L 80.77023000000003,23.822418499999998" fill="none" instance-id="7" semantic-id="30" stroke="rgb(178,88,0)" stroke-width="0.1"/>
  <path d="M 27.902229999999975,39.6564185 L 49.95123000000001,43.6024185" fill="none" instance-id="8" semantic-id="30" stroke="rgb(178,88,0)" stroke-width="0.1"/>
  <path d="M 27.990229999999997,39.16441850000001 L 50.04023000000001,43.11041850000001" fill="none" instance-id="8" semantic-id="30" stroke="rgb(178,88,0)" stroke-width="0.1"/>
  <path d="M 21.206230000000005,77.0624185 L 43.256230000000016,81.0084185" fill="none" instance-id="8" semantic-id="30" stroke="rgb(178,88,0)" stroke-width="0.1"/>
  <path d="M 21.294230000000027,76.57041850000002 L 43.34422999999998,80.51541850000001" fill="none" instance-id="8" semantic-id="30" stroke="rgb(178,88,0)" stroke-width="0.1"/>
  <path d="M 50.039229999999975,43.11141850000001 L 34.702229999999986,40.36641850000001" fill="none" instance-id="8" semantic-id="30" stroke="rgb(178,88,0)" stroke-width="0.1"/>
  <path d="M 33.64922999999999,40.177418500000016 L 27.990229999999997,39.16441850000001" fill="none" instance-id="8" semantic-id="30" stroke="rgb(178,88,0)" stroke-width="0.1"/>
  <path d="M 46.88522999999998,60.73141850000002 L 50.039229999999975,43.11141850000001" fill="none" instance-id="8" semantic-id="30" stroke="rgb(178,88,0)" stroke-width="0.1"/>
  <path d="M 44.12923000000001,60.23841850000002 L 47.28323,42.61841850000002" fill="none" instance-id="8" semantic-id="30" stroke="rgb(178,88,0)" stroke-width="0.1"/>
  <path d="M 41.37322999999998,59.74441850000002 L 44.527229999999975,42.12441850000002" fill="none" instance-id="8" semantic-id="30" stroke="rgb(178,88,0)" stroke-width="0.1"/>
  <path d="M 38.617230000000006,59.2514185 L 41.77123,41.631418500000024" fill="none" instance-id="8" semantic-id="30" stroke="rgb(178,88,0)" stroke-width="0.1"/>
  <path d="M 35.86122999999998,58.758418500000005 L 36.48822999999999,55.25341850000001" fill="none" instance-id="8" semantic-id="30" stroke="rgb(178,88,0)" stroke-width="0.1"/>
  <path d="M 36.984230000000025,52.4834185 L 39.015229999999974,41.1384185" fill="none" instance-id="8" semantic-id="30" stroke="rgb(178,88,0)" stroke-width="0.1"/>
  <path d="M 33.10423000000003,58.264418500000005 L 35.03023000000002,47.50941850000001" fill="none" instance-id="8" semantic-id="30" stroke="rgb(178,88,0)" stroke-width="0.1"/>
  <path d="M 35.52523000000002,44.7394185 L 36.258230000000026,40.6444185" fill="none" instance-id="8" semantic-id="30" stroke="rgb(178,88,0)" stroke-width="0.1"/>
  <path d="M 30.34823,57.77141850000001 L 33.50223,40.151418500000005" fill="none" instance-id="8" semantic-id="30" stroke="rgb(178,88,0)" stroke-width="0.1"/>
  <path d="M 27.59223000000003,57.278418500000015 L 30.746230000000025,39.65841850000001" fill="none" instance-id="8" semantic-id="30" stroke="rgb(178,88,0)" stroke-width="0.1"/>
  <path d="M 24.83623,56.784418500000015 L 27.990229999999997,39.16441850000001" fill="none" instance-id="8" semantic-id="30" stroke="rgb(178,88,0)" stroke-width="0.1"/>
  <path d="M 46.78023000000002,61.3224185 L 38.36523,59.81541850000002" fill="none" instance-id="8" semantic-id="30" stroke="rgb(178,88,0)" stroke-width="0.1"/>
  <path d="M 37.31223,59.627418500000005 L 24.730230000000006,57.37541850000002" fill="none" instance-id="8" semantic-id="30" stroke="rgb(178,88,0)" stroke-width="0.1"/>
  <path d="M 37.31223,59.627418500000005 L 35.65723000000003,50.8404185" fill="none" instance-id="8" semantic-id="30" stroke="rgb(178,88,0)" stroke-width="0.1"/>
  <path d="M 38.36523,59.81541850000002 L 36.68923000000001,50.9184185" fill="none" instance-id="8" semantic-id="30" stroke="rgb(178,88,0)" stroke-width="0.1"/>
  <path d="M 36.68923000000001,50.9184185 L 34.91023000000001,50.78341850000001" fill="none" instance-id="8" semantic-id="30" stroke="rgb(178,88,0)" stroke-width="0.1"/>
  <path d="M 34.91023000000001,50.78341850000001 L 37.22323,49.4124185" fill="none" instance-id="8" semantic-id="30" stroke="rgb(178,88,0)" stroke-width="0.1"/>
  <path d="M 37.22323,49.4124185 L 35.36122999999998,49.270418500000005" fill="none" instance-id="8" semantic-id="30" stroke="rgb(178,88,0)" stroke-width="0.1"/>
  <path d="M 35.36122999999998,49.270418500000005 L 33.64922999999999,40.177418500000016" fill="none" instance-id="8" semantic-id="30" stroke="rgb(178,88,0)" stroke-width="0.1"/>
  <path d="M 36.39323000000002,49.34941850000001 L 34.702229999999986,40.36641850000001" fill="none" instance-id="8" semantic-id="30" stroke="rgb(178,88,0)" stroke-width="0.1"/>
  <path d="M 21.206230000000005,77.0624185 L 43.256230000000016,81.00941850000001" fill="none" instance-id="8" semantic-id="30" stroke="rgb(178,88,0)" stroke-width="0.1"/>
  <path d="M 24.36023,59.4424185 L 21.206230000000005,77.0624185" fill="none" instance-id="8" semantic-id="30" stroke="rgb(178,88,0)" stroke-width="0.1"/>
  <path d="M 27.116229999999973,59.9354185 L 23.962229999999977,77.5554185" fill="none" instance-id="8" semantic-id="30" stroke="rgb(178,88,0)" stroke-width="0.1"/>
  <path d="M 29.873229999999978,60.4294185 L 26.719229999999982,78.0494185" fill="none" instance-id="8" semantic-id="30" stroke="rgb(178,88,0)" stroke-width="0.1"/>
  <path d="M 32.62923000000001,60.92241850000002 L 29.47523000000001,78.5424185" fill="none" instance-id="8" semantic-id="30" stroke="rgb(178,88,0)" stroke-width="0.1"/>
  <path d="M 35.38522999999998,61.415418500000015 L 32.23122999999998,79.03541850000002" fill="none" instance-id="8" semantic-id="30" stroke="rgb(178,88,0)" stroke-width="0.1"/>
  <path d="M 38.14123000000001,61.909418500000015 L 34.98723000000001,79.52941850000002" fill="none" instance-id="8" semantic-id="30" stroke="rgb(178,88,0)" stroke-width="0.1"/>
  <path d="M 40.89722999999998,62.40241850000001 L 37.74322999999998,80.02241850000001" fill="none" instance-id="8" semantic-id="30" stroke="rgb(178,88,0)" stroke-width="0.1"/>
  <path d="M 43.65323000000001,62.895418500000005 L 40.50022999999999,80.51541850000001" fill="none" instance-id="8" semantic-id="30" stroke="rgb(178,88,0)" stroke-width="0.1"/>
  <path d="M 46.41023000000001,63.389418500000005 L 43.256230000000016,81.00941850000001" fill="none" instance-id="8" semantic-id="30" stroke="rgb(178,88,0)" stroke-width="0.1"/>
  <path d="M 24.466229999999996,58.85141850000002 L 46.515229999999974,62.7984185" fill="none" instance-id="8" semantic-id="30" stroke="rgb(178,88,0)" stroke-width="0.1"/>
  <path d="M 47.40123,62.95741850000002 L 47.666229999999985,61.48041850000001" fill="none" instance-id="8" semantic-id="30" stroke="rgb(178,88,0)" stroke-width="0.1"/>
  <path d="M 47.666229999999985,61.48041850000001 L 38.36523,59.81541850000002" fill="none" instance-id="8" semantic-id="30" stroke="rgb(178,88,0)" stroke-width="0.1"/>
  <path d="M 37.31223,59.627418500000005 L 23.844229999999982,57.2164185" fill="none" instance-id="8" semantic-id="30" stroke="rgb(178,88,0)" stroke-width="0.1"/>
  <path d="M 23.844229999999982,57.2164185 L 23.58023000000003,58.69341850000001" fill="none" instance-id="8" semantic-id="30" stroke="rgb(178,88,0)" stroke-width="0.1"/>
  <path d="M 23.58023000000003,58.69341850000001 L 47.40123,62.95741850000002" fill="none" instance-id="8" semantic-id="30" stroke="rgb(178,88,0)" stroke-width="0.1"/>
  <path d="M 47.88623000000001,63.653418500000015 L 48.36223000000001,60.9954185" fill="none" instance-id="8" semantic-id="30" stroke="rgb(178,88,0)" stroke-width="0.1"/>
  <path d="M 48.36223000000001,60.9954185 L 38.246230000000025,59.1854185" fill="none" instance-id="8" semantic-id="30" stroke="rgb(178,88,0)" stroke-width="0.1"/>
  <path d="M 37.19323000000003,58.996418500000004 L 23.359230000000025,56.520418500000005" fill="none" instance-id="8" semantic-id="30" stroke="rgb(178,88,0)" stroke-width="0.1"/>
  <path d="M 23.359230000000025,56.520418500000005 L 22.884230000000002,59.17841850000002" fill="none" instance-id="8" semantic-id="30" stroke="rgb(178,88,0)" stroke-width="0.1"/>
  <path d="M 22.884230000000002,59.17841850000002 L 47.88623000000001,63.653418500000015" fill="none" instance-id="8" semantic-id="30" stroke="rgb(178,88,0)" stroke-width="0.1"/>
  <path d="M 24.730230000000006,57.37541850000002 L 24.466229999999996,58.85141850000002" fill="none" instance-id="8" semantic-id="30" stroke="rgb(178,88,0)" stroke-width="0.1"/>
  <path d="M 46.78023000000002,61.3224185 L 46.515229999999974,62.7984185" fill="none" instance-id="8" semantic-id="30" stroke="rgb(178,88,0)" stroke-width="0.1"/>
  <path d="M 99.97848090036359,14.310865031240667 L 99.79641051587407,13.838100740662497" fill="none" instance-id="7" semantic-id="30" stroke="rgb(178,88,0)" stroke-width="0.1"/>
  <path d="M 99.79641051587407,13.838100740662497 L 99.6024223223501,13.370100441381197" fill="none" instance-id="7" semantic-id="30" stroke="rgb(178,88,0)" stroke-width="0.1"/>
  <path d="M 99.6024223223501,13.370100441381197 L 99.39664082758003,12.907164510863538" fill="none" instance-id="7" semantic-id="30" stroke="rgb(178,88,0)" stroke-width="0.1"/>
  <path d="M 99.39664082758003,12.907164510863538 L 99.1791981086676,12.449590076103448" fill="none" instance-id="7" semantic-id="30" stroke="rgb(178,88,0)" stroke-width="0.1"/>
  <path d="M 99.1791981086676,12.449590076103448 L 98.95023372726087,11.997670822916461" fill="none" instance-id="7" semantic-id="30" stroke="rgb(178,88,0)" stroke-width="0.1"/>
  <path d="M 98.95023372726087,11.997670822916461 L 98.70989463997716,11.551696807442795" fill="none" instance-id="7" semantic-id="30" stroke="rgb(178,88,0)" stroke-width="0.1"/>
  <path d="M 98.70989463997716,11.551696807442795 L 98.45833510408153,11.111954269980231" fill="none" instance-id="7" semantic-id="30" stroke="rgb(178,88,0)" stroke-width="0.1"/>
  <path d="M 98.45833510408153,11.111954269980231 L 98.19571657847945,10.678725451265848" fill="none" instance-id="7" semantic-id="30" stroke="rgb(178,88,0)" stroke-width="0.1"/>
  <path d="M 98.19571657847945,10.678725451265848 L 97.92220762008765,10.252288411325026" fill="none" instance-id="7" semantic-id="30" stroke="rgb(178,88,0)" stroke-width="0.1"/>
  <path d="M 97.92220762008765,10.252288411325026 L 97.6379837756487,9.832916851003631" fill="none" instance-id="7" semantic-id="30" stroke="rgb(178,88,0)" stroke-width="0.1"/>
  <path d="M 97.6379837756487,9.832916851003631 L 97.34322746905957,9.420879936298206" fill="none" instance-id="7" semantic-id="30" stroke="rgb(178,88,0)" stroke-width="0.1"/>
  <path d="M 97.34322746905957,9.420879936298206 L 97.03812788428621,9.016442125596512" fill="none" instance-id="7" semantic-id="30" stroke="rgb(178,88,0)" stroke-width="0.1"/>
  <path d="M 97.03812788428621,9.016442125596512 L 96.72288084393927,8.619862999939926" fill="none" instance-id="7" semantic-id="30" stroke="rgb(178,88,0)" stroke-width="0.1"/>
  <path d="M 96.72288084393927,8.619862999939926 L 96.39768868358885,8.231397096415975" fill="none" instance-id="7" semantic-id="30" stroke="rgb(178,88,0)" stroke-width="0.1"/>
  <path d="M 96.39768868358885,8.231397096415975 L 96.0627601218992,7.851293744788336" fill="none" instance-id="7" semantic-id="30" stroke="rgb(178,88,0)" stroke-width="0.1"/>
  <path d="M 96.0627601218992,7.851293744788336 L 95.71831012666644,7.47979690746908" fill="none" instance-id="7" semantic-id="30" stroke="rgb(178,88,0)" stroke-width="0.1"/>
  <path d="M 95.71831012666644,7.47979690746908 L 95.36455977684534,7.117145022935858" fill="none" instance-id="7" semantic-id="30" stroke="rgb(178,88,0)" stroke-width="0.1"/>
  <path d="M 95.36455977684534,7.117145022935858 L 95.00173612065385,6.7635708526944995" fill="none" instance-id="7" semantic-id="30" stroke="rgb(178,88,0)" stroke-width="0.1"/>
  <path d="M 95.00173612065385,6.7635708526944995 L 94.63007202984619,6.419301331885293" fill="none" instance-id="7" semantic-id="30" stroke="rgb(178,88,0)" stroke-width="0.1"/>
  <path d="M 94.63007202984619,6.419301331885293 L 94.24980605024876,6.08455742362878" fill="none" instance-id="7" semantic-id="30" stroke="rgb(178,88,0)" stroke-width="0.1"/>
  <path d="M 94.24980605024876,6.08455742362878 L 93.86118224865334,5.759553977204575" fill="none" instance-id="7" semantic-id="30" stroke="rgb(178,88,0)" stroke-width="0.1"/>
  <path d="M 93.86118224865334,5.759553977204575 L 93.46445005616772,5.444499590154379" fill="none" instance-id="7" semantic-id="30" stroke="rgb(178,88,0)" stroke-width="0.1"/>
  <path d="M 93.46445005616772,5.444499590154379 L 93.05986410812244,5.139596474397308" fill="none" instance-id="7" semantic-id="30" stroke="rgb(178,88,0)" stroke-width="0.1"/>
  <path d="M 93.05986410812244,5.139596474397308 L 92.64768408063821,4.845040326443922" fill="none" instance-id="7" semantic-id="30" stroke="rgb(178,88,0)" stroke-width="0.1"/>
  <path d="M 92.64768408063821,4.845040326443922 L 92.22817452395708,4.56102020179199" fill="none" instance-id="7" semantic-id="30" stroke="rgb(178,88,0)" stroke-width="0.1"/>
  <path d="M 92.22817452395708,4.56102020179199 L 91.80160469264615,4.287718393584697" fill="none" instance-id="7" semantic-id="30" stroke="rgb(178,88,0)" stroke-width="0.1"/>
  <path d="M 91.80160469264615,4.287718393584697 L 91.3682483727809,4.025310315609033" fill="none" instance-id="7" semantic-id="30" stroke="rgb(178,88,0)" stroke-width="0.1"/>
  <path d="M 91.3682483727809,4.025310315609033 L 90.92838370622098,3.7739643897096187" fill="none" instance-id="7" semantic-id="30" stroke="rgb(178,88,0)" stroke-width="0.1"/>
  <path d="M 90.92838370622098,3.7739643897096187 L 90.48229301208994,3.5338419376904255" fill="none" instance-id="7" semantic-id="30" stroke="rgb(178,88,0)" stroke-width="0.1"/>
  <path d="M 90.48229301208994,3.5338419376904255 L 90.03026260557345,3.3050970777730413" fill="none" instance-id="7" semantic-id="30" stroke="rgb(178,88,0)" stroke-width="0.1"/>
  <path d="M 90.03026260557345,3.3050970777730413 L 89.57258261415365,3.0878766256788595" fill="none" instance-id="7" semantic-id="30" stroke="rgb(178,88,0)" stroke-width="0.1"/>
  <path d="M 89.57258261415365,3.0878766256788595 L 89.10954679139559,2.8823200003980958" fill="none" instance-id="7" semantic-id="30" stroke="rgb(178,88,0)" stroke-width="0.1"/>
  <path d="M 89.10954679139559,2.8823200003980958 L 88.64145232840724,2.6885591347061393" fill="none" instance-id="7" semantic-id="30" stroke="rgb(178,88,0)" stroke-width="0.1"/>
  <path d="M 88.64145232840724,2.6885591347061393 L 88.1685996630926,2.5067183904849912" fill="none" instance-id="7" semantic-id="30" stroke="rgb(178,88,0)" stroke-width="0.1"/>
  <path d="M 88.1685996630926,2.5067183904849912 L 87.69129228732118,2.3369144789037932" fill="none" instance-id="7" semantic-id="30" stroke="rgb(178,88,0)" stroke-width="0.1"/>
  <path d="M 87.69129228732118,2.3369144789037932 L 87.20983655213729,2.1792563855100013" fill="none" instance-id="7" semantic-id="30" stroke="rgb(178,88,0)" stroke-width="0.1"/>
  <path d="M 87.20983655213729,2.1792563855100013 L 86.72454147113399,2.0338453002788697" fill="none" instance-id="7" semantic-id="30" stroke="rgb(178,88,0)" stroke-width="0.1"/>
  <path d="M 86.72454147113399,2.0338453002788697 L 86.23571852211876,1.900774552666519" fill="none" instance-id="7" semantic-id="30" stroke="rgb(178,88,0)" stroke-width="0.1"/>
  <path d="M 86.23571852211876,1.900774552666519 L 85.74368144719676,1.780129551708285" fill="none" instance-id="7" semantic-id="30" stroke="rgb(178,88,0)" stroke-width="0.1"/>
  <path d="M 85.74368144719676,1.780129551708285 L 85.24874605140121,1.6719877312002893" fill="none" instance-id="7" semantic-id="30" stroke="rgb(178,88,0)" stroke-width="0.1"/>
  <path d="M 85.24874605140121,1.6719877312002893 L 84.75123000000002,1.5764185000000168" fill="none" instance-id="7" semantic-id="30" stroke="rgb(178,88,0)" stroke-width="0.1"/>
  <path d="M 77.35223000000002,42.913418500000006 L 77.85202359457634,42.99637045639574" fill="none" instance-id="7" semantic-id="30" stroke="rgb(178,88,0)" stroke-width="0.1"/>
  <path d="M 77.85202359457634,42.99637045639574 L 78.35375823258534,43.06663436798178" fill="none" instance-id="7" semantic-id="30" stroke="rgb(178,88,0)" stroke-width="0.1"/>
  <path d="M 78.35375823258534,43.06663436798178 L 78.857111860994,43.12416513381402" fill="none" instance-id="7" semantic-id="30" stroke="rgb(178,88,0)" stroke-width="0.1"/>
  <path d="M 78.857111860994,43.12416513381402 L 79.36176138757298,43.168925826089946" fill="none" instance-id="7" semantic-id="30" stroke="rgb(178,88,0)" stroke-width="0.1"/>
  <path d="M 79.36176138757298,43.168925826089946 L 79.86738288828286,43.20088771385181" fill="none" instance-id="7" semantic-id="30" stroke="rgb(178,88,0)" stroke-width="0.1"/>
  <path d="M 79.86738288828286,43.20088771385181 L 80.3736518151942,43.22003028142831" fill="none" instance-id="7" semantic-id="30" stroke="rgb(178,88,0)" stroke-width="0.1"/>
  <path d="M 80.3736518151942,43.22003028142831 L 80.88024320480821,43.22634124160328" fill="none" instance-id="7" semantic-id="30" stroke="rgb(178,88,0)" stroke-width="0.1"/>
  <path d="M 80.88024320480821,43.22634124160328 L 81.38683188664402,43.219816543502645" fill="none" instance-id="7" semantic-id="30" stroke="rgb(178,88,0)" stroke-width="0.1"/>
  <path d="M 81.38683188664402,43.219816543502645 L 81.89309269195866,43.20046037519441" fill="none" instance-id="7" semantic-id="30" stroke="rgb(178,88,0)" stroke-width="0.1"/>
  <path d="M 81.89309269195866,43.20046037519441 L 82.39870066246641,43.1682851610006" fill="none" instance-id="7" semantic-id="30" stroke="rgb(178,88,0)" stroke-width="0.1"/>
  <path d="M 82.39870066246641,43.1682851610006 L 82.90333125892266,43.12331155352231" fill="none" instance-id="7" semantic-id="30" stroke="rgb(178,88,0)" stroke-width="0.1"/>
  <path d="M 82.90333125892266,43.12331155352231 L 83.40666056943883,43.06556842038319" fill="none" instance-id="7" semantic-id="30" stroke="rgb(178,88,0)" stroke-width="0.1"/>
  <path d="M 83.40666056943883,43.06556842038319 L 83.90836551739471,42.99509282569986" fill="none" instance-id="7" semantic-id="30" stroke="rgb(178,88,0)" stroke-width="0.1"/>
  <path d="M 83.90836551739471,42.99509282569986 L 84.40812406881474,42.91193000629141" fill="none" instance-id="7" semantic-id="30" stroke="rgb(178,88,0)" stroke-width="0.1"/>
  <path d="M 84.40812406881474,42.91193000629141 L 84.90561543907478,42.816133342642644" fill="none" instance-id="7" semantic-id="30" stroke="rgb(178,88,0)" stroke-width="0.1"/>
  <path d="M 84.90561543907478,42.816133342642644 L 85.40052029880701,42.70776432464032" fill="none" instance-id="7" semantic-id="30" stroke="rgb(178,88,0)" stroke-width="0.1"/>
  <path d="M 85.40052029880701,42.70776432464032 L 85.89252097887123,42.5868925121041" fill="none" instance-id="7" semantic-id="30" stroke="rgb(178,88,0)" stroke-width="0.1"/>
  <path d="M 85.89252097887123,42.5868925121041 L 86.38130167425948,42.45359549013756" fill="none" instance-id="7" semantic-id="30" stroke="rgb(178,88,0)" stroke-width="0.1"/>
  <path d="M 86.38130167425948,42.45359549013756 L 86.86654864680526,42.30795881932778" fill="none" instance-id="7" semantic-id="30" stroke="rgb(178,88,0)" stroke-width="0.1"/>
  <path d="M 86.86654864680526,42.30795881932778 L 87.3479504265652,42.15007598082602" fill="none" instance-id="7" semantic-id="30" stroke="rgb(178,88,0)" stroke-width="0.1"/>
  <path d="M 87.3479504265652,42.15007598082602 L 87.82519801174521,41.9800483163439" fill="none" instance-id="7" semantic-id="30" stroke="rgb(178,88,0)" stroke-width="0.1"/>
  <path d="M 87.82519801174521,41.9800483163439 L 88.29798506704242,41.79798496310434" fill="none" instance-id="7" semantic-id="30" stroke="rgb(178,88,0)" stroke-width="0.1"/>
  <path d="M 88.29798506704242,41.79798496310434 L 88.76600812027522,41.6040027837887" fill="none" instance-id="7" semantic-id="30" stroke="rgb(178,88,0)" stroke-width="0.1"/>
  <path d="M 88.76600812027522,41.6040027837887 L 89.22896675717601,41.39822629152502" fill="none" instance-id="7" semantic-id="30" stroke="rgb(178,88,0)" stroke-width="0.1"/>
  <path d="M 89.22896675717601,41.39822629152502 L 89.68656381422073,41.1807875699655" fill="none" instance-id="7" semantic-id="30" stroke="rgb(178,88,0)" stroke-width="0.1"/>
  <path d="M 89.68656381422073,41.1807875699655 L 90.13850556937189,40.95182618850501" fill="none" instance-id="7" semantic-id="30" stroke="rgb(178,88,0)" stroke-width="0.1"/>
  <path d="M 90.13850556937189,40.95182618850501 L 90.58450193061276,40.71148911269418" fill="none" instance-id="7" semantic-id="30" stroke="rgb(178,88,0)" stroke-width="0.1"/>
  <path d="M 90.58450193061276,40.71148911269418 L 91.02426662215134,40.459930609905314" fill="none" instance-id="7" semantic-id="30" stroke="rgb(178,88,0)" stroke-width="0.1"/>
  <path d="M 91.02426662215134,40.459930609905314 L 91.45751736817488,40.19731215031149" fill="none" instance-id="7" semantic-id="30" stroke="rgb(178,88,0)" stroke-width="0.1"/>
  <path d="M 91.45751736817488,40.19731215031149 L 91.88397607403681,39.92380230324201" fill="none" instance-id="7" semantic-id="30" stroke="rgb(178,88,0)" stroke-width="0.1"/>
  <path d="M 91.88397607403681,39.92380230324201 L 92.30336900475999,39.63957662898147" fill="none" instance-id="7" semantic-id="30" stroke="rgb(178,88,0)" stroke-width="0.1"/>
  <path d="M 92.30336900475999,39.63957662898147 L 92.7154269607413,39.344817566081105" fill="none" instance-id="7" semantic-id="30" stroke="rgb(178,88,0)" stroke-width="0.1"/>
  <path d="M 92.7154269607413,39.344817566081105 L 93.11988545054555,39.03971431425529" fill="none" instance-id="7" semantic-id="30" stroke="rgb(178,88,0)" stroke-width="0.1"/>
  <path d="M 93.11988545054555,39.03971431425529 L 93.51648486067683,38.72446271293833" fill="none" instance-id="7" semantic-id="30" stroke="rgb(178,88,0)" stroke-width="0.1"/>
  <path d="M 93.51648486067683,38.72446271293833 L 93.90497062221908,38.39926511557894" fill="none" instance-id="7" semantic-id="30" stroke="rgb(178,88,0)" stroke-width="0.1"/>
  <path d="M 93.90497062221908,38.39926511557894 L 94.28509337423873,38.06433025975403" fill="none" instance-id="7" semantic-id="30" stroke="rgb(178,88,0)" stroke-width="0.1"/>
  <path d="M 94.28509337423873,38.06433025975403 L 94.65660912384385,37.71987313318425" fill="none" instance-id="7" semantic-id="30" stroke="rgb(178,88,0)" stroke-width="0.1"/>
  <path d="M 94.65660912384385,37.71987313318425 L 95.01927940279876,37.36611483573782" fill="none" instance-id="7" semantic-id="30" stroke="rgb(178,88,0)" stroke-width="0.1"/>
  <path d="M 95.01927940279876,37.36611483573782 L 95.37287142059125,37.003282437511245" fill="none" instance-id="7" semantic-id="30" stroke="rgb(178,88,0)" stroke-width="0.1"/>
  <path d="M 95.37287142059125,37.003282437511245 L 95.7171582138563,36.63160883307765" fill="none" instance-id="7" semantic-id="30" stroke="rgb(178,88,0)" stroke-width="0.1"/>
  <path d="M 95.7171582138563,36.63160883307765 L 96.0519187920591,36.25133259199657" fill="none" instance-id="7" semantic-id="30" stroke="rgb(178,88,0)" stroke-width="0.1"/>
  <path d="M 96.0519187920591,36.25133259199657 L 96.37693827934413,35.86269780568125" fill="none" instance-id="7" semantic-id="30" stroke="rgb(178,88,0)" stroke-width="0.1"/>
  <path d="M 96.37693827934413,35.86269780568125 L 96.6920080524597,35.46595393072121" fill="none" instance-id="7" semantic-id="30" stroke="rgb(178,88,0)" stroke-width="0.1"/>
  <path d="M 96.6920080524597,35.46595393072121 L 96.99692587466882,35.061355628761504" fill="none" instance-id="7" semantic-id="30" stroke="rgb(178,88,0)" stroke-width="0.1"/>
  <path d="M 96.99692587466882,35.061355628761504 L 97.29149602556055,34.649162603040566" fill="none" instance-id="7" semantic-id="30" stroke="rgb(178,88,0)" stroke-width="0.1"/>
  <path d="M 97.29149602556055,34.649162603040566 L 97.57552942667928,34.22963943169202" fill="none" instance-id="7" semantic-id="30" stroke="rgb(178,88,0)" stroke-width="0.1"/>
  <path d="M 97.57552942667928,34.22963943169202 L 97.84884376288989,33.80305539791769" fill="none" instance-id="7" semantic-id="30" stroke="rgb(178,88,0)" stroke-width="0.1"/>
  <path d="M 97.84884376288989,33.80305539791769 L 98.1112635994021,33.369684317140155" fill="none" instance-id="7" semantic-id="30" stroke="rgb(178,88,0)" stroke-width="0.1"/>
  <path d="M 98.1112635994021,33.369684317140155 L 98.36262049437869,32.92980436124634" fill="none" instance-id="7" semantic-id="30" stroke="rgb(178,88,0)" stroke-width="0.1"/>
  <path d="M 98.36262049437869,32.92980436124634 L 98.60275310705441,32.48369788003481" fill="none" instance-id="7" semantic-id="30" stroke="rgb(178,88,0)" stroke-width="0.1"/>
  <path d="M 98.60275310705441,32.48369788003481 L 98.83150730129756,32.031651219981256" fill="none" instance-id="7" semantic-id="30" stroke="rgb(178,88,0)" stroke-width="0.1"/>
  <path d="M 98.83150730129756,32.031651219981256 L 99.04873624454672,31.573954540438734" fill="none" instance-id="7" semantic-id="30" stroke="rgb(178,88,0)" stroke-width="0.1"/>
  <path d="M 99.04873624454672,31.573954540438734 L 99.25430050205938,31.110901627390263" fill="none" instance-id="7" semantic-id="30" stroke="rgb(178,88,0)" stroke-width="0.1"/>
  <path d="M 99.25430050205938,31.110901627390263 L 99.44806812641235,30.64278970487385" fill="none" instance-id="7" semantic-id="30" stroke="rgb(178,88,0)" stroke-width="0.1"/>
  <path d="M 99.44806812641235,30.64278970487385 L 99.62991474219604,30.169919244200486" fill="none" instance-id="7" semantic-id="30" stroke="rgb(178,88,0)" stroke-width="0.1"/>
  <path d="M 99.62991474219604,30.169919244200486 L 99.79972362584829,29.69259377108787" fill="none" instance-id="7" semantic-id="30" stroke="rgb(178,88,0)" stroke-width="0.1"/>
  <path d="M 99.79972362584829,29.69259377108787 L 99.95738578057706,29.211119670833597" fill="none" instance-id="7" semantic-id="30" stroke="rgb(178,88,0)" stroke-width="0.1"/>
  <path d="M 21.952079596867236,0.3504127901183267 L 21.627081726025096,0.739058245791341" fill="none" instance-id="7" semantic-id="30" stroke="rgb(178,88,0)" stroke-width="0.1"/>
  <path d="M 21.627081726025096,0.739058245791341 L 21.31203371994809,1.1358121495328817" fill="none" instance-id="7" semantic-id="30" stroke="rgb(178,88,0)" stroke-width="0.1"/>
  <path d="M 21.31203371994809,1.1358121495328817 L 21.007137796865152,1.540419838973662" fill="none" instance-id="7" semantic-id="30" stroke="rgb(178,88,0)" stroke-width="0.1"/>
  <path d="M 21.007137796865152,1.540419838973662 L 20.712589658740058,1.9526216106756635" fill="none" instance-id="7" semantic-id="30" stroke="rgb(178,88,0)" stroke-width="0.1"/>
  <path d="M 20.712589658740058,1.9526216106756635 L 20.428578365657813,2.3721528868267683" fill="none" instance-id="7" semantic-id="30" stroke="rgb(178,88,0)" stroke-width="0.1"/>
  <path d="M 20.428578365657813,2.3721528868267683 L 20.15528621447328,2.7987443850638556" fill="none" instance-id="7" semantic-id="30" stroke="rgb(178,88,0)" stroke-width="0.1"/>
  <path d="M 20.15528621447328,2.7987443850638556 L 19.892888621801262,3.232122291315619" fill="none" instance-id="7" semantic-id="30" stroke="rgb(178,88,0)" stroke-width="0.1"/>
  <path d="M 19.892888621801262,3.232122291315619 L 19.64155401142301,3.6720084355543747" fill="none" instance-id="7" semantic-id="30" stroke="rgb(178,88,0)" stroke-width="0.1"/>
  <path d="M 19.64155401142301,3.6720084355543747 L 19.401443706180544,4.118120470343399" fill="none" instance-id="7" semantic-id="30" stroke="rgb(178,88,0)" stroke-width="0.1"/>
  <path d="M 19.401443706180544,4.118120470343399 L 19.17271182442954,4.5701720520659705" fill="none" instance-id="7" semantic-id="30" stroke="rgb(178,88,0)" stroke-width="0.1"/>
  <path d="M 19.17271182442954,4.5701720520659705 L 18.955505181115882,5.027873024719128" fill="none" instance-id="7" semantic-id="30" stroke="rgb(178,88,0)" stroke-width="0.1"/>
  <path d="M 18.955505181115882,5.027873024719128 L 18.74996319354068,5.490929606154765" fill="none" instance-id="7" semantic-id="30" stroke="rgb(178,88,0)" stroke-width="0.1"/>
  <path d="M 18.74996319354068,5.490929606154765 L 18.55621779187277,5.9590445766478695" fill="none" instance-id="7" semantic-id="30" stroke="rgb(178,88,0)" stroke-width="0.1"/>
  <path d="M 18.55621779187277,5.9590445766478695 L 18.374393334467754,6.431917469671561" fill="none" instance-id="7" semantic-id="30" stroke="rgb(178,88,0)" stroke-width="0.1"/>
  <path d="M 18.374393334467754,6.431917469671561 L 18.204606528046554,6.909244764755897" fill="none" instance-id="7" semantic-id="30" stroke="rgb(178,88,0)" stroke-width="0.1"/>
  <path d="M 18.204606528046554,6.909244764755897 L 18.046966352785546,7.390720082306956" fill="none" instance-id="7" semantic-id="30" stroke="rgb(178,88,0)" stroke-width="0.1"/>
  <path d="M 18.046966352785546,7.390720082306956 L 17.90157399236591,7.876034380261217" fill="none" instance-id="7" semantic-id="30" stroke="rgb(178,88,0)" stroke-width="0.1"/>
  <path d="M 17.90157399236591,7.876034380261217 L 17.76852276902764,8.364876152448744" fill="none" instance-id="7" semantic-id="30" stroke="rgb(178,88,0)" stroke-width="0.1"/>
  <path d="M 17.76852276902764,8.364876152448744 L 17.647898083668963,8.856931628537922" fill="none" instance-id="7" semantic-id="30" stroke="rgb(178,88,0)" stroke-width="0.1"/>
  <path d="M 17.647898083668963,8.856931628537922 L 17.5397773610307,9.351884975433762" fill="none" instance-id="7" semantic-id="30" stroke="rgb(178,88,0)" stroke-width="0.1"/>
  <path d="M 17.5397773610307,9.351884975433762 L 17.444230000000005,9.849418500000013" fill="none" instance-id="7" semantic-id="30" stroke="rgb(178,88,0)" stroke-width="0.1"/>
  <path d="M 17.444230000000005,9.849418500000013 A 20.142,20.142 0.0 0,0 33.253229999999974,35.02741850000001" fill="none" instance-id="7" semantic-id="30" stroke="rgb(178,88,0)" stroke-width="0.1"/>
  <path d="M 43.256230000000016,81.00941850000001 A 19.25011359057395,19.25011359057395 0.0 1,0 50.039229999999975,43.11141850000001" fill="none" instance-id="8" semantic-id="30" stroke="rgb(134,134,134)" stroke-width="0.1"/>
  <path d="M 27.990229999999997,39.16441850000001 A 19.25020168725512,19.25020168725512 0.0 0,0 21.206230000000005,77.0624185" fill="none" instance-id="8" semantic-id="30" stroke="rgb(134,134,134)" stroke-width="0.1"/>
  <path d="M 43.256230000000016,81.00941850000001 A 19.25011359057395,19.25011359057395 0.0 1,0 50.039229999999975,43.11141850000001" fill="none" instance-id="8" semantic-id="30" stroke="rgb(134,134,134)" stroke-width="0.1"/>
  <path d="M 27.990229999999997,39.16441850000001 A 19.25020168725512,19.25020168725512 0.0 0,0 21.206230000000005,77.0624185" fill="none" instance-id="8" semantic-id="30" stroke="rgb(134,134,134)" stroke-width="0.1"/>
  <path d="M 72.53410627578563,0.0 L 84.64523000000003,2.1674184999999966" fill="none" instance-id="7" semantic-id="30" stroke="rgb(178,88,0)" stroke-width="0.1"/>
  <path d="M 84.64523000000003,2.1674184999999966 L 84.75123000000002,1.5764185000000168" fill="none" instance-id="7" semantic-id="30" stroke="rgb(178,88,0)" stroke-width="0.1"/>
  <path d="M 84.75123000000002,1.5764185000000168 L 75.94341854047883,0.0" fill="none" instance-id="7" semantic-id="30" stroke="rgb(178,88,0)" stroke-width="0.1"/>
  <path d="M 33.253229999999974,35.026418500000005 L 77.35223000000002,42.919418500000006" fill="none" instance-id="7" semantic-id="30" stroke="rgb(178,88,0)" stroke-width="0.1"/>
  <path d="M 77.35223000000002,42.919418500000006 L 77.45823000000001,42.32741850000002" fill="none" instance-id="7" semantic-id="30" stroke="rgb(178,88,0)" stroke-width="0.1"/>
  <path d="M 77.45823000000001,42.32741850000002 L 33.359230000000025,34.43441850000002" fill="none" instance-id="7" semantic-id="30" stroke="rgb(178,88,0)" stroke-width="0.1"/>
  <path d="M 33.359230000000025,34.43441850000002 L 33.253229999999974,35.026418500000005" fill="none" instance-id="7" semantic-id="30" stroke="rgb(178,88,0)" stroke-width="0.1"/>
 </g>
 <g id="layerWALL" inkscape:groupmode="layer" inkscape:label="WALL">
  <path d="M 0.0,73.26991351569163 L 53.93723,82.9194185" fill="none" instance-id="-1" semantic-id="1" stroke="rgb(178,178,0)" stroke-width="0.1"/>
  <path d="M 0.0,75.30186425810899 L 53.58422999999999,84.88741850000002" fill="none" instance-id="-1" semantic-id="1" stroke="rgb(178,178,0)" stroke-width="0.1"/>
  <path d="M 53.93723,82.9194185 L 53.58422999999999,84.88741850000002" fill="none" instance-id="-1" semantic-id="1" stroke="rgb(178,178,0)" stroke-width="0.1"/>
  <path d="M 5.9472299999999905,33.18841850000001 L 65.50322999999997,43.83841850000002" fill="none" instance-id="-1" semantic-id="1" stroke="rgb(178,178,0)" stroke-width="0.1"/>
  <path d="M 5.595230000000015,35.157418500000006 L 65.15123,45.80741850000001" fill="none" instance-id="-1" semantic-id="1" stroke="rgb(178,178,0)" stroke-width="0.1"/>
  <path d="M 65.50322999999997,43.83841850000002 L 65.15123,45.80741850000001" fill="none" instance-id="-1" semantic-id="1" stroke="rgb(178,178,0)" stroke-width="0.1"/>
  <path d="M 61.563229999999976,91.3954185 L 68.94623000000001,92.71741850000001" fill="none" instance-id="-1" semantic-id="1" stroke="rgb(178,178,0)" stroke-width="0.1"/>
  <path d="M 61.210230000000024,93.3644185 L 69.57823000000002,94.86241850000002" fill="none" instance-id="-1" semantic-id="1" stroke="rgb(178,178,0)" stroke-width="0.1"/>
  <path d="M 61.563229999999976,91.3954185 L 61.210230000000024,93.3644185" fill="none" instance-id="-1" semantic-id="1" stroke="rgb(178,178,0)" stroke-width="0.1"/>
  <path d="M 58.62522999999999,96.45641850000001 L 60.03422999999998,88.58241850000002" fill="none" instance-id="-1" semantic-id="1" stroke="rgb(178,178,0)" stroke-width="0.1"/>
  <path d="M 60.242230000000006,98.77741850000001 L 62.003229999999974,88.93441850000002" fill="none" instance-id="-1" semantic-id="1" stroke="rgb(178,178,0)" stroke-width="0.1"/>
  <path d="M 60.03422999999998,88.58241850000002 L 62.003229999999974,88.93441850000002" fill="none" instance-id="-1" semantic-id="1" stroke="rgb(178,178,0)" stroke-width="0.1"/>
  <path d="M 76.64022999999997,61.07741850000002 L 100.0,65.25832663800244" fill="none" instance-id="-1" semantic-id="1" stroke="rgb(178,178,0)" stroke-width="0.1"/>
  <path d="M 100.0,63.22626741606928 L 76.00823000000003,58.93241850000001" fill="none" instance-id="-1" semantic-id="1" stroke="rgb(178,178,0)" stroke-width="0.1"/>
  <path d="M 65.31923,59.05141850000001 L 67.60822999999999,46.256418500000024" fill="none" instance-id="-1" semantic-id="1" stroke="rgb(178,178,0)" stroke-width="0.1"/>
  <path d="M 67.64022999999997,57.4354185 L 69.57722999999999,46.6084185" fill="none" instance-id="-1" semantic-id="1" stroke="rgb(178,178,0)" stroke-width="0.1"/>
  <path d="M 67.60822999999999,46.256418500000024 L 69.57722999999999,46.6084185" fill="none" instance-id="-1" semantic-id="1" stroke="rgb(178,178,0)" stroke-width="0.1"/>
  <path d="M 98.23523,90.8474185 L 100.0,91.16329155069292" fill="none" instance-id="-1" semantic-id="1" stroke="rgb(178,178,0)" stroke-width="0.1"/>
  <path d="M 95.91422999999998,92.46441850000002 L 100.0,93.19569802993362" fill="none" instance-id="-1" semantic-id="1" stroke="rgb(178,178,0)" stroke-width="0.1"/>
  <path d="M 96.01522999999997,97.5614185 L 100.0,98.2746143127078" fill="none" instance-id="-1" semantic-id="1" stroke="rgb(178,178,0)" stroke-width="0.1"/>
  <path d="M 96.64722999999998,99.70641849999998 L 98.28643302674237,100.0" fill="none" instance-id="-1" semantic-id="1" stroke="rgb(178,178,0)" stroke-width="0.1"/>
  <path d="M 19.743229999999983,89.50041850000002 L 21.152229999999975,81.62341850000001" fill="none" instance-id="-1" semantic-id="1" stroke="rgb(178,178,0)" stroke-width="0.1"/>
  <path d="M 21.71123,89.8524185 L 23.121230000000025,81.97541850000002" fill="none" instance-id="-1" semantic-id="1" stroke="rgb(178,178,0)" stroke-width="0.1"/>
  <path d="M 21.152229999999975,81.62341850000001 L 23.121230000000025,81.97541850000002" fill="none" instance-id="-1" semantic-id="1" stroke="rgb(178,178,0)" stroke-width="0.1"/>
  <path d="M 21.71123,89.8524185 L 58.62522999999999,96.45641850000001" fill="none" instance-id="-1" semantic-id="1" stroke="rgb(178,178,0)" stroke-width="0.1"/>
  <path d="M 20.375229999999988,91.6454185 L 60.242230000000006,98.77741850000001" fill="none" instance-id="-1" semantic-id="1" stroke="rgb(178,178,0)" stroke-width="0.1"/>
  <path d="M 74.67122999999998,60.72541850000002 L 65.31923,59.05141850000001" fill="none" instance-id="-1" semantic-id="1" stroke="rgb(178,178,0)" stroke-width="0.1"/>
  <path d="M 76.00823000000003,58.93241850000001 L 67.64022999999997,57.4354185" fill="none" instance-id="-1" semantic-id="1" stroke="rgb(178,178,0)" stroke-width="0.1"/>
  <path d="M 69.57823000000002,94.86241850000002 L 70.56223,95.0384185" fill="none" instance-id="-1" semantic-id="1" stroke="rgb(178,178,0)" stroke-width="0.1"/>
  <path d="M 70.56223,95.0384185 L 70.91523000000001,93.06941850000001" fill="none" instance-id="-1" semantic-id="1" stroke="rgb(178,178,0)" stroke-width="0.1"/>
  <path d="M 96.01522999999997,97.5614185 L 90.60223000000002,96.59341850000001" fill="none" instance-id="-1" semantic-id="1" stroke="rgb(178,178,0)" stroke-width="0.1"/>
  <path d="M 90.60223000000002,96.59341850000001 L 90.25022999999999,98.5614185" fill="none" instance-id="-1" semantic-id="1" stroke="rgb(178,178,0)" stroke-width="0.1"/>
  <path d="M 90.25022999999999,98.5614185 L 94.67822999999999,99.35441850000001" fill="none" instance-id="-1" semantic-id="1" stroke="rgb(178,178,0)" stroke-width="0.1"/>
  <path d="M 70.91523000000001,93.06941850000001 L 73.11723,80.7644185" fill="none" instance-id="-1" semantic-id="1" stroke="rgb(178,178,0)" stroke-width="0.1"/>
  <path d="M 73.11723,80.7644185 L 71.14823000000001,80.4124185" fill="none" instance-id="-1" semantic-id="1" stroke="rgb(178,178,0)" stroke-width="0.1"/>
  <path d="M 71.14823000000001,80.4124185 L 68.94623000000001,92.71741850000001" fill="none" instance-id="-1" semantic-id="1" stroke="rgb(178,178,0)" stroke-width="0.1"/>
  <path d="M 76.64022999999997,61.07741850000002 L 74.67122999999998,60.72541850000002" fill="none" instance-id="-1" semantic-id="1" stroke="rgb(178,178,0)" stroke-width="0.1"/>
  <path d="M 80.87623000000002,23.232418500000023 L 36.77623,15.340418499999998" fill="none" instance-id="-1" semantic-id="1" stroke="rgb(178,178,0)" stroke-width="0.1"/>
  <path d="M 81.22823,21.2634185 L 37.128229999999974,13.371418500000004" fill="none" instance-id="-1" semantic-id="1" stroke="rgb(178,178,0)" stroke-width="0.1"/>
  <path d="M 80.87623000000002,23.232418500000023 L 81.22823,21.2634185" fill="none" instance-id="-1" semantic-id="1" stroke="rgb(178,178,0)" stroke-width="0.1"/>
  <path d="M 36.77623,15.340418499999998 L 37.128229999999974,13.371418500000004" fill="none" instance-id="-1" semantic-id="1" stroke="rgb(178,178,0)" stroke-width="0.1"/>
  <path d="M 0.0,85.96792254314184 L 19.743229999999983,89.50041850000002" fill="none" instance-id="-1" semantic-id="1" stroke="rgb(178,178,0)" stroke-width="0.1"/>
  <path d="M 0.0,88.000085142897 L 20.375229999999988,91.6454185" fill="none" instance-id="-1" semantic-id="1" stroke="rgb(178,178,0)" stroke-width="0.1"/>
  <path d="M 3.803229999999985,33.82041850000002 L 4.3292299999999955,30.8764185" fill="none" instance-id="-1" semantic-id="1" stroke="rgb(178,178,0)" stroke-width="0.1"/>
  <path d="M 5.9472299999999905,33.18841850000001 L 6.122230000000002,32.21341850000002" fill="none" instance-id="-1" semantic-id="1" stroke="rgb(178,178,0)" stroke-width="0.1"/>
  <path d="M 6.474229999999977,30.244418500000023 L 66.03023000000002,40.8944185" fill="none" instance-id="-1" semantic-id="1" stroke="rgb(178,178,0)" stroke-width="0.1"/>
  <path d="M 6.122230000000002,32.21341850000002 L 65.67822999999999,42.86241850000002" fill="none" instance-id="-1" semantic-id="1" stroke="rgb(178,178,0)" stroke-width="0.1"/>
  <path d="M 66.03023000000002,40.8944185 L 65.67822999999999,42.86241850000002" fill="none" instance-id="-1" semantic-id="1" stroke="rgb(178,178,0)" stroke-width="0.1"/>
  <path d="M 6.474229999999977,30.244418500000023 L 8.414229999999975,19.409418500000015" fill="none" instance-id="-1" semantic-id="1" stroke="rgb(178,178,0)" stroke-width="0.1"/>
  <path d="M 8.414229999999975,19.409418500000015 L 6.445229999999981,19.05741850000001" fill="none" instance-id="-1" semantic-id="1" stroke="rgb(178,178,0)" stroke-width="0.1"/>
  <path d="M 6.445229999999981,19.05741850000001 L 4.3292299999999955,30.8764185" fill="none" instance-id="-1" semantic-id="1" stroke="rgb(178,178,0)" stroke-width="0.1"/>
  <path d="M 0.0,55.06915404792605 L 3.803229999999985,33.82041850000002" fill="none" instance-id="-1" semantic-id="1" stroke="rgb(178,178,0)" stroke-width="0.1"/>
  <path d="M 0.0,66.42075581387294 L 5.595230000000015,35.157418500000006" fill="none" instance-id="-1" semantic-id="1" stroke="rgb(178,178,0)" stroke-width="0.1"/>
  <path d="M 94.56270212815929,100.0 L 94.67822999999999,99.35441850000001" fill="none" instance-id="-1" semantic-id="1" stroke="rgb(178,178,0)" stroke-width="0.1"/>
  <path d="M 96.59469081450402,100.0 L 96.64722999999998,99.70641849999998" fill="none" instance-id="-1" semantic-id="1" stroke="rgb(178,178,0)" stroke-width="0.1"/>
  <path d="M 98.23523,90.8474185 L 99.20423,85.43341850000002" fill="none" instance-id="-1" semantic-id="1" stroke="rgb(178,178,0)" stroke-width="0.1"/>
  <path d="M 99.20423,85.43341850000002 L 97.23523,85.08141850000001" fill="none" instance-id="-1" semantic-id="1" stroke="rgb(178,178,0)" stroke-width="0.1"/>
  <path d="M 97.23523,85.08141850000001 L 95.91422999999998,92.46441850000002" fill="none" instance-id="-1" semantic-id="1" stroke="rgb(178,178,0)" stroke-width="0.1"/>
 </g>
 <g id="layerm-洞口" inkscape:groupmode="layer" inkscape:label="m-洞口">
  <path d="M 19.744230000000016,89.49841850000001 L 3.011230000000012,86.50341850000001" fill="none" stroke="rgb(160,107,53)" stroke-width="0.1"/>
  <path d="M 3.011230000000012,86.50341850000001 L 4.420230000000004,78.62841850000001" fill="none" stroke="rgb(160,107,53)" stroke-width="0.1"/>
  <path d="M 4.420230000000004,78.62841850000001 L 21.153230000000008,81.62341850000001" fill="none" stroke="rgb(160,107,53)" stroke-width="0.1"/>
  <path d="M 21.153230000000008,81.62341850000001 L 19.744230000000016,89.49841850000001" fill="none" stroke="rgb(160,107,53)" stroke-width="0.1"/>
  <path d="M 4.418229999999994,78.62841850000001 L 21.153230000000008,81.62341850000001" fill="none" stroke="rgb(160,107,53)" stroke-width="0.1"/>
  <path d="M 21.153230000000008,81.62341850000001 L 19.744230000000016,89.49841850000001" fill="none" stroke="rgb(160,107,53)" stroke-width="0.1"/>
  <path d="M 19.744230000000016,89.49841850000001 L 3.0092300000000023,86.50341850000001" fill="none" stroke="rgb(160,107,53)" stroke-width="0.1"/>
  <path d="M 3.0092300000000023,86.50341850000001 L 4.418229999999994,78.62841850000001" fill="none" stroke="rgb(160,107,53)" stroke-width="0.1"/>
  <path d="M 100.0,63.22673074940994 L 67.63923,57.4354185" fill="none" stroke="rgb(160,107,53)" stroke-width="0.1"/>
  <path d="M 67.63923,57.4354185 L 69.57722999999999,46.609418500000004" fill="none" stroke="rgb(160,107,53)" stroke-width="0.1"/>
  <path d="M 69.57722999999999,46.609418500000004 L 100.0,52.053904541647995" fill="none" stroke="rgb(160,107,53)" stroke-width="0.1"/>
  <path d="M 3.0092300000000023,86.50341850000001 L 5.157230000000027,79.98841850000002" fill="none" stroke="rgb(160,107,53)" stroke-width="0.1"/>
  <path d="M 5.157230000000027,79.98841850000002 L 21.153230000000008,81.62341850000001" fill="none" stroke="rgb(160,107,53)" stroke-width="0.1"/>
  <path d="M 67.63923,57.4354185 L 71.19123000000002,49.064418500000016" fill="none" stroke="rgb(160,107,53)" stroke-width="0.1"/>
  <path d="M 71.19123000000002,49.064418500000016 L 100.0,52.26207712196694" fill="none" stroke="rgb(160,107,53)" stroke-width="0.1"/>
  <path d="M 53.05623000000003,87.8414185 L 23.033230000000003,82.46841850000001" fill="none" stroke="rgb(160,107,53)" stroke-width="0.1"/>
  <path d="M 23.033230000000003,82.46841850000001 L 21.712229999999977,89.85041850000002" fill="none" stroke="rgb(160,107,53)" stroke-width="0.1"/>
  <path d="M 21.712229999999977,89.85041850000002 L 51.74023,95.22441850000001" fill="none" stroke="rgb(160,107,53)" stroke-width="0.1"/>
  <path d="M 51.74023,95.22441850000001 L 53.06123000000002,87.84241850000001" fill="none" stroke="rgb(160,107,53)" stroke-width="0.1"/>
  <path d="M 53.06123000000002,87.84241850000001 L 27.33823000000001,84.86041850000001" fill="none" stroke="rgb(160,107,53)" stroke-width="0.1"/>
  <path d="M 27.33823000000001,84.86041850000001 L 21.712229999999977,89.85041850000002" fill="none" stroke="rgb(160,107,53)" stroke-width="0.1"/>
 </g>
</svg>