<?xml version="1.0" encoding="utf-8"?>
<svg style="background-color: #000;" version="1.1" viewBox="0 0 100.0 100.0" xmlns="http://www.w3.org/2000/svg" xmlns:inkscape="http://www.inkscape.org/namespaces/inkscape">
 <g id="layer0-石材边线" inkscape:groupmode="layer" inkscape:label="0-石材边线">
  <path d="M 76.54369186122585,100.0 L 94.4413085454097,0.0" fill="none" stroke="rgb(255,73,12)" stroke-width="0.1"/>
 </g>
 <g id="layer0-结构边线" inkscape:groupmode="layer" inkscape:label="0-结构边线">
  <path d="M 73.39699799999994,21.129678999999953 L 82.25599799999998,22.715678999999966" fill="none" stroke="rgb(178,0,178)" stroke-width="0.1"/>
  <path d="M 82.25599799999998,22.715678999999966 L 83.84199799999999,13.855678999999952" fill="none" stroke="rgb(178,0,178)" stroke-width="0.1"/>
  <path d="M 74.98199799999998,12.270678999999973 L 83.84199799999999,13.855678999999952" fill="none" stroke="rgb(178,0,178)" stroke-width="0.1"/>
  <path d="M 73.39699799999994,21.129678999999953 L 74.98199799999998,12.270678999999973" fill="none" stroke="rgb(178,0,178)" stroke-width="0.1"/>
 </g>
 <g id="layer0-金属格栅" inkscape:groupmode="layer" inkscape:label="0-金属格栅">
  <path d="M 68.80499799999996,97.82967899999997 L 71.75799799999993,98.35867899999997" fill="none" stroke="rgb(73,73,73)" stroke-width="0.1"/>
  <path d="M 71.75799799999993,98.35867899999997 L 71.66999799999996,98.85067899999996" fill="none" stroke="rgb(73,73,73)" stroke-width="0.1"/>
  <path d="M 71.66999799999996,98.85067899999996 L 68.71699799999999,98.32167899999996" fill="none" stroke="rgb(73,73,73)" stroke-width="0.1"/>
  <path d="M 68.71699799999999,98.32167899999996 L 68.80499799999996,97.82967899999997" fill="none" stroke="rgb(73,73,73)" stroke-width="0.1"/>
  <path d="M 71.182998,84.54067899999995 L 74.13599799999997,85.06967899999995" fill="none" stroke="rgb(73,73,73)" stroke-width="0.1"/>
  <path d="M 74.13599799999997,85.06967899999995 L 74.047998,85.56167899999997" fill="none" stroke="rgb(73,73,73)" stroke-width="0.1"/>
  <path d="M 74.047998,85.56167899999997 L 71.09499800000003,85.03267899999997" fill="none" stroke="rgb(73,73,73)" stroke-width="0.1"/>
  <path d="M 71.09499800000003,85.03267899999997 L 71.182998,84.54067899999995" fill="none" stroke="rgb(73,73,73)" stroke-width="0.1"/>
  <path d="M 73.56199800000002,71.25167899999997 L 76.51499799999999,71.78067899999996" fill="none" stroke="rgb(73,73,73)" stroke-width="0.1"/>
  <path d="M 76.51499799999999,71.78067899999996 L 76.42699800000003,72.27267899999995" fill="none" stroke="rgb(73,73,73)" stroke-width="0.1"/>
  <path d="M 76.42699800000003,72.27267899999995 L 73.47399799999994,71.74467899999996" fill="none" stroke="rgb(73,73,73)" stroke-width="0.1"/>
  <path d="M 73.47399799999994,71.74467899999996 L 73.56199800000002,71.25167899999997" fill="none" stroke="rgb(73,73,73)" stroke-width="0.1"/>
  <path d="M 75.93999799999995,57.963678999999956 L 78.89299800000003,58.49167899999995" fill="none" stroke="rgb(73,73,73)" stroke-width="0.1"/>
  <path d="M 78.89299800000003,58.49167899999995 L 78.80499799999996,58.98367899999997" fill="none" stroke="rgb(73,73,73)" stroke-width="0.1"/>
  <path d="M 78.80499799999996,58.98367899999997 L 75.85199799999998,58.455678999999975" fill="none" stroke="rgb(73,73,73)" stroke-width="0.1"/>
  <path d="M 75.85199799999998,58.455678999999975 L 75.93999799999995,57.963678999999956" fill="none" stroke="rgb(73,73,73)" stroke-width="0.1"/>
  <path d="M 78.31899799999997,44.67467899999997 L 81.27199799999994,45.20267899999996" fill="none" stroke="rgb(73,73,73)" stroke-width="0.1"/>
  <path d="M 81.27199799999994,45.20267899999996 L 81.18399799999997,45.695678999999956" fill="none" stroke="rgb(73,73,73)" stroke-width="0.1"/>
  <path d="M 81.18399799999997,45.695678999999956 L 78.22999800000002,45.16667899999996" fill="none" stroke="rgb(73,73,73)" stroke-width="0.1"/>
  <path d="M 78.22999800000002,45.16667899999996 L 78.31899799999997,44.67467899999997" fill="none" stroke="rgb(73,73,73)" stroke-width="0.1"/>
  <path d="M 80.69699800000001,31.385678999999953 L 83.64999799999998,31.913678999999973" fill="none" stroke="rgb(73,73,73)" stroke-width="0.1"/>
  <path d="M 83.64999799999998,31.913678999999973 L 83.56199800000002,32.40667899999997" fill="none" stroke="rgb(73,73,73)" stroke-width="0.1"/>
  <path d="M 83.56199800000002,32.40667899999997 L 80.60899799999993,31.877678999999972" fill="none" stroke="rgb(73,73,73)" stroke-width="0.1"/>
  <path d="M 80.60899799999993,31.877678999999972 L 80.69699800000001,31.385678999999953" fill="none" stroke="rgb(73,73,73)" stroke-width="0.1"/>
  <path d="M 83.07499799999994,18.096678999999966 L 86.02799800000003,18.625678999999963" fill="none" stroke="rgb(73,73,73)" stroke-width="0.1"/>
  <path d="M 86.02799800000003,18.625678999999963 L 85.93999799999995,19.117678999999953" fill="none" stroke="rgb(73,73,73)" stroke-width="0.1"/>
  <path d="M 85.93999799999995,19.117678999999953 L 82.98699799999997,18.588678999999956" fill="none" stroke="rgb(73,73,73)" stroke-width="0.1"/>
  <path d="M 82.98699799999997,18.588678999999956 L 83.07499799999994,18.096678999999966" fill="none" stroke="rgb(73,73,73)" stroke-width="0.1"/>
  <path d="M 85.54199800000004,4.31567899999996 L 88.49499800000001,4.844678999999957" fill="none" stroke="rgb(73,73,73)" stroke-width="0.1"/>
  <path d="M 88.49499800000001,4.844678999999957 L 88.40699799999993,5.336678999999947" fill="none" stroke="rgb(73,73,73)" stroke-width="0.1"/>
  <path d="M 88.40699799999993,5.336678999999947 L 85.45399799999996,4.8076789999999505" fill="none" stroke="rgb(73,73,73)" stroke-width="0.1"/>
  <path d="M 85.45399799999996,4.8076789999999505 L 85.54199800000004,4.31567899999996" fill="none" stroke="rgb(73,73,73)" stroke-width="0.1"/>
 </g>
 <g id="layerAXIS" inkscape:groupmode="layer" inkscape:label="AXIS">
  <path d="M 91.30999799999995,19.764678999999973 L 100.0,21.31988067180248" fill="none" stroke="rgb(0,178,0)" stroke-width="0.1"/>
  <path d="M 91.30999799999995,19.764678999999973 L 100.0,21.31988067180248" fill="none" stroke="rgb(0,178,0)" stroke-width="0.1"/>
 </g>
 <g id="layerCOLUMN" inkscape:groupmode="layer" inkscape:label="COLUMN">
  <path d="M 40.52299800000003,6.102678999999966 L 9.416998000000035,0.5356789999999592" fill="none" instance-id="-1" semantic-id="1" stroke="rgb(178,178,0)" stroke-width="0.1"/>
  <path d="M 9.416998000000035,0.5356789999999592 L 5.804997999999955,20.715678999999966" fill="none" instance-id="-1" semantic-id="1" stroke="rgb(178,178,0)" stroke-width="0.1"/>
  <path d="M 5.804997999999955,20.715678999999966 L 10.72699799999998,21.59567899999996" fill="none" instance-id="-1" semantic-id="1" stroke="rgb(178,178,0)" stroke-width="0.1"/>
  <path d="M 10.72699799999998,21.59567899999996 L 13.456997999999999,6.341678999999971" fill="none" instance-id="-1" semantic-id="1" stroke="rgb(178,178,0)" stroke-width="0.1"/>
  <path d="M 13.456997999999999,6.341678999999971 L 39.641997999999944,11.024678999999963" fill="none" instance-id="-1" semantic-id="1" stroke="rgb(178,178,0)" stroke-width="0.1"/>
  <path d="M 39.641997999999944,11.024678999999963 L 40.52299800000003,6.102678999999966" fill="none" instance-id="-1" semantic-id="1" stroke="rgb(178,178,0)" stroke-width="0.1"/>
  <path d="M 73.39699799999994,21.129678999999953 L 82.25599799999998,22.715678999999966" fill="none" stroke="rgb(178,178,0)" stroke-width="0.1"/>
  <path d="M 82.25599799999998,22.715678999999966 L 83.84199799999999,13.855678999999952" fill="none" stroke="rgb(178,178,0)" stroke-width="0.1"/>
  <path d="M 83.84199799999999,13.855678999999952 L 74.98199799999998,12.270678999999973" fill="none" stroke="rgb(178,178,0)" stroke-width="0.1"/>
  <path d="M 74.98199799999998,12.270678999999973 L 73.39699799999994,21.129678999999953" fill="none" stroke="rgb(178,178,0)" stroke-width="0.1"/>
 </g>
 <g id="layerCURTWALL" inkscape:groupmode="layer" inkscape:label="CURTWALL">
  <path d="M 71.46406923921711,100.0 L 89.3616426381825,0.0" fill="none" instance-id="-1" semantic-id="2" stroke="rgb(0,178,178)" stroke-width="0.1"/>
  <path d="M 70.44856951003499,100.0 L 88.34614290900038,0.0" fill="none" instance-id="-1" semantic-id="2" stroke="rgb(0,178,178)" stroke-width="0.1"/>
 </g>
 <g id="layerDIM_SYMB" inkscape:groupmode="layer" inkscape:label="DIM_SYMB">
  <path d="M 65.69799799999998,38.554678999999965 L 62.29899799999998,57.55367899999996" fill="none" stroke="rgb(0,178,0)" stroke-width="0.1"/>
  <path d="M 62.29899799999998,57.55367899999996 L 61.50599799999998,61.98267899999996" fill="none" stroke="rgb(0,178,0)" stroke-width="0.1"/>
  <path d="M 56.88199799999995,87.81467899999996 L 60.28299800000002,68.81667899999997" fill="none" stroke="rgb(0,178,0)" stroke-width="0.1"/>
  <path d="M 60.28299800000002,68.81667899999997 L 61.07599800000003,64.38767899999996" fill="none" stroke="rgb(0,178,0)" stroke-width="0.1"/>
  <path d="M 44.70599800000002,34.79767899999996 L 41.30599799999993,53.79567899999995" fill="none" stroke="rgb(0,178,0)" stroke-width="0.1"/>
  <path d="M 41.30599799999993,53.79567899999995 L 40.51299800000004,58.22567899999996" fill="none" stroke="rgb(0,178,0)" stroke-width="0.1"/>
  <path d="M 36.596997999999985,84.18467899999996 L 39.99699799999996,65.18667899999997" fill="none" stroke="rgb(0,178,0)" stroke-width="0.1"/>
  <path d="M 39.99699799999996,65.18667899999997 L 40.78999799999997,60.75667899999996" fill="none" stroke="rgb(0,178,0)" stroke-width="0.1"/>
 </g>
 <g id="layerDOOR_FIRE" inkscape:groupmode="layer" inkscape:label="DOOR_FIRE">
  <path d="M 0.0,91.3083748151698 L 3.964998000000037,92.01767899999996" fill="none" stroke="rgb(0,178,178)" stroke-width="0.1"/>
  <path d="M 0.0,91.81671332340068 L 3.8769979999999578,92.51067899999995" fill="none" stroke="rgb(0,178,178)" stroke-width="0.1"/>
  <path d="M 3.8769979999999578,92.51067899999995 L 3.964998000000037,92.01767899999996" fill="none" stroke="rgb(0,178,178)" stroke-width="0.1"/>
  <path d="M 23.01499799999999,98.46367899999996 L 31.603005546884333,100.0" fill="none" stroke="rgb(0,178,178)" stroke-width="0.1"/>
  <path d="M 22.926998000000026,98.95567899999998 L 28.76473414327336,100.0" fill="none" stroke="rgb(0,178,178)" stroke-width="0.1"/>
  <path d="M 23.01499799999999,98.46367899999996 L 22.926998000000026,98.95567899999998" fill="none" stroke="rgb(0,178,178)" stroke-width="0.1"/>
  <path d="M 49.74699799999996,8.772678999999954 L 48.028998,18.369678999999962" fill="none" instance-id="3" semantic-id="4" stroke="rgb(0,178,178)" stroke-width="0.1"/>
  <path d="M 50.23899800000004,8.860678999999948 L 48.52199799999994,18.457678999999956" fill="none" instance-id="3" semantic-id="4" stroke="rgb(0,178,178)" stroke-width="0.1"/>
  <path d="M 49.74699799999996,8.772678999999954 L 50.23899800000004,8.860678999999948" fill="none" instance-id="3" semantic-id="4" stroke="rgb(0,178,178)" stroke-width="0.1"/>
  <path d="M 48.52199799999994,18.457678999999956 L 48.028998,18.369678999999962" fill="none" instance-id="3" semantic-id="4" stroke="rgb(0,178,178)" stroke-width="0.1"/>
  <path d="M 68.94199800000001,12.207678999999956 L 67.22399799999994,21.804678999999965" fill="none" instance-id="3" semantic-id="4" stroke="rgb(0,178,178)" stroke-width="0.1"/>
  <path d="M 69.43399799999997,12.29567899999995 L 67.71699799999999,21.89267899999996" fill="none" instance-id="3" semantic-id="4" stroke="rgb(0,178,178)" stroke-width="0.1"/>
  <path d="M 67.22399799999994,21.804678999999965 L 67.71699799999999,21.89267899999996" fill="none" instance-id="3" semantic-id="4" stroke="rgb(0,178,178)" stroke-width="0.1"/>
  <path d="M 69.43399799999997,12.29567899999995 L 68.94199800000001,12.207678999999956" fill="none" instance-id="3" semantic-id="4" stroke="rgb(0,178,178)" stroke-width="0.1"/>
  <path d="M 0.19973669145849726,98.32587667017972 L 0.5924540793656661,98.01300392563385" fill="none" stroke="rgb(0,178,178)" stroke-width="0.1"/>
  <path d="M 0.5924540793656661,98.01300392563385 L 0.9685435205495878,97.68032835803965" fill="none" stroke="rgb(0,178,178)" stroke-width="0.1"/>
  <path d="M 0.9685435205495878,97.68032835803965 L 1.327007584070202,97.3287322599262" fill="none" stroke="rgb(0,178,178)" stroke-width="0.1"/>
  <path d="M 1.327007584070202,97.3287322599262 L 1.666895583444557,96.95914810316961" fill="none" stroke="rgb(0,178,178)" stroke-width="0.1"/>
  <path d="M 1.666895583444557,96.95914810316961 L 1.9873060979741695,96.57255606597391" fill="none" stroke="rgb(0,178,178)" stroke-width="0.1"/>
  <path d="M 1.9873060979741695,96.57255606597391 L 2.287389363411876,96.1699814333299" fill="none" stroke="rgb(0,178,178)" stroke-width="0.1"/>
  <path d="M 2.287389363411876,96.1699814333299 L 2.566349525631381,95.7524918778453" fill="none" stroke="rgb(0,178,178)" stroke-width="0.1"/>
  <path d="M 2.566349525631381,95.7524918778453 L 2.8234467513203754,95.32119462815868" fill="none" stroke="rgb(0,178,178)" stroke-width="0.1"/>
  <path d="M 2.8234467513203754,95.32119462815868 L 3.0579991901011,94.87723353244616" fill="none" stroke="rgb(0,178,178)" stroke-width="0.1"/>
  <path d="M 3.0579991901011,94.87723353244616 L 3.269384782872635,94.42178602480908" fill="none" stroke="rgb(0,178,178)" stroke-width="0.1"/>
  <path d="M 3.269384782872635,94.42178602480908 L 3.4570429115813113,93.95606000258809" fill="none" stroke="rgb(0,178,178)" stroke-width="0.1"/>
  <path d="M 3.4570429115813113,93.95606000258809 L 3.620475886041504,93.48129062288533" fill="none" stroke="rgb(0,178,178)" stroke-width="0.1"/>
  <path d="M 3.620475886041504,93.48129062288533 L 3.7592502638651695,92.99873702679068" fill="none" stroke="rgb(0,178,178)" stroke-width="0.1"/>
  <path d="M 3.7592502638651695,92.99873702679068 L 3.8729979999999387,92.50967899999995" fill="none" stroke="rgb(0,178,178)" stroke-width="0.1"/>
  <path d="M 48.52199799999994,18.45467899999997 A 9.75,9.75 0.0 0,0 59.59099800000001,10.53367899999995" fill="none" instance-id="3" semantic-id="4" stroke="rgb(0,178,178)" stroke-width="0.1"/>
  <path d="M 59.59099800000001,10.53367899999995 A 9.75,9.75 0.0 0,0 67.22499800000003,21.80167899999995" fill="none" instance-id="3" semantic-id="4" stroke="rgb(0,178,178)" stroke-width="0.1"/>
 </g>
 <g id="layerDOOR_FIRE_TEXT" inkscape:groupmode="layer" inkscape:label="DOOR_FIRE_TEXT">
  <text fill="rgb(0,0,0)" font-family="Noto Sans CJK SC" font-size="2" transform="rotate(-349.854,53.253998000000024,9.722678999999971)" x="53.253998000000024" y="9.722678999999971">
   FM
  </text>
  <text fill="rgb(0,0,0)" font-family="Noto Sans CJK SC" font-size="2" transform="rotate(-349.854,56.88099799999998,10.371678999999972)" x="56.88099799999998" y="10.371678999999972">
   乙
  </text>
  <text fill="rgb(0,0,0)" font-family="Noto Sans CJK SC" font-size="2" transform="rotate(-349.854,60.22899799999993,10.970678999999961)" x="60.22899799999993" y="10.970678999999961">
   2023
  </text>
 </g>
 <g id="layerPUB_HATCH" inkscape:groupmode="layer" inkscape:label="PUB_HATCH">
  <path d="M 9.416998000000035,0.5356789999999592 L 5.804997999999955,20.715678999999966" fill="none" instance-id="-1" semantic-id="1" stroke="rgb(63,63,63)" stroke-width="0.1"/>
  <path d="M 5.804997999999955,20.715678999999966 L 10.72699799999998,21.59567899999996" fill="none" instance-id="-1" semantic-id="1" stroke="rgb(63,63,63)" stroke-width="0.1"/>
  <path d="M 10.72699799999998,21.59567899999996 L 13.456997999999999,6.341678999999971" fill="none" instance-id="-1" semantic-id="1" stroke="rgb(63,63,63)" stroke-width="0.1"/>
  <path d="M 13.456997999999999,6.341678999999971 L 39.641997999999944,11.024678999999963" fill="none" instance-id="-1" semantic-id="1" stroke="rgb(63,63,63)" stroke-width="0.1"/>
  <path d="M 39.641997999999944,11.024678999999963 L 40.52299800000003,6.102678999999966" fill="none" instance-id="-1" semantic-id="1" stroke="rgb(63,63,63)" stroke-width="0.1"/>
  <path d="M 40.52299800000003,6.102678999999966 L 9.416998000000035,0.5356789999999592" fill="none" instance-id="-1" semantic-id="1" stroke="rgb(63,63,63)" stroke-width="0.1"/>
 </g>
 <g id="layerPUB_TEXT" inkscape:groupmode="layer" inkscape:label="PUB_TEXT">
  <text fill="rgb(0,0,0)" font-family="Noto Sans CJK SC" font-size="2" transform="rotate(-349.9,19.35199799999998,36.42067899999995)" x="19.35199799999998" y="36.42067899999995">
   弱电
  </text>
  <text fill="rgb(0,0,0)" font-family="Noto Sans CJK SC" font-size="2" transform="rotate(-349.9,13.54699800000003,58.78567899999996)" x="13.54699800000003" y="58.78567899999996">
   强电
  </text>
  <text fill="rgb(0,0,0)" font-family="Noto Sans CJK SC" font-size="2" transform="rotate(-339.753,60.27299800000003,34.90067899999997)" x="60.27299800000003" y="34.90067899999997">
   下
  </text>
  <text fill="rgb(0,0,0)" font-family="Noto Sans CJK SC" font-size="2" transform="rotate(-339.753,63.730998,36.17667899999995)" x="63.730998" y="36.17667899999995">
   18
  </text>
  <text fill="rgb(0,0,0)" font-family="Noto Sans CJK SC" font-size="2" transform="rotate(-339.753,68.79699800000003,38.04567899999995)" x="68.79699800000003" y="38.04567899999995">
   级
  </text>
  <text fill="rgb(0,0,0)" font-family="Noto Sans CJK SC" font-size="2" transform="rotate(-339.753,49.08399799999995,92.18767899999997)" x="49.08399799999995" y="92.18767899999997">
   上
  </text>
  <text fill="rgb(0,0,0)" font-family="Noto Sans CJK SC" font-size="2" transform="rotate(-339.753,52.54299800000001,93.46267899999995)" x="52.54299800000001" y="93.46267899999995">
   18
  </text>
  <text fill="rgb(0,0,0)" font-family="Noto Sans CJK SC" font-size="2" transform="rotate(-339.753,57.60899799999993,95.33167899999995)" x="57.60899799999993" y="95.33167899999995">
   级
  </text>
  <text fill="rgb(0,0,0)" font-family="Noto Sans CJK SC" font-size="2" transform="rotate(-339.753,39.27999799999998,31.143678999999963)" x="39.27999799999998" y="31.143678999999963">
   上
  </text>
  <text fill="rgb(0,0,0)" font-family="Noto Sans CJK SC" font-size="2" transform="rotate(-339.753,42.73799799999995,32.419678999999974)" x="42.73799799999995" y="32.419678999999974">
   18
  </text>
  <text fill="rgb(0,0,0)" font-family="Noto Sans CJK SC" font-size="2" transform="rotate(-339.753,47.804997999999955,34.28867899999997)" x="47.804997999999955" y="34.28867899999997">
   级
  </text>
  <text fill="rgb(0,0,0)" font-family="Noto Sans CJK SC" font-size="2" transform="rotate(-339.753,28.798997999999983,88.55667899999997)" x="28.798997999999983" y="88.55667899999997">
   下
  </text>
  <text fill="rgb(0,0,0)" font-family="Noto Sans CJK SC" font-size="2" transform="rotate(-339.753,32.25699799999995,89.83267899999996)" x="32.25699799999995" y="89.83267899999996">
   18
  </text>
  <text fill="rgb(0,0,0)" font-family="Noto Sans CJK SC" font-size="2" transform="rotate(-339.753,37.32399799999996,91.70067899999995)" x="37.32399799999996" y="91.70067899999995">
   级
  </text>
 </g>
 <g id="layerSTAIR" inkscape:groupmode="layer" inkscape:label="STAIR">
  <path d="M 53.578997999999956,37.80167899999995 L 35.46699799999999,34.560678999999965" fill="none" instance-id="5" semantic-id="30" stroke="rgb(178,88,0)" stroke-width="0.1"/>
  <path d="M 53.08599800000002,40.558678999999955 L 34.97399799999994,37.316678999999965" fill="none" instance-id="5" semantic-id="30" stroke="rgb(178,88,0)" stroke-width="0.1"/>
  <path d="M 52.592997999999966,43.314678999999956 L 34.47999800000002,40.07367899999997" fill="none" instance-id="5" semantic-id="30" stroke="rgb(178,88,0)" stroke-width="0.1"/>
  <path d="M 52.09899799999994,46.070678999999956 L 33.98699799999997,42.82967899999997" fill="none" instance-id="5" semantic-id="30" stroke="rgb(178,88,0)" stroke-width="0.1"/>
  <path d="M 51.605998,48.826678999999956 L 33.49399800000003,45.58567899999997" fill="none" instance-id="5" semantic-id="30" stroke="rgb(178,88,0)" stroke-width="0.1"/>
  <path d="M 51.11299799999995,51.582678999999956 L 33.00099799999998,48.34167899999997" fill="none" instance-id="5" semantic-id="30" stroke="rgb(178,88,0)" stroke-width="0.1"/>
  <path d="M 50.61999800000001,54.33967899999996 L 32.50699799999995,51.09767899999997" fill="none" instance-id="5" semantic-id="30" stroke="rgb(178,88,0)" stroke-width="0.1"/>
  <path d="M 50.12599799999998,57.09567899999996 L 49.51099799999997,56.98567899999995" fill="none" instance-id="5" semantic-id="30" stroke="rgb(178,88,0)" stroke-width="0.1"/>
  <path d="M 47.541998000000035,56.63267899999997 L 32.013998000000015,53.85467899999995" fill="none" instance-id="5" semantic-id="30" stroke="rgb(178,88,0)" stroke-width="0.1"/>
  <path d="M 49.63299799999993,59.85167899999996 L 44.24399800000003,58.88767899999996" fill="none" instance-id="5" semantic-id="30" stroke="rgb(178,88,0)" stroke-width="0.1"/>
  <path d="M 42.27499799999998,58.534678999999954 L 31.520997999999963,56.61067899999995" fill="none" instance-id="5" semantic-id="30" stroke="rgb(178,88,0)" stroke-width="0.1"/>
  <path d="M 49.13999799999999,62.60767899999996 L 31.027998000000025,59.36667899999995" fill="none" instance-id="5" semantic-id="30" stroke="rgb(178,88,0)" stroke-width="0.1"/>
  <path d="M 48.64699799999994,65.36367899999996 L 33.70899799999995,62.69067899999996" fill="none" instance-id="5" semantic-id="30" stroke="rgb(178,88,0)" stroke-width="0.1"/>
  <path d="M 48.153998,68.12067899999997 L 30.040997999999945,64.87867899999995" fill="none" instance-id="5" semantic-id="30" stroke="rgb(178,88,0)" stroke-width="0.1"/>
  <path d="M 47.65999799999997,70.87667899999997 L 29.547998000000007,67.63567899999995" fill="none" instance-id="5" semantic-id="30" stroke="rgb(178,88,0)" stroke-width="0.1"/>
  <path d="M 47.166998000000035,73.63267899999997 L 29.054997999999955,70.39167899999995" fill="none" instance-id="5" semantic-id="30" stroke="rgb(178,88,0)" stroke-width="0.1"/>
  <path d="M 46.67399799999998,76.38867899999997 L 28.561998000000017,73.14767899999995" fill="none" instance-id="5" semantic-id="30" stroke="rgb(178,88,0)" stroke-width="0.1"/>
  <path d="M 46.18099799999993,79.14567899999997 L 28.06799799999999,75.90367899999995" fill="none" instance-id="5" semantic-id="30" stroke="rgb(178,88,0)" stroke-width="0.1"/>
  <path d="M 45.68699800000002,81.90167899999997 L 27.574997999999937,78.66067899999996" fill="none" instance-id="5" semantic-id="30" stroke="rgb(178,88,0)" stroke-width="0.1"/>
  <path d="M 45.193997999999965,84.65767899999997 L 27.081998,81.41667899999996" fill="none" instance-id="5" semantic-id="30" stroke="rgb(178,88,0)" stroke-width="0.1"/>
  <path d="M 54.169997999999964,37.90767899999997 L 51.044997999999964,55.36767899999995" fill="none" instance-id="5" semantic-id="30" stroke="rgb(178,88,0)" stroke-width="0.1"/>
  <path d="M 50.84199799999999,56.50467899999995 L 45.78499799999997,84.76367899999997" fill="none" instance-id="5" semantic-id="30" stroke="rgb(178,88,0)" stroke-width="0.1"/>
  <path d="M 54.169997999999964,37.90767899999997 L 53.578997999999956,37.80167899999995" fill="none" instance-id="5" semantic-id="30" stroke="rgb(178,88,0)" stroke-width="0.1"/>
  <path d="M 45.78499799999997,84.76367899999997 L 45.193997999999965,84.65767899999997" fill="none" instance-id="5" semantic-id="30" stroke="rgb(178,88,0)" stroke-width="0.1"/>
  <path d="M 50.84199799999999,56.50467899999995 L 41.51499799999999,59.87267899999995" fill="none" instance-id="5" semantic-id="30" stroke="rgb(178,88,0)" stroke-width="0.1"/>
  <path d="M 51.044997999999964,55.36767899999995 L 41.426998000000026,58.84167899999997" fill="none" instance-id="5" semantic-id="30" stroke="rgb(178,88,0)" stroke-width="0.1"/>
  <path d="M 40.01199799999995,60.415678999999955 L 30.205998000000022,63.955678999999975" fill="none" instance-id="5" semantic-id="30" stroke="rgb(178,88,0)" stroke-width="0.1"/>
  <path d="M 39.92499799999996,59.38367899999997 L 30.409997999999973,62.81967899999995" fill="none" instance-id="5" semantic-id="30" stroke="rgb(178,88,0)" stroke-width="0.1"/>
  <path d="M 48.34399799999994,85.22167899999997 L 66.45599800000002,88.46267899999995" fill="none" instance-id="5" semantic-id="30" stroke="rgb(178,88,0)" stroke-width="0.1"/>
  <path d="M 48.836997999999994,82.46467899999996 L 66.94999799999994,85.70667899999995" fill="none" instance-id="5" semantic-id="30" stroke="rgb(178,88,0)" stroke-width="0.1"/>
  <path d="M 49.33099800000002,79.70867899999996 L 67.44299799999999,82.95067899999995" fill="none" instance-id="5" semantic-id="30" stroke="rgb(178,88,0)" stroke-width="0.1"/>
  <path d="M 49.82399799999996,76.95267899999996 L 67.93599800000004,80.19367899999997" fill="none" instance-id="5" semantic-id="30" stroke="rgb(178,88,0)" stroke-width="0.1"/>
  <path d="M 50.31699800000001,74.19667899999996 L 68.42899799999998,77.43767899999997" fill="none" instance-id="5" semantic-id="30" stroke="rgb(178,88,0)" stroke-width="0.1"/>
  <path d="M 50.80999799999995,71.44067899999996 L 68.922998,74.68167899999997" fill="none" instance-id="5" semantic-id="30" stroke="rgb(178,88,0)" stroke-width="0.1"/>
  <path d="M 51.302998,68.68367899999996 L 69.41599799999995,71.92567899999997" fill="none" instance-id="5" semantic-id="30" stroke="rgb(178,88,0)" stroke-width="0.1"/>
  <path d="M 51.79699800000003,65.92767899999996 L 52.41199800000004,66.03767899999997" fill="none" instance-id="5" semantic-id="30" stroke="rgb(178,88,0)" stroke-width="0.1"/>
  <path d="M 54.38099799999998,66.39067899999995 L 69.908998,69.16867899999997" fill="none" instance-id="5" semantic-id="30" stroke="rgb(178,88,0)" stroke-width="0.1"/>
  <path d="M 52.28999799999997,63.171678999999955 L 57.67899799999998,64.13567899999995" fill="none" instance-id="5" semantic-id="30" stroke="rgb(178,88,0)" stroke-width="0.1"/>
  <path d="M 59.64799800000003,64.48867899999996 L 70.40199799999994,66.41267899999997" fill="none" instance-id="5" semantic-id="30" stroke="rgb(178,88,0)" stroke-width="0.1"/>
  <path d="M 52.78299800000002,60.415678999999955 L 62.94699800000001,62.23467899999997" fill="none" instance-id="5" semantic-id="30" stroke="rgb(178,88,0)" stroke-width="0.1"/>
  <path d="M 64.91499799999997,62.58667899999995 L 70.89499799999999,63.65667899999997" fill="none" instance-id="5" semantic-id="30" stroke="rgb(178,88,0)" stroke-width="0.1"/>
  <path d="M 53.27599799999996,57.659678999999954 L 68.21399799999995,60.332678999999956" fill="none" instance-id="5" semantic-id="30" stroke="rgb(178,88,0)" stroke-width="0.1"/>
  <path d="M 53.76999799999999,54.90267899999995 L 71.88199799999995,58.14467899999997" fill="none" instance-id="5" semantic-id="30" stroke="rgb(178,88,0)" stroke-width="0.1"/>
  <path d="M 54.26299800000004,52.14667899999995 L 72.374998,55.38767899999996" fill="none" instance-id="5" semantic-id="30" stroke="rgb(178,88,0)" stroke-width="0.1"/>
  <path d="M 54.75599799999998,49.39067899999995 L 72.86799799999994,52.63167899999996" fill="none" instance-id="5" semantic-id="30" stroke="rgb(178,88,0)" stroke-width="0.1"/>
  <path d="M 55.24899800000003,46.63467899999995 L 73.36199799999997,49.87567899999996" fill="none" instance-id="5" semantic-id="30" stroke="rgb(178,88,0)" stroke-width="0.1"/>
  <path d="M 55.74299799999994,43.87767899999997 L 73.85499800000002,47.11967899999996" fill="none" instance-id="5" semantic-id="30" stroke="rgb(178,88,0)" stroke-width="0.1"/>
  <path d="M 56.235997999999995,41.12167899999997 L 74.34799799999996,44.36367899999996" fill="none" instance-id="5" semantic-id="30" stroke="rgb(178,88,0)" stroke-width="0.1"/>
  <path d="M 56.72899799999993,38.36567899999997 L 74.84099800000001,41.60667899999996" fill="none" instance-id="5" semantic-id="30" stroke="rgb(178,88,0)" stroke-width="0.1"/>
  <path d="M 47.752997999999934,85.11567899999997 L 50.877997999999934,67.65567899999996" fill="none" instance-id="5" semantic-id="30" stroke="rgb(178,88,0)" stroke-width="0.1"/>
  <path d="M 51.08099800000002,66.51867899999996 L 56.13799800000004,38.25967899999995" fill="none" instance-id="5" semantic-id="30" stroke="rgb(178,88,0)" stroke-width="0.1"/>
  <path d="M 47.752997999999934,85.11567899999997 L 48.34399799999994,85.22167899999997" fill="none" instance-id="5" semantic-id="30" stroke="rgb(178,88,0)" stroke-width="0.1"/>
  <path d="M 56.13799800000004,38.25967899999995 L 56.72899799999993,38.36567899999997" fill="none" instance-id="5" semantic-id="30" stroke="rgb(178,88,0)" stroke-width="0.1"/>
  <path d="M 51.08099800000002,66.51867899999996 L 60.408998,63.15067899999997" fill="none" instance-id="5" semantic-id="30" stroke="rgb(178,88,0)" stroke-width="0.1"/>
  <path d="M 50.877997999999934,67.65567899999996 L 60.495997999999986,64.18267899999995" fill="none" instance-id="5" semantic-id="30" stroke="rgb(178,88,0)" stroke-width="0.1"/>
  <path d="M 61.91099799999995,62.60867899999997 L 71.71699799999999,59.06767899999997" fill="none" instance-id="5" semantic-id="30" stroke="rgb(178,88,0)" stroke-width="0.1"/>
  <path d="M 61.99799799999994,63.63967899999997 L 71.51299800000004,60.203678999999966" fill="none" instance-id="5" semantic-id="30" stroke="rgb(178,88,0)" stroke-width="0.1"/>
  <path d="M 54.169997999999964,37.90767899999997 L 51.044997999999964,55.36767899999995" fill="none" instance-id="5" semantic-id="30" stroke="rgb(178,88,0)" stroke-width="0.1"/>
  <path d="M 50.84199799999999,56.50467899999995 L 45.78499799999997,84.76367899999997" fill="none" instance-id="5" semantic-id="30" stroke="rgb(178,88,0)" stroke-width="0.1"/>
  <path d="M 53.578997999999956,37.80167899999995 L 50.392998000000034,55.60367899999997" fill="none" instance-id="5" semantic-id="30" stroke="rgb(178,88,0)" stroke-width="0.1"/>
  <path d="M 50.189997999999946,56.73967899999997 L 45.193997999999965,84.65767899999997" fill="none" instance-id="5" semantic-id="30" stroke="rgb(178,88,0)" stroke-width="0.1"/>
  <path d="M 54.169997999999964,37.90767899999997 L 53.578997999999956,37.80167899999995" fill="none" instance-id="5" semantic-id="30" stroke="rgb(178,88,0)" stroke-width="0.1"/>
  <path d="M 45.78499799999997,84.76367899999997 L 45.193997999999965,84.65767899999997" fill="none" instance-id="5" semantic-id="30" stroke="rgb(178,88,0)" stroke-width="0.1"/>
  <path d="M 47.752997999999934,85.11567899999997 L 50.877997999999934,67.65567899999996" fill="none" instance-id="5" semantic-id="30" stroke="rgb(178,88,0)" stroke-width="0.1"/>
  <path d="M 51.08099800000002,66.51867899999996 L 56.13799800000004,38.25967899999995" fill="none" instance-id="5" semantic-id="30" stroke="rgb(178,88,0)" stroke-width="0.1"/>
  <path d="M 48.34399799999994,85.22167899999997 L 51.52999799999998,67.41967899999997" fill="none" instance-id="5" semantic-id="30" stroke="rgb(178,88,0)" stroke-width="0.1"/>
  <path d="M 51.73299799999995,66.28367899999995 L 56.72899799999993,38.36567899999997" fill="none" instance-id="5" semantic-id="30" stroke="rgb(178,88,0)" stroke-width="0.1"/>
  <path d="M 47.752997999999934,85.11567899999997 L 48.34399799999994,85.22167899999997" fill="none" instance-id="5" semantic-id="30" stroke="rgb(178,88,0)" stroke-width="0.1"/>
  <path d="M 56.13799800000004,38.25967899999995 L 56.72899799999993,38.36567899999997" fill="none" instance-id="5" semantic-id="30" stroke="rgb(178,88,0)" stroke-width="0.1"/>
  <path d="M 39.92499799999996,59.38367899999997 L 39.80999799999995,58.03867899999997" fill="none" instance-id="5" semantic-id="30" stroke="rgb(178,88,0)" stroke-width="0.1"/>
  <path d="M 39.80999799999995,58.03867899999997 L 41.533998,60.10367899999997" fill="none" instance-id="5" semantic-id="30" stroke="rgb(178,88,0)" stroke-width="0.1"/>
  <path d="M 41.533998,60.10367899999997 L 41.426998000000026,58.84167899999997" fill="none" instance-id="5" semantic-id="30" stroke="rgb(178,88,0)" stroke-width="0.1"/>
  <path d="M 40.01199799999995,60.415678999999955 L 39.89799800000003,59.06967899999995" fill="none" instance-id="5" semantic-id="30" stroke="rgb(178,88,0)" stroke-width="0.1"/>
  <path d="M 39.89799800000003,59.06967899999995 L 41.62199799999996,61.13467899999995" fill="none" instance-id="5" semantic-id="30" stroke="rgb(178,88,0)" stroke-width="0.1"/>
  <path d="M 41.62199799999996,61.13467899999995 L 41.51499799999999,59.87267899999995" fill="none" instance-id="5" semantic-id="30" stroke="rgb(178,88,0)" stroke-width="0.1"/>
  <path d="M 60.408998,63.15067899999997 L 60.29399799999999,61.80567899999997" fill="none" instance-id="5" semantic-id="30" stroke="rgb(178,88,0)" stroke-width="0.1"/>
  <path d="M 60.29399799999999,61.80567899999997 L 62.017998000000034,63.87067899999997" fill="none" instance-id="5" semantic-id="30" stroke="rgb(178,88,0)" stroke-width="0.1"/>
  <path d="M 62.017998000000034,63.87067899999997 L 61.91099799999995,62.60867899999997" fill="none" instance-id="5" semantic-id="30" stroke="rgb(178,88,0)" stroke-width="0.1"/>
  <path d="M 60.495997999999986,64.18267899999995 L 60.38199799999995,62.83667899999995" fill="none" instance-id="5" semantic-id="30" stroke="rgb(178,88,0)" stroke-width="0.1"/>
  <path d="M 60.38199799999995,62.83667899999995 L 62.105998,64.90167899999997" fill="none" instance-id="5" semantic-id="30" stroke="rgb(178,88,0)" stroke-width="0.1"/>
  <path d="M 62.105998,64.90167899999997 L 61.99799799999994,63.63967899999997" fill="none" instance-id="5" semantic-id="30" stroke="rgb(178,88,0)" stroke-width="0.1"/>
  <path d="M 27.081998,81.41667899999996 L 27.001937493897344,81.91154978381431" fill="none" instance-id="5" semantic-id="30" stroke="rgb(178,88,0)" stroke-width="0.1"/>
  <path d="M 27.001937493897344,81.91154978381431 L 26.934305225055596,82.40827169144654" fill="none" instance-id="5" semantic-id="30" stroke="rgb(178,88,0)" stroke-width="0.1"/>
  <path d="M 26.934305225055596,82.40827169144654 L 26.879143684593828,82.90653264894206" fill="none" instance-id="5" semantic-id="30" stroke="rgb(178,88,0)" stroke-width="0.1"/>
  <path d="M 26.879143684593828,82.90653264894206 L 26.836487528684188,83.40601961541216" fill="none" instance-id="5" semantic-id="30" stroke="rgb(178,88,0)" stroke-width="0.1"/>
  <path d="M 26.836487528684188,83.40601961541216 L 26.806363556779502,83.90641877970717" fill="none" instance-id="5" semantic-id="30" stroke="rgb(178,88,0)" stroke-width="0.1"/>
  <path d="M 26.806363556779502,83.90641877970717 L 26.78879069477557,84.40741575757377" fill="none" instance-id="5" semantic-id="30" stroke="rgb(178,88,0)" stroke-width="0.1"/>
  <path d="M 26.78879069477557,84.40741575757377 L 26.783779983120553,84.90869578917207" fill="none" instance-id="5" semantic-id="30" stroke="rgb(178,88,0)" stroke-width="0.1"/>
  <path d="M 26.783779983120553,84.90869578917207 L 26.79133456987904,85.40994393682888" fill="none" instance-id="5" semantic-id="30" stroke="rgb(178,88,0)" stroke-width="0.1"/>
  <path d="M 26.79133456987904,85.40994393682888 L 26.811449708753912,85.91084528290264" fill="none" instance-id="5" semantic-id="30" stroke="rgb(178,88,0)" stroke-width="0.1"/>
  <path d="M 26.811449708753912,85.91084528290264 L 26.84411276206822,86.4110851276358" fill="none" instance-id="5" semantic-id="30" stroke="rgb(178,88,0)" stroke-width="0.1"/>
  <path d="M 26.84411276206822,86.4110851276358 L 26.889303208705428,86.91034918687018" fill="none" instance-id="5" semantic-id="30" stroke="rgb(178,88,0)" stroke-width="0.1"/>
  <path d="M 26.889303208705428,86.91034918687018 L 26.94699265700183,87.40832378950142" fill="none" instance-id="5" semantic-id="30" stroke="rgb(178,88,0)" stroke-width="0.1"/>
  <path d="M 26.94699265700183,87.40832378950142 L 27.017144862583905,87.9046960745481" fill="none" instance-id="5" semantic-id="30" stroke="rgb(178,88,0)" stroke-width="0.1"/>
  <path d="M 27.017144862583905,87.9046960745481 L 27.09971575113991,88.39915418771193" fill="none" instance-id="5" semantic-id="30" stroke="rgb(178,88,0)" stroke-width="0.1"/>
  <path d="M 27.09971575113991,88.39915418771193 L 27.194653446110237,88.89138747730559" fill="none" instance-id="5" semantic-id="30" stroke="rgb(178,88,0)" stroke-width="0.1"/>
  <path d="M 27.194653446110237,88.89138747730559 L 27.30189830127938,89.38108668942485" fill="none" instance-id="5" semantic-id="30" stroke="rgb(178,88,0)" stroke-width="0.1"/>
  <path d="M 27.30189830127938,89.38108668942485 L 27.421382938249963,89.8679441622426" fill="none" instance-id="5" semantic-id="30" stroke="rgb(178,88,0)" stroke-width="0.1"/>
  <path d="M 27.421382938249963,89.8679441622426 L 27.553032288774375,90.35165401930254" fill="none" instance-id="5" semantic-id="30" stroke="rgb(178,88,0)" stroke-width="0.1"/>
  <path d="M 27.553032288774375,90.35165401930254 L 27.696763641917528,90.83191236169142" fill="none" instance-id="5" semantic-id="30" stroke="rgb(178,88,0)" stroke-width="0.1"/>
  <path d="M 27.696763641917528,90.83191236169142 L 27.85248669602163,91.30841745896842" fill="none" instance-id="5" semantic-id="30" stroke="rgb(178,88,0)" stroke-width="0.1"/>
  <path d="M 27.85248669602163,91.30841745896842 L 28.02010361543944,91.78086993873262" fill="none" instance-id="5" semantic-id="30" stroke="rgb(178,88,0)" stroke-width="0.1"/>
  <path d="M 28.02010361543944,91.78086993873262 L 28.199509092001335,92.24897297470875" fill="none" instance-id="5" semantic-id="30" stroke="rgb(178,88,0)" stroke-width="0.1"/>
  <path d="M 28.199509092001335,92.24897297470875 L 28.390590411177072,92.71243247323324" fill="none" instance-id="5" semantic-id="30" stroke="rgb(178,88,0)" stroke-width="0.1"/>
  <path d="M 28.390590411177072,92.71243247323324 L 28.59322752289006,93.17095725802363" fill="none" instance-id="5" semantic-id="30" stroke="rgb(178,88,0)" stroke-width="0.1"/>
  <path d="M 28.59322752289006,93.17095725802363 L 28.807293116941764,93.62425925311493" fill="none" instance-id="5" semantic-id="30" stroke="rgb(178,88,0)" stroke-width="0.1"/>
  <path d="M 28.807293116941764,93.62425925311493 L 29.032652702995733,94.07205366384835" fill="none" instance-id="5" semantic-id="30" stroke="rgb(178,88,0)" stroke-width="0.1"/>
  <path d="M 29.032652702995733,94.07205366384835 L 29.26916469507364,94.51405915579818" fill="none" instance-id="5" semantic-id="30" stroke="rgb(178,88,0)" stroke-width="0.1"/>
  <path d="M 29.26916469507364,94.51405915579818 L 29.516680500509096,94.94999803152515" fill="none" instance-id="5" semantic-id="30" stroke="rgb(178,88,0)" stroke-width="0.1"/>
  <path d="M 29.516680500509096,94.94999803152515 L 29.77504461330375,95.37959640504434" fill="none" instance-id="5" semantic-id="30" stroke="rgb(178,88,0)" stroke-width="0.1"/>
  <path d="M 29.77504461330375,95.37959640504434 L 30.04409471182612,95.80258437389872" fill="none" instance-id="5" semantic-id="30" stroke="rgb(178,88,0)" stroke-width="0.1"/>
  <path d="M 30.04409471182612,95.80258437389872 L 30.323661760793243,96.21869618873012" fill="none" instance-id="5" semantic-id="30" stroke="rgb(178,88,0)" stroke-width="0.1"/>
  <path d="M 30.323661760793243,96.21869618873012 L 30.613570117469862,96.62767042024058" fill="none" instance-id="5" semantic-id="30" stroke="rgb(178,88,0)" stroke-width="0.1"/>
  <path d="M 30.613570117469862,96.62767042024058 L 30.913637642018784,97.02925012343971" fill="none" instance-id="5" semantic-id="30" stroke="rgb(178,88,0)" stroke-width="0.1"/>
  <path d="M 30.913637642018784,97.02925012343971 L 31.22367581193373,97.42318299907501" fill="none" instance-id="5" semantic-id="30" stroke="rgb(178,88,0)" stroke-width="0.1"/>
  <path d="M 31.22367581193373,97.42318299907501 L 31.543489840481243,97.80922155214276" fill="none" instance-id="5" semantic-id="30" stroke="rgb(178,88,0)" stroke-width="0.1"/>
  <path d="M 31.543489840481243,97.80922155214276 L 31.87287879907933,98.18712324738127" fill="none" instance-id="5" semantic-id="30" stroke="rgb(178,88,0)" stroke-width="0.1"/>
  <path d="M 31.87287879907933,98.18712324738127 L 32.21163574353375,98.55665066164764" fill="none" instance-id="5" semantic-id="30" stroke="rgb(178,88,0)" stroke-width="0.1"/>
  <path d="M 32.21163574353375,98.55665066164764 L 32.55954784405458,98.91757163308279" fill="none" instance-id="5" semantic-id="30" stroke="rgb(178,88,0)" stroke-width="0.1"/>
  <path d="M 32.55954784405458,98.91757163308279 L 32.91639651896969,99.2696594069713" fill="none" instance-id="5" semantic-id="30" stroke="rgb(178,88,0)" stroke-width="0.1"/>
  <path d="M 32.91639651896969,99.2696594069713 L 33.2819575720531,99.61269277820367" fill="none" instance-id="5" semantic-id="30" stroke="rgb(178,88,0)" stroke-width="0.1"/>
  <path d="M 33.2819575720531,99.61269277820367 L 33.65600133337932,99.9464562302523" fill="none" instance-id="5" semantic-id="30" stroke="rgb(178,88,0)" stroke-width="0.1"/>
  <path d="M 59.861884052269374,99.98942089984638 L 60.237020213358164,99.65688573185054" fill="none" instance-id="5" semantic-id="30" stroke="rgb(178,88,0)" stroke-width="0.1"/>
  <path d="M 60.237020213358164,99.65688573185054 L 60.60370410787834,99.31505287969907" fill="none" instance-id="5" semantic-id="30" stroke="rgb(178,88,0)" stroke-width="0.1"/>
  <path d="M 60.60370410787834,99.31505287969907 L 60.9617053604602,98.9641371056731" fill="none" instance-id="5" semantic-id="30" stroke="rgb(178,88,0)" stroke-width="0.1"/>
  <path d="M 60.9617053604602,98.9641371056731 L 61.31079905075126,98.60435887855337" fill="none" instance-id="5" semantic-id="30" stroke="rgb(178,88,0)" stroke-width="0.1"/>
  <path d="M 61.31079905075126,98.60435887855337 L 61.65076585472582,98.23594423510684" fill="none" instance-id="5" semantic-id="30" stroke="rgb(178,88,0)" stroke-width="0.1"/>
  <path d="M 61.65076585472582,98.23594423510684 L 61.981392182479,97.8591246380754" fill="none" instance-id="5" semantic-id="30" stroke="rgb(178,88,0)" stroke-width="0.1"/>
  <path d="M 61.981392182479,97.8591246380754 L 62.30247031241845,97.47413683075547" fill="none" instance-id="5" semantic-id="30" stroke="rgb(178,88,0)" stroke-width="0.1"/>
  <path d="M 62.30247031241845,97.47413683075547 L 62.61379852176913,97.08122268825994" fill="none" instance-id="5" semantic-id="30" stroke="rgb(178,88,0)" stroke-width="0.1"/>
  <path d="M 62.61379852176913,97.08122268825994 L 62.915181213308415,96.68062906555608" fill="none" instance-id="5" semantic-id="30" stroke="rgb(178,88,0)" stroke-width="0.1"/>
  <path d="M 62.915181213308415,96.68062906555608 L 63.2064290382541,96.27260764237474" fill="none" instance-id="5" semantic-id="30" stroke="rgb(178,88,0)" stroke-width="0.1"/>
  <path d="M 63.2064290382541,96.27260764237474 L 63.48735901522525,95.85741476508824" fill="none" instance-id="5" semantic-id="30" stroke="rgb(178,88,0)" stroke-width="0.1"/>
  <path d="M 63.48735901522525,95.85741476508824 L 63.75779464520417,95.4353112856565" fill="none" instance-id="5" semantic-id="30" stroke="rgb(178,88,0)" stroke-width="0.1"/>
  <path d="M 63.75779464520417,95.4353112856565 L 64.01756602242403,95.00656239774221" fill="none" instance-id="5" semantic-id="30" stroke="rgb(178,88,0)" stroke-width="0.1"/>
  <path d="M 64.01756602242403,95.00656239774221 L 64.26650994111606,94.57143747009869" fill="none" instance-id="5" semantic-id="30" stroke="rgb(178,88,0)" stroke-width="0.1"/>
  <path d="M 64.26650994111606,94.57143747009869 L 64.50446999804501,94.13020987733415" fill="none" instance-id="5" semantic-id="30" stroke="rgb(178,88,0)" stroke-width="0.1"/>
  <path d="M 64.50446999804501,94.13020987733415 L 64.73129669077366,93.68315682815958" fill="none" instance-id="5" semantic-id="30" stroke="rgb(178,88,0)" stroke-width="0.1"/>
  <path d="M 64.73129669077366,93.68315682815958 L 64.94684751158889,93.23055919122766" fill="none" instance-id="5" semantic-id="30" stroke="rgb(178,88,0)" stroke-width="0.1"/>
  <path d="M 64.94684751158889,93.23055919122766 L 65.1509870370354,92.77270131867226" fill="none" instance-id="5" semantic-id="30" stroke="rgb(178,88,0)" stroke-width="0.1"/>
  <path d="M 65.1509870370354,92.77270131867226 L 65.34358701299755,92.3098708674595" fill="none" instance-id="5" semantic-id="30" stroke="rgb(178,88,0)" stroke-width="0.1"/>
  <path d="M 65.34358701299755,92.3098708674595 L 65.52452643527727,91.84235861866213" fill="none" instance-id="5" semantic-id="30" stroke="rgb(178,88,0)" stroke-width="0.1"/>
  <path d="M 65.52452643527727,91.84235861866213 L 65.69369162561668,91.37045829477171" fill="none" instance-id="5" semantic-id="30" stroke="rgb(178,88,0)" stroke-width="0.1"/>
  <path d="M 65.69369162561668,91.37045829477171 L 65.85097630311884,90.89446637516221" fill="none" instance-id="5" semantic-id="30" stroke="rgb(178,88,0)" stroke-width="0.1"/>
  <path d="M 65.85097630311884,90.89446637516221 L 65.99628165102013,90.41468190982206" fill="none" instance-id="5" semantic-id="30" stroke="rgb(178,88,0)" stroke-width="0.1"/>
  <path d="M 65.99628165102013,90.41468190982206 L 66.12951637877381,89.93140633147064" fill="none" instance-id="5" semantic-id="30" stroke="rgb(178,88,0)" stroke-width="0.1"/>
  <path d="M 66.12951637877381,89.93140633147064 L 66.25059677940465,89.44494326617837" fill="none" instance-id="5" semantic-id="30" stroke="rgb(178,88,0)" stroke-width="0.1"/>
  <path d="M 66.25059677940465,89.44494326617837 L 66.35944678209967,88.95559834260831" fill="none" instance-id="5" semantic-id="30" stroke="rgb(178,88,0)" stroke-width="0.1"/>
  <path d="M 66.35944678209967,88.95559834260831 L 66.45599800000002,88.46367899999996" fill="none" instance-id="5" semantic-id="30" stroke="rgb(178,88,0)" stroke-width="0.1"/>
  <path d="M 74.84099800000001,41.60567899999995 A 20.0,20.0 0.0 0,0 35.46699799999999,34.560678999999965" fill="none" instance-id="5" semantic-id="30" stroke="rgb(178,88,0)" stroke-width="0.1"/>
 </g>
 <g id="layerWALL" inkscape:groupmode="layer" inkscape:label="WALL">
  <path d="M 4.426998000000026,39.77167899999995 L 31.630997999999977,44.63967899999997" fill="none" instance-id="-1" semantic-id="1" stroke="rgb(178,178,0)" stroke-width="0.1"/>
  <path d="M 4.0739979999999605,41.74067899999997 L 31.278998,46.60867899999997" fill="none" instance-id="-1" semantic-id="1" stroke="rgb(178,178,0)" stroke-width="0.1"/>
  <path d="M 11.078997999999956,19.62867899999995 L 35.33099800000002,23.968678999999952" fill="none" instance-id="-1" semantic-id="1" stroke="rgb(178,178,0)" stroke-width="0.1"/>
  <path d="M 6.789997999999969,20.89267899999996 L 34.97799799999996,25.93667899999997" fill="none" instance-id="-1" semantic-id="1" stroke="rgb(178,178,0)" stroke-width="0.1"/>
  <path d="M 0.0,83.16947737652436 L 0.6989979999999605,83.29467899999997" fill="none" instance-id="-1" semantic-id="1" stroke="rgb(178,178,0)" stroke-width="0.1"/>
  <path d="M 0.0,85.20061431707313 L 1.3309980000000223,85.43867899999995" fill="none" instance-id="-1" semantic-id="1" stroke="rgb(178,178,0)" stroke-width="0.1"/>
  <path d="M 0.0,64.88348881165916 L 27.13999799999999,69.73967899999997" fill="none" instance-id="-1" semantic-id="1" stroke="rgb(178,178,0)" stroke-width="0.1"/>
  <path d="M 0.0,66.91449067939712 L 26.78699800000004,71.70867899999996" fill="none" instance-id="-1" semantic-id="1" stroke="rgb(178,178,0)" stroke-width="0.1"/>
  <path d="M 23.616997999999967,89.42667899999995 L 22.030997999999954,98.28767899999997" fill="none" instance-id="-1" semantic-id="1" stroke="rgb(178,178,0)" stroke-width="0.1"/>
  <path d="M 22.030997999999954,98.28767899999997 L 23.999998000000005,98.63967899999997" fill="none" instance-id="-1" semantic-id="1" stroke="rgb(178,178,0)" stroke-width="0.1"/>
  <path d="M 23.999998000000005,98.63967899999997 L 25.760997999999972,88.79467899999997" fill="none" instance-id="-1" semantic-id="1" stroke="rgb(178,178,0)" stroke-width="0.1"/>
  <path d="M 27.13999799999999,69.73967899999997 L 31.278998,46.60867899999997" fill="none" instance-id="-1" semantic-id="1" stroke="rgb(178,178,0)" stroke-width="0.1"/>
  <path d="M 28.93199800000002,71.07667899999996 L 33.40499799999998,46.08167899999995" fill="none" instance-id="-1" semantic-id="1" stroke="rgb(178,178,0)" stroke-width="0.1"/>
  <path d="M 23.968997999999942,87.45867899999996 L 26.78699800000004,71.70867899999996" fill="none" instance-id="-1" semantic-id="1" stroke="rgb(178,178,0)" stroke-width="0.1"/>
  <path d="M 25.760997999999972,88.79467899999997 L 28.93199800000002,71.07667899999996" fill="none" instance-id="-1" semantic-id="1" stroke="rgb(178,178,0)" stroke-width="0.1"/>
  <path d="M 37.61999800000001,11.171678999999955 L 37.70899799999995,10.67867899999996" fill="none" instance-id="-1" semantic-id="1" stroke="rgb(178,178,0)" stroke-width="0.1"/>
  <path d="M 39.58899799999995,11.523678999999959 L 39.94299799999999,9.548678999999964" fill="none" instance-id="-1" semantic-id="1" stroke="rgb(178,178,0)" stroke-width="0.1"/>
  <path d="M 35.33099800000002,23.968678999999952 L 37.620997999999986,11.171678999999955" fill="none" instance-id="-1" semantic-id="1" stroke="rgb(178,178,0)" stroke-width="0.1"/>
  <path d="M 37.10399799999993,25.41067899999996 L 39.58899799999995,11.524678999999963" fill="none" instance-id="-1" semantic-id="1" stroke="rgb(178,178,0)" stroke-width="0.1"/>
  <path d="M 40.169997999999964,8.074678999999975 L 49.57099800000003,9.756678999999963" fill="none" instance-id="-1" semantic-id="1" stroke="rgb(178,178,0)" stroke-width="0.1"/>
  <path d="M 49.57099800000003,9.756678999999963 L 49.92299800000001,7.787678999999969" fill="none" instance-id="-1" semantic-id="1" stroke="rgb(178,178,0)" stroke-width="0.1"/>
  <path d="M 49.92299800000001,7.787678999999969 L 40.52199799999994,6.105678999999952" fill="none" instance-id="-1" semantic-id="1" stroke="rgb(178,178,0)" stroke-width="0.1"/>
  <path d="M 74.98199799999998,12.272678999999954 L 69.60999800000002,11.31167899999997" fill="none" instance-id="-1" semantic-id="1" stroke="rgb(178,178,0)" stroke-width="0.1"/>
  <path d="M 69.60999800000002,11.31167899999997 L 69.25799799999993,13.279678999999959" fill="none" instance-id="-1" semantic-id="1" stroke="rgb(178,178,0)" stroke-width="0.1"/>
  <path d="M 69.25799799999993,13.279678999999959 L 74.629998,14.241678999999948" fill="none" instance-id="-1" semantic-id="1" stroke="rgb(178,178,0)" stroke-width="0.1"/>
  <path d="M 31.630997999999977,44.63967899999997 L 34.97799799999996,25.93667899999997" fill="none" instance-id="-1" semantic-id="1" stroke="rgb(178,178,0)" stroke-width="0.1"/>
  <path d="M 33.40499799999998,46.08167899999995 L 37.10399799999993,25.41067899999996" fill="none" instance-id="-1" semantic-id="1" stroke="rgb(178,178,0)" stroke-width="0.1"/>
  <path d="M 82.24899800000003,22.713678999999956 L 68.41625971980056,100.0" fill="none" instance-id="-1" semantic-id="1" stroke="rgb(178,178,0)" stroke-width="0.1"/>
  <path d="M 80.27999799999998,22.361678999999953 L 66.38491271035696,100.0" fill="none" instance-id="-1" semantic-id="1" stroke="rgb(178,178,0)" stroke-width="0.1"/>
  <path d="M 4.426998000000026,39.77167899999995 L 5.14799800000003,35.73867899999996" fill="none" instance-id="-1" semantic-id="1" stroke="rgb(178,178,0)" stroke-width="0.1"/>
  <path d="M 5.14799800000003,35.73867899999996 L 3.179997999999955,35.38567899999995" fill="none" instance-id="-1" semantic-id="1" stroke="rgb(178,178,0)" stroke-width="0.1"/>
  <path d="M 3.179997999999955,35.38567899999995 L 2.2629980000000387,40.50867899999997" fill="none" instance-id="-1" semantic-id="1" stroke="rgb(178,178,0)" stroke-width="0.1"/>
  <path d="M 5.804997999999955,20.715678999999966 L 4.764997999999991,26.526678999999973" fill="none" instance-id="-1" semantic-id="1" stroke="rgb(178,178,0)" stroke-width="0.1"/>
  <path d="M 4.764997999999991,26.526678999999973 L 6.733997999999929,26.879678999999953" fill="none" instance-id="-1" semantic-id="1" stroke="rgb(178,178,0)" stroke-width="0.1"/>
  <path d="M 6.733997999999929,26.879678999999953 L 7.773998000000006,21.06767899999997" fill="none" instance-id="-1" semantic-id="1" stroke="rgb(178,178,0)" stroke-width="0.1"/>
  <path d="M 0.0,64.50302718304158 L 0.676998000000026,60.721678999999966" fill="none" instance-id="-1" semantic-id="1" stroke="rgb(178,178,0)" stroke-width="0.1"/>
  <path d="M 0.676998000000026,60.721678999999966 L 0.0,60.600651424580974" fill="none" instance-id="-1" semantic-id="1" stroke="rgb(178,178,0)" stroke-width="0.1"/>
  <path d="M 2.2629980000000387,40.50867899999997 L 0.29399799999998777,51.51067899999995" fill="none" instance-id="-1" semantic-id="1" stroke="rgb(178,178,0)" stroke-width="0.1"/>
  <path d="M 0.29399799999998777,51.51067899999995 L 2.2619979999999487,51.86267899999996" fill="none" instance-id="-1" semantic-id="1" stroke="rgb(178,178,0)" stroke-width="0.1"/>
  <path d="M 2.2619979999999487,51.86267899999996 L 4.0739979999999605,41.74067899999997" fill="none" instance-id="-1" semantic-id="1" stroke="rgb(178,178,0)" stroke-width="0.1"/>
  <path d="M 11.546013073448876,0.0 L 11.386997999999949,0.8886789999999678" fill="none" instance-id="-1" semantic-id="1" stroke="rgb(178,178,0)" stroke-width="0.1"/>
  <path d="M 9.513864279306063,0.0 L 9.417998000000011,0.5356789999999592" fill="none" instance-id="-1" semantic-id="1" stroke="rgb(178,178,0)" stroke-width="0.1"/>
  <path d="M 56.13799800000004,38.25967899999995 L 47.752997999999934,85.11567899999997" fill="none" instance-id="-1" semantic-id="1" stroke="rgb(178,178,0)" stroke-width="0.1"/>
  <path d="M 54.169997999999964,37.90767899999997 L 45.78499799999997,84.76367899999997" fill="none" instance-id="-1" semantic-id="1" stroke="rgb(178,178,0)" stroke-width="0.1"/>
  <path d="M 56.13799800000004,38.25967899999995 L 54.169997999999964,37.90767899999997" fill="none" instance-id="-1" semantic-id="1" stroke="rgb(178,178,0)" stroke-width="0.1"/>
  <path d="M 47.752997999999934,85.11567899999997 L 45.78499799999997,84.76367899999997" fill="none" instance-id="-1" semantic-id="1" stroke="rgb(178,178,0)" stroke-width="0.1"/>
  <path d="M 80.27999799999998,22.361678999999953 L 66.38491271035696,100.0" fill="none" instance-id="-1" semantic-id="1" stroke="rgb(178,178,0)" stroke-width="0.1"/>
  <path d="M 78.31099800000004,22.00967899999995 L 64.35291456770074,100.0" fill="none" instance-id="-1" semantic-id="1" stroke="rgb(178,178,0)" stroke-width="0.1"/>
  <path d="M 0.6989979999999605,83.29467899999997 L 1.7559979999999769,77.38667899999996" fill="none" instance-id="-1" semantic-id="1" stroke="rgb(178,178,0)" stroke-width="0.1"/>
  <path d="M 2.666998000000035,83.64667899999995 L 4.076998000000003,75.76967899999997" fill="none" instance-id="-1" semantic-id="1" stroke="rgb(178,178,0)" stroke-width="0.1"/>
  <path d="M 0.0,75.03976929708668 L 4.076998000000003,75.76967899999997" fill="none" instance-id="-1" semantic-id="1" stroke="rgb(178,178,0)" stroke-width="0.1"/>
  <path d="M 0.0,77.0721519192073 L 1.7559979999999769,77.38667899999996" fill="none" instance-id="-1" semantic-id="1" stroke="rgb(178,178,0)" stroke-width="0.1"/>
  <path d="M 2.666998000000035,83.64667899999995 L 23.968997999999942,87.45867899999996" fill="none" instance-id="-1" semantic-id="1" stroke="rgb(178,178,0)" stroke-width="0.1"/>
  <path d="M 1.3309980000000223,85.43867899999995 L 23.616997999999967,89.42667899999995" fill="none" instance-id="-1" semantic-id="1" stroke="rgb(178,178,0)" stroke-width="0.1"/>
 </g>
 <g id="layerWINDOW" inkscape:groupmode="layer" inkscape:label="WINDOW">
  <path d="M 5.14799800000003,35.73867899999996 L 6.733997999999929,26.879678999999953" fill="none" instance-id="6" semantic-id="3" stroke="rgb(0,178,0)" stroke-width="0.1"/>
  <path d="M 0.676998000000026,60.721678999999966 L 2.2619979999999487,51.86267899999996" fill="none" stroke="rgb(0,178,0)" stroke-width="0.1"/>
  <path d="M 4.163997999999992,35.562678999999974 L 4.242997999999943,35.11967899999996" fill="none" instance-id="6" semantic-id="3" stroke="rgb(0,178,0)" stroke-width="0.1"/>
  <path d="M 4.163997999999992,35.562678999999974 L 0.0,34.81742073327155" fill="none" instance-id="6" semantic-id="3" stroke="rgb(0,178,0)" stroke-width="0.1"/>
  <path d="M 4.242997999999943,35.11967899999996 L 0.0,34.36019365694105" fill="none" instance-id="6" semantic-id="3" stroke="rgb(0,178,0)" stroke-width="0.1"/>
  <path d="M 5.749998000000005,26.70267899999996 L 5.253384952246279,26.62835038282938" fill="none" instance-id="6" semantic-id="3" stroke="rgb(0,178,0)" stroke-width="0.1"/>
  <path d="M 5.253384952246279,26.62835038282938 L 4.753333344963494,26.582550245454314" fill="none" instance-id="6" semantic-id="3" stroke="rgb(0,178,0)" stroke-width="0.1"/>
  <path d="M 4.753333344963494,26.582550245454314 L 4.251480666730345,26.565428566798488" fill="none" instance-id="6" semantic-id="3" stroke="rgb(0,178,0)" stroke-width="0.1"/>
  <path d="M 4.251480666730345,26.565428566798488 L 3.749470303983344,26.57704141418145" fill="none" instance-id="6" semantic-id="3" stroke="rgb(0,178,0)" stroke-width="0.1"/>
  <path d="M 3.749470303983344,26.57704141418145 L 3.2489461595187095,26.617350759718306" fill="none" instance-id="6" semantic-id="3" stroke="rgb(0,178,0)" stroke-width="0.1"/>
  <path d="M 3.2489461595187095,26.617350759718306 L 2.7515472693039555,26.686224604847382" fill="none" instance-id="6" semantic-id="3" stroke="rgb(0,178,0)" stroke-width="0.1"/>
  <path d="M 2.7515472693039555,26.686224604847382 L 2.258902435226787,26.78343741257777" fill="none" instance-id="6" semantic-id="3" stroke="rgb(0,178,0)" stroke-width="0.1"/>
  <path d="M 2.258902435226787,26.78343741257777 L 1.772624891356486,26.90867084604176" fill="none" instance-id="6" semantic-id="3" stroke="rgb(0,178,0)" stroke-width="0.1"/>
  <path d="M 1.772624891356486,26.90867084604176 L 1.2943070211844088,27.061514810933062" fill="none" instance-id="6" semantic-id="3" stroke="rgb(0,178,0)" stroke-width="0.1"/>
  <path d="M 1.2943070211844088,27.061514810933062 L 0.825515143142411,27.241468798417742" fill="none" instance-id="6" semantic-id="3" stroke="rgb(0,178,0)" stroke-width="0.1"/>
  <path d="M 0.825515143142411,27.241468798417742 L 0.36778438147587167,27.44794352412009" fill="none" instance-id="6" semantic-id="3" stroke="rgb(0,178,0)" stroke-width="0.1"/>
  <path d="M 1.277998000000025,51.68667899999997 L 0.7814191671649269,51.61241095587829" fill="none" stroke="rgb(0,178,0)" stroke-width="0.1"/>
  <path d="M 0.7814191671649269,51.61241095587829 L 0.28140540682898063,51.56666689536604" fill="none" stroke="rgb(0,178,0)" stroke-width="0.1"/>
 </g>
 <g id="layerWINDOW_TEXT" inkscape:groupmode="layer" inkscape:label="WINDOW_TEXT">
  <text fill="rgb(178,0,178)" font-family="Noto Sans CJK SC" font-size="2" transform="rotate(-259.853,8.895997999999963,25.356678999999957)" x="8.895997999999963" y="25.356678999999957">
   FM
  </text>
  <text fill="rgb(178,0,178)" font-family="Noto Sans CJK SC" font-size="2" transform="rotate(-259.853,8.246997999999962,28.982678999999962)" x="8.246997999999962" y="28.982678999999962">
   丙
  </text>
  <text fill="rgb(178,0,178)" font-family="Noto Sans CJK SC" font-size="2" transform="rotate(-259.853,7.64799800000003,32.33167899999995)" x="7.64799800000003" y="32.33167899999995">
   0923
  </text>
  <text fill="rgb(178,0,178)" font-family="Noto Sans CJK SC" font-size="2" transform="rotate(-259.853,4.42499799999996,50.33967899999996)" x="4.42499799999996" y="50.33967899999996">
   FM
  </text>
  <text fill="rgb(178,0,178)" font-family="Noto Sans CJK SC" font-size="2" transform="rotate(-259.853,3.7759979999999587,53.96667899999997)" x="3.7759979999999587" y="53.96667899999997">
   丙
  </text>
  <text fill="rgb(178,0,178)" font-family="Noto Sans CJK SC" font-size="2" transform="rotate(-259.853,3.176998000000026,57.314678999999956)" x="3.176998000000026" y="57.314678999999956">
   0923
  </text>
 </g>
 <g id="layerm-洞口" inkscape:groupmode="layer" inkscape:label="m-洞口">
  <path d="M 0.0,77.07204248603347 L 1.759997999999996,77.38667899999996" fill="none" stroke="rgb(160,107,53)" stroke-width="0.1"/>
  <path d="M 1.759997999999996,77.38667899999996 L 0.7029979999999796,83.29267899999996" fill="none" stroke="rgb(160,107,53)" stroke-width="0.1"/>
  <path d="M 0.7029979999999796,83.29267899999996 L 0.6999979999999368,78.49067899999997" fill="none" stroke="rgb(160,107,53)" stroke-width="0.1"/>
  <path d="M 0.6999979999999368,78.49067899999997 L 0.0,78.05093043015984" fill="none" stroke="rgb(160,107,53)" stroke-width="0.1"/>
  <path d="M 0.0,83.16700337988823 L 0.7029979999999796,83.29267899999996" fill="none" stroke="rgb(160,107,53)" stroke-width="0.1"/>
  <path d="M 33.30699800000002,23.71467899999996 L 35.703997999999956,10.32367899999997" fill="none" stroke="rgb(160,107,53)" stroke-width="0.1"/>
  <path d="M 35.703997999999956,10.32367899999997 L 13.44899799999996,6.340678999999966" fill="none" stroke="rgb(160,107,53)" stroke-width="0.1"/>
  <path d="M 13.44899799999996,6.340678999999966 L 11.071998000000008,19.626678999999967" fill="none" stroke="rgb(160,107,53)" stroke-width="0.1"/>
  <path d="M 11.071998000000008,19.626678999999967 L 33.32599800000003,23.608678999999967" fill="none" stroke="rgb(160,107,53)" stroke-width="0.1"/>
  <path d="M 21.96299799999997,87.09967899999995 L 24.78199799999993,71.34967899999995" fill="none" stroke="rgb(160,107,53)" stroke-width="0.1"/>
  <path d="M 24.78199799999993,71.34967899999995 L 0.0,66.91494355601853" fill="none" stroke="rgb(160,107,53)" stroke-width="0.1"/>
  <path d="M 0.0,83.16924726551832 L 21.96299799999997,87.09967899999995" fill="none" stroke="rgb(160,107,53)" stroke-width="0.1"/>
  <path d="M 11.071998000000008,19.626678999999967 L 14.639997999999991,9.55367899999996" fill="none" stroke="rgb(160,107,53)" stroke-width="0.1"/>
  <path d="M 14.639997999999991,9.55367899999996 L 35.703997999999956,10.32367899999997" fill="none" stroke="rgb(160,107,53)" stroke-width="0.1"/>
  <path d="M 0.0,73.31904861805415 L 1.4599980000000414,69.13767899999996" fill="none" stroke="rgb(160,107,53)" stroke-width="0.1"/>
  <path d="M 1.4599980000000414,69.13767899999996 L 24.78199799999993,71.34967899999995" fill="none" stroke="rgb(160,107,53)" stroke-width="0.1"/>
 </g>
</svg>