<?xml version="1.0" encoding="utf-8"?>
<svg style="background-color: #000;" version="1.1" viewBox="0 0 100.0 100.0" xmlns="http://www.w3.org/2000/svg" xmlns:inkscape="http://www.inkscape.org/namespaces/inkscape">
 <g id="layer0" inkscape:groupmode="layer" inkscape:label="0">
  <text fill="rgb(0,0,0)" font-family="Noto Sans CJK SC" font-size="2" transform="rotate(-350.0,27.74499800000001,21.300678999999946)" x="27.74499800000001" y="21.300678999999946">
   正压
  </text>
 </g>
 <g id="layer0-石材边线" inkscape:groupmode="layer" inkscape:label="0-石材边线">
  <path d="M 56.85631350862354,100.0 L 74.75393019280739,0.0" fill="none" stroke="rgb(255,73,12)" stroke-width="0.1"/>
 </g>
 <g id="layer0-结构边线" inkscape:groupmode="layer" inkscape:label="0-结构边线">
  <path d="M 54.36999800000001,17.44067899999999 L 63.22899799999993,19.02567899999997" fill="none" stroke="rgb(178,0,178)" stroke-width="0.1"/>
  <path d="M 63.22899799999993,19.02567899999997 L 64.81499799999995,10.166678999999988" fill="none" stroke="rgb(178,0,178)" stroke-width="0.1"/>
  <path d="M 55.95499799999993,8.580678999999975 L 64.81499799999995,10.166678999999988" fill="none" stroke="rgb(178,0,178)" stroke-width="0.1"/>
  <path d="M 54.36999800000001,17.44067899999999 L 55.95499799999993,8.580678999999975" fill="none" stroke="rgb(178,0,178)" stroke-width="0.1"/>
 </g>
 <g id="layer0-金属格栅" inkscape:groupmode="layer" inkscape:label="0-金属格栅">
  <path d="M 49.777998000000025,94.14067899999998 L 52.730998,94.66867899999994" fill="none" stroke="rgb(73,73,73)" stroke-width="0.1"/>
  <path d="M 52.730998,94.66867899999994 L 52.642998000000034,95.16167899999994" fill="none" stroke="rgb(73,73,73)" stroke-width="0.1"/>
  <path d="M 52.642998000000034,95.16167899999994 L 49.689997999999946,94.63267899999994" fill="none" stroke="rgb(73,73,73)" stroke-width="0.1"/>
  <path d="M 49.689997999999946,94.63267899999994 L 49.777998000000025,94.14067899999998" fill="none" stroke="rgb(73,73,73)" stroke-width="0.1"/>
  <path d="M 56.912998000000016,54.27367899999996 L 59.86599799999999,54.802678999999955" fill="none" stroke="rgb(73,73,73)" stroke-width="0.1"/>
  <path d="M 59.86599799999999,54.802678999999955 L 59.777998000000025,55.294678999999974" fill="none" stroke="rgb(73,73,73)" stroke-width="0.1"/>
  <path d="M 59.777998000000025,55.294678999999974 L 56.82499799999994,54.766678999999954" fill="none" stroke="rgb(73,73,73)" stroke-width="0.1"/>
  <path d="M 56.82499799999994,54.766678999999954 L 56.912998000000016,54.27367899999996" fill="none" stroke="rgb(73,73,73)" stroke-width="0.1"/>
  <path d="M 59.290997999999945,40.98567899999995 L 62.24499800000001,41.51367899999997" fill="none" stroke="rgb(73,73,73)" stroke-width="0.1"/>
  <path d="M 62.24499800000001,41.51367899999997 L 62.155997999999954,42.005678999999986" fill="none" stroke="rgb(73,73,73)" stroke-width="0.1"/>
  <path d="M 62.155997999999954,42.005678999999986 L 59.20299799999998,41.477678999999966" fill="none" stroke="rgb(73,73,73)" stroke-width="0.1"/>
  <path d="M 59.20299799999998,41.477678999999966 L 59.290997999999945,40.98567899999995" fill="none" stroke="rgb(73,73,73)" stroke-width="0.1"/>
  <path d="M 61.669997999999964,27.69667899999996 L 64.62299799999994,28.22467899999998" fill="none" stroke="rgb(73,73,73)" stroke-width="0.1"/>
  <path d="M 64.62299799999994,28.22467899999998 L 64.53499799999997,28.716678999999942" fill="none" stroke="rgb(73,73,73)" stroke-width="0.1"/>
  <path d="M 64.53499799999997,28.716678999999942 L 61.581998,28.18867899999998" fill="none" stroke="rgb(73,73,73)" stroke-width="0.1"/>
  <path d="M 61.581998,28.18867899999998 L 61.669997999999964,27.69667899999996" fill="none" stroke="rgb(73,73,73)" stroke-width="0.1"/>
  <path d="M 64.047998,14.407678999999973 L 67.00099799999998,14.935678999999936" fill="none" stroke="rgb(73,73,73)" stroke-width="0.1"/>
  <path d="M 67.00099799999998,14.935678999999936 L 66.91299800000002,15.428678999999988" fill="none" stroke="rgb(73,73,73)" stroke-width="0.1"/>
  <path d="M 66.91299800000002,15.428678999999988 L 63.95999800000004,14.899678999999935" fill="none" stroke="rgb(73,73,73)" stroke-width="0.1"/>
  <path d="M 63.95999800000004,14.899678999999935 L 64.047998,14.407678999999973" fill="none" stroke="rgb(73,73,73)" stroke-width="0.1"/>
  <path d="M 54.541998000000035,67.56367899999998 L 57.49499800000001,68.09267899999998" fill="none" stroke="rgb(73,73,73)" stroke-width="0.1"/>
  <path d="M 57.49499800000001,68.09267899999998 L 57.40699799999993,68.58467899999994" fill="none" stroke="rgb(73,73,73)" stroke-width="0.1"/>
  <path d="M 57.40699799999993,68.58467899999994 L 54.453997999999956,68.05667899999997" fill="none" stroke="rgb(73,73,73)" stroke-width="0.1"/>
  <path d="M 54.453997999999956,68.05667899999997 L 54.541998000000035,67.56367899999998" fill="none" stroke="rgb(73,73,73)" stroke-width="0.1"/>
  <path d="M 52.155997999999954,80.85167899999993 L 55.10899799999993,81.38067899999999" fill="none" stroke="rgb(73,73,73)" stroke-width="0.1"/>
  <path d="M 55.10899799999993,81.38067899999999 L 55.02099799999996,81.87267899999995" fill="none" stroke="rgb(73,73,73)" stroke-width="0.1"/>
  <path d="M 55.02099799999996,81.87267899999995 L 52.06799799999999,81.34367899999995" fill="none" stroke="rgb(73,73,73)" stroke-width="0.1"/>
  <path d="M 52.06799799999999,81.34367899999995 L 52.155997999999954,80.85167899999993" fill="none" stroke="rgb(73,73,73)" stroke-width="0.1"/>
 </g>
 <g id="layerAXIS" inkscape:groupmode="layer" inkscape:label="AXIS">
  <path d="M 72.28299800000002,16.074678999999946 L 100.0,21.03550708137209" fill="none" stroke="rgb(0,178,0)" stroke-width="0.1"/>
  <path d="M 72.28299800000002,16.074678999999946 L 100.0,21.03550708137209" fill="none" stroke="rgb(0,178,0)" stroke-width="0.1"/>
 </g>
 <g id="layerCOLUMN" inkscape:groupmode="layer" inkscape:label="COLUMN">
  <path d="M 54.36999800000001,17.44067899999999 L 63.22899799999993,19.02567899999997" fill="none" stroke="rgb(178,178,0)" stroke-width="0.1"/>
  <path d="M 63.22899799999993,19.02567899999997 L 64.81499799999995,10.166678999999988" fill="none" stroke="rgb(178,178,0)" stroke-width="0.1"/>
  <path d="M 64.81499799999995,10.166678999999988 L 55.95499799999993,8.580678999999975" fill="none" stroke="rgb(178,178,0)" stroke-width="0.1"/>
  <path d="M 55.95499799999993,8.580678999999975 L 54.36999800000001,17.44067899999999" fill="none" stroke="rgb(178,178,0)" stroke-width="0.1"/>
 </g>
 <g id="layerCURTWALL" inkscape:groupmode="layer" inkscape:label="CURTWALL">
  <path d="M 51.77673850035512,100.0 L 69.67431189932051,0.0" fill="none" stroke="rgb(0,178,178)" stroke-width="0.1"/>
  <path d="M 50.761238771173,100.0 L 68.65881217013839,0.0" fill="none" stroke="rgb(0,178,178)" stroke-width="0.1"/>
 </g>
 <g id="layerDOOR_FIRE" inkscape:groupmode="layer" inkscape:label="DOOR_FIRE">
  <path d="M 0.0,1.1180359275815022 L 0.5289980000000014,1.21267899999998" fill="none" stroke="rgb(0,178,178)" stroke-width="0.1"/>
  <path d="M 0.0,1.6267340626237115 L 0.440998000000036,1.705678999999975" fill="none" stroke="rgb(0,178,178)" stroke-width="0.1"/>
  <path d="M 0.5289980000000014,1.21267899999998 L 0.440998000000036,1.705678999999975" fill="none" stroke="rgb(0,178,178)" stroke-width="0.1"/>
  <path d="M 19.579997999999932,7.65867899999995 L 29.177998000000002,9.375678999999934" fill="none" stroke="rgb(0,178,178)" stroke-width="0.1"/>
  <path d="M 19.491997999999967,8.150678999999968 L 29.089998000000037,9.867678999999953" fill="none" stroke="rgb(0,178,178)" stroke-width="0.1"/>
  <path d="M 29.177998000000002,9.375678999999934 L 29.089998000000037,9.867678999999953" fill="none" stroke="rgb(0,178,178)" stroke-width="0.1"/>
  <path d="M 19.491997999999967,8.150678999999968 L 19.579997999999932,7.65867899999995" fill="none" stroke="rgb(0,178,178)" stroke-width="0.1"/>
  <path d="M 0.5259979999999587,1.21267899999998 L 0.5889720393082598,0.7144987421792166" fill="none" stroke="rgb(0,178,178)" stroke-width="0.1"/>
  <path d="M 0.5889720393082598,0.7144987421792166 L 0.6262137790722591,0.21373697074636766" fill="none" stroke="rgb(0,178,178)" stroke-width="0.1"/>
  <path d="M 29.17499799999996,9.375678999999934 L 29.237972039308374,8.877498742179114" fill="none" stroke="rgb(0,178,178)" stroke-width="0.1"/>
  <path d="M 29.237972039308374,8.877498742179114 L 29.275213779072374,8.376736970746265" fill="none" stroke="rgb(0,178,178)" stroke-width="0.1"/>
  <path d="M 29.275213779072374,8.376736970746265 L 29.28662443713756,7.87472193532227" fill="none" stroke="rgb(0,178,178)" stroke-width="0.1"/>
  <path d="M 29.28662443713756,7.87472193532227 L 29.272173747211355,7.3727852097583195" fill="none" stroke="rgb(0,178,178)" stroke-width="0.1"/>
  <path d="M 29.272173747211355,7.3727852097583195 L 29.23190003914351,6.872258160191848" fill="none" stroke="rgb(0,178,178)" stroke-width="0.1"/>
  <path d="M 29.23190003914351,6.872258160191848 L 29.16591013725747,6.374468413653915" fill="none" stroke="rgb(0,178,178)" stroke-width="0.1"/>
  <path d="M 29.16591013725747,6.374468413653915 L 29.074379077003528,5.880736336593941" fill="none" stroke="rgb(0,178,178)" stroke-width="0.1"/>
  <path d="M 29.074379077003528,5.880736336593941 L 28.957549640684647,5.392371532662821" fill="none" stroke="rgb(0,178,178)" stroke-width="0.1"/>
  <path d="M 28.957549640684647,5.392371532662821 L 28.815731713486457,4.910669369044683" fill="none" stroke="rgb(0,178,178)" stroke-width="0.1"/>
  <path d="M 28.815731713486457,4.910669369044683 L 28.649301461519826,4.4369075405490435" fill="none" stroke="rgb(0,178,178)" stroke-width="0.1"/>
  <path d="M 28.649301461519826,4.4369075405490435 L 28.458700334055948,3.9723426805792315" fill="none" stroke="rgb(0,178,178)" stroke-width="0.1"/>
  <path d="M 28.458700334055948,3.9723426805792315 L 28.244433892601023,3.518207027964934" fill="none" stroke="rgb(0,178,178)" stroke-width="0.1"/>
  <path d="M 28.244433892601023,3.518207027964934 L 28.007070469914765,3.0757051585000568" fill="none" stroke="rgb(0,178,178)" stroke-width="0.1"/>
  <path d="M 28.007070469914765,3.0757051585000568 L 27.74723966253248,2.6460107898561773" fill="none" stroke="rgb(0,178,178)" stroke-width="0.1"/>
  <path d="M 27.74723966253248,2.6460107898561773 L 27.46563066078579,2.230263668345458" fill="none" stroke="rgb(0,178,178)" stroke-width="0.1"/>
  <path d="M 27.46563066078579,2.230263668345458 L 27.16299042075468,1.8295665457912946" fill="none" stroke="rgb(0,178,178)" stroke-width="0.1"/>
  <path d="M 27.16299042075468,1.8295665457912946 L 26.840121682997847,1.444982254525371" fill="none" stroke="rgb(0,178,178)" stroke-width="0.1"/>
  <path d="M 26.840121682997847,1.444982254525371 L 26.49788084331658,1.0775308882692798" fill="none" stroke="rgb(0,178,178)" stroke-width="0.1"/>
  <path d="M 26.49788084331658,1.0775308882692798 L 26.13717568120103,0.7281870963788037" fill="none" stroke="rgb(0,178,178)" stroke-width="0.1"/>
  <path d="M 26.13717568120103,0.7281870963788037 L 25.758962951983108,0.3978774986273379" fill="none" stroke="rgb(0,178,178)" stroke-width="0.1"/>
  <path d="M 25.758962951983108,0.3978774986273379 L 25.364245849082977,0.08747822738564537" fill="none" stroke="rgb(0,178,178)" stroke-width="0.1"/>
 </g>
 <g id="layerPUB_TEXT" inkscape:groupmode="layer" inkscape:label="PUB_TEXT">
  <text fill="rgb(0,0,0)" font-family="Noto Sans CJK SC" font-size="2" transform="rotate(-349.9,0.6329979999999296,51.887678999999935)" x="0.6329979999999296" y="51.887678999999935">
   空调机房
  </text>
 </g>
 <g id="layerWALL" inkscape:groupmode="layer" inkscape:label="WALL">
  <path d="M 54.457997999999975,16.94867899999997 L 19.995997999999986,10.780678999999964" fill="none" instance-id="-1" semantic-id="1" stroke="rgb(178,178,0)" stroke-width="0.1"/>
  <path d="M 54.80999799999995,14.979678999999976 L 19.363998000000038,8.635678999999982" fill="none" instance-id="-1" semantic-id="1" stroke="rgb(178,178,0)" stroke-width="0.1"/>
  <path d="M 20.388998000000015,8.818678999999975 L 20.47699799999998,8.326678999999956" fill="none" instance-id="-1" semantic-id="1" stroke="rgb(178,178,0)" stroke-width="0.1"/>
  <path d="M 20.47699799999998,8.326678999999956 L 18.50799799999993,7.9746789999999805" fill="none" instance-id="-1" semantic-id="1" stroke="rgb(178,178,0)" stroke-width="0.1"/>
  <path d="M 18.50799799999993,7.9746789999999805 L 18.419997999999964,8.466678999999942" fill="none" instance-id="-1" semantic-id="1" stroke="rgb(178,178,0)" stroke-width="0.1"/>
  <path d="M 18.419997999999964,8.466678999999942 L 20.388998000000015,8.818678999999975" fill="none" instance-id="-1" semantic-id="1" stroke="rgb(178,178,0)" stroke-width="0.1"/>
  <path d="M 63.221997999999985,19.024678999999935 L 61.252997999999934,18.67267899999996" fill="none" instance-id="-1" semantic-id="1" stroke="rgb(178,178,0)" stroke-width="0.1"/>
  <path d="M 66.62645550849652,0.0 L 64.80699800000002,10.165678999999955" fill="none" instance-id="-1" semantic-id="1" stroke="rgb(178,178,0)" stroke-width="0.1"/>
  <path d="M 64.59519274852994,0.0 L 62.83899799999995,9.812678999999946" fill="none" instance-id="-1" semantic-id="1" stroke="rgb(178,178,0)" stroke-width="0.1"/>
  <path d="M 16.177998000000002,20.765678999999977 L 18.027998000000025,10.428678999999988" fill="none" instance-id="-1" semantic-id="1" stroke="rgb(178,178,0)" stroke-width="0.1"/>
  <path d="M 18.145997999999963,21.118678999999986 L 19.995997999999986,10.780678999999964" fill="none" instance-id="-1" semantic-id="1" stroke="rgb(178,178,0)" stroke-width="0.1"/>
  <path d="M 59.13699799999995,30.48667899999998 L 16.80999799999995,22.91067899999996" fill="none" instance-id="-1" semantic-id="1" stroke="rgb(178,178,0)" stroke-width="0.1"/>
  <path d="M 59.48899800000004,28.517678999999987 L 18.145997999999963,21.118678999999986" fill="none" instance-id="-1" semantic-id="1" stroke="rgb(178,178,0)" stroke-width="0.1"/>
  <path d="M 63.21999800000003,19.02367899999996 L 61.280997999999954,29.854678999999976" fill="none" instance-id="-1" semantic-id="1" stroke="rgb(178,178,0)" stroke-width="0.1"/>
  <path d="M 61.25099799999998,18.671678999999983 L 59.48899800000004,28.517678999999987" fill="none" instance-id="-1" semantic-id="1" stroke="rgb(178,178,0)" stroke-width="0.1"/>
  <path d="M 16.80999799999995,22.91067899999996 L 0.0,19.902015659893607" fill="none" instance-id="-1" semantic-id="1" stroke="rgb(178,178,0)" stroke-width="0.1"/>
  <path d="M 16.177998000000002,20.765678999999977 L 0.0,17.87083079966277" fill="none" instance-id="-1" semantic-id="1" stroke="rgb(178,178,0)" stroke-width="0.1"/>
  <path d="M 18.027998000000025,10.428678999999988 L 0.0,7.201596352891386" fill="none" instance-id="-1" semantic-id="1" stroke="rgb(178,178,0)" stroke-width="0.1"/>
  <path d="M 19.363998000000038,8.635678999999982 L 0.0,5.170108061314352" fill="none" instance-id="-1" semantic-id="1" stroke="rgb(178,178,0)" stroke-width="0.1"/>
  <path d="M 64.59519274852994,0.0 L 62.83899799999995,9.812678999999946" fill="none" instance-id="-1" semantic-id="1" stroke="rgb(178,178,0)" stroke-width="0.1"/>
  <path d="M 62.56319460587372,0.0 L 60.86999800000001,9.46067899999997" fill="none" instance-id="-1" semantic-id="1" stroke="rgb(178,178,0)" stroke-width="0.1"/>
  <path d="M 61.280997999999954,29.854678999999976 L 48.72838323773442,100.0" fill="none" instance-id="-1" semantic-id="1" stroke="rgb(178,178,0)" stroke-width="0.1"/>
  <path d="M 59.13699799999995,30.48667899999998 L 46.697271611038104,100.0" fill="none" instance-id="-1" semantic-id="1" stroke="rgb(178,178,0)" stroke-width="0.1"/>
 </g>
 <g id="layerm-洞口" inkscape:groupmode="layer" inkscape:label="m-洞口">
  <path d="M 17.941998000000012,10.92067899999995 L 0.0,7.709887499539889" fill="none" stroke="rgb(160,107,53)" stroke-width="0.1"/>
  <path d="M 0.0,17.868204368029694 L 16.179997999999955,20.763678999999968" fill="none" stroke="rgb(160,107,53)" stroke-width="0.1"/>
  <path d="M 16.179997999999955,20.763678999999968 L 17.941998000000012,10.92067899999995" fill="none" stroke="rgb(160,107,53)" stroke-width="0.1"/>
  <path d="M 17.941998000000012,10.92067899999995 L 0.0,9.177096553900071" fill="none" stroke="rgb(160,107,53)" stroke-width="0.1"/>
 </g>
</svg>