<?xml version="1.0" encoding="utf-8"?>
<svg style="background-color: #000;" version="1.1" viewBox="0 0 100.0 100.0" xmlns="http://www.w3.org/2000/svg" xmlns:inkscape="http://www.inkscape.org/namespaces/inkscape">
 <g id="layer0-石材边线" inkscape:groupmode="layer" inkscape:label="0-石材边线">
  <path d="M 88.10680009821453,100.0 L 100.0,33.54869471366226" fill="none" stroke="rgb(255,73,12)" stroke-width="0.1"/>
 </g>
 <g id="layer0-结构边线" inkscape:groupmode="layer" inkscape:label="0-结构边线">
  <path d="M 88.26199799999995,2.6826790000000074 L 97.12099799999999,4.268678999999906" fill="none" stroke="rgb(178,0,178)" stroke-width="0.1"/>
  <path d="M 97.12099799999999,4.268678999999906 L 97.88472485573993,0.0" fill="none" stroke="rgb(178,0,178)" stroke-width="0.1"/>
  <path d="M 88.26199799999995,2.6826790000000074 L 88.7419670952703,0.0" fill="none" stroke="rgb(178,0,178)" stroke-width="0.1"/>
 </g>
 <g id="layer0-金属格栅" inkscape:groupmode="layer" inkscape:label="0-金属格栅">
  <path d="M 81.02699799999994,94.14867900000002 L 83.97999800000002,94.67767900000001" fill="none" stroke="rgb(73,73,73)" stroke-width="0.1"/>
  <path d="M 83.97999800000002,94.67767900000001 L 83.89199799999994,95.16967899999997" fill="none" stroke="rgb(73,73,73)" stroke-width="0.1"/>
  <path d="M 83.89199799999994,95.16967899999997 L 80.93899799999997,94.64067899999998" fill="none" stroke="rgb(73,73,73)" stroke-width="0.1"/>
  <path d="M 80.93899799999997,94.64067899999998 L 81.02699799999994,94.14867900000002" fill="none" stroke="rgb(73,73,73)" stroke-width="0.1"/>
  <path d="M 83.14099799999997,82.336679 L 86.09399799999994,82.86467899999991" fill="none" stroke="rgb(73,73,73)" stroke-width="0.1"/>
  <path d="M 86.09399799999994,82.86467899999991 L 86.00599799999998,83.35767899999996" fill="none" stroke="rgb(73,73,73)" stroke-width="0.1"/>
  <path d="M 86.00599799999998,83.35767899999996 L 83.052998,82.82867899999997" fill="none" stroke="rgb(73,73,73)" stroke-width="0.1"/>
  <path d="M 83.052998,82.82867899999997 L 83.14099799999997,82.336679" fill="none" stroke="rgb(73,73,73)" stroke-width="0.1"/>
  <path d="M 85.60799799999995,68.55567899999994 L 88.56099800000004,69.08367899999996" fill="none" stroke="rgb(73,73,73)" stroke-width="0.1"/>
  <path d="M 88.56099800000004,69.08367899999996 L 88.47299799999996,69.57667900000001" fill="none" stroke="rgb(73,73,73)" stroke-width="0.1"/>
  <path d="M 88.47299799999996,69.57667900000001 L 85.51899800000001,69.04767900000002" fill="none" stroke="rgb(73,73,73)" stroke-width="0.1"/>
  <path d="M 85.51899800000001,69.04767900000002 L 85.60799799999995,68.55567899999994" fill="none" stroke="rgb(73,73,73)" stroke-width="0.1"/>
  <path d="M 88.07399799999996,54.77467899999999 L 91.02699799999994,55.30267900000001" fill="none" stroke="rgb(73,73,73)" stroke-width="0.1"/>
  <path d="M 91.02699799999994,55.30267900000001 L 90.93899799999997,55.79567899999995" fill="none" stroke="rgb(73,73,73)" stroke-width="0.1"/>
  <path d="M 90.93899799999997,55.79567899999995 L 87.985998,55.266678999999954" fill="none" stroke="rgb(73,73,73)" stroke-width="0.1"/>
  <path d="M 87.985998,55.266678999999954 L 88.07399799999996,54.77467899999999" fill="none" stroke="rgb(73,73,73)" stroke-width="0.1"/>
  <path d="M 90.54099799999995,40.99367899999993 L 93.49399800000003,41.52167899999995" fill="none" stroke="rgb(73,73,73)" stroke-width="0.1"/>
  <path d="M 93.49399800000003,41.52167899999995 L 93.40499799999998,42.014679" fill="none" stroke="rgb(73,73,73)" stroke-width="0.1"/>
  <path d="M 93.40499799999998,42.014679 L 90.451998,41.485679000000005" fill="none" stroke="rgb(73,73,73)" stroke-width="0.1"/>
  <path d="M 90.451998,41.485679000000005 L 90.54099799999995,40.99367899999993" fill="none" stroke="rgb(73,73,73)" stroke-width="0.1"/>
  <path d="M 93.00699799999995,27.21267899999998 L 95.95999800000004,27.740679" fill="none" stroke="rgb(73,73,73)" stroke-width="0.1"/>
  <path d="M 95.95999800000004,27.740679 L 95.87199799999996,28.232678999999962" fill="none" stroke="rgb(73,73,73)" stroke-width="0.1"/>
  <path d="M 95.87199799999996,28.232678999999962 L 92.91899799999999,27.704678999999942" fill="none" stroke="rgb(73,73,73)" stroke-width="0.1"/>
  <path d="M 92.91899799999999,27.704678999999942 L 93.00699799999995,27.21267899999998" fill="none" stroke="rgb(73,73,73)" stroke-width="0.1"/>
  <path d="M 95.47299799999996,13.431678999999917 L 98.42699800000003,13.959678999999937" fill="none" stroke="rgb(73,73,73)" stroke-width="0.1"/>
  <path d="M 98.42699800000003,13.959678999999937 L 98.33799799999997,14.451679000000013" fill="none" stroke="rgb(73,73,73)" stroke-width="0.1"/>
  <path d="M 98.33799799999997,14.451679000000013 L 95.384998,13.923678999999993" fill="none" stroke="rgb(73,73,73)" stroke-width="0.1"/>
  <path d="M 95.384998,13.923678999999993 L 95.47299799999996,13.431678999999917" fill="none" stroke="rgb(73,73,73)" stroke-width="0.1"/>
  <path d="M 99.89368154734859,0.0 L 100.0,0.019009868946795905" fill="none" stroke="rgb(73,73,73)" stroke-width="0.1"/>
  <path d="M 100.0,0.5267443762274979 L 97.85199799999998,0.14267899999993006" fill="none" stroke="rgb(73,73,73)" stroke-width="0.1"/>
  <path d="M 97.85199799999998,0.14267899999993006 L 97.87751782113821,0.0" fill="none" stroke="rgb(73,73,73)" stroke-width="0.1"/>
 </g>
 <g id="layerAXIS" inkscape:groupmode="layer" inkscape:label="AXIS">
  <path d="M 91.37599799999998,84.00367899999992 L 100.0,85.54721503233884" fill="none" stroke="rgb(0,178,0)" stroke-width="0.1"/>
  <path d="M 91.37599799999998,84.00367899999992 L 100.0,85.54721503233884" fill="none" stroke="rgb(0,178,0)" stroke-width="0.1"/>
 </g>
 <g id="layerCOLUMN" inkscape:groupmode="layer" inkscape:label="COLUMN">
  <path d="M 88.26199799999995,2.6826790000000074 L 97.12099799999999,4.268678999999906" fill="none" stroke="rgb(178,178,0)" stroke-width="0.1"/>
  <path d="M 97.12099799999999,4.268678999999906 L 97.88472485573993,0.0" fill="none" stroke="rgb(178,178,0)" stroke-width="0.1"/>
  <path d="M 88.7419670952703,0.0 L 88.26199799999995,2.6826790000000074" fill="none" stroke="rgb(178,178,0)" stroke-width="0.1"/>
 </g>
 <g id="layerCURTWALL" inkscape:groupmode="layer" inkscape:label="CURTWALL">
  <path d="M 83.02741554490751,100.0 L 100.0,5.168236627688771" fill="none" instance-id="-1" semantic-id="2" stroke="rgb(0,178,178)" stroke-width="0.1"/>
  <path d="M 82.01191581572527,100.0 L 99.90948921469067,0.0" fill="none" instance-id="-1" semantic-id="2" stroke="rgb(0,178,178)" stroke-width="0.1"/>
  <path d="M 87.956998,69.63667899999996 L 85.57899799999996,82.92567899999995" fill="none" instance-id="-1" semantic-id="2" stroke="rgb(0,178,178)" stroke-width="0.1"/>
  <path d="M 90.42399799999998,55.85567900000001 L 88.04599799999994,69.144679" fill="none" instance-id="-1" semantic-id="2" stroke="rgb(0,178,178)" stroke-width="0.1"/>
 </g>
 <g id="layerDIM_LEAD" inkscape:groupmode="layer" inkscape:label="DIM_LEAD">
  <path d="M 89.23499800000002,62.50067899999999 L 100.0,63.78291786179409" fill="none" stroke="rgb(0,178,0)" stroke-width="0.1"/>
  <path d="M 87.01799800000003,74.87167899999997 L 100.0,74.06548224618143" fill="none" stroke="rgb(0,178,0)" stroke-width="0.1"/>
  <path d="M 88.94799799999998,62.413679 A 0.3,0.3 0.0 1,0 89.52199799999994,62.586679000000004" fill="none" stroke="rgb(0,178,0)" stroke-width="0.1"/>
  <path d="M 89.52199799999994,62.586679000000004 A 0.3,0.3 0.0 0,0 88.94799799999998,62.413679" fill="none" stroke="rgb(0,178,0)" stroke-width="0.1"/>
  <path d="M 86.71999800000003,74.83767899999998 A 0.3,0.3 0.0 1,0 87.31599800000004,74.90467899999999" fill="none" stroke="rgb(0,178,0)" stroke-width="0.1"/>
  <path d="M 87.31599800000004,74.90467899999999 A 0.3,0.3 0.0 0,0 86.71999800000003,74.83767899999998" fill="none" stroke="rgb(0,178,0)" stroke-width="0.1"/>
 </g>
 <g id="layerPUB_TEXT" inkscape:groupmode="layer" inkscape:label="PUB_TEXT">
  <text fill="rgb(0,0,0)" font-family="Noto Sans CJK SC" font-size="2" transform="rotate(-349.9,11.620997999999986,23.187679000000003)" x="11.620997999999986" y="23.187679000000003">
   新风井道
  </text>
  <text fill="rgb(0,0,0)" font-family="Noto Sans CJK SC" font-size="2" transform="rotate(-349.9,48.892998000000034,29.73967899999991)" x="48.892998000000034" y="29.73967899999991">
   消防水
  </text>
 </g>
 <g id="layerTOILET" inkscape:groupmode="layer" inkscape:label="TOILET">
  <path d="M 61.370997999999986,16.662678999999912 L 64.35312663240768,0.0" fill="none" stroke="rgb(53,79,107)" stroke-width="0.1"/>
  <path d="M 45.156523849833775,0.0 L 44.61999800000001,2.9976789999999482" fill="none" stroke="rgb(53,79,107)" stroke-width="0.1"/>
  <path d="M 44.61999800000001,2.9976789999999482 L 44.915997999999945,3.0506789999999455" fill="none" stroke="rgb(53,79,107)" stroke-width="0.1"/>
  <path d="M 44.65099799999996,4.527678999999921 L 44.915997999999945,3.0506789999999455" fill="none" stroke="rgb(53,79,107)" stroke-width="0.1"/>
  <path d="M 44.38199799999995,4.326679000000013 L 44.61999800000001,2.9976789999999482" fill="none" stroke="rgb(53,79,107)" stroke-width="0.1"/>
  <path d="M 44.38199799999995,4.326679000000013 L 30.89699799999994,1.913679000000002" fill="none" stroke="rgb(53,79,107)" stroke-width="0.1"/>
  <path d="M 35.20136674501987,0.0 L 35.057998,0.7996789999999692" fill="none" stroke="rgb(53,79,107)" stroke-width="0.1"/>
  <path d="M 35.729343780181466,0.0 L 35.527998000000025,1.1226789999999482" fill="none" stroke="rgb(53,79,107)" stroke-width="0.1"/>
  <path d="M 35.83073270686066,0.0 L 35.624998000000005,1.1506789999999683" fill="none" stroke="rgb(53,79,107)" stroke-width="0.1"/>
  <path d="M 36.359159530040074,0.0 L 36.12699799999996,1.2976790000000165" fill="none" stroke="rgb(53,79,107)" stroke-width="0.1"/>
  <path d="M 36.46119702584497,0.0 L 36.22399799999994,1.3256789999999228" fill="none" stroke="rgb(53,79,107)" stroke-width="0.1"/>
  <path d="M 38.190998000000036,0.3236789999999701 L 37.961997999999994,1.6036789999999428" fill="none" stroke="rgb(53,79,107)" stroke-width="0.1"/>
  <path d="M 38.028998,0.09167899999999918 L 37.51675660043679,0.0" fill="none" stroke="rgb(53,79,107)" stroke-width="0.1"/>
  <path d="M 37.72999800000002,1.764679000000001 L 35.19899799999996,1.0266789999999446" fill="none" stroke="rgb(53,79,107)" stroke-width="0.1"/>
  <path d="M 37.71399799999995,0.03567899999995916 L 37.42099799999994,1.6746789999999692" fill="none" stroke="rgb(53,79,107)" stroke-width="0.1"/>
  <path d="M 37.61599799999999,0.017678999999930056 L 37.32399799999996,1.6466789999999492" fill="none" stroke="rgb(53,79,107)" stroke-width="0.1"/>
  <path d="M 37.0906910019047,0.0 L 36.82199800000001,1.500678999999991" fill="none" stroke="rgb(53,79,107)" stroke-width="0.1"/>
  <path d="M 36.988707361253205,0.0 L 36.725998000000004,1.472678999999971" fill="none" stroke="rgb(53,79,107)" stroke-width="0.1"/>
  <path d="M 38.83399799999995,0.1336789999999155 L 38.086503000000334,0.0" fill="none" stroke="rgb(53,79,107)" stroke-width="0.1"/>
  <path d="M 20.20255599751499,0.0 L 28.926998000000026,1.5616789999999128" fill="none" stroke="rgb(53,79,107)" stroke-width="0.1"/>
  <path d="M 44.38699799999995,6.00367899999992 L 44.65099799999996,4.527678999999921" fill="none" stroke="rgb(53,79,107)" stroke-width="0.1"/>
  <path d="M 44.003998000000024,6.443678999999975 L 43.03499799999997,11.857678999999962" fill="none" instance-id="6" semantic-id="3" stroke="rgb(53,79,107)" stroke-width="0.1"/>
  <path d="M 44.09199799999999,5.951679000000013 L 44.32999799999993,4.622678999999948" fill="none" stroke="rgb(53,79,107)" stroke-width="0.1"/>
  <path d="M 43.03499799999997,11.857678999999962 L 43.32999799999993,11.91067899999996" fill="none" instance-id="6" semantic-id="3" stroke="rgb(53,79,107)" stroke-width="0.1"/>
  <path d="M 44.09199799999999,5.951679000000013 L 44.38699799999995,6.00367899999992" fill="none" instance-id="6" semantic-id="3" stroke="rgb(53,79,107)" stroke-width="0.1"/>
  <path d="M 43.065998000000036,13.386678999999958 L 43.32999799999993,11.91067899999996" fill="none" stroke="rgb(53,79,107)" stroke-width="0.1"/>
  <path d="M 42.79699800000003,13.186678999999913 L 43.03499799999997,11.857678999999962" fill="none" stroke="rgb(53,79,107)" stroke-width="0.1"/>
  <path d="M 42.79699800000003,13.186678999999913 L 29.31099800000004,10.772678999999926" fill="none" stroke="rgb(53,79,107)" stroke-width="0.1"/>
  <path d="M 30.843997999999942,2.208678999999961 L 44.32999799999993,4.622678999999948" fill="none" stroke="rgb(53,79,107)" stroke-width="0.1"/>
  <path d="M 33.651997999999935,8.654678999999987 L 33.47299799999996,9.658679000000006" fill="none" instance-id="10" semantic-id="27" stroke="rgb(53,79,107)" stroke-width="0.1"/>
  <path d="M 34.19899799999996,8.54967899999997 L 33.94299799999999,9.982678999999962" fill="none" instance-id="10" semantic-id="27" stroke="rgb(53,79,107)" stroke-width="0.1"/>
  <path d="M 34.29799800000001,8.566678999999908 L 34.03999799999997,10.010678999999982" fill="none" instance-id="10" semantic-id="27" stroke="rgb(53,79,107)" stroke-width="0.1"/>
  <path d="M 34.80999799999995,8.658679000000006 L 34.541998000000035,10.15667899999994" fill="none" instance-id="10" semantic-id="27" stroke="rgb(53,79,107)" stroke-width="0.1"/>
  <path d="M 34.90799800000002,8.675678999999946 L 34.63799800000004,10.18467899999996" fill="none" instance-id="10" semantic-id="27" stroke="rgb(53,79,107)" stroke-width="0.1"/>
  <path d="M 35.36599799999999,6.116678999999976 L 35.63599799999997,4.607678999999962" fill="none" instance-id="10" semantic-id="27" stroke="rgb(53,79,107)" stroke-width="0.1"/>
  <path d="M 35.267998000000034,6.098678999999947 L 35.53599799999995,4.600679000000014" fill="none" instance-id="10" semantic-id="27" stroke="rgb(53,79,107)" stroke-width="0.1"/>
  <path d="M 34.75599799999998,6.007678999999939 L 35.013998000000015,4.563678999999979" fill="none" instance-id="10" semantic-id="27" stroke="rgb(53,79,107)" stroke-width="0.1"/>
  <path d="M 34.65699799999993,5.98967899999991 L 34.91399799999999,4.556678999999917" fill="none" instance-id="10" semantic-id="27" stroke="rgb(53,79,107)" stroke-width="0.1"/>
  <path d="M 34.18099799999993,5.701679000000013 L 34.35999800000002,4.696679000000017" fill="none" instance-id="10" semantic-id="27" stroke="rgb(53,79,107)" stroke-width="0.1"/>
  <path d="M 32.87599799999998,6.178678999999988 L 32.59399799999994,7.75367899999992" fill="none" instance-id="10" semantic-id="27" stroke="rgb(53,79,107)" stroke-width="0.1"/>
  <path d="M 32.71499800000004,5.946679000000017 L 32.36199799999997,7.915678999999955" fill="none" instance-id="10" semantic-id="27" stroke="rgb(53,79,107)" stroke-width="0.1"/>
  <path d="M 36.60499800000002,9.182679000000007 L 36.37599799999998,10.46267899999998" fill="none" instance-id="10" semantic-id="27" stroke="rgb(53,79,107)" stroke-width="0.1"/>
  <path d="M 36.443997999999965,8.950678999999923 L 33.88399800000002,8.492678999999953" fill="none" instance-id="10" semantic-id="27" stroke="rgb(53,79,107)" stroke-width="0.1"/>
  <path d="M 36.14399800000001,10.624679000000015 L 33.61299799999995,9.885678999999982" fill="none" instance-id="10" semantic-id="27" stroke="rgb(53,79,107)" stroke-width="0.1"/>
  <path d="M 36.128998000000024,8.894678999999996 L 35.83499800000004,10.534678999999983" fill="none" instance-id="10" semantic-id="27" stroke="rgb(53,79,107)" stroke-width="0.1"/>
  <path d="M 36.02999799999998,8.876678999999967 L 35.73899800000004,10.505678999999986" fill="none" instance-id="10" semantic-id="27" stroke="rgb(53,79,107)" stroke-width="0.1"/>
  <path d="M 35.517998000000034,8.78567899999996 L 35.23699799999997,10.359678999999915" fill="none" instance-id="10" semantic-id="27" stroke="rgb(53,79,107)" stroke-width="0.1"/>
  <path d="M 35.419997999999964,8.76767899999993 L 35.13999799999999,10.331679000000008" fill="none" instance-id="10" semantic-id="27" stroke="rgb(53,79,107)" stroke-width="0.1"/>
  <path d="M 35.877997999999934,6.208678999999961 L 36.15799800000002,4.6446789999999964" fill="none" instance-id="10" semantic-id="27" stroke="rgb(53,79,107)" stroke-width="0.1"/>
  <path d="M 35.975998000000004,6.225679000000014 L 36.25799799999993,4.651678999999945" fill="none" instance-id="10" semantic-id="27" stroke="rgb(53,79,107)" stroke-width="0.1"/>
  <path d="M 36.48799799999995,6.317678999999998 L 36.77999799999998,4.688678999999979" fill="none" instance-id="10" semantic-id="27" stroke="rgb(53,79,107)" stroke-width="0.1"/>
  <path d="M 36.586997999999994,6.335678999999914 L 36.879998,4.695678999999927" fill="none" instance-id="10" semantic-id="27" stroke="rgb(53,79,107)" stroke-width="0.1"/>
  <path d="M 37.20099800000003,4.7176789999999755 L 34.57099800000003,4.532678999999916" fill="none" instance-id="10" semantic-id="27" stroke="rgb(53,79,107)" stroke-width="0.1"/>
  <path d="M 36.901997999999935,6.391678999999954 L 34.34199799999999,5.933678999999984" fill="none" instance-id="10" semantic-id="27" stroke="rgb(53,79,107)" stroke-width="0.1"/>
  <path d="M 37.13399800000002,6.229678999999919 L 37.36299799999995,4.950678999999923" fill="none" instance-id="10" semantic-id="27" stroke="rgb(53,79,107)" stroke-width="0.1"/>
  <path d="M 37.49199799999997,6.801678999999922 L 33.10799799999995,6.01767899999993" fill="none" instance-id="10" semantic-id="27" stroke="rgb(53,79,107)" stroke-width="0.1"/>
  <path d="M 37.183997999999974,8.778679000000011 L 32.75599799999998,7.986678999999981" fill="none" instance-id="10" semantic-id="27" stroke="rgb(53,79,107)" stroke-width="0.1"/>
  <path d="M 37.67199800000003,6.6306789999999864 L 32.94699800000001,5.785678999999959" fill="none" instance-id="10" semantic-id="27" stroke="rgb(53,79,107)" stroke-width="0.1"/>
  <path d="M 37.24899800000003,8.99367899999993 L 32.523998000000006,8.147678999999926" fill="none" instance-id="10" semantic-id="27" stroke="rgb(53,79,107)" stroke-width="0.1"/>
  <path d="M 14.855998,0.7186789999999519 L 14.984455180771874,0.0" fill="none" stroke="rgb(53,79,107)" stroke-width="0.1"/>
  <path d="M 15.062997999999993,1.263678999999911 L 14.093997999999942,6.677679000000012" fill="none" instance-id="12" semantic-id="3" stroke="rgb(53,79,107)" stroke-width="0.1"/>
  <path d="M 15.150997999999959,0.7716789999999492 L 15.289191831452172,0.0" fill="none" stroke="rgb(53,79,107)" stroke-width="0.1"/>
  <path d="M 14.093997999999942,6.677679000000012 L 13.797998000000007,6.624679000000015" fill="none" instance-id="12" semantic-id="3" stroke="rgb(53,79,107)" stroke-width="0.1"/>
  <path d="M 15.150997999999959,0.7716789999999492 L 14.855998,0.7186789999999519" fill="none" stroke="rgb(53,79,107)" stroke-width="0.1"/>
  <path d="M 13.533997999999997,8.10167899999999 L 13.797998000000007,6.624679000000015" fill="none" stroke="rgb(53,79,107)" stroke-width="0.1"/>
  <path d="M 13.855998,8.006678999999963 L 14.093997999999942,6.677679000000012" fill="none" stroke="rgb(53,79,107)" stroke-width="0.1"/>
  <path d="M 13.855998,8.006678999999963 L 27.34199799999999,10.42067899999995" fill="none" stroke="rgb(53,79,107)" stroke-width="0.1"/>
  <path d="M 28.87399800000003,1.8566789999999855 L 18.502284530654606,0.0" fill="none" stroke="rgb(53,79,107)" stroke-width="0.1"/>
  <path d="M 24.004998,6.927679000000012 L 23.824997999999937,7.932679000000007" fill="none" instance-id="11" semantic-id="27" stroke="rgb(53,79,107)" stroke-width="0.1"/>
  <path d="M 23.527998000000025,6.639679000000001 L 23.27199799999994,8.072678999999994" fill="none" instance-id="11" semantic-id="27" stroke="rgb(53,79,107)" stroke-width="0.1"/>
  <path d="M 23.429997999999955,6.621678999999972 L 23.17099799999994,8.065678999999932" fill="none" instance-id="11" semantic-id="27" stroke="rgb(53,79,107)" stroke-width="0.1"/>
  <path d="M 22.91799800000001,6.529678999999987 L 22.649997999999982,8.028679000000011" fill="none" instance-id="11" semantic-id="27" stroke="rgb(53,79,107)" stroke-width="0.1"/>
  <path d="M 22.818997999999965,6.512678999999935 L 22.548997999999983,8.02167899999995" fill="none" instance-id="11" semantic-id="27" stroke="rgb(53,79,107)" stroke-width="0.1"/>
  <path d="M 23.276997999999935,3.9536789999999655 L 23.547998000000007,2.444678999999951" fill="none" instance-id="11" semantic-id="27" stroke="rgb(53,79,107)" stroke-width="0.1"/>
  <path d="M 23.37599799999998,3.9706789999999046 L 23.64399800000001,2.472678999999971" fill="none" instance-id="11" semantic-id="27" stroke="rgb(53,79,107)" stroke-width="0.1"/>
  <path d="M 23.88799800000004,4.062679000000003 L 24.145997999999963,2.618678999999929" fill="none" instance-id="11" semantic-id="27" stroke="rgb(53,79,107)" stroke-width="0.1"/>
  <path d="M 23.985997999999995,4.079678999999942 L 24.242997999999943,2.646678999999949" fill="none" instance-id="11" semantic-id="27" stroke="rgb(53,79,107)" stroke-width="0.1"/>
  <path d="M 24.53299800000002,3.9746789999999237 L 24.71299799999997,2.9706789999999046" fill="none" instance-id="11" semantic-id="27" stroke="rgb(53,79,107)" stroke-width="0.1"/>
  <path d="M 25.590998000000013,4.875678999999991 L 25.308997999999974,6.450678999999923" fill="none" instance-id="11" semantic-id="27" stroke="rgb(53,79,107)" stroke-width="0.1"/>
  <path d="M 25.822997999999984,4.713678999999956 L 25.47099800000001,6.682679000000007" fill="none" instance-id="11" semantic-id="27" stroke="rgb(53,79,107)" stroke-width="0.1"/>
  <path d="M 21.051998000000026,6.399678999999992 L 20.822997999999984,7.678678999999988" fill="none" instance-id="11" semantic-id="27" stroke="rgb(53,79,107)" stroke-width="0.1"/>
  <path d="M 21.283997999999997,6.237678999999957 L 23.842997999999966,6.695678999999927" fill="none" instance-id="11" semantic-id="27" stroke="rgb(53,79,107)" stroke-width="0.1"/>
  <path d="M 20.98399799999993,7.910678999999959 L 23.613998000000038,8.096678999999995" fill="none" instance-id="11" semantic-id="27" stroke="rgb(53,79,107)" stroke-width="0.1"/>
  <path d="M 21.598997999999938,6.293678999999997 L 21.304997999999955,7.933678999999984" fill="none" instance-id="11" semantic-id="27" stroke="rgb(53,79,107)" stroke-width="0.1"/>
  <path d="M 21.696998000000008,6.311678999999913 L 21.405997999999954,7.940678999999932" fill="none" instance-id="11" semantic-id="27" stroke="rgb(53,79,107)" stroke-width="0.1"/>
  <path d="M 22.20899799999995,6.403679000000011 L 21.926998000000026,7.977678999999966" fill="none" instance-id="11" semantic-id="27" stroke="rgb(53,79,107)" stroke-width="0.1"/>
  <path d="M 22.307997999999998,6.42067899999995 L 22.027998000000025,7.984678999999915" fill="none" instance-id="11" semantic-id="27" stroke="rgb(53,79,107)" stroke-width="0.1"/>
  <path d="M 22.765997999999968,3.861678999999981 L 23.04599799999994,2.2976790000000165" fill="none" instance-id="11" semantic-id="27" stroke="rgb(53,79,107)" stroke-width="0.1"/>
  <path d="M 22.666998000000035,3.843678999999952 L 22.94899799999996,2.2696789999999964" fill="none" instance-id="11" semantic-id="27" stroke="rgb(53,79,107)" stroke-width="0.1"/>
  <path d="M 22.154997999999978,3.7526789999999437 L 22.446998000000008,2.1236789999999246" fill="none" instance-id="11" semantic-id="27" stroke="rgb(53,79,107)" stroke-width="0.1"/>
  <path d="M 22.05699800000002,3.7346789999999146 L 22.349998000000028,2.0946789999999282" fill="none" instance-id="11" semantic-id="27" stroke="rgb(53,79,107)" stroke-width="0.1"/>
  <path d="M 22.040997999999945,2.00467900000001 L 24.571998000000008,2.743678999999929" fill="none" instance-id="11" semantic-id="27" stroke="rgb(53,79,107)" stroke-width="0.1"/>
  <path d="M 21.741997999999967,3.6786789999999883 L 24.300997999999936,4.136678999999958" fill="none" instance-id="11" semantic-id="27" stroke="rgb(53,79,107)" stroke-width="0.1"/>
  <path d="M 21.579997999999932,3.4466790000000174 L 21.808997999999974,2.166678999999931" fill="none" instance-id="11" semantic-id="27" stroke="rgb(53,79,107)" stroke-width="0.1"/>
  <path d="M 21.04599799999994,3.8586789999999382 L 25.429997999999955,4.643678999999906" fill="none" instance-id="11" semantic-id="27" stroke="rgb(53,79,107)" stroke-width="0.1"/>
  <path d="M 20.648998000000006,5.819678999999951 L 25.076998000000003,6.611678999999981" fill="none" instance-id="11" semantic-id="27" stroke="rgb(53,79,107)" stroke-width="0.1"/>
  <path d="M 20.936998000000017,3.635678999999982 L 25.66199800000004,4.4816789999999855" fill="none" instance-id="11" semantic-id="27" stroke="rgb(53,79,107)" stroke-width="0.1"/>
  <path d="M 20.513998000000015,5.998678999999925 L 25.238998000000038,6.843678999999952" fill="none" instance-id="11" semantic-id="27" stroke="rgb(53,79,107)" stroke-width="0.1"/>
  <path d="M 61.405997999999954,7.816678999999908 L 62.905997999999954,8.085678999999914" fill="none" instance-id="2" semantic-id="28" stroke="rgb(53,79,107)" stroke-width="0.1"/>
  <path d="M 61.62199799999996,3.72667899999999 L 60.99499800000001,7.227678999999966" fill="none" instance-id="2" semantic-id="28" stroke="rgb(53,79,107)" stroke-width="0.1"/>
  <path d="M 63.71099800000002,3.5846789999999373 L 62.21099800000002,3.3166789999999082" fill="none" instance-id="2" semantic-id="28" stroke="rgb(53,79,107)" stroke-width="0.1"/>
  <path d="M 62.905997999999954,8.085678999999914 L 63.71099800000002,3.5846789999999373" fill="none" instance-id="2" semantic-id="28" stroke="rgb(53,79,107)" stroke-width="0.1"/>
  <path d="M 60.97799799999996,10.206679000000008 L 62.47799799999996,10.475679000000014" fill="none" instance-id="1" semantic-id="28" stroke="rgb(53,79,107)" stroke-width="0.1"/>
  <path d="M 59.76199799999995,14.117678999999953 L 60.38799800000004,10.617678999999953" fill="none" instance-id="1" semantic-id="28" stroke="rgb(53,79,107)" stroke-width="0.1"/>
  <path d="M 61.67299800000001,14.975679000000014 L 60.17199800000003,14.707678999999985" fill="none" instance-id="1" semantic-id="28" stroke="rgb(53,79,107)" stroke-width="0.1"/>
  <path d="M 62.47799799999996,10.475679000000014 L 61.67299800000001,14.975679000000014" fill="none" instance-id="1" semantic-id="28" stroke="rgb(53,79,107)" stroke-width="0.1"/>
  <path d="M 62.638998000000015,0.9266789999999219 L 64.13899800000002,1.194678999999951" fill="none" stroke="rgb(53,79,107)" stroke-width="0.1"/>
  <path d="M 62.28831163799998,0.0 L 62.22799799999996,0.3366790000000037" fill="none" stroke="rgb(53,79,107)" stroke-width="0.1"/>
  <path d="M 64.13899800000002,1.194678999999951 L 64.35297828311104,0.0" fill="none" stroke="rgb(53,79,107)" stroke-width="0.1"/>
  <path d="M 42.002997999999934,1.8356789999999137 A 6.0,6.0 0.0 0,0 44.61999800000001,2.9976789999999482" fill="none" stroke="rgb(89,89,89)" stroke-width="0.1"/>
  <path d="M 35.057998,0.7996789999999692 A 0.2,0.2 0.0 0,0 35.19899799999996,1.0266789999999446" fill="none" stroke="rgb(53,79,107)" stroke-width="0.1"/>
  <path d="M 37.72999800000002,1.764679000000001 A 0.2,0.2 0.0 0,0 37.961997999999994,1.6036789999999428" fill="none" stroke="rgb(53,79,107)" stroke-width="0.1"/>
  <path d="M 38.190998000000036,0.3236789999999701 A 0.2,0.2 0.0 0,0 38.028998,0.09167899999999918" fill="none" stroke="rgb(53,79,107)" stroke-width="0.1"/>
  <path d="M 38.83399799999995,0.1336789999999155 L 39.374055687638815,0.11687121983788984" fill="none" stroke="rgb(53,79,107)" stroke-width="0.1"/>
  <path d="M 40.41799800000001,10.694678999999951 A 6.0,6.0 0.0 0,0 43.03499799999997,11.857678999999962" fill="none" instance-id="6" semantic-id="3" stroke="rgb(89,89,89)" stroke-width="0.1"/>
  <path d="M 33.88399800000002,8.492678999999953 A 0.2,0.2 0.0 0,0 33.651997999999935,8.654678999999987" fill="none" instance-id="10" semantic-id="27" stroke="rgb(53,79,107)" stroke-width="0.1"/>
  <path d="M 33.47299799999996,9.658679000000006 A 0.2,0.2 0.0 0,0 33.61299799999995,9.885678999999982" fill="none" instance-id="10" semantic-id="27" stroke="rgb(53,79,107)" stroke-width="0.1"/>
  <path d="M 34.57099800000003,4.532678999999916 A 0.2,0.2 0.0 0,0 34.35999800000002,4.696679000000017" fill="none" instance-id="10" semantic-id="27" stroke="rgb(53,79,107)" stroke-width="0.1"/>
  <path d="M 34.18099799999993,5.701679000000013 A 0.2,0.2 0.0 0,0 34.34199799999999,5.933678999999984" fill="none" instance-id="10" semantic-id="27" stroke="rgb(53,79,107)" stroke-width="0.1"/>
  <path d="M 32.36199799999997,7.915678999999955 A 0.2,0.2 0.0 0,0 32.523998000000006,8.147678999999926" fill="none" instance-id="10" semantic-id="27" stroke="rgb(53,79,107)" stroke-width="0.1"/>
  <path d="M 32.94699800000001,5.785678999999959 A 0.2,0.2 0.0 0,0 32.71499800000004,5.946679000000017" fill="none" instance-id="10" semantic-id="27" stroke="rgb(53,79,107)" stroke-width="0.1"/>
  <path d="M 32.59399799999994,7.75367899999992 A 0.2,0.2 0.0 0,0 32.75599799999998,7.986678999999981" fill="none" instance-id="10" semantic-id="27" stroke="rgb(53,79,107)" stroke-width="0.1"/>
  <path d="M 33.10799799999995,6.01767899999993 A 0.2,0.2 0.0 0,0 32.87599799999998,6.178678999999988" fill="none" instance-id="10" semantic-id="27" stroke="rgb(53,79,107)" stroke-width="0.1"/>
  <path d="M 36.14399800000001,10.624679000000015 A 0.2,0.2 0.0 0,0 36.37599799999998,10.46267899999998" fill="none" instance-id="10" semantic-id="27" stroke="rgb(53,79,107)" stroke-width="0.1"/>
  <path d="M 36.60499800000002,9.182679000000007 A 0.2,0.2 0.0 0,0 36.443997999999965,8.950678999999923" fill="none" instance-id="10" semantic-id="27" stroke="rgb(53,79,107)" stroke-width="0.1"/>
  <path d="M 36.901997999999935,6.391678999999954 A 0.2,0.2 0.0 0,0 37.13399800000002,6.229678999999919" fill="none" instance-id="10" semantic-id="27" stroke="rgb(53,79,107)" stroke-width="0.1"/>
  <path d="M 37.36299799999995,4.950678999999923 A 0.2,0.2 0.0 0,0 37.20099800000003,4.7176789999999755" fill="none" instance-id="10" semantic-id="27" stroke="rgb(53,79,107)" stroke-width="0.1"/>
  <path d="M 37.655997999999954,6.977678999999966 A 0.2,0.2 0.0 0,0 37.49199799999997,6.801678999999922" fill="none" instance-id="10" semantic-id="27" stroke="rgb(53,79,107)" stroke-width="0.1"/>
  <path d="M 37.403998,8.659678999999983 A 3.39638,3.39638 0.0 0,0 37.655997999999954,6.977678999999966" fill="none" instance-id="10" semantic-id="27" stroke="rgb(53,79,107)" stroke-width="0.1"/>
  <path d="M 37.183997999999974,8.778679000000011 A 0.2,0.2 0.0 0,0 37.403998,8.659678999999983" fill="none" instance-id="10" semantic-id="27" stroke="rgb(53,79,107)" stroke-width="0.1"/>
  <path d="M 37.24899800000003,8.99367899999993 A 1.2002810087641698,1.2002810087641698 0.0 1,0 37.67199800000003,6.6306789999999864" fill="none" instance-id="10" semantic-id="27" stroke="rgb(53,79,107)" stroke-width="0.1"/>
  <path d="M 14.093997999999942,6.677679000000012 A 6.0,6.0 0.0 0,0 16.951998000000003,6.4946789999999055" fill="none" instance-id="12" semantic-id="3" stroke="rgb(89,89,89)" stroke-width="0.1"/>
  <path d="M 24.004998,6.927679000000012 A 0.2,0.2 0.0 0,0 23.842997999999966,6.695678999999927" fill="none" instance-id="11" semantic-id="27" stroke="rgb(53,79,107)" stroke-width="0.1"/>
  <path d="M 23.613998000000038,8.096678999999995 A 0.2,0.2 0.0 0,0 23.824997999999937,7.932679000000007" fill="none" instance-id="11" semantic-id="27" stroke="rgb(53,79,107)" stroke-width="0.1"/>
  <path d="M 24.71299799999997,2.9706789999999046 A 0.2,0.2 0.0 0,0 24.571998000000008,2.743678999999929" fill="none" instance-id="11" semantic-id="27" stroke="rgb(53,79,107)" stroke-width="0.1"/>
  <path d="M 24.300997999999936,4.136678999999958 A 0.2,0.2 0.0 0,0 24.53299800000002,3.9746789999999237" fill="none" instance-id="11" semantic-id="27" stroke="rgb(53,79,107)" stroke-width="0.1"/>
  <path d="M 25.238998000000038,6.843678999999952 A 0.2,0.2 0.0 0,0 25.47099800000001,6.682679000000007" fill="none" instance-id="11" semantic-id="27" stroke="rgb(53,79,107)" stroke-width="0.1"/>
  <path d="M 25.822997999999984,4.713678999999956 A 0.2,0.2 0.0 0,0 25.66199800000004,4.4816789999999855" fill="none" instance-id="11" semantic-id="27" stroke="rgb(53,79,107)" stroke-width="0.1"/>
  <path d="M 25.076998000000003,6.611678999999981 A 0.2,0.2 0.0 0,0 25.308997999999974,6.450678999999923" fill="none" instance-id="11" semantic-id="27" stroke="rgb(53,79,107)" stroke-width="0.1"/>
  <path d="M 25.590998000000013,4.875678999999991 A 0.2,0.2 0.0 0,0 25.429997999999955,4.643678999999906" fill="none" instance-id="11" semantic-id="27" stroke="rgb(53,79,107)" stroke-width="0.1"/>
  <path d="M 20.822997999999984,7.678678999999988 A 0.2,0.2 0.0 0,0 20.98399799999993,7.910678999999959" fill="none" instance-id="11" semantic-id="27" stroke="rgb(53,79,107)" stroke-width="0.1"/>
  <path d="M 21.283997999999997,6.237678999999957 A 0.2,0.2 0.0 0,0 21.051998000000026,6.399678999999992" fill="none" instance-id="11" semantic-id="27" stroke="rgb(53,79,107)" stroke-width="0.1"/>
  <path d="M 21.579997999999932,3.4466790000000174 A 0.2,0.2 0.0 0,0 21.741997999999967,3.6786789999999883" fill="none" instance-id="11" semantic-id="27" stroke="rgb(53,79,107)" stroke-width="0.1"/>
  <path d="M 22.040997999999945,2.00467900000001 A 0.2,0.2 0.0 0,0 21.808997999999974,2.166678999999931" fill="none" instance-id="11" semantic-id="27" stroke="rgb(53,79,107)" stroke-width="0.1"/>
  <path d="M 21.04599799999994,3.8586789999999382 A 0.2,0.2 0.0 0,0 20.831998,3.966678999999999" fill="none" instance-id="11" semantic-id="27" stroke="rgb(53,79,107)" stroke-width="0.1"/>
  <path d="M 20.831998,3.966678999999999 A 3.39638,3.39638 0.0 0,0 20.48399799999993,5.631678999999963" fill="none" instance-id="11" semantic-id="27" stroke="rgb(53,79,107)" stroke-width="0.1"/>
  <path d="M 20.48399799999993,5.631678999999963 A 0.2,0.2 0.0 0,0 20.648998000000006,5.819678999999951" fill="none" instance-id="11" semantic-id="27" stroke="rgb(53,79,107)" stroke-width="0.1"/>
  <path d="M 20.936998000000017,3.635678999999982 A 1.2002810087641698,1.2002810087641698 0.0 1,0 20.513998000000015,5.998678999999925" fill="none" instance-id="11" semantic-id="27" stroke="rgb(53,79,107)" stroke-width="0.1"/>
  <path d="M 61.37599799999998,5.102678999999966 A 0.3810265738764153,0.3810265738764153 0.0 1,0 61.24099799999999,5.852678999999966" fill="none" instance-id="2" semantic-id="28" stroke="rgb(53,79,107)" stroke-width="0.1"/>
  <path d="M 61.56799799999999,3.9756790000000137 A 1.46168,1.46168 0.0 0,0 59.80999799999995,5.199678999999946" fill="none" instance-id="2" semantic-id="28" stroke="rgb(53,79,107)" stroke-width="0.1"/>
  <path d="M 59.80599799999993,5.2176789999999755 A 1.46168,1.46168 0.0 0,0 61.030997999999954,6.975679000000014" fill="none" instance-id="2" semantic-id="28" stroke="rgb(53,79,107)" stroke-width="0.1"/>
  <path d="M 62.21099800000002,3.3166789999999082 A 0.508,0.508 0.0 0,0 61.62199799999996,3.72667899999999" fill="none" instance-id="2" semantic-id="28" stroke="rgb(53,79,107)" stroke-width="0.1"/>
  <path d="M 60.99499800000001,7.227678999999966 A 0.508,0.508 0.0 0,0 61.405997999999954,7.816678999999908" fill="none" instance-id="2" semantic-id="28" stroke="rgb(53,79,107)" stroke-width="0.1"/>
  <path d="M 60.03299800000002,4.603678999999943 A 0.635,0.635 0.0 0,0 59.80999799999995,5.853678999999943" fill="none" instance-id="2" semantic-id="28" stroke="rgb(53,79,107)" stroke-width="0.1"/>
  <path d="M 61.62199799999996,3.72667899999999 A 1.71568,1.71568 0.0 0,0 59.72499800000003,4.631678999999963" fill="none" instance-id="2" semantic-id="28" stroke="rgb(53,79,107)" stroke-width="0.1"/>
  <path d="M 59.52999799999998,5.721678999999995 A 1.71568,1.71568 0.0 0,0 60.99499800000001,7.227678999999966" fill="none" instance-id="2" semantic-id="28" stroke="rgb(53,79,107)" stroke-width="0.1"/>
  <path d="M 60.141997999999944,11.992678999999953 A 0.381,0.381 0.0 1,0 60.00799799999993,12.742678999999953" fill="none" instance-id="1" semantic-id="28" stroke="rgb(53,79,107)" stroke-width="0.1"/>
  <path d="M 58.572997999999984,12.108678999999938 A 1.46168,1.46168 0.0 0,0 59.79699800000003,13.866678999999976" fill="none" instance-id="1" semantic-id="28" stroke="rgb(53,79,107)" stroke-width="0.1"/>
  <path d="M 60.33399799999995,10.865679 A 1.46168,1.46168 0.0 0,0 58.57599800000003,12.089678999999933" fill="none" instance-id="1" semantic-id="28" stroke="rgb(53,79,107)" stroke-width="0.1"/>
  <path d="M 59.76199799999995,14.117678999999953 A 0.508,0.508 0.0 0,0 60.17199800000003,14.707678999999985" fill="none" instance-id="1" semantic-id="28" stroke="rgb(53,79,107)" stroke-width="0.1"/>
  <path d="M 60.97799799999996,10.206679000000008 A 0.508,0.508 0.0 0,0 60.38799800000004,10.617678999999953" fill="none" instance-id="1" semantic-id="28" stroke="rgb(53,79,107)" stroke-width="0.1"/>
  <path d="M 58.79999799999996,11.494678999999905 A 0.635,0.635 0.0 0,0 58.57599800000003,12.744678999999905" fill="none" instance-id="1" semantic-id="28" stroke="rgb(53,79,107)" stroke-width="0.1"/>
  <path d="M 58.29699800000003,12.611678999999981 A 1.71568,1.71568 0.0 0,0 59.76199799999995,14.117678999999953" fill="none" instance-id="1" semantic-id="28" stroke="rgb(53,79,107)" stroke-width="0.1"/>
  <path d="M 60.38799800000004,10.617678999999953 A 1.71568,1.71568 0.0 0,0 58.49199799999997,11.52167899999995" fill="none" instance-id="1" semantic-id="28" stroke="rgb(53,79,107)" stroke-width="0.1"/>
  <path d="M 62.22799799999996,0.3366790000000037 A 0.508,0.508 0.0 0,0 62.638998000000015,0.9266789999999219" fill="none" stroke="rgb(53,79,107)" stroke-width="0.1"/>
  <path d="M 61.69123357468061,0.16770807475904803 L 62.22799799999996,0.3366790000000037" fill="none" stroke="rgb(53,79,107)" stroke-width="0.1"/>
  <path d="M 41.808997999999974,1.6786789999999883 L 43.2245485498147,0.0" fill="none" stroke="rgb(53,79,107)" stroke-width="0.1"/>
  <path d="M 43.551312229779796,0.0 L 41.999998000000005,1.8396789999999328" fill="none" stroke="rgb(53,79,107)" stroke-width="0.1"/>
  <path d="M 41.999998000000005,1.8396789999999328 L 41.808997999999974,1.6786789999999883" fill="none" stroke="rgb(53,79,107)" stroke-width="0.1"/>
  <path d="M 40.22299799999996,10.537678999999912 L 44.09199799999999,5.951679000000013" fill="none" instance-id="6" semantic-id="3" stroke="rgb(53,79,107)" stroke-width="0.1"/>
  <path d="M 44.09199799999999,5.951679000000013 L 44.28299800000002,6.112678999999957" fill="none" instance-id="6" semantic-id="3" stroke="rgb(53,79,107)" stroke-width="0.1"/>
  <path d="M 44.28299800000002,6.112678999999957 L 40.41399799999999,10.69867899999997" fill="none" instance-id="6" semantic-id="3" stroke="rgb(53,79,107)" stroke-width="0.1"/>
  <path d="M 40.41399799999999,10.69867899999997 L 40.22299799999996,10.537678999999912" fill="none" instance-id="6" semantic-id="3" stroke="rgb(53,79,107)" stroke-width="0.1"/>
  <path d="M 17.187997999999993,6.414678999999978 L 15.150997999999959,0.7716789999999492" fill="none" instance-id="12" semantic-id="3" stroke="rgb(53,79,107)" stroke-width="0.1"/>
  <path d="M 15.150997999999959,0.7716789999999492 L 14.915997999999945,0.8566789999999855" fill="none" stroke="rgb(53,79,107)" stroke-width="0.1"/>
  <path d="M 14.915997999999945,0.8566789999999855 L 16.95299799999998,6.499679000000015" fill="none" instance-id="12" semantic-id="3" stroke="rgb(53,79,107)" stroke-width="0.1"/>
  <path d="M 16.95299799999998,6.499679000000015 L 17.187997999999993,6.414678999999978" fill="none" instance-id="12" semantic-id="3" stroke="rgb(53,79,107)" stroke-width="0.1"/>
  <path d="M 62.669997999999964,9.403679000000011 L 57.74799799999994,8.522678999999926" fill="none" stroke="rgb(53,79,107)" stroke-width="0.1"/>
  <path d="M 57.74799799999994,8.522678999999926 L 57.791998000000035,8.276678999999945" fill="none" stroke="rgb(53,79,107)" stroke-width="0.1"/>
  <path d="M 57.791998000000035,8.276678999999945 L 62.71399799999995,9.157678999999916" fill="none" stroke="rgb(53,79,107)" stroke-width="0.1"/>
  <path d="M 63.94699800000001,2.2666789999999537 L 59.02499799999998,1.385678999999982" fill="none" stroke="rgb(53,79,107)" stroke-width="0.1"/>
  <path d="M 59.02499799999998,1.385678999999982 L 58.980998,1.6316789999999628" fill="none" stroke="rgb(53,79,107)" stroke-width="0.1"/>
  <path d="M 58.980998,1.6316789999999628 L 63.902998000000025,2.5126789999999346" fill="none" stroke="rgb(53,79,107)" stroke-width="0.1"/>
  <circle cx="36.86999800000001" cy="7.706679000000008" fill="none" instance-id="10" r="0.3" semantic-id="27" stroke="rgb(53,79,107)" stroke-width="0.1"/>
  <circle cx="21.315998000000036" cy="4.9226790000000165" fill="none" instance-id="11" r="0.3" semantic-id="27" stroke="rgb(53,79,107)" stroke-width="0.1"/>
 </g>
 <g id="layerWALL" inkscape:groupmode="layer" inkscape:label="WALL">
  <path d="M 4.513998000000015,95.37867899999992 L 30.332823575190332,100.0" fill="none" instance-id="-1" semantic-id="1" stroke="rgb(178,178,0)" stroke-width="0.1"/>
  <path d="M 4.16199800000004,97.34767899999997 L 18.98058494851989,100.0" fill="none" instance-id="-1" semantic-id="1" stroke="rgb(178,178,0)" stroke-width="0.1"/>
  <path d="M 60.447997999999984,38.84767899999997 L 46.666998000000035,36.380678999999986" fill="none" instance-id="-1" semantic-id="1" stroke="rgb(178,178,0)" stroke-width="0.1"/>
  <path d="M 58.831998,36.526678999999945 L 47.01899800000001,34.411678999999936" fill="none" instance-id="-1" semantic-id="1" stroke="rgb(178,178,0)" stroke-width="0.1"/>
  <path d="M 60.447997999999984,38.84767899999997 L 61.328997999999956,33.92667899999992" fill="none" instance-id="-1" semantic-id="1" stroke="rgb(178,178,0)" stroke-width="0.1"/>
  <path d="M 61.328997999999956,33.92667899999992 L 59.35999800000002,33.574678999999946" fill="none" instance-id="-1" semantic-id="1" stroke="rgb(178,178,0)" stroke-width="0.1"/>
  <path d="M 59.35999800000002,33.574678999999946 L 58.831998,36.526678999999945" fill="none" instance-id="-1" semantic-id="1" stroke="rgb(178,178,0)" stroke-width="0.1"/>
  <path d="M 62.002997999999934,18.807679000000007 L 60.94499799999994,24.71567899999991" fill="none" instance-id="-1" semantic-id="1" stroke="rgb(178,178,0)" stroke-width="0.1"/>
  <path d="M 60.94499799999994,24.71567899999991 L 62.91399799999999,25.067679" fill="none" instance-id="-1" semantic-id="1" stroke="rgb(178,178,0)" stroke-width="0.1"/>
  <path d="M 62.91399799999999,25.067679 L 64.14799800000003,18.175678999999946" fill="none" instance-id="-1" semantic-id="1" stroke="rgb(178,178,0)" stroke-width="0.1"/>
  <path d="M 49.557998,14.548678999999993 L 62.35499800000002,16.838678999999956" fill="none" instance-id="-1" semantic-id="1" stroke="rgb(178,178,0)" stroke-width="0.1"/>
  <path d="M 50.189997999999946,16.693678999999975 L 62.002997999999934,18.807679000000007" fill="none" instance-id="-1" semantic-id="1" stroke="rgb(178,178,0)" stroke-width="0.1"/>
  <path d="M 31.237990678039296,0.0 L 29.283997999999997,10.919678999999974" fill="none" instance-id="-1" semantic-id="1" stroke="rgb(178,178,0)" stroke-width="0.1"/>
  <path d="M 29.206247829782342,0.0 L 27.314997999999946,10.567678999999998" fill="none" instance-id="-1" semantic-id="1" stroke="rgb(178,178,0)" stroke-width="0.1"/>
  <path d="M 29.283997999999997,10.919678999999974 L 49.557998,14.548678999999993" fill="none" instance-id="-1" semantic-id="1" stroke="rgb(178,178,0)" stroke-width="0.1"/>
  <path d="M 27.946998000000008,12.71267899999998 L 48.221997999999985,16.341679" fill="none" instance-id="-1" semantic-id="1" stroke="rgb(178,178,0)" stroke-width="0.1"/>
  <path d="M 62.35499800000002,16.838678999999956 L 65.36862544717235,0.0" fill="none" instance-id="-1" semantic-id="1" stroke="rgb(178,178,0)" stroke-width="0.1"/>
  <path d="M 64.14799800000003,18.175678999999946 L 67.40071809693893,0.0" fill="none" instance-id="-1" semantic-id="1" stroke="rgb(178,178,0)" stroke-width="0.1"/>
  <path d="M 0.7379979999999478,5.810678999999936 L 1.777967697135523,0.0" fill="none" instance-id="-1" semantic-id="1" stroke="rgb(178,178,0)" stroke-width="0.1"/>
  <path d="M 0.7379979999999478,5.810678999999936 L 27.314997999999946,10.567678999999998" fill="none" instance-id="-1" semantic-id="1" stroke="rgb(178,178,0)" stroke-width="0.1"/>
  <path d="M 0.0,7.710884955930737 L 27.946998000000008,12.71267899999998" fill="none" instance-id="-1" semantic-id="1" stroke="rgb(178,178,0)" stroke-width="0.1"/>
  <path d="M 45.050997999999936,34.05967899999996 L 48.221997999999985,16.341679" fill="none" instance-id="-1" semantic-id="1" stroke="rgb(178,178,0)" stroke-width="0.1"/>
  <path d="M 47.01899800000001,34.411678999999936 L 50.189997999999946,16.693678999999975" fill="none" instance-id="-1" semantic-id="1" stroke="rgb(178,178,0)" stroke-width="0.1"/>
  <path d="M 44.697997999999984,36.02867900000001 L 0.0,28.02869576408159" fill="none" instance-id="-1" semantic-id="1" stroke="rgb(178,178,0)" stroke-width="0.1"/>
  <path d="M 45.050997999999936,34.05967899999996 L 0.0,25.996439676055502" fill="none" instance-id="-1" semantic-id="1" stroke="rgb(178,178,0)" stroke-width="0.1"/>
  <path d="M 33.248509912100985,100.0 L 41.17499799999996,55.71567899999991" fill="none" instance-id="-1" semantic-id="1" stroke="rgb(178,178,0)" stroke-width="0.1"/>
  <path d="M 35.280501101472396,100.0 L 42.96699799999999,57.05267900000001" fill="none" instance-id="-1" semantic-id="1" stroke="rgb(178,178,0)" stroke-width="0.1"/>
  <path d="M 4.513998000000015,95.37867899999992 L 3.0359979999999496,95.11367899999993" fill="none" instance-id="-1" semantic-id="1" stroke="rgb(178,178,0)" stroke-width="0.1"/>
  <path d="M 3.0359979999999496,95.11367899999993 L 2.683997999999974,97.08267899999998" fill="none" instance-id="-1" semantic-id="1" stroke="rgb(178,178,0)" stroke-width="0.1"/>
  <path d="M 2.683997999999974,97.08267899999998 L 4.16199800000004,97.34767899999997" fill="none" instance-id="-1" semantic-id="1" stroke="rgb(178,178,0)" stroke-width="0.1"/>
  <path d="M 47.47085425750481,100.0 L 54.778998,59.16667899999993" fill="none" instance-id="-1" semantic-id="1" stroke="rgb(178,178,0)" stroke-width="0.1"/>
  <path d="M 49.50327701587662,100.0 L 57.100998000000004,57.54967899999997" fill="none" instance-id="-1" semantic-id="1" stroke="rgb(178,178,0)" stroke-width="0.1"/>
  <path d="M 54.778998,59.16667899999993 L 42.96699799999999,57.05267900000001" fill="none" instance-id="-1" semantic-id="1" stroke="rgb(178,178,0)" stroke-width="0.1"/>
  <path d="M 57.100998000000004,57.54967899999997 L 43.31999799999994,55.08367899999996" fill="none" instance-id="-1" semantic-id="1" stroke="rgb(178,178,0)" stroke-width="0.1"/>
  <path d="M 43.31999799999994,55.08367899999996 L 43.40799800000002,54.591679" fill="none" instance-id="-1" semantic-id="1" stroke="rgb(178,178,0)" stroke-width="0.1"/>
  <path d="M 43.40799800000002,54.591679 L 41.43899799999997,54.238678999999934" fill="none" instance-id="-1" semantic-id="1" stroke="rgb(178,178,0)" stroke-width="0.1"/>
  <path d="M 41.43899799999997,54.238678999999934 L 41.17499799999996,55.71567899999991" fill="none" instance-id="-1" semantic-id="1" stroke="rgb(178,178,0)" stroke-width="0.1"/>
  <path d="M 44.697997999999984,36.02867900000001 L 44.60999800000002,36.52067899999997" fill="none" instance-id="-1" semantic-id="1" stroke="rgb(178,178,0)" stroke-width="0.1"/>
  <path d="M 44.60999800000002,36.52067899999997 L 46.578997999999956,36.87267899999995" fill="none" instance-id="-1" semantic-id="1" stroke="rgb(178,178,0)" stroke-width="0.1"/>
  <path d="M 46.578997999999956,36.87267899999995 L 46.666998000000035,36.380678999999986" fill="none" instance-id="-1" semantic-id="1" stroke="rgb(178,178,0)" stroke-width="0.1"/>
 </g>
 <g id="layerWINDOW" inkscape:groupmode="layer" inkscape:label="WINDOW">
  <path d="M 59.35999800000002,33.574678999999946 L 60.94499799999994,24.71567899999991" fill="none" instance-id="21" semantic-id="3" stroke="rgb(0,178,0)" stroke-width="0.1"/>
  <path d="M 69.06099800000004,34.85367899999994 L 68.98199799999998,35.296678999999926" fill="none" instance-id="21" semantic-id="3" stroke="rgb(0,178,0)" stroke-width="0.1"/>
  <path d="M 60.34399799999994,33.75067899999999 L 60.42299800000001,33.30767900000001" fill="none" instance-id="21" semantic-id="3" stroke="rgb(0,178,0)" stroke-width="0.1"/>
  <path d="M 60.34399799999994,33.75067899999999 L 68.98199799999998,35.296678999999926" fill="none" instance-id="21" semantic-id="3" stroke="rgb(0,178,0)" stroke-width="0.1"/>
  <path d="M 60.42299800000001,33.30767900000001 L 69.06099800000004,34.85367899999994" fill="none" instance-id="21" semantic-id="3" stroke="rgb(0,178,0)" stroke-width="0.1"/>
  <path d="M 42.42299800000001,54.415678999999955 L 51.06099800000004,55.961679000000004" fill="none" instance-id="22" semantic-id="4" stroke="rgb(0,178,0)" stroke-width="0.1"/>
  <path d="M 42.502997999999934,53.97267899999997 L 51.13999799999999,55.518678999999906" fill="none" instance-id="22" semantic-id="4" stroke="rgb(0,178,0)" stroke-width="0.1"/>
  <path d="M 42.42299800000001,54.415678999999955 L 42.502997999999934,53.97267899999997" fill="none" instance-id="22" semantic-id="4" stroke="rgb(0,178,0)" stroke-width="0.1"/>
  <path d="M 51.13999799999999,55.518678999999906 L 51.06099800000004,55.961679000000004" fill="none" instance-id="22" semantic-id="4" stroke="rgb(0,178,0)" stroke-width="0.1"/>
  <path d="M 45.51499799999999,37.139679 L 54.152998000000025,38.685678999999936" fill="none" instance-id="22" semantic-id="4" stroke="rgb(0,178,0)" stroke-width="0.1"/>
  <path d="M 45.59399799999994,36.69667900000002 L 54.231997999999976,38.24267899999995" fill="none" instance-id="22" semantic-id="4" stroke="rgb(0,178,0)" stroke-width="0.1"/>
  <path d="M 54.152998000000025,38.685678999999936 L 54.231997999999976,38.24267899999995" fill="none" instance-id="22" semantic-id="4" stroke="rgb(0,178,0)" stroke-width="0.1"/>
  <path d="M 45.59399799999994,36.69667900000002 L 45.51499799999999,37.139679" fill="none" instance-id="22" semantic-id="4" stroke="rgb(0,178,0)" stroke-width="0.1"/>
  <path d="M 2.416998000000035,96.019679 L 1.7045311404423273,100.0" fill="none" stroke="rgb(0,178,0)" stroke-width="0.1"/>
  <path d="M 2.8599980000000187,96.09867899999995 L 2.1617527735586464,100.0" fill="none" stroke="rgb(0,178,0)" stroke-width="0.1"/>
  <path d="M 2.8599980000000187,96.09867899999995 L 2.416998000000035,96.019679" fill="none" stroke="rgb(0,178,0)" stroke-width="0.1"/>
  <path d="M 69.057998,34.85367899999994 A 8.775,8.775 0.0 0,0 61.929997999999955,24.891678999999954" fill="none" instance-id="21" semantic-id="3" stroke="rgb(0,178,0)" stroke-width="0.1"/>
  <path d="M 51.13699799999995,55.51767899999993 A 8.775,8.775 0.0 0,0 44.00899800000002,45.55567899999994" fill="none" instance-id="22" semantic-id="4" stroke="rgb(0,178,0)" stroke-width="0.1"/>
  <path d="M 44.00899800000002,45.55567899999994 A 8.775,8.775 0.0 0,0 54.14999799999998,38.685678999999936" fill="none" instance-id="22" semantic-id="4" stroke="rgb(0,178,0)" stroke-width="0.1"/>
 </g>
 <g id="layerWINDOW_TEXT" inkscape:groupmode="layer" inkscape:label="WINDOW_TEXT">
  <text fill="rgb(178,0,178)" font-family="Noto Sans CJK SC" font-size="2" transform="rotate(-259.853,54.63199799999995,21.675678999999946)" x="54.63199799999995" y="21.675678999999946">
   FM
  </text>
  <text fill="rgb(178,0,178)" font-family="Noto Sans CJK SC" font-size="2" transform="rotate(-259.853,53.98299799999995,25.302679000000012)" x="53.98299799999995" y="25.302679000000012">
   甲
  </text>
  <text fill="rgb(178,0,178)" font-family="Noto Sans CJK SC" font-size="2" transform="rotate(-259.853,53.38399800000002,28.65067899999997)" x="53.38399800000002" y="28.65067899999997">
   1823
  </text>
  <text fill="rgb(178,0,178)" font-family="Noto Sans CJK SC" font-size="2" transform="rotate(-259.853,39.17499799999996,40.72867899999994)" x="39.17499799999996" y="40.72867899999994">
   M1823
  </text>
 </g>
</svg>