<?xml version="1.0" encoding="utf-8"?>
<svg style="background-color: #000;" version="1.1" viewBox="0 0 99.99999999999989 100.0" xmlns="http://www.w3.org/2000/svg" xmlns:inkscape="http://www.inkscape.org/namespaces/inkscape">
 <g id="layer!消防-疏散楼梯" inkscape:groupmode="layer" inkscape:label="!消防-疏散楼梯">
  <path d="M 32.797369,59.68124450000002 L 43.11536899999999,85.82924450000002" fill="none" stroke="rgb(53,107,0)" stroke-width="0.1"/>
  <path d="M 43.11536899999999,85.82924450000002 L 99.99999999999989,69.59340567183926" fill="none" stroke="rgb(53,107,0)" stroke-width="0.1"/>
  <path d="M 99.99999999999989,40.42526687991227 L 32.797369,59.68124450000002" fill="none" stroke="rgb(53,107,0)" stroke-width="0.1"/>
  <path d="M 32.797369,59.68124450000002 L 43.11536899999999,85.82924450000002" fill="none" stroke="rgb(53,107,0)" stroke-width="0.1"/>
  <path d="M 43.11536899999999,85.82924450000002 L 99.99999999999989,69.59340567183926" fill="none" stroke="rgb(53,107,0)" stroke-width="0.1"/>
  <path d="M 99.99999999999989,40.42526687991227 L 32.797369,59.68124450000002" fill="none" stroke="rgb(53,107,0)" stroke-width="0.1"/>
 </g>
 <g id="layer0-结构边线" inkscape:groupmode="layer" inkscape:label="0-结构边线">
  <path d="M 26.148369000000002,64.61624450000002 L 33.585369000000014,61.66624450000003" fill="none" stroke="rgb(178,0,178)" stroke-width="0.1"/>
  <path d="M 33.585369000000014,61.66624450000003 L 30.634368999999992,54.22924450000002" fill="none" stroke="rgb(178,0,178)" stroke-width="0.1"/>
  <path d="M 23.198368999999957,57.180244500000015 L 30.634368999999992,54.22924450000002" fill="none" stroke="rgb(178,0,178)" stroke-width="0.1"/>
  <path d="M 26.148369000000002,64.61624450000002 L 23.198368999999957,57.180244500000015" fill="none" stroke="rgb(178,0,178)" stroke-width="0.1"/>
 </g>
 <g id="layerAXIS" inkscape:groupmode="layer" inkscape:label="AXIS">
  <path d="M 16.31636900000001,28.984244500000017 L 4.8176708395072865,0.0" fill="none" stroke="rgb(0,178,0)" stroke-width="0.1"/>
 </g>
 <g id="layerCOLUMN" inkscape:groupmode="layer" inkscape:label="COLUMN">
  <path d="M 0.0,53.74552023098042 L 25.325369000000023,43.698244500000015" fill="none" instance-id="-1" semantic-id="1" stroke="rgb(178,178,0)" stroke-width="0.1"/>
  <path d="M 0.0,58.04869360804739 L 26.800369000000046,47.41624450000003" fill="none" instance-id="-1" semantic-id="1" stroke="rgb(178,178,0)" stroke-width="0.1"/>
  <path d="M 25.325369000000023,43.698244500000015 L 99.99999999999989,14.072639672536354" fill="none" instance-id="-1" semantic-id="1" stroke="rgb(178,178,0)" stroke-width="0.1"/>
  <path d="M 26.800369000000046,47.41624450000003 L 99.99999999999989,18.37676163043119" fill="none" instance-id="-1" semantic-id="1" stroke="rgb(178,178,0)" stroke-width="0.1"/>
  <path d="M 26.148369000000002,64.61624450000002 L 33.585369000000014,61.66624450000003" fill="none" stroke="rgb(178,178,0)" stroke-width="0.1"/>
  <path d="M 33.585369000000014,61.66624450000003 L 30.634368999999992,54.22924450000002" fill="none" stroke="rgb(178,178,0)" stroke-width="0.1"/>
  <path d="M 30.634368999999992,54.22924450000002 L 23.198368999999957,57.180244500000015" fill="none" stroke="rgb(178,178,0)" stroke-width="0.1"/>
  <path d="M 23.198368999999957,57.180244500000015 L 26.148369000000002,64.61624450000002" fill="none" stroke="rgb(178,178,0)" stroke-width="0.1"/>
 </g>
 <g id="layerDIM_IDEN" inkscape:groupmode="layer" inkscape:label="DIM_IDEN">
  <path d="M 85.65236900000002,6.138244500000013 L 71.71236899999997,11.66924450000002" fill="none" stroke="rgb(0,178,0)" stroke-width="0.1"/>
  <path d="M 33.54636900000003,26.81224450000002 L 71.71236899999997,11.66924450000002" fill="none" stroke="rgb(0,178,0)" stroke-width="0.1"/>
  <path d="M 49.68636900000001,67.49624450000002 L 33.54636900000003,26.81224450000002" fill="none" stroke="rgb(0,178,0)" stroke-width="0.1"/>
  <circle cx="78.682369" cy="8.904244500000033" fill="none" r="7.5" stroke="rgb(0,178,0)" stroke-width="0.1"/>
 </g>
 <g id="layerDIM_SYMB" inkscape:groupmode="layer" inkscape:label="DIM_SYMB">
  <path d="M 59.21736899999996,58.57424450000002 L 66.15236900000002,56.62724450000002" fill="none" stroke="rgb(0,178,0)" stroke-width="0.1"/>
  <path d="M 66.15236900000002,56.62724450000002 L 70.48236899999995,55.41024450000003" fill="none" stroke="rgb(0,178,0)" stroke-width="0.1"/>
  <path d="M 98.80236899999989,63.03424450000003 L 91.87236900000005,64.98124450000003" fill="none" stroke="rgb(0,178,0)" stroke-width="0.1"/>
  <path d="M 91.87236900000005,64.98124450000003 L 87.5423689999999,66.19824450000002" fill="none" stroke="rgb(0,178,0)" stroke-width="0.1"/>
 </g>
 <g id="layerDOOR_FIRE" inkscape:groupmode="layer" inkscape:label="DOOR_FIRE">
  <path d="M 93.672369,22.55424450000004 L 93.47236899999996,22.043244500000014" fill="none" stroke="rgb(0,178,178)" stroke-width="0.1"/>
  <path d="M 99.99999999999989,19.453798100300958 L 93.47236899999996,22.043244500000014" fill="none" stroke="rgb(0,178,178)" stroke-width="0.1"/>
  <path d="M 99.99999999999989,20.044136114343104 L 93.672369,22.55424450000004" fill="none" stroke="rgb(0,178,178)" stroke-width="0.1"/>
  <path d="M 67.09236899999996,90.60224450000004 L 63.85236899999995,82.44624450000003" fill="none" instance-id="1" semantic-id="4" stroke="rgb(0,178,178)" stroke-width="0.1"/>
  <path d="M 66.672369,90.76824450000004 L 63.432368999999994,82.61224450000003" fill="none" instance-id="1" semantic-id="4" stroke="rgb(0,178,178)" stroke-width="0.1"/>
  <path d="M 67.09236899999996,90.60224450000004 L 66.672369,90.76824450000004" fill="none" instance-id="1" semantic-id="4" stroke="rgb(0,178,178)" stroke-width="0.1"/>
  <path d="M 63.432368999999994,82.61224450000003 L 63.85236899999995,82.44624450000003" fill="none" instance-id="1" semantic-id="4" stroke="rgb(0,178,178)" stroke-width="0.1"/>
  <path d="M 50.778369,97.07424450000002 L 47.54236900000001,88.91824450000001" fill="none" instance-id="1" semantic-id="4" stroke="rgb(0,178,178)" stroke-width="0.1"/>
  <path d="M 50.36036899999999,97.24024450000002 L 47.124369,89.08324450000003" fill="none" instance-id="1" semantic-id="4" stroke="rgb(0,178,178)" stroke-width="0.1"/>
  <path d="M 47.54236900000001,88.91824450000001 L 47.124369,89.08324450000003" fill="none" instance-id="1" semantic-id="4" stroke="rgb(0,178,178)" stroke-width="0.1"/>
  <path d="M 50.36036899999999,97.24024450000002 L 50.778369,97.07424450000002" fill="none" stroke="rgb(0,178,178)" stroke-width="0.1"/>
  <path d="M 93.672369,22.553244500000034 L 93.88019503251769,23.01037291639031" fill="none" stroke="rgb(0,178,178)" stroke-width="0.1"/>
  <path d="M 93.88019503251769,23.01037291639031 L 94.10919053446275,23.457272355808556" fill="none" stroke="rgb(0,178,178)" stroke-width="0.1"/>
  <path d="M 94.10919053446275,23.457272355808556 L 94.35885350413844,23.892963129679487" fill="none" stroke="rgb(0,178,178)" stroke-width="0.1"/>
  <path d="M 94.35885350413844,23.892963129679487 L 94.6286366328269,24.316490120954597" fill="none" stroke="rgb(0,178,178)" stroke-width="0.1"/>
  <path d="M 94.6286366328269,24.316490120954597 L 94.91794850459485,24.72692487791059" fill="none" stroke="rgb(0,178,178)" stroke-width="0.1"/>
  <path d="M 94.91794850459485,24.72692487791059 L 95.22615489279008,25.123367649491996" fill="none" stroke="rgb(0,178,178)" stroke-width="0.1"/>
  <path d="M 95.22615489279008,25.123367649491996 L 95.552580150386,25.50494935773662" fill="none" stroke="rgb(0,178,178)" stroke-width="0.1"/>
  <path d="M 95.552580150386,25.50494935773662 L 95.89650869112904,25.870833502959925" fill="none" stroke="rgb(0,178,178)" stroke-width="0.1"/>
  <path d="M 95.89650869112904,25.870833502959925 L 96.25718655824005,26.220217997521246" fill="none" stroke="rgb(0,178,178)" stroke-width="0.1"/>
  <path d="M 96.25718655824005,26.220217997521246 L 96.63382307722975,26.55233692415257" fill="none" stroke="rgb(0,178,178)" stroke-width="0.1"/>
  <path d="M 96.63382307722975,26.55233692415257 L 97.0255925892094,26.86646221499487" fill="none" stroke="rgb(0,178,178)" stroke-width="0.1"/>
  <path d="M 97.0255925892094,26.86646221499487 L 97.43163626089051,27.161905247661252" fill="none" stroke="rgb(0,178,178)" stroke-width="0.1"/>
  <path d="M 97.43163626089051,27.161905247661252 L 97.85106396731214,27.4380183548283" fill="none" stroke="rgb(0,178,178)" stroke-width="0.1"/>
  <path d="M 97.85106396731214,27.4380183548283 L 98.28295624316263,27.694196244046026" fill="none" stroke="rgb(0,178,178)" stroke-width="0.1"/>
  <path d="M 98.28295624316263,27.694196244046026 L 98.72636629842407,27.929877324654058" fill="none" stroke="rgb(0,178,178)" stroke-width="0.1"/>
  <path d="M 98.72636629842407,27.929877324654058 L 99.1803220939147,28.14454493889508" fill="none" stroke="rgb(0,178,178)" stroke-width="0.1"/>
  <path d="M 99.1803220939147,28.14454493889508 L 99.64382847218451,28.337728494527113" fill="none" stroke="rgb(0,178,178)" stroke-width="0.1"/>
  <path d="M 63.442368999999985,82.61424450000001 A 8.775,8.775 0.0 0,0 58.725369,93.9212445" fill="none" instance-id="1" semantic-id="4" stroke="rgb(0,178,178)" stroke-width="0.1"/>
  <path d="M 58.725369,93.9212445 A 8.775,8.775 0.0 0,0 47.543368999999984,88.92024450000002" fill="none" instance-id="1" semantic-id="4" stroke="rgb(0,178,178)" stroke-width="0.1"/>
  <path d="M 93.47236899999996,41.16124450000004 L 93.61855097986233,41.6417718318024" fill="none" stroke="rgb(0,178,178)" stroke-width="0.1"/>
  <path d="M 93.61855097986233,41.6417718318024 L 93.78707042177291,42.114928133191086" fill="none" stroke="rgb(0,178,178)" stroke-width="0.1"/>
  <path d="M 93.78707042177291,42.114928133191086 L 93.97755772671246,42.579675671648744" fill="none" stroke="rgb(0,178,178)" stroke-width="0.1"/>
  <path d="M 93.97755772671246,42.579675671648744 L 94.18959511546166,43.03499515686559" fill="none" stroke="rgb(0,178,178)" stroke-width="0.1"/>
  <path d="M 94.18959511546166,43.03499515686559 L 94.42271754487763,43.47988797626013" fill="none" stroke="rgb(0,178,178)" stroke-width="0.1"/>
  <path d="M 94.42271754487763,43.47988797626013 L 94.67641372783453,43.91337838514909" fill="none" stroke="rgb(0,178,178)" stroke-width="0.1"/>
  <path d="M 94.67641372783453,43.91337838514909 L 94.95012725458412,44.33451564676335" fill="none" stroke="rgb(0,178,178)" stroke-width="0.1"/>
  <path d="M 94.95012725458412,44.33451564676335 L 95.24325781308073,44.74237611741614" fill="none" stroke="rgb(0,178,178)" stroke-width="0.1"/>
  <path d="M 95.24325781308073,44.74237611741614 L 95.55516250559356,45.13606527225025" fill="none" stroke="rgb(0,178,178)" stroke-width="0.1"/>
  <path d="M 95.55516250559356,45.13606527225025 L 95.885157258719,45.51471966712154" fill="none" stroke="rgb(0,178,178)" stroke-width="0.1"/>
  <path d="M 95.885157258719,45.51471966712154 L 96.23251832369795,45.877508832315755" fill="none" stroke="rgb(0,178,178)" stroke-width="0.1"/>
  <path d="M 96.23251832369795,45.877508832315755 L 96.59648386375204,46.22363709394551" fill="none" stroke="rgb(0,178,178)" stroke-width="0.1"/>
  <path d="M 96.59648386375204,46.22363709394551 L 96.97625562495307,46.552345319032554" fill="none" stroke="rgb(0,178,178)" stroke-width="0.1"/>
  <path d="M 96.97625562495307,46.552345319032554 L 97.37100068696475,46.862912580447954" fill="none" stroke="rgb(0,178,178)" stroke-width="0.1"/>
  <path d="M 97.37100068696475,46.862912580447954 L 97.77985328981356,47.15465773805883" fill="none" stroke="rgb(0,178,178)" stroke-width="0.1"/>
  <path d="M 97.77985328981356,47.15465773805883 L 98.20191673268516,47.42694093261372" fill="none" stroke="rgb(0,178,178)" stroke-width="0.1"/>
  <path d="M 98.20191673268516,47.42694093261372 L 98.63626534058005,47.67916498909011" fill="none" stroke="rgb(0,178,178)" stroke-width="0.1"/>
  <path d="M 98.63626534058005,47.67916498909011 L 99.08194649451605,47.91077672642655" fill="none" stroke="rgb(0,178,178)" stroke-width="0.1"/>
  <path d="M 99.08194649451605,47.91077672642655 L 99.53798272082406,48.121268170766285" fill="none" stroke="rgb(0,178,178)" stroke-width="0.1"/>
 </g>
 <g id="layerDOOR_FIRE_TEXT" inkscape:groupmode="layer" inkscape:label="DOOR_FIRE_TEXT">
  <text fill="rgb(0,0,0)" font-family="Noto Sans CJK SC" font-size="2" transform="rotate(-111.64,96.62236900000005,36.369244500000036)" x="96.62236900000005" y="36.369244500000036">
   FM
  </text>
  <text fill="rgb(0,0,0)" font-family="Noto Sans CJK SC" font-size="2" transform="rotate(-111.64,95.26236899999992,32.94524450000003)" x="95.26236899999992" y="32.94524450000003">
   乙
  </text>
  <text fill="rgb(0,0,0)" font-family="Noto Sans CJK SC" font-size="2" transform="rotate(-111.64,94.01236899999992,29.783244500000023)" x="94.01236899999992" y="29.783244500000023">
   1120
  </text>
  <text fill="rgb(0,0,0)" font-family="Noto Sans CJK SC" font-size="2" transform="rotate(-21.6395,49.12836900000002,87.03024450000004)" x="49.12836900000002" y="87.03024450000004">
   FM
  </text>
  <text fill="rgb(0,0,0)" font-family="Noto Sans CJK SC" font-size="2" transform="rotate(-21.6395,52.552369,85.67124450000003)" x="52.552369" y="85.67124450000003">
   乙
  </text>
  <text fill="rgb(0,0,0)" font-family="Noto Sans CJK SC" font-size="2" transform="rotate(-21.6395,55.71436900000003,84.41724450000004)" x="55.71436900000003" y="84.41724450000004">
   1823
  </text>
 </g>
 <g id="layerPUB_HATCH" inkscape:groupmode="layer" inkscape:label="PUB_HATCH">
  <path d="M 0.0,58.04869360804739 L 26.800369000000046,47.41624450000003" fill="none" instance-id="-1" semantic-id="1" stroke="rgb(63,63,63)" stroke-width="0.1"/>
  <path d="M 26.800369000000046,47.41624450000003 L 25.325369000000023,43.698244500000015" fill="none" instance-id="-1" semantic-id="1" stroke="rgb(63,63,63)" stroke-width="0.1"/>
  <path d="M 25.325369000000023,43.698244500000015 L 0.0,53.74552023098042" fill="none" instance-id="-1" semantic-id="1" stroke="rgb(63,63,63)" stroke-width="0.1"/>
  <path d="M 25.325369000000023,43.698244500000015 L 26.800369000000046,47.41624450000003" fill="none" instance-id="-1" semantic-id="1" stroke="rgb(63,63,63)" stroke-width="0.1"/>
  <path d="M 26.800369000000046,47.41624450000003 L 99.99999999999989,18.37676163043119" fill="none" instance-id="-1" semantic-id="1" stroke="rgb(63,63,63)" stroke-width="0.1"/>
  <path d="M 99.99999999999989,14.072639672536354 L 25.325369000000023,43.698244500000015" fill="none" instance-id="-1" semantic-id="1" stroke="rgb(63,63,63)" stroke-width="0.1"/>
 </g>
 <g id="layerPUB_TEXT" inkscape:groupmode="layer" inkscape:label="PUB_TEXT">
  <text fill="rgb(0,0,0)" font-family="Noto Sans CJK SC" font-size="2" transform="rotate(-21.64,52.28436899999997,78.67624450000002)" x="52.28436899999997" y="78.67624450000002">
   LTA8
  </text>
  <text fill="rgb(0,0,0)" font-family="Noto Sans CJK SC" font-size="2" transform="rotate(-0.0,54.57336899999996,61.625244500000036)" x="54.57336899999996" y="61.625244500000036">
   上
  </text>
  <text fill="rgb(0,0,0)" font-family="Noto Sans CJK SC" font-size="2" transform="rotate(-21.6395,37.83836899999994,23.41524450000003)" x="37.83836899999994" y="23.41524450000003">
   LTA8
  </text>
  <text fill="rgb(0,0,0)" font-family="Noto Sans CJK SC" font-size="2" transform="rotate(-21.6395,51.22336900000005,18.10424450000002)" x="51.22336900000005" y="18.10424450000002">
   详见子项
  </text>
  <text fill="rgb(0,0,0)" font-family="Noto Sans CJK SC" font-size="2" transform="rotate(-21.6395,64.932369,12.667244500000038)" x="64.932369" y="12.667244500000038">
   02
  </text>
  <text fill="rgb(0,0,0)" font-family="Noto Sans CJK SC" font-size="2" transform="rotate(-21.6395,64.95236899999998,20.849244500000026)" x="64.95236899999998" y="20.849244500000026">
   41-
  </text>
  <text fill="rgb(0,0,0)" font-family="Noto Sans CJK SC" font-size="2" transform="rotate(-21.6395,76.96236899999997,8.095244500000035)" x="76.96236899999997" y="8.095244500000035">
   -
  </text>
  <text fill="rgb(0,0,0)" font-family="Noto Sans CJK SC" font-size="2" transform="rotate(-21.6395,77.22236899999996,14.174244500000015)" x="77.22236899999996" y="14.174244500000015">
   010
  </text>
 </g>
 <g id="layerS-JSJ" inkscape:groupmode="layer" inkscape:label="S-JSJ">
  <path d="M 30.962368999999967,94.92324450000001 L 31.129368999999997,94.75624450000004" fill="none" stroke="rgb(0,133,178)" stroke-width="0.1"/>
  <path d="M 33.38136899999995,94.74924450000003 L 34.85136899999998,93.27924450000003" fill="none" stroke="rgb(0,133,178)" stroke-width="0.1"/>
  <path d="M 35.799368999999956,94.57624450000003 L 38.57236899999998,91.80324450000003" fill="none" stroke="rgb(0,133,178)" stroke-width="0.1"/>
  <path d="M 38.21836899999994,94.40224450000005 L 41.88836900000001,90.73224450000004" fill="none" stroke="rgb(0,133,178)" stroke-width="0.1"/>
  <path d="M 40.637369000000035,94.22824450000002 L 42.526369000000045,92.33924450000004" fill="none" stroke="rgb(0,133,178)" stroke-width="0.1"/>
  <path d="M 42.362368999999944,94.7482445 L 43.164368999999965,93.94624450000003" fill="none" stroke="rgb(0,133,178)" stroke-width="0.1"/>
  <path d="M 43.09636899999998,96.25924450000002 L 43.80136900000002,95.55424450000004" fill="none" stroke="rgb(0,133,178)" stroke-width="0.1"/>
  <path d="M 43.831368999999995,97.76924450000001 L 44.43936899999994,97.16124450000001" fill="none" stroke="rgb(0,133,178)" stroke-width="0.1"/>
  <path d="M 44.56536900000003,99.28024450000004 L 45.077368999999976,98.76924450000001" fill="none" stroke="rgb(0,133,178)" stroke-width="0.1"/>
  <path d="M 30.650368999999955,94.94624450000003 L 32.655439169684996,100.0" fill="none" stroke="rgb(0,133,178)" stroke-width="0.1"/>
  <path d="M 45.56565690661603,100.0 L 41.80536900000004,90.52024450000002" fill="none" stroke="rgb(0,133,178)" stroke-width="0.1"/>
  <path d="M 41.80536900000004,90.52024450000002 L 30.650368999999955,94.94624450000003" fill="none" stroke="rgb(0,133,178)" stroke-width="0.1"/>
  <path d="M 30.650368999999955,94.94624450000003 L 42.05936899999995,94.12624450000004" fill="none" stroke="rgb(0,133,178)" stroke-width="0.1"/>
  <path d="M 42.05936899999995,94.12624450000004 L 44.91569852586463,100.0" fill="none" stroke="rgb(0,133,178)" stroke-width="0.1"/>
  <path d="M 30.650368999999955,94.94624450000003 L 42.05936899999995,94.12624450000004" fill="none" stroke="rgb(0,133,178)" stroke-width="0.1"/>
  <path d="M 42.05936899999995,94.12624450000004 L 44.91569852586463,100.0" fill="none" stroke="rgb(0,133,178)" stroke-width="0.1"/>
  <path d="M 45.56565690661603,100.0 L 41.80536900000004,90.52024450000002" fill="none" stroke="rgb(0,133,178)" stroke-width="0.1"/>
  <path d="M 41.80536900000004,90.52024450000002 L 30.650368999999955,94.94624450000003" fill="none" stroke="rgb(0,133,178)" stroke-width="0.1"/>
 </g>
 <g id="layerSTAIR" inkscape:groupmode="layer" inkscape:label="STAIR">
  <path d="M 61.21236899999997,51.26224450000004 L 64.57236899999998,63.200244500000025" fill="none" instance-id="5" semantic-id="30" stroke="rgb(178,88,0)" stroke-width="0.1"/>
  <path d="M 63.72236899999996,50.559244500000034 L 67.07236899999998,62.49724450000002" fill="none" instance-id="5" semantic-id="30" stroke="rgb(178,88,0)" stroke-width="0.1"/>
  <path d="M 66.22236899999996,49.855244500000026 L 69.57236899999998,61.793244500000014" fill="none" instance-id="5" semantic-id="30" stroke="rgb(178,88,0)" stroke-width="0.1"/>
  <path d="M 69.78236900000002,52.92224450000003 L 72.07236899999998,61.09024450000004" fill="none" instance-id="5" semantic-id="30" stroke="rgb(178,88,0)" stroke-width="0.1"/>
  <path d="M 73.682369,57.19524450000003 L 74.58236899999997,60.38724450000004" fill="none" instance-id="5" semantic-id="30" stroke="rgb(178,88,0)" stroke-width="0.1"/>
  <path d="M 58.71136899999999,51.96524450000004 L 66.83236899999997,49.68524450000004" fill="none" instance-id="5" semantic-id="30" stroke="rgb(178,88,0)" stroke-width="0.1"/>
  <path d="M 62.22236899999996,64.48024450000003 L 63.762369000000035,64.04824450000004" fill="none" instance-id="5" semantic-id="30" stroke="rgb(178,88,0)" stroke-width="0.1"/>
  <path d="M 58.71136899999999,51.96524450000004 L 62.22236899999996,64.48024450000003" fill="none" instance-id="5" semantic-id="30" stroke="rgb(178,88,0)" stroke-width="0.1"/>
  <path d="M 63.762369000000035,64.04824450000004 L 76.64236900000003,60.432244500000024" fill="none" instance-id="5" semantic-id="30" stroke="rgb(178,88,0)" stroke-width="0.1"/>
  <path d="M 76.64236900000003,60.432244500000024 L 72.20236899999998,55.575244500000025" fill="none" instance-id="5" semantic-id="30" stroke="rgb(178,88,0)" stroke-width="0.1"/>
  <path d="M 72.20236899999998,55.575244500000025 L 71.00236900000004,56.196244500000034" fill="none" instance-id="5" semantic-id="30" stroke="rgb(178,88,0)" stroke-width="0.1"/>
  <path d="M 71.00236900000004,56.196244500000034 L 72.25236900000004,53.81224450000002" fill="none" instance-id="5" semantic-id="30" stroke="rgb(178,88,0)" stroke-width="0.1"/>
  <path d="M 72.25236900000004,53.81224450000002 L 71.12236900000005,54.39524450000002" fill="none" instance-id="5" semantic-id="30" stroke="rgb(178,88,0)" stroke-width="0.1"/>
  <path d="M 71.12236900000005,54.39524450000002 L 66.83236899999997,49.68524450000004" fill="none" instance-id="5" semantic-id="30" stroke="rgb(178,88,0)" stroke-width="0.1"/>
  <path d="M 63.60236899999995,63.470244500000035 L 76.182369,59.936244500000015" fill="none" instance-id="5" semantic-id="30" stroke="rgb(178,88,0)" stroke-width="0.1"/>
  <path d="M 63.762369000000035,64.04824450000004 L 76.64236900000003,60.432244500000024" fill="none" instance-id="5" semantic-id="30" stroke="rgb(178,88,0)" stroke-width="0.1"/>
  <path d="M 63.60236899999995,63.470244500000035 L 63.762369000000035,64.04824450000004" fill="none" instance-id="5" semantic-id="30" stroke="rgb(178,88,0)" stroke-width="0.1"/>
  <path d="M 96.8123690000001,70.34624450000004 L 93.45236899999998,58.40824450000002" fill="none" instance-id="6" semantic-id="30" stroke="rgb(178,88,0)" stroke-width="0.1"/>
  <path d="M 94.30236899999989,71.04924450000001 L 90.95236899999998,59.111244500000026" fill="none" instance-id="6" semantic-id="30" stroke="rgb(178,88,0)" stroke-width="0.1"/>
  <path d="M 91.80236899999989,71.75224450000002 L 88.45236899999998,59.81424450000003" fill="none" instance-id="6" semantic-id="30" stroke="rgb(178,88,0)" stroke-width="0.1"/>
  <path d="M 88.24236899999994,68.68624450000002 L 85.94236899999999,60.51824450000004" fill="none" instance-id="6" semantic-id="30" stroke="rgb(178,88,0)" stroke-width="0.1"/>
  <path d="M 84.34236899999996,64.41224450000001 L 83.44236899999999,61.22124450000004" fill="none" instance-id="6" semantic-id="30" stroke="rgb(178,88,0)" stroke-width="0.1"/>
  <path d="M 99.3123690000001,69.64324450000004 L 91.19236899999999,71.92324450000004" fill="none" instance-id="6" semantic-id="30" stroke="rgb(178,88,0)" stroke-width="0.1"/>
  <path d="M 95.7923689999999,57.12724450000002 L 94.25236899999993,57.56024450000004" fill="none" instance-id="6" semantic-id="30" stroke="rgb(178,88,0)" stroke-width="0.1"/>
  <path d="M 99.3123690000001,69.64324450000004 L 95.7923689999999,57.12724450000002" fill="none" instance-id="6" semantic-id="30" stroke="rgb(178,88,0)" stroke-width="0.1"/>
  <path d="M 94.25236899999993,57.56024450000004 L 81.38236900000004,61.176244500000024" fill="none" instance-id="6" semantic-id="30" stroke="rgb(178,88,0)" stroke-width="0.1"/>
  <path d="M 81.38236900000004,61.176244500000024 L 85.8223690000001,66.03324450000002" fill="none" instance-id="6" semantic-id="30" stroke="rgb(178,88,0)" stroke-width="0.1"/>
  <path d="M 85.8223690000001,66.03324450000002 L 87.01236899999992,65.41224450000001" fill="none" instance-id="6" semantic-id="30" stroke="rgb(178,88,0)" stroke-width="0.1"/>
  <path d="M 87.01236899999992,65.41224450000001 L 85.77236899999991,67.79624450000003" fill="none" instance-id="6" semantic-id="30" stroke="rgb(178,88,0)" stroke-width="0.1"/>
  <path d="M 85.77236899999991,67.79624450000003 L 86.89236900000003,67.21324450000003" fill="none" instance-id="6" semantic-id="30" stroke="rgb(178,88,0)" stroke-width="0.1"/>
  <path d="M 86.89236900000003,67.21324450000003 L 91.19236899999999,71.92324450000004" fill="none" instance-id="6" semantic-id="30" stroke="rgb(178,88,0)" stroke-width="0.1"/>
  <path d="M 94.422369,58.13824450000001 L 81.84236899999996,61.67224450000003" fill="none" instance-id="6" semantic-id="30" stroke="rgb(178,88,0)" stroke-width="0.1"/>
  <path d="M 94.25236899999993,57.56024450000004 L 81.38236900000004,61.176244500000024" fill="none" instance-id="6" semantic-id="30" stroke="rgb(178,88,0)" stroke-width="0.1"/>
  <path d="M 94.422369,58.13824450000001 L 94.25236899999993,57.56024450000004" fill="none" instance-id="6" semantic-id="30" stroke="rgb(178,88,0)" stroke-width="0.1"/>
 </g>
 <g id="layerWALL" inkscape:groupmode="layer" inkscape:label="WALL">
  <path d="M 93.74236899999994,42.12424450000003 L 93.20236899999998,40.198244500000015" fill="none" instance-id="-1" semantic-id="1" stroke="rgb(178,178,0)" stroke-width="0.1"/>
  <path d="M 33.53736900000001,61.68524450000004 L 47.64336900000001,97.24224450000003" fill="none" instance-id="-1" semantic-id="1" stroke="rgb(178,178,0)" stroke-width="0.1"/>
  <path d="M 31.678368999999975,62.42224450000003 L 46.153369,98.9092445" fill="none" instance-id="-1" semantic-id="1" stroke="rgb(178,178,0)" stroke-width="0.1"/>
  <path d="M 27.730368999999996,47.04824450000004 L 30.587368999999967,54.24824450000003" fill="none" instance-id="-1" semantic-id="1" stroke="rgb(178,178,0)" stroke-width="0.1"/>
  <path d="M 25.87136899999996,47.78524450000003 L 28.728369000000043,54.986244500000026" fill="none" instance-id="-1" semantic-id="1" stroke="rgb(178,178,0)" stroke-width="0.1"/>
  <path d="M 48.38136899999995,99.1012445 L 50.72936900000002,98.17024450000002" fill="none" instance-id="-1" semantic-id="1" stroke="rgb(178,178,0)" stroke-width="0.1"/>
  <path d="M 50.72936900000002,98.17024450000002 L 49.99136899999996,96.31024450000001" fill="none" instance-id="-1" semantic-id="1" stroke="rgb(178,178,0)" stroke-width="0.1"/>
  <path d="M 49.99136899999996,96.31024450000001 L 47.64336900000001,97.24224450000003" fill="none" instance-id="-1" semantic-id="1" stroke="rgb(178,178,0)" stroke-width="0.1"/>
  <path d="M 69.07236899999998,88.74124450000002 L 66.72236899999996,89.67324450000004" fill="none" instance-id="-1" semantic-id="1" stroke="rgb(178,178,0)" stroke-width="0.1"/>
  <path d="M 66.72236899999996,89.67324450000004 L 67.46236899999997,91.53224450000002" fill="none" instance-id="-1" semantic-id="1" stroke="rgb(178,178,0)" stroke-width="0.1"/>
  <path d="M 67.46236899999997,91.53224450000002 L 69.81236899999999,90.60024450000003" fill="none" instance-id="-1" semantic-id="1" stroke="rgb(178,178,0)" stroke-width="0.1"/>
  <path d="M 69.81236899999999,90.60024450000003 L 73.5383561602946,100.0" fill="none" instance-id="-1" semantic-id="1" stroke="rgb(178,178,0)" stroke-width="0.1"/>
  <path d="M 75.69029418672199,100.0 L 71.302369,88.93324450000003" fill="none" instance-id="-1" semantic-id="1" stroke="rgb(178,178,0)" stroke-width="0.1"/>
  <path d="M 48.38136899999995,99.1012445 L 48.73792259638935,100.0" fill="none" instance-id="-1" semantic-id="1" stroke="rgb(178,178,0)" stroke-width="0.1"/>
  <path d="M 46.153369,98.9092445 L 46.58611387440362,100.0" fill="none" instance-id="-1" semantic-id="1" stroke="rgb(178,178,0)" stroke-width="0.1"/>
  <path d="M 82.99236899999994,24.85224450000004 L 89.49236899999994,41.24024450000002" fill="none" instance-id="-1" semantic-id="1" stroke="rgb(178,178,0)" stroke-width="0.1"/>
  <path d="M 81.13236900000004,25.589244500000035 L 87.5623690000001,41.78524450000003" fill="none" instance-id="-1" semantic-id="1" stroke="rgb(178,178,0)" stroke-width="0.1"/>
  <path d="M 82.99236899999994,24.85224450000004 L 81.13236900000004,25.589244500000035" fill="none" instance-id="-1" semantic-id="1" stroke="rgb(178,178,0)" stroke-width="0.1"/>
  <path d="M 68.01236900000004,80.64024450000002 L 71.302369,88.93324450000003" fill="none" instance-id="-1" semantic-id="1" stroke="rgb(178,178,0)" stroke-width="0.1"/>
  <path d="M 65.74236899999994,80.35424450000002 L 69.07236899999998,88.74124450000002" fill="none" instance-id="-1" semantic-id="1" stroke="rgb(178,178,0)" stroke-width="0.1"/>
  <path d="M 62.452368999999976,66.63324450000002 L 67.26236900000004,78.77324450000003" fill="none" instance-id="-1" semantic-id="1" stroke="rgb(178,178,0)" stroke-width="0.1"/>
  <path d="M 59.78036899999995,65.32424450000002 L 65.74236899999994,80.35424450000002" fill="none" instance-id="-1" semantic-id="1" stroke="rgb(178,178,0)" stroke-width="0.1"/>
  <path d="M 90.23236899999995,43.10924450000002 L 95.7923689999999,57.12724450000002" fill="none" instance-id="-1" semantic-id="1" stroke="rgb(178,178,0)" stroke-width="0.1"/>
  <path d="M 88.30236899999989,43.65424450000003 L 93.12236900000005,55.80224450000003" fill="none" instance-id="-1" semantic-id="1" stroke="rgb(178,178,0)" stroke-width="0.1"/>
  <path d="M 99.91555423301395,71.5514519937783 L 99.43165884201392,71.6873490049561" fill="none" instance-id="-1" semantic-id="1" stroke="rgb(178,178,0)" stroke-width="0.1"/>
  <path d="M 99.43165884201392,71.6873490049561 L 98.9477791229823,71.82330180774579" fill="none" instance-id="-1" semantic-id="1" stroke="rgb(178,178,0)" stroke-width="0.1"/>
  <path d="M 98.9477791229823,71.82330180774579 L 98.46391508234899,71.95931040033929" fill="none" instance-id="-1" semantic-id="1" stroke="rgb(178,178,0)" stroke-width="0.1"/>
  <path d="M 98.46391508234899,71.95931040033929 L 97.98006672654685,72.09537478092761" fill="none" instance-id="-1" semantic-id="1" stroke="rgb(178,178,0)" stroke-width="0.1"/>
  <path d="M 97.98006672654685,72.09537478092761 L 97.49623406200851,72.2314949477045" fill="none" instance-id="-1" semantic-id="1" stroke="rgb(178,178,0)" stroke-width="0.1"/>
  <path d="M 97.49623406200851,72.2314949477045 L 97.012417095165,72.36767089885825" fill="none" instance-id="-1" semantic-id="1" stroke="rgb(178,178,0)" stroke-width="0.1"/>
  <path d="M 97.012417095165,72.36767089885825 L 96.52861583245101,72.50390263257896" fill="none" instance-id="-1" semantic-id="1" stroke="rgb(178,178,0)" stroke-width="0.1"/>
  <path d="M 96.52861583245101,72.50390263257896 L 96.04483028029506,72.64019014705582" fill="none" instance-id="-1" semantic-id="1" stroke="rgb(178,178,0)" stroke-width="0.1"/>
  <path d="M 96.04483028029506,72.64019014705582 L 95.5610604451291,72.77653344047712" fill="none" instance-id="-1" semantic-id="1" stroke="rgb(178,178,0)" stroke-width="0.1"/>
  <path d="M 95.5610604451291,72.77653344047712 L 95.07730633338463,72.91293251103025" fill="none" instance-id="-1" semantic-id="1" stroke="rgb(178,178,0)" stroke-width="0.1"/>
  <path d="M 95.07730633338463,72.91293251103025 L 94.59356795149176,73.04938735690257" fill="none" instance-id="-1" semantic-id="1" stroke="rgb(178,178,0)" stroke-width="0.1"/>
  <path d="M 94.59356795149176,73.04938735690257 L 94.10984530588405,73.18589797627874" fill="none" instance-id="-1" semantic-id="1" stroke="rgb(178,178,0)" stroke-width="0.1"/>
  <path d="M 94.10984530588405,73.18589797627874 L 93.62613840298911,73.32246436734522" fill="none" instance-id="-1" semantic-id="1" stroke="rgb(178,178,0)" stroke-width="0.1"/>
  <path d="M 93.62613840298911,73.32246436734522 L 93.14244724923776,73.45908652828666" fill="none" instance-id="-1" semantic-id="1" stroke="rgb(178,178,0)" stroke-width="0.1"/>
  <path d="M 93.14244724923776,73.45908652828666 L 92.65877185106035,73.59576445728499" fill="none" instance-id="-1" semantic-id="1" stroke="rgb(178,178,0)" stroke-width="0.1"/>
  <path d="M 92.65877185106035,73.59576445728499 L 92.17511221488701,73.73249815252484" fill="none" instance-id="-1" semantic-id="1" stroke="rgb(178,178,0)" stroke-width="0.1"/>
  <path d="M 92.17511221488701,73.73249815252484 L 91.69146834714718,73.86928761218905" fill="none" instance-id="-1" semantic-id="1" stroke="rgb(178,178,0)" stroke-width="0.1"/>
  <path d="M 91.69146834714718,73.86928761218905 L 91.20784025427054,74.00613283445682" fill="none" instance-id="-1" semantic-id="1" stroke="rgb(178,178,0)" stroke-width="0.1"/>
  <path d="M 91.20784025427054,74.00613283445682 L 90.72422794268607,74.14303381751097" fill="none" instance-id="-1" semantic-id="1" stroke="rgb(178,178,0)" stroke-width="0.1"/>
  <path d="M 90.72422794268607,74.14303381751097 L 90.24063141882277,74.2799905595316" fill="none" instance-id="-1" semantic-id="1" stroke="rgb(178,178,0)" stroke-width="0.1"/>
  <path d="M 90.24063141882277,74.2799905595316 L 89.75705068911077,74.41700305869699" fill="none" instance-id="-1" semantic-id="1" stroke="rgb(178,178,0)" stroke-width="0.1"/>
  <path d="M 89.75705068911077,74.41700305869699 L 89.27348575997542,74.55407131318634" fill="none" instance-id="-1" semantic-id="1" stroke="rgb(178,178,0)" stroke-width="0.1"/>
  <path d="M 89.27348575997542,74.55407131318634 L 88.78993663784843,74.69119532117793" fill="none" instance-id="-1" semantic-id="1" stroke="rgb(178,178,0)" stroke-width="0.1"/>
  <path d="M 88.78993663784843,74.69119532117793 L 88.30640332915698,74.82837508084731" fill="none" instance-id="-1" semantic-id="1" stroke="rgb(178,178,0)" stroke-width="0.1"/>
  <path d="M 88.30640332915698,74.82837508084731 L 87.82288584032847,74.96561059037185" fill="none" instance-id="-1" semantic-id="1" stroke="rgb(178,178,0)" stroke-width="0.1"/>
  <path d="M 87.82288584032847,74.96561059037185 L 87.33938417779234,75.10290184792711" fill="none" instance-id="-1" semantic-id="1" stroke="rgb(178,178,0)" stroke-width="0.1"/>
  <path d="M 87.33938417779234,75.10290184792711 L 86.85589834797304,75.24024885168865" fill="none" instance-id="-1" semantic-id="1" stroke="rgb(178,178,0)" stroke-width="0.1"/>
  <path d="M 86.85589834797304,75.24024885168865 L 86.37242835730069,75.37765159982928" fill="none" instance-id="-1" semantic-id="1" stroke="rgb(178,178,0)" stroke-width="0.1"/>
  <path d="M 86.37242835730069,75.37765159982928 L 85.88897421220156,75.51511009052365" fill="none" instance-id="-1" semantic-id="1" stroke="rgb(178,178,0)" stroke-width="0.1"/>
  <path d="M 85.88897421220156,75.51511009052365 L 85.40553591910259,75.65262432194277" fill="none" instance-id="-1" semantic-id="1" stroke="rgb(178,178,0)" stroke-width="0.1"/>
  <path d="M 85.40553591910259,75.65262432194277 L 84.92211348443163,75.79019429226037" fill="none" instance-id="-1" semantic-id="1" stroke="rgb(178,178,0)" stroke-width="0.1"/>
  <path d="M 84.92211348443163,75.79019429226037 L 84.43870691461223,75.92781999964654" fill="none" instance-id="-1" semantic-id="1" stroke="rgb(178,178,0)" stroke-width="0.1"/>
  <path d="M 84.43870691461223,75.92781999964654 L 83.95531621607336,76.0655014422723" fill="none" instance-id="-1" semantic-id="1" stroke="rgb(178,178,0)" stroke-width="0.1"/>
  <path d="M 83.95531621607336,76.0655014422723 L 83.47194139524038,76.20323861830684" fill="none" instance-id="-1" semantic-id="1" stroke="rgb(178,178,0)" stroke-width="0.1"/>
  <path d="M 83.47194139524038,76.20323861830684 L 82.9885824585391,76.34103152591933" fill="none" instance-id="-1" semantic-id="1" stroke="rgb(178,178,0)" stroke-width="0.1"/>
  <path d="M 82.9885824585391,76.34103152591933 L 82.50523941239601,76.47888016327806" fill="none" instance-id="-1" semantic-id="1" stroke="rgb(178,178,0)" stroke-width="0.1"/>
  <path d="M 82.50523941239601,76.47888016327806 L 82.0219122632351,76.6167845285504" fill="none" instance-id="-1" semantic-id="1" stroke="rgb(178,178,0)" stroke-width="0.1"/>
  <path d="M 82.0219122632351,76.6167845285504 L 81.53860101748126,76.7547446199037" fill="none" instance-id="-1" semantic-id="1" stroke="rgb(178,178,0)" stroke-width="0.1"/>
  <path d="M 81.53860101748126,76.7547446199037 L 81.05530568156121,76.89276043550262" fill="none" instance-id="-1" semantic-id="1" stroke="rgb(178,178,0)" stroke-width="0.1"/>
  <path d="M 81.05530568156121,76.89276043550262 L 80.5720262618994,77.03083197351361" fill="none" instance-id="-1" semantic-id="1" stroke="rgb(178,178,0)" stroke-width="0.1"/>
  <path d="M 80.5720262618994,77.03083197351361 L 80.08876276492117,77.1689592321004" fill="none" instance-id="-1" semantic-id="1" stroke="rgb(178,178,0)" stroke-width="0.1"/>
  <path d="M 80.08876276492117,77.1689592321004 L 79.60551519704893,77.30714220942673" fill="none" instance-id="-1" semantic-id="1" stroke="rgb(178,178,0)" stroke-width="0.1"/>
  <path d="M 79.60551519704893,77.30714220942673 L 79.12228356470689,77.44538090365631" fill="none" instance-id="-1" semantic-id="1" stroke="rgb(178,178,0)" stroke-width="0.1"/>
  <path d="M 79.12228356470689,77.44538090365631 L 78.63906787432086,77.58367531295107" fill="none" instance-id="-1" semantic-id="1" stroke="rgb(178,178,0)" stroke-width="0.1"/>
  <path d="M 78.63906787432086,77.58367531295107 L 78.15586813231482,77.72202543547291" fill="none" instance-id="-1" semantic-id="1" stroke="rgb(178,178,0)" stroke-width="0.1"/>
  <path d="M 78.15586813231482,77.72202543547291 L 77.67268434511027,77.86043126938193" fill="none" instance-id="-1" semantic-id="1" stroke="rgb(178,178,0)" stroke-width="0.1"/>
  <path d="M 77.67268434511027,77.86043126938193 L 77.18951651913164,77.99889281283822" fill="none" instance-id="-1" semantic-id="1" stroke="rgb(178,178,0)" stroke-width="0.1"/>
  <path d="M 77.18951651913164,77.99889281283822 L 76.70636466080089,78.13741006400187" fill="none" instance-id="-1" semantic-id="1" stroke="rgb(178,178,0)" stroke-width="0.1"/>
  <path d="M 76.70636466080089,78.13741006400187 L 76.22322877654312,78.27598302103024" fill="none" instance-id="-1" semantic-id="1" stroke="rgb(178,178,0)" stroke-width="0.1"/>
  <path d="M 76.22322877654312,78.27598302103024 L 75.74010887278098,78.41461168208252" fill="none" instance-id="-1" semantic-id="1" stroke="rgb(178,178,0)" stroke-width="0.1"/>
  <path d="M 75.74010887278098,78.41461168208252 L 75.25700495593458,78.55329604531516" fill="none" instance-id="-1" semantic-id="1" stroke="rgb(178,178,0)" stroke-width="0.1"/>
  <path d="M 75.25700495593458,78.55329604531516 L 74.77391703242813,78.69203610888462" fill="none" instance-id="-1" semantic-id="1" stroke="rgb(178,178,0)" stroke-width="0.1"/>
  <path d="M 74.77391703242813,78.69203610888462 L 74.29084510868176,78.83083187094735" fill="none" instance-id="-1" semantic-id="1" stroke="rgb(178,178,0)" stroke-width="0.1"/>
  <path d="M 74.29084510868176,78.83083187094735 L 73.8077891911197,78.96968332965616" fill="none" instance-id="-1" semantic-id="1" stroke="rgb(178,178,0)" stroke-width="0.1"/>
  <path d="M 73.8077891911197,78.96968332965616 L 73.32474928616364,79.10859048316661" fill="none" instance-id="-1" semantic-id="1" stroke="rgb(178,178,0)" stroke-width="0.1"/>
  <path d="M 73.32474928616364,79.10859048316661 L 72.8417254002328,79.2475533296315" fill="none" instance-id="-1" semantic-id="1" stroke="rgb(178,178,0)" stroke-width="0.1"/>
  <path d="M 72.8417254002328,79.2475533296315 L 72.35871753974959,79.38657186720457" fill="none" instance-id="-1" semantic-id="1" stroke="rgb(178,178,0)" stroke-width="0.1"/>
  <path d="M 72.35871753974959,79.38657186720457 L 71.87572571113412,79.5256460940368" fill="none" instance-id="-1" semantic-id="1" stroke="rgb(178,178,0)" stroke-width="0.1"/>
  <path d="M 71.87572571113412,79.5256460940368 L 71.39274992080925,79.66477600828011" fill="none" instance-id="-1" semantic-id="1" stroke="rgb(178,178,0)" stroke-width="0.1"/>
  <path d="M 71.39274992080925,79.66477600828011 L 70.9097901751951,79.80396160808277" fill="none" instance-id="-1" semantic-id="1" stroke="rgb(178,178,0)" stroke-width="0.1"/>
  <path d="M 70.9097901751951,79.80396160808277 L 70.4268464807102,79.9432028915976" fill="none" instance-id="-1" semantic-id="1" stroke="rgb(178,178,0)" stroke-width="0.1"/>
  <path d="M 70.4268464807102,79.9432028915976 L 69.94391884377603,80.08249985697194" fill="none" instance-id="-1" semantic-id="1" stroke="rgb(178,178,0)" stroke-width="0.1"/>
  <path d="M 69.94391884377603,80.08249985697194 L 69.46100727081136,80.22185250235407" fill="none" instance-id="-1" semantic-id="1" stroke="rgb(178,178,0)" stroke-width="0.1"/>
  <path d="M 69.46100727081136,80.22185250235407 L 68.97811176823768,80.36126082589135" fill="none" instance-id="-1" semantic-id="1" stroke="rgb(178,178,0)" stroke-width="0.1"/>
  <path d="M 68.97811176823768,80.36126082589135 L 68.49523234247465,80.50072482573023" fill="none" instance-id="-1" semantic-id="1" stroke="rgb(178,178,0)" stroke-width="0.1"/>
  <path d="M 68.49523234247465,80.50072482573023 L 68.01236900000004,80.64024450000002" fill="none" instance-id="-1" semantic-id="1" stroke="rgb(178,178,0)" stroke-width="0.1"/>
  <path d="M 99.6555577744922,69.54679009327583 L 99.1715558225452,69.68265863607621" fill="none" instance-id="-1" semantic-id="1" stroke="rgb(178,178,0)" stroke-width="0.1"/>
  <path d="M 99.1715558225452,69.68265863607621 L 98.6875695350542,69.81858296771452" fill="none" instance-id="-1" semantic-id="1" stroke="rgb(178,178,0)" stroke-width="0.1"/>
  <path d="M 98.6875695350542,69.81858296771452 L 98.20359891844885,69.95456308638722" fill="none" instance-id="-1" semantic-id="1" stroke="rgb(178,178,0)" stroke-width="0.1"/>
  <path d="M 98.20359891844885,69.95456308638722 L 97.7196439791602,70.09059899028352" fill="none" instance-id="-1" semantic-id="1" stroke="rgb(178,178,0)" stroke-width="0.1"/>
  <path d="M 97.7196439791602,70.09059899028352 L 97.23570472361746,70.22669067759989" fill="none" instance-id="-1" semantic-id="1" stroke="rgb(178,178,0)" stroke-width="0.1"/>
  <path d="M 97.23570472361746,70.22669067759989 L 96.7517811582519,70.36283814652643" fill="none" instance-id="-1" semantic-id="1" stroke="rgb(178,178,0)" stroke-width="0.1"/>
  <path d="M 96.7517811582519,70.36283814652643 L 96.26787328949274,70.49904139525324" fill="none" instance-id="-1" semantic-id="1" stroke="rgb(178,178,0)" stroke-width="0.1"/>
  <path d="M 96.26787328949274,70.49904139525324 L 95.7839811237692,70.63530042197317" fill="none" instance-id="-1" semantic-id="1" stroke="rgb(178,178,0)" stroke-width="0.1"/>
  <path d="M 95.7839811237692,70.63530042197317 L 95.3001046675098,70.77161522487359" fill="none" instance-id="-1" semantic-id="1" stroke="rgb(178,178,0)" stroke-width="0.1"/>
  <path d="M 95.3001046675098,70.77161522487359 L 94.81624392714559,70.90798580214368" fill="none" instance-id="-1" semantic-id="1" stroke="rgb(178,178,0)" stroke-width="0.1"/>
  <path d="M 94.81624392714559,70.90798580214368 L 94.33239890910511,71.04441215197267" fill="none" instance-id="-1" semantic-id="1" stroke="rgb(178,178,0)" stroke-width="0.1"/>
  <path d="M 94.33239890910511,71.04441215197267 L 93.8485696198153,71.180894272547" fill="none" instance-id="-1" semantic-id="1" stroke="rgb(178,178,0)" stroke-width="0.1"/>
  <path d="M 93.8485696198153,71.180894272547 L 93.36475606570559,71.31743216205314" fill="none" instance-id="-1" semantic-id="1" stroke="rgb(178,178,0)" stroke-width="0.1"/>
  <path d="M 93.36475606570559,71.31743216205314 L 92.88095825320363,71.45402581867756" fill="none" instance-id="-1" semantic-id="1" stroke="rgb(178,178,0)" stroke-width="0.1"/>
  <path d="M 92.88095825320363,71.45402581867756 L 92.3971761887384,71.59067524060492" fill="none" instance-id="-1" semantic-id="1" stroke="rgb(178,178,0)" stroke-width="0.1"/>
  <path d="M 92.3971761887384,71.59067524060492 L 91.91340987873798,71.72738042601986" fill="none" instance-id="-1" semantic-id="1" stroke="rgb(178,178,0)" stroke-width="0.1"/>
  <path d="M 91.91340987873798,71.72738042601986 L 91.42965932962909,71.86414137310612" fill="none" instance-id="-1" semantic-id="1" stroke="rgb(178,178,0)" stroke-width="0.1"/>
  <path d="M 91.42965932962909,71.86414137310612 L 90.94592454783958,72.00095808004653" fill="none" instance-id="-1" semantic-id="1" stroke="rgb(178,178,0)" stroke-width="0.1"/>
  <path d="M 90.94592454783958,72.00095808004653 L 90.46220553979526,72.13783054502392" fill="none" instance-id="-1" semantic-id="1" stroke="rgb(178,178,0)" stroke-width="0.1"/>
  <path d="M 90.46220553979526,72.13783054502392 L 89.97850231192581,72.27475876621747" fill="none" instance-id="-1" semantic-id="1" stroke="rgb(178,178,0)" stroke-width="0.1"/>
  <path d="M 89.97850231192581,72.27475876621747 L 89.49481487065634,72.41174274181003" fill="none" instance-id="-1" semantic-id="1" stroke="rgb(178,178,0)" stroke-width="0.1"/>
  <path d="M 89.49481487065634,72.41174274181003 L 89.01114322241358,72.54878246998078" fill="none" instance-id="-1" semantic-id="1" stroke="rgb(178,178,0)" stroke-width="0.1"/>
  <path d="M 89.01114322241358,72.54878246998078 L 88.52748737362288,72.68587794891073" fill="none" instance-id="-1" semantic-id="1" stroke="rgb(178,178,0)" stroke-width="0.1"/>
  <path d="M 88.52748737362288,72.68587794891073 L 88.04384733071254,72.82302917677453" fill="none" instance-id="-1" semantic-id="1" stroke="rgb(178,178,0)" stroke-width="0.1"/>
  <path d="M 88.04384733071254,72.82302917677453 L 87.56022310010746,72.96023615175318" fill="none" instance-id="-1" semantic-id="1" stroke="rgb(178,178,0)" stroke-width="0.1"/>
  <path d="M 87.56022310010746,72.96023615175318 L 87.07661468823346,73.09749887202224" fill="none" instance-id="-1" semantic-id="1" stroke="rgb(178,178,0)" stroke-width="0.1"/>
  <path d="M 87.07661468823346,73.09749887202224 L 86.5930221015168,73.23481733575727" fill="none" instance-id="-1" semantic-id="1" stroke="rgb(178,178,0)" stroke-width="0.1"/>
  <path d="M 86.5930221015168,73.23481733575727 L 86.10944534638008,73.37219154113654" fill="none" instance-id="-1" semantic-id="1" stroke="rgb(178,178,0)" stroke-width="0.1"/>
  <path d="M 86.10944534638008,73.37219154113654 L 85.62588442925119,73.50962148633198" fill="none" instance-id="-1" semantic-id="1" stroke="rgb(178,178,0)" stroke-width="0.1"/>
  <path d="M 85.62588442925119,73.50962148633198 L 85.14233935655409,73.64710716951913" fill="none" instance-id="-1" semantic-id="1" stroke="rgb(178,178,0)" stroke-width="0.1"/>
  <path d="M 85.14233935655409,73.64710716951913 L 84.65881013471346,73.78464858886991" fill="none" instance-id="-1" semantic-id="1" stroke="rgb(178,178,0)" stroke-width="0.1"/>
  <path d="M 84.65881013471346,73.78464858886991 L 84.17529677015352,73.92224574255806" fill="none" instance-id="-1" semantic-id="1" stroke="rgb(178,178,0)" stroke-width="0.1"/>
  <path d="M 84.17529677015352,73.92224574255806 L 83.69179926929826,74.05989862875549" fill="none" instance-id="-1" semantic-id="1" stroke="rgb(178,178,0)" stroke-width="0.1"/>
  <path d="M 83.69179926929826,74.05989862875549 L 83.2083176385728,74.19760724563321" fill="none" instance-id="-1" semantic-id="1" stroke="rgb(178,178,0)" stroke-width="0.1"/>
  <path d="M 83.2083176385728,74.19760724563321 L 82.72485188440044,74.3353715913604" fill="none" instance-id="-1" semantic-id="1" stroke="rgb(178,178,0)" stroke-width="0.1"/>
  <path d="M 82.72485188440044,74.3353715913604 L 82.24140201320495,74.47319166410716" fill="none" instance-id="-1" semantic-id="1" stroke="rgb(178,178,0)" stroke-width="0.1"/>
  <path d="M 82.24140201320495,74.47319166410716 L 81.75796803140872,74.6110674620436" fill="none" instance-id="-1" semantic-id="1" stroke="rgb(178,178,0)" stroke-width="0.1"/>
  <path d="M 81.75796803140872,74.6110674620436 L 81.27454994543666,74.74899898333615" fill="none" instance-id="-1" semantic-id="1" stroke="rgb(178,178,0)" stroke-width="0.1"/>
  <path d="M 81.27454994543666,74.74899898333615 L 80.7911477617107,74.88698622615311" fill="none" instance-id="-1" semantic-id="1" stroke="rgb(178,178,0)" stroke-width="0.1"/>
  <path d="M 80.7911477617107,74.88698622615311 L 80.30776148665416,75.02502918866003" fill="none" instance-id="-1" semantic-id="1" stroke="rgb(178,178,0)" stroke-width="0.1"/>
  <path d="M 80.30776148665416,75.02502918866003 L 79.82439112668897,75.16312786902427" fill="none" instance-id="-1" semantic-id="1" stroke="rgb(178,178,0)" stroke-width="0.1"/>
  <path d="M 79.82439112668897,75.16312786902427 L 79.34103668823798,75.30128226540955" fill="none" instance-id="-1" semantic-id="1" stroke="rgb(178,178,0)" stroke-width="0.1"/>
  <path d="M 79.34103668823798,75.30128226540955 L 78.85769817772291,75.43949237598144" fill="none" instance-id="-1" semantic-id="1" stroke="rgb(178,178,0)" stroke-width="0.1"/>
  <path d="M 78.85769817772291,75.43949237598144 L 78.37437560156616,75.57775819890367" fill="none" instance-id="-1" semantic-id="1" stroke="rgb(178,178,0)" stroke-width="0.1"/>
  <path d="M 78.37437560156616,75.57775819890367 L 77.89106896618921,75.71607973233722" fill="none" instance-id="-1" semantic-id="1" stroke="rgb(178,178,0)" stroke-width="0.1"/>
  <path d="M 77.89106896618921,75.71607973233722 L 77.40777827801378,75.85445697444675" fill="none" instance-id="-1" semantic-id="1" stroke="rgb(178,178,0)" stroke-width="0.1"/>
  <path d="M 77.40777827801378,75.85445697444675 L 76.92450354345954,75.99288992339234" fill="none" instance-id="-1" semantic-id="1" stroke="rgb(178,178,0)" stroke-width="0.1"/>
  <path d="M 76.92450354345954,75.99288992339234 L 76.44124476895024,76.131378577335" fill="none" instance-id="-1" semantic-id="1" stroke="rgb(178,178,0)" stroke-width="0.1"/>
  <path d="M 76.44124476895024,76.131378577335 L 75.95800196090556,76.26992293443391" fill="none" instance-id="-1" semantic-id="1" stroke="rgb(178,178,0)" stroke-width="0.1"/>
  <path d="M 75.95800196090556,76.26992293443391 L 75.4747751257463,76.40852299285007" fill="none" instance-id="-1" semantic-id="1" stroke="rgb(178,178,0)" stroke-width="0.1"/>
  <path d="M 75.4747751257463,76.40852299285007 L 74.99156426989146,76.54717875073993" fill="none" instance-id="-1" semantic-id="1" stroke="rgb(178,178,0)" stroke-width="0.1"/>
  <path d="M 74.99156426989146,76.54717875073993 L 74.50836939976364,76.68589020626268" fill="none" instance-id="-1" semantic-id="1" stroke="rgb(178,178,0)" stroke-width="0.1"/>
  <path d="M 74.50836939976364,76.68589020626268 L 74.02519052178184,76.82465735757478" fill="none" instance-id="-1" semantic-id="1" stroke="rgb(178,178,0)" stroke-width="0.1"/>
  <path d="M 74.02519052178184,76.82465735757478 L 73.54202764236572,76.96348020283176" fill="none" instance-id="-1" semantic-id="1" stroke="rgb(178,178,0)" stroke-width="0.1"/>
  <path d="M 73.54202764236572,76.96348020283176 L 73.0588807679352,77.102358740191" fill="none" instance-id="-1" semantic-id="1" stroke="rgb(178,178,0)" stroke-width="0.1"/>
  <path d="M 73.0588807679352,77.102358740191 L 72.5757499049081,77.2412929678062" fill="none" instance-id="-1" semantic-id="1" stroke="rgb(178,178,0)" stroke-width="0.1"/>
  <path d="M 72.5757499049081,77.2412929678062 L 72.09263505970728,77.3802828838302" fill="none" instance-id="-1" semantic-id="1" stroke="rgb(178,178,0)" stroke-width="0.1"/>
  <path d="M 72.09263505970728,77.3802828838302 L 71.60953623874809,77.51932848641763" fill="none" instance-id="-1" semantic-id="1" stroke="rgb(178,178,0)" stroke-width="0.1"/>
  <path d="M 71.60953623874809,77.51932848641763 L 71.12645344845066,77.65842977372131" fill="none" instance-id="-1" semantic-id="1" stroke="rgb(178,178,0)" stroke-width="0.1"/>
  <path d="M 71.12645344845066,77.65842977372131 L 70.64338669523352,77.79758674389223" fill="none" instance-id="-1" semantic-id="1" stroke="rgb(178,178,0)" stroke-width="0.1"/>
  <path d="M 70.64338669523352,77.79758674389223 L 70.16033598551383,77.93679939508229" fill="none" instance-id="-1" semantic-id="1" stroke="rgb(178,178,0)" stroke-width="0.1"/>
  <path d="M 70.16033598551383,77.93679939508229 L 69.67730132571194,78.07606772544159" fill="none" instance-id="-1" semantic-id="1" stroke="rgb(178,178,0)" stroke-width="0.1"/>
  <path d="M 69.67730132571194,78.07606772544159 L 69.19428272224411,78.2153917331184" fill="none" instance-id="-1" semantic-id="1" stroke="rgb(178,178,0)" stroke-width="0.1"/>
  <path d="M 69.19428272224411,78.2153917331184 L 68.7112801815291,78.3547714162637" fill="none" instance-id="-1" semantic-id="1" stroke="rgb(178,178,0)" stroke-width="0.1"/>
  <path d="M 68.7112801815291,78.3547714162637 L 68.22829370998318,78.49420677302396" fill="none" instance-id="-1" semantic-id="1" stroke="rgb(178,178,0)" stroke-width="0.1"/>
  <path d="M 68.22829370998318,78.49420677302396 L 67.7453233140235,78.63369780154744" fill="none" instance-id="-1" semantic-id="1" stroke="rgb(178,178,0)" stroke-width="0.1"/>
  <path d="M 67.7453233140235,78.63369780154744 L 67.26236900000004,78.77324450000003" fill="none" instance-id="-1" semantic-id="1" stroke="rgb(178,178,0)" stroke-width="0.1"/>
  <path d="M 88.30236899999989,43.65424450000003 A 4389.25,4389.25 0.0 0,0 32.797369,59.68124450000002" fill="none" instance-id="-1" semantic-id="1" stroke="rgb(178,178,0)" stroke-width="0.1"/>
  <path d="M 87.5623690000001,41.78524450000003 A 4391.25,4391.25 0.0 0,0 32.057368999999994,57.81424450000003" fill="none" instance-id="-1" semantic-id="1" stroke="rgb(178,178,0)" stroke-width="0.1"/>
  <path d="M 95.7923689999999,57.12724450000002 A 4374.25,4374.25 0.0 0,0 62.452368999999976,66.63324450000002" fill="none" instance-id="-1" semantic-id="1" stroke="rgb(178,178,0)" stroke-width="0.1"/>
  <path d="M 93.12236900000005,55.80224450000003 A 4376.25,4376.25 0.0 0,0 59.78036899999995,65.32424450000002" fill="none" instance-id="-1" semantic-id="1" stroke="rgb(178,178,0)" stroke-width="0.1"/>
 </g>
 <g id="layers-消火栓" inkscape:groupmode="layer" inkscape:label="s-消火栓">
  <path d="M 36.48536899999999,68.97624450000004 L 36.13436899999999,61.585244500000016" fill="none" stroke="rgb(178,88,0)" stroke-width="0.1"/>
  <path d="M 38.716368999999986,68.09124450000002 L 36.13436899999999,61.585244500000016" fill="none" stroke="rgb(178,88,0)" stroke-width="0.1"/>
  <path d="M 36.13436899999999,61.585244500000016 L 33.904368999999974,62.470244500000035" fill="none" stroke="rgb(178,88,0)" stroke-width="0.1"/>
  <path d="M 33.904368999999974,62.470244500000035 L 36.48536899999999,68.97624450000004" fill="none" stroke="rgb(178,88,0)" stroke-width="0.1"/>
  <path d="M 36.48536899999999,68.97624450000004 L 38.716368999999986,68.09124450000002" fill="none" stroke="rgb(178,88,0)" stroke-width="0.1"/>
  <path d="M 33.904368999999974,62.470244500000035 L 36.48536899999999,68.97624450000004" fill="none" stroke="rgb(178,88,0)" stroke-width="0.1"/>
  <path d="M 36.48536899999999,68.97624450000004 L 36.13436899999999,61.585244500000016" fill="none" stroke="rgb(178,88,0)" stroke-width="0.1"/>
  <path d="M 36.13436899999999,61.585244500000016 L 33.904368999999974,62.470244500000035" fill="none" stroke="rgb(178,88,0)" stroke-width="0.1"/>
  <circle cx="34.39236900000003" cy="60.44724450000004" fill="none" r="0.6" stroke="rgb(178,178,0)" stroke-width="0.1"/>
 </g>
</svg>