<?xml version="1.0" encoding="utf-8"?>
<svg style="background-color: #000;" version="1.1" viewBox="0 0 100.0 100.0" xmlns="http://www.w3.org/2000/svg" xmlns:inkscape="http://www.inkscape.org/namespaces/inkscape">
 <g id="layer0-结构边线" inkscape:groupmode="layer" inkscape:label="0-结构边线">
  <path d="M 15.768369000000007,76.23024450000003 L 23.204369000000042,73.28024449999998" fill="none" stroke="rgb(178,0,178)" stroke-width="0.1"/>
  <path d="M 23.204369000000042,73.28024449999998 L 20.254368999999997,65.84024449999993" fill="none" stroke="rgb(178,0,178)" stroke-width="0.1"/>
  <path d="M 12.818368999999961,68.79024449999997 L 20.254368999999997,65.84024449999993" fill="none" stroke="rgb(178,0,178)" stroke-width="0.1"/>
  <path d="M 15.768369000000007,76.23024450000003 L 12.818368999999961,68.79024449999997" fill="none" stroke="rgb(178,0,178)" stroke-width="0.1"/>
 </g>
 <g id="layerA-车位" inkscape:groupmode="layer" inkscape:label="A-车位">
  <path d="M 56.09904634603049,100.0 L 70.68436899999995,90.18024450000007" fill="none" instance-id="-1" semantic-id="35" stroke="rgb(0,0,178)" stroke-width="0.1"/>
  <path d="M 70.68436899999995,90.18024450000007 L 77.29482520123054,100.0" fill="none" instance-id="-1" semantic-id="35" stroke="rgb(0,0,178)" stroke-width="0.1"/>
  <path d="M 64.63546709915659,100.0 L 63.37036899999998,98.12024450000013" fill="none" instance-id="-1" semantic-id="35" stroke="rgb(0,0,178)" stroke-width="0.1"/>
  <path d="M 64.03202372566261,100.0 L 62.95536900000002,98.4002445000001" fill="none" instance-id="-1" semantic-id="35" stroke="rgb(0,0,178)" stroke-width="0.1"/>
  <path d="M 65.841765953253,100.0 L 64.20036900000002,97.56024449999995" fill="none" instance-id="-1" semantic-id="35" stroke="rgb(0,0,178)" stroke-width="0.1"/>
  <path d="M 64.20036900000002,97.56024449999995 L 62.95536900000002,98.4002445000001" fill="none" instance-id="-1" semantic-id="35" stroke="rgb(0,0,178)" stroke-width="0.1"/>
  <path d="M 13.316369000000009,99.87024450000013 L 57.28036899999995,70.27024449999999" fill="none" instance-id="-1" semantic-id="35" stroke="rgb(0,0,178)" stroke-width="0.1"/>
  <path d="M 57.28036899999995,70.27024449999999 L 70.68436899999995,90.18024450000007" fill="none" instance-id="-1" semantic-id="35" stroke="rgb(0,0,178)" stroke-width="0.1"/>
  <path d="M 70.68436899999995,90.18024450000007 L 56.09904634603049,100.0" fill="none" instance-id="-1" semantic-id="35" stroke="rgb(0,0,178)" stroke-width="0.1"/>
  <path d="M 60.57836899999995,93.97024450000004 L 57.785368999999946,89.83024449999994" fill="none" instance-id="-1" semantic-id="35" stroke="rgb(0,0,178)" stroke-width="0.1"/>
  <path d="M 52.75936899999999,82.36024450000014 L 49.96736899999996,78.21024450000004" fill="none" instance-id="-1" semantic-id="35" stroke="rgb(0,0,178)" stroke-width="0.1"/>
  <path d="M 60.16336899999999,94.25024450000001 L 57.37136899999996,90.10024449999992" fill="none" instance-id="-1" semantic-id="35" stroke="rgb(0,0,178)" stroke-width="0.1"/>
  <path d="M 52.34436900000003,82.64024450000011 L 49.552369,78.49024450000002" fill="none" instance-id="-1" semantic-id="35" stroke="rgb(0,0,178)" stroke-width="0.1"/>
  <path d="M 61.40736900000002,93.41024450000009 L 58.61536899999999,89.27024449999999" fill="none" instance-id="-1" semantic-id="35" stroke="rgb(0,0,178)" stroke-width="0.1"/>
  <path d="M 53.58936900000003,81.80024449999996 L 50.79636900000003,77.6502445000001" fill="none" instance-id="-1" semantic-id="35" stroke="rgb(0,0,178)" stroke-width="0.1"/>
  <path d="M 61.40736900000002,93.41024450000009 L 60.16336899999999,94.25024450000001" fill="none" instance-id="-1" semantic-id="35" stroke="rgb(0,0,178)" stroke-width="0.1"/>
  <path d="M 50.79636900000003,77.6502445000001 L 49.552369,78.49024450000002" fill="none" instance-id="-1" semantic-id="35" stroke="rgb(0,0,178)" stroke-width="0.1"/>
  <path d="M 57.37136899999996,90.10024449999992 L 58.61536899999999,89.27024449999999" fill="none" instance-id="-1" semantic-id="35" stroke="rgb(0,0,178)" stroke-width="0.1"/>
  <path d="M 52.34436900000003,82.64024450000011 L 53.58936900000003,81.80024449999996" fill="none" instance-id="-1" semantic-id="35" stroke="rgb(0,0,178)" stroke-width="0.1"/>
  <path d="M 81.77736900000002,41.43024450000007 L 100.0,87.36910191762172" fill="none" instance-id="-1" semantic-id="35" stroke="rgb(0,0,178)" stroke-width="0.1"/>
  <path d="M 100.0,79.93004068115329 L 99.773369,80.02024449999999" fill="none" instance-id="-1" semantic-id="35" stroke="rgb(0,0,178)" stroke-width="0.1"/>
  <path d="M 100.0,79.38765335732728 L 99.58936900000003,79.55024449999996" fill="none" instance-id="-1" semantic-id="35" stroke="rgb(0,0,178)" stroke-width="0.1"/>
  <path d="M 100.0,80.58981665189867 L 99.58936900000003,79.55024449999996" fill="none" instance-id="-1" semantic-id="35" stroke="rgb(0,0,178)" stroke-width="0.1"/>
  <path d="M 59.46836899999994,50.28024449999998 L 79.01336900000001,99.55024449999996" fill="none" instance-id="-1" semantic-id="35" stroke="rgb(0,0,178)" stroke-width="0.1"/>
  <path d="M 79.01336900000001,99.55024449999996 L 100.0,91.22445624690704" fill="none" instance-id="-1" semantic-id="35" stroke="rgb(0,0,178)" stroke-width="0.1"/>
  <path d="M 100.0,87.36910191762172 L 81.77736900000002,41.43024450000007" fill="none" instance-id="-1" semantic-id="35" stroke="rgb(0,0,178)" stroke-width="0.1"/>
  <path d="M 95.12636899999995,81.86024450000014 L 90.47836900000004,83.70024450000005" fill="none" instance-id="-1" semantic-id="35" stroke="rgb(0,0,178)" stroke-width="0.1"/>
  <path d="M 82.11236899999994,87.02024449999999 L 77.46536900000001,88.87024450000013" fill="none" instance-id="-1" semantic-id="35" stroke="rgb(0,0,178)" stroke-width="0.1"/>
  <path d="M 94.94136900000001,81.4002445000001 L 90.29436899999996,83.24024450000002" fill="none" instance-id="-1" semantic-id="35" stroke="rgb(0,0,178)" stroke-width="0.1"/>
  <path d="M 81.92836899999998,86.56024449999995 L 77.28036899999995,88.4002445000001" fill="none" instance-id="-1" semantic-id="35" stroke="rgb(0,0,178)" stroke-width="0.1"/>
  <path d="M 95.494369,82.79024449999997 L 90.84736899999996,84.63024450000012" fill="none" instance-id="-1" semantic-id="35" stroke="rgb(0,0,178)" stroke-width="0.1"/>
  <path d="M 82.48136899999997,87.95024450000005 L 77.83336899999995,89.80024449999996" fill="none" instance-id="-1" semantic-id="35" stroke="rgb(0,0,178)" stroke-width="0.1"/>
  <path d="M 95.494369,82.79024449999997 L 94.94136900000001,81.4002445000001" fill="none" instance-id="-1" semantic-id="35" stroke="rgb(0,0,178)" stroke-width="0.1"/>
  <path d="M 77.83336899999995,89.80024449999996 L 77.28036899999995,88.4002445000001" fill="none" instance-id="-1" semantic-id="35" stroke="rgb(0,0,178)" stroke-width="0.1"/>
  <path d="M 90.29436899999996,83.24024450000002 L 90.84736899999996,84.63024450000012" fill="none" instance-id="-1" semantic-id="35" stroke="rgb(0,0,178)" stroke-width="0.1"/>
  <path d="M 81.92836899999998,86.56024449999995 L 82.48136899999997,87.95024450000005" fill="none" instance-id="-1" semantic-id="35" stroke="rgb(0,0,178)" stroke-width="0.1"/>
 </g>
 <g id="layerA-车位-lx" inkscape:groupmode="layer" inkscape:label="A-车位-lx">
  <path d="M 0.0,48.055864960492954 L 0.039368999999965126,48.04024449999997" fill="none" stroke="rgb(0,178,0)" stroke-width="0.1"/>
  <path d="M 63.39136899999994,16.720244500000035 L 100.0,2.197073265077506" fill="none" stroke="rgb(0,178,0)" stroke-width="0.1"/>
  <path d="M 9.018369000000007,42.42024450000008 L 63.39136899999994,16.720244500000035" fill="none" stroke="rgb(0,178,0)" stroke-width="0.1"/>
  <path d="M 0.2357170964270381,41.74914367421093 L 0.5490581765058096,41.35773692184944" fill="none" stroke="rgb(0,178,0)" stroke-width="0.1"/>
  <path d="M 0.5490581765058096,41.35773692184944 L 0.8580189084717631,40.962863341621414" fill="none" stroke="rgb(0,178,0)" stroke-width="0.1"/>
  <path d="M 0.8580189084717631,40.962863341621414 L 1.1625609381871982,40.56457195281678" fill="none" stroke="rgb(0,178,0)" stroke-width="0.1"/>
  <path d="M 1.1625609381871982,40.56457195281678 L 1.4626464600484042,40.1629121990095" fill="none" stroke="rgb(0,178,0)" stroke-width="0.1"/>
  <path d="M 1.4626464600484042,40.1629121990095 L 1.7582382216789938,39.7579339419201" fill="none" stroke="rgb(0,178,0)" stroke-width="0.1"/>
  <path d="M 1.7582382216789938,39.7579339419201 L 2.049299528554343,39.34968745522474" fill="none" stroke="rgb(0,178,0)" stroke-width="0.1"/>
  <path d="M 2.049299528554343,39.34968745522474 L 2.3357942485569083,38.938223418315374" fill="none" stroke="rgb(0,178,0)" stroke-width="0.1"/>
  <path d="M 2.3357942485569083,38.938223418315374 L 2.6176868164617417,38.52359291000812" fill="none" stroke="rgb(0,178,0)" stroke-width="0.1"/>
  <path d="M 2.6176868164617417,38.52359291000812 L 2.8949422383510637,38.105847402202244" fill="none" stroke="rgb(0,178,0)" stroke-width="0.1"/>
  <path d="M 2.8949422383510637,38.105847402202244 L 3.1675260959589195,37.68503875349029" fill="none" stroke="rgb(0,178,0)" stroke-width="0.1"/>
  <path d="M 3.1675260959589195,37.68503875349029 L 3.435404550943531,37.26121920272112" fill="none" stroke="rgb(0,178,0)" stroke-width="0.1"/>
  <path d="M 3.435404550943531,37.26121920272112 L 3.6985443490880243,36.834441362514326" fill="none" stroke="rgb(0,178,0)" stroke-width="0.1"/>
  <path d="M 3.6985443490880243,36.834441362514326 L 3.956912824428514,36.40475821272912" fill="none" stroke="rgb(0,178,0)" stroke-width="0.1"/>
  <path d="M 3.956912824428514,36.40475821272912 L 4.210477903309538,35.972223093887806" fill="none" stroke="rgb(0,178,0)" stroke-width="0.1"/>
  <path d="M 4.210477903309538,35.972223093887806 L 4.4592081083651465,35.536889700553274" fill="none" stroke="rgb(0,178,0)" stroke-width="0.1"/>
  <path d="M 4.4592081083651465,35.536889700553274 L 4.703072562426996,35.09881207466469" fill="none" stroke="rgb(0,178,0)" stroke-width="0.1"/>
  <path d="M 4.703072562426996,35.09881207466469 L 4.942040992356965,34.65804459882747" fill="none" stroke="rgb(0,178,0)" stroke-width="0.1"/>
  <path d="M 4.942040992356965,34.65804459882747 L 5.176083732805523,34.21464198956323" fill="none" stroke="rgb(0,178,0)" stroke-width="0.1"/>
  <path d="M 5.176083732805523,34.21464198956323 L 5.405171729894391,33.76865929051655" fill="none" stroke="rgb(0,178,0)" stroke-width="0.1"/>
  <path d="M 5.405171729894391,33.76865929051655 L 5.629276544823028,33.32015186562262" fill="none" stroke="rgb(0,178,0)" stroke-width="0.1"/>
  <path d="M 5.629276544823028,33.32015186562262 L 5.84837035739929,32.86917539223418" fill="none" stroke="rgb(0,178,0)" stroke-width="0.1"/>
  <path d="M 5.84837035739929,32.86917539223418 L 6.062425969492551,32.41578585420916" fill="none" stroke="rgb(0,178,0)" stroke-width="0.1"/>
  <path d="M 6.062425969492551,32.41578585420916 L 6.271416808410663,31.960039534962107" fill="none" stroke="rgb(0,178,0)" stroke-width="0.1"/>
  <path d="M 6.271416808410663,31.960039534962107 L 6.4753169301982325,31.501993010475644" fill="none" stroke="rgb(0,178,0)" stroke-width="0.1"/>
  <path d="M 6.4753169301982325,31.501993010475644 L 6.674101022857599,31.04170314227872" fill="none" stroke="rgb(0,178,0)" stroke-width="0.1"/>
  <path d="M 6.674101022857599,31.04170314227872 L 6.867744409490342,30.579227070386878" fill="none" stroke="rgb(0,178,0)" stroke-width="0.1"/>
  <path d="M 6.867744409490342,30.579227070386878 L 7.05622305136194,30.114622206209333" fill="none" stroke="rgb(0,178,0)" stroke-width="0.1"/>
  <path d="M 7.05622305136194,30.114622206209333 L 7.239513550884453,29.647946225421947" fill="none" stroke="rgb(0,178,0)" stroke-width="0.1"/>
  <path d="M 7.239513550884453,29.647946225421947 L 7.417593154522137,29.17925706080723" fill="none" stroke="rgb(0,178,0)" stroke-width="0.1"/>
  <path d="M 7.417593154522137,29.17925706080723 L 7.5904397556155345,28.708612895062515" fill="none" stroke="rgb(0,178,0)" stroke-width="0.1"/>
  <path d="M 7.5904397556155345,28.708612895062515 L 7.758031897126216,28.236072153577652" fill="none" stroke="rgb(0,178,0)" stroke-width="0.1"/>
  <path d="M 7.758031897126216,28.236072153577652 L 7.920348774299782,27.761693497182023" fill="none" stroke="rgb(0,178,0)" stroke-width="0.1"/>
  <path d="M 7.920348774299782,27.761693497182023 L 8.07737023724917,27.285535814862214" fill="none" stroke="rgb(0,178,0)" stroke-width="0.1"/>
  <path d="M 8.07737023724917,27.285535814862214 L 8.229076793455647,26.807658216451046" fill="none" stroke="rgb(0,178,0)" stroke-width="0.1"/>
  <path d="M 8.229076793455647,26.807658216451046 L 8.375449610188866,26.328120025291355" fill="none" stroke="rgb(0,178,0)" stroke-width="0.1"/>
  <path d="M 8.375449610188866,26.328120025291355 L 8.516470516844606,25.846980770870232" fill="none" stroke="rgb(0,178,0)" stroke-width="0.1"/>
  <path d="M 8.516470516844606,25.846980770870232 L 8.652122007200433,25.364300181428916" fill="none" stroke="rgb(0,178,0)" stroke-width="0.1"/>
  <path d="M 8.652122007200433,25.364300181428916 L 8.782387241588935,24.880138176549508" fill="none" stroke="rgb(0,178,0)" stroke-width="0.1"/>
  <path d="M 8.782387241588935,24.880138176549508 L 8.907250048988317,24.394554859715527" fill="none" stroke="rgb(0,178,0)" stroke-width="0.1"/>
  <path d="M 8.907250048988317,24.394554859715527 L 9.026694929029645,23.9076105108511" fill="none" stroke="rgb(0,178,0)" stroke-width="0.1"/>
  <path d="M 9.026694929029645,23.9076105108511 L 9.140707053921119,23.419365578837642" fill="none" stroke="rgb(0,178,0)" stroke-width="0.1"/>
  <path d="M 9.140707053921119,23.419365578837642 L 9.249272270288884,22.929880674010064" fill="none" stroke="rgb(0,178,0)" stroke-width="0.1"/>
  <path d="M 9.249272270288884,22.929880674010064 L 9.35237710093395,22.439216560632303" fill="none" stroke="rgb(0,178,0)" stroke-width="0.1"/>
  <path d="M 9.35237710093395,22.439216560632303 L 9.450008746505205,21.94743414935465" fill="none" stroke="rgb(0,178,0)" stroke-width="0.1"/>
  <path d="M 9.450008746505205,21.94743414935465 L 9.542155087088304,21.454594489651527" fill="none" stroke="rgb(0,178,0)" stroke-width="0.1"/>
  <path d="M 9.542155087088304,21.454594489651527 L 9.628804683710428,20.960758762243813" fill="none" stroke="rgb(0,178,0)" stroke-width="0.1"/>
  <path d="M 9.628804683710428,20.960758762243813 L 9.709946779759889,20.465988271503193" fill="none" stroke="rgb(0,178,0)" stroke-width="0.1"/>
  <path d="M 9.709946779759889,20.465988271503193 L 9.785571302322069,19.97034443784196" fill="none" stroke="rgb(0,178,0)" stroke-width="0.1"/>
  <path d="M 9.785571302322069,19.97034443784196 L 9.85566886342906,19.47388879008895" fill="none" stroke="rgb(0,178,0)" stroke-width="0.1"/>
  <path d="M 9.85566886342906,19.47388879008895 L 9.92023076122598,18.97668295785047" fill="none" stroke="rgb(0,178,0)" stroke-width="0.1"/>
  <path d="M 9.92023076122598,18.97668295785047 L 9.979248981050546,18.478788663860314" fill="none" stroke="rgb(0,178,0)" stroke-width="0.1"/>
  <path d="M 9.979248981050546,18.478788663860314 L 10.032716196428055,17.980267716317712" fill="none" stroke="rgb(0,178,0)" stroke-width="0.1"/>
  <path d="M 10.032716196428055,17.980267716317712 L 10.080625769981225,17.481182001213483" fill="none" stroke="rgb(0,178,0)" stroke-width="0.1"/>
  <path d="M 10.080625769981225,17.481182001213483 L 10.122971754254081,16.981593474648662" fill="none" stroke="rgb(0,178,0)" stroke-width="0.1"/>
  <path d="M 10.122971754254081,16.981593474648662 L 10.159748892450011,16.481564155143133" fill="none" stroke="rgb(0,178,0)" stroke-width="0.1"/>
  <path d="M 10.159748892450011,16.481564155143133 L 10.190952619084555,15.981156115936074" fill="none" stroke="rgb(0,178,0)" stroke-width="0.1"/>
  <path d="M 10.190952619084555,15.981156115936074 L 10.216579060551908,15.480431477280263" fill="none" stroke="rgb(0,178,0)" stroke-width="0.1"/>
  <path d="M 10.216579060551908,15.480431477280263 L 10.23662503560638,14.979452398731837" fill="none" stroke="rgb(0,178,0)" stroke-width="0.1"/>
  <path d="M 10.23662503560638,14.979452398731837 L 10.251088055756554,14.47828107143232" fill="none" stroke="rgb(0,178,0)" stroke-width="0.1"/>
  <path d="M 10.251088055756554,14.47828107143232 L 10.259966325574737,13.976979710388832" fill="none" stroke="rgb(0,178,0)" stroke-width="0.1"/>
  <path d="M 10.259966325574737,13.976979710388832 L 10.263258742919561,13.475610546750659" fill="none" stroke="rgb(0,178,0)" stroke-width="0.1"/>
  <path d="M 10.263258742919561,13.475610546750659 L 10.260964899072974,12.974235820084687" fill="none" stroke="rgb(0,178,0)" stroke-width="0.1"/>
  <path d="M 10.260964899072974,12.974235820084687 L 10.25308507879106,12.472917770647427" fill="none" stroke="rgb(0,178,0)" stroke-width="0.1"/>
  <path d="M 10.25308507879106,12.472917770647427 L 10.239620260268225,11.971718631660679" fill="none" stroke="rgb(0,178,0)" stroke-width="0.1"/>
  <path d="M 10.239620260268225,11.971718631660679 L 10.220572115016353,11.470700621583546" fill="none" stroke="rgb(0,178,0)" stroke-width="0.1"/>
  <path d="M 10.220572115016353,11.470700621583546 L 10.195943007656865,10.969925936390837" fill="none" stroke="rgb(0,178,0)" stroke-width="0.1"/>
  <path d="M 10.195943007656865,10.969925936390837 L 10.165735995627529,10.46945674185099" fill="none" stroke="rgb(0,178,0)" stroke-width="0.1"/>
  <path d="M 10.165735995627529,10.46945674185099 L 10.129954828802624,9.96935516580902" fill="none" stroke="rgb(0,178,0)" stroke-width="0.1"/>
  <path d="M 10.129954828802624,9.96935516580902 L 10.088603949027402,9.469683290473995" fill="none" stroke="rgb(0,178,0)" stroke-width="0.1"/>
  <path d="M 10.088603949027402,9.469683290473995 L 10.041688489567036,8.970503144712211" fill="none" stroke="rgb(0,178,0)" stroke-width="0.1"/>
  <path d="M 10.041688489567036,8.970503144712211 L 9.989214274469191,8.47187669634718" fill="none" stroke="rgb(0,178,0)" stroke-width="0.1"/>
  <path d="M 9.989214274469191,8.47187669634718 L 9.93118781784085,7.973865844467355" fill="none" stroke="rgb(0,178,0)" stroke-width="0.1"/>
  <path d="M 9.93118781784085,7.973865844467355 L 9.86761632303967,7.476532411740436" fill="none" stroke="rgb(0,178,0)" stroke-width="0.1"/>
  <path d="M 9.86761632303967,7.476532411740436 L 9.798507681780393,6.979938136740884" fill="none" stroke="rgb(0,178,0)" stroke-width="0.1"/>
  <path d="M 9.798507681780393,6.979938136740884 L 9.723870473154307,6.48414466628401" fill="none" stroke="rgb(0,178,0)" stroke-width="0.1"/>
  <path d="M 9.723870473154307,6.48414466628401 L 9.643713962564561,5.989213547774398" fill="none" stroke="rgb(0,178,0)" stroke-width="0.1"/>
  <path d="M 9.643713962564561,5.989213547774398 L 9.558048100576457,5.495206221564558" fill="none" stroke="rgb(0,178,0)" stroke-width="0.1"/>
  <path d="M 9.558048100576457,5.495206221564558 L 9.466883521681211,5.002184013328588" fill="none" stroke="rgb(0,178,0)" stroke-width="0.1"/>
  <path d="M 9.466883521681211,5.002184013328588 L 9.370231542976853,4.510208126448333" fill="none" stroke="rgb(0,178,0)" stroke-width="0.1"/>
  <path d="M 9.370231542976853,4.510208126448333 L 9.268104162762597,4.019339634416383" fill="none" stroke="rgb(0,178,0)" stroke-width="0.1"/>
  <path d="M 9.268104162762597,4.019339634416383 L 9.160514059049433,3.5296394732545195" fill="none" stroke="rgb(0,178,0)" stroke-width="0.1"/>
  <path d="M 9.160514059049433,3.5296394732545195 L 9.047474587986926,3.041168433948087" fill="none" stroke="rgb(0,178,0)" stroke-width="0.1"/>
  <path d="M 9.047474587986926,3.041168433948087 L 8.9289997822043,2.5539871549010513" fill="none" stroke="rgb(0,178,0)" stroke-width="0.1"/>
  <path d="M 8.9289997822043,2.5539871549010513 L 8.805104349069211,2.068156114407202" fill="none" stroke="rgb(0,178,0)" stroke-width="0.1"/>
  <path d="M 8.805104349069211,2.068156114407202 L 8.675803668861363,1.5837356231427293" fill="none" stroke="rgb(0,178,0)" stroke-width="0.1"/>
  <path d="M 8.675803668861363,1.5837356231427293 L 8.541113792863712,1.1007858166794904" fill="none" stroke="rgb(0,178,0)" stroke-width="0.1"/>
  <path d="M 8.541113792863712,1.1007858166794904 L 8.401051441369646,0.6193666480198772" fill="none" stroke="rgb(0,178,0)" stroke-width="0.1"/>
  <path d="M 8.401051441369646,0.6193666480198772 L 8.255634001607177,0.13953788015351165" fill="none" stroke="rgb(0,178,0)" stroke-width="0.1"/>
  <path d="M 9.6697552637429,0.32219714539337474 L 9.95534333666592,0.7341932038107188" fill="none" stroke="rgb(0,178,0)" stroke-width="0.1"/>
  <path d="M 9.95534333666592,0.7341932038107188 L 10.24550325026189,1.14298229868632" fill="none" stroke="rgb(0,178,0)" stroke-width="0.1"/>
  <path d="M 10.24550325026189,1.14298229868632 L 10.54019899585785,1.5485136995357607" fill="none" stroke="rgb(0,178,0)" stroke-width="0.1"/>
  <path d="M 10.54019899585785,1.5485136995357607 L 10.839394001886262,1.9507370801527486" fill="none" stroke="rgb(0,178,0)" stroke-width="0.1"/>
  <path d="M 10.839394001886262,1.9507370801527486 L 11.143051138424198,2.3496025248541628" fill="none" stroke="rgb(0,178,0)" stroke-width="0.1"/>
  <path d="M 11.143051138424198,2.3496025248541628 L 11.451132721801173,2.745060534674394" fill="none" stroke="rgb(0,178,0)" stroke-width="0.1"/>
  <path d="M 11.451132721801173,2.745060534674394 L 11.763600519275428,3.1370620335094372" fill="none" stroke="rgb(0,178,0)" stroke-width="0.1"/>
  <path d="M 11.763600519275428,3.1370620335094372 L 12.080415753778198,3.5255583742055023" fill="none" stroke="rgb(0,178,0)" stroke-width="0.1"/>
  <path d="M 12.080415753778198,3.5255583742055023 L 12.401539108726979,3.9105013445969234" fill="none" stroke="rgb(0,178,0)" stroke-width="0.1"/>
  <path d="M 12.401539108726979,3.9105013445969234 L 12.726930732903725,4.291843173489042" fill="none" stroke="rgb(0,178,0)" stroke-width="0.1"/>
  <path d="M 12.726930732903725,4.291843173489042 L 13.056550245400672,4.6695365365874295" fill="none" stroke="rgb(0,178,0)" stroke-width="0.1"/>
  <path d="M 13.056550245400672,4.6695365365874295 L 13.390356740631773,5.043534562369359" fill="none" stroke="rgb(0,178,0)" stroke-width="0.1"/>
  <path d="M 13.390356740631773,5.043534562369359 L 13.728308793408928,5.413790837901615" fill="none" stroke="rgb(0,178,0)" stroke-width="0.1"/>
  <path d="M 13.728308793408928,5.413790837901615 L 14.070364464082672,5.780259414599868" fill="none" stroke="rgb(0,178,0)" stroke-width="0.1"/>
  <path d="M 14.070364464082672,5.780259414599868 L 14.416481303746991,6.142894813930752" fill="none" stroke="rgb(0,178,0)" stroke-width="0.1"/>
  <path d="M 14.416481303746991,6.142894813930752 L 14.766616359507339,6.501652033056644" fill="none" stroke="rgb(0,178,0)" stroke-width="0.1"/>
  <path d="M 14.766616359507339,6.501652033056644 L 15.120726179810845,6.856486550419277" fill="none" stroke="rgb(0,178,0)" stroke-width="0.1"/>
  <path d="M 15.120726179810845,6.856486550419277 L 15.478766819838825,7.2073543312649235" fill="none" stroke="rgb(0,178,0)" stroke-width="0.1"/>
  <path d="M 15.478766819838825,7.2073543312649235 L 15.840693846959994,7.5542118331104575" fill="none" stroke="rgb(0,178,0)" stroke-width="0.1"/>
  <path d="M 15.840693846959994,7.5542118331104575 L 16.206462346244848,7.897016011145297" fill="none" stroke="rgb(0,178,0)" stroke-width="0.1"/>
  <path d="M 16.206462346244848,7.897016011145297 L 16.576026926039503,8.235724323574232" fill="none" stroke="rgb(0,178,0)" stroke-width="0.1"/>
  <path d="M 16.576026926039503,8.235724323574232 L 16.949341723598536,8.570294736896585" fill="none" stroke="rgb(0,178,0)" stroke-width="0.1"/>
  <path d="M 16.949341723598536,8.570294736896585 L 17.32636041077717,8.900685731122167" fill="none" stroke="rgb(0,178,0)" stroke-width="0.1"/>
  <path d="M 17.32636041077717,8.900685731122167 L 17.707036199779623,9.226856304924695" fill="none" stroke="rgb(0,178,0)" stroke-width="0.1"/>
  <path d="M 17.707036199779623,9.226856304924695 L 18.091321848966118,9.548765980729286" fill="none" stroke="rgb(0,178,0)" stroke-width="0.1"/>
  <path d="M 18.091321848966118,9.548765980729286 L 18.479169668715485,9.866374809735817" fill="none" stroke="rgb(0,178,0)" stroke-width="0.1"/>
  <path d="M 18.479169668715485,9.866374809735817 L 18.870531527343246,10.179643376876811" fill="none" stroke="rgb(0,178,0)" stroke-width="0.1"/>
  <path d="M 18.870531527343246,10.179643376876811 L 19.265358857074716,10.488532805709156" fill="none" stroke="rgb(0,178,0)" stroke-width="0.1"/>
  <path d="M 19.265358857074716,10.488532805709156 L 19.663602660072343,10.793004763237832" fill="none" stroke="rgb(0,178,0)" stroke-width="0.1"/>
  <path d="M 19.663602660072343,10.793004763237832 L 20.065213514516245,11.09302146467303" fill="none" stroke="rgb(0,178,0)" stroke-width="0.1"/>
  <path d="M 20.065213514516245,11.09302146467303 L 20.47014158073739,11.388545678120408" fill="none" stroke="rgb(0,178,0)" stroke-width="0.1"/>
  <path d="M 20.47014158073739,11.388545678120408 L 20.878336607402957,11.679540729199744" fill="none" stroke="rgb(0,178,0)" stroke-width="0.1"/>
  <path d="M 20.878336607402957,11.679540729199744 L 21.289747937752054,11.965970505598307" fill="none" stroke="rgb(0,178,0)" stroke-width="0.1"/>
  <path d="M 21.289747937752054,11.965970505598307 L 21.70432451588249,12.24779946155013" fill="none" stroke="rgb(0,178,0)" stroke-width="0.1"/>
  <path d="M 21.70432451588249,12.24779946155013 L 22.122014893086657,12.524992622249101" fill="none" stroke="rgb(0,178,0)" stroke-width="0.1"/>
  <path d="M 22.122014893086657,12.524992622249101 L 22.542767234236294,12.79751558818839" fill="none" stroke="rgb(0,178,0)" stroke-width="0.1"/>
  <path d="M 22.542767234236294,12.79751558818839 L 22.966529324215458,13.06533453942916" fill="none" stroke="rgb(0,178,0)" stroke-width="0.1"/>
  <path d="M 22.966529324215458,13.06533453942916 L 23.393248574399877,13.328416239798798" fill="none" stroke="rgb(0,178,0)" stroke-width="0.1"/>
  <path d="M 23.393248574399877,13.328416239798798 L 23.8228720291836,13.586728041013657" fill="none" stroke="rgb(0,178,0)" stroke-width="0.1"/>
  <path d="M 23.8228720291836,13.586728041013657 L 24.25534637255066,13.840237886732893" fill="none" stroke="rgb(0,178,0)" stroke-width="0.1"/>
  <path d="M 24.25534637255066,13.840237886732893 L 24.690617934691204,14.088914316534556" fill="none" stroke="rgb(0,178,0)" stroke-width="0.1"/>
  <path d="M 24.690617934691204,14.088914316534556 L 25.128632698662614,14.33272646982141" fill="none" stroke="rgb(0,178,0)" stroke-width="0.1"/>
  <path d="M 25.128632698662614,14.33272646982141 L 25.56933630709227,14.57164408964968" fill="none" stroke="rgb(0,178,0)" stroke-width="0.1"/>
  <path d="M 25.56933630709227,14.57164408964968 L 26.012674068923616,14.805637526484134" fill="none" stroke="rgb(0,178,0)" stroke-width="0.1"/>
  <path d="M 26.012674068923616,14.805637526484134 L 26.458590966203246,15.034677741878113" fill="none" stroke="rgb(0,178,0)" stroke-width="0.1"/>
  <path d="M 26.458590966203246,15.034677741878113 L 26.9070316609085,15.258736312076962" fill="none" stroke="rgb(0,178,0)" stroke-width="0.1"/>
  <path d="M 26.9070316609085,15.258736312076962 L 27.35794050181505,15.47778543154459" fill="none" stroke="rgb(0,178,0)" stroke-width="0.1"/>
  <path d="M 27.35794050181505,15.47778543154459 L 27.811261531403034,15.691797916415226" fill="none" stroke="rgb(0,178,0)" stroke-width="0.1"/>
  <path d="M 27.811261531403034,15.691797916415226 L 28.2669384928015,15.900747207866516" fill="none" stroke="rgb(0,178,0)" stroke-width="0.1"/>
  <path d="M 28.2669384928015,15.900747207866516 L 28.724914836769585,16.104607375414844" fill="none" stroke="rgb(0,178,0)" stroke-width="0.1"/>
  <path d="M 28.724914836769585,16.104607375414844 L 29.185133728714504,16.303353120134943" fill="none" stroke="rgb(0,178,0)" stroke-width="0.1"/>
  <path d="M 29.185133728714504,16.303353120134943 L 29.647538055744576,16.496959777796974" fill="none" stroke="rgb(0,178,0)" stroke-width="0.1"/>
  <path d="M 29.647538055744576,16.496959777796974 L 30.112070433756912,16.685403321929925" fill="none" stroke="rgb(0,178,0)" stroke-width="0.1"/>
  <path d="M 30.112070433756912,16.685403321929925 L 30.578673214558876,16.868660366801805" fill="none" stroke="rgb(0,178,0)" stroke-width="0.1"/>
  <path d="M 30.578673214558876,16.868660366801805 L 31.047288493021938,17.046708170321608" fill="none" stroke="rgb(0,178,0)" stroke-width="0.1"/>
  <path d="M 31.047288493021938,17.046708170321608 L 31.517858114267938,17.219524636862616" fill="none" stroke="rgb(0,178,0)" stroke-width="0.1"/>
  <path d="M 31.517858114267938,17.219524636862616 L 31.99032368088558,17.38708832000384" fill="none" stroke="rgb(0,178,0)" stroke-width="0.1"/>
  <path d="M 31.99032368088558,17.38708832000384 L 32.46462656017843,17.549378425191435" fill="none" stroke="rgb(0,178,0)" stroke-width="0.1"/>
  <path d="M 32.46462656017843,17.549378425191435 L 32.940707891440184,17.70637481231961" fill="none" stroke="rgb(0,178,0)" stroke-width="0.1"/>
  <path d="M 32.940707891440184,17.70637481231961 L 33.418508593259844,17.858057998229924" fill="none" stroke="rgb(0,178,0)" stroke-width="0.1"/>
  <path d="M 33.418508593259844,17.858057998229924 L 33.897969370853616,18.004409159128727" fill="none" stroke="rgb(0,178,0)" stroke-width="0.1"/>
  <path d="M 33.897969370853616,18.004409159128727 L 34.37903072342317,18.14541013292387" fill="none" stroke="rgb(0,178,0)" stroke-width="0.1"/>
  <path d="M 34.37903072342317,18.14541013292387 L 34.861632951539946,18.28104342147799" fill="none" stroke="rgb(0,178,0)" stroke-width="0.1"/>
  <path d="M 34.861632951539946,18.28104342147799 L 35.34571616455344,18.411292192780365" fill="none" stroke="rgb(0,178,0)" stroke-width="0.1"/>
  <path d="M 35.34571616455344,18.411292192780365 L 35.83122028802393,18.536140283035593" fill="none" stroke="rgb(0,178,0)" stroke-width="0.1"/>
  <path d="M 35.83122028802393,18.536140283035593 L 36.31808507117751,18.655572198669915" fill="none" stroke="rgb(0,178,0)" stroke-width="0.1"/>
  <path d="M 36.31808507117751,18.655572198669915 L 36.806250094383245,18.769573118253447" fill="none" stroke="rgb(0,178,0)" stroke-width="0.1"/>
  <path d="M 36.806250094383245,18.769573118253447 L 37.29565477665096,18.878128894339397" fill="none" stroke="rgb(0,178,0)" stroke-width="0.1"/>
  <path d="M 37.29565477665096,18.878128894339397 L 37.78623838314991,18.981226055220304" fill="none" stroke="rgb(0,178,0)" stroke-width="0.1"/>
  <path d="M 37.78623838314991,18.981226055220304 L 38.27794003274539,19.078851806599914" fill="none" stroke="rgb(0,178,0)" stroke-width="0.1"/>
  <path d="M 38.27794003274539,19.078851806599914 L 38.77069870555397,19.170994033180023" fill="none" stroke="rgb(0,178,0)" stroke-width="0.1"/>
  <path d="M 38.77069870555397,19.170994033180023 L 39.26445325051657,19.257641300165233" fill="none" stroke="rgb(0,178,0)" stroke-width="0.1"/>
  <path d="M 39.26445325051657,19.257641300165233 L 39.75914239298697,19.338782854680858" fill="none" stroke="rgb(0,178,0)" stroke-width="0.1"/>
  <path d="M 39.75914239298697,19.338782854680858 L 40.25470474233566,19.41440862710806" fill="none" stroke="rgb(0,178,0)" stroke-width="0.1"/>
  <path d="M 40.25470474233566,19.41440862710806 L 40.75107879956897,19.484509232333494" fill="none" stroke="rgb(0,178,0)" stroke-width="0.1"/>
  <path d="M 40.75107879956897,19.484509232333494 L 41.24820296496068,19.54907597091369" fill="none" stroke="rgb(0,178,0)" stroke-width="0.1"/>
  <path d="M 41.24820296496068,19.54907597091369 L 41.74601554569654,19.6081008301544" fill="none" stroke="rgb(0,178,0)" stroke-width="0.1"/>
  <path d="M 41.74601554569654,19.6081008301544 L 42.24445476353037,19.66157648510557" fill="none" stroke="rgb(0,178,0)" stroke-width="0.1"/>
  <path d="M 42.24445476353037,19.66157648510557 L 42.7434587624507,19.709496299470175" fill="none" stroke="rgb(0,178,0)" stroke-width="0.1"/>
  <path d="M 42.7434587624507,19.709496299470175 L 43.242965616357196,19.751854326427974" fill="none" stroke="rgb(0,178,0)" stroke-width="0.1"/>
  <path d="M 43.242965616357196,19.751854326427974 L 43.74291333674523,19.78864530937244" fill="none" stroke="rgb(0,178,0)" stroke-width="0.1"/>
  <path d="M 43.74291333674523,19.78864530937244 L 44.24323988039919,19.819864682564912" fill="none" stroke="rgb(0,178,0)" stroke-width="0.1"/>
  <path d="M 44.24323988039919,19.819864682564912 L 44.74388315709166,19.845508571699156" fill="none" stroke="rgb(0,178,0)" stroke-width="0.1"/>
  <path d="M 44.74388315709166,19.845508571699156 L 45.24478103728859,19.86557379438409" fill="none" stroke="rgb(0,178,0)" stroke-width="0.1"/>
  <path d="M 45.24478103728859,19.86557379438409 L 45.7458713598603,19.880057860537363" fill="none" stroke="rgb(0,178,0)" stroke-width="0.1"/>
  <path d="M 45.7458713598603,19.880057860537363 L 46.24709193979447,19.888958972695036" fill="none" stroke="rgb(0,178,0)" stroke-width="0.1"/>
  <path d="M 46.24709193979447,19.888958972695036 L 46.74838057591455,19.892276026234185" fill="none" stroke="rgb(0,178,0)" stroke-width="0.1"/>
  <path d="M 46.74838057591455,19.892276026234185 L 47.249675058597745,19.890008609510687" fill="none" stroke="rgb(0,178,0)" stroke-width="0.1"/>
  <path d="M 47.249675058597745,19.890008609510687 L 47.750913177496045,19.882157003909242" fill="none" stroke="rgb(0,178,0)" stroke-width="0.1"/>
  <path d="M 47.750913177496045,19.882157003909242 L 48.25203272925614,19.86872218380995" fill="none" stroke="rgb(0,178,0)" stroke-width="0.1"/>
  <path d="M 48.25203272925614,19.86872218380995 L 48.75297152523842,19.84970581646553" fill="none" stroke="rgb(0,178,0)" stroke-width="0.1"/>
  <path d="M 48.75297152523842,19.84970581646553 L 49.25366739923561,19.825110261796226" fill="none" stroke="rgb(0,178,0)" stroke-width="0.1"/>
  <path d="M 49.25366739923561,19.825110261796226 L 49.75405821518643,19.79493857209559" fill="none" stroke="rgb(0,178,0)" stroke-width="0.1"/>
  <path d="M 49.75405821518643,19.79493857209559 L 50.254081874887106,19.75919449165258" fill="none" stroke="rgb(0,178,0)" stroke-width="0.1"/>
  <path d="M 50.254081874887106,19.75919449165258 L 50.753676325698166,19.717882456286134" fill="none" stroke="rgb(0,178,0)" stroke-width="0.1"/>
  <path d="M 50.753676325698166,19.717882456286134 L 51.25277956824425,19.67100759279583" fill="none" stroke="rgb(0,178,0)" stroke-width="0.1"/>
  <path d="M 51.25277956824425,19.67100759279583 L 51.75132966410888,19.618575718323882" fill="none" stroke="rgb(0,178,0)" stroke-width="0.1"/>
  <path d="M 51.75132966410888,19.618575718323882 L 52.24926474352071,19.56059333963526" fill="none" stroke="rgb(0,178,0)" stroke-width="0.1"/>
  <path d="M 52.24926474352071,19.56059333963526 L 52.74652301303149,19.497067652308715" fill="none" stroke="rgb(0,178,0)" stroke-width="0.1"/>
  <path d="M 52.74652301303149,19.497067652308715 L 53.24304276318492,19.42800653984409" fill="none" stroke="rgb(0,178,0)" stroke-width="0.1"/>
  <path d="M 53.24304276318492,19.42800653984409 L 53.738762376174236,19.35341857268486" fill="none" stroke="rgb(0,178,0)" stroke-width="0.1"/>
  <path d="M 53.738762376174236,19.35341857268486 L 54.2336203334894,19.27331300715332" fill="none" stroke="rgb(0,178,0)" stroke-width="0.1"/>
  <path d="M 54.2336203334894,19.27331300715332 L 54.727555223551235,19.187699784302595" fill="none" stroke="rgb(0,178,0)" stroke-width="0.1"/>
  <path d="M 54.727555223551235,19.187699784302595 L 55.22050574933269,19.096589528683126" fill="none" stroke="rgb(0,178,0)" stroke-width="0.1"/>
  <path d="M 55.22050574933269,19.096589528683126 L 55.71241073596582,18.99999354702345" fill="none" stroke="rgb(0,178,0)" stroke-width="0.1"/>
  <path d="M 55.71241073596582,18.99999354702345 L 56.20320913833325,18.897923826827764" fill="none" stroke="rgb(0,178,0)" stroke-width="0.1"/>
  <path d="M 56.20320913833325,18.897923826827764 L 56.69284004864426,18.790393034887757" fill="none" stroke="rgb(0,178,0)" stroke-width="0.1"/>
  <path d="M 56.69284004864426,18.790393034887757 L 57.18124270399312,18.677414515711007" fill="none" stroke="rgb(0,178,0)" stroke-width="0.1"/>
  <path d="M 57.18124270399312,18.677414515711007 L 57.66835649389998,18.559002289864793" fill="none" stroke="rgb(0,178,0)" stroke-width="0.1"/>
  <path d="M 57.66835649389998,18.559002289864793 L 58.154120967832114,18.435171052235773" fill="none" stroke="rgb(0,178,0)" stroke-width="0.1"/>
  <path d="M 58.154120967832114,18.435171052235773 L 58.638475842706384,18.305936170207815" fill="none" stroke="rgb(0,178,0)" stroke-width="0.1"/>
  <path d="M 58.638475842706384,18.305936170207815 L 59.12136101036981,18.17131368175251" fill="none" stroke="rgb(0,178,0)" stroke-width="0.1"/>
  <path d="M 59.12136101036981,18.17131368175251 L 59.60271654505948,18.03132029344124" fill="none" stroke="rgb(0,178,0)" stroke-width="0.1"/>
  <path d="M 59.60271654505948,18.03132029344124 L 60.08248271083892,17.88597337837041" fill="none" stroke="rgb(0,178,0)" stroke-width="0.1"/>
  <path d="M 60.08248271083892,17.88597337837041 L 60.560599969011264,17.73529097400592" fill="none" stroke="rgb(0,178,0)" stroke-width="0.1"/>
  <path d="M 60.560599969011264,17.73529097400592 L 61.03700898550812,17.57929177994515" fill="none" stroke="rgb(0,178,0)" stroke-width="0.1"/>
  <path d="M 61.03700898550812,17.57929177994515 L 61.511650638253286,17.417995155595236" fill="none" stroke="rgb(0,178,0)" stroke-width="0.1"/>
  <path d="M 61.511650638253286,17.417995155595236 L 61.984466024498715,17.25142111777177" fill="none" stroke="rgb(0,178,0)" stroke-width="0.1"/>
  <path d="M 61.984466024498715,17.25142111777177 L 62.455396468135405,17.079590338214075" fill="none" stroke="rgb(0,178,0)" stroke-width="0.1"/>
  <path d="M 62.455396468135405,17.079590338214075 L 62.92438352697445,16.902524141020194" fill="none" stroke="rgb(0,178,0)" stroke-width="0.1"/>
  <path d="M 62.92438352697445,16.902524141020194 L 63.39136899999994,16.720244500000035" fill="none" stroke="rgb(0,178,0)" stroke-width="0.1"/>
  <path d="M 9.018369000000007,42.42024450000008 L 8.564649311178641,42.63776661278462" fill="none" stroke="rgb(0,178,0)" stroke-width="0.1"/>
  <path d="M 8.564649311178641,42.63776661278462 L 8.113390170687353,42.860348313958184" fill="none" stroke="rgb(0,178,0)" stroke-width="0.1"/>
  <path d="M 8.113390170687353,42.860348313958184 L 7.664647997601151,43.08796177504587" fill="none" stroke="rgb(0,178,0)" stroke-width="0.1"/>
  <path d="M 7.664647997601151,43.08796177504587 L 7.218478896309421,43.32057853847232" fill="none" stroke="rgb(0,178,0)" stroke-width="0.1"/>
  <path d="M 7.218478896309421,43.32057853847232 L 6.774938649500768,43.55816952111945" fill="none" stroke="rgb(0,178,0)" stroke-width="0.1"/>
  <path d="M 6.774938649500768,43.55816952111945 L 6.334082711188898,43.800705017963764" fill="none" stroke="rgb(0,178,0)" stroke-width="0.1"/>
  <path d="M 6.334082711188898,43.800705017963764 L 5.895966199779423,44.0481547057891" fill="none" stroke="rgb(0,178,0)" stroke-width="0.1"/>
  <path d="M 5.895966199779423,44.0481547057891 L 5.460643891178847,44.3004876469779" fill="none" stroke="rgb(0,178,0)" stroke-width="0.1"/>
  <path d="M 5.460643891178847,44.3004876469779 L 5.028170211945849,44.557672293380165" fill="none" stroke="rgb(0,178,0)" stroke-width="0.1"/>
  <path d="M 5.028170211945849,44.557672293380165 L 4.598599232486663,44.8196764902566" fill="none" stroke="rgb(0,178,0)" stroke-width="0.1"/>
  <path d="M 4.598599232486663,44.8196764902566 L 4.171984660295038,45.08646748029969" fill="none" stroke="rgb(0,178,0)" stroke-width="0.1"/>
  <path d="M 4.171984660295038,45.08646748029969 L 3.7483798332370952,45.358011907728496" fill="none" stroke="rgb(0,178,0)" stroke-width="0.1"/>
  <path d="M 3.7483798332370952,45.358011907728496 L 3.327837712883138,45.634275822459585" fill="none" stroke="rgb(0,178,0)" stroke-width="0.1"/>
  <path d="M 3.327837712883138,45.634275822459585 L 2.9104108778856244,45.91522468435164" fill="none" stroke="rgb(0,178,0)" stroke-width="0.1"/>
  <path d="M 2.9104108778856244,45.91522468435164 L 2.4961515174056785,46.200823367522844" fill="none" stroke="rgb(0,178,0)" stroke-width="0.1"/>
  <path d="M 2.4961515174056785,46.200823367522844 L 2.0851114245883764,46.4910361647444" fill="none" stroke="rgb(0,178,0)" stroke-width="0.1"/>
  <path d="M 2.0851114245883764,46.4910361647444 L 1.6773419900866884,46.78582679190299" fill="none" stroke="rgb(0,178,0)" stroke-width="0.1"/>
  <path d="M 1.6773419900866884,46.78582679190299 L 1.2728941956366953,47.08515839253846" fill="none" stroke="rgb(0,178,0)" stroke-width="0.1"/>
  <path d="M 1.2728941956366953,47.08515839253846 L 0.8718186076836218,47.38899354245109" fill="none" stroke="rgb(0,178,0)" stroke-width="0.1"/>
  <path d="M 0.8718186076836218,47.38899354245109 L 0.47416537105948464,47.697294254381404" fill="none" stroke="rgb(0,178,0)" stroke-width="0.1"/>
  <path d="M 0.47416537105948464,47.697294254381404 L 0.07998420271371742,48.010021982758644" fill="none" stroke="rgb(0,178,0)" stroke-width="0.1"/>
 </g>
 <g id="layerA-车位-text" inkscape:groupmode="layer" inkscape:label="A-车位-text">
  <text fill="rgb(178,88,0)" font-family="Noto Sans CJK SC" font-size="2" transform="rotate(-0.0,73.28736900000001,71.20024450000005)" x="73.28736900000001" y="71.20024450000005">
   A-240
  </text>
  <text fill="rgb(178,88,0)" font-family="Noto Sans CJK SC" font-size="2" transform="rotate(-0.0,98.74336900000003,62.92024450000008)" x="98.74336900000003" y="62.92024450000008">
   A-241
  </text>
 </g>
 <g id="layerCOLUMN" inkscape:groupmode="layer" inkscape:label="COLUMN">
  <path d="M 15.768369000000007,76.23024450000003 L 23.204369000000042,73.28024449999998" fill="none" stroke="rgb(178,178,0)" stroke-width="0.1"/>
  <path d="M 23.204369000000042,73.28024449999998 L 20.254368999999997,65.84024449999993" fill="none" stroke="rgb(178,178,0)" stroke-width="0.1"/>
  <path d="M 20.254368999999997,65.84024449999993 L 12.818368999999961,68.79024449999997" fill="none" stroke="rgb(178,178,0)" stroke-width="0.1"/>
  <path d="M 12.818368999999961,68.79024449999997 L 15.768369000000007,76.23024450000003" fill="none" stroke="rgb(178,178,0)" stroke-width="0.1"/>
 </g>
</svg>