<?xml version="1.0" encoding="utf-8"?>
<svg style="background-color: #000;" version="1.1" viewBox="0 0 100.0 100.0" xmlns="http://www.w3.org/2000/svg" xmlns:inkscape="http://www.inkscape.org/namespaces/inkscape">
 <g id="layer0-结构边线" inkscape:groupmode="layer" inkscape:label="0-结构边线">
  <path d="M 49.06236900000022,19.152244500000023 L 58.35236900000018,15.464244500000035" fill="none" stroke="rgb(178,0,178)" stroke-width="0.1"/>
  <path d="M 58.35236900000018,15.464244500000035 L 54.662369000000126,6.169244500000019" fill="none" stroke="rgb(178,0,178)" stroke-width="0.1"/>
  <path d="M 45.37236900000016,9.856244500000031 L 54.662369000000126,6.169244500000019" fill="none" stroke="rgb(178,0,178)" stroke-width="0.1"/>
  <path d="M 49.06236900000022,19.152244500000023 L 45.37236900000016,9.856244500000031" fill="none" stroke="rgb(178,0,178)" stroke-width="0.1"/>
  <path d="M 7.7994288762713495,100.0 L 9.292369000000008,99.40724450000005" fill="none" stroke="rgb(178,0,178)" stroke-width="0.1"/>
  <path d="M 9.292369000000008,99.40724450000005 L 6.34236900000019,91.97124450000004" fill="none" stroke="rgb(178,0,178)" stroke-width="0.1"/>
  <path d="M 0.0,94.4894125417228 L 6.34236900000019,91.97124450000004" fill="none" stroke="rgb(178,0,178)" stroke-width="0.1"/>
  <path d="M 0.9272061066435526,100.0 L 0.0,97.66281199694879" fill="none" stroke="rgb(178,0,178)" stroke-width="0.1"/>
 </g>
 <g id="layerA-车位" inkscape:groupmode="layer" inkscape:label="A-车位">
  <path d="M 40.59171016451842,100.0 L 22.492369000000053,54.36724450000003" fill="none" instance-id="-1" semantic-id="35" stroke="rgb(0,0,178)" stroke-width="0.1"/>
  <path d="M 22.492369000000053,54.36724450000003 L 0.18236900000010792,63.218244500000026" fill="none" instance-id="-1" semantic-id="35" stroke="rgb(0,0,178)" stroke-width="0.1"/>
  <path d="M 0.18236900000010792,63.218244500000026 L 14.771430027728229,100.0" fill="none" instance-id="-1" semantic-id="35" stroke="rgb(0,0,178)" stroke-width="0.1"/>
  <path d="M 6.382369000000153,72.05624450000002 L 11.022369000000026,70.21224450000003" fill="none" instance-id="-1" semantic-id="35" stroke="rgb(0,0,178)" stroke-width="0.1"/>
  <path d="M 19.392369000000144,66.89324450000004 L 24.042369000000008,65.04924450000001" fill="none" instance-id="-1" semantic-id="35" stroke="rgb(0,0,178)" stroke-width="0.1"/>
  <path d="M 6.562369000000217,72.52024450000002 L 11.21236900000008,70.67724450000003" fill="none" instance-id="-1" semantic-id="35" stroke="rgb(0,0,178)" stroke-width="0.1"/>
  <path d="M 19.572369000000208,67.35824450000001 L 24.22236900000007,65.51424450000002" fill="none" instance-id="-1" semantic-id="35" stroke="rgb(0,0,178)" stroke-width="0.1"/>
  <path d="M 6.012369000000035,71.12624450000001 L 10.652369000000135,69.28224450000002" fill="none" instance-id="-1" semantic-id="35" stroke="rgb(0,0,178)" stroke-width="0.1"/>
  <path d="M 19.022369000000026,65.96324450000003 L 23.672369000000117,64.12024450000001" fill="none" instance-id="-1" semantic-id="35" stroke="rgb(0,0,178)" stroke-width="0.1"/>
  <path d="M 6.012369000000035,71.12624450000001 L 6.562369000000217,72.52024450000002" fill="none" instance-id="-1" semantic-id="35" stroke="rgb(0,0,178)" stroke-width="0.1"/>
  <path d="M 23.672369000000117,64.12024450000001 L 24.22236900000007,65.51424450000002" fill="none" instance-id="-1" semantic-id="35" stroke="rgb(0,0,178)" stroke-width="0.1"/>
  <path d="M 11.21236900000008,70.67724450000003 L 10.652369000000135,69.28224450000002" fill="none" instance-id="-1" semantic-id="35" stroke="rgb(0,0,178)" stroke-width="0.1"/>
  <path d="M 19.572369000000208,67.35824450000001 L 19.022369000000026,65.96324450000003" fill="none" instance-id="-1" semantic-id="35" stroke="rgb(0,0,178)" stroke-width="0.1"/>
  <path d="M 64.34236900000019,94.78224450000005 L 44.802369,45.51724450000003" fill="none" instance-id="-1" semantic-id="35" stroke="rgb(0,0,178)" stroke-width="0.1"/>
  <path d="M 44.802369,45.51724450000003 L 22.492369000000053,54.36724450000003" fill="none" instance-id="-1" semantic-id="35" stroke="rgb(0,0,178)" stroke-width="0.1"/>
  <path d="M 22.492369000000053,54.36724450000003 L 40.59171016451842,100.0" fill="none" instance-id="-1" semantic-id="35" stroke="rgb(0,0,178)" stroke-width="0.1"/>
  <path d="M 28.682369000000108,63.20524450000002 L 33.3323690000002,61.361244500000026" fill="none" instance-id="-1" semantic-id="35" stroke="rgb(0,0,178)" stroke-width="0.1"/>
  <path d="M 41.70236900000009,58.043244500000014 L 46.35236900000018,56.19924450000002" fill="none" instance-id="-1" semantic-id="35" stroke="rgb(0,0,178)" stroke-width="0.1"/>
  <path d="M 28.872369000000162,63.670244500000024 L 33.522369000000026,61.82624450000003" fill="none" instance-id="-1" semantic-id="35" stroke="rgb(0,0,178)" stroke-width="0.1"/>
  <path d="M 41.88236900000015,58.50724450000001 L 46.53236900000002,56.664244500000024" fill="none" instance-id="-1" semantic-id="35" stroke="rgb(0,0,178)" stroke-width="0.1"/>
  <path d="M 28.322369000000208,62.27624450000002 L 32.96236900000008,60.432244500000024" fill="none" instance-id="-1" semantic-id="35" stroke="rgb(0,0,178)" stroke-width="0.1"/>
  <path d="M 41.3323690000002,57.113244500000036 L 45.98236900000006,55.26924450000001" fill="none" instance-id="-1" semantic-id="35" stroke="rgb(0,0,178)" stroke-width="0.1"/>
  <path d="M 28.322369000000208,62.27624450000002 L 28.872369000000162,63.670244500000024" fill="none" instance-id="-1" semantic-id="35" stroke="rgb(0,0,178)" stroke-width="0.1"/>
  <path d="M 45.98236900000006,55.26924450000001 L 46.53236900000002,56.664244500000024" fill="none" instance-id="-1" semantic-id="35" stroke="rgb(0,0,178)" stroke-width="0.1"/>
  <path d="M 33.522369000000026,61.82624450000003 L 32.96236900000008,60.432244500000024" fill="none" instance-id="-1" semantic-id="35" stroke="rgb(0,0,178)" stroke-width="0.1"/>
  <path d="M 41.88236900000015,58.50724450000001 L 41.3323690000002,57.113244500000036" fill="none" instance-id="-1" semantic-id="35" stroke="rgb(0,0,178)" stroke-width="0.1"/>
  <path d="M 86.65236900000014,85.93124450000002 L 67.11236900000017,36.66624450000003" fill="none" instance-id="-1" semantic-id="35" stroke="rgb(0,0,178)" stroke-width="0.1"/>
  <path d="M 67.11236900000017,36.66624450000003 L 44.802369,45.51724450000003" fill="none" instance-id="-1" semantic-id="35" stroke="rgb(0,0,178)" stroke-width="0.1"/>
  <path d="M 44.802369,45.51724450000003 L 64.34236900000019,94.78224450000005" fill="none" instance-id="-1" semantic-id="35" stroke="rgb(0,0,178)" stroke-width="0.1"/>
  <path d="M 50.99236900000005,54.355244500000026 L 55.642369000000144,52.51124450000003" fill="none" instance-id="-1" semantic-id="35" stroke="rgb(0,0,178)" stroke-width="0.1"/>
  <path d="M 64.01236900000004,49.192244500000015 L 68.65236900000014,47.34824450000002" fill="none" instance-id="-1" semantic-id="35" stroke="rgb(0,0,178)" stroke-width="0.1"/>
  <path d="M 51.18236900000011,54.82024450000003 L 55.82236900000021,52.976244500000035" fill="none" instance-id="-1" semantic-id="35" stroke="rgb(0,0,178)" stroke-width="0.1"/>
  <path d="M 64.1923690000001,49.65724450000002 L 68.84236900000019,47.813244500000025" fill="none" instance-id="-1" semantic-id="35" stroke="rgb(0,0,178)" stroke-width="0.1"/>
  <path d="M 50.62236900000016,53.42524450000002 L 55.272369000000026,51.58224450000003" fill="none" instance-id="-1" semantic-id="35" stroke="rgb(0,0,178)" stroke-width="0.1"/>
  <path d="M 63.642369000000144,48.26324450000001 L 68.28236900000002,46.41924450000002" fill="none" instance-id="-1" semantic-id="35" stroke="rgb(0,0,178)" stroke-width="0.1"/>
  <path d="M 50.62236900000016,53.42524450000002 L 51.18236900000011,54.82024450000003" fill="none" instance-id="-1" semantic-id="35" stroke="rgb(0,0,178)" stroke-width="0.1"/>
  <path d="M 68.28236900000002,46.41924450000002 L 68.84236900000019,47.813244500000025" fill="none" instance-id="-1" semantic-id="35" stroke="rgb(0,0,178)" stroke-width="0.1"/>
  <path d="M 55.82236900000021,52.976244500000035 L 55.272369000000026,51.58224450000003" fill="none" instance-id="-1" semantic-id="35" stroke="rgb(0,0,178)" stroke-width="0.1"/>
  <path d="M 64.1923690000001,49.65724450000002 L 63.642369000000144,48.26324450000001" fill="none" instance-id="-1" semantic-id="35" stroke="rgb(0,0,178)" stroke-width="0.1"/>
 </g>
 <g id="layerA-车位-text" inkscape:groupmode="layer" inkscape:label="A-车位-text">
  <text fill="rgb(178,88,0)" font-family="Noto Sans CJK SC" font-size="2" transform="rotate(-0.0,16.072369000000208,87.94424450000002)" x="16.072369000000208" y="87.94424450000002">
   A-369
  </text>
  <text fill="rgb(178,88,0)" font-family="Noto Sans CJK SC" font-size="2" transform="rotate(-0.0,36.43236900000011,78.15024450000001)" x="36.43236900000011" y="78.15024450000001">
   A-370
  </text>
  <text fill="rgb(178,88,0)" font-family="Noto Sans CJK SC" font-size="2" transform="rotate(-0.0,57.53236900000002,69.10924450000002)" x="57.53236900000002" y="69.10924450000002">
   A-371
  </text>
 </g>
 <g id="layerCOLUMN" inkscape:groupmode="layer" inkscape:label="COLUMN">
  <path d="M 49.06236900000022,19.152244500000023 L 58.35236900000018,15.464244500000035" fill="none" stroke="rgb(178,178,0)" stroke-width="0.1"/>
  <path d="M 58.35236900000018,15.464244500000035 L 54.662369000000126,6.169244500000019" fill="none" stroke="rgb(178,178,0)" stroke-width="0.1"/>
  <path d="M 54.662369000000126,6.169244500000019 L 45.37236900000016,9.856244500000031" fill="none" stroke="rgb(178,178,0)" stroke-width="0.1"/>
  <path d="M 45.37236900000016,9.856244500000031 L 49.06236900000022,19.152244500000023" fill="none" stroke="rgb(178,178,0)" stroke-width="0.1"/>
  <path d="M 7.7994288762713495,100.0 L 9.292369000000008,99.40724450000005" fill="none" stroke="rgb(178,178,0)" stroke-width="0.1"/>
  <path d="M 9.292369000000008,99.40724450000005 L 6.34236900000019,91.97124450000004" fill="none" stroke="rgb(178,178,0)" stroke-width="0.1"/>
  <path d="M 6.34236900000019,91.97124450000004 L 0.0,94.4894125417228" fill="none" stroke="rgb(178,178,0)" stroke-width="0.1"/>
  <path d="M 0.0,97.66281199694879 L 0.9272061066435526,100.0" fill="none" stroke="rgb(178,178,0)" stroke-width="0.1"/>
 </g>
 <g id="layerDIM_ELEV" inkscape:groupmode="layer" inkscape:label="DIM_ELEV">
  <path d="M 27.382369000000153,26.59624450000004 L 21.542369000000008,24.07224450000004" fill="none" stroke="rgb(0,178,0)" stroke-width="0.1"/>
  <path d="M 27.382369000000153,26.59624450000004 L 29.912369000000126,20.753244500000022" fill="none" stroke="rgb(0,178,0)" stroke-width="0.1"/>
  <path d="M 21.542369000000008,24.07224450000004 L 43.512369000000035,15.356244500000031" fill="none" stroke="rgb(0,178,0)" stroke-width="0.1"/>
 </g>
 <g id="layerDIM_LEAD" inkscape:groupmode="layer" inkscape:label="DIM_LEAD">
  <path d="M 100.0,42.901910339087465 L 77.17236900000012,51.960244500000016" fill="none" stroke="rgb(0,178,0)" stroke-width="0.1"/>
 </g>
 <g id="layerDOOR_FIRE" inkscape:groupmode="layer" inkscape:label="DOOR_FIRE">
  <path d="M 91.13236900000015,19.603244500000017 L 74.40236900000014,26.241244500000022" fill="none" instance-id="6" semantic-id="4" stroke="rgb(0,178,178)" stroke-width="0.1"/>
  <path d="M 39.54236900000001,40.07024450000003 L 22.812369000000217,46.708244500000035" fill="none" instance-id="4" semantic-id="4" stroke="rgb(0,178,178)" stroke-width="0.1"/>
  <path d="M 97.91236900000013,19.06624450000004 L 100.0,24.32650869593357" fill="none" instance-id="7" semantic-id="4" stroke="rgb(0,178,178)" stroke-width="0.1"/>
  <path d="M 16.72236900000007,34.063244500000025 L 20.782369000000017,44.28824450000002" fill="none" instance-id="3" semantic-id="3" stroke="rgb(0,178,178)" stroke-width="0.1"/>
  <path d="M 90.76236900000004,18.674244500000015 L 94.00236900000004,26.831244500000025" fill="none" instance-id="6" semantic-id="4" stroke="rgb(0,178,178)" stroke-width="0.1"/>
  <path d="M 90.35236900000018,18.84024450000004 L 93.5823690000002,26.996244500000017" fill="none" instance-id="6" semantic-id="4" stroke="rgb(0,178,178)" stroke-width="0.1"/>
  <path d="M 90.76236900000004,18.674244500000015 L 90.35236900000018,18.84024450000004" fill="none" instance-id="6" semantic-id="4" stroke="rgb(0,178,178)" stroke-width="0.1"/>
  <path d="M 93.5823690000002,26.996244500000017 L 94.00236900000004,26.831244500000025" fill="none" instance-id="6" semantic-id="4" stroke="rgb(0,178,178)" stroke-width="0.1"/>
  <path d="M 74.45236900000009,25.146244500000023 L 77.6923690000001,33.30224450000003" fill="none" instance-id="6" semantic-id="4" stroke="rgb(0,178,178)" stroke-width="0.1"/>
  <path d="M 74.03236900000002,25.31224450000002 L 77.27236900000003,33.468244500000026" fill="none" instance-id="6" semantic-id="4" stroke="rgb(0,178,178)" stroke-width="0.1"/>
  <path d="M 77.6923690000001,33.30224450000003 L 77.27236900000003,33.468244500000026" fill="none" instance-id="6" semantic-id="4" stroke="rgb(0,178,178)" stroke-width="0.1"/>
  <path d="M 74.03236900000002,25.31224450000002 L 74.45236900000009,25.146244500000023" fill="none" instance-id="6" semantic-id="4" stroke="rgb(0,178,178)" stroke-width="0.1"/>
  <path d="M 39.18236900000011,39.14024450000002 L 42.412369000000126,47.29724450000003" fill="none" instance-id="4" semantic-id="4" stroke="rgb(0,178,178)" stroke-width="0.1"/>
  <path d="M 38.762369000000035,39.30624450000002 L 41.99236900000005,47.46324450000003" fill="none" instance-id="4" semantic-id="4" stroke="rgb(0,178,178)" stroke-width="0.1"/>
  <path d="M 39.18236900000011,39.14024450000002 L 38.762369000000035,39.30624450000002" fill="none" instance-id="4" semantic-id="4" stroke="rgb(0,178,178)" stroke-width="0.1"/>
  <path d="M 41.99236900000005,47.46324450000003 L 42.412369000000126,47.29724450000003" fill="none" instance-id="4" semantic-id="4" stroke="rgb(0,178,178)" stroke-width="0.1"/>
  <path d="M 22.86236900000017,45.61224450000003 L 26.10236900000018,53.76924450000001" fill="none" instance-id="4" semantic-id="4" stroke="rgb(0,178,178)" stroke-width="0.1"/>
  <path d="M 22.4423690000001,45.77824450000003 L 25.682369000000108,53.93524450000004" fill="none" instance-id="4" semantic-id="4" stroke="rgb(0,178,178)" stroke-width="0.1"/>
  <path d="M 26.10236900000018,53.76924450000001 L 25.682369000000108,53.93524450000004" fill="none" instance-id="4" semantic-id="4" stroke="rgb(0,178,178)" stroke-width="0.1"/>
  <path d="M 22.4423690000001,45.77824450000003 L 22.86236900000017,45.61224450000003" fill="none" instance-id="4" semantic-id="4" stroke="rgb(0,178,178)" stroke-width="0.1"/>
  <path d="M 0.0,62.42153739999952 L 0.5823690000001989,63.89224450000003" fill="none" stroke="rgb(0,178,178)" stroke-width="0.1"/>
  <path d="M 0.0,63.64725020773966 L 0.1623690000001261,64.05724450000002" fill="none" stroke="rgb(0,178,178)" stroke-width="0.1"/>
  <path d="M 0.1623690000001261,64.05724450000002 L 0.5823690000001989,63.89224450000003" fill="none" stroke="rgb(0,178,178)" stroke-width="0.1"/>
  <path d="M 100.0,37.60238004950989 L 97.32236900000021,38.664244500000024" fill="none" instance-id="7" semantic-id="4" stroke="rgb(0,178,178)" stroke-width="0.1"/>
  <path d="M 100.0,37.11954831398782 L 97.16236900000013,38.24624450000002" fill="none" instance-id="7" semantic-id="4" stroke="rgb(0,178,178)" stroke-width="0.1"/>
  <path d="M 97.16236900000013,38.24624450000002 L 97.32236900000021,38.664244500000024" fill="none" instance-id="7" semantic-id="4" stroke="rgb(0,178,178)" stroke-width="0.1"/>
  <path d="M 99.01236900000004,19.115244500000017 L 90.85236900000018,22.351244500000035" fill="none" instance-id="7" semantic-id="4" stroke="rgb(0,178,178)" stroke-width="0.1"/>
  <path d="M 98.84236900000019,18.69724450000004 L 90.6923690000001,21.93324450000003" fill="none" instance-id="7" semantic-id="4" stroke="rgb(0,178,178)" stroke-width="0.1"/>
  <path d="M 90.85236900000018,22.351244500000035 L 90.6923690000001,21.93324450000003" fill="none" instance-id="6" semantic-id="4" stroke="rgb(0,178,178)" stroke-width="0.1"/>
  <path d="M 98.84236900000019,18.69724450000004 L 99.01236900000004,19.115244500000017" fill="none" instance-id="7" semantic-id="4" stroke="rgb(0,178,178)" stroke-width="0.1"/>
  <path d="M 9.682369000000108,48.101244500000035 L 9.882369000000153,48.61224450000003" fill="none" instance-id="3" semantic-id="3" stroke="rgb(0,178,178)" stroke-width="0.1"/>
  <path d="M 19.85236900000018,44.65724450000002 L 19.642369000000144,44.14624450000002" fill="none" instance-id="3" semantic-id="3" stroke="rgb(0,178,178)" stroke-width="0.1"/>
  <path d="M 19.85236900000018,44.65724450000002 L 9.882369000000153,48.61224450000003" fill="none" instance-id="3" semantic-id="3" stroke="rgb(0,178,178)" stroke-width="0.1"/>
  <path d="M 19.642369000000144,44.14624450000002 L 9.682369000000108,48.101244500000035" fill="none" instance-id="3" semantic-id="3" stroke="rgb(0,178,178)" stroke-width="0.1"/>
  <path d="M 82.40236900000014,21.99324450000003 A 8.775,8.775 0.0 0,0 93.5823690000002,26.994244500000036" fill="none" instance-id="6" semantic-id="4" stroke="rgb(0,178,178)" stroke-width="0.1"/>
  <path d="M 77.6923690000001,33.30024450000002 A 8.775,8.775 0.0 0,0 82.40236900000014,21.99324450000003" fill="none" instance-id="6" semantic-id="4" stroke="rgb(0,178,178)" stroke-width="0.1"/>
  <path d="M 30.812369000000217,42.45924450000004 A 8.775,8.775 0.0 0,0 41.99236900000005,47.460244500000016" fill="none" instance-id="4" semantic-id="4" stroke="rgb(0,178,178)" stroke-width="0.1"/>
  <path d="M 26.10236900000018,53.76624450000003 A 8.775,8.775 0.0 0,0 30.812369000000217,42.45924450000004" fill="none" instance-id="4" semantic-id="4" stroke="rgb(0,178,178)" stroke-width="0.1"/>
  <path d="M 99.99177529045187,28.307424193705742 L 99.60532145544039,28.628015389905784" fill="none" instance-id="7" semantic-id="4" stroke="rgb(0,178,178)" stroke-width="0.1"/>
  <path d="M 99.60532145544039,28.628015389905784 L 99.23783758543027,28.97018623459948" fill="none" instance-id="7" semantic-id="4" stroke="rgb(0,178,178)" stroke-width="0.1"/>
  <path d="M 99.23783758543027,28.97018623459948 L 98.89052694304746,29.332816348301634" fill="none" instance-id="7" semantic-id="4" stroke="rgb(0,178,178)" stroke-width="0.1"/>
  <path d="M 98.89052694304746,29.332816348301634 L 98.56452673715921,29.71471836117516" fill="none" instance-id="7" semantic-id="4" stroke="rgb(0,178,178)" stroke-width="0.1"/>
  <path d="M 98.56452673715921,29.71471836117516 L 98.26090439927998,30.114641800869123" fill="none" instance-id="7" semantic-id="4" stroke="rgb(0,178,178)" stroke-width="0.1"/>
  <path d="M 98.26090439927998,30.114641800869123 L 97.98065408844968,30.53127718697496" fill="none" instance-id="7" semantic-id="4" stroke="rgb(0,178,178)" stroke-width="0.1"/>
  <path d="M 97.98065408844968,30.53127718697496 L 97.7246934360328,30.96326031869461" fill="none" instance-id="7" semantic-id="4" stroke="rgb(0,178,178)" stroke-width="0.1"/>
  <path d="M 97.7246934360328,30.96326031869461 L 97.49386054109118,31.409176741680938" fill="none" instance-id="7" semantic-id="4" stroke="rgb(0,178,178)" stroke-width="0.1"/>
  <path d="M 97.49386054109118,31.409176741680938 L 97.28891122617392,31.8675663794248" fill="none" instance-id="7" semantic-id="4" stroke="rgb(0,178,178)" stroke-width="0.1"/>
  <path d="M 97.28891122617392,31.8675663794248 L 97.11051656250629,32.33692831402416" fill="none" instance-id="7" semantic-id="4" stroke="rgb(0,178,178)" stroke-width="0.1"/>
  <path d="M 97.11051656250629,32.33692831402416 L 96.95926067268192,32.81572570068107" fill="none" instance-id="7" semantic-id="4" stroke="rgb(0,178,178)" stroke-width="0.1"/>
  <path d="M 96.95926067268192,32.81572570068107 L 96.83563881805571,33.30239079983525" fill="none" instance-id="7" semantic-id="4" stroke="rgb(0,178,178)" stroke-width="0.1"/>
  <path d="M 96.83563881805571,33.30239079983525 L 96.74005577709386,33.79533011045726" fill="none" instance-id="7" semantic-id="4" stroke="rgb(0,178,178)" stroke-width="0.1"/>
  <path d="M 96.74005577709386,33.79533011045726 L 96.67282451999836,34.292929587693095" fill="none" instance-id="7" semantic-id="4" stroke="rgb(0,178,178)" stroke-width="0.1"/>
  <path d="M 96.67282451999836,34.292929587693095 L 96.63416518393865,34.793559927775874" fill="none" instance-id="7" semantic-id="4" stroke="rgb(0,178,178)" stroke-width="0.1"/>
  <path d="M 96.63416518393865,34.793559927775874 L 96.62420435225044,35.29558190290055" fill="none" instance-id="7" semantic-id="4" stroke="rgb(0,178,178)" stroke-width="0.1"/>
  <path d="M 96.62420435225044,35.29558190290055 L 96.64297463996127,35.797351728592815" fill="none" instance-id="7" semantic-id="4" stroke="rgb(0,178,178)" stroke-width="0.1"/>
  <path d="M 96.64297463996127,35.797351728592815 L 96.6904145869978,36.29722644599826" fill="none" instance-id="7" semantic-id="4" stroke="rgb(0,178,178)" stroke-width="0.1"/>
  <path d="M 96.6904145869978,36.29722644599826 L 96.76636885942571,36.7935693014681" fill="none" instance-id="7" semantic-id="4" stroke="rgb(0,178,178)" stroke-width="0.1"/>
  <path d="M 96.76636885942571,36.7935693014681 L 96.87058875806474,37.284755105826974" fill="none" instance-id="7" semantic-id="4" stroke="rgb(0,178,178)" stroke-width="0.1"/>
  <path d="M 96.87058875806474,37.284755105826974 L 97.00273303281051,37.769175555775064" fill="none" instance-id="7" semantic-id="4" stroke="rgb(0,178,178)" stroke-width="0.1"/>
  <path d="M 97.00273303281051,37.769175555775064 L 97.16236900000013,38.24524450000001" fill="none" instance-id="7" semantic-id="4" stroke="rgb(0,178,178)" stroke-width="0.1"/>
  <path d="M 90.85236900000018,22.35024450000003 L 91.06259533593015,22.80637648804884" fill="none" instance-id="7" semantic-id="4" stroke="rgb(0,178,178)" stroke-width="0.1"/>
  <path d="M 91.06259533593015,22.80637648804884 L 91.29857383099898,23.249733739827718" fill="none" instance-id="7" semantic-id="4" stroke="rgb(0,178,178)" stroke-width="0.1"/>
  <path d="M 91.29857383099898,23.249733739827718 L 91.55953142745534,23.678863831631617" fill="none" instance-id="7" semantic-id="4" stroke="rgb(0,178,178)" stroke-width="0.1"/>
  <path d="M 91.55953142745534,23.678863831631617 L 91.84461323683718,24.092360947461316" fill="none" instance-id="7" semantic-id="4" stroke="rgb(0,178,178)" stroke-width="0.1"/>
  <path d="M 91.84461323683718,24.092360947461316 L 92.15288534055799,24.48887048443035" fill="none" instance-id="7" semantic-id="4" stroke="rgb(0,178,178)" stroke-width="0.1"/>
  <path d="M 92.15288534055799,24.48887048443035 L 92.48333784939382,24.867093490399157" fill="none" instance-id="7" semantic-id="4" stroke="rgb(0,178,178)" stroke-width="0.1"/>
  <path d="M 92.48333784939382,24.867093490399157 L 92.83488821184596,25.225790919299385" fill="none" instance-id="7" semantic-id="4" stroke="rgb(0,178,178)" stroke-width="0.1"/>
  <path d="M 92.83488821184596,25.225790919299385 L 93.20638476054478,25.56378769020796" fill="none" instance-id="7" semantic-id="4" stroke="rgb(0,178,178)" stroke-width="0.1"/>
  <path d="M 93.20638476054478,25.56378769020796 L 93.59661048507405,25.879976536873272" fill="none" instance-id="7" semantic-id="4" stroke="rgb(0,178,178)" stroke-width="0.1"/>
  <path d="M 93.59661048507405,25.879976536873272 L 94.00428701885585,26.17332163508277" fill="none" instance-id="7" semantic-id="4" stroke="rgb(0,178,178)" stroke-width="0.1"/>
  <path d="M 94.00428701885585,26.17332163508277 L 94.42807882703823,26.442861995989006" fill="none" instance-id="7" semantic-id="4" stroke="rgb(0,178,178)" stroke-width="0.1"/>
  <path d="M 94.42807882703823,26.442861995989006 L 94.86659758166252,26.687714614277212" fill="none" instance-id="7" semantic-id="4" stroke="rgb(0,178,178)" stroke-width="0.1"/>
  <path d="M 94.86659758166252,26.687714614277212 L 95.31840670978067,26.907077360861592" fill="none" instance-id="7" semantic-id="4" stroke="rgb(0,178,178)" stroke-width="0.1"/>
  <path d="M 95.31840670978067,26.907077360861592 L 95.78202609961977,27.1002316106337" fill="none" instance-id="7" semantic-id="4" stroke="rgb(0,178,178)" stroke-width="0.1"/>
  <path d="M 95.78202609961977,27.1002316106337 L 96.25593694938038,27.266544596654455" fill="none" instance-id="7" semantic-id="4" stroke="rgb(0,178,178)" stroke-width="0.1"/>
  <path d="M 96.25593694938038,27.266544596654455 L 96.73858674277994,27.40547148307786" fill="none" instance-id="7" semantic-id="4" stroke="rgb(0,178,178)" stroke-width="0.1"/>
  <path d="M 96.73858674277994,27.40547148307786 L 97.22839433504532,27.51655715001513" fill="none" instance-id="7" semantic-id="4" stroke="rgb(0,178,178)" stroke-width="0.1"/>
  <path d="M 97.22839433504532,27.51655715001513 L 97.72375513269162,27.5994376844925" fill="none" instance-id="7" semantic-id="4" stroke="rgb(0,178,178)" stroke-width="0.1"/>
  <path d="M 97.72375513269162,27.5994376844925 L 98.22304635011551,27.653841572617978" fill="none" instance-id="7" semantic-id="4" stroke="rgb(0,178,178)" stroke-width="0.1"/>
  <path d="M 98.22304635011551,27.653841572617978 L 98.72463232578934,27.67959058905194" fill="none" instance-id="7" semantic-id="4" stroke="rgb(0,178,178)" stroke-width="0.1"/>
  <path d="M 98.72463232578934,27.67959058905194 L 99.22686988063242,27.676600380867484" fill="none" instance-id="7" semantic-id="4" stroke="rgb(0,178,178)" stroke-width="0.1"/>
  <path d="M 99.22686988063242,27.676600380867484 L 99.72811370101317,27.644880743887853" fill="none" instance-id="7" semantic-id="4" stroke="rgb(0,178,178)" stroke-width="0.1"/>
  <path d="M 15.792369000000008,34.432244500000024 A 10.725,10.725 0.0 0,0 9.682369000000108,48.099244500000026" fill="none" instance-id="3" semantic-id="3" stroke="rgb(0,178,178)" stroke-width="0.1"/>
 </g>
 <g id="layerDOOR_FIRE_TEXT" inkscape:groupmode="layer" inkscape:label="DOOR_FIRE_TEXT">
  <text fill="rgb(0,0,0)" font-family="Noto Sans CJK SC" font-size="2" transform="rotate(-21.6395,73.16236900000013,12.000244500000036)" x="73.16236900000013" y="12.000244500000036">
   FM
  </text>
  <text fill="rgb(0,0,0)" font-family="Noto Sans CJK SC" font-size="2" transform="rotate(-21.6395,76.5823690000002,10.641244500000028)" x="76.5823690000002" y="10.641244500000028">
   甲
  </text>
  <text fill="rgb(0,0,0)" font-family="Noto Sans CJK SC" font-size="2" transform="rotate(-21.6395,79.74236900000005,9.387244500000037)" x="79.74236900000005" y="9.387244500000037">
   1823
  </text>
  <text fill="rgb(0,0,0)" font-family="Noto Sans CJK SC" font-size="2" transform="rotate(-21.6395,46.18236900000011,44.031244500000014)" x="46.18236900000011" y="44.031244500000014">
   FM
  </text>
  <text fill="rgb(0,0,0)" font-family="Noto Sans CJK SC" font-size="2" transform="rotate(-21.6395,49.61236900000017,42.67324450000004)" x="49.61236900000017" y="42.67324450000004">
   甲
  </text>
  <text fill="rgb(0,0,0)" font-family="Noto Sans CJK SC" font-size="2" transform="rotate(-21.6395,52.772369000000026,41.418244500000014)" x="52.772369000000026" y="41.418244500000014">
   1823
  </text>
  <text fill="rgb(0,0,0)" font-family="Noto Sans CJK SC" font-size="2" transform="rotate(-291.64,16.59236900000019,26.95124450000003)" x="16.59236900000019" y="26.95124450000003">
   FM
  </text>
  <text fill="rgb(0,0,0)" font-family="Noto Sans CJK SC" font-size="2" transform="rotate(-291.64,17.95236900000009,30.376244500000013)" x="17.95236900000009" y="30.376244500000013">
   甲
  </text>
  <text fill="rgb(0,0,0)" font-family="Noto Sans CJK SC" font-size="2" transform="rotate(-291.64,19.21236900000008,33.53824450000002)" x="19.21236900000008" y="33.53824450000002">
   1123
  </text>
 </g>
 <g id="layerPUB_TEXT" inkscape:groupmode="layer" inkscape:label="PUB_TEXT">
  <text fill="rgb(0,0,0)" font-family="Noto Sans CJK SC" font-size="2" transform="rotate(-21.6395,78.052369,49.91524450000003)" x="78.052369" y="49.91524450000003">
   暗藏消火栓
  </text>
  <text fill="rgb(0,0,0)" font-family="Noto Sans CJK SC" font-size="2" transform="rotate(-21.6395,17.742369000000053,9.417244500000038)" x="17.742369000000053" y="9.417244500000038">
   控制室
  </text>
  <text fill="rgb(0,0,0)" font-family="Noto Sans CJK SC" font-size="2" transform="rotate(-21.6395,27.182369000000108,20.143244500000037)" x="27.182369000000108" y="20.143244500000037">
   -9.750
  </text>
 </g>
 <g id="layerS-JSJ" inkscape:groupmode="layer" inkscape:label="S-JSJ">
  <path d="M 0.0,69.7442767099387 L 100.0,30.07205935673977" fill="none" stroke="rgb(0,133,178)" stroke-width="0.1"/>
  <path d="M 0.0,66.51742005680802 L 100.0,26.843464142876655" fill="none" stroke="rgb(0,133,178)" stroke-width="0.1"/>
 </g>
 <g id="layerWALL" inkscape:groupmode="layer" inkscape:label="WALL">
  <path d="M 100.0,16.08537786052827 L 99.03236900000002,16.46924450000003" fill="none" instance-id="-1" semantic-id="1" stroke="rgb(178,178,0)" stroke-width="0.1"/>
  <path d="M 100.0,13.936654755000092 L 97.37236900000016,14.979244500000021" fill="none" instance-id="-1" semantic-id="1" stroke="rgb(178,178,0)" stroke-width="0.1"/>
  <path d="M 97.17236900000012,17.20724450000003 L 97.91236900000013,19.06624450000004" fill="none" instance-id="-1" semantic-id="1" stroke="rgb(178,178,0)" stroke-width="0.1"/>
  <path d="M 97.91236900000013,19.06624450000004 L 99.77236900000003,18.32824450000004" fill="none" instance-id="-1" semantic-id="1" stroke="rgb(178,178,0)" stroke-width="0.1"/>
  <path d="M 99.77236900000003,18.32824450000004 L 99.03236900000002,16.46924450000003" fill="none" instance-id="-1" semantic-id="1" stroke="rgb(178,178,0)" stroke-width="0.1"/>
  <path d="M 97.37236900000016,14.979244500000021 L 90.40236900000014,17.744244500000036" fill="none" instance-id="-1" semantic-id="1" stroke="rgb(178,178,0)" stroke-width="0.1"/>
  <path d="M 90.40236900000014,17.744244500000036 L 91.13236900000015,19.603244500000017" fill="none" instance-id="-1" semantic-id="1" stroke="rgb(178,178,0)" stroke-width="0.1"/>
  <path d="M 91.13236900000015,19.603244500000017 L 97.17236900000012,17.20724450000003" fill="none" instance-id="-1" semantic-id="1" stroke="rgb(178,178,0)" stroke-width="0.1"/>
  <path d="M 72.59236900000019,26.958244500000035 L 74.40236900000014,26.241244500000022" fill="none" instance-id="-1" semantic-id="1" stroke="rgb(178,178,0)" stroke-width="0.1"/>
  <path d="M 74.40236900000014,26.241244500000022 L 73.66236900000013,24.382244500000013" fill="none" instance-id="-1" semantic-id="1" stroke="rgb(178,178,0)" stroke-width="0.1"/>
  <path d="M 73.66236900000013,24.382244500000013 L 72.79236900000001,24.730244500000026" fill="none" instance-id="-1" semantic-id="1" stroke="rgb(178,178,0)" stroke-width="0.1"/>
  <path d="M 70.93236900000011,25.468244500000026 L 38.81236900000022,38.21124450000002" fill="none" instance-id="-1" semantic-id="1" stroke="rgb(178,178,0)" stroke-width="0.1"/>
  <path d="M 38.81236900000022,38.21124450000002 L 39.54236900000001,40.07024450000003" fill="none" instance-id="-1" semantic-id="1" stroke="rgb(178,178,0)" stroke-width="0.1"/>
  <path d="M 39.54236900000001,40.07024450000003 L 72.59236900000019,26.958244500000035" fill="none" instance-id="-1" semantic-id="1" stroke="rgb(178,178,0)" stroke-width="0.1"/>
  <path d="M 20.95236900000009,47.44524450000003 L 22.812369000000217,46.708244500000035" fill="none" instance-id="-1" semantic-id="1" stroke="rgb(178,178,0)" stroke-width="0.1"/>
  <path d="M 22.812369000000217,46.708244500000035 L 22.0823690000002,44.849244500000026" fill="none" instance-id="-1" semantic-id="1" stroke="rgb(178,178,0)" stroke-width="0.1"/>
  <path d="M 22.0823690000002,44.849244500000026 L 21.152369000000135,45.218244500000026" fill="none" instance-id="-1" semantic-id="1" stroke="rgb(178,178,0)" stroke-width="0.1"/>
  <path d="M 62.98119244254667,0.0 L 72.79236900000001,24.730244500000026" fill="none" instance-id="-1" semantic-id="1" stroke="rgb(178,178,0)" stroke-width="0.1"/>
  <path d="M 60.82920004016705,0.0 L 70.93236900000011,25.468244500000026" fill="none" instance-id="-1" semantic-id="1" stroke="rgb(178,178,0)" stroke-width="0.1"/>
  <path d="M 1.0604766846970506,0.0 L 14.862369000000172,34.801244500000024" fill="none" instance-id="-1" semantic-id="1" stroke="rgb(178,178,0)" stroke-width="0.1"/>
  <path d="M 14.862369000000172,34.801244500000024 L 16.72236900000007,34.063244500000025" fill="none" instance-id="-1" semantic-id="1" stroke="rgb(178,178,0)" stroke-width="0.1"/>
  <path d="M 16.72236900000007,34.063244500000025 L 3.2045923523730835,0.0" fill="none" instance-id="-1" semantic-id="1" stroke="rgb(178,178,0)" stroke-width="0.1"/>
  <path d="M 21.152369000000135,45.218244500000026 L 20.782369000000017,44.28824450000002" fill="none" instance-id="-1" semantic-id="1" stroke="rgb(178,178,0)" stroke-width="0.1"/>
  <path d="M 20.782369000000017,44.28824450000002 L 18.922369000000117,45.02624450000002" fill="none" instance-id="-1" semantic-id="1" stroke="rgb(178,178,0)" stroke-width="0.1"/>
  <path d="M 18.922369000000117,45.02624450000002 L 19.292369000000008,45.95524450000002" fill="none" instance-id="-1" semantic-id="1" stroke="rgb(178,178,0)" stroke-width="0.1"/>
  <path d="M 19.292369000000008,45.95524450000002 L 0.0,53.60820127498883" fill="none" instance-id="-1" semantic-id="1" stroke="rgb(178,178,0)" stroke-width="0.1"/>
  <path d="M 0.0,55.76034952845464 L 20.95236900000009,47.44524450000003" fill="none" instance-id="-1" semantic-id="1" stroke="rgb(178,178,0)" stroke-width="0.1"/>
 </g>
</svg>