<?xml version="1.0" encoding="utf-8"?>
<svg style="background-color: #000;" version="1.1" viewBox="0 0 100.0 100.0" xmlns="http://www.w3.org/2000/svg" xmlns:inkscape="http://www.inkscape.org/namespaces/inkscape">
 <g id="layer!消防-疏散楼梯" inkscape:groupmode="layer" inkscape:label="!消防-疏散楼梯">
  <path d="M 79.90862700000002,81.157061 L 100.0,84.75286040882571" fill="none" stroke="rgb(53,107,0)" stroke-width="0.1"/>
  <path d="M 76.53773030830803,100.0 L 79.90862700000002,81.157061" fill="none" stroke="rgb(53,107,0)" stroke-width="0.1"/>
  <path d="M 79.90862700000002,81.157061 L 100.0,84.75286040882571" fill="none" stroke="rgb(53,107,0)" stroke-width="0.1"/>
  <path d="M 76.53773030830803,100.0 L 79.90862700000002,81.157061" fill="none" stroke="rgb(53,107,0)" stroke-width="0.1"/>
 </g>
 <g id="layer!消防分区" inkscape:groupmode="layer" inkscape:label="!消防分区">
  <path d="M 61.12862700000005,30.037060999999994 L 48.603230690352575,100.0" fill="none" stroke="rgb(142,35,0)" stroke-width="0.1"/>
  <path d="M 0.0,17.584872131902614 L 60.39862700000003,28.395061" fill="none" stroke="rgb(142,35,0)" stroke-width="0.1"/>
 </g>
 <g id="layer0-结构边线" inkscape:groupmode="layer" inkscape:label="0-结构边线">
  <path d="M 49.88862700000004,75.78406100000001 L 58.74862699999994,77.36906100000004" fill="none" stroke="rgb(178,0,178)" stroke-width="0.1"/>
  <path d="M 58.74862699999994,77.36906100000004 L 60.33862699999986,68.51006100000001" fill="none" stroke="rgb(178,0,178)" stroke-width="0.1"/>
  <path d="M 51.47862699999996,66.92506100000003 L 60.33862699999986,68.51006100000001" fill="none" stroke="rgb(178,0,178)" stroke-width="0.1"/>
  <path d="M 49.88862700000004,75.78406100000001 L 51.47862699999996,66.92506100000003" fill="none" stroke="rgb(178,0,178)" stroke-width="0.1"/>
 </g>
 <g id="layerA-车位" inkscape:groupmode="layer" inkscape:label="A-车位">
  <path d="M 0.0,24.694907014427883 L 8.47862699999996,26.212061000000006" fill="none" instance-id="-1" semantic-id="35" stroke="rgb(0,0,178)" stroke-width="0.1"/>
  <path d="M 8.96862699999997,26.300061000000028 L 0.0,76.42164390268925" fill="none" instance-id="-1" semantic-id="35" stroke="rgb(0,0,178)" stroke-width="0.1"/>
  <path d="M 4.168627000000015,36.107061000000044 L 0.0,35.36296530831646" fill="none" instance-id="-1" semantic-id="35" stroke="rgb(0,0,178)" stroke-width="0.1"/>
  <path d="M 4.078626999999869,36.60006100000004 L 0.0,35.86972149044715" fill="none" instance-id="-1" semantic-id="35" stroke="rgb(0,0,178)" stroke-width="0.1"/>
  <path d="M 4.33862699999986,35.12306100000001 L 0.0,34.346164579878064" fill="none" instance-id="-1" semantic-id="35" stroke="rgb(0,0,178)" stroke-width="0.1"/>
  <path d="M 4.33862699999986,35.12306100000001 L 4.078626999999869,36.60006100000004" fill="none" instance-id="-1" semantic-id="35" stroke="rgb(0,0,178)" stroke-width="0.1"/>
  <path d="M 0.0,70.71218886015936 L 7.97862699999996,26.12406100000004" fill="none" instance-id="-1" semantic-id="35" stroke="rgb(0,0,178)" stroke-width="0.1"/>
  <path d="M 8.47862699999996,26.212061000000006 L 32.09862699999985,30.440061000000014" fill="none" instance-id="-1" semantic-id="35" stroke="rgb(0,0,178)" stroke-width="0.1"/>
  <path d="M 32.58862699999986,30.528061000000037 L 22.548626999999897,86.63706100000002" fill="none" instance-id="-1" semantic-id="35" stroke="rgb(0,0,178)" stroke-width="0.1"/>
  <path d="M 27.788626999999906,40.33606100000003 L 22.86862700000006,39.455061" fill="none" instance-id="-1" semantic-id="35" stroke="rgb(0,0,178)" stroke-width="0.1"/>
  <path d="M 14.008626999999933,37.869061000000045 L 9.08862699999986,36.988061000000016" fill="none" instance-id="-1" semantic-id="35" stroke="rgb(0,0,178)" stroke-width="0.1"/>
  <path d="M 27.698626999999988,40.82806100000005 L 22.778626999999915,39.94706100000002" fill="none" instance-id="-1" semantic-id="35" stroke="rgb(0,0,178)" stroke-width="0.1"/>
  <path d="M 13.918627000000015,38.36106100000001 L 8.998626999999942,37.48106100000001" fill="none" instance-id="-1" semantic-id="35" stroke="rgb(0,0,178)" stroke-width="0.1"/>
  <path d="M 27.96862699999997,39.351061000000016 L 23.048626999999897,38.470061000000044" fill="none" instance-id="-1" semantic-id="35" stroke="rgb(0,0,178)" stroke-width="0.1"/>
  <path d="M 14.188626999999997,36.88506100000001 L 9.258626999999933,36.004061000000036" fill="none" instance-id="-1" semantic-id="35" stroke="rgb(0,0,178)" stroke-width="0.1"/>
  <path d="M 27.96862699999997,39.351061000000016 L 27.698626999999988,40.82806100000005" fill="none" instance-id="-1" semantic-id="35" stroke="rgb(0,0,178)" stroke-width="0.1"/>
  <path d="M 9.258626999999933,36.004061000000036 L 8.998626999999942,37.48106100000001" fill="none" instance-id="-1" semantic-id="35" stroke="rgb(0,0,178)" stroke-width="0.1"/>
  <path d="M 22.778626999999915,39.94706100000002 L 23.048626999999897,38.470061000000044" fill="none" instance-id="-1" semantic-id="35" stroke="rgb(0,0,178)" stroke-width="0.1"/>
  <path d="M 13.918627000000015,38.36106100000001 L 14.188626999999997,36.88506100000001" fill="none" instance-id="-1" semantic-id="35" stroke="rgb(0,0,178)" stroke-width="0.1"/>
  <path d="M 21.56862699999988,86.46106100000003 L 31.608626999999842,30.352060999999992" fill="none" instance-id="-1" semantic-id="35" stroke="rgb(0,0,178)" stroke-width="0.1"/>
  <path d="M 32.09862699999985,30.440061000000014 L 56.21862699999997,34.75706100000002" fill="none" instance-id="-1" semantic-id="35" stroke="rgb(0,0,178)" stroke-width="0.1"/>
  <path d="M 55.22862699999996,34.581061000000034 L 45.188627,90.68906100000004" fill="none" instance-id="-1" semantic-id="35" stroke="rgb(0,0,178)" stroke-width="0.1"/>
  <path d="M 51.418627000000015,44.56406100000004 L 46.48862699999995,43.68306100000001" fill="none" instance-id="-1" semantic-id="35" stroke="rgb(0,0,178)" stroke-width="0.1"/>
  <path d="M 37.62862700000005,42.097061 L 32.70862699999998,41.217061" fill="none" instance-id="-1" semantic-id="35" stroke="rgb(0,0,178)" stroke-width="0.1"/>
  <path d="M 51.32862699999987,45.056061 L 46.408627000000024,44.17506100000003" fill="none" instance-id="-1" semantic-id="35" stroke="rgb(0,0,178)" stroke-width="0.1"/>
  <path d="M 37.5486269999999,42.59006100000005 L 32.61862700000006,41.70906100000002" fill="none" instance-id="-1" semantic-id="35" stroke="rgb(0,0,178)" stroke-width="0.1"/>
  <path d="M 51.58862699999986,43.580061 L 46.668627000000015,42.69906100000003" fill="none" instance-id="-1" semantic-id="35" stroke="rgb(0,0,178)" stroke-width="0.1"/>
  <path d="M 37.80862699999989,41.113061000000016 L 32.88862700000004,40.232061000000044" fill="none" instance-id="-1" semantic-id="35" stroke="rgb(0,0,178)" stroke-width="0.1"/>
  <path d="M 51.58862699999986,43.580061 L 51.32862699999987,45.056061" fill="none" instance-id="-1" semantic-id="35" stroke="rgb(0,0,178)" stroke-width="0.1"/>
  <path d="M 32.88862700000004,40.232061000000044 L 32.61862700000006,41.70906100000002" fill="none" instance-id="-1" semantic-id="35" stroke="rgb(0,0,178)" stroke-width="0.1"/>
  <path d="M 46.408627000000024,44.17506100000003 L 46.668627000000015,42.69906100000003" fill="none" instance-id="-1" semantic-id="35" stroke="rgb(0,0,178)" stroke-width="0.1"/>
  <path d="M 37.5486269999999,42.59006100000005 L 37.80862699999989,41.113061000000016" fill="none" instance-id="-1" semantic-id="35" stroke="rgb(0,0,178)" stroke-width="0.1"/>
  <path d="M 0.0,39.11883664999192 L 45.678627000000006,90.777061" fill="none" instance-id="-1" semantic-id="35" stroke="rgb(0,0,178)" stroke-width="0.1"/>
  <path d="M 56.21862699999997,34.75706100000002 L 46.178627000000006,90.86506100000003" fill="none" instance-id="-1" semantic-id="35" stroke="rgb(0,0,178)" stroke-width="0.1"/>
  <path d="M 54.56862699999988,35.47706099999999 L 54.918627000000015,33.508061" fill="none" instance-id="-1" semantic-id="35" stroke="rgb(0,0,178)" stroke-width="0.1"/>
  <path d="M 54.918627000000015,33.508061 L 56.88862700000004,33.86006100000003" fill="none" instance-id="-1" semantic-id="35" stroke="rgb(0,0,178)" stroke-width="0.1"/>
  <path d="M 56.88862700000004,33.86006100000003 L 56.528626999999915,35.829061000000024" fill="none" instance-id="-1" semantic-id="35" stroke="rgb(0,0,178)" stroke-width="0.1"/>
  <path d="M 56.528626999999915,35.829061000000024 L 54.56862699999988,35.47706099999999" fill="none" instance-id="-1" semantic-id="35" stroke="rgb(0,0,178)" stroke-width="0.1"/>
  <path d="M 30.938626999999997,31.24906100000004 L 31.288626999999906,29.280061000000046" fill="none" instance-id="-1" semantic-id="35" stroke="rgb(0,0,178)" stroke-width="0.1"/>
  <path d="M 31.288626999999906,29.280061000000046 L 33.25862699999993,29.63206100000002" fill="none" instance-id="-1" semantic-id="35" stroke="rgb(0,0,178)" stroke-width="0.1"/>
  <path d="M 33.25862699999993,29.63206100000002 L 32.908627000000024,31.601061000000016" fill="none" instance-id="-1" semantic-id="35" stroke="rgb(0,0,178)" stroke-width="0.1"/>
  <path d="M 32.908627000000024,31.601061000000016 L 30.938626999999997,31.24906100000004" fill="none" instance-id="-1" semantic-id="35" stroke="rgb(0,0,178)" stroke-width="0.1"/>
  <path d="M 7.3186269999998785,27.020061 L 7.668627000000015,25.052061000000037" fill="none" instance-id="-1" semantic-id="35" stroke="rgb(0,0,178)" stroke-width="0.1"/>
  <path d="M 7.668627000000015,25.052061000000037 L 9.638627000000042,25.404061000000013" fill="none" instance-id="-1" semantic-id="35" stroke="rgb(0,0,178)" stroke-width="0.1"/>
  <path d="M 9.638627000000042,25.404061000000013 L 9.288626999999906,27.373061000000007" fill="none" instance-id="-1" semantic-id="35" stroke="rgb(0,0,178)" stroke-width="0.1"/>
  <path d="M 9.288626999999906,27.373061000000007 L 7.3186269999998785,27.020061" fill="none" instance-id="-1" semantic-id="35" stroke="rgb(0,0,178)" stroke-width="0.1"/>
 </g>
 <g id="layerA-车位-text" inkscape:groupmode="layer" inkscape:label="A-车位-text">
  <text fill="rgb(178,88,0)" font-family="Noto Sans CJK SC" font-size="2" transform="rotate(-349.853,3.0686269999998785,57.339061000000015)" x="3.0686269999998785" y="57.339061000000015">
   B-031-035
  </text>
 </g>
 <g id="layerCOLUMN" inkscape:groupmode="layer" inkscape:label="COLUMN">
  <path d="M 57.908627000000024,30.99506100000002 L 40.188627,27.82406100000003" fill="none" instance-id="-1" semantic-id="1" stroke="rgb(178,178,0)" stroke-width="0.1"/>
  <path d="M 61.38862700000004,28.571061000000043 L 40.71862699999997,24.871060999999997" fill="none" instance-id="-1" semantic-id="1" stroke="rgb(178,178,0)" stroke-width="0.1"/>
  <path d="M 51.47862699999996,66.92506100000003 L 57.908627000000024,30.99506100000002" fill="none" instance-id="-1" semantic-id="1" stroke="rgb(178,178,0)" stroke-width="0.1"/>
  <path d="M 54.428627000000006,67.45306100000005 L 61.38862700000004,28.571061000000043" fill="none" instance-id="-1" semantic-id="1" stroke="rgb(178,178,0)" stroke-width="0.1"/>
  <path d="M 45.5530853934506,100.0 L 49.88862700000004,75.78406100000001" fill="none" instance-id="-1" semantic-id="1" stroke="rgb(178,178,0)" stroke-width="0.1"/>
  <path d="M 48.6009868310166,100.0 L 52.83862699999986,76.31206100000003" fill="none" instance-id="-1" semantic-id="1" stroke="rgb(178,178,0)" stroke-width="0.1"/>
  <path d="M 40.188627,27.82406100000003 L 0.0,20.632118130369918" fill="none" instance-id="-1" semantic-id="1" stroke="rgb(178,178,0)" stroke-width="0.1"/>
  <path d="M 40.71862699999997,24.871060999999997 L 0.0,17.584272150164963" fill="none" instance-id="-1" semantic-id="1" stroke="rgb(178,178,0)" stroke-width="0.1"/>
  <path d="M 49.88862700000004,75.78406100000001 L 58.74862699999994,77.36906100000004" fill="none" instance-id="-1" semantic-id="1" stroke="rgb(178,178,0)" stroke-width="0.1"/>
  <path d="M 58.74862699999994,77.36906100000004 L 60.33862699999986,68.51006100000001" fill="none" instance-id="-1" semantic-id="1" stroke="rgb(178,178,0)" stroke-width="0.1"/>
  <path d="M 60.33862699999986,68.51006100000001 L 51.47862699999996,66.92506100000003" fill="none" instance-id="-1" semantic-id="1" stroke="rgb(178,178,0)" stroke-width="0.1"/>
  <path d="M 51.47862699999996,66.92506100000003 L 49.88862700000004,75.78406100000001" fill="none" instance-id="-1" semantic-id="1" stroke="rgb(178,178,0)" stroke-width="0.1"/>
 </g>
 <g id="layerDIM_LEAD" inkscape:groupmode="layer" inkscape:label="DIM_LEAD">
  <path d="M 80.61862700000006,72.64906100000002 L 89.678627,67.097061" fill="none" stroke="rgb(0,178,0)" stroke-width="0.1"/>
  <path d="M 89.678627,67.097061 L 100.0,68.94442408336255" fill="none" stroke="rgb(0,178,0)" stroke-width="0.1"/>
 </g>
 <g id="layerDOOR_FIRE" inkscape:groupmode="layer" inkscape:label="DOOR_FIRE">
  <path d="M 62.22862699999996,23.892061000000012 L 63.80862699999989,15.033061000000032" fill="none" instance-id="6" semantic-id="3" stroke="rgb(0,178,178)" stroke-width="0.1"/>
  <path d="M 60.25862699999993,23.539061000000004 L 61.83862699999986,14.680061000000023" fill="none" instance-id="6" semantic-id="3" stroke="rgb(0,178,178)" stroke-width="0.1"/>
  <path d="M 65.83862699999986,3.7190610000000106 L 66.5019204168641,0.0" fill="none" stroke="rgb(0,178,178)" stroke-width="0.1"/>
  <path d="M 63.86862700000006,3.367061000000035 L 64.4691413221583,0.0" fill="none" stroke="rgb(0,178,178)" stroke-width="0.1"/>
  <path d="M 75.56862699999988,99.73306100000002 L 77.06044650840863,100.0" fill="none" instance-id="1" semantic-id="4" stroke="rgb(0,178,178)" stroke-width="0.1"/>
  <path d="M 75.52042131151234,100.0 L 75.56862699999988,99.73306100000002" fill="none" instance-id="1" semantic-id="4" stroke="rgb(0,178,178)" stroke-width="0.1"/>
  <path d="M 78.58862699999986,82.900061 L 87.21862699999997,84.44606100000004" fill="none" instance-id="1" semantic-id="4" stroke="rgb(0,178,178)" stroke-width="0.1"/>
  <path d="M 78.66862700000001,82.45806100000004 L 87.2986269999999,84.003061" fill="none" instance-id="1" semantic-id="4" stroke="rgb(0,178,178)" stroke-width="0.1"/>
  <path d="M 87.21862699999997,84.44606100000004 L 87.2986269999999,84.003061" fill="none" instance-id="1" semantic-id="4" stroke="rgb(0,178,178)" stroke-width="0.1"/>
  <path d="M 78.66862700000001,82.45806100000004 L 78.58862699999986,82.900061" fill="none" instance-id="1" semantic-id="4" stroke="rgb(0,178,178)" stroke-width="0.1"/>
  <path d="M 61.23862699999995,23.716061000000025 L 68.62862700000005,18.57206100000002" fill="none" instance-id="6" semantic-id="3" stroke="rgb(0,178,178)" stroke-width="0.1"/>
  <path d="M 83.41862700000001,55.88006100000001 L 74.77862699999991,54.33406100000002" fill="none" instance-id="3" semantic-id="4" stroke="rgb(0,178,178)" stroke-width="0.1"/>
  <path d="M 83.49862699999994,55.43706100000003 L 74.85862699999984,53.891061000000036" fill="none" instance-id="3" semantic-id="4" stroke="rgb(0,178,178)" stroke-width="0.1"/>
  <path d="M 83.41862700000001,55.88006100000001 L 83.49862699999994,55.43706100000003" fill="none" instance-id="3" semantic-id="4" stroke="rgb(0,178,178)" stroke-width="0.1"/>
  <path d="M 74.85862699999984,53.891061000000036 L 74.77862699999991,54.33406100000002" fill="none" instance-id="3" semantic-id="4" stroke="rgb(0,178,178)" stroke-width="0.1"/>
  <path d="M 86.50862699999993,38.604061 L 77.87862700000005,37.05806100000001" fill="none" instance-id="3" semantic-id="4" stroke="rgb(0,178,178)" stroke-width="0.1"/>
  <path d="M 86.58862699999986,38.16106100000002 L 77.95862699999998,36.615061000000026" fill="none" instance-id="3" semantic-id="4" stroke="rgb(0,178,178)" stroke-width="0.1"/>
  <path d="M 77.87862700000005,37.05806100000001 L 77.95862699999998,36.615061000000026" fill="none" instance-id="3" semantic-id="4" stroke="rgb(0,178,178)" stroke-width="0.1"/>
  <path d="M 86.58862699999986,38.16106100000002 L 86.50862699999993,38.604061" fill="none" instance-id="3" semantic-id="4" stroke="rgb(0,178,178)" stroke-width="0.1"/>
  <path d="M 90.81862699999988,14.537060999999994 L 82.178627,12.991061000000002" fill="none" instance-id="4" semantic-id="4" stroke="rgb(0,178,178)" stroke-width="0.1"/>
  <path d="M 90.73862699999995,14.980061000000035 L 82.09862699999985,13.434061000000042" fill="none" instance-id="4" semantic-id="4" stroke="rgb(0,178,178)" stroke-width="0.1"/>
  <path d="M 90.81862699999988,14.537060999999994 L 90.73862699999995,14.980061000000035" fill="none" instance-id="4" semantic-id="4" stroke="rgb(0,178,178)" stroke-width="0.1"/>
  <path d="M 82.09862699999985,13.434061000000042 L 82.178627,12.991061000000002" fill="none" instance-id="4" semantic-id="4" stroke="rgb(0,178,178)" stroke-width="0.1"/>
  <path d="M 87.72862699999996,31.81206100000003 L 79.08862699999986,30.266061000000036" fill="none" instance-id="4" semantic-id="4" stroke="rgb(0,178,178)" stroke-width="0.1"/>
  <path d="M 87.64862700000003,32.25506100000001 L 79.00862699999993,30.70906100000002" fill="none" instance-id="4" semantic-id="4" stroke="rgb(0,178,178)" stroke-width="0.1"/>
  <path d="M 79.08862699999986,30.266061000000036 L 79.00862699999993,30.70906100000002" fill="none" instance-id="4" semantic-id="4" stroke="rgb(0,178,178)" stroke-width="0.1"/>
  <path d="M 87.64862700000003,32.25506100000001 L 87.72862699999996,31.81206100000003" fill="none" instance-id="4" semantic-id="4" stroke="rgb(0,178,178)" stroke-width="0.1"/>
  <path d="M 70.1385493371697,0.0 L 71.57862699999987,2.0690610000000333" fill="none" stroke="rgb(0,178,178)" stroke-width="0.1"/>
  <path d="M 84.30712359217819,99.77657668961888 L 84.28255321836582,99.27505967579089" fill="none" instance-id="1" semantic-id="4" stroke="rgb(0,178,178)" stroke-width="0.1"/>
  <path d="M 84.28255321836582,99.27505967579089 L 84.22933726961833,98.77576909784347" fill="none" instance-id="1" semantic-id="4" stroke="rgb(0,178,178)" stroke-width="0.1"/>
  <path d="M 84.22933726961833,98.77576909784347 L 84.14764999082809,98.28033978208583" fill="none" instance-id="1" semantic-id="4" stroke="rgb(0,178,178)" stroke-width="0.1"/>
  <path d="M 84.14764999082809,98.28033978208583 L 84.03775885051641,97.79039391190304" fill="none" instance-id="1" semantic-id="4" stroke="rgb(0,178,178)" stroke-width="0.1"/>
  <path d="M 84.03775885051641,97.79039391190304 L 83.9000236650611,97.30753571624325" fill="none" instance-id="1" semantic-id="4" stroke="rgb(0,178,178)" stroke-width="0.1"/>
  <path d="M 83.9000236650611,97.30753571624325 L 83.73489542055108,96.83334621689386" fill="none" instance-id="1" semantic-id="4" stroke="rgb(0,178,178)" stroke-width="0.1"/>
  <path d="M 83.73489542055108,96.83334621689386 L 83.54291479612289,96.3693780517442" fill="none" instance-id="1" semantic-id="4" stroke="rgb(0,178,178)" stroke-width="0.1"/>
  <path d="M 83.54291479612289,96.3693780517442 L 83.32471039361576,95.9171503909862" fill="none" instance-id="1" semantic-id="4" stroke="rgb(0,178,178)" stroke-width="0.1"/>
  <path d="M 83.32471039361576,95.9171503909862 L 83.0809966793422,95.47814396289755" fill="none" instance-id="1" semantic-id="4" stroke="rgb(0,178,178)" stroke-width="0.1"/>
  <path d="M 83.0809966793422,95.47814396289755 L 82.8125716447114,95.05379620549598" fill="none" instance-id="1" semantic-id="4" stroke="rgb(0,178,178)" stroke-width="0.1"/>
  <path d="M 82.8125716447114,95.05379620549598 L 82.52031419336845,94.64549655993812" fill="none" instance-id="1" semantic-id="4" stroke="rgb(0,178,178)" stroke-width="0.1"/>
  <path d="M 82.52031419336845,94.64549655993812 L 82.20518126340016,94.25458192107459" fill="none" instance-id="1" semantic-id="4" stroke="rgb(0,178,178)" stroke-width="0.1"/>
  <path d="M 82.20518126340016,94.25458192107459 L 81.86820469403528,93.88233226005758" fill="none" instance-id="1" semantic-id="4" stroke="rgb(0,178,178)" stroke-width="0.1"/>
  <path d="M 81.86820469403528,93.88233226005758 L 81.51048784709474,93.5299664333333" fill="none" instance-id="1" semantic-id="4" stroke="rgb(0,178,178)" stroke-width="0.1"/>
  <path d="M 81.51048784709474,93.5299664333333 L 81.13320199425561,93.19863819174242" fill="none" instance-id="1" semantic-id="4" stroke="rgb(0,178,178)" stroke-width="0.1"/>
  <path d="M 81.13320199425561,93.19863819174242 L 80.73758248195873,92.88943240279559" fill="none" instance-id="1" semantic-id="4" stroke="rgb(0,178,178)" stroke-width="0.1"/>
  <path d="M 80.73758248195873,92.88943240279559 L 80.32492468651571,92.60336149849343" fill="none" instance-id="1" semantic-id="4" stroke="rgb(0,178,178)" stroke-width="0.1"/>
  <path d="M 80.32492468651571,92.60336149849343 L 79.89657977265983,92.34136216032243" fill="none" instance-id="1" semantic-id="4" stroke="rgb(0,178,178)" stroke-width="0.1"/>
  <path d="M 79.89657977265983,92.34136216032243 L 79.45395026943083,92.10429225227995" fill="none" instance-id="1" semantic-id="4" stroke="rgb(0,178,178)" stroke-width="0.1"/>
  <path d="M 79.45395026943083,92.10429225227995 L 78.99848547787474,91.89292801197172" fill="none" instance-id="1" semantic-id="4" stroke="rgb(0,178,178)" stroke-width="0.1"/>
  <path d="M 78.99848547787474,91.89292801197172 L 78.53167672560176,91.70796150897854" fill="none" instance-id="1" semantic-id="4" stroke="rgb(0,178,178)" stroke-width="0.1"/>
  <path d="M 78.53167672560176,91.70796150897854 L 78.05505248373333,91.54999837881354" fill="none" instance-id="1" semantic-id="4" stroke="rgb(0,178,178)" stroke-width="0.1"/>
  <path d="M 78.05505248373333,91.54999837881354 L 77.57017336223225,91.41955583989125" fill="none" instance-id="1" semantic-id="4" stroke="rgb(0,178,178)" stroke-width="0.1"/>
  <path d="M 77.57017336223225,91.41955583989125 L 77.07862699999987,91.31706100000002" fill="none" instance-id="1" semantic-id="4" stroke="rgb(0,178,178)" stroke-width="0.1"/>
  <path d="M 77.07862699999987,91.31706100000002 A 8.775,8.775 0.0 0,0 87.21862699999997,84.44606100000004" fill="none" instance-id="1" semantic-id="4" stroke="rgb(0,178,178)" stroke-width="0.1"/>
  <path d="M 68.62862700000005,18.57206100000002 A 9.0,9.0 0.0 0,0 62.82862699999987,14.856061000000011" fill="none" instance-id="6" semantic-id="3" stroke="rgb(0,178,178)" stroke-width="0.1"/>
  <path d="M 85.00862699999993,47.02106100000003 A 8.775,8.775 0.0 0,0 74.86862700000006,53.891061000000036" fill="none" instance-id="3" semantic-id="4" stroke="rgb(0,178,178)" stroke-width="0.1"/>
  <path d="M 77.87862700000005,37.05906100000004 A 8.775,8.775 0.0 0,0 85.00862699999993,47.02106100000003" fill="none" instance-id="3" semantic-id="4" stroke="rgb(0,178,178)" stroke-width="0.1"/>
  <path d="M 82.10862699999984,13.434061000000042 A 8.775,8.775 0.0 0,0 89.23862699999995,23.39606100000003" fill="none" instance-id="4" semantic-id="4" stroke="rgb(0,178,178)" stroke-width="0.1"/>
  <path d="M 89.23862699999995,23.39606100000003 A 8.775,8.775 0.0 0,0 79.09862699999985,30.267061000000012" fill="none" instance-id="4" semantic-id="4" stroke="rgb(0,178,178)" stroke-width="0.1"/>
  <path d="M 64.84862699999985,3.543061000000023 A 9.0,9.0 0.0 0,0 71.57862699999987,2.0690610000000333" fill="none" stroke="rgb(0,178,178)" stroke-width="0.1"/>
 </g>
 <g id="layerDOOR_FIRE_TEXT" inkscape:groupmode="layer" inkscape:label="DOOR_FIRE_TEXT">
  <text fill="rgb(0,0,0)" font-family="Noto Sans CJK SC" font-size="2" transform="rotate(-79.8529,72.63862700000004,97.00406100000004)" x="72.63862700000004" y="97.00406100000004">
   FM
  </text>
  <text fill="rgb(0,0,0)" font-family="Noto Sans CJK SC" font-size="2" transform="rotate(-79.8529,73.2886269999999,93.378061)" x="73.2886269999999" y="93.378061">
   乙
  </text>
  <text fill="rgb(0,0,0)" font-family="Noto Sans CJK SC" font-size="2" transform="rotate(-79.8529,73.88862700000004,90.02906100000001)" x="73.88862700000004" y="90.02906100000001">
   1821
  </text>
  <text fill="rgb(0,0,0)" font-family="Noto Sans CJK SC" font-size="2" transform="rotate(-79.8529,69.86862700000006,30.616061000000002)" x="69.86862700000006" y="30.616061000000002">
   FM
  </text>
  <text fill="rgb(0,0,0)" font-family="Noto Sans CJK SC" font-size="2" transform="rotate(-79.8529,70.51862699999992,26.990061000000026)" x="70.51862699999992" y="26.990061000000026">
   甲
  </text>
  <text fill="rgb(0,0,0)" font-family="Noto Sans CJK SC" font-size="2" transform="rotate(-79.8529,71.11862700000006,23.641061000000036)" x="71.11862700000006" y="23.641061000000036">
   0921
  </text>
  <text fill="rgb(0,0,0)" font-family="Noto Sans CJK SC" font-size="2" transform="rotate(-79.8529,72.428627,51.645061)" x="72.428627" y="51.645061">
   FM
  </text>
  <text fill="rgb(0,0,0)" font-family="Noto Sans CJK SC" font-size="2" transform="rotate(-79.8529,73.07862699999987,48.018061000000046)" x="73.07862699999987" y="48.018061000000046">
   甲
  </text>
  <text fill="rgb(0,0,0)" font-family="Noto Sans CJK SC" font-size="2" transform="rotate(-79.8529,73.66862700000001,44.67006100000003)" x="73.66862700000001" y="44.67006100000003">
   1823
  </text>
  <text fill="rgb(0,0,0)" font-family="Noto Sans CJK SC" font-size="2" transform="rotate(-79.8529,75.75862699999993,7.341061000000025)" x="75.75862699999993" y="7.341061000000025">
   FM
  </text>
  <text fill="rgb(0,0,0)" font-family="Noto Sans CJK SC" font-size="2" transform="rotate(-79.8529,76.40862700000002,3.7150610000000484)" x="76.40862700000002" y="3.7150610000000484">
   甲
  </text>
  <text fill="rgb(0,0,0)" font-family="Noto Sans CJK SC" font-size="2" transform="rotate(-79.8529,77.00862699999993,0.36606100000000197)" x="77.00862699999993" y="0.36606100000000197">
   0921
  </text>
 </g>
 <g id="layerPUB_HATCH" inkscape:groupmode="layer" inkscape:label="PUB_HATCH">
  <path d="M 57.908627000000024,30.99506100000002 L 61.38862700000004,28.571061000000043" fill="none" instance-id="-1" semantic-id="1" stroke="rgb(63,63,63)" stroke-width="0.1"/>
  <path d="M 61.38862700000004,28.571061000000043 L 40.71862699999997,24.871060999999997" fill="none" instance-id="-1" semantic-id="1" stroke="rgb(63,63,63)" stroke-width="0.1"/>
  <path d="M 40.71862699999997,24.871060999999997 L 40.188627,27.82406100000003" fill="none" instance-id="-1" semantic-id="1" stroke="rgb(63,63,63)" stroke-width="0.1"/>
  <path d="M 40.188627,27.82406100000003 L 57.908627000000024,30.99506100000002" fill="none" instance-id="-1" semantic-id="1" stroke="rgb(63,63,63)" stroke-width="0.1"/>
  <path d="M 51.47862699999996,66.92506100000003 L 54.428627000000006,67.45306100000005" fill="none" instance-id="-1" semantic-id="1" stroke="rgb(63,63,63)" stroke-width="0.1"/>
  <path d="M 54.428627000000006,67.45306100000005 L 61.38862700000004,28.571061000000043" fill="none" instance-id="-1" semantic-id="1" stroke="rgb(63,63,63)" stroke-width="0.1"/>
  <path d="M 61.38862700000004,28.571061000000043 L 57.908627000000024,30.99506100000002" fill="none" instance-id="-1" semantic-id="1" stroke="rgb(63,63,63)" stroke-width="0.1"/>
  <path d="M 57.908627000000024,30.99506100000002 L 51.47862699999996,66.92506100000003" fill="none" instance-id="-1" semantic-id="1" stroke="rgb(63,63,63)" stroke-width="0.1"/>
  <path d="M 49.88862700000004,75.78406100000001 L 45.5530853934506,100.0" fill="none" instance-id="-1" semantic-id="1" stroke="rgb(63,63,63)" stroke-width="0.1"/>
  <path d="M 48.6009868310166,100.0 L 52.83862699999986,76.31206100000003" fill="none" instance-id="-1" semantic-id="1" stroke="rgb(63,63,63)" stroke-width="0.1"/>
  <path d="M 52.83862699999986,76.31206100000003 L 49.88862700000004,75.78406100000001" fill="none" instance-id="-1" semantic-id="1" stroke="rgb(63,63,63)" stroke-width="0.1"/>
  <path d="M 0.0,20.632118130369918 L 40.188627,27.82406100000003" fill="none" instance-id="-1" semantic-id="1" stroke="rgb(63,63,63)" stroke-width="0.1"/>
  <path d="M 40.188627,27.82406100000003 L 40.71862699999997,24.871060999999997" fill="none" instance-id="-1" semantic-id="1" stroke="rgb(63,63,63)" stroke-width="0.1"/>
  <path d="M 40.71862699999997,24.871060999999997 L 0.0,17.584272150164963" fill="none" instance-id="-1" semantic-id="1" stroke="rgb(63,63,63)" stroke-width="0.1"/>
 </g>
 <g id="layerPUB_TEXT" inkscape:groupmode="layer" inkscape:label="PUB_TEXT">
  <text fill="rgb(0,0,0)" font-family="Noto Sans CJK SC" font-size="2" transform="rotate(-349.853,6.258626999999933,8.639061000000027)" x="6.258626999999933" y="8.639061000000027">
   设备
  </text>
  <text fill="rgb(0,0,0)" font-family="Noto Sans CJK SC" font-size="2" transform="rotate(-349.853,43.86862700000006,17.752061000000026)" x="43.86862700000006" y="17.752061000000026">
   弱电
  </text>
  <text fill="rgb(0,0,0)" font-family="Noto Sans CJK SC" font-size="2" transform="rotate(-349.853,93.76862699999992,66.22806100000003)" x="93.76862699999992" y="66.22806100000003">
   暗藏消火栓
  </text>
 </g>
 <g id="layerSTAIR" inkscape:groupmode="layer" inkscape:label="STAIR">
  <path d="M 99.81364530530323,86.25909477991144 L 99.32553242191602,86.36930971881549" fill="none" stroke="rgb(134,134,134)" stroke-width="0.1"/>
  <path d="M 99.32553242191602,86.36930971881549 L 98.84025508367768,86.49140568385405" fill="none" stroke="rgb(134,134,134)" stroke-width="0.1"/>
  <path d="M 98.84025508367768,86.49140568385405 L 98.35810243796027,86.6253099254372" fill="none" stroke="rgb(134,134,134)" stroke-width="0.1"/>
  <path d="M 98.35810243796027,86.6253099254372 L 97.8793617703202,86.7709426581381" fill="none" stroke="rgb(134,134,134)" stroke-width="0.1"/>
  <path d="M 97.8793617703202,86.7709426581381 L 97.40431833332332,86.92821710823262" fill="none" stroke="rgb(134,134,134)" stroke-width="0.1"/>
  <path d="M 97.40431833332332,86.92821710823262 L 96.93325517657968,87.09703956540238" fill="none" stroke="rgb(134,134,134)" stroke-width="0.1"/>
  <path d="M 96.93325517657968,87.09703956540238 L 96.46645297809073,87.27730943857097" fill="none" stroke="rgb(134,134,134)" stroke-width="0.1"/>
  <path d="M 96.46645297809073,87.27730943857097 L 96.00418987701164,87.46891931584031" fill="none" stroke="rgb(134,134,134)" stroke-width="0.1"/>
  <path d="M 96.00418987701164,87.46891931584031 L 95.54674130792455,87.67175502849068" fill="none" stroke="rgb(134,134,134)" stroke-width="0.1"/>
  <path d="M 95.54674130792455,87.67175502849068 L 95.09437983672296,87.885695719007" fill="none" stroke="rgb(134,134,134)" stroke-width="0.1"/>
  <path d="M 95.09437983672296,87.885695719007 L 94.64737499820717,88.11061391309062" fill="none" stroke="rgb(134,134,134)" stroke-width="0.1"/>
  <path d="M 94.64737499820717,88.11061391309062 L 94.20599313548473,88.34637559561344" fill="none" stroke="rgb(134,134,134)" stroke-width="0.1"/>
  <path d="M 94.20599313548473,88.34637559561344 L 93.77049724127232,88.59284029046927" fill="none" stroke="rgb(134,134,134)" stroke-width="0.1"/>
  <path d="M 93.77049724127232,88.59284029046927 L 93.34114680119433,88.84986114427528" fill="none" stroke="rgb(134,134,134)" stroke-width="0.1"/>
  <path d="M 93.34114680119433,88.84986114427528 L 92.9181976391717,89.1172850138729" fill="none" stroke="rgb(134,134,134)" stroke-width="0.1"/>
  <path d="M 92.9181976391717,89.1172850138729 L 92.50190176499109,89.39495255757669" fill="none" stroke="rgb(134,134,134)" stroke-width="0.1"/>
  <path d="M 92.50190176499109,89.39495255757669 L 92.092507224148,89.68269833011607" fill="none" stroke="rgb(134,134,134)" stroke-width="0.1"/>
  <path d="M 92.092507224148,89.68269833011607 L 91.690257950052,89.98035088121452" fill="none" stroke="rgb(134,134,134)" stroke-width="0.1"/>
  <path d="M 91.690257950052,89.98035088121452 L 91.29539361868001,90.28773285774622" fill="none" stroke="rgb(134,134,134)" stroke-width="0.1"/>
  <path d="M 91.29539361868001,90.28773285774622 L 90.90814950576987,90.60466110941007" fill="none" stroke="rgb(134,134,134)" stroke-width="0.1"/>
  <path d="M 90.90814950576987,90.60466110941007 L 90.52875634663201,90.93094679785776" fill="none" stroke="rgb(134,134,134)" stroke-width="0.1"/>
  <path d="M 90.52875634663201,90.93094679785776 L 90.15744019866975,91.26639550921129" fill="none" stroke="rgb(134,134,134)" stroke-width="0.1"/>
  <path d="M 90.15744019866975,91.26639550921129 L 89.79442230668428,91.61080736990232" fill="none" stroke="rgb(134,134,134)" stroke-width="0.1"/>
  <path d="M 89.79442230668428,91.61080736990232 L 89.43991897104843,91.96397716576467" fill="none" stroke="rgb(134,134,134)" stroke-width="0.1"/>
  <path d="M 89.43991897104843,91.96397716576467 L 89.09414141882758,92.32569446430927" fill="none" stroke="rgb(134,134,134)" stroke-width="0.1"/>
  <path d="M 89.09414141882758,92.32569446430927 L 88.75729567792018,92.69574374010767" fill="none" stroke="rgb(134,134,134)" stroke-width="0.1"/>
  <path d="M 88.75729567792018,92.69574374010767 L 88.42958245430032,93.073904503211" fill="none" stroke="rgb(134,134,134)" stroke-width="0.1"/>
  <path d="M 88.42958245430032,93.073904503211 L 88.11119701242728,93.45995143052642" fill="none" stroke="rgb(134,134,134)" stroke-width="0.1"/>
  <path d="M 88.11119701242728,93.45995143052642 L 87.80232905890125,93.85365450007356" fill="none" stroke="rgb(134,134,134)" stroke-width="0.1"/>
  <path d="M 87.80232905890125,93.85365450007356 L 87.50316262942647,94.25477912804058" fill="none" stroke="rgb(134,134,134)" stroke-width="0.1"/>
  <path d="M 87.50316262942647,94.25477912804058 L 87.21387597915759,94.66308630855849" fill="none" stroke="rgb(134,134,134)" stroke-width="0.1"/>
  <path d="M 87.21387597915759,94.66308630855849 L 86.9346414764866,95.07833275611034" fill="none" stroke="rgb(134,134,134)" stroke-width="0.1"/>
  <path d="M 86.9346414764866,95.07833275611034 L 86.66562550034018,95.50027105049037" fill="none" stroke="rgb(134,134,134)" stroke-width="0.1"/>
  <path d="M 86.66562550034018,95.50027105049037 L 86.40698834104364,95.92864978422637" fill="none" stroke="rgb(134,134,134)" stroke-width="0.1"/>
  <path d="M 86.40698834104364,95.92864978422637 L 86.15888410481398,96.36321371237875" fill="none" stroke="rgb(134,134,134)" stroke-width="0.1"/>
  <path d="M 86.15888410481398,96.36321371237875 L 85.92146062193751,96.80370390462491" fill="none" stroke="rgb(134,134,134)" stroke-width="0.1"/>
  <path d="M 85.92146062193751,96.80370390462491 L 85.69485935868647,97.24985789954076" fill="none" stroke="rgb(134,134,134)" stroke-width="0.1"/>
  <path d="M 85.69485935868647,97.24985789954076 L 85.47921533302792,97.70140986098494" fill="none" stroke="rgb(134,134,134)" stroke-width="0.1"/>
  <path d="M 85.47921533302792,97.70140986098494 L 85.2746570341751,98.15809073649501" fill="none" stroke="rgb(134,134,134)" stroke-width="0.1"/>
  <path d="M 85.2746570341751,98.15809073649501 L 85.0813063460273,98.6196284175993" fill="none" stroke="rgb(134,134,134)" stroke-width="0.1"/>
  <path d="M 85.0813063460273,98.6196284175993 L 84.89927847454851,99.08574790194979" fill="none" stroke="rgb(134,134,134)" stroke-width="0.1"/>
  <path d="M 84.89927847454851,99.08574790194979 L 84.72868187912127,99.55617145717946" fill="none" stroke="rgb(134,134,134)" stroke-width="0.1"/>
 </g>
 <g id="layerWALL" inkscape:groupmode="layer" inkscape:label="WALL">
  <path d="M 80.26862699999992,79.188061 L 80.75862699999993,79.277061" fill="none" instance-id="-1" semantic-id="1" stroke="rgb(178,178,0)" stroke-width="0.1"/>
  <path d="M 79.90862700000002,81.157061 L 80.40862700000002,81.24506100000002" fill="none" instance-id="-1" semantic-id="1" stroke="rgb(178,178,0)" stroke-width="0.1"/>
  <path d="M 61.38862700000004,28.571061000000043 L 62.22862699999996,23.892061000000012" fill="none" instance-id="-1" semantic-id="1" stroke="rgb(178,178,0)" stroke-width="0.1"/>
  <path d="M 62.22862699999996,23.892061000000012 L 60.25862699999993,23.539061000000004" fill="none" instance-id="-1" semantic-id="1" stroke="rgb(178,178,0)" stroke-width="0.1"/>
  <path d="M 60.25862699999993,23.539061000000004 L 59.418627000000015,28.21906100000001" fill="none" instance-id="-1" semantic-id="1" stroke="rgb(178,178,0)" stroke-width="0.1"/>
  <path d="M 59.418627000000015,28.21906100000001 L 61.38862700000004,28.571061000000043" fill="none" instance-id="-1" semantic-id="1" stroke="rgb(178,178,0)" stroke-width="0.1"/>
  <path d="M 62.678627000000006,10.008060999999998 L 61.83862699999986,14.680061000000023" fill="none" instance-id="-1" semantic-id="1" stroke="rgb(178,178,0)" stroke-width="0.1"/>
  <path d="M 61.83862699999986,14.680061000000023 L 63.80862699999989,15.033061000000032" fill="none" instance-id="-1" semantic-id="1" stroke="rgb(178,178,0)" stroke-width="0.1"/>
  <path d="M 63.80862699999989,15.033061000000032 L 64.81862699999988,9.376060999999993" fill="none" instance-id="-1" semantic-id="1" stroke="rgb(178,178,0)" stroke-width="0.1"/>
  <path d="M 100.0,38.52955951833172 L 87.928627,36.369061000000045" fill="none" instance-id="-1" semantic-id="1" stroke="rgb(178,178,0)" stroke-width="0.1"/>
  <path d="M 100.0,36.49791755693957 L 88.27862699999991,34.400060999999994" fill="none" instance-id="-1" semantic-id="1" stroke="rgb(178,178,0)" stroke-width="0.1"/>
  <path d="M 88.27862699999991,34.400060999999994 L 88.63862700000004,32.431061" fill="none" instance-id="-1" semantic-id="1" stroke="rgb(178,178,0)" stroke-width="0.1"/>
  <path d="M 88.63862700000004,32.431061 L 86.66862700000001,32.079061000000024" fill="none" instance-id="-1" semantic-id="1" stroke="rgb(178,178,0)" stroke-width="0.1"/>
  <path d="M 86.66862700000001,32.079061000000024 L 86.13862700000004,35.032061" fill="none" instance-id="-1" semantic-id="1" stroke="rgb(178,178,0)" stroke-width="0.1"/>
  <path d="M 92.40622831653786,0.0 L 89.83862699999986,14.361061000000007" fill="none" instance-id="-1" semantic-id="1" stroke="rgb(178,178,0)" stroke-width="0.1"/>
  <path d="M 89.83862699999986,14.361061000000007 L 91.80862699999989,14.713061000000039" fill="none" instance-id="-1" semantic-id="1" stroke="rgb(178,178,0)" stroke-width="0.1"/>
  <path d="M 91.80862699999989,14.713061000000039 L 94.43609979794678,0.0" fill="none" instance-id="-1" semantic-id="1" stroke="rgb(178,178,0)" stroke-width="0.1"/>
  <path d="M 62.678627000000006,10.008060999999998 L 44.95862699999998,6.837061000000006" fill="none" instance-id="-1" semantic-id="1" stroke="rgb(178,178,0)" stroke-width="0.1"/>
  <path d="M 63.028626999999915,8.039061000000004 L 45.30862699999989,4.8680610000000115" fill="none" instance-id="-1" semantic-id="1" stroke="rgb(178,178,0)" stroke-width="0.1"/>
  <path d="M 39.72862699999996,24.69506100000001 L 43.168627000000015,5.5000610000000165" fill="none" instance-id="-1" semantic-id="1" stroke="rgb(178,178,0)" stroke-width="0.1"/>
  <path d="M 41.69862699999999,25.047061000000042 L 44.95862699999998,6.837061000000006" fill="none" instance-id="-1" semantic-id="1" stroke="rgb(178,178,0)" stroke-width="0.1"/>
  <path d="M 43.168627000000015,5.5000610000000165 L 44.15251600397528,0.0" fill="none" instance-id="-1" semantic-id="1" stroke="rgb(178,178,0)" stroke-width="0.1"/>
  <path d="M 45.30862699999989,4.8680610000000115 L 46.18081376948635,0.0" fill="none" instance-id="-1" semantic-id="1" stroke="rgb(178,178,0)" stroke-width="0.1"/>
  <path d="M 64.81862699999988,9.376060999999993 L 65.83862699999986,3.7190610000000106" fill="none" instance-id="-1" semantic-id="1" stroke="rgb(178,178,0)" stroke-width="0.1"/>
  <path d="M 65.83862699999986,3.7190610000000106 L 63.86862700000006,3.367061000000035" fill="none" instance-id="-1" semantic-id="1" stroke="rgb(178,178,0)" stroke-width="0.1"/>
  <path d="M 63.86862700000006,3.367061000000035 L 63.028626999999915,8.039061000000004" fill="none" instance-id="-1" semantic-id="1" stroke="rgb(178,178,0)" stroke-width="0.1"/>
  <path d="M 78.11862700000006,79.82006100000001 L 77.678627,82.28106100000002" fill="none" instance-id="-1" semantic-id="1" stroke="rgb(178,178,0)" stroke-width="0.1"/>
  <path d="M 77.678627,82.28106100000002 L 79.64862700000003,82.63406100000003" fill="none" instance-id="-1" semantic-id="1" stroke="rgb(178,178,0)" stroke-width="0.1"/>
  <path d="M 79.64862700000003,82.63406100000003 L 79.90862700000002,81.157061" fill="none" instance-id="-1" semantic-id="1" stroke="rgb(178,178,0)" stroke-width="0.1"/>
  <path d="M 80.75862699999993,79.277061 L 82.51862699999992,69.43306100000001" fill="none" instance-id="-1" semantic-id="1" stroke="rgb(178,178,0)" stroke-width="0.1"/>
  <path d="M 81.73862699999995,79.45306100000005 L 83.678627,68.62506100000002" fill="none" instance-id="-1" semantic-id="1" stroke="rgb(178,178,0)" stroke-width="0.1"/>
  <path d="M 82.51862699999992,69.43306100000001 L 82.02862699999991,69.34506100000004" fill="none" instance-id="-1" semantic-id="1" stroke="rgb(178,178,0)" stroke-width="0.1"/>
  <path d="M 83.678627,68.62506100000002 L 82.19862699999999,68.36006100000003" fill="none" instance-id="-1" semantic-id="1" stroke="rgb(178,178,0)" stroke-width="0.1"/>
  <path d="M 78.11862700000006,79.82006100000001 L 80.05862699999989,68.99206100000004" fill="none" instance-id="-1" semantic-id="1" stroke="rgb(178,178,0)" stroke-width="0.1"/>
  <path d="M 80.26862699999992,79.188061 L 82.02862699999991,69.34506100000004" fill="none" instance-id="-1" semantic-id="1" stroke="rgb(178,178,0)" stroke-width="0.1"/>
  <path d="M 81.73862699999995,79.45306100000005 L 100.0,82.72099381598201" fill="none" instance-id="-1" semantic-id="1" stroke="rgb(178,178,0)" stroke-width="0.1"/>
  <path d="M 80.40862700000002,81.24506100000002 L 100.0,84.75133739452355" fill="none" instance-id="-1" semantic-id="1" stroke="rgb(178,178,0)" stroke-width="0.1"/>
  <path d="M 82.19862699999999,68.36006100000003 L 84.40862700000002,56.056061" fill="none" instance-id="-1" semantic-id="1" stroke="rgb(178,178,0)" stroke-width="0.1"/>
  <path d="M 84.40862700000002,56.056061 L 82.438627,55.704061000000024" fill="none" instance-id="-1" semantic-id="1" stroke="rgb(178,178,0)" stroke-width="0.1"/>
  <path d="M 82.438627,55.704061000000024 L 80.05862699999989,68.99206100000004" fill="none" instance-id="-1" semantic-id="1" stroke="rgb(178,178,0)" stroke-width="0.1"/>
  <path d="M 86.13862700000004,35.032061 L 85.60862699999984,37.98506100000003" fill="none" instance-id="-1" semantic-id="1" stroke="rgb(178,178,0)" stroke-width="0.1"/>
  <path d="M 85.60862699999984,37.98506100000003 L 87.57862699999987,38.33806100000004" fill="none" instance-id="-1" semantic-id="1" stroke="rgb(178,178,0)" stroke-width="0.1"/>
  <path d="M 87.57862699999987,38.33806100000004 L 87.928627,36.369061000000045" fill="none" instance-id="-1" semantic-id="1" stroke="rgb(178,178,0)" stroke-width="0.1"/>
 </g>
 <g id="layers-消火栓" inkscape:groupmode="layer" inkscape:label="s-消火栓">
  <path d="M 82.41862700000001,69.41506100000004 L 80.05862699999989,68.99206100000004" fill="none" stroke="rgb(178,88,0)" stroke-width="0.1"/>
  <path d="M 78.82862699999987,75.883061 L 81.188627,76.306061" fill="none" stroke="rgb(178,88,0)" stroke-width="0.1"/>
  <path d="M 81.188627,76.306061 L 82.41862700000001,69.41506100000004" fill="none" stroke="rgb(178,88,0)" stroke-width="0.1"/>
  <path d="M 81.188627,76.306061 L 80.05862699999989,68.99206100000004" fill="none" stroke="rgb(178,88,0)" stroke-width="0.1"/>
  <path d="M 80.05862699999989,68.99206100000004 L 78.82862699999987,75.883061" fill="none" stroke="rgb(178,88,0)" stroke-width="0.1"/>
  <circle cx="82.0486269999999" cy="78.289061" fill="none" r="0.5" stroke="rgb(178,178,0)" stroke-width="0.1"/>
 </g>
</svg>