<?xml version="1.0" encoding="utf-8"?>
<svg style="background-color: #000;" version="1.1" viewBox="0 0 100.0 100.0" xmlns="http://www.w3.org/2000/svg" xmlns:inkscape="http://www.inkscape.org/namespaces/inkscape">
 <g id="layer0-结构边线" inkscape:groupmode="layer" inkscape:label="0-结构边线">
  <path d="M 95.05862699999989,33.237060999999926 L 100.0,34.12204136214689" fill="none" stroke="rgb(178,0,178)" stroke-width="0.1"/>
  <path d="M 96.63862700000004,24.378061000000002 L 100.0,24.979390142776538" fill="none" stroke="rgb(178,0,178)" stroke-width="0.1"/>
  <path d="M 95.05862699999989,33.237060999999926 L 96.63862700000004,24.378061000000002" fill="none" stroke="rgb(178,0,178)" stroke-width="0.1"/>
  <path d="M 1.4386269999999968,16.48206099999993 L 10.298626999999897,18.068060999999943" fill="none" stroke="rgb(178,0,178)" stroke-width="0.1"/>
  <path d="M 10.298626999999897,18.068060999999943 L 11.888627000000042,9.20906100000002" fill="none" stroke="rgb(178,0,178)" stroke-width="0.1"/>
  <path d="M 3.028626999999915,7.623061000000007 L 11.888627000000042,9.20906100000002" fill="none" stroke="rgb(178,0,178)" stroke-width="0.1"/>
  <path d="M 1.4386269999999968,16.48206099999993 L 3.028626999999915,7.623061000000007" fill="none" stroke="rgb(178,0,178)" stroke-width="0.1"/>
  <path d="M 29.138627000000042,23.47206099999994 L 33.07862699999987,24.17706099999998" fill="none" stroke="rgb(178,0,178)" stroke-width="0.1"/>
  <path d="M 33.07862699999987,24.17706099999998 L 33.95862699999998,19.255060999999955" fill="none" stroke="rgb(178,0,178)" stroke-width="0.1"/>
  <path d="M 30.028626999999915,18.550060999999914 L 33.95862699999998,19.255060999999955" fill="none" stroke="rgb(178,0,178)" stroke-width="0.1"/>
  <path d="M 29.138627000000042,23.47206099999994 L 30.028626999999915,18.550060999999914" fill="none" stroke="rgb(178,0,178)" stroke-width="0.1"/>
 </g>
 <g id="layerCOLUMN" inkscape:groupmode="layer" inkscape:label="COLUMN">
  <path d="M 30.028626999999915,18.550060999999914 L 30.288626999999906,17.074060999999915" fill="none" instance-id="-1" semantic-id="1" stroke="rgb(178,178,0)" stroke-width="0.1"/>
  <path d="M 0.0,24.522145445798515 L 1.4386269999999968,16.48206099999993" fill="none" instance-id="-1" semantic-id="1" stroke="rgb(178,178,0)" stroke-width="0.1"/>
  <path d="M 0.0,41.57516353623305 L 4.398627000000033,17.011060999999927" fill="none" instance-id="-1" semantic-id="1" stroke="rgb(178,178,0)" stroke-width="0.1"/>
  <path d="M 88.1806822292956,100.0 L 94.15862700000002,66.60106099999996" fill="none" instance-id="-1" semantic-id="1" stroke="rgb(178,178,0)" stroke-width="0.1"/>
  <path d="M 92.2467258655879,100.0 L 98.09862699999985,67.306061" fill="none" instance-id="-1" semantic-id="1" stroke="rgb(178,178,0)" stroke-width="0.1"/>
  <path d="M 16.288626999999906,95.33106099999998 L 15.451045396352583,100.0" fill="none" instance-id="-1" semantic-id="1" stroke="rgb(178,178,0)" stroke-width="0.1"/>
  <path d="M 16.288626999999906,95.33106099999998 L 42.37630269169972,100.0" fill="none" instance-id="-1" semantic-id="1" stroke="rgb(178,178,0)" stroke-width="0.1"/>
  <path d="M 77.688627,28.096060999999963 L 72.27862699999991,27.128061000000002" fill="none" instance-id="-1" semantic-id="1" stroke="rgb(178,178,0)" stroke-width="0.1"/>
  <path d="M 78.20862699999998,25.14306099999999 L 74.27862699999991,24.439060999999924" fill="none" instance-id="-1" semantic-id="1" stroke="rgb(178,178,0)" stroke-width="0.1"/>
  <path d="M 56.168627000000015,26.27806099999998 L 50.35862699999984,58.76206100000002" fill="none" instance-id="-1" semantic-id="1" stroke="rgb(178,178,0)" stroke-width="0.1"/>
  <path d="M 51.24862699999994,25.397061000000008 L 45.438627,57.88106099999993" fill="none" instance-id="-1" semantic-id="1" stroke="rgb(178,178,0)" stroke-width="0.1"/>
  <path d="M 60.85862699999984,25.08406100000002 L 60.49862699999994,27.053060999999957" fill="none" instance-id="-1" semantic-id="1" stroke="rgb(178,178,0)" stroke-width="0.1"/>
  <path d="M 60.49862699999994,27.053060999999957 L 56.168627000000015,26.27806099999998" fill="none" instance-id="-1" semantic-id="1" stroke="rgb(178,178,0)" stroke-width="0.1"/>
  <path d="M 61.38862700000004,22.13106099999993 L 52.12862700000005,20.475060999999982" fill="none" instance-id="-1" semantic-id="1" stroke="rgb(178,178,0)" stroke-width="0.1"/>
  <path d="M 10.82862699999987,15.115060999999969 L 10.298626999999897,18.068060999999943" fill="none" instance-id="-1" semantic-id="1" stroke="rgb(178,178,0)" stroke-width="0.1"/>
  <path d="M 30.028626999999915,18.550060999999914 L 25.59862699999985,17.757060999999908" fill="none" instance-id="-1" semantic-id="1" stroke="rgb(178,178,0)" stroke-width="0.1"/>
  <path d="M 25.59862699999985,17.757060999999908 L 25.06862699999988,20.710060999999996" fill="none" instance-id="-1" semantic-id="1" stroke="rgb(178,178,0)" stroke-width="0.1"/>
  <path d="M 25.06862699999988,20.710060999999996 L 29.498626999999942,21.503061000000002" fill="none" instance-id="-1" semantic-id="1" stroke="rgb(178,178,0)" stroke-width="0.1"/>
  <path d="M 5.97862699999996,8.152061000000003 L 7.439585053659812,0.0" fill="none" instance-id="-1" semantic-id="1" stroke="rgb(178,178,0)" stroke-width="0.1"/>
  <path d="M 4.390809820005188,0.0 L 3.028626999999915,7.623061000000007" fill="none" instance-id="-1" semantic-id="1" stroke="rgb(178,178,0)" stroke-width="0.1"/>
  <path d="M 33.32862699999987,17.110060999999973 L 34.038626999999906,13.173060999999961" fill="none" instance-id="-1" semantic-id="1" stroke="rgb(178,178,0)" stroke-width="0.1"/>
  <path d="M 34.038626999999906,13.173060999999961 L 31.07862699999987,12.644060999999965" fill="none" instance-id="-1" semantic-id="1" stroke="rgb(178,178,0)" stroke-width="0.1"/>
  <path d="M 31.07862699999987,12.644060999999965 L 30.288626999999906,17.074060999999915" fill="none" instance-id="-1" semantic-id="1" stroke="rgb(178,178,0)" stroke-width="0.1"/>
  <path d="M 33.33983271092484,0.0 L 32.83862699999986,2.8010610000000042" fill="none" instance-id="-1" semantic-id="1" stroke="rgb(178,178,0)" stroke-width="0.1"/>
  <path d="M 32.83862699999986,2.8010610000000042 L 35.7986269999999,3.3290609999999106" fill="none" instance-id="-1" semantic-id="1" stroke="rgb(178,178,0)" stroke-width="0.1"/>
  <path d="M 35.7986269999999,3.3290609999999106 L 36.39433122114474,0.0" fill="none" instance-id="-1" semantic-id="1" stroke="rgb(178,178,0)" stroke-width="0.1"/>
  <path d="M 99.50288569665804,0.0 L 100.0,0.08896812419106936" fill="none" instance-id="-1" semantic-id="1" stroke="rgb(178,178,0)" stroke-width="0.1"/>
  <path d="M 82.47283524469208,0.0 L 100.0,3.13682177355156" fill="none" instance-id="-1" semantic-id="1" stroke="rgb(178,178,0)" stroke-width="0.1"/>
  <path d="M 95.05862699999989,33.237060999999926 L 77.32862699999987,30.065061000000014" fill="none" instance-id="-1" semantic-id="1" stroke="rgb(178,178,0)" stroke-width="0.1"/>
  <path d="M 77.32862699999987,30.065061000000014 L 77.688627,28.096060999999963" fill="none" instance-id="-1" semantic-id="1" stroke="rgb(178,178,0)" stroke-width="0.1"/>
  <path d="M 95.938627,28.315061000000014 L 78.20862699999998,25.14306099999999" fill="none" instance-id="-1" semantic-id="1" stroke="rgb(178,178,0)" stroke-width="0.1"/>
  <path d="M 78.65004696215442,0.0 L 74.27862699999991,24.439060999999924" fill="none" instance-id="-1" semantic-id="1" stroke="rgb(178,178,0)" stroke-width="0.1"/>
  <path d="M 75.60183290503778,0.0 L 71.32862699999987,23.911061000000018" fill="none" instance-id="-1" semantic-id="1" stroke="rgb(178,178,0)" stroke-width="0.1"/>
  <path d="M 72.27862699999991,27.128061000000002 L 60.85862699999984,25.08406100000002" fill="none" instance-id="-1" semantic-id="1" stroke="rgb(178,178,0)" stroke-width="0.1"/>
  <path d="M 71.32862699999987,23.911061000000018 L 61.38862700000004,22.13106099999993" fill="none" instance-id="-1" semantic-id="1" stroke="rgb(178,178,0)" stroke-width="0.1"/>
  <path d="M 51.24862699999994,25.397061000000008 L 32.44862699999999,22.032061" fill="none" instance-id="-1" semantic-id="1" stroke="rgb(178,178,0)" stroke-width="0.1"/>
  <path d="M 52.12862700000005,20.475060999999982 L 33.32862699999987,17.110060999999973" fill="none" instance-id="-1" semantic-id="1" stroke="rgb(178,178,0)" stroke-width="0.1"/>
  <path d="M 94.15862700000002,66.60106099999996 L 99.97862699999996,34.11806100000001" fill="none" instance-id="-1" semantic-id="1" stroke="rgb(178,178,0)" stroke-width="0.1"/>
  <path d="M 98.09862699999985,67.306061 L 100.0,56.675389651978776" fill="none" instance-id="-1" semantic-id="1" stroke="rgb(178,178,0)" stroke-width="0.1"/>
  <path d="M 50.35862699999984,58.76206100000002 L 50.178627000000006,59.74606099999994" fill="none" instance-id="-1" semantic-id="1" stroke="rgb(178,178,0)" stroke-width="0.1"/>
  <path d="M 45.438627,57.88106099999993 L 45.25862699999993,58.86506099999997" fill="none" instance-id="-1" semantic-id="1" stroke="rgb(178,178,0)" stroke-width="0.1"/>
  <path d="M 50.178627000000006,59.74606099999994 L 45.25862699999993,58.86506099999997" fill="none" instance-id="-1" semantic-id="1" stroke="rgb(178,178,0)" stroke-width="0.1"/>
  <path d="M 29.138627000000042,23.47206099999994 L 33.07862699999987,24.17706099999998" fill="none" instance-id="-1" semantic-id="1" stroke="rgb(178,178,0)" stroke-width="0.1"/>
  <path d="M 33.07862699999987,24.17706099999998 L 33.95862699999998,19.255060999999955" fill="none" instance-id="-1" semantic-id="1" stroke="rgb(178,178,0)" stroke-width="0.1"/>
  <path d="M 33.95862699999998,19.255060999999955 L 30.028626999999915,18.550060999999914" fill="none" instance-id="-1" semantic-id="1" stroke="rgb(178,178,0)" stroke-width="0.1"/>
  <path d="M 30.028626999999915,18.550060999999914 L 29.138627000000042,23.47206099999994" fill="none" instance-id="-1" semantic-id="1" stroke="rgb(178,178,0)" stroke-width="0.1"/>
  <path d="M 95.05862699999989,33.237060999999926 L 100.0,34.12204136214689" fill="none" instance-id="-1" semantic-id="1" stroke="rgb(178,178,0)" stroke-width="0.1"/>
  <path d="M 100.0,24.979390142776538 L 96.63862700000004,24.378061000000002" fill="none" instance-id="-1" semantic-id="1" stroke="rgb(178,178,0)" stroke-width="0.1"/>
  <path d="M 96.63862700000004,24.378061000000002 L 95.05862699999989,33.237060999999926" fill="none" instance-id="-1" semantic-id="1" stroke="rgb(178,178,0)" stroke-width="0.1"/>
  <path d="M 1.4386269999999968,16.48206099999993 L 10.298626999999897,18.068060999999943" fill="none" instance-id="-1" semantic-id="1" stroke="rgb(178,178,0)" stroke-width="0.1"/>
  <path d="M 10.298626999999897,18.068060999999943 L 11.888627000000042,9.20906100000002" fill="none" instance-id="-1" semantic-id="1" stroke="rgb(178,178,0)" stroke-width="0.1"/>
  <path d="M 11.888627000000042,9.20906100000002 L 3.028626999999915,7.623061000000007" fill="none" instance-id="-1" semantic-id="1" stroke="rgb(178,178,0)" stroke-width="0.1"/>
  <path d="M 3.028626999999915,7.623061000000007 L 1.4386269999999968,16.48206099999993" fill="none" instance-id="-1" semantic-id="1" stroke="rgb(178,178,0)" stroke-width="0.1"/>
 </g>
 <g id="layerDIM_ELEV" inkscape:groupmode="layer" inkscape:label="DIM_ELEV">
  <path d="M 63.80862699999989,56.15606099999991 L 60.168627000000015,50.93406099999993" fill="none" stroke="rgb(0,178,0)" stroke-width="0.1"/>
  <path d="M 63.80862699999989,56.15606099999991 L 69.02862699999991,52.519060999999965" fill="none" stroke="rgb(0,178,0)" stroke-width="0.1"/>
  <path d="M 60.168627000000015,50.93406099999993 L 89.41862700000001,56.168060999999966" fill="none" stroke="rgb(0,178,0)" stroke-width="0.1"/>
 </g>
 <g id="layerDIM_IDEN" inkscape:groupmode="layer" inkscape:label="DIM_IDEN">
  <path d="M 76.64862700000003,42.561060999999995 L 100.0,46.74028235911544" fill="none" stroke="rgb(0,178,0)" stroke-width="0.1"/>
 </g>
 <g id="layerDIM_LEAD" inkscape:groupmode="layer" inkscape:label="DIM_LEAD">
  <path d="M 41.188627,51.321060999999986 L 33.63862700000004,66.27906099999996" fill="none" stroke="rgb(0,178,0)" stroke-width="0.1"/>
  <path d="M 33.63862700000004,66.27906099999996 L 81.45862699999998,74.83706099999995" fill="none" stroke="rgb(0,178,0)" stroke-width="0.1"/>
  <path d="M 41.36862700000006,51.08106099999998 A 0.3,0.3 0.0 1,0 41.00862699999993,51.56006100000002" fill="none" stroke="rgb(0,178,0)" stroke-width="0.1"/>
  <path d="M 41.00862699999993,51.56006100000002 A 0.3,0.3 0.0 0,0 41.36862700000006,51.08106099999998" fill="none" stroke="rgb(0,178,0)" stroke-width="0.1"/>
 </g>
 <g id="layerDOOR_FIRE" inkscape:groupmode="layer" inkscape:label="DOOR_FIRE">
  <path d="M 28.11862700000006,40.55906099999993 L 26.178627000000006,51.38706100000002" fill="none" instance-id="1" semantic-id="3" stroke="rgb(0,178,178)" stroke-width="0.1"/>
  <path d="M 14.738626999999951,48.779060999999956 L 14.638627000000042,49.321060999999986" fill="none" instance-id="1" semantic-id="3" stroke="rgb(0,178,178)" stroke-width="0.1"/>
  <path d="M 25.198626999999988,51.210060999999996 L 25.288626999999906,50.66906099999994" fill="none" instance-id="1" semantic-id="3" stroke="rgb(0,178,178)" stroke-width="0.1"/>
  <path d="M 25.198626999999988,51.210060999999996 L 14.638627000000042,49.321060999999986" fill="none" instance-id="1" semantic-id="3" stroke="rgb(0,178,178)" stroke-width="0.1"/>
  <path d="M 25.288626999999906,50.66906099999994 L 14.738626999999951,48.779060999999956" fill="none" instance-id="1" semantic-id="3" stroke="rgb(0,178,178)" stroke-width="0.1"/>
  <path d="M 23.86862700000006,58.59306099999992 L 33.46862699999997,60.311060999999995" fill="none" instance-id="2" semantic-id="4" stroke="rgb(0,178,178)" stroke-width="0.1"/>
  <path d="M 23.788626999999906,59.085060999999996 L 33.37862700000005,60.80306099999996" fill="none" instance-id="2" semantic-id="4" stroke="rgb(0,178,178)" stroke-width="0.1"/>
  <path d="M 23.86862700000006,58.59306099999992 L 23.788626999999906,59.085060999999996" fill="none" instance-id="2" semantic-id="4" stroke="rgb(0,178,178)" stroke-width="0.1"/>
  <path d="M 33.37862700000005,60.80306099999996 L 33.46862699999997,60.311060999999995" fill="none" instance-id="2" semantic-id="4" stroke="rgb(0,178,178)" stroke-width="0.1"/>
  <path d="M 20.438626999999997,77.78806099999997 L 30.038626999999906,79.50606099999993" fill="none" instance-id="2" semantic-id="4" stroke="rgb(0,178,178)" stroke-width="0.1"/>
  <path d="M 20.34862699999985,78.28006099999993 L 29.948626999999988,79.998061" fill="none" instance-id="2" semantic-id="4" stroke="rgb(0,178,178)" stroke-width="0.1"/>
  <path d="M 30.038626999999906,79.50606099999993 L 29.948626999999988,79.998061" fill="none" instance-id="2" semantic-id="4" stroke="rgb(0,178,178)" stroke-width="0.1"/>
  <path d="M 20.34862699999985,78.28006099999993 L 20.438626999999997,77.78806099999997" fill="none" instance-id="2" semantic-id="4" stroke="rgb(0,178,178)" stroke-width="0.1"/>
  <path d="M 27.12862700000005,40.38206099999991 A 10.725,10.725 0.0 0,0 14.738626999999951,48.78006099999993" fill="none" instance-id="1" semantic-id="3" stroke="rgb(0,178,178)" stroke-width="0.1"/>
  <path d="M 22.108626999999842,68.43706099999997 A 9.75,9.75 0.0 0,0 33.37862700000005,60.80206099999998" fill="none" instance-id="2" semantic-id="4" stroke="rgb(0,178,178)" stroke-width="0.1"/>
  <path d="M 30.028626999999915,79.50506099999996 A 9.75,9.75 0.0 0,0 22.108626999999842,68.43706099999997" fill="none" instance-id="2" semantic-id="4" stroke="rgb(0,178,178)" stroke-width="0.1"/>
 </g>
 <g id="layerDOOR_FIRE_TEXT" inkscape:groupmode="layer" inkscape:label="DOOR_FIRE_TEXT">
  <text fill="rgb(0,0,0)" font-family="Noto Sans CJK SC" font-size="2" transform="rotate(-79.8528,33.278626999999915,52.10006099999998)" x="33.278626999999915" y="52.10006099999998">
   FM
  </text>
  <text fill="rgb(0,0,0)" font-family="Noto Sans CJK SC" font-size="2" transform="rotate(-79.8528,33.928627000000006,48.474061000000006)" x="33.928627000000006" y="48.474061000000006">
   甲
  </text>
  <text fill="rgb(0,0,0)" font-family="Noto Sans CJK SC" font-size="2" transform="rotate(-79.8528,34.528626999999915,45.12506099999996)" x="34.528626999999915" y="45.12506099999996">
   1121
  </text>
  <text fill="rgb(0,0,0)" font-family="Noto Sans CJK SC" font-size="2" transform="rotate(-79.8529,19.57862699999987,74.46506099999999)" x="19.57862699999987" y="74.46506099999999">
   FM
  </text>
  <text fill="rgb(0,0,0)" font-family="Noto Sans CJK SC" font-size="2" transform="rotate(-79.8529,20.22862699999996,70.83906100000002)" x="20.22862699999996" y="70.83906100000002">
   乙
  </text>
  <text fill="rgb(0,0,0)" font-family="Noto Sans CJK SC" font-size="2" transform="rotate(-79.8529,20.82862699999987,67.49006099999997)" x="20.82862699999987" y="67.49006099999997">
   2023
  </text>
 </g>
 <g id="layerEVTR" inkscape:groupmode="layer" inkscape:label="EVTR">
  <path d="M 87.16862700000001,60.981060999999954 L 59.438627,28.59006099999999" fill="none" instance-id="4" semantic-id="31" stroke="rgb(178,88,0)" stroke-width="0.1"/>
  <path d="M 54.688627,55.168060999999966 L 91.928627,34.404060999999956" fill="none" instance-id="4" semantic-id="31" stroke="rgb(178,88,0)" stroke-width="0.1"/>
  <path d="M 90.20862699999998,56.751060999999936 L 93.02862699999991,41.00206099999991" fill="none" instance-id="4" semantic-id="31" stroke="rgb(178,88,0)" stroke-width="0.1"/>
  <path d="M 93.02862699999991,41.00206099999991 L 96.59862699999985,41.640060999999946" fill="none" instance-id="4" semantic-id="31" stroke="rgb(178,88,0)" stroke-width="0.1"/>
  <path d="M 96.59862699999985,41.640060999999946 L 93.77862699999991,57.390060999999946" fill="none" instance-id="4" semantic-id="31" stroke="rgb(178,88,0)" stroke-width="0.1"/>
  <path d="M 93.77862699999991,57.390060999999946 L 90.20862699999998,56.751060999999936" fill="none" instance-id="4" semantic-id="31" stroke="rgb(178,88,0)" stroke-width="0.1"/>
  <path d="M 87.16862700000001,60.981060999999954 L 91.928627,34.404060999999956" fill="none" instance-id="4" semantic-id="31" stroke="rgb(178,88,0)" stroke-width="0.1"/>
  <path d="M 91.928627,34.404060999999956 L 59.438627,28.59006099999999" fill="none" instance-id="4" semantic-id="31" stroke="rgb(178,88,0)" stroke-width="0.1"/>
  <path d="M 59.438627,28.59006099999999 L 54.688627,55.168060999999966" fill="none" instance-id="4" semantic-id="31" stroke="rgb(178,88,0)" stroke-width="0.1"/>
  <path d="M 54.688627,55.168060999999966 L 87.16862700000001,60.981060999999954" fill="none" instance-id="4" semantic-id="31" stroke="rgb(178,88,0)" stroke-width="0.1"/>
 </g>
 <g id="layerPUB_HATCH" inkscape:groupmode="layer" inkscape:label="PUB_HATCH">
  <path d="M 1.4386269999999968,16.48206099999993 L 0.0,24.522145445798515" fill="none" instance-id="-1" semantic-id="1" stroke="rgb(63,63,63)" stroke-width="0.1"/>
  <path d="M 0.0,41.57516353623305 L 4.398627000000033,17.011060999999927" fill="none" instance-id="-1" semantic-id="1" stroke="rgb(63,63,63)" stroke-width="0.1"/>
  <path d="M 4.398627000000033,17.011060999999927 L 1.4386269999999968,16.48206099999993" fill="none" instance-id="-1" semantic-id="1" stroke="rgb(63,63,63)" stroke-width="0.1"/>
  <path d="M 92.2467258655879,100.0 L 98.09862699999985,67.306061" fill="none" instance-id="-1" semantic-id="1" stroke="rgb(63,63,63)" stroke-width="0.1"/>
  <path d="M 98.09862699999985,67.306061 L 94.15862700000002,66.60106099999996" fill="none" instance-id="-1" semantic-id="1" stroke="rgb(63,63,63)" stroke-width="0.1"/>
  <path d="M 94.15862700000002,66.60106099999996 L 88.1806822292956,100.0" fill="none" instance-id="-1" semantic-id="1" stroke="rgb(63,63,63)" stroke-width="0.1"/>
  <path d="M 16.288626999999906,95.33106099999998 L 15.451045396352583,100.0" fill="none" instance-id="-1" semantic-id="1" stroke="rgb(63,63,63)" stroke-width="0.1"/>
  <path d="M 19.539663463288434,100.0 L 16.288626999999906,95.33106099999998" fill="none" instance-id="-1" semantic-id="1" stroke="rgb(63,63,63)" stroke-width="0.1"/>
  <path d="M 16.288626999999906,95.33106099999998 L 19.539663463288434,100.0" fill="none" instance-id="-1" semantic-id="1" stroke="rgb(63,63,63)" stroke-width="0.1"/>
  <path d="M 42.37630269169972,100.0 L 16.288626999999906,95.33106099999998" fill="none" instance-id="-1" semantic-id="1" stroke="rgb(63,63,63)" stroke-width="0.1"/>
  <path d="M 77.688627,28.096060999999963 L 78.20862699999998,25.14306099999999" fill="none" instance-id="-1" semantic-id="1" stroke="rgb(63,63,63)" stroke-width="0.1"/>
  <path d="M 78.20862699999998,25.14306099999999 L 74.27862699999991,24.439060999999924" fill="none" instance-id="-1" semantic-id="1" stroke="rgb(63,63,63)" stroke-width="0.1"/>
  <path d="M 74.27862699999991,24.439060999999924 L 72.62862700000005,25.15906099999995" fill="none" instance-id="-1" semantic-id="1" stroke="rgb(63,63,63)" stroke-width="0.1"/>
  <path d="M 72.62862700000005,25.15906099999995 L 72.27862699999991,27.128061000000002" fill="none" instance-id="-1" semantic-id="1" stroke="rgb(63,63,63)" stroke-width="0.1"/>
  <path d="M 72.27862699999991,27.128061000000002 L 77.688627,28.096060999999963" fill="none" instance-id="-1" semantic-id="1" stroke="rgb(63,63,63)" stroke-width="0.1"/>
  <path d="M 51.24862699999994,25.397061000000008 L 45.438627,57.88106099999993" fill="none" instance-id="-1" semantic-id="1" stroke="rgb(63,63,63)" stroke-width="0.1"/>
  <path d="M 45.438627,57.88106099999993 L 50.35862699999984,58.76206100000002" fill="none" instance-id="-1" semantic-id="1" stroke="rgb(63,63,63)" stroke-width="0.1"/>
  <path d="M 50.35862699999984,58.76206100000002 L 56.168627000000015,26.27806099999998" fill="none" instance-id="-1" semantic-id="1" stroke="rgb(63,63,63)" stroke-width="0.1"/>
  <path d="M 56.168627000000015,26.27806099999998 L 53.188627,24.050060999999914" fill="none" instance-id="-1" semantic-id="1" stroke="rgb(63,63,63)" stroke-width="0.1"/>
  <path d="M 53.188627,24.050060999999914 L 51.24862699999994,25.397061000000008" fill="none" instance-id="-1" semantic-id="1" stroke="rgb(63,63,63)" stroke-width="0.1"/>
  <path d="M 60.49862699999994,27.053060999999957 L 61.38862700000004,22.13106099999993" fill="none" instance-id="-1" semantic-id="1" stroke="rgb(63,63,63)" stroke-width="0.1"/>
  <path d="M 61.38862700000004,22.13106099999993 L 52.12862700000005,20.475060999999982" fill="none" instance-id="-1" semantic-id="1" stroke="rgb(63,63,63)" stroke-width="0.1"/>
  <path d="M 52.12862700000005,20.475060999999982 L 53.188627,24.050060999999914" fill="none" instance-id="-1" semantic-id="1" stroke="rgb(63,63,63)" stroke-width="0.1"/>
  <path d="M 53.188627,24.050060999999914 L 56.168627000000015,26.27806099999998" fill="none" instance-id="-1" semantic-id="1" stroke="rgb(63,63,63)" stroke-width="0.1"/>
  <path d="M 56.168627000000015,26.27806099999998 L 60.49862699999994,27.053060999999957" fill="none" instance-id="-1" semantic-id="1" stroke="rgb(63,63,63)" stroke-width="0.1"/>
  <path d="M 29.498626999999942,21.503061000000002 L 30.028626999999915,18.550060999999914" fill="none" instance-id="-1" semantic-id="1" stroke="rgb(63,63,63)" stroke-width="0.1"/>
  <path d="M 30.028626999999915,18.550060999999914 L 25.59862699999985,17.757060999999908" fill="none" instance-id="-1" semantic-id="1" stroke="rgb(63,63,63)" stroke-width="0.1"/>
  <path d="M 25.59862699999985,17.757060999999908 L 25.06862699999988,20.710060999999996" fill="none" instance-id="-1" semantic-id="1" stroke="rgb(63,63,63)" stroke-width="0.1"/>
  <path d="M 25.06862699999988,20.710060999999996 L 29.498626999999942,21.503061000000002" fill="none" instance-id="-1" semantic-id="1" stroke="rgb(63,63,63)" stroke-width="0.1"/>
  <path d="M 3.028626999999915,7.623061000000007 L 5.97862699999996,8.152061000000003" fill="none" instance-id="-1" semantic-id="1" stroke="rgb(63,63,63)" stroke-width="0.1"/>
  <path d="M 5.97862699999996,8.152061000000003 L 7.439585053659812,0.0" fill="none" instance-id="-1" semantic-id="1" stroke="rgb(63,63,63)" stroke-width="0.1"/>
  <path d="M 4.390809820005188,0.0 L 3.028626999999915,7.623061000000007" fill="none" instance-id="-1" semantic-id="1" stroke="rgb(63,63,63)" stroke-width="0.1"/>
  <path d="M 33.32862699999987,17.110060999999973 L 34.038626999999906,13.173060999999961" fill="none" instance-id="-1" semantic-id="1" stroke="rgb(63,63,63)" stroke-width="0.1"/>
  <path d="M 34.038626999999906,13.173060999999961 L 31.07862699999987,12.644060999999965" fill="none" instance-id="-1" semantic-id="1" stroke="rgb(63,63,63)" stroke-width="0.1"/>
  <path d="M 31.07862699999987,12.644060999999965 L 30.288626999999906,17.074060999999915" fill="none" instance-id="-1" semantic-id="1" stroke="rgb(63,63,63)" stroke-width="0.1"/>
  <path d="M 30.288626999999906,17.074060999999915 L 32.018626999999924,18.739060999999992" fill="none" instance-id="-1" semantic-id="1" stroke="rgb(63,63,63)" stroke-width="0.1"/>
  <path d="M 32.018626999999924,18.739060999999992 L 33.32862699999987,17.110060999999973" fill="none" instance-id="-1" semantic-id="1" stroke="rgb(63,63,63)" stroke-width="0.1"/>
  <path d="M 32.83862699999986,2.8010610000000042 L 35.7986269999999,3.3290609999999106" fill="none" instance-id="-1" semantic-id="1" stroke="rgb(63,63,63)" stroke-width="0.1"/>
  <path d="M 35.7986269999999,3.3290609999999106 L 36.39433122114474,0.0" fill="none" instance-id="-1" semantic-id="1" stroke="rgb(63,63,63)" stroke-width="0.1"/>
  <path d="M 33.33983271092484,0.0 L 32.83862699999986,2.8010610000000042" fill="none" instance-id="-1" semantic-id="1" stroke="rgb(63,63,63)" stroke-width="0.1"/>
  <path d="M 82.47283524469208,0.0 L 100.0,3.13682177355156" fill="none" instance-id="-1" semantic-id="1" stroke="rgb(63,63,63)" stroke-width="0.1"/>
  <path d="M 100.0,0.08896812419106936 L 99.50288569665804,0.0" fill="none" instance-id="-1" semantic-id="1" stroke="rgb(63,63,63)" stroke-width="0.1"/>
  <path d="M 95.05862699999989,33.237060999999926 L 95.938627,28.315061000000014" fill="none" instance-id="-1" semantic-id="1" stroke="rgb(63,63,63)" stroke-width="0.1"/>
  <path d="M 95.938627,28.315061000000014 L 78.20862699999998,25.14306099999999" fill="none" instance-id="-1" semantic-id="1" stroke="rgb(63,63,63)" stroke-width="0.1"/>
  <path d="M 78.20862699999998,25.14306099999999 L 77.32862699999987,30.065061000000014" fill="none" instance-id="-1" semantic-id="1" stroke="rgb(63,63,63)" stroke-width="0.1"/>
  <path d="M 77.32862699999987,30.065061000000014 L 95.05862699999989,33.237060999999926" fill="none" instance-id="-1" semantic-id="1" stroke="rgb(63,63,63)" stroke-width="0.1"/>
  <path d="M 75.60183290503778,0.0 L 71.32862699999987,23.911061000000018" fill="none" instance-id="-1" semantic-id="1" stroke="rgb(63,63,63)" stroke-width="0.1"/>
  <path d="M 71.32862699999987,23.911061000000018 L 72.62862700000005,25.15906099999995" fill="none" instance-id="-1" semantic-id="1" stroke="rgb(63,63,63)" stroke-width="0.1"/>
  <path d="M 72.62862700000005,25.15906099999995 L 74.27862699999991,24.439060999999924" fill="none" instance-id="-1" semantic-id="1" stroke="rgb(63,63,63)" stroke-width="0.1"/>
  <path d="M 74.27862699999991,24.439060999999924 L 78.65004696215442,0.0" fill="none" instance-id="-1" semantic-id="1" stroke="rgb(63,63,63)" stroke-width="0.1"/>
  <path d="M 71.32862699999987,23.911061000000018 L 61.38862700000004,22.13106099999993" fill="none" instance-id="-1" semantic-id="1" stroke="rgb(63,63,63)" stroke-width="0.1"/>
  <path d="M 61.38862700000004,22.13106099999993 L 60.85862699999984,25.08406100000002" fill="none" instance-id="-1" semantic-id="1" stroke="rgb(63,63,63)" stroke-width="0.1"/>
  <path d="M 60.85862699999984,25.08406100000002 L 72.27862699999991,27.128061000000002" fill="none" instance-id="-1" semantic-id="1" stroke="rgb(63,63,63)" stroke-width="0.1"/>
  <path d="M 72.27862699999991,27.128061000000002 L 72.62862700000005,25.15906099999995" fill="none" instance-id="-1" semantic-id="1" stroke="rgb(63,63,63)" stroke-width="0.1"/>
  <path d="M 72.62862700000005,25.15906099999995 L 71.32862699999987,23.911061000000018" fill="none" instance-id="-1" semantic-id="1" stroke="rgb(63,63,63)" stroke-width="0.1"/>
  <path d="M 52.12862700000005,20.475060999999982 L 33.32862699999987,17.110060999999973" fill="none" instance-id="-1" semantic-id="1" stroke="rgb(63,63,63)" stroke-width="0.1"/>
  <path d="M 33.32862699999987,17.110060999999973 L 32.018626999999924,18.739060999999992" fill="none" instance-id="-1" semantic-id="1" stroke="rgb(63,63,63)" stroke-width="0.1"/>
  <path d="M 32.018626999999924,18.739060999999992 L 32.44862699999999,22.032061" fill="none" instance-id="-1" semantic-id="1" stroke="rgb(63,63,63)" stroke-width="0.1"/>
  <path d="M 32.44862699999999,22.032061 L 51.24862699999994,25.397061000000008" fill="none" instance-id="-1" semantic-id="1" stroke="rgb(63,63,63)" stroke-width="0.1"/>
  <path d="M 51.24862699999994,25.397061000000008 L 53.188627,24.050060999999914" fill="none" instance-id="-1" semantic-id="1" stroke="rgb(63,63,63)" stroke-width="0.1"/>
  <path d="M 53.188627,24.050060999999914 L 52.12862700000005,20.475060999999982" fill="none" instance-id="-1" semantic-id="1" stroke="rgb(63,63,63)" stroke-width="0.1"/>
  <path d="M 99.97862699999996,34.11806100000001 L 94.15862700000002,66.60106099999996" fill="none" instance-id="-1" semantic-id="1" stroke="rgb(63,63,63)" stroke-width="0.1"/>
  <path d="M 94.15862700000002,66.60106099999996 L 98.09862699999985,67.306061" fill="none" instance-id="-1" semantic-id="1" stroke="rgb(63,63,63)" stroke-width="0.1"/>
  <path d="M 98.09862699999985,67.306061 L 100.0,56.675389651978776" fill="none" instance-id="-1" semantic-id="1" stroke="rgb(63,63,63)" stroke-width="0.1"/>
  <path d="M 100.0,34.12188964936388 L 99.97862699999996,34.11806100000001" fill="none" instance-id="-1" semantic-id="1" stroke="rgb(63,63,63)" stroke-width="0.1"/>
  <path d="M 45.438627,57.88106099999993 L 45.25862699999993,58.86506099999997" fill="none" instance-id="-1" semantic-id="1" stroke="rgb(63,63,63)" stroke-width="0.1"/>
  <path d="M 45.25862699999993,58.86506099999997 L 50.178627000000006,59.74606099999994" fill="none" instance-id="-1" semantic-id="1" stroke="rgb(63,63,63)" stroke-width="0.1"/>
  <path d="M 50.178627000000006,59.74606099999994 L 50.35862699999984,58.76206100000002" fill="none" instance-id="-1" semantic-id="1" stroke="rgb(63,63,63)" stroke-width="0.1"/>
  <path d="M 50.35862699999984,58.76206100000002 L 45.438627,57.88106099999993" fill="none" instance-id="-1" semantic-id="1" stroke="rgb(63,63,63)" stroke-width="0.1"/>
 </g>
 <g id="layerPUB_TEXT" inkscape:groupmode="layer" inkscape:label="PUB_TEXT">
  <text fill="rgb(0,0,0)" font-family="Noto Sans CJK SC" font-size="2" transform="rotate(-349.853,54.528626999999915,98.16306099999997)" x="54.528626999999915" y="98.16306099999997">
   货梯厅
  </text>
  <text fill="rgb(0,0,0)" font-family="Noto Sans CJK SC" font-size="2" transform="rotate(-349.853,69.84862699999985,71.16006099999993)" x="69.84862699999985" y="71.16006099999993">
   集水井
  </text>
  <text fill="rgb(0,0,0)" font-family="Noto Sans CJK SC" font-size="2" transform="rotate(-349.853,37.20862699999998,73.051061)" x="37.20862699999998" y="73.051061">
   2000x1200x3300d
  </text>
  <text fill="rgb(0,0,0)" font-family="Noto Sans CJK SC" font-size="2" transform="rotate(-350.0,52.58862699999986,6.745060999999964)" x="52.58862699999986" y="6.745060999999964">
   滤毒室
  </text>
  <text fill="rgb(0,0,0)" font-family="Noto Sans CJK SC" font-size="2" transform="rotate(-349.853,71.23862699999995,51.314060999999924)" x="71.23862699999995" y="51.314060999999924">
   -11.700
  </text>
  <text fill="rgb(0,0,0)" font-family="Noto Sans CJK SC" font-size="2" transform="rotate(-349.9,57.19862699999999,38.14306099999999)" x="57.19862699999999" y="38.14306099999999">
   货梯
  </text>
  <text fill="rgb(0,0,0)" font-family="Noto Sans CJK SC" font-size="2" transform="rotate(-349.9,31.048626999999897,34.99006099999997)" x="31.048626999999897" y="34.99006099999997">
   设备
  </text>
  <text fill="rgb(0,0,0)" font-family="Noto Sans CJK SC" font-size="2" transform="rotate(-349.9,55.64862700000003,46.76006099999995)" x="55.64862700000003" y="46.76006099999995">
   DHT1
  </text>
  <text fill="rgb(0,0,0)" font-family="Noto Sans CJK SC" font-size="2" transform="rotate(-349.853,52.288626999999906,89.18806099999995)" x="52.288626999999906" y="89.18806099999995">
   合用前室
  </text>
 </g>
 <g id="layerRF-WINDOW" inkscape:groupmode="layer" inkscape:label="RF-WINDOW">
  <path d="M 31.07862699999987,12.644060999999965 L 32.83862699999986,2.8010610000000042" fill="none" instance-id="5" semantic-id="12" stroke="rgb(0,178,178)" stroke-width="0.1"/>
  <path d="M 34.038626999999906,13.173060999999961 L 35.7986269999999,3.3290609999999106" fill="none" instance-id="5" semantic-id="12" stroke="rgb(0,178,178)" stroke-width="0.1"/>
  <path d="M 10.298626999999897,18.068060999999943 L 21.768626999999924,27.739060999999992" fill="none" stroke="rgb(0,178,178)" stroke-width="0.1"/>
  <path d="M 33.33862699999986,2.8890609999999697 L 26.888627000000042,10.533060999999975" fill="none" instance-id="5" semantic-id="12" stroke="rgb(0,178,178)" stroke-width="0.1"/>
 </g>
 <g id="layerS-JSJ" inkscape:groupmode="layer" inkscape:label="S-JSJ">
  <path d="M 36.39862700000003,34.592060999999944 L 36.518626999999924,34.47006099999999" fill="none" stroke="rgb(0,133,178)" stroke-width="0.1"/>
  <path d="M 35.908627000000024,37.32606099999998 L 36.538626999999906,36.69506100000001" fill="none" stroke="rgb(0,133,178)" stroke-width="0.1"/>
  <path d="M 35.418627000000015,40.061060999999995 L 36.55862699999989,38.92106100000001" fill="none" stroke="rgb(0,133,178)" stroke-width="0.1"/>
  <path d="M 34.928627000000006,42.79506099999992 L 36.57862699999987,41.14606099999992" fill="none" stroke="rgb(0,133,178)" stroke-width="0.1"/>
  <path d="M 34.438627,45.53006099999993 L 36.59862699999985,43.37206099999992" fill="none" stroke="rgb(0,133,178)" stroke-width="0.1"/>
  <path d="M 33.94862699999999,48.26406099999997 L 36.61862700000006,45.598060999999916" fill="none" stroke="rgb(0,133,178)" stroke-width="0.1"/>
  <path d="M 33.45862699999998,50.99906099999998 L 36.63862700000004,47.82306099999994" fill="none" stroke="rgb(0,133,178)" stroke-width="0.1"/>
  <path d="M 33.06862699999988,53.63606099999993 L 36.658627000000024,50.04906099999994" fill="none" stroke="rgb(0,133,178)" stroke-width="0.1"/>
  <path d="M 34.97862699999996,53.97606099999996 L 37.438627,51.50706099999991" fill="none" stroke="rgb(0,133,178)" stroke-width="0.1"/>
  <path d="M 36.87862700000005,54.31706099999997 L 38.86862700000006,52.32606099999998" fill="none" stroke="rgb(0,133,178)" stroke-width="0.1"/>
  <path d="M 38.778626999999915,54.658060999999975 L 40.2986269999999,53.14506099999994" fill="none" stroke="rgb(0,133,178)" stroke-width="0.1"/>
  <path d="M 40.688627,54.99906099999998 L 41.71862699999997,53.96506099999999" fill="none" stroke="rgb(0,133,178)" stroke-width="0.1"/>
  <path d="M 42.58862699999986,55.34006099999999 L 43.14862700000003,54.78406099999995" fill="none" stroke="rgb(0,133,178)" stroke-width="0.1"/>
  <path d="M 44.49862699999994,55.681061 L 44.56862699999988,55.60306099999991" fill="none" stroke="rgb(0,133,178)" stroke-width="0.1"/>
  <path d="M 44.80862699999989,55.73606099999995 L 48.32862699999987,36.04906099999994" fill="none" stroke="rgb(0,133,178)" stroke-width="0.1"/>
  <path d="M 48.32862699999987,36.04906099999994 L 36.518626999999924,33.93506100000002" fill="none" stroke="rgb(0,133,178)" stroke-width="0.1"/>
  <path d="M 36.518626999999924,33.93506100000002 L 32.98862699999995,53.62206099999992" fill="none" stroke="rgb(0,133,178)" stroke-width="0.1"/>
  <path d="M 32.98862699999995,53.62206099999992 L 44.80862699999989,55.73606099999995" fill="none" stroke="rgb(0,133,178)" stroke-width="0.1"/>
  <path d="M 44.80862699999989,55.73606099999995 L 36.668627000000015,51.06006100000002" fill="none" stroke="rgb(0,133,178)" stroke-width="0.1"/>
  <path d="M 36.668627000000015,51.06006100000002 L 36.518626999999924,33.93506100000002" fill="none" stroke="rgb(0,133,178)" stroke-width="0.1"/>
  <path d="M 36.518626999999924,33.93506100000002 L 32.98862699999995,53.62206099999992" fill="none" stroke="rgb(0,133,178)" stroke-width="0.1"/>
  <path d="M 32.98862699999995,53.62206099999992 L 44.80862699999989,55.73606099999995" fill="none" stroke="rgb(0,133,178)" stroke-width="0.1"/>
  <path d="M 44.80862699999989,55.73606099999995 L 36.668627000000015,51.06006100000002" fill="none" stroke="rgb(0,133,178)" stroke-width="0.1"/>
  <path d="M 36.668627000000015,51.06006100000002 L 36.518626999999924,33.93506100000002" fill="none" stroke="rgb(0,133,178)" stroke-width="0.1"/>
 </g>
 <g id="layerWALL" inkscape:groupmode="layer" inkscape:label="WALL">
  <path d="M 29.138627000000042,23.47206099999994 L 26.148627000000033,40.20606099999998" fill="none" instance-id="-1" semantic-id="1" stroke="rgb(178,178,0)" stroke-width="0.1"/>
  <path d="M 26.148627000000033,40.20606099999998 L 28.11862700000006,40.55906099999993" fill="none" instance-id="-1" semantic-id="1" stroke="rgb(178,178,0)" stroke-width="0.1"/>
  <path d="M 28.11862700000006,40.55906099999993 L 31.108626999999842,23.824060999999915" fill="none" instance-id="-1" semantic-id="1" stroke="rgb(178,178,0)" stroke-width="0.1"/>
  <path d="M 25.82862699999987,53.35506099999998 L 26.178627000000006,51.38706100000002" fill="none" instance-id="-1" semantic-id="1" stroke="rgb(178,178,0)" stroke-width="0.1"/>
  <path d="M 26.178627000000006,51.38706100000002 L 24.20862699999998,51.03406099999995" fill="none" instance-id="-1" semantic-id="1" stroke="rgb(178,178,0)" stroke-width="0.1"/>
  <path d="M 24.20862699999998,51.03406099999995 L 23.678627000000006,53.987060999999926" fill="none" instance-id="-1" semantic-id="1" stroke="rgb(178,178,0)" stroke-width="0.1"/>
  <path d="M 94.33862699999986,65.61706099999992 L 82.0386269999999,63.41606100000001" fill="none" instance-id="-1" semantic-id="1" stroke="rgb(178,178,0)" stroke-width="0.1"/>
  <path d="M 82.0386269999999,63.41606100000001 L 81.688627,65.38506099999995" fill="none" instance-id="-1" semantic-id="1" stroke="rgb(178,178,0)" stroke-width="0.1"/>
  <path d="M 81.688627,65.38506099999995 L 93.98862699999995,67.58606099999997" fill="none" instance-id="-1" semantic-id="1" stroke="rgb(178,178,0)" stroke-width="0.1"/>
  <path d="M 50.178627000000006,59.74606099999994 L 60.028626999999915,61.509060999999974" fill="none" instance-id="-1" semantic-id="1" stroke="rgb(178,178,0)" stroke-width="0.1"/>
  <path d="M 60.028626999999915,61.509060999999974 L 60.37862700000005,59.54006099999992" fill="none" instance-id="-1" semantic-id="1" stroke="rgb(178,178,0)" stroke-width="0.1"/>
  <path d="M 60.37862700000005,59.54006099999992 L 50.538626999999906,57.777061" fill="none" instance-id="-1" semantic-id="1" stroke="rgb(178,178,0)" stroke-width="0.1"/>
  <path d="M 50.538626999999906,57.777061 L 50.178627000000006,59.74606099999994" fill="none" instance-id="-1" semantic-id="1" stroke="rgb(178,178,0)" stroke-width="0.1"/>
  <path d="M 23.678627000000006,53.987060999999926 L 22.888627000000042,58.41706099999999" fill="none" instance-id="-1" semantic-id="1" stroke="rgb(178,178,0)" stroke-width="0.1"/>
  <path d="M 22.888627000000042,58.41706099999999 L 24.858626999999842,58.769060999999965" fill="none" instance-id="-1" semantic-id="1" stroke="rgb(178,178,0)" stroke-width="0.1"/>
  <path d="M 24.858626999999842,58.769060999999965 L 25.47862699999996,55.324060999999915" fill="none" instance-id="-1" semantic-id="1" stroke="rgb(178,178,0)" stroke-width="0.1"/>
  <path d="M 19.36862700000006,78.104061 L 15.447830949351555,100.0" fill="none" instance-id="-1" semantic-id="1" stroke="rgb(178,178,0)" stroke-width="0.1"/>
  <path d="M 17.48095295625035,100.0 L 21.33862699999986,78.45606099999998" fill="none" instance-id="-1" semantic-id="1" stroke="rgb(178,178,0)" stroke-width="0.1"/>
  <path d="M 21.33862699999986,78.45606099999998 L 19.36862700000006,78.104061" fill="none" instance-id="-1" semantic-id="1" stroke="rgb(178,178,0)" stroke-width="0.1"/>
  <path d="M 60.85862699999984,25.08406100000002 L 77.688627,28.096060999999963" fill="none" instance-id="-1" semantic-id="1" stroke="rgb(178,178,0)" stroke-width="0.1"/>
  <path d="M 60.49862699999994,27.053060999999957 L 77.32862699999987,30.065061000000014" fill="none" instance-id="-1" semantic-id="1" stroke="rgb(178,178,0)" stroke-width="0.1"/>
  <path d="M 60.85862699999984,25.08406100000002 L 60.49862699999994,27.053060999999957" fill="none" instance-id="-1" semantic-id="1" stroke="rgb(178,178,0)" stroke-width="0.1"/>
  <path d="M 77.688627,28.096060999999963 L 77.32862699999987,30.065061000000014" fill="none" instance-id="-1" semantic-id="1" stroke="rgb(178,178,0)" stroke-width="0.1"/>
  <path d="M 45.25862699999993,58.86506099999997 L 25.47862699999996,55.324060999999915" fill="none" instance-id="-1" semantic-id="1" stroke="rgb(178,178,0)" stroke-width="0.1"/>
  <path d="M 45.60862699999984,56.89606099999992 L 25.82862699999987,53.35506099999998" fill="none" instance-id="-1" semantic-id="1" stroke="rgb(178,178,0)" stroke-width="0.1"/>
 </g>
 <g id="layerWINDOW" inkscape:groupmode="layer" inkscape:label="WINDOW">
  <path d="M 80.89862700000003,64.59306099999992 L 81.31862699999988,64.30306099999996" fill="none" instance-id="7" semantic-id="6" stroke="rgb(0,178,0)" stroke-width="0.1"/>
  <path d="M 78.41862700000001,60.960060999999996 L 80.89862700000003,64.59306099999992" fill="none" instance-id="7" semantic-id="6" stroke="rgb(0,178,0)" stroke-width="0.1"/>
  <path d="M 81.678627,65.44006100000001 L 81.85862699999984,64.40006099999994" fill="none" instance-id="7" semantic-id="6" stroke="rgb(0,178,0)" stroke-width="0.1"/>
  <path d="M 78.83862699999986,60.67106100000001 L 78.41862700000001,60.960060999999996" fill="none" instance-id="7" semantic-id="6" stroke="rgb(0,178,0)" stroke-width="0.1"/>
  <path d="M 74.82862699999987,63.50606099999993 L 74.52862699999991,63.088060999999925" fill="none" instance-id="7" semantic-id="6" stroke="rgb(0,178,0)" stroke-width="0.1"/>
  <path d="M 78.41862700000001,60.960060999999996 L 74.82862699999987,63.50606099999993" fill="none" instance-id="7" semantic-id="6" stroke="rgb(0,178,0)" stroke-width="0.1"/>
  <path d="M 78.11862700000006,60.54206099999999 L 78.41862700000001,60.960060999999996" fill="none" instance-id="7" semantic-id="6" stroke="rgb(0,178,0)" stroke-width="0.1"/>
  <path d="M 78.11862700000006,60.54206099999999 L 74.52862699999991,63.088060999999925" fill="none" instance-id="7" semantic-id="6" stroke="rgb(0,178,0)" stroke-width="0.1"/>
  <path d="M 78.83862699999986,60.67106100000001 L 81.31862699999988,64.30306099999996" fill="none" instance-id="7" semantic-id="6" stroke="rgb(0,178,0)" stroke-width="0.1"/>
  <path d="M 61.0486269999999,61.04006099999992 L 60.74862699999994,60.62106099999994" fill="none" instance-id="7" semantic-id="6" stroke="rgb(0,178,0)" stroke-width="0.1"/>
  <path d="M 60.018626999999924,61.564060999999924 L 60.20862699999998,60.52406099999996" fill="none" instance-id="7" semantic-id="6" stroke="rgb(0,178,0)" stroke-width="0.1"/>
  <path d="M 67.11862700000006,62.126060999999936 L 67.5386269999999,61.83706099999995" fill="none" instance-id="7" semantic-id="6" stroke="rgb(0,178,0)" stroke-width="0.1"/>
  <path d="M 65.05862699999989,58.20406099999991 L 67.5386269999999,61.83706099999995" fill="none" instance-id="7" semantic-id="6" stroke="rgb(0,178,0)" stroke-width="0.1"/>
  <path d="M 64.62862700000005,58.49406099999999 L 67.11862700000006,62.126060999999936" fill="none" instance-id="7" semantic-id="6" stroke="rgb(0,178,0)" stroke-width="0.1"/>
  <path d="M 64.33862699999986,58.075061000000005 L 60.74862699999994,60.62106099999994" fill="none" instance-id="7" semantic-id="6" stroke="rgb(0,178,0)" stroke-width="0.1"/>
  <path d="M 64.62862700000005,58.49406099999999 L 61.0486269999999,61.04006099999992" fill="none" instance-id="7" semantic-id="6" stroke="rgb(0,178,0)" stroke-width="0.1"/>
  <path d="M 65.05862699999989,58.20406099999991 L 64.62862700000005,58.49406099999999" fill="none" instance-id="7" semantic-id="6" stroke="rgb(0,178,0)" stroke-width="0.1"/>
  <path d="M 64.33862699999986,58.075061000000005 L 64.62862700000005,58.49406099999999" fill="none" instance-id="7" semantic-id="6" stroke="rgb(0,178,0)" stroke-width="0.1"/>
  <path d="M 81.85862699999984,64.40006099999994 L 81.31862699999988,64.30306099999996" fill="none" instance-id="7" semantic-id="6" stroke="rgb(0,178,0)" stroke-width="0.1"/>
  <path d="M 81.31862699999988,64.30306099999996 L 81.22862699999996,64.801061" fill="none" instance-id="7" semantic-id="6" stroke="rgb(0,178,0)" stroke-width="0.1"/>
  <path d="M 81.22862699999996,64.801061 L 80.688627,64.70406099999991" fill="none" instance-id="7" semantic-id="6" stroke="rgb(0,178,0)" stroke-width="0.1"/>
  <path d="M 80.688627,64.70406099999991 L 80.58862699999986,65.24606099999994" fill="none" instance-id="7" semantic-id="6" stroke="rgb(0,178,0)" stroke-width="0.1"/>
  <path d="M 80.58862699999986,65.24606099999994 L 81.678627,65.44006100000001" fill="none" instance-id="7" semantic-id="6" stroke="rgb(0,178,0)" stroke-width="0.1"/>
  <path d="M 77.81862699999988,60.753061 L 77.64862700000003,60.51406099999997" fill="none" instance-id="7" semantic-id="6" stroke="rgb(0,178,0)" stroke-width="0.1"/>
  <path d="M 77.64862700000003,60.51406099999997 L 76.99862699999994,60.97506099999998" fill="none" instance-id="7" semantic-id="6" stroke="rgb(0,178,0)" stroke-width="0.1"/>
  <path d="M 76.99862699999994,60.97506099999998 L 77.16862700000001,61.21506099999999" fill="none" instance-id="7" semantic-id="6" stroke="rgb(0,178,0)" stroke-width="0.1"/>
  <path d="M 77.73862699999995,60.81306099999995 L 77.62862700000005,60.657061" fill="none" stroke="rgb(0,178,0)" stroke-width="0.1"/>
  <path d="M 77.62862700000005,60.657061 L 77.13862700000004,61.00006099999996" fill="none" instance-id="7" semantic-id="6" stroke="rgb(0,178,0)" stroke-width="0.1"/>
  <path d="M 77.13862700000004,61.00006099999996 L 77.24862699999994,61.15506099999993" fill="none" stroke="rgb(0,178,0)" stroke-width="0.1"/>
  <path d="M 60.20862699999998,60.52406099999996 L 60.74862699999994,60.62106099999994" fill="none" instance-id="7" semantic-id="6" stroke="rgb(0,178,0)" stroke-width="0.1"/>
  <path d="M 60.74862699999994,60.62106099999994 L 60.658627000000024,61.11906099999999" fill="none" instance-id="7" semantic-id="6" stroke="rgb(0,178,0)" stroke-width="0.1"/>
  <path d="M 60.658627000000024,61.11906099999999 L 61.19862699999999,61.21606099999997" fill="none" instance-id="7" semantic-id="6" stroke="rgb(0,178,0)" stroke-width="0.1"/>
  <path d="M 61.19862699999999,61.21606099999997 L 61.09862699999985,61.758061" fill="none" instance-id="7" semantic-id="6" stroke="rgb(0,178,0)" stroke-width="0.1"/>
  <path d="M 61.09862699999985,61.758061 L 60.018626999999924,61.564060999999924" fill="none" instance-id="7" semantic-id="6" stroke="rgb(0,178,0)" stroke-width="0.1"/>
  <path d="M 65.26862699999992,58.50606099999993 L 65.50862699999993,58.34106099999997" fill="none" instance-id="7" semantic-id="6" stroke="rgb(0,178,0)" stroke-width="0.1"/>
  <path d="M 65.50862699999993,58.34106099999997 L 65.95862699999998,58.99906099999998" fill="none" instance-id="7" semantic-id="6" stroke="rgb(0,178,0)" stroke-width="0.1"/>
  <path d="M 65.95862699999998,58.99906099999998 L 65.70862699999998,59.16406099999995" fill="none" instance-id="7" semantic-id="6" stroke="rgb(0,178,0)" stroke-width="0.1"/>
  <path d="M 65.31862699999988,58.59106099999997 L 65.47862699999996,58.484061" fill="none" stroke="rgb(0,178,0)" stroke-width="0.1"/>
  <path d="M 65.47862699999996,58.484061 L 65.80862699999989,58.97206099999994" fill="none" instance-id="7" semantic-id="6" stroke="rgb(0,178,0)" stroke-width="0.1"/>
  <path d="M 65.80862699999989,58.97206099999994 L 65.65862700000002,59.080061" fill="none" stroke="rgb(0,178,0)" stroke-width="0.1"/>
 </g>
 <g id="layer建-门窗-编号" inkscape:groupmode="layer" inkscape:label="建-门窗-编号">
  <text fill="rgb(0,0,0)" font-family="Noto Sans CJK SC" font-size="2" transform="rotate(-349.854,7.928627000000006,3.7880609999999706)" x="7.928627000000006" y="3.7880609999999706">
   HHFM1520(6)
  </text>
  <text fill="rgb(0,0,0)" font-family="Noto Sans CJK SC" font-size="2" transform="rotate(-79.8541,42.528626999999915,15.606060999999954)" x="42.528626999999915" y="15.606060999999954">
   HM1020
  </text>
 </g>
</svg>