<?xml version="1.0" encoding="utf-8"?>
<svg style="background-color: #000;" version="1.1" viewBox="0 0 100.0 100.0" xmlns="http://www.w3.org/2000/svg" xmlns:inkscape="http://www.inkscape.org/namespaces/inkscape">
 <g id="layer!消防-疏散楼梯" inkscape:groupmode="layer" inkscape:label="!消防-疏散楼梯">
  <path d="M 100.0,21.68649801779185 L 27.45462699999996,8.702061000000015" fill="none" stroke="rgb(53,107,0)" stroke-width="0.1"/>
  <path d="M 27.45462699999996,8.702061000000015 L 29.01200187214272,0.0" fill="none" stroke="rgb(53,107,0)" stroke-width="0.1"/>
  <path d="M 100.0,21.68649801779185 L 27.45462699999996,8.702061000000015" fill="none" stroke="rgb(53,107,0)" stroke-width="0.1"/>
  <path d="M 27.45462699999996,8.702061000000015 L 29.01200187214272,0.0" fill="none" stroke="rgb(53,107,0)" stroke-width="0.1"/>
 </g>
 <g id="layer!消防分区" inkscape:groupmode="layer" inkscape:label="!消防分区">
  <path d="M 100.0,26.765568366773692 L 90.09062699999993,24.992061000000007" fill="none" stroke="rgb(142,35,0)" stroke-width="0.1"/>
  <path d="M 90.09062699999993,24.992061000000007 L 94.56308585124839,0.0" fill="none" stroke="rgb(142,35,0)" stroke-width="0.1"/>
 </g>
 <g id="layer0-结构边线" inkscape:groupmode="layer" inkscape:label="0-结构边线">
  <path d="M 66.93062699999996,69.10206100000002 L 75.79062699999997,70.68706100000003" fill="none" stroke="rgb(178,0,178)" stroke-width="0.1"/>
  <path d="M 75.79062699999997,70.68706100000003 L 77.3756269999999,61.82806100000002" fill="none" stroke="rgb(178,0,178)" stroke-width="0.1"/>
  <path d="M 68.51662699999997,60.24206100000001 L 77.3756269999999,61.82806100000002" fill="none" stroke="rgb(178,0,178)" stroke-width="0.1"/>
  <path d="M 66.93062699999996,69.10206100000002 L 68.51662699999997,60.24206100000001" fill="none" stroke="rgb(178,0,178)" stroke-width="0.1"/>
 </g>
 <g id="layerA-留洞-up" inkscape:groupmode="layer" inkscape:label="A-留洞-up">
  <path d="M 84.15662699999996,23.931061000000028 L 92.03162699999996,25.34006100000002" fill="none" stroke="rgb(178,0,178)" stroke-width="0.1"/>
  <path d="M 92.03162699999996,25.34006100000002 L 90.09362699999997,36.16806100000002" fill="none" stroke="rgb(178,0,178)" stroke-width="0.1"/>
  <path d="M 90.09362699999997,36.16806100000002 L 89.94962699999996,27.33806100000001" fill="none" stroke="rgb(178,0,178)" stroke-width="0.1"/>
  <path d="M 89.94962699999996,27.33806100000001 L 84.15662699999996,23.931061000000028" fill="none" stroke="rgb(178,0,178)" stroke-width="0.1"/>
  <path d="M 84.15662699999996,23.931061000000028 L 82.21862699999997,34.75906100000003" fill="none" stroke="rgb(178,0,178)" stroke-width="0.1"/>
  <path d="M 82.21862699999997,34.75906100000003 L 90.09362699999997,36.16806100000002" fill="none" stroke="rgb(178,0,178)" stroke-width="0.1"/>
  <path d="M 41.580626999999936,71.67806100000001 L 37.32562699999994,72.38006100000001" fill="none" stroke="rgb(178,0,178)" stroke-width="0.1"/>
  <path d="M 37.32562699999994,72.38006100000001 L 34.75862699999993,75.74006100000003" fill="none" stroke="rgb(178,0,178)" stroke-width="0.1"/>
  <path d="M 34.75862699999993,75.74006100000003 L 35.67462699999999,70.62106100000003" fill="none" stroke="rgb(178,0,178)" stroke-width="0.1"/>
  <path d="M 35.67462699999999,70.62106100000003 L 41.580626999999936,71.67806100000001" fill="none" stroke="rgb(178,0,178)" stroke-width="0.1"/>
  <path d="M 41.580626999999936,71.67806100000001 L 40.664626999999996,76.79706100000001" fill="none" stroke="rgb(178,0,178)" stroke-width="0.1"/>
  <path d="M 40.664626999999996,76.79706100000001 L 34.75862699999993,75.74006100000003" fill="none" stroke="rgb(178,0,178)" stroke-width="0.1"/>
 </g>
 <g id="layerCOLUMN" inkscape:groupmode="layer" inkscape:label="COLUMN">
  <path d="M 36.524626999999896,54.51706100000001 L 37.50962699999991,54.69306100000003" fill="none" instance-id="-1" semantic-id="1" stroke="rgb(178,178,0)" stroke-width="0.1"/>
  <path d="M 35.643626999999924,59.43806100000003 L 36.62862699999994,59.615061000000026" fill="none" instance-id="-1" semantic-id="1" stroke="rgb(178,178,0)" stroke-width="0.1"/>
  <path d="M 36.524626999999896,54.51706100000001 L 35.643626999999924,59.43806100000003" fill="none" instance-id="-1" semantic-id="1" stroke="rgb(178,178,0)" stroke-width="0.1"/>
  <path d="M 76.67262699999992,17.511061000000012 L 100.0,21.686172960551573" fill="none" instance-id="-1" semantic-id="1" stroke="rgb(178,178,0)" stroke-width="0.1"/>
  <path d="M 75.79162699999995,22.43306100000001 L 100.0,26.765853537667823" fill="none" instance-id="-1" semantic-id="1" stroke="rgb(178,178,0)" stroke-width="0.1"/>
  <path d="M 76.67262699999992,17.511061000000012 L 75.79162699999995,22.43306100000001" fill="none" instance-id="-1" semantic-id="1" stroke="rgb(178,178,0)" stroke-width="0.1"/>
  <path d="M 37.50962699999991,54.69306100000003 L 68.51662699999997,60.24206100000001" fill="none" instance-id="-1" semantic-id="1" stroke="rgb(178,178,0)" stroke-width="0.1"/>
  <path d="M 36.62862699999994,59.615061000000026 L 67.635627,65.16406100000003" fill="none" instance-id="-1" semantic-id="1" stroke="rgb(178,178,0)" stroke-width="0.1"/>
  <path d="M 66.93062699999996,69.10206100000002 L 75.79062699999997,70.68706100000003" fill="none" instance-id="-1" semantic-id="1" stroke="rgb(178,178,0)" stroke-width="0.1"/>
  <path d="M 75.79062699999997,70.68706100000003 L 77.3756269999999,61.82806100000002" fill="none" instance-id="-1" semantic-id="1" stroke="rgb(178,178,0)" stroke-width="0.1"/>
  <path d="M 77.3756269999999,61.82806100000002 L 68.51662699999997,60.24206100000001" fill="none" instance-id="-1" semantic-id="1" stroke="rgb(178,178,0)" stroke-width="0.1"/>
  <path d="M 68.51662699999997,60.24206100000001 L 66.93062699999996,69.10206100000002" fill="none" instance-id="-1" semantic-id="1" stroke="rgb(178,178,0)" stroke-width="0.1"/>
 </g>
 <g id="layerDIM_LEAD" inkscape:groupmode="layer" inkscape:label="DIM_LEAD">
  <path d="M 100.0,55.59913783258054 L 56.990626999999904,47.90206100000003" fill="none" stroke="rgb(0,178,0)" stroke-width="0.1"/>
 </g>
 <g id="layerDIM_SYMB" inkscape:groupmode="layer" inkscape:label="DIM_SYMB">
  <path d="M 54.16062699999998,3.629061000000007 L 63.64162699999997,5.325061000000034" fill="none" stroke="rgb(0,178,0)" stroke-width="0.1"/>
  <path d="M 63.64162699999997,5.325061000000034 L 68.07062699999994,6.1180610000000115" fill="none" stroke="rgb(0,178,0)" stroke-width="0.1"/>
  <path d="M 3.1446269999999004,48.03406100000001 L 6.580626999999936,28.839061000000015" fill="none" stroke="rgb(0,178,0)" stroke-width="0.1"/>
  <path d="M 6.580626999999936,28.839061000000015 L 7.373626999999942,24.410061000000013" fill="none" stroke="rgb(0,178,0)" stroke-width="0.1"/>
 </g>
 <g id="layerDOOR_FIRE" inkscape:groupmode="layer" inkscape:label="DOOR_FIRE">
  <path d="M 17.82162699999992,51.17006100000003 L 19.407626999999934,42.31006100000002" fill="none" instance-id="8" semantic-id="3" stroke="rgb(0,178,178)" stroke-width="0.1"/>
  <path d="M 19.790626999999972,51.52206100000001 L 21.376626999999985,42.66306100000003" fill="none" instance-id="8" semantic-id="3" stroke="rgb(0,178,178)" stroke-width="0.1"/>
  <path d="M 21.43262699999991,30.99706100000003 L 23.017626999999948,22.13806100000002" fill="none" instance-id="7" semantic-id="3" stroke="rgb(0,178,178)" stroke-width="0.1"/>
  <path d="M 23.401626999999962,31.349061000000006 L 24.986627,22.490061000000026" fill="none" instance-id="7" semantic-id="3" stroke="rgb(0,178,178)" stroke-width="0.1"/>
  <path d="M 82.02162699999997,92.62906100000004 L 83.5676269999999,83.991061" fill="none" instance-id="3" semantic-id="4" stroke="rgb(0,178,178)" stroke-width="0.1"/>
  <path d="M 82.46462699999995,92.70806100000004 L 84.010627,84.07006100000001" fill="none" instance-id="3" semantic-id="4" stroke="rgb(0,178,178)" stroke-width="0.1"/>
  <path d="M 82.02162699999997,92.62906100000004 L 82.46462699999995,92.70806100000004" fill="none" instance-id="3" semantic-id="4" stroke="rgb(0,178,178)" stroke-width="0.1"/>
  <path d="M 84.010627,84.07006100000001 L 83.5676269999999,83.991061" fill="none" instance-id="3" semantic-id="4" stroke="rgb(0,178,178)" stroke-width="0.1"/>
  <path d="M 99.29762699999992,95.72106100000002 L 100.0,91.79667679948227" fill="none" instance-id="3" semantic-id="4" stroke="rgb(0,178,178)" stroke-width="0.1"/>
  <path d="M 99.7406269999999,95.80006100000003 L 100.0,94.35086049935268" fill="none" instance-id="3" semantic-id="4" stroke="rgb(0,178,178)" stroke-width="0.1"/>
  <path d="M 99.7406269999999,95.80006100000003 L 99.29762699999992,95.72106100000002" fill="none" instance-id="3" semantic-id="4" stroke="rgb(0,178,178)" stroke-width="0.1"/>
  <path d="M 86.25262699999996,71.54406100000003 L 84.70662699999991,80.18206100000003" fill="none" instance-id="2" semantic-id="4" stroke="rgb(0,178,178)" stroke-width="0.1"/>
  <path d="M 85.80962699999998,71.46506100000002 L 84.26362699999993,80.10306100000003" fill="none" instance-id="2" semantic-id="4" stroke="rgb(0,178,178)" stroke-width="0.1"/>
  <path d="M 84.70662699999991,80.18206100000003 L 84.26362699999993,80.10306100000003" fill="none" instance-id="2" semantic-id="4" stroke="rgb(0,178,178)" stroke-width="0.1"/>
  <path d="M 85.80962699999998,71.46506100000002 L 86.25262699999996,71.54406100000003" fill="none" instance-id="2" semantic-id="4" stroke="rgb(0,178,178)" stroke-width="0.1"/>
  <path d="M 7.752626999999961,79.33606100000003 L 9.298626999999897,70.69806100000002" fill="none" stroke="rgb(0,178,178)" stroke-width="0.1"/>
  <path d="M 8.195626999999945,79.41606100000001 L 9.741626999999994,70.77806100000001" fill="none" stroke="rgb(0,178,178)" stroke-width="0.1"/>
  <path d="M 9.298626999999897,70.69806100000002 L 9.741626999999994,70.77806100000001" fill="none" stroke="rgb(0,178,178)" stroke-width="0.1"/>
  <path d="M 8.195626999999945,79.41606100000001 L 7.752626999999961,79.33606100000003" fill="none" stroke="rgb(0,178,178)" stroke-width="0.1"/>
  <path d="M 0.17162699999994402,7.883061000000026 L 1.5825105732808424,0.0" fill="none" instance-id="6" semantic-id="4" stroke="rgb(0,178,178)" stroke-width="0.1"/>
  <path d="M 0.6146269999999276,7.962061000000034 L 2.0398147163366502,0.0" fill="none" instance-id="6" semantic-id="4" stroke="rgb(0,178,178)" stroke-width="0.1"/>
  <path d="M 0.17162699999994402,7.883061000000026 L 0.6146269999999276,7.962061000000034" fill="none" instance-id="6" semantic-id="4" stroke="rgb(0,178,178)" stroke-width="0.1"/>
  <path d="M 17.44662699999992,10.97506100000001 L 18.99262699999997,2.337061000000034" fill="none" instance-id="6" semantic-id="4" stroke="rgb(0,178,178)" stroke-width="0.1"/>
  <path d="M 17.889626999999905,11.054061000000019 L 19.435626999999954,2.4160610000000133" fill="none" instance-id="6" semantic-id="4" stroke="rgb(0,178,178)" stroke-width="0.1"/>
  <path d="M 18.99262699999997,2.337061000000034 L 19.435626999999954,2.4160610000000133" fill="none" instance-id="6" semantic-id="4" stroke="rgb(0,178,178)" stroke-width="0.1"/>
  <path d="M 17.889626999999905,11.054061000000019 L 17.44662699999992,10.97506100000001" fill="none" instance-id="6" semantic-id="4" stroke="rgb(0,178,178)" stroke-width="0.1"/>
  <path d="M 34.17067270547136,0.0 L 37.78562699999998,0.6470610000000079" fill="none" stroke="rgb(0,178,178)" stroke-width="0.1"/>
  <path d="M 37.012428701805334,0.0 L 37.87362699999994,0.15406100000001288" fill="none" stroke="rgb(0,178,178)" stroke-width="0.1"/>
  <path d="M 37.87362699999994,0.15406100000001288 L 37.78562699999998,0.6470610000000079" fill="none" stroke="rgb(0,178,178)" stroke-width="0.1"/>
  <path d="M 18.806626999999935,51.34606100000002 L 13.663626999999906,43.960061000000024" fill="none" instance-id="8" semantic-id="3" stroke="rgb(0,178,178)" stroke-width="0.1"/>
  <path d="M 24.00262699999996,22.31406100000001 L 16.616626999999994,27.45706100000001" fill="none" instance-id="7" semantic-id="3" stroke="rgb(0,178,178)" stroke-width="0.1"/>
  <path d="M 90.88162699999998,94.21406100000002 A 8.775,8.775 0.0 0,0 84.010627,84.073061" fill="none" instance-id="3" semantic-id="4" stroke="rgb(0,178,178)" stroke-width="0.1"/>
  <path d="M 99.84336812892934,86.99168437080391 L 99.34132720706134,86.98750044459979" fill="none" instance-id="3" semantic-id="4" stroke="rgb(0,178,178)" stroke-width="0.1"/>
  <path d="M 99.34132720706134,86.98750044459979 L 98.83986872027742,87.01203569477047" fill="none" instance-id="3" semantic-id="4" stroke="rgb(0,178,178)" stroke-width="0.1"/>
  <path d="M 98.83986872027742,87.01203569477047 L 98.34063419974962,87.06520980484123" fill="none" instance-id="3" semantic-id="4" stroke="rgb(0,178,178)" stroke-width="0.1"/>
  <path d="M 98.34063419974962,87.06520980484123 L 97.84525789646591,87.14684870863994" fill="none" instance-id="3" semantic-id="4" stroke="rgb(0,178,178)" stroke-width="0.1"/>
  <path d="M 97.84525789646591,87.14684870863994 L 97.35536143148784,87.25668516010546" fill="none" instance-id="3" semantic-id="4" stroke="rgb(0,178,178)" stroke-width="0.1"/>
  <path d="M 97.35536143148784,87.25668516010546 L 96.87254848755185,87.39435960812114" fill="none" instance-id="3" semantic-id="4" stroke="rgb(0,178,178)" stroke-width="0.1"/>
  <path d="M 96.87254848755185,87.39435960812114 L 96.39839955939203,87.55942137351019" fill="none" instance-id="3" semantic-id="4" stroke="rgb(0,178,178)" stroke-width="0.1"/>
  <path d="M 96.39839955939203,87.55942137351019 L 95.93446677996872,87.75133012434026" fill="none" instance-id="3" semantic-id="4" stroke="rgb(0,178,178)" stroke-width="0.1"/>
  <path d="M 95.93446677996872,87.75133012434026 L 95.482268839541,87.96945764470718" fill="none" instance-id="3" semantic-id="4" stroke="rgb(0,178,178)" stroke-width="0.1"/>
  <path d="M 95.482268839541,87.96945764470718 L 95.04328601421275,88.21308989120854" fill="none" instance-id="3" semantic-id="4" stroke="rgb(0,178,178)" stroke-width="0.1"/>
  <path d="M 95.04328601421275,88.21308989120854 L 94.61895532022879,88.48142933037406" fill="none" instance-id="3" semantic-id="4" stroke="rgb(0,178,178)" stroke-width="0.1"/>
  <path d="M 94.61895532022879,88.48142933037406 L 94.21066580988327,88.77359754940255" fill="none" instance-id="3" semantic-id="4" stroke="rgb(0,178,178)" stroke-width="0.1"/>
  <path d="M 94.21066580988327,88.77359754940255 L 93.81975402443732,89.08863813165817" fill="none" instance-id="3" semantic-id="4" stroke="rgb(0,178,178)" stroke-width="0.1"/>
  <path d="M 93.81975402443732,89.08863813165817 L 93.44749961893353,89.42551978751317" fill="none" instance-id="3" semantic-id="4" stroke="rgb(0,178,178)" stroke-width="0.1"/>
  <path d="M 93.44749961893353,89.42551978751317 L 93.09512117322788,89.78313973028838" fill="none" instance-id="3" semantic-id="4" stroke="rgb(0,178,178)" stroke-width="0.1"/>
  <path d="M 93.09512117322788,89.78313973028838 L 92.76377220295137,90.16032728624066" fill="none" instance-id="3" semantic-id="4" stroke="rgb(0,178,178)" stroke-width="0.1"/>
  <path d="M 92.76377220295137,90.16032728624066 L 92.45453738346191,90.55584772677918" fill="none" instance-id="3" semantic-id="4" stroke="rgb(0,178,178)" stroke-width="0.1"/>
  <path d="M 92.45453738346191,90.55584772677918 L 92.16842899914377,90.96840631036628" fill="none" instance-id="3" semantic-id="4" stroke="rgb(0,178,178)" stroke-width="0.1"/>
  <path d="M 92.16842899914377,90.96840631036628 L 91.90638362968161,91.39665252087138" fill="none" instance-id="3" semantic-id="4" stroke="rgb(0,178,178)" stroke-width="0.1"/>
  <path d="M 91.90638362968161,91.39665252087138 L 91.66925908415396,91.83918448850403" fill="none" instance-id="3" semantic-id="4" stroke="rgb(0,178,178)" stroke-width="0.1"/>
  <path d="M 91.66925908415396,91.83918448850403 L 91.45783159298344,92.29455357885365" fill="none" instance-id="3" semantic-id="4" stroke="rgb(0,178,178)" stroke-width="0.1"/>
  <path d="M 91.45783159298344,92.29455357885365 L 91.27279326693576,92.76126913501389" fill="none" instance-id="3" semantic-id="4" stroke="rgb(0,178,178)" stroke-width="0.1"/>
  <path d="M 91.27279326693576,92.76126913501389 L 91.11474983148628,93.23780335726855" fill="none" instance-id="3" semantic-id="4" stroke="rgb(0,178,178)" stroke-width="0.1"/>
  <path d="M 91.11474983148628,93.23780335726855 L 90.9842186439688,93.72259630436434" fill="none" instance-id="3" semantic-id="4" stroke="rgb(0,178,178)" stroke-width="0.1"/>
  <path d="M 90.9842186439688,93.72259630436434 L 90.88162699999998,94.21406100000002" fill="none" instance-id="3" semantic-id="4" stroke="rgb(0,178,178)" stroke-width="0.1"/>
  <path d="M 94.66962699999999,73.05106100000003 L 94.59535102384314,73.54760932753396" fill="none" instance-id="2" semantic-id="4" stroke="rgb(0,178,178)" stroke-width="0.1"/>
  <path d="M 94.59535102384314,73.54760932753396 L 94.54959564665921,74.04759293493481" fill="none" instance-id="2" semantic-id="4" stroke="rgb(0,178,178)" stroke-width="0.1"/>
  <path d="M 94.54959564665921,74.04759293493481 L 94.53251065795484,74.54937502446347" fill="none" instance-id="2" semantic-id="4" stroke="rgb(0,178,178)" stroke-width="0.1"/>
  <path d="M 94.53251065795484,74.54937502446347 L 94.54415198890558,75.05131291068497" fill="none" instance-id="2" semantic-id="4" stroke="rgb(0,178,178)" stroke-width="0.1"/>
  <path d="M 94.54415198890558,75.05131291068497 L 94.5844815292536,75.55176339813215" fill="none" instance-id="2" semantic-id="4" stroke="rgb(0,178,178)" stroke-width="0.1"/>
  <path d="M 94.5844815292536,75.55176339813215 L 94.6533672520693,76.04908816063946" fill="none" instance-id="2" semantic-id="4" stroke="rgb(0,178,178)" stroke-width="0.1"/>
  <path d="M 94.6533672520693,76.04908816063946 L 94.75058364596885,76.54165910473583" fill="none" instance-id="2" semantic-id="4" stroke="rgb(0,178,178)" stroke-width="0.1"/>
  <path d="M 94.75058364596885,76.54165910473583 L 94.87581245337037,77.02786369953887" fill="none" instance-id="2" semantic-id="4" stroke="rgb(0,178,178)" stroke-width="0.1"/>
  <path d="M 94.87581245337037,77.02786369953887 L 95.02864371237558,77.50611025570177" fill="none" instance-id="2" semantic-id="4" stroke="rgb(0,178,178)" stroke-width="0.1"/>
  <path d="M 95.02864371237558,77.50611025570177 L 95.20857709886297,77.97483313613111" fill="none" instance-id="2" semantic-id="4" stroke="rgb(0,178,178)" stroke-width="0.1"/>
  <path d="M 95.20857709886297,77.97483313613111 L 95.41502356440003,78.4324978814175" fill="none" instance-id="2" semantic-id="4" stroke="rgb(0,178,178)" stroke-width="0.1"/>
  <path d="M 95.41502356440003,78.4324978814175 L 95.647307264613,78.87760623319957" fill="none" instance-id="2" semantic-id="4" stroke="rgb(0,178,178)" stroke-width="0.1"/>
  <path d="M 95.647307264613,78.87760623319957 L 95.90466777170047,79.30870103901665" fill="none" instance-id="2" semantic-id="4" stroke="rgb(0,178,178)" stroke-width="0.1"/>
  <path d="M 95.90466777170047,79.30870103901665 L 96.186262563848,79.72437102259278" fill="none" instance-id="2" semantic-id="4" stroke="rgb(0,178,178)" stroke-width="0.1"/>
  <path d="M 96.186262563848,79.72437102259278 L 96.49116978339407,80.12325540393593" fill="none" instance-id="2" semantic-id="4" stroke="rgb(0,178,178)" stroke-width="0.1"/>
  <path d="M 96.49116978339407,80.12325540393593 L 96.81839125471811,80.50404835412718" fill="none" instance-id="2" semantic-id="4" stroke="rgb(0,178,178)" stroke-width="0.1"/>
  <path d="M 96.81839125471811,80.50404835412718 L 97.16685575197084,80.86550327021655" fill="none" instance-id="2" semantic-id="4" stroke="rgb(0,178,178)" stroke-width="0.1"/>
  <path d="M 97.16685575197084,80.86550327021655 L 97.53542250594955,81.20643685623062" fill="none" instance-id="2" semantic-id="4" stroke="rgb(0,178,178)" stroke-width="0.1"/>
  <path d="M 97.53542250594955,81.20643685623062 L 97.92288493863703,81.52573299693182" fill="none" instance-id="2" semantic-id="4" stroke="rgb(0,178,178)" stroke-width="0.1"/>
  <path d="M 97.92288493863703,81.52573299693182 L 98.32797461317978,81.82234641164803" fill="none" instance-id="2" semantic-id="4" stroke="rgb(0,178,178)" stroke-width="0.1"/>
  <path d="M 98.32797461317978,81.82234641164803 L 98.74936538637326,82.09530607621087" fill="none" instance-id="2" semantic-id="4" stroke="rgb(0,178,178)" stroke-width="0.1"/>
  <path d="M 98.74936538637326,82.09530607621087 L 99.18567775006011,82.34371840180023" fill="none" instance-id="2" semantic-id="4" stroke="rgb(0,178,178)" stroke-width="0.1"/>
  <path d="M 99.18567775006011,82.34371840180023 L 99.63548334723089,82.56677016028854" fill="none" instance-id="2" semantic-id="4" stroke="rgb(0,178,178)" stroke-width="0.1"/>
  <path d="M 84.707627,80.17906100000002 A 8.775,8.775 0.0 0,0 94.66962699999999,73.05106100000003" fill="none" instance-id="2" semantic-id="4" stroke="rgb(0,178,178)" stroke-width="0.1"/>
  <path d="M 9.29762699999992,70.70106100000001 L 8.799281878931424,70.63952108052524" fill="none" stroke="rgb(0,178,178)" stroke-width="0.1"/>
  <path d="M 8.799281878931424,70.63952108052524 L 8.298232614273047,70.6065869680119" fill="none" stroke="rgb(0,178,178)" stroke-width="0.1"/>
  <path d="M 8.298232614273047,70.6065869680119 L 7.796119868903361,70.6023665037037" fill="none" stroke="rgb(0,178,178)" stroke-width="0.1"/>
  <path d="M 7.796119868903361,70.6023665037037 L 7.294587788019612,70.62687350731781" fill="none" stroke="rgb(0,178,178)" stroke-width="0.1"/>
  <path d="M 7.294587788019612,70.62687350731781 L 6.7952786154598925,70.68002773179282" fill="none" stroke="rgb(0,178,178)" stroke-width="0.1"/>
  <path d="M 6.7952786154598925,70.68002773179282 L 6.299827316250912,70.76165512605417" fill="none" stroke="rgb(0,178,178)" stroke-width="0.1"/>
  <path d="M 6.299827316250912,70.76165512605417 L 5.8098562229896515,70.87148840493634" fill="none" stroke="rgb(0,178,178)" stroke-width="0.1"/>
  <path d="M 5.8098562229896515,70.87148840493634 L 5.326969723589286,71.00916792439594" fill="none" stroke="rgb(0,178,178)" stroke-width="0.1"/>
  <path d="M 5.326969723589286,71.00916792439594 L 4.852749007785064,71.17424285914964" fill="none" stroke="rgb(0,178,178)" stroke-width="0.1"/>
  <path d="M 4.852749007785064,71.17424285914964 L 4.388746889600611,71.3661726788809" fill="none" stroke="rgb(0,178,178)" stroke-width="0.1"/>
  <path d="M 4.388746889600611,71.3661726788809 L 3.9364827227293517,71.5843289181818" fill="none" stroke="rgb(0,178,178)" stroke-width="0.1"/>
  <path d="M 3.9364827227293517,71.5843289181818 L 3.497437425480257,71.82799723443418" fill="none" stroke="rgb(0,178,178)" stroke-width="0.1"/>
  <path d="M 3.497437425480257,71.82799723443418 L 3.073048631579468,72.09637974689193" fill="none" stroke="rgb(0,178,178)" stroke-width="0.1"/>
  <path d="M 3.073048631579468,72.09637974689193 L 2.6647059827033672,72.38859764930484" fill="none" stroke="rgb(0,178,178)" stroke-width="0.1"/>
  <path d="M 2.6647059827033672,72.38859764930484 L 2.273746578161422,72.70369408752958" fill="none" stroke="rgb(0,178,178)" stroke-width="0.1"/>
  <path d="M 2.273746578161422,72.70369408752958 L 1.901450596625068,73.04063729270467" fill="none" stroke="rgb(0,178,178)" stroke-width="0.1"/>
  <path d="M 1.901450596625068,73.04063729270467 L 1.5490371042418474,73.39832395973042" fill="none" stroke="rgb(0,178,178)" stroke-width="0.1"/>
  <path d="M 1.5490371042418474,73.39832395973042 L 1.217660062858613,73.77558285999098" fill="none" stroke="rgb(0,178,178)" stroke-width="0.1"/>
  <path d="M 1.217660062858613,73.77558285999098 L 0.908404551426429,74.17117867648881" fill="none" stroke="rgb(0,178,178)" stroke-width="0.1"/>
  <path d="M 0.908404551426429,74.17117867648881 L 0.6222832129594735,74.58381604883363" fill="none" stroke="rgb(0,178,178)" stroke-width="0.1"/>
  <path d="M 0.6222832129594735,74.58381604883363 L 0.36023293868163364,75.01214381484073" fill="none" stroke="rgb(0,178,178)" stroke-width="0.1"/>
  <path d="M 0.36023293868163364,75.01214381484073 L 0.12311180021902146,75.4547594348497" fill="none" stroke="rgb(0,178,178)" stroke-width="0.1"/>
  <path d="M 9.030626999999981,9.46906100000001 L 9.104955617170617,8.972447952246313" fill="none" instance-id="6" semantic-id="4" stroke="rgb(0,178,178)" stroke-width="0.1"/>
  <path d="M 9.104955617170617,8.972447952246313 L 9.150755754545685,8.4723963449635" fill="none" instance-id="6" semantic-id="4" stroke="rgb(0,178,178)" stroke-width="0.1"/>
  <path d="M 9.150755754545685,8.4723963449635 L 9.167877433201511,7.970543666730407" fill="none" instance-id="6" semantic-id="4" stroke="rgb(0,178,178)" stroke-width="0.1"/>
  <path d="M 9.167877433201511,7.970543666730407 L 9.156264585818576,7.468533303983406" fill="none" instance-id="6" semantic-id="4" stroke="rgb(0,178,178)" stroke-width="0.1"/>
  <path d="M 9.156264585818576,7.468533303983406 L 9.115955240281664,6.9680091595187434" fill="none" instance-id="6" semantic-id="4" stroke="rgb(0,178,178)" stroke-width="0.1"/>
  <path d="M 9.115955240281664,6.9680091595187434 L 9.047081395152645,6.470610269304018" fill="none" instance-id="6" semantic-id="4" stroke="rgb(0,178,178)" stroke-width="0.1"/>
  <path d="M 9.047081395152645,6.470610269304018 L 8.949868587422202,5.977965435226878" fill="none" instance-id="6" semantic-id="4" stroke="rgb(0,178,178)" stroke-width="0.1"/>
  <path d="M 8.949868587422202,5.977965435226878 L 8.824635153958184,5.491687891356577" fill="none" instance-id="6" semantic-id="4" stroke="rgb(0,178,178)" stroke-width="0.1"/>
  <path d="M 8.824635153958184,5.491687891356577 L 8.67179118906688,5.013370021184443" fill="none" instance-id="6" semantic-id="4" stroke="rgb(0,178,178)" stroke-width="0.1"/>
  <path d="M 8.67179118906688,5.013370021184443 L 8.491837201582257,4.54457814314253" fill="none" instance-id="6" semantic-id="4" stroke="rgb(0,178,178)" stroke-width="0.1"/>
  <path d="M 8.491837201582257,4.54457814314253 L 8.285362475879879,4.0868473814759625" fill="none" instance-id="6" semantic-id="4" stroke="rgb(0,178,178)" stroke-width="0.1"/>
  <path d="M 8.285362475879879,4.0868473814759625 L 8.053043142183697,3.6416766392650004" fill="none" instance-id="6" semantic-id="4" stroke="rgb(0,178,178)" stroke-width="0.1"/>
  <path d="M 8.053043142183697,3.6416766392650004 L 7.795639962483165,3.2105236900581815" fill="none" instance-id="6" semantic-id="4" stroke="rgb(0,178,178)" stroke-width="0.1"/>
  <path d="M 7.795639962483165,3.2105236900581815 L 7.5139958393122015,2.794800404190056" fill="none" instance-id="6" semantic-id="4" stroke="rgb(0,178,178)" stroke-width="0.1"/>
  <path d="M 7.5139958393122015,2.794800404190056 L 7.20903305554782,2.395868125415319" fill="none" instance-id="6" semantic-id="4" stroke="rgb(0,178,178)" stroke-width="0.1"/>
  <path d="M 7.20903305554782,2.395868125415319 L 6.881750254266308,2.0150332129991" fill="none" instance-id="6" semantic-id="4" stroke="rgb(0,178,178)" stroke-width="0.1"/>
  <path d="M 6.881750254266308,2.0150332129991 L 6.533219168547589,1.6535427638618785" fill="none" instance-id="6" semantic-id="4" stroke="rgb(0,178,178)" stroke-width="0.1"/>
  <path d="M 6.533219168547589,1.6535427638618785 L 6.164581111935945,1.3125805287870094" fill="none" instance-id="6" semantic-id="4" stroke="rgb(0,178,178)" stroke-width="0.1"/>
  <path d="M 6.164581111935945,1.3125805287870094 L 5.777043241050023,0.9932630360640076" fill="none" instance-id="6" semantic-id="4" stroke="rgb(0,178,178)" stroke-width="0.1"/>
  <path d="M 5.777043241050023,0.9932630360640076 L 5.371874602580647,0.6966359352613267" fill="none" instance-id="6" semantic-id="4" stroke="rgb(0,178,178)" stroke-width="0.1"/>
  <path d="M 5.371874602580647,0.6966359352613267 L 4.950401977620686,0.42367057310136147" fill="none" instance-id="6" semantic-id="4" stroke="rgb(0,178,178)" stroke-width="0.1"/>
  <path d="M 4.950401977620686,0.42367057310136147 L 4.514005536935883,0.17526081265035032" fill="none" instance-id="6" semantic-id="4" stroke="rgb(0,178,178)" stroke-width="0.1"/>
  <path d="M 18.99262699999997,2.34006100000002 A 8.775,8.775 0.0 0,0 9.030626999999981,9.46906100000001" fill="none" instance-id="6" semantic-id="4" stroke="rgb(0,178,178)" stroke-width="0.1"/>
  <path d="M 20.39162699999997,42.48706100000001 A 9.0,9.0 0.0 0,0 13.663626999999906,43.960061000000024" fill="none" instance-id="8" semantic-id="3" stroke="rgb(0,178,178)" stroke-width="0.1"/>
  <path d="M 16.616626999999994,27.45706100000001 A 9.0,9.0 0.0 0,0 22.41662699999995,31.17306100000002" fill="none" instance-id="7" semantic-id="3" stroke="rgb(0,178,178)" stroke-width="0.1"/>
 </g>
 <g id="layerDOOR_FIRE_TEXT" inkscape:groupmode="layer" inkscape:label="DOOR_FIRE_TEXT">
  <text fill="rgb(0,0,0)" font-family="Noto Sans CJK SC" font-size="2" transform="rotate(-349.853,89.32662699999992,68.63106100000002)" x="89.32662699999992" y="68.63106100000002">
   FM
  </text>
  <text fill="rgb(0,0,0)" font-family="Noto Sans CJK SC" font-size="2" transform="rotate(-349.853,92.952627,69.28006100000002)" x="92.952627" y="69.28006100000002">
   甲
  </text>
  <text fill="rgb(0,0,0)" font-family="Noto Sans CJK SC" font-size="2" transform="rotate(-349.853,96.30162699999994,69.87906100000001)" x="96.30162699999994" y="69.87906100000001">
   1823
  </text>
  <text fill="rgb(0,0,0)" font-family="Noto Sans CJK SC" font-size="2" transform="rotate(-349.853,1.2526269999999613,16.153061000000008)" x="1.2526269999999613" y="16.153061000000008">
   乙
  </text>
  <text fill="rgb(0,0,0)" font-family="Noto Sans CJK SC" font-size="2" transform="rotate(-349.853,4.601627000000008,16.752061000000026)" x="4.601627000000008" y="16.752061000000026">
   1821
  </text>
  <text fill="rgb(0,0,0)" font-family="Noto Sans CJK SC" font-size="2" transform="rotate(-79.8529,10.61762699999997,52.36006100000003)" x="10.61762699999997" y="52.36006100000003">
   FM
  </text>
  <text fill="rgb(0,0,0)" font-family="Noto Sans CJK SC" font-size="2" transform="rotate(-79.8529,11.266626999999971,48.734061000000025)" x="11.266626999999971" y="48.734061000000025">
   甲
  </text>
  <text fill="rgb(0,0,0)" font-family="Noto Sans CJK SC" font-size="2" transform="rotate(-79.8529,11.865626999999904,45.38506100000001)" x="11.865626999999904" y="45.38506100000001">
   0921
  </text>
  <text fill="rgb(0,0,0)" font-family="Noto Sans CJK SC" font-size="2" transform="rotate(-79.8529,16.032626999999934,31.87606100000002)" x="16.032626999999934" y="31.87606100000002">
   FM
  </text>
  <text fill="rgb(0,0,0)" font-family="Noto Sans CJK SC" font-size="2" transform="rotate(-79.8529,16.681626999999935,28.250061000000017)" x="16.681626999999935" y="28.250061000000017">
   甲
  </text>
  <text fill="rgb(0,0,0)" font-family="Noto Sans CJK SC" font-size="2" transform="rotate(-79.8529,17.281626999999958,24.901061000000027)" x="17.281626999999958" y="24.901061000000027">
   0921
  </text>
 </g>
 <g id="layerPUB_HATCH" inkscape:groupmode="layer" inkscape:label="PUB_HATCH">
  <path d="M 35.643626999999924,59.43806100000003 L 36.62862699999994,59.615061000000026" fill="none" instance-id="-1" semantic-id="1" stroke="rgb(63,63,63)" stroke-width="0.1"/>
  <path d="M 36.62862699999994,59.615061000000026 L 37.50962699999991,54.69306100000003" fill="none" instance-id="-1" semantic-id="1" stroke="rgb(63,63,63)" stroke-width="0.1"/>
  <path d="M 37.50962699999991,54.69306100000003 L 36.524626999999896,54.51706100000001" fill="none" instance-id="-1" semantic-id="1" stroke="rgb(63,63,63)" stroke-width="0.1"/>
  <path d="M 36.524626999999896,54.51706100000001 L 35.643626999999924,59.43806100000003" fill="none" instance-id="-1" semantic-id="1" stroke="rgb(63,63,63)" stroke-width="0.1"/>
  <path d="M 75.79162699999995,22.43306100000001 L 100.0,26.765853537667823" fill="none" instance-id="-1" semantic-id="1" stroke="rgb(63,63,63)" stroke-width="0.1"/>
  <path d="M 100.0,21.686172960551573 L 76.67262699999992,17.511061000000012" fill="none" instance-id="-1" semantic-id="1" stroke="rgb(63,63,63)" stroke-width="0.1"/>
  <path d="M 76.67262699999992,17.511061000000012 L 75.79162699999995,22.43306100000001" fill="none" instance-id="-1" semantic-id="1" stroke="rgb(63,63,63)" stroke-width="0.1"/>
  <path d="M 36.62862699999994,59.615061000000026 L 67.635627,65.16406100000003" fill="none" instance-id="-1" semantic-id="1" stroke="rgb(63,63,63)" stroke-width="0.1"/>
  <path d="M 67.635627,65.16406100000003 L 68.51662699999997,60.24206100000001" fill="none" instance-id="-1" semantic-id="1" stroke="rgb(63,63,63)" stroke-width="0.1"/>
  <path d="M 68.51662699999997,60.24206100000001 L 37.50962699999991,54.69306100000003" fill="none" instance-id="-1" semantic-id="1" stroke="rgb(63,63,63)" stroke-width="0.1"/>
  <path d="M 37.50962699999991,54.69306100000003 L 36.62862699999994,59.615061000000026" fill="none" instance-id="-1" semantic-id="1" stroke="rgb(63,63,63)" stroke-width="0.1"/>
 </g>
 <g id="layerPUB_TEXT" inkscape:groupmode="layer" inkscape:label="PUB_TEXT">
  <text fill="rgb(0,0,0)" font-family="Noto Sans CJK SC" font-size="2" transform="rotate(-349.853,61.490626999999904,36.25606100000002)" x="61.490626999999904" y="36.25606100000002">
   报警阀间
  </text>
  <text fill="rgb(0,0,0)" font-family="Noto Sans CJK SC" font-size="2" transform="rotate(-349.853,58.81862699999999,46.62906100000001)" x="58.81862699999999" y="46.62906100000001">
   集水井
  </text>
  <text fill="rgb(0,0,0)" font-family="Noto Sans CJK SC" font-size="2" transform="rotate(-349.853,57.47662700000001,54.12206100000003)" x="57.47662700000001" y="54.12206100000003">
   2000x1200x1500d
  </text>
  <text fill="rgb(0,0,0)" font-family="Noto Sans CJK SC" font-size="2" transform="rotate(-349.853,25.81162699999993,31.27106100000003)" x="25.81162699999993" y="31.27106100000003">
   强
  </text>
  <text fill="rgb(0,0,0)" font-family="Noto Sans CJK SC" font-size="2" transform="rotate(-349.853,22.838626999999974,50.466061000000025)" x="22.838626999999974" y="50.466061000000025">
   弱
  </text>
  <text fill="rgb(0,0,0)" font-family="Noto Sans CJK SC" font-size="2" transform="rotate(-349.853,96.7646269999999,4.844061000000011)" x="96.7646269999999" y="4.844061000000011">
   LTB2
  </text>
  <text fill="rgb(0,0,0)" font-family="Noto Sans CJK SC" font-size="2" transform="rotate(-349.853,49.06962699999997,5.384061000000031)" x="49.06962699999997" y="5.384061000000031">
   上
  </text>
  <text fill="rgb(0,0,0)" font-family="Noto Sans CJK SC" font-size="2" transform="rotate(-79.8529,2.789626999999996,41.081061000000034)" x="2.789626999999996" y="41.081061000000034">
   下
  </text>
  <text fill="rgb(0,0,0)" font-family="Noto Sans CJK SC" font-size="2" transform="rotate(-79.8529,3.4386269999999968,37.45306100000002)" x="3.4386269999999968" y="37.45306100000002">
   1:8
  </text>
 </g>
 <g id="layerS-JSJ" inkscape:groupmode="layer" inkscape:label="S-JSJ">
  <path d="M 99.90562699999998,20.654061000000013 L 100.0,20.559424388268155" fill="none" stroke="rgb(0,133,178)" stroke-width="0.1"/>
  <path d="M 100.0,9.20965075922416 L 98.01262699999995,20.315061000000014" fill="none" stroke="rgb(0,133,178)" stroke-width="0.1"/>
  <path d="M 98.01262699999995,20.315061000000014 L 100.0,20.670702544115414" fill="none" stroke="rgb(0,133,178)" stroke-width="0.1"/>
  <path d="M 100.0,20.297653353284687 L 98.01262699999995,20.315061000000014" fill="none" stroke="rgb(0,133,178)" stroke-width="0.1"/>
  <path d="M 100.0,20.297653353284687 L 98.01262699999995,20.315061000000014" fill="none" stroke="rgb(0,133,178)" stroke-width="0.1"/>
  <path d="M 98.01262699999995,20.315061000000014 L 100.0,20.670702544115414" fill="none" stroke="rgb(0,133,178)" stroke-width="0.1"/>
 </g>
 <g id="layerSTAIR" inkscape:groupmode="layer" inkscape:label="STAIR">
  <path d="M 58.6008399391003,0.0 L 56.12462699999992,13.835061000000024" fill="none" instance-id="9" semantic-id="30" stroke="rgb(178,88,0)" stroke-width="0.1"/>
  <path d="M 61.24181323333505,0.0 L 58.683627,14.293061000000023" fill="none" instance-id="9" semantic-id="30" stroke="rgb(178,88,0)" stroke-width="0.1"/>
  <path d="M 63.88301409938731,0.0 L 61.24362699999995,14.751061000000021" fill="none" instance-id="9" semantic-id="30" stroke="rgb(178,88,0)" stroke-width="0.1"/>
  <path d="M 66.52475982180442,0.0 L 63.802626999999916,15.20906100000002" fill="none" instance-id="9" semantic-id="30" stroke="rgb(178,88,0)" stroke-width="0.1"/>
  <path d="M 69.16573311603918,0.0 L 66.361627,15.667061000000018" fill="none" instance-id="9" semantic-id="30" stroke="rgb(178,88,0)" stroke-width="0.1"/>
  <path d="M 71.80679373807061,0.0 L 68.92162699999994,16.125061000000017" fill="none" instance-id="9" semantic-id="30" stroke="rgb(178,88,0)" stroke-width="0.1"/>
  <path d="M 73.63862699999993,4.522061000000008 L 71.48062699999991,16.583061000000015" fill="none" instance-id="9" semantic-id="30" stroke="rgb(178,88,0)" stroke-width="0.1"/>
  <path d="M 75.404627,9.413061000000027 L 74.04062699999997,17.041061000000013" fill="none" instance-id="9" semantic-id="30" stroke="rgb(178,88,0)" stroke-width="0.1"/>
  <path d="M 55.95916616515683,0.0 L 53.56562699999995,13.377061000000026" fill="none" instance-id="9" semantic-id="30" stroke="rgb(178,88,0)" stroke-width="0.1"/>
  <path d="M 78.44362699999999,17.829061000000024 L 74.75962699999991,7.6250610000000165" fill="none" instance-id="9" semantic-id="30" stroke="rgb(178,88,0)" stroke-width="0.1"/>
  <path d="M 74.75962699999991,7.6250610000000165 L 73.414627,7.739061000000021" fill="none" instance-id="9" semantic-id="30" stroke="rgb(178,88,0)" stroke-width="0.1"/>
  <path d="M 73.414627,7.739061000000021 L 75.47862699999996,6.016061000000008" fill="none" instance-id="9" semantic-id="30" stroke="rgb(178,88,0)" stroke-width="0.1"/>
  <path d="M 75.47862699999996,6.016061000000008 L 74.2166269999999,6.123061000000007" fill="none" instance-id="9" semantic-id="30" stroke="rgb(178,88,0)" stroke-width="0.1"/>
  <path d="M 74.2166269999999,6.123061000000007 L 72.00606504153347,0.0" fill="none" instance-id="9" semantic-id="30" stroke="rgb(178,88,0)" stroke-width="0.1"/>
  <path d="M 0.0,23.090033175171868 L 22.13862699999993,27.05206100000001" fill="none" stroke="rgb(178,88,0)" stroke-width="0.1"/>
  <path d="M 0.0,47.47169498818192 L 17.910626999999977,50.67706100000001" fill="none" stroke="rgb(178,88,0)" stroke-width="0.1"/>
 </g>
 <g id="layerWALL" inkscape:groupmode="layer" inkscape:label="WALL">
  <path d="M 19.262626999999952,54.47506100000001 L 35.99662699999999,57.470061000000015" fill="none" instance-id="-1" semantic-id="1" stroke="rgb(178,178,0)" stroke-width="0.1"/>
  <path d="M 16.941626999999926,56.091061000000025 L 35.643626999999924,59.43806100000003" fill="none" instance-id="-1" semantic-id="1" stroke="rgb(178,178,0)" stroke-width="0.1"/>
  <path d="M 71.36062699999991,69.89506100000003 L 85.63362699999993,72.44906100000003" fill="none" instance-id="-1" semantic-id="1" stroke="rgb(178,178,0)" stroke-width="0.1"/>
  <path d="M 85.63362699999993,72.44906100000003 L 85.98562699999991,70.48106100000001" fill="none" instance-id="-1" semantic-id="1" stroke="rgb(178,178,0)" stroke-width="0.1"/>
  <path d="M 85.98562699999991,70.48106100000001 L 76.14262699999995,68.71906100000001" fill="none" instance-id="-1" semantic-id="1" stroke="rgb(178,178,0)" stroke-width="0.1"/>
  <path d="M 71.36062699999991,69.89406100000002 L 71.36062699999991,69.89506100000003" fill="none" stroke="rgb(178,178,0)" stroke-width="0.1"/>
  <path d="M 24.957627000000002,11.303061000000014 L 25.309626999999978,9.33406100000002" fill="none" instance-id="-1" semantic-id="1" stroke="rgb(178,178,0)" stroke-width="0.1"/>
  <path d="M 26.925626999999963,11.656061000000022 L 27.101627000000008,10.671061000000009" fill="none" instance-id="-1" semantic-id="1" stroke="rgb(178,178,0)" stroke-width="0.1"/>
  <path d="M 26.925626999999963,11.656061000000022 L 44.6446269999999,14.827061000000015" fill="none" instance-id="-1" semantic-id="1" stroke="rgb(178,178,0)" stroke-width="0.1"/>
  <path d="M 26.573626999999988,13.624061000000012 L 43.30762699999991,16.619061000000016" fill="none" instance-id="-1" semantic-id="1" stroke="rgb(178,178,0)" stroke-width="0.1"/>
  <path d="M 22.873626999999942,34.29606100000001 L 39.60762699999998,37.29106100000001" fill="none" instance-id="-1" semantic-id="1" stroke="rgb(178,178,0)" stroke-width="0.1"/>
  <path d="M 22.521626999999967,36.26506100000003 L 39.255627000000004,39.26006100000001" fill="none" instance-id="-1" semantic-id="1" stroke="rgb(178,178,0)" stroke-width="0.1"/>
  <path d="M 22.873626999999942,34.29606100000001 L 23.401626999999962,31.349061000000006" fill="none" instance-id="-1" semantic-id="1" stroke="rgb(178,178,0)" stroke-width="0.1"/>
  <path d="M 23.401626999999962,31.349061000000006 L 21.43262699999991,30.99706100000003" fill="none" instance-id="-1" semantic-id="1" stroke="rgb(178,178,0)" stroke-width="0.1"/>
  <path d="M 21.43262699999991,30.99706100000003 L 20.72862699999996,34.928061000000014" fill="none" instance-id="-1" semantic-id="1" stroke="rgb(178,178,0)" stroke-width="0.1"/>
  <path d="M 24.604626999999937,13.272061000000008 L 23.017626999999948,22.13806100000002" fill="none" instance-id="-1" semantic-id="1" stroke="rgb(178,178,0)" stroke-width="0.1"/>
  <path d="M 23.017626999999948,22.13806100000002 L 24.986627,22.490061000000026" fill="none" instance-id="-1" semantic-id="1" stroke="rgb(178,178,0)" stroke-width="0.1"/>
  <path d="M 24.986627,22.490061000000026 L 26.573626999999988,13.624061000000012" fill="none" instance-id="-1" semantic-id="1" stroke="rgb(178,178,0)" stroke-width="0.1"/>
  <path d="M 39.60762699999998,37.29106100000001 L 43.30762699999991,16.619061000000016" fill="none" instance-id="-1" semantic-id="1" stroke="rgb(178,178,0)" stroke-width="0.1"/>
  <path d="M 41.400626999999986,38.62806100000003 L 45.27662699999996,16.972061000000025" fill="none" instance-id="-1" semantic-id="1" stroke="rgb(178,178,0)" stroke-width="0.1"/>
  <path d="M 0.0,8.842611954544907 L 0.3476269999999886,6.899061000000017" fill="none" instance-id="-1" semantic-id="1" stroke="rgb(178,178,0)" stroke-width="0.1"/>
  <path d="M 0.3476269999999886,6.899061000000017 L 0.0,6.836707173272373" fill="none" instance-id="-1" semantic-id="1" stroke="rgb(178,178,0)" stroke-width="0.1"/>
  <path d="M 24.957627000000002,11.303061000000014 L 18.06562699999995,10.07006100000001" fill="none" instance-id="-1" semantic-id="1" stroke="rgb(178,178,0)" stroke-width="0.1"/>
  <path d="M 18.06562699999995,10.07006100000001 L 17.713626999999974,12.039061000000032" fill="none" instance-id="-1" semantic-id="1" stroke="rgb(178,178,0)" stroke-width="0.1"/>
  <path d="M 17.713626999999974,12.039061000000032 L 24.604626999999937,13.272061000000008" fill="none" instance-id="-1" semantic-id="1" stroke="rgb(178,178,0)" stroke-width="0.1"/>
  <path d="M 36.524626999999896,54.51706100000001 L 35.643626999999924,59.43806100000003" fill="none" instance-id="-1" semantic-id="1" stroke="rgb(178,178,0)" stroke-width="0.1"/>
  <path d="M 38.49362699999995,54.869061000000016 L 37.788626999999906,58.80606100000003" fill="none" instance-id="-1" semantic-id="1" stroke="rgb(178,178,0)" stroke-width="0.1"/>
  <path d="M 44.6446269999999,14.827061000000015 L 76.14362699999992,20.464061000000015" fill="none" instance-id="-1" semantic-id="1" stroke="rgb(178,178,0)" stroke-width="0.1"/>
  <path d="M 45.27662699999996,16.972061000000025 L 75.79162699999995,22.43306100000001" fill="none" instance-id="-1" semantic-id="1" stroke="rgb(178,178,0)" stroke-width="0.1"/>
  <path d="M 76.14362699999992,20.464061000000015 L 75.79162699999995,22.43306100000001" fill="none" instance-id="-1" semantic-id="1" stroke="rgb(178,178,0)" stroke-width="0.1"/>
  <path d="M 19.262626999999952,54.47506100000001 L 19.790626999999972,51.52206100000001" fill="none" instance-id="-1" semantic-id="1" stroke="rgb(178,178,0)" stroke-width="0.1"/>
  <path d="M 19.790626999999972,51.52206100000001 L 17.82162699999992,51.17006100000003" fill="none" instance-id="-1" semantic-id="1" stroke="rgb(178,178,0)" stroke-width="0.1"/>
  <path d="M 17.82162699999992,51.17006100000003 L 16.941626999999926,56.091061000000025" fill="none" instance-id="-1" semantic-id="1" stroke="rgb(178,178,0)" stroke-width="0.1"/>
  <path d="M 20.72862699999996,34.928061000000014 L 19.407626999999934,42.31006100000002" fill="none" instance-id="-1" semantic-id="1" stroke="rgb(178,178,0)" stroke-width="0.1"/>
  <path d="M 19.407626999999934,42.31006100000002 L 21.376626999999985,42.66306100000003" fill="none" instance-id="-1" semantic-id="1" stroke="rgb(178,178,0)" stroke-width="0.1"/>
  <path d="M 21.376626999999985,42.66306100000003 L 22.521626999999967,36.26506100000003" fill="none" instance-id="-1" semantic-id="1" stroke="rgb(178,178,0)" stroke-width="0.1"/>
  <path d="M 35.99662699999999,57.470061000000015 L 39.255627000000004,39.26006100000001" fill="none" instance-id="-1" semantic-id="1" stroke="rgb(178,178,0)" stroke-width="0.1"/>
  <path d="M 37.788626999999906,58.80606100000003 L 41.400626999999986,38.62806100000003" fill="none" instance-id="-1" semantic-id="1" stroke="rgb(178,178,0)" stroke-width="0.1"/>
  <path d="M 27.45462699999996,8.702061000000015 L 76.67262699999992,17.511061000000012" fill="none" instance-id="-1" semantic-id="1" stroke="rgb(178,178,0)" stroke-width="0.1"/>
  <path d="M 27.101627000000008,10.671061000000009 L 76.31962699999997,19.480061000000006" fill="none" instance-id="-1" semantic-id="1" stroke="rgb(178,178,0)" stroke-width="0.1"/>
  <path d="M 76.67262699999992,17.511061000000012 L 76.31962699999997,19.480061000000006" fill="none" instance-id="-1" semantic-id="1" stroke="rgb(178,178,0)" stroke-width="0.1"/>
  <path d="M 27.45462699999996,8.702061000000015 L 29.012420143482245,0.0" fill="none" instance-id="-1" semantic-id="1" stroke="rgb(178,178,0)" stroke-width="0.1"/>
  <path d="M 26.98042480115305,0.0 L 25.309626999999978,9.33406100000002" fill="none" instance-id="-1" semantic-id="1" stroke="rgb(178,178,0)" stroke-width="0.1"/>
  <path d="M 100.0,94.83097948736884 L 99.91662699999995,94.81606100000005" fill="none" instance-id="-1" semantic-id="1" stroke="rgb(178,178,0)" stroke-width="0.1"/>
  <path d="M 99.91662699999995,94.81606100000005 L 99.56462699999997,96.78406100000001" fill="none" instance-id="-1" semantic-id="1" stroke="rgb(178,178,0)" stroke-width="0.1"/>
  <path d="M 99.56462699999997,96.78406100000001 L 100.0,96.86199468364379" fill="none" instance-id="-1" semantic-id="1" stroke="rgb(178,178,0)" stroke-width="0.1"/>
  <path d="M 8.018626999999924,80.40006100000002 L 81.84562699999992,93.61306100000002" fill="none" instance-id="-1" semantic-id="1" stroke="rgb(178,178,0)" stroke-width="0.1"/>
  <path d="M 81.84562699999992,93.61306100000002 L 82.1976269999999,91.64406100000002" fill="none" instance-id="-1" semantic-id="1" stroke="rgb(178,178,0)" stroke-width="0.1"/>
  <path d="M 82.1976269999999,91.64406100000002 L 8.37162699999999,78.43106100000003" fill="none" instance-id="-1" semantic-id="1" stroke="rgb(178,178,0)" stroke-width="0.1"/>
  <path d="M 8.37162699999999,78.43106100000003 L 8.018626999999924,80.40006100000002" fill="none" instance-id="-1" semantic-id="1" stroke="rgb(178,178,0)" stroke-width="0.1"/>
  <path d="M 95.5785195644163,0.0 L 91.95562699999994,20.24706100000003" fill="none" instance-id="-1" semantic-id="1" stroke="rgb(178,178,0)" stroke-width="0.1"/>
  <path d="M 93.50962699999991,0.20706100000001015 L 89.986627,19.894061000000022" fill="none" instance-id="-1" semantic-id="1" stroke="rgb(178,178,0)" stroke-width="0.1"/>
  <path d="M 91.95562699999994,20.24706100000003 L 89.986627,19.894061000000022" fill="none" instance-id="-1" semantic-id="1" stroke="rgb(178,178,0)" stroke-width="0.1"/>
  <path d="M 93.50962699999991,0.20706100000001015 L 92.3526204518256,0.0" fill="none" instance-id="-1" semantic-id="1" stroke="rgb(178,178,0)" stroke-width="0.1"/>
 </g>
 <g id="layers-消火栓" inkscape:groupmode="layer" inkscape:label="s-消火栓">
  <path d="M 57.79162699999995,63.40206100000003 L 57.36962699999992,65.76506100000003" fill="none" stroke="rgb(178,88,0)" stroke-width="0.1"/>
  <path d="M 64.25962699999991,66.998061 L 64.68262699999991,64.63606100000001" fill="none" stroke="rgb(178,88,0)" stroke-width="0.1"/>
  <path d="M 64.68262699999991,64.63606100000001 L 57.79162699999995,63.40206100000003" fill="none" stroke="rgb(178,88,0)" stroke-width="0.1"/>
  <path d="M 64.68262699999991,64.63606100000001 L 57.36962699999992,65.76506100000003" fill="none" stroke="rgb(178,88,0)" stroke-width="0.1"/>
  <path d="M 57.36962699999992,65.76506100000003 L 64.25962699999991,66.998061" fill="none" stroke="rgb(178,88,0)" stroke-width="0.1"/>
  <circle cx="66.24262699999997" cy="66.13406100000003" fill="none" r="0.5" stroke="rgb(178,178,0)" stroke-width="0.1"/>
 </g>
</svg>