<?xml version="1.0" encoding="utf-8"?>
<svg style="background-color: #000;" version="1.1" viewBox="0 0 100.0 100.00000000000006" xmlns="http://www.w3.org/2000/svg" xmlns:inkscape="http://www.inkscape.org/namespaces/inkscape">
 <g id="layer0-结构边线" inkscape:groupmode="layer" inkscape:label="0-结构边线">
  <path d="M 90.0486269999999,95.24406100000004 L 95.95462699999996,96.30106100000006" fill="none" stroke="rgb(178,0,178)" stroke-width="0.1"/>
  <path d="M 95.95462699999996,96.30106100000006 L 97.01162699999998,90.395061" fill="none" stroke="rgb(178,0,178)" stroke-width="0.1"/>
  <path d="M 91.10562699999991,89.33806099999998 L 97.01162699999998,90.395061" fill="none" stroke="rgb(178,0,178)" stroke-width="0.1"/>
  <path d="M 90.0486269999999,95.24406100000004 L 91.10562699999991,89.33806099999998" fill="none" stroke="rgb(178,0,178)" stroke-width="0.1"/>
  <path d="M 7.362626999999975,80.44506100000007 L 13.268626999999924,81.50206099999997" fill="none" stroke="rgb(178,0,178)" stroke-width="0.1"/>
  <path d="M 13.268626999999924,81.50206099999997 L 14.32562699999994,75.59606100000002" fill="none" stroke="rgb(178,0,178)" stroke-width="0.1"/>
  <path d="M 8.419626999999991,74.539061 L 14.32562699999994,75.59606100000002" fill="none" stroke="rgb(178,0,178)" stroke-width="0.1"/>
  <path d="M 7.362626999999975,80.44506100000007 L 8.419626999999991,74.539061" fill="none" stroke="rgb(178,0,178)" stroke-width="0.1"/>
  <path d="M 57.0726269999999,89.342061 L 61.50262699999996,90.13506100000001" fill="none" stroke="rgb(178,0,178)" stroke-width="0.1"/>
  <path d="M 61.50262699999996,90.13506100000001 L 62.55962699999998,84.22906100000006" fill="none" stroke="rgb(178,0,178)" stroke-width="0.1"/>
  <path d="M 58.129626999999914,83.43606100000005 L 62.55962699999998,84.22906100000006" fill="none" stroke="rgb(178,0,178)" stroke-width="0.1"/>
  <path d="M 57.0726269999999,89.342061 L 58.129626999999914,83.43606100000005" fill="none" stroke="rgb(178,0,178)" stroke-width="0.1"/>
 </g>
 <g id="layerA-车位" inkscape:groupmode="layer" inkscape:label="A-车位">
  <path d="M 63.167626999999925,77.99006100000003 L 67.48462699999993,53.873061000000064" fill="none" instance-id="-1" semantic-id="35" stroke="rgb(0,0,178)" stroke-width="0.1"/>
  <path d="M 67.5726269999999,53.38106099999999 L 100.0,59.18479094343053" fill="none" instance-id="-1" semantic-id="35" stroke="rgb(0,0,178)" stroke-width="0.1"/>
  <path d="M 77.37962699999991,58.184060999999986 L 76.49862699999994,63.10606100000001" fill="none" instance-id="-1" semantic-id="35" stroke="rgb(0,0,178)" stroke-width="0.1"/>
  <path d="M 74.91262699999993,71.96506100000005 L 74.03262699999993,76.88706100000007" fill="none" instance-id="-1" semantic-id="35" stroke="rgb(0,0,178)" stroke-width="0.1"/>
  <path d="M 77.87162699999999,58.272061000000065 L 76.9906269999999,63.19406099999998" fill="none" instance-id="-1" semantic-id="35" stroke="rgb(0,0,178)" stroke-width="0.1"/>
  <path d="M 75.40562699999998,72.05306100000001 L 74.5246269999999,76.97506100000004" fill="none" instance-id="-1" semantic-id="35" stroke="rgb(0,0,178)" stroke-width="0.1"/>
  <path d="M 76.39562699999999,58.008061000000055 L 75.5146269999999,62.92906099999999" fill="none" instance-id="-1" semantic-id="35" stroke="rgb(0,0,178)" stroke-width="0.1"/>
  <path d="M 73.928627,71.789061 L 73.04762699999992,76.71006100000005" fill="none" instance-id="-1" semantic-id="35" stroke="rgb(0,0,178)" stroke-width="0.1"/>
  <path d="M 76.39562699999999,58.008061000000055 L 77.87162699999999,58.272061000000065" fill="none" instance-id="-1" semantic-id="35" stroke="rgb(0,0,178)" stroke-width="0.1"/>
  <path d="M 73.04762699999992,76.71006100000005 L 74.5246269999999,76.97506100000004" fill="none" instance-id="-1" semantic-id="35" stroke="rgb(0,0,178)" stroke-width="0.1"/>
  <path d="M 76.9906269999999,63.19406099999998 L 75.5146269999999,62.92906099999999" fill="none" instance-id="-1" semantic-id="35" stroke="rgb(0,0,178)" stroke-width="0.1"/>
  <path d="M 75.40562699999998,72.05306100000001 L 73.928627,71.789061" fill="none" instance-id="-1" semantic-id="35" stroke="rgb(0,0,178)" stroke-width="0.1"/>
  <path d="M 100.0,60.20029076520285 L 67.39662699999997,54.365061000000026" fill="none" instance-id="-1" semantic-id="35" stroke="rgb(0,0,178)" stroke-width="0.1"/>
  <path d="M 67.48462699999993,53.873061000000064 L 71.712627,30.248061000000064" fill="none" instance-id="-1" semantic-id="35" stroke="rgb(0,0,178)" stroke-width="0.1"/>
  <path d="M 71.80062699999996,29.75606099999999 L 100.0,34.803079315855086" fill="none" instance-id="-1" semantic-id="35" stroke="rgb(0,0,178)" stroke-width="0.1"/>
  <path d="M 81.60762699999998,34.559060999999986 L 80.72662700000001,39.48106100000001" fill="none" instance-id="-1" semantic-id="35" stroke="rgb(0,0,178)" stroke-width="0.1"/>
  <path d="M 79.14162699999997,48.34006100000005 L 78.260627,53.262061000000074" fill="none" instance-id="-1" semantic-id="35" stroke="rgb(0,0,178)" stroke-width="0.1"/>
  <path d="M 82.09962699999994,34.647061000000065 L 81.21962699999995,39.56906099999998" fill="none" instance-id="-1" semantic-id="35" stroke="rgb(0,0,178)" stroke-width="0.1"/>
  <path d="M 79.63362699999993,48.428061000000014 L 78.75262699999996,53.35006100000004" fill="none" instance-id="-1" semantic-id="35" stroke="rgb(0,0,178)" stroke-width="0.1"/>
  <path d="M 80.62362699999994,34.383061000000055 L 79.74262699999997,39.30506099999997" fill="none" instance-id="-1" semantic-id="35" stroke="rgb(0,0,178)" stroke-width="0.1"/>
  <path d="M 78.15662699999996,48.164061000000004 L 77.27562699999999,53.08606100000003" fill="none" instance-id="-1" semantic-id="35" stroke="rgb(0,0,178)" stroke-width="0.1"/>
  <path d="M 80.62362699999994,34.383061000000055 L 82.09962699999994,34.647061000000065" fill="none" instance-id="-1" semantic-id="35" stroke="rgb(0,0,178)" stroke-width="0.1"/>
  <path d="M 77.27562699999999,53.08606100000003 L 78.75262699999996,53.35006100000004" fill="none" instance-id="-1" semantic-id="35" stroke="rgb(0,0,178)" stroke-width="0.1"/>
  <path d="M 81.21962699999995,39.56906099999998 L 79.74262699999997,39.30506099999997" fill="none" instance-id="-1" semantic-id="35" stroke="rgb(0,0,178)" stroke-width="0.1"/>
  <path d="M 79.63362699999993,48.428061000000014 L 78.15662699999996,48.164061000000004" fill="none" instance-id="-1" semantic-id="35" stroke="rgb(0,0,178)" stroke-width="0.1"/>
  <path d="M 100.0,35.8195791376275 L 71.62462699999992,30.741061000000002" fill="none" instance-id="-1" semantic-id="35" stroke="rgb(0,0,178)" stroke-width="0.1"/>
  <path d="M 71.712627,30.248061000000064 L 76.02862699999991,6.1320610000000215" fill="none" instance-id="-1" semantic-id="35" stroke="rgb(0,0,178)" stroke-width="0.1"/>
  <path d="M 75.85262699999998,7.116061000000002 L 100.0,11.437867510052058" fill="none" instance-id="-1" semantic-id="35" stroke="rgb(0,0,178)" stroke-width="0.1"/>
  <path d="M 85.83562699999993,10.935061000000076 L 84.95562699999994,15.856061000000011" fill="none" instance-id="-1" semantic-id="35" stroke="rgb(0,0,178)" stroke-width="0.1"/>
  <path d="M 83.36962699999992,24.716061000000025 L 82.48862699999995,29.637061000000074" fill="none" instance-id="-1" semantic-id="35" stroke="rgb(0,0,178)" stroke-width="0.1"/>
  <path d="M 86.32862699999998,11.023061000000041 L 85.4476269999999,15.944060999999977" fill="none" instance-id="-1" semantic-id="35" stroke="rgb(0,0,178)" stroke-width="0.1"/>
  <path d="M 83.861627,24.80406099999999 L 82.98062699999991,29.72506100000004" fill="none" instance-id="-1" semantic-id="35" stroke="rgb(0,0,178)" stroke-width="0.1"/>
  <path d="M 84.85162700000001,10.758061000000055 L 83.97062699999992,15.680060999999966" fill="none" instance-id="-1" semantic-id="35" stroke="rgb(0,0,178)" stroke-width="0.1"/>
  <path d="M 82.385627,24.539061000000004 L 81.50462699999991,29.46106100000003" fill="none" instance-id="-1" semantic-id="35" stroke="rgb(0,0,178)" stroke-width="0.1"/>
  <path d="M 84.85162700000001,10.758061000000055 L 86.32862699999998,11.023061000000041" fill="none" instance-id="-1" semantic-id="35" stroke="rgb(0,0,178)" stroke-width="0.1"/>
  <path d="M 81.50462699999991,29.46106100000003 L 82.98062699999991,29.72506100000004" fill="none" instance-id="-1" semantic-id="35" stroke="rgb(0,0,178)" stroke-width="0.1"/>
  <path d="M 85.4476269999999,15.944060999999977 L 83.97062699999992,15.680060999999966" fill="none" instance-id="-1" semantic-id="35" stroke="rgb(0,0,178)" stroke-width="0.1"/>
  <path d="M 83.861627,24.80406099999999 L 82.385627,24.539061000000004" fill="none" instance-id="-1" semantic-id="35" stroke="rgb(0,0,178)" stroke-width="0.1"/>
  <path d="M 63.255627000000004,77.49806100000006 L 100.0,45.00636552748796" fill="none" instance-id="-1" semantic-id="35" stroke="rgb(0,0,178)" stroke-width="0.1"/>
  <path d="M 76.02862699999991,6.1320610000000215 L 100.0,10.42229122449163" fill="none" instance-id="-1" semantic-id="35" stroke="rgb(0,0,178)" stroke-width="0.1"/>
  <path d="M 63.34362699999997,77.00506100000001 L 100.0,83.56556462091652" fill="none" instance-id="-1" semantic-id="35" stroke="rgb(0,0,178)" stroke-width="0.1"/>
  <path d="M 100.0,84.58206388128468 L 63.167626999999925,77.99006100000003" fill="none" instance-id="-1" semantic-id="35" stroke="rgb(0,0,178)" stroke-width="0.1"/>
  <path d="M 54.14967005593792,100.00000000000006 L 54.23862699999995,99.50306100000006" fill="none" instance-id="-1" semantic-id="35" stroke="rgb(0,0,178)" stroke-width="0.1"/>
  <path d="M 51.34025490400347,100.00000000000006 L 0.0,90.81131318624801" fill="none" instance-id="-1" semantic-id="35" stroke="rgb(0,0,178)" stroke-width="0.1"/>
  <path d="M 3.433370031489403,100.00000000000006 L 0.0,93.6022805483604" fill="none" instance-id="-1" semantic-id="35" stroke="rgb(0,0,178)" stroke-width="0.1"/>
  <path d="M 54.23862699999995,99.50306100000006 L 0.0,89.79484073300188" fill="none" instance-id="-1" semantic-id="35" stroke="rgb(0,0,178)" stroke-width="0.1"/>
  <path d="M 58.55462699999998,75.38606099999998 L 62.8706269999999,51.26906100000002" fill="none" instance-id="-1" semantic-id="35" stroke="rgb(0,0,178)" stroke-width="0.1"/>
  <path d="M 62.95862699999998,50.77706100000006 L 6.850626999999918,40.73506100000003" fill="none" instance-id="-1" semantic-id="35" stroke="rgb(0,0,178)" stroke-width="0.1"/>
  <path d="M 52.094626999999946,51.88106099999999 L 51.213626999999974,56.80206100000004" fill="none" instance-id="-1" semantic-id="35" stroke="rgb(0,0,178)" stroke-width="0.1"/>
  <path d="M 49.62762699999996,65.66206100000005 L 48.747626999999966,70.58306099999999" fill="none" instance-id="-1" semantic-id="35" stroke="rgb(0,0,178)" stroke-width="0.1"/>
  <path d="M 51.602626999999984,51.79206100000005 L 50.7216269999999,56.71406100000007" fill="none" instance-id="-1" semantic-id="35" stroke="rgb(0,0,178)" stroke-width="0.1"/>
  <path d="M 49.135627,65.573061 L 48.254626999999914,70.49506100000002" fill="none" instance-id="-1" semantic-id="35" stroke="rgb(0,0,178)" stroke-width="0.1"/>
  <path d="M 53.07862699999998,52.05706100000003 L 52.1976269999999,56.97906100000006" fill="none" instance-id="-1" semantic-id="35" stroke="rgb(0,0,178)" stroke-width="0.1"/>
  <path d="M 50.612626999999975,65.83806099999998 L 49.731627,70.76006100000001" fill="none" instance-id="-1" semantic-id="35" stroke="rgb(0,0,178)" stroke-width="0.1"/>
  <path d="M 53.07862699999998,52.05706100000003 L 51.602626999999984,51.79206100000005" fill="none" instance-id="-1" semantic-id="35" stroke="rgb(0,0,178)" stroke-width="0.1"/>
  <path d="M 49.731627,70.76006100000001 L 48.254626999999914,70.49506100000002" fill="none" instance-id="-1" semantic-id="35" stroke="rgb(0,0,178)" stroke-width="0.1"/>
  <path d="M 50.7216269999999,56.71406100000007 L 52.1976269999999,56.97906100000006" fill="none" instance-id="-1" semantic-id="35" stroke="rgb(0,0,178)" stroke-width="0.1"/>
  <path d="M 49.135627,65.573061 L 50.612626999999975,65.83806099999998" fill="none" instance-id="-1" semantic-id="35" stroke="rgb(0,0,178)" stroke-width="0.1"/>
  <path d="M 6.674626999999987,41.720061000000044 L 62.782626999999934,51.762061000000074" fill="none" instance-id="-1" semantic-id="35" stroke="rgb(0,0,178)" stroke-width="0.1"/>
  <path d="M 62.8706269999999,51.26906100000002 L 67.09862699999996,27.645061" fill="none" instance-id="-1" semantic-id="35" stroke="rgb(0,0,178)" stroke-width="0.1"/>
  <path d="M 67.18662699999993,27.153061000000037 L 11.078626999999983,17.111061000000007" fill="none" instance-id="-1" semantic-id="35" stroke="rgb(0,0,178)" stroke-width="0.1"/>
  <path d="M 56.3226269999999,28.25606099999999 L 55.441626999999926,33.178061000000014" fill="none" instance-id="-1" semantic-id="35" stroke="rgb(0,0,178)" stroke-width="0.1"/>
  <path d="M 53.856627,42.03706100000005 L 52.97562699999992,46.95906100000008" fill="none" instance-id="-1" semantic-id="35" stroke="rgb(0,0,178)" stroke-width="0.1"/>
  <path d="M 55.830626999999936,28.168061000000023 L 54.949626999999964,33.09006100000005" fill="none" instance-id="-1" semantic-id="35" stroke="rgb(0,0,178)" stroke-width="0.1"/>
  <path d="M 53.36462699999993,41.94906099999997 L 52.483626999999956,46.871061" fill="none" instance-id="-1" semantic-id="35" stroke="rgb(0,0,178)" stroke-width="0.1"/>
  <path d="M 57.30762699999991,28.432061000000033 L 56.42662699999994,33.35406100000006" fill="none" instance-id="-1" semantic-id="35" stroke="rgb(0,0,178)" stroke-width="0.1"/>
  <path d="M 54.84062699999993,42.21306099999998 L 53.959626999999955,47.13506100000001" fill="none" instance-id="-1" semantic-id="35" stroke="rgb(0,0,178)" stroke-width="0.1"/>
  <path d="M 57.30762699999991,28.432061000000033 L 55.830626999999936,28.168061000000023" fill="none" instance-id="-1" semantic-id="35" stroke="rgb(0,0,178)" stroke-width="0.1"/>
  <path d="M 53.959626999999955,47.13506100000001 L 52.483626999999956,46.871061" fill="none" instance-id="-1" semantic-id="35" stroke="rgb(0,0,178)" stroke-width="0.1"/>
  <path d="M 54.949626999999964,33.09006100000005 L 56.42662699999994,33.35406100000006" fill="none" instance-id="-1" semantic-id="35" stroke="rgb(0,0,178)" stroke-width="0.1"/>
  <path d="M 53.36462699999993,41.94906099999997 L 54.84062699999993,42.21306099999998" fill="none" instance-id="-1" semantic-id="35" stroke="rgb(0,0,178)" stroke-width="0.1"/>
  <path d="M 10.902626999999939,18.095061000000044 L 67.010627,28.137061000000074" fill="none" instance-id="-1" semantic-id="35" stroke="rgb(0,0,178)" stroke-width="0.1"/>
  <path d="M 67.09862699999996,27.645061 L 71.41562699999997,3.5280610000000365" fill="none" instance-id="-1" semantic-id="35" stroke="rgb(0,0,178)" stroke-width="0.1"/>
  <path d="M 71.23962699999993,4.512061000000017 L 46.02878945279804,0.0" fill="none" instance-id="-1" semantic-id="35" stroke="rgb(0,0,178)" stroke-width="0.1"/>
  <path d="M 60.55062699999996,4.631061000000045 L 59.67062699999997,9.553061000000014" fill="none" instance-id="-1" semantic-id="35" stroke="rgb(0,0,178)" stroke-width="0.1"/>
  <path d="M 58.084626999999955,18.41206100000005 L 57.20362699999998,23.334061000000077" fill="none" instance-id="-1" semantic-id="35" stroke="rgb(0,0,178)" stroke-width="0.1"/>
  <path d="M 60.058627,4.543061000000023 L 59.177626999999916,9.465061000000048" fill="none" instance-id="-1" semantic-id="35" stroke="rgb(0,0,178)" stroke-width="0.1"/>
  <path d="M 57.59262699999999,18.324060999999972 L 56.71162699999991,23.246060999999997" fill="none" instance-id="-1" semantic-id="35" stroke="rgb(0,0,178)" stroke-width="0.1"/>
  <path d="M 61.53562699999998,4.807061000000033 L 60.654627000000005,9.729061000000058" fill="none" instance-id="-1" semantic-id="35" stroke="rgb(0,0,178)" stroke-width="0.1"/>
  <path d="M 59.06862699999999,18.589061000000072 L 58.18762699999991,23.510061000000007" fill="none" instance-id="-1" semantic-id="35" stroke="rgb(0,0,178)" stroke-width="0.1"/>
  <path d="M 61.53562699999998,4.807061000000033 L 60.058627,4.543061000000023" fill="none" instance-id="-1" semantic-id="35" stroke="rgb(0,0,178)" stroke-width="0.1"/>
  <path d="M 58.18762699999991,23.510061000000007 L 56.71162699999991,23.246060999999997" fill="none" instance-id="-1" semantic-id="35" stroke="rgb(0,0,178)" stroke-width="0.1"/>
  <path d="M 59.177626999999916,9.465061000000048 L 60.654627000000005,9.729061000000058" fill="none" instance-id="-1" semantic-id="35" stroke="rgb(0,0,178)" stroke-width="0.1"/>
  <path d="M 57.59262699999999,18.324060999999972 L 59.06862699999999,18.589061000000072" fill="none" instance-id="-1" semantic-id="35" stroke="rgb(0,0,178)" stroke-width="0.1"/>
  <path d="M 58.64262699999995,74.89406100000002 L 18.450332461663947,0.0" fill="none" instance-id="-1" semantic-id="35" stroke="rgb(0,0,178)" stroke-width="0.1"/>
  <path d="M 71.41562699999997,3.5280610000000365 L 51.70282331059536,0.0" fill="none" instance-id="-1" semantic-id="35" stroke="rgb(0,0,178)" stroke-width="0.1"/>
  <path d="M 58.73062699999991,74.40206100000006 L 2.622626999999966,64.36006100000003" fill="none" instance-id="-1" semantic-id="35" stroke="rgb(0,0,178)" stroke-width="0.1"/>
  <path d="M 2.445626999999945,65.34406100000007 L 58.55462699999998,75.38606099999998" fill="none" instance-id="-1" semantic-id="35" stroke="rgb(0,0,178)" stroke-width="0.1"/>
  <path d="M 76.74862699999994,7.784061000000008 L 74.78062699999998,7.432061000000033" fill="none" instance-id="-1" semantic-id="35" stroke="rgb(0,0,178)" stroke-width="0.1"/>
  <path d="M 74.78062699999998,7.432061000000033 L 75.13262699999996,5.463061000000039" fill="none" instance-id="-1" semantic-id="35" stroke="rgb(0,0,178)" stroke-width="0.1"/>
  <path d="M 75.13262699999996,5.463061000000039 L 77.10162700000001,5.816061000000047" fill="none" instance-id="-1" semantic-id="35" stroke="rgb(0,0,178)" stroke-width="0.1"/>
  <path d="M 77.10162700000001,5.816061000000047 L 76.74862699999994,7.784061000000008" fill="none" instance-id="-1" semantic-id="35" stroke="rgb(0,0,178)" stroke-width="0.1"/>
  <path d="M 72.52062699999999,31.40906100000001 L 70.55162699999994,31.057061000000033" fill="none" instance-id="-1" semantic-id="35" stroke="rgb(0,0,178)" stroke-width="0.1"/>
  <path d="M 70.55162699999994,31.057061000000033 L 70.904627,29.088060999999982" fill="none" instance-id="-1" semantic-id="35" stroke="rgb(0,0,178)" stroke-width="0.1"/>
  <path d="M 70.904627,29.088060999999982 L 72.87262699999997,29.44006100000007" fill="none" instance-id="-1" semantic-id="35" stroke="rgb(0,0,178)" stroke-width="0.1"/>
  <path d="M 72.87262699999997,29.44006100000007 L 72.52062699999999,31.40906100000001" fill="none" instance-id="-1" semantic-id="35" stroke="rgb(0,0,178)" stroke-width="0.1"/>
  <path d="M 68.29262699999992,55.03406100000001 L 66.32362699999999,54.68106100000006" fill="none" instance-id="-1" semantic-id="35" stroke="rgb(0,0,178)" stroke-width="0.1"/>
  <path d="M 66.32362699999999,54.68106100000006 L 66.67562699999996,52.712061000000006" fill="none" instance-id="-1" semantic-id="35" stroke="rgb(0,0,178)" stroke-width="0.1"/>
  <path d="M 66.67562699999996,52.712061000000006 L 68.6446269999999,53.06506100000007" fill="none" instance-id="-1" semantic-id="35" stroke="rgb(0,0,178)" stroke-width="0.1"/>
  <path d="M 68.6446269999999,53.06506100000007 L 68.29262699999992,55.03406100000001" fill="none" instance-id="-1" semantic-id="35" stroke="rgb(0,0,178)" stroke-width="0.1"/>
  <path d="M 64.06462699999997,78.65806100000003 L 62.09562699999992,78.30606100000006" fill="none" instance-id="-1" semantic-id="35" stroke="rgb(0,0,178)" stroke-width="0.1"/>
  <path d="M 62.09562699999992,78.30606100000006 L 62.4476269999999,76.337061" fill="none" instance-id="-1" semantic-id="35" stroke="rgb(0,0,178)" stroke-width="0.1"/>
  <path d="M 62.4476269999999,76.337061 L 64.41662699999995,76.68906099999998" fill="none" instance-id="-1" semantic-id="35" stroke="rgb(0,0,178)" stroke-width="0.1"/>
  <path d="M 64.41662699999995,76.68906099999998 L 64.06462699999997,78.65806100000003" fill="none" instance-id="-1" semantic-id="35" stroke="rgb(0,0,178)" stroke-width="0.1"/>
  <path d="M 59.22815187150832,100.00000000000006 L 59.247626999999966,99.89106099999998" fill="none" instance-id="-1" semantic-id="35" stroke="rgb(0,0,178)" stroke-width="0.1"/>
  <path d="M 59.247626999999966,99.89106099999998 L 59.85527824929204,100.00000000000006" fill="none" instance-id="-1" semantic-id="35" stroke="rgb(0,0,178)" stroke-width="0.1"/>
  <path d="M 55.165223276422694,100.00000000000006 L 55.310626999999954,99.18706100000003" fill="none" instance-id="-1" semantic-id="35" stroke="rgb(0,0,178)" stroke-width="0.1"/>
  <path d="M 55.310626999999954,99.18706100000003 L 53.3416269999999,98.83406100000008" fill="none" instance-id="-1" semantic-id="35" stroke="rgb(0,0,178)" stroke-width="0.1"/>
  <path d="M 53.3416269999999,98.83406100000008 L 53.1331909776535,100.00000000000006" fill="none" instance-id="-1" semantic-id="35" stroke="rgb(0,0,178)" stroke-width="0.1"/>
  <path d="M 70.16662699999995,4.828061000000048 L 72.135627,5.181061" fill="none" instance-id="-1" semantic-id="35" stroke="rgb(0,0,178)" stroke-width="0.1"/>
  <path d="M 72.135627,5.181061 L 72.48762699999997,3.2120610000000056" fill="none" instance-id="-1" semantic-id="35" stroke="rgb(0,0,178)" stroke-width="0.1"/>
  <path d="M 72.48762699999997,3.2120610000000056 L 70.51862699999992,2.86006100000003" fill="none" instance-id="-1" semantic-id="35" stroke="rgb(0,0,178)" stroke-width="0.1"/>
  <path d="M 70.51862699999992,2.86006100000003 L 70.16662699999995,4.828061000000048" fill="none" instance-id="-1" semantic-id="35" stroke="rgb(0,0,178)" stroke-width="0.1"/>
  <path d="M 65.938627,28.45306099999999 L 67.90762699999993,28.805060999999966" fill="none" instance-id="-1" semantic-id="35" stroke="rgb(0,0,178)" stroke-width="0.1"/>
  <path d="M 67.90762699999993,28.805060999999966 L 68.25962699999991,26.837061000000006" fill="none" instance-id="-1" semantic-id="35" stroke="rgb(0,0,178)" stroke-width="0.1"/>
  <path d="M 68.25962699999991,26.837061000000006 L 66.29062699999997,26.484061000000054" fill="none" instance-id="-1" semantic-id="35" stroke="rgb(0,0,178)" stroke-width="0.1"/>
  <path d="M 66.29062699999997,26.484061000000054 L 65.938627,28.45306099999999" fill="none" instance-id="-1" semantic-id="35" stroke="rgb(0,0,178)" stroke-width="0.1"/>
  <path d="M 61.71062699999993,52.07806099999999 L 63.678627000000006,52.43006099999997" fill="none" instance-id="-1" semantic-id="35" stroke="rgb(0,0,178)" stroke-width="0.1"/>
  <path d="M 63.678627000000006,52.43006099999997 L 64.03162699999996,50.46106100000003" fill="none" instance-id="-1" semantic-id="35" stroke="rgb(0,0,178)" stroke-width="0.1"/>
  <path d="M 64.03162699999996,50.46106100000003 L 62.06262699999991,50.109061000000054" fill="none" instance-id="-1" semantic-id="35" stroke="rgb(0,0,178)" stroke-width="0.1"/>
  <path d="M 62.06262699999991,50.109061000000054 L 61.71062699999993,52.07806099999999" fill="none" instance-id="-1" semantic-id="35" stroke="rgb(0,0,178)" stroke-width="0.1"/>
  <path d="M 57.481627,75.70206100000001 L 59.45062699999994,76.05506099999997" fill="none" instance-id="-1" semantic-id="35" stroke="rgb(0,0,178)" stroke-width="0.1"/>
  <path d="M 59.45062699999994,76.05506099999997 L 59.802626999999916,74.08606100000003" fill="none" instance-id="-1" semantic-id="35" stroke="rgb(0,0,178)" stroke-width="0.1"/>
  <path d="M 59.802626999999916,74.08606100000003 L 57.834626999999955,73.73406100000005" fill="none" instance-id="-1" semantic-id="35" stroke="rgb(0,0,178)" stroke-width="0.1"/>
  <path d="M 57.834626999999955,73.73406100000005 L 57.481627,75.70206100000001" fill="none" instance-id="-1" semantic-id="35" stroke="rgb(0,0,178)" stroke-width="0.1"/>
 </g>
 <g id="layerA-车位-text" inkscape:groupmode="layer" inkscape:label="A-车位-text">
  <text fill="rgb(178,88,0)" font-family="Noto Sans CJK SC" font-size="2" transform="rotate(-349.853,22.07562699999994,40.07906099999997)" x="22.07562699999994" y="40.07906099999997">
   B-066-070
  </text>
  <text fill="rgb(178,88,0)" font-family="Noto Sans CJK SC" font-size="2" transform="rotate(-349.853,84.27362699999992,49.10306099999997)" x="84.27362699999992" y="49.10306099999997">
   B-081-085
  </text>
 </g>
 <g id="layerCOLUMN" inkscape:groupmode="layer" inkscape:label="COLUMN">
  <path d="M 97.11489458939081,0.0 L 100.0,0.5164172971515768" fill="none" instance-id="-1" semantic-id="1" stroke="rgb(178,178,0)" stroke-width="0.1"/>
  <path d="M 58.129626999999914,83.43606100000005 L 73.06261812950527,0.0" fill="none" instance-id="-1" semantic-id="1" stroke="rgb(178,178,0)" stroke-width="0.1"/>
  <path d="M 61.082627,83.96406100000007 L 76.11060965526724,0.0" fill="none" instance-id="-1" semantic-id="1" stroke="rgb(178,178,0)" stroke-width="0.1"/>
  <path d="M 55.16510056413142,100.00000000000006 L 57.0726269999999,89.342061" fill="none" instance-id="-1" semantic-id="1" stroke="rgb(178,178,0)" stroke-width="0.1"/>
  <path d="M 58.21262113856858,100.00000000000006 L 60.025626999999986,89.87006100000002" fill="none" instance-id="-1" semantic-id="1" stroke="rgb(178,178,0)" stroke-width="0.1"/>
  <path d="M 57.0726269999999,89.342061 L 61.50262699999996,90.13506100000001" fill="none" instance-id="-1" semantic-id="1" stroke="rgb(178,178,0)" stroke-width="0.1"/>
  <path d="M 61.50262699999996,90.13506100000001 L 62.55962699999998,84.22906100000006" fill="none" instance-id="-1" semantic-id="1" stroke="rgb(178,178,0)" stroke-width="0.1"/>
  <path d="M 62.55962699999998,84.22906100000006 L 58.129626999999914,83.43606100000005" fill="none" instance-id="-1" semantic-id="1" stroke="rgb(178,178,0)" stroke-width="0.1"/>
  <path d="M 58.129626999999914,83.43606100000005 L 57.0726269999999,89.342061" fill="none" instance-id="-1" semantic-id="1" stroke="rgb(178,178,0)" stroke-width="0.1"/>
  <path d="M 90.0486269999999,95.24406100000004 L 95.95462699999996,96.30106100000006" fill="none" instance-id="-1" semantic-id="1" stroke="rgb(178,178,0)" stroke-width="0.1"/>
  <path d="M 95.95462699999996,96.30106100000006 L 97.01162699999998,90.395061" fill="none" instance-id="-1" semantic-id="1" stroke="rgb(178,178,0)" stroke-width="0.1"/>
  <path d="M 97.01162699999998,90.395061 L 91.10562699999991,89.33806099999998" fill="none" instance-id="-1" semantic-id="1" stroke="rgb(178,178,0)" stroke-width="0.1"/>
  <path d="M 91.10562699999991,89.33806099999998 L 90.0486269999999,95.24406100000004" fill="none" instance-id="-1" semantic-id="1" stroke="rgb(178,178,0)" stroke-width="0.1"/>
  <path d="M 7.362626999999975,80.44506100000007 L 13.268626999999924,81.50206099999997" fill="none" instance-id="-1" semantic-id="1" stroke="rgb(178,178,0)" stroke-width="0.1"/>
  <path d="M 13.268626999999924,81.50206099999997 L 14.32562699999994,75.59606100000002" fill="none" instance-id="-1" semantic-id="1" stroke="rgb(178,178,0)" stroke-width="0.1"/>
  <path d="M 14.32562699999994,75.59606100000002 L 8.419626999999991,74.539061" fill="none" instance-id="-1" semantic-id="1" stroke="rgb(178,178,0)" stroke-width="0.1"/>
  <path d="M 8.419626999999991,74.539061 L 7.362626999999975,80.44506100000007" fill="none" instance-id="-1" semantic-id="1" stroke="rgb(178,178,0)" stroke-width="0.1"/>
 </g>
 <g id="layerDIM_LEAD" inkscape:groupmode="layer" inkscape:label="DIM_LEAD">
  <path d="M 52.837627,86.95506100000006 L 39.09639865144686,100.00000000000006" fill="none" stroke="rgb(0,178,0)" stroke-width="0.1"/>
  <path d="M 67.55162699999994,93.140061 L 69.3851444189628,100.00000000000006" fill="none" stroke="rgb(0,178,0)" stroke-width="0.1"/>
  <path d="M 53.088626999999974,86.79006099999998 A 0.30037643050016993,0.30037643050016993 0.0 1,0 52.58662699999991,87.12006100000002" fill="none" stroke="rgb(0,178,0)" stroke-width="0.1"/>
  <path d="M 52.58662699999991,87.12006100000002 A 0.30037643050016993,0.30037643050016993 0.0 1,0 53.088626999999974,86.79006099999998" fill="none" stroke="rgb(0,178,0)" stroke-width="0.1"/>
  <path d="M 67.52662699999996,92.84106100000002 A 0.30008540451009624,0.30008540451009624 0.0 0,0 67.577627,93.43906099999998" fill="none" stroke="rgb(0,178,0)" stroke-width="0.1"/>
  <path d="M 67.577627,93.43906099999998 A 0.30008540451009624,0.30008540451009624 0.0 1,0 67.52662699999996,92.84106100000002" fill="none" stroke="rgb(0,178,0)" stroke-width="0.1"/>
 </g>
 <g id="layerPUB_HATCH" inkscape:groupmode="layer" inkscape:label="PUB_HATCH">
  <path d="M 97.11489458939081,0.0 L 100.0,0.5164172971515768" fill="none" instance-id="-1" semantic-id="1" stroke="rgb(63,63,63)" stroke-width="0.1"/>
  <path d="M 58.129626999999914,83.43606100000005 L 61.082627,83.96406100000007" fill="none" instance-id="-1" semantic-id="1" stroke="rgb(63,63,63)" stroke-width="0.1"/>
  <path d="M 61.082627,83.96406100000007 L 76.11060965526724,0.0" fill="none" instance-id="-1" semantic-id="1" stroke="rgb(63,63,63)" stroke-width="0.1"/>
  <path d="M 73.06261812950527,0.0 L 58.129626999999914,83.43606100000005" fill="none" instance-id="-1" semantic-id="1" stroke="rgb(63,63,63)" stroke-width="0.1"/>
  <path d="M 57.0726269999999,89.342061 L 55.16510056413142,100.00000000000006" fill="none" instance-id="-1" semantic-id="1" stroke="rgb(63,63,63)" stroke-width="0.1"/>
  <path d="M 58.21262113856858,100.00000000000006 L 60.025626999999986,89.87006100000002" fill="none" instance-id="-1" semantic-id="1" stroke="rgb(63,63,63)" stroke-width="0.1"/>
  <path d="M 60.025626999999986,89.87006100000002 L 57.0726269999999,89.342061" fill="none" instance-id="-1" semantic-id="1" stroke="rgb(63,63,63)" stroke-width="0.1"/>
 </g>
 <g id="layerS-JSJ" inkscape:groupmode="layer" inkscape:label="S-JSJ">
  <path d="M 71.41885654894486,100.00000000000006 L 71.7646269999999,98.068061" fill="none" stroke="rgb(0,133,178)" stroke-width="0.1"/>
  <path d="M 68.3713546619457,100.00000000000006 L 68.81162699999993,97.54006099999998" fill="none" stroke="rgb(0,133,178)" stroke-width="0.1"/>
  <path d="M 54.14951642840924,100.00000000000006 L 72.04720974740053,0.0" fill="none" stroke="rgb(0,133,178)" stroke-width="0.1"/>
  <path d="M 51.10116212841319,100.00000000000006 L 52.07762700000001,94.544061" fill="none" stroke="rgb(0,133,178)" stroke-width="0.1"/>
  <path d="M 55.24862699999994,76.82606100000004 L 68.99950138582994,0.0" fill="none" stroke="rgb(0,133,178)" stroke-width="0.1"/>
  <path d="M 71.98262699999998,79.82106100000004 L 86.26897708938577,0.0" fill="none" stroke="rgb(0,133,178)" stroke-width="0.1"/>
  <path d="M 74.93662699999993,80.35006100000004 L 89.31667390144673,0.0" fill="none" stroke="rgb(0,133,178)" stroke-width="0.1"/>
  <path d="M 46.181626999999935,76.40406100000001 L 46.42062699999997,76.16506099999998" fill="none" stroke="rgb(0,133,178)" stroke-width="0.1"/>
  <path d="M 45.6926269999999,79.13806100000005 L 46.49262699999997,78.33806099999998" fill="none" stroke="rgb(0,133,178)" stroke-width="0.1"/>
  <path d="M 45.20262700000001,81.87306100000006 L 46.56462699999997,80.51106099999998" fill="none" stroke="rgb(0,133,178)" stroke-width="0.1"/>
  <path d="M 44.713626999999974,84.60706099999999 L 46.636626999999976,82.68406099999999" fill="none" stroke="rgb(0,133,178)" stroke-width="0.1"/>
  <path d="M 44.223626999999965,87.342061 L 46.70862699999998,84.85706099999999" fill="none" stroke="rgb(0,133,178)" stroke-width="0.1"/>
  <path d="M 43.73462699999993,90.07606100000004 L 46.78062699999998,87.03006099999999" fill="none" stroke="rgb(0,133,178)" stroke-width="0.1"/>
  <path d="M 43.2456269999999,92.81106100000005 L 46.852626999999984,89.20306099999999" fill="none" stroke="rgb(0,133,178)" stroke-width="0.1"/>
  <path d="M 45.02062699999999,93.28106099999997 L 47.534627,90.76606099999998" fill="none" stroke="rgb(0,133,178)" stroke-width="0.1"/>
  <path d="M 46.92462699999999,93.621061 L 48.96062699999993,91.58506100000005" fill="none" stroke="rgb(0,133,178)" stroke-width="0.1"/>
  <path d="M 48.82862699999998,93.962061 L 50.386626999999976,92.40406100000001" fill="none" stroke="rgb(0,133,178)" stroke-width="0.1"/>
  <path d="M 50.73262699999998,94.30306100000001 L 51.81262699999991,93.22306099999997" fill="none" stroke="rgb(0,133,178)" stroke-width="0.1"/>
  <path d="M 52.63762699999995,94.64406100000002 L 53.23862699999995,94.04306100000002" fill="none" stroke="rgb(0,133,178)" stroke-width="0.1"/>
  <path d="M 54.54162699999995,94.98506100000003 L 54.664626999999996,94.86206099999998" fill="none" stroke="rgb(0,133,178)" stroke-width="0.1"/>
  <path d="M 64.178627,80.85806099999996 L 64.66262699999993,80.37406100000004" fill="none" stroke="rgb(0,133,178)" stroke-width="0.1"/>
  <path d="M 63.688627,83.592061 L 64.73462699999993,82.54706100000004" fill="none" stroke="rgb(0,133,178)" stroke-width="0.1"/>
  <path d="M 63.199626999999964,86.32606100000004 L 64.80662699999993,84.72006100000004" fill="none" stroke="rgb(0,133,178)" stroke-width="0.1"/>
  <path d="M 62.71062699999993,89.06106100000005 L 64.87862699999994,86.89306100000005" fill="none" stroke="rgb(0,133,178)" stroke-width="0.1"/>
  <path d="M 62.22062699999992,91.79506099999998 L 64.95062699999994,89.06606100000005" fill="none" stroke="rgb(0,133,178)" stroke-width="0.1"/>
  <path d="M 61.731627,94.53006099999999 L 65.02262699999994,91.23906100000005" fill="none" stroke="rgb(0,133,178)" stroke-width="0.1"/>
  <path d="M 62.157626999999934,96.34906100000006 L 65.09462699999995,93.41206100000005" fill="none" stroke="rgb(0,133,178)" stroke-width="0.1"/>
  <path d="M 64.06162699999993,96.69006100000007 L 66.36762699999997,94.38406100000003" fill="none" stroke="rgb(0,133,178)" stroke-width="0.1"/>
  <path d="M 65.96562699999993,97.03106099999997 L 67.7936269999999,95.20306099999999" fill="none" stroke="rgb(0,133,178)" stroke-width="0.1"/>
  <path d="M 67.8706269999999,97.371061 L 69.21962699999995,96.02206100000006" fill="none" stroke="rgb(0,133,178)" stroke-width="0.1"/>
  <path d="M 69.7746269999999,97.712061 L 70.64562699999999,96.84106100000002" fill="none" stroke="rgb(0,133,178)" stroke-width="0.1"/>
  <path d="M 71.678627,98.05306100000001 L 72.07162699999992,97.66006099999998" fill="none" stroke="rgb(0,133,178)" stroke-width="0.1"/>
  <path d="M 55.03062699999998,95.07206100000002 L 58.20262700000001,77.35406100000006" fill="none" stroke="rgb(0,133,178)" stroke-width="0.1"/>
  <path d="M 58.20262700000001,77.35406100000006 L 46.389626999999905,75.24006100000003" fill="none" stroke="rgb(0,133,178)" stroke-width="0.1"/>
  <path d="M 46.389626999999905,75.24006100000003 L 43.21862699999997,92.95806099999999" fill="none" stroke="rgb(0,133,178)" stroke-width="0.1"/>
  <path d="M 43.21862699999997,92.95806099999999 L 55.03062699999998,95.07206100000002" fill="none" stroke="rgb(0,133,178)" stroke-width="0.1"/>
  <path d="M 55.03062699999998,95.07206100000002 L 46.89162699999997,90.39706100000006" fill="none" stroke="rgb(0,133,178)" stroke-width="0.1"/>
  <path d="M 46.89162699999997,90.39706100000006 L 46.389626999999905,75.24006100000003" fill="none" stroke="rgb(0,133,178)" stroke-width="0.1"/>
  <path d="M 73.241627,98.33306099999999 L 76.41262699999993,80.61406100000005" fill="none" stroke="rgb(0,133,178)" stroke-width="0.1"/>
  <path d="M 76.41262699999993,80.61406100000005 L 64.60062699999992,78.50006100000002" fill="none" stroke="rgb(0,133,178)" stroke-width="0.1"/>
  <path d="M 64.60062699999992,78.50006100000002 L 61.42962699999998,96.21906100000007" fill="none" stroke="rgb(0,133,178)" stroke-width="0.1"/>
  <path d="M 61.42962699999998,96.21906100000007 L 73.241627,98.33306099999999" fill="none" stroke="rgb(0,133,178)" stroke-width="0.1"/>
  <path d="M 73.241627,98.33306099999999 L 65.10262699999998,93.65706100000006" fill="none" stroke="rgb(0,133,178)" stroke-width="0.1"/>
  <path d="M 65.10262699999998,93.65706100000006 L 64.60062699999992,78.50006100000002" fill="none" stroke="rgb(0,133,178)" stroke-width="0.1"/>
  <path d="M 46.389626999999905,75.24006100000003 L 43.21862699999997,92.95806099999999" fill="none" stroke="rgb(0,133,178)" stroke-width="0.1"/>
  <path d="M 43.21862699999997,92.95806099999999 L 55.03062699999998,95.07206100000002" fill="none" stroke="rgb(0,133,178)" stroke-width="0.1"/>
  <path d="M 55.03062699999998,95.07206100000002 L 46.89162699999997,90.39706100000006" fill="none" stroke="rgb(0,133,178)" stroke-width="0.1"/>
  <path d="M 46.89162699999997,90.39706100000006 L 46.389626999999905,75.24006100000003" fill="none" stroke="rgb(0,133,178)" stroke-width="0.1"/>
  <path d="M 64.60062699999992,78.50006100000002 L 61.42962699999998,96.21906100000007" fill="none" stroke="rgb(0,133,178)" stroke-width="0.1"/>
  <path d="M 61.42962699999998,96.21906100000007 L 73.241627,98.33306099999999" fill="none" stroke="rgb(0,133,178)" stroke-width="0.1"/>
  <path d="M 73.241627,98.33306099999999 L 65.10262699999998,93.65706100000006" fill="none" stroke="rgb(0,133,178)" stroke-width="0.1"/>
  <path d="M 65.10262699999998,93.65706100000006 L 64.60062699999992,78.50006100000002" fill="none" stroke="rgb(0,133,178)" stroke-width="0.1"/>
 </g>
</svg>