<?xml version="1.0" encoding="utf-8"?>
<svg style="background-color: #000;" version="1.1" viewBox="0 0 100.0 100.0" xmlns="http://www.w3.org/2000/svg" xmlns:inkscape="http://www.inkscape.org/namespaces/inkscape">
 <g id="layer0-结构边线" inkscape:groupmode="layer" inkscape:label="0-结构边线">
  <path d="M 44.91662699999995,15.123061000000007 L 50.822626999999954,16.18006099999991" fill="none" stroke="rgb(178,0,178)" stroke-width="0.1"/>
  <path d="M 50.822626999999954,16.18006099999991 L 52.056626999999935,9.290060999999923" fill="none" stroke="rgb(178,0,178)" stroke-width="0.1"/>
  <path d="M 46.15062699999993,8.233060999999907 L 52.056626999999935,9.290060999999923" fill="none" stroke="rgb(178,0,178)" stroke-width="0.1"/>
  <path d="M 44.91662699999995,15.123061000000007 L 46.15062699999993,8.233060999999907" fill="none" stroke="rgb(178,0,178)" stroke-width="0.1"/>
  <path d="M 67.82190322830184,100.0 L 68.26462699999996,97.52606099999991" fill="none" stroke="rgb(178,0,178)" stroke-width="0.1"/>
  <path d="M 63.342626999999936,96.64506099999994 L 68.26462699999996,97.52606099999991" fill="none" stroke="rgb(178,0,178)" stroke-width="0.1"/>
  <path d="M 62.742243866908495,100.0 L 63.342626999999936,96.64506099999994" fill="none" stroke="rgb(178,0,178)" stroke-width="0.1"/>
 </g>
 <g id="layerA-车位-lx" inkscape:groupmode="layer" inkscape:label="A-车位-lx">
  <path d="M 19.182840418014337,100.0 L 0.0,1.2579451034138174" fill="none" stroke="rgb(0,178,0)" stroke-width="0.1"/>
  <path d="M 2.7716269999999668,62.86006099999997 L 10.772626999999943,56.70806099999993" fill="none" stroke="rgb(0,178,0)" stroke-width="0.1"/>
  <path d="M 10.772626999999943,56.70806099999993 L 20.494626999999923,59.41706099999999" fill="none" stroke="rgb(0,178,0)" stroke-width="0.1"/>
  <path d="M 3.2016269999999736,65.07606099999998 L 11.20262699999995,58.92306099999996" fill="none" stroke="rgb(0,178,0)" stroke-width="0.1"/>
  <path d="M 11.20262699999995,58.92306099999996 L 20.925626999999963,61.633061" fill="none" stroke="rgb(0,178,0)" stroke-width="0.1"/>
  <path d="M 3.2016269999999736,65.07606099999998 L 2.7716269999999668,62.86006099999997" fill="none" stroke="rgb(0,178,0)" stroke-width="0.1"/>
  <path d="M 20.925626999999963,61.633061 L 20.494626999999923,59.41706099999999" fill="none" stroke="rgb(0,178,0)" stroke-width="0.1"/>
  <path d="M 18.151626999999962,94.69206099999997 L 18.24876347924726,95.18330316949425" fill="none" stroke="rgb(0,178,0)" stroke-width="0.1"/>
  <path d="M 18.24876347924726,95.18330316949425 L 18.349177660200894,95.6738858403595" fill="none" stroke="rgb(0,178,0)" stroke-width="0.1"/>
  <path d="M 18.349177660200894,95.6738858403595 L 18.45286506654196,96.1637871431301" fill="none" stroke="rgb(0,178,0)" stroke-width="0.1"/>
  <path d="M 18.45286506654196,96.1637871431301 L 18.55982107603586,96.65298523871411" fill="none" stroke="rgb(0,178,0)" stroke-width="0.1"/>
  <path d="M 18.55982107603586,96.65298523871411 L 18.670040920738302,97.14145831936821" fill="none" stroke="rgb(0,178,0)" stroke-width="0.1"/>
  <path d="M 18.670040920738302,97.14145831936821 L 18.78351968720807,97.62918460966898" fill="none" stroke="rgb(0,178,0)" stroke-width="0.1"/>
  <path d="M 18.78351968720807,97.62918460966898 L 18.90025231672587,98.11614236748358" fill="none" stroke="rgb(0,178,0)" stroke-width="0.1"/>
  <path d="M 18.90025231672587,98.11614236748358 L 19.020233605519934,98.60230988493947" fill="none" stroke="rgb(0,178,0)" stroke-width="0.1"/>
  <path d="M 19.020233605519934,98.60230988493947 L 19.1434582049979,99.08766548939195" fill="none" stroke="rgb(0,178,0)" stroke-width="0.1"/>
  <path d="M 19.1434582049979,99.08766548939195 L 19.269920621985307,99.57218754439009" fill="none" stroke="rgb(0,178,0)" stroke-width="0.1"/>
  <path d="M 99.25077205520256,99.58656916950758 L 99.3670947397627,99.09848825362985" fill="none" stroke="rgb(0,178,0)" stroke-width="0.1"/>
  <path d="M 99.3670947397627,99.09848825362985 L 99.48014957244072,98.60964006431595" fill="none" stroke="rgb(0,178,0)" stroke-width="0.1"/>
  <path d="M 99.48014957244072,98.60964006431595 L 99.58993149332554,98.12004648058132" fill="none" stroke="rgb(0,178,0)" stroke-width="0.1"/>
  <path d="M 99.58993149332554,98.12004648058132 L 99.69643558898917,97.62972941480234" fill="none" stroke="rgb(0,178,0)" stroke-width="0.1"/>
  <path d="M 99.69643558898917,97.62972941480234 L 99.79965709270698,97.13871081173568" fill="none" stroke="rgb(0,178,0)" stroke-width="0.1"/>
  <path d="M 99.79965709270698,97.13871081173568 L 99.89959138467077,96.64701264753626" fill="none" stroke="rgb(0,178,0)" stroke-width="0.1"/>
  <path d="M 99.89959138467077,96.64701264753626 L 99.99623399219558,96.15465692877376" fill="none" stroke="rgb(0,178,0)" stroke-width="0.1"/>
 </g>
 <g id="layerCOLUMN" inkscape:groupmode="layer" inkscape:label="COLUMN">
  <path d="M 44.91662699999995,15.123061000000007 L 50.822626999999954,16.18006099999991" fill="none" stroke="rgb(178,178,0)" stroke-width="0.1"/>
  <path d="M 50.822626999999954,16.18006099999991 L 52.056626999999935,9.290060999999923" fill="none" stroke="rgb(178,178,0)" stroke-width="0.1"/>
  <path d="M 52.056626999999935,9.290060999999923 L 46.15062699999993,8.233060999999907" fill="none" stroke="rgb(178,178,0)" stroke-width="0.1"/>
  <path d="M 46.15062699999993,8.233060999999907 L 44.91662699999995,15.123061000000007" fill="none" stroke="rgb(178,178,0)" stroke-width="0.1"/>
  <path d="M 67.82190322830184,100.0 L 68.26462699999996,97.52606099999991" fill="none" stroke="rgb(178,178,0)" stroke-width="0.1"/>
  <path d="M 68.26462699999996,97.52606099999991 L 63.342626999999936,96.64506099999994" fill="none" stroke="rgb(178,178,0)" stroke-width="0.1"/>
  <path d="M 63.342626999999936,96.64506099999994 L 62.742243866908495,100.0" fill="none" stroke="rgb(178,178,0)" stroke-width="0.1"/>
 </g>
 <g id="layerDIM_ELEV" inkscape:groupmode="layer" inkscape:label="DIM_ELEV">
  <path d="M 15.795626999999968,82.56406099999992 L 12.158626999999967,77.34106099999997" fill="none" stroke="rgb(0,178,0)" stroke-width="0.1"/>
  <path d="M 15.795626999999968,82.56406099999992 L 21.017626999999948,78.92706099999998" fill="none" stroke="rgb(0,178,0)" stroke-width="0.1"/>
  <path d="M 12.158626999999967,77.34106099999997 L 41.40162699999996,82.575061" fill="none" stroke="rgb(0,178,0)" stroke-width="0.1"/>
 </g>
 <g id="layerDIM_LEAD" inkscape:groupmode="layer" inkscape:label="DIM_LEAD">
  <path d="M 84.27462699999995,51.52806099999998 L 82.42162699999994,75.02206100000001" fill="none" stroke="rgb(0,178,0)" stroke-width="0.1"/>
  <path d="M 82.42162699999994,75.02206100000001 L 100.0,78.16793544864072" fill="none" stroke="rgb(0,178,0)" stroke-width="0.1"/>
  <path d="M 78.18262699999997,35.29906099999994 L 72.13162699999992,26.71906100000001" fill="none" stroke="rgb(0,178,0)" stroke-width="0.1"/>
  <path d="M 72.13162699999992,26.71906100000001 L 49.83162699999997,22.72806099999991" fill="none" stroke="rgb(0,178,0)" stroke-width="0.1"/>
  <path d="M 84.35062699999997,51.238061000000016 A 0.3,0.3 0.0 1,0 84.19862699999993,51.81806099999994" fill="none" stroke="rgb(0,178,0)" stroke-width="0.1"/>
  <path d="M 84.19862699999993,51.81806099999994 A 0.3,0.3 0.0 1,0 84.35062699999997,51.238061000000016" fill="none" stroke="rgb(0,178,0)" stroke-width="0.1"/>
 </g>
 <g id="layerDOOR_FIRE" inkscape:groupmode="layer" inkscape:label="DOOR_FIRE">
  <path d="M 75.48862699999995,57.16606100000001 L 77.07362699999993,48.307060999999976" fill="none" instance-id="2" semantic-id="3" stroke="rgb(0,178,178)" stroke-width="0.1"/>
  <path d="M 73.51962699999996,56.814060999999924 L 75.10462699999994,47.955061" fill="none" instance-id="2" semantic-id="3" stroke="rgb(0,178,178)" stroke-width="0.1"/>
  <path d="M 69.76262699999995,89.15906099999995 L 71.34762699999993,80.29906099999994" fill="none" instance-id="1" semantic-id="3" stroke="rgb(0,178,178)" stroke-width="0.1"/>
  <path d="M 67.79362699999996,88.806061 L 69.37962699999997,79.94706099999996" fill="none" instance-id="1" semantic-id="3" stroke="rgb(0,178,178)" stroke-width="0.1"/>
  <path d="M 76.08962699999995,48.13106099999993 L 81.23262699999998,55.51706100000001" fill="none" instance-id="2" semantic-id="3" stroke="rgb(0,178,178)" stroke-width="0.1"/>
  <path d="M 70.36362699999995,80.123061 L 75.50662699999992,87.50906099999997" fill="none" instance-id="1" semantic-id="3" stroke="rgb(0,178,178)" stroke-width="0.1"/>
  <path d="M 74.50362699999994,56.99006099999997 A 9.0,9.0 0.0 0,0 81.23262699999998,55.51706100000001" fill="none" instance-id="2" semantic-id="3" stroke="rgb(0,178,178)" stroke-width="0.1"/>
  <path d="M 68.77762699999994,88.98206099999993 A 9.0,9.0 0.0 0,0 75.50662699999992,87.50906099999997" fill="none" instance-id="1" semantic-id="3" stroke="rgb(0,178,178)" stroke-width="0.1"/>
 </g>
 <g id="layerDOOR_FIRE_TEXT" inkscape:groupmode="layer" inkscape:label="DOOR_FIRE_TEXT">
  <text fill="rgb(0,0,0)" font-family="Noto Sans CJK SC" font-size="2" transform="rotate(-79.8529,71.07662699999997,59.109061)" x="71.07662699999997" y="59.109061">
   FM
  </text>
  <text fill="rgb(0,0,0)" font-family="Noto Sans CJK SC" font-size="2" transform="rotate(-79.8529,71.72562699999997,55.48306099999991)" x="71.72562699999997" y="55.48306099999991">
   甲
  </text>
  <text fill="rgb(0,0,0)" font-family="Noto Sans CJK SC" font-size="2" transform="rotate(-79.8529,72.32462699999996,52.134060999999974)" x="72.32462699999996" y="52.134060999999974">
   0921
  </text>
  <text fill="rgb(0,0,0)" font-family="Noto Sans CJK SC" font-size="2" transform="rotate(-79.8529,66.19262699999996,86.92906099999993)" x="66.19262699999996" y="86.92906099999993">
   FM
  </text>
  <text fill="rgb(0,0,0)" font-family="Noto Sans CJK SC" font-size="2" transform="rotate(-79.8529,66.84162699999996,83.30306099999996)" x="66.84162699999996" y="83.30306099999996">
   甲
  </text>
  <text fill="rgb(0,0,0)" font-family="Noto Sans CJK SC" font-size="2" transform="rotate(-79.8529,67.44162699999993,79.95406099999991)" x="67.44162699999993" y="79.95406099999991">
   0921
  </text>
 </g>
 <g id="layerPUB_TEXT" inkscape:groupmode="layer" inkscape:label="PUB_TEXT">
  <text fill="rgb(0,0,0)" font-family="Noto Sans CJK SC" font-size="2" transform="rotate(-349.853,55.201626999999974,55.527061)" x="55.201626999999974" y="55.527061">
   强
  </text>
  <text fill="rgb(0,0,0)" font-family="Noto Sans CJK SC" font-size="2" transform="rotate(-349.853,55.586626999999964,72.85706099999993)" x="55.586626999999964" y="72.85706099999993">
   弱
  </text>
  <text fill="rgb(0,0,0)" font-family="Noto Sans CJK SC" font-size="2" transform="rotate(-349.853,87.16962699999993,82.00506099999996)" x="87.16962699999993" y="82.00506099999996">
   1800x1200x1500d
  </text>
  <text fill="rgb(0,0,0)" font-family="Noto Sans CJK SC" font-size="2" transform="rotate(-349.853,3.2006269999999404,92.65906099999995)" x="3.2006269999999404" y="92.65906099999995">
   上
  </text>
  <text fill="rgb(0,0,0)" font-family="Noto Sans CJK SC" font-size="2" transform="rotate(-349.853,24.994626999999923,78.03906099999995)" x="24.994626999999923" y="78.03906099999995">
   -9.900
  </text>
  <text fill="rgb(0,0,0)" font-family="Noto Sans CJK SC" font-size="2" transform="rotate(-349.853,51.659626999999944,21.455061)" x="51.659626999999944" y="21.455061">
   暗藏消火栓
  </text>
 </g>
 <g id="layerS-JSJ" inkscape:groupmode="layer" inkscape:label="S-JSJ">
  <path d="M 80.38462699999997,38.325061000000005 L 82.18462699999998,36.52406099999996" fill="none" stroke="rgb(0,133,178)" stroke-width="0.1"/>
  <path d="M 79.89462699999996,41.05906099999993 L 84.08962699999995,36.86506099999997" fill="none" stroke="rgb(0,133,178)" stroke-width="0.1"/>
  <path d="M 79.40562699999992,43.793060999999966 L 85.99362699999995,37.205061" fill="none" stroke="rgb(0,133,178)" stroke-width="0.1"/>
  <path d="M 78.91562699999997,46.52806099999998 L 81.79962699999993,43.644060999999965" fill="none" stroke="rgb(0,133,178)" stroke-width="0.1"/>
  <path d="M 78.42662699999994,49.26206100000002 L 80.25262699999996,47.436060999999995" fill="none" stroke="rgb(0,133,178)" stroke-width="0.1"/>
  <path d="M 77.93762699999996,51.99706099999992 L 78.70662699999997,51.22806099999991" fill="none" stroke="rgb(0,133,178)" stroke-width="0.1"/>
  <path d="M 85.94462699999997,39.49906099999998 L 87.89762699999994,37.54606100000001" fill="none" stroke="rgb(0,133,178)" stroke-width="0.1"/>
  <path d="M 88.64562699999993,39.043060999999966 L 89.80162699999994,37.88706100000002" fill="none" stroke="rgb(0,133,178)" stroke-width="0.1"/>
  <path d="M 91.34662699999996,38.58706099999995 L 91.70662699999997,38.22806099999991" fill="none" stroke="rgb(0,133,178)" stroke-width="0.1"/>
  <path d="M 92.56462699999997,38.38206099999991 L 89.39362699999992,56.10006099999998" fill="none" stroke="rgb(0,133,178)" stroke-width="0.1"/>
  <path d="M 89.39362699999992,56.10006099999998 L 77.58162699999997,53.98606099999995" fill="none" stroke="rgb(0,133,178)" stroke-width="0.1"/>
  <path d="M 77.58162699999997,53.98606099999995 L 80.75262699999996,36.26706100000001" fill="none" stroke="rgb(0,133,178)" stroke-width="0.1"/>
  <path d="M 80.75262699999996,36.26706100000001 L 92.56462699999997,38.38206099999991" fill="none" stroke="rgb(0,133,178)" stroke-width="0.1"/>
  <path d="M 92.56462699999997,38.38206099999991 L 83.30862699999994,39.94406099999992" fill="none" stroke="rgb(0,133,178)" stroke-width="0.1"/>
  <path d="M 83.30862699999994,39.94406099999992 L 77.58162699999997,53.98606099999995" fill="none" stroke="rgb(0,133,178)" stroke-width="0.1"/>
  <path d="M 77.58162699999997,53.98606099999995 L 83.30862699999994,39.94406099999992" fill="none" stroke="rgb(0,133,178)" stroke-width="0.1"/>
  <path d="M 83.30862699999994,39.94406099999992 L 92.56462699999997,38.38206099999991" fill="none" stroke="rgb(0,133,178)" stroke-width="0.1"/>
  <path d="M 92.56462699999997,38.38206099999991 L 80.75262699999996,36.26706100000001" fill="none" stroke="rgb(0,133,178)" stroke-width="0.1"/>
  <path d="M 80.75262699999996,36.26706100000001 L 77.58162699999997,53.98606099999995" fill="none" stroke="rgb(0,133,178)" stroke-width="0.1"/>
 </g>
 <g id="layerSTAIR" inkscape:groupmode="layer" inkscape:label="STAIR">
  <path d="M 0.0,48.95944086300028 L 44.26962699999996,40.359061" fill="none" stroke="rgb(178,88,0)" stroke-width="0.1"/>
  <path d="M 0.0,85.63212293263905 L 51.134626999999966,75.69806099999994" fill="none" stroke="rgb(178,88,0)" stroke-width="0.1"/>
 </g>
 <g id="layerWALL" inkscape:groupmode="layer" inkscape:label="WALL">
  <path d="M 43.358626999999956,35.67006099999992 L 45.812626999999964,35.19306099999994" fill="none" instance-id="-1" semantic-id="1" stroke="rgb(178,178,0)" stroke-width="0.1"/>
  <path d="M 76.25062699999995,41.556061 L 78.01162699999998,31.713060999999925" fill="none" instance-id="-1" semantic-id="1" stroke="rgb(178,178,0)" stroke-width="0.1"/>
  <path d="M 78.04262699999992,42.89306099999999 L 79.98062699999997,32.065061000000014" fill="none" instance-id="-1" semantic-id="1" stroke="rgb(178,178,0)" stroke-width="0.1"/>
  <path d="M 52.52262699999994,82.84206099999994 L 47.65162699999996,57.77206100000001" fill="none" instance-id="-1" semantic-id="1" stroke="rgb(178,178,0)" stroke-width="0.1"/>
  <path d="M 54.485626999999965,82.46106099999997 L 49.967626999999936,59.20206099999996" fill="none" instance-id="-1" semantic-id="1" stroke="rgb(178,178,0)" stroke-width="0.1"/>
  <path d="M 68.26462699999996,97.52606099999991 L 69.76262699999995,89.15906099999995" fill="none" instance-id="-1" semantic-id="1" stroke="rgb(178,178,0)" stroke-width="0.1"/>
  <path d="M 69.76262699999995,89.15906099999995 L 67.79362699999996,88.806061" fill="none" instance-id="-1" semantic-id="1" stroke="rgb(178,178,0)" stroke-width="0.1"/>
  <path d="M 67.79362699999996,88.806061 L 66.29562699999997,97.17306099999996" fill="none" instance-id="-1" semantic-id="1" stroke="rgb(178,178,0)" stroke-width="0.1"/>
  <path d="M 72.37462699999998,63.21206099999995 L 69.37962699999997,79.94706099999996" fill="none" instance-id="-1" semantic-id="1" stroke="rgb(178,178,0)" stroke-width="0.1"/>
  <path d="M 69.37962699999997,79.94706099999996 L 71.34762699999993,80.29906099999994" fill="none" instance-id="-1" semantic-id="1" stroke="rgb(178,178,0)" stroke-width="0.1"/>
  <path d="M 71.34762699999993,80.29906099999994 L 74.51962699999996,62.580061" fill="none" instance-id="-1" semantic-id="1" stroke="rgb(178,178,0)" stroke-width="0.1"/>
  <path d="M 72.37462699999998,63.21206099999995 L 49.967626999999936,59.20206099999996" fill="none" instance-id="-1" semantic-id="1" stroke="rgb(178,178,0)" stroke-width="0.1"/>
  <path d="M 72.72662699999995,61.24406099999999 L 49.558626999999944,57.09706099999994" fill="none" instance-id="-1" semantic-id="1" stroke="rgb(178,178,0)" stroke-width="0.1"/>
  <path d="M 75.89762699999994,43.52506099999994 L 75.40562699999992,43.43706099999997" fill="none" instance-id="-1" semantic-id="1" stroke="rgb(178,178,0)" stroke-width="0.1"/>
  <path d="M 76.25062699999995,41.556061 L 75.75762699999996,41.46806099999992" fill="none" instance-id="-1" semantic-id="1" stroke="rgb(178,178,0)" stroke-width="0.1"/>
  <path d="M 74.51962699999996,62.580061 L 75.48862699999995,57.16606100000001" fill="none" instance-id="-1" semantic-id="1" stroke="rgb(178,178,0)" stroke-width="0.1"/>
  <path d="M 75.48862699999995,57.16606100000001 L 73.51962699999996,56.814060999999924" fill="none" instance-id="-1" semantic-id="1" stroke="rgb(178,178,0)" stroke-width="0.1"/>
  <path d="M 73.51962699999996,56.814060999999924 L 72.72662699999995,61.24406099999999" fill="none" instance-id="-1" semantic-id="1" stroke="rgb(178,178,0)" stroke-width="0.1"/>
  <path d="M 75.89762699999994,43.52506099999994 L 75.10462699999994,47.955061" fill="none" instance-id="-1" semantic-id="1" stroke="rgb(178,178,0)" stroke-width="0.1"/>
  <path d="M 75.10462699999994,47.955061 L 77.07362699999993,48.307060999999976" fill="none" instance-id="-1" semantic-id="1" stroke="rgb(178,178,0)" stroke-width="0.1"/>
  <path d="M 77.07362699999993,48.307060999999976 L 78.04262699999992,42.89306099999999" fill="none" instance-id="-1" semantic-id="1" stroke="rgb(178,178,0)" stroke-width="0.1"/>
  <path d="M 47.65162699999996,57.77206100000001 L 43.358626999999956,35.67006099999992" fill="none" instance-id="-1" semantic-id="1" stroke="rgb(178,178,0)" stroke-width="0.1"/>
  <path d="M 49.558626999999944,57.09706099999994 L 45.87762699999996,38.152061" fill="none" instance-id="-1" semantic-id="1" stroke="rgb(178,178,0)" stroke-width="0.1"/>
  <path d="M 74.77362699999998,41.29206099999999 L 76.71162699999996,30.464061000000015" fill="none" instance-id="-1" semantic-id="1" stroke="rgb(178,178,0)" stroke-width="0.1"/>
  <path d="M 75.75762699999996,41.46806099999992 L 77.51962699999996,31.62506099999996" fill="none" instance-id="-1" semantic-id="1" stroke="rgb(178,178,0)" stroke-width="0.1"/>
  <path d="M 75.40562699999992,43.43706099999997 L 46.02462699999995,38.17906099999993" fill="none" instance-id="-1" semantic-id="1" stroke="rgb(178,178,0)" stroke-width="0.1"/>
  <path d="M 74.77362699999998,41.29206099999999 L 48.10762699999998,36.52006099999994" fill="none" instance-id="-1" semantic-id="1" stroke="rgb(178,178,0)" stroke-width="0.1"/>
  <path d="M 76.71162699999996,30.464061000000015 L 78.18762699999996,30.729061" fill="none" instance-id="-1" semantic-id="1" stroke="rgb(178,178,0)" stroke-width="0.1"/>
  <path d="M 77.51962699999996,31.62506099999996 L 78.01162699999998,31.713060999999925" fill="none" instance-id="-1" semantic-id="1" stroke="rgb(178,178,0)" stroke-width="0.1"/>
  <path d="M 79.98062699999997,32.065061000000014 L 85.71937732892621,0.0" fill="none" instance-id="-1" semantic-id="1" stroke="rgb(178,178,0)" stroke-width="0.1"/>
  <path d="M 83.68736883621904,0.0 L 78.18762699999996,30.729061" fill="none" instance-id="-1" semantic-id="1" stroke="rgb(178,178,0)" stroke-width="0.1"/>
  <path d="M 45.99662699999993,36.14206100000001 L 46.193626999999935,37.15606099999991" fill="none" instance-id="-1" semantic-id="1" stroke="rgb(178,178,0)" stroke-width="0.1"/>
  <path d="M 48.10762699999998,36.52006099999994 L 47.77562699999993,34.811060999999995" fill="none" instance-id="-1" semantic-id="1" stroke="rgb(178,178,0)" stroke-width="0.1"/>
  <path d="M 46.02462699999995,38.17906099999993 L 45.87762699999996,38.152061" fill="none" stroke="rgb(178,178,0)" stroke-width="0.1"/>
  <path d="M 45.99662699999993,36.14206100000001 L 43.358626999999956,35.67006099999992" fill="none" instance-id="-1" semantic-id="1" stroke="rgb(178,178,0)" stroke-width="0.1"/>
  <path d="M 43.905626999999924,25.376060999999936 L 41.451626999999974,25.85306099999991" fill="none" instance-id="-1" semantic-id="1" stroke="rgb(178,178,0)" stroke-width="0.1"/>
  <path d="M 45.487626999999975,23.032061 L 43.032626999999934,23.508060999999998" fill="none" instance-id="-1" semantic-id="1" stroke="rgb(178,178,0)" stroke-width="0.1"/>
  <path d="M 41.451626999999974,25.85306099999991 L 36.428925360162054,0.0" fill="none" instance-id="-1" semantic-id="1" stroke="rgb(178,178,0)" stroke-width="0.1"/>
  <path d="M 43.032626999999934,23.508060999999998 L 38.465687200544664,0.0" fill="none" instance-id="-1" semantic-id="1" stroke="rgb(178,178,0)" stroke-width="0.1"/>
  <path d="M 46.193626999999935,37.15606099999991 L 43.73962699999993,37.633061" fill="none" instance-id="-1" semantic-id="1" stroke="rgb(178,178,0)" stroke-width="0.1"/>
  <path d="M 45.812626999999964,35.19306099999994 L 43.358626999999956,35.67006099999992" fill="none" instance-id="-1" semantic-id="1" stroke="rgb(178,178,0)" stroke-width="0.1"/>
  <path d="M 43.73962699999993,37.633061 L 43.358626999999956,35.67006099999992" fill="none" instance-id="-1" semantic-id="1" stroke="rgb(178,178,0)" stroke-width="0.1"/>
  <path d="M 45.812626999999964,35.19306099999994 L 43.905626999999924,25.376060999999936" fill="none" instance-id="-1" semantic-id="1" stroke="rgb(178,178,0)" stroke-width="0.1"/>
  <path d="M 47.77562699999993,34.811060999999995 L 45.487626999999975,23.032061" fill="none" instance-id="-1" semantic-id="1" stroke="rgb(178,178,0)" stroke-width="0.1"/>
  <path d="M 54.485626999999965,82.46106099999997 A 28.0,28.0 0.0 0,0 63.13062699999995,97.83306099999993" fill="none" instance-id="-1" semantic-id="1" stroke="rgb(178,178,0)" stroke-width="0.1"/>
  <path d="M 52.52262699999994,82.84206099999994 L 52.624475482760374,83.34341275516158" fill="none" instance-id="-1" semantic-id="1" stroke="rgb(178,178,0)" stroke-width="0.1"/>
  <path d="M 52.624475482760374,83.34341275516158 L 52.734858435734736,83.84295484501683" fill="none" instance-id="-1" semantic-id="1" stroke="rgb(178,178,0)" stroke-width="0.1"/>
  <path d="M 52.734858435734736,83.84295484501683 L 52.85374375873903,84.34054199900947" fill="none" instance-id="-1" semantic-id="1" stroke="rgb(178,178,0)" stroke-width="0.1"/>
  <path d="M 52.85374375873903,84.34054199900947 L 52.98109687903684,84.83602951509317" fill="none" instance-id="-1" semantic-id="1" stroke="rgb(178,178,0)" stroke-width="0.1"/>
  <path d="M 52.98109687903684,84.83602951509317 L 53.11688076139325,85.32927330181178" fill="none" instance-id="-1" semantic-id="1" stroke="rgb(178,178,0)" stroke-width="0.1"/>
  <path d="M 53.11688076139325,85.32927330181178 L 53.26105591884516,85.82012992020259" fill="none" instance-id="-1" semantic-id="1" stroke="rgb(178,178,0)" stroke-width="0.1"/>
  <path d="M 53.26105591884516,85.82012992020259 L 53.41358042418403,86.30845662550905" fill="none" instance-id="-1" semantic-id="1" stroke="rgb(178,178,0)" stroke-width="0.1"/>
  <path d="M 53.41358042418403,86.30845662550905 L 53.57440992214907,86.79411140869217" fill="none" instance-id="-1" semantic-id="1" stroke="rgb(178,178,0)" stroke-width="0.1"/>
  <path d="M 53.57440992214907,86.79411140869217 L 53.74349764232562,87.27695303772782" fill="none" instance-id="-1" semantic-id="1" stroke="rgb(178,178,0)" stroke-width="0.1"/>
  <path d="M 53.74349764232562,87.27695303772782 L 53.92079441274677,87.75684109867802" fill="none" instance-id="-1" semantic-id="1" stroke="rgb(178,178,0)" stroke-width="0.1"/>
  <path d="M 53.92079441274677,87.75684109867802 L 54.10624867419256,88.23363603652433" fill="none" instance-id="-1" semantic-id="1" stroke="rgb(178,178,0)" stroke-width="0.1"/>
  <path d="M 54.10624867419256,88.23363603652433 L 54.29980649518399,88.70719919575174" fill="none" instance-id="-1" semantic-id="1" stroke="rgb(178,178,0)" stroke-width="0.1"/>
  <path d="M 54.29980649518399,88.70719919575174 L 54.50141158766672,89.17739286067001" fill="none" instance-id="-1" semantic-id="1" stroke="rgb(178,178,0)" stroke-width="0.1"/>
  <path d="M 54.50141158766672,89.17739286067001 L 54.71100532337999,89.64408029546348" fill="none" instance-id="-1" semantic-id="1" stroke="rgb(178,178,0)" stroke-width="0.1"/>
  <path d="M 54.71100532337999,89.64408029546348 L 54.92852675090603,90.10712578395396" fill="none" instance-id="-1" semantic-id="1" stroke="rgb(178,178,0)" stroke-width="0.1"/>
  <path d="M 54.92852675090603,90.10712578395396 L 55.15391261339545,90.56639466906836" fill="none" instance-id="-1" semantic-id="1" stroke="rgb(178,178,0)" stroke-width="0.1"/>
  <path d="M 55.15391261339545,90.56639466906836 L 55.387097366962564,91.021753391998" fill="none" instance-id="-1" semantic-id="1" stroke="rgb(178,178,0)" stroke-width="0.1"/>
  <path d="M 55.387097366962564,91.021753391998 L 55.62801319974625,91.47306953103862" fill="none" instance-id="-1" semantic-id="1" stroke="rgb(178,178,0)" stroke-width="0.1"/>
  <path d="M 55.62801319974625,91.47306953103862 L 55.876590051629876,91.920211840099" fill="none" instance-id="-1" semantic-id="1" stroke="rgb(178,178,0)" stroke-width="0.1"/>
  <path d="M 55.876590051629876,91.920211840099 L 56.13275563461565,92.36305028686934" fill="none" instance-id="-1" semantic-id="1" stroke="rgb(178,178,0)" stroke-width="0.1"/>
  <path d="M 56.13275563461565,92.36305028686934 L 56.396435453846095,92.80145609063436" fill="none" instance-id="-1" semantic-id="1" stroke="rgb(178,178,0)" stroke-width="0.1"/>
  <path d="M 56.396435453846095,92.80145609063436 L 56.66755282926812,93.23530175972496" fill="none" instance-id="-1" semantic-id="1" stroke="rgb(178,178,0)" stroke-width="0.1"/>
  <path d="M 56.66755282926812,93.23530175972496 L 56.94602891793181,93.6644611285925" fill="none" instance-id="-1" semantic-id="1" stroke="rgb(178,178,0)" stroke-width="0.1"/>
  <path d="M 56.94602891793181,93.6644611285925 L 57.23178273691889,94.0888093945" fill="none" instance-id="-1" semantic-id="1" stroke="rgb(178,178,0)" stroke-width="0.1"/>
  <path d="M 57.23178273691889,94.0888093945 L 57.52473118689278,94.50822315381436" fill="none" instance-id="-1" semantic-id="1" stroke="rgb(178,178,0)" stroke-width="0.1"/>
  <path d="M 57.52473118689278,94.50822315381436 L 57.82478907626472,94.92258043789411" fill="none" instance-id="-1" semantic-id="1" stroke="rgb(178,178,0)" stroke-width="0.1"/>
  <path d="M 57.82478907626472,94.92258043789411 L 58.131869145968096,95.3317607485584" fill="none" instance-id="-1" semantic-id="1" stroke="rgb(178,178,0)" stroke-width="0.1"/>
  <path d="M 58.131869145968096,95.3317607485584 L 58.44588209483402,95.73564509312848" fill="none" instance-id="-1" semantic-id="1" stroke="rgb(178,178,0)" stroke-width="0.1"/>
  <path d="M 58.44588209483402,95.73564509312848 L 58.76673660556082,96.13411601903226" fill="none" instance-id="-1" semantic-id="1" stroke="rgb(178,178,0)" stroke-width="0.1"/>
  <path d="M 58.76673660556082,96.13411601903226 L 59.0943393712696,96.52705764795985" fill="none" instance-id="-1" semantic-id="1" stroke="rgb(178,178,0)" stroke-width="0.1"/>
  <path d="M 59.0943393712696,96.52705764795985 L 59.42859512263885,96.91435570956219" fill="none" instance-id="-1" semantic-id="1" stroke="rgb(178,178,0)" stroke-width="0.1"/>
  <path d="M 59.42859512263885,96.91435570956219 L 59.7694066556092,97.29589757468148" fill="none" instance-id="-1" semantic-id="1" stroke="rgb(178,178,0)" stroke-width="0.1"/>
  <path d="M 59.7694066556092,97.29589757468148 L 60.11667485965137,97.6715722881047" fill="none" instance-id="-1" semantic-id="1" stroke="rgb(178,178,0)" stroke-width="0.1"/>
  <path d="M 60.11667485965137,97.6715722881047 L 60.4702987465879,98.04127060083044" fill="none" instance-id="-1" semantic-id="1" stroke="rgb(178,178,0)" stroke-width="0.1"/>
  <path d="M 60.4702987465879,98.04127060083044 L 60.83017547996161,98.40488500183858" fill="none" instance-id="-1" semantic-id="1" stroke="rgb(178,178,0)" stroke-width="0.1"/>
  <path d="M 60.83017547996161,98.40488500183858 L 61.19620040494107,98.76230974935629" fill="none" instance-id="-1" semantic-id="1" stroke="rgb(178,178,0)" stroke-width="0.1"/>
  <path d="M 61.19620040494107,98.76230974935629 L 61.5682670787549,99.11344090160776" fill="none" instance-id="-1" semantic-id="1" stroke="rgb(178,178,0)" stroke-width="0.1"/>
  <path d="M 61.5682670787549,99.11344090160776 L 61.94626730164623,99.45817634704156" fill="none" instance-id="-1" semantic-id="1" stroke="rgb(178,178,0)" stroke-width="0.1"/>
  <path d="M 61.94626730164623,99.45817634704156 L 62.33009114833794,99.79641583402542" fill="none" instance-id="-1" semantic-id="1" stroke="rgb(178,178,0)" stroke-width="0.1"/>
 </g>
 <g id="layers-消火栓" inkscape:groupmode="layer" inkscape:label="s-消火栓">
  <path d="M 43.806626999999935,25.39506099999994 L 41.451626999999974,25.85306099999991" fill="none" stroke="rgb(178,88,0)" stroke-width="0.1"/>
  <path d="M 42.78562699999998,32.72506099999998 L 45.14162699999997,32.26706100000001" fill="none" stroke="rgb(178,88,0)" stroke-width="0.1"/>
  <path d="M 45.14162699999997,32.26706100000001 L 43.806626999999935,25.39506099999994" fill="none" stroke="rgb(178,88,0)" stroke-width="0.1"/>
  <path d="M 45.14162699999997,32.26706100000001 L 41.451626999999974,25.85306099999991" fill="none" stroke="rgb(178,88,0)" stroke-width="0.1"/>
  <path d="M 41.451626999999974,25.85306099999991 L 42.78562699999998,32.72506099999998" fill="none" stroke="rgb(178,88,0)" stroke-width="0.1"/>
  <path d="M 77.61862699999995,31.642061000000012 L 79.98062699999997,32.065061000000014" fill="none" stroke="rgb(178,88,0)" stroke-width="0.1"/>
  <path d="M 78.74762699999997,38.95606099999998 L 76.38462699999997,38.533060999999975" fill="none" stroke="rgb(178,88,0)" stroke-width="0.1"/>
  <path d="M 76.38462699999997,38.533060999999975 L 77.61862699999995,31.642061000000012" fill="none" stroke="rgb(178,88,0)" stroke-width="0.1"/>
  <path d="M 76.38462699999997,38.533060999999975 L 79.98062699999997,32.065061000000014" fill="none" stroke="rgb(178,88,0)" stroke-width="0.1"/>
  <path d="M 79.98062699999997,32.065061000000014 L 78.74762699999997,38.95606099999998" fill="none" stroke="rgb(178,88,0)" stroke-width="0.1"/>
  <circle cx="44.30762699999997" cy="34.26306099999999" fill="none" r="0.5" stroke="rgb(178,178,0)" stroke-width="0.1"/>
  <circle cx="74.88662699999998" cy="40.09306099999992" fill="none" r="0.5" stroke="rgb(178,178,0)" stroke-width="0.1"/>
 </g>
</svg>