<?xml version="1.0" encoding="utf-8"?>
<svg style="background-color: #000;" version="1.1" viewBox="0 0 100.0 100.0" xmlns="http://www.w3.org/2000/svg" xmlns:inkscape="http://www.inkscape.org/namespaces/inkscape">
 <g id="layer0" inkscape:groupmode="layer" inkscape:label="0">
  <path d="M 0.4870466738916548,4.352478057272663 L 0.9765481105503113,4.211536280453288" fill="none" stroke="rgb(0,0,0)" stroke-width="0.1"/>
  <path d="M 0.9765481105503113,4.211536280453288 L 1.452593179577434,4.030270361983185" fill="none" stroke="rgb(0,0,0)" stroke-width="0.1"/>
  <path d="M 1.452593179577434,4.030270361983185 L 1.9118664871978126,3.8099427199334173" fill="none" stroke="rgb(0,0,0)" stroke-width="0.1"/>
  <path d="M 1.9118664871978126,3.8099427199334173 L 2.351169445789992,3.552087815934783" fill="none" stroke="rgb(0,0,0)" stroke-width="0.1"/>
  <path d="M 2.351169445789992,3.552087815934783 L 2.767442550300075,3.258501468491147" fill="none" stroke="rgb(0,0,0)" stroke-width="0.1"/>
  <path d="M 2.767442550300075,3.258501468491147 L 3.15778668602411,2.9312283460847084" fill="none" stroke="rgb(0,0,0)" stroke-width="0.1"/>
  <path d="M 3.15778668602411,2.9312283460847084 L 3.5194833193570503,2.572547727177664" fill="none" stroke="rgb(0,0,0)" stroke-width="0.1"/>
  <path d="M 3.5194833193570503,2.572547727177664 L 3.8500134308931138,2.1849576262828236" fill="none" stroke="rgb(0,0,0)" stroke-width="0.1"/>
  <path d="M 3.8500134308931138,2.1849576262828236 L 4.14707505902129,1.7711573966577703" fill="none" stroke="rgb(0,0,0)" stroke-width="0.1"/>
  <path d="M 4.14707505902129,1.7711573966577703 L 4.4085993318278724,1.3340289307843705" fill="none" stroke="rgb(0,0,0)" stroke-width="0.1"/>
  <path d="M 4.4085993318278724,1.3340289307843705 L 4.632764875660541,0.8766165895625591" fill="none" stroke="rgb(0,0,0)" stroke-width="0.1"/>
  <path d="M 4.632764875660541,0.8766165895625591 L 4.8180104999999,0.4021060000000034" fill="none" stroke="rgb(0,0,0)" stroke-width="0.1"/>
  <path d="M 4.8180104999999,0.4021060000000034 L 5.2272244429320835,0.7054542979246889" fill="none" stroke="rgb(0,0,0)" stroke-width="0.1"/>
  <path d="M 5.2272244429320835,0.7054542979246889 L 5.660306779023131,0.9736257563422441" fill="none" stroke="rgb(0,0,0)" stroke-width="0.1"/>
  <path d="M 5.660306779023131,0.9736257563422441 L 6.114241326456067,1.2047527075847029" fill="none" stroke="rgb(0,0,0)" stroke-width="0.1"/>
  <path d="M 6.114241326456067,1.2047527075847029 L 6.585866679156879,1.3972254787339011" fill="none" stroke="rgb(0,0,0)" stroke-width="0.1"/>
  <path d="M 6.585866679156879,1.3972254787339011 L 7.07189822425903,1.5497036021138229" fill="none" stroke="rgb(0,0,0)" stroke-width="0.1"/>
  <path d="M 7.07189822425903,1.5497036021138229 L 7.568951017638483,1.6611251509154954" fill="none" stroke="rgb(0,0,0)" stroke-width="0.1"/>
  <path d="M 7.568951017638483,1.6611251509154954 L 8.073563358199863,1.7307141349367043" fill="none" stroke="rgb(0,0,0)" stroke-width="0.1"/>
  <path d="M 8.073563358199863,1.7307141349367043 L 8.58222089673177,1.7579859049300808" fill="none" stroke="rgb(0,0,0)" stroke-width="0.1"/>
  <path d="M 8.58222089673177,1.7579859049300808 L 9.091381111429655,1.742750527920066" fill="none" stroke="rgb(0,0,0)" stroke-width="0.1"/>
  <path d="M 9.091381111429655,1.742750527920066 L 9.597497979624222,1.685114109982294" fill="none" stroke="rgb(0,0,0)" stroke-width="0.1"/>
  <path d="M 9.597497979624222,1.685114109982294 L 10.097046673891782,1.5854780572727805" fill="none" stroke="rgb(0,0,0)" stroke-width="0.1"/>
  <path d="M 10.097046673891782,1.5854780572727805 L 10.586548110550439,1.4445362804533488" fill="none" stroke="rgb(0,0,0)" stroke-width="0.1"/>
  <path d="M 10.586548110550439,1.4445362804533488 L 11.062593179577561,1.2632703619833023" fill="none" stroke="rgb(0,0,0)" stroke-width="0.1"/>
  <path d="M 11.062593179577561,1.2632703619833023 L 11.52186648719794,1.042942719933535" fill="none" stroke="rgb(0,0,0)" stroke-width="0.1"/>
  <path d="M 11.52186648719794,1.042942719933535 L 11.96116944579012,0.7850878159349008" fill="none" stroke="rgb(0,0,0)" stroke-width="0.1"/>
  <path d="M 11.96116944579012,0.7850878159349008 L 12.377442550300202,0.491501468491208" fill="none" stroke="rgb(0,0,0)" stroke-width="0.1"/>
  <path d="M 12.377442550300202,0.491501468491208 L 12.767786686024237,0.16422834608476933" fill="none" stroke="rgb(0,0,0)" stroke-width="0.1"/>
 </g>
 <g id="layer0-装修线" inkscape:groupmode="layer" inkscape:label="0-装修线">
  <path d="M 73.52801049999994,58.32410600000003 L 73.53801049999993,59.82410600000003" fill="none" stroke="rgb(178,0,178)" stroke-width="0.1"/>
  <path d="M 73.53801049999993,59.82410600000003 L 90.86801050000008,59.70810599999999" fill="none" stroke="rgb(178,0,178)" stroke-width="0.1"/>
 </g>
 <g id="layerCOLUMN" inkscape:groupmode="layer" inkscape:label="COLUMN">
  <circle cx="79.83801049999988" cy="28.32810599999999" fill="none" r="4" stroke="rgb(178,178,0)" stroke-width="0.1"/>
 </g>
 <g id="layerDIM_IDEN" inkscape:groupmode="layer" inkscape:label="DIM_IDEN">
  <path d="M 88.99801049999996,3.571105999999986 L 97.99955868181814,0.0" fill="none" stroke="rgb(0,178,0)" stroke-width="0.1"/>
  <path d="M 81.91369789470355,0.0 L 88.99801049999996,3.571105999999986" fill="none" stroke="rgb(0,178,0)" stroke-width="0.1"/>
  <path d="M 71.47801049999998,76.66810600000002 L 57.52801049999994,82.19910600000003" fill="none" stroke="rgb(0,178,0)" stroke-width="0.1"/>
  <path d="M 36.768010499999946,90.438106 L 57.52801049999994,82.19910600000003" fill="none" stroke="rgb(0,178,0)" stroke-width="0.1"/>
  <path d="M 39.74362242367533,100.0 L 36.768010499999946,90.438106" fill="none" stroke="rgb(0,178,0)" stroke-width="0.1"/>
  <path d="M 35.2080105,7.949106000000029 L 55.24963851893676,0.0" fill="none" stroke="rgb(0,178,0)" stroke-width="0.1"/>
  <path d="M 43.66801050000004,54.86910599999999 L 35.2080105,7.949106000000029" fill="none" stroke="rgb(0,178,0)" stroke-width="0.1"/>
  <path d="M 16.05801049999991,78.75910600000003 L 32.72801049999998,78.79610600000001" fill="none" stroke="rgb(0,178,0)" stroke-width="0.1"/>
  <path d="M 22.69801050000001,95.491106 L 32.72801049999998,78.79610600000001" fill="none" stroke="rgb(0,178,0)" stroke-width="0.1"/>
  <path d="M 32.72801049999998,78.79610600000001 L 61.57801049999989,67.347106" fill="none" stroke="rgb(0,178,0)" stroke-width="0.1"/>
  <circle cx="64.50801049999995" cy="79.43310600000001" fill="none" r="7.5" stroke="rgb(0,178,0)" stroke-width="0.1"/>
 </g>
 <g id="layerDOOR_FIRE" inkscape:groupmode="layer" inkscape:label="DOOR_FIRE">
  <path d="M 0.0,66.116872136685 L 0.9480105000000094,69.763106" fill="none" stroke="rgb(0,178,178)" stroke-width="0.1"/>
  <path d="M 0.0,64.59906343532629 L 1.3180104999999003,69.669106" fill="none" stroke="rgb(0,178,178)" stroke-width="0.1"/>
  <path d="M 0.9480105000000094,69.763106 L 1.3180104999999003,69.669106" fill="none" stroke="rgb(0,178,178)" stroke-width="0.1"/>
  <path d="M 12.938010500000019,87.486106 L 21.088010499999882,84.25010600000002" fill="none" instance-id="3" semantic-id="4" stroke="rgb(0,178,178)" stroke-width="0.1"/>
  <path d="M 12.768010499999946,87.068106 L 20.928010500000028,83.83210600000001" fill="none" instance-id="2" semantic-id="4" stroke="rgb(0,178,178)" stroke-width="0.1"/>
  <path d="M 21.088010499999882,84.25010600000002 L 20.928010500000028,83.83210600000001" fill="none" instance-id="3" semantic-id="4" stroke="rgb(0,178,178)" stroke-width="0.1"/>
  <path d="M 12.768010499999946,87.068106 L 12.938010500000019,87.486106" fill="none" stroke="rgb(0,178,178)" stroke-width="0.1"/>
  <path d="M 12.768010499999946,87.068106 L 20.928010500000028,83.83210600000001" fill="none" instance-id="2" semantic-id="4" stroke="rgb(0,178,178)" stroke-width="0.1"/>
  <path d="M 12.598010499999873,86.650106 L 20.758010499999955,83.414106" fill="none" instance-id="2" semantic-id="4" stroke="rgb(0,178,178)" stroke-width="0.1"/>
  <path d="M 12.768010499999946,87.068106 L 12.598010499999873,86.650106" fill="none" instance-id="2" semantic-id="4" stroke="rgb(0,178,178)" stroke-width="0.1"/>
  <path d="M 20.758010499999955,83.414106 L 20.928010500000028,83.83210600000001" fill="none" instance-id="2" semantic-id="4" stroke="rgb(0,178,178)" stroke-width="0.1"/>
  <path d="M 6.2980104999999185,70.75510600000001 L 14.4580105,67.51910600000002" fill="none" instance-id="2" semantic-id="4" stroke="rgb(0,178,178)" stroke-width="0.1"/>
  <path d="M 6.128010500000073,70.337106 L 14.288010499999928,67.10110600000002" fill="none" instance-id="2" semantic-id="4" stroke="rgb(0,178,178)" stroke-width="0.1"/>
  <path d="M 14.4580105,67.51910600000002 L 14.288010499999928,67.10110600000002" fill="none" instance-id="2" semantic-id="4" stroke="rgb(0,178,178)" stroke-width="0.1"/>
  <path d="M 6.128010500000073,70.337106 L 6.2980104999999185,70.75510600000001" fill="none" instance-id="2" semantic-id="4" stroke="rgb(0,178,178)" stroke-width="0.1"/>
  <path d="M 0.44422502885799986,69.85947163792389 L 0.9480105000000094,69.76110599999998" fill="none" stroke="rgb(0,178,178)" stroke-width="0.1"/>
  <path d="M 27.18778416407008,99.68997401195128 L 26.95180566900126,99.24661676017234" fill="none" instance-id="3" semantic-id="4" stroke="rgb(0,178,178)" stroke-width="0.1"/>
  <path d="M 26.95180566900126,99.24661676017234 L 26.690848072544895,98.81748666836847" fill="none" instance-id="3" semantic-id="4" stroke="rgb(0,178,178)" stroke-width="0.1"/>
  <path d="M 26.690848072544895,98.81748666836847 L 26.40576626316306,98.40398955253875" fill="none" instance-id="3" semantic-id="4" stroke="rgb(0,178,178)" stroke-width="0.1"/>
  <path d="M 26.40576626316306,98.40398955253875 L 26.09749415944225,98.00748001556968" fill="none" instance-id="3" semantic-id="4" stroke="rgb(0,178,178)" stroke-width="0.1"/>
  <path d="M 26.09749415944225,98.00748001556968 L 25.767041650606643,97.6292570096009" fill="none" instance-id="3" semantic-id="4" stroke="rgb(0,178,178)" stroke-width="0.1"/>
  <path d="M 25.767041650606643,97.6292570096009 L 25.4154912881545,97.27055958070065" fill="none" instance-id="3" semantic-id="4" stroke="rgb(0,178,178)" stroke-width="0.1"/>
  <path d="M 25.4154912881545,97.27055958070065 L 25.043994739455457,96.93256280979205" fill="none" instance-id="3" semantic-id="4" stroke="rgb(0,178,178)" stroke-width="0.1"/>
  <path d="M 25.043994739455457,96.93256280979205 L 24.653769014926183,96.6163739631267" fill="none" instance-id="3" semantic-id="4" stroke="rgb(0,178,178)" stroke-width="0.1"/>
  <path d="M 24.653769014926183,96.6163739631267 L 24.246092481144387,96.3230288649172" fill="none" instance-id="3" semantic-id="4" stroke="rgb(0,178,178)" stroke-width="0.1"/>
  <path d="M 24.246092481144387,96.3230288649172 L 23.822300672962,96.053488504011" fill="none" instance-id="3" semantic-id="4" stroke="rgb(0,178,178)" stroke-width="0.1"/>
  <path d="M 23.822300672962,96.053488504011 L 23.383781918337718,95.80863588572277" fill="none" instance-id="3" semantic-id="4" stroke="rgb(0,178,178)" stroke-width="0.1"/>
  <path d="M 23.383781918337718,95.80863588572277 L 22.93197279021956,95.58927313913836" fill="none" instance-id="3" semantic-id="4" stroke="rgb(0,178,178)" stroke-width="0.1"/>
  <path d="M 22.93197279021956,95.58927313913836 L 22.468353400380465,95.39611888936628" fill="none" instance-id="3" semantic-id="4" stroke="rgb(0,178,178)" stroke-width="0.1"/>
  <path d="M 22.468353400380465,95.39611888936628 L 21.99444255061985,95.22980590334555" fill="none" instance-id="3" semantic-id="4" stroke="rgb(0,178,178)" stroke-width="0.1"/>
  <path d="M 21.99444255061985,95.22980590334555 L 21.51179275722029,95.09087901692214" fill="none" instance-id="3" semantic-id="4" stroke="rgb(0,178,178)" stroke-width="0.1"/>
  <path d="M 21.51179275722029,95.09087901692214 L 21.021985164954685,94.97979334998485" fill="none" instance-id="3" semantic-id="4" stroke="rgb(0,178,178)" stroke-width="0.1"/>
  <path d="M 21.021985164954685,94.97979334998485 L 20.526624367308614,94.89691281550745" fill="none" instance-id="3" semantic-id="4" stroke="rgb(0,178,178)" stroke-width="0.1"/>
  <path d="M 20.526624367308614,94.89691281550745 L 20.027333149884726,94.84250892738203" fill="none" instance-id="3" semantic-id="4" stroke="rgb(0,178,178)" stroke-width="0.1"/>
  <path d="M 20.027333149884726,94.84250892738203 L 19.525747174210892,94.81675991094806" fill="none" instance-id="3" semantic-id="4" stroke="rgb(0,178,178)" stroke-width="0.1"/>
  <path d="M 19.525747174210892,94.81675991094806 L 19.023509619367587,94.8197501191325" fill="none" instance-id="3" semantic-id="4" stroke="rgb(0,178,178)" stroke-width="0.1"/>
  <path d="M 19.023509619367587,94.8197501191325 L 18.522265798987064,94.85146975611212" fill="none" instance-id="3" semantic-id="4" stroke="rgb(0,178,178)" stroke-width="0.1"/>
  <path d="M 18.522265798987064,94.85146975611212 L 18.023657771259877,94.91181490940448" fill="none" instance-id="3" semantic-id="4" stroke="rgb(0,178,178)" stroke-width="0.1"/>
  <path d="M 18.023657771259877,94.91181490940448 L 17.52931895960728,95.00058789028162" fill="none" instance-id="3" semantic-id="4" stroke="rgb(0,178,178)" stroke-width="0.1"/>
  <path d="M 17.52931895960728,95.00058789028162 L 17.04086880163959,95.11749788139184" fill="none" instance-id="3" semantic-id="4" stroke="rgb(0,178,178)" stroke-width="0.1"/>
  <path d="M 17.04086880163959,95.11749788139184 L 16.559907443932843,95.2621618894679" fill="none" instance-id="3" semantic-id="4" stroke="rgb(0,178,178)" stroke-width="0.1"/>
  <path d="M 16.559907443932843,95.2621618894679 L 16.088010499999882,95.43410599999999" fill="none" instance-id="3" semantic-id="4" stroke="rgb(0,178,178)" stroke-width="0.1"/>
  <path d="M 16.088010499999882,95.43410599999999 A 8.775,8.775 0.0 0,0 21.088010499999882,84.251106" fill="none" instance-id="3" semantic-id="4" stroke="rgb(0,178,178)" stroke-width="0.1"/>
  <path d="M 20.758010499999955,83.41510599999998 A 8.775,8.775 0.0 0,0 9.44801050000001,78.70210600000001" fill="none" instance-id="2" semantic-id="4" stroke="rgb(0,178,178)" stroke-width="0.1"/>
  <path d="M 9.44801050000001,78.70210600000001 A 8.775,8.775 0.0 0,0 14.44801050000001,67.520106" fill="none" instance-id="2" semantic-id="4" stroke="rgb(0,178,178)" stroke-width="0.1"/>
 </g>
 <g id="layerDOOR_FIRE_TEXT" inkscape:groupmode="layer" inkscape:label="DOOR_FIRE_TEXT">
  <text fill="rgb(0,0,0)" font-family="Noto Sans CJK SC" font-size="2" transform="rotate(-291.64,4.948010500000009,93.27210600000001)" x="4.948010500000009" y="93.27210600000001">
   FM
  </text>
  <text fill="rgb(0,0,0)" font-family="Noto Sans CJK SC" font-size="2" transform="rotate(-291.64,7.418010500000037,99.51910600000002)" x="7.418010500000037" y="99.51910600000002">
   甲
  </text>
 </g>
 <g id="layerEVTR" inkscape:groupmode="layer" inkscape:label="EVTR">
  <path d="M 32.52801049999994,37.190106000000014 L 48.268010499999946,36.968106000000034" fill="none" instance-id="4" semantic-id="31" stroke="rgb(178,88,0)" stroke-width="0.1"/>
  <path d="M 48.248010499999964,34.968106000000034 L 32.498010499999964,35.19110599999999" fill="none" instance-id="4" semantic-id="31" stroke="rgb(178,88,0)" stroke-width="0.1"/>
  <path d="M 32.498010499999964,37.19110599999999 L 32.498010499999964,35.19110599999999" fill="none" instance-id="4" semantic-id="31" stroke="rgb(178,88,0)" stroke-width="0.1"/>
  <path d="M 30.678010500000028,39.217106 L 30.878010500000073,53.21510599999999" fill="none" instance-id="4" semantic-id="31" stroke="rgb(178,88,0)" stroke-width="0.1"/>
  <path d="M 30.878010500000073,53.21510599999999 L 50.37801050000007,52.93910599999998" fill="none" instance-id="4" semantic-id="31" stroke="rgb(178,88,0)" stroke-width="0.1"/>
  <path d="M 50.37801050000007,52.93910599999998 L 50.17801050000003,38.94110599999999" fill="none" instance-id="4" semantic-id="31" stroke="rgb(178,88,0)" stroke-width="0.1"/>
  <path d="M 50.17801050000003,38.94110599999999 L 30.678010500000028,39.217106" fill="none" instance-id="4" semantic-id="31" stroke="rgb(178,88,0)" stroke-width="0.1"/>
  <path d="M 30.878010500000073,53.21510599999999 L 50.17801050000003,38.94110599999999" fill="none" instance-id="4" semantic-id="31" stroke="rgb(178,88,0)" stroke-width="0.1"/>
  <path d="M 30.678010500000028,39.217106 L 50.37801050000007,52.93910599999998" fill="none" instance-id="4" semantic-id="31" stroke="rgb(178,88,0)" stroke-width="0.1"/>
  <path d="M 59.998010499999964,37.00710600000002 L 59.998010499999964,35.00710600000002" fill="none" instance-id="5" semantic-id="31" stroke="rgb(178,88,0)" stroke-width="0.1"/>
  <path d="M 48.268010499999946,36.968106000000034 L 48.27801049999994,34.968106000000034" fill="none" instance-id="4" semantic-id="31" stroke="rgb(178,88,0)" stroke-width="0.1"/>
  <path d="M 60.02801049999994,37.00710600000002 L 75.76801049999995,36.78410600000001" fill="none" instance-id="5" semantic-id="31" stroke="rgb(178,88,0)" stroke-width="0.1"/>
  <path d="M 75.73801049999997,34.78410600000001 L 59.998010499999964,35.00710600000002" fill="none" instance-id="5" semantic-id="31" stroke="rgb(178,88,0)" stroke-width="0.1"/>
  <path d="M 58.37801050000007,53.03110600000002 L 77.86801050000008,52.75610599999999" fill="none" instance-id="5" semantic-id="31" stroke="rgb(178,88,0)" stroke-width="0.1"/>
  <path d="M 58.17801050000003,39.03310600000003 L 58.37801050000007,53.03110600000002" fill="none" instance-id="5" semantic-id="31" stroke="rgb(178,88,0)" stroke-width="0.1"/>
  <path d="M 77.86801050000008,52.75610599999999 L 77.67801050000003,38.75710600000002" fill="none" instance-id="5" semantic-id="31" stroke="rgb(178,88,0)" stroke-width="0.1"/>
  <path d="M 77.67801050000003,38.75710600000002 L 58.17801050000003,39.03310600000003" fill="none" instance-id="5" semantic-id="31" stroke="rgb(178,88,0)" stroke-width="0.1"/>
  <path d="M 58.17801050000003,39.03310600000003 L 77.86801050000008,52.75610599999999" fill="none" instance-id="5" semantic-id="31" stroke="rgb(178,88,0)" stroke-width="0.1"/>
  <path d="M 58.37801050000007,53.03110600000002 L 77.67801050000003,38.75710600000002" fill="none" instance-id="5" semantic-id="31" stroke="rgb(178,88,0)" stroke-width="0.1"/>
  <path d="M 75.76801049999995,36.78410600000001 L 75.76801049999995,34.78410600000001" fill="none" instance-id="5" semantic-id="31" stroke="rgb(178,88,0)" stroke-width="0.1"/>
 </g>
 <g id="layerM-提资-JZTZ" inkscape:groupmode="layer" inkscape:label="M-提资-JZTZ">
  <path d="M 71.4580105,26.188106000000005 L 77.9580105,23.60610600000001" fill="none" instance-id="-1" semantic-id="1" stroke="rgb(0,133,178)" stroke-width="0.1"/>
  <path d="M 77.9580105,23.60610600000001 L 75.37801050000007,17.100105999999982" fill="none" instance-id="-1" semantic-id="1" stroke="rgb(0,133,178)" stroke-width="0.1"/>
  <path d="M 75.37801050000007,17.100105999999982 L 68.86801050000008,19.681106" fill="none" instance-id="-1" semantic-id="1" stroke="rgb(0,133,178)" stroke-width="0.1"/>
  <path d="M 68.86801050000008,19.681106 L 71.4580105,26.188106000000005" fill="none" instance-id="-1" semantic-id="1" stroke="rgb(0,133,178)" stroke-width="0.1"/>
  <path d="M 70.32801049999989,28.78410600000001 L 80.55801049999991,24.728106000000025" fill="none" instance-id="-1" semantic-id="1" stroke="rgb(0,133,178)" stroke-width="0.1"/>
  <path d="M 80.55801049999991,24.728106000000025 L 76.49801049999996,14.503106000000002" fill="none" instance-id="-1" semantic-id="1" stroke="rgb(0,133,178)" stroke-width="0.1"/>
  <path d="M 76.49801049999996,14.503106000000002 L 66.27801049999994,18.56010600000002" fill="none" instance-id="-1" semantic-id="1" stroke="rgb(0,133,178)" stroke-width="0.1"/>
  <path d="M 66.27801049999994,18.56010600000002 L 70.32801049999989,28.78410600000001" fill="none" instance-id="-1" semantic-id="1" stroke="rgb(0,133,178)" stroke-width="0.1"/>
  <path d="M 71.4580105,26.188106000000005 L 70.43801050000002,20.29610600000001" fill="none" instance-id="-1" semantic-id="1" stroke="rgb(0,133,178)" stroke-width="0.1"/>
  <path d="M 70.43801050000002,20.29610600000001 L 75.37801050000007,17.100105999999982" fill="none" instance-id="-1" semantic-id="1" stroke="rgb(0,133,178)" stroke-width="0.1"/>
 </g>
 <g id="layerPUB_DIM" inkscape:groupmode="layer" inkscape:label="PUB_DIM">
  <path d="M 85.72801049999998,86.87510600000002 L 83.96800415927669,100.0" fill="none" stroke="rgb(0,178,0)" stroke-width="0.1"/>
 </g>
 <g id="layerPUB_HATCH" inkscape:groupmode="layer" inkscape:label="PUB_HATCH">
  <path d="M 77.83801049999988,28.32810599999999 L 81.83801049999988,28.32810599999999" fill="none" stroke="rgb(63,63,63)" stroke-width="0.1"/>
  <path d="M 81.83801049999988,28.32810599999999 L 77.83801049999988,28.32810599999999" fill="none" stroke="rgb(63,63,63)" stroke-width="0.1"/>
 </g>
 <g id="layerPUB_TEXT" inkscape:groupmode="layer" inkscape:label="PUB_TEXT">
  <text fill="rgb(0,0,0)" font-family="Noto Sans CJK SC" font-size="2" transform="rotate(-21.64,68.79801049999992,24.92710599999998)" x="68.79801049999992" y="24.92710599999998">
   送风井
  </text>
  <text fill="rgb(0,0,0)" font-family="Noto Sans CJK SC" font-size="2" transform="rotate(-21.64,13.288010499999928,12.871105999999997)" x="13.288010499999928" y="12.871105999999997">
   售票管理
  </text>
  <text fill="rgb(0,0,0)" font-family="Noto Sans CJK SC" font-size="2" transform="rotate(-21.64,30.488010499999973,51.68710600000003)" x="30.488010499999973" y="51.68710600000003">
   XDT10
  </text>
  <text fill="rgb(0,0,0)" font-family="Noto Sans CJK SC" font-size="2" transform="rotate(-21.64,63.518010499999946,51.21510599999999)" x="63.518010499999946" y="51.21510599999999">
   XDT11
  </text>
  <text fill="rgb(0,0,0)" font-family="Noto Sans CJK SC" font-size="2" transform="rotate(-21.64,89.2080105,10.374105999999983)" x="89.2080105" y="10.374105999999983">
   详
  </text>
  <text fill="rgb(0,0,0)" font-family="Noto Sans CJK SC" font-size="2" transform="rotate(-21.64,92.63801050000006,9.014106000000027)" x="92.63801050000006" y="9.014106000000027">
   02
  </text>
  <text fill="rgb(0,0,0)" font-family="Noto Sans CJK SC" font-size="2" transform="rotate(-21.64,98.21801049999999,6.802105999999981)" x="98.21801049999999" y="6.802105999999981">
   子项建施
  </text>
  <text fill="rgb(0,0,0)" font-family="Noto Sans CJK SC" font-size="2" transform="rotate(-21.64,62.77801049999994,78.62410599999998)" x="62.77801049999994" y="78.62410599999998">
   -
  </text>
  <text fill="rgb(0,0,0)" font-family="Noto Sans CJK SC" font-size="2" transform="rotate(-21.64,61.86801050000008,84.13410600000003)" x="61.86801050000008" y="84.13410600000003">
   41-020
  </text>
  <text fill="rgb(0,0,0)" font-family="Noto Sans CJK SC" font-size="2" transform="rotate(-21.64,45.86801050000008,85.133106)" x="45.86801050000008" y="85.133106">
   LT20
  </text>
  <text fill="rgb(0,0,0)" font-family="Noto Sans CJK SC" font-size="2" transform="rotate(-21.64,36.398010500000055,97.472106)" x="36.398010500000055" y="97.472106">
   详
  </text>
  <text fill="rgb(0,0,0)" font-family="Noto Sans CJK SC" font-size="2" transform="rotate(-21.64,39.8180104999999,96.11310600000002)" x="39.8180104999999" y="96.11310600000002">
   02
  </text>
  <text fill="rgb(0,0,0)" font-family="Noto Sans CJK SC" font-size="2" transform="rotate(-21.64,45.398010500000055,93.900106)" x="45.398010500000055" y="93.900106">
   子项建施
  </text>
  <text fill="rgb(0,0,0)" font-family="Noto Sans CJK SC" font-size="2" transform="rotate(-21.64,60.27801049999994,1.6181060000000116)" x="60.27801049999994" y="1.6181060000000116">
   42-004
  </text>
  <text fill="rgb(0,0,0)" font-family="Noto Sans CJK SC" font-size="2" transform="rotate(-21.64,34.32801049999989,6.604106000000002)" x="34.32801049999989" y="6.604106000000002">
   XDT10
  </text>
  <text fill="rgb(0,0,0)" font-family="Noto Sans CJK SC" font-size="2" transform="rotate(-21.64,47.57801049999989,1.3491060000000061)" x="47.57801049999989" y="1.3491060000000061">
   ，
  </text>
  <text fill="rgb(0,0,0)" font-family="Noto Sans CJK SC" font-size="2" transform="rotate(-21.64,34.83801049999988,14.984105999999997)" x="34.83801049999988" y="14.984105999999997">
   详
  </text>
  <text fill="rgb(0,0,0)" font-family="Noto Sans CJK SC" font-size="2" transform="rotate(-21.64,38.268010499999946,13.624105999999983)" x="38.268010499999946" y="13.624105999999983">
   02
  </text>
  <text fill="rgb(0,0,0)" font-family="Noto Sans CJK SC" font-size="2" transform="rotate(-21.64,43.83801049999988,11.412105999999994)" x="43.83801049999988" y="11.412105999999994">
   子项建施
  </text>
  <text fill="rgb(0,0,0)" font-family="Noto Sans CJK SC" font-size="2" transform="rotate(-21.64,36.53801049999993,75.58810599999998)" x="36.53801049999993" y="75.58810599999998">
   常开甲级防火门
  </text>
 </g>
 <g id="layerS-XF-LG" inkscape:groupmode="layer" inkscape:label="S-XF-LG">
  <circle cx="75.7080105" cy="16.841106000000025" fill="none" r="0.6" stroke="rgb(178,88,0)" stroke-width="0.1"/>
 </g>
 <g id="layerSURFACE" inkscape:groupmode="layer" inkscape:label="SURFACE">
  <path d="M 35.03801049999993,60.081106000000034 L 35.02801049999994,58.581106000000034" fill="none" stroke="rgb(178,0,178)" stroke-width="0.1"/>
  <path d="M 26.68801050000002,60.13710600000002 L 35.03801049999993,60.081106000000034" fill="none" stroke="rgb(178,0,178)" stroke-width="0.1"/>
  <path d="M 46.03801049999993,60.008106 L 46.02801049999994,58.508106" fill="none" stroke="rgb(178,0,178)" stroke-width="0.1"/>
  <path d="M 46.03801049999993,60.008106 L 54.158010500000046,59.95310599999999" fill="none" stroke="rgb(178,0,178)" stroke-width="0.1"/>
  <path d="M 62.53801049999993,59.89710600000001 L 62.52801049999994,58.39710600000001" fill="none" stroke="rgb(178,0,178)" stroke-width="0.1"/>
  <path d="M 54.158010500000046,59.95310599999999 L 62.53801049999993,59.89710600000001" fill="none" stroke="rgb(178,0,178)" stroke-width="0.1"/>
  <path d="M 73.53801049999993,59.82410600000003 L 73.52801049999994,58.32410600000003" fill="none" stroke="rgb(178,0,178)" stroke-width="0.1"/>
  <path d="M 73.53801049999993,59.82410600000003 L 82.65801050000005,59.76310599999999" fill="none" stroke="rgb(178,0,178)" stroke-width="0.1"/>
  <path d="M 18.54801049999992,60.77110600000003 A 251.5,251.5 0.0 0,0 4.418010500000037,63.303106000000014" fill="none" stroke="rgb(178,0,178)" stroke-width="0.1"/>
  <path d="M 26.68801050000002,60.13710600000002 A 57.5,57.5 0.0 0,0 18.54801049999992,60.77110600000003" fill="none" stroke="rgb(178,0,178)" stroke-width="0.1"/>
  <path d="M 2.4280105000000276,63.726106000000016 L 1.9255544948812258,63.83605224075785" fill="none" stroke="rgb(178,0,178)" stroke-width="0.1"/>
  <path d="M 1.9255544948812258,63.83605224075785 L 1.4233243922403744,63.947025827426955" fill="none" stroke="rgb(178,0,178)" stroke-width="0.1"/>
  <path d="M 1.4233243922403744,63.947025827426955 L 0.9213222926366598,64.0590262958645" fill="none" stroke="rgb(178,0,178)" stroke-width="0.1"/>
  <path d="M 0.9213222926366598,64.0590262958645 L 0.41955029567520796,64.17205317763245" fill="none" stroke="rgb(178,0,178)" stroke-width="0.1"/>
 </g>
 <g id="layerWALL" inkscape:groupmode="layer" inkscape:label="WALL">
  <path d="M 53.138010500000064,56.460105999999996 L 52.94801050000001,28.69910600000003" fill="none" instance-id="-1" semantic-id="1" stroke="rgb(178,178,0)" stroke-width="0.1"/>
  <path d="M 55.138010500000064,56.44710600000002 L 54.94801050000001,28.684105999999986" fill="none" instance-id="-1" semantic-id="1" stroke="rgb(178,178,0)" stroke-width="0.1"/>
  <path d="M 66.27801049999994,18.56010600000002 L 76.49801049999996,14.503106000000002" fill="none" instance-id="-1" semantic-id="1" stroke="rgb(178,178,0)" stroke-width="0.1"/>
  <path d="M 68.86801050000008,19.681106 L 77.23801049999997,16.362105999999983" fill="none" instance-id="-1" semantic-id="1" stroke="rgb(178,178,0)" stroke-width="0.1"/>
  <path d="M 68.86801050000008,19.681106 L 71.44801050000001,26.161106000000018" fill="none" instance-id="-1" semantic-id="1" stroke="rgb(178,178,0)" stroke-width="0.1"/>
  <path d="M 66.27801049999994,18.56010600000002 L 69.23801049999997,26.035105999999985" fill="none" instance-id="-1" semantic-id="1" stroke="rgb(178,178,0)" stroke-width="0.1"/>
  <path d="M 27.43801050000002,27.522106000000008 L 27.43801050000002,27.299105999999995" fill="none" instance-id="-1" semantic-id="1" stroke="rgb(178,178,0)" stroke-width="0.1"/>
  <path d="M 25.43801050000002,27.535105999999985 L 25.44801050000001,28.931106" fill="none" instance-id="-1" semantic-id="1" stroke="rgb(178,178,0)" stroke-width="0.1"/>
  <path d="M 27.43801050000002,27.522106000000008 L 25.43801050000002,27.535105999999985" fill="none" instance-id="-1" semantic-id="1" stroke="rgb(178,178,0)" stroke-width="0.1"/>
  <path d="M 26.678010500000028,58.63710600000002 L 35.02801049999994,58.581106000000034" fill="none" instance-id="-1" semantic-id="1" stroke="rgb(178,178,0)" stroke-width="0.1"/>
  <path d="M 35.02801049999994,58.581106000000034 L 35.018010499999946,56.581106000000034" fill="none" instance-id="-1" semantic-id="1" stroke="rgb(178,178,0)" stroke-width="0.1"/>
  <path d="M 35.018010499999946,56.581106000000034 L 27.638010500000064,56.63010600000001" fill="none" instance-id="-1" semantic-id="1" stroke="rgb(178,178,0)" stroke-width="0.1"/>
  <path d="M 53.138010500000064,56.460105999999996 L 46.018010499999946,56.508106" fill="none" instance-id="-1" semantic-id="1" stroke="rgb(178,178,0)" stroke-width="0.1"/>
  <path d="M 46.018010499999946,56.508106 L 46.02801049999994,58.508106" fill="none" instance-id="-1" semantic-id="1" stroke="rgb(178,178,0)" stroke-width="0.1"/>
  <path d="M 46.02801049999994,58.508106 L 54.148010500000055,58.45310599999999" fill="none" instance-id="-1" semantic-id="1" stroke="rgb(178,178,0)" stroke-width="0.1"/>
  <path d="M 54.94801050000001,28.684105999999986 L 55.138010500000064,56.44710600000002" fill="none" instance-id="-1" semantic-id="1" stroke="rgb(178,178,0)" stroke-width="0.1"/>
  <path d="M 52.94801050000001,28.69910600000003 L 53.138010500000064,56.460105999999996" fill="none" instance-id="-1" semantic-id="1" stroke="rgb(178,178,0)" stroke-width="0.1"/>
  <path d="M 82.46801049999999,31.339106000000015 L 82.64801050000005,58.26310599999999" fill="none" instance-id="-1" semantic-id="1" stroke="rgb(178,178,0)" stroke-width="0.1"/>
  <path d="M 80.47801049999998,32.277106 L 80.63801050000006,56.27610600000003" fill="none" instance-id="-1" semantic-id="1" stroke="rgb(178,178,0)" stroke-width="0.1"/>
  <path d="M 54.148010500000055,58.45310599999999 L 62.52801049999994,58.39710600000001" fill="none" instance-id="-1" semantic-id="1" stroke="rgb(178,178,0)" stroke-width="0.1"/>
  <path d="M 62.52801049999994,58.39710600000001 L 62.518010499999946,56.39710600000001" fill="none" instance-id="-1" semantic-id="1" stroke="rgb(178,178,0)" stroke-width="0.1"/>
  <path d="M 62.518010499999946,56.39710600000001 L 55.138010500000064,56.44710600000002" fill="none" instance-id="-1" semantic-id="1" stroke="rgb(178,178,0)" stroke-width="0.1"/>
  <path d="M 80.63801050000006,56.27610600000003 L 73.51801049999995,56.32410600000003" fill="none" instance-id="-1" semantic-id="1" stroke="rgb(178,178,0)" stroke-width="0.1"/>
  <path d="M 73.51801049999995,56.32410600000003 L 73.52801049999994,58.32410600000003" fill="none" instance-id="-1" semantic-id="1" stroke="rgb(178,178,0)" stroke-width="0.1"/>
  <path d="M 73.52801049999994,58.32410600000003 L 82.64801050000005,58.26310599999999" fill="none" instance-id="-1" semantic-id="1" stroke="rgb(178,178,0)" stroke-width="0.1"/>
  <path d="M 27.4580105,30.31610599999999 L 27.638010500000064,56.63010600000001" fill="none" instance-id="-1" semantic-id="1" stroke="rgb(178,178,0)" stroke-width="0.1"/>
  <path d="M 25.44801050000001,28.931106 L 25.638010500000064,56.652106" fill="none" instance-id="-1" semantic-id="1" stroke="rgb(178,178,0)" stroke-width="0.1"/>
  <path d="M 3.108010499999864,60.002106000000026 L 1.638010500000064,56.297105999999985" fill="none" instance-id="-1" semantic-id="1" stroke="rgb(178,178,0)" stroke-width="0.1"/>
  <path d="M 1.638010500000064,56.297105999999985 L 0.0,56.94614564435483" fill="none" instance-id="-1" semantic-id="1" stroke="rgb(178,178,0)" stroke-width="0.1"/>
  <path d="M 0.0,57.592368483333416 L 1.128010500000073,60.42910599999999" fill="none" instance-id="-1" semantic-id="1" stroke="rgb(178,178,0)" stroke-width="0.1"/>
  <path d="M 1.8680105000000822,62.313106000000005 L 5.198010500000009,70.705106" fill="none" instance-id="-1" semantic-id="1" stroke="rgb(178,178,0)" stroke-width="0.1"/>
  <path d="M 5.198010500000009,70.705106 L 7.058010499999909,69.96810600000003" fill="none" instance-id="-1" semantic-id="1" stroke="rgb(178,178,0)" stroke-width="0.1"/>
  <path d="M 7.058010499999909,69.96810600000003 L 3.858010499999864,61.88810599999999" fill="none" instance-id="-1" semantic-id="1" stroke="rgb(178,178,0)" stroke-width="0.1"/>
  <path d="M 72.89772423584714,0.0 L 78.72801049999998,14.69510600000001" fill="none" instance-id="-1" semantic-id="1" stroke="rgb(178,178,0)" stroke-width="0.1"/>
  <path d="M 70.74653770251189,0.0 L 76.49801049999996,14.503106000000002" fill="none" instance-id="-1" semantic-id="1" stroke="rgb(178,178,0)" stroke-width="0.1"/>
  <path d="M 78.72801049999998,14.69510600000001 L 83.54801049999992,26.853106000000025" fill="none" instance-id="-1" semantic-id="1" stroke="rgb(178,178,0)" stroke-width="0.1"/>
  <path d="M 77.23801049999997,16.362105999999983 L 80.41801050000004,24.371105999999997" fill="none" instance-id="-1" semantic-id="1" stroke="rgb(178,178,0)" stroke-width="0.1"/>
  <path d="M 76.00801049999995,29.49510600000002 A 248.5,248.5 0.0 0,0 70.85801049999986,29.13210600000002" fill="none" instance-id="-1" semantic-id="1" stroke="rgb(178,178,0)" stroke-width="0.1"/>
  <path d="M 76.27801049999994,26.50710600000002 A 251.5,251.5 0.0 0,0 71.44801050000001,26.161106000000018" fill="none" instance-id="-1" semantic-id="1" stroke="rgb(178,178,0)" stroke-width="0.1"/>
  <path d="M 52.94801050000001,28.69910600000003 A 248.5,248.5 0.0 0,0 27.4580105,30.31610599999999" fill="none" instance-id="-1" semantic-id="1" stroke="rgb(178,178,0)" stroke-width="0.1"/>
  <path d="M 53.92801050000003,25.690106000000014 A 251.5,251.5 0.0 0,0 27.43801050000002,27.299105999999995" fill="none" instance-id="-1" semantic-id="1" stroke="rgb(178,178,0)" stroke-width="0.1"/>
  <path d="M 70.85801049999986,29.13210600000002 A 248.5,248.5 0.0 0,0 54.94801050000001,28.684105999999986" fill="none" instance-id="-1" semantic-id="1" stroke="rgb(178,178,0)" stroke-width="0.1"/>
  <path d="M 69.23801049999997,26.035105999999985 A 251.5,251.5 0.0 0,0 53.92801050000003,25.690106000000014" fill="none" instance-id="-1" semantic-id="1" stroke="rgb(178,178,0)" stroke-width="0.1"/>
  <path d="M 18.32801049999989,59.287105999999994 A 253.0,253.0 0.0 0,0 3.858010499999864,61.88810599999999" fill="none" instance-id="-1" semantic-id="1" stroke="rgb(178,178,0)" stroke-width="0.1"/>
  <path d="M 18.028010499999937,57.309105999999986 A 255.0,255.0 0.0 0,0 3.108010499999864,60.002106000000026" fill="none" instance-id="-1" semantic-id="1" stroke="rgb(178,178,0)" stroke-width="0.1"/>
  <path d="M 26.678010500000028,58.63710600000002 A 59.0,59.0 0.0 0,0 18.32801049999989,59.287105999999994" fill="none" instance-id="-1" semantic-id="1" stroke="rgb(178,178,0)" stroke-width="0.1"/>
  <path d="M 25.638010500000064,56.652106 A 61.0,61.0 0.0 0,0 18.028010499999937,57.309105999999986" fill="none" instance-id="-1" semantic-id="1" stroke="rgb(178,178,0)" stroke-width="0.1"/>
  <path d="M 1.128010500000073,60.42910599999999 L 0.6051431421412872,60.54446004696655" fill="none" instance-id="-1" semantic-id="1" stroke="rgb(178,178,0)" stroke-width="0.1"/>
  <path d="M 0.6051431421412872,60.54446004696655 L 0.08251915352661854,60.660911739054086" fill="none" instance-id="-1" semantic-id="1" stroke="rgb(178,178,0)" stroke-width="0.1"/>
  <path d="M 1.8680105000000822,62.313106000000005 L 1.285052111015375,62.44104444056836" fill="none" instance-id="-1" semantic-id="1" stroke="rgb(178,178,0)" stroke-width="0.1"/>
  <path d="M 1.285052111015375,62.44104444056836 L 0.7023971533294571,62.570357735116204" fill="none" instance-id="-1" semantic-id="1" stroke="rgb(178,178,0)" stroke-width="0.1"/>
  <path d="M 0.7023971533294571,62.570357735116204 L 0.12004886940485449,62.7010451640179" fill="none" instance-id="-1" semantic-id="1" stroke="rgb(178,178,0)" stroke-width="0.1"/>
 </g>
 <g id="layerWINDOW" inkscape:groupmode="layer" inkscape:label="WINDOW">
  <path d="M 34.648010500000055,55.551106000000004 L 40.148010500000055,55.515106" fill="none" instance-id="8" semantic-id="5" stroke="rgb(0,178,0)" stroke-width="0.1"/>
  <path d="M 34.648010500000055,55.91710599999999 L 40.148010500000055,55.88010600000001" fill="none" instance-id="8" semantic-id="5" stroke="rgb(0,178,0)" stroke-width="0.1"/>
  <path d="M 46.37801050000007,55.47310600000003 L 46.37801050000007,55.839106000000015" fill="none" instance-id="8" semantic-id="5" stroke="rgb(0,178,0)" stroke-width="0.1"/>
  <path d="M 34.648010500000055,55.551106000000004 L 34.648010500000055,55.91710599999999" fill="none" instance-id="8" semantic-id="5" stroke="rgb(0,178,0)" stroke-width="0.1"/>
  <path d="M 40.87801050000007,55.51010600000001 L 40.87801050000007,55.87610599999999" fill="none" instance-id="8" semantic-id="5" stroke="rgb(0,178,0)" stroke-width="0.1"/>
  <path d="M 40.87801050000007,55.87610599999999 L 46.37801050000007,55.839106000000015" fill="none" instance-id="8" semantic-id="5" stroke="rgb(0,178,0)" stroke-width="0.1"/>
  <path d="M 40.87801050000007,55.51010600000001 L 46.37801050000007,55.47310600000003" fill="none" instance-id="8" semantic-id="5" stroke="rgb(0,178,0)" stroke-width="0.1"/>
  <path d="M 40.148010500000055,55.515106 L 40.148010500000055,55.88010600000001" fill="none" instance-id="8" semantic-id="5" stroke="rgb(0,178,0)" stroke-width="0.1"/>
  <path d="M 35.018010499999946,56.581106000000034 L 46.018010499999946,56.508106" fill="none" instance-id="8" semantic-id="5" stroke="rgb(0,178,0)" stroke-width="0.1"/>
  <path d="M 62.148010500000055,55.36810600000001 L 67.64801050000005,55.331106000000034" fill="none" instance-id="9" semantic-id="5" stroke="rgb(0,178,0)" stroke-width="0.1"/>
  <path d="M 62.148010500000055,55.73310600000002 L 67.64801050000005,55.69710600000002" fill="none" instance-id="9" semantic-id="5" stroke="rgb(0,178,0)" stroke-width="0.1"/>
  <path d="M 73.87801050000007,55.289106000000004 L 73.87801050000007,55.65510599999999" fill="none" instance-id="9" semantic-id="5" stroke="rgb(0,178,0)" stroke-width="0.1"/>
  <path d="M 62.148010500000055,55.36810600000001 L 62.148010500000055,55.73310600000002" fill="none" instance-id="9" semantic-id="5" stroke="rgb(0,178,0)" stroke-width="0.1"/>
  <path d="M 68.37801050000007,55.32610599999998 L 68.37801050000007,55.692106000000024" fill="none" instance-id="9" semantic-id="5" stroke="rgb(0,178,0)" stroke-width="0.1"/>
  <path d="M 68.37801050000007,55.692106000000024 L 73.87801050000007,55.65510599999999" fill="none" instance-id="9" semantic-id="5" stroke="rgb(0,178,0)" stroke-width="0.1"/>
  <path d="M 68.37801050000007,55.32610599999998 L 73.87801050000007,55.289106000000004" fill="none" instance-id="9" semantic-id="5" stroke="rgb(0,178,0)" stroke-width="0.1"/>
  <path d="M 67.64801050000005,55.331106000000034 L 67.64801050000005,55.69710600000002" fill="none" instance-id="9" semantic-id="5" stroke="rgb(0,178,0)" stroke-width="0.1"/>
  <path d="M 62.518010499999946,56.39710600000001 L 73.51801049999995,56.32410600000003" fill="none" instance-id="9" semantic-id="5" stroke="rgb(0,178,0)" stroke-width="0.1"/>
  <path d="M 0.7080105000000003,56.66510599999998 L 7.508010499999955,53.96910600000001" fill="none" instance-id="10" semantic-id="4" stroke="rgb(0,178,0)" stroke-width="0.1"/>
  <path d="M 0.5680104999999003,56.317106000000024 L 7.368010500000082,53.62010600000002" fill="none" instance-id="10" semantic-id="4" stroke="rgb(0,178,0)" stroke-width="0.1"/>
  <path d="M 0.7080105000000003,56.66510599999998 L 0.5680104999999003,56.317106000000024" fill="none" instance-id="10" semantic-id="4" stroke="rgb(0,178,0)" stroke-width="0.1"/>
  <path d="M 7.368010500000082,53.62010600000002 L 7.508010499999955,53.96910600000001" fill="none" instance-id="10" semantic-id="4" stroke="rgb(0,178,0)" stroke-width="0.1"/>
  <path d="M 0.0,41.21141149609713 L 2.108010499999864,40.37410599999998" fill="none" instance-id="10" semantic-id="4" stroke="rgb(0,178,0)" stroke-width="0.1"/>
  <path d="M 0.0,40.80780324867453 L 1.9680104999999912,40.02610600000003" fill="none" instance-id="10" semantic-id="4" stroke="rgb(0,178,0)" stroke-width="0.1"/>
  <path d="M 2.108010499999864,40.37410599999998 L 1.9680104999999912,40.02610600000003" fill="none" instance-id="10" semantic-id="4" stroke="rgb(0,178,0)" stroke-width="0.1"/>
  <path d="M 7.368010500000082,53.621106 L 7.149991284352836,53.15571555079407" fill="none" instance-id="10" semantic-id="4" stroke="rgb(0,178,0)" stroke-width="0.1"/>
  <path d="M 7.149991284352836,53.15571555079407 L 6.899822799248568,52.70678751907394" fill="none" instance-id="10" semantic-id="4" stroke="rgb(0,178,0)" stroke-width="0.1"/>
  <path d="M 6.899822799248568,52.70678751907394 L 6.618740716658294,52.276539321576195" fill="none" instance-id="10" semantic-id="4" stroke="rgb(0,178,0)" stroke-width="0.1"/>
  <path d="M 6.618740716658294,52.276539321576195 L 6.308133401910254,51.86709610862897" fill="none" instance-id="10" semantic-id="4" stroke="rgb(0,178,0)" stroke-width="0.1"/>
  <path d="M 6.308133401910254,51.86709610862897 L 5.969535056056202,51.4804802672719" fill="none" instance-id="10" semantic-id="4" stroke="rgb(0,178,0)" stroke-width="0.1"/>
  <path d="M 5.969535056056202,51.4804802672719 L 5.604618137899706,51.11860143196003" fill="none" instance-id="10" semantic-id="4" stroke="rgb(0,178,0)" stroke-width="0.1"/>
  <path d="M 5.604618137899706,51.11860143196003 L 5.215185103123531,50.78324705219376" fill="none" instance-id="10" semantic-id="4" stroke="rgb(0,178,0)" stroke-width="0.1"/>
  <path d="M 5.215185103123531,50.78324705219376 L 4.803159501312393,50.47607356366393" fill="none" instance-id="10" semantic-id="4" stroke="rgb(0,178,0)" stroke-width="0.1"/>
  <path d="M 4.803159501312393,50.47607356366393 L 4.3705764748517595,50.198598206521126" fill="none" instance-id="10" semantic-id="4" stroke="rgb(0,178,0)" stroke-width="0.1"/>
  <path d="M 4.3705764748517595,50.198598206521126 L 3.919572706628287,49.952191531181995" fill="none" instance-id="10" semantic-id="4" stroke="rgb(0,178,0)" stroke-width="0.1"/>
  <path d="M 3.919572706628287,49.952191531181995 L 3.4523758661864576,49.73807062868849" fill="none" instance-id="10" semantic-id="4" stroke="rgb(0,178,0)" stroke-width="0.1"/>
  <path d="M 3.4523758661864576,49.73807062868849 L 2.9712936064686346,49.55729311905827" fill="none" instance-id="10" semantic-id="4" stroke="rgb(0,178,0)" stroke-width="0.1"/>
  <path d="M 2.9712936064686346,49.55729311905827 L 2.47870216548813,49.41075192731955" fill="none" instance-id="10" semantic-id="4" stroke="rgb(0,178,0)" stroke-width="0.1"/>
  <path d="M 2.47870216548813,49.41075192731955 L 1.9770346292373233,49.299170873034086" fill="none" instance-id="10" semantic-id="4" stroke="rgb(0,178,0)" stroke-width="0.1"/>
  <path d="M 1.9770346292373233,49.299170873034086 L 1.4687689138015685,49.22310109509226" fill="none" instance-id="10" semantic-id="4" stroke="rgb(0,178,0)" stroke-width="0.1"/>
  <path d="M 1.4687689138015685,49.22310109509226 L 0.9564155260427469,49.18291832944021" fill="none" instance-id="10" semantic-id="4" stroke="rgb(0,178,0)" stroke-width="0.1"/>
  <path d="M 0.9564155260427469,49.18291832944021 L 0.4425051633036219,49.17882105318506" fill="none" instance-id="10" semantic-id="4" stroke="rgb(0,178,0)" stroke-width="0.1"/>
  <path d="M 0.11244698933819564,48.352110482103626 L 0.48339615193731333,47.996927708276644" fill="none" instance-id="10" semantic-id="4" stroke="rgb(0,178,0)" stroke-width="0.1"/>
  <path d="M 0.48339615193731333,47.996927708276644 L 0.8285005219142931,47.616584366177335" fill="none" instance-id="10" semantic-id="4" stroke="rgb(0,178,0)" stroke-width="0.1"/>
  <path d="M 0.8285005219142931,47.616584366177335 L 1.1460578448118213,47.212956529265" fill="none" instance-id="10" semantic-id="4" stroke="rgb(0,178,0)" stroke-width="0.1"/>
  <path d="M 1.1460578448118213,47.212956529265 L 1.434501744150566,46.788035123601844" fill="none" instance-id="10" semantic-id="4" stroke="rgb(0,178,0)" stroke-width="0.1"/>
  <path d="M 1.434501744150566,46.788035123601844 L 1.6924094477026301,46.34391610745308" fill="none" instance-id="10" semantic-id="4" stroke="rgb(0,178,0)" stroke-width="0.1"/>
  <path d="M 1.6924094477026301,46.34391610745308 L 1.9185088054287007,45.882790132808054" fill="none" instance-id="10" semantic-id="4" stroke="rgb(0,178,0)" stroke-width="0.1"/>
  <path d="M 1.9185088054287007,45.882790132808054 L 2.111684564457846,45.40693173981708" fill="none" instance-id="10" semantic-id="4" stroke="rgb(0,178,0)" stroke-width="0.1"/>
  <path d="M 2.111684564457846,45.40693173981708 L 2.27098387016008,44.91868813744293" fill="none" instance-id="10" semantic-id="4" stroke="rgb(0,178,0)" stroke-width="0.1"/>
  <path d="M 2.27098387016008,44.91868813744293 L 2.3956209661766934,44.420467625668266" fill="none" instance-id="10" semantic-id="4" stroke="rgb(0,178,0)" stroke-width="0.1"/>
  <path d="M 2.3956209661766934,44.420467625668266 L 2.4849810702253308,43.9147277163662" fill="none" instance-id="10" semantic-id="4" stroke="rgb(0,178,0)" stroke-width="0.1"/>
  <path d="M 2.4849810702253308,43.9147277163662 L 2.5386234065622375,43.40396301142982" fill="none" instance-id="10" semantic-id="4" stroke="rgb(0,178,0)" stroke-width="0.1"/>
  <path d="M 2.5386234065622375,43.40396301142982 L 2.5562833801432134,42.890692897951965" fill="none" instance-id="10" semantic-id="4" stroke="rgb(0,178,0)" stroke-width="0.1"/>
  <path d="M 2.5562833801432134,42.890692897951965 L 2.5378738817585145,42.37744912115022" fill="none" instance-id="10" semantic-id="4" stroke="rgb(0,178,0)" stroke-width="0.1"/>
  <path d="M 2.5378738817585145,42.37744912115022 L 2.4834857177079357,41.86676329633457" fill="none" instance-id="10" semantic-id="4" stroke="rgb(0,178,0)" stroke-width="0.1"/>
  <path d="M 2.4834857177079357,41.86676329633457 L 2.3933871618896774,41.36115442151544" fill="none" instance-id="10" semantic-id="4" stroke="rgb(0,178,0)" stroke-width="0.1"/>
  <path d="M 2.3933871618896774,41.36115442151544 L 2.2680226325187505,40.86311645224794" fill="none" instance-id="10" semantic-id="4" stroke="rgb(0,178,0)" stroke-width="0.1"/>
  <path d="M 2.2680226325187505,40.86311645224794 L 2.108010499999864,40.37510600000002" fill="none" instance-id="10" semantic-id="4" stroke="rgb(0,178,0)" stroke-width="0.1"/>
 </g>
 <g id="layerWINDOW_TEXT" inkscape:groupmode="layer" inkscape:label="WINDOW_TEXT">
  <text fill="rgb(178,0,178)" font-family="Noto Sans CJK SC" font-size="2" transform="rotate(-291.64,4.968010499999991,39.57410600000003)" x="4.968010499999991" y="39.57410600000003">
   M1523
  </text>
 </g>
 <g id="layers-消火栓" inkscape:groupmode="layer" inkscape:label="s-消火栓">
  <path d="M 76.15801050000005,14.725105999999982 L 75.80801049999991,7.333105999999987" fill="none" stroke="rgb(178,88,0)" stroke-width="0.1"/>
  <path d="M 78.38801050000006,13.840105999999992 L 75.80801049999991,7.333105999999987" fill="none" stroke="rgb(178,88,0)" stroke-width="0.1"/>
  <path d="M 75.80801049999991,7.333105999999987 L 73.57801049999989,8.218106000000034" fill="none" stroke="rgb(178,88,0)" stroke-width="0.1"/>
  <path d="M 73.57801049999989,8.218106000000034 L 76.15801050000005,14.725105999999982" fill="none" stroke="rgb(178,88,0)" stroke-width="0.1"/>
  <path d="M 76.15801050000005,14.725105999999982 L 78.38801050000006,13.840105999999992" fill="none" stroke="rgb(178,88,0)" stroke-width="0.1"/>
  <path d="M 73.57801049999989,8.218106000000034 L 76.15801050000005,14.725105999999982" fill="none" stroke="rgb(178,88,0)" stroke-width="0.1"/>
  <path d="M 76.15801050000005,14.725105999999982 L 75.80801049999991,7.333105999999987" fill="none" stroke="rgb(178,88,0)" stroke-width="0.1"/>
  <path d="M 75.80801049999991,7.333105999999987 L 73.57801049999989,8.218106000000034" fill="none" stroke="rgb(178,88,0)" stroke-width="0.1"/>
 </g>
</svg>