<?xml version="1.0" encoding="utf-8"?>
<svg style="background-color: #000;" version="1.1" viewBox="0 0 100.0 100.0" xmlns="http://www.w3.org/2000/svg" xmlns:inkscape="http://www.inkscape.org/namespaces/inkscape">
 <g id="layer0-结构边线" inkscape:groupmode="layer" inkscape:label="0-结构边线">
  <path d="M 73.06801049999996,67.73910599999999 L 80.50401049999999,64.78910600000006" fill="none" stroke="rgb(178,0,178)" stroke-width="0.1"/>
  <path d="M 80.50401049999999,64.78910600000006 L 77.55401049999995,57.353106000000025" fill="none" stroke="rgb(178,0,178)" stroke-width="0.1"/>
  <path d="M 70.11801049999997,60.30310599999996 L 77.55401049999995,57.353106000000025" fill="none" stroke="rgb(178,0,178)" stroke-width="0.1"/>
  <path d="M 73.06801049999996,67.73910599999999 L 70.11801049999997,60.30310599999996" fill="none" stroke="rgb(178,0,178)" stroke-width="0.1"/>
  <path d="M 94.47338103523396,100.0 L 91.93601049999995,93.604106" fill="none" stroke="rgb(178,0,178)" stroke-width="0.1"/>
  <path d="M 82.6410105,97.29210599999999 L 91.93601049999995,93.604106" fill="none" stroke="rgb(178,0,178)" stroke-width="0.1"/>
  <path d="M 83.71528259521244,100.0 L 82.6410105,97.29210599999999" fill="none" stroke="rgb(178,0,178)" stroke-width="0.1"/>
 </g>
 <g id="layerA-FUR" inkscape:groupmode="layer" inkscape:label="A-FUR">
  <path d="M 26.40801049999999,1.397106000000008 L 25.8450105,0.7751060000000507" fill="none" stroke="rgb(92,92,92)" stroke-width="0.1"/>
  <path d="M 26.89601049999999,0.9621060000000625 L 29.330727724489748,0.0" fill="none" stroke="rgb(92,92,92)" stroke-width="0.1"/>
  <path d="M 26.528010499999993,0.9611059999999725 L 25.788010499999984,0.6681059999999661" fill="none" stroke="rgb(92,92,92)" stroke-width="0.1"/>
  <path d="M 27.08001236666655,0.0 L 26.948010499999953,0.05210599999998067" fill="none" stroke="rgb(92,92,92)" stroke-width="0.1"/>
  <path d="M 26.948010499999953,0.05210599999998067 L 27.08001236666655,0.0" fill="none" stroke="rgb(92,92,92)" stroke-width="0.1"/>
  <path d="M 29.945077842015962,0.0 L 26.40801049999999,1.397106000000008" fill="none" stroke="rgb(92,92,92)" stroke-width="0.1"/>
  <path d="M 26.435010499999976,1.3861060000000407 L 29.945001364648874,0.0" fill="none" stroke="rgb(92,92,92)" stroke-width="0.1"/>
  <path d="M 19.436010499999952,4.163105999999971 L 18.874010499999997,3.540106000000037" fill="none" instance-id="5" semantic-id="23" stroke="rgb(92,92,92)" stroke-width="0.1"/>
  <path d="M 23.90801049999999,2.397106000000008 L 23.893010499999946,1.5581059999999525" fill="none" instance-id="5" semantic-id="23" stroke="rgb(92,92,92)" stroke-width="0.1"/>
  <path d="M 19.925010499999985,3.727106000000049 L 23.273010499999998,2.405106000000046" fill="none" instance-id="5" semantic-id="23" stroke="rgb(92,92,92)" stroke-width="0.1"/>
  <path d="M 23.550010499999985,2.1361060000000407 L 23.86601049999996,1.3901060000000598" fill="none" instance-id="5" semantic-id="23" stroke="rgb(92,92,92)" stroke-width="0.1"/>
  <path d="M 19.55701049999999,3.727106000000049 L 18.81701049999998,3.4341060000000425" fill="none" instance-id="5" semantic-id="23" stroke="rgb(92,92,92)" stroke-width="0.1"/>
  <path d="M 22.598010499999987,1.7821059999999989 L 19.976010499999973,2.818106000000057" fill="none" instance-id="5" semantic-id="23" stroke="rgb(92,92,92)" stroke-width="0.1"/>
  <path d="M 19.976010499999973,2.818106000000057 L 22.598010499999987,1.7821059999999989" fill="none" instance-id="5" semantic-id="23" stroke="rgb(92,92,92)" stroke-width="0.1"/>
  <path d="M 23.90801049999999,2.397106000000008 L 19.436010499999952,4.163105999999971" fill="none" instance-id="5" semantic-id="23" stroke="rgb(92,92,92)" stroke-width="0.1"/>
  <path d="M 19.463010499999996,4.152106000000003 L 23.898010499999998,2.401106000000027" fill="none" instance-id="5" semantic-id="23" stroke="rgb(92,92,92)" stroke-width="0.1"/>
  <path d="M 5.4930104999999685,9.694106000000033 L 4.931010499999957,9.072105999999962" fill="none" instance-id="3" semantic-id="23" stroke="rgb(92,92,92)" stroke-width="0.1"/>
  <path d="M 9.965010499999948,7.928105999999957 L 9.950010499999962,7.090105999999992" fill="none" instance-id="3" semantic-id="23" stroke="rgb(92,92,92)" stroke-width="0.1"/>
  <path d="M 5.982010500000001,9.259105999999974 L 9.330010499999958,7.937105999999972" fill="none" instance-id="3" semantic-id="23" stroke="rgb(92,92,92)" stroke-width="0.1"/>
  <path d="M 9.607010500000001,7.66710599999999 L 9.923010499999975,6.921106000000009" fill="none" instance-id="3" semantic-id="23" stroke="rgb(92,92,92)" stroke-width="0.1"/>
  <path d="M 5.614010499999949,9.259105999999974 L 4.874010499999997,8.965105999999992" fill="none" instance-id="3" semantic-id="23" stroke="rgb(92,92,92)" stroke-width="0.1"/>
  <path d="M 8.655010499999946,7.314106000000038 L 6.033010499999989,8.349106000000006" fill="none" instance-id="3" semantic-id="23" stroke="rgb(92,92,92)" stroke-width="0.1"/>
  <path d="M 6.033010499999989,8.349106000000006 L 8.655010499999946,7.314106000000038" fill="none" instance-id="3" semantic-id="23" stroke="rgb(92,92,92)" stroke-width="0.1"/>
  <path d="M 9.965010499999948,7.928105999999957 L 5.4930104999999685,9.694106000000033" fill="none" instance-id="3" semantic-id="23" stroke="rgb(92,92,92)" stroke-width="0.1"/>
  <path d="M 5.520010499999955,9.684106000000043 L 9.955010499999958,7.932105999999976" fill="none" instance-id="3" semantic-id="23" stroke="rgb(92,92,92)" stroke-width="0.1"/>
  <path d="M 12.465010499999948,6.928105999999957 L 11.90201049999996,6.306106" fill="none" instance-id="4" semantic-id="23" stroke="rgb(92,92,92)" stroke-width="0.1"/>
  <path d="M 16.936010499999952,5.163105999999971 L 16.9220105,4.324106000000029" fill="none" instance-id="4" semantic-id="23" stroke="rgb(92,92,92)" stroke-width="0.1"/>
  <path d="M 12.954010499999981,6.493106000000012 L 16.302010499999994,5.171106000000009" fill="none" instance-id="4" semantic-id="23" stroke="rgb(92,92,92)" stroke-width="0.1"/>
  <path d="M 16.578010499999948,4.901106000000027 L 16.895010499999955,4.1561060000000225" fill="none" instance-id="4" semantic-id="23" stroke="rgb(92,92,92)" stroke-width="0.1"/>
  <path d="M 12.586010499999986,6.493106000000012 L 11.846010499999977,6.199106000000029" fill="none" instance-id="4" semantic-id="23" stroke="rgb(92,92,92)" stroke-width="0.1"/>
  <path d="M 15.627010499999983,4.548105999999962 L 13.005010499999969,5.58410600000002" fill="none" instance-id="4" semantic-id="23" stroke="rgb(92,92,92)" stroke-width="0.1"/>
  <path d="M 13.005010499999969,5.58410600000002 L 15.627010499999983,4.548105999999962" fill="none" instance-id="4" semantic-id="23" stroke="rgb(92,92,92)" stroke-width="0.1"/>
  <path d="M 16.936010499999952,5.163105999999971 L 12.465010499999948,6.928105999999957" fill="none" instance-id="4" semantic-id="23" stroke="rgb(92,92,92)" stroke-width="0.1"/>
  <path d="M 12.492010499999992,6.918105999999966 L 16.92601049999996,5.166106000000013" fill="none" instance-id="4" semantic-id="23" stroke="rgb(92,92,92)" stroke-width="0.1"/>
  <path d="M 2.9930104999999685,10.694106000000033 L 2.9790104999999585,9.855105999999978" fill="none" stroke="rgb(92,92,92)" stroke-width="0.1"/>
  <path d="M 0.0,11.63429563306454 L 2.359010499999954,10.702105999999958" fill="none" stroke="rgb(92,92,92)" stroke-width="0.1"/>
  <path d="M 2.6350104999999644,10.433105999999952 L 2.9520104999999717,9.687105999999972" fill="none" stroke="rgb(92,92,92)" stroke-width="0.1"/>
  <path d="M 1.6840104999999994,10.080106 L 0.0,10.744846986842049" fill="none" stroke="rgb(92,92,92)" stroke-width="0.1"/>
  <path d="M 0.0,10.744846986842049 L 1.6840104999999994,10.080106" fill="none" stroke="rgb(92,92,92)" stroke-width="0.1"/>
  <path d="M 2.9930104999999685,10.694106000000033 L 0.0,11.876315023260986" fill="none" stroke="rgb(92,92,92)" stroke-width="0.1"/>
  <path d="M 0.0,11.876235060992144 L 2.984010499999954,10.698106000000053" fill="none" stroke="rgb(92,92,92)" stroke-width="0.1"/>
  <path d="M 25.578472702026602,0.3219168167374846 L 25.8450105,0.7751060000000507" fill="none" stroke="rgb(92,92,92)" stroke-width="0.1"/>
  <path d="M 26.528010499999993,0.9611059999999725 A 0.5,0.5 0.0 0,0 26.89601049999999,0.9621060000000625" fill="none" stroke="rgb(92,92,92)" stroke-width="0.1"/>
  <path d="M 26.37340440849823,0.10035281109423977 L 26.948010499999953,0.05210599999998067" fill="none" stroke="rgb(92,92,92)" stroke-width="0.1"/>
  <path d="M 18.81333054129624,0.07284732101538793 L 18.56281349449523,0.5350854012693844" fill="none" instance-id="5" semantic-id="23" stroke="rgb(92,92,92)" stroke-width="0.1"/>
  <path d="M 18.56281349449523,0.5350854012693844 L 18.394799693475875,1.0332763247533876" fill="none" instance-id="5" semantic-id="23" stroke="rgb(92,92,92)" stroke-width="0.1"/>
  <path d="M 18.394799693475875,1.0332763247533876 L 18.314212066284426,1.5528227306870122" fill="none" instance-id="5" semantic-id="23" stroke="rgb(92,92,92)" stroke-width="0.1"/>
  <path d="M 18.314212066284426,1.5528227306870122 L 18.323411889718727,2.0785015269339056" fill="none" instance-id="5" semantic-id="23" stroke="rgb(92,92,92)" stroke-width="0.1"/>
  <path d="M 18.323411889718727,2.0785015269339056 L 18.42212960218012,2.5949099378076426" fill="none" instance-id="5" semantic-id="23" stroke="rgb(92,92,92)" stroke-width="0.1"/>
  <path d="M 18.42212960218012,2.5949099378076426 L 18.607472702026598,3.0869168167373573" fill="none" instance-id="5" semantic-id="23" stroke="rgb(92,92,92)" stroke-width="0.1"/>
  <path d="M 18.607472702026598,3.0869168167373573 L 18.874010499999997,3.540106000000037" fill="none" instance-id="5" semantic-id="23" stroke="rgb(92,92,92)" stroke-width="0.1"/>
  <path d="M 19.55701049999999,3.727106000000049 A 0.5,0.5 0.0 0,0 19.925010499999985,3.727106000000049" fill="none" instance-id="5" semantic-id="23" stroke="rgb(92,92,92)" stroke-width="0.1"/>
  <path d="M 23.273010499999998,2.405106000000046 A 0.5,0.5 0.0 0,0 23.550010499999985,2.1361060000000407" fill="none" instance-id="5" semantic-id="23" stroke="rgb(92,92,92)" stroke-width="0.1"/>
  <path d="M 19.095717312525494,0.11903758384551111 L 18.822720448997472,0.5595143596295884" fill="none" instance-id="5" semantic-id="23" stroke="rgb(92,92,92)" stroke-width="0.1"/>
  <path d="M 18.822720448997472,0.5595143596295884 L 18.649168912310756,1.047804172768224" fill="none" instance-id="5" semantic-id="23" stroke="rgb(92,92,92)" stroke-width="0.1"/>
  <path d="M 18.649168912310756,1.047804172768224 L 18.582931228677694,1.561768808485681" fill="none" instance-id="5" semantic-id="23" stroke="rgb(92,92,92)" stroke-width="0.1"/>
  <path d="M 18.582931228677694,1.561768808485681 L 18.627010499999983,2.078106000000048" fill="none" instance-id="5" semantic-id="23" stroke="rgb(92,92,92)" stroke-width="0.1"/>
  <path d="M 18.627010499999983,2.078106000000048 A 1.0,1.0 0.0 0,0 19.976010499999973,2.818106000000057" fill="none" instance-id="5" semantic-id="23" stroke="rgb(92,92,92)" stroke-width="0.1"/>
  <path d="M 22.598010499999987,1.7821059999999989 A 1.0,1.0 0.0 0,0 23.078010499999948,0.3211059999999861" fill="none" instance-id="5" semantic-id="23" stroke="rgb(92,92,92)" stroke-width="0.1"/>
  <path d="M 23.893010499999946,1.5581059999999525 L 23.781582537045892,1.0566663996637544" fill="none" instance-id="5" semantic-id="23" stroke="rgb(92,92,92)" stroke-width="0.1"/>
  <path d="M 23.781582537045892,1.0566663996637544 L 23.588146316441225,0.5808089711501907" fill="none" instance-id="5" semantic-id="23" stroke="rgb(92,92,92)" stroke-width="0.1"/>
  <path d="M 23.588146316441225,0.5808089711501907 L 23.31811202743063,0.14384290098928432" fill="none" instance-id="5" semantic-id="23" stroke="rgb(92,92,92)" stroke-width="0.1"/>
  <path d="M 5.1960105,5.192105999999967 A 3.07148,3.07148 0.0 0,0 4.931010499999957,9.072105999999962" fill="none" instance-id="3" semantic-id="23" stroke="rgb(92,92,92)" stroke-width="0.1"/>
  <path d="M 5.614010499999949,9.259105999999974 A 0.5,0.5 0.0 0,0 5.982010500000001,9.259105999999974" fill="none" instance-id="3" semantic-id="23" stroke="rgb(92,92,92)" stroke-width="0.1"/>
  <path d="M 9.330010499999958,7.937105999999972 A 0.5,0.5 0.0 0,0 9.607010500000001,7.66710599999999" fill="none" instance-id="3" semantic-id="23" stroke="rgb(92,92,92)" stroke-width="0.1"/>
  <path d="M 9.135010499999964,5.852106000000049 A 2.43376,2.43376 0.0 0,0 4.684010499999999,7.610105999999973" fill="none" instance-id="3" semantic-id="23" stroke="rgb(92,92,92)" stroke-width="0.1"/>
  <path d="M 4.684010499999999,7.610105999999973 A 1.0,1.0 0.0 0,0 6.033010499999989,8.349106000000006" fill="none" instance-id="3" semantic-id="23" stroke="rgb(92,92,92)" stroke-width="0.1"/>
  <path d="M 8.655010499999946,7.314106000000038 A 1.0,1.0 0.0 0,0 9.135010499999964,5.852106000000049" fill="none" instance-id="3" semantic-id="23" stroke="rgb(92,92,92)" stroke-width="0.1"/>
  <path d="M 9.950010499999962,7.090105999999992 A 3.07148,3.07148 0.0 0,0 7.202010499999972,4.44510600000001" fill="none" instance-id="3" semantic-id="23" stroke="rgb(92,92,92)" stroke-width="0.1"/>
  <path d="M 7.202010499999972,4.44510600000001 A 2.50177,2.50177 0.0 0,0 5.1960105,5.192105999999967" fill="none" instance-id="3" semantic-id="23" stroke="rgb(92,92,92)" stroke-width="0.1"/>
  <path d="M 12.167010499999947,2.4261060000000043 A 3.07148,3.07148 0.0 0,0 11.90201049999996,6.306106" fill="none" instance-id="4" semantic-id="23" stroke="rgb(92,92,92)" stroke-width="0.1"/>
  <path d="M 12.586010499999986,6.493106000000012 A 0.5,0.5 0.0 0,0 12.954010499999981,6.493106000000012" fill="none" instance-id="4" semantic-id="23" stroke="rgb(92,92,92)" stroke-width="0.1"/>
  <path d="M 16.302010499999994,5.171106000000009 A 0.5,0.5 0.0 0,0 16.578010499999948,4.901106000000027" fill="none" instance-id="4" semantic-id="23" stroke="rgb(92,92,92)" stroke-width="0.1"/>
  <path d="M 16.106010499999968,3.0871060000000625 A 2.43376,2.43376 0.0 0,0 11.65601049999998,4.844106000000011" fill="none" instance-id="4" semantic-id="23" stroke="rgb(92,92,92)" stroke-width="0.1"/>
  <path d="M 11.65601049999998,4.844106000000011 A 1.0,1.0 0.0 0,0 13.005010499999969,5.58410600000002" fill="none" instance-id="4" semantic-id="23" stroke="rgb(92,92,92)" stroke-width="0.1"/>
  <path d="M 15.627010499999983,4.548105999999962 A 1.0,1.0 0.0 0,0 16.106010499999968,3.0871060000000625" fill="none" instance-id="4" semantic-id="23" stroke="rgb(92,92,92)" stroke-width="0.1"/>
  <path d="M 16.9220105,4.324106000000029 A 3.07148,3.07148 0.0 0,0 14.173010499999975,1.6801060000000234" fill="none" instance-id="4" semantic-id="23" stroke="rgb(92,92,92)" stroke-width="0.1"/>
  <path d="M 14.173010499999975,1.6801060000000234 A 2.50177,2.50177 0.0 0,0 12.167010499999947,2.4261060000000043" fill="none" instance-id="4" semantic-id="23" stroke="rgb(92,92,92)" stroke-width="0.1"/>
  <path d="M 2.359010499999954,10.702105999999958 A 0.5,0.5 0.0 0,0 2.6350104999999644,10.433105999999952" fill="none" stroke="rgb(92,92,92)" stroke-width="0.1"/>
  <path d="M 2.1640104999999608,8.618106000000012 L 1.8435009203341224,8.210699701521662" fill="none" stroke="rgb(92,92,92)" stroke-width="0.1"/>
  <path d="M 1.8435009203341224,8.210699701521662 L 1.443980932782381,7.8804118539644605" fill="none" stroke="rgb(92,92,92)" stroke-width="0.1"/>
  <path d="M 1.443980932782381,7.8804118539644605 L 0.9835748203278172,7.642226014100061" fill="none" stroke="rgb(92,92,92)" stroke-width="0.1"/>
  <path d="M 0.9835748203278172,7.642226014100061 L 0.4831689739628473,7.50694751757851" fill="none" stroke="rgb(92,92,92)" stroke-width="0.1"/>
  <path d="M 1.6840104999999994,10.080106 A 1.0,1.0 0.0 0,0 2.1640104999999608,8.618106000000012" fill="none" stroke="rgb(92,92,92)" stroke-width="0.1"/>
  <path d="M 2.9790104999999585,9.855105999999978 A 3.07148,3.07148 0.0 0,0 0.23001049999999168,7.2111059999999725" fill="none" stroke="rgb(92,92,92)" stroke-width="0.1"/>
  <path d="M 0.0,6.358741633557429 L 16.02783567261156,0.0" fill="none" stroke="rgb(92,92,92)" stroke-width="0.1"/>
  <circle cx="27.483010499999978" cy="0.2731059999999843" fill="none" r="0.163399" stroke="rgb(92,92,92)" stroke-width="0.1"/>
  <circle cx="20.512010499999974" cy="3.0391060000000607" fill="none" instance-id="5" r="0.163399" semantic-id="23" stroke="rgb(92,92,92)" stroke-width="0.1"/>
  <circle cx="22.372010499999988" cy="2.3051060000000234" fill="none" instance-id="5" r="0.163399" semantic-id="23" stroke="rgb(92,92,92)" stroke-width="0.1"/>
  <circle cx="21.060010499999976" cy="1.6671059999999898" fill="none" instance-id="5" r="0.229752" semantic-id="23" stroke="rgb(92,92,92)" stroke-width="0.1"/>
  <circle cx="21.060010499999976" cy="1.6671059999999898" fill="none" instance-id="5" r="0.316096" semantic-id="23" stroke="rgb(92,92,92)" stroke-width="0.1"/>
  <circle cx="6.56901049999999" cy="8.571105999999986" fill="none" instance-id="3" r="0.163399" semantic-id="23" stroke="rgb(92,92,92)" stroke-width="0.1"/>
  <circle cx="8.429010499999947" cy="7.8361059999999725" fill="none" instance-id="3" r="0.163399" semantic-id="23" stroke="rgb(92,92,92)" stroke-width="0.1"/>
  <circle cx="7.1180104999999685" cy="7.1981060000000525" fill="none" instance-id="3" r="0.229752" semantic-id="23" stroke="rgb(92,92,92)" stroke-width="0.1"/>
  <circle cx="7.1180104999999685" cy="7.1981060000000525" fill="none" instance-id="3" r="0.316096" semantic-id="23" stroke="rgb(92,92,92)" stroke-width="0.1"/>
  <circle cx="13.540010499999994" cy="5.805106000000023" fill="none" instance-id="4" r="0.163399" semantic-id="23" stroke="rgb(92,92,92)" stroke-width="0.1"/>
  <circle cx="15.40001049999995" cy="5.07010600000001" fill="none" instance-id="4" r="0.163399" semantic-id="23" stroke="rgb(92,92,92)" stroke-width="0.1"/>
  <circle cx="14.089010499999972" cy="4.4331059999999525" fill="none" instance-id="4" r="0.229752" semantic-id="23" stroke="rgb(92,92,92)" stroke-width="0.1"/>
  <circle cx="14.089010499999972" cy="4.4331059999999525" fill="none" instance-id="4" r="0.316096" semantic-id="23" stroke="rgb(92,92,92)" stroke-width="0.1"/>
  <circle cx="1.4580105000000003" cy="10.602106000000049" fill="none" r="0.163399" stroke="rgb(92,92,92)" stroke-width="0.1"/>
 </g>
 <g id="layerCOLUMN" inkscape:groupmode="layer" inkscape:label="COLUMN">
  <path d="M 94.47338103523396,100.0 L 91.93601049999995,93.604106" fill="none" stroke="rgb(178,178,0)" stroke-width="0.1"/>
  <path d="M 91.93601049999995,93.604106 L 82.6410105,97.29210599999999" fill="none" stroke="rgb(178,178,0)" stroke-width="0.1"/>
  <path d="M 82.6410105,97.29210599999999 L 83.71528259521244,100.0" fill="none" stroke="rgb(178,178,0)" stroke-width="0.1"/>
  <path d="M 73.06801049999996,67.73910599999999 L 80.50401049999999,64.78910600000006" fill="none" stroke="rgb(178,178,0)" stroke-width="0.1"/>
  <path d="M 80.50401049999999,64.78910600000006 L 77.55401049999995,57.353106000000025" fill="none" stroke="rgb(178,178,0)" stroke-width="0.1"/>
  <path d="M 77.55401049999995,57.353106000000025 L 70.11801049999997,60.30310599999996" fill="none" stroke="rgb(178,178,0)" stroke-width="0.1"/>
  <path d="M 70.11801049999997,60.30310599999996 L 73.06801049999996,67.73910599999999" fill="none" stroke="rgb(178,178,0)" stroke-width="0.1"/>
 </g>
 <g id="layerDIM_IDEN" inkscape:groupmode="layer" inkscape:label="DIM_IDEN">
  <path d="M 52.47801049999998,47.54510600000003 L 38.5350105,53.07710599999996" fill="none" stroke="rgb(0,178,0)" stroke-width="0.1"/>
  <path d="M 78.07201049999998,37.391106000000036 L 52.47801049999998,47.54510600000003" fill="none" stroke="rgb(0,178,0)" stroke-width="0.1"/>
  <path d="M 99.70901049999998,63.641106000000036 L 78.07201049999998,37.391106000000036" fill="none" stroke="rgb(0,178,0)" stroke-width="0.1"/>
  <circle cx="45.506010499999945" cy="50.311105999999995" fill="none" r="7.5" stroke="rgb(0,178,0)" stroke-width="0.1"/>
 </g>
 <g id="layerDIM_LEAD" inkscape:groupmode="layer" inkscape:label="DIM_LEAD">
  <path d="M 93.10244555430364,0.0 L 95.35901049999995,20.131106000000045" fill="none" stroke="rgb(0,178,0)" stroke-width="0.1"/>
  <path d="M 95.35901049999995,20.131106000000045 L 76.99501049999998,27.181106" fill="none" stroke="rgb(0,178,0)" stroke-width="0.1"/>
 </g>
 <g id="layerDIM_SYMB" inkscape:groupmode="layer" inkscape:label="DIM_SYMB">
  <path d="M 42.09901049999996,85.67310599999996 L 51.66401049999996,81.87910599999998" fill="none" stroke="rgb(0,178,0)" stroke-width="0.1"/>
  <path d="M 51.66401049999996,81.87910599999998 L 55.84601049999998,80.21910600000001" fill="none" stroke="rgb(0,178,0)" stroke-width="0.1"/>
  <path d="M 53.443508808614126,100.0 L 80.94701049999998,89.08910600000002" fill="none" stroke="rgb(0,178,0)" stroke-width="0.1"/>
  <path d="M 80.94701049999998,89.08910600000002 L 74.49301049999997,72.82210599999996" fill="none" stroke="rgb(0,178,0)" stroke-width="0.1"/>
  <path d="M 74.49301049999997,72.82210599999996 L 60.59701049999995,78.335106" fill="none" stroke="rgb(0,178,0)" stroke-width="0.1"/>
  <path d="M 60.59701049999995,78.335106 L 56.41401049999996,79.99410599999999" fill="none" stroke="rgb(0,178,0)" stroke-width="0.1"/>
 </g>
 <g id="layerDOOR_FIRE" inkscape:groupmode="layer" inkscape:label="DOOR_FIRE">
  <path d="M 35.18601049999995,2.081105999999977 L 39.24201049999999,12.306106" fill="none" instance-id="21" semantic-id="3" stroke="rgb(0,178,178)" stroke-width="0.1"/>
  <path d="M 71.56901049999999,7.012106000000017 L 74.26501049999996,13.809106000000043" fill="none" instance-id="17" semantic-id="4" stroke="rgb(0,178,178)" stroke-width="0.1"/>
  <path d="M 71.2200105,7.151106000000027 L 73.91701049999995,13.948106000000053" fill="none" instance-id="17" semantic-id="4" stroke="rgb(0,178,178)" stroke-width="0.1"/>
  <path d="M 71.56901049999999,7.012106000000017 L 71.2200105,7.151106000000027" fill="none" instance-id="17" semantic-id="4" stroke="rgb(0,178,178)" stroke-width="0.1"/>
  <path d="M 73.91701049999995,13.948106000000053 L 74.26501049999996,13.809106000000043" fill="none" instance-id="17" semantic-id="4" stroke="rgb(0,178,178)" stroke-width="0.1"/>
  <path d="M 57.97401049999996,12.405106000000046 L 60.671010499999966,19.203106000000048" fill="none" instance-id="17" semantic-id="4" stroke="rgb(0,178,178)" stroke-width="0.1"/>
  <path d="M 57.62601049999995,12.544106000000056 L 60.322010499999976,19.341105999999968" fill="none" instance-id="17" semantic-id="4" stroke="rgb(0,178,178)" stroke-width="0.1"/>
  <path d="M 60.671010499999966,19.203106000000048 L 60.322010499999976,19.341105999999968" fill="none" instance-id="17" semantic-id="4" stroke="rgb(0,178,178)" stroke-width="0.1"/>
  <path d="M 57.62601049999995,12.544106000000056 L 57.97401049999996,12.405106000000046" fill="none" instance-id="17" semantic-id="4" stroke="rgb(0,178,178)" stroke-width="0.1"/>
  <path d="M 57.35101049999997,24.19110599999999 L 57.86301049999997,23.988106000000016" fill="none" instance-id="18" semantic-id="3" stroke="rgb(0,178,178)" stroke-width="0.1"/>
  <path d="M 53.90801049999999,14.019105999999965 L 53.39601049999999,14.222106000000053" fill="none" instance-id="18" semantic-id="3" stroke="rgb(0,178,178)" stroke-width="0.1"/>
  <path d="M 53.90801049999999,14.019105999999965 L 57.86301049999997,23.988106000000016" fill="none" instance-id="18" semantic-id="3" stroke="rgb(0,178,178)" stroke-width="0.1"/>
  <path d="M 53.39601049999999,14.222106000000053 L 57.35101049999997,24.19110599999999" fill="none" instance-id="18" semantic-id="3" stroke="rgb(0,178,178)" stroke-width="0.1"/>
  <path d="M 34.256010499999945,2.4501060000000052 L 44.35501049999999,6.812105999999972" fill="none" instance-id="21" semantic-id="3" stroke="rgb(0,178,178)" stroke-width="0.1"/>
  <path d="M 22.15201049999996,80.40810599999998 L 19.006010499999945,72.47810600000003" fill="none" instance-id="16" semantic-id="4" stroke="rgb(0,178,178)" stroke-width="0.1"/>
  <path d="M 22.558010499999966,80.24710600000003 L 19.41201049999995,72.31710599999997" fill="none" instance-id="16" semantic-id="4" stroke="rgb(0,178,178)" stroke-width="0.1"/>
  <path d="M 22.15201049999996,80.40810599999998 L 22.558010499999966,80.24710600000003" fill="none" instance-id="16" semantic-id="4" stroke="rgb(0,178,178)" stroke-width="0.1"/>
  <path d="M 19.41201049999995,72.31710599999997 L 19.006010499999945,72.47810600000003" fill="none" instance-id="16" semantic-id="4" stroke="rgb(0,178,178)" stroke-width="0.1"/>
  <path d="M 38.012010499999974,74.11610600000006 L 34.86601049999996,66.186106" fill="none" instance-id="16" semantic-id="4" stroke="rgb(0,178,178)" stroke-width="0.1"/>
  <path d="M 38.41801049999998,73.955106 L 35.272010499999965,66.02510600000005" fill="none" instance-id="16" semantic-id="4" stroke="rgb(0,178,178)" stroke-width="0.1"/>
  <path d="M 34.86601049999996,66.186106 L 35.272010499999965,66.02510600000005" fill="none" instance-id="16" semantic-id="4" stroke="rgb(0,178,178)" stroke-width="0.1"/>
  <path d="M 38.41801049999998,73.955106 L 38.012010499999974,74.11610600000006" fill="none" instance-id="16" semantic-id="4" stroke="rgb(0,178,178)" stroke-width="0.1"/>
  <path d="M 31.134010499999988,99.45710599999995 L 27.522010499999965,90.35110599999996" fill="none" instance-id="15" semantic-id="4" stroke="rgb(0,178,178)" stroke-width="0.1"/>
  <path d="M 42.6070105,94.88510600000006 L 41.399010499999974,91.84010599999999" fill="none" instance-id="15" semantic-id="4" stroke="rgb(0,178,178)" stroke-width="0.1"/>
  <path d="M 42.909010499999965,94.76610600000004 L 41.701010499999995,91.72010599999999" fill="none" instance-id="15" semantic-id="4" stroke="rgb(0,178,178)" stroke-width="0.1"/>
  <path d="M 30.832010499999967,99.57710599999996 L 27.2200105,90.47110599999996" fill="none" instance-id="15" semantic-id="4" stroke="rgb(0,178,178)" stroke-width="0.1"/>
  <path d="M 31.134010499999988,99.45710599999995 L 30.832010499999967,99.57710599999996" fill="none" instance-id="15" semantic-id="4" stroke="rgb(0,178,178)" stroke-width="0.1"/>
  <path d="M 42.6070105,94.88510600000006 L 42.909010499999965,94.76610600000004" fill="none" instance-id="15" semantic-id="4" stroke="rgb(0,178,178)" stroke-width="0.1"/>
  <path d="M 27.522010499999965,90.35110599999996 L 27.2200105,90.47110599999996" fill="none" instance-id="15" semantic-id="4" stroke="rgb(0,178,178)" stroke-width="0.1"/>
  <path d="M 41.399010499999974,91.84010599999999 L 41.701010499999995,91.72010599999999" fill="none" instance-id="15" semantic-id="4" stroke="rgb(0,178,178)" stroke-width="0.1"/>
  <path d="M 64.59701049999995,9.77810599999998 A 7.3125,7.3125 0.0 0,0 73.91601049999997,13.94510600000001" fill="none" instance-id="17" semantic-id="4" stroke="rgb(0,178,178)" stroke-width="0.1"/>
  <path d="M 60.67001049999999,19.200106000000005 A 7.3125,7.3125 0.0 0,0 64.59701049999995,9.77810599999998" fill="none" instance-id="17" semantic-id="4" stroke="rgb(0,178,178)" stroke-width="0.1"/>
  <path d="M 43.683010499999966,18.075106000000005 A 10.725,10.725 0.0 0,0 57.350010499999996,24.18710599999997" fill="none" instance-id="18" semantic-id="3" stroke="rgb(0,178,178)" stroke-width="0.1"/>
  <path d="M 38.31301049999996,12.675106000000028 A 11.0,11.0 0.0 0,0 44.35501049999999,6.812105999999972" fill="none" instance-id="21" semantic-id="3" stroke="rgb(0,178,178)" stroke-width="0.1"/>
  <path d="M 30.2850105,77.18210599999998 A 8.53125,8.53125 0.0 0,0 19.413010499999984,72.32010600000001" fill="none" instance-id="16" semantic-id="4" stroke="rgb(0,178,178)" stroke-width="0.1"/>
  <path d="M 34.86701049999999,66.18910600000004 A 8.53125,8.53125 0.0 0,0 30.2850105,77.18210599999998" fill="none" instance-id="16" semantic-id="4" stroke="rgb(0,178,178)" stroke-width="0.1"/>
  <path d="M 39.88001049999997,95.94310600000006 A 9.81012,9.81012 0.0 0,0 27.522010499999965,90.35110599999996" fill="none" instance-id="15" semantic-id="4" stroke="rgb(0,178,178)" stroke-width="0.1"/>
  <path d="M 41.399010499999974,91.84010599999999 A 3.26031,3.26031 0.0 0,0 39.88001049999997,95.94410600000003" fill="none" instance-id="15" semantic-id="4" stroke="rgb(0,178,178)" stroke-width="0.1"/>
 </g>
 <g id="layerDOOR_FIRE_TEXT" inkscape:groupmode="layer" inkscape:label="DOOR_FIRE_TEXT">
  <text fill="rgb(0,0,0)" font-family="Noto Sans CJK SC" font-size="2" transform="rotate(-21.6395,52.49001049999998,7.036106000000018)" x="52.49001049999998" y="7.036106000000018">
   FM
  </text>
  <text fill="rgb(0,0,0)" font-family="Noto Sans CJK SC" font-size="2" transform="rotate(-21.6395,58.34601049999998,4.713106000000039)" x="58.34601049999998" y="4.713106000000039">
   甲
  </text>
  <text fill="rgb(0,0,0)" font-family="Noto Sans CJK SC" font-size="2" transform="rotate(-21.6395,61.772010499999965,3.3541060000000016)" x="61.772010499999965" y="3.3541060000000016">
   1527
  </text>
  <text fill="rgb(0,0,0)" font-family="Noto Sans CJK SC" font-size="2" transform="rotate(-21.6395,37.550010499999985,17.301106000000004)" x="37.550010499999985" y="17.301106000000004">
   FM
  </text>
  <text fill="rgb(0,0,0)" font-family="Noto Sans CJK SC" font-size="2" transform="rotate(-21.6395,43.40601049999998,14.978106000000025)" x="43.40601049999998" y="14.978106000000025">
   甲
  </text>
  <text fill="rgb(0,0,0)" font-family="Noto Sans CJK SC" font-size="2" transform="rotate(-21.6395,46.83201049999997,13.619105999999988)" x="46.83201049999997" y="13.619105999999988">
   1127
  </text>
  <text fill="rgb(0,0,0)" font-family="Noto Sans CJK SC" font-size="2" transform="rotate(-291.64,25.663010499999984,1.8061059999999998)" x="25.663010499999984" y="1.8061059999999998">
   FM
  </text>
  <text fill="rgb(0,0,0)" font-family="Noto Sans CJK SC" font-size="2" transform="rotate(-291.64,27.986010499999963,7.662105999999994)" x="27.986010499999963" y="7.662105999999994">
   丙
  </text>
  <text fill="rgb(0,0,0)" font-family="Noto Sans CJK SC" font-size="2" transform="rotate(-291.64,29.346010499999977,11.088106000000039)" x="29.346010499999977" y="11.088106000000039">
   1121
  </text>
  <text fill="rgb(0,0,0)" font-family="Noto Sans CJK SC" font-size="2" transform="rotate(-21.6395,18.82901049999998,72.07910600000002)" x="18.82901049999998" y="72.07910600000002">
   FM
  </text>
  <text fill="rgb(0,0,0)" font-family="Noto Sans CJK SC" font-size="2" transform="rotate(-21.6395,24.685010499999976,69.75610600000005)" x="24.685010499999976" y="69.75610600000005">
   乙
  </text>
  <text fill="rgb(0,0,0)" font-family="Noto Sans CJK SC" font-size="2" transform="rotate(-21.6395,28.111010499999963,68.39710600000001)" x="28.111010499999963" y="68.39710600000001">
   1722a
  </text>
 </g>
 <g id="layerM-提资-JZTZ" inkscape:groupmode="layer" inkscape:label="M-提资-JZTZ">
  <path d="M 99.47901049999996,52.95810600000004 L 100.0,52.7513917153309" fill="none" stroke="rgb(0,133,178)" stroke-width="0.1"/>
  <path d="M 100.0,54.2712966255134 L 99.47901049999996,52.95810600000004" fill="none" stroke="rgb(0,133,178)" stroke-width="0.1"/>
  <path d="M 0.0,2.0587796295164935 L 5.1894233750469425,0.0" fill="none" stroke="rgb(0,133,178)" stroke-width="0.1"/>
 </g>
 <g id="layerPUB_HATCH" inkscape:groupmode="layer" inkscape:label="PUB_HATCH">
  <path d="M 83.71528259521244,100.0 L 82.6410105,97.29210599999999" fill="none" stroke="rgb(63,63,63)" stroke-width="0.1"/>
  <path d="M 82.6410105,97.29210599999999 L 75.81532727685948,100.0" fill="none" stroke="rgb(63,63,63)" stroke-width="0.1"/>
 </g>
 <g id="layerPUB_TEXT" inkscape:groupmode="layer" inkscape:label="PUB_TEXT">
  <text fill="rgb(0,0,0)" font-family="Noto Sans CJK SC" font-size="2" transform="rotate(-21.64,20.58101049999999,19.131106000000045)" x="20.58101049999999" y="19.131106000000045">
   弱电井
  </text>
  <text fill="rgb(0,0,0)" font-family="Noto Sans CJK SC" font-size="2" transform="rotate(-21.64,85.85901049999995,78.97110599999996)" x="85.85901049999995" y="78.97110599999996">
   LT2
  </text>
  <text fill="rgb(0,0,0)" font-family="Noto Sans CJK SC" font-size="2" transform="rotate(-21.64,73.89401049999998,0.3011060000000043)" x="73.89401049999998" y="0.3011060000000043">
   更衣
  </text>
  <text fill="rgb(0,0,0)" font-family="Noto Sans CJK SC" font-size="2" transform="rotate(-21.0,77.90101049999998,25.14610600000003)" x="77.90101049999998" y="25.14610600000003">
   轻质隔墙
  </text>
  <text fill="rgb(0,0,0)" font-family="Noto Sans CJK SC" font-size="2" transform="rotate(-21.64,43.78101049999998,49.502106000000026)" x="43.78101049999998" y="49.502106000000026">
   -
  </text>
  <text fill="rgb(0,0,0)" font-family="Noto Sans CJK SC" font-size="2" transform="rotate(-21.64,42.8740105,55.01210600000002)" x="42.8740105" y="55.01210600000002">
   41-002
  </text>
  <text fill="rgb(0,0,0)" font-family="Noto Sans CJK SC" font-size="2" transform="rotate(-21.64,53.36101049999996,45.50010599999996)" x="53.36101049999996" y="45.50010599999996">
   LT2
  </text>
  <text fill="rgb(0,0,0)" font-family="Noto Sans CJK SC" font-size="2" transform="rotate(-21.64,56.302010499999994,52.91510600000004)" x="56.302010499999994" y="52.91510600000004">
   详
  </text>
  <text fill="rgb(0,0,0)" font-family="Noto Sans CJK SC" font-size="2" transform="rotate(-21.64,59.72901049999996,51.55510600000002)" x="59.72901049999996" y="51.55510600000002">
   02
  </text>
  <text fill="rgb(0,0,0)" font-family="Noto Sans CJK SC" font-size="2" transform="rotate(-21.64,65.30601049999996,49.343106000000034)" x="65.30601049999996" y="49.343106000000034">
   子项建施
  </text>
  <text fill="rgb(0,0,0)" font-family="Noto Sans CJK SC" font-size="2" transform="rotate(-21.64,30.302010499999994,93.17810599999996)" x="30.302010499999994" y="93.17810599999996">
   上
  </text>
  <text fill="rgb(0,0,0)" font-family="Noto Sans CJK SC" font-size="2" transform="rotate(-21.64,33.72901049999996,91.81810600000006)" x="33.72901049999996" y="91.81810600000006">
   18
  </text>
  <text fill="rgb(0,0,0)" font-family="Noto Sans CJK SC" font-size="2" transform="rotate(-21.64,38.748010499999964,89.82710599999996)" x="38.748010499999964" y="89.82710599999996">
   级
  </text>
 </g>
 <g id="layerS-WALL-LINE" inkscape:groupmode="layer" inkscape:label="S-WALL-LINE">
  <path d="M 83.71528259521244,100.0 L 82.6410105,97.29210599999999" fill="none" stroke="rgb(178,178,0)" stroke-width="0.1"/>
  <path d="M 82.6410105,97.29210599999999 L 75.81532727685948,100.0" fill="none" stroke="rgb(178,178,0)" stroke-width="0.1"/>
 </g>
 <g id="layerSTAIR" inkscape:groupmode="layer" inkscape:label="STAIR">
  <path d="M 42.961010499999986,76.45610599999998 L 48.824010499999986,91.23510599999997" fill="none" instance-id="22" semantic-id="30" stroke="rgb(178,88,0)" stroke-width="0.1"/>
  <path d="M 45.564010499999995,75.42310599999996 L 51.427010499999994,90.20310600000005" fill="none" instance-id="22" semantic-id="30" stroke="rgb(178,88,0)" stroke-width="0.1"/>
  <path d="M 48.16601049999997,74.39110600000004 L 54.030010499999946,89.17010600000003" fill="none" instance-id="22" semantic-id="30" stroke="rgb(178,88,0)" stroke-width="0.1"/>
  <path d="M 54.673010499999975,71.81010600000002 L 56.018010499999946,75.200106" fill="none" instance-id="22" semantic-id="30" stroke="rgb(178,88,0)" stroke-width="0.1"/>
  <path d="M 52.20301049999995,76.97310600000003 L 56.63201049999998,88.138106" fill="none" instance-id="22" semantic-id="30" stroke="rgb(178,88,0)" stroke-width="0.1"/>
  <path d="M 52.256010499999945,72.76810599999999 L 54.032010499999956,77.24510599999996" fill="none" instance-id="22" semantic-id="30" stroke="rgb(178,88,0)" stroke-width="0.1"/>
  <path d="M 56.81801049999996,81.01210600000002 L 59.23501049999999,87.10510599999998" fill="none" instance-id="22" semantic-id="30" stroke="rgb(178,88,0)" stroke-width="0.1"/>
  <path d="M 54.673010499999975,71.81010600000002 L 58.31701049999998,80.99610600000005" fill="none" instance-id="22" semantic-id="30" stroke="rgb(178,88,0)" stroke-width="0.1"/>
  <path d="M 58.83001049999996,86.08410600000002 L 59.23501049999999,87.10510599999998" fill="none" instance-id="22" semantic-id="30" stroke="rgb(178,88,0)" stroke-width="0.1"/>
  <path d="M 57.09001049999995,70.85110599999996 L 62.60201049999995,84.74610600000005" fill="none" instance-id="22" semantic-id="30" stroke="rgb(178,88,0)" stroke-width="0.1"/>
  <path d="M 59.506010499999945,69.89210600000001 L 65.37001049999998,84.67110600000001" fill="none" instance-id="22" semantic-id="30" stroke="rgb(178,88,0)" stroke-width="0.1"/>
  <path d="M 46.44301049999996,92.82610599999998 L 60.26701049999997,87.34110599999997" fill="none" instance-id="22" semantic-id="30" stroke="rgb(178,88,0)" stroke-width="0.1"/>
  <path d="M 61.31101049999995,86.92710599999998 L 69.86701049999999,83.53310599999998" fill="none" instance-id="22" semantic-id="30" stroke="rgb(178,88,0)" stroke-width="0.1"/>
  <path d="M 49.9580105,73.68010600000002 L 56.16801049999998,79.11510599999997" fill="none" instance-id="22" semantic-id="30" stroke="rgb(178,88,0)" stroke-width="0.1"/>
  <path d="M 48.91401049999996,74.09410600000001 L 55.308010499999966,79.69110599999999" fill="none" instance-id="22" semantic-id="30" stroke="rgb(178,88,0)" stroke-width="0.1"/>
  <path d="M 55.308010499999966,79.69110599999999 L 56.790010499999994,78.69810600000005" fill="none" instance-id="22" semantic-id="30" stroke="rgb(178,88,0)" stroke-width="0.1"/>
  <path d="M 56.790010499999994,78.69810600000005 L 55.81801049999996,81.20610599999998" fill="none" instance-id="22" semantic-id="30" stroke="rgb(178,88,0)" stroke-width="0.1"/>
  <path d="M 55.81801049999996,81.20610599999998 L 57.37001049999998,80.16710599999999" fill="none" instance-id="22" semantic-id="30" stroke="rgb(178,88,0)" stroke-width="0.1"/>
  <path d="M 57.37001049999998,80.16710599999999 L 63.91401049999996,85.89410599999997" fill="none" instance-id="22" semantic-id="30" stroke="rgb(178,88,0)" stroke-width="0.1"/>
  <path d="M 56.510010499999964,80.74310600000001 L 62.869010499999945,86.30910600000004" fill="none" instance-id="22" semantic-id="30" stroke="rgb(178,88,0)" stroke-width="0.1"/>
  <path d="M 43.873010499999964,95.56710599999997 L 43.651010499999984,95.00910599999997" fill="none" instance-id="22" semantic-id="30" stroke="rgb(178,88,0)" stroke-width="0.1"/>
  <path d="M 43.06101049999995,93.52210600000001 L 62.3620105,85.86510599999997" fill="none" instance-id="22" semantic-id="30" stroke="rgb(178,88,0)" stroke-width="0.1"/>
  <path d="M 63.407010499999956,85.450106 L 70.20301049999995,82.75410599999998" fill="none" instance-id="22" semantic-id="30" stroke="rgb(178,88,0)" stroke-width="0.1"/>
  <path d="M 70.20301049999995,82.75410599999998 L 71.01501049999996,84.79910600000005" fill="none" instance-id="22" semantic-id="30" stroke="rgb(178,88,0)" stroke-width="0.1"/>
  <path d="M 71.01501049999996,84.79910600000005 L 43.873010499999964,95.56710599999997" fill="none" instance-id="22" semantic-id="30" stroke="rgb(178,88,0)" stroke-width="0.1"/>
  <path d="M 43.84001049999995,93.85810600000002 L 69.86701049999999,83.53310599999998" fill="none" instance-id="22" semantic-id="30" stroke="rgb(178,88,0)" stroke-width="0.1"/>
  <path d="M 69.86701049999999,83.53310599999998 L 70.23601049999996,84.46210600000006" fill="none" instance-id="22" semantic-id="30" stroke="rgb(178,88,0)" stroke-width="0.1"/>
  <path d="M 70.23601049999996,84.46210600000006 L 44.20901049999998,94.78810599999997" fill="none" instance-id="22" semantic-id="30" stroke="rgb(178,88,0)" stroke-width="0.1"/>
  <path d="M 43.28301049999999,94.07910600000002 L 43.06101049999995,93.52210600000001" fill="none" instance-id="22" semantic-id="30" stroke="rgb(178,88,0)" stroke-width="0.1"/>
  <path d="M 61.923010499999975,68.93310599999995 L 67.78701049999995,83.71310600000004" fill="none" instance-id="22" semantic-id="30" stroke="rgb(178,88,0)" stroke-width="0.1"/>
  <path d="M 68.59801049999999,85.758106 L 46.84701049999995,94.38710600000002" fill="none" instance-id="22" semantic-id="30" stroke="rgb(178,88,0)" stroke-width="0.1"/>
  <path d="M 74.24793434613304,100.0 L 68.59801049999999,85.758106" fill="none" instance-id="22" semantic-id="30" stroke="rgb(178,88,0)" stroke-width="0.1"/>
  <path d="M 71.45052812665756,100.0 L 66.18101049999996,86.71610599999997" fill="none" instance-id="22" semantic-id="30" stroke="rgb(178,88,0)" stroke-width="0.1"/>
  <path d="M 68.65394138064948,100.0 L 63.76401049999998,87.67510600000003" fill="none" instance-id="22" semantic-id="30" stroke="rgb(178,88,0)" stroke-width="0.1"/>
  <path d="M 65.85699192783682,100.0 L 61.34801049999999,88.63410599999997" fill="none" instance-id="22" semantic-id="30" stroke="rgb(178,88,0)" stroke-width="0.1"/>
  <path d="M 63.05954555122128,100.0 L 58.93101049999996,89.59310600000003" fill="none" instance-id="22" semantic-id="30" stroke="rgb(178,88,0)" stroke-width="0.1"/>
  <path d="M 60.26224226738833,100.0 L 56.51401049999998,90.551106" fill="none" instance-id="22" semantic-id="30" stroke="rgb(178,88,0)" stroke-width="0.1"/>
  <path d="M 57.465396049120386,100.0 L 54.09701049999995,91.51010600000006" fill="none" instance-id="22" semantic-id="30" stroke="rgb(178,88,0)" stroke-width="0.1"/>
  <path d="M 54.66860313292506,100.0 L 51.68101049999996,92.46910600000001" fill="none" instance-id="22" semantic-id="30" stroke="rgb(178,88,0)" stroke-width="0.1"/>
  <path d="M 51.87115675630963,100.0 L 49.26401049999998,93.42810599999996" fill="none" instance-id="22" semantic-id="30" stroke="rgb(178,88,0)" stroke-width="0.1"/>
  <path d="M 49.07371037969409,100.0 L 46.84701049999995,94.38710600000002" fill="none" instance-id="22" semantic-id="30" stroke="rgb(178,88,0)" stroke-width="0.1"/>
 </g>
 <g id="layerWALL" inkscape:groupmode="layer" inkscape:label="WALL">
  <path d="M 51.573037464250206,0.0 L 56.32701049999997,11.98310600000002" fill="none" instance-id="-1" semantic-id="1" stroke="rgb(178,178,0)" stroke-width="0.1"/>
  <path d="M 49.4212559349553,0.0 L 54.46801049999999,12.721105999999963" fill="none" instance-id="-1" semantic-id="1" stroke="rgb(178,178,0)" stroke-width="0.1"/>
  <path d="M 77.55401049999995,57.353106000000025 L 97.07401049999999,49.609106" fill="none" instance-id="-1" semantic-id="1" stroke="rgb(178,178,0)" stroke-width="0.1"/>
  <path d="M 78.29201049999995,59.21210600000006 L 96.88201049999998,51.83710600000006" fill="none" instance-id="-1" semantic-id="1" stroke="rgb(178,178,0)" stroke-width="0.1"/>
  <path d="M 75.81532727685948,100.0 L 82.6410105,97.29210599999999" fill="none" instance-id="-1" semantic-id="1" stroke="rgb(178,178,0)" stroke-width="0.1"/>
  <path d="M 81.23829117755685,100.0 L 83.37801049999996,99.15110600000003" fill="none" instance-id="-1" semantic-id="1" stroke="rgb(178,178,0)" stroke-width="0.1"/>
  <path d="M 91.93601049999995,93.604106 L 100.0,90.40514292310797" fill="none" instance-id="-1" semantic-id="1" stroke="rgb(178,178,0)" stroke-width="0.1"/>
  <path d="M 92.67401049999995,95.46310600000004 L 100.0,92.55672983770489" fill="none" instance-id="-1" semantic-id="1" stroke="rgb(178,178,0)" stroke-width="0.1"/>
  <path d="M 98.74101049999996,51.099106000000006 L 100.0,54.27236850524014" fill="none" instance-id="-1" semantic-id="1" stroke="rgb(178,178,0)" stroke-width="0.1"/>
  <path d="M 96.88201049999998,51.83710600000006 L 100.0,59.69594769175535" fill="none" instance-id="-1" semantic-id="1" stroke="rgb(178,178,0)" stroke-width="0.1"/>
  <path d="M 93.04201049999995,96.39310599999999 L 100.0,93.63272021249588" fill="none" instance-id="-1" semantic-id="1" stroke="rgb(178,178,0)" stroke-width="0.1"/>
  <path d="M 93.78001049999995,98.25210600000003 L 100.0,95.7845008657547" fill="none" instance-id="-1" semantic-id="1" stroke="rgb(178,178,0)" stroke-width="0.1"/>
  <path d="M 16.358010499999978,27.84010599999999 L 9.7200105,11.109105999999997" fill="none" instance-id="-1" semantic-id="1" stroke="rgb(178,178,0)" stroke-width="0.1"/>
  <path d="M 18.217010499999958,27.10210600000005 L 11.579010499999981,10.371106000000054" fill="none" instance-id="-1" semantic-id="1" stroke="rgb(178,178,0)" stroke-width="0.1"/>
  <path d="M 9.912010499999951,8.881106000000045 L 32.298177563829654,0.0" fill="none" instance-id="-1" semantic-id="1" stroke="rgb(178,178,0)" stroke-width="0.1"/>
  <path d="M 11.579010499999981,10.371106000000054 L 32.9580105,1.8891059999999698" fill="none" instance-id="-1" semantic-id="1" stroke="rgb(178,178,0)" stroke-width="0.1"/>
  <path d="M 32.9580105,1.8891059999999698 L 33.32701049999997,2.8191060000000334" fill="none" instance-id="-1" semantic-id="1" stroke="rgb(178,178,0)" stroke-width="0.1"/>
  <path d="M 33.32701049999997,2.8191060000000334 L 35.18601049999995,2.081105999999977" fill="none" instance-id="-1" semantic-id="1" stroke="rgb(178,178,0)" stroke-width="0.1"/>
  <path d="M 35.18601049999995,2.081105999999977 L 34.36043545121947,0.0" fill="none" instance-id="-1" semantic-id="1" stroke="rgb(178,178,0)" stroke-width="0.1"/>
  <path d="M 41.45501049999996,17.883105999999998 L 39.24201049999999,12.306106" fill="none" instance-id="-1" semantic-id="1" stroke="rgb(178,178,0)" stroke-width="0.1"/>
  <path d="M 39.24201049999999,12.306106 L 37.383010499999955,13.044106000000056" fill="none" instance-id="-1" semantic-id="1" stroke="rgb(178,178,0)" stroke-width="0.1"/>
  <path d="M 37.383010499999955,13.044106000000056 L 39.59601049999998,18.621106000000054" fill="none" instance-id="-1" semantic-id="1" stroke="rgb(178,178,0)" stroke-width="0.1"/>
  <path d="M 18.217010499999958,27.10210600000005 L 39.59601049999998,18.621106000000054" fill="none" instance-id="-1" semantic-id="1" stroke="rgb(178,178,0)" stroke-width="0.1"/>
  <path d="M 18.02501049999995,29.330106 L 41.26301049999995,20.111106000000063" fill="none" instance-id="-1" semantic-id="1" stroke="rgb(178,178,0)" stroke-width="0.1"/>
  <path d="M 0.0,34.33005618761399 L 16.358010499999978,27.84010599999999" fill="none" instance-id="-1" semantic-id="1" stroke="rgb(178,178,0)" stroke-width="0.1"/>
  <path d="M 0.0,36.48100417538092 L 18.02501049999995,29.330106" fill="none" instance-id="-1" semantic-id="1" stroke="rgb(178,178,0)" stroke-width="0.1"/>
  <path d="M 41.26301049999995,20.111106000000063 L 44.052010499999994,19.005105999999955" fill="none" instance-id="-1" semantic-id="1" stroke="rgb(178,178,0)" stroke-width="0.1"/>
  <path d="M 44.052010499999994,19.005105999999955 L 43.314010499999995,17.14610600000003" fill="none" instance-id="-1" semantic-id="1" stroke="rgb(178,178,0)" stroke-width="0.1"/>
  <path d="M 43.314010499999995,17.14610600000003 L 41.45501049999996,17.883105999999998" fill="none" instance-id="-1" semantic-id="1" stroke="rgb(178,178,0)" stroke-width="0.1"/>
  <path d="M 54.46801049999999,12.721105999999963 L 53.53901049999996,13.089106000000015" fill="none" instance-id="-1" semantic-id="1" stroke="rgb(178,178,0)" stroke-width="0.1"/>
  <path d="M 53.53901049999996,13.089106000000015 L 54.276010499999984,14.948106000000053" fill="none" instance-id="-1" semantic-id="1" stroke="rgb(178,178,0)" stroke-width="0.1"/>
  <path d="M 54.276010499999984,14.948106000000053 L 56.135010499999964,14.211105999999972" fill="none" instance-id="-1" semantic-id="1" stroke="rgb(178,178,0)" stroke-width="0.1"/>
  <path d="M 31.000435565661974,100.0 L 30.641010499999993,99.09510599999999" fill="none" instance-id="-1" semantic-id="1" stroke="rgb(178,178,0)" stroke-width="0.1"/>
  <path d="M 30.641010499999993,99.09510599999999 L 29.711010499999986,99.46410600000002" fill="none" instance-id="-1" semantic-id="1" stroke="rgb(178,178,0)" stroke-width="0.1"/>
  <path d="M 69.86701049999999,83.53310599999998 L 42.725010499999996,94.301106" fill="none" instance-id="-1" semantic-id="1" stroke="rgb(178,178,0)" stroke-width="0.1"/>
  <path d="M 42.725010499999996,94.301106 L 43.09301049999999,95.23010599999998" fill="none" instance-id="-1" semantic-id="1" stroke="rgb(178,178,0)" stroke-width="0.1"/>
  <path d="M 43.09301049999999,95.23010599999998 L 70.23601049999996,84.46210600000006" fill="none" instance-id="-1" semantic-id="1" stroke="rgb(178,178,0)" stroke-width="0.1"/>
  <path d="M 70.23601049999996,84.46210600000006 L 69.86701049999999,83.53310599999998" fill="none" instance-id="-1" semantic-id="1" stroke="rgb(178,178,0)" stroke-width="0.1"/>
  <path d="M 97.07401049999999,49.609106 L 100.0,48.448311348977995" fill="none" instance-id="-1" semantic-id="1" stroke="rgb(178,178,0)" stroke-width="0.1"/>
  <path d="M 98.74101049999996,51.099106000000006 L 100.0,50.59962737736657" fill="none" instance-id="-1" semantic-id="1" stroke="rgb(178,178,0)" stroke-width="0.1"/>
  <path d="M 56.135010499999964,14.211105999999972 L 57.994010499999945,13.47310600000003" fill="none" instance-id="-1" semantic-id="1" stroke="rgb(178,178,0)" stroke-width="0.1"/>
  <path d="M 57.994010499999945,13.47310600000003 L 57.25701049999998,11.614105999999992" fill="none" instance-id="-1" semantic-id="1" stroke="rgb(178,178,0)" stroke-width="0.1"/>
  <path d="M 57.25701049999998,11.614105999999992 L 56.32701049999997,11.98310600000002" fill="none" instance-id="-1" semantic-id="1" stroke="rgb(178,178,0)" stroke-width="0.1"/>
  <path d="M 73.0590105,5.345105999999987 L 71.20001049999996,6.083106000000043" fill="none" instance-id="-1" semantic-id="1" stroke="rgb(178,178,0)" stroke-width="0.1"/>
  <path d="M 71.20001049999996,6.083106000000043 L 71.93701049999999,7.942105999999967" fill="none" instance-id="-1" semantic-id="1" stroke="rgb(178,178,0)" stroke-width="0.1"/>
  <path d="M 71.93701049999999,7.942105999999967 L 73.79601049999997,7.204106000000024" fill="none" instance-id="-1" semantic-id="1" stroke="rgb(178,178,0)" stroke-width="0.1"/>
  <path d="M 0.0,12.813590655687563 L 9.912010499999951,8.881106000000045" fill="none" instance-id="-1" semantic-id="1" stroke="rgb(178,178,0)" stroke-width="0.1"/>
  <path d="M 0.0,14.965011750993995 L 9.7200105,11.109105999999997" fill="none" instance-id="-1" semantic-id="1" stroke="rgb(178,178,0)" stroke-width="0.1"/>
  <path d="M 73.0590105,5.345105999999987 L 86.53301370410327,0.0" fill="none" instance-id="-1" semantic-id="1" stroke="rgb(178,178,0)" stroke-width="0.1"/>
  <path d="M 73.79601049999997,7.204106000000024 L 91.9562017715482,0.0" fill="none" instance-id="-1" semantic-id="1" stroke="rgb(178,178,0)" stroke-width="0.1"/>
  <path d="M 0.0,88.12088450658962 L 20.853010499999982,79.84810600000003" fill="none" instance-id="-1" semantic-id="1" stroke="rgb(178,178,0)" stroke-width="0.1"/>
  <path d="M 0.0,90.27202892656749 L 20.661010499999975,82.075106" fill="none" instance-id="-1" semantic-id="1" stroke="rgb(178,178,0)" stroke-width="0.1"/>
  <path d="M 27.77273220103808,100.0 L 20.661010499999975,82.075106" fill="none" instance-id="-1" semantic-id="1" stroke="rgb(178,178,0)" stroke-width="0.1"/>
  <path d="M 29.711010499999986,99.46410600000002 L 22.520010499999955,81.33810600000004" fill="none" instance-id="-1" semantic-id="1" stroke="rgb(178,178,0)" stroke-width="0.1"/>
  <path d="M 22.520010499999955,81.33810600000004 L 21.78301049999999,79.479106" fill="none" instance-id="-1" semantic-id="1" stroke="rgb(178,178,0)" stroke-width="0.1"/>
  <path d="M 21.78301049999999,79.479106 L 20.853010499999982,79.84810600000003" fill="none" instance-id="-1" semantic-id="1" stroke="rgb(178,178,0)" stroke-width="0.1"/>
  <path d="M 38.97901049999996,72.657106 L 38.050010499999985,73.02510600000005" fill="none" instance-id="-1" semantic-id="1" stroke="rgb(178,178,0)" stroke-width="0.1"/>
  <path d="M 38.050010499999985,73.02510600000005 L 38.78701049999995,74.88410599999997" fill="none" instance-id="-1" semantic-id="1" stroke="rgb(178,178,0)" stroke-width="0.1"/>
  <path d="M 41.01501049999996,75.07610599999998 L 71.22401049999996,63.09210600000006" fill="none" instance-id="-1" semantic-id="1" stroke="rgb(178,178,0)" stroke-width="0.1"/>
  <path d="M 39.893010499999946,77.67310599999996 L 71.96201049999996,64.95110599999998" fill="none" instance-id="-1" semantic-id="1" stroke="rgb(178,178,0)" stroke-width="0.1"/>
  <path d="M 40.64601049999999,74.14710600000001 L 41.01501049999996,75.07610599999998" fill="none" instance-id="-1" semantic-id="1" stroke="rgb(178,178,0)" stroke-width="0.1"/>
  <path d="M 38.78701049999995,74.88410599999997 L 39.893010499999946,77.67310599999996" fill="none" instance-id="-1" semantic-id="1" stroke="rgb(178,178,0)" stroke-width="0.1"/>
  <path d="M 38.97901049999996,72.657106 L 70.11801049999997,60.30310599999996" fill="none" instance-id="-1" semantic-id="1" stroke="rgb(178,178,0)" stroke-width="0.1"/>
  <path d="M 40.64601049999999,74.14710600000001 L 70.85601049999997,62.162105999999994" fill="none" instance-id="-1" semantic-id="1" stroke="rgb(178,178,0)" stroke-width="0.1"/>
 </g>
 <g id="layerWALL-MOVE" inkscape:groupmode="layer" inkscape:label="WALL-MOVE">
  <path d="M 73.98801049999997,4.976105999999959 L 72.01373394100074,0.0" fill="none" instance-id="-1" semantic-id="1" stroke="rgb(178,0,178)" stroke-width="0.1"/>
  <path d="M 70.90606883875336,0.0 L 70.00401049999999,0.3581060000000207" fill="none" instance-id="-1" semantic-id="1" stroke="rgb(178,0,178)" stroke-width="0.1"/>
  <path d="M 70.00401049999999,0.3581060000000207 L 72.12901049999999,5.714106000000015" fill="none" instance-id="-1" semantic-id="1" stroke="rgb(178,0,178)" stroke-width="0.1"/>
 </g>
 <g id="layer线路" inkscape:groupmode="layer" inkscape:label="线路">
  <path d="M 11.579010499999981,10.371106000000054 L 13.95601049999999,10.891106000000036" fill="none" stroke="rgb(178,0,0)" stroke-width="0.1"/>
  <path d="M 13.95601049999999,10.891106000000036 L 21.006010499999945,25.996106000000054" fill="none" stroke="rgb(178,0,0)" stroke-width="0.1"/>
  <path d="M 12.903010499999993,24.197105999999962 L 13.56901049999999,28.946105999999986" fill="none" stroke="rgb(178,0,0)" stroke-width="0.1"/>
  <path d="M 14.145010499999955,22.263105999999993 L 12.903010499999993,24.197105999999962" fill="none" stroke="rgb(178,0,0)" stroke-width="0.1"/>
  <path d="M 0.42501049999998486,14.796106000000009 L 0.0,15.029406390583745" fill="none" stroke="rgb(178,0,0)" stroke-width="0.1"/>
  <path d="M 11.357010500000001,23.369105999999988 L 13.56901049999999,28.946105999999986" fill="none" stroke="rgb(178,0,0)" stroke-width="0.1"/>
  <path d="M 13.56901049999999,28.946105999999986 L 16.358010499999978,27.84010599999999" fill="none" stroke="rgb(178,0,0)" stroke-width="0.1"/>
  <path d="M 16.358010499999978,27.84010599999999 L 14.145010499999955,22.263105999999993" fill="none" stroke="rgb(178,0,0)" stroke-width="0.1"/>
  <path d="M 14.145010499999955,22.263105999999993 L 11.357010500000001,23.369105999999988" fill="none" stroke="rgb(178,0,0)" stroke-width="0.1"/>
  <path d="M 14.368010499999968,9.26510600000006 L 11.579010499999981,10.371106000000054" fill="none" stroke="rgb(178,0,0)" stroke-width="0.1"/>
  <path d="M 11.579010499999981,10.371106000000054 L 18.217010499999958,27.10210600000005" fill="none" stroke="rgb(178,0,0)" stroke-width="0.1"/>
  <path d="M 18.217010499999958,27.10210600000005 L 21.006010499999945,25.996106000000054" fill="none" stroke="rgb(178,0,0)" stroke-width="0.1"/>
  <path d="M 21.006010499999945,25.996106000000054 L 14.368010499999968,9.26510600000006" fill="none" stroke="rgb(178,0,0)" stroke-width="0.1"/>
  <path d="M 0.0,18.19249298584907 L 1.5310104999999794,17.585105999999996" fill="none" stroke="rgb(178,0,0)" stroke-width="0.1"/>
  <path d="M 1.5310104999999794,17.585105999999996 L 0.42501049999998486,14.796106000000009" fill="none" stroke="rgb(178,0,0)" stroke-width="0.1"/>
  <path d="M 0.42501049999998486,14.796106000000009 L 0.0,14.964717414846064" fill="none" stroke="rgb(178,0,0)" stroke-width="0.1"/>
 </g>
</svg>