<?xml version="1.0" encoding="utf-8"?>
<svg style="background-color: #000;" version="1.1" viewBox="0 0 100.0 100.0" xmlns="http://www.w3.org/2000/svg" xmlns:inkscape="http://www.inkscape.org/namespaces/inkscape">
 <g id="layer!消防-疏散楼梯" inkscape:groupmode="layer" inkscape:label="!消防-疏散楼梯">
  <path d="M 9.582160500000043,30.773431500000015 L 14.395160500000031,25.96343150000007" fill="none" stroke="rgb(53,107,0)" stroke-width="0.1"/>
  <path d="M 10.960160500000029,32.763431500000024 L 22.882160500000055,20.84343149999995" fill="none" stroke="rgb(53,107,0)" stroke-width="0.1"/>
  <path d="M 12.337160500000039,34.75343150000003 L 31.36916050000002,15.72343150000006" fill="none" stroke="rgb(53,107,0)" stroke-width="0.1"/>
  <path d="M 13.714160500000048,36.74343150000004 L 35.24616050000003,15.21343150000007" fill="none" stroke="rgb(53,107,0)" stroke-width="0.1"/>
  <path d="M 15.091160500000058,38.73343150000005 L 36.60116050000005,17.22343150000006" fill="none" stroke="rgb(53,107,0)" stroke-width="0.1"/>
  <path d="M 16.469160500000044,40.72343150000006 L 37.95616050000007,19.243431500000042" fill="none" stroke="rgb(53,107,0)" stroke-width="0.1"/>
  <path d="M 17.846160500000053,42.71343150000007 L 39.31116050000003,21.253431500000033" fill="none" stroke="rgb(53,107,0)" stroke-width="0.1"/>
  <path d="M 19.223160500000063,44.70343150000008 L 40.666160500000046,23.263431500000024" fill="none" stroke="rgb(53,107,0)" stroke-width="0.1"/>
  <path d="M 20.60116050000005,46.69343150000009 L 42.021160500000065,25.273431500000015" fill="none" stroke="rgb(53,107,0)" stroke-width="0.1"/>
  <path d="M 21.978160500000058,48.69343150000009 L 43.37616050000008,27.293431499999997" fill="none" stroke="rgb(53,107,0)" stroke-width="0.1"/>
  <path d="M 23.355160500000068,50.6834315000001 L 44.73116049999999,29.303431499999988" fill="none" stroke="rgb(53,107,0)" stroke-width="0.1"/>
  <path d="M 24.73216050000002,52.673431500000106 L 46.086160500000005,31.31343149999998" fill="none" stroke="rgb(53,107,0)" stroke-width="0.1"/>
  <path d="M 26.110160500000063,54.663431500000115 L 47.441160500000024,33.33343149999996" fill="none" stroke="rgb(53,107,0)" stroke-width="0.1"/>
  <path d="M 27.487160500000016,56.653431500000124 L 48.79616050000004,35.34343149999995" fill="none" stroke="rgb(53,107,0)" stroke-width="0.1"/>
  <path d="M 28.864160500000025,58.64343150000013 L 50.15116050000006,37.35343149999994" fill="none" stroke="rgb(53,107,0)" stroke-width="0.1"/>
  <path d="M 30.241160500000035,60.63343150000014 L 51.50616050000008,39.36343149999993" fill="none" stroke="rgb(53,107,0)" stroke-width="0.1"/>
  <path d="M 31.61916050000002,62.62343150000015 L 52.861160500000096,41.38343150000014" fill="none" stroke="rgb(53,107,0)" stroke-width="0.1"/>
  <path d="M 32.99616050000003,64.61343149999993 L 54.2161605,43.39343150000013" fill="none" stroke="rgb(53,107,0)" stroke-width="0.1"/>
  <path d="M 34.37316050000004,66.60343149999994 L 55.57016050000004,45.403431500000124" fill="none" stroke="rgb(53,107,0)" stroke-width="0.1"/>
  <path d="M 35.751160500000026,68.59343149999995 L 56.92516050000006,47.413431500000115" fill="none" stroke="rgb(53,107,0)" stroke-width="0.1"/>
  <path d="M 37.128160500000035,70.58343149999996 L 58.28016050000008,49.4334315000001" fill="none" stroke="rgb(53,107,0)" stroke-width="0.1"/>
  <path d="M 38.505160500000045,72.57343149999997 L 59.6351605000001,51.44343150000009" fill="none" stroke="rgb(53,107,0)" stroke-width="0.1"/>
  <path d="M 39.882160500000055,74.56343149999998 L 60.9901605,53.45343150000008" fill="none" stroke="rgb(53,107,0)" stroke-width="0.1"/>
  <path d="M 41.26016050000004,76.55343149999999 L 62.34516050000002,55.46343150000007" fill="none" stroke="rgb(53,107,0)" stroke-width="0.1"/>
  <path d="M 42.63716050000005,78.5434315 L 63.70016050000004,57.48343150000005" fill="none" stroke="rgb(53,107,0)" stroke-width="0.1"/>
  <path d="M 44.0141605,80.5334315 L 65.05516050000006,59.49343150000004" fill="none" stroke="rgb(53,107,0)" stroke-width="0.1"/>
  <path d="M 45.39116050000007,82.52343150000002 L 66.41016050000007,61.50343150000003" fill="none" stroke="rgb(53,107,0)" stroke-width="0.1"/>
  <path d="M 46.7691605,84.51343150000002 L 67.76516050000009,63.513431500000024" fill="none" stroke="rgb(53,107,0)" stroke-width="0.1"/>
  <path d="M 48.146160500000065,86.50343150000003 L 69.1201605,65.5334315" fill="none" stroke="rgb(53,107,0)" stroke-width="0.1"/>
  <path d="M 49.52316050000002,88.49343150000004 L 70.47516050000002,67.5434315" fill="none" stroke="rgb(53,107,0)" stroke-width="0.1"/>
  <path d="M 50.90116050000006,90.48343150000005 L 71.83016050000003,69.55343149999999" fill="none" stroke="rgb(53,107,0)" stroke-width="0.1"/>
  <path d="M 52.27816050000001,92.47343150000006 L 73.18516050000005,71.56343149999998" fill="none" stroke="rgb(53,107,0)" stroke-width="0.1"/>
  <path d="M 55.878160500000035,92.24343150000004 L 74.54016050000007,73.58343149999996" fill="none" stroke="rgb(53,107,0)" stroke-width="0.1"/>
  <path d="M 63.80616050000003,87.6834315000001 L 75.89516050000009,75.59343149999995" fill="none" stroke="rgb(53,107,0)" stroke-width="0.1"/>
  <path d="M 71.73416050000003,83.12343150000015 L 77.25016049999999,77.60343149999994" fill="none" stroke="rgb(53,107,0)" stroke-width="0.1"/>
  <path d="M 8.650160500000027,29.433431500000097 L 34.370160500000054,13.913431500000115" fill="none" stroke="rgb(53,107,0)" stroke-width="0.1"/>
  <path d="M 34.370160500000054,13.913431500000115 L 78.38816050000003,79.2934315" fill="none" stroke="rgb(53,107,0)" stroke-width="0.1"/>
  <path d="M 78.38816050000003,79.2934315 L 53.188160500000095,93.7934315" fill="none" stroke="rgb(53,107,0)" stroke-width="0.1"/>
  <path d="M 53.188160500000095,93.7934315 L 8.650160500000027,29.433431500000097" fill="none" stroke="rgb(53,107,0)" stroke-width="0.1"/>
  <path d="M 8.650160500000027,29.433431500000097 L 53.188160500000095,93.7934315" fill="none" stroke="rgb(53,107,0)" stroke-width="0.1"/>
  <path d="M 53.188160500000095,93.7934315 L 78.38816050000003,79.2934315" fill="none" stroke="rgb(53,107,0)" stroke-width="0.1"/>
  <path d="M 78.38816050000003,79.2934315 L 34.370160500000054,13.913431500000115" fill="none" stroke="rgb(53,107,0)" stroke-width="0.1"/>
  <path d="M 34.370160500000054,13.913431500000115 L 8.650160500000027,29.433431500000097" fill="none" stroke="rgb(53,107,0)" stroke-width="0.1"/>
 </g>
 <g id="layer0-石材边线" inkscape:groupmode="layer" inkscape:label="0-石材边线">
  <path d="M 0.0,38.069127331705204 L 41.69496252631387,100.0" fill="none" stroke="rgb(255,73,12)" stroke-width="0.1"/>
  <path d="M 99.98621265173233,74.00091854510583 L 99.54962558497596,74.2452420284526" fill="none" stroke="rgb(255,73,12)" stroke-width="0.1"/>
  <path d="M 99.54962558497596,74.2452420284526 L 99.11307902921294,74.48963788771334" fill="none" stroke="rgb(255,73,12)" stroke-width="0.1"/>
  <path d="M 99.11307902921294,74.48963788771334 L 98.6765729964402,74.73410611617146" fill="none" stroke="rgb(255,73,12)" stroke-width="0.1"/>
  <path d="M 98.6765729964402,74.73410611617146 L 98.24010749865488,74.97864670710806" fill="none" stroke="rgb(255,73,12)" stroke-width="0.1"/>
  <path d="M 98.24010749865488,74.97864670710806 L 97.80368254785208,75.22325965380196" fill="none" stroke="rgb(255,73,12)" stroke-width="0.1"/>
  <path d="M 97.80368254785208,75.22325965380196 L 97.36729815602848,75.46794494952928" fill="none" stroke="rgb(255,73,12)" stroke-width="0.1"/>
  <path d="M 97.36729815602848,75.46794494952928 L 96.93095433517738,75.71270258756613" fill="none" stroke="rgb(255,73,12)" stroke-width="0.1"/>
  <path d="M 96.93095433517738,75.71270258756613 L 96.49465109728976,75.95753256118542" fill="none" stroke="rgb(255,73,12)" stroke-width="0.1"/>
  <path d="M 96.49465109728976,75.95753256118542 L 96.0583884543596,76.20243486365734" fill="none" stroke="rgb(255,73,12)" stroke-width="0.1"/>
  <path d="M 96.0583884543596,76.20243486365734 L 95.62216641837631,76.4474094882512" fill="none" stroke="rgb(255,73,12)" stroke-width="0.1"/>
  <path d="M 95.62216641837631,76.4474094882512 L 95.18598500132907,76.69245642823444" fill="none" stroke="rgb(255,73,12)" stroke-width="0.1"/>
  <path d="M 95.18598500132907,76.69245642823444 L 94.7498442152048,76.9375756768718" fill="none" stroke="rgb(255,73,12)" stroke-width="0.1"/>
  <path d="M 94.7498442152048,76.9375756768718 L 94.31374407199337,77.18276722742621" fill="none" stroke="rgb(255,73,12)" stroke-width="0.1"/>
  <path d="M 94.31374407199337,77.18276722742621 L 93.87768458367918,77.42803107315876" fill="none" stroke="rgb(255,73,12)" stroke-width="0.1"/>
  <path d="M 93.87768458367918,77.42803107315876 L 93.44166576224711,77.67336720732828" fill="none" stroke="rgb(255,73,12)" stroke-width="0.1"/>
  <path d="M 93.44166576224711,77.67336720732828 L 93.00568761967975,77.91877562319314" fill="none" stroke="rgb(255,73,12)" stroke-width="0.1"/>
  <path d="M 93.00568761967975,77.91877562319314 L 92.56975016796196,78.1642563140067" fill="none" stroke="rgb(255,73,12)" stroke-width="0.1"/>
  <path d="M 92.56975016796196,78.1642563140067 L 92.13385341907428,78.40980927302326" fill="none" stroke="rgb(255,73,12)" stroke-width="0.1"/>
  <path d="M 92.13385341907428,78.40980927302326 L 91.69799738499705,78.65543449349252" fill="none" stroke="rgb(255,73,12)" stroke-width="0.1"/>
  <path d="M 91.69799738499705,78.65543449349252 L 91.2621820777083,78.90113196866605" fill="none" stroke="rgb(255,73,12)" stroke-width="0.1"/>
  <path d="M 91.2621820777083,78.90113196866605 L 90.82640750918836,79.14690169178812" fill="none" stroke="rgb(255,73,12)" stroke-width="0.1"/>
  <path d="M 90.82640750918836,79.14690169178812 L 90.39067369141321,79.39274365610572" fill="none" stroke="rgb(255,73,12)" stroke-width="0.1"/>
  <path d="M 90.39067369141321,79.39274365610572 L 89.95498063635887,79.63865785486132" fill="none" stroke="rgb(255,73,12)" stroke-width="0.1"/>
  <path d="M 89.95498063635887,79.63865785486132 L 89.5193283559986,79.88464428129737" fill="none" stroke="rgb(255,73,12)" stroke-width="0.1"/>
  <path d="M 89.5193283559986,79.88464428129737 L 89.08371686230862,80.13070292865132" fill="none" stroke="rgb(255,73,12)" stroke-width="0.1"/>
  <path d="M 89.08371686230862,80.13070292865132 L 88.64814616726039,80.37683379016107" fill="none" stroke="rgb(255,73,12)" stroke-width="0.1"/>
  <path d="M 88.64814616726039,80.37683379016107 L 88.21261628282514,80.62303685906227" fill="none" stroke="rgb(255,73,12)" stroke-width="0.1"/>
  <path d="M 88.21261628282514,80.62303685906227 L 87.77712722097226,80.86931212858781" fill="none" stroke="rgb(255,73,12)" stroke-width="0.1"/>
  <path d="M 87.77712722097226,80.86931212858781 L 87.34167899367276,81.11565959196878" fill="none" stroke="rgb(255,73,12)" stroke-width="0.1"/>
  <path d="M 87.34167899367276,81.11565959196878 L 86.90627161289376,81.36207924243445" fill="none" stroke="rgb(255,73,12)" stroke-width="0.1"/>
  <path d="M 86.90627161289376,81.36207924243445 L 86.4709050906024,81.60857107321272" fill="none" stroke="rgb(255,73,12)" stroke-width="0.1"/>
  <path d="M 86.4709050906024,81.60857107321272 L 86.03557943876308,81.85513507752876" fill="none" stroke="rgb(255,73,12)" stroke-width="0.1"/>
  <path d="M 86.03557943876308,81.85513507752876 L 85.60029466934293,82.10177124860502" fill="none" stroke="rgb(255,73,12)" stroke-width="0.1"/>
  <path d="M 85.60029466934293,82.10177124860502 L 85.1650507943043,82.34847957966349" fill="none" stroke="rgb(255,73,12)" stroke-width="0.1"/>
  <path d="M 85.1650507943043,82.34847957966349 L 84.72984782560957,82.59526006392389" fill="none" stroke="rgb(255,73,12)" stroke-width="0.1"/>
  <path d="M 84.72984782560957,82.59526006392389 L 84.2946857752188,82.8421126946032" fill="none" stroke="rgb(255,73,12)" stroke-width="0.1"/>
  <path d="M 84.2946857752188,82.8421126946032 L 83.85956465509457,83.0890374649166" fill="none" stroke="rgb(255,73,12)" stroke-width="0.1"/>
  <path d="M 83.85956465509457,83.0890374649166 L 83.42448447719494,83.33603436807789" fill="none" stroke="rgb(255,73,12)" stroke-width="0.1"/>
  <path d="M 83.42448447719494,83.33603436807789 L 82.98944525347656,83.58310339729906" fill="none" stroke="rgb(255,73,12)" stroke-width="0.1"/>
  <path d="M 82.98944525347656,83.58310339729906 L 82.55444699589862,83.83024454578754" fill="none" stroke="rgb(255,73,12)" stroke-width="0.1"/>
  <path d="M 82.55444699589862,83.83024454578754 L 82.1194897164155,84.07745780675259" fill="none" stroke="rgb(255,73,12)" stroke-width="0.1"/>
  <path d="M 82.1194897164155,84.07745780675259 L 81.68457342698161,84.32474317339938" fill="none" stroke="rgb(255,73,12)" stroke-width="0.1"/>
  <path d="M 81.68457342698161,84.32474317339938 L 81.24969813954954,84.57210063893172" fill="none" stroke="rgb(255,73,12)" stroke-width="0.1"/>
  <path d="M 81.24969813954954,84.57210063893172 L 80.81486386607367,84.81953019654975" fill="none" stroke="rgb(255,73,12)" stroke-width="0.1"/>
  <path d="M 80.81486386607367,84.81953019654975 L 80.3800706185043,85.0670318394541" fill="none" stroke="rgb(255,73,12)" stroke-width="0.1"/>
  <path d="M 80.3800706185043,85.0670318394541 L 79.94531840879131,85.31460556084266" fill="none" stroke="rgb(255,73,12)" stroke-width="0.1"/>
  <path d="M 79.94531840879131,85.31460556084266 L 79.51060724888225,85.5622513539106" fill="none" stroke="rgb(255,73,12)" stroke-width="0.1"/>
  <path d="M 79.51060724888225,85.5622513539106 L 79.07593715072744,85.80996921185078" fill="none" stroke="rgb(255,73,12)" stroke-width="0.1"/>
  <path d="M 79.07593715072744,85.80996921185078 L 78.6413081262724,86.0577591278552" fill="none" stroke="rgb(255,73,12)" stroke-width="0.1"/>
  <path d="M 78.6413081262724,86.0577591278552 L 78.20672018746268,86.30562109511402" fill="none" stroke="rgb(255,73,12)" stroke-width="0.1"/>
  <path d="M 78.20672018746268,86.30562109511402 L 77.77217334624152,86.55355510681557" fill="none" stroke="rgb(255,73,12)" stroke-width="0.1"/>
  <path d="M 77.77217334624152,86.55355510681557 L 77.33766761455422,86.80156115614363" fill="none" stroke="rgb(255,73,12)" stroke-width="0.1"/>
  <path d="M 77.33766761455422,86.80156115614363 L 76.90320300434223,87.04963923628338" fill="none" stroke="rgb(255,73,12)" stroke-width="0.1"/>
  <path d="M 76.90320300434223,87.04963923628338 L 76.46877952754608,87.29778934041542" fill="none" stroke="rgb(255,73,12)" stroke-width="0.1"/>
  <path d="M 76.46877952754608,87.29778934041542 L 76.03439719610492,87.54601146172081" fill="none" stroke="rgb(255,73,12)" stroke-width="0.1"/>
  <path d="M 76.03439719610492,87.54601146172081 L 75.60005602195952,87.79430559337607" fill="none" stroke="rgb(255,73,12)" stroke-width="0.1"/>
  <path d="M 75.60005602195952,87.79430559337607 L 75.16575601704653,88.04267172855725" fill="none" stroke="rgb(255,73,12)" stroke-width="0.1"/>
  <path d="M 75.16575601704653,88.04267172855725 L 74.73149719330218,88.29110986043861" fill="none" stroke="rgb(255,73,12)" stroke-width="0.1"/>
  <path d="M 74.73149719330218,88.29110986043861 L 74.29727956266083,88.53961998219256" fill="none" stroke="rgb(255,73,12)" stroke-width="0.1"/>
  <path d="M 74.29727956266083,88.53961998219256 L 73.8631031370594,88.78820208698698" fill="none" stroke="rgb(255,73,12)" stroke-width="0.1"/>
  <path d="M 73.8631031370594,88.78820208698698 L 73.42896792842907,89.03685616799112" fill="none" stroke="rgb(255,73,12)" stroke-width="0.1"/>
  <path d="M 73.42896792842907,89.03685616799112 L 72.9948739487022,89.28558221837056" fill="none" stroke="rgb(255,73,12)" stroke-width="0.1"/>
  <path d="M 72.9948739487022,89.28558221837056 L 72.56082120980864,89.53438023129002" fill="none" stroke="rgb(255,73,12)" stroke-width="0.1"/>
  <path d="M 72.56082120980864,89.53438023129002 L 72.12680972368003,89.78325019990962" fill="none" stroke="rgb(255,73,12)" stroke-width="0.1"/>
  <path d="M 72.12680972368003,89.78325019990962 L 71.69283950224417,90.03219211739133" fill="none" stroke="rgb(255,73,12)" stroke-width="0.1"/>
  <path d="M 71.69283950224417,90.03219211739133 L 71.25891055742682,90.28120597689167" fill="none" stroke="rgb(255,73,12)" stroke-width="0.1"/>
  <path d="M 71.25891055742682,90.28120597689167 L 70.82502290115713,90.53029177156714" fill="none" stroke="rgb(255,73,12)" stroke-width="0.1"/>
  <path d="M 70.82502290115713,90.53029177156714 L 70.39117654535858,90.77944949457151" fill="none" stroke="rgb(255,73,12)" stroke-width="0.1"/>
  <path d="M 70.39117654535858,90.77944949457151 L 69.95737150195532,91.0286791390572" fill="none" stroke="rgb(255,73,12)" stroke-width="0.1"/>
  <path d="M 69.95737150195532,91.0286791390572 L 69.52360778286948,91.27798069817482" fill="none" stroke="rgb(255,73,12)" stroke-width="0.1"/>
  <path d="M 69.52360778286948,91.27798069817482 L 69.08988540002474,91.52735416507085" fill="none" stroke="rgb(255,73,12)" stroke-width="0.1"/>
  <path d="M 69.08988540002474,91.52735416507085 L 68.6562043653405,91.77679953289226" fill="none" stroke="rgb(255,73,12)" stroke-width="0.1"/>
  <path d="M 68.6562043653405,91.77679953289226 L 68.22256469073659,92.02631679478372" fill="none" stroke="rgb(255,73,12)" stroke-width="0.1"/>
  <path d="M 68.22256469073659,92.02631679478372 L 67.78896638812967,92.27590594388721" fill="none" stroke="rgb(255,73,12)" stroke-width="0.1"/>
  <path d="M 67.78896638812967,92.27590594388721 L 67.35540946943979,92.52556697334194" fill="none" stroke="rgb(255,73,12)" stroke-width="0.1"/>
  <path d="M 67.35540946943979,92.52556697334194 L 66.92189394658158,92.77529987628714" fill="none" stroke="rgb(255,73,12)" stroke-width="0.1"/>
  <path d="M 66.92189394658158,92.77529987628714 L 66.48841983147008,93.02510464585885" fill="none" stroke="rgb(255,73,12)" stroke-width="0.1"/>
  <path d="M 66.48841983147008,93.02510464585885 L 66.05498713601787,93.2749812751913" fill="none" stroke="rgb(255,73,12)" stroke-width="0.1"/>
  <path d="M 66.05498713601787,93.2749812751913 L 65.62159587213955,93.52492975741643" fill="none" stroke="rgb(255,73,12)" stroke-width="0.1"/>
  <path d="M 65.62159587213955,93.52492975741643 L 65.18824605174632,93.77495008566439" fill="none" stroke="rgb(255,73,12)" stroke-width="0.1"/>
  <path d="M 65.18824605174632,93.77495008566439 L 64.75493768674778,94.02504225306393" fill="none" stroke="rgb(255,73,12)" stroke-width="0.1"/>
  <path d="M 64.75493768674778,94.02504225306393 L 64.3216707890524,94.27520625274201" fill="none" stroke="rgb(255,73,12)" stroke-width="0.1"/>
  <path d="M 64.3216707890524,94.27520625274201 L 63.888445370570025,94.52544207782239" fill="none" stroke="rgb(255,73,12)" stroke-width="0.1"/>
  <path d="M 63.888445370570025,94.52544207782239 L 63.45526144320729,94.77574972142702" fill="none" stroke="rgb(255,73,12)" stroke-width="0.1"/>
  <path d="M 63.45526144320729,94.77574972142702 L 63.02211901886949,95.02612917667693" fill="none" stroke="rgb(255,73,12)" stroke-width="0.1"/>
  <path d="M 63.02211901886949,95.02612917667693 L 62.58901810946031,95.27658043669089" fill="none" stroke="rgb(255,73,12)" stroke-width="0.1"/>
  <path d="M 62.58901810946031,95.27658043669089 L 62.1559587268855,95.52710349458448" fill="none" stroke="rgb(255,73,12)" stroke-width="0.1"/>
  <path d="M 62.1559587268855,95.52710349458448 L 61.722940883046476,95.77769834347237" fill="none" stroke="rgb(255,73,12)" stroke-width="0.1"/>
  <path d="M 61.722940883046476,95.77769834347237 L 61.2899645898442,96.02836497646786" fill="none" stroke="rgb(255,73,12)" stroke-width="0.1"/>
  <path d="M 61.2899645898442,96.02836497646786 L 60.85702985917783,96.27910338668153" fill="none" stroke="rgb(255,73,12)" stroke-width="0.1"/>
  <path d="M 60.85702985917783,96.27910338668153 L 60.424136702948545,96.52991356722077" fill="none" stroke="rgb(255,73,12)" stroke-width="0.1"/>
  <path d="M 60.424136702948545,96.52991356722077 L 59.991285133053,96.78079551119345" fill="none" stroke="rgb(255,73,12)" stroke-width="0.1"/>
  <path d="M 59.991285133053,96.78079551119345 L 59.558475161386696,97.03174921170375" fill="none" stroke="rgb(255,73,12)" stroke-width="0.1"/>
  <path d="M 59.558475161386696,97.03174921170375 L 59.12570679984765,97.28277466185455" fill="none" stroke="rgb(255,73,12)" stroke-width="0.1"/>
  <path d="M 59.12570679984765,97.28277466185455 L 58.69298006032909,97.53387185474548" fill="none" stroke="rgb(255,73,12)" stroke-width="0.1"/>
  <path d="M 58.69298006032909,97.53387185474548 L 58.260294954723804,97.78504078347669" fill="none" stroke="rgb(255,73,12)" stroke-width="0.1"/>
  <path d="M 58.260294954723804,97.78504078347669 L 57.8276514949232,98.03628144114509" fill="none" stroke="rgb(255,73,12)" stroke-width="0.1"/>
  <path d="M 57.8276514949232,98.03628144114509 L 57.39504969282075,98.287593820844" fill="none" stroke="rgb(255,73,12)" stroke-width="0.1"/>
  <path d="M 57.39504969282075,98.287593820844 L 56.962489560304675,98.53897791566669" fill="none" stroke="rgb(255,73,12)" stroke-width="0.1"/>
  <path d="M 56.962489560304675,98.53897791566669 L 56.52997110926344,98.79043371870466" fill="none" stroke="rgb(255,73,12)" stroke-width="0.1"/>
  <path d="M 56.52997110926344,98.79043371870466 L 56.097494351584146,99.04196122304756" fill="none" stroke="rgb(255,73,12)" stroke-width="0.1"/>
  <path d="M 56.097494351584146,99.04196122304756 L 55.66505929915479,99.29356042178006" fill="none" stroke="rgb(255,73,12)" stroke-width="0.1"/>
  <path d="M 55.66505929915479,99.29356042178006 L 55.23266596385997,99.54523130798816" fill="none" stroke="rgb(255,73,12)" stroke-width="0.1"/>
  <path d="M 55.23266596385997,99.54523130798816 L 54.80031435758315,99.79697387475517" fill="none" stroke="rgb(255,73,12)" stroke-width="0.1"/>
 </g>
 <g id="layer0-结构边线" inkscape:groupmode="layer" inkscape:label="0-结构边线">
  <path d="M 47.739160500000025,94.65343150000012 L 0.0,23.744872186600332" fill="none" stroke="rgb(178,0,178)" stroke-width="0.1"/>
  <path d="M 2.5381605000000604,27.513431500000024 L 9.174160500000028,23.043431499999997" fill="none" stroke="rgb(178,0,178)" stroke-width="0.1"/>
  <path d="M 9.174160500000028,23.043431499999997 L 4.706160500000067,16.403431500000124" fill="none" stroke="rgb(178,0,178)" stroke-width="0.1"/>
  <path d="M 0.0,19.573494404611438 L 4.706160500000067,16.403431500000124" fill="none" stroke="rgb(178,0,178)" stroke-width="0.1"/>
  <path d="M 2.5381605000000604,27.513431500000024 L 0.0,23.741411419427095" fill="none" stroke="rgb(178,0,178)" stroke-width="0.1"/>
  <path d="M 47.89116050000007,94.87343150000015 L 55.35716050000008,89.85343149999994" fill="none" stroke="rgb(178,0,178)" stroke-width="0.1"/>
  <path d="M 55.35716050000008,89.85343149999994 L 50.33116050000001,82.38343150000014" fill="none" stroke="rgb(178,0,178)" stroke-width="0.1"/>
  <path d="M 42.86516050000006,87.41343150000012 L 50.33116050000001,82.38343150000014" fill="none" stroke="rgb(178,0,178)" stroke-width="0.1"/>
  <path d="M 47.89116050000007,94.87343150000015 L 42.86516050000006,87.41343150000012" fill="none" stroke="rgb(178,0,178)" stroke-width="0.1"/>
 </g>
 <g id="layer0-金属格栅" inkscape:groupmode="layer" inkscape:label="0-金属格栅">
  <path d="M 4.911160500000051,31.033431500000006 L 2.4231605000000513,32.71343150000007" fill="none" stroke="rgb(73,73,73)" stroke-width="0.1"/>
  <path d="M 2.4231605000000513,32.71343150000007 L 2.143160500000022,32.2934315" fill="none" stroke="rgb(73,73,73)" stroke-width="0.1"/>
  <path d="M 2.143160500000022,32.2934315 L 4.6321605000000545,30.62343150000015" fill="none" stroke="rgb(73,73,73)" stroke-width="0.1"/>
  <path d="M 4.6321605000000545,30.62343150000015 L 4.911160500000051,31.033431500000006" fill="none" stroke="rgb(73,73,73)" stroke-width="0.1"/>
  <path d="M 12.730160500000068,42.653431500000124 L 10.241160500000035,44.32343149999997" fill="none" stroke="rgb(73,73,73)" stroke-width="0.1"/>
  <path d="M 10.241160500000035,44.32343149999997 L 9.962160500000039,43.913431500000115" fill="none" stroke="rgb(73,73,73)" stroke-width="0.1"/>
  <path d="M 9.962160500000039,43.913431500000115 L 12.451160500000015,42.23343150000005" fill="none" stroke="rgb(73,73,73)" stroke-width="0.1"/>
  <path d="M 12.451160500000015,42.23343150000005 L 12.730160500000068,42.653431500000124" fill="none" stroke="rgb(73,73,73)" stroke-width="0.1"/>
  <path d="M 20.549160500000028,54.263431500000024 L 18.060160500000052,55.94343150000009" fill="none" stroke="rgb(73,73,73)" stroke-width="0.1"/>
  <path d="M 18.060160500000052,55.94343150000009 L 17.781160500000055,55.523431500000015" fill="none" stroke="rgb(73,73,73)" stroke-width="0.1"/>
  <path d="M 17.781160500000055,55.523431500000015 L 20.269160500000055,53.85343149999994" fill="none" stroke="rgb(73,73,73)" stroke-width="0.1"/>
  <path d="M 20.269160500000055,53.85343149999994 L 20.549160500000028,54.263431500000024" fill="none" stroke="rgb(73,73,73)" stroke-width="0.1"/>
  <path d="M 28.367160500000068,65.87343150000015 L 25.87916050000007,67.55343149999999" fill="none" stroke="rgb(73,73,73)" stroke-width="0.1"/>
  <path d="M 25.87916050000007,67.55343149999999 L 25.59916050000004,67.13343150000014" fill="none" stroke="rgb(73,73,73)" stroke-width="0.1"/>
  <path d="M 25.59916050000004,67.13343150000014 L 28.088160500000015,65.46343150000007" fill="none" stroke="rgb(73,73,73)" stroke-width="0.1"/>
  <path d="M 28.088160500000015,65.46343150000007 L 28.367160500000068,65.87343150000015" fill="none" stroke="rgb(73,73,73)" stroke-width="0.1"/>
  <path d="M 36.18616050000003,77.49343150000004 L 33.69716050000005,79.16343150000012" fill="none" stroke="rgb(73,73,73)" stroke-width="0.1"/>
  <path d="M 33.69716050000005,79.16343150000012 L 33.418160500000056,78.75343150000003" fill="none" stroke="rgb(73,73,73)" stroke-width="0.1"/>
  <path d="M 33.418160500000056,78.75343150000003 L 35.90716050000003,77.07343149999997" fill="none" stroke="rgb(73,73,73)" stroke-width="0.1"/>
  <path d="M 35.90716050000003,77.07343149999997 L 36.18616050000003,77.49343150000004" fill="none" stroke="rgb(73,73,73)" stroke-width="0.1"/>
  <path d="M 44.00516049999999,89.10343149999994 L 41.51616050000007,90.7834315" fill="none" stroke="rgb(73,73,73)" stroke-width="0.1"/>
  <path d="M 41.51616050000007,90.7834315 L 41.237160500000016,90.36343149999993" fill="none" stroke="rgb(73,73,73)" stroke-width="0.1"/>
  <path d="M 41.237160500000016,90.36343149999993 L 43.725160500000015,88.69343150000009" fill="none" stroke="rgb(73,73,73)" stroke-width="0.1"/>
  <path d="M 43.725160500000015,88.69343150000009 L 44.00516049999999,89.10343149999994" fill="none" stroke="rgb(73,73,73)" stroke-width="0.1"/>
  <path d="M 96.45616050000001,70.24343150000004 L 94.9901605,67.62343150000015" fill="none" stroke="rgb(73,73,73)" stroke-width="0.1"/>
  <path d="M 94.9901605,67.62343150000015 L 94.55416050000008,67.87343150000015" fill="none" stroke="rgb(73,73,73)" stroke-width="0.1"/>
  <path d="M 94.55416050000008,67.87343150000015 L 96.02016050000009,70.49343150000004" fill="none" stroke="rgb(73,73,73)" stroke-width="0.1"/>
  <path d="M 96.02016050000009,70.49343150000004 L 96.45616050000001,70.24343150000004" fill="none" stroke="rgb(73,73,73)" stroke-width="0.1"/>
  <path d="M 84.05216050000001,77.23343150000005 L 82.57416050000006,74.62343150000015" fill="none" stroke="rgb(73,73,73)" stroke-width="0.1"/>
  <path d="M 82.57416050000006,74.62343150000015 L 82.1391605,74.86343149999993" fill="none" stroke="rgb(73,73,73)" stroke-width="0.1"/>
  <path d="M 82.1391605,74.86343149999993 L 83.61716050000007,77.47343150000006" fill="none" stroke="rgb(73,73,73)" stroke-width="0.1"/>
  <path d="M 83.61716050000007,77.47343150000006 L 84.05216050000001,77.23343150000005" fill="none" stroke="rgb(73,73,73)" stroke-width="0.1"/>
  <path d="M 71.68116050000003,84.27343150000002 L 70.19016050000005,81.6734315000001" fill="none" stroke="rgb(73,73,73)" stroke-width="0.1"/>
  <path d="M 70.19016050000005,81.6734315000001 L 69.75616050000008,81.9234315000001" fill="none" stroke="rgb(73,73,73)" stroke-width="0.1"/>
  <path d="M 69.75616050000008,81.9234315000001 L 71.24716050000006,84.52343150000002" fill="none" stroke="rgb(73,73,73)" stroke-width="0.1"/>
  <path d="M 71.24716050000006,84.52343150000002 L 71.68116050000003,84.27343150000002" fill="none" stroke="rgb(73,73,73)" stroke-width="0.1"/>
  <path d="M 59.34316050000007,91.37343150000015 L 57.840160500000025,88.7834315" fill="none" stroke="rgb(73,73,73)" stroke-width="0.1"/>
  <path d="M 57.840160500000025,88.7834315 L 57.40716050000003,89.0334315" fill="none" stroke="rgb(73,73,73)" stroke-width="0.1"/>
  <path d="M 57.40716050000003,89.0334315 L 58.910160500000075,91.62343150000015" fill="none" stroke="rgb(73,73,73)" stroke-width="0.1"/>
  <path d="M 58.910160500000075,91.62343150000015 L 59.34316050000007,91.37343150000015" fill="none" stroke="rgb(73,73,73)" stroke-width="0.1"/>
 </g>
 <g id="layerAXIS" inkscape:groupmode="layer" inkscape:label="AXIS">
  <path d="M 11.63716050000005,76.84343149999995 L 0.0,84.67807462102019" fill="none" stroke="rgb(0,178,0)" stroke-width="0.1"/>
 </g>
 <g id="layerCOLUMN" inkscape:groupmode="layer" inkscape:label="COLUMN">
  <path d="M 2.5381605000000604,27.513431500000024 L 9.174160500000028,23.043431499999997" fill="none" instance-id="-1" semantic-id="1" stroke="rgb(178,178,0)" stroke-width="0.1"/>
  <path d="M 9.174160500000028,23.043431499999997 L 4.706160500000067,16.403431500000124" fill="none" instance-id="-1" semantic-id="1" stroke="rgb(178,178,0)" stroke-width="0.1"/>
  <path d="M 4.706160500000067,16.403431500000124 L 0.0,19.573494404611438" fill="none" instance-id="-1" semantic-id="1" stroke="rgb(178,178,0)" stroke-width="0.1"/>
  <path d="M 0.0,23.741411419427095 L 2.5381605000000604,27.513431500000024" fill="none" instance-id="-1" semantic-id="1" stroke="rgb(178,178,0)" stroke-width="0.1"/>
  <path d="M 47.89116050000007,94.87343150000015 L 55.35716050000008,89.85343149999994" fill="none" instance-id="-1" semantic-id="1" stroke="rgb(178,178,0)" stroke-width="0.1"/>
  <path d="M 55.35716050000008,89.85343149999994 L 50.33116050000001,82.38343150000014" fill="none" instance-id="-1" semantic-id="1" stroke="rgb(178,178,0)" stroke-width="0.1"/>
  <path d="M 50.33116050000001,82.38343150000014 L 42.86516050000006,87.41343150000012" fill="none" instance-id="-1" semantic-id="1" stroke="rgb(178,178,0)" stroke-width="0.1"/>
  <path d="M 42.86516050000006,87.41343150000012 L 47.89116050000007,94.87343150000015" fill="none" instance-id="-1" semantic-id="1" stroke="rgb(178,178,0)" stroke-width="0.1"/>
 </g>
 <g id="layerCURTWALL" inkscape:groupmode="layer" inkscape:label="CURTWALL">
  <path d="M 46.823160500000085,98.66343150000012 L 0.0,29.115752397516417" fill="none" stroke="rgb(0,178,178)" stroke-width="0.1"/>
  <path d="M 47.128160500000035,97.32343149999997 L 0.0,27.322885161567683" fill="none" stroke="rgb(0,178,178)" stroke-width="0.1"/>
 </g>
 <g id="layerDIM_SYMB" inkscape:groupmode="layer" inkscape:label="DIM_SYMB">
  <path d="M 32.70816050000002,50.84343149999995 L 37.23216050000002,57.56343149999998" fill="none" stroke="rgb(0,178,0)" stroke-width="0.1"/>
  <path d="M 37.23216050000002,57.56343149999998 L 39.745160500000054,61.2934315" fill="none" stroke="rgb(0,178,0)" stroke-width="0.1"/>
  <path d="M 45.15116050000006,42.46343150000007 L 62.35316050000006,68.01343150000002" fill="none" stroke="rgb(0,178,0)" stroke-width="0.1"/>
  <path d="M 62.35316050000006,68.01343150000002 L 49.910160500000075,76.39343150000013" fill="none" stroke="rgb(0,178,0)" stroke-width="0.1"/>
  <path d="M 49.910160500000075,76.39343150000013 L 43.822160499999995,67.34343149999995" fill="none" stroke="rgb(0,178,0)" stroke-width="0.1"/>
  <path d="M 43.822160499999995,67.34343149999995 L 41.30916050000002,63.61343149999993" fill="none" stroke="rgb(0,178,0)" stroke-width="0.1"/>
 </g>
 <g id="layerDOOR_FIRE" inkscape:groupmode="layer" inkscape:label="DOOR_FIRE">
  <path d="M 76.27816050000001,18.863431499999933 L 84.57316050000009,13.273431500000015" fill="none" instance-id="3" semantic-id="3" stroke="rgb(0,178,178)" stroke-width="0.1"/>
  <path d="M 75.71916050000004,18.033431500000006 L 77.63616050000007,8.22343150000006" fill="none" instance-id="3" semantic-id="3" stroke="rgb(0,178,178)" stroke-width="0.1"/>
  <path d="M 36.11916050000002,14.72343150000006 L 29.64916050000005,19.07343149999997" fill="none" instance-id="1" semantic-id="4" stroke="rgb(0,178,178)" stroke-width="0.1"/>
  <path d="M 36.342160500000034,15.053431499999988 L 29.872160500000064,19.413431500000115" fill="none" instance-id="1" semantic-id="4" stroke="rgb(0,178,178)" stroke-width="0.1"/>
  <path d="M 36.11916050000002,14.72343150000006 L 36.342160500000034,15.053431499999988" fill="none" instance-id="1" semantic-id="4" stroke="rgb(0,178,178)" stroke-width="0.1"/>
  <path d="M 29.872160500000064,19.413431500000115 L 29.64916050000005,19.07343149999997" fill="none" instance-id="1" semantic-id="4" stroke="rgb(0,178,178)" stroke-width="0.1"/>
  <path d="M 44.83116050000001,27.663431500000115 L 38.36116050000004,32.023431500000015" fill="none" instance-id="1" semantic-id="4" stroke="rgb(0,178,178)" stroke-width="0.1"/>
  <path d="M 45.05416050000008,27.993431500000042 L 38.58416050000005,32.35343149999994" fill="none" instance-id="1" semantic-id="4" stroke="rgb(0,178,178)" stroke-width="0.1"/>
  <path d="M 38.36116050000004,32.023431500000015 L 38.58416050000005,32.35343149999994" fill="none" instance-id="1" semantic-id="4" stroke="rgb(0,178,178)" stroke-width="0.1"/>
  <path d="M 45.05416050000008,27.993431500000042 L 44.83116050000001,27.663431500000115" fill="none" instance-id="1" semantic-id="4" stroke="rgb(0,178,178)" stroke-width="0.1"/>
  <path d="M 83.3361605,0.24343150000004243 L 74.84416050000004,5.96343150000007" fill="none" stroke="rgb(0,178,178)" stroke-width="0.1"/>
  <path d="M 82.76614541774472,0.0 L 74.55016050000006,5.533431500000006" fill="none" stroke="rgb(0,178,178)" stroke-width="0.1"/>
  <path d="M 83.3361605,0.24343150000004243 L 83.17028740813953,0.0" fill="none" stroke="rgb(0,178,178)" stroke-width="0.1"/>
  <path d="M 74.55016050000006,5.533431500000006 L 74.84416050000004,5.96343150000007" fill="none" stroke="rgb(0,178,178)" stroke-width="0.1"/>
  <path d="M 84.0141605,12.443431500000088 A 10.0,10.0 0.0 0,0 77.63616050000007,8.22343150000006" fill="none" instance-id="3" semantic-id="3" stroke="rgb(0,178,178)" stroke-width="0.1"/>
  <path d="M 29.874160500000016,19.403431500000124 A 7.8,7.8 0.0 0,0 40.58716050000004,21.353431499999942" fill="none" instance-id="1" semantic-id="4" stroke="rgb(0,178,178)" stroke-width="0.1"/>
  <path d="M 40.58716050000004,21.353431499999942 A 7.8,7.8 0.0 0,0 38.36316050000005,32.013431500000024" fill="none" instance-id="1" semantic-id="4" stroke="rgb(0,178,178)" stroke-width="0.1"/>
  <path d="M 72.95356304837549,0.21623679835920484 L 72.97576214493779,0.7259789704835384" fill="none" stroke="rgb(0,178,178)" stroke-width="0.1"/>
  <path d="M 72.97576214493779,0.7259789704835384 L 73.02333075053605,1.2339820311945005" fill="none" stroke="rgb(0,178,178)" stroke-width="0.1"/>
  <path d="M 73.02333075053605,1.2339820311945005 L 73.09615070894392,1.7389841456335944" fill="none" stroke="rgb(0,178,178)" stroke-width="0.1"/>
  <path d="M 73.09615070894392,1.7389841456335944 L 73.1940411417986,2.239730933027886" fill="none" stroke="rgb(0,178,178)" stroke-width="0.1"/>
  <path d="M 73.1940411417986,2.239730933027886 L 73.31675889788676,2.7349785824631" fill="none" stroke="rgb(0,178,178)" stroke-width="0.1"/>
  <path d="M 73.31675889788676,2.7349785824631 L 73.46399915711118,3.223496942398242" fill="none" stroke="rgb(0,178,178)" stroke-width="0.1"/>
  <path d="M 73.46399915711118,3.223496942398242 L 73.63539618763673,3.704072576255612" fill="none" stroke="rgb(0,178,178)" stroke-width="0.1"/>
  <path d="M 73.63539618763673,3.704072576255612 L 73.83052425433584,4.175511776488975" fill="none" stroke="rgb(0,178,178)" stroke-width="0.1"/>
  <path d="M 73.83052425433584,4.175511776488975 L 74.04889867627753,4.6366435296483814" fill="none" stroke="rgb(0,178,178)" stroke-width="0.1"/>
  <path d="M 74.04889867627753,4.6366435296483814 L 74.28997703063169,5.0863224250751955" fill="none" stroke="rgb(0,178,178)" stroke-width="0.1"/>
  <path d="M 74.28997703063169,5.0863224250751955 L 74.55316049999999,5.523431500000015" fill="none" stroke="rgb(0,178,178)" stroke-width="0.1"/>
 </g>
 <g id="layerDOOR_FIRE_TEXT" inkscape:groupmode="layer" inkscape:label="DOOR_FIRE_TEXT">
  <text fill="rgb(0,0,0)" font-family="Noto Sans CJK SC" font-size="2" transform="rotate(-33.9506,66.35116049999999,18.97343150000006)" x="66.35116049999999" y="18.97343150000006">
   FM
  </text>
  <text fill="rgb(0,0,0)" font-family="Noto Sans CJK SC" font-size="2" transform="rotate(-33.9506,71.92516050000006,15.21343150000007)" x="71.92516050000006" y="15.21343150000007">
   丙
  </text>
  <text fill="rgb(0,0,0)" font-family="Noto Sans CJK SC" font-size="2" transform="rotate(-33.9506,75.4091605000001,12.873431500000152)" x="75.4091605000001" y="12.873431500000152">
   1021
  </text>
  <text fill="rgb(0,0,0)" font-family="Noto Sans CJK SC" font-size="2" transform="rotate(-303.951,35.30916050000002,8.443431500000088)" x="35.30916050000002" y="8.443431500000088">
   FM
  </text>
  <text fill="rgb(0,0,0)" font-family="Noto Sans CJK SC" font-size="2" transform="rotate(-303.951,40.00016050000005,15.413431500000115)" x="40.00016050000005" y="15.413431500000115">
   乙
  </text>
  <text fill="rgb(0,0,0)" font-family="Noto Sans CJK SC" font-size="2" transform="rotate(-303.951,42.745160500000054,19.493431500000042)" x="42.745160500000054" y="19.493431500000042">
   1623
  </text>
 </g>
 <g id="layerEVTR" inkscape:groupmode="layer" inkscape:label="EVTR">
  <path d="M 80.29416050000009,67.89343150000013 L 78.13016049999999,64.70343150000008" fill="none" instance-id="4" semantic-id="31" stroke="rgb(178,88,0)" stroke-width="0.1"/>
  <path d="M 78.13016049999999,64.70343150000008 L 88.09916050000004,57.95343150000008" fill="none" instance-id="4" semantic-id="31" stroke="rgb(178,88,0)" stroke-width="0.1"/>
  <path d="M 88.09916050000004,57.95343150000008 L 90.26216050000005,61.14343150000013" fill="none" instance-id="4" semantic-id="31" stroke="rgb(178,88,0)" stroke-width="0.1"/>
  <path d="M 90.26216050000005,61.14343150000013 L 80.29416050000009,67.89343150000013" fill="none" instance-id="4" semantic-id="31" stroke="rgb(178,88,0)" stroke-width="0.1"/>
  <path d="M 76.47516050000002,64.74343150000004 L 66.8171605,50.48343150000005" fill="none" instance-id="4" semantic-id="31" stroke="rgb(178,88,0)" stroke-width="0.1"/>
  <path d="M 66.8171605,50.48343150000005 L 80.23016050000001,41.403431500000124" fill="none" instance-id="4" semantic-id="31" stroke="rgb(178,88,0)" stroke-width="0.1"/>
  <path d="M 80.23016050000001,41.403431500000124 L 89.88816050000003,55.663431500000115" fill="none" instance-id="4" semantic-id="31" stroke="rgb(178,88,0)" stroke-width="0.1"/>
  <path d="M 89.88816050000003,55.663431500000115 L 76.47516050000002,64.74343150000004" fill="none" instance-id="4" semantic-id="31" stroke="rgb(178,88,0)" stroke-width="0.1"/>
  <path d="M 76.47516050000002,64.74343150000004 L 80.23016050000001,41.403431500000124" fill="none" instance-id="4" semantic-id="31" stroke="rgb(178,88,0)" stroke-width="0.1"/>
  <path d="M 66.8171605,50.48343150000005 L 89.88816050000003,55.663431500000115" fill="none" instance-id="4" semantic-id="31" stroke="rgb(178,88,0)" stroke-width="0.1"/>
 </g>
 <g id="layerLVTRY" inkscape:groupmode="layer" inkscape:label="LVTRY">
  <path d="M 39.95816050000002,3.4034315000001243 L 37.671157666287854,0.0" fill="none" stroke="rgb(0,0,0)" stroke-width="0.1"/>
  <path d="M 38.15121769370086,0.0 L 40.29016050000007,3.173431500000106" fill="none" stroke="rgb(0,0,0)" stroke-width="0.1"/>
  <path d="M 37.463160500000015,3.273431500000015 L 30.827160500000048,7.743431500000042" fill="none" instance-id="6" semantic-id="23" stroke="rgb(0,0,0)" stroke-width="0.1"/>
  <path d="M 37.57416050000006,3.443431500000088 L 30.939160500000014,7.913431500000115" fill="none" instance-id="6" semantic-id="23" stroke="rgb(0,0,0)" stroke-width="0.1"/>
  <path d="M 33.32416050000006,7.873431500000152 L 32.59816050000006,6.793431499999997" fill="none" instance-id="6" semantic-id="23" stroke="rgb(0,0,0)" stroke-width="0.1"/>
  <path d="M 36.642160500000045,5.6334315000001425 L 35.916160500000046,4.553431499999988" fill="none" instance-id="6" semantic-id="23" stroke="rgb(0,0,0)" stroke-width="0.1"/>
  <path d="M 30.939160500000014,7.913431500000115 L 30.827160500000048,7.743431500000042" fill="none" instance-id="6" semantic-id="23" stroke="rgb(0,0,0)" stroke-width="0.1"/>
  <path d="M 37.57416050000006,3.443431500000088 L 37.463160500000015,3.273431500000015" fill="none" stroke="rgb(0,0,0)" stroke-width="0.1"/>
  <path d="M 33.50216050000006,0.48343150000005153 L 29.728160500000058,3.023431500000015" fill="none" instance-id="6" semantic-id="23" stroke="rgb(0,0,0)" stroke-width="0.1"/>
  <path d="M 33.463160500000015,1.0534314999999879 L 30.352160500000025,3.1434315000001334" fill="none" instance-id="6" semantic-id="23" stroke="rgb(0,0,0)" stroke-width="0.1"/>
  <path d="M 31.944160500000066,5.503431500000033 L 35.055160500000056,3.413431500000115" fill="none" instance-id="6" semantic-id="23" stroke="rgb(0,0,0)" stroke-width="0.1"/>
  <path d="M 31.767160500000045,6.053431499999988 L 35.54016050000007,3.5034315000000333" fill="none" instance-id="6" semantic-id="23" stroke="rgb(0,0,0)" stroke-width="0.1"/>
  <path d="M 30.339160500000048,3.2134315000000697 L 31.87516050000005,5.493431500000042" fill="none" instance-id="6" semantic-id="23" stroke="rgb(0,0,0)" stroke-width="0.1"/>
  <path d="M 35.06816050000003,3.3434314999999515 L 33.53216050000003,1.0634314999999788" fill="none" instance-id="6" semantic-id="23" stroke="rgb(0,0,0)" stroke-width="0.1"/>
  <path d="M 29.714160500000048,3.0934314999999515 L 31.697160500000052,6.033431500000006" fill="none" instance-id="6" semantic-id="23" stroke="rgb(0,0,0)" stroke-width="0.1"/>
  <path d="M 35.55416050000002,3.433431500000097 L 33.57116050000002,0.49343150000004243" fill="none" instance-id="6" semantic-id="23" stroke="rgb(0,0,0)" stroke-width="0.1"/>
  <path d="M 36.18416050000002,2.693431500000088 L 36.191160500000024,2.7434315000000424" fill="none" stroke="rgb(0,0,0)" stroke-width="0.1"/>
  <path d="M 35.77216050000004,2.803431499999988 L 36.191160500000024,2.7434315000000424" fill="none" instance-id="6" semantic-id="23" stroke="rgb(0,0,0)" stroke-width="0.1"/>
  <path d="M 35.765160500000036,2.7434315000000424 L 36.18416050000002,2.693431500000088" fill="none" instance-id="6" semantic-id="23" stroke="rgb(0,0,0)" stroke-width="0.1"/>
  <path d="M 34.52216050000004,3.0834314999999606 L 34.483160500000054,2.7634315000000242" fill="none" instance-id="6" semantic-id="23" stroke="rgb(0,0,0)" stroke-width="0.1"/>
  <path d="M 35.34316050000007,2.9834315000000515 L 34.40716050000003,3.0934314999999515" fill="none" instance-id="6" semantic-id="23" stroke="rgb(0,0,0)" stroke-width="0.1"/>
  <path d="M 35.305160500000056,2.663431500000115 L 34.36916050000002,2.773431500000015" fill="none" instance-id="6" semantic-id="23" stroke="rgb(0,0,0)" stroke-width="0.1"/>
  <path d="M 34.40716050000003,3.0934314999999515 L 34.36916050000002,2.773431500000015" fill="none" instance-id="6" semantic-id="23" stroke="rgb(0,0,0)" stroke-width="0.1"/>
  <path d="M 36.948006443446786,0.0 L 34.39716050000004,1.7234315000000606" fill="none" stroke="rgb(0,0,0)" stroke-width="0.1"/>
  <path d="M 30.541160500000046,4.32343149999997 L 27.492160500000068,6.373431500000152" fill="none" stroke="rgb(0,0,0)" stroke-width="0.1"/>
  <path d="M 33.57116050000002,0.49343150000004243 A 0.05,0.05 0.0 0,0 33.50216050000006,0.48343150000005153" fill="none" stroke="rgb(0,0,0)" stroke-width="0.1"/>
  <path d="M 29.728160500000058,3.023431500000015 A 0.05,0.05 0.0 0,0 29.714160500000048,3.0934314999999515" fill="none" stroke="rgb(0,0,0)" stroke-width="0.1"/>
  <path d="M 33.53216050000003,1.0634314999999788 A 0.05,0.05 0.0 0,0 33.463160500000015,1.0534314999999879" fill="none" stroke="rgb(0,0,0)" stroke-width="0.1"/>
  <path d="M 30.352160500000025,3.1434315000001334 A 0.05,0.05 0.0 0,0 30.339160500000048,3.2134315000000697" fill="none" stroke="rgb(0,0,0)" stroke-width="0.1"/>
  <path d="M 35.54016050000007,3.5034315000000333 A 0.05,0.05 0.0 0,0 35.55416050000002,3.433431500000097" fill="none" stroke="rgb(0,0,0)" stroke-width="0.1"/>
  <path d="M 35.055160500000056,3.413431500000115 A 0.05,0.05 0.0 0,0 35.06816050000003,3.3434314999999515" fill="none" stroke="rgb(0,0,0)" stroke-width="0.1"/>
  <path d="M 31.87516050000005,5.493431500000042 A 0.05,0.05 0.0 0,0 31.944160500000066,5.503431500000033" fill="none" stroke="rgb(0,0,0)" stroke-width="0.1"/>
  <path d="M 31.697160500000052,6.033431500000006 A 0.05,0.05 0.0 0,0 31.767160500000045,6.053431499999988" fill="none" stroke="rgb(0,0,0)" stroke-width="0.1"/>
  <circle cx="32.92416050000003" cy="3.6034314999999424" fill="none" instance-id="6" r="0.2" semantic-id="23" stroke="rgb(0,0,0)" stroke-width="0.1"/>
  <circle cx="35.53016050000002" cy="2.793431499999997" fill="none" instance-id="6" r="0.24" semantic-id="23" stroke="rgb(0,0,0)" stroke-width="0.1"/>
  <circle cx="35.53016050000002" cy="2.793431499999997" fill="none" instance-id="6" r="0.24" semantic-id="23" stroke="rgb(0,0,0)" stroke-width="0.1"/>
  <circle cx="35.53016050000002" cy="2.793431499999997" fill="none" instance-id="6" r="0.24" semantic-id="23" stroke="rgb(0,0,0)" stroke-width="0.1"/>
 </g>
 <g id="layerM-INFO-ROOM-JZTZ" inkscape:groupmode="layer" inkscape:label="M-INFO-ROOM-JZTZ">
  <path d="M 90.60516050000001,28.503431500000033 L 81.06616050000002,34.923431500000106" fill="none" stroke="rgb(178,0,0)" stroke-width="0.1"/>
  <path d="M 81.06616050000002,34.923431500000106 L 99.01716050000005,61.59343149999995" fill="none" stroke="rgb(178,0,0)" stroke-width="0.1"/>
  <path d="M 99.01716050000005,61.59343149999995 L 100.0,61.037513519517915" fill="none" stroke="rgb(178,0,0)" stroke-width="0.1"/>
  <path d="M 100.0,42.45772599956649 L 90.60516050000001,28.503431500000033" fill="none" stroke="rgb(178,0,0)" stroke-width="0.1"/>
  <path d="M 90.0631605000001,31.283431500000006 L 83.84216050000009,35.47343150000006" fill="none" stroke="rgb(178,0,0)" stroke-width="0.1"/>
  <path d="M 83.84216050000009,35.47343150000006 L 99.64316050000002,58.94343150000009" fill="none" stroke="rgb(178,0,0)" stroke-width="0.1"/>
  <path d="M 99.64316050000002,58.94343150000009 L 100.0,58.74131324885502" fill="none" stroke="rgb(178,0,0)" stroke-width="0.1"/>
  <path d="M 100.0,46.03775921388706 L 90.0631605000001,31.283431500000006" fill="none" stroke="rgb(178,0,0)" stroke-width="0.1"/>
  <path d="M 100.0,24.555290628474495 L 98.90116050000006,22.923431500000106" fill="none" stroke="rgb(178,0,0)" stroke-width="0.1"/>
  <path d="M 98.90116050000006,22.923431500000106 L 88.9471605,29.62343150000015" fill="none" stroke="rgb(178,0,0)" stroke-width="0.1"/>
  <path d="M 88.9471605,29.62343150000015 L 100.0,46.03772770398382" fill="none" stroke="rgb(178,0,0)" stroke-width="0.1"/>
  <path d="M 100.0,28.131023247563235 L 98.35916050000003,25.693431500000088" fill="none" stroke="rgb(178,0,0)" stroke-width="0.1"/>
  <path d="M 98.35916050000003,25.693431500000088 L 91.72316050000006,30.163431500000115" fill="none" stroke="rgb(178,0,0)" stroke-width="0.1"/>
  <path d="M 91.72316050000006,30.163431500000115 L 100.0,42.45930544812586" fill="none" stroke="rgb(178,0,0)" stroke-width="0.1"/>
  <path d="M 100.0,41.020960324253565 L 94.4181605,31.58343149999996" fill="none" stroke="rgb(178,0,0)" stroke-width="0.1"/>
  <path d="M 94.4181605,31.58343149999996 L 98.35916050000003,25.693431500000088" fill="none" stroke="rgb(178,0,0)" stroke-width="0.1"/>
  <path d="M 83.84316050000007,35.47343150000006 L 99.15716050000003,52.85343149999994" fill="none" stroke="rgb(178,0,0)" stroke-width="0.1"/>
  <path d="M 99.15716050000003,52.85343149999994 L 100.0,53.138911371347604" fill="none" stroke="rgb(178,0,0)" stroke-width="0.1"/>
  <path d="M 100.0,41.020960324253565 L 94.4181605,31.58343149999996" fill="none" stroke="rgb(178,0,0)" stroke-width="0.1"/>
  <path d="M 94.4181605,31.58343149999996 L 98.35916050000003,25.693431500000088" fill="none" stroke="rgb(178,0,0)" stroke-width="0.1"/>
 </g>
 <g id="layerPUB_TEXT" inkscape:groupmode="layer" inkscape:label="PUB_TEXT">
  <text fill="rgb(0,0,0)" font-family="Noto Sans CJK SC" font-size="2" transform="rotate(-33.95,93.1391605,49.48343150000005)" x="93.1391605" y="49.48343150000005">
   补风井
  </text>
  <text fill="rgb(0,0,0)" font-family="Noto Sans CJK SC" font-size="2" transform="rotate(-33.95,80.89816050000002,29.08343149999996)" x="80.89816050000002" y="29.08343149999996">
   强电井
  </text>
  <text fill="rgb(0,0,0)" font-family="Noto Sans CJK SC" font-size="2" transform="rotate(-33.95,56.19316050000009,85.49343150000004)" x="56.19316050000009" y="85.49343150000004">
   LT17
  </text>
  <text fill="rgb(0,0,0)" font-family="Noto Sans CJK SC" font-size="2" transform="rotate(-35.0,26.84916050000004,53.023431500000015)" x="26.84916050000004" y="53.023431500000015">
   上
  </text>
  <text fill="rgb(0,0,0)" font-family="Noto Sans CJK SC" font-size="2" transform="rotate(-35.0,29.86916050000002,50.903431500000124)" x="29.86916050000002" y="50.903431500000124">
   18
  </text>
  <text fill="rgb(0,0,0)" font-family="Noto Sans CJK SC" font-size="2" transform="rotate(-35.0,34.29216050000002,47.80343149999999)" x="34.29216050000002" y="47.80343149999999">
   级
  </text>
  <text fill="rgb(0,0,0)" font-family="Noto Sans CJK SC" font-size="2" transform="rotate(-35.0,39.29216050000002,44.64343150000013)" x="39.29216050000002" y="44.64343150000013">
   下
  </text>
  <text fill="rgb(0,0,0)" font-family="Noto Sans CJK SC" font-size="2" transform="rotate(-35.0,42.31116050000003,42.523431500000015)" x="42.31116050000003" y="42.523431500000015">
   18
  </text>
  <text fill="rgb(0,0,0)" font-family="Noto Sans CJK SC" font-size="2" transform="rotate(-35.0,46.735160500000006,39.4334315000001)" x="46.735160500000006" y="39.4334315000001">
   级
  </text>
 </g>
 <g id="layerS-WALL-LINE" inkscape:groupmode="layer" inkscape:label="S-WALL-LINE">
  <path d="M 47.02916049999999,84.64343150000013 L 45.42216050000002,91.19343150000009" fill="none" stroke="rgb(178,178,0)" stroke-width="0.1"/>
  <path d="M 45.42216050000002,91.19343150000009 L 14.282160500000032,44.9334315000001" fill="none" stroke="rgb(178,178,0)" stroke-width="0.1"/>
  <path d="M 14.282160500000032,44.9334315000001 L 18.421160500000042,42.153431500000124" fill="none" stroke="rgb(178,178,0)" stroke-width="0.1"/>
  <path d="M 18.421160500000042,42.153431500000124 L 47.02916049999999,84.64343150000013" fill="none" stroke="rgb(178,178,0)" stroke-width="0.1"/>
 </g>
 <g id="layerS-XF-LG" inkscape:groupmode="layer" inkscape:label="S-XF-LG">
  <circle cx="10.289160500000037" cy="28.863431499999933" fill="none" r="0.6" stroke="rgb(178,88,0)" stroke-width="0.1"/>
 </g>
 <g id="layerSTAIR" inkscape:groupmode="layer" inkscape:label="STAIR">
  <path d="M 27.683160500000042,55.913431500000115 L 36.19616050000002,68.55343149999999" fill="none" instance-id="7" semantic-id="30" stroke="rgb(178,88,0)" stroke-width="0.1"/>
  <path d="M 36.81016050000005,69.46343150000007 L 40.19316050000003,74.49343150000004" fill="none" instance-id="7" semantic-id="30" stroke="rgb(178,88,0)" stroke-width="0.1"/>
  <path d="M 38.79816050000005,48.423431500000106 L 27.683160500000042,55.913431500000115" fill="none" instance-id="7" semantic-id="30" stroke="rgb(178,88,0)" stroke-width="0.1"/>
  <path d="M 40.362160500000016,50.75343150000003 L 29.24616050000003,58.23343150000005" fill="none" instance-id="7" semantic-id="30" stroke="rgb(178,88,0)" stroke-width="0.1"/>
  <path d="M 41.92616050000004,53.07343149999997 L 30.810160500000052,60.55343149999999" fill="none" instance-id="7" semantic-id="30" stroke="rgb(178,88,0)" stroke-width="0.1"/>
  <path d="M 43.489160500000025,55.39343150000013 L 32.374160500000016,62.88343150000014" fill="none" instance-id="7" semantic-id="30" stroke="rgb(178,88,0)" stroke-width="0.1"/>
  <path d="M 45.05316049999999,57.71343150000007 L 43.28916050000004,58.903431500000124" fill="none" instance-id="7" semantic-id="30" stroke="rgb(178,88,0)" stroke-width="0.1"/>
  <path d="M 41.291160500000046,60.25343150000003 L 33.93816050000004,65.20343150000008" fill="none" instance-id="7" semantic-id="30" stroke="rgb(178,88,0)" stroke-width="0.1"/>
  <path d="M 46.61716050000007,60.0434315 L 39.76216050000005,64.65343150000012" fill="none" instance-id="7" semantic-id="30" stroke="rgb(178,88,0)" stroke-width="0.1"/>
  <path d="M 37.763160500000026,66.00343150000003 L 35.50216050000006,67.52343150000002" fill="none" instance-id="7" semantic-id="30" stroke="rgb(178,88,0)" stroke-width="0.1"/>
  <path d="M 48.18116050000003,62.36343149999993 L 37.06516050000005,69.84343149999995" fill="none" instance-id="7" semantic-id="30" stroke="rgb(178,88,0)" stroke-width="0.1"/>
  <path d="M 49.7451605,64.6834315000001 L 38.62916050000007,72.1734315000001" fill="none" instance-id="7" semantic-id="30" stroke="rgb(178,88,0)" stroke-width="0.1"/>
  <path d="M 51.308160499999985,67.00343150000003 L 40.19316050000003,74.49343150000004" fill="none" instance-id="7" semantic-id="30" stroke="rgb(178,88,0)" stroke-width="0.1"/>
  <path d="M 39.29616050000004,48.09343149999995 L 44.24216050000007,55.44343150000009" fill="none" instance-id="7" semantic-id="30" stroke="rgb(178,88,0)" stroke-width="0.1"/>
  <path d="M 44.85616049999999,56.35343149999994 L 51.80616050000003,66.6734315000001" fill="none" instance-id="7" semantic-id="30" stroke="rgb(178,88,0)" stroke-width="0.1"/>
  <path d="M 44.85616049999999,56.35343149999994 L 41.352160500000025,62.06343149999998" fill="none" instance-id="7" semantic-id="30" stroke="rgb(178,88,0)" stroke-width="0.1"/>
  <path d="M 44.24216050000007,55.44343150000009 L 40.640160500000036,61.31343149999998" fill="none" instance-id="7" semantic-id="30" stroke="rgb(178,88,0)" stroke-width="0.1"/>
  <path d="M 40.640160500000036,61.31343149999998 L 41.868160500000045,62.60343149999994" fill="none" instance-id="7" semantic-id="30" stroke="rgb(178,88,0)" stroke-width="0.1"/>
  <path d="M 41.868160500000045,62.60343149999994 L 39.23216050000002,62.07343149999997" fill="none" instance-id="7" semantic-id="30" stroke="rgb(178,88,0)" stroke-width="0.1"/>
  <path d="M 39.23216050000002,62.07343149999997 L 40.517160500000045,63.423431500000106" fill="none" instance-id="7" semantic-id="30" stroke="rgb(178,88,0)" stroke-width="0.1"/>
  <path d="M 40.517160500000045,63.423431500000106 L 36.81016050000005,69.46343150000007" fill="none" instance-id="7" semantic-id="30" stroke="rgb(178,88,0)" stroke-width="0.1"/>
  <path d="M 39.805160500000056,62.673431500000106 L 36.19616050000002,68.55343149999999" fill="none" instance-id="7" semantic-id="30" stroke="rgb(178,88,0)" stroke-width="0.1"/>
  <path d="M 64.24916050000002,58.2934315 L 51.73816050000005,39.71343150000007" fill="none" instance-id="8" semantic-id="30" stroke="rgb(178,88,0)" stroke-width="0.1"/>
  <path d="M 53.13316050000003,65.7834315 L 64.24916050000002,58.2934315" fill="none" instance-id="8" semantic-id="30" stroke="rgb(178,88,0)" stroke-width="0.1"/>
  <path d="M 51.57016050000004,63.45343150000008 L 62.68516050000005,55.97343150000006" fill="none" instance-id="8" semantic-id="30" stroke="rgb(178,88,0)" stroke-width="0.1"/>
  <path d="M 50.00616050000008,61.13343150000014 L 61.12116050000009,53.653431500000124" fill="none" instance-id="8" semantic-id="30" stroke="rgb(178,88,0)" stroke-width="0.1"/>
  <path d="M 48.4421605,58.81343149999998 L 59.55716050000001,51.32343149999997" fill="none" instance-id="8" semantic-id="30" stroke="rgb(178,88,0)" stroke-width="0.1"/>
  <path d="M 46.878160500000035,56.49343150000004 L 57.99416050000002,49.00343150000003" fill="none" instance-id="8" semantic-id="30" stroke="rgb(178,88,0)" stroke-width="0.1"/>
  <path d="M 45.31416050000007,54.163431500000115 L 56.430160500000056,46.6834315000001" fill="none" instance-id="8" semantic-id="30" stroke="rgb(178,88,0)" stroke-width="0.1"/>
  <path d="M 43.75116050000008,51.84343149999995 L 54.86616050000009,44.36343149999993" fill="none" instance-id="8" semantic-id="30" stroke="rgb(178,88,0)" stroke-width="0.1"/>
  <path d="M 42.18716050000006,49.523431500000015 L 53.302160500000014,42.033431500000006" fill="none" instance-id="8" semantic-id="30" stroke="rgb(178,88,0)" stroke-width="0.1"/>
  <path d="M 40.62316050000004,47.20343150000008 L 51.73816050000005,39.71343150000007" fill="none" instance-id="8" semantic-id="30" stroke="rgb(178,88,0)" stroke-width="0.1"/>
  <path d="M 52.636160500000074,66.11343149999993 L 40.12516050000005,47.533431500000006" fill="none" stroke="rgb(178,88,0)" stroke-width="0.1"/>
  <path d="M 39.62316050000004,46.783431500000006 L 38.793160500000056,47.34343149999995" fill="none" stroke="rgb(178,88,0)" stroke-width="0.1"/>
  <path d="M 38.793160500000056,47.34343149999995 L 44.24216050000007,55.44343150000009" fill="none" instance-id="7" semantic-id="30" stroke="rgb(178,88,0)" stroke-width="0.1"/>
  <path d="M 44.85616049999999,56.35343149999994 L 52.309160500000075,67.4234315000001" fill="none" instance-id="7" semantic-id="30" stroke="rgb(178,88,0)" stroke-width="0.1"/>
  <path d="M 52.309160500000075,67.4234315000001 L 53.138160500000026,66.86343149999993" fill="none" stroke="rgb(178,88,0)" stroke-width="0.1"/>
  <path d="M 53.138160500000026,66.86343149999993 L 39.62316050000004,46.783431500000006" fill="none" stroke="rgb(178,88,0)" stroke-width="0.1"/>
  <path d="M 39.78516050000002,45.95343150000008 L 37.96016050000003,47.1834315000001" fill="none" stroke="rgb(178,88,0)" stroke-width="0.1"/>
  <path d="M 37.96016050000003,47.1834315000001 L 43.89816050000002,56.00343150000003" fill="none" instance-id="7" semantic-id="30" stroke="rgb(178,88,0)" stroke-width="0.1"/>
  <path d="M 44.511160500000074,56.913431500000115 L 52.146160500000065,68.25343150000003" fill="none" instance-id="7" semantic-id="30" stroke="rgb(178,88,0)" stroke-width="0.1"/>
  <path d="M 52.146160500000065,68.25343150000003 L 53.971160499999996,67.02343150000002" fill="none" stroke="rgb(178,88,0)" stroke-width="0.1"/>
  <path d="M 53.971160499999996,67.02343150000002 L 39.78516050000002,45.95343150000008" fill="none" instance-id="8" semantic-id="30" stroke="rgb(178,88,0)" stroke-width="0.1"/>
  <path d="M 51.80616050000003,66.6734315000001 L 52.636160500000074,66.11343149999993" fill="none" stroke="rgb(178,88,0)" stroke-width="0.1"/>
  <path d="M 39.29616050000004,48.09343149999995 L 40.12516050000005,47.533431500000006" fill="none" stroke="rgb(178,88,0)" stroke-width="0.1"/>
 </g>
 <g id="layerSURFACE" inkscape:groupmode="layer" inkscape:label="SURFACE">
  <path d="M 100.0,21.867662449467844 L 90.65116050000006,7.9834315000000515" fill="none" stroke="rgb(178,0,178)" stroke-width="0.1"/>
  <path d="M 83.69818313373491,0.0 L 83.5431605,0.10343149999994239" fill="none" stroke="rgb(178,0,178)" stroke-width="0.1"/>
  <path d="M 90.65116050000006,7.9834315000000515 L 85.27632211699199,0.0" fill="none" stroke="rgb(178,0,178)" stroke-width="0.1"/>
 </g>
 <g id="layerWALL" inkscape:groupmode="layer" inkscape:label="WALL">
  <path d="M 81.0621605,34.923431500000106 L 71.01316050000003,19.993431500000042" fill="none" instance-id="-1" semantic-id="1" stroke="rgb(178,178,0)" stroke-width="0.1"/>
  <path d="M 82.72516050000002,33.81343149999998 L 73.7891605000001,20.533431500000006" fill="none" instance-id="-1" semantic-id="1" stroke="rgb(178,178,0)" stroke-width="0.1"/>
  <path d="M 97.24216050000007,24.033431500000006 L 88.30616050000003,10.763431500000024" fill="none" instance-id="-1" semantic-id="1" stroke="rgb(178,178,0)" stroke-width="0.1"/>
  <path d="M 99.45916050000005,23.753431500000033 L 89.40716050000003,8.813431499999979" fill="none" instance-id="-1" semantic-id="1" stroke="rgb(178,178,0)" stroke-width="0.1"/>
  <path d="M 61.441160500000024,50.5434315 L 66.83416050000005,46.913431500000115" fill="none" instance-id="-1" semantic-id="1" stroke="rgb(178,178,0)" stroke-width="0.1"/>
  <path d="M 66.83416050000005,46.913431500000115 L 65.71716050000009,45.25343150000003" fill="none" instance-id="-1" semantic-id="1" stroke="rgb(178,178,0)" stroke-width="0.1"/>
  <path d="M 65.71716050000009,45.25343150000003 L 60.32416050000006,48.88343150000014" fill="none" instance-id="-1" semantic-id="1" stroke="rgb(178,178,0)" stroke-width="0.1"/>
  <path d="M 81.0621605,34.923431500000106 L 74.84216050000009,39.11343149999993" fill="none" instance-id="-1" semantic-id="1" stroke="rgb(178,178,0)" stroke-width="0.1"/>
  <path d="M 74.84216050000009,39.11343149999993 L 75.95816050000008,40.763431500000024" fill="none" instance-id="-1" semantic-id="1" stroke="rgb(178,178,0)" stroke-width="0.1"/>
  <path d="M 75.95816050000008,40.763431500000024 L 82.17916050000008,36.58343149999996" fill="none" instance-id="-1" semantic-id="1" stroke="rgb(178,178,0)" stroke-width="0.1"/>
  <path d="M 74.1871605,73.05343149999999 L 59.22316050000006,50.83343149999996" fill="none" instance-id="-1" semantic-id="1" stroke="rgb(178,178,0)" stroke-width="0.1"/>
  <path d="M 75.93116050000003,72.06343149999998 L 61.441160500000024,50.5434315" fill="none" instance-id="-1" semantic-id="1" stroke="rgb(178,178,0)" stroke-width="0.1"/>
  <path d="M 47.15849356593901,0.0 L 39.55016050000006,5.123431500000152" fill="none" instance-id="-1" semantic-id="1" stroke="rgb(178,178,0)" stroke-width="0.1"/>
  <path d="M 45.00611570804449,0.0 L 38.382160500000055,4.46343150000007" fill="none" instance-id="-1" semantic-id="1" stroke="rgb(178,178,0)" stroke-width="0.1"/>
  <path d="M 38.382160500000055,4.46343150000007 L 36.64116050000007,5.6334315000001425" fill="none" instance-id="-1" semantic-id="1" stroke="rgb(178,178,0)" stroke-width="0.1"/>
  <path d="M 36.64116050000007,5.6334315000001425 L 37.31116050000003,6.6334315000001425" fill="none" instance-id="-1" semantic-id="1" stroke="rgb(178,178,0)" stroke-width="0.1"/>
  <path d="M 37.31116050000003,6.6334315000001425 L 38.555160500000056,5.793431499999997" fill="none" instance-id="-1" semantic-id="1" stroke="rgb(178,178,0)" stroke-width="0.1"/>
  <path d="M 30.676160500000037,11.093431499999951 L 33.993160500000045,8.863431499999933" fill="none" instance-id="-1" semantic-id="1" stroke="rgb(178,178,0)" stroke-width="0.1"/>
  <path d="M 33.993160500000045,8.863431499999933 L 33.32316050000003,7.863431499999933" fill="none" instance-id="-1" semantic-id="1" stroke="rgb(178,178,0)" stroke-width="0.1"/>
  <path d="M 33.32316050000003,7.863431499999933 L 30.005160500000045,10.103431499999942" fill="none" instance-id="-1" semantic-id="1" stroke="rgb(178,178,0)" stroke-width="0.1"/>
  <path d="M 31.045160500000065,13.433431500000097 L 4.911160500000051,31.033431500000006" fill="none" instance-id="-1" semantic-id="1" stroke="rgb(178,178,0)" stroke-width="0.1"/>
  <path d="M 29.928160500000047,11.773431500000015 L 5.453160500000024,28.263431500000024" fill="none" instance-id="-1" semantic-id="1" stroke="rgb(178,178,0)" stroke-width="0.1"/>
  <path d="M 54.20416050000006,1.283431500000006 L 41.84616050000005,9.603431499999942" fill="none" instance-id="-1" semantic-id="1" stroke="rgb(178,178,0)" stroke-width="0.1"/>
  <path d="M 51.87516049999999,1.4034315000001243 L 41.67316050000005,8.273431500000015" fill="none" instance-id="-1" semantic-id="1" stroke="rgb(178,178,0)" stroke-width="0.1"/>
  <path d="M 41.84616050000005,9.603431499999942 L 36.364160500000025,13.293431499999997" fill="none" instance-id="-1" semantic-id="1" stroke="rgb(178,178,0)" stroke-width="0.1"/>
  <path d="M 40.67816050000005,8.943431500000088 L 34.864160500000025,12.853431499999942" fill="none" instance-id="-1" semantic-id="1" stroke="rgb(178,178,0)" stroke-width="0.1"/>
  <path d="M 39.55016050000006,5.123431500000152 L 41.67316050000005,8.273431500000015" fill="none" instance-id="-1" semantic-id="1" stroke="rgb(178,178,0)" stroke-width="0.1"/>
  <path d="M 38.555160500000056,5.793431499999997 L 40.67816050000005,8.943431500000088" fill="none" instance-id="-1" semantic-id="1" stroke="rgb(178,178,0)" stroke-width="0.1"/>
  <path d="M 30.676160500000037,11.093431499999951 L 31.316160500000024,12.043431499999997" fill="none" instance-id="-1" semantic-id="1" stroke="rgb(178,178,0)" stroke-width="0.1"/>
  <path d="M 29.511160500000017,11.163431500000115 L 29.928160500000047,11.773431500000015" fill="none" instance-id="-1" semantic-id="1" stroke="rgb(178,178,0)" stroke-width="0.1"/>
  <path d="M 53.34081131032258,0.0 L 54.20416050000006,1.283431500000006" fill="none" instance-id="-1" semantic-id="1" stroke="rgb(178,178,0)" stroke-width="0.1"/>
  <path d="M 50.92929222238092,0.0 L 51.87516049999999,1.4034315000001243" fill="none" instance-id="-1" semantic-id="1" stroke="rgb(178,178,0)" stroke-width="0.1"/>
  <path d="M 23.20209737646684,0.0 L 30.005160500000045,10.103431499999942" fill="none" instance-id="-1" semantic-id="1" stroke="rgb(178,178,0)" stroke-width="0.1"/>
  <path d="M 21.995368757613107,0.0 L 29.511160500000017,11.163431500000115" fill="none" instance-id="-1" semantic-id="1" stroke="rgb(178,178,0)" stroke-width="0.1"/>
  <path d="M 82.72516050000002,33.81343149999998 L 89.77616050000006,29.06343149999998" fill="none" instance-id="-1" semantic-id="1" stroke="rgb(178,178,0)" stroke-width="0.1"/>
  <path d="M 83.84216050000009,35.47343150000006 L 90.0631605000001,31.283431500000006" fill="none" instance-id="-1" semantic-id="1" stroke="rgb(178,178,0)" stroke-width="0.1"/>
  <path d="M 100.0,46.03927622168612 L 90.0631605000001,31.283431500000006" fill="none" instance-id="-1" semantic-id="1" stroke="rgb(178,178,0)" stroke-width="0.1"/>
  <path d="M 100.0,42.45801334293583 L 91.72216050000009,30.163431500000115" fill="none" instance-id="-1" semantic-id="1" stroke="rgb(178,178,0)" stroke-width="0.1"/>
  <path d="M 89.77616050000006,29.06343149999998 L 97.24216050000007,24.033431500000006" fill="none" instance-id="-1" semantic-id="1" stroke="rgb(178,178,0)" stroke-width="0.1"/>
  <path d="M 91.72216050000009,30.163431500000115 L 98.35916050000003,25.693431500000088" fill="none" instance-id="-1" semantic-id="1" stroke="rgb(178,178,0)" stroke-width="0.1"/>
  <path d="M 97.7881605,59.763431500000024 L 82.17916050000008,36.58343149999996" fill="none" instance-id="-1" semantic-id="1" stroke="rgb(178,178,0)" stroke-width="0.1"/>
  <path d="M 99.54116050000005,58.783431500000006 L 83.84216050000009,35.47343150000006" fill="none" instance-id="-1" semantic-id="1" stroke="rgb(178,178,0)" stroke-width="0.1"/>
  <path d="M 100.0,28.131023247563235 L 98.35916050000003,25.693431500000088" fill="none" instance-id="-1" semantic-id="1" stroke="rgb(178,178,0)" stroke-width="0.1"/>
  <path d="M 100.0,24.55653344591701 L 99.45916050000005,23.753431500000033" fill="none" instance-id="-1" semantic-id="1" stroke="rgb(178,178,0)" stroke-width="0.1"/>
  <path d="M 34.705160500000034,14.413431500000115 L 32.63916050000006,15.803431499999988" fill="none" instance-id="-1" semantic-id="1" stroke="rgb(178,178,0)" stroke-width="0.1"/>
  <path d="M 34.864160500000025,12.853431499999942 L 32.79816050000005,14.253431500000033" fill="none" instance-id="-1" semantic-id="1" stroke="rgb(178,178,0)" stroke-width="0.1"/>
  <path d="M 69.1441605,82.35343149999994 L 66.0241605,77.72343150000006" fill="none" instance-id="-1" semantic-id="1" stroke="rgb(178,178,0)" stroke-width="0.1"/>
  <path d="M 70.80316049999999,81.23343150000005 L 68.88416050000001,78.38343150000014" fill="none" instance-id="-1" semantic-id="1" stroke="rgb(178,178,0)" stroke-width="0.1"/>
  <path d="M 69.1441605,82.35343149999994 L 70.80316049999999,81.23343150000005" fill="none" instance-id="-1" semantic-id="1" stroke="rgb(178,178,0)" stroke-width="0.1"/>
  <path d="M 31.316160500000024,12.043431499999997 L 32.79816050000005,14.253431500000033" fill="none" instance-id="-1" semantic-id="1" stroke="rgb(178,178,0)" stroke-width="0.1"/>
  <path d="M 31.045160500000065,13.433431500000097 L 32.63916050000006,15.803431499999988" fill="none" instance-id="-1" semantic-id="1" stroke="rgb(178,178,0)" stroke-width="0.1"/>
  <path d="M 4.911160500000051,31.033431500000006 L 0.30416050000002315,24.193431500000088" fill="none" instance-id="-1" semantic-id="1" stroke="rgb(178,178,0)" stroke-width="0.1"/>
  <path d="M 5.453160500000024,28.263431500000024 L 1.963160500000015,23.07343149999997" fill="none" instance-id="-1" semantic-id="1" stroke="rgb(178,178,0)" stroke-width="0.1"/>
  <path d="M 0.30416050000002315,24.193431500000088 L 1.963160500000015,23.07343149999997" fill="none" instance-id="-1" semantic-id="1" stroke="rgb(178,178,0)" stroke-width="0.1"/>
  <path d="M 73.7891605000001,20.533431500000006 L 76.27816050000001,18.863431499999933" fill="none" instance-id="-1" semantic-id="1" stroke="rgb(178,178,0)" stroke-width="0.1"/>
  <path d="M 76.27816050000001,18.863431499999933 L 75.16116050000005,17.20343150000008" fill="none" instance-id="-1" semantic-id="1" stroke="rgb(178,178,0)" stroke-width="0.1"/>
  <path d="M 75.16116050000005,17.20343150000008 L 71.01316050000003,19.993431500000042" fill="none" instance-id="-1" semantic-id="1" stroke="rgb(178,178,0)" stroke-width="0.1"/>
  <path d="M 87.18916050000007,9.103431499999942 L 83.45616050000001,11.623431500000152" fill="none" instance-id="-1" semantic-id="1" stroke="rgb(178,178,0)" stroke-width="0.1"/>
  <path d="M 83.45616050000001,11.623431500000152 L 84.57316050000009,13.273431500000015" fill="none" instance-id="-1" semantic-id="1" stroke="rgb(178,178,0)" stroke-width="0.1"/>
  <path d="M 84.57316050000009,13.273431500000015 L 88.30616050000003,10.763431500000024" fill="none" instance-id="-1" semantic-id="1" stroke="rgb(178,178,0)" stroke-width="0.1"/>
  <path d="M 89.40716050000003,8.813431499999979 L 83.5431605,0.10343149999994239" fill="none" instance-id="-1" semantic-id="1" stroke="rgb(178,178,0)" stroke-width="0.1"/>
  <path d="M 83.5431605,0.10343149999994239 L 81.88416050000001,1.2234315000000606" fill="none" instance-id="-1" semantic-id="1" stroke="rgb(178,178,0)" stroke-width="0.1"/>
  <path d="M 81.88416050000001,1.2234315000000606 L 87.18916050000007,9.103431499999942" fill="none" instance-id="-1" semantic-id="1" stroke="rgb(178,178,0)" stroke-width="0.1"/>
  <path d="M 60.32416050000006,48.88343150000014 L 45.88416050000001,27.433431500000097" fill="none" instance-id="-1" semantic-id="1" stroke="rgb(178,178,0)" stroke-width="0.1"/>
  <path d="M 45.88416050000001,27.433431500000097 L 44.225160500000015,28.553431499999988" fill="none" instance-id="-1" semantic-id="1" stroke="rgb(178,178,0)" stroke-width="0.1"/>
  <path d="M 44.225160500000015,28.553431499999988 L 59.22316050000006,50.83343149999996" fill="none" instance-id="-1" semantic-id="1" stroke="rgb(178,178,0)" stroke-width="0.1"/>
  <path d="M 34.705160500000034,14.413431500000115 L 35.28916050000004,15.283431500000006" fill="none" instance-id="-1" semantic-id="1" stroke="rgb(178,178,0)" stroke-width="0.1"/>
  <path d="M 35.28916050000004,15.283431500000006 L 36.94816050000003,14.163431500000115" fill="none" instance-id="-1" semantic-id="1" stroke="rgb(178,178,0)" stroke-width="0.1"/>
  <path d="M 36.94816050000003,14.163431500000115 L 36.364160500000025,13.293431499999997" fill="none" instance-id="-1" semantic-id="1" stroke="rgb(178,178,0)" stroke-width="0.1"/>
  <path d="M 4.911160500000051,31.033431500000006 L 0.0,23.738895547499396" fill="none" instance-id="-1" semantic-id="1" stroke="rgb(178,178,0)" stroke-width="0.1"/>
  <path d="M 5.453160500000024,28.263431500000024 L 0.0,20.164599358500254" fill="none" instance-id="-1" semantic-id="1" stroke="rgb(178,178,0)" stroke-width="0.1"/>
  <path d="M 99.97974500771352,58.53958970549229 L 99.54116050000005,58.783431500000006" fill="none" instance-id="-1" semantic-id="1" stroke="rgb(178,178,0)" stroke-width="0.1"/>
  <path d="M 99.7111605,60.98343150000005 A 3029.29,3029.29 0.0 0,0 76.11316050000005,74.26343150000002" fill="none" instance-id="-1" semantic-id="1" stroke="rgb(178,178,0)" stroke-width="0.1"/>
  <path d="M 97.7881605,59.763431500000024 A 3031.29,3031.29 0.0 0,0 75.93116050000003,72.06343149999998" fill="none" instance-id="-1" semantic-id="1" stroke="rgb(178,178,0)" stroke-width="0.1"/>
  <path d="M 76.11316050000005,74.26343150000002 A 3029.29,3029.29 0.0 0,0 68.88416050000001,78.38343150000014" fill="none" instance-id="-1" semantic-id="1" stroke="rgb(178,178,0)" stroke-width="0.1"/>
  <path d="M 74.1871605,73.05343149999999 A 3031.29,3031.29 0.0 0,0 66.0241605,77.72343150000006" fill="none" instance-id="-1" semantic-id="1" stroke="rgb(178,178,0)" stroke-width="0.1"/>
 </g>
 <g id="layerWINDOW" inkscape:groupmode="layer" inkscape:label="WINDOW">
  <path d="M 33.993160500000045,8.863431499999933 L 37.31116050000003,6.6334315000001425" fill="none" stroke="rgb(0,178,0)" stroke-width="0.1"/>
  <path d="M 36.64116050000007,5.6334315000001425 L 33.32316050000003,7.863431499999933" fill="none" stroke="rgb(0,178,0)" stroke-width="0.1"/>
  <path d="M 76.59216050000009,41.05343149999999 L 72.03016050000008,44.12343150000015" fill="none" instance-id="9" semantic-id="5" stroke="rgb(0,178,0)" stroke-width="0.1"/>
  <path d="M 76.47516050000002,40.88343150000014 L 71.9131605,43.95343150000008" fill="none" instance-id="9" semantic-id="5" stroke="rgb(0,178,0)" stroke-width="0.1"/>
  <path d="M 66.85916050000003,47.60343149999994 L 66.74216050000007,47.4334315000001" fill="none" instance-id="9" semantic-id="5" stroke="rgb(0,178,0)" stroke-width="0.1"/>
  <path d="M 76.59216050000009,41.05343149999999 L 76.47516050000002,40.88343150000014" fill="none" instance-id="9" semantic-id="5" stroke="rgb(0,178,0)" stroke-width="0.1"/>
  <path d="M 71.42116050000004,44.533431500000006 L 71.30516050000006,44.36343149999993" fill="none" instance-id="9" semantic-id="5" stroke="rgb(0,178,0)" stroke-width="0.1"/>
  <path d="M 71.30516050000006,44.36343149999993 L 66.74216050000007,47.4334315000001" fill="none" instance-id="9" semantic-id="5" stroke="rgb(0,178,0)" stroke-width="0.1"/>
  <path d="M 71.42116050000004,44.533431500000006 L 66.85916050000003,47.60343149999994" fill="none" instance-id="9" semantic-id="5" stroke="rgb(0,178,0)" stroke-width="0.1"/>
  <path d="M 72.03016050000008,44.12343150000015 L 71.9131605,43.95343150000008" fill="none" instance-id="9" semantic-id="5" stroke="rgb(0,178,0)" stroke-width="0.1"/>
  <path d="M 75.95816050000008,40.763431500000024 L 66.83416050000005,46.913431500000115" fill="none" instance-id="9" semantic-id="5" stroke="rgb(0,178,0)" stroke-width="0.1"/>
 </g>
 <g id="layerWINDOW_TEXT" inkscape:groupmode="layer" inkscape:label="WINDOW_TEXT">
  <text fill="rgb(178,0,178)" font-family="Noto Sans CJK SC" font-size="2" transform="rotate(-33.9603,24.37916050000007,8.183431500000097)" x="24.37916050000007" y="8.183431500000097">
   M0921
  </text>
 </g>
 <g id="layers-消火栓" inkscape:groupmode="layer" inkscape:label="s-消火栓">
  <path d="M 11.418160500000056,26.653431500000124 L 18.564160500000014,24.73343150000005" fill="none" instance-id="11" semantic-id="19" stroke="rgb(178,88,0)" stroke-width="0.1"/>
  <path d="M 12.75816050000003,28.643431500000133 L 18.564160500000014,24.73343150000005" fill="none" instance-id="11" semantic-id="19" stroke="rgb(178,88,0)" stroke-width="0.1"/>
  <path d="M 18.564160500000014,24.73343150000005 L 17.22416050000004,22.743431500000042" fill="none" instance-id="11" semantic-id="19" stroke="rgb(178,88,0)" stroke-width="0.1"/>
  <path d="M 17.22416050000004,22.743431500000042 L 11.418160500000056,26.653431500000124" fill="none" instance-id="11" semantic-id="19" stroke="rgb(178,88,0)" stroke-width="0.1"/>
  <path d="M 11.418160500000056,26.653431500000124 L 12.75816050000003,28.643431500000133" fill="none" instance-id="11" semantic-id="19" stroke="rgb(178,88,0)" stroke-width="0.1"/>
  <path d="M 11.418160500000056,26.653431500000124 L 18.564160500000014,24.73343150000005" fill="none" instance-id="11" semantic-id="19" stroke="rgb(178,88,0)" stroke-width="0.1"/>
  <path d="M 18.564160500000014,24.73343150000005 L 17.22416050000004,22.743431500000042" fill="none" instance-id="11" semantic-id="19" stroke="rgb(178,88,0)" stroke-width="0.1"/>
  <path d="M 17.22416050000004,22.743431500000042 L 11.418160500000056,26.653431500000124" fill="none" instance-id="11" semantic-id="19" stroke="rgb(178,88,0)" stroke-width="0.1"/>
 </g>
 <g id="layer线路" inkscape:groupmode="layer" inkscape:label="线路">
  <path d="M 75.52916049999999,21.163431500000115 L 78.25716050000005,27.173431500000106" fill="none" stroke="rgb(178,0,0)" stroke-width="0.1"/>
  <path d="M 76.27816050000001,18.863431499999933 L 75.52916049999999,21.163431500000115" fill="none" stroke="rgb(178,0,0)" stroke-width="0.1"/>
  <path d="M 78.25716050000005,27.173431500000106 L 80.74616050000009,25.503431500000033" fill="none" stroke="rgb(178,0,0)" stroke-width="0.1"/>
  <path d="M 80.74616050000009,25.503431500000033 L 76.27816050000001,18.863431499999933" fill="none" stroke="rgb(178,0,0)" stroke-width="0.1"/>
  <path d="M 76.27816050000001,18.863431499999933 L 73.7891605000001,20.533431500000006" fill="none" stroke="rgb(178,0,0)" stroke-width="0.1"/>
  <path d="M 73.7891605000001,20.533431500000006 L 78.25716050000005,27.173431500000106" fill="none" stroke="rgb(178,0,0)" stroke-width="0.1"/>
 </g>
</svg>