<?xml version="1.0" encoding="utf-8"?>
<svg style="background-color: #000;" version="1.1" viewBox="0 0 100.0 100.0" xmlns="http://www.w3.org/2000/svg" xmlns:inkscape="http://www.inkscape.org/namespaces/inkscape">
 <g id="layer0-金属格栅" inkscape:groupmode="layer" inkscape:label="0-金属格栅">
  <path d="M 40.84748300000001,97.369684 L 43.8004830000001,97.897684" fill="none" stroke="rgb(73,73,73)" stroke-width="0.1"/>
  <path d="M 43.8004830000001,97.897684 L 43.71248300000002,98.38968400000002" fill="none" stroke="rgb(73,73,73)" stroke-width="0.1"/>
  <path d="M 43.71248300000002,98.38968400000002 L 40.759483000000046,97.861684" fill="none" stroke="rgb(73,73,73)" stroke-width="0.1"/>
  <path d="M 40.759483000000046,97.861684 L 40.84748300000001,97.369684" fill="none" stroke="rgb(73,73,73)" stroke-width="0.1"/>
  <path d="M 45.60448300000007,70.791684 L 48.55748300000005,71.320684" fill="none" stroke="rgb(73,73,73)" stroke-width="0.1"/>
  <path d="M 48.55748300000005,71.320684 L 48.46948300000008,71.81268400000002" fill="none" stroke="rgb(73,73,73)" stroke-width="0.1"/>
  <path d="M 48.46948300000008,71.81268400000002 L 45.51648300000011,71.28368400000002" fill="none" stroke="rgb(73,73,73)" stroke-width="0.1"/>
  <path d="M 45.51648300000011,71.28368400000002 L 45.60448300000007,70.791684" fill="none" stroke="rgb(73,73,73)" stroke-width="0.1"/>
  <path d="M 47.982483,57.502684000000016 L 50.93548300000009,58.03168400000001" fill="none" stroke="rgb(73,73,73)" stroke-width="0.1"/>
  <path d="M 50.93548300000009,58.03168400000001 L 50.84748300000001,58.523684" fill="none" stroke="rgb(73,73,73)" stroke-width="0.1"/>
  <path d="M 50.84748300000001,58.523684 L 47.89448300000004,57.99468400000001" fill="none" stroke="rgb(73,73,73)" stroke-width="0.1"/>
  <path d="M 47.89448300000004,57.99468400000001 L 47.982483,57.502684000000016" fill="none" stroke="rgb(73,73,73)" stroke-width="0.1"/>
  <path d="M 50.36148300000002,44.213684 L 53.31448300000011,44.742684" fill="none" stroke="rgb(73,73,73)" stroke-width="0.1"/>
  <path d="M 53.31448300000011,44.742684 L 53.22648300000003,45.234684000000016" fill="none" stroke="rgb(73,73,73)" stroke-width="0.1"/>
  <path d="M 53.22648300000003,45.234684000000016 L 50.273483000000056,44.70568400000002" fill="none" stroke="rgb(73,73,73)" stroke-width="0.1"/>
  <path d="M 50.273483000000056,44.70568400000002 L 50.36148300000002,44.213684" fill="none" stroke="rgb(73,73,73)" stroke-width="0.1"/>
  <path d="M 52.739483000000064,30.924684000000013 L 55.69248300000004,31.45368400000001" fill="none" stroke="rgb(73,73,73)" stroke-width="0.1"/>
  <path d="M 55.69248300000004,31.45368400000001 L 55.60448300000007,31.945684" fill="none" stroke="rgb(73,73,73)" stroke-width="0.1"/>
  <path d="M 55.60448300000007,31.945684 L 52.6514830000001,31.41768400000001" fill="none" stroke="rgb(73,73,73)" stroke-width="0.1"/>
  <path d="M 52.6514830000001,31.41768400000001 L 52.739483000000064,30.924684000000013" fill="none" stroke="rgb(73,73,73)" stroke-width="0.1"/>
  <path d="M 55.11848300000008,17.636684000000002 L 58.07148300000006,18.164684000000022" fill="none" stroke="rgb(73,73,73)" stroke-width="0.1"/>
  <path d="M 58.07148300000006,18.164684000000022 L 57.98348300000009,18.656684000000013" fill="none" stroke="rgb(73,73,73)" stroke-width="0.1"/>
  <path d="M 57.98348300000009,18.656684000000013 L 55.02948300000003,18.12868400000002" fill="none" stroke="rgb(73,73,73)" stroke-width="0.1"/>
  <path d="M 55.02948300000003,18.12868400000002 L 55.11848300000008,17.636684000000002" fill="none" stroke="rgb(73,73,73)" stroke-width="0.1"/>
  <path d="M 57.49648300000001,4.347684000000015 L 60.4494830000001,4.875684000000007" fill="none" stroke="rgb(73,73,73)" stroke-width="0.1"/>
  <path d="M 60.4494830000001,4.875684000000007 L 60.36148300000002,5.368684000000002" fill="none" stroke="rgb(73,73,73)" stroke-width="0.1"/>
  <path d="M 60.36148300000002,5.368684000000002 L 57.40848300000005,4.839684000000005" fill="none" stroke="rgb(73,73,73)" stroke-width="0.1"/>
  <path d="M 57.40848300000005,4.839684000000005 L 57.49648300000001,4.347684000000015" fill="none" stroke="rgb(73,73,73)" stroke-width="0.1"/>
 </g>
 <g id="layerAXIS" inkscape:groupmode="layer" inkscape:label="AXIS">
  <path d="M 49.082483000000025,99.03668400000001 L 54.46469561867366,100.0" fill="none" stroke="rgb(0,178,0)" stroke-width="0.1"/>
 </g>
 <g id="layerCOLUMN" inkscape:groupmode="layer" inkscape:label="COLUMN">
  <path d="M 40.37692877717586,100.0 L 41.606483000000026,93.12768400000002" fill="none" stroke="rgb(178,178,0)" stroke-width="0.1"/>
  <path d="M 41.606483000000026,93.12768400000002 L 32.7474830000001,91.541684" fill="none" stroke="rgb(178,178,0)" stroke-width="0.1"/>
  <path d="M 32.7474830000001,91.541684 L 31.51448300000004,98.43268400000002" fill="none" stroke="rgb(178,178,0)" stroke-width="0.1"/>
 </g>
 <g id="layerCURTWALL" inkscape:groupmode="layer" inkscape:label="CURTWALL">
  <path d="M 56.40748300000007,10.432684000000023 L 59.360483000000045,10.96168400000002" fill="none" instance-id="-1" semantic-id="2" stroke="rgb(0,178,178)" stroke-width="0.1"/>
  <path d="M 59.360483000000045,10.96168400000002 L 48.322483000000034,72.635684" fill="none" instance-id="-1" semantic-id="2" stroke="rgb(0,178,178)" stroke-width="0.1"/>
  <path d="M 58.37648300000001,10.785684000000003 L 47.33748300000002,72.45968400000001" fill="none" instance-id="-1" semantic-id="2" stroke="rgb(0,178,178)" stroke-width="0.1"/>
  <path d="M 43.82348300000001,92.09768400000002 L 42.408841395261675,100.0" fill="none" instance-id="-1" semantic-id="2" stroke="rgb(0,178,178)" stroke-width="0.1"/>
  <path d="M 44.80748300000005,92.273684 L 43.424659531205975,100.0" fill="none" instance-id="-1" semantic-id="2" stroke="rgb(0,178,178)" stroke-width="0.1"/>
  <path d="M 42.51048300000002,71.06268400000002 L 52.58748300000002,72.86568400000002" fill="none" stroke="rgb(0,178,178)" stroke-width="0.1"/>
  <path d="M 42.41748300000006,71.57968400000001 L 52.495483000000036,73.38268400000001" fill="none" instance-id="1" semantic-id="4" stroke="rgb(0,178,178)" stroke-width="0.1"/>
  <path d="M 42.51048300000002,71.06268400000002 L 42.41748300000006,71.57968400000001" fill="none" instance-id="1" semantic-id="4" stroke="rgb(0,178,178)" stroke-width="0.1"/>
  <path d="M 52.495483000000036,73.38268400000001 L 52.58748300000002,72.86568400000002" fill="none" stroke="rgb(0,178,178)" stroke-width="0.1"/>
  <path d="M 38.90348300000005,91.21768400000002 L 48.98048300000005,93.02068400000002" fill="none" instance-id="1" semantic-id="4" stroke="rgb(0,178,178)" stroke-width="0.1"/>
  <path d="M 38.81048300000009,91.73468400000002 L 48.888483000000065,93.53768400000001" fill="none" instance-id="-1" semantic-id="2" stroke="rgb(0,178,178)" stroke-width="0.1"/>
  <path d="M 48.98048300000005,93.02068400000002 L 48.888483000000065,93.53768400000001" fill="none" stroke="rgb(0,178,178)" stroke-width="0.1"/>
  <path d="M 38.81048300000009,91.73468400000002 L 38.90348300000005,91.21768400000002" fill="none" instance-id="1" semantic-id="4" stroke="rgb(0,178,178)" stroke-width="0.1"/>
  <path d="M 40.66048300000011,81.398684 A 10.2375,10.2375 0.0 0,0 52.49148300000002,73.38268400000001" fill="none" instance-id="1" semantic-id="4" stroke="rgb(0,178,178)" stroke-width="0.1"/>
  <path d="M 48.97748300000001,93.02068400000002 A 10.2375,10.2375 0.0 0,0 40.66048300000011,81.398684" fill="none" instance-id="1" semantic-id="4" stroke="rgb(0,178,178)" stroke-width="0.1"/>
 </g>
 <g id="layerDIM_SYMB" inkscape:groupmode="layer" inkscape:label="DIM_SYMB">
  <path d="M 42.49848300000008,11.516683999999998 L 39.0984830000001,30.51568400000002" fill="none" stroke="rgb(0,178,0)" stroke-width="0.1"/>
  <path d="M 39.0984830000001,30.51568400000002 L 38.305483000000095,34.944684000000024" fill="none" stroke="rgb(0,178,0)" stroke-width="0.1"/>
  <path d="M 33.68148300000007,60.77668400000002 L 37.082483000000025,41.778684" fill="none" stroke="rgb(0,178,0)" stroke-width="0.1"/>
  <path d="M 37.082483000000025,41.778684 L 37.87548300000003,37.349683999999996" fill="none" stroke="rgb(0,178,0)" stroke-width="0.1"/>
  <path d="M 21.505483000000027,7.759684000000021 L 18.10548300000005,26.757684000000012" fill="none" stroke="rgb(0,178,0)" stroke-width="0.1"/>
  <path d="M 18.10548300000005,26.757684000000012 L 17.312483000000043,31.18768400000002" fill="none" stroke="rgb(0,178,0)" stroke-width="0.1"/>
 </g>
 <g id="layerDOOR_FIRE" inkscape:groupmode="layer" inkscape:label="DOOR_FIRE">
  <path d="M 53.51648300000011,9.559684000000004 L 60.23448300000007,10.762684000000007" fill="none" instance-id="3" semantic-id="4" stroke="rgb(0,178,178)" stroke-width="0.1"/>
  <path d="M 53.454483000000096,9.904684000000003 L 60.17248300000006,11.106684000000001" fill="none" instance-id="3" semantic-id="4" stroke="rgb(0,178,178)" stroke-width="0.1"/>
  <path d="M 60.23448300000007,10.762684000000007 L 60.17248300000006,11.106684000000001" fill="none" instance-id="3" semantic-id="4" stroke="rgb(0,178,178)" stroke-width="0.1"/>
  <path d="M 53.454483000000096,9.904684000000003 L 53.51648300000011,9.559684000000004" fill="none" instance-id="3" semantic-id="4" stroke="rgb(0,178,178)" stroke-width="0.1"/>
  <path d="M 54.68748300000004,3.013684000000012 L 55.184628559074554,3.0839276628711616" fill="none" instance-id="3" semantic-id="4" stroke="rgb(0,178,178)" stroke-width="0.1"/>
  <path d="M 55.184628559074554,3.0839276628711616 L 55.685592879743695,3.117433311610597" fill="none" instance-id="3" semantic-id="4" stroke="rgb(0,178,178)" stroke-width="0.1"/>
  <path d="M 55.685592879743695,3.117433311610597 L 56.18766481261673,3.11401961829651" fill="none" instance-id="3" semantic-id="4" stroke="rgb(0,178,178)" stroke-width="0.1"/>
  <path d="M 56.18766481261673,3.11401961829651 L 56.688127214059364,3.073705057363469" fill="none" instance-id="3" semantic-id="4" stroke="rgb(0,178,178)" stroke-width="0.1"/>
  <path d="M 56.688127214059364,3.073705057363469 L 57.18427165099786,2.9967078056212415" fill="none" instance-id="3" semantic-id="4" stroke="rgb(0,178,178)" stroke-width="0.1"/>
  <path d="M 57.18427165099786,2.9967078056212415 L 57.67341305858349,2.8834445615123343" fill="none" instance-id="3" semantic-id="4" stroke="rgb(0,178,178)" stroke-width="0.1"/>
  <path d="M 57.67341305858349,2.8834445615123343 L 58.152904271390526,2.734528289997712" fill="none" instance-id="3" semantic-id="4" stroke="rgb(0,178,178)" stroke-width="0.1"/>
  <path d="M 58.152904271390526,2.734528289997712 L 58.62015034950821,2.550764905275514" fill="none" instance-id="3" semantic-id="4" stroke="rgb(0,178,178)" stroke-width="0.1"/>
  <path d="M 58.62015034950821,2.550764905275514 L 59.07262262199583,2.3331489092853133" fill="none" instance-id="3" semantic-id="4" stroke="rgb(0,178,178)" stroke-width="0.1"/>
  <path d="M 59.07262262199583,2.3331489092853133 L 59.50787237169868,2.0828580096014946" fill="none" instance-id="3" semantic-id="4" stroke="rgb(0,178,178)" stroke-width="0.1"/>
  <path d="M 59.50787237169868,2.0828580096014946 L 59.9235440873656,1.8012467458433719" fill="none" instance-id="3" semantic-id="4" stroke="rgb(0,178,178)" stroke-width="0.1"/>
  <path d="M 59.9235440873656,1.8012467458433719 L 60.31738821134911,1.4898391590946858" fill="none" instance-id="3" semantic-id="4" stroke="rgb(0,178,178)" stroke-width="0.1"/>
  <path d="M 60.31738821134911,1.4898391590946858 L 60.68727331389891,1.1503205440047282" fill="none" instance-id="3" semantic-id="4" stroke="rgb(0,178,178)" stroke-width="0.1"/>
  <path d="M 60.68727331389891,1.1503205440047282 L 61.03119762816459,0.7845283282075286" fill="none" instance-id="3" semantic-id="4" stroke="rgb(0,178,178)" stroke-width="0.1"/>
  <path d="M 61.03119762816459,0.7845283282075286 L 61.34729988347942,0.39444212841854664" fill="none" instance-id="3" semantic-id="4" stroke="rgb(0,178,178)" stroke-width="0.1"/>
  <path d="M 60.232483,10.761684000000002 A 6.825,6.825 0.0 0,0 54.68748300000004,3.013684000000012" fill="none" instance-id="3" semantic-id="4" stroke="rgb(0,178,178)" stroke-width="0.1"/>
 </g>
 <g id="layerDOOR_FIRE_TEXT" inkscape:groupmode="layer" inkscape:label="DOOR_FIRE_TEXT">
  <text fill="rgb(0,0,0)" font-family="Noto Sans CJK SC" font-size="2" transform="rotate(-259.854,67.554483,2.4856840000000204)" x="67.554483" y="2.4856840000000204">
   乙
  </text>
  <text fill="rgb(0,0,0)" font-family="Noto Sans CJK SC" font-size="2" transform="rotate(-259.854,66.95548300000007,5.833684000000005)" x="66.95548300000007" y="5.833684000000005">
   1423
  </text>
 </g>
 <g id="layerPUB_HATCH" inkscape:groupmode="layer" inkscape:label="PUB_HATCH">
  <path d="M 40.37692877717586,100.0 L 41.606483000000026,93.12768400000002" fill="none" instance-id="-1" semantic-id="1" stroke="rgb(63,63,63)" stroke-width="0.1"/>
  <path d="M 41.606483000000026,93.12768400000002 L 32.7474830000001,91.541684" fill="none" instance-id="-1" semantic-id="1" stroke="rgb(63,63,63)" stroke-width="0.1"/>
  <path d="M 32.7474830000001,91.541684 L 31.234171016706227,100.0" fill="none" instance-id="-1" semantic-id="1" stroke="rgb(63,63,63)" stroke-width="0.1"/>
  <path d="M 31.234150056910607,100.0 L 31.51448300000004,98.43268400000002" fill="none" instance-id="-1" semantic-id="1" stroke="rgb(63,63,63)" stroke-width="0.1"/>
  <path d="M 31.51448300000004,98.43268400000002 L 0.0,92.79190217970401" fill="none" instance-id="-1" semantic-id="1" stroke="rgb(63,63,63)" stroke-width="0.1"/>
  <path d="M 0.0,94.82342084610474 L 28.923695265974743,100.0" fill="none" instance-id="-1" semantic-id="1" stroke="rgb(63,63,63)" stroke-width="0.1"/>
 </g>
 <g id="layerPUB_TEXT" inkscape:groupmode="layer" inkscape:label="PUB_TEXT">
  <text fill="rgb(0,178,0)" font-family="Noto Sans CJK SC" font-size="2" transform="rotate(-349.853,13.041483000000085,81.53368400000002)" x="13.041483000000085" y="81.53368400000002">
   LTB6
  </text>
  <text fill="rgb(0,0,0)" font-family="Noto Sans CJK SC" font-size="2" transform="rotate(-349.9,36.79048300000011,8.900684000000012)" x="36.79048300000011" y="8.900684000000012">
   下
  </text>
  <text fill="rgb(0,0,0)" font-family="Noto Sans CJK SC" font-size="2" transform="rotate(-349.9,40.419483000000014,9.546683999999999)" x="40.419483000000014" y="9.546683999999999">
   16
  </text>
  <text fill="rgb(0,0,0)" font-family="Noto Sans CJK SC" font-size="2" transform="rotate(-349.9,45.73648300000002,10.493684000000002)" x="45.73648300000002" y="10.493684000000002">
   级
  </text>
  <text fill="rgb(0,0,0)" font-family="Noto Sans CJK SC" font-size="2" transform="rotate(-349.9,26.49848300000008,66.42968400000001)" x="26.49848300000008" y="66.42968400000001">
   上
  </text>
  <text fill="rgb(0,0,0)" font-family="Noto Sans CJK SC" font-size="2" transform="rotate(-349.9,30.127483000000097,67.076684)" x="30.127483000000097" y="67.076684">
   18
  </text>
  <text fill="rgb(0,0,0)" font-family="Noto Sans CJK SC" font-size="2" transform="rotate(-349.9,35.444483000000105,68.023684)" x="35.444483000000105" y="68.023684">
   级
  </text>
  <text fill="rgb(0,0,0)" font-family="Noto Sans CJK SC" font-size="2" transform="rotate(-349.9,15.797483000000057,5.1436840000000075)" x="15.797483000000057" y="5.1436840000000075">
   上
  </text>
  <text fill="rgb(0,0,0)" font-family="Noto Sans CJK SC" font-size="2" transform="rotate(-349.9,19.426483000000076,5.7896840000000225)" x="19.426483000000076" y="5.7896840000000225">
   18
  </text>
  <text fill="rgb(0,0,0)" font-family="Noto Sans CJK SC" font-size="2" transform="rotate(-349.9,24.743483000000083,6.736683999999997)" x="24.743483000000083" y="6.736683999999997">
   级
  </text>
 </g>
 <g id="layerSTAIR" inkscape:groupmode="layer" inkscape:label="STAIR">
  <path d="M 9.203483000000006,24.42968400000001 L 5.360483000000045,45.903684" fill="none" instance-id="6" semantic-id="30" stroke="rgb(178,88,0)" stroke-width="0.1"/>
  <path d="M 29.846483000000035,13.519684000000012 L 11.734483000000068,10.278683999999998" fill="none" instance-id="6" semantic-id="30" stroke="rgb(178,88,0)" stroke-width="0.1"/>
  <path d="M 29.353483000000097,16.275684000000012 L 11.241483000000017,13.034683999999999" fill="none" instance-id="6" semantic-id="30" stroke="rgb(178,88,0)" stroke-width="0.1"/>
  <path d="M 28.860483000000045,19.031684000000013 L 10.747483000000102,15.790683999999999" fill="none" instance-id="6" semantic-id="30" stroke="rgb(178,88,0)" stroke-width="0.1"/>
  <path d="M 28.367483000000107,21.787684000000013 L 10.25448300000005,18.546684" fill="none" instance-id="6" semantic-id="30" stroke="rgb(178,88,0)" stroke-width="0.1"/>
  <path d="M 27.87348300000008,24.544684000000018 L 9.761483000000112,21.302684" fill="none" instance-id="6" semantic-id="30" stroke="rgb(178,88,0)" stroke-width="0.1"/>
  <path d="M 27.380483000000027,27.300684000000018 L 9.26848300000006,24.059684000000004" fill="none" instance-id="6" semantic-id="30" stroke="rgb(178,88,0)" stroke-width="0.1"/>
  <path d="M 25.287483000000066,29.770684000000017 L 8.775483000000008,26.815684000000005" fill="none" instance-id="6" semantic-id="30" stroke="rgb(178,88,0)" stroke-width="0.1"/>
  <path d="M 20.020483000000013,31.672684000000004 L 8.281483000000094,29.571684000000005" fill="none" instance-id="6" semantic-id="30" stroke="rgb(178,88,0)" stroke-width="0.1"/>
  <path d="M 14.753483000000074,33.57468400000002 L 7.788483000000042,32.327684000000005" fill="none" instance-id="6" semantic-id="30" stroke="rgb(178,88,0)" stroke-width="0.1"/>
  <path d="M 9.485483000000045,35.475684 L 7.295483000000104,35.083684000000005" fill="none" instance-id="6" semantic-id="30" stroke="rgb(178,88,0)" stroke-width="0.1"/>
  <path d="M 12.227483000000007,7.521684000000022 L 7.069483000000105,36.34868400000002" fill="none" instance-id="6" semantic-id="30" stroke="rgb(178,88,0)" stroke-width="0.1"/>
  <path d="M 30.339483000000087,10.763684000000012 L 12.227483000000007,7.521684000000022" fill="none" instance-id="6" semantic-id="30" stroke="rgb(178,88,0)" stroke-width="0.1"/>
  <path d="M 30.930483000000095,10.868684000000002 L 27.704483000000096,28.897683999999998" fill="none" instance-id="6" semantic-id="30" stroke="rgb(178,88,0)" stroke-width="0.1"/>
  <path d="M 30.930483000000095,10.868684000000002 L 30.339483000000087,10.763684000000012" fill="none" instance-id="6" semantic-id="30" stroke="rgb(178,88,0)" stroke-width="0.1"/>
  <path d="M 7.069483000000105,36.34868400000002 L 16.729483000000073,32.86068400000002" fill="none" instance-id="6" semantic-id="30" stroke="rgb(178,88,0)" stroke-width="0.1"/>
  <path d="M 16.729483000000073,32.86068400000002 L 16.61548300000004,31.51568400000002" fill="none" instance-id="6" semantic-id="30" stroke="rgb(178,88,0)" stroke-width="0.1"/>
  <path d="M 16.61548300000004,31.51568400000002 L 18.33848300000011,33.58068400000002" fill="none" instance-id="6" semantic-id="30" stroke="rgb(178,88,0)" stroke-width="0.1"/>
  <path d="M 18.33848300000011,33.58068400000002 L 18.231483000000026,32.317684000000014" fill="none" instance-id="6" semantic-id="30" stroke="rgb(178,88,0)" stroke-width="0.1"/>
  <path d="M 18.231483000000026,32.317684000000014 L 27.704483000000096,28.897683999999998" fill="none" instance-id="6" semantic-id="30" stroke="rgb(178,88,0)" stroke-width="0.1"/>
  <path d="M 25.5984830000001,55.42668400000002 L 43.71048300000007,58.66768400000001" fill="none" instance-id="6" semantic-id="30" stroke="rgb(178,88,0)" stroke-width="0.1"/>
  <path d="M 26.09148300000004,52.66968400000002 L 44.203483000000006,55.91168400000001" fill="none" instance-id="6" semantic-id="30" stroke="rgb(178,88,0)" stroke-width="0.1"/>
  <path d="M 26.58448300000009,49.91368400000002 L 44.69648300000006,53.154684" fill="none" instance-id="6" semantic-id="30" stroke="rgb(178,88,0)" stroke-width="0.1"/>
  <path d="M 27.07748300000003,47.15768400000002 L 45.190483000000086,50.398684" fill="none" instance-id="6" semantic-id="30" stroke="rgb(178,88,0)" stroke-width="0.1"/>
  <path d="M 27.571483000000057,44.40168400000002 L 45.683483000000024,47.642684" fill="none" instance-id="6" semantic-id="30" stroke="rgb(178,88,0)" stroke-width="0.1"/>
  <path d="M 28.06448300000011,41.64568400000002 L 46.176483000000076,44.886684" fill="none" instance-id="6" semantic-id="30" stroke="rgb(178,88,0)" stroke-width="0.1"/>
  <path d="M 30.15748300000007,39.17568400000002 L 46.669483000000014,42.130684" fill="none" instance-id="6" semantic-id="30" stroke="rgb(178,88,0)" stroke-width="0.1"/>
  <path d="M 35.42448300000001,37.273684 L 47.16348300000004,39.373684" fill="none" instance-id="6" semantic-id="30" stroke="rgb(178,88,0)" stroke-width="0.1"/>
  <path d="M 40.69148300000006,35.371684000000016 L 47.656483000000094,36.617684" fill="none" instance-id="6" semantic-id="30" stroke="rgb(178,88,0)" stroke-width="0.1"/>
  <path d="M 45.958483,33.469684 L 48.14948300000003,33.861684" fill="none" instance-id="6" semantic-id="30" stroke="rgb(178,88,0)" stroke-width="0.1"/>
  <path d="M 43.217483000000016,61.42368400000001 L 48.37548300000003,32.59668400000001" fill="none" instance-id="6" semantic-id="30" stroke="rgb(178,88,0)" stroke-width="0.1"/>
  <path d="M 25.104483000000073,58.18268400000002 L 43.217483000000016,61.42368400000001" fill="none" instance-id="6" semantic-id="30" stroke="rgb(178,88,0)" stroke-width="0.1"/>
  <path d="M 24.51448300000004,58.076684 L 27.74048300000004,40.047684000000004" fill="none" instance-id="6" semantic-id="30" stroke="rgb(178,88,0)" stroke-width="0.1"/>
  <path d="M 24.51448300000004,58.076684 L 25.104483000000073,58.18268400000002" fill="none" instance-id="6" semantic-id="30" stroke="rgb(178,88,0)" stroke-width="0.1"/>
  <path d="M 48.37548300000003,32.59668400000001 L 38.71548300000006,36.085684000000015" fill="none" instance-id="6" semantic-id="30" stroke="rgb(178,88,0)" stroke-width="0.1"/>
  <path d="M 38.71548300000006,36.085684000000015 L 38.829483000000096,37.430684000000014" fill="none" instance-id="6" semantic-id="30" stroke="rgb(178,88,0)" stroke-width="0.1"/>
  <path d="M 38.829483000000096,37.430684000000014 L 37.106483000000026,35.365684000000016" fill="none" instance-id="6" semantic-id="30" stroke="rgb(178,88,0)" stroke-width="0.1"/>
  <path d="M 37.106483000000026,35.365684000000016 L 37.21348300000011,36.627684000000016" fill="none" instance-id="6" semantic-id="30" stroke="rgb(178,88,0)" stroke-width="0.1"/>
  <path d="M 37.21348300000011,36.627684000000016 L 27.74048300000004,40.047684000000004" fill="none" instance-id="6" semantic-id="30" stroke="rgb(178,88,0)" stroke-width="0.1"/>
  <path d="M 30.930483000000095,10.868684000000002 L 27.704483000000096,28.897683999999998" fill="none" instance-id="6" semantic-id="30" stroke="rgb(178,88,0)" stroke-width="0.1"/>
  <path d="M 30.339483000000087,10.763684000000012 L 27.052483000000052,29.132684000000012" fill="none" instance-id="6" semantic-id="30" stroke="rgb(178,88,0)" stroke-width="0.1"/>
  <path d="M 30.930483000000095,10.868684000000002 L 30.339483000000087,10.763684000000012" fill="none" instance-id="6" semantic-id="30" stroke="rgb(178,88,0)" stroke-width="0.1"/>
  <path d="M 24.51448300000004,58.076684 L 27.74048300000004,40.047684000000004" fill="none" instance-id="6" semantic-id="30" stroke="rgb(178,88,0)" stroke-width="0.1"/>
  <path d="M 25.104483000000073,58.18268400000002 L 28.392483000000084,39.81268400000002" fill="none" instance-id="6" semantic-id="30" stroke="rgb(178,88,0)" stroke-width="0.1"/>
  <path d="M 24.51448300000004,58.076684 L 25.104483000000073,58.18268400000002" fill="none" instance-id="6" semantic-id="30" stroke="rgb(178,88,0)" stroke-width="0.1"/>
  <path d="M 3.8424830000000156,54.377684000000016 A 20.00031770997651,20.00031770997651 0.0 0,0 43.217483000000016,61.42468400000001" fill="none" instance-id="6" semantic-id="30" stroke="rgb(178,88,0)" stroke-width="0.1"/>
  <path d="M 32.89948300000003,11.22168400000001 L 51.6034830000001,14.568684000000019" fill="none" instance-id="6" semantic-id="30" stroke="rgb(178,88,0)" stroke-width="0.1"/>
  <path d="M 28.392483000000084,39.81268400000002 L 33.49048300000004,11.326684" fill="none" instance-id="6" semantic-id="30" stroke="rgb(178,88,0)" stroke-width="0.1"/>
  <path d="M 33.03248300000007,13.886684000000002 L 51.14548300000001,17.12868400000002" fill="none" instance-id="6" semantic-id="30" stroke="rgb(178,88,0)" stroke-width="0.1"/>
  <path d="M 32.5744830000001,16.445684 L 50.68748300000004,19.68768400000002" fill="none" instance-id="6" semantic-id="30" stroke="rgb(178,88,0)" stroke-width="0.1"/>
  <path d="M 32.11648300000002,19.004683999999997 L 50.22948300000007,22.246684000000016" fill="none" instance-id="6" semantic-id="30" stroke="rgb(178,88,0)" stroke-width="0.1"/>
  <path d="M 31.658483000000047,21.564684 L 49.7714830000001,24.80668400000002" fill="none" instance-id="6" semantic-id="30" stroke="rgb(178,88,0)" stroke-width="0.1"/>
  <path d="M 31.200483000000077,24.123683999999997 L 49.31348300000002,27.365684000000016" fill="none" instance-id="6" semantic-id="30" stroke="rgb(178,88,0)" stroke-width="0.1"/>
  <path d="M 30.742483000000107,26.682684000000023 L 48.85548300000005,29.924684000000013" fill="none" instance-id="6" semantic-id="30" stroke="rgb(178,88,0)" stroke-width="0.1"/>
  <path d="M 30.284483000000023,29.242683999999997 L 45.50148300000001,31.96568400000001" fill="none" instance-id="6" semantic-id="30" stroke="rgb(178,88,0)" stroke-width="0.1"/>
  <path d="M 29.826483000000053,31.801684000000023 L 40.610483000000045,33.731684" fill="none" instance-id="6" semantic-id="30" stroke="rgb(178,88,0)" stroke-width="0.1"/>
  <path d="M 29.368483000000083,34.36068400000002 L 35.72048300000006,35.49768400000002" fill="none" instance-id="6" semantic-id="30" stroke="rgb(178,88,0)" stroke-width="0.1"/>
  <path d="M 28.909483000000023,36.92068400000002 L 30.829483000000096,37.26368400000001" fill="none" instance-id="6" semantic-id="30" stroke="rgb(178,88,0)" stroke-width="0.1"/>
  <path d="M 28.059483,38.26368400000001 L 37.53248300000007,34.843683999999996" fill="none" instance-id="6" semantic-id="30" stroke="rgb(178,88,0)" stroke-width="0.1"/>
  <path d="M 37.53248300000007,34.843683999999996 L 37.4254830000001,33.581684000000024" fill="none" instance-id="6" semantic-id="30" stroke="rgb(178,88,0)" stroke-width="0.1"/>
  <path d="M 37.4254830000001,33.581684000000024 L 39.14948300000003,35.64668400000002" fill="none" instance-id="6" semantic-id="30" stroke="rgb(178,88,0)" stroke-width="0.1"/>
  <path d="M 39.14948300000003,35.64668400000002 L 39.03448300000002,34.30068400000002" fill="none" instance-id="6" semantic-id="30" stroke="rgb(178,88,0)" stroke-width="0.1"/>
  <path d="M 39.03448300000002,34.30068400000002 L 48.69548300000008,30.81268400000002" fill="none" instance-id="6" semantic-id="30" stroke="rgb(178,88,0)" stroke-width="0.1"/>
 </g>
 <g id="layerWALL" inkscape:groupmode="layer" inkscape:label="WALL">
  <path d="M 0.0,16.092526443184738 L 8.39348300000006,17.594684" fill="none" instance-id="-1" semantic-id="1" stroke="rgb(178,178,0)" stroke-width="0.1"/>
  <path d="M 0.0,18.124575845332743 L 8.041483000000085,19.563684000000023" fill="none" instance-id="-1" semantic-id="1" stroke="rgb(178,178,0)" stroke-width="0.1"/>
  <path d="M 0.0,41.996616094265306 L 3.9014830000000984,42.694684000000024" fill="none" instance-id="-1" semantic-id="1" stroke="rgb(178,178,0)" stroke-width="0.1"/>
  <path d="M 0.0,44.028466599160794 L 3.5494830000000093,44.66368400000002" fill="none" instance-id="-1" semantic-id="1" stroke="rgb(178,178,0)" stroke-width="0.1"/>
  <path d="M 56.40748300000007,10.432684000000023 L 45.37148300000001,72.10468400000002" fill="none" instance-id="-1" semantic-id="1" stroke="rgb(178,178,0)" stroke-width="0.1"/>
  <path d="M 54.43948300000011,10.08068400000002 L 43.402483000000075,71.75268400000002" fill="none" instance-id="-1" semantic-id="1" stroke="rgb(178,178,0)" stroke-width="0.1"/>
  <path d="M 56.40748300000007,10.432684000000023 L 54.43948300000011,10.08068400000002" fill="none" instance-id="-1" semantic-id="1" stroke="rgb(178,178,0)" stroke-width="0.1"/>
  <path d="M 45.37148300000001,72.10468400000002 L 43.402483000000075,71.75268400000002" fill="none" instance-id="-1" semantic-id="1" stroke="rgb(178,178,0)" stroke-width="0.1"/>
  <path d="M 3.9014830000000984,42.694684000000024 L 8.041483000000085,19.563684000000023" fill="none" instance-id="-1" semantic-id="1" stroke="rgb(178,178,0)" stroke-width="0.1"/>
  <path d="M 5.694483000000105,44.03168400000001 L 10.167483000000061,19.037684000000013" fill="none" instance-id="-1" semantic-id="1" stroke="rgb(178,178,0)" stroke-width="0.1"/>
  <path d="M 8.39348300000006,17.594684 L 11.542144035555793,0.0" fill="none" instance-id="-1" semantic-id="1" stroke="rgb(178,178,0)" stroke-width="0.1"/>
  <path d="M 10.167483000000061,19.037684000000013 L 13.5740422645124,0.0" fill="none" instance-id="-1" semantic-id="1" stroke="rgb(178,178,0)" stroke-width="0.1"/>
  <path d="M 28.923695265974743,100.0 L 0.0,94.82342084610474" fill="none" instance-id="-1" semantic-id="1" stroke="rgb(178,178,0)" stroke-width="0.1"/>
  <path d="M 31.51448300000004,98.43268400000002 L 0.0,92.79190217970401" fill="none" instance-id="-1" semantic-id="1" stroke="rgb(178,178,0)" stroke-width="0.1"/>
  <path d="M 0.7304830000000493,60.41368400000002 L 3.5494830000000093,44.66368400000002" fill="none" instance-id="-1" semantic-id="1" stroke="rgb(178,178,0)" stroke-width="0.1"/>
  <path d="M 2.6994830000001,60.766684 L 5.694483000000105,44.03168400000001" fill="none" instance-id="-1" semantic-id="1" stroke="rgb(178,178,0)" stroke-width="0.1"/>
  <path d="M 39.64048300000002,92.77568400000001 L 39.795483000000104,91.910684" fill="none" instance-id="-1" semantic-id="1" stroke="rgb(178,178,0)" stroke-width="0.1"/>
  <path d="M 39.795483000000104,91.910684 L 37.82648300000005,91.55768400000002" fill="none" instance-id="-1" semantic-id="1" stroke="rgb(178,178,0)" stroke-width="0.1"/>
  <path d="M 37.82648300000005,91.55768400000002 L 37.67148300000008,92.422684" fill="none" instance-id="-1" semantic-id="1" stroke="rgb(178,178,0)" stroke-width="0.1"/>
  <path d="M 52.47048300000006,9.728684000000015 L 41.52548300000001,70.886684" fill="none" instance-id="-1" semantic-id="1" stroke="rgb(178,178,0)" stroke-width="0.1"/>
  <path d="M 41.52548300000001,70.886684 L 43.49448300000006,71.238684" fill="none" instance-id="-1" semantic-id="1" stroke="rgb(178,178,0)" stroke-width="0.1"/>
  <path d="M 43.49448300000006,71.238684 L 54.43848300000002,10.08068400000002" fill="none" instance-id="-1" semantic-id="1" stroke="rgb(178,178,0)" stroke-width="0.1"/>
  <path d="M 54.43848300000002,10.08068400000002 L 52.47048300000006,9.728684000000015" fill="none" instance-id="-1" semantic-id="1" stroke="rgb(178,178,0)" stroke-width="0.1"/>
  <path d="M 2.6994830000001,60.766684 L 21.402483000000075,64.113684" fill="none" instance-id="-1" semantic-id="1" stroke="rgb(178,178,0)" stroke-width="0.1"/>
  <path d="M 1.3624830000001111,62.558684 L 23.01848300000006,66.434684" fill="none" instance-id="-1" semantic-id="1" stroke="rgb(178,178,0)" stroke-width="0.1"/>
  <path d="M 34.907431198688755,0.0 L 23.01848300000006,66.434684" fill="none" instance-id="-1" semantic-id="1" stroke="rgb(178,178,0)" stroke-width="0.1"/>
  <path d="M 32.875623972293056,0.0 L 21.402483000000075,64.113684" fill="none" instance-id="-1" semantic-id="1" stroke="rgb(178,178,0)" stroke-width="0.1"/>
  <path d="M 0.0,60.2829424858688 L 0.7304830000000493,60.41368400000002" fill="none" instance-id="-1" semantic-id="1" stroke="rgb(178,178,0)" stroke-width="0.1"/>
  <path d="M 0.0,62.314851499612615 L 1.3624830000001111,62.558684" fill="none" instance-id="-1" semantic-id="1" stroke="rgb(178,178,0)" stroke-width="0.1"/>
 </g>
 <g id="layerm-洞口" inkscape:groupmode="layer" inkscape:label="m-洞口">
  <path d="M 6.424483000000009,17.24168400000002 L 3.472483000000011,16.713684" fill="none" stroke="rgb(160,107,53)" stroke-width="0.1"/>
  <path d="M 3.472483000000011,16.713684 L 6.462590825696452,0.0" fill="none" stroke="rgb(160,107,53)" stroke-width="0.1"/>
  <path d="M 9.509050965780943,0.0 L 6.424483000000009,17.24168400000002" fill="none" stroke="rgb(160,107,53)" stroke-width="0.1"/>
  <path d="M 0.0,53.14756809010328 L 1.5814830000000484,44.311684000000014" fill="none" stroke="rgb(160,107,53)" stroke-width="0.1"/>
  <path d="M 1.5814830000000484,44.311684000000014 L 0.0,44.02867781485892" fill="none" stroke="rgb(160,107,53)" stroke-width="0.1"/>
  <path d="M 0.0,97.97938347473954 L 22.0788148991993,100.0" fill="none" stroke="rgb(160,107,53)" stroke-width="0.1"/>
  <path d="M 28.922275987654302,100.0 L 0.0,94.82360748501549" fill="none" stroke="rgb(160,107,53)" stroke-width="0.1"/>
  <path d="M 3.472483000000011,16.713684 L 7.361442233534262,0.0" fill="none" stroke="rgb(160,107,53)" stroke-width="0.1"/>
  <path d="M 0.0,44.13255975504683 L 1.5814830000000484,44.311684000000014" fill="none" stroke="rgb(160,107,53)" stroke-width="0.1"/>
  <path d="M 0.0,53.14756809010328 L 1.5814830000000484,44.311684000000014" fill="none" stroke="rgb(160,107,53)" stroke-width="0.1"/>
  <path d="M 1.5814830000000484,44.311684000000014 L 0.0,44.02867781485892" fill="none" stroke="rgb(160,107,53)" stroke-width="0.1"/>
 </g>
 <g id="layer上层投影线" inkscape:groupmode="layer" inkscape:label="上层投影线">
  <path d="M 48.513483000000065,71.56668400000001 L 60.30648300000007,73.67668400000002" fill="none" stroke="rgb(0,0,178)" stroke-width="0.1"/>
  <path d="M 60.30648300000007,73.67668400000002 L 55.595333182780564,100.0" fill="none" stroke="rgb(0,0,178)" stroke-width="0.1"/>
 </g>
</svg>