<?xml version="1.0" encoding="utf-8"?>
<svg style="background-color: #000;" version="1.1" viewBox="0 0 100.0 100.0" xmlns="http://www.w3.org/2000/svg" xmlns:inkscape="http://www.inkscape.org/namespaces/inkscape">
 <g id="layer0-结构边线" inkscape:groupmode="layer" inkscape:label="0-结构边线">
  <path d="M 1.401655499999947,2.6453379999999243 L 5.330586334377699,0.0" fill="none" stroke="rgb(178,0,178)" stroke-width="0.1"/>
  <path d="M 1.401655499999947,2.6453379999999243 L 0.0,0.5635595984780366" fill="none" stroke="rgb(178,0,178)" stroke-width="0.1"/>
  <path d="M 31.559655499999963,47.43933799999991 L 38.19565549999999,42.97233799999992" fill="none" stroke="rgb(178,0,178)" stroke-width="0.1"/>
  <path d="M 38.19565549999999,42.97233799999992 L 33.72765549999997,36.33533799999998" fill="none" stroke="rgb(178,0,178)" stroke-width="0.1"/>
  <path d="M 27.091655499999945,40.80333799999994 L 33.72765549999997,36.33533799999998" fill="none" stroke="rgb(178,0,178)" stroke-width="0.1"/>
  <path d="M 31.559655499999963,47.43933799999991 L 27.091655499999945,40.80333799999994" fill="none" stroke="rgb(178,0,178)" stroke-width="0.1"/>
 </g>
 <g id="layerA-留洞-up" inkscape:groupmode="layer" inkscape:label="A-留洞-up">
  <path d="M 6.558655499999986,38.95533799999998 L 13.819655499999953,49.739337999999975" fill="none" stroke="rgb(178,0,178)" stroke-width="0.1"/>
  <path d="M 13.819655499999953,49.739337999999975 L 27.091655499999945,40.80333799999994" fill="none" stroke="rgb(178,0,178)" stroke-width="0.1"/>
  <path d="M 27.091655499999945,40.80333799999994 L 18.484655499999974,35.794337999999925" fill="none" stroke="rgb(178,0,178)" stroke-width="0.1"/>
  <path d="M 18.484655499999974,35.794337999999925 L 6.558655499999986,38.95533799999998" fill="none" stroke="rgb(178,0,178)" stroke-width="0.1"/>
  <path d="M 6.558655499999986,38.95533799999998 L 19.831655499999954,30.019337999999948" fill="none" stroke="rgb(178,0,178)" stroke-width="0.1"/>
  <path d="M 19.831655499999954,30.019337999999948 L 27.091655499999945,40.80333799999994" fill="none" stroke="rgb(178,0,178)" stroke-width="0.1"/>
 </g>
 <g id="layerA-车位" inkscape:groupmode="layer" inkscape:label="A-车位">
  <path d="M 11.6759671080884,0.0 L 25.892655499999933,21.116337999999928" fill="none" instance-id="-1" semantic-id="35" stroke="rgb(0,0,178)" stroke-width="0.1"/>
  <path d="M 25.892655499999933,21.116337999999928 L 45.80065549999995,7.713337999999908" fill="none" instance-id="-1" semantic-id="35" stroke="rgb(0,0,178)" stroke-width="0.1"/>
  <path d="M 45.80065549999995,7.713337999999908 L 40.60772722837487,0.0" fill="none" instance-id="-1" semantic-id="35" stroke="rgb(0,0,178)" stroke-width="0.1"/>
  <path d="M 37.86265549999996,0.39933799999994335 L 33.71565549999997,3.1913379999999734" fill="none" instance-id="-1" semantic-id="35" stroke="rgb(0,0,178)" stroke-width="0.1"/>
  <path d="M 26.24965549999996,8.218337999999903 L 22.10265549999997,11.010337999999933" fill="none" instance-id="-1" semantic-id="35" stroke="rgb(0,0,178)" stroke-width="0.1"/>
  <path d="M 37.5604008225921,0.0 L 33.43665549999997,2.777337999999986" fill="none" instance-id="-1" semantic-id="35" stroke="rgb(0,0,178)" stroke-width="0.1"/>
  <path d="M 25.970655499999964,7.80333799999994 L 21.82265549999994,10.59533799999997" fill="none" instance-id="-1" semantic-id="35" stroke="rgb(0,0,178)" stroke-width="0.1"/>
  <path d="M 38.421655499999986,1.2293379999999843 L 34.27365549999996,4.021337999999901" fill="none" instance-id="-1" semantic-id="35" stroke="rgb(0,0,178)" stroke-width="0.1"/>
  <path d="M 26.808655499999986,9.047337999999968 L 22.66065549999996,11.840337999999974" fill="none" instance-id="-1" semantic-id="35" stroke="rgb(0,0,178)" stroke-width="0.1"/>
  <path d="M 38.421655499999986,1.2293379999999843 L 37.59419747269072,0.0" fill="none" instance-id="-1" semantic-id="35" stroke="rgb(0,0,178)" stroke-width="0.1"/>
  <path d="M 22.66065549999996,11.840337999999974 L 21.82265549999994,10.59533799999997" fill="none" instance-id="-1" semantic-id="35" stroke="rgb(0,0,178)" stroke-width="0.1"/>
  <path d="M 33.43665549999997,2.777337999999986 L 34.27365549999996,4.021337999999901" fill="none" instance-id="-1" semantic-id="35" stroke="rgb(0,0,178)" stroke-width="0.1"/>
  <path d="M 25.970655499999964,7.80333799999994 L 26.808655499999986,9.047337999999968" fill="none" instance-id="-1" semantic-id="35" stroke="rgb(0,0,178)" stroke-width="0.1"/>
  <path d="M 40.60772722837487,0.0 L 45.80065549999995,7.713337999999908" fill="none" instance-id="-1" semantic-id="35" stroke="rgb(0,0,178)" stroke-width="0.1"/>
  <path d="M 45.80065549999995,7.713337999999908 L 57.257298758877766,0.0" fill="none" instance-id="-1" semantic-id="35" stroke="rgb(0,0,178)" stroke-width="0.1"/>
  <path d="M 0.0,38.54959149942226 L 15.523655499999961,28.0983379999999" fill="none" instance-id="-1" semantic-id="35" stroke="rgb(0,0,178)" stroke-width="0.1"/>
  <path d="M 15.523655499999961,28.0983379999999 L 0.0,5.040210561319668" fill="none" instance-id="-1" semantic-id="35" stroke="rgb(0,0,178)" stroke-width="0.1"/>
  <path d="M 7.585655499999973,20.784337999999934 L 3.4386554999999817,23.576337999999964" fill="none" instance-id="-1" semantic-id="35" stroke="rgb(0,0,178)" stroke-width="0.1"/>
  <path d="M 7.306655499999977,20.36933799999997 L 3.158655499999952,23.161338" fill="none" instance-id="-1" semantic-id="35" stroke="rgb(0,0,178)" stroke-width="0.1"/>
  <path d="M 8.144655499999942,21.613338 L 3.9966554999999744,24.406338000000005" fill="none" instance-id="-1" semantic-id="35" stroke="rgb(0,0,178)" stroke-width="0.1"/>
  <path d="M 8.144655499999942,21.613338 L 7.306655499999977,20.36933799999997" fill="none" instance-id="-1" semantic-id="35" stroke="rgb(0,0,178)" stroke-width="0.1"/>
  <path d="M 3.158655499999952,23.161338 L 3.9966554999999744,24.406338000000005" fill="none" instance-id="-1" semantic-id="35" stroke="rgb(0,0,178)" stroke-width="0.1"/>
  <path d="M 57.16765549999997,67.57033799999999 L 27.567655499999944,23.60533799999996" fill="none" instance-id="-1" semantic-id="35" stroke="rgb(0,0,178)" stroke-width="0.1"/>
  <path d="M 27.567655499999944,23.60533799999996 L 47.476655499999936,10.20233799999994" fill="none" instance-id="-1" semantic-id="35" stroke="rgb(0,0,178)" stroke-width="0.1"/>
  <path d="M 47.476655499999936,10.20233799999994 L 77.07565549999998,54.166337999999996" fill="none" instance-id="-1" semantic-id="35" stroke="rgb(0,0,178)" stroke-width="0.1"/>
  <path d="M 51.266655499999956,20.308337999999935 L 47.119655499999965,23.100337999999965" fill="none" instance-id="-1" semantic-id="35" stroke="rgb(0,0,178)" stroke-width="0.1"/>
  <path d="M 39.65365549999996,28.127337999999895 L 35.50565549999993,30.919337999999925" fill="none" instance-id="-1" semantic-id="35" stroke="rgb(0,0,178)" stroke-width="0.1"/>
  <path d="M 51.54565549999995,20.7233379999999 L 47.39865549999996,23.51533799999993" fill="none" instance-id="-1" semantic-id="35" stroke="rgb(0,0,178)" stroke-width="0.1"/>
  <path d="M 39.93265549999995,28.541337999999996 L 35.78565549999996,31.334338000000002" fill="none" instance-id="-1" semantic-id="35" stroke="rgb(0,0,178)" stroke-width="0.1"/>
  <path d="M 50.70865549999996,19.478337999999894 L 46.56065549999994,22.2713379999999" fill="none" instance-id="-1" semantic-id="35" stroke="rgb(0,0,178)" stroke-width="0.1"/>
  <path d="M 39.09465549999993,27.297337999999968 L 34.94765549999994,30.089337999999998" fill="none" instance-id="-1" semantic-id="35" stroke="rgb(0,0,178)" stroke-width="0.1"/>
  <path d="M 50.70865549999996,19.478337999999894 L 51.54565549999995,20.7233379999999" fill="none" instance-id="-1" semantic-id="35" stroke="rgb(0,0,178)" stroke-width="0.1"/>
  <path d="M 34.94765549999994,30.089337999999998 L 35.78565549999996,31.334338000000002" fill="none" instance-id="-1" semantic-id="35" stroke="rgb(0,0,178)" stroke-width="0.1"/>
  <path d="M 47.39865549999996,23.51533799999993 L 46.56065549999994,22.2713379999999" fill="none" instance-id="-1" semantic-id="35" stroke="rgb(0,0,178)" stroke-width="0.1"/>
  <path d="M 39.93265549999995,28.541337999999996 L 39.09465549999993,27.297337999999968" fill="none" instance-id="-1" semantic-id="35" stroke="rgb(0,0,178)" stroke-width="0.1"/>
  <path d="M 77.07565549999998,54.166337999999996 L 47.476655499999936,10.20233799999994" fill="none" instance-id="-1" semantic-id="35" stroke="rgb(0,0,178)" stroke-width="0.1"/>
  <path d="M 47.476655499999936,10.20233799999994 L 62.62945652238125,0.0" fill="none" instance-id="-1" semantic-id="35" stroke="rgb(0,0,178)" stroke-width="0.1"/>
  <path d="M 69.54021549545092,0.0 L 96.98465549999997,40.763337999999976" fill="none" instance-id="-1" semantic-id="35" stroke="rgb(0,0,178)" stroke-width="0.1"/>
  <path d="M 71.17565549999995,6.904337999999939 L 67.02765549999998,9.697337999999945" fill="none" instance-id="-1" semantic-id="35" stroke="rgb(0,0,178)" stroke-width="0.1"/>
  <path d="M 59.56165549999997,14.723337999999899 L 55.41465549999998,17.51533799999993" fill="none" instance-id="-1" semantic-id="35" stroke="rgb(0,0,178)" stroke-width="0.1"/>
  <path d="M 71.45465549999994,7.319337999999902 L 67.30665549999998,10.112337999999909" fill="none" instance-id="-1" semantic-id="35" stroke="rgb(0,0,178)" stroke-width="0.1"/>
  <path d="M 59.841655499999945,15.138337999999976 L 55.69365549999998,17.930338000000006" fill="none" instance-id="-1" semantic-id="35" stroke="rgb(0,0,178)" stroke-width="0.1"/>
  <path d="M 70.61665549999998,6.075337999999988 L 66.46965549999993,8.867337999999904" fill="none" instance-id="-1" semantic-id="35" stroke="rgb(0,0,178)" stroke-width="0.1"/>
  <path d="M 59.00365549999998,13.894337999999948 L 54.855655499999955,16.686337999999978" fill="none" instance-id="-1" semantic-id="35" stroke="rgb(0,0,178)" stroke-width="0.1"/>
  <path d="M 70.61665549999998,6.075337999999988 L 71.45465549999994,7.319337999999902" fill="none" instance-id="-1" semantic-id="35" stroke="rgb(0,0,178)" stroke-width="0.1"/>
  <path d="M 54.855655499999955,16.686337999999978 L 55.69365549999998,17.930338000000006" fill="none" instance-id="-1" semantic-id="35" stroke="rgb(0,0,178)" stroke-width="0.1"/>
  <path d="M 67.30665549999998,10.112337999999909 L 66.46965549999993,8.867337999999904" fill="none" instance-id="-1" semantic-id="35" stroke="rgb(0,0,178)" stroke-width="0.1"/>
  <path d="M 59.841655499999945,15.138337999999976 L 59.00365549999998,13.894337999999948" fill="none" instance-id="-1" semantic-id="35" stroke="rgb(0,0,178)" stroke-width="0.1"/>
  <path d="M 96.98465549999997,40.763337999999976 L 69.54021549545092,0.0" fill="none" instance-id="-1" semantic-id="35" stroke="rgb(0,0,178)" stroke-width="0.1"/>
  <path d="M 98.47283370348464,0.0 L 100.0,2.2683313307882145" fill="none" instance-id="-1" semantic-id="35" stroke="rgb(0,0,178)" stroke-width="0.1"/>
  <path d="M 79.47065549999996,1.3203379999999925 L 75.32265549999994,4.112337999999909" fill="none" instance-id="-1" semantic-id="35" stroke="rgb(0,0,178)" stroke-width="0.1"/>
  <path d="M 79.74965549999996,1.7343379999999797 L 75.60165549999994,4.527337999999986" fill="none" instance-id="-1" semantic-id="35" stroke="rgb(0,0,178)" stroke-width="0.1"/>
  <path d="M 78.91165549999994,0.49033799999995153 L 74.76465549999995,3.2823379999999815" fill="none" instance-id="-1" semantic-id="35" stroke="rgb(0,0,178)" stroke-width="0.1"/>
  <path d="M 74.76465549999995,3.2823379999999815 L 75.60165549999994,4.527337999999986" fill="none" instance-id="-1" semantic-id="35" stroke="rgb(0,0,178)" stroke-width="0.1"/>
  <path d="M 79.74965549999996,1.7343379999999797 L 78.91165549999994,0.49033799999995153" fill="none" instance-id="-1" semantic-id="35" stroke="rgb(0,0,178)" stroke-width="0.1"/>
 </g>
 <g id="layerA-车位-lx" inkscape:groupmode="layer" inkscape:label="A-车位-lx">
  <path d="M 54.60557133146028,100.0 L 100.0,69.43815845909603" fill="none" stroke="rgb(0,178,0)" stroke-width="0.1"/>
  <path d="M 42.30665549999998,97.38333799999998 L 46.90612969875775,100.0" fill="none" stroke="rgb(0,178,0)" stroke-width="0.1"/>
  <path d="M 40.43165549999998,98.63833799999998 L 42.8251359099379,100.0" fill="none" stroke="rgb(0,178,0)" stroke-width="0.1"/>
  <path d="M 40.43165549999998,98.63833799999998 L 42.30665549999998,97.38333799999998" fill="none" stroke="rgb(0,178,0)" stroke-width="0.1"/>
 </g>
 <g id="layerA-车位-text" inkscape:groupmode="layer" inkscape:label="A-车位-text">
  <text fill="rgb(178,88,0)" font-family="Noto Sans CJK SC" font-size="2" transform="rotate(-0.0,84.14965549999994,13.852337999999918)" x="84.14965549999994" y="13.852337999999918">
   A-182
  </text>
  <text fill="rgb(178,88,0)" font-family="Noto Sans CJK SC" font-size="2" transform="rotate(-0.0,67.82465549999995,29.805338000000006)" x="67.82465549999995" y="29.805338000000006">
   A-181
  </text>
  <text fill="rgb(178,88,0)" font-family="Noto Sans CJK SC" font-size="2" transform="rotate(-0.0,47.87065549999994,42.49533799999995)" x="47.87065549999994" y="42.49533799999995">
   A-180
  </text>
 </g>
 <g id="layerCOLUMN" inkscape:groupmode="layer" inkscape:label="COLUMN">
  <path d="M 25.629655499999956,24.30733799999996 L 33.72765549999997,36.33533799999998" fill="none" instance-id="-1" semantic-id="1" stroke="rgb(178,178,0)" stroke-width="0.1"/>
  <path d="M 23.141655499999956,25.983338000000003 L 31.23965549999997,38.01133799999991" fill="none" instance-id="-1" semantic-id="1" stroke="rgb(178,178,0)" stroke-width="0.1"/>
  <path d="M 25.629655499999956,24.30733799999996 L 23.141655499999956,25.983338000000003" fill="none" instance-id="-1" semantic-id="1" stroke="rgb(178,178,0)" stroke-width="0.1"/>
  <path d="M 38.19565549999999,42.97233799999992 L 47.131655499999965,56.24433799999997" fill="none" instance-id="-1" semantic-id="1" stroke="rgb(178,178,0)" stroke-width="0.1"/>
  <path d="M 35.706655499999954,44.64733799999999 L 42.96765549999998,55.43133799999998" fill="none" instance-id="-1" semantic-id="1" stroke="rgb(178,178,0)" stroke-width="0.1"/>
  <path d="M 5.585655499999973,38.405337999999915 L 14.242655499999955,51.262338" fill="none" instance-id="-1" semantic-id="1" stroke="rgb(178,178,0)" stroke-width="0.1"/>
  <path d="M 3.0976554999999735,40.08033799999998 L 12.591655499999945,54.18233799999996" fill="none" instance-id="-1" semantic-id="1" stroke="rgb(178,178,0)" stroke-width="0.1"/>
  <path d="M 15.917655499999967,53.75133799999992 L 17.99165549999998,52.35533799999996" fill="none" instance-id="-1" semantic-id="1" stroke="rgb(178,178,0)" stroke-width="0.1"/>
  <path d="M 17.99165549999998,52.35533799999996 L 16.315655499999934,49.86633799999993" fill="none" instance-id="-1" semantic-id="1" stroke="rgb(178,178,0)" stroke-width="0.1"/>
  <path d="M 16.315655499999934,49.86633799999993 L 14.242655499999955,51.262338" fill="none" instance-id="-1" semantic-id="1" stroke="rgb(178,178,0)" stroke-width="0.1"/>
  <path d="M 27.929655499999967,42.04733799999997 L 24.611655499999983,44.281338000000005" fill="none" instance-id="-1" semantic-id="1" stroke="rgb(178,178,0)" stroke-width="0.1"/>
  <path d="M 24.611655499999983,44.281338000000005 L 26.286655499999938,46.770337999999924" fill="none" instance-id="-1" semantic-id="1" stroke="rgb(178,178,0)" stroke-width="0.1"/>
  <path d="M 26.286655499999938,46.770337999999924 L 29.60465549999998,44.536338" fill="none" instance-id="-1" semantic-id="1" stroke="rgb(178,178,0)" stroke-width="0.1"/>
  <path d="M 25.13265549999994,67.43833799999993 L 42.96765549999998,55.43133799999998" fill="none" instance-id="-1" semantic-id="1" stroke="rgb(178,178,0)" stroke-width="0.1"/>
  <path d="M 24.319655499999953,71.60233799999992 L 47.131655499999965,56.24433799999997" fill="none" instance-id="-1" semantic-id="1" stroke="rgb(178,178,0)" stroke-width="0.1"/>
  <path d="M 0.0,38.548955617811885 L 2.665655499999957,36.75433799999996" fill="none" instance-id="-1" semantic-id="1" stroke="rgb(178,178,0)" stroke-width="0.1"/>
  <path d="M 0.0,42.16589623185189 L 3.0976554999999735,40.08033799999998" fill="none" instance-id="-1" semantic-id="1" stroke="rgb(178,178,0)" stroke-width="0.1"/>
  <path d="M 2.665655499999957,36.75433799999996 L 57.25820792351743,0.0" fill="none" instance-id="-1" semantic-id="1" stroke="rgb(178,178,0)" stroke-width="0.1"/>
  <path d="M 5.585655499999973,38.405337999999915 L 62.6292965797727,0.0" fill="none" instance-id="-1" semantic-id="1" stroke="rgb(178,178,0)" stroke-width="0.1"/>
  <path d="M 12.591655499999945,54.18233799999996 L 14.825655499999982,57.50033799999994" fill="none" instance-id="-1" semantic-id="1" stroke="rgb(178,178,0)" stroke-width="0.1"/>
  <path d="M 14.825655499999982,57.50033799999994 L 17.31365549999998,55.82533799999999" fill="none" instance-id="-1" semantic-id="1" stroke="rgb(178,178,0)" stroke-width="0.1"/>
  <path d="M 17.31365549999998,55.82533799999999 L 15.917655499999967,53.75133799999992" fill="none" instance-id="-1" semantic-id="1" stroke="rgb(178,178,0)" stroke-width="0.1"/>
  <path d="M 25.13265549999994,67.43833799999993 L 22.89865549999996,64.12033799999995" fill="none" instance-id="-1" semantic-id="1" stroke="rgb(178,178,0)" stroke-width="0.1"/>
  <path d="M 22.89865549999996,64.12033799999995 L 20.409655499999985,65.7953379999999" fill="none" instance-id="-1" semantic-id="1" stroke="rgb(178,178,0)" stroke-width="0.1"/>
  <path d="M 20.409655499999985,65.7953379999999 L 24.319655499999953,71.60233799999992" fill="none" instance-id="-1" semantic-id="1" stroke="rgb(178,178,0)" stroke-width="0.1"/>
  <path d="M 1.401655499999947,2.6453379999999243 L 5.330586334377699,0.0" fill="none" instance-id="-1" semantic-id="1" stroke="rgb(178,178,0)" stroke-width="0.1"/>
  <path d="M 0.0,0.5635595984780366 L 1.401655499999947,2.6453379999999243" fill="none" instance-id="-1" semantic-id="1" stroke="rgb(178,178,0)" stroke-width="0.1"/>
  <path d="M 31.559655499999963,47.43933799999991 L 38.19565549999999,42.97233799999992" fill="none" instance-id="-1" semantic-id="1" stroke="rgb(178,178,0)" stroke-width="0.1"/>
  <path d="M 38.19565549999999,42.97233799999992 L 33.72765549999997,36.33533799999998" fill="none" instance-id="-1" semantic-id="1" stroke="rgb(178,178,0)" stroke-width="0.1"/>
  <path d="M 33.72765549999997,36.33533799999998 L 27.091655499999945,40.80333799999994" fill="none" instance-id="-1" semantic-id="1" stroke="rgb(178,178,0)" stroke-width="0.1"/>
  <path d="M 27.091655499999945,40.80333799999994 L 31.559655499999963,47.43933799999991" fill="none" instance-id="-1" semantic-id="1" stroke="rgb(178,178,0)" stroke-width="0.1"/>
 </g>
 <g id="layerDIM_LEAD" inkscape:groupmode="layer" inkscape:label="DIM_LEAD">
  <path d="M 14.72565549999996,39.892337999999995 L 0.0,18.02002395587192" fill="none" stroke="rgb(0,178,0)" stroke-width="0.1"/>
  <path d="M 47.78765549999997,72.43833799999993 L 47.37065549999994,63.763337999999976" fill="none" stroke="rgb(0,178,0)" stroke-width="0.1"/>
  <path d="M 47.37065549999994,63.763337999999976 L 71.31065549999994,47.645337999999924" fill="none" stroke="rgb(0,178,0)" stroke-width="0.1"/>
  <path d="M 0.0,96.87932793371795 L 4.320655499999987,93.97033799999997" fill="none" stroke="rgb(0,178,0)" stroke-width="0.1"/>
  <path d="M 31.186655499999972,59.78833799999995 L 55.581655499999954,96.02233799999999" fill="none" stroke="rgb(0,178,0)" stroke-width="0.1"/>
  <path d="M 55.581655499999954,96.02233799999999 L 98.52165549999995,67.11233799999991" fill="none" stroke="rgb(0,178,0)" stroke-width="0.1"/>
  <path d="M 15.00365549999998,40.00533799999994 A 0.3000883203325498,0.3000883203325498 0.0 1,0 14.44765549999994,39.77933799999994" fill="none" stroke="rgb(0,178,0)" stroke-width="0.1"/>
  <path d="M 14.44765549999994,39.77933799999994 A 0.3000883203325498,0.3000883203325498 0.0 1,0 15.00365549999998,40.00533799999994" fill="none" stroke="rgb(0,178,0)" stroke-width="0.1"/>
 </g>
 <g id="layerDOOR_FIRE" inkscape:groupmode="layer" inkscape:label="DOOR_FIRE">
  <path d="M 40.018655499999966,77.91033799999991 L 44.919655499999976,85.1893379999999" fill="none" instance-id="1" semantic-id="4" stroke="rgb(0,178,178)" stroke-width="0.1"/>
  <path d="M 39.645655499999975,78.161338 L 44.54565549999995,85.440338" fill="none" instance-id="1" semantic-id="4" stroke="rgb(0,178,178)" stroke-width="0.1"/>
  <path d="M 40.018655499999966,77.91033799999991 L 39.645655499999975,78.161338" fill="none" instance-id="1" semantic-id="4" stroke="rgb(0,178,178)" stroke-width="0.1"/>
  <path d="M 44.54565549999995,85.440338 L 44.919655499999976,85.1893379999999" fill="none" instance-id="1" semantic-id="4" stroke="rgb(0,178,178)" stroke-width="0.1"/>
  <path d="M 25.460655499999973,87.71133799999996 L 30.36065549999995,94.99033799999995" fill="none" instance-id="1" semantic-id="4" stroke="rgb(0,178,178)" stroke-width="0.1"/>
  <path d="M 25.087655499999983,87.96233799999993 L 29.98765549999996,95.24133799999993" fill="none" instance-id="1" semantic-id="4" stroke="rgb(0,178,178)" stroke-width="0.1"/>
  <path d="M 30.36065549999995,94.99033799999995 L 29.98765549999996,95.24133799999993" fill="none" instance-id="1" semantic-id="4" stroke="rgb(0,178,178)" stroke-width="0.1"/>
  <path d="M 25.087655499999983,87.96233799999993 L 25.460655499999973,87.71133799999996" fill="none" instance-id="1" semantic-id="4" stroke="rgb(0,178,178)" stroke-width="0.1"/>
  <path d="M 32.55265549999996,82.93633799999998 A 8.775,8.775 0.0 0,0 44.544655499999976,85.43833799999993" fill="none" instance-id="1" semantic-id="4" stroke="rgb(0,178,178)" stroke-width="0.1"/>
  <path d="M 30.359655499999974,94.988338 A 8.775,8.775 0.0 0,0 32.55265549999996,82.93633799999998" fill="none" instance-id="1" semantic-id="4" stroke="rgb(0,178,178)" stroke-width="0.1"/>
 </g>
 <g id="layerDOOR_FIRE_TEXT" inkscape:groupmode="layer" inkscape:label="DOOR_FIRE_TEXT">
  <text fill="rgb(0,0,0)" font-family="Noto Sans CJK SC" font-size="2" transform="rotate(-33.9506,26.330655499999978,85.118338)" x="26.330655499999978" y="85.118338">
   FM
  </text>
  <text fill="rgb(0,0,0)" font-family="Noto Sans CJK SC" font-size="2" transform="rotate(-33.9506,29.38665549999996,83.06133799999998)" x="29.38665549999996" y="83.06133799999998">
   甲
  </text>
  <text fill="rgb(0,0,0)" font-family="Noto Sans CJK SC" font-size="2" transform="rotate(-33.9506,32.20865549999996,81.161338)" x="32.20865549999996" y="81.161338">
   1823
  </text>
 </g>
 <g id="layerPUB_HATCH" inkscape:groupmode="layer" inkscape:label="PUB_HATCH">
  <path d="M 31.23965549999997,38.01133799999991 L 33.72765549999997,36.33533799999998" fill="none" instance-id="-1" semantic-id="1" stroke="rgb(63,63,63)" stroke-width="0.1"/>
  <path d="M 33.72765549999997,36.33533799999998 L 25.629655499999956,24.30733799999996" fill="none" instance-id="-1" semantic-id="1" stroke="rgb(63,63,63)" stroke-width="0.1"/>
  <path d="M 25.629655499999956,24.30733799999996 L 23.141655499999956,25.983338000000003" fill="none" instance-id="-1" semantic-id="1" stroke="rgb(63,63,63)" stroke-width="0.1"/>
  <path d="M 23.141655499999956,25.983338000000003 L 31.23965549999997,38.01133799999991" fill="none" instance-id="-1" semantic-id="1" stroke="rgb(63,63,63)" stroke-width="0.1"/>
  <path d="M 35.706655499999954,44.64733799999999 L 42.96765549999998,55.43133799999998" fill="none" instance-id="-1" semantic-id="1" stroke="rgb(63,63,63)" stroke-width="0.1"/>
  <path d="M 42.96765549999998,55.43133799999998 L 47.131655499999965,56.24433799999997" fill="none" instance-id="-1" semantic-id="1" stroke="rgb(63,63,63)" stroke-width="0.1"/>
  <path d="M 47.131655499999965,56.24433799999997 L 38.19565549999999,42.97233799999992" fill="none" instance-id="-1" semantic-id="1" stroke="rgb(63,63,63)" stroke-width="0.1"/>
  <path d="M 38.19565549999999,42.97233799999992 L 35.706655499999954,44.64733799999999" fill="none" instance-id="-1" semantic-id="1" stroke="rgb(63,63,63)" stroke-width="0.1"/>
  <path d="M 3.0976554999999735,40.08033799999998 L 12.591655499999945,54.18233799999996" fill="none" instance-id="-1" semantic-id="1" stroke="rgb(63,63,63)" stroke-width="0.1"/>
  <path d="M 12.591655499999945,54.18233799999996 L 14.250655499999937,53.065338" fill="none" instance-id="-1" semantic-id="1" stroke="rgb(63,63,63)" stroke-width="0.1"/>
  <path d="M 14.250655499999937,53.065338 L 14.242655499999955,51.262338" fill="none" instance-id="-1" semantic-id="1" stroke="rgb(63,63,63)" stroke-width="0.1"/>
  <path d="M 14.242655499999955,51.262338 L 5.585655499999973,38.405337999999915" fill="none" instance-id="-1" semantic-id="1" stroke="rgb(63,63,63)" stroke-width="0.1"/>
  <path d="M 5.585655499999973,38.405337999999915 L 3.7826554999999757,38.41333799999995" fill="none" instance-id="-1" semantic-id="1" stroke="rgb(63,63,63)" stroke-width="0.1"/>
  <path d="M 3.7826554999999757,38.41333799999995 L 3.0976554999999735,40.08033799999998" fill="none" instance-id="-1" semantic-id="1" stroke="rgb(63,63,63)" stroke-width="0.1"/>
  <path d="M 15.917655499999967,53.75133799999992 L 17.99165549999998,52.35533799999996" fill="none" instance-id="-1" semantic-id="1" stroke="rgb(63,63,63)" stroke-width="0.1"/>
  <path d="M 17.99165549999998,52.35533799999996 L 16.315655499999934,49.86633799999993" fill="none" instance-id="-1" semantic-id="1" stroke="rgb(63,63,63)" stroke-width="0.1"/>
  <path d="M 16.315655499999934,49.86633799999993 L 14.242655499999955,51.262338" fill="none" instance-id="-1" semantic-id="1" stroke="rgb(63,63,63)" stroke-width="0.1"/>
  <path d="M 14.242655499999955,51.262338 L 14.250655499999937,53.065338" fill="none" instance-id="-1" semantic-id="1" stroke="rgb(63,63,63)" stroke-width="0.1"/>
  <path d="M 14.250655499999937,53.065338 L 15.917655499999967,53.75133799999992" fill="none" instance-id="-1" semantic-id="1" stroke="rgb(63,63,63)" stroke-width="0.1"/>
  <path d="M 27.929655499999967,42.04733799999997 L 24.611655499999983,44.281338000000005" fill="none" instance-id="-1" semantic-id="1" stroke="rgb(63,63,63)" stroke-width="0.1"/>
  <path d="M 24.611655499999983,44.281338000000005 L 26.286655499999938,46.770337999999924" fill="none" instance-id="-1" semantic-id="1" stroke="rgb(63,63,63)" stroke-width="0.1"/>
  <path d="M 26.286655499999938,46.770337999999924 L 29.60465549999998,44.536338" fill="none" instance-id="-1" semantic-id="1" stroke="rgb(63,63,63)" stroke-width="0.1"/>
  <path d="M 29.60465549999998,44.536338 L 27.929655499999967,42.04733799999997" fill="none" instance-id="-1" semantic-id="1" stroke="rgb(63,63,63)" stroke-width="0.1"/>
  <path d="M 24.319655499999953,71.60233799999992 L 47.131655499999965,56.24433799999997" fill="none" instance-id="-1" semantic-id="1" stroke="rgb(63,63,63)" stroke-width="0.1"/>
  <path d="M 47.131655499999965,56.24433799999997 L 42.96765549999998,55.43133799999998" fill="none" instance-id="-1" semantic-id="1" stroke="rgb(63,63,63)" stroke-width="0.1"/>
  <path d="M 42.96765549999998,55.43133799999998 L 25.13265549999994,67.43833799999993" fill="none" instance-id="-1" semantic-id="1" stroke="rgb(63,63,63)" stroke-width="0.1"/>
  <path d="M 25.13265549999994,67.43833799999993 L 24.319655499999953,71.60233799999992" fill="none" instance-id="-1" semantic-id="1" stroke="rgb(63,63,63)" stroke-width="0.1"/>
  <path d="M 0.0,42.16589623185189 L 3.0976554999999735,40.08033799999998" fill="none" instance-id="-1" semantic-id="1" stroke="rgb(63,63,63)" stroke-width="0.1"/>
  <path d="M 3.0976554999999735,40.08033799999998 L 3.7826554999999757,38.41333799999995" fill="none" instance-id="-1" semantic-id="1" stroke="rgb(63,63,63)" stroke-width="0.1"/>
  <path d="M 3.7826554999999757,38.41333799999995 L 2.665655499999957,36.75433799999996" fill="none" instance-id="-1" semantic-id="1" stroke="rgb(63,63,63)" stroke-width="0.1"/>
  <path d="M 2.665655499999957,36.75433799999996 L 0.0,38.548955617811885" fill="none" instance-id="-1" semantic-id="1" stroke="rgb(63,63,63)" stroke-width="0.1"/>
  <path d="M 57.25820792351743,0.0 L 2.665655499999957,36.75433799999996" fill="none" instance-id="-1" semantic-id="1" stroke="rgb(63,63,63)" stroke-width="0.1"/>
  <path d="M 2.665655499999957,36.75433799999996 L 3.7826554999999757,38.41333799999995" fill="none" instance-id="-1" semantic-id="1" stroke="rgb(63,63,63)" stroke-width="0.1"/>
  <path d="M 3.7826554999999757,38.41333799999995 L 5.585655499999973,38.405337999999915" fill="none" instance-id="-1" semantic-id="1" stroke="rgb(63,63,63)" stroke-width="0.1"/>
  <path d="M 5.585655499999973,38.405337999999915 L 62.6292965797727,0.0" fill="none" instance-id="-1" semantic-id="1" stroke="rgb(63,63,63)" stroke-width="0.1"/>
  <path d="M 12.591655499999945,54.18233799999996 L 14.825655499999982,57.50033799999994" fill="none" instance-id="-1" semantic-id="1" stroke="rgb(63,63,63)" stroke-width="0.1"/>
  <path d="M 14.825655499999982,57.50033799999994 L 17.31365549999998,55.82533799999999" fill="none" instance-id="-1" semantic-id="1" stroke="rgb(63,63,63)" stroke-width="0.1"/>
  <path d="M 17.31365549999998,55.82533799999999 L 15.917655499999967,53.75133799999992" fill="none" instance-id="-1" semantic-id="1" stroke="rgb(63,63,63)" stroke-width="0.1"/>
  <path d="M 15.917655499999967,53.75133799999992 L 14.250655499999937,53.065338" fill="none" instance-id="-1" semantic-id="1" stroke="rgb(63,63,63)" stroke-width="0.1"/>
  <path d="M 14.250655499999937,53.065338 L 12.591655499999945,54.18233799999996" fill="none" instance-id="-1" semantic-id="1" stroke="rgb(63,63,63)" stroke-width="0.1"/>
  <path d="M 22.89865549999996,64.12033799999995 L 20.409655499999985,65.7953379999999" fill="none" instance-id="-1" semantic-id="1" stroke="rgb(63,63,63)" stroke-width="0.1"/>
  <path d="M 20.409655499999985,65.7953379999999 L 24.319655499999953,71.60233799999992" fill="none" instance-id="-1" semantic-id="1" stroke="rgb(63,63,63)" stroke-width="0.1"/>
  <path d="M 24.319655499999953,71.60233799999992 L 25.13265549999994,67.43833799999993" fill="none" instance-id="-1" semantic-id="1" stroke="rgb(63,63,63)" stroke-width="0.1"/>
  <path d="M 25.13265549999994,67.43833799999993 L 22.89865549999996,64.12033799999995" fill="none" instance-id="-1" semantic-id="1" stroke="rgb(63,63,63)" stroke-width="0.1"/>
 </g>
 <g id="layerPUB_TEXT" inkscape:groupmode="layer" inkscape:label="PUB_TEXT">
  <text fill="rgb(0,0,0)" font-family="Noto Sans CJK SC" font-size="2" transform="rotate(-33.9843,14.012655499999937,46.584338)" x="14.012655499999937" y="46.584338">
   排风井
  </text>
  <text fill="rgb(0,0,0)" font-family="Noto Sans CJK SC" font-size="2" transform="rotate(-33.9843,24.861655499999983,60.465337999999974)" x="24.861655499999983" y="60.465337999999974">
   密闭通道
  </text>
  <text fill="rgb(0,0,0)" font-family="Noto Sans CJK SC" font-size="2" transform="rotate(-33.9506,54.391655499999956,57.137338)" x="54.391655499999956" y="57.137338">
   暗装消火栓
  </text>
  <text fill="rgb(0,0,0)" font-family="Noto Sans CJK SC" font-size="2" transform="rotate(-33.9506,70.01865549999997,84.40333799999996)" x="70.01865549999997" y="84.40333799999996">
   口部
  </text>
  <text fill="rgb(0,0,0)" font-family="Noto Sans CJK SC" font-size="2" transform="rotate(-33.9506,78.49865549999998,78.6943379999999)" x="78.49865549999998" y="78.6943379999999">
   详见人防工程
  </text>
 </g>
 <g id="layerRF-WINDOW" inkscape:groupmode="layer" inkscape:label="RF-WINDOW">
  <path d="M 16.315655499999934,49.86633799999993 L 24.611655499999983,44.281338000000005" fill="none" instance-id="4" semantic-id="3" stroke="rgb(0,178,178)" stroke-width="0.1"/>
  <path d="M 17.99165549999998,52.35533799999996 L 26.286655499999938,46.770337999999924" fill="none" instance-id="4" semantic-id="3" stroke="rgb(0,178,178)" stroke-width="0.1"/>
  <path d="M 17.31365549999998,55.82533799999999 L 22.89865549999996,64.12033799999995" fill="none" instance-id="3" semantic-id="3" stroke="rgb(0,178,178)" stroke-width="0.1"/>
  <path d="M 14.825655499999982,57.50033799999994 L 20.409655499999985,65.7953379999999" fill="none" instance-id="3" semantic-id="3" stroke="rgb(0,178,178)" stroke-width="0.1"/>
  <path d="M 24.89065549999998,44.69633799999997 L 14.91465549999998,45.38533799999993" fill="none" instance-id="4" semantic-id="3" stroke="rgb(0,178,178)" stroke-width="0.1"/>
  <path d="M 19.982655499999964,81.54433799999993 L 19.691655499999968,81.73933799999998" fill="none" instance-id="2" semantic-id="3" stroke="rgb(0,178,178)" stroke-width="0.1"/>
  <path d="M 15.880655499999932,76.07833799999992 L 16.170655499999953,75.88333799999998" fill="none" instance-id="2" semantic-id="3" stroke="rgb(0,178,178)" stroke-width="0.1"/>
  <path d="M 15.880655499999932,76.07833799999992 L 19.691655499999968,81.73933799999998" fill="none" instance-id="2" semantic-id="3" stroke="rgb(0,178,178)" stroke-width="0.1"/>
  <path d="M 16.170655499999953,75.88333799999998 L 19.982655499999964,81.54433799999993" fill="none" instance-id="2" semantic-id="3" stroke="rgb(0,178,178)" stroke-width="0.1"/>
  <path d="M 22.48365549999994,64.39933799999994 L 21.794655499999976,54.423337999999944" fill="none" instance-id="3" semantic-id="3" stroke="rgb(0,178,178)" stroke-width="0.1"/>
  <path d="M 19.98165549999993,81.54233799999997 A 6.825,6.825 0.0 0,0 21.68765549999995,72.16933799999993" fill="none" instance-id="2" semantic-id="3" stroke="rgb(0,178,178)" stroke-width="0.1"/>
 </g>
 <g id="layerS-JSJ" inkscape:groupmode="layer" inkscape:label="S-JSJ">
  <path d="M 28.980655499999955,29.284337999999934 L 72.4778747683535,0.0" fill="none" stroke="rgb(0,133,178)" stroke-width="0.1"/>
  <path d="M 27.305655499999943,26.79633799999999 L 67.10669187767473,0.0" fill="none" stroke="rgb(0,133,178)" stroke-width="0.1"/>
 </g>
 <g id="layerWALL" inkscape:groupmode="layer" inkscape:label="WALL">
  <path d="M 0.0,54.28134226136967 L 5.27765549999998,62.12033799999995" fill="none" instance-id="-1" semantic-id="1" stroke="rgb(178,178,0)" stroke-width="0.1"/>
  <path d="M 0.0,57.86269278885118 L 3.0596554999999626,62.40733799999998" fill="none" instance-id="-1" semantic-id="1" stroke="rgb(178,178,0)" stroke-width="0.1"/>
  <path d="M 47.131655499999965,56.24433799999997 L 54.11265549999996,66.613338" fill="none" instance-id="-1" semantic-id="1" stroke="rgb(178,178,0)" stroke-width="0.1"/>
  <path d="M 45.47265549999997,57.36133799999993 L 51.89465549999994,66.90033799999992" fill="none" instance-id="-1" semantic-id="1" stroke="rgb(178,178,0)" stroke-width="0.1"/>
  <path d="M 47.131655499999965,56.24433799999997 L 45.47265549999997,57.36133799999993" fill="none" instance-id="-1" semantic-id="1" stroke="rgb(178,178,0)" stroke-width="0.1"/>
  <path d="M 13.950655499999982,78.58333799999991 L 16.43865549999998,76.90733799999998" fill="none" instance-id="-1" semantic-id="1" stroke="rgb(178,178,0)" stroke-width="0.1"/>
  <path d="M 16.43865549999998,76.90733799999998 L 15.321655499999963,75.24833799999999" fill="none" instance-id="-1" semantic-id="1" stroke="rgb(178,178,0)" stroke-width="0.1"/>
  <path d="M 15.321655499999963,75.24833799999999 L 14.492655499999955,75.80733799999996" fill="none" instance-id="-1" semantic-id="1" stroke="rgb(178,178,0)" stroke-width="0.1"/>
  <path d="M 23.202655499999935,69.94333799999993 L 21.12865549999998,71.339338" fill="none" instance-id="-1" semantic-id="1" stroke="rgb(178,178,0)" stroke-width="0.1"/>
  <path d="M 21.12865549999998,71.339338 L 22.24565549999994,72.99833799999999" fill="none" instance-id="-1" semantic-id="1" stroke="rgb(178,178,0)" stroke-width="0.1"/>
  <path d="M 22.24565549999994,72.99833799999999 L 24.319655499999953,71.60233799999992" fill="none" instance-id="-1" semantic-id="1" stroke="rgb(178,178,0)" stroke-width="0.1"/>
  <path d="M 24.319655499999953,71.60233799999992 L 23.202655499999935,69.94333799999993" fill="none" instance-id="-1" semantic-id="1" stroke="rgb(178,178,0)" stroke-width="0.1"/>
  <path d="M 5.27765549999998,62.12033799999995 L 14.492655499999955,75.80733799999996" fill="none" instance-id="-1" semantic-id="1" stroke="rgb(178,178,0)" stroke-width="0.1"/>
  <path d="M 4.176655499999981,64.06633799999997 L 13.950655499999982,78.58333799999991" fill="none" instance-id="-1" semantic-id="1" stroke="rgb(178,178,0)" stroke-width="0.1"/>
  <path d="M 0.0,64.46801265915121 L 3.0596554999999626,62.40733799999998" fill="none" instance-id="-1" semantic-id="1" stroke="rgb(178,178,0)" stroke-width="0.1"/>
  <path d="M 0.0,66.87907017447458 L 4.176655499999981,64.06633799999997" fill="none" instance-id="-1" semantic-id="1" stroke="rgb(178,178,0)" stroke-width="0.1"/>
  <path d="M 54.11265549999996,66.613338 L 55.508655499999975,68.68733799999995" fill="none" instance-id="-1" semantic-id="1" stroke="rgb(178,178,0)" stroke-width="0.1"/>
  <path d="M 52.45365549999997,67.73033799999996 L 52.732655499999964,68.14533799999992" fill="none" instance-id="-1" semantic-id="1" stroke="rgb(178,178,0)" stroke-width="0.1"/>
  <path d="M 44.157655499999976,73.315338 L 44.43765549999995,73.72933799999998" fill="none" instance-id="-1" semantic-id="1" stroke="rgb(178,178,0)" stroke-width="0.1"/>
  <path d="M 42.76965549999994,73.04433799999993 L 43.607655499999964,74.28833799999995" fill="none" instance-id="-1" semantic-id="1" stroke="rgb(178,178,0)" stroke-width="0.1"/>
  <path d="M 42.76965549999994,73.04433799999993 L 51.89465549999994,66.90033799999992" fill="none" instance-id="-1" semantic-id="1" stroke="rgb(178,178,0)" stroke-width="0.1"/>
  <path d="M 44.157655499999976,73.315338 L 52.45365549999997,67.73033799999996" fill="none" instance-id="-1" semantic-id="1" stroke="rgb(178,178,0)" stroke-width="0.1"/>
  <path d="M 44.43765549999995,73.72933799999998 L 52.732655499999964,68.14533799999992" fill="none" instance-id="-1" semantic-id="1" stroke="rgb(178,178,0)" stroke-width="0.1"/>
  <path d="M 45.55465549999997,75.38833799999998 L 55.508655499999975,68.68733799999995" fill="none" instance-id="-1" semantic-id="1" stroke="rgb(178,178,0)" stroke-width="0.1"/>
  <path d="M 8.998585327941157,100.0 L 25.645655499999975,88.79233799999997" fill="none" instance-id="-1" semantic-id="1" stroke="rgb(178,178,0)" stroke-width="0.1"/>
  <path d="M 25.645655499999975,88.79233799999997 L 24.528655499999957,87.13333799999998" fill="none" instance-id="-1" semantic-id="1" stroke="rgb(178,178,0)" stroke-width="0.1"/>
  <path d="M 24.528655499999957,87.13333799999998 L 5.417263525401779,100.0" fill="none" instance-id="-1" semantic-id="1" stroke="rgb(178,178,0)" stroke-width="0.1"/>
  <path d="M 43.607655499999964,74.28833799999995 L 39.45965549999994,77.08033799999998" fill="none" instance-id="-1" semantic-id="1" stroke="rgb(178,178,0)" stroke-width="0.1"/>
  <path d="M 39.45965549999994,77.08033799999998 L 40.57665549999996,78.73933799999998" fill="none" instance-id="-1" semantic-id="1" stroke="rgb(178,178,0)" stroke-width="0.1"/>
  <path d="M 40.57665549999996,78.73933799999998 L 45.55465549999997,75.38833799999998" fill="none" instance-id="-1" semantic-id="1" stroke="rgb(178,178,0)" stroke-width="0.1"/>
 </g>
 <g id="layers-消火栓" inkscape:groupmode="layer" inkscape:label="s-消火栓">
  <path d="M 17.182655499999953,26.981337999999937 L 21.64865549999996,21.080337999999983" fill="none" stroke="rgb(178,88,0)" stroke-width="0.1"/>
  <path d="M 50.020655499999975,69.488338 L 45.55465549999997,75.38833799999998" fill="none" stroke="rgb(178,88,0)" stroke-width="0.1"/>
  <path d="M 15.842655499999978,24.99033799999995 L 21.64865549999996,21.080337999999983" fill="none" stroke="rgb(178,88,0)" stroke-width="0.1"/>
  <path d="M 21.64865549999996,21.080337999999983 L 22.98965549999997,23.07133799999997" fill="none" stroke="rgb(178,88,0)" stroke-width="0.1"/>
  <path d="M 22.98965549999997,23.07133799999997 L 17.182655499999953,26.981337999999937" fill="none" stroke="rgb(178,88,0)" stroke-width="0.1"/>
  <path d="M 17.182655499999953,26.981337999999937 L 15.842655499999978,24.99033799999995" fill="none" stroke="rgb(178,88,0)" stroke-width="0.1"/>
  <path d="M 51.36065549999995,71.47933799999998 L 45.55465549999997,75.38833799999998" fill="none" stroke="rgb(178,88,0)" stroke-width="0.1"/>
  <path d="M 45.55465549999997,75.38833799999998 L 44.21365549999996,73.39833799999997" fill="none" stroke="rgb(178,88,0)" stroke-width="0.1"/>
  <path d="M 44.21365549999996,73.39833799999997 L 50.020655499999975,69.488338" fill="none" stroke="rgb(178,88,0)" stroke-width="0.1"/>
  <path d="M 50.020655499999975,69.488338 L 51.36065549999995,71.47933799999998" fill="none" stroke="rgb(178,88,0)" stroke-width="0.1"/>
  <path d="M 21.64865549999996,21.080337999999983 L 17.182655499999953,26.981337999999937" fill="none" stroke="rgb(178,88,0)" stroke-width="0.1"/>
  <path d="M 17.182655499999953,26.981337999999937 L 22.98965549999997,23.07133799999997" fill="none" stroke="rgb(178,88,0)" stroke-width="0.1"/>
  <path d="M 22.98965549999997,23.07133799999997 L 21.64865549999996,21.080337999999983" fill="none" stroke="rgb(178,88,0)" stroke-width="0.1"/>
  <path d="M 44.21365549999996,73.39833799999997 L 45.55465549999997,75.38833799999998" fill="none" stroke="rgb(178,88,0)" stroke-width="0.1"/>
  <path d="M 45.55465549999997,75.38833799999998 L 50.020655499999975,69.488338" fill="none" stroke="rgb(178,88,0)" stroke-width="0.1"/>
  <path d="M 50.020655499999975,69.488338 L 44.21365549999996,73.39833799999997" fill="none" stroke="rgb(178,88,0)" stroke-width="0.1"/>
  <circle cx="23.72965549999998" cy="21.127337999999895" fill="none" r="0.6" stroke="rgb(178,178,0)" stroke-width="0.1"/>
  <circle cx="50.843655499999954" cy="67.48733799999991" fill="none" r="0.6" stroke="rgb(178,178,0)" stroke-width="0.1"/>
 </g>
 <g id="layer建-门窗-编号" inkscape:groupmode="layer" inkscape:label="建-门窗-编号">
  <text fill="rgb(0,0,0)" font-family="Noto Sans CJK SC" font-size="2" transform="rotate(-33.9506,27.175655499999948,77.47933799999998)" x="27.175655499999948" y="77.47933799999998">
   FM
  </text>
  <text fill="rgb(0,0,0)" font-family="Noto Sans CJK SC" font-size="2" transform="rotate(-33.9506,32.40165549999995,73.96033799999998)" x="32.40165549999995" y="73.96033799999998">
   甲
  </text>
  <text fill="rgb(0,0,0)" font-family="Noto Sans CJK SC" font-size="2" transform="rotate(-33.9506,35.45965549999994,71.90233799999999)" x="35.45965549999994" y="71.90233799999999">
   0716
  </text>
  <text fill="rgb(0,0,0)" font-family="Noto Sans CJK SC" font-size="2" transform="rotate(-33.9506,32.62065549999994,33.628337999999985)" x="32.62065549999994" y="33.628337999999985">
   HFM1020(6)
  </text>
  <text fill="rgb(0,0,0)" font-family="Noto Sans CJK SC" font-size="2" transform="rotate(-303.951,1.6806554999999435,52.0503379999999)" x="1.6806554999999435" y="52.0503379999999">
   HM1020
  </text>
 </g>
 <g id="layer集水坑" inkscape:groupmode="layer" inkscape:label="集水坑">
  <path d="M 5.585655499999973,38.405337999999915 L 13.880655499999932,32.82033799999999" fill="none" stroke="rgb(0,178,178)" stroke-width="0.1"/>
  <path d="M 13.880655499999932,32.82033799999999 L 19.46565549999997,41.11533799999995" fill="none" stroke="rgb(0,178,178)" stroke-width="0.1"/>
  <path d="M 19.46565549999997,41.11533799999995 L 11.170655499999953,46.70033799999999" fill="none" stroke="rgb(0,178,178)" stroke-width="0.1"/>
  <path d="M 11.170655499999953,46.70033799999999 L 5.585655499999973,38.405337999999915" fill="none" stroke="rgb(0,178,178)" stroke-width="0.1"/>
  <path d="M 11.170655499999953,46.70033799999999 L 9.252655499999946,39.59233799999993" fill="none" stroke="rgb(0,178,178)" stroke-width="0.1"/>
  <path d="M 9.252655499999946,39.59233799999993 L 13.880655499999932,32.82033799999999" fill="none" stroke="rgb(0,178,178)" stroke-width="0.1"/>
  <text fill="rgb(0,178,178)" font-family="Noto Sans CJK SC" font-size="2" transform="rotate(-33.9506,12.679655499999967,43.562337999999954)" x="12.679655499999967" y="43.562337999999954">
   ZK1
  </text>
 </g>
</svg>