<?xml version="1.0" encoding="utf-8"?>
<svg style="background-color: #000;" version="1.1" viewBox="0 0 100.0 100.0" xmlns="http://www.w3.org/2000/svg" xmlns:inkscape="http://www.inkscape.org/namespaces/inkscape">
 <g id="layer0-结构边线" inkscape:groupmode="layer" inkscape:label="0-结构边线">
  <path d="M 87.98165549999993,66.26133799999991 L 94.61765549999996,61.79333799999995" fill="none" stroke="rgb(178,0,178)" stroke-width="0.1"/>
  <path d="M 94.61765549999996,61.79333799999995 L 90.14965549999994,55.15733799999998" fill="none" stroke="rgb(178,0,178)" stroke-width="0.1"/>
  <path d="M 83.51365549999997,59.62533799999994 L 90.14965549999994,55.15733799999998" fill="none" stroke="rgb(178,0,178)" stroke-width="0.1"/>
  <path d="M 87.98165549999993,66.26133799999991 L 83.51365549999997,59.62533799999994" fill="none" stroke="rgb(178,0,178)" stroke-width="0.1"/>
 </g>
 <g id="layerA-留洞-up" inkscape:groupmode="layer" inkscape:label="A-留洞-up">
  <path d="M 48.19330532411024,0.0 L 61.97965549999995,20.477337999999918" fill="none" stroke="rgb(178,0,178)" stroke-width="0.1"/>
  <path d="M 61.97965549999995,20.477337999999918 L 51.53627149087836,0.0" fill="none" stroke="rgb(178,0,178)" stroke-width="0.1"/>
  <path d="M 63.865094072675106,0.0 L 72.76365549999997,13.217337999999927" fill="none" stroke="rgb(178,0,178)" stroke-width="0.1"/>
  <path d="M 72.76365549999997,13.217337999999927 L 61.978655499999945,20.478337999999894" fill="none" stroke="rgb(178,0,178)" stroke-width="0.1"/>
 </g>
 <g id="layerAXIS" inkscape:groupmode="layer" inkscape:label="AXIS">
  <path d="M 33.07365549999997,98.40733799999998 L 30.708093785168558,100.0" fill="none" stroke="rgb(0,178,0)" stroke-width="0.1"/>
 </g>
 <g id="layerCOLUMN" inkscape:groupmode="layer" inkscape:label="COLUMN">
  <path d="M 71.09767362182299,0.0 L 78.57865549999997,11.111337999999932" fill="none" instance-id="-1" semantic-id="1" stroke="rgb(178,178,0)" stroke-width="0.1"/>
  <path d="M 67.48078638036736,0.0 L 75.25165549999997,11.542337999999972" fill="none" instance-id="-1" semantic-id="1" stroke="rgb(178,178,0)" stroke-width="0.1"/>
  <path d="M 76.92765549999996,14.030337999999915 L 73.60865549999997,16.26533799999993" fill="none" instance-id="-1" semantic-id="1" stroke="rgb(178,178,0)" stroke-width="0.1"/>
  <path d="M 73.60865549999997,16.26533799999993 L 75.28365549999995,18.753337999999985" fill="none" instance-id="-1" semantic-id="1" stroke="rgb(178,178,0)" stroke-width="0.1"/>
  <path d="M 75.28365549999995,18.753337999999985 L 81.09165549999994,14.843337999999903" fill="none" instance-id="-1" semantic-id="1" stroke="rgb(178,178,0)" stroke-width="0.1"/>
  <path d="M 65.32965549999997,25.455337999999983 L 68.64765549999996,23.221337999999946" fill="none" instance-id="-1" semantic-id="1" stroke="rgb(178,178,0)" stroke-width="0.1"/>
  <path d="M 68.64765549999996,23.221337999999946 L 66.97165549999997,20.733338000000003" fill="none" instance-id="-1" semantic-id="1" stroke="rgb(178,178,0)" stroke-width="0.1"/>
  <path d="M 66.97165549999997,20.733338000000003 L 63.65365549999996,22.967337999999927" fill="none" instance-id="-1" semantic-id="1" stroke="rgb(178,178,0)" stroke-width="0.1"/>
  <path d="M 63.65365549999996,22.967337999999927 L 65.32965549999997,25.455337999999983" fill="none" instance-id="-1" semantic-id="1" stroke="rgb(178,178,0)" stroke-width="0.1"/>
  <path d="M 75.25165549999997,11.542337999999972 L 71.93265549999995,13.776337999999896" fill="none" instance-id="-1" semantic-id="1" stroke="rgb(178,178,0)" stroke-width="0.1"/>
  <path d="M 71.93265549999995,13.776337999999896 L 73.60865549999997,16.26533799999993" fill="none" instance-id="-1" semantic-id="1" stroke="rgb(178,178,0)" stroke-width="0.1"/>
  <path d="M 73.60865549999997,16.26533799999993 L 76.92765549999996,14.030337999999915" fill="none" instance-id="-1" semantic-id="1" stroke="rgb(178,178,0)" stroke-width="0.1"/>
  <path d="M 63.65465549999996,22.96633799999995 L 66.97165549999997,20.733338000000003" fill="none" instance-id="-1" semantic-id="1" stroke="rgb(178,178,0)" stroke-width="0.1"/>
  <path d="M 66.97165549999997,20.733338000000003 L 65.29665549999996,18.24433799999997" fill="none" instance-id="-1" semantic-id="1" stroke="rgb(178,178,0)" stroke-width="0.1"/>
  <path d="M 65.29665549999996,18.24433799999997 L 61.97965549999995,20.477337999999918" fill="none" instance-id="-1" semantic-id="1" stroke="rgb(178,178,0)" stroke-width="0.1"/>
  <path d="M 61.97965549999995,20.477337999999918 L 63.65465549999996,22.96633799999995" fill="none" instance-id="-1" semantic-id="1" stroke="rgb(178,178,0)" stroke-width="0.1"/>
  <path d="M 78.57865549999997,11.111337999999932 L 81.09165549999994,14.843337999999903" fill="none" instance-id="-1" semantic-id="1" stroke="rgb(178,178,0)" stroke-width="0.1"/>
  <path d="M 91.29865549999994,64.02833799999996 L 100.0,76.95248861076811" fill="none" instance-id="-1" semantic-id="1" stroke="rgb(178,178,0)" stroke-width="0.1"/>
  <path d="M 85.74665549999995,62.9443379999999 L 100.0,84.11476948903953" fill="none" instance-id="-1" semantic-id="1" stroke="rgb(178,178,0)" stroke-width="0.1"/>
  <path d="M 85.74765549999995,62.943337999999926 L 85.74665549999995,62.9443379999999" fill="none" stroke="rgb(178,178,0)" stroke-width="0.1"/>
  <path d="M 48.191730778001045,0.0 L 62.81665549999997,21.722337999999922" fill="none" instance-id="-1" semantic-id="1" stroke="rgb(178,178,0)" stroke-width="0.1"/>
  <path d="M 43.369574031474,0.0 L 59.498655499999956,23.95633799999996" fill="none" instance-id="-1" semantic-id="1" stroke="rgb(178,178,0)" stroke-width="0.1"/>
  <path d="M 62.81665549999997,21.722337999999922 L 59.498655499999956,23.95633799999996" fill="none" instance-id="-1" semantic-id="1" stroke="rgb(178,178,0)" stroke-width="0.1"/>
  <path d="M 64.49165549999995,24.211337999999955 L 86.83065549999995,57.392337999999995" fill="none" instance-id="-1" semantic-id="1" stroke="rgb(178,178,0)" stroke-width="0.1"/>
  <path d="M 61.17365549999997,26.445337999999992 L 85.74665549999995,62.9443379999999" fill="none" instance-id="-1" semantic-id="1" stroke="rgb(178,178,0)" stroke-width="0.1"/>
  <path d="M 62.81665549999997,21.722337999999922 L 64.49165549999995,24.211337999999955" fill="none" instance-id="-1" semantic-id="1" stroke="rgb(178,178,0)" stroke-width="0.1"/>
  <path d="M 59.498655499999956,23.95633799999996 L 61.17365549999997,26.445337999999992" fill="none" instance-id="-1" semantic-id="1" stroke="rgb(178,178,0)" stroke-width="0.1"/>
  <path d="M 64.49165549999995,24.211337999999955 L 61.17365549999997,26.445337999999992" fill="none" instance-id="-1" semantic-id="1" stroke="rgb(178,178,0)" stroke-width="0.1"/>
  <path d="M 87.98165549999993,66.26133799999991 L 94.61765549999996,61.79333799999995" fill="none" instance-id="-1" semantic-id="1" stroke="rgb(178,178,0)" stroke-width="0.1"/>
  <path d="M 94.61765549999996,61.79333799999995 L 90.14965549999994,55.15733799999998" fill="none" instance-id="-1" semantic-id="1" stroke="rgb(178,178,0)" stroke-width="0.1"/>
  <path d="M 90.14965549999994,55.15733799999998 L 83.51365549999997,59.62533799999994" fill="none" instance-id="-1" semantic-id="1" stroke="rgb(178,178,0)" stroke-width="0.1"/>
  <path d="M 83.51365549999997,59.62533799999994 L 87.98165549999993,66.26133799999991" fill="none" instance-id="-1" semantic-id="1" stroke="rgb(178,178,0)" stroke-width="0.1"/>
 </g>
 <g id="layerPUB_HATCH" inkscape:groupmode="layer" inkscape:label="PUB_HATCH">
  <path d="M 67.48078638036736,0.0 L 75.25165549999997,11.542337999999972" fill="none" instance-id="-1" semantic-id="1" stroke="rgb(63,63,63)" stroke-width="0.1"/>
  <path d="M 75.25165549999997,11.542337999999972 L 76.91965549999995,12.227337999999918" fill="none" instance-id="-1" semantic-id="1" stroke="rgb(63,63,63)" stroke-width="0.1"/>
  <path d="M 76.91965549999995,12.227337999999918 L 78.57865549999997,11.111337999999932" fill="none" instance-id="-1" semantic-id="1" stroke="rgb(63,63,63)" stroke-width="0.1"/>
  <path d="M 78.57865549999997,11.111337999999932 L 71.09767362182299,0.0" fill="none" instance-id="-1" semantic-id="1" stroke="rgb(63,63,63)" stroke-width="0.1"/>
  <path d="M 73.60865549999997,16.26533799999993 L 75.28365549999995,18.753337999999985" fill="none" instance-id="-1" semantic-id="1" stroke="rgb(63,63,63)" stroke-width="0.1"/>
  <path d="M 75.28365549999995,18.753337999999985 L 81.09165549999994,14.843337999999903" fill="none" instance-id="-1" semantic-id="1" stroke="rgb(63,63,63)" stroke-width="0.1"/>
  <path d="M 81.09165549999994,14.843337999999903 L 76.92765549999996,14.030337999999915" fill="none" instance-id="-1" semantic-id="1" stroke="rgb(63,63,63)" stroke-width="0.1"/>
  <path d="M 76.92765549999996,14.030337999999915 L 73.60865549999997,16.26533799999993" fill="none" instance-id="-1" semantic-id="1" stroke="rgb(63,63,63)" stroke-width="0.1"/>
  <path d="M 65.32965549999997,25.455337999999983 L 68.64765549999996,23.221337999999946" fill="none" instance-id="-1" semantic-id="1" stroke="rgb(63,63,63)" stroke-width="0.1"/>
  <path d="M 68.64765549999996,23.221337999999946 L 66.97165549999997,20.733338000000003" fill="none" instance-id="-1" semantic-id="1" stroke="rgb(63,63,63)" stroke-width="0.1"/>
  <path d="M 66.97165549999997,20.733338000000003 L 63.65365549999996,22.967337999999927" fill="none" instance-id="-1" semantic-id="1" stroke="rgb(63,63,63)" stroke-width="0.1"/>
  <path d="M 63.65365549999996,22.967337999999927 L 65.32965549999997,25.455337999999983" fill="none" instance-id="-1" semantic-id="1" stroke="rgb(63,63,63)" stroke-width="0.1"/>
  <path d="M 71.93265549999995,13.776337999999896 L 73.60865549999997,16.26533799999993" fill="none" instance-id="-1" semantic-id="1" stroke="rgb(63,63,63)" stroke-width="0.1"/>
  <path d="M 73.60865549999997,16.26533799999993 L 76.92765549999996,14.030337999999915" fill="none" instance-id="-1" semantic-id="1" stroke="rgb(63,63,63)" stroke-width="0.1"/>
  <path d="M 76.92765549999996,14.030337999999915 L 76.91965549999995,12.227337999999918" fill="none" instance-id="-1" semantic-id="1" stroke="rgb(63,63,63)" stroke-width="0.1"/>
  <path d="M 76.91965549999995,12.227337999999918 L 75.25165549999997,11.542337999999972" fill="none" instance-id="-1" semantic-id="1" stroke="rgb(63,63,63)" stroke-width="0.1"/>
  <path d="M 75.25165549999997,11.542337999999972 L 71.93265549999995,13.776337999999896" fill="none" instance-id="-1" semantic-id="1" stroke="rgb(63,63,63)" stroke-width="0.1"/>
  <path d="M 63.65465549999996,22.96633799999995 L 66.97165549999997,20.733338000000003" fill="none" instance-id="-1" semantic-id="1" stroke="rgb(63,63,63)" stroke-width="0.1"/>
  <path d="M 66.97165549999997,20.733338000000003 L 65.29665549999996,18.24433799999997" fill="none" instance-id="-1" semantic-id="1" stroke="rgb(63,63,63)" stroke-width="0.1"/>
  <path d="M 65.29665549999996,18.24433799999997 L 61.97965549999995,20.477337999999918" fill="none" instance-id="-1" semantic-id="1" stroke="rgb(63,63,63)" stroke-width="0.1"/>
  <path d="M 61.97965549999995,20.477337999999918 L 63.65465549999996,22.96633799999995" fill="none" instance-id="-1" semantic-id="1" stroke="rgb(63,63,63)" stroke-width="0.1"/>
  <path d="M 76.91965549999995,12.227337999999918 L 76.92765549999996,14.030337999999915" fill="none" instance-id="-1" semantic-id="1" stroke="rgb(63,63,63)" stroke-width="0.1"/>
  <path d="M 76.92765549999996,14.030337999999915 L 81.09165549999994,14.843337999999903" fill="none" instance-id="-1" semantic-id="1" stroke="rgb(63,63,63)" stroke-width="0.1"/>
  <path d="M 81.09165549999994,14.843337999999903 L 78.57865549999997,11.111337999999932" fill="none" instance-id="-1" semantic-id="1" stroke="rgb(63,63,63)" stroke-width="0.1"/>
  <path d="M 78.57865549999997,11.111337999999932 L 76.91965549999995,12.227337999999918" fill="none" instance-id="-1" semantic-id="1" stroke="rgb(63,63,63)" stroke-width="0.1"/>
  <path d="M 87.98165549999993,66.26133799999991 L 85.74765549999995,62.943337999999926" fill="none" instance-id="-1" semantic-id="1" stroke="rgb(63,63,63)" stroke-width="0.1"/>
  <path d="M 85.74765549999995,62.943337999999926 L 85.74665549999995,62.9443379999999" fill="none" stroke="rgb(63,63,63)" stroke-width="0.1"/>
  <path d="M 85.74665549999995,62.9443379999999 L 100.0,84.11476948903953" fill="none" instance-id="-1" semantic-id="1" stroke="rgb(63,63,63)" stroke-width="0.1"/>
  <path d="M 100.0,76.95248861076811 L 91.29865549999994,64.02833799999996" fill="none" instance-id="-1" semantic-id="1" stroke="rgb(63,63,63)" stroke-width="0.1"/>
  <path d="M 91.29865549999994,64.02833799999996 L 87.98165549999993,66.26133799999991" fill="none" instance-id="-1" semantic-id="1" stroke="rgb(63,63,63)" stroke-width="0.1"/>
  <path d="M 43.369574031474,0.0 L 59.498655499999956,23.95633799999996" fill="none" instance-id="-1" semantic-id="1" stroke="rgb(63,63,63)" stroke-width="0.1"/>
  <path d="M 59.498655499999956,23.95633799999996 L 62.81665549999997,21.722337999999922" fill="none" instance-id="-1" semantic-id="1" stroke="rgb(63,63,63)" stroke-width="0.1"/>
  <path d="M 62.81665549999997,21.722337999999922 L 48.191730778001045,0.0" fill="none" instance-id="-1" semantic-id="1" stroke="rgb(63,63,63)" stroke-width="0.1"/>
  <path d="M 83.51365549999997,59.62533799999994 L 86.83065549999995,57.392337999999995" fill="none" instance-id="-1" semantic-id="1" stroke="rgb(63,63,63)" stroke-width="0.1"/>
  <path d="M 86.83065549999995,57.392337999999995 L 64.49165549999995,24.211337999999955" fill="none" instance-id="-1" semantic-id="1" stroke="rgb(63,63,63)" stroke-width="0.1"/>
  <path d="M 64.49165549999995,24.211337999999955 L 61.17365549999997,26.445337999999992" fill="none" instance-id="-1" semantic-id="1" stroke="rgb(63,63,63)" stroke-width="0.1"/>
  <path d="M 61.17365549999997,26.445337999999992 L 85.74665549999995,62.9443379999999" fill="none" instance-id="-1" semantic-id="1" stroke="rgb(63,63,63)" stroke-width="0.1"/>
  <path d="M 85.74665549999995,62.9443379999999 L 85.74765549999995,62.943337999999926" fill="none" stroke="rgb(63,63,63)" stroke-width="0.1"/>
  <path d="M 85.74765549999995,62.943337999999926 L 83.51365549999997,59.62533799999994" fill="none" instance-id="-1" semantic-id="1" stroke="rgb(63,63,63)" stroke-width="0.1"/>
  <path d="M 59.498655499999956,23.95633799999996 L 61.17365549999997,26.445337999999992" fill="none" instance-id="-1" semantic-id="1" stroke="rgb(63,63,63)" stroke-width="0.1"/>
  <path d="M 61.17365549999997,26.445337999999992 L 64.49165549999995,24.211337999999955" fill="none" instance-id="-1" semantic-id="1" stroke="rgb(63,63,63)" stroke-width="0.1"/>
  <path d="M 64.49165549999995,24.211337999999955 L 62.81665549999997,21.722337999999922" fill="none" instance-id="-1" semantic-id="1" stroke="rgb(63,63,63)" stroke-width="0.1"/>
  <path d="M 62.81665549999997,21.722337999999922 L 59.498655499999956,23.95633799999996" fill="none" instance-id="-1" semantic-id="1" stroke="rgb(63,63,63)" stroke-width="0.1"/>
 </g>
 <g id="layerPUB_TEXT" inkscape:groupmode="layer" inkscape:label="PUB_TEXT">
  <text fill="rgb(0,0,0)" font-family="Noto Sans CJK SC" font-size="2" transform="rotate(-31.8951,83.29265549999997,18.99033799999995)" x="83.29265549999997" y="18.99033799999995">
   集气室
  </text>
  <text fill="rgb(0,0,0)" font-family="Noto Sans CJK SC" font-size="2" transform="rotate(-31.8951,58.74965549999996,14.349337999999989)" x="58.74965549999996" y="14.349337999999989">
   送风井
  </text>
  <text fill="rgb(0,0,0)" font-family="Noto Sans CJK SC" font-size="2" transform="rotate(-34.0,90.83365549999996,47.395337999999924)" x="90.83365549999996" y="47.395337999999924">
   进风
  </text>
  <text fill="rgb(0,0,0)" font-family="Noto Sans CJK SC" font-size="2" transform="rotate(-34.0,96.20165549999996,55.353337999999894)" x="96.20165549999996" y="55.353337999999894">
   机房
  </text>
 </g>
 <g id="layerRF-WINDOW" inkscape:groupmode="layer" inkscape:label="RF-WINDOW">
  <path d="M 75.28365549999995,18.753337999999985 L 68.64765549999996,23.221337999999946" fill="none" instance-id="2" semantic-id="3" stroke="rgb(0,178,178)" stroke-width="0.1"/>
  <path d="M 71.93265549999995,13.776337999999896 L 65.29665549999996,18.24433799999997" fill="none" instance-id="3" semantic-id="3" stroke="rgb(0,178,178)" stroke-width="0.1"/>
  <path d="M 78.90865549999995,41.41833799999995 L 78.61865549999996,41.613338" fill="none" instance-id="1" semantic-id="3" stroke="rgb(0,178,178)" stroke-width="0.1"/>
  <path d="M 74.80665549999995,35.951337999999964 L 75.09765549999995,35.756337999999914" fill="none" instance-id="1" semantic-id="3" stroke="rgb(0,178,178)" stroke-width="0.1"/>
  <path d="M 74.80665549999995,35.951337999999964 L 78.61865549999996,41.613338" fill="none" instance-id="1" semantic-id="3" stroke="rgb(0,178,178)" stroke-width="0.1"/>
  <path d="M 75.09765549999995,35.756337999999914 L 78.90865549999995,41.41833799999995" fill="none" instance-id="1" semantic-id="3" stroke="rgb(0,178,178)" stroke-width="0.1"/>
  <path d="M 68.25665549999997,22.641337999999905 L 76.23765549999996,22.089337999999998" fill="none" instance-id="2" semantic-id="3" stroke="rgb(0,178,178)" stroke-width="0.1"/>
  <path d="M 72.32365549999997,14.357337999999913 L 64.34265549999995,14.908337999999958" fill="none" instance-id="3" semantic-id="3" stroke="rgb(0,178,178)" stroke-width="0.1"/>
  <path d="M 78.90765549999995,41.416337999999996 A 6.825,6.825 0.0 0,0 80.61365549999996,32.04233799999997" fill="none" instance-id="1" semantic-id="3" stroke="rgb(0,178,178)" stroke-width="0.1"/>
 </g>
 <g id="layerWALL" inkscape:groupmode="layer" inkscape:label="WALL">
  <path d="M 89.18047726031597,0.0 L 100.0,16.070238601313008" fill="none" instance-id="-1" semantic-id="1" stroke="rgb(178,178,0)" stroke-width="0.1"/>
  <path d="M 86.7695184317416,0.0 L 99.13565549999998,18.367337999999904" fill="none" instance-id="-1" semantic-id="1" stroke="rgb(178,178,0)" stroke-width="0.1"/>
  <path d="M 72.04765549999996,39.01533799999993 L 75.36565549999995,36.781338000000005" fill="none" instance-id="-1" semantic-id="1" stroke="rgb(178,178,0)" stroke-width="0.1"/>
  <path d="M 75.36565549999995,36.781338000000005 L 74.24865549999996,35.1223379999999" fill="none" instance-id="-1" semantic-id="1" stroke="rgb(178,178,0)" stroke-width="0.1"/>
  <path d="M 74.24865549999996,35.1223379999999 L 70.93065549999997,37.35633799999994" fill="none" instance-id="-1" semantic-id="1" stroke="rgb(178,178,0)" stroke-width="0.1"/>
  <path d="M 70.93065549999997,37.35633799999994 L 72.04765549999996,39.01533799999993" fill="none" instance-id="-1" semantic-id="1" stroke="rgb(178,178,0)" stroke-width="0.1"/>
  <path d="M 99.13565549999998,18.367337999999904 L 80.05565549999997,31.213337999999908" fill="none" instance-id="-1" semantic-id="1" stroke="rgb(178,178,0)" stroke-width="0.1"/>
  <path d="M 80.05565549999997,31.213337999999908 L 81.17265549999996,32.8723379999999" fill="none" instance-id="-1" semantic-id="1" stroke="rgb(178,178,0)" stroke-width="0.1"/>
  <path d="M 81.17265549999996,32.8723379999999 L 100.0,20.19644347971689" fill="none" instance-id="-1" semantic-id="1" stroke="rgb(178,178,0)" stroke-width="0.1"/>
 </g>
 <g id="layerX-审查意见修改" inkscape:groupmode="layer" inkscape:label="X-审查意见修改">
  <path d="M 94.52439990252014,0.0 L 100.0,6.200572140342956" fill="none" stroke="rgb(0,0,0)" stroke-width="0.1"/>
 </g>
 <g id="layer建-门窗-编号" inkscape:groupmode="layer" inkscape:label="建-门窗-编号">
  <text fill="rgb(0,0,0)" font-family="Noto Sans CJK SC" font-size="2" transform="rotate(-33.9506,73.21165549999995,33.544337999999925)" x="73.21165549999995" y="33.544337999999925">
   FM
  </text>
  <text fill="rgb(0,0,0)" font-family="Noto Sans CJK SC" font-size="2" transform="rotate(-33.9506,78.43765549999995,30.02533799999992)" x="78.43765549999995" y="30.02533799999992">
   甲
  </text>
  <text fill="rgb(0,0,0)" font-family="Noto Sans CJK SC" font-size="2" transform="rotate(-33.9506,81.49565549999997,27.967337999999927)" x="81.49565549999997" y="27.967337999999927">
   0716
  </text>
  <text fill="rgb(0,0,0)" font-family="Noto Sans CJK SC" font-size="2" transform="rotate(-33.9506,46.06265549999995,48.24033799999995)" x="46.06265549999995" y="48.24033799999995">
   HM0820
  </text>
  <text fill="rgb(0,0,0)" font-family="Noto Sans CJK SC" font-size="2" transform="rotate(-33.9506,33.15065549999997,34.73233799999991)" x="33.15065549999997" y="34.73233799999991">
   HFM8020(6)
  </text>
 </g>
</svg>