<?xml version="1.0" encoding="utf-8"?>
<svg style="background-color: #000;" version="1.1" viewBox="0 0 100.0 100.0" xmlns="http://www.w3.org/2000/svg" xmlns:inkscape="http://www.inkscape.org/namespaces/inkscape">
 <g id="layer!消防-疏散楼梯" inkscape:groupmode="layer" inkscape:label="!消防-疏散楼梯">
  <path d="M 44.83486150583781,100.0 L 31.85265549999997,80.71733799999993" fill="none" stroke="rgb(53,107,0)" stroke-width="0.1"/>
  <path d="M 31.85265549999997,80.71733799999993 L 55.909655499999985,64.51733799999988" fill="none" stroke="rgb(53,107,0)" stroke-width="0.1"/>
  <path d="M 55.909655499999985,64.51733799999988 L 79.79813303735881,100.0" fill="none" stroke="rgb(53,107,0)" stroke-width="0.1"/>
  <path d="M 44.83486150583781,100.0 L 31.85265549999997,80.71733799999993" fill="none" stroke="rgb(53,107,0)" stroke-width="0.1"/>
  <path d="M 31.85265549999997,80.71733799999993 L 55.909655499999985,64.51733799999988" fill="none" stroke="rgb(53,107,0)" stroke-width="0.1"/>
  <path d="M 55.909655499999985,64.51733799999988 L 79.79813303735881,100.0" fill="none" stroke="rgb(53,107,0)" stroke-width="0.1"/>
 </g>
 <g id="layer0-结构边线" inkscape:groupmode="layer" inkscape:label="0-结构边线">
  <path d="M 73.00565549999993,12.017337999999882 L 79.64165549999996,7.547337999999854" fill="none" stroke="rgb(178,0,178)" stroke-width="0.1"/>
  <path d="M 79.64165549999996,7.547337999999854 L 75.17365549999994,0.9173379999997451" fill="none" stroke="rgb(178,0,178)" stroke-width="0.1"/>
  <path d="M 68.53765549999997,5.3773379999997815 L 75.17365549999994,0.9173379999997451" fill="none" stroke="rgb(178,0,178)" stroke-width="0.1"/>
  <path d="M 73.00565549999993,12.017337999999882 L 68.53765549999997,5.3773379999997815" fill="none" stroke="rgb(178,0,178)" stroke-width="0.1"/>
  <path d="M 8.717655499999978,55.297337999999854 L 15.353655499999945,50.83733799999982" fill="none" stroke="rgb(178,0,178)" stroke-width="0.1"/>
  <path d="M 15.353655499999945,50.83733799999982 L 10.88665549999996,44.197337999999945" fill="none" stroke="rgb(178,0,178)" stroke-width="0.1"/>
  <path d="M 4.24965549999996,48.667337999999745 L 10.88665549999996,44.197337999999945" fill="none" stroke="rgb(178,0,178)" stroke-width="0.1"/>
  <path d="M 8.717655499999978,55.297337999999854 L 4.24965549999996,48.667337999999745" fill="none" stroke="rgb(178,0,178)" stroke-width="0.1"/>
  <path d="M 91.99365549999993,40.21733799999993 L 98.62965549999996,35.75733799999989" fill="none" stroke="rgb(178,0,178)" stroke-width="0.1"/>
  <path d="M 98.62965549999996,35.75733799999989 L 94.16265549999997,29.11733799999979" fill="none" stroke="rgb(178,0,178)" stroke-width="0.1"/>
  <path d="M 87.52565549999997,33.58733799999982 L 94.16265549999997,29.11733799999979" fill="none" stroke="rgb(178,0,178)" stroke-width="0.1"/>
  <path d="M 91.99365549999993,40.21733799999993 L 87.52565549999997,33.58733799999982" fill="none" stroke="rgb(178,0,178)" stroke-width="0.1"/>
  <path d="M 27.706655499999954,83.50733799999989 L 34.34265549999998,79.03733799999986" fill="none" stroke="rgb(178,0,178)" stroke-width="0.1"/>
  <path d="M 34.34265549999998,79.03733799999986 L 29.87465549999996,72.39733799999976" fill="none" stroke="rgb(178,0,178)" stroke-width="0.1"/>
  <path d="M 23.238655499999936,76.86733799999979 L 29.87465549999996,72.39733799999976" fill="none" stroke="rgb(178,0,178)" stroke-width="0.1"/>
  <path d="M 27.706655499999954,83.50733799999989 L 23.238655499999936,76.86733799999979" fill="none" stroke="rgb(178,0,178)" stroke-width="0.1"/>
  <path d="M 89.65265549999998,74.34733799999981 L 93.80065549999995,71.55733799999985" fill="none" stroke="rgb(178,0,178)" stroke-width="0.1"/>
  <path d="M 93.80065549999995,71.55733799999985 L 91.56665549999997,68.23733799999991" fill="none" stroke="rgb(178,0,178)" stroke-width="0.1"/>
  <path d="M 87.41865549999994,71.02733799999987 L 91.56665549999997,68.23733799999991" fill="none" stroke="rgb(178,0,178)" stroke-width="0.1"/>
  <path d="M 89.65265549999998,74.34733799999981 L 87.41865549999994,71.02733799999987" fill="none" stroke="rgb(178,0,178)" stroke-width="0.1"/>
 </g>
 <g id="layerA-留洞" inkscape:groupmode="layer" inkscape:label="A-留洞">
  <path d="M 12.035655499999962,53.067337999999836 L 8.716655499999945,55.297337999999854" fill="none" stroke="rgb(0,178,178)" stroke-width="0.1"/>
  <path d="M 8.716655499999945,55.297337999999854 L 12.62665549999997,61.1073379999998" fill="none" stroke="rgb(0,178,178)" stroke-width="0.1"/>
  <path d="M 12.62665549999997,61.1073379999998 L 12.035655499999962,53.067337999999836" fill="none" stroke="rgb(0,178,178)" stroke-width="0.1"/>
  <path d="M 12.035655499999962,53.067337999999836 L 15.944655499999953,58.87733799999978" fill="none" stroke="rgb(0,178,178)" stroke-width="0.1"/>
  <path d="M 15.944655499999953,58.87733799999978 L 8.716655499999945,55.297337999999854" fill="none" stroke="rgb(0,178,178)" stroke-width="0.1"/>
  <path d="M 8.716655499999945,55.297337999999854 L 12.62665549999997,61.1073379999998" fill="none" stroke="rgb(0,178,178)" stroke-width="0.1"/>
  <path d="M 12.62665549999997,61.1073379999998 L 15.935655499999939,58.8573379999998" fill="none" stroke="rgb(0,178,178)" stroke-width="0.1"/>
 </g>
 <g id="layerA-车位" inkscape:groupmode="layer" inkscape:label="A-车位">
  <path d="M 25.13433031336683,0.0 L 26.782655499999976,2.447337999999945" fill="none" instance-id="-1" semantic-id="35" stroke="rgb(0,0,178)" stroke-width="0.1"/>
  <path d="M 27.06265549999995,2.8673379999997906 L 31.321954127583695,0.0" fill="none" instance-id="-1" semantic-id="35" stroke="rgb(0,0,178)" stroke-width="0.1"/>
  <path d="M 29.53009133581503,0.0 L 26.50365549999998,2.0373379999998633" fill="none" instance-id="-1" semantic-id="35" stroke="rgb(0,0,178)" stroke-width="0.1"/>
  <path d="M 26.782655499999976,2.447337999999945 L 40.46565549999997,22.777337999999872" fill="none" instance-id="-1" semantic-id="35" stroke="rgb(0,0,178)" stroke-width="0.1"/>
  <path d="M 39.907655499999976,21.947337999999945 L 72.49917670967312,0.0" fill="none" instance-id="-1" semantic-id="35" stroke="rgb(0,0,178)" stroke-width="0.1"/>
  <path d="M 47.50065549999994,14.427337999999736 L 44.70765549999999,10.277337999999872" fill="none" instance-id="-1" semantic-id="35" stroke="rgb(0,0,178)" stroke-width="0.1"/>
  <path d="M 39.68165549999998,2.807337999999845 L 37.79228320265071,0.0" fill="none" instance-id="-1" semantic-id="35" stroke="rgb(0,0,178)" stroke-width="0.1"/>
  <path d="M 47.91465549999998,14.147337999999763 L 45.12265549999995,9.9973379999999" fill="none" instance-id="-1" semantic-id="35" stroke="rgb(0,0,178)" stroke-width="0.1"/>
  <path d="M 40.09665549999994,2.5273379999998724 L 38.39161805217395,0.0" fill="none" instance-id="-1" semantic-id="35" stroke="rgb(0,0,178)" stroke-width="0.1"/>
  <path d="M 46.67065549999995,14.977337999999918 L 43.87865549999998,10.837337999999818" fill="none" instance-id="-1" semantic-id="35" stroke="rgb(0,0,178)" stroke-width="0.1"/>
  <path d="M 38.851655499999936,3.3673379999997906 L 36.58620786240965,0.0" fill="none" instance-id="-1" semantic-id="35" stroke="rgb(0,0,178)" stroke-width="0.1"/>
  <path d="M 46.67065549999995,14.977337999999918 L 47.91465549999998,14.147337999999763" fill="none" instance-id="-1" semantic-id="35" stroke="rgb(0,0,178)" stroke-width="0.1"/>
  <path d="M 45.12265549999995,9.9973379999999 L 43.87865549999998,10.837337999999818" fill="none" instance-id="-1" semantic-id="35" stroke="rgb(0,0,178)" stroke-width="0.1"/>
  <path d="M 40.09665549999994,2.5273379999998724 L 38.851655499999936,3.3673379999997906" fill="none" instance-id="-1" semantic-id="35" stroke="rgb(0,0,178)" stroke-width="0.1"/>
  <path d="M 40.46565549999997,22.777337999999872 L 74.2904316511931,0.0" fill="none" instance-id="-1" semantic-id="35" stroke="rgb(0,0,178)" stroke-width="0.1"/>
  <path d="M 92.65267873756738,0.0 L 49.093655499999954,29.327337999999827" fill="none" instance-id="-1" semantic-id="35" stroke="rgb(0,0,178)" stroke-width="0.1"/>
  <path d="M 49.093655499999954,29.327337999999827 L 62.496655499999974,49.22733799999992" fill="none" instance-id="-1" semantic-id="35" stroke="rgb(0,0,178)" stroke-width="0.1"/>
  <path d="M 62.496655499999974,49.22733799999992 L 100.0,23.977730421243905" fill="none" instance-id="-1" semantic-id="35" stroke="rgb(0,0,178)" stroke-width="0.1"/>
  <path d="M 69.81065549999994,41.297337999999854 L 67.01865549999997,37.14733799999976" fill="none" instance-id="-1" semantic-id="35" stroke="rgb(0,0,178)" stroke-width="0.1"/>
  <path d="M 61.99165549999998,29.677337999999736 L 59.19965549999995,25.537337999999863" fill="none" instance-id="-1" semantic-id="35" stroke="rgb(0,0,178)" stroke-width="0.1"/>
  <path d="M 70.22565549999996,41.01733799999988 L 67.43265549999995,36.86733799999979" fill="none" instance-id="-1" semantic-id="35" stroke="rgb(0,0,178)" stroke-width="0.1"/>
  <path d="M 62.40665549999994,29.397337999999763 L 59.61465549999997,25.25733799999989" fill="none" instance-id="-1" semantic-id="35" stroke="rgb(0,0,178)" stroke-width="0.1"/>
  <path d="M 68.98065549999995,41.84733799999981 L 66.18865549999998,37.707337999999936" fill="none" instance-id="-1" semantic-id="35" stroke="rgb(0,0,178)" stroke-width="0.1"/>
  <path d="M 61.16265549999997,30.23733799999991 L 58.369655499999965,26.087337999999818" fill="none" instance-id="-1" semantic-id="35" stroke="rgb(0,0,178)" stroke-width="0.1"/>
  <path d="M 68.98065549999995,41.84733799999981 L 70.22565549999996,41.01733799999988" fill="none" instance-id="-1" semantic-id="35" stroke="rgb(0,0,178)" stroke-width="0.1"/>
  <path d="M 58.369655499999965,26.087337999999818 L 59.61465549999997,25.25733799999989" fill="none" instance-id="-1" semantic-id="35" stroke="rgb(0,0,178)" stroke-width="0.1"/>
  <path d="M 67.43265549999995,36.86733799999979 L 66.18865549999998,37.707337999999936" fill="none" instance-id="-1" semantic-id="35" stroke="rgb(0,0,178)" stroke-width="0.1"/>
  <path d="M 62.40665549999994,29.397337999999763 L 61.16265549999997,30.23733799999991" fill="none" instance-id="-1" semantic-id="35" stroke="rgb(0,0,178)" stroke-width="0.1"/>
  <path d="M 40.45765549999999,20.967337999999927 L 38.79865549999994,22.087337999999818" fill="none" instance-id="-1" semantic-id="35" stroke="rgb(0,0,178)" stroke-width="0.1"/>
  <path d="M 38.79865549999994,22.087337999999818 L 39.91565549999996,23.7473379999999" fill="none" instance-id="-1" semantic-id="35" stroke="rgb(0,0,178)" stroke-width="0.1"/>
  <path d="M 39.91565549999996,23.7473379999999 L 41.57465549999995,22.62733799999978" fill="none" instance-id="-1" semantic-id="35" stroke="rgb(0,0,178)" stroke-width="0.1"/>
  <path d="M 41.57465549999995,22.62733799999978 L 40.45765549999999,20.967337999999927" fill="none" instance-id="-1" semantic-id="35" stroke="rgb(0,0,178)" stroke-width="0.1"/>
  <path d="M 27.053655499999934,1.067337999999836 L 25.394655499999942,2.177337999999736" fill="none" instance-id="-1" semantic-id="35" stroke="rgb(0,0,178)" stroke-width="0.1"/>
  <path d="M 25.394655499999942,2.177337999999736 L 26.51165549999996,3.837337999999818" fill="none" instance-id="-1" semantic-id="35" stroke="rgb(0,0,178)" stroke-width="0.1"/>
  <path d="M 26.51165549999996,3.837337999999818 L 28.170655499999953,2.727337999999918" fill="none" instance-id="-1" semantic-id="35" stroke="rgb(0,0,178)" stroke-width="0.1"/>
  <path d="M 28.170655499999953,2.727337999999918 L 27.053655499999934,1.067337999999836" fill="none" instance-id="-1" semantic-id="35" stroke="rgb(0,0,178)" stroke-width="0.1"/>
 </g>
 <g id="layerA-车位-text" inkscape:groupmode="layer" inkscape:label="A-车位-text">
  <text fill="rgb(178,88,0)" font-family="Noto Sans CJK SC" font-size="2" transform="rotate(-0.0,67.79365549999994,25.297337999999854)" x="67.79365549999994" y="25.297337999999854">
   A-135
  </text>
 </g>
 <g id="layerCOLUMN" inkscape:groupmode="layer" inkscape:label="COLUMN">
  <path d="M 100.0,86.13697984568557 L 91.31165549999997,73.22733799999992" fill="none" instance-id="-1" semantic-id="1" stroke="rgb(178,178,0)" stroke-width="0.1"/>
  <path d="M 100.0,80.76137690175824 L 93.80065549999995,71.55733799999985" fill="none" instance-id="-1" semantic-id="1" stroke="rgb(178,178,0)" stroke-width="0.1"/>
  <path d="M 96.14165549999996,37.427337999999736 L 98.93365549999999,41.57733799999983" fill="none" instance-id="-1" semantic-id="1" stroke="rgb(178,178,0)" stroke-width="0.1"/>
  <path d="M 98.93365549999999,41.57733799999983 L 100.0,40.85758759421424" fill="none" instance-id="-1" semantic-id="1" stroke="rgb(178,178,0)" stroke-width="0.1"/>
  <path d="M 100.0,37.78856830075188 L 98.62965549999996,35.75733799999989" fill="none" instance-id="-1" semantic-id="1" stroke="rgb(178,178,0)" stroke-width="0.1"/>
  <path d="M 75.80165549999998,47.50733799999989 L 90.31865549999998,37.73733799999991" fill="none" instance-id="-1" semantic-id="1" stroke="rgb(178,178,0)" stroke-width="0.1"/>
  <path d="M 78.72165549999994,49.157337999999754 L 91.99365549999993,40.21733799999993" fill="none" instance-id="-1" semantic-id="1" stroke="rgb(178,178,0)" stroke-width="0.1"/>
  <path d="M 6.482655499999964,51.98733799999991 L 0.0,56.351993376982136" fill="none" instance-id="-1" semantic-id="1" stroke="rgb(178,178,0)" stroke-width="0.1"/>
  <path d="M 4.248655499999984,48.667337999999745 L 0.0,51.526691286646155" fill="none" instance-id="-1" semantic-id="1" stroke="rgb(178,178,0)" stroke-width="0.1"/>
  <path d="M 18.317132998184434,100.0 L 0.0,72.79191263304483" fill="none" instance-id="-1" semantic-id="1" stroke="rgb(178,178,0)" stroke-width="0.1"/>
  <path d="M 23.136792209347732,100.0 L 0.0,65.63468401750015" fill="none" instance-id="-1" semantic-id="1" stroke="rgb(178,178,0)" stroke-width="0.1"/>
  <path d="M 32.66665549999993,76.54733799999985 L 55.06365549999998,61.46733799999993" fill="none" instance-id="-1" semantic-id="1" stroke="rgb(178,178,0)" stroke-width="0.1"/>
  <path d="M 34.34265549999998,79.03733799999986 L 56.738655499999936,63.957337999999936" fill="none" instance-id="-1" semantic-id="1" stroke="rgb(178,178,0)" stroke-width="0.1"/>
  <path d="M 56.72265549999997,60.34733799999981 L 75.80165549999998,47.50733799999989" fill="none" instance-id="-1" semantic-id="1" stroke="rgb(178,178,0)" stroke-width="0.1"/>
  <path d="M 58.39865549999996,62.83733799999982 L 76.23265549999996,50.83733799999982" fill="none" instance-id="-1" semantic-id="1" stroke="rgb(178,178,0)" stroke-width="0.1"/>
  <path d="M 31.85265549999997,80.71733799999993 L 44.83665801250629,100.0" fill="none" instance-id="-1" semantic-id="1" stroke="rgb(178,178,0)" stroke-width="0.1"/>
  <path d="M 25.47165549999994,80.18733799999973 L 38.80982784954722,100.0" fill="none" instance-id="-1" semantic-id="1" stroke="rgb(178,178,0)" stroke-width="0.1"/>
  <path d="M 12.034655499999985,53.067337999999836 L 12.036655499999938,53.067337999999836" fill="none" stroke="rgb(178,178,0)" stroke-width="0.1"/>
  <path d="M 6.482655499999964,51.98733799999991 L 8.717655499999978,55.307337999999845" fill="none" instance-id="-1" semantic-id="1" stroke="rgb(178,178,0)" stroke-width="0.1"/>
  <path d="M 12.036655499999938,53.067337999999836 L 8.717655499999978,55.307337999999845" fill="none" instance-id="-1" semantic-id="1" stroke="rgb(178,178,0)" stroke-width="0.1"/>
  <path d="M 0.0,35.18895418320585 L 7.566655499999968,46.427337999999736" fill="none" instance-id="-1" semantic-id="1" stroke="rgb(178,178,0)" stroke-width="0.1"/>
  <path d="M 0.0,42.356832181028494 L 4.248655499999984,48.667337999999745" fill="none" instance-id="-1" semantic-id="1" stroke="rgb(178,178,0)" stroke-width="0.1"/>
  <path d="M 55.06365549999998,61.46733799999993 L 56.72265549999997,60.34733799999981" fill="none" instance-id="-1" semantic-id="1" stroke="rgb(178,178,0)" stroke-width="0.1"/>
  <path d="M 56.738655499999936,63.957337999999936 L 58.39865549999996,62.83733799999982" fill="none" instance-id="-1" semantic-id="1" stroke="rgb(178,178,0)" stroke-width="0.1"/>
  <path d="M 15.935655499999939,58.8573379999998 L 26.555655499999943,74.63733799999977" fill="none" instance-id="-1" semantic-id="1" stroke="rgb(178,178,0)" stroke-width="0.1"/>
  <path d="M 12.617655499999955,61.09733799999981 L 25.47165549999994,80.18733799999973" fill="none" instance-id="-1" semantic-id="1" stroke="rgb(178,178,0)" stroke-width="0.1"/>
  <path d="M 15.935655499999939,58.8573379999998 L 12.617655499999955,61.09733799999981" fill="none" instance-id="-1" semantic-id="1" stroke="rgb(178,178,0)" stroke-width="0.1"/>
  <path d="M 89.07765549999993,69.90733799999975 L 87.40265549999998,67.42733799999974" fill="none" instance-id="-1" semantic-id="1" stroke="rgb(178,178,0)" stroke-width="0.1"/>
  <path d="M 91.56665549999997,68.23733799999991 L 89.89165549999996,65.7473379999999" fill="none" instance-id="-1" semantic-id="1" stroke="rgb(178,178,0)" stroke-width="0.1"/>
  <path d="M 87.40265549999998,67.42733799999974 L 89.89165549999996,65.7473379999999" fill="none" instance-id="-1" semantic-id="1" stroke="rgb(178,178,0)" stroke-width="0.1"/>
  <path d="M 79.02565549999997,54.97733799999992 L 76.23265549999996,50.83733799999982" fill="none" instance-id="-1" semantic-id="1" stroke="rgb(178,178,0)" stroke-width="0.1"/>
  <path d="M 81.51365549999997,53.307337999999845 L 78.72165549999994,49.157337999999754" fill="none" instance-id="-1" semantic-id="1" stroke="rgb(178,178,0)" stroke-width="0.1"/>
  <path d="M 79.02565549999997,54.97733799999992 L 81.51365549999997,53.307337999999845" fill="none" instance-id="-1" semantic-id="1" stroke="rgb(178,178,0)" stroke-width="0.1"/>
  <path d="M 89.65265549999998,74.34733799999981 L 93.80065549999995,71.55733799999985" fill="none" instance-id="-1" semantic-id="1" stroke="rgb(178,178,0)" stroke-width="0.1"/>
  <path d="M 93.80065549999995,71.55733799999985 L 91.56665549999997,68.23733799999991" fill="none" instance-id="-1" semantic-id="1" stroke="rgb(178,178,0)" stroke-width="0.1"/>
  <path d="M 91.56665549999997,68.23733799999991 L 87.41865549999994,71.02733799999987" fill="none" instance-id="-1" semantic-id="1" stroke="rgb(178,178,0)" stroke-width="0.1"/>
  <path d="M 87.41865549999994,71.02733799999987 L 89.65265549999998,74.34733799999981" fill="none" instance-id="-1" semantic-id="1" stroke="rgb(178,178,0)" stroke-width="0.1"/>
  <path d="M 73.00565549999993,12.017337999999882 L 79.64165549999996,7.547337999999854" fill="none" instance-id="-1" semantic-id="1" stroke="rgb(178,178,0)" stroke-width="0.1"/>
  <path d="M 79.64165549999996,7.547337999999854 L 75.17365549999994,0.9173379999997451" fill="none" instance-id="-1" semantic-id="1" stroke="rgb(178,178,0)" stroke-width="0.1"/>
  <path d="M 75.17365549999994,0.9173379999997451 L 68.53765549999997,5.3773379999997815" fill="none" instance-id="-1" semantic-id="1" stroke="rgb(178,178,0)" stroke-width="0.1"/>
  <path d="M 68.53765549999997,5.3773379999997815 L 73.00565549999993,12.017337999999882" fill="none" instance-id="-1" semantic-id="1" stroke="rgb(178,178,0)" stroke-width="0.1"/>
  <path d="M 8.717655499999978,55.297337999999854 L 15.353655499999945,50.83733799999982" fill="none" instance-id="-1" semantic-id="1" stroke="rgb(178,178,0)" stroke-width="0.1"/>
  <path d="M 15.353655499999945,50.83733799999982 L 10.88665549999996,44.197337999999945" fill="none" instance-id="-1" semantic-id="1" stroke="rgb(178,178,0)" stroke-width="0.1"/>
  <path d="M 10.88665549999996,44.197337999999945 L 4.24965549999996,48.667337999999745" fill="none" instance-id="-1" semantic-id="1" stroke="rgb(178,178,0)" stroke-width="0.1"/>
  <path d="M 4.24965549999996,48.667337999999745 L 8.717655499999978,55.297337999999854" fill="none" instance-id="-1" semantic-id="1" stroke="rgb(178,178,0)" stroke-width="0.1"/>
  <path d="M 91.99365549999993,40.21733799999993 L 98.62965549999996,35.75733799999989" fill="none" instance-id="-1" semantic-id="1" stroke="rgb(178,178,0)" stroke-width="0.1"/>
  <path d="M 98.62965549999996,35.75733799999989 L 94.16265549999997,29.11733799999979" fill="none" instance-id="-1" semantic-id="1" stroke="rgb(178,178,0)" stroke-width="0.1"/>
  <path d="M 94.16265549999997,29.11733799999979 L 87.52565549999997,33.58733799999982" fill="none" instance-id="-1" semantic-id="1" stroke="rgb(178,178,0)" stroke-width="0.1"/>
  <path d="M 87.52565549999997,33.58733799999982 L 91.99365549999993,40.21733799999993" fill="none" instance-id="-1" semantic-id="1" stroke="rgb(178,178,0)" stroke-width="0.1"/>
  <path d="M 27.706655499999954,83.50733799999989 L 34.34265549999998,79.03733799999986" fill="none" instance-id="-1" semantic-id="1" stroke="rgb(178,178,0)" stroke-width="0.1"/>
  <path d="M 34.34265549999998,79.03733799999986 L 29.87465549999996,72.39733799999976" fill="none" instance-id="-1" semantic-id="1" stroke="rgb(178,178,0)" stroke-width="0.1"/>
  <path d="M 29.87465549999996,72.39733799999976 L 23.238655499999936,76.86733799999979" fill="none" instance-id="-1" semantic-id="1" stroke="rgb(178,178,0)" stroke-width="0.1"/>
  <path d="M 23.238655499999936,76.86733799999979 L 27.706655499999954,83.50733799999989" fill="none" instance-id="-1" semantic-id="1" stroke="rgb(178,178,0)" stroke-width="0.1"/>
 </g>
 <g id="layerDIM_IDEN" inkscape:groupmode="layer" inkscape:label="DIM_IDEN">
  <path d="M 58.17465549999997,48.39733799999976 L 51.48565549999995,1.177337999999736" fill="none" stroke="rgb(0,178,0)" stroke-width="0.1"/>
  <path d="M 51.48565549999995,1.177337999999736 L 53.23443422185727,0.0" fill="none" stroke="rgb(0,178,0)" stroke-width="0.1"/>
  <path d="M 57.31465549999996,87.90733799999975 L 39.35433727411839,100.0" fill="none" stroke="rgb(0,178,0)" stroke-width="0.1"/>
  <path d="M 58.37565549999994,48.61733799999979 A 0.30170515408260357,0.30170515408260357 0.0 1,0 57.97365549999995,48.167337999999745" fill="none" stroke="rgb(0,178,0)" stroke-width="0.1"/>
  <path d="M 57.97365549999995,48.167337999999745 A 0.30170515408260357,0.30170515408260357 0.0 1,0 58.37565549999994,48.61733799999979" fill="none" stroke="rgb(0,178,0)" stroke-width="0.1"/>
 </g>
 <g id="layerDIM_SYMB" inkscape:groupmode="layer" inkscape:label="DIM_SYMB">
  <path d="M 46.315655499999934,89.65733799999975 L 50.33665549999995,95.63733799999977" fill="none" stroke="rgb(0,178,0)" stroke-width="0.1"/>
  <path d="M 50.33665549999995,95.63733799999977 L 52.84965549999998,99.36733799999979" fill="none" stroke="rgb(0,178,0)" stroke-width="0.1"/>
 </g>
 <g id="layerDOOR_FIRE" inkscape:groupmode="layer" inkscape:label="DOOR_FIRE">
  <path d="M 57.855655499999955,65.61733799999979 L 51.78965549999998,69.69733799999995" fill="none" instance-id="1" semantic-id="4" stroke="rgb(0,178,178)" stroke-width="0.1"/>
  <path d="M 58.06465549999996,65.92733799999974 L 51.99965549999996,70.00733799999989" fill="none" instance-id="1" semantic-id="4" stroke="rgb(0,178,178)" stroke-width="0.1"/>
  <path d="M 57.855655499999955,65.61733799999979 L 58.06465549999996,65.92733799999974" fill="none" instance-id="1" semantic-id="4" stroke="rgb(0,178,178)" stroke-width="0.1"/>
  <path d="M 51.99965549999996,70.00733799999989 L 51.78965549999998,69.69733799999995" fill="none" instance-id="1" semantic-id="4" stroke="rgb(0,178,178)" stroke-width="0.1"/>
  <path d="M 66.02365549999996,77.7473379999999 L 59.95765549999999,81.83733799999982" fill="none" instance-id="1" semantic-id="4" stroke="rgb(0,178,178)" stroke-width="0.1"/>
  <path d="M 66.23265549999996,78.05733799999985 L 60.16665549999993,82.14733799999976" fill="none" instance-id="1" semantic-id="4" stroke="rgb(0,178,178)" stroke-width="0.1"/>
  <path d="M 59.95765549999999,81.83733799999982 L 60.16665549999993,82.14733799999976" fill="none" instance-id="1" semantic-id="4" stroke="rgb(0,178,178)" stroke-width="0.1"/>
  <path d="M 66.23265549999996,78.05733799999985 L 66.02365549999996,77.7473379999999" fill="none" instance-id="1" semantic-id="4" stroke="rgb(0,178,178)" stroke-width="0.1"/>
  <path d="M 52.00165549999997,70.00733799999989 A 7.3125,7.3125 0.0 0,0 62.044655499999976,71.83733799999982" fill="none" instance-id="1" semantic-id="4" stroke="rgb(0,178,178)" stroke-width="0.1"/>
  <path d="M 62.044655499999976,71.83733799999982 A 7.3125,7.3125 0.0 0,0 59.95965549999994,81.82733799999983" fill="none" instance-id="1" semantic-id="4" stroke="rgb(0,178,178)" stroke-width="0.1"/>
 </g>
 <g id="layerDOOR_FIRE_TEXT" inkscape:groupmode="layer" inkscape:label="DOOR_FIRE_TEXT">
  <text fill="rgb(0,0,0)" font-family="Noto Sans CJK SC" font-size="2" transform="rotate(-123.951,58.16065549999996,82.94733799999995)" x="58.16065549999996" y="82.94733799999995">
   FM
  </text>
  <text fill="rgb(0,0,0)" font-family="Noto Sans CJK SC" font-size="2" transform="rotate(-123.951,56.10265549999997,79.88733799999977)" x="56.10265549999997" y="79.88733799999977">
   乙
  </text>
  <text fill="rgb(0,0,0)" font-family="Noto Sans CJK SC" font-size="2" transform="rotate(-123.951,54.202655499999935,77.06733799999984)" x="54.202655499999935" y="77.06733799999984">
   1523
  </text>
  <text fill="rgb(0,0,0)" font-family="Noto Sans CJK SC" font-size="2" transform="rotate(-33.9506,72.95165549999996,79.84733799999981)" x="72.95165549999996" y="79.84733799999981">
   FM
  </text>
  <text fill="rgb(0,0,0)" font-family="Noto Sans CJK SC" font-size="2" transform="rotate(-33.9506,76.00765549999994,77.78733799999986)" x="76.00765549999994" y="77.78733799999986">
   乙
  </text>
  <text fill="rgb(0,0,0)" font-family="Noto Sans CJK SC" font-size="2" transform="rotate(-33.9506,78.82865549999997,75.88733799999977)" x="78.82865549999997" y="75.88733799999977">
   1820
  </text>
 </g>
 <g id="layerEVTR" inkscape:groupmode="layer" inkscape:label="EVTR">
  <path d="M 96.55688618215822,100.0 L 100.0,97.6691662218741" fill="none" stroke="rgb(178,88,0)" stroke-width="0.1"/>
 </g>
 <g id="layerPUB_HATCH" inkscape:groupmode="layer" inkscape:label="PUB_HATCH">
  <path d="M 91.31165549999997,73.22733799999992 L 100.0,86.13697984568557" fill="none" instance-id="-1" semantic-id="1" stroke="rgb(63,63,63)" stroke-width="0.1"/>
  <path d="M 100.0,80.76137690175824 L 93.80065549999995,71.55733799999985" fill="none" instance-id="-1" semantic-id="1" stroke="rgb(63,63,63)" stroke-width="0.1"/>
  <path d="M 93.80065549999995,71.55733799999985 L 91.31165549999997,73.22733799999992" fill="none" instance-id="-1" semantic-id="1" stroke="rgb(63,63,63)" stroke-width="0.1"/>
  <path d="M 96.14165549999996,37.427337999999736 L 98.93365549999999,41.57733799999983" fill="none" instance-id="-1" semantic-id="1" stroke="rgb(63,63,63)" stroke-width="0.1"/>
  <path d="M 98.93365549999999,41.57733799999983 L 100.0,40.85758759421424" fill="none" instance-id="-1" semantic-id="1" stroke="rgb(63,63,63)" stroke-width="0.1"/>
  <path d="M 100.0,37.78856830075188 L 98.62965549999996,35.75733799999989" fill="none" instance-id="-1" semantic-id="1" stroke="rgb(63,63,63)" stroke-width="0.1"/>
  <path d="M 98.62965549999996,35.75733799999989 L 96.14165549999996,37.427337999999736" fill="none" instance-id="-1" semantic-id="1" stroke="rgb(63,63,63)" stroke-width="0.1"/>
  <path d="M 90.31865549999998,37.73733799999991 L 75.80165549999998,47.50733799999989" fill="none" instance-id="-1" semantic-id="1" stroke="rgb(63,63,63)" stroke-width="0.1"/>
  <path d="M 75.80165549999998,47.50733799999989 L 76.91865549999994,49.167337999999745" fill="none" instance-id="-1" semantic-id="1" stroke="rgb(63,63,63)" stroke-width="0.1"/>
  <path d="M 76.91865549999994,49.167337999999745 L 78.72165549999994,49.157337999999754" fill="none" instance-id="-1" semantic-id="1" stroke="rgb(63,63,63)" stroke-width="0.1"/>
  <path d="M 78.72165549999994,49.157337999999754 L 91.99365549999993,40.21733799999993" fill="none" instance-id="-1" semantic-id="1" stroke="rgb(63,63,63)" stroke-width="0.1"/>
  <path d="M 91.99365549999993,40.21733799999993 L 90.31865549999998,37.73733799999991" fill="none" instance-id="-1" semantic-id="1" stroke="rgb(63,63,63)" stroke-width="0.1"/>
  <path d="M 4.248655499999984,48.667337999999745 L 0.0,51.526691286646155" fill="none" instance-id="-1" semantic-id="1" stroke="rgb(63,63,63)" stroke-width="0.1"/>
  <path d="M 0.0,56.351993376982136 L 6.482655499999964,51.98733799999991" fill="none" instance-id="-1" semantic-id="1" stroke="rgb(63,63,63)" stroke-width="0.1"/>
  <path d="M 6.482655499999964,51.98733799999991 L 4.248655499999984,48.667337999999745" fill="none" instance-id="-1" semantic-id="1" stroke="rgb(63,63,63)" stroke-width="0.1"/>
  <path d="M 23.136792209347732,100.0 L 0.0,65.63468401750015" fill="none" instance-id="-1" semantic-id="1" stroke="rgb(63,63,63)" stroke-width="0.1"/>
  <path d="M 0.0,72.79191263304483 L 18.317132998184434,100.0" fill="none" instance-id="-1" semantic-id="1" stroke="rgb(63,63,63)" stroke-width="0.1"/>
  <path d="M 32.66665549999993,76.54733799999985 L 34.34265549999998,79.03733799999986" fill="none" instance-id="-1" semantic-id="1" stroke="rgb(63,63,63)" stroke-width="0.1"/>
  <path d="M 34.34265549999998,79.03733799999986 L 56.738655499999936,63.957337999999936" fill="none" instance-id="-1" semantic-id="1" stroke="rgb(63,63,63)" stroke-width="0.1"/>
  <path d="M 56.738655499999936,63.957337999999936 L 55.06365549999998,61.46733799999993" fill="none" instance-id="-1" semantic-id="1" stroke="rgb(63,63,63)" stroke-width="0.1"/>
  <path d="M 55.06365549999998,61.46733799999993 L 32.66665549999993,76.54733799999985" fill="none" instance-id="-1" semantic-id="1" stroke="rgb(63,63,63)" stroke-width="0.1"/>
  <path d="M 56.72265549999997,60.34733799999981 L 58.39865549999996,62.83733799999982" fill="none" instance-id="-1" semantic-id="1" stroke="rgb(63,63,63)" stroke-width="0.1"/>
  <path d="M 58.39865549999996,62.83733799999982 L 76.23265549999996,50.83733799999982" fill="none" instance-id="-1" semantic-id="1" stroke="rgb(63,63,63)" stroke-width="0.1"/>
  <path d="M 76.23265549999996,50.83733799999982 L 76.91865549999994,49.167337999999745" fill="none" instance-id="-1" semantic-id="1" stroke="rgb(63,63,63)" stroke-width="0.1"/>
  <path d="M 76.91865549999994,49.167337999999745 L 75.80165549999998,47.50733799999989" fill="none" instance-id="-1" semantic-id="1" stroke="rgb(63,63,63)" stroke-width="0.1"/>
  <path d="M 75.80165549999998,47.50733799999989 L 56.72265549999997,60.34733799999981" fill="none" instance-id="-1" semantic-id="1" stroke="rgb(63,63,63)" stroke-width="0.1"/>
  <path d="M 44.83665801250629,100.0 L 31.85265549999997,80.71733799999993" fill="none" instance-id="-1" semantic-id="1" stroke="rgb(63,63,63)" stroke-width="0.1"/>
  <path d="M 31.85265549999997,80.71733799999993 L 27.706655499999954,83.50733799999989" fill="none" instance-id="-1" semantic-id="1" stroke="rgb(63,63,63)" stroke-width="0.1"/>
  <path d="M 27.706655499999954,83.50733799999989 L 25.472655499999973,80.18733799999973" fill="none" instance-id="-1" semantic-id="1" stroke="rgb(63,63,63)" stroke-width="0.1"/>
  <path d="M 25.472655499999973,80.18733799999973 L 25.47165549999994,80.18733799999973" fill="none" stroke="rgb(63,63,63)" stroke-width="0.1"/>
  <path d="M 25.47165549999994,80.18733799999973 L 38.80982784954722,100.0" fill="none" instance-id="-1" semantic-id="1" stroke="rgb(63,63,63)" stroke-width="0.1"/>
  <path d="M 8.717655499999978,55.297337999999854 L 6.483655499999941,51.97733799999992" fill="none" instance-id="-1" semantic-id="1" stroke="rgb(63,63,63)" stroke-width="0.1"/>
  <path d="M 6.483655499999941,51.97733799999992 L 6.482655499999964,51.98733799999991" fill="none" stroke="rgb(63,63,63)" stroke-width="0.1"/>
  <path d="M 6.482655499999964,51.98733799999991 L 8.717655499999978,55.307337999999845" fill="none" instance-id="-1" semantic-id="1" stroke="rgb(63,63,63)" stroke-width="0.1"/>
  <path d="M 8.717655499999978,55.307337999999845 L 12.036655499999938,53.067337999999836" fill="none" instance-id="-1" semantic-id="1" stroke="rgb(63,63,63)" stroke-width="0.1"/>
  <path d="M 12.036655499999938,53.067337999999836 L 12.034655499999985,53.067337999999836" fill="none" stroke="rgb(63,63,63)" stroke-width="0.1"/>
  <path d="M 12.034655499999985,53.067337999999836 L 8.717655499999978,55.297337999999854" fill="none" instance-id="-1" semantic-id="1" stroke="rgb(63,63,63)" stroke-width="0.1"/>
  <path d="M 4.24965549999996,48.667337999999745 L 7.566655499999968,46.427337999999736" fill="none" instance-id="-1" semantic-id="1" stroke="rgb(63,63,63)" stroke-width="0.1"/>
  <path d="M 7.566655499999968,46.427337999999736 L 0.0,35.18895418320585" fill="none" instance-id="-1" semantic-id="1" stroke="rgb(63,63,63)" stroke-width="0.1"/>
  <path d="M 0.0,42.356832181028494 L 4.248655499999984,48.667337999999745" fill="none" instance-id="-1" semantic-id="1" stroke="rgb(63,63,63)" stroke-width="0.1"/>
  <path d="M 4.248655499999984,48.667337999999745 L 4.25165549999997,48.667337999999745" fill="none" stroke="rgb(63,63,63)" stroke-width="0.1"/>
  <path d="M 4.25165549999997,48.667337999999745 L 4.24965549999996,48.667337999999745" fill="none" stroke="rgb(63,63,63)" stroke-width="0.1"/>
  <path d="M 55.06365549999998,61.46733799999993 L 56.738655499999936,63.957337999999936" fill="none" instance-id="-1" semantic-id="1" stroke="rgb(63,63,63)" stroke-width="0.1"/>
  <path d="M 56.738655499999936,63.957337999999936 L 58.39865549999996,62.83733799999982" fill="none" instance-id="-1" semantic-id="1" stroke="rgb(63,63,63)" stroke-width="0.1"/>
  <path d="M 58.39865549999996,62.83733799999982 L 56.72265549999997,60.34733799999981" fill="none" instance-id="-1" semantic-id="1" stroke="rgb(63,63,63)" stroke-width="0.1"/>
  <path d="M 56.72265549999997,60.34733799999981 L 55.06365549999998,61.46733799999993" fill="none" instance-id="-1" semantic-id="1" stroke="rgb(63,63,63)" stroke-width="0.1"/>
  <path d="M 23.238655499999936,76.86733799999979 L 26.555655499999943,74.63733799999977" fill="none" instance-id="-1" semantic-id="1" stroke="rgb(63,63,63)" stroke-width="0.1"/>
  <path d="M 26.555655499999943,74.63733799999977 L 15.935655499999939,58.8573379999998" fill="none" instance-id="-1" semantic-id="1" stroke="rgb(63,63,63)" stroke-width="0.1"/>
  <path d="M 15.935655499999939,58.8573379999998 L 12.617655499999955,61.09733799999981" fill="none" instance-id="-1" semantic-id="1" stroke="rgb(63,63,63)" stroke-width="0.1"/>
  <path d="M 12.617655499999955,61.09733799999981 L 25.47165549999994,80.18733799999973" fill="none" instance-id="-1" semantic-id="1" stroke="rgb(63,63,63)" stroke-width="0.1"/>
  <path d="M 25.47165549999994,80.18733799999973 L 25.472655499999973,80.18733799999973" fill="none" stroke="rgb(63,63,63)" stroke-width="0.1"/>
  <path d="M 25.472655499999973,80.18733799999973 L 23.238655499999936,76.86733799999979" fill="none" instance-id="-1" semantic-id="1" stroke="rgb(63,63,63)" stroke-width="0.1"/>
  <path d="M 89.07765549999993,69.90733799999975 L 91.56665549999997,68.23733799999991" fill="none" instance-id="-1" semantic-id="1" stroke="rgb(63,63,63)" stroke-width="0.1"/>
  <path d="M 91.56665549999997,68.23733799999991 L 89.89165549999996,65.7473379999999" fill="none" instance-id="-1" semantic-id="1" stroke="rgb(63,63,63)" stroke-width="0.1"/>
  <path d="M 89.89165549999996,65.7473379999999 L 87.40265549999998,67.42733799999974" fill="none" instance-id="-1" semantic-id="1" stroke="rgb(63,63,63)" stroke-width="0.1"/>
  <path d="M 87.40265549999998,67.42733799999974 L 89.07765549999993,69.90733799999975" fill="none" instance-id="-1" semantic-id="1" stroke="rgb(63,63,63)" stroke-width="0.1"/>
  <path d="M 78.72165549999994,49.157337999999754 L 76.91865549999994,49.167337999999745" fill="none" instance-id="-1" semantic-id="1" stroke="rgb(63,63,63)" stroke-width="0.1"/>
  <path d="M 76.91865549999994,49.167337999999745 L 76.23265549999996,50.83733799999982" fill="none" instance-id="-1" semantic-id="1" stroke="rgb(63,63,63)" stroke-width="0.1"/>
  <path d="M 76.23265549999996,50.83733799999982 L 79.02565549999997,54.97733799999992" fill="none" instance-id="-1" semantic-id="1" stroke="rgb(63,63,63)" stroke-width="0.1"/>
  <path d="M 79.02565549999997,54.97733799999992 L 81.51365549999997,53.307337999999845" fill="none" instance-id="-1" semantic-id="1" stroke="rgb(63,63,63)" stroke-width="0.1"/>
  <path d="M 81.51365549999997,53.307337999999845 L 78.72165549999994,49.157337999999754" fill="none" instance-id="-1" semantic-id="1" stroke="rgb(63,63,63)" stroke-width="0.1"/>
 </g>
 <g id="layerPUB_TEXT" inkscape:groupmode="layer" inkscape:label="PUB_TEXT">
  <text fill="rgb(0,0,0)" font-family="Noto Sans CJK SC" font-size="2" transform="rotate(-33.9506,58.88465549999995,3.467337999999927)" x="58.88465549999995" y="3.467337999999927">
   1800x1200x1500d
  </text>
  <text fill="rgb(0,0,0)" font-family="Noto Sans CJK SC" font-size="2" transform="rotate(-34.0,1.4646554999999353,26.157337999999754)" x="1.4646554999999353" y="26.157337999999754">
   机房
  </text>
  <text fill="rgb(0,0,0)" font-family="Noto Sans CJK SC" font-size="2" transform="rotate(-0.0,43.87265549999995,88.3573379999998)" x="43.87265549999995" y="88.3573379999998">
   上
  </text>
  <text fill="rgb(0,0,0)" font-family="Noto Sans CJK SC" font-size="2" transform="rotate(-33.9843,80.16865549999994,99.00733799999989)" x="80.16865549999994" y="99.00733799999989">
   电梯厅
  </text>
 </g>
 <g id="layerRF-PUB_DIM" inkscape:groupmode="layer" inkscape:label="RF-PUB_DIM">
  <path d="M 13.325655499999982,56.72733799999992 L 0.0,49.32064699001717" fill="none" stroke="rgb(0,178,0)" stroke-width="0.1"/>
  <path d="M 13.62465549999996,56.697337999999945 A 0.3005012479175458,0.3005012479175458 0.0 0,0 13.026655499999947,56.75733799999989" fill="none" stroke="rgb(0,178,0)" stroke-width="0.1"/>
  <path d="M 13.026655499999947,56.75733799999989 A 0.3005012479175458,0.3005012479175458 0.0 1,0 13.62465549999996,56.697337999999945" fill="none" stroke="rgb(0,178,0)" stroke-width="0.1"/>
 </g>
 <g id="layerRF-WINDOW" inkscape:groupmode="layer" inkscape:label="RF-WINDOW">
  <path d="M 79.02565549999997,54.97733799999992 L 80.05865549999999,69.94733799999995" fill="none" stroke="rgb(0,178,178)" stroke-width="0.1"/>
  <path d="M 98.93365549999999,41.57733799999983 L 99.96765549999998,56.53733799999986" fill="none" stroke="rgb(0,178,178)" stroke-width="0.1"/>
  <path d="M 35.50065549999994,28.827337999999827 L 41.56665549999997,24.7473379999999" fill="none" instance-id="4" semantic-id="4" stroke="rgb(0,178,178)" stroke-width="0.1"/>
  <path d="M 35.71065549999997,29.137337999999772 L 41.77565549999997,25.057337999999845" fill="none" instance-id="4" semantic-id="4" stroke="rgb(0,178,178)" stroke-width="0.1"/>
  <path d="M 35.50065549999994,28.827337999999827 L 35.71065549999997,29.137337999999772" fill="none" instance-id="4" semantic-id="4" stroke="rgb(0,178,178)" stroke-width="0.1"/>
  <path d="M 41.77565549999997,25.057337999999845 L 41.56665549999997,24.7473379999999" fill="none" instance-id="4" semantic-id="4" stroke="rgb(0,178,178)" stroke-width="0.1"/>
  <path d="M 43.66865549999994,40.957337999999936 L 49.734655499999974,36.87733799999978" fill="none" instance-id="4" semantic-id="4" stroke="rgb(0,178,178)" stroke-width="0.1"/>
  <path d="M 43.877655499999946,41.27733799999987 L 49.94365549999998,37.18733799999973" fill="none" instance-id="4" semantic-id="4" stroke="rgb(0,178,178)" stroke-width="0.1"/>
  <path d="M 49.734655499999974,36.87733799999978 L 49.94365549999998,37.18733799999973" fill="none" instance-id="4" semantic-id="4" stroke="rgb(0,178,178)" stroke-width="0.1"/>
  <path d="M 43.877655499999946,41.27733799999987 L 43.66865549999994,40.957337999999936" fill="none" instance-id="4" semantic-id="4" stroke="rgb(0,178,178)" stroke-width="0.1"/>
  <path d="M 71.80165549999998,82.7473379999999 L 76.70165549999996,90.02733799999987" fill="none" instance-id="3" semantic-id="4" stroke="rgb(0,178,178)" stroke-width="0.1"/>
  <path d="M 72.17465549999997,82.4973379999999 L 77.07565549999998,89.77733799999987" fill="none" instance-id="3" semantic-id="4" stroke="rgb(0,178,178)" stroke-width="0.1"/>
  <path d="M 71.80165549999998,82.7473379999999 L 72.17465549999997,82.4973379999999" fill="none" instance-id="3" semantic-id="4" stroke="rgb(0,178,178)" stroke-width="0.1"/>
  <path d="M 77.07565549999998,89.77733799999987 L 76.70165549999996,90.02733799999987" fill="none" instance-id="3" semantic-id="4" stroke="rgb(0,178,178)" stroke-width="0.1"/>
  <path d="M 86.35965549999997,72.94733799999995 L 91.25965549999995,80.22733799999992" fill="none" instance-id="3" semantic-id="4" stroke="rgb(0,178,178)" stroke-width="0.1"/>
  <path d="M 86.73265549999996,72.69733799999995 L 91.63365549999997,79.97733799999992" fill="none" instance-id="3" semantic-id="4" stroke="rgb(0,178,178)" stroke-width="0.1"/>
  <path d="M 91.25965549999995,80.22733799999992 L 91.63365549999997,79.97733799999992" fill="none" instance-id="3" semantic-id="4" stroke="rgb(0,178,178)" stroke-width="0.1"/>
  <path d="M 86.73265549999996,72.69733799999995 L 86.35965549999997,72.94733799999995" fill="none" instance-id="3" semantic-id="4" stroke="rgb(0,178,178)" stroke-width="0.1"/>
  <path d="M 39.68965549999996,35.047337999999854 A 7.3125,7.3125 0.0 0,0 41.77365549999996,25.057337999999845" fill="none" instance-id="4" semantic-id="4" stroke="rgb(0,178,178)" stroke-width="0.1"/>
  <path d="M 49.732655499999964,36.87733799999978 A 7.3125,7.3125 0.0 0,0 39.68965549999996,35.047337999999854" fill="none" instance-id="4" semantic-id="4" stroke="rgb(0,178,178)" stroke-width="0.1"/>
  <path d="M 77.07365549999997,89.77733799999987 A 8.775,8.775 0.0 0,0 79.26665549999996,77.72733799999992" fill="none" instance-id="3" semantic-id="4" stroke="rgb(0,178,178)" stroke-width="0.1"/>
  <path d="M 79.26665549999996,77.72733799999992 A 8.775,8.775 0.0 0,0 91.25865549999997,80.22733799999992" fill="none" instance-id="3" semantic-id="4" stroke="rgb(0,178,178)" stroke-width="0.1"/>
 </g>
 <g id="layerS-JSJ" inkscape:groupmode="layer" inkscape:label="S-JSJ">
  <path d="M 18.504464442846313,0.0 L 51.121655499999974,48.447337999999945" fill="none" stroke="rgb(0,133,178)" stroke-width="0.1"/>
  <path d="M 22.119090389078224,0.0 L 50.25965549999995,41.797337999999854" fill="none" stroke="rgb(0,133,178)" stroke-width="0.1"/>
  <path d="M 47.79765549999996,43.51733799999988 L 47.80565549999994,43.50733799999989" fill="none" stroke="rgb(0,133,178)" stroke-width="0.1"/>
  <path d="M 48.70165549999996,44.8573379999998 L 48.94765549999994,44.6073379999998" fill="none" stroke="rgb(0,133,178)" stroke-width="0.1"/>
  <path d="M 49.60465549999998,46.197337999999945 L 50.089655499999935,45.71733799999993" fill="none" stroke="rgb(0,133,178)" stroke-width="0.1"/>
  <path d="M 50.50765549999994,47.53733799999986 L 51.23165549999993,46.817337999999836" fill="none" stroke="rgb(0,133,178)" stroke-width="0.1"/>
  <path d="M 51.41165549999994,48.87733799999978 L 52.373655499999984,47.917337999999745" fill="none" stroke="rgb(0,133,178)" stroke-width="0.1"/>
  <path d="M 52.31465549999996,50.22733799999992 L 53.51565549999998,49.01733799999988" fill="none" stroke="rgb(0,133,178)" stroke-width="0.1"/>
  <path d="M 53.21765549999998,51.567337999999836 L 54.657655499999976,50.12733799999978" fill="none" stroke="rgb(0,133,178)" stroke-width="0.1"/>
  <path d="M 54.121655499999974,52.907337999999754 L 55.79965549999997,51.22733799999992" fill="none" stroke="rgb(0,133,178)" stroke-width="0.1"/>
  <path d="M 55.02465549999994,54.2473379999999 L 56.94165549999997,52.32733799999983" fill="none" stroke="rgb(0,133,178)" stroke-width="0.1"/>
  <path d="M 55.92765549999996,55.58733799999982 L 58.08365549999996,53.43733799999973" fill="none" stroke="rgb(0,133,178)" stroke-width="0.1"/>
  <path d="M 56.831655499999954,56.927337999999736 L 60.117655499999955,53.64733799999976" fill="none" stroke="rgb(0,133,178)" stroke-width="0.1"/>
  <path d="M 57.734655499999974,58.27733799999987 L 63.12465549999996,52.88733799999977" fill="none" stroke="rgb(0,133,178)" stroke-width="0.1"/>
  <path d="M 64.01865549999997,54.23733799999991 L 66.13265549999994,52.11733799999979" fill="none" stroke="rgb(0,133,178)" stroke-width="0.1"/>
  <path d="M 67.77765549999998,51.707337999999936 L 57.72565549999996,36.76733799999988" fill="none" stroke="rgb(0,133,178)" stroke-width="0.1"/>
  <path d="M 57.72565549999996,36.76733799999988 L 47.770655499999975,43.47733799999992" fill="none" stroke="rgb(0,133,178)" stroke-width="0.1"/>
  <path d="M 47.770655499999975,43.47733799999992 L 57.82365549999997,58.407337999999754" fill="none" stroke="rgb(0,133,178)" stroke-width="0.1"/>
  <path d="M 57.82365549999997,58.407337999999754 L 67.77765549999998,51.707337999999936" fill="none" stroke="rgb(0,133,178)" stroke-width="0.1"/>
  <path d="M 67.77765549999998,51.707337999999936 L 58.678655499999934,54.00733799999989" fill="none" stroke="rgb(0,133,178)" stroke-width="0.1"/>
  <path d="M 58.678655499999934,54.00733799999989 L 47.770655499999975,43.47733799999992" fill="none" stroke="rgb(0,133,178)" stroke-width="0.1"/>
  <path d="M 58.678655499999934,54.00733799999989 L 47.770655499999975,43.47733799999992" fill="none" stroke="rgb(0,133,178)" stroke-width="0.1"/>
  <path d="M 47.770655499999975,43.47733799999992 L 57.82365549999997,58.407337999999754" fill="none" stroke="rgb(0,133,178)" stroke-width="0.1"/>
  <path d="M 57.82365549999997,58.407337999999754 L 67.77765549999998,51.707337999999936" fill="none" stroke="rgb(0,133,178)" stroke-width="0.1"/>
  <path d="M 67.77765549999998,51.707337999999936 L 58.678655499999934,54.00733799999989" fill="none" stroke="rgb(0,133,178)" stroke-width="0.1"/>
 </g>
 <g id="layerSTAIR" inkscape:groupmode="layer" inkscape:label="STAIR">
  <path d="M 23.14160229258289,100.0 L 22.392655499999933,98.88733799999977" fill="none" stroke="rgb(89,89,89)" stroke-width="0.1"/>
  <path d="M 38.812399643576214,100.0 L 33.17665549999998,91.62733799999978" fill="none" stroke="rgb(89,89,89)" stroke-width="0.1"/>
  <path d="M 34.70644241349834,100.0 L 37.532655499999976,98.09733799999981" fill="none" stroke="rgb(89,89,89)" stroke-width="0.1"/>
  <path d="M 30.060833598071497,100.0 L 36.08065549999998,95.94733799999995" fill="none" stroke="rgb(89,89,89)" stroke-width="0.1"/>
  <path d="M 25.40037078815402,100.0 L 34.62865549999998,93.78733799999986" fill="none" stroke="rgb(89,89,89)" stroke-width="0.1"/>
  <path d="M 22.392655499999933,98.88733799999977 L 33.17665549999998,91.62733799999978" fill="none" stroke="rgb(89,89,89)" stroke-width="0.1"/>
  <path d="M 53.80265549999996,89.31733799999984 L 42.68765549999995,96.80733799999985" fill="none" instance-id="5" semantic-id="30" stroke="rgb(178,88,0)" stroke-width="0.1"/>
  <path d="M 55.254655499999956,91.47733799999992 L 44.13965549999995,98.95733799999994" fill="none" instance-id="5" semantic-id="30" stroke="rgb(178,88,0)" stroke-width="0.1"/>
  <path d="M 56.706655499999954,93.63733799999977 L 47.25197794251301,100.0" fill="none" instance-id="5" semantic-id="30" stroke="rgb(178,88,0)" stroke-width="0.1"/>
  <path d="M 55.155655499999966,97.81733799999984 L 51.91284338571404,100.0" fill="none" instance-id="5" semantic-id="30" stroke="rgb(178,88,0)" stroke-width="0.1"/>
  <path d="M 52.84865549999995,86.82733799999983 L 53.74165549999998,88.15733799999975" fill="none" instance-id="5" semantic-id="30" stroke="rgb(178,88,0)" stroke-width="0.1"/>
  <path d="M 41.23565549999995,94.64733799999976 L 44.839436469726365,100.0" fill="none" instance-id="5" semantic-id="30" stroke="rgb(178,88,0)" stroke-width="0.1"/>
  <path d="M 52.84865549999995,86.82733799999983 L 41.23565549999995,94.64733799999976" fill="none" instance-id="5" semantic-id="30" stroke="rgb(178,88,0)" stroke-width="0.1"/>
  <path d="M 53.74165549999998,88.15733799999975 L 57.55465549999997,93.81733799999984" fill="none" instance-id="5" semantic-id="30" stroke="rgb(178,88,0)" stroke-width="0.1"/>
  <path d="M 54.35068029120896,100.0 L 54.03865549999995,99.67733799999974" fill="none" instance-id="5" semantic-id="30" stroke="rgb(178,88,0)" stroke-width="0.1"/>
  <path d="M 54.03865549999995,99.67733799999974 L 57.55465549999997,93.81733799999984" fill="none" instance-id="5" semantic-id="30" stroke="rgb(178,88,0)" stroke-width="0.1"/>
  <path d="M 53.74165549999998,88.15733799999975 L 57.55465549999997,93.81733799999984" fill="none" instance-id="5" semantic-id="30" stroke="rgb(178,88,0)" stroke-width="0.1"/>
  <path d="M 53.244655499999965,88.48733799999991 L 57.21365549999996,94.38733799999977" fill="none" instance-id="5" semantic-id="30" stroke="rgb(178,88,0)" stroke-width="0.1"/>
  <path d="M 53.74165549999998,88.15733799999975 L 53.244655499999965,88.48733799999991" fill="none" instance-id="5" semantic-id="30" stroke="rgb(178,88,0)" stroke-width="0.1"/>
 </g>
 <g id="layerWALL" inkscape:groupmode="layer" inkscape:label="WALL">
  <path d="M 87.36577948436451,100.0 L 88.38065549999993,99.31733799999984" fill="none" instance-id="-1" semantic-id="1" stroke="rgb(178,178,0)" stroke-width="0.1"/>
  <path d="M 88.38065549999993,99.31733799999984 L 87.26365549999997,97.65733799999975" fill="none" instance-id="-1" semantic-id="1" stroke="rgb(178,178,0)" stroke-width="0.1"/>
  <path d="M 87.26365549999997,97.65733799999975 L 83.78094886547211,100.0" fill="none" instance-id="-1" semantic-id="1" stroke="rgb(178,178,0)" stroke-width="0.1"/>
  <path d="M 100.0,89.08217345739536 L 98.04765549999996,90.39733799999976" fill="none" instance-id="-1" semantic-id="1" stroke="rgb(178,178,0)" stroke-width="0.1"/>
  <path d="M 98.04765549999996,90.39733799999976 L 99.16465549999998,92.05733799999985" fill="none" instance-id="-1" semantic-id="1" stroke="rgb(178,178,0)" stroke-width="0.1"/>
  <path d="M 99.16465549999998,92.05733799999985 L 100.0,91.49462201045003" fill="none" instance-id="-1" semantic-id="1" stroke="rgb(178,178,0)" stroke-width="0.1"/>
  <path d="M 79.7971101846029,100.0 L 69.31265549999995,84.42733799999974" fill="none" instance-id="-1" semantic-id="1" stroke="rgb(178,178,0)" stroke-width="0.1"/>
  <path d="M 82.20998472712478,100.0 L 71.53065549999997,84.13733799999977" fill="none" instance-id="-1" semantic-id="1" stroke="rgb(178,178,0)" stroke-width="0.1"/>
  <path d="M 57.55265549999996,59.797337999999854 L 44.70765549999999,40.71733799999993" fill="none" instance-id="-1" semantic-id="1" stroke="rgb(178,178,0)" stroke-width="0.1"/>
  <path d="M 44.70765549999999,40.71733799999993 L 43.04865549999994,41.82733799999983" fill="none" instance-id="-1" semantic-id="1" stroke="rgb(178,178,0)" stroke-width="0.1"/>
  <path d="M 43.04865549999994,41.82733799999983 L 55.893655499999966,60.907337999999754" fill="none" instance-id="-1" semantic-id="1" stroke="rgb(178,178,0)" stroke-width="0.1"/>
  <path d="M 14.885834542756811,0.0 L 34.671655499999986,29.387337999999772" fill="none" instance-id="-1" semantic-id="1" stroke="rgb(178,178,0)" stroke-width="0.1"/>
  <path d="M 34.671655499999986,29.387337999999772 L 36.33065549999998,28.26733799999988" fill="none" instance-id="-1" semantic-id="1" stroke="rgb(178,178,0)" stroke-width="0.1"/>
  <path d="M 36.33065549999998,28.26733799999988 L 17.299362937826174,0.0" fill="none" instance-id="-1" semantic-id="1" stroke="rgb(178,178,0)" stroke-width="0.1"/>
  <path d="M 12.62665549999997,61.1073379999998 L 8.716655499999945,55.297337999999854" fill="none" instance-id="-1" semantic-id="1" stroke="rgb(178,178,0)" stroke-width="0.1"/>
  <path d="M 14.285655499999962,59.98733799999991 L 10.375655499999937,54.18733799999973" fill="none" instance-id="-1" semantic-id="1" stroke="rgb(178,178,0)" stroke-width="0.1"/>
  <path d="M 12.62665549999997,61.1073379999998 L 14.285655499999962,59.98733799999991" fill="none" instance-id="-1" semantic-id="1" stroke="rgb(178,178,0)" stroke-width="0.1"/>
  <path d="M 71.53065549999997,84.13733799999977 L 72.35965549999997,83.57733799999983" fill="none" instance-id="-1" semantic-id="1" stroke="rgb(178,178,0)" stroke-width="0.1"/>
  <path d="M 72.35965549999997,83.57733799999983 L 71.24265549999996,81.91733799999975" fill="none" instance-id="-1" semantic-id="1" stroke="rgb(178,178,0)" stroke-width="0.1"/>
  <path d="M 71.24265549999996,81.91733799999975 L 70.41365549999995,82.47733799999992" fill="none" instance-id="-1" semantic-id="1" stroke="rgb(178,178,0)" stroke-width="0.1"/>
  <path d="M 87.41865549999994,71.02733799999987 L 86.17365549999994,71.86733799999979" fill="none" instance-id="-1" semantic-id="1" stroke="rgb(178,178,0)" stroke-width="0.1"/>
  <path d="M 86.17365549999994,71.86733799999979 L 87.29065549999996,73.52733799999987" fill="none" instance-id="-1" semantic-id="1" stroke="rgb(178,178,0)" stroke-width="0.1"/>
  <path d="M 87.29065549999996,73.52733799999987 L 88.53565549999996,72.68733799999973" fill="none" instance-id="-1" semantic-id="1" stroke="rgb(178,178,0)" stroke-width="0.1"/>
  <path d="M 70.41365549999995,82.47733799999992 L 67.06265549999995,77.4973379999999" fill="none" instance-id="-1" semantic-id="1" stroke="rgb(178,178,0)" stroke-width="0.1"/>
  <path d="M 67.06265549999995,77.4973379999999 L 65.40365549999996,78.61733799999979" fill="none" instance-id="-1" semantic-id="1" stroke="rgb(178,178,0)" stroke-width="0.1"/>
  <path d="M 65.40365549999996,78.61733799999979 L 69.31265549999995,84.42733799999974" fill="none" instance-id="-1" semantic-id="1" stroke="rgb(178,178,0)" stroke-width="0.1"/>
  <path d="M 55.909655499999985,64.51733799999988 L 57.02665549999995,66.17733799999974" fill="none" instance-id="-1" semantic-id="1" stroke="rgb(178,178,0)" stroke-width="0.1"/>
  <path d="M 57.02665549999995,66.17733799999974 L 58.68565549999994,65.05733799999985" fill="none" instance-id="-1" semantic-id="1" stroke="rgb(178,178,0)" stroke-width="0.1"/>
  <path d="M 58.68565549999994,65.05733799999985 L 57.56865549999998,63.39733799999976" fill="none" instance-id="-1" semantic-id="1" stroke="rgb(178,178,0)" stroke-width="0.1"/>
 </g>
 <g id="layerWINDOW" inkscape:groupmode="layer" inkscape:label="WINDOW">
  <path d="M 99.85265549999997,92.29733799999985 L 94.46065549999997,95.92733799999974" fill="none" instance-id="7" semantic-id="5" stroke="rgb(0,178,0)" stroke-width="0.1"/>
  <path d="M 99.73665549999998,92.12733799999978 L 94.34465549999993,95.75733799999989" fill="none" instance-id="7" semantic-id="5" stroke="rgb(0,178,0)" stroke-width="0.1"/>
  <path d="M 88.31988580000007,100.0 L 88.23365549999994,99.86733799999979" fill="none" instance-id="7" semantic-id="5" stroke="rgb(0,178,0)" stroke-width="0.1"/>
  <path d="M 99.85265549999997,92.29733799999985 L 99.73665549999998,92.12733799999978" fill="none" instance-id="7" semantic-id="5" stroke="rgb(0,178,0)" stroke-width="0.1"/>
  <path d="M 93.74265549999996,96.41733799999975 L 93.62565549999994,96.23733799999991" fill="none" instance-id="7" semantic-id="5" stroke="rgb(0,178,0)" stroke-width="0.1"/>
  <path d="M 93.62565549999994,96.23733799999991 L 88.23365549999994,99.86733799999979" fill="none" instance-id="7" semantic-id="5" stroke="rgb(0,178,0)" stroke-width="0.1"/>
  <path d="M 93.74265549999996,96.41733799999975 L 88.42097133911818,100.0" fill="none" instance-id="7" semantic-id="5" stroke="rgb(0,178,0)" stroke-width="0.1"/>
  <path d="M 94.46065549999997,95.92733799999974 L 94.34465549999993,95.75733799999989" fill="none" instance-id="7" semantic-id="5" stroke="rgb(0,178,0)" stroke-width="0.1"/>
  <path d="M 99.16465549999998,92.05733799999985 L 88.38065549999993,99.31733799999984" fill="none" instance-id="7" semantic-id="5" stroke="rgb(0,178,0)" stroke-width="0.1"/>
 </g>
 <g id="layers-消火栓" inkscape:groupmode="layer" inkscape:label="s-消火栓">
  <path d="M 81.65165549999995,4.2673379999998815 L 84.8818133827117,0.0" fill="none" stroke="rgb(178,88,0)" stroke-width="0.1"/>
  <path d="M 80.31165549999997,2.2773379999998724 L 83.69329857621454,0.0" fill="none" stroke="rgb(178,88,0)" stroke-width="0.1"/>
  <path d="M 87.21785637537698,0.0 L 87.45865549999996,0.35733799999979965" fill="none" stroke="rgb(178,88,0)" stroke-width="0.1"/>
  <path d="M 87.45865549999996,0.35733799999979965 L 81.65165549999995,4.2673379999998815" fill="none" stroke="rgb(178,88,0)" stroke-width="0.1"/>
  <path d="M 81.65165549999995,4.2673379999998815 L 80.31165549999997,2.2773379999998724" fill="none" stroke="rgb(178,88,0)" stroke-width="0.1"/>
  <path d="M 84.8818133827117,0.0 L 81.65165549999995,4.2673379999998815" fill="none" stroke="rgb(178,88,0)" stroke-width="0.1"/>
  <path d="M 81.65165549999995,4.2673379999998815 L 87.45865549999996,0.35733799999979965" fill="none" stroke="rgb(178,88,0)" stroke-width="0.1"/>
  <path d="M 87.45865549999996,0.35733799999979965 L 87.21785637537698,0.0" fill="none" stroke="rgb(178,88,0)" stroke-width="0.1"/>
  <circle cx="79.48865549999994" cy="4.277337999999872" fill="none" r="0.6" stroke="rgb(178,178,0)" stroke-width="0.1"/>
 </g>
 <g id="layer建-门窗-编号" inkscape:groupmode="layer" inkscape:label="建-门窗-编号">
  <text fill="rgb(0,0,0)" font-family="Noto Sans CJK SC" font-size="2" transform="rotate(-123.951,32.80565549999994,50.39733799999976)" x="32.80565549999994" y="50.39733799999976">
   FM
  </text>
  <text fill="rgb(0,0,0)" font-family="Noto Sans CJK SC" font-size="2" transform="rotate(-123.951,29.28765549999997,45.177337999999736)" x="29.28765549999997" y="45.177337999999736">
   甲
  </text>
  <text fill="rgb(0,0,0)" font-family="Noto Sans CJK SC" font-size="2" transform="rotate(-123.951,27.228655499999945,42.11733799999979)" x="27.228655499999945" y="42.11733799999979">
   1523
  </text>
 </g>
</svg>