<?xml version="1.0" encoding="utf-8"?>
<svg style="background-color: #000;" version="1.1" viewBox="0 0 100.0 100.00000000000011" xmlns="http://www.w3.org/2000/svg" xmlns:inkscape="http://www.inkscape.org/namespaces/inkscape">
 <g id="layer!消防-疏散楼梯" inkscape:groupmode="layer" inkscape:label="!消防-疏散楼梯">
  <path d="M 33.0146555,32.16733799999986 L 0.0,54.39610905295342" fill="none" stroke="rgb(53,107,0)" stroke-width="0.1"/>
  <path d="M 0.0,23.04956745787888 L 18.494655499999908,10.597337999999922" fill="none" stroke="rgb(53,107,0)" stroke-width="0.1"/>
  <path d="M 18.494655499999908,10.597337999999922 L 33.0146555,32.16733799999986" fill="none" stroke="rgb(53,107,0)" stroke-width="0.1"/>
  <path d="M 33.0146555,32.16733799999986 L 0.0,54.39610905295342" fill="none" stroke="rgb(53,107,0)" stroke-width="0.1"/>
  <path d="M 0.0,23.04956745787888 L 18.494655499999908,10.597337999999922" fill="none" stroke="rgb(53,107,0)" stroke-width="0.1"/>
  <path d="M 18.494655499999908,10.597337999999922 L 33.0146555,32.16733799999986" fill="none" stroke="rgb(53,107,0)" stroke-width="0.1"/>
 </g>
 <g id="layer0-结构边线" inkscape:groupmode="layer" inkscape:label="0-结构边线">
  <path d="M 81.86265549999996,8.927337999999963 L 88.49865549999993,4.457337999999936" fill="none" stroke="rgb(178,0,178)" stroke-width="0.1"/>
  <path d="M 88.49865549999993,4.457337999999936 L 85.49482651297137,0.0" fill="none" stroke="rgb(178,0,178)" stroke-width="0.1"/>
  <path d="M 77.3946555,2.287337999999977 L 80.79796827309406,0.0" fill="none" stroke="rgb(178,0,178)" stroke-width="0.1"/>
  <path d="M 81.86265549999996,8.927337999999963 L 77.3946555,2.287337999999977" fill="none" stroke="rgb(178,0,178)" stroke-width="0.1"/>
  <path d="M 12.18265550000001,55.83733799999993 L 18.818655499999977,51.367337999999904" fill="none" stroke="rgb(178,0,178)" stroke-width="0.1"/>
  <path d="M 18.818655499999977,51.367337999999904 L 14.350655499999903,44.73733800000002" fill="none" stroke="rgb(178,0,178)" stroke-width="0.1"/>
  <path d="M 7.714655499999935,49.20733800000005 L 14.350655499999903,44.73733800000002" fill="none" stroke="rgb(178,0,178)" stroke-width="0.1"/>
  <path d="M 12.18265550000001,55.83733799999993 L 7.714655499999935,49.20733800000005" fill="none" stroke="rgb(178,0,178)" stroke-width="0.1"/>
 </g>
 <g id="layerA-车位" inkscape:groupmode="layer" inkscape:label="A-车位">
  <path d="M 79.90664587736478,0.0 L 39.881655499999965,26.94733800000006" fill="none" instance-id="-1" semantic-id="35" stroke="rgb(0,0,178)" stroke-width="0.1"/>
  <path d="M 39.881655499999965,26.94733800000006 L 26.478655499999945,7.037337999999977" fill="none" instance-id="-1" semantic-id="35" stroke="rgb(0,0,178)" stroke-width="0.1"/>
  <path d="M 26.478655499999945,7.037337999999977 L 36.9306513052768,0.0" fill="none" instance-id="-1" semantic-id="35" stroke="rgb(0,0,178)" stroke-width="0.1"/>
  <path d="M 36.58465549999994,3.2473379999998997 L 39.37665549999997,7.397337999999991" fill="none" instance-id="-1" semantic-id="35" stroke="rgb(0,0,178)" stroke-width="0.1"/>
  <path d="M 44.40265549999992,14.857337999999913 L 47.19565549999993,19.007338000000004" fill="none" instance-id="-1" semantic-id="35" stroke="rgb(0,0,178)" stroke-width="0.1"/>
  <path d="M 36.9996554999999,2.967337999999927 L 39.79165549999993,7.117337999999904" fill="none" instance-id="-1" semantic-id="35" stroke="rgb(0,0,178)" stroke-width="0.1"/>
  <path d="M 44.8176555,14.57733799999994 L 47.61065550000001,18.72733800000003" fill="none" instance-id="-1" semantic-id="35" stroke="rgb(0,0,178)" stroke-width="0.1"/>
  <path d="M 35.75465550000001,3.807337999999959 L 38.547655499999905,7.947337999999945" fill="none" instance-id="-1" semantic-id="35" stroke="rgb(0,0,178)" stroke-width="0.1"/>
  <path d="M 43.57365549999997,15.417337999999859 L 46.3656555,19.56733799999995" fill="none" instance-id="-1" semantic-id="35" stroke="rgb(0,0,178)" stroke-width="0.1"/>
  <path d="M 35.75465550000001,3.807337999999959 L 36.9996554999999,2.967337999999927" fill="none" instance-id="-1" semantic-id="35" stroke="rgb(0,0,178)" stroke-width="0.1"/>
  <path d="M 46.3656555,19.56733799999995 L 47.61065550000001,18.72733800000003" fill="none" instance-id="-1" semantic-id="35" stroke="rgb(0,0,178)" stroke-width="0.1"/>
  <path d="M 39.79165549999993,7.117337999999904 L 38.547655499999905,7.947337999999945" fill="none" instance-id="-1" semantic-id="35" stroke="rgb(0,0,178)" stroke-width="0.1"/>
  <path d="M 44.8176555,14.57733799999994 L 43.57365549999997,15.417337999999859" fill="none" instance-id="-1" semantic-id="35" stroke="rgb(0,0,178)" stroke-width="0.1"/>
  <path d="M 11.34865549999995,85.93733799999984 L 55.31365549999998,56.33733799999993" fill="none" instance-id="-1" semantic-id="35" stroke="rgb(0,0,178)" stroke-width="0.1"/>
  <path d="M 55.31365549999998,56.33733799999993 L 41.909655499999985,36.42733799999985" fill="none" instance-id="-1" semantic-id="35" stroke="rgb(0,0,178)" stroke-width="0.1"/>
  <path d="M 41.909655499999985,36.42733799999985 L 0.0,64.64419276298793" fill="none" instance-id="-1" semantic-id="35" stroke="rgb(0,0,178)" stroke-width="0.1"/>
  <path d="M 34.5966555,44.367337999999904 L 37.38865549999991,48.517337999999995" fill="none" instance-id="-1" semantic-id="35" stroke="rgb(0,0,178)" stroke-width="0.1"/>
  <path d="M 42.41465549999998,55.97733800000003 L 45.20765549999999,60.127337999999895" fill="none" instance-id="-1" semantic-id="35" stroke="rgb(0,0,178)" stroke-width="0.1"/>
  <path d="M 34.18165549999992,44.64733799999988 L 36.97365549999995,48.79733799999997" fill="none" instance-id="-1" semantic-id="35" stroke="rgb(0,0,178)" stroke-width="0.1"/>
  <path d="M 42.00065549999999,56.257338000000004 L 44.79265549999991,60.40733799999987" fill="none" instance-id="-1" semantic-id="35" stroke="rgb(0,0,178)" stroke-width="0.1"/>
  <path d="M 35.42565549999995,43.80733799999996 L 38.21765549999998,47.95733800000005" fill="none" instance-id="-1" semantic-id="35" stroke="rgb(0,0,178)" stroke-width="0.1"/>
  <path d="M 43.24465549999991,55.41733799999986 L 46.03665549999994,59.56733799999995" fill="none" instance-id="-1" semantic-id="35" stroke="rgb(0,0,178)" stroke-width="0.1"/>
  <path d="M 35.42565549999995,43.80733799999996 L 34.18165549999992,44.64733799999988" fill="none" instance-id="-1" semantic-id="35" stroke="rgb(0,0,178)" stroke-width="0.1"/>
  <path d="M 46.03665549999994,59.56733799999995 L 44.79265549999991,60.40733799999987" fill="none" instance-id="-1" semantic-id="35" stroke="rgb(0,0,178)" stroke-width="0.1"/>
  <path d="M 36.97365549999995,48.79733799999997 L 38.21765549999998,47.95733800000005" fill="none" instance-id="-1" semantic-id="35" stroke="rgb(0,0,178)" stroke-width="0.1"/>
  <path d="M 42.00065549999999,56.257338000000004 L 43.24465549999991,55.41733799999986" fill="none" instance-id="-1" semantic-id="35" stroke="rgb(0,0,178)" stroke-width="0.1"/>
  <path d="M 100.0,36.76118219135776 L 76.70065549999993,2.1573379999999815" fill="none" instance-id="-1" semantic-id="35" stroke="rgb(0,0,178)" stroke-width="0.1"/>
  <path d="M 76.70065549999993,2.1573379999999815 L 56.79265549999991,15.557337999999959" fill="none" instance-id="-1" semantic-id="35" stroke="rgb(0,0,178)" stroke-width="0.1"/>
  <path d="M 56.79265549999991,15.557337999999959 L 86.39165549999996,59.527337999999986" fill="none" instance-id="-1" semantic-id="35" stroke="rgb(0,0,178)" stroke-width="0.1"/>
  <path d="M 64.72965549999992,22.877337999999895 L 68.87765549999995,20.07733799999994" fill="none" instance-id="-1" semantic-id="35" stroke="rgb(0,0,178)" stroke-width="0.1"/>
  <path d="M 76.34365549999995,15.057337999999959 L 80.4906555,12.257338000000004" fill="none" instance-id="-1" semantic-id="35" stroke="rgb(0,0,178)" stroke-width="0.1"/>
  <path d="M 65.00965550000001,23.287337999999977 L 69.15665549999994,20.497338000000013" fill="none" instance-id="-1" semantic-id="35" stroke="rgb(0,0,178)" stroke-width="0.1"/>
  <path d="M 76.62265549999995,15.46733800000004 L 80.7696555,12.67733799999985" fill="none" instance-id="-1" semantic-id="35" stroke="rgb(0,0,178)" stroke-width="0.1"/>
  <path d="M 64.17165549999993,22.047337999999968 L 68.31865549999998,19.247338000000013" fill="none" instance-id="-1" semantic-id="35" stroke="rgb(0,0,178)" stroke-width="0.1"/>
  <path d="M 75.78465549999999,14.227338000000032 L 79.93265550000001,11.427337999999963" fill="none" instance-id="-1" semantic-id="35" stroke="rgb(0,0,178)" stroke-width="0.1"/>
  <path d="M 64.17165549999993,22.047337999999968 L 65.00965550000001,23.287337999999977" fill="none" instance-id="-1" semantic-id="35" stroke="rgb(0,0,178)" stroke-width="0.1"/>
  <path d="M 79.93265550000001,11.427337999999963 L 80.7696555,12.67733799999985" fill="none" instance-id="-1" semantic-id="35" stroke="rgb(0,0,178)" stroke-width="0.1"/>
  <path d="M 69.15665549999994,20.497338000000013 L 68.31865549999998,19.247338000000013" fill="none" instance-id="-1" semantic-id="35" stroke="rgb(0,0,178)" stroke-width="0.1"/>
  <path d="M 76.62265549999995,15.46733800000004 L 75.78465549999999,14.227338000000032" fill="none" instance-id="-1" semantic-id="35" stroke="rgb(0,0,178)" stroke-width="0.1"/>
  <path d="M 86.39165549999996,59.527337999999986 L 56.79265549999991,15.557337999999959" fill="none" instance-id="-1" semantic-id="35" stroke="rgb(0,0,178)" stroke-width="0.1"/>
  <path d="M 56.79265549999991,15.557337999999959 L 36.88365549999992,28.96733800000004" fill="none" instance-id="-1" semantic-id="35" stroke="rgb(0,0,178)" stroke-width="0.1"/>
  <path d="M 36.88365549999992,28.96733800000004 L 66.48265549999996,72.92733799999985" fill="none" instance-id="-1" semantic-id="35" stroke="rgb(0,0,178)" stroke-width="0.1"/>
  <path d="M 44.821655499999906,36.277337999999986 L 48.968655499999954,33.48733800000002" fill="none" instance-id="-1" semantic-id="35" stroke="rgb(0,0,178)" stroke-width="0.1"/>
  <path d="M 56.43465549999996,28.45733800000005 L 60.58265549999999,25.66733799999986" fill="none" instance-id="-1" semantic-id="35" stroke="rgb(0,0,178)" stroke-width="0.1"/>
  <path d="M 45.1006554999999,36.68733799999984 L 49.24865549999993,33.89733799999988" fill="none" instance-id="-1" semantic-id="35" stroke="rgb(0,0,178)" stroke-width="0.1"/>
  <path d="M 56.71365549999996,28.867337999999904 L 60.86165549999998,26.07733799999994" fill="none" instance-id="-1" semantic-id="35" stroke="rgb(0,0,178)" stroke-width="0.1"/>
  <path d="M 44.26265549999994,35.44733800000006 L 48.41065549999996,32.65733799999987" fill="none" instance-id="-1" semantic-id="35" stroke="rgb(0,0,178)" stroke-width="0.1"/>
  <path d="M 55.87665549999997,27.627337999999895 L 60.023655499999904,24.83733799999993" fill="none" instance-id="-1" semantic-id="35" stroke="rgb(0,0,178)" stroke-width="0.1"/>
  <path d="M 44.26265549999994,35.44733800000006 L 45.1006554999999,36.68733799999984" fill="none" instance-id="-1" semantic-id="35" stroke="rgb(0,0,178)" stroke-width="0.1"/>
  <path d="M 60.023655499999904,24.83733799999993 L 60.86165549999998,26.07733799999994" fill="none" instance-id="-1" semantic-id="35" stroke="rgb(0,0,178)" stroke-width="0.1"/>
  <path d="M 49.24865549999993,33.89733799999988 L 48.41065549999996,32.65733799999987" fill="none" instance-id="-1" semantic-id="35" stroke="rgb(0,0,178)" stroke-width="0.1"/>
  <path d="M 56.71365549999996,28.867337999999904 L 55.87665549999997,27.627337999999895" fill="none" instance-id="-1" semantic-id="35" stroke="rgb(0,0,178)" stroke-width="0.1"/>
 </g>
 <g id="layerA-车位-lx" inkscape:groupmode="layer" inkscape:label="A-车位-lx">
  <path d="M 100.0,93.33077993470636 L 86.03746771651333,100.00000000000011" fill="none" stroke="rgb(0,178,0)" stroke-width="0.1"/>
  <path d="M 79.11265549999996,94.1273379999999 L 87.88565549999998,99.1173379999999" fill="none" stroke="rgb(0,178,0)" stroke-width="0.1"/>
  <path d="M 87.88565549999998,99.1173379999999 L 87.99772976593408,100.00000000000011" fill="none" stroke="rgb(0,178,0)" stroke-width="0.1"/>
  <path d="M 77.23765549999996,95.3773379999999 L 85.34857824520031,100.00000000000011" fill="none" stroke="rgb(0,178,0)" stroke-width="0.1"/>
  <path d="M 77.23765549999996,95.3773379999999 L 79.11265549999996,94.1273379999999" fill="none" stroke="rgb(0,178,0)" stroke-width="0.1"/>
 </g>
 <g id="layerA-车位-text" inkscape:groupmode="layer" inkscape:label="A-车位-text">
  <text fill="rgb(178,88,0)" font-family="Noto Sans CJK SC" font-size="2" transform="rotate(-0.0,23.26565549999998,63.20733800000005)" x="23.26565549999998" y="63.20733800000005">
   A-137
  </text>
  <text fill="rgb(178,88,0)" font-family="Noto Sans CJK SC" font-size="2" transform="rotate(-0.0,55.19165549999991,46.767337999999995)" x="55.19165549999991" y="46.767337999999995">
   A-138
  </text>
  <text fill="rgb(178,88,0)" font-family="Noto Sans CJK SC" font-size="2" transform="rotate(-0.0,73.43465549999996,35.007338000000004)" x="73.43465549999996" y="35.007338000000004">
   A-139
  </text>
  <text fill="rgb(178,88,0)" font-family="Noto Sans CJK SC" font-size="2" transform="rotate(-0.0,45.77565549999997,9.517337999999995)" x="45.77565549999997" y="9.517337999999995">
   A-140
  </text>
 </g>
 <g id="layerCOLUMN" inkscape:groupmode="layer" inkscape:label="COLUMN">
  <path d="M 11.032655499999919,46.96733800000004 L 32.6006554999999,32.44733800000006" fill="none" instance-id="-1" semantic-id="1" stroke="rgb(178,178,0)" stroke-width="0.1"/>
  <path d="M 16.026655499999947,47.22733800000003 L 36.7646555,33.257338000000004" fill="none" instance-id="-1" semantic-id="1" stroke="rgb(178,178,0)" stroke-width="0.1"/>
  <path d="M 32.6006554999999,32.44733800000006 L 18.08065549999992,10.877337999999895" fill="none" instance-id="-1" semantic-id="1" stroke="rgb(178,178,0)" stroke-width="0.1"/>
  <path d="M 36.7646555,33.257338000000004 L 20.568655499999977,9.207337999999936" fill="none" instance-id="-1" semantic-id="1" stroke="rgb(178,178,0)" stroke-width="0.1"/>
  <path d="M 0.0,56.803328365927996 L 8.83165550000001,50.85733799999991" fill="none" instance-id="-1" semantic-id="1" stroke="rgb(178,178,0)" stroke-width="0.1"/>
  <path d="M 0.0,64.0394188255508 L 12.18265550000001,55.83733799999993" fill="none" instance-id="-1" semantic-id="1" stroke="rgb(178,178,0)" stroke-width="0.1"/>
  <path d="M 0.0,19.435979571846133 L 17.648655499999904,7.557337999999959" fill="none" instance-id="-1" semantic-id="1" stroke="rgb(178,178,0)" stroke-width="0.1"/>
  <path d="M 0.0,23.05329723808211 L 18.08065549999992,10.877337999999895" fill="none" instance-id="-1" semantic-id="1" stroke="rgb(178,178,0)" stroke-width="0.1"/>
  <path d="M 17.648655499999904,7.557337999999959 L 28.873062767580564,0.0" fill="none" instance-id="-1" semantic-id="1" stroke="rgb(178,178,0)" stroke-width="0.1"/>
  <path d="M 20.568655499999977,9.207337999999936 L 34.24389919568864,0.0" fill="none" instance-id="-1" semantic-id="1" stroke="rgb(178,178,0)" stroke-width="0.1"/>
  <path d="M 81.86265549999996,8.927337999999963 L 88.49865549999993,4.457337999999936" fill="none" stroke="rgb(178,178,0)" stroke-width="0.1"/>
  <path d="M 88.49865549999993,4.457337999999936 L 85.49482651297137,0.0" fill="none" stroke="rgb(178,178,0)" stroke-width="0.1"/>
  <path d="M 80.79796827309406,0.0 L 77.3946555,2.287337999999977" fill="none" stroke="rgb(178,178,0)" stroke-width="0.1"/>
  <path d="M 77.3946555,2.287337999999977 L 81.86265549999996,8.927337999999963" fill="none" stroke="rgb(178,178,0)" stroke-width="0.1"/>
  <path d="M 12.18265550000001,55.83733799999993 L 18.818655499999977,51.367337999999904" fill="none" instance-id="-1" semantic-id="1" stroke="rgb(178,178,0)" stroke-width="0.1"/>
  <path d="M 18.818655499999977,51.367337999999904 L 14.350655499999903,44.73733800000002" fill="none" instance-id="-1" semantic-id="1" stroke="rgb(178,178,0)" stroke-width="0.1"/>
  <path d="M 14.350655499999903,44.73733800000002 L 7.714655499999935,49.20733800000005" fill="none" instance-id="-1" semantic-id="1" stroke="rgb(178,178,0)" stroke-width="0.1"/>
  <path d="M 7.714655499999935,49.20733800000005 L 12.18265550000001,55.83733799999993" fill="none" instance-id="-1" semantic-id="1" stroke="rgb(178,178,0)" stroke-width="0.1"/>
 </g>
 <g id="layerDIM_IDEN" inkscape:groupmode="layer" inkscape:label="DIM_IDEN">
  <path d="M 1.0776554999999917,42.68733799999984 L 0.0,41.086639577395886" fill="none" stroke="rgb(0,178,0)" stroke-width="0.1"/>
 </g>
 <g id="layerPUB_HATCH" inkscape:groupmode="layer" inkscape:label="PUB_HATCH">
  <path d="M 11.032655499999919,46.96733800000004 L 14.350655499999903,44.73733800000002" fill="none" instance-id="-1" semantic-id="1" stroke="rgb(63,63,63)" stroke-width="0.1"/>
  <path d="M 14.350655499999903,44.73733800000002 L 16.026655499999947,47.22733800000003" fill="none" instance-id="-1" semantic-id="1" stroke="rgb(63,63,63)" stroke-width="0.1"/>
  <path d="M 16.026655499999947,47.22733800000003 L 36.7646555,33.257338000000004" fill="none" instance-id="-1" semantic-id="1" stroke="rgb(63,63,63)" stroke-width="0.1"/>
  <path d="M 36.7646555,33.257338000000004 L 32.6006554999999,32.44733800000006" fill="none" instance-id="-1" semantic-id="1" stroke="rgb(63,63,63)" stroke-width="0.1"/>
  <path d="M 32.6006554999999,32.44733800000006 L 11.032655499999919,46.96733800000004" fill="none" instance-id="-1" semantic-id="1" stroke="rgb(63,63,63)" stroke-width="0.1"/>
  <path d="M 32.6006554999999,32.44733800000006 L 36.7646555,33.257338000000004" fill="none" instance-id="-1" semantic-id="1" stroke="rgb(63,63,63)" stroke-width="0.1"/>
  <path d="M 36.7646555,33.257338000000004 L 20.568655499999977,9.207337999999936" fill="none" instance-id="-1" semantic-id="1" stroke="rgb(63,63,63)" stroke-width="0.1"/>
  <path d="M 20.568655499999977,9.207337999999936 L 18.76565549999998,9.217337999999927" fill="none" instance-id="-1" semantic-id="1" stroke="rgb(63,63,63)" stroke-width="0.1"/>
  <path d="M 18.76565549999998,9.217337999999927 L 18.08065549999992,10.877337999999895" fill="none" instance-id="-1" semantic-id="1" stroke="rgb(63,63,63)" stroke-width="0.1"/>
  <path d="M 18.08065549999992,10.877337999999895 L 32.6006554999999,32.44733800000006" fill="none" instance-id="-1" semantic-id="1" stroke="rgb(63,63,63)" stroke-width="0.1"/>
  <path d="M 0.0,64.0394188255508 L 12.18265550000001,55.83733799999993" fill="none" instance-id="-1" semantic-id="1" stroke="rgb(63,63,63)" stroke-width="0.1"/>
  <path d="M 12.18265550000001,55.83733799999993 L 8.83165550000001,50.85733799999991" fill="none" instance-id="-1" semantic-id="1" stroke="rgb(63,63,63)" stroke-width="0.1"/>
  <path d="M 8.83165550000001,50.85733799999991 L 0.0,56.803328365927996" fill="none" instance-id="-1" semantic-id="1" stroke="rgb(63,63,63)" stroke-width="0.1"/>
  <path d="M 0.0,23.05329723808211 L 18.08065549999992,10.877337999999895" fill="none" instance-id="-1" semantic-id="1" stroke="rgb(63,63,63)" stroke-width="0.1"/>
  <path d="M 18.08065549999992,10.877337999999895 L 18.76565549999998,9.217337999999927" fill="none" instance-id="-1" semantic-id="1" stroke="rgb(63,63,63)" stroke-width="0.1"/>
  <path d="M 18.76565549999998,9.217337999999927 L 17.648655499999904,7.557337999999959" fill="none" instance-id="-1" semantic-id="1" stroke="rgb(63,63,63)" stroke-width="0.1"/>
  <path d="M 17.648655499999904,7.557337999999959 L 0.0,19.435979571846133" fill="none" instance-id="-1" semantic-id="1" stroke="rgb(63,63,63)" stroke-width="0.1"/>
  <path d="M 18.76565549999998,9.217337999999927 L 20.568655499999977,9.207337999999936" fill="none" instance-id="-1" semantic-id="1" stroke="rgb(63,63,63)" stroke-width="0.1"/>
  <path d="M 20.568655499999977,9.207337999999936 L 34.24389919568864,0.0" fill="none" instance-id="-1" semantic-id="1" stroke="rgb(63,63,63)" stroke-width="0.1"/>
  <path d="M 28.873062767580564,0.0 L 17.648655499999904,7.557337999999959" fill="none" instance-id="-1" semantic-id="1" stroke="rgb(63,63,63)" stroke-width="0.1"/>
  <path d="M 17.648655499999904,7.557337999999959 L 18.76565549999998,9.217337999999927" fill="none" instance-id="-1" semantic-id="1" stroke="rgb(63,63,63)" stroke-width="0.1"/>
 </g>
 <g id="layerPUB_TEXT" inkscape:groupmode="layer" inkscape:label="PUB_TEXT">
  <text fill="rgb(0,0,0)" font-family="Noto Sans CJK SC" font-size="2" transform="rotate(-34.0,1.4646554999999353,36.35733799999991)" x="1.4646554999999353" y="36.35733799999991">
   LTA15
  </text>
 </g>
 <g id="layers-消火栓" inkscape:groupmode="layer" inkscape:label="s-消火栓">
  <path d="M 24.321655499999906,41.637337999999886 L 19.85565550000001,47.53733799999998" fill="none" stroke="rgb(178,88,0)" stroke-width="0.1"/>
  <path d="M 26.736655499999983,23.737338000000022 L 28.65465549999999,30.887337999999886" fill="none" stroke="rgb(178,88,0)" stroke-width="0.1"/>
  <path d="M 25.661655499999938,43.627337999999895 L 19.85565550000001,47.53733799999998" fill="none" stroke="rgb(178,88,0)" stroke-width="0.1"/>
  <path d="M 19.85565550000001,47.53733799999998 L 18.514655500000003,45.54733799999997" fill="none" stroke="rgb(178,88,0)" stroke-width="0.1"/>
  <path d="M 18.514655500000003,45.54733799999997 L 24.321655499999906,41.637337999999886" fill="none" stroke="rgb(178,88,0)" stroke-width="0.1"/>
  <path d="M 24.321655499999906,41.637337999999886 L 25.661655499999938,43.627337999999895" fill="none" stroke="rgb(178,88,0)" stroke-width="0.1"/>
  <path d="M 24.745655499999998,25.07733799999994 L 28.65465549999999,30.887337999999886" fill="none" stroke="rgb(178,88,0)" stroke-width="0.1"/>
  <path d="M 28.65465549999999,30.887337999999886 L 30.645655499999975,29.547337999999968" fill="none" stroke="rgb(178,88,0)" stroke-width="0.1"/>
  <path d="M 30.645655499999975,29.547337999999968 L 26.736655499999983,23.737338000000022" fill="none" stroke="rgb(178,88,0)" stroke-width="0.1"/>
  <path d="M 26.736655499999983,23.737338000000022 L 24.745655499999998,25.07733799999994" fill="none" stroke="rgb(178,88,0)" stroke-width="0.1"/>
  <path d="M 18.514655500000003,45.54733799999997 L 19.85565550000001,47.53733799999998" fill="none" stroke="rgb(178,88,0)" stroke-width="0.1"/>
  <path d="M 19.85565550000001,47.53733799999998 L 24.321655499999906,41.637337999999886" fill="none" stroke="rgb(178,88,0)" stroke-width="0.1"/>
  <path d="M 24.321655499999906,41.637337999999886 L 18.514655500000003,45.54733799999997" fill="none" stroke="rgb(178,88,0)" stroke-width="0.1"/>
  <path d="M 26.736655499999983,23.737338000000022 L 28.65465549999999,30.887337999999886" fill="none" stroke="rgb(178,88,0)" stroke-width="0.1"/>
  <path d="M 28.65465549999999,30.887337999999886 L 30.645655499999975,29.547337999999968" fill="none" stroke="rgb(178,88,0)" stroke-width="0.1"/>
  <path d="M 30.645655499999975,29.547337999999968 L 26.736655499999983,23.737338000000022" fill="none" stroke="rgb(178,88,0)" stroke-width="0.1"/>
  <circle cx="17.774655499999994" cy="47.49733800000001" fill="none" r="0.6" stroke="rgb(178,178,0)" stroke-width="0.1"/>
  <circle cx="30.600655499999903" cy="31.627337999999895" fill="none" r="0.6" stroke="rgb(178,178,0)" stroke-width="0.1"/>
 </g>
</svg>