<?xml version="1.0" encoding="utf-8"?>
<svg style="background-color: #000;" version="1.1" viewBox="0 0 100.0 100.0" xmlns="http://www.w3.org/2000/svg" xmlns:inkscape="http://www.inkscape.org/namespaces/inkscape">
 <g id="layer0-结构边线" inkscape:groupmode="layer" inkscape:label="0-结构边线">
  <path d="M 25.546655499999986,78.91733799999997 L 32.18265549999995,74.4493379999999" fill="none" stroke="rgb(178,0,178)" stroke-width="0.1"/>
  <path d="M 32.18265549999995,74.4493379999999 L 27.714655499999935,67.81333799999993" fill="none" stroke="rgb(178,0,178)" stroke-width="0.1"/>
  <path d="M 21.078655499999968,72.281338 L 27.714655499999935,67.81333799999993" fill="none" stroke="rgb(178,0,178)" stroke-width="0.1"/>
  <path d="M 25.546655499999986,78.91733799999997 L 21.078655499999968,72.281338" fill="none" stroke="rgb(178,0,178)" stroke-width="0.1"/>
  <path d="M 95.22565549999996,32.00533799999994 L 100.0,28.790785374020402" fill="none" stroke="rgb(178,0,178)" stroke-width="0.1"/>
  <path d="M 100.0,24.77173560510414 L 97.39465549999994,20.901337999999896" fill="none" stroke="rgb(178,0,178)" stroke-width="0.1"/>
  <path d="M 90.75765549999994,25.368337999999994 L 97.39465549999994,20.901337999999896" fill="none" stroke="rgb(178,0,178)" stroke-width="0.1"/>
  <path d="M 95.22565549999996,32.00533799999994 L 90.75765549999994,25.368337999999994" fill="none" stroke="rgb(178,0,178)" stroke-width="0.1"/>
 </g>
 <g id="layerA-车位" inkscape:groupmode="layer" inkscape:label="A-车位">
  <path d="M 100.0,21.190032907595878 L 90.11765549999996,6.51133799999991" fill="none" instance-id="-1" semantic-id="35" stroke="rgb(0,0,178)" stroke-width="0.1"/>
  <path d="M 89.28765549999997,7.0703379999999925 L 100.0,22.9810332519005" fill="none" instance-id="-1" semantic-id="35" stroke="rgb(0,0,178)" stroke-width="0.1"/>
  <path d="M 0.0,86.63243921427363 L 8.99988170721025,100.0" fill="none" instance-id="-1" semantic-id="35" stroke="rgb(0,0,178)" stroke-width="0.1"/>
  <path d="M 37.93232490082789,100.0 L 10.898655499999961,59.846337999999946" fill="none" instance-id="-1" semantic-id="35" stroke="rgb(0,0,178)" stroke-width="0.1"/>
  <path d="M 32.55965549999996,96.4973379999999 L 28.41265549999997,99.28933799999993" fill="none" instance-id="-1" semantic-id="35" stroke="rgb(0,0,178)" stroke-width="0.1"/>
  <path d="M 32.280655499999966,96.08233799999994 L 28.13265549999994,98.87433799999997" fill="none" instance-id="-1" semantic-id="35" stroke="rgb(0,0,178)" stroke-width="0.1"/>
  <path d="M 33.11865549999993,97.32633799999996 L 29.14788930737552,100.0" fill="none" instance-id="-1" semantic-id="35" stroke="rgb(0,0,178)" stroke-width="0.1"/>
  <path d="M 33.11865549999993,97.32633799999996 L 32.280655499999966,96.08233799999994" fill="none" instance-id="-1" semantic-id="35" stroke="rgb(0,0,178)" stroke-width="0.1"/>
  <path d="M 28.13265549999994,98.87433799999997 L 28.890330002811254,100.0" fill="none" instance-id="-1" semantic-id="35" stroke="rgb(0,0,178)" stroke-width="0.1"/>
  <path d="M 8.99988170721025,100.0 L 0.0,86.63243921427363" fill="none" instance-id="-1" semantic-id="35" stroke="rgb(0,0,178)" stroke-width="0.1"/>
  <path d="M 60.669655499999976,26.33733799999993 L 90.26865549999997,70.30233799999996" fill="none" instance-id="-1" semantic-id="35" stroke="rgb(0,0,178)" stroke-width="0.1"/>
  <path d="M 90.26865549999997,70.30233799999996 L 100.0,63.75058041910688" fill="none" instance-id="-1" semantic-id="35" stroke="rgb(0,0,178)" stroke-width="0.1"/>
  <path d="M 100.0,41.7817688647973 L 80.57765549999993,12.934337999999912" fill="none" instance-id="-1" semantic-id="35" stroke="rgb(0,0,178)" stroke-width="0.1"/>
  <path d="M 100.0,51.092839966248675 L 98.09165549999994,52.377337999999895" fill="none" instance-id="-1" semantic-id="35" stroke="rgb(0,0,178)" stroke-width="0.1"/>
  <path d="M 90.62665549999997,57.40333799999996 L 86.47865549999995,60.19633799999997" fill="none" instance-id="-1" semantic-id="35" stroke="rgb(0,0,178)" stroke-width="0.1"/>
  <path d="M 100.0,50.49004633076174 L 97.81265549999995,51.96233799999993" fill="none" instance-id="-1" semantic-id="35" stroke="rgb(0,0,178)" stroke-width="0.1"/>
  <path d="M 90.34665549999994,56.989337999999975 L 86.19965549999995,59.781338000000005" fill="none" instance-id="-1" semantic-id="35" stroke="rgb(0,0,178)" stroke-width="0.1"/>
  <path d="M 100.0,52.29855594345304 L 98.65065549999997,53.207337999999936" fill="none" instance-id="-1" semantic-id="35" stroke="rgb(0,0,178)" stroke-width="0.1"/>
  <path d="M 91.18465549999996,58.233338 L 87.03765549999997,61.02533799999992" fill="none" instance-id="-1" semantic-id="35" stroke="rgb(0,0,178)" stroke-width="0.1"/>
  <path d="M 87.03765549999997,61.02533799999992 L 86.19965549999995,59.781338000000005" fill="none" instance-id="-1" semantic-id="35" stroke="rgb(0,0,178)" stroke-width="0.1"/>
  <path d="M 97.81265549999995,51.96233799999993 L 98.65065549999997,53.207337999999936" fill="none" instance-id="-1" semantic-id="35" stroke="rgb(0,0,178)" stroke-width="0.1"/>
  <path d="M 90.34665549999994,56.989337999999975 L 91.18465549999996,58.233338" fill="none" instance-id="-1" semantic-id="35" stroke="rgb(0,0,178)" stroke-width="0.1"/>
  <path d="M 40.76165549999996,39.74133799999993 L 70.36065549999995,83.70533799999998" fill="none" instance-id="-1" semantic-id="35" stroke="rgb(0,0,178)" stroke-width="0.1"/>
  <path d="M 70.36065549999995,83.70533799999998 L 90.26865549999997,70.30233799999996" fill="none" instance-id="-1" semantic-id="35" stroke="rgb(0,0,178)" stroke-width="0.1"/>
  <path d="M 90.26865549999997,70.30233799999996 L 60.669655499999976,26.33733799999993" fill="none" instance-id="-1" semantic-id="35" stroke="rgb(0,0,178)" stroke-width="0.1"/>
  <path d="M 82.33065549999998,62.988338 L 78.18365549999999,65.78033799999992" fill="none" instance-id="-1" semantic-id="35" stroke="rgb(0,0,178)" stroke-width="0.1"/>
  <path d="M 70.71765549999998,70.80733799999996 L 66.57065549999999,73.59933799999999" fill="none" instance-id="-1" semantic-id="35" stroke="rgb(0,0,178)" stroke-width="0.1"/>
  <path d="M 82.05165549999998,62.57333799999992 L 77.90465549999993,65.36633799999993" fill="none" instance-id="-1" semantic-id="35" stroke="rgb(0,0,178)" stroke-width="0.1"/>
  <path d="M 70.43865549999998,70.392338 L 66.29065549999996,73.18433799999991" fill="none" instance-id="-1" semantic-id="35" stroke="rgb(0,0,178)" stroke-width="0.1"/>
  <path d="M 82.88965549999995,63.818337999999926 L 78.74165549999998,66.61033799999996" fill="none" instance-id="-1" semantic-id="35" stroke="rgb(0,0,178)" stroke-width="0.1"/>
  <path d="M 71.27665549999995,71.63633799999991 L 67.12865549999998,74.42933799999992" fill="none" instance-id="-1" semantic-id="35" stroke="rgb(0,0,178)" stroke-width="0.1"/>
  <path d="M 82.88965549999995,63.818337999999926 L 82.05165549999998,62.57333799999992" fill="none" instance-id="-1" semantic-id="35" stroke="rgb(0,0,178)" stroke-width="0.1"/>
  <path d="M 67.12865549999998,74.42933799999992 L 66.29065549999996,73.18433799999991" fill="none" instance-id="-1" semantic-id="35" stroke="rgb(0,0,178)" stroke-width="0.1"/>
  <path d="M 77.90465549999993,65.36633799999993 L 78.74165549999998,66.61033799999996" fill="none" instance-id="-1" semantic-id="35" stroke="rgb(0,0,178)" stroke-width="0.1"/>
  <path d="M 70.43865549999998,70.392338 L 71.27665549999995,71.63633799999991" fill="none" instance-id="-1" semantic-id="35" stroke="rgb(0,0,178)" stroke-width="0.1"/>
  <path d="M 20.85265549999997,53.14433799999995 L 50.45165549999996,97.10933799999998" fill="none" instance-id="-1" semantic-id="35" stroke="rgb(0,0,178)" stroke-width="0.1"/>
  <path d="M 50.45165549999996,97.10933799999998 L 70.36065549999995,83.70533799999998" fill="none" instance-id="-1" semantic-id="35" stroke="rgb(0,0,178)" stroke-width="0.1"/>
  <path d="M 70.36065549999995,83.70533799999998 L 40.76165549999996,39.74133799999993" fill="none" instance-id="-1" semantic-id="35" stroke="rgb(0,0,178)" stroke-width="0.1"/>
  <path d="M 62.42265549999996,76.392338 L 58.27465549999994,79.18433799999991" fill="none" instance-id="-1" semantic-id="35" stroke="rgb(0,0,178)" stroke-width="0.1"/>
  <path d="M 50.80965549999996,84.21033799999998 L 46.66165549999994,87.00333799999999" fill="none" instance-id="-1" semantic-id="35" stroke="rgb(0,0,178)" stroke-width="0.1"/>
  <path d="M 62.143655499999966,75.97733799999992 L 57.99565549999994,78.76933799999995" fill="none" instance-id="-1" semantic-id="35" stroke="rgb(0,0,178)" stroke-width="0.1"/>
  <path d="M 50.52965549999993,83.7953379999999 L 46.38265549999994,86.58833799999991" fill="none" instance-id="-1" semantic-id="35" stroke="rgb(0,0,178)" stroke-width="0.1"/>
  <path d="M 62.980655499999955,77.22133799999995 L 58.83365549999996,80.01333799999998" fill="none" instance-id="-1" semantic-id="35" stroke="rgb(0,0,178)" stroke-width="0.1"/>
  <path d="M 51.367655499999955,85.0403379999999 L 47.220655499999964,87.83233799999994" fill="none" instance-id="-1" semantic-id="35" stroke="rgb(0,0,178)" stroke-width="0.1"/>
  <path d="M 62.980655499999955,77.22133799999995 L 62.143655499999966,75.97733799999992" fill="none" instance-id="-1" semantic-id="35" stroke="rgb(0,0,178)" stroke-width="0.1"/>
  <path d="M 47.220655499999964,87.83233799999994 L 46.38265549999994,86.58833799999991" fill="none" instance-id="-1" semantic-id="35" stroke="rgb(0,0,178)" stroke-width="0.1"/>
  <path d="M 57.99565549999994,78.76933799999995 L 58.83365549999996,80.01333799999998" fill="none" instance-id="-1" semantic-id="35" stroke="rgb(0,0,178)" stroke-width="0.1"/>
  <path d="M 50.52965549999993,83.7953379999999 L 51.367655499999955,85.0403379999999" fill="none" instance-id="-1" semantic-id="35" stroke="rgb(0,0,178)" stroke-width="0.1"/>
  <path d="M 100.0,84.75598768216832 L 96.97065549999996,80.25633799999991" fill="none" instance-id="-1" semantic-id="35" stroke="rgb(0,0,178)" stroke-width="0.1"/>
  <path d="M 96.97065549999996,80.25633799999991 L 100.0,78.2168410975737" fill="none" instance-id="-1" semantic-id="35" stroke="rgb(0,0,178)" stroke-width="0.1"/>
  <path d="M 67.64563462721014,100.0 L 77.06265549999995,93.66033799999991" fill="none" instance-id="-1" semantic-id="35" stroke="rgb(0,0,178)" stroke-width="0.1"/>
  <path d="M 77.06265549999995,93.66033799999991 L 81.33086711718681,100.0" fill="none" instance-id="-1" semantic-id="35" stroke="rgb(0,0,178)" stroke-width="0.1"/>
  <path d="M 81.33086711718681,100.0 L 77.06265549999995,93.66033799999991" fill="none" instance-id="-1" semantic-id="35" stroke="rgb(0,0,178)" stroke-width="0.1"/>
  <path d="M 77.06265549999995,93.66033799999991 L 96.97065549999996,80.25633799999991" fill="none" instance-id="-1" semantic-id="35" stroke="rgb(0,0,178)" stroke-width="0.1"/>
  <path d="M 96.97065549999996,80.25633799999991 L 100.0,84.75598768216832" fill="none" instance-id="-1" semantic-id="35" stroke="rgb(0,0,178)" stroke-width="0.1"/>
  <path d="M 100.0,90.87463865384609 L 96.61365549999994,93.15533799999992" fill="none" instance-id="-1" semantic-id="35" stroke="rgb(0,0,178)" stroke-width="0.1"/>
  <path d="M 89.14765549999998,98.18133799999998 L 86.44571782951277,100.0" fill="none" instance-id="-1" semantic-id="35" stroke="rgb(0,0,178)" stroke-width="0.1"/>
  <path d="M 100.0,91.47729415047013 L 96.89265549999993,93.5693379999999" fill="none" instance-id="-1" semantic-id="35" stroke="rgb(0,0,178)" stroke-width="0.1"/>
  <path d="M 89.42665549999998,98.59633799999995 L 87.34177501504286,100.0" fill="none" instance-id="-1" semantic-id="35" stroke="rgb(0,0,178)" stroke-width="0.1"/>
  <path d="M 100.0,89.66974449855343 L 96.05465549999997,92.32533799999999" fill="none" instance-id="-1" semantic-id="35" stroke="rgb(0,0,178)" stroke-width="0.1"/>
  <path d="M 88.58865549999996,97.35133799999994 L 84.6559661645183,100.0" fill="none" instance-id="-1" semantic-id="35" stroke="rgb(0,0,178)" stroke-width="0.1"/>
  <path d="M 96.89265549999993,93.5693379999999 L 96.05465549999997,92.32533799999999" fill="none" instance-id="-1" semantic-id="35" stroke="rgb(0,0,178)" stroke-width="0.1"/>
  <path d="M 89.42665549999998,98.59633799999995 L 88.58865549999996,97.35133799999994" fill="none" instance-id="-1" semantic-id="35" stroke="rgb(0,0,178)" stroke-width="0.1"/>
 </g>
 <g id="layerA-车位-lx" inkscape:groupmode="layer" inkscape:label="A-车位-lx">
  <path d="M 0.0,26.763251950325753 L 39.752268526462785,0.0" fill="none" stroke="rgb(0,178,0)" stroke-width="0.1"/>
  <path d="M 52.047715468238096,0.0 L 52.35065549999996,2.3863379999999097" fill="none" stroke="rgb(0,178,0)" stroke-width="0.1"/>
  <path d="M 50.013315382352914,0.0 L 50.47565549999996,3.642337999999995" fill="none" stroke="rgb(0,178,0)" stroke-width="0.1"/>
  <path d="M 50.47565549999996,3.642337999999995 L 52.35065549999996,2.3863379999999097" fill="none" stroke="rgb(0,178,0)" stroke-width="0.1"/>
 </g>
 <g id="layerA-车位-text" inkscape:groupmode="layer" inkscape:label="A-车位-text">
  <text fill="rgb(178,88,0)" font-family="Noto Sans CJK SC" font-size="2" transform="rotate(-0.0,7.4726554999999735,87.58333799999991)" x="7.4726554999999735" y="87.58333799999991">
   A-164
  </text>
  <text fill="rgb(178,88,0)" font-family="Noto Sans CJK SC" font-size="2" transform="rotate(-0.0,36.371655499999974,64.21033799999998)" x="36.371655499999974" y="64.21033799999998">
   A-167
  </text>
  <text fill="rgb(178,88,0)" font-family="Noto Sans CJK SC" font-size="2" transform="rotate(-0.0,52.05065549999995,50.590337999999974)" x="52.05065549999995" y="50.590337999999974">
   A-168
  </text>
  <text fill="rgb(178,88,0)" font-family="Noto Sans CJK SC" font-size="2" transform="rotate(-0.0,72.90565549999997,36.506337999999914)" x="72.90565549999997" y="36.506337999999914">
   A-169
  </text>
 </g>
 <g id="layerCOLUMN" inkscape:groupmode="layer" inkscape:label="COLUMN">
  <path d="M 25.546655499999986,78.91733799999997 L 32.18265549999995,74.4493379999999" fill="none" stroke="rgb(178,178,0)" stroke-width="0.1"/>
  <path d="M 32.18265549999995,74.4493379999999 L 27.714655499999935,67.81333799999993" fill="none" stroke="rgb(178,178,0)" stroke-width="0.1"/>
  <path d="M 27.714655499999935,67.81333799999993 L 21.078655499999968,72.281338" fill="none" stroke="rgb(178,178,0)" stroke-width="0.1"/>
  <path d="M 21.078655499999968,72.281338 L 25.546655499999986,78.91733799999997" fill="none" stroke="rgb(178,178,0)" stroke-width="0.1"/>
  <path d="M 95.22565549999996,32.00533799999994 L 100.0,28.790785374020402" fill="none" stroke="rgb(178,178,0)" stroke-width="0.1"/>
  <path d="M 100.0,24.77173560510414 L 97.39465549999994,20.901337999999896" fill="none" stroke="rgb(178,178,0)" stroke-width="0.1"/>
  <path d="M 97.39465549999994,20.901337999999896 L 90.75765549999994,25.368337999999994" fill="none" stroke="rgb(178,178,0)" stroke-width="0.1"/>
  <path d="M 90.75765549999994,25.368337999999994 L 95.22565549999996,32.00533799999994" fill="none" stroke="rgb(178,178,0)" stroke-width="0.1"/>
 </g>
 <g id="layerS-JSJ" inkscape:groupmode="layer" inkscape:label="S-JSJ">
  <path d="M 75.7022128620759,100.0 L 100.0,83.64150139516335" fill="none" stroke="rgb(0,133,178)" stroke-width="0.1"/>
  <path d="M 70.33123453964544,100.0 L 100.0,80.02537986837592" fill="none" stroke="rgb(0,133,178)" stroke-width="0.1"/>
  <path d="M 100.0,61.94227240026942 L 43.471832545226334,100.0" fill="none" stroke="rgb(0,133,178)" stroke-width="0.1"/>
  <path d="M 100.0,58.3259012831943 L 38.10033915931871,100.0" fill="none" stroke="rgb(0,133,178)" stroke-width="0.1"/>
 </g>
 <g id="layerWALL" inkscape:groupmode="layer" inkscape:label="WALL">
  <path d="M 100.0,72.1894608425149 L 58.692465695452654,100.0" fill="none" instance-id="-1" semantic-id="1" stroke="rgb(178,178,0)" stroke-width="0.1"/>
  <path d="M 100.0,69.77836551371183 L 55.11121894428129,100.0" fill="none" instance-id="-1" semantic-id="1" stroke="rgb(178,178,0)" stroke-width="0.1"/>
 </g>
</svg>