<?xml version="1.0" encoding="utf-8"?>
<svg style="background-color: #000;" version="1.1" viewBox="0 0 100.0 100.0" xmlns="http://www.w3.org/2000/svg" xmlns:inkscape="http://www.inkscape.org/namespaces/inkscape">
 <g id="layer0-结构边线" inkscape:groupmode="layer" inkscape:label="0-结构边线">
  <path d="M 0.0,76.46956355364671 L 5.0456554999999526,73.07233799999995" fill="none" stroke="rgb(178,0,178)" stroke-width="0.1"/>
  <path d="M 5.0456554999999526,73.07233799999995 L 0.5776554999999917,66.43633799999998" fill="none" stroke="rgb(178,0,178)" stroke-width="0.1"/>
  <path d="M 0.0,66.82527181163346 L 0.5776554999999917,66.43633799999998" fill="none" stroke="rgb(178,0,178)" stroke-width="0.1"/>
  <path d="M 58.13465550000001,37.32933799999989 L 64.77065549999998,32.86233799999991" fill="none" stroke="rgb(178,0,178)" stroke-width="0.1"/>
  <path d="M 64.77065549999998,32.86233799999991 L 60.302655500000014,26.225337999999965" fill="none" stroke="rgb(178,0,178)" stroke-width="0.1"/>
  <path d="M 53.66665549999993,30.693337999999926 L 60.302655500000014,26.225337999999965" fill="none" stroke="rgb(178,0,178)" stroke-width="0.1"/>
  <path d="M 58.13465550000001,37.32933799999989 L 53.66665549999993,30.693337999999926" fill="none" stroke="rgb(178,0,178)" stroke-width="0.1"/>
 </g>
 <g id="layerA-车位" inkscape:groupmode="layer" inkscape:label="A-车位">
  <path d="M 90.1736555,68.80233799999996 L 100.0,62.186490349874475" fill="none" instance-id="-1" semantic-id="35" stroke="rgb(0,0,178)" stroke-width="0.1"/>
  <path d="M 100.0,74.84396339922853 L 98.52565549999997,75.83633799999996" fill="none" instance-id="-1" semantic-id="35" stroke="rgb(0,0,178)" stroke-width="0.1"/>
  <path d="M 100.0,75.44723627730878 L 98.80565549999994,76.25133799999992" fill="none" instance-id="-1" semantic-id="35" stroke="rgb(0,0,178)" stroke-width="0.1"/>
  <path d="M 100.0,73.63937612825453 L 97.96765549999998,75.007338" fill="none" instance-id="-1" semantic-id="35" stroke="rgb(0,0,178)" stroke-width="0.1"/>
  <path d="M 97.96765549999998,75.007338 L 98.80565549999994,76.25133799999992" fill="none" instance-id="-1" semantic-id="35" stroke="rgb(0,0,178)" stroke-width="0.1"/>
  <path d="M 90.58865549999996,68.52333799999997 L 100.0,69.25027642486725" fill="none" instance-id="-1" semantic-id="35" stroke="rgb(0,0,178)" stroke-width="0.1"/>
  <path d="M 91.00265549999995,68.243338 L 100.0,81.60708242399642" fill="none" instance-id="-1" semantic-id="35" stroke="rgb(0,0,178)" stroke-width="0.1"/>
  <path d="M 100.0,83.3978535654038 L 90.1736555,68.80233799999996" fill="none" instance-id="-1" semantic-id="35" stroke="rgb(0,0,178)" stroke-width="0.1"/>
  <path d="M 9.913982349946082,100.0 L 0.0,85.27431195763836" fill="none" instance-id="-1" semantic-id="35" stroke="rgb(0,0,178)" stroke-width="0.1"/>
  <path d="M 11.120133619495846,100.0 L 0.0,83.48311004941411" fill="none" instance-id="-1" semantic-id="35" stroke="rgb(0,0,178)" stroke-width="0.1"/>
  <path d="M 89.05665549999992,67.14333799999997 L 100.0,59.775440406460575" fill="none" instance-id="-1" semantic-id="35" stroke="rgb(0,0,178)" stroke-width="0.1"/>
  <path d="M 100.0,38.63289154485915 L 77.9616555,5.898337999999967" fill="none" instance-id="-1" semantic-id="35" stroke="rgb(0,0,178)" stroke-width="0.1"/>
  <path d="M 100.0,47.11729141487808 L 97.29465549999998,48.93933799999991" fill="none" instance-id="-1" semantic-id="35" stroke="rgb(0,0,178)" stroke-width="0.1"/>
  <path d="M 89.82865549999997,53.965337999999974 L 85.68065549999994,56.757338000000004" fill="none" instance-id="-1" semantic-id="35" stroke="rgb(0,0,178)" stroke-width="0.1"/>
  <path d="M 100.0,46.514916147540816 L 97.0146555,48.52433799999994" fill="none" instance-id="-1" semantic-id="35" stroke="rgb(0,0,178)" stroke-width="0.1"/>
  <path d="M 89.54965549999997,53.5503379999999 L 85.40165549999995,56.3433379999999" fill="none" instance-id="-1" semantic-id="35" stroke="rgb(0,0,178)" stroke-width="0.1"/>
  <path d="M 100.0,48.3229701494696 L 97.85265549999997,49.76833799999997" fill="none" instance-id="-1" semantic-id="35" stroke="rgb(0,0,178)" stroke-width="0.1"/>
  <path d="M 90.38665549999996,54.7953379999999 L 86.23965549999991,57.58733799999993" fill="none" instance-id="-1" semantic-id="35" stroke="rgb(0,0,178)" stroke-width="0.1"/>
  <path d="M 86.23965549999991,57.58733799999993 L 85.40165549999995,56.3433379999999" fill="none" instance-id="-1" semantic-id="35" stroke="rgb(0,0,178)" stroke-width="0.1"/>
  <path d="M 97.0146555,48.52433799999994 L 97.85265549999997,49.76833799999997" fill="none" instance-id="-1" semantic-id="35" stroke="rgb(0,0,178)" stroke-width="0.1"/>
  <path d="M 89.54965549999997,53.5503379999999 L 90.38665549999996,54.7953379999999" fill="none" instance-id="-1" semantic-id="35" stroke="rgb(0,0,178)" stroke-width="0.1"/>
  <path d="M 77.13165549999997,6.457337999999936 L 100.0,40.42400983894072" fill="none" instance-id="-1" semantic-id="35" stroke="rgb(0,0,178)" stroke-width="0.1"/>
  <path d="M 89.4716555,66.86433799999998 L 100.0,33.8385081800335" fill="none" instance-id="-1" semantic-id="35" stroke="rgb(0,0,178)" stroke-width="0.1"/>
  <path d="M 89.88565549999998,66.584338 L 58.052655500000014,19.302337999999963" fill="none" instance-id="-1" semantic-id="35" stroke="rgb(0,0,178)" stroke-width="0.1"/>
  <path d="M 57.22365549999995,19.860337999999956 L 89.05665549999992,67.14333799999997" fill="none" instance-id="-1" semantic-id="35" stroke="rgb(0,0,178)" stroke-width="0.1"/>
  <path d="M 8.281655499999943,52.810338 L 37.88065549999999,96.77533799999992" fill="none" instance-id="-1" semantic-id="35" stroke="rgb(0,0,178)" stroke-width="0.1"/>
  <path d="M 37.88065549999999,96.77533799999992 L 57.78965549999998,83.3723379999999" fill="none" instance-id="-1" semantic-id="35" stroke="rgb(0,0,178)" stroke-width="0.1"/>
  <path d="M 57.78965549999998,83.3723379999999 L 28.189655499999958,39.40733799999998" fill="none" instance-id="-1" semantic-id="35" stroke="rgb(0,0,178)" stroke-width="0.1"/>
  <path d="M 49.85165549999999,76.05833799999994 L 45.70365549999997,78.85033799999997" fill="none" instance-id="-1" semantic-id="35" stroke="rgb(0,0,178)" stroke-width="0.1"/>
  <path d="M 38.238655499999936,83.87633799999992 L 34.09065549999991,86.66933799999993" fill="none" instance-id="-1" semantic-id="35" stroke="rgb(0,0,178)" stroke-width="0.1"/>
  <path d="M 49.572655499999996,75.64333799999997 L 45.42465549999997,78.435338" fill="none" instance-id="-1" semantic-id="35" stroke="rgb(0,0,178)" stroke-width="0.1"/>
  <path d="M 37.95865549999996,83.46233799999993 L 33.811655499999915,86.25433799999996" fill="none" instance-id="-1" semantic-id="35" stroke="rgb(0,0,178)" stroke-width="0.1"/>
  <path d="M 50.409655499999985,76.887338 L 46.26265549999994,79.680338" fill="none" instance-id="-1" semantic-id="35" stroke="rgb(0,0,178)" stroke-width="0.1"/>
  <path d="M 38.79665549999993,84.70633799999996 L 34.649655499999994,87.49833799999999" fill="none" instance-id="-1" semantic-id="35" stroke="rgb(0,0,178)" stroke-width="0.1"/>
  <path d="M 50.409655499999985,76.887338 L 49.572655499999996,75.64333799999997" fill="none" instance-id="-1" semantic-id="35" stroke="rgb(0,0,178)" stroke-width="0.1"/>
  <path d="M 34.649655499999994,87.49833799999999 L 33.811655499999915,86.25433799999996" fill="none" instance-id="-1" semantic-id="35" stroke="rgb(0,0,178)" stroke-width="0.1"/>
  <path d="M 45.42465549999997,78.435338 L 46.26265549999994,79.680338" fill="none" instance-id="-1" semantic-id="35" stroke="rgb(0,0,178)" stroke-width="0.1"/>
  <path d="M 37.95865549999996,83.46233799999993 L 38.79665549999993,84.70633799999996" fill="none" instance-id="-1" semantic-id="35" stroke="rgb(0,0,178)" stroke-width="0.1"/>
  <path d="M 28.189655499999958,39.40733799999998 L 57.78965549999998,83.3723379999999" fill="none" instance-id="-1" semantic-id="35" stroke="rgb(0,0,178)" stroke-width="0.1"/>
  <path d="M 57.78965549999998,83.3723379999999 L 77.6976555,69.9683379999999" fill="none" instance-id="-1" semantic-id="35" stroke="rgb(0,0,178)" stroke-width="0.1"/>
  <path d="M 77.6976555,69.9683379999999 L 48.09865549999995,26.00433799999996" fill="none" instance-id="-1" semantic-id="35" stroke="rgb(0,0,178)" stroke-width="0.1"/>
  <path d="M 69.75965550000001,62.65433799999994 L 65.61265549999996,65.44733799999995" fill="none" instance-id="-1" semantic-id="35" stroke="rgb(0,0,178)" stroke-width="0.1"/>
  <path d="M 58.14665549999995,70.4733379999999 L 53.9996554999999,73.26533799999993" fill="none" instance-id="-1" semantic-id="35" stroke="rgb(0,0,178)" stroke-width="0.1"/>
  <path d="M 69.48065550000001,62.24033799999995 L 65.33365549999996,65.03233799999998" fill="none" instance-id="-1" semantic-id="35" stroke="rgb(0,0,178)" stroke-width="0.1"/>
  <path d="M 57.867655499999955,70.05833799999994 L 53.71965549999993,72.85133799999994" fill="none" instance-id="-1" semantic-id="35" stroke="rgb(0,0,178)" stroke-width="0.1"/>
  <path d="M 70.31865549999998,63.48433799999998 L 66.17065549999995,66.2763379999999" fill="none" instance-id="-1" semantic-id="35" stroke="rgb(0,0,178)" stroke-width="0.1"/>
  <path d="M 58.70565549999992,71.30233799999996 L 54.55765550000001,74.09533799999997" fill="none" instance-id="-1" semantic-id="35" stroke="rgb(0,0,178)" stroke-width="0.1"/>
  <path d="M 70.31865549999998,63.48433799999998 L 69.48065550000001,62.24033799999995" fill="none" instance-id="-1" semantic-id="35" stroke="rgb(0,0,178)" stroke-width="0.1"/>
  <path d="M 54.55765550000001,74.09533799999997 L 53.71965549999993,72.85133799999994" fill="none" instance-id="-1" semantic-id="35" stroke="rgb(0,0,178)" stroke-width="0.1"/>
  <path d="M 65.33365549999996,65.03233799999998 L 66.17065549999995,66.2763379999999" fill="none" instance-id="-1" semantic-id="35" stroke="rgb(0,0,178)" stroke-width="0.1"/>
  <path d="M 57.867655499999955,70.05833799999994 L 58.70565549999992,71.30233799999996" fill="none" instance-id="-1" semantic-id="35" stroke="rgb(0,0,178)" stroke-width="0.1"/>
  <path d="M 50.99720509650808,100.0 L 63.3746554999999,91.66733799999997" fill="none" instance-id="-1" semantic-id="35" stroke="rgb(0,0,178)" stroke-width="0.1"/>
  <path d="M 63.3746554999999,91.66733799999997 L 68.9846651109998,100.0" fill="none" instance-id="-1" semantic-id="35" stroke="rgb(0,0,178)" stroke-width="0.1"/>
  <path d="M 68.9846651109998,100.0 L 63.3746554999999,91.66733799999997" fill="none" instance-id="-1" semantic-id="35" stroke="rgb(0,0,178)" stroke-width="0.1"/>
  <path d="M 63.3746554999999,91.66733799999997 L 83.28265549999992,78.26333799999998" fill="none" instance-id="-1" semantic-id="35" stroke="rgb(0,0,178)" stroke-width="0.1"/>
  <path d="M 83.28265549999992,78.26333799999998 L 97.91664750586824,100.0" fill="none" instance-id="-1" semantic-id="35" stroke="rgb(0,0,178)" stroke-width="0.1"/>
  <path d="M 87.0726555,88.36933799999997 L 82.92565549999995,91.16233799999998" fill="none" instance-id="-1" semantic-id="35" stroke="rgb(0,0,178)" stroke-width="0.1"/>
  <path d="M 75.45965549999994,96.18833799999993 L 71.31165549999992,98.98033799999996" fill="none" instance-id="-1" semantic-id="35" stroke="rgb(0,0,178)" stroke-width="0.1"/>
  <path d="M 87.35165549999999,88.78433799999993 L 83.20465549999994,91.57733799999994" fill="none" instance-id="-1" semantic-id="35" stroke="rgb(0,0,178)" stroke-width="0.1"/>
  <path d="M 75.73865549999994,96.6033379999999 L 71.5916555,99.39533799999992" fill="none" instance-id="-1" semantic-id="35" stroke="rgb(0,0,178)" stroke-width="0.1"/>
  <path d="M 86.5146555,87.5403379999999 L 82.36665549999998,90.33233799999994" fill="none" instance-id="-1" semantic-id="35" stroke="rgb(0,0,178)" stroke-width="0.1"/>
  <path d="M 74.90065549999997,95.35933799999998 L 70.75365549999992,98.1513379999999" fill="none" instance-id="-1" semantic-id="35" stroke="rgb(0,0,178)" stroke-width="0.1"/>
  <path d="M 86.5146555,87.5403379999999 L 87.35165549999999,88.78433799999993" fill="none" instance-id="-1" semantic-id="35" stroke="rgb(0,0,178)" stroke-width="0.1"/>
  <path d="M 70.75365549999992,98.1513379999999 L 71.5916555,99.39533799999992" fill="none" instance-id="-1" semantic-id="35" stroke="rgb(0,0,178)" stroke-width="0.1"/>
  <path d="M 83.20465549999994,91.57733799999994 L 82.36665549999998,90.33233799999994" fill="none" instance-id="-1" semantic-id="35" stroke="rgb(0,0,178)" stroke-width="0.1"/>
  <path d="M 75.73865549999994,96.6033379999999 L 74.90065549999997,95.35933799999998" fill="none" instance-id="-1" semantic-id="35" stroke="rgb(0,0,178)" stroke-width="0.1"/>
  <path d="M 90.3176555,69.911338 L 89.20065549999993,68.2523379999999" fill="none" instance-id="-1" semantic-id="35" stroke="rgb(0,0,178)" stroke-width="0.1"/>
  <path d="M 89.20065549999993,68.2523379999999 L 90.85965549999992,67.13533799999993" fill="none" instance-id="-1" semantic-id="35" stroke="rgb(0,0,178)" stroke-width="0.1"/>
  <path d="M 90.85965549999992,67.13533799999993 L 91.97665549999999,68.79433799999993" fill="none" instance-id="-1" semantic-id="35" stroke="rgb(0,0,178)" stroke-width="0.1"/>
  <path d="M 91.97665549999999,68.79433799999993 L 90.3176555,69.911338" fill="none" instance-id="-1" semantic-id="35" stroke="rgb(0,0,178)" stroke-width="0.1"/>
  <path d="M 88.08365549999996,66.5933379999999 L 89.20065549999993,68.2523379999999" fill="none" instance-id="-1" semantic-id="35" stroke="rgb(0,0,178)" stroke-width="0.1"/>
  <path d="M 89.20065549999993,68.2523379999999 L 90.85965549999992,67.13533799999993" fill="none" instance-id="-1" semantic-id="35" stroke="rgb(0,0,178)" stroke-width="0.1"/>
  <path d="M 90.85965549999992,67.13533799999993 L 89.74265549999996,65.47633799999994" fill="none" instance-id="-1" semantic-id="35" stroke="rgb(0,0,178)" stroke-width="0.1"/>
  <path d="M 89.74265549999996,65.47633799999994 L 88.08365549999996,66.5933379999999" fill="none" instance-id="-1" semantic-id="35" stroke="rgb(0,0,178)" stroke-width="0.1"/>
 </g>
 <g id="layerA-车位-lx" inkscape:groupmode="layer" inkscape:label="A-车位-lx">
  <path d="M 0.0,25.234851518136907 L 37.481911738589474,0.0" fill="none" stroke="rgb(0,178,0)" stroke-width="0.1"/>
 </g>
 <g id="layerA-车位-text" inkscape:groupmode="layer" inkscape:label="A-车位-text">
  <text fill="rgb(178,88,0)" font-family="Noto Sans CJK SC" font-size="2" transform="rotate(-0.0,23.138655499999913,69.20533799999998)" x="23.138655499999913" y="69.20533799999998">
   A-145
  </text>
  <text fill="rgb(178,88,0)" font-family="Noto Sans CJK SC" font-size="2" transform="rotate(-0.0,46.03665549999994,56.67633799999999)" x="46.03665549999994" y="56.67633799999999">
   A-146
  </text>
  <text fill="rgb(178,88,0)" font-family="Noto Sans CJK SC" font-size="2" transform="rotate(-0.0,93.6446555,21.332337999999936)" x="93.6446555" y="21.332337999999936">
   A-086-090
  </text>
 </g>
 <g id="layerCOLUMN" inkscape:groupmode="layer" inkscape:label="COLUMN">
  <path d="M 0.0,76.46956355364671 L 5.0456554999999526,73.07233799999995" fill="none" stroke="rgb(178,178,0)" stroke-width="0.1"/>
  <path d="M 5.0456554999999526,73.07233799999995 L 0.5776554999999917,66.43633799999998" fill="none" stroke="rgb(178,178,0)" stroke-width="0.1"/>
  <path d="M 0.5776554999999917,66.43633799999998 L 0.0,66.82527181163346" fill="none" stroke="rgb(178,178,0)" stroke-width="0.1"/>
  <path d="M 58.13465550000001,37.32933799999989 L 64.77065549999998,32.86233799999991" fill="none" stroke="rgb(178,178,0)" stroke-width="0.1"/>
  <path d="M 64.77065549999998,32.86233799999991 L 60.302655500000014,26.225337999999965" fill="none" stroke="rgb(178,178,0)" stroke-width="0.1"/>
  <path d="M 60.302655500000014,26.225337999999965 L 53.66665549999993,30.693337999999926" fill="none" stroke="rgb(178,178,0)" stroke-width="0.1"/>
  <path d="M 53.66665549999993,30.693337999999926 L 58.13465550000001,37.32933799999989" fill="none" stroke="rgb(178,178,0)" stroke-width="0.1"/>
 </g>
 <g id="layerDIM_ELEV" inkscape:groupmode="layer" inkscape:label="DIM_ELEV">
  <path d="M 24.64665549999995,31.114337999999975 L 18.40065549999997,29.894337999999948" fill="none" stroke="rgb(0,178,0)" stroke-width="0.1"/>
  <path d="M 24.64665549999995,31.114337999999975 L 25.865655500000003,24.868337999999994" fill="none" stroke="rgb(0,178,0)" stroke-width="0.1"/>
  <path d="M 18.40065549999997,29.894337999999948 L 42.04165549999993,13.978337999999894" fill="none" stroke="rgb(0,178,0)" stroke-width="0.1"/>
 </g>
 <g id="layerDOOR_FIRE" inkscape:groupmode="layer" inkscape:label="DOOR_FIRE">
  <path d="M 4.757655499999942,70.85433799999998 L 12.22365549999995,65.82833799999992" fill="none" instance-id="1" semantic-id="3" stroke="rgb(0,178,178)" stroke-width="0.1"/>
  <path d="M 5.874655499999903,72.51333799999998 L 13.340655499999912,67.48733799999991" fill="none" instance-id="1" semantic-id="3" stroke="rgb(0,178,178)" stroke-width="0.1"/>
  <path d="M 5.316655499999911,71.68433799999991 L 7.0416554999999335,62.85133799999994" fill="none" instance-id="1" semantic-id="3" stroke="rgb(0,178,178)" stroke-width="0.1"/>
  <path d="M 12.782655499999919,66.65833799999996 A 9.0,9.0 0.0 0,0 7.0416554999999335,62.85133799999994" fill="none" instance-id="1" semantic-id="3" stroke="rgb(0,178,178)" stroke-width="0.1"/>
 </g>
 <g id="layerDOOR_FIRE_TEXT" inkscape:groupmode="layer" inkscape:label="DOOR_FIRE_TEXT">
  <text fill="rgb(0,0,0)" font-family="Noto Sans CJK SC" font-size="2" transform="rotate(-33.9506,10.609655499999917,85.86933799999997)" x="10.609655499999917" y="85.86933799999997">
   FM
  </text>
  <text fill="rgb(0,0,0)" font-family="Noto Sans CJK SC" font-size="2" transform="rotate(-33.9506,13.665655499999957,83.81233799999995)" x="13.665655499999957" y="83.81233799999995">
   甲
  </text>
  <text fill="rgb(0,0,0)" font-family="Noto Sans CJK SC" font-size="2" transform="rotate(-33.9506,16.48765549999996,81.91233799999998)" x="16.48765549999996" y="81.91233799999998">
   0921
  </text>
 </g>
 <g id="layerPUB_TEXT" inkscape:groupmode="layer" inkscape:label="PUB_TEXT">
  <text fill="rgb(0,0,0)" font-family="Noto Sans CJK SC" font-size="2" transform="rotate(-34.0,10.541655499999933,41.304337999999916)" x="10.541655499999933" y="41.304337999999916">
   辆
  </text>
  <text fill="rgb(0,0,0)" font-family="Noto Sans CJK SC" font-size="2" transform="rotate(-33.9506,27.101655499999993,22.137338)" x="27.101655499999993" y="22.137338">
   -9.900
  </text>
 </g>
 <g id="layerS-JSJ" inkscape:groupmode="layer" inkscape:label="S-JSJ">
  <path d="M 83.22749958613053,100.0 L 100.0,88.70790636747086" fill="none" stroke="rgb(0,133,178)" stroke-width="0.1"/>
  <path d="M 77.85587089135834,100.0 L 100.0,85.09139166620355" fill="none" stroke="rgb(0,133,178)" stroke-width="0.1"/>
 </g>
 <g id="layerWALL" inkscape:groupmode="layer" inkscape:label="WALL">
  <path d="M 33.724655499999926,97.76533799999993 L 13.340655499999912,67.48733799999991" fill="none" instance-id="-1" semantic-id="1" stroke="rgb(178,178,0)" stroke-width="0.1"/>
  <path d="M 36.50065549999999,98.30733799999996 L 13.882655499999942,64.71133799999996" fill="none" instance-id="-1" semantic-id="1" stroke="rgb(178,178,0)" stroke-width="0.1"/>
  <path d="M 30.40530082020132,100.0 L 33.724655499999926,97.76533799999993" fill="none" instance-id="-1" semantic-id="1" stroke="rgb(178,178,0)" stroke-width="0.1"/>
  <path d="M 33.98644092573181,100.0 L 36.50065549999999,98.30733799999996" fill="none" instance-id="-1" semantic-id="1" stroke="rgb(178,178,0)" stroke-width="0.1"/>
  <path d="M 13.530684829346228,100.0 L 0.0,79.9025184544904" fill="none" instance-id="-1" semantic-id="1" stroke="rgb(178,178,0)" stroke-width="0.1"/>
  <path d="M 15.941650783812747,100.0 L 0.06865549999997711,76.42333799999994" fill="none" instance-id="-1" semantic-id="1" stroke="rgb(178,178,0)" stroke-width="0.1"/>
  <path d="M 5.0456554999999526,73.07233799999995 L 5.874655499999903,72.51333799999998" fill="none" instance-id="-1" semantic-id="1" stroke="rgb(178,178,0)" stroke-width="0.1"/>
  <path d="M 5.874655499999903,72.51333799999998 L 4.757655499999942,70.85433799999998" fill="none" instance-id="-1" semantic-id="1" stroke="rgb(178,178,0)" stroke-width="0.1"/>
  <path d="M 4.757655499999942,70.85433799999998 L 3.9286554999999908,71.41333799999995" fill="none" instance-id="-1" semantic-id="1" stroke="rgb(178,178,0)" stroke-width="0.1"/>
  <path d="M 13.882655499999942,64.71133799999996 L 12.22365549999995,65.82833799999992" fill="none" instance-id="-1" semantic-id="1" stroke="rgb(178,178,0)" stroke-width="0.1"/>
  <path d="M 12.22365549999995,65.82833799999992 L 13.340655499999912,67.48733799999991" fill="none" instance-id="-1" semantic-id="1" stroke="rgb(178,178,0)" stroke-width="0.1"/>
 </g>
 <g id="layerX-审查意见修改" inkscape:groupmode="layer" inkscape:label="X-审查意见修改">
  <path d="M 0.0,16.751741440674323 L 16.394891449716965,0.0" fill="none" stroke="rgb(0,0,0)" stroke-width="0.1"/>
 </g>
</svg>