<?xml version="1.0" encoding="utf-8"?>
<svg style="background-color: #000;" version="1.1" viewBox="0 0 100.0 100.0" xmlns="http://www.w3.org/2000/svg" xmlns:inkscape="http://www.inkscape.org/namespaces/inkscape">
 <g id="layer!消防-疏散楼梯" inkscape:groupmode="layer" inkscape:label="!消防-疏散楼梯">
  <path d="M 96.29898004968348,0.0 L 87.92865549999996,5.635337999999933" fill="none" stroke="rgb(53,107,0)" stroke-width="0.1"/>
  <path d="M 87.92865549999996,5.635337999999933 L 84.1348043652861,0.0" fill="none" stroke="rgb(53,107,0)" stroke-width="0.1"/>
 </g>
 <g id="layer0-结构边线" inkscape:groupmode="layer" inkscape:label="0-结构边线">
  <path d="M 87.40265549999995,12.016337999999905 L 94.03965549999995,7.548337999999944" fill="none" stroke="rgb(178,0,178)" stroke-width="0.1"/>
  <path d="M 94.03965549999995,7.548337999999944 L 89.57165549999996,0.912337999999977" fill="none" stroke="rgb(178,0,178)" stroke-width="0.1"/>
  <path d="M 82.93565549999997,5.380337999999938 L 89.57165549999996,0.912337999999977" fill="none" stroke="rgb(178,0,178)" stroke-width="0.1"/>
  <path d="M 87.40265549999995,12.016337999999905 L 82.93565549999997,5.380337999999938" fill="none" stroke="rgb(178,0,178)" stroke-width="0.1"/>
 </g>
 <g id="layerAXIS" inkscape:groupmode="layer" inkscape:label="AXIS">
  <path d="M 49.248655499999956,69.04733799999997 L 3.274775352290362,100.0" fill="none" stroke="rgb(0,178,0)" stroke-width="0.1"/>
  <path d="M 1.397257301474049,0.0 L 0.0,0.940718626737862" fill="none" stroke="rgb(0,178,0)" stroke-width="0.1"/>
 </g>
 <g id="layerCOLUMN" inkscape:groupmode="layer" inkscape:label="COLUMN">
  <path d="M 89.20065549999995,41.54733799999997 L 98.41565549999996,55.235337999999956" fill="none" instance-id="-1" semantic-id="1" stroke="rgb(178,178,0)" stroke-width="0.1"/>
  <path d="M 99.22865549999995,51.07133799999997 L 92.52665549999995,41.11633799999993" fill="none" instance-id="-1" semantic-id="1" stroke="rgb(178,178,0)" stroke-width="0.1"/>
  <path d="M 92.52665549999995,41.11633799999993 L 100.0,36.08581248573569" fill="none" instance-id="-1" semantic-id="1" stroke="rgb(178,178,0)" stroke-width="0.1"/>
  <path d="M 100.0,32.46878356570221 L 90.85165549999996,38.628337999999985" fill="none" instance-id="-1" semantic-id="1" stroke="rgb(178,178,0)" stroke-width="0.1"/>
  <path d="M 79.98565549999995,27.860337999999956 L 89.20065549999995,41.54733799999997" fill="none" instance-id="-1" semantic-id="1" stroke="rgb(178,178,0)" stroke-width="0.1"/>
  <path d="M 90.85165549999996,38.628337999999985 L 84.14965549999997,28.673337999999944" fill="none" instance-id="-1" semantic-id="1" stroke="rgb(178,178,0)" stroke-width="0.1"/>
  <path d="M 100.0,50.55199393339353 L 99.22865549999995,51.07133799999997" fill="none" instance-id="-1" semantic-id="1" stroke="rgb(178,178,0)" stroke-width="0.1"/>
  <path d="M 98.41565549999996,55.235337999999956 L 100.0,54.16858253741054" fill="none" instance-id="-1" semantic-id="1" stroke="rgb(178,178,0)" stroke-width="0.1"/>
  <path d="M 92.42865549999996,19.483338000000003 L 79.98565549999995,27.860337999999956" fill="none" instance-id="-1" semantic-id="1" stroke="rgb(178,178,0)" stroke-width="0.1"/>
  <path d="M 84.14965549999997,28.673337999999944 L 94.10465549999995,21.972337999999922" fill="none" instance-id="-1" semantic-id="1" stroke="rgb(178,178,0)" stroke-width="0.1"/>
  <path d="M 91.24665549999995,3.401337999999896 L 96.29874796414927,0.0" fill="none" instance-id="-1" semantic-id="1" stroke="rgb(178,178,0)" stroke-width="0.1"/>
  <path d="M 94.03965549999995,7.548337999999944 L 100.0,3.535483950911498" fill="none" instance-id="-1" semantic-id="1" stroke="rgb(178,178,0)" stroke-width="0.1"/>
  <path d="M 90.71965549999996,9.783337999999958 L 100.0,23.56754738766699" fill="none" instance-id="-1" semantic-id="1" stroke="rgb(178,178,0)" stroke-width="0.1"/>
  <path d="M 85.16765549999997,8.699337999999898 L 100.0,30.729913614407792" fill="none" instance-id="-1" semantic-id="1" stroke="rgb(178,178,0)" stroke-width="0.1"/>
  <path d="M 84.13369975756063,0.0 L 86.25265549999995,3.1473379999999906" fill="none" instance-id="-1" semantic-id="1" stroke="rgb(178,178,0)" stroke-width="0.1"/>
  <path d="M 79.3109765778764,0.0 L 85.16765549999997,8.699337999999898" fill="none" instance-id="-1" semantic-id="1" stroke="rgb(178,178,0)" stroke-width="0.1"/>
  <path d="M 87.40265549999995,12.016337999999905 L 94.03965549999995,7.548337999999944" fill="none" instance-id="-1" semantic-id="1" stroke="rgb(178,178,0)" stroke-width="0.1"/>
  <path d="M 94.03965549999995,7.548337999999944 L 89.57165549999996,0.912337999999977" fill="none" instance-id="-1" semantic-id="1" stroke="rgb(178,178,0)" stroke-width="0.1"/>
  <path d="M 89.57165549999996,0.912337999999977 L 82.93565549999997,5.380337999999938" fill="none" instance-id="-1" semantic-id="1" stroke="rgb(178,178,0)" stroke-width="0.1"/>
  <path d="M 82.93565549999997,5.380337999999938 L 87.40265549999995,12.016337999999905" fill="none" instance-id="-1" semantic-id="1" stroke="rgb(178,178,0)" stroke-width="0.1"/>
 </g>
 <g id="layerDIM_IDEN" inkscape:groupmode="layer" inkscape:label="DIM_IDEN">
  <path d="M 36.63955549999996,23.260337999999933 L 24.196755499999952,31.637338" fill="none" stroke="rgb(0,178,0)" stroke-width="0.1"/>
  <path d="M 71.18910964929756,0.0 L 36.63955549999996,23.260337999999933" fill="none" stroke="rgb(0,178,0)" stroke-width="0.1"/>
  <path d="M 22.796655499999957,2.699337999999898 L 10.353855499999952,11.076337999999964" fill="none" stroke="rgb(0,178,0)" stroke-width="0.1"/>
  <path d="M 26.8060863127385,0.0 L 22.796655499999957,2.699337999999898" fill="none" stroke="rgb(0,178,0)" stroke-width="0.1"/>
  <circle cx="30.418155499999955" cy="27.449337999999898" fill="none" r="7.5" stroke="rgb(0,178,0)" stroke-width="0.1"/>
 </g>
 <g id="layerPUB_HATCH" inkscape:groupmode="layer" inkscape:label="PUB_HATCH">
  <path d="M 91.24665549999995,3.401337999999896 L 94.03965549999995,7.548337999999944" fill="none" instance-id="-1" semantic-id="1" stroke="rgb(63,63,63)" stroke-width="0.1"/>
  <path d="M 94.03965549999995,7.548337999999944 L 100.0,3.535483950911498" fill="none" instance-id="-1" semantic-id="1" stroke="rgb(63,63,63)" stroke-width="0.1"/>
  <path d="M 96.29874796414927,0.0 L 91.24665549999995,3.401337999999896" fill="none" instance-id="-1" semantic-id="1" stroke="rgb(63,63,63)" stroke-width="0.1"/>
  <path d="M 100.0,23.56754738766699 L 90.71965549999996,9.783337999999958" fill="none" instance-id="-1" semantic-id="1" stroke="rgb(63,63,63)" stroke-width="0.1"/>
  <path d="M 90.71965549999996,9.783337999999958 L 87.40265549999995,12.016337999999905" fill="none" instance-id="-1" semantic-id="1" stroke="rgb(63,63,63)" stroke-width="0.1"/>
  <path d="M 87.40265549999995,12.016337999999905 L 85.16965549999995,8.698337999999922" fill="none" instance-id="-1" semantic-id="1" stroke="rgb(63,63,63)" stroke-width="0.1"/>
  <path d="M 85.16965549999995,8.698337999999922 L 85.16765549999997,8.699337999999898" fill="none" stroke="rgb(63,63,63)" stroke-width="0.1"/>
  <path d="M 85.16765549999997,8.699337999999898 L 100.0,30.729913614407792" fill="none" instance-id="-1" semantic-id="1" stroke="rgb(63,63,63)" stroke-width="0.1"/>
  <path d="M 82.93565549999997,5.380337999999938 L 86.25265549999995,3.1473379999999906" fill="none" instance-id="-1" semantic-id="1" stroke="rgb(63,63,63)" stroke-width="0.1"/>
  <path d="M 86.25265549999995,3.1473379999999906 L 84.13369975756063,0.0" fill="none" instance-id="-1" semantic-id="1" stroke="rgb(63,63,63)" stroke-width="0.1"/>
  <path d="M 79.3109765778764,0.0 L 85.16765549999997,8.699337999999898" fill="none" instance-id="-1" semantic-id="1" stroke="rgb(63,63,63)" stroke-width="0.1"/>
  <path d="M 85.16765549999997,8.699337999999898 L 85.16965549999995,8.698337999999922" fill="none" stroke="rgb(63,63,63)" stroke-width="0.1"/>
  <path d="M 85.16965549999995,8.698337999999922 L 82.93565549999997,5.380337999999938" fill="none" instance-id="-1" semantic-id="1" stroke="rgb(63,63,63)" stroke-width="0.1"/>
 </g>
 <g id="layerPUB_TEXT" inkscape:groupmode="layer" inkscape:label="PUB_TEXT">
  <text fill="rgb(0,0,0)" font-family="Noto Sans CJK SC" font-size="2" transform="rotate(-33.9506,37.06645549999996,21.074337999999898)" x="37.06645549999996" y="21.074337999999898">
   LTA19
  </text>
  <text fill="rgb(0,0,0)" font-family="Noto Sans CJK SC" font-size="2" transform="rotate(-33.9506,51.00265549999996,11.69233799999995)" x="51.00265549999996" y="11.69233799999995">
   详见子项
  </text>
  <text fill="rgb(0,0,0)" font-family="Noto Sans CJK SC" font-size="2" transform="rotate(-33.9506,63.233655499999955,3.457337999999936)" x="63.233655499999955" y="3.457337999999936">
   02
  </text>
  <text fill="rgb(0,0,0)" font-family="Noto Sans CJK SC" font-size="2" transform="rotate(-33.9506,41.317855499999965,27.389337999999952)" x="41.317855499999965" y="27.389337999999952">
   41-
  </text>
  <text fill="rgb(0,0,0)" font-family="Noto Sans CJK SC" font-size="2" transform="rotate(-33.9506,28.560255499999954,27.026337999999896)" x="28.560255499999954" y="27.026337999999896">
   -
  </text>
  <text fill="rgb(0,0,0)" font-family="Noto Sans CJK SC" font-size="2" transform="rotate(-33.9506,30.14985549999996,32.91333799999995)" x="30.14985549999996" y="32.91333799999995">
   019
  </text>
  <text fill="rgb(0,0,0)" font-family="Noto Sans CJK SC" font-size="2" transform="rotate(-33.9506,23.22355549999996,0.5133379999999761)" x="23.22355549999996" y="0.5133379999999761">
   XDT7
  </text>
  <text fill="rgb(0,0,0)" font-family="Noto Sans CJK SC" font-size="2" transform="rotate(-33.9506,27.474955499999965,6.828337999999917)" x="27.474955499999965" y="6.828337999999917">
   42-
  </text>
  <text fill="rgb(0,0,0)" font-family="Noto Sans CJK SC" font-size="2" transform="rotate(-33.9506,14.717455499999957,6.465337999999974)" x="14.717455499999957" y="6.465337999999974">
   -
  </text>
  <text fill="rgb(0,0,0)" font-family="Noto Sans CJK SC" font-size="2" transform="rotate(-33.9506,16.121155499999958,12.336337999999955)" x="16.121155499999958" y="12.336337999999955">
   003
  </text>
 </g>
</svg>