<?xml version="1.0" encoding="utf-8"?>
<svg style="background-color: #000;" version="1.1" viewBox="0 0 100.0 100.0" xmlns="http://www.w3.org/2000/svg" xmlns:inkscape="http://www.inkscape.org/namespaces/inkscape">
 <g id="layer0-结构边线" inkscape:groupmode="layer" inkscape:label="0-结构边线">
  <path d="M 49.89516050000009,47.614745500000026 L 56.531160500000055,43.14674550000001" fill="none" stroke="rgb(178,0,178)" stroke-width="0.1"/>
  <path d="M 56.531160500000055,43.14674550000001 L 52.063160500000095,36.51074550000001" fill="none" stroke="rgb(178,0,178)" stroke-width="0.1"/>
  <path d="M 45.427160500000014,40.97874550000003 L 52.063160500000095,36.51074550000001" fill="none" stroke="rgb(178,0,178)" stroke-width="0.1"/>
  <path d="M 49.89516050000009,47.614745500000026 L 45.427160500000014,40.97874550000003" fill="none" stroke="rgb(178,0,178)" stroke-width="0.1"/>
 </g>
 <g id="layerA-FUR" inkscape:groupmode="layer" inkscape:label="A-FUR">
  <path d="M 0.0,99.52311556924025 L 0.031160500000055436,99.51574550000004" fill="none" stroke="rgb(92,92,92)" stroke-width="0.1"/>
  <path d="M 0.0,99.41767233982415 L 0.19016050000004725,99.45374550000003" fill="none" stroke="rgb(92,92,92)" stroke-width="0.1"/>
  <path d="M 0.8721605000000636,94.46574550000003 L 0.3993573215274182,94.2354940632456" fill="none" stroke="rgb(92,92,92)" stroke-width="0.1"/>
  <path d="M 1.0661605000000236,98.4557455 L 1.3957876039818302,98.05577835925436" fill="none" stroke="rgb(92,92,92)" stroke-width="0.1"/>
  <path d="M 1.3957876039818302,98.05577835925436 L 1.6332474133882897,97.59508260252073" fill="none" stroke="rgb(92,92,92)" stroke-width="0.1"/>
  <path d="M 1.6332474133882897,97.59508260252073 L 1.767770677759927,97.09455165173097" fill="none" stroke="rgb(92,92,92)" stroke-width="0.1"/>
  <path d="M 1.767770677759927,97.09455165173097 L 1.793256513203005,96.57688553003914" fill="none" stroke="rgb(92,92,92)" stroke-width="0.1"/>
  <path d="M 1.793256513203005,96.57688553003914 L 1.7085490889867287,96.0655613729349" fill="none" stroke="rgb(92,92,92)" stroke-width="0.1"/>
  <path d="M 1.7085490889867287,96.0655613729349 L 1.5174900466480494,95.58376869584617" fill="none" stroke="rgb(92,92,92)" stroke-width="0.1"/>
  <path d="M 1.5174900466480494,95.58376869584617 L 1.2287442742981511,95.15335770585432" fill="none" stroke="rgb(92,92,92)" stroke-width="0.1"/>
  <path d="M 1.2287442742981511,95.15335770585432 L 0.855406937596058,94.79384835357001" fill="none" stroke="rgb(92,92,92)" stroke-width="0.1"/>
  <path d="M 0.855406937596058,94.79384835357001 L 0.4144095892738733,94.52154506653787" fill="none" stroke="rgb(92,92,92)" stroke-width="0.1"/>
  <path d="M 0.5554451093435091,98.72332704108459 L 1.0661605000000236,98.4557455" fill="none" stroke="rgb(92,92,92)" stroke-width="0.1"/>
  <path d="M 0.031160500000055436,99.51574550000004 A 3.07148,3.07148 0.0 0,0 2.029160499999989,96.26674550000001" fill="none" stroke="rgb(92,92,92)" stroke-width="0.1"/>
  <path d="M 2.029160499999989,96.26674550000001 A 2.50177,2.50177 0.0 0,0 0.8721605000000636,94.46574550000003" fill="none" stroke="rgb(92,92,92)" stroke-width="0.1"/>
  <path d="M 3.8055575457082114,99.89936509918385 L 3.2830558814673623,99.84141280207757" fill="none" stroke="rgb(92,92,92)" stroke-width="0.1"/>
  <path d="M 3.2830558814673623,99.84141280207757 L 2.7583249377631773,99.873411155062" fill="none" stroke="rgb(92,92,92)" stroke-width="0.1"/>
  <path d="M 2.7583249377631773,99.873411155062 L 2.2467365818141616,99.99442277405649" fill="none" stroke="rgb(92,92,92)" stroke-width="0.1"/>
  <path d="M 60.236160500000096,57.60174550000002 L 12.95216049999999,89.43374550000001" fill="none" instance-id="6" semantic-id="16" stroke="rgb(92,92,92)" stroke-width="0.1"/>
  <path d="M 28.047160500000018,65.40774550000003 L 23.899160499999994,68.1997455" fill="none" instance-id="8" semantic-id="15" stroke="rgb(92,92,92)" stroke-width="0.1"/>
  <path d="M 23.899160499999994,68.1997455 A 2.5000583993179064,2.5000583993179064 0.0 1,0 28.047160500000018,65.40774550000003" fill="none" instance-id="8" semantic-id="15" stroke="rgb(92,92,92)" stroke-width="0.1"/>
  <path d="M 18.09216050000009,72.10874550000003 L 13.945160500000043,74.90174550000003" fill="none" instance-id="7" semantic-id="15" stroke="rgb(92,92,92)" stroke-width="0.1"/>
  <path d="M 13.945160500000043,74.90174550000003 A 2.5,2.5 0.0 1,0 18.09216050000009,72.10874550000003" fill="none" instance-id="7" semantic-id="15" stroke="rgb(92,92,92)" stroke-width="0.1"/>
  <path d="M 38.00116050000008,58.705745500000006 L 33.85316050000006,61.49874550000001" fill="none" instance-id="9" semantic-id="15" stroke="rgb(92,92,92)" stroke-width="0.1"/>
  <path d="M 33.85316050000006,61.49874550000001 A 2.5003376272015867,2.5003376272015867 0.0 1,0 38.00116050000008,58.705745500000006" fill="none" instance-id="9" semantic-id="15" stroke="rgb(92,92,92)" stroke-width="0.1"/>
  <path d="M 47.95616050000001,52.00474550000001 L 43.808160499999985,54.796745500000014" fill="none" instance-id="10" semantic-id="15" stroke="rgb(92,92,92)" stroke-width="0.1"/>
  <path d="M 43.808160499999985,54.796745500000014 A 2.5000583993179144,2.5000583993179144 0.0 1,0 47.95616050000001,52.00474550000001" fill="none" instance-id="10" semantic-id="15" stroke="rgb(92,92,92)" stroke-width="0.1"/>
  <path d="M 50.846160499999996,77.78674550000002 L 46.69916050000006,80.57874550000003" fill="none" instance-id="13" semantic-id="15" stroke="rgb(92,92,92)" stroke-width="0.1"/>
  <path d="M 50.846160499999996,77.78674550000002 A 2.5,2.5 0.0 1,0 46.69916050000006,80.57874550000003" fill="none" instance-id="13" semantic-id="15" stroke="rgb(92,92,92)" stroke-width="0.1"/>
  <path d="M 30.938160500000095,91.18974550000001 L 26.79016050000007,93.98174550000002" fill="none" instance-id="11" semantic-id="15" stroke="rgb(92,92,92)" stroke-width="0.1"/>
  <path d="M 30.938160500000095,91.18974550000001 A 2.5000583993179144,2.5000583993179144 0.0 1,0 26.79016050000007,93.98174550000002" fill="none" instance-id="11" semantic-id="15" stroke="rgb(92,92,92)" stroke-width="0.1"/>
  <path d="M 40.892160500000045,84.48774550000002 L 36.74416050000002,87.28074550000002" fill="none" instance-id="12" semantic-id="15" stroke="rgb(92,92,92)" stroke-width="0.1"/>
  <path d="M 40.892160500000045,84.48774550000002 A 2.5003376272015867,2.5003376272015867 0.0 1,0 36.74416050000002,87.28074550000002" fill="none" instance-id="12" semantic-id="15" stroke="rgb(92,92,92)" stroke-width="0.1"/>
  <path d="M 60.80116050000004,71.08474550000003 L 56.65316050000001,73.87674550000003" fill="none" instance-id="14" semantic-id="15" stroke="rgb(92,92,92)" stroke-width="0.1"/>
  <path d="M 60.80116050000004,71.08474550000003 A 2.5000583993179144,2.5000583993179144 0.0 1,0 56.65316050000001,73.87674550000003" fill="none" instance-id="14" semantic-id="15" stroke="rgb(92,92,92)" stroke-width="0.1"/>
  <path d="M 60.37116050000009,91.96674550000003 L 56.21716050000009,94.75074550000002" fill="none" instance-id="18" semantic-id="15" stroke="rgb(92,92,92)" stroke-width="0.1"/>
  <path d="M 56.21716050000009,94.75074550000002 A 2.500318579701391,2.500318579701391 0.0 1,0 60.37116050000009,91.96674550000003" fill="none" instance-id="18" semantic-id="15" stroke="rgb(92,92,92)" stroke-width="0.1"/>
  <path d="M 70.34016050000002,85.28674550000002 L 66.18616050000003,88.07074550000002" fill="none" instance-id="19" semantic-id="15" stroke="rgb(92,92,92)" stroke-width="0.1"/>
  <path d="M 66.18616050000003,88.07074550000002 A 2.500318579701391,2.500318579701391 0.0 1,0 70.34016050000002,85.28674550000002" fill="none" instance-id="19" semantic-id="15" stroke="rgb(92,92,92)" stroke-width="0.1"/>
  <path d="M 50.402160500000036,98.64674550000001 L 48.38297257147997,100.0" fill="none" stroke="rgb(92,92,92)" stroke-width="0.1"/>
  <path d="M 50.78877182268525,99.61188223062993 L 50.64618614034248,99.10899662160705" fill="none" stroke="rgb(92,92,92)" stroke-width="0.1"/>
  <path d="M 50.64618614034248,99.10899662160705 L 50.402160500000036,98.64674550000001" fill="none" stroke="rgb(92,92,92)" stroke-width="0.1"/>
  <path d="M 11.277160500000036,86.94574550000002 L 58.56016050000005,55.11274550000002" fill="none" instance-id="6" semantic-id="16" stroke="rgb(92,92,92)" stroke-width="0.1"/>
  <path d="M 58.56016050000005,55.11274550000002 L 61.91116050000005,60.08974550000002" fill="none" instance-id="6" semantic-id="16" stroke="rgb(92,92,92)" stroke-width="0.1"/>
  <path d="M 61.91116050000005,60.08974550000002 L 14.627160500000059,91.92274550000002" fill="none" instance-id="6" semantic-id="16" stroke="rgb(92,92,92)" stroke-width="0.1"/>
  <path d="M 14.627160500000059,91.92274550000002 L 11.277160500000036,86.94574550000002" fill="none" instance-id="6" semantic-id="16" stroke="rgb(92,92,92)" stroke-width="0.1"/>
  <path d="M 49.89516050000009,47.614745500000026 L 5.133160500000031,77.81974550000001" fill="none" instance-id="5" semantic-id="16" stroke="rgb(92,92,92)" stroke-width="0.1"/>
  <path d="M 5.133160500000031,77.81974550000001 L 1.7821605000000318,72.8427455" fill="none" instance-id="5" semantic-id="16" stroke="rgb(92,92,92)" stroke-width="0.1"/>
  <path d="M 1.7821605000000318,72.8427455 L 46.54416050000009,42.63774550000002" fill="none" instance-id="5" semantic-id="16" stroke="rgb(92,92,92)" stroke-width="0.1"/>
  <path d="M 46.54416050000009,42.63774550000002 L 49.89516050000009,47.614745500000026" fill="none" stroke="rgb(92,92,92)" stroke-width="0.1"/>
  <path d="M 65.59816050000006,70.93974550000001 L 22.332557907037767,100.0" fill="none" instance-id="15" semantic-id="16" stroke="rgb(92,92,92)" stroke-width="0.1"/>
  <path d="M 33.09263478589469,100.0 L 68.94916050000006,75.91674550000002" fill="none" instance-id="15" semantic-id="16" stroke="rgb(92,92,92)" stroke-width="0.1"/>
  <path d="M 68.94916050000006,75.91674550000002 L 65.59816050000006,70.93974550000001" fill="none" instance-id="15" semantic-id="16" stroke="rgb(92,92,92)" stroke-width="0.1"/>
  <path d="M 0.0,91.68175521877617 L 5.600312488458371,100.0" fill="none" stroke="rgb(92,92,92)" stroke-width="0.1"/>
  <path d="M 72.2891605000001,80.90074550000003 L 43.853098833189506,100.0" fill="none" instance-id="15" semantic-id="16" stroke="rgb(92,92,92)" stroke-width="0.1"/>
  <path d="M 33.09263478589469,100.0 L 68.94916050000006,75.91674550000002" fill="none" instance-id="15" semantic-id="16" stroke="rgb(92,92,92)" stroke-width="0.1"/>
  <path d="M 68.94916050000006,75.91674550000002 L 72.2891605000001,80.90074550000003" fill="none" instance-id="15" semantic-id="16" stroke="rgb(92,92,92)" stroke-width="0.1"/>
 </g>
 <g id="layerCOLUMN" inkscape:groupmode="layer" inkscape:label="COLUMN">
  <path d="M 49.89516050000009,47.614745500000026 L 56.531160500000055,43.14674550000001" fill="none" stroke="rgb(178,178,0)" stroke-width="0.1"/>
  <path d="M 56.531160500000055,43.14674550000001 L 52.063160500000095,36.51074550000001" fill="none" stroke="rgb(178,178,0)" stroke-width="0.1"/>
  <path d="M 52.063160500000095,36.51074550000001 L 45.427160500000014,40.97874550000003" fill="none" stroke="rgb(178,178,0)" stroke-width="0.1"/>
  <path d="M 45.427160500000014,40.97874550000003 L 49.89516050000009,47.614745500000026" fill="none" stroke="rgb(178,178,0)" stroke-width="0.1"/>
 </g>
 <g id="layerDOOR_FIRE" inkscape:groupmode="layer" inkscape:label="DOOR_FIRE">
  <path d="M 70.52316050000002,25.358745500000026 L 65.62216050000006,18.07974550000003" fill="none" instance-id="20" semantic-id="4" stroke="rgb(0,178,178)" stroke-width="0.1"/>
  <path d="M 70.15016050000008,25.60974550000003 L 65.24916050000002,18.330745500000006" fill="none" instance-id="20" semantic-id="4" stroke="rgb(0,178,178)" stroke-width="0.1"/>
  <path d="M 70.52316050000002,25.358745500000026 L 70.15016050000008,25.60974550000003" fill="none" instance-id="20" semantic-id="4" stroke="rgb(0,178,178)" stroke-width="0.1"/>
  <path d="M 65.24916050000002,18.330745500000006 L 65.62216050000006,18.07974550000003" fill="none" instance-id="20" semantic-id="4" stroke="rgb(0,178,178)" stroke-width="0.1"/>
  <path d="M 55.965160500000025,35.159745500000014 L 51.06416050000007,27.880745500000018" fill="none" instance-id="20" semantic-id="4" stroke="rgb(0,178,178)" stroke-width="0.1"/>
  <path d="M 55.5911605,35.41074550000002 L 50.691160500000024,28.131745500000022" fill="none" instance-id="20" semantic-id="4" stroke="rgb(0,178,178)" stroke-width="0.1"/>
  <path d="M 51.06416050000007,27.880745500000018 L 50.691160500000024,28.131745500000022" fill="none" instance-id="20" semantic-id="4" stroke="rgb(0,178,178)" stroke-width="0.1"/>
  <path d="M 55.5911605,35.41074550000002 L 55.965160500000025,35.159745500000014" fill="none" instance-id="20" semantic-id="4" stroke="rgb(0,178,178)" stroke-width="0.1"/>
  <path d="M 65.25016049999999,18.332745500000016 A 8.775,8.775 0.0 0,0 63.05716050000001,30.384745500000008" fill="none" instance-id="20" semantic-id="4" stroke="rgb(0,178,178)" stroke-width="0.1"/>
  <path d="M 63.05716050000001,30.384745500000008 A 8.775,8.775 0.0 0,0 51.066160500000024,27.882745500000027" fill="none" instance-id="20" semantic-id="4" stroke="rgb(0,178,178)" stroke-width="0.1"/>
 </g>
 <g id="layerDOOR_FIRE_TEXT" inkscape:groupmode="layer" inkscape:label="DOOR_FIRE_TEXT">
  <text fill="rgb(0,0,0)" font-family="Noto Sans CJK SC" font-size="2" transform="rotate(-33.9506,60.8171605,44.31774550000003)" x="60.8171605" y="44.31774550000003">
   FM
  </text>
  <text fill="rgb(0,0,0)" font-family="Noto Sans CJK SC" font-size="2" transform="rotate(-33.9506,66.0431605,40.798745500000024)" x="66.0431605" y="40.798745500000024">
   甲
  </text>
  <text fill="rgb(0,0,0)" font-family="Noto Sans CJK SC" font-size="2" transform="rotate(-33.9506,69.10116049999999,38.74074550000003)" x="69.10116049999999" y="38.74074550000003">
   1823
  </text>
 </g>
 <g id="layerWALL" inkscape:groupmode="layer" inkscape:label="WALL">
  <path d="M 53.21316050000007,38.21774550000001 L 56.150160500000084,36.24074550000003" fill="none" instance-id="-1" semantic-id="1" stroke="rgb(178,178,0)" stroke-width="0.1"/>
  <path d="M 56.150160500000084,36.24074550000003 L 55.03316050000001,34.58174550000001" fill="none" instance-id="-1" semantic-id="1" stroke="rgb(178,178,0)" stroke-width="0.1"/>
  <path d="M 55.03316050000001,34.58174550000001 L 52.096160499999996,36.558745500000015" fill="none" instance-id="-1" semantic-id="1" stroke="rgb(178,178,0)" stroke-width="0.1"/>
  <path d="M 100.0,4.307591819490085 L 69.96416050000005,24.528745500000014" fill="none" instance-id="-1" semantic-id="1" stroke="rgb(178,178,0)" stroke-width="0.1"/>
  <path d="M 69.96416050000005,24.528745500000014 L 71.08116050000001,26.187745500000005" fill="none" instance-id="-1" semantic-id="1" stroke="rgb(178,178,0)" stroke-width="0.1"/>
  <path d="M 71.08116050000001,26.187745500000005 L 100.0,6.7185943949842795" fill="none" instance-id="-1" semantic-id="1" stroke="rgb(178,178,0)" stroke-width="0.1"/>
  <path d="M 54.0431605,44.82174550000002 L 87.58416050000005,94.64274550000002" fill="none" instance-id="-1" semantic-id="1" stroke="rgb(178,178,0)" stroke-width="0.1"/>
  <path d="M 52.38416050000001,45.93874550000001 L 85.92516050000006,95.75974550000001" fill="none" instance-id="-1" semantic-id="1" stroke="rgb(178,178,0)" stroke-width="0.1"/>
  <path d="M 87.58416050000005,94.64274550000002 L 91.19063587342157,100.0" fill="none" instance-id="-1" semantic-id="1" stroke="rgb(178,178,0)" stroke-width="0.1"/>
  <path d="M 85.92516050000006,95.75974550000001 L 88.77967738570896,100.0" fill="none" instance-id="-1" semantic-id="1" stroke="rgb(178,178,0)" stroke-width="0.1"/>
  <path d="M 0.0,71.6321639710132 L 45.46016050000003,41.02674550000003" fill="none" instance-id="-1" semantic-id="1" stroke="rgb(178,178,0)" stroke-width="0.1"/>
  <path d="M 0.0,74.04401936856388 L 46.57716049999999,42.685745500000024" fill="none" instance-id="-1" semantic-id="1" stroke="rgb(178,178,0)" stroke-width="0.1"/>
 </g>
 <g id="layerWALL-MOVE" inkscape:groupmode="layer" inkscape:label="WALL-MOVE">
  <path d="M 86.48316050000005,96.58874550000002 L 85.36616050000009,94.92974550000002" fill="none" stroke="rgb(178,0,178)" stroke-width="0.1"/>
 </g>
 <g id="layerWINDOW" inkscape:groupmode="layer" inkscape:label="WINDOW">
  <path d="M 85.78516050000007,95.55174550000001 L 85.80516050000006,96.14174550000001" fill="none" stroke="rgb(0,178,0)" stroke-width="0.1"/>
  <path d="M 85.80516050000006,96.14174550000001 L 85.26716050000005,95.90174550000003" fill="none" stroke="rgb(0,178,0)" stroke-width="0.1"/>
  <path d="M 85.26716050000005,95.90174550000003 L 85.28716050000003,96.49074550000003" fill="none" stroke="rgb(0,178,0)" stroke-width="0.1"/>
  <path d="M 85.28716050000003,96.49074550000003 L 84.74816050000004,96.25074550000002" fill="none" stroke="rgb(0,178,0)" stroke-width="0.1"/>
  <path d="M 84.74816050000004,96.25074550000002 L 84.76816050000002,96.83974550000002" fill="none" stroke="rgb(0,178,0)" stroke-width="0.1"/>
  <path d="M 84.76816050000002,96.83974550000002 L 84.23016050000001,96.59974550000001" fill="none" stroke="rgb(0,178,0)" stroke-width="0.1"/>
  <path d="M 84.23016050000001,96.59974550000001 L 84.25016049999999,97.18874550000001" fill="none" stroke="rgb(0,178,0)" stroke-width="0.1"/>
  <path d="M 84.25016049999999,97.18874550000001 L 83.7111605,96.94874550000003" fill="none" stroke="rgb(0,178,0)" stroke-width="0.1"/>
  <path d="M 83.7111605,96.94874550000003 L 83.73116049999999,97.53774550000003" fill="none" stroke="rgb(0,178,0)" stroke-width="0.1"/>
  <path d="M 83.73116049999999,97.53774550000003 L 83.19316050000009,97.29774550000002" fill="none" stroke="rgb(0,178,0)" stroke-width="0.1"/>
  <path d="M 83.19316050000009,97.29774550000002 L 83.21316050000007,97.88674550000002" fill="none" stroke="rgb(0,178,0)" stroke-width="0.1"/>
  <path d="M 83.21316050000007,97.88674550000002 L 82.67416050000008,97.64674550000001" fill="none" stroke="rgb(0,178,0)" stroke-width="0.1"/>
  <path d="M 82.67416050000008,97.64674550000001 L 82.69416050000007,98.23574550000001" fill="none" stroke="rgb(0,178,0)" stroke-width="0.1"/>
  <path d="M 82.69416050000007,98.23574550000001 L 82.15616050000006,97.99574550000003" fill="none" stroke="rgb(0,178,0)" stroke-width="0.1"/>
  <path d="M 82.15616050000006,97.99574550000003 L 82.17616050000004,98.5847455" fill="none" stroke="rgb(0,178,0)" stroke-width="0.1"/>
  <path d="M 82.17616050000004,98.5847455 L 81.63716050000005,98.34474550000002" fill="none" stroke="rgb(0,178,0)" stroke-width="0.1"/>
 </g>
</svg>