<?xml version="1.0" encoding="utf-8"?>
<svg style="background-color: #000;" version="1.1" viewBox="0 0 100.0 100.0" xmlns="http://www.w3.org/2000/svg" xmlns:inkscape="http://www.inkscape.org/namespaces/inkscape">
 <g id="layer0-排水沟" inkscape:groupmode="layer" inkscape:label="0-排水沟">
  <path d="M 0.0,33.66010566623697 L 6.456160500000038,43.24974550000002" fill="none" stroke="rgb(0,0,178)" stroke-width="0.1"/>
 </g>
 <g id="layer0-结构边线" inkscape:groupmode="layer" inkscape:label="0-结构边线">
  <path d="M 15.90116050000006,46.535745500000075 L 22.537160500000027,42.0677455" fill="none" stroke="rgb(178,0,178)" stroke-width="0.1"/>
  <path d="M 22.537160500000027,42.0677455 L 18.069160500000066,35.431745500000034" fill="none" stroke="rgb(178,0,178)" stroke-width="0.1"/>
  <path d="M 11.433160500000042,39.89874550000002 L 18.069160500000066,35.431745500000034" fill="none" stroke="rgb(178,0,178)" stroke-width="0.1"/>
  <path d="M 15.90116050000006,46.535745500000075 L 11.433160500000042,39.89874550000002" fill="none" stroke="rgb(178,0,178)" stroke-width="0.1"/>
 </g>
 <g id="layer0-金属格栅" inkscape:groupmode="layer" inkscape:label="0-金属格栅">
  <path d="M 13.807160500000066,43.42474549999997 L 11.318160500000033,45.09974550000004" fill="none" stroke="rgb(73,73,73)" stroke-width="0.1"/>
  <path d="M 11.318160500000033,45.09974550000004 L 11.039160500000037,44.68574550000005" fill="none" stroke="rgb(73,73,73)" stroke-width="0.1"/>
  <path d="M 11.039160500000037,44.68574550000005 L 13.527160500000036,43.00974550000001" fill="none" stroke="rgb(73,73,73)" stroke-width="0.1"/>
  <path d="M 13.527160500000036,43.00974550000001 L 13.807160500000066,43.42474549999997" fill="none" stroke="rgb(73,73,73)" stroke-width="0.1"/>
  <path d="M 21.62516050000005,55.03774550000003 L 19.13716050000005,56.71374550000007" fill="none" stroke="rgb(73,73,73)" stroke-width="0.1"/>
  <path d="M 19.13716050000005,56.71374550000007 L 18.858160500000054,56.298745499999995" fill="none" stroke="rgb(73,73,73)" stroke-width="0.1"/>
  <path d="M 18.858160500000054,56.298745499999995 L 21.346160500000053,54.622745500000065" fill="none" stroke="rgb(73,73,73)" stroke-width="0.1"/>
  <path d="M 21.346160500000053,54.622745500000065 L 21.62516050000005,55.03774550000003" fill="none" stroke="rgb(73,73,73)" stroke-width="0.1"/>
  <path d="M 29.444160500000066,66.65074549999997 L 26.956160500000067,68.32674550000002" fill="none" stroke="rgb(73,73,73)" stroke-width="0.1"/>
  <path d="M 26.956160500000067,68.32674550000002 L 26.676160500000037,67.91174550000005" fill="none" stroke="rgb(73,73,73)" stroke-width="0.1"/>
  <path d="M 26.676160500000037,67.91174550000005 L 29.16516050000007,66.23674549999998" fill="none" stroke="rgb(73,73,73)" stroke-width="0.1"/>
  <path d="M 29.16516050000007,66.23674549999998 L 29.444160500000066,66.65074549999997" fill="none" stroke="rgb(73,73,73)" stroke-width="0.1"/>
  <path d="M 37.263160500000026,78.2647455 L 34.77416050000005,79.93974550000007" fill="none" stroke="rgb(73,73,73)" stroke-width="0.1"/>
  <path d="M 34.77416050000005,79.93974550000007 L 34.495160500000054,79.5247455" fill="none" stroke="rgb(73,73,73)" stroke-width="0.1"/>
  <path d="M 34.495160500000054,79.5247455 L 36.98416050000003,77.84974550000004" fill="none" stroke="rgb(73,73,73)" stroke-width="0.1"/>
  <path d="M 36.98416050000003,77.84974550000004 L 37.263160500000026,78.2647455" fill="none" stroke="rgb(73,73,73)" stroke-width="0.1"/>
  <path d="M 45.08116050000007,89.87774550000006 L 42.59316050000007,91.55274550000001" fill="none" stroke="rgb(73,73,73)" stroke-width="0.1"/>
  <path d="M 42.59316050000007,91.55274550000001 L 42.314160500000014,91.13874550000003" fill="none" stroke="rgb(73,73,73)" stroke-width="0.1"/>
  <path d="M 42.314160500000014,91.13874550000003 L 44.802160500000014,89.46274549999998" fill="none" stroke="rgb(73,73,73)" stroke-width="0.1"/>
  <path d="M 44.802160500000014,89.46274549999998 L 45.08116050000007,89.87774550000006" fill="none" stroke="rgb(73,73,73)" stroke-width="0.1"/>
 </g>
 <g id="layerCOLUMN" inkscape:groupmode="layer" inkscape:label="COLUMN">
  <path d="M 15.90116050000006,46.535745500000075 L 22.537160500000027,42.0677455" fill="none" stroke="rgb(178,178,0)" stroke-width="0.1"/>
  <path d="M 22.537160500000027,42.0677455 L 18.069160500000066,35.431745500000034" fill="none" stroke="rgb(178,178,0)" stroke-width="0.1"/>
  <path d="M 18.069160500000066,35.431745500000034 L 11.433160500000042,39.89874550000002" fill="none" stroke="rgb(178,178,0)" stroke-width="0.1"/>
  <path d="M 11.433160500000042,39.89874550000002 L 15.90116050000006,46.535745500000075" fill="none" stroke="rgb(178,178,0)" stroke-width="0.1"/>
 </g>
 <g id="layerCURTWALL" inkscape:groupmode="layer" inkscape:label="CURTWALL">
  <path d="M 8.945160500000043,41.57474550000006 L 48.27999351959721,100.0" fill="none" instance-id="-1" semantic-id="2" stroke="rgb(0,178,178)" stroke-width="0.1"/>
  <path d="M 11.433160500000042,39.89874550000002 L 8.945160500000043,41.57474550000006" fill="none" instance-id="-1" semantic-id="2" stroke="rgb(0,178,178)" stroke-width="0.1"/>
  <path d="M 49.485498520165834,100.0 L 10.33316050000002,41.84574550000002" fill="none" instance-id="-1" semantic-id="2" stroke="rgb(0,178,178)" stroke-width="0.1"/>
  <path d="M 10.33316050000002,41.84574550000002 L 11.992160500000068,40.72874550000006" fill="none" instance-id="-1" semantic-id="2" stroke="rgb(0,178,178)" stroke-width="0.1"/>
 </g>
 <g id="layerDIM_ELEV" inkscape:groupmode="layer" inkscape:label="DIM_ELEV">
  <path d="M 0.0,3.3830696452599796 L 5.024987502194222,0.0" fill="none" stroke="rgb(0,178,0)" stroke-width="0.1"/>
 </g>
 <g id="layerDIM_LEAD" inkscape:groupmode="layer" inkscape:label="DIM_LEAD">
  <path d="M 7.918160500000056,24.879745500000013 L 16.694160500000066,17.315745500000048" fill="none" stroke="rgb(0,178,0)" stroke-width="0.1"/>
  <path d="M 16.694160500000066,17.315745500000048 L 27.557160500000066,10.00274550000006" fill="none" stroke="rgb(0,178,0)" stroke-width="0.1"/>
 </g>
 <g id="layerDIM_SYMB" inkscape:groupmode="layer" inkscape:label="DIM_SYMB">
  <path d="M 26.757160500000055,42.961745500000006 L 49.376160500000026,76.55674550000003" fill="none" stroke="rgb(0,178,0)" stroke-width="0.1"/>
  <path d="M 49.376160500000026,76.55674550000003 L 52.509160500000064,74.70474550000006" fill="none" stroke="rgb(0,178,0)" stroke-width="0.1"/>
  <path d="M 52.509160500000064,74.70474550000006 L 56.38316050000003,72.41474549999998" fill="none" stroke="rgb(0,178,0)" stroke-width="0.1"/>
 </g>
 <g id="layerDOOR_FIRE" inkscape:groupmode="layer" inkscape:label="DOOR_FIRE">
  <path d="M 15.37316050000004,37.35974550000003 L 0.0,14.525423939218513" fill="none" stroke="rgb(0,178,178)" stroke-width="0.1"/>
  <path d="M 71.02216050000004,57.945745500000044 L 70.60716050000002,58.225745500000016" fill="none" instance-id="3" semantic-id="3" stroke="rgb(0,178,178)" stroke-width="0.1"/>
  <path d="M 76.05216050000001,66.31374549999998 L 76.46716050000003,66.03374550000001" fill="none" instance-id="3" semantic-id="3" stroke="rgb(0,178,178)" stroke-width="0.1"/>
  <path d="M 76.05216050000001,66.31374549999998 L 70.60716050000002,58.225745500000016" fill="none" instance-id="3" semantic-id="3" stroke="rgb(0,178,178)" stroke-width="0.1"/>
  <path d="M 76.46716050000003,66.03374550000001 L 71.02216050000004,57.945745500000044" fill="none" instance-id="3" semantic-id="3" stroke="rgb(0,178,178)" stroke-width="0.1"/>
  <path d="M 78.17316050000005,84.50474550000001 L 78.62916050000007,84.1977455" fill="none" instance-id="4" semantic-id="3" stroke="rgb(0,178,178)" stroke-width="0.1"/>
  <path d="M 84.61816050000004,93.09474550000004 L 84.16216050000003,93.40174550000006" fill="none" instance-id="4" semantic-id="3" stroke="rgb(0,178,178)" stroke-width="0.1"/>
  <path d="M 84.61816050000004,93.09474550000004 L 78.62916050000007,84.1977455" fill="none" instance-id="4" semantic-id="3" stroke="rgb(0,178,178)" stroke-width="0.1"/>
  <path d="M 84.16216050000003,93.40174550000006 L 78.17316050000005,84.50474550000001" fill="none" instance-id="4" semantic-id="3" stroke="rgb(0,178,178)" stroke-width="0.1"/>
  <path d="M 84.34716050000003,60.72874550000006 A 9.75,9.75 0.0 0,0 71.02316050000002,57.94874549999997" fill="none" instance-id="3" semantic-id="3" stroke="rgb(0,178,178)" stroke-width="0.1"/>
  <path d="M 78.17516050000006,84.50774550000006 A 10.725,10.725 0.0 0,0 75.49416050000002,99.23774550000007" fill="none" instance-id="4" semantic-id="3" stroke="rgb(0,178,178)" stroke-width="0.1"/>
 </g>
 <g id="layerDOOR_FIRE_TEXT" inkscape:groupmode="layer" inkscape:label="DOOR_FIRE_TEXT">
  <text fill="rgb(0,0,0)" font-family="Noto Sans CJK SC" font-size="2" transform="rotate(-33.9493,79.58716050000004,71.8707455)" x="79.58716050000004" y="71.8707455">
   FM
  </text>
  <text fill="rgb(0,0,0)" font-family="Noto Sans CJK SC" font-size="2" transform="rotate(-33.9493,84.81316050000004,68.35174549999999)" x="84.81316050000004" y="68.35174549999999">
   甲
  </text>
  <text fill="rgb(0,0,0)" font-family="Noto Sans CJK SC" font-size="2" transform="rotate(-33.9493,87.87116050000003,66.2937455)" x="87.87116050000003" y="66.2937455">
   1021
  </text>
  <text fill="rgb(0,0,0)" font-family="Noto Sans CJK SC" font-size="2" transform="rotate(-33.9493,64.92616050000004,90.0627455)" x="64.92616050000004" y="90.0627455">
   FM
  </text>
  <text fill="rgb(0,0,0)" font-family="Noto Sans CJK SC" font-size="2" transform="rotate(-33.9493,70.15216050000004,86.54474549999998)" x="70.15216050000004" y="86.54474549999998">
   甲
  </text>
  <text fill="rgb(0,0,0)" font-family="Noto Sans CJK SC" font-size="2" transform="rotate(-33.9493,73.21016050000003,84.48574550000001)" x="73.21016050000003" y="84.48574550000001">
   1123
  </text>
 </g>
 <g id="layerM-提资-JZTZ" inkscape:groupmode="layer" inkscape:label="M-提资-JZTZ">
  <path d="M 48.531160500000055,86.04574550000007 L 58.48416050000003,79.34574550000002" fill="none" stroke="rgb(0,133,178)" stroke-width="0.1"/>
  <path d="M 58.48416050000003,79.34574550000002 L 72.38977827071079,100.0" fill="none" stroke="rgb(0,133,178)" stroke-width="0.1"/>
  <path d="M 57.92672441434428,100.0 L 48.53216050000003,86.04574550000007" fill="none" stroke="rgb(0,133,178)" stroke-width="0.1"/>
  <path d="M 58.48616050000004,79.34474550000004 L 52.416160500000046,88.3657455" fill="none" stroke="rgb(0,133,178)" stroke-width="0.1"/>
  <path d="M 52.416160500000046,88.3657455 L 58.782156759799136,100.0" fill="none" stroke="rgb(0,133,178)" stroke-width="0.1"/>
 </g>
 <g id="layerPUB_TEXT" inkscape:groupmode="layer" inkscape:label="PUB_TEXT">
  <text fill="rgb(0,0,0)" font-family="Noto Sans CJK SC" font-size="2" transform="rotate(-33.95,53.00416050000007,99.1637455)" x="53.00416050000007" y="99.1637455">
   车库送风井
  </text>
  <text fill="rgb(0,0,0)" font-family="Noto Sans CJK SC" font-size="2" transform="rotate(-33.95,91.79816050000005,79.18274550000001)" x="91.79816050000005" y="79.18274550000001">
   舞台面音响设备室
  </text>
  <text fill="rgb(0,0,0)" font-family="Noto Sans CJK SC" font-size="2" transform="rotate(-33.95,88.70416050000006,47.94674550000002)" x="88.70416050000006" y="47.94674550000002">
   舞台监督位
  </text>
  <text fill="rgb(0,0,0)" font-family="Noto Sans CJK SC" font-size="2" transform="rotate(-0.0,19.799160500000028,41.655745499999966)" x="19.799160500000028" y="41.655745499999966">
   上
  </text>
  <text fill="rgb(0,0,0)" font-family="Noto Sans CJK SC" font-size="2" transform="rotate(-0.0,23.485160500000063,41.655745499999966)" x="23.485160500000063" y="41.655745499999966">
   18
  </text>
  <text fill="rgb(0,0,0)" font-family="Noto Sans CJK SC" font-size="2" transform="rotate(-0.0,28.88516050000004,41.655745499999966)" x="28.88516050000004" y="41.655745499999966">
   级
  </text>
  <text fill="rgb(0,0,0)" font-family="Noto Sans CJK SC" font-size="2" transform="rotate(-33.95,14.020160500000031,17.217745499999978)" x="14.020160500000031" y="17.217745499999978">
   隔声卷帘
  </text>
 </g>
 <g id="layerS-XF-LG" inkscape:groupmode="layer" inkscape:label="S-XF-LG">
  <circle cx="89.41116050000005" cy="54.667745500000024" fill="none" r="0.6" stroke="rgb(178,88,0)" stroke-width="0.1"/>
 </g>
 <g id="layerSTAIR" inkscape:groupmode="layer" inkscape:label="STAIR">
  <path d="M 45.68416050000002,81.81674550000002 L 21.780160500000022,46.312745500000005" fill="none" instance-id="5" semantic-id="30" stroke="rgb(178,88,0)" stroke-width="0.1"/>
  <path d="M 57.368160500000045,77.68574550000005 L 31.73416050000003,39.61074550000001" fill="none" instance-id="5" semantic-id="30" stroke="rgb(178,88,0)" stroke-width="0.1"/>
  <path d="M 47.41416050000004,84.38774550000005 L 57.368160500000045,77.68574550000005" fill="none" instance-id="5" semantic-id="30" stroke="rgb(178,88,0)" stroke-width="0.1"/>
  <path d="M 39.87516050000005,73.18874549999998 L 49.82916050000006,66.48774550000007" fill="none" instance-id="5" semantic-id="30" stroke="rgb(178,88,0)" stroke-width="0.1"/>
  <path d="M 38.36716050000007,70.94974550000006 L 48.32116050000002,64.24774550000006" fill="none" instance-id="5" semantic-id="30" stroke="rgb(178,88,0)" stroke-width="0.1"/>
  <path d="M 36.85916050000003,68.70974550000005 L 46.81316050000004,62.007745500000055" fill="none" instance-id="5" semantic-id="30" stroke="rgb(178,88,0)" stroke-width="0.1"/>
  <path d="M 35.35116050000005,66.46974550000004 L 45.305160500000056,59.76874550000002" fill="none" instance-id="5" semantic-id="30" stroke="rgb(178,88,0)" stroke-width="0.1"/>
  <path d="M 33.84316050000007,64.23074550000001 L 43.79716050000002,57.528745500000014" fill="none" instance-id="5" semantic-id="30" stroke="rgb(178,88,0)" stroke-width="0.1"/>
  <path d="M 32.33516050000003,61.9907455 L 42.29016050000007,55.288745500000005" fill="none" instance-id="5" semantic-id="30" stroke="rgb(178,88,0)" stroke-width="0.1"/>
  <path d="M 30.827160500000048,59.750745499999994 L 40.78216050000003,53.048745499999995" fill="none" instance-id="5" semantic-id="30" stroke="rgb(178,88,0)" stroke-width="0.1"/>
  <path d="M 29.319160500000066,57.510745499999985 L 39.27416050000005,50.80974549999996" fill="none" instance-id="5" semantic-id="30" stroke="rgb(178,88,0)" stroke-width="0.1"/>
  <path d="M 27.81216050000006,55.271745500000065 L 37.76616050000007,48.56974550000007" fill="none" instance-id="5" semantic-id="30" stroke="rgb(178,88,0)" stroke-width="0.1"/>
  <path d="M 26.304160500000023,53.031745500000056 L 36.25816050000003,46.32974550000006" fill="none" instance-id="5" semantic-id="30" stroke="rgb(178,88,0)" stroke-width="0.1"/>
  <path d="M 24.796160500000042,50.79174550000005 L 34.75016050000005,44.090745500000025" fill="none" instance-id="5" semantic-id="30" stroke="rgb(178,88,0)" stroke-width="0.1"/>
  <path d="M 23.28816050000006,48.552745500000015 L 33.24216050000007,41.850745500000016" fill="none" instance-id="5" semantic-id="30" stroke="rgb(178,88,0)" stroke-width="0.1"/>
  <path d="M 21.780160500000022,46.312745500000005 L 31.73416050000003,39.61074550000001" fill="none" instance-id="5" semantic-id="30" stroke="rgb(178,88,0)" stroke-width="0.1"/>
  <path d="M 41.38316050000003,75.42874549999999 L 51.33716050000004,68.72674549999999" fill="none" instance-id="5" semantic-id="30" stroke="rgb(178,88,0)" stroke-width="0.1"/>
  <path d="M 51.33716050000004,68.72674549999999 L 52.39116050000007,81.03674550000005" fill="none" instance-id="5" semantic-id="30" stroke="rgb(178,88,0)" stroke-width="0.1"/>
  <path d="M 51.33716050000004,68.72674549999999 L 44.39916050000005,79.90774550000003" fill="none" instance-id="5" semantic-id="30" stroke="rgb(178,88,0)" stroke-width="0.1"/>
  <path d="M 51.33716050000004,68.72674549999999 L 47.41516050000007,84.38774550000005" fill="none" instance-id="5" semantic-id="30" stroke="rgb(178,88,0)" stroke-width="0.1"/>
 </g>
 <g id="layerWALL" inkscape:groupmode="layer" inkscape:label="WALL">
  <path d="M 17.561160500000028,45.417745500000024 L 54.30978909084274,100.0" fill="none" instance-id="-1" semantic-id="1" stroke="rgb(178,178,0)" stroke-width="0.1"/>
  <path d="M 15.902160500000036,46.534745499999985 L 51.898745802928204,100.0" fill="none" instance-id="-1" semantic-id="1" stroke="rgb(178,178,0)" stroke-width="0.1"/>
  <path d="M 20.05016050000006,43.74274550000007 L 47.41516050000007,84.38674550000007" fill="none" instance-id="-1" semantic-id="1" stroke="rgb(178,178,0)" stroke-width="0.1"/>
  <path d="M 18.390160500000036,44.858745500000055 L 46.314160500000014,86.33374549999996" fill="none" instance-id="-1" semantic-id="1" stroke="rgb(178,178,0)" stroke-width="0.1"/>
  <path d="M 47.41516050000007,84.38674550000007 L 59.02816050000007,76.56874549999998" fill="none" instance-id="-1" semantic-id="1" stroke="rgb(178,178,0)" stroke-width="0.1"/>
  <path d="M 48.531160500000055,86.04574550000007 L 58.48616050000004,79.34474550000004" fill="none" instance-id="-1" semantic-id="1" stroke="rgb(178,178,0)" stroke-width="0.1"/>
  <path d="M 86.54916050000003,90.58974550000005 L 100.0,81.53417394547455" fill="none" instance-id="-1" semantic-id="1" stroke="rgb(178,178,0)" stroke-width="0.1"/>
  <path d="M 87.66516050000007,92.24874550000004 L 100.0,83.94473397239858" fill="none" instance-id="-1" semantic-id="1" stroke="rgb(178,178,0)" stroke-width="0.1"/>
  <path d="M 59.02816050000007,76.56874549999998 L 74.10616050000004,98.9667455" fill="none" instance-id="-1" semantic-id="1" stroke="rgb(178,178,0)" stroke-width="0.1"/>
  <path d="M 58.48616050000004,79.34474550000004 L 72.38978906550466,100.0" fill="none" instance-id="-1" semantic-id="1" stroke="rgb(178,178,0)" stroke-width="0.1"/>
  <path d="M 72.58816050000001,69.85074550000002 L 76.61016050000006,67.14274550000005" fill="none" instance-id="-1" semantic-id="1" stroke="rgb(178,178,0)" stroke-width="0.1"/>
  <path d="M 76.61016050000006,67.14274550000005 L 75.49316050000004,65.48374550000005" fill="none" instance-id="-1" semantic-id="1" stroke="rgb(178,178,0)" stroke-width="0.1"/>
  <path d="M 75.49316050000004,65.48374550000005 L 69.81216050000006,69.30874549999999" fill="none" instance-id="-1" semantic-id="1" stroke="rgb(178,178,0)" stroke-width="0.1"/>
  <path d="M 100.0,48.985715936463066 L 83.78916050000004,59.89874550000002" fill="none" instance-id="-1" semantic-id="1" stroke="rgb(178,178,0)" stroke-width="0.1"/>
  <path d="M 83.78916050000004,59.89874550000002 L 84.90616050000006,61.558745499999986" fill="none" instance-id="-1" semantic-id="1" stroke="rgb(178,178,0)" stroke-width="0.1"/>
  <path d="M 84.90616050000006,61.558745499999986 L 100.0,51.39671996634979" fill="none" instance-id="-1" semantic-id="1" stroke="rgb(178,178,0)" stroke-width="0.1"/>
  <path d="M 48.531160500000055,86.04574550000007 L 57.92639723278688,100.0" fill="none" instance-id="-1" semantic-id="1" stroke="rgb(178,178,0)" stroke-width="0.1"/>
  <path d="M 46.314160500000014,86.33374549999996 L 55.51581794848852,100.0" fill="none" instance-id="-1" semantic-id="1" stroke="rgb(178,178,0)" stroke-width="0.1"/>
  <path d="M 88.22416050000004,93.07874549999997 L 100.0,85.15078184824131" fill="none" instance-id="-1" semantic-id="1" stroke="rgb(178,178,0)" stroke-width="0.1"/>
  <path d="M 89.34116050000006,94.73774550000007 L 100.0,87.56124269466352" fill="none" instance-id="-1" semantic-id="1" stroke="rgb(178,178,0)" stroke-width="0.1"/>
  <path d="M 76.00722094394212,100.0 L 74.93516050000005,98.40774550000003" fill="none" instance-id="-1" semantic-id="1" stroke="rgb(178,178,0)" stroke-width="0.1"/>
  <path d="M 74.93516050000005,98.40774550000003 L 74.10616050000004,98.9667455" fill="none" instance-id="-1" semantic-id="1" stroke="rgb(178,178,0)" stroke-width="0.1"/>
  <path d="M 84.88916050000006,91.70674550000001 L 84.06016050000005,92.2647455" fill="none" instance-id="-1" semantic-id="1" stroke="rgb(178,178,0)" stroke-width="0.1"/>
  <path d="M 84.06016050000005,92.2647455 L 85.17716050000001,93.9237455" fill="none" instance-id="-1" semantic-id="1" stroke="rgb(178,178,0)" stroke-width="0.1"/>
  <path d="M 85.17716050000001,93.9237455 L 86.00616050000002,93.3657455" fill="none" instance-id="-1" semantic-id="1" stroke="rgb(178,178,0)" stroke-width="0.1"/>
  <path d="M 72.58816050000001,69.85074550000002 L 86.54916050000003,90.58974550000005" fill="none" instance-id="-1" semantic-id="1" stroke="rgb(178,178,0)" stroke-width="0.1"/>
  <path d="M 69.81216050000006,69.30874549999999 L 84.88916050000006,91.70674550000001" fill="none" instance-id="-1" semantic-id="1" stroke="rgb(178,178,0)" stroke-width="0.1"/>
  <path d="M 87.66516050000007,92.24874550000004 L 88.22416050000004,93.07874549999997" fill="none" instance-id="-1" semantic-id="1" stroke="rgb(178,178,0)" stroke-width="0.1"/>
  <path d="M 86.00616050000002,93.3657455 L 87.12316050000004,95.0247455" fill="none" instance-id="-1" semantic-id="1" stroke="rgb(178,178,0)" stroke-width="0.1"/>
  <path d="M 87.12316050000004,95.0247455 L 88.79816050000005,97.51374550000003" fill="none" instance-id="-1" semantic-id="1" stroke="rgb(178,178,0)" stroke-width="0.1"/>
  <path d="M 88.79816050000005,97.51374550000003 L 90.45816050000002,96.39674550000007" fill="none" instance-id="-1" semantic-id="1" stroke="rgb(178,178,0)" stroke-width="0.1"/>
  <path d="M 90.45816050000002,96.39674550000007 L 89.34116050000006,94.73774550000007" fill="none" instance-id="-1" semantic-id="1" stroke="rgb(178,178,0)" stroke-width="0.1"/>
 </g>
 <g id="layera-家具" inkscape:groupmode="layer" inkscape:label="a-家具">
  <path d="M 100.0,88.18729498408265 L 99.71016050000003,87.75674549999997" fill="none" stroke="rgb(92,92,92)" stroke-width="0.1"/>
  <path d="M 99.71016050000003,87.75674549999997 L 100.0,87.56157836380066" fill="none" stroke="rgb(92,92,92)" stroke-width="0.1"/>
 </g>
 <g id="layers-消火栓" inkscape:groupmode="layer" inkscape:label="s-消火栓">
  <path d="M 91.57416050000006,54.65774550000003 L 96.04116050000005,48.757745500000055" fill="none" stroke="rgb(178,88,0)" stroke-width="0.1"/>
  <path d="M 90.23416050000003,52.66674550000005 L 96.04116050000005,48.757745500000055" fill="none" stroke="rgb(178,88,0)" stroke-width="0.1"/>
  <path d="M 96.04116050000005,48.757745500000055 L 97.38116050000002,50.74874550000004" fill="none" stroke="rgb(178,88,0)" stroke-width="0.1"/>
  <path d="M 97.38116050000002,50.74874550000004 L 91.57416050000006,54.65774550000003" fill="none" stroke="rgb(178,88,0)" stroke-width="0.1"/>
  <path d="M 91.57416050000006,54.65774550000003 L 90.23416050000003,52.66674550000005" fill="none" stroke="rgb(178,88,0)" stroke-width="0.1"/>
  <path d="M 96.04116050000005,48.757745500000055 L 91.57416050000006,54.65774550000003" fill="none" stroke="rgb(178,88,0)" stroke-width="0.1"/>
  <path d="M 91.57416050000006,54.65774550000003 L 97.38116050000002,50.74874550000004" fill="none" stroke="rgb(178,88,0)" stroke-width="0.1"/>
  <path d="M 97.38116050000002,50.74874550000004 L 96.04116050000005,48.757745500000055" fill="none" stroke="rgb(178,88,0)" stroke-width="0.1"/>
 </g>
 <g id="layer上层投影线" inkscape:groupmode="layer" inkscape:label="上层投影线">
  <path d="M 69.81216050000006,69.30874549999999 L 63.78016050000002,60.34974550000004" fill="none" stroke="rgb(0,0,178)" stroke-width="0.1"/>
  <path d="M 63.78016050000002,60.34974550000004 L 51.33716050000004,68.72674549999999" fill="none" stroke="rgb(0,0,178)" stroke-width="0.1"/>
  <path d="M 0.0,47.596886210860134 L 13.922160500000018,38.223745500000064" fill="none" stroke="rgb(0,0,178)" stroke-width="0.1"/>
 </g>
</svg>