<?xml version="1.0" encoding="utf-8"?>
<svg style="background-color: #000;" version="1.1" viewBox="0 0 100.0 100.0" xmlns="http://www.w3.org/2000/svg" xmlns:inkscape="http://www.inkscape.org/namespaces/inkscape">
 <g id="layer0-结构边线" inkscape:groupmode="layer" inkscape:label="0-结构边线">
  <path d="M 35.423160499999994,48.62174550000003 L 42.059160500000075,44.153745500000014" fill="none" stroke="rgb(178,0,178)" stroke-width="0.1"/>
  <path d="M 42.059160500000075,44.153745500000014 L 37.5911605,37.517745500000046" fill="none" stroke="rgb(178,0,178)" stroke-width="0.1"/>
  <path d="M 30.955160500000034,41.98574550000001 L 37.5911605,37.517745500000046" fill="none" stroke="rgb(178,0,178)" stroke-width="0.1"/>
  <path d="M 35.423160499999994,48.62174550000003 L 30.955160500000034,41.98574550000001" fill="none" stroke="rgb(178,0,178)" stroke-width="0.1"/>
  <path d="M 96.80716050000001,7.2957455000000095 L 100.0,5.146820677565188" fill="none" stroke="rgb(178,0,178)" stroke-width="0.1"/>
  <path d="M 92.34016050000002,0.6597455000000423 L 93.32003318084162,0.0" fill="none" stroke="rgb(178,0,178)" stroke-width="0.1"/>
  <path d="M 96.80716050000001,7.2957455000000095 L 92.34016050000002,0.6597455000000423" fill="none" stroke="rgb(178,0,178)" stroke-width="0.1"/>
 </g>
 <g id="layerA-FUR" inkscape:groupmode="layer" inkscape:label="A-FUR">
  <path d="M 1.057160500000009,65.8417455 L 2.92916050000008,64.58074550000003" fill="none" instance-id="7" semantic-id="28" stroke="rgb(92,92,92)" stroke-width="0.1"/>
  <path d="M 7.030160500000079,1.317745500000001 L 7.847160500000086,1.1247455000000173" fill="none" stroke="rgb(92,92,92)" stroke-width="0.1"/>
  <path d="M 6.418213202241645,0.0 L 6.88716050000005,0.6987455000000296" fill="none" stroke="rgb(92,92,92)" stroke-width="0.1"/>
  <path d="M 7.209160500000053,0.911745499999995 L 8.005160499999988,1.061745500000029" fill="none" stroke="rgb(92,92,92)" stroke-width="0.1"/>
  <path d="M 7.030160500000079,1.317745500000001 L 6.14638327761088,0.0" fill="none" stroke="rgb(92,92,92)" stroke-width="0.1"/>
  <path d="M 6.1470451481061446,0.0 L 7.025160500000084,1.3087455000000432" fill="none" stroke="rgb(92,92,92)" stroke-width="0.1"/>
  <path d="M 71.92516050000006,97.69374550000003 L 72.4131605,97.01174550000002" fill="none" instance-id="3" semantic-id="23" stroke="rgb(92,92,92)" stroke-width="0.1"/>
  <path d="M 72.45516050000003,98.07874550000003 L 73.74392439176984,100.0" fill="none" instance-id="3" semantic-id="23" stroke="rgb(92,92,92)" stroke-width="0.1"/>
  <path d="M 72.37716050000006,97.71874550000001 L 72.50516049999999,96.93274550000001" fill="none" instance-id="3" semantic-id="23" stroke="rgb(92,92,92)" stroke-width="0.1"/>
  <path d="M 74.74011300726193,100.0 L 73.35416050000003,97.93474550000002" fill="none" instance-id="3" semantic-id="23" stroke="rgb(92,92,92)" stroke-width="0.1"/>
  <path d="M 73.35416050000003,97.93474550000002 L 74.74011300726193,100.0" fill="none" instance-id="3" semantic-id="23" stroke="rgb(92,92,92)" stroke-width="0.1"/>
  <path d="M 73.47286987011523,100.0 L 71.92516050000006,97.69374550000003" fill="none" instance-id="3" semantic-id="23" stroke="rgb(92,92,92)" stroke-width="0.1"/>
  <path d="M 71.94116050000002,97.71774550000004 L 73.47284784693102,100.0" fill="none" instance-id="3" semantic-id="23" stroke="rgb(92,92,92)" stroke-width="0.1"/>
  <path d="M 68.0141605,91.88374550000003 L 68.50216050000006,91.20174550000002" fill="none" instance-id="2" semantic-id="23" stroke="rgb(92,92,92)" stroke-width="0.1"/>
  <path d="M 70.69316050000009,95.8757455 L 71.50916050000001,95.68274550000001" fill="none" instance-id="2" semantic-id="23" stroke="rgb(92,92,92)" stroke-width="0.1"/>
  <path d="M 68.5431605,92.26874550000002 L 70.54916050000008,95.2577455" fill="none" instance-id="2" semantic-id="23" stroke="rgb(92,92,92)" stroke-width="0.1"/>
  <path d="M 70.87116050000009,95.47074550000002 L 71.6681605,95.6207455" fill="none" instance-id="2" semantic-id="23" stroke="rgb(92,92,92)" stroke-width="0.1"/>
  <path d="M 68.46516050000002,91.90874550000001 L 68.59416050000004,91.12374550000004" fill="none" instance-id="2" semantic-id="23" stroke="rgb(92,92,92)" stroke-width="0.1"/>
  <path d="M 71.0141605,94.46574550000003 L 69.44316050000009,92.12474550000002" fill="none" instance-id="2" semantic-id="23" stroke="rgb(92,92,92)" stroke-width="0.1"/>
  <path d="M 69.44316050000009,92.12474550000002 L 71.0141605,94.46574550000003" fill="none" instance-id="2" semantic-id="23" stroke="rgb(92,92,92)" stroke-width="0.1"/>
  <path d="M 70.69316050000009,95.8757455 L 68.0141605,91.88374550000003" fill="none" instance-id="2" semantic-id="23" stroke="rgb(92,92,92)" stroke-width="0.1"/>
  <path d="M 68.03016050000008,91.90774550000003 L 70.6871605,95.86774550000001" fill="none" instance-id="2" semantic-id="23" stroke="rgb(92,92,92)" stroke-width="0.1"/>
  <path d="M 64.10316050000006,86.0747455 L 64.5911605,85.39274550000005" fill="none" instance-id="1" semantic-id="23" stroke="rgb(92,92,92)" stroke-width="0.1"/>
  <path d="M 66.78116050000006,90.06674550000002 L 67.59816050000006,89.87374550000004" fill="none" instance-id="1" semantic-id="23" stroke="rgb(92,92,92)" stroke-width="0.1"/>
  <path d="M 64.63216050000005,86.4597455 L 66.63816050000003,89.44874550000003" fill="none" instance-id="1" semantic-id="23" stroke="rgb(92,92,92)" stroke-width="0.1"/>
  <path d="M 66.96016050000003,89.66074550000002 L 67.75616050000008,89.81174550000003" fill="none" instance-id="1" semantic-id="23" stroke="rgb(92,92,92)" stroke-width="0.1"/>
  <path d="M 64.55416050000008,86.09974550000004 L 64.68316049999999,85.31374550000004" fill="none" instance-id="1" semantic-id="23" stroke="rgb(92,92,92)" stroke-width="0.1"/>
  <path d="M 67.10216050000008,88.65574550000002 L 65.53216050000003,86.31574549999999" fill="none" instance-id="1" semantic-id="23" stroke="rgb(92,92,92)" stroke-width="0.1"/>
  <path d="M 65.53216050000003,86.31574549999999 L 67.10216050000008,88.65574550000002" fill="none" instance-id="1" semantic-id="23" stroke="rgb(92,92,92)" stroke-width="0.1"/>
  <path d="M 66.78116050000006,90.06674550000002 L 64.10316050000006,86.0747455" fill="none" instance-id="1" semantic-id="23" stroke="rgb(92,92,92)" stroke-width="0.1"/>
  <path d="M 64.11916050000002,86.0987455 L 66.77516050000008,90.05774550000001" fill="none" instance-id="1" semantic-id="23" stroke="rgb(92,92,92)" stroke-width="0.1"/>
  <path d="M 1.5191604999999981,63.89774550000004 A 0.409288,0.409288 0.0 0,0 0.8621605000000727,64.3777455" fill="none" instance-id="7" semantic-id="28" stroke="rgb(92,92,92)" stroke-width="0.1"/>
  <path d="M 1.5191604999999981,63.89774550000004 A 3.1177,3.1177 0.0 0,0 2.92916050000008,64.58074550000003" fill="none" instance-id="7" semantic-id="28" stroke="rgb(92,92,92)" stroke-width="0.1"/>
  <path d="M 1.057160500000009,65.8417455 A 3.46168,3.46168 0.0 0,0 0.8621605000000727,64.3777455" fill="none" instance-id="7" semantic-id="28" stroke="rgb(92,92,92)" stroke-width="0.1"/>
  <path d="M 6.88716050000005,0.6987455000000296 A 0.5,0.5 0.0 0,0 7.209160500000053,0.911745499999995" fill="none" stroke="rgb(92,92,92)" stroke-width="0.1"/>
  <path d="M 7.797107808248597,0.2729890859302486 L 8.371161776095732,0.3318568017708685" fill="none" stroke="rgb(92,92,92)" stroke-width="0.1"/>
  <path d="M 8.371161776095732,0.3318568017708685 L 8.882160500000055,0.06374550000003865" fill="none" stroke="rgb(92,92,92)" stroke-width="0.1"/>
  <path d="M 7.847160500000086,1.1247455000000173 L 8.31345357996122,0.9088621564753794" fill="none" stroke="rgb(92,92,92)" stroke-width="0.1"/>
  <path d="M 8.31345357996122,0.9088621564753794 L 8.737231815053178,0.6182647340962149" fill="none" stroke="rgb(92,92,92)" stroke-width="0.1"/>
  <path d="M 8.737231815053178,0.6182647340962149 L 9.106634663570276,0.26108636137695385" fill="none" stroke="rgb(92,92,92)" stroke-width="0.1"/>
  <path d="M 76.26116050000007,96.4427455 A 3.07148,3.07148 0.0 0,0 72.4131605,97.01174550000002" fill="none" instance-id="3" semantic-id="23" stroke="rgb(92,92,92)" stroke-width="0.1"/>
  <path d="M 72.37716050000006,97.71874550000001 A 0.5,0.5 0.0 0,0 72.45516050000003,98.07874550000003" fill="none" instance-id="3" semantic-id="23" stroke="rgb(92,92,92)" stroke-width="0.1"/>
  <path d="M 77.0222474133883,99.57208260252077 L 77.15677067775994,99.07155165173106" fill="none" instance-id="3" semantic-id="23" stroke="rgb(92,92,92)" stroke-width="0.1"/>
  <path d="M 77.15677067775994,99.07155165173106 L 77.18225651320301,98.55388553003917" fill="none" instance-id="3" semantic-id="23" stroke="rgb(92,92,92)" stroke-width="0.1"/>
  <path d="M 77.18225651320301,98.55388553003917 L 77.09754908898674,98.04256137293498" fill="none" instance-id="3" semantic-id="23" stroke="rgb(92,92,92)" stroke-width="0.1"/>
  <path d="M 77.09754908898674,98.04256137293498 L 76.90649004664806,97.56076869584626" fill="none" instance-id="3" semantic-id="23" stroke="rgb(92,92,92)" stroke-width="0.1"/>
  <path d="M 76.90649004664806,97.56076869584626 L 76.61774427429816,97.13035770585435" fill="none" instance-id="3" semantic-id="23" stroke="rgb(92,92,92)" stroke-width="0.1"/>
  <path d="M 76.61774427429816,97.13035770585435 L 76.24440693759607,96.7708483535701" fill="none" instance-id="3" semantic-id="23" stroke="rgb(92,92,92)" stroke-width="0.1"/>
  <path d="M 76.24440693759607,96.7708483535701 L 75.80340958927388,96.49854506653793" fill="none" instance-id="3" semantic-id="23" stroke="rgb(92,92,92)" stroke-width="0.1"/>
  <path d="M 75.80340958927388,96.49854506653793 L 75.31475229126988,96.32579731267953" fill="none" instance-id="3" semantic-id="23" stroke="rgb(92,92,92)" stroke-width="0.1"/>
  <path d="M 75.31475229126988,96.32579731267953 L 74.80059657417792,96.26043952861897" fill="none" instance-id="3" semantic-id="23" stroke="rgb(92,92,92)" stroke-width="0.1"/>
  <path d="M 74.80059657417792,96.26043952861897 L 74.28426037001464,96.30543581319807" fill="none" instance-id="3" semantic-id="23" stroke="rgb(92,92,92)" stroke-width="0.1"/>
  <path d="M 74.28426037001464,96.30543581319807 L 73.7891605000001,96.45874550000002" fill="none" instance-id="3" semantic-id="23" stroke="rgb(92,92,92)" stroke-width="0.1"/>
  <path d="M 73.7891605000001,96.45874550000002 A 1.0,1.0 0.0 0,0 73.35416050000003,97.93474550000002" fill="none" instance-id="3" semantic-id="23" stroke="rgb(92,92,92)" stroke-width="0.1"/>
  <path d="M 77.21618028132468,99.75732461589564 L 77.36808234574642,99.26650181988549" fill="none" instance-id="3" semantic-id="23" stroke="rgb(92,92,92)" stroke-width="0.1"/>
  <path d="M 77.36808234574642,99.26650181988549 L 77.43604297522018,98.75722526721466" fill="none" instance-id="3" semantic-id="23" stroke="rgb(92,92,92)" stroke-width="0.1"/>
  <path d="M 77.43604297522018,98.75722526721466 L 77.4181605,98.24374550000005" fill="none" instance-id="3" semantic-id="23" stroke="rgb(92,92,92)" stroke-width="0.1"/>
  <path d="M 77.4181605,98.24374550000005 A 2.50177,2.50177 0.0 0,0 76.26116050000007,96.4427455" fill="none" instance-id="3" semantic-id="23" stroke="rgb(92,92,92)" stroke-width="0.1"/>
  <path d="M 72.34916050000004,90.63374550000003 A 3.07148,3.07148 0.0 0,0 68.50216050000006,91.20174550000002" fill="none" instance-id="2" semantic-id="23" stroke="rgb(92,92,92)" stroke-width="0.1"/>
  <path d="M 68.46516050000002,91.90874550000001 A 0.5,0.5 0.0 0,0 68.5431605,92.26874550000002" fill="none" instance-id="2" semantic-id="23" stroke="rgb(92,92,92)" stroke-width="0.1"/>
  <path d="M 70.54916050000008,95.2577455 A 0.5,0.5 0.0 0,0 70.87116050000009,95.47074550000002" fill="none" instance-id="2" semantic-id="23" stroke="rgb(92,92,92)" stroke-width="0.1"/>
  <path d="M 72.54416050000009,94.62274550000001 A 2.43376,2.43376 0.0 0,0 69.87816050000004,90.6497455" fill="none" instance-id="2" semantic-id="23" stroke="rgb(92,92,92)" stroke-width="0.1"/>
  <path d="M 69.87816050000004,90.6497455 A 1.0,1.0 0.0 0,0 69.44316050000009,92.12474550000002" fill="none" instance-id="2" semantic-id="23" stroke="rgb(92,92,92)" stroke-width="0.1"/>
  <path d="M 71.0141605,94.46574550000003 A 1.0,1.0 0.0 0,0 72.54416050000009,94.62274550000001" fill="none" instance-id="2" semantic-id="23" stroke="rgb(92,92,92)" stroke-width="0.1"/>
  <path d="M 71.50916050000001,95.68274550000001 A 3.07148,3.07148 0.0 0,0 73.50616050000008,92.43374550000004" fill="none" instance-id="2" semantic-id="23" stroke="rgb(92,92,92)" stroke-width="0.1"/>
  <path d="M 73.50616050000008,92.43374550000004 A 2.50177,2.50177 0.0 0,0 72.34916050000004,90.63374550000003" fill="none" instance-id="2" semantic-id="23" stroke="rgb(92,92,92)" stroke-width="0.1"/>
  <path d="M 68.4381605000001,84.82374550000003 A 3.07148,3.07148 0.0 0,0 64.5911605,85.39274550000005" fill="none" instance-id="1" semantic-id="23" stroke="rgb(92,92,92)" stroke-width="0.1"/>
  <path d="M 64.55416050000008,86.09974550000004 A 0.5,0.5 0.0 0,0 64.63216050000005,86.4597455" fill="none" instance-id="1" semantic-id="23" stroke="rgb(92,92,92)" stroke-width="0.1"/>
  <path d="M 66.63816050000003,89.44874550000003 A 0.5,0.5 0.0 0,0 66.96016050000003,89.66074550000002" fill="none" instance-id="1" semantic-id="23" stroke="rgb(92,92,92)" stroke-width="0.1"/>
  <path d="M 68.63316050000003,88.81374550000004 A 2.43376,2.43376 0.0 0,0 65.96716050000009,84.83974549999999" fill="none" instance-id="1" semantic-id="23" stroke="rgb(92,92,92)" stroke-width="0.1"/>
  <path d="M 65.96716050000009,84.83974549999999 A 1.0,1.0 0.0 0,0 65.53216050000003,86.31574549999999" fill="none" instance-id="1" semantic-id="23" stroke="rgb(92,92,92)" stroke-width="0.1"/>
  <path d="M 67.10216050000008,88.65574550000002 A 1.0,1.0 0.0 0,0 68.63316050000003,88.81374550000004" fill="none" instance-id="1" semantic-id="23" stroke="rgb(92,92,92)" stroke-width="0.1"/>
  <path d="M 67.59816050000006,89.87374550000004 A 3.07148,3.07148 0.0 0,0 69.59516050000002,86.62474550000002" fill="none" instance-id="1" semantic-id="23" stroke="rgb(92,92,92)" stroke-width="0.1"/>
  <path d="M 69.59516050000002,86.62474550000002 A 2.50177,2.50177 0.0 0,0 68.4381605000001,84.82374550000003" fill="none" instance-id="1" semantic-id="23" stroke="rgb(92,92,92)" stroke-width="0.1"/>
  <path d="M 100.0,76.20110107214015 L 84.93116050000003,86.3467455" fill="none" stroke="rgb(92,92,92)" stroke-width="0.1"/>
  <path d="M 6.12316050000004,64.19474550000001 L 0.0,68.31696819002303" fill="none" stroke="rgb(92,92,92)" stroke-width="0.1"/>
  <path d="M 0.5551605000000563,65.4737455 L 0.5911605000000009,65.34274550000004" fill="none" stroke="rgb(92,92,92)" stroke-width="0.1"/>
  <path d="M 2.724160500000039,63.931745500000034 L 2.5821604999999863,63.91974550000003" fill="none" stroke="rgb(92,92,92)" stroke-width="0.1"/>
  <path d="M 4.134160500000007,65.3587455 L 4.157160500000032,65.40974550000004" fill="none" stroke="rgb(92,92,92)" stroke-width="0.1"/>
  <path d="M 100.0,90.06527301108969 L 98.7691605,90.89374550000002" fill="none" stroke="rgb(92,92,92)" stroke-width="0.1"/>
  <path d="M 99.67159996688304,87.28918535428454 L 99.23801590124879,87.58102882372782" fill="none" stroke="rgb(92,92,92)" stroke-width="0.1"/>
  <path d="M 99.23801590124879,87.58102882372782 L 98.87458435691838,87.9566420093513" fill="none" stroke="rgb(92,92,92)" stroke-width="0.1"/>
  <path d="M 98.87458435691838,87.9566420093513 L 98.59718903631699,88.3996088125511" fill="none" stroke="rgb(92,92,92)" stroke-width="0.1"/>
  <path d="M 98.59718903631699,88.3996088125511 L 98.41795344604532,88.89056945843686" fill="none" stroke="rgb(92,92,92)" stroke-width="0.1"/>
  <path d="M 98.41795344604532,88.89056945843686 L 98.3447110414661,89.40806661089283" fill="none" stroke="rgb(92,92,92)" stroke-width="0.1"/>
  <path d="M 98.3447110414661,89.40806661089283 L 98.38066286711546,89.9294831611299" fill="none" stroke="rgb(92,92,92)" stroke-width="0.1"/>
  <path d="M 98.38066286711546,89.9294831611299 L 98.52423765569654,90.4320307038684" fill="none" stroke="rgb(92,92,92)" stroke-width="0.1"/>
  <path d="M 98.52423765569654,90.4320307038684 L 98.7691605,90.89374550000002" fill="none" stroke="rgb(92,92,92)" stroke-width="0.1"/>
  <path d="M 90.07116050000002,69.02174550000001 L 85.9231605,71.81374550000004" fill="none" instance-id="21" semantic-id="15" stroke="rgb(92,92,92)" stroke-width="0.1"/>
  <path d="M 85.9231605,71.81374550000004 A 2.5000583993179224,2.5000583993179224 0.0 1,0 90.07116050000002,69.02174550000001" fill="none" instance-id="21" semantic-id="15" stroke="rgb(92,92,92)" stroke-width="0.1"/>
  <path d="M 100.0,62.336680918515015 L 95.87716050000006,65.11174550000004" fill="none" instance-id="20" semantic-id="15" stroke="rgb(92,92,92)" stroke-width="0.1"/>
  <path d="M 95.87716050000006,65.11174550000004 L 96.21272709645973,65.51244839738047" fill="none" instance-id="20" semantic-id="15" stroke="rgb(92,92,92)" stroke-width="0.1"/>
  <path d="M 96.21272709645973,65.51244839738047 L 96.62427157458308,65.83462675660832" fill="none" instance-id="20" semantic-id="15" stroke="rgb(92,92,92)" stroke-width="0.1"/>
  <path d="M 96.62427157458308,65.83462675660832 L 97.09380746586669,66.06419983740204" fill="none" instance-id="20" semantic-id="15" stroke="rgb(92,92,92)" stroke-width="0.1"/>
  <path d="M 97.09380746586669,66.06419983740204 L 97.60081379877818,66.19113419451713" fill="none" instance-id="20" semantic-id="15" stroke="rgb(92,92,92)" stroke-width="0.1"/>
  <path d="M 97.60081379877818,66.19113419451713 L 98.12313196368314,66.20988218744895" fill="none" instance-id="20" semantic-id="15" stroke="rgb(92,92,92)" stroke-width="0.1"/>
  <path d="M 98.12313196368314,66.20988218744895 L 98.63793415041437,66.11962443894362" fill="none" instance-id="20" semantic-id="15" stroke="rgb(92,92,92)" stroke-width="0.1"/>
  <path d="M 98.63793415041437,66.11962443894362 L 99.12272103311705,65.92430564571549" fill="none" instance-id="20" semantic-id="15" stroke="rgb(92,92,92)" stroke-width="0.1"/>
  <path d="M 99.12272103311705,65.92430564571549 L 99.5563050987513,65.63246217627221" fill="none" instance-id="20" semantic-id="15" stroke="rgb(92,92,92)" stroke-width="0.1"/>
  <path d="M 99.5563050987513,65.63246217627221 L 99.9197366430817,65.25684899064873" fill="none" instance-id="20" semantic-id="15" stroke="rgb(92,92,92)" stroke-width="0.1"/>
  <path d="M 100.0,41.744076270586845 L 96.28216050000003,44.25974550000001" fill="none" instance-id="16" semantic-id="15" stroke="rgb(92,92,92)" stroke-width="0.1"/>
  <path d="M 99.67526819390082,40.73003949678372 L 99.2043091099016,40.498840678183456" fill="none" instance-id="16" semantic-id="15" stroke="rgb(92,92,92)" stroke-width="0.1"/>
  <path d="M 99.2043091099016,40.498840678183456 L 98.69546940518342,40.371022418823316" fill="none" instance-id="16" semantic-id="15" stroke="rgb(92,92,92)" stroke-width="0.1"/>
  <path d="M 98.69546940518342,40.371022418823316 L 98.17115881611426,40.35221394430954" fill="none" instance-id="16" semantic-id="15" stroke="rgb(92,92,92)" stroke-width="0.1"/>
  <path d="M 98.17115881611426,40.35221394430954 L 97.65446843005839,40.44324359596743" fill="none" instance-id="16" semantic-id="15" stroke="rgb(92,92,92)" stroke-width="0.1"/>
  <path d="M 97.65446843005839,40.44324359596743 L 97.16815373411316,40.64010234997983" fill="none" instance-id="16" semantic-id="15" stroke="rgb(92,92,92)" stroke-width="0.1"/>
  <path d="M 97.16815373411316,40.64010234997983 L 96.7336324439699,40.93412037822941" fill="none" instance-id="16" semantic-id="15" stroke="rgb(92,92,92)" stroke-width="0.1"/>
  <path d="M 96.7336324439699,40.93412037822941 L 96.3700412493721,41.3123488749539" fill="none" instance-id="16" semantic-id="15" stroke="rgb(92,92,92)" stroke-width="0.1"/>
  <path d="M 96.3700412493721,41.3123488749539 L 96.09339301791067,41.7581303332413" fill="none" instance-id="16" semantic-id="15" stroke="rgb(92,92,92)" stroke-width="0.1"/>
  <path d="M 96.09339301791067,41.7581303332413 L 95.91587157462186,42.251832155899706" fill="none" instance-id="16" semantic-id="15" stroke="rgb(92,92,92)" stroke-width="0.1"/>
  <path d="M 95.91587157462186,42.251832155899706 L 95.84529511589813,42.77171129185109" fill="none" instance-id="16" semantic-id="15" stroke="rgb(92,92,92)" stroke-width="0.1"/>
  <path d="M 95.84529511589813,42.77171129185109 L 95.88477188942352,43.29487181872179" fill="none" instance-id="16" semantic-id="15" stroke="rgb(92,92,92)" stroke-width="0.1"/>
  <path d="M 95.88477188942352,43.29487181872179 L 96.03256330428405,43.79827329887166" fill="none" instance-id="16" semantic-id="15" stroke="rgb(92,92,92)" stroke-width="0.1"/>
  <path d="M 96.03256330428405,43.79827329887166 L 96.28216050000003,44.25974550000001" fill="none" instance-id="16" semantic-id="15" stroke="rgb(92,92,92)" stroke-width="0.1"/>
  <path d="M 80.54416050000009,54.90474550000005 L 76.40316050000001,57.70674550000001" fill="none" instance-id="14" semantic-id="15" stroke="rgb(92,92,92)" stroke-width="0.1"/>
  <path d="M 80.54416050000009,54.90474550000005 A 2.5,2.5 0.0 1,0 76.40316050000001,57.70674550000001" fill="none" instance-id="14" semantic-id="15" stroke="rgb(92,92,92)" stroke-width="0.1"/>
  <path d="M 90.48416050000003,48.181745500000034 L 86.34216050000009,50.98274550000002" fill="none" instance-id="15" semantic-id="15" stroke="rgb(92,92,92)" stroke-width="0.1"/>
  <path d="M 90.48416050000003,48.181745500000034 A 2.5000882484424136,2.5000882484424136 0.0 1,0 86.34216050000009,50.98274550000002" fill="none" instance-id="15" semantic-id="15" stroke="rgb(92,92,92)" stroke-width="0.1"/>
  <path d="M 0.0,68.31891338554226 L 0.015160500000092725,68.30874550000004" fill="none" stroke="rgb(92,92,92)" stroke-width="0.1"/>
  <path d="M 0.015160500000092725,68.30874550000004 L 0.0,68.28623877114086" fill="none" stroke="rgb(92,92,92)" stroke-width="0.1"/>
  <path d="M 100.0,93.09080579571008 L 92.75016049999999,97.96074550000003" fill="none" stroke="rgb(92,92,92)" stroke-width="0.1"/>
  <path d="M 92.75016049999999,97.96074550000003 L 94.12318477757685,100.0" fill="none" stroke="rgb(92,92,92)" stroke-width="0.1"/>
  <path d="M 86.60616049999999,88.8347455 L 100.0,79.81713903164984" fill="none" stroke="rgb(92,92,92)" stroke-width="0.1"/>
  <path d="M 100.0,72.58402723671298 L 83.25516049999999,83.85774550000002" fill="none" stroke="rgb(92,92,92)" stroke-width="0.1"/>
  <path d="M 83.25516049999999,83.85774550000002 L 86.60616049999999,88.8347455" fill="none" stroke="rgb(92,92,92)" stroke-width="0.1"/>
  <path d="M 100.0,59.28619214380831 L 77.1111605000001,74.73274550000002" fill="none" stroke="rgb(92,92,92)" stroke-width="0.1"/>
  <path d="M 77.1111605000001,74.73274550000002 L 73.7601605000001,69.75574550000005" fill="none" stroke="rgb(92,92,92)" stroke-width="0.1"/>
  <path d="M 73.7601605000001,69.75574550000005 L 100.0,52.048162465808105" fill="none" stroke="rgb(92,92,92)" stroke-width="0.1"/>
  <path d="M 12.332877633811563,0.0 L 13.02616050000006,1.0297455000000468" fill="none" stroke="rgb(92,92,92)" stroke-width="0.1"/>
  <path d="M 13.02616050000006,1.0297455000000468 L 8.049160500000085,4.379745500000013" fill="none" stroke="rgb(92,92,92)" stroke-width="0.1"/>
  <path d="M 61.649160499999994,83.99174550000004 L 66.62516049999999,80.64174550000001" fill="none" stroke="rgb(92,92,92)" stroke-width="0.1"/>
  <path d="M 66.62516049999999,80.64174550000001 L 79.658722247524,100.0" fill="none" stroke="rgb(92,92,92)" stroke-width="0.1"/>
  <path d="M 100.0,44.80959307318875 L 70.3991605,64.78574550000002" fill="none" stroke="rgb(92,92,92)" stroke-width="0.1"/>
  <path d="M 70.3991605,64.78574550000002 L 73.7601605000001,69.75574550000005" fill="none" stroke="rgb(92,92,92)" stroke-width="0.1"/>
  <path d="M 73.7601605000001,69.75574550000005 L 100.0,52.048162465808105" fill="none" stroke="rgb(92,92,92)" stroke-width="0.1"/>
  <path d="M 28.964527309724645,0.0 L 27.461160500000005,1.0097455000000082" fill="none" stroke="rgb(92,92,92)" stroke-width="0.1"/>
  <path d="M 27.461160500000005,1.0097455000000082 L 26.784485144863538,0.0" fill="none" stroke="rgb(92,92,92)" stroke-width="0.1"/>
  <path d="M 0.58116050000001,65.37874550000004 L 0.5871605000000955,65.35574550000001" fill="none" stroke="rgb(92,92,92)" stroke-width="0.1"/>
  <path d="M 0.5871605000000955,65.35574550000001 L 0.6081605000000536,65.2457455" fill="none" stroke="rgb(92,92,92)" stroke-width="0.1"/>
  <path d="M 0.6081605000000536,65.2457455 L 0.6211605000000873,65.14274550000005" fill="none" stroke="rgb(92,92,92)" stroke-width="0.1"/>
  <path d="M 0.6211605000000873,65.14274550000005 L 0.6291605000000118,65.04574550000001" fill="none" stroke="rgb(92,92,92)" stroke-width="0.1"/>
  <path d="M 0.6291605000000118,65.04574550000001 L 0.6301604999999881,64.95374550000003" fill="none" stroke="rgb(92,92,92)" stroke-width="0.1"/>
  <path d="M 0.6301604999999881,64.95374550000003 L 0.6271605000000591,64.8657455" fill="none" stroke="rgb(92,92,92)" stroke-width="0.1"/>
  <path d="M 0.6271605000000591,64.8657455 L 0.6201604999999972,64.7817455" fill="none" stroke="rgb(92,92,92)" stroke-width="0.1"/>
  <path d="M 0.6201604999999972,64.7817455 L 0.60916050000003,64.69874550000003" fill="none" stroke="rgb(92,92,92)" stroke-width="0.1"/>
  <path d="M 0.60916050000003,64.69874550000003 L 0.5961604999999963,64.61874550000005" fill="none" stroke="rgb(92,92,92)" stroke-width="0.1"/>
  <path d="M 0.5961604999999963,64.61874550000005 L 0.58116050000001,64.53974550000004" fill="none" stroke="rgb(92,92,92)" stroke-width="0.1"/>
  <path d="M 0.58116050000001,64.53974550000004 L 0.5661605000000236,64.46374550000002" fill="none" stroke="rgb(92,92,92)" stroke-width="0.1"/>
  <path d="M 0.5661605000000236,64.46374550000002 L 0.5511605000000372,64.3897455" fill="none" stroke="rgb(92,92,92)" stroke-width="0.1"/>
  <path d="M 0.5511605000000372,64.3897455 L 0.5371605000000272,64.3177455" fill="none" stroke="rgb(92,92,92)" stroke-width="0.1"/>
  <path d="M 0.5371605000000272,64.3177455 L 0.5251605000000836,64.24874550000004" fill="none" stroke="rgb(92,92,92)" stroke-width="0.1"/>
  <path d="M 0.5251605000000836,64.24874550000004 L 0.5161605000000691,64.18274550000001" fill="none" stroke="rgb(92,92,92)" stroke-width="0.1"/>
  <path d="M 0.5161605000000691,64.18274550000001 L 0.5111605000000736,64.11874550000005" fill="none" stroke="rgb(92,92,92)" stroke-width="0.1"/>
  <path d="M 0.5111605000000736,64.11874550000005 L 0.5101605000000973,64.05674550000003" fill="none" stroke="rgb(92,92,92)" stroke-width="0.1"/>
  <path d="M 0.5101605000000973,64.05674550000003 L 0.5131605000000263,63.99774550000001" fill="none" stroke="rgb(92,92,92)" stroke-width="0.1"/>
  <path d="M 0.5131605000000263,63.99774550000001 L 0.5191604999999981,63.941745500000025" fill="none" stroke="rgb(92,92,92)" stroke-width="0.1"/>
  <path d="M 0.5191604999999981,63.941745500000025 L 0.5281605000000127,63.88674550000002" fill="none" stroke="rgb(92,92,92)" stroke-width="0.1"/>
  <path d="M 0.5281605000000127,63.88674550000002 L 0.5411605000000463,63.8347455" fill="none" stroke="rgb(92,92,92)" stroke-width="0.1"/>
  <path d="M 0.5411605000000463,63.8347455 L 0.557160500000009,63.78474550000004" fill="none" stroke="rgb(92,92,92)" stroke-width="0.1"/>
  <path d="M 0.557160500000009,63.78474550000004 L 0.5761605000000145,63.73574550000001" fill="none" stroke="rgb(92,92,92)" stroke-width="0.1"/>
  <path d="M 0.5761605000000145,63.73574550000001 L 0.5971605000000864,63.689745500000015" fill="none" stroke="rgb(92,92,92)" stroke-width="0.1"/>
  <path d="M 0.5971605000000864,63.689745500000015 L 0.6211605000000873,63.6447455" fill="none" stroke="rgb(92,92,92)" stroke-width="0.1"/>
  <path d="M 0.6211605000000873,63.6447455 L 0.6491604999999936,63.60174549999999" fill="none" stroke="rgb(92,92,92)" stroke-width="0.1"/>
  <path d="M 0.6491604999999936,63.60174549999999 L 0.67916050000008,63.560745499999996" fill="none" stroke="rgb(92,92,92)" stroke-width="0.1"/>
  <path d="M 0.67916050000008,63.560745499999996 L 0.7121605000000955,63.52274550000004" fill="none" stroke="rgb(92,92,92)" stroke-width="0.1"/>
  <path d="M 0.7121605000000955,63.52274550000004 L 0.74816050000004,63.48674550000004" fill="none" stroke="rgb(92,92,92)" stroke-width="0.1"/>
  <path d="M 0.74816050000004,63.48674550000004 L 0.7861605000000509,63.45274549999999" fill="none" stroke="rgb(92,92,92)" stroke-width="0.1"/>
  <path d="M 0.7861605000000509,63.45274549999999 L 0.8281605000000809,63.42174550000004" fill="none" stroke="rgb(92,92,92)" stroke-width="0.1"/>
  <path d="M 0.8281605000000809,63.42174550000004 L 0.83116050000001,63.41974550000003" fill="none" stroke="rgb(92,92,92)" stroke-width="0.1"/>
  <path d="M 2.6181605000000445,63.92174550000004 L 2.59516050000002,63.91974550000003" fill="none" stroke="rgb(92,92,92)" stroke-width="0.1"/>
  <path d="M 2.59516050000002,63.91974550000003 L 2.48416050000003,63.903745500000014" fill="none" stroke="rgb(92,92,92)" stroke-width="0.1"/>
  <path d="M 2.48416050000003,63.903745500000014 L 2.3821605000000545,63.8827455" fill="none" stroke="rgb(92,92,92)" stroke-width="0.1"/>
  <path d="M 2.3821605000000545,63.8827455 L 2.2881605000000036,63.8587455" fill="none" stroke="rgb(92,92,92)" stroke-width="0.1"/>
  <path d="M 2.2881605000000036,63.8587455 L 2.200160500000038,63.830745500000035" fill="none" stroke="rgb(92,92,92)" stroke-width="0.1"/>
  <path d="M 2.200160500000038,63.830745500000035 L 2.1181605000000445,63.798745499999995" fill="none" stroke="rgb(92,92,92)" stroke-width="0.1"/>
  <path d="M 2.1181605000000445,63.798745499999995 L 2.04016050000007,63.764745500000004" fill="none" stroke="rgb(92,92,92)" stroke-width="0.1"/>
  <path d="M 2.04016050000007,63.764745500000004 L 1.9661605000000009,63.727745500000026" fill="none" stroke="rgb(92,92,92)" stroke-width="0.1"/>
  <path d="M 1.9661605000000009,63.727745500000026 L 1.8941604999999981,63.689745500000015" fill="none" stroke="rgb(92,92,92)" stroke-width="0.1"/>
  <path d="M 1.8941604999999981,63.689745500000015 L 1.8241605000000618,63.65074550000003" fill="none" stroke="rgb(92,92,92)" stroke-width="0.1"/>
  <path d="M 1.8241605000000618,63.65074550000003 L 1.7571605000000545,63.61074550000001" fill="none" stroke="rgb(92,92,92)" stroke-width="0.1"/>
  <path d="M 1.7571605000000545,63.61074550000001 L 1.6921605,63.572745499999996" fill="none" stroke="rgb(92,92,92)" stroke-width="0.1"/>
  <path d="M 1.6921605,63.572745499999996 L 1.6281605000000354,63.536745499999995" fill="none" stroke="rgb(92,92,92)" stroke-width="0.1"/>
  <path d="M 1.6281605000000354,63.536745499999995 L 1.5671605,63.503745500000036" fill="none" stroke="rgb(92,92,92)" stroke-width="0.1"/>
  <path d="M 1.5671605,63.503745500000036 L 1.5071605000000545,63.47374550000001" fill="none" stroke="rgb(92,92,92)" stroke-width="0.1"/>
  <path d="M 1.5071605000000545,63.47374550000001 L 1.4481605000000854,63.44874550000003" fill="none" stroke="rgb(92,92,92)" stroke-width="0.1"/>
  <path d="M 1.4481605000000854,63.44874550000003 L 1.3901605000000927,63.427745500000015" fill="none" stroke="rgb(92,92,92)" stroke-width="0.1"/>
  <path d="M 1.3901605000000927,63.427745500000015 L 1.3331605000000764,63.41074550000002" fill="none" stroke="rgb(92,92,92)" stroke-width="0.1"/>
  <path d="M 1.3331605000000764,63.41074550000002 L 1.2781605000000127,63.39874550000002" fill="none" stroke="rgb(92,92,92)" stroke-width="0.1"/>
  <path d="M 1.2781605000000127,63.39874550000002 L 1.2231605000000627,63.389745500000004" fill="none" stroke="rgb(92,92,92)" stroke-width="0.1"/>
  <path d="M 1.2231605000000627,63.389745500000004 L 1.1701605000000654,63.38474550000001" fill="none" stroke="rgb(92,92,92)" stroke-width="0.1"/>
  <path d="M 1.1701605000000654,63.38474550000001 L 1.1171605000000682,63.38374550000003" fill="none" stroke="rgb(92,92,92)" stroke-width="0.1"/>
  <path d="M 1.1171605000000682,63.38374550000003 L 1.0651605000000473,63.38574550000004" fill="none" stroke="rgb(92,92,92)" stroke-width="0.1"/>
  <path d="M 1.0651605000000473,63.38574550000004 L 1.0141605000000027,63.39074550000004" fill="none" stroke="rgb(92,92,92)" stroke-width="0.1"/>
  <path d="M 1.0141605000000027,63.39074550000004 L 0.9641605000000482,63.399745499999995" fill="none" stroke="rgb(92,92,92)" stroke-width="0.1"/>
  <path d="M 0.9641605000000482,63.399745499999995 L 0.9141605000000936,63.411745499999995" fill="none" stroke="rgb(92,92,92)" stroke-width="0.1"/>
  <path d="M 0.9141605000000936,63.411745499999995 L 0.8661605000000918,63.42674550000004" fill="none" stroke="rgb(92,92,92)" stroke-width="0.1"/>
  <path d="M 0.8661605000000918,63.42674550000004 L 0.8321604999999863,63.44074549999999" fill="none" stroke="rgb(92,92,92)" stroke-width="0.1"/>
  <path d="M 2.6981605000000854,63.91274550000003 L 2.852160500000082,63.961745500000006" fill="none" stroke="rgb(92,92,92)" stroke-width="0.1"/>
  <path d="M 2.852160500000082,63.961745500000006 L 2.9811604999999872,64.01174550000002" fill="none" stroke="rgb(92,92,92)" stroke-width="0.1"/>
  <path d="M 2.9811604999999872,64.01174550000002 L 3.089160500000048,64.06174550000003" fill="none" stroke="rgb(92,92,92)" stroke-width="0.1"/>
  <path d="M 3.089160500000048,64.06174550000003 L 3.17916050000008,64.11174550000004" fill="none" stroke="rgb(92,92,92)" stroke-width="0.1"/>
  <path d="M 3.17916050000008,64.11174550000004 L 3.2531605000000354,64.16074550000002" fill="none" stroke="rgb(92,92,92)" stroke-width="0.1"/>
  <path d="M 3.2531605000000354,64.16074550000002 L 3.3151605000000473,64.20874550000002" fill="none" stroke="rgb(92,92,92)" stroke-width="0.1"/>
  <path d="M 3.3151605000000473,64.20874550000002 L 3.3681605000000445,64.25674550000002" fill="none" stroke="rgb(92,92,92)" stroke-width="0.1"/>
  <path d="M 3.3681605000000445,64.25674550000002 L 3.41516050000007,64.30174550000004" fill="none" stroke="rgb(92,92,92)" stroke-width="0.1"/>
  <path d="M 3.41516050000007,64.30174550000004 L 3.4581605000000764,64.34574550000002" fill="none" stroke="rgb(92,92,92)" stroke-width="0.1"/>
  <path d="M 3.4581605000000764,64.34574550000002 L 3.4991605000000163,64.38874550000003" fill="none" stroke="rgb(92,92,92)" stroke-width="0.1"/>
  <path d="M 3.4991605000000163,64.38874550000003 L 3.5371605000000272,64.4307455" fill="none" stroke="rgb(92,92,92)" stroke-width="0.1"/>
  <path d="M 3.5371605000000272,64.4307455 L 3.575160500000038,64.4737455" fill="none" stroke="rgb(92,92,92)" stroke-width="0.1"/>
  <path d="M 3.575160500000038,64.4737455 L 3.6111605000000964,64.51674550000001" fill="none" stroke="rgb(92,92,92)" stroke-width="0.1"/>
  <path d="M 3.6111605000000964,64.51674550000001 L 3.6481605000000172,64.56174550000003" fill="none" stroke="rgb(92,92,92)" stroke-width="0.1"/>
  <path d="M 3.6481605000000172,64.56174550000003 L 3.6841605000000754,64.6087455" fill="none" stroke="rgb(92,92,92)" stroke-width="0.1"/>
  <path d="M 3.6841605000000754,64.6087455 L 3.7221605000000864,64.65874550000001" fill="none" stroke="rgb(92,92,92)" stroke-width="0.1"/>
  <path d="M 3.7221605000000864,64.65874550000001 L 3.7611605000000736,64.7117455" fill="none" stroke="rgb(92,92,92)" stroke-width="0.1"/>
  <path d="M 3.7611605000000736,64.7117455 L 3.80316049999999,64.77174550000001" fill="none" stroke="rgb(92,92,92)" stroke-width="0.1"/>
  <path d="M 3.80316049999999,64.77174550000001 L 3.8481605000000627,64.84074550000003" fill="none" stroke="rgb(92,92,92)" stroke-width="0.1"/>
  <path d="M 3.8481605000000627,64.84074550000003 L 3.897160500000041,64.92074550000001" fill="none" stroke="rgb(92,92,92)" stroke-width="0.1"/>
  <path d="M 3.897160500000041,64.92074550000001 L 3.9511605000000145,65.01374550000003" fill="none" stroke="rgb(92,92,92)" stroke-width="0.1"/>
  <path d="M 3.9511605000000145,65.01374550000003 L 4.011160500000074,65.12274550000001" fill="none" stroke="rgb(92,92,92)" stroke-width="0.1"/>
  <path d="M 4.011160500000074,65.12274550000001 L 4.077160499999991,65.2507455" fill="none" stroke="rgb(92,92,92)" stroke-width="0.1"/>
  <path d="M 4.077160499999991,65.2507455 L 4.15116050000006,65.3997455" fill="none" stroke="rgb(92,92,92)" stroke-width="0.1"/>
  <path d="M 4.15116050000006,65.3997455 L 3.144160499999998,64.04274550000002" fill="none" instance-id="7" semantic-id="28" stroke="rgb(92,92,92)" stroke-width="0.1"/>
  <path d="M 3.144160499999998,64.04274550000002 L 3.4481605000000854,64.3227455" fill="none" instance-id="7" semantic-id="28" stroke="rgb(92,92,92)" stroke-width="0.1"/>
  <path d="M 3.4481605000000854,64.3227455 L 3.70616050000001,64.61974550000002" fill="none" instance-id="7" semantic-id="28" stroke="rgb(92,92,92)" stroke-width="0.1"/>
  <path d="M 3.70616050000001,64.61974550000002 L 3.94316050000009,64.97274550000003" fill="none" instance-id="7" semantic-id="28" stroke="rgb(92,92,92)" stroke-width="0.1"/>
  <path d="M 3.94316050000009,64.97274550000003 L 4.15116050000006,65.3997455" fill="none" instance-id="7" semantic-id="28" stroke="rgb(92,92,92)" stroke-width="0.1"/>
  <path d="M 1.3061605000000327,67.43874550000004 L 1.2501604999999927,67.35574550000001" fill="none" stroke="rgb(92,92,92)" stroke-width="0.1"/>
  <path d="M 1.2501604999999927,67.35574550000001 L 1.4161605000000463,67.24374550000005" fill="none" instance-id="7" semantic-id="28" stroke="rgb(92,92,92)" stroke-width="0.1"/>
  <path d="M 1.3061605000000327,67.43874550000004 L 4.374160500000016,65.37174550000003" fill="none" instance-id="7" semantic-id="28" stroke="rgb(92,92,92)" stroke-width="0.1"/>
  <path d="M 4.374160500000016,65.37174550000003 L 4.31816050000009,65.2887455" fill="none" stroke="rgb(92,92,92)" stroke-width="0.1"/>
  <path d="M 4.31816050000009,65.2887455 L 4.152160500000036,65.3997455" fill="none" stroke="rgb(92,92,92)" stroke-width="0.1"/>
  <path d="M 0.5481604999999945,65.45174550000002 L 0.5441605000000891,65.6137455" fill="none" stroke="rgb(92,92,92)" stroke-width="0.1"/>
  <path d="M 0.5441605000000891,65.6137455 L 0.5501605000000609,65.75174550000003" fill="none" stroke="rgb(92,92,92)" stroke-width="0.1"/>
  <path d="M 0.5501605000000609,65.75174550000003 L 0.5621605000000045,65.86974550000002" fill="none" stroke="rgb(92,92,92)" stroke-width="0.1"/>
  <path d="M 0.5621605000000045,65.86974550000002 L 0.5801605000000336,65.97074550000002" fill="none" stroke="rgb(92,92,92)" stroke-width="0.1"/>
  <path d="M 0.5801605000000336,65.97074550000002 L 0.6031605000000582,66.05674550000003" fill="none" stroke="rgb(92,92,92)" stroke-width="0.1"/>
  <path d="M 0.6031605000000582,66.05674550000003 L 0.6291605000000118,66.13174550000002" fill="none" stroke="rgb(92,92,92)" stroke-width="0.1"/>
  <path d="M 0.6291605000000118,66.13174550000002 L 0.6561605000000554,66.19674550000002" fill="none" stroke="rgb(92,92,92)" stroke-width="0.1"/>
  <path d="M 0.6561605000000554,66.19674550000002 L 0.6851605000000518,66.25574550000005" fill="none" stroke="rgb(92,92,92)" stroke-width="0.1"/>
  <path d="M 0.6851605000000518,66.25574550000005 L 0.7121605000000955,66.3107455" fill="none" stroke="rgb(92,92,92)" stroke-width="0.1"/>
  <path d="M 0.7121605000000955,66.3107455 L 0.7401605000000018,66.36274550000002" fill="none" stroke="rgb(92,92,92)" stroke-width="0.1"/>
  <path d="M 0.7401605000000018,66.36274550000002 L 0.7671605000000454,66.4137455" fill="none" stroke="rgb(92,92,92)" stroke-width="0.1"/>
  <path d="M 0.7671605000000454,66.4137455 L 0.7951605000000654,66.46274550000004" fill="none" stroke="rgb(92,92,92)" stroke-width="0.1"/>
  <path d="M 0.7951605000000654,66.46274550000004 L 0.8241605000000618,66.51074550000004" fill="none" stroke="rgb(92,92,92)" stroke-width="0.1"/>
  <path d="M 0.8241605000000618,66.51074550000004 L 0.8551605000000109,66.55974550000002" fill="none" stroke="rgb(92,92,92)" stroke-width="0.1"/>
  <path d="M 0.8551605000000109,66.55974550000002 L 0.88716050000005,66.60974550000003" fill="none" stroke="rgb(92,92,92)" stroke-width="0.1"/>
  <path d="M 0.88716050000005,66.60974550000003 L 0.9231604999999945,66.6617455" fill="none" stroke="rgb(92,92,92)" stroke-width="0.1"/>
  <path d="M 0.9231604999999945,66.6617455 L 0.9611605000000054,66.71574550000003" fill="none" stroke="rgb(92,92,92)" stroke-width="0.1"/>
  <path d="M 0.9611605000000054,66.71574550000003 L 1.0041605000000118,66.7747455" fill="none" stroke="rgb(92,92,92)" stroke-width="0.1"/>
  <path d="M 1.0041605000000118,66.7747455 L 1.0551605000000563,66.83974549999999" fill="none" stroke="rgb(92,92,92)" stroke-width="0.1"/>
  <path d="M 1.0551605000000563,66.83974549999999 L 1.1141605000000254,66.9117455" fill="none" stroke="rgb(92,92,92)" stroke-width="0.1"/>
  <path d="M 1.1141605000000254,66.9117455 L 1.1851605000000518,66.99274550000001" fill="none" stroke="rgb(92,92,92)" stroke-width="0.1"/>
  <path d="M 1.1851605000000518,66.99274550000001 L 1.2691604999999981,67.0847455" fill="none" stroke="rgb(92,92,92)" stroke-width="0.1"/>
  <path d="M 1.2691604999999981,67.0847455 L 1.3691605000000209,67.18874550000004" fill="none" stroke="rgb(92,92,92)" stroke-width="0.1"/>
  <path d="M 1.3691605000000209,67.18874550000004 L 1.4271605000000136,67.24674550000003" fill="none" stroke="rgb(92,92,92)" stroke-width="0.1"/>
  <circle cx="2.4591605000000527" cy="65.91474550000004" fill="none" instance-id="7" r="0.472579" semantic-id="28" stroke="rgb(92,92,92)" stroke-width="0.1"/>
  <circle cx="2.4591605000000527" cy="65.91474550000004" fill="none" instance-id="7" r="0.346339" semantic-id="28" stroke="rgb(92,92,92)" stroke-width="0.1"/>
  <circle cx="2.4591605000000527" cy="65.91474550000004" fill="none" instance-id="7" r="0.220647" semantic-id="28" stroke="rgb(92,92,92)" stroke-width="0.1"/>
  <circle cx="73.25216050000006" cy="98.50474550000001" fill="none" instance-id="3" r="0.163399" semantic-id="23" stroke="rgb(92,92,92)" stroke-width="0.1"/>
  <circle cx="74.71016050000003" cy="98.74874550000004" fill="none" instance-id="3" r="0.229752" semantic-id="23" stroke="rgb(92,92,92)" stroke-width="0.1"/>
  <circle cx="74.71016050000003" cy="98.74874550000004" fill="none" instance-id="3" r="0.316096" semantic-id="23" stroke="rgb(92,92,92)" stroke-width="0.1"/>
  <circle cx="69.3411605" cy="92.69474550000001" fill="none" instance-id="2" r="0.163399" semantic-id="23" stroke="rgb(92,92,92)" stroke-width="0.1"/>
  <circle cx="70.45516050000003" cy="94.35574550000001" fill="none" instance-id="2" r="0.163399" semantic-id="23" stroke="rgb(92,92,92)" stroke-width="0.1"/>
  <circle cx="70.79916050000008" cy="92.93874550000004" fill="none" instance-id="2" r="0.229752" semantic-id="23" stroke="rgb(92,92,92)" stroke-width="0.1"/>
  <circle cx="70.79916050000008" cy="92.93874550000004" fill="none" instance-id="2" r="0.316096" semantic-id="23" stroke="rgb(92,92,92)" stroke-width="0.1"/>
  <circle cx="65.43016050000006" cy="86.88574550000004" fill="none" instance-id="1" r="0.163399" semantic-id="23" stroke="rgb(92,92,92)" stroke-width="0.1"/>
  <circle cx="66.54416050000009" cy="88.54674550000004" fill="none" instance-id="1" r="0.163399" semantic-id="23" stroke="rgb(92,92,92)" stroke-width="0.1"/>
  <circle cx="66.88716050000005" cy="87.12974550000001" fill="none" instance-id="1" r="0.229752" semantic-id="23" stroke="rgb(92,92,92)" stroke-width="0.1"/>
  <circle cx="66.88716050000005" cy="87.12974550000001" fill="none" instance-id="1" r="0.316096" semantic-id="23" stroke="rgb(92,92,92)" stroke-width="0.1"/>
 </g>
 <g id="layerCOLUMN" inkscape:groupmode="layer" inkscape:label="COLUMN">
  <path d="M 35.423160499999994,48.62174550000003 L 42.059160500000075,44.153745500000014" fill="none" stroke="rgb(178,178,0)" stroke-width="0.1"/>
  <path d="M 42.059160500000075,44.153745500000014 L 37.5911605,37.517745500000046" fill="none" stroke="rgb(178,178,0)" stroke-width="0.1"/>
  <path d="M 37.5911605,37.517745500000046 L 30.955160500000034,41.98574550000001" fill="none" stroke="rgb(178,178,0)" stroke-width="0.1"/>
  <path d="M 30.955160500000034,41.98574550000001 L 35.423160499999994,48.62174550000003" fill="none" stroke="rgb(178,178,0)" stroke-width="0.1"/>
  <path d="M 96.80716050000001,7.2957455000000095 L 100.0,5.146820677565188" fill="none" stroke="rgb(178,178,0)" stroke-width="0.1"/>
  <path d="M 93.32003318084162,0.0 L 92.34016050000002,0.6597455000000423" fill="none" stroke="rgb(178,178,0)" stroke-width="0.1"/>
  <path d="M 92.34016050000002,0.6597455000000423 L 96.80716050000001,7.2957455000000095" fill="none" stroke="rgb(178,178,0)" stroke-width="0.1"/>
 </g>
 <g id="layerDIM_IDEN" inkscape:groupmode="layer" inkscape:label="DIM_IDEN">
  <path d="M 73.66916050000009,92.73274550000002 L 62.89477125798771,100.0" fill="none" stroke="rgb(0,178,0)" stroke-width="0.1"/>
 </g>
 <g id="layerPUB_TEXT" inkscape:groupmode="layer" inkscape:label="PUB_TEXT">
  <text fill="rgb(0,0,0)" font-family="Noto Sans CJK SC" font-size="2" transform="rotate(-33.95,44.40816050000001,5.077745499999992)" x="44.40816050000001" y="5.077745499999992">
   12
  </text>
  <text fill="rgb(0,0,0)" font-family="Noto Sans CJK SC" font-size="2" transform="rotate(-33.95,50.62916050000001,0.8897455000000036)" x="50.62916050000001" y="0.8897455000000036">
   人化妆间
  </text>
  <text fill="rgb(0,0,0)" font-family="Noto Sans CJK SC" font-size="2" transform="rotate(-33.95,35.308160499999985,33.66474550000004)" x="35.308160499999985" y="33.66474550000004">
   更衣
  </text>
  <text fill="rgb(0,0,0)" font-family="Noto Sans CJK SC" font-size="2" transform="rotate(-33.95,86.0431605,71.66774550000002)" x="86.0431605" y="71.66774550000002">
   16
  </text>
  <text fill="rgb(0,0,0)" font-family="Noto Sans CJK SC" font-size="2" transform="rotate(-33.95,92.2641605,67.4787455)" x="92.2641605" y="67.4787455">
   人化妆间
  </text>
  <text fill="rgb(0,0,0)" font-family="Noto Sans CJK SC" font-size="2" transform="rotate(-33.95,50.808160499999985,23.584745499999997)" x="50.808160499999985" y="23.584745499999997">
   更衣
  </text>
  <text fill="rgb(0,0,0)" font-family="Noto Sans CJK SC" font-size="2" transform="rotate(-33.95,66.08316050000008,14.839745499999992)" x="66.08316050000008" y="14.839745499999992">
   更衣
  </text>
  <text fill="rgb(0,0,0)" font-family="Noto Sans CJK SC" font-size="2" transform="rotate(-33.95,80.76316050000003,3.869745500000022)" x="80.76316050000003" y="3.869745500000022">
   更衣
  </text>
  <text fill="rgb(0,0,0)" font-family="Noto Sans CJK SC" font-size="2" transform="rotate(-33.95,46.50816050000003,51.15474550000005)" x="46.50816050000003" y="51.15474550000005">
   更衣
  </text>
  <text fill="rgb(0,0,0)" font-family="Noto Sans CJK SC" font-size="2" transform="rotate(-33.95,62.00816050000003,41.074745500000006)" x="62.00816050000003" y="41.074745500000006">
   更衣
  </text>
  <text fill="rgb(0,0,0)" font-family="Noto Sans CJK SC" font-size="2" transform="rotate(-33.95,77.28316050000001,32.3297455)" x="77.28316050000001" y="32.3297455">
   更衣
  </text>
  <text fill="rgb(0,0,0)" font-family="Noto Sans CJK SC" font-size="2" transform="rotate(-33.95,91.96316050000007,21.35974550000003)" x="91.96316050000007" y="21.35974550000003">
   更衣
  </text>
  <text fill="rgb(0,0,0)" font-family="Noto Sans CJK SC" font-size="2" transform="rotate(-34.0,65.59316050000007,96.50574550000005)" x="65.59316050000007" y="96.50574550000005">
   -
  </text>
 </g>
 <g id="layerWALL" inkscape:groupmode="layer" inkscape:label="WALL">
  <path d="M 99.29616050000004,5.620745499999998 L 100.0,6.666261518735325" fill="none" instance-id="-1" semantic-id="1" stroke="rgb(178,178,0)" stroke-width="0.1"/>
  <path d="M 39.298160499999994,40.05374549999999 L 50.91216050000003,32.23574550000001" fill="none" instance-id="-1" semantic-id="1" stroke="rgb(178,178,0)" stroke-width="0.1"/>
  <path d="M 40.41516050000007,41.71274550000004 L 52.02816050000001,33.8947455" fill="none" instance-id="-1" semantic-id="1" stroke="rgb(178,178,0)" stroke-width="0.1"/>
  <path d="M 2.6896769680339503,0.0 L 12.721160499999996,14.900745500000028" fill="none" instance-id="-1" semantic-id="1" stroke="rgb(178,178,0)" stroke-width="0.1"/>
  <path d="M 12.721160499999996,14.900745500000028 L 14.380160499999988,13.783745500000009" fill="none" instance-id="-1" semantic-id="1" stroke="rgb(178,178,0)" stroke-width="0.1"/>
  <path d="M 14.380160499999988,13.783745500000009 L 5.100663981382127,0.0" fill="none" instance-id="-1" semantic-id="1" stroke="rgb(178,178,0)" stroke-width="0.1"/>
  <path d="M 23.711160500000005,27.643745500000023 L 22.757160500000055,26.226745499999993" fill="none" instance-id="-1" semantic-id="1" stroke="rgb(178,178,0)" stroke-width="0.1"/>
  <path d="M 22.757160500000055,26.226745499999993 L 21.098160500000063,27.34374550000001" fill="none" instance-id="-1" semantic-id="1" stroke="rgb(178,178,0)" stroke-width="0.1"/>
  <path d="M 21.098160500000063,27.34374550000001 L 22.052160500000014,28.76074550000004" fill="none" instance-id="-1" semantic-id="1" stroke="rgb(178,178,0)" stroke-width="0.1"/>
  <path d="M 37.082160499999986,47.50474550000001 L 46.049160500000085,60.824745500000006" fill="none" instance-id="-1" semantic-id="1" stroke="rgb(178,178,0)" stroke-width="0.1"/>
  <path d="M 35.423160499999994,48.62174550000003 L 44.39016050000009,61.941745500000025" fill="none" instance-id="-1" semantic-id="1" stroke="rgb(178,178,0)" stroke-width="0.1"/>
  <path d="M 44.39016050000009,61.941745500000025 L 45.61216050000007,63.755745500000046" fill="none" instance-id="-1" semantic-id="1" stroke="rgb(178,178,0)" stroke-width="0.1"/>
  <path d="M 45.61216050000007,63.755745500000046 L 47.271160500000065,62.639745500000004" fill="none" instance-id="-1" semantic-id="1" stroke="rgb(178,178,0)" stroke-width="0.1"/>
  <path d="M 47.271160500000065,62.639745500000004 L 46.049160500000085,60.824745500000006" fill="none" instance-id="-1" semantic-id="1" stroke="rgb(178,178,0)" stroke-width="0.1"/>
  <path d="M 72.42236169823207,100.0 L 55.64716050000004,75.08274550000004" fill="none" instance-id="-1" semantic-id="1" stroke="rgb(178,178,0)" stroke-width="0.1"/>
  <path d="M 55.64716050000004,75.08274550000004 L 53.98816050000005,76.19874550000003" fill="none" instance-id="-1" semantic-id="1" stroke="rgb(178,178,0)" stroke-width="0.1"/>
  <path d="M 53.98816050000005,76.19874550000003 L 70.01174065339694,100.0" fill="none" instance-id="-1" semantic-id="1" stroke="rgb(178,178,0)" stroke-width="0.1"/>
  <path d="M 23.711160500000005,27.643745500000023 L 32.614160500000025,40.868745500000045" fill="none" instance-id="-1" semantic-id="1" stroke="rgb(178,178,0)" stroke-width="0.1"/>
  <path d="M 22.052160500000014,28.76074550000004 L 30.955160500000034,41.98574550000001" fill="none" instance-id="-1" semantic-id="1" stroke="rgb(178,178,0)" stroke-width="0.1"/>
  <path d="M 65.84316050000007,22.183745500000043 L 80.77516050000008,12.130745500000046" fill="none" instance-id="-1" semantic-id="1" stroke="rgb(178,178,0)" stroke-width="0.1"/>
  <path d="M 66.96016050000003,23.842745500000035 L 81.89216050000005,13.789745500000038" fill="none" instance-id="-1" semantic-id="1" stroke="rgb(178,178,0)" stroke-width="0.1"/>
  <path d="M 0.0,51.5177248675335 L 9.737160500000073,65.98074550000001" fill="none" instance-id="-1" semantic-id="1" stroke="rgb(178,178,0)" stroke-width="0.1"/>
  <path d="M 0.0,55.09905782234563 L 6.961160500000005,65.43874550000004" fill="none" instance-id="-1" semantic-id="1" stroke="rgb(178,178,0)" stroke-width="0.1"/>
  <path d="M 50.91216050000003,32.23574550000001 L 65.84316050000007,22.183745500000043" fill="none" instance-id="-1" semantic-id="1" stroke="rgb(178,178,0)" stroke-width="0.1"/>
  <path d="M 52.02816050000001,33.8947455 L 66.96016050000003,23.842745500000035" fill="none" instance-id="-1" semantic-id="1" stroke="rgb(178,178,0)" stroke-width="0.1"/>
  <path d="M 80.77516050000008,12.130745500000046 L 94.04716050000002,3.1957455000000436" fill="none" instance-id="-1" semantic-id="1" stroke="rgb(178,178,0)" stroke-width="0.1"/>
  <path d="M 81.89216050000005,13.789745500000038 L 95.1641605000001,4.8547455000000355" fill="none" instance-id="-1" semantic-id="1" stroke="rgb(178,178,0)" stroke-width="0.1"/>
  <path d="M 19.789160500000094,80.91274550000003 L 32.638618554241475,100.0" fill="none" instance-id="-1" semantic-id="1" stroke="rgb(178,178,0)" stroke-width="0.1"/>
  <path d="M 19.247160500000064,83.68874550000004 L 30.22822326804942,100.0" fill="none" instance-id="-1" semantic-id="1" stroke="rgb(178,178,0)" stroke-width="0.1"/>
  <path d="M 0.0,70.1251249868667 L 6.961160500000005,65.43874550000004" fill="none" instance-id="-1" semantic-id="1" stroke="rgb(178,178,0)" stroke-width="0.1"/>
  <path d="M 0.0,72.53602250373729 L 9.737160500000073,65.98074550000001" fill="none" instance-id="-1" semantic-id="1" stroke="rgb(178,178,0)" stroke-width="0.1"/>
  <path d="M 0.0,94.23499790547368 L 19.789160500000094,80.91274550000003" fill="none" instance-id="-1" semantic-id="1" stroke="rgb(178,178,0)" stroke-width="0.1"/>
  <path d="M 0.0,96.64594537407254 L 19.247160500000064,83.68874550000004" fill="none" instance-id="-1" semantic-id="1" stroke="rgb(178,178,0)" stroke-width="0.1"/>
 </g>
 <g id="layerWALL-MOVE" inkscape:groupmode="layer" inkscape:label="WALL-MOVE">
  <path d="M 24.269160499999998,28.47274550000003 L 30.586160500000005,24.22074550000002" fill="none" instance-id="-1" semantic-id="1" stroke="rgb(178,0,178)" stroke-width="0.1"/>
  <path d="M 30.586160500000005,24.22074550000002 L 29.469160500000044,22.560745499999996" fill="none" instance-id="-1" semantic-id="1" stroke="rgb(178,0,178)" stroke-width="0.1"/>
  <path d="M 29.469160500000044,22.560745499999996 L 23.152160500000036,26.81374550000004" fill="none" instance-id="-1" semantic-id="1" stroke="rgb(178,0,178)" stroke-width="0.1"/>
  <path d="M 39.74216050000007,15.644745499999999 L 37.7641605,16.976745499999993" fill="none" instance-id="-1" semantic-id="1" stroke="rgb(178,0,178)" stroke-width="0.1"/>
  <path d="M 37.7641605,16.976745499999993 L 38.88116050000008,18.63574550000004" fill="none" instance-id="-1" semantic-id="1" stroke="rgb(178,0,178)" stroke-width="0.1"/>
  <path d="M 38.88116050000008,18.63574550000004 L 40.03016050000008,17.862745500000017" fill="none" instance-id="-1" semantic-id="1" stroke="rgb(178,0,178)" stroke-width="0.1"/>
  <path d="M 46.60716050000008,61.65474550000005 L 50.75416050000001,58.86274550000002" fill="none" instance-id="-1" semantic-id="1" stroke="rgb(178,0,178)" stroke-width="0.1"/>
  <path d="M 50.75416050000001,58.86274550000002 L 49.63716050000005,57.203745500000025" fill="none" instance-id="-1" semantic-id="1" stroke="rgb(178,0,178)" stroke-width="0.1"/>
  <path d="M 49.63716050000005,57.203745500000025 L 45.49116050000009,59.99474550000002" fill="none" instance-id="-1" semantic-id="1" stroke="rgb(178,0,178)" stroke-width="0.1"/>
  <path d="M 61.25116050000008,49.38474550000001 L 57.933160499999985,51.618745500000045" fill="none" instance-id="-1" semantic-id="1" stroke="rgb(178,0,178)" stroke-width="0.1"/>
  <path d="M 57.933160499999985,51.618745500000045 L 59.05016050000006,53.27774550000004" fill="none" instance-id="-1" semantic-id="1" stroke="rgb(178,0,178)" stroke-width="0.1"/>
  <path d="M 59.05016050000006,53.27774550000004 L 63.198160500000085,50.48574550000001" fill="none" instance-id="-1" semantic-id="1" stroke="rgb(178,0,178)" stroke-width="0.1"/>
  <path d="M 56.6201605,6.693745500000034 L 60.44916050000006,4.115745500000003" fill="none" instance-id="-1" semantic-id="1" stroke="rgb(178,0,178)" stroke-width="0.1"/>
  <path d="M 60.44916050000006,4.115745500000003 L 59.332160499999986,2.456745500000011" fill="none" instance-id="-1" semantic-id="1" stroke="rgb(178,0,178)" stroke-width="0.1"/>
  <path d="M 59.332160499999986,2.456745500000011 L 54.674160500000085,5.592745500000035" fill="none" instance-id="-1" semantic-id="1" stroke="rgb(178,0,178)" stroke-width="0.1"/>
  <path d="M 78.12916050000001,40.43274550000001 L 83.10616049999999,37.082745500000044" fill="none" instance-id="-1" semantic-id="1" stroke="rgb(178,0,178)" stroke-width="0.1"/>
  <path d="M 83.10616049999999,37.082745500000044 L 81.98916050000003,35.423745499999995" fill="none" instance-id="-1" semantic-id="1" stroke="rgb(178,0,178)" stroke-width="0.1"/>
  <path d="M 81.98916050000003,35.423745499999995 L 77.84216050000009,38.215745500000025" fill="none" instance-id="-1" semantic-id="1" stroke="rgb(178,0,178)" stroke-width="0.1"/>
  <path d="M 91.11416050000003,29.280745500000023 L 90.2841605000001,29.838745500000016" fill="none" instance-id="-1" semantic-id="1" stroke="rgb(178,0,178)" stroke-width="0.1"/>
  <path d="M 90.2841605000001,29.838745500000016 L 91.40116050000006,31.49874550000004" fill="none" instance-id="-1" semantic-id="1" stroke="rgb(178,0,178)" stroke-width="0.1"/>
  <path d="M 91.40116050000006,31.49874550000004 L 93.06116050000003,30.380745500000046" fill="none" instance-id="-1" semantic-id="1" stroke="rgb(178,0,178)" stroke-width="0.1"/>
  <path d="M 56.6201605,6.693745500000034 L 66.6731605,21.624745500000017" fill="none" instance-id="-1" semantic-id="1" stroke="rgb(178,0,178)" stroke-width="0.1"/>
  <path d="M 54.961160500000005,7.810745499999996 L 65.0141605,22.741745500000036" fill="none" instance-id="-1" semantic-id="1" stroke="rgb(178,0,178)" stroke-width="0.1"/>
  <path d="M 67.79016050000007,23.28374550000001 L 77.84216050000009,38.215745500000025" fill="none" instance-id="-1" semantic-id="1" stroke="rgb(178,0,178)" stroke-width="0.1"/>
  <path d="M 66.13116050000008,24.400745500000028 L 76.18316049999999,39.332745500000044" fill="none" instance-id="-1" semantic-id="1" stroke="rgb(178,0,178)" stroke-width="0.1"/>
  <path d="M 41.68916050000007,16.745745499999998 L 51.74116050000009,31.676745500000038" fill="none" instance-id="-1" semantic-id="1" stroke="rgb(178,0,178)" stroke-width="0.1"/>
  <path d="M 40.03016050000008,17.862745500000017 L 50.082160499999986,32.7937455" fill="none" instance-id="-1" semantic-id="1" stroke="rgb(178,0,178)" stroke-width="0.1"/>
  <path d="M 73.81356059603536,0.0 L 81.60416050000003,11.572745499999996" fill="none" instance-id="-1" semantic-id="1" stroke="rgb(178,0,178)" stroke-width="0.1"/>
  <path d="M 71.40261283284224,0.0 L 79.94516050000004,12.689745500000015" fill="none" instance-id="-1" semantic-id="1" stroke="rgb(178,0,178)" stroke-width="0.1"/>
  <path d="M 82.7211605,13.231745500000045 L 92.77316050000002,28.163745500000005" fill="none" instance-id="-1" semantic-id="1" stroke="rgb(178,0,178)" stroke-width="0.1"/>
  <path d="M 81.0621605,14.348745500000007 L 91.11416050000003,29.280745500000023" fill="none" instance-id="-1" semantic-id="1" stroke="rgb(178,0,178)" stroke-width="0.1"/>
  <path d="M 52.858160500000054,33.336745500000006 L 62.910160500000075,48.267745500000046" fill="none" instance-id="-1" semantic-id="1" stroke="rgb(178,0,178)" stroke-width="0.1"/>
  <path d="M 51.19916050000006,34.45274549999999 L 61.25116050000008,49.38474550000001" fill="none" instance-id="-1" semantic-id="1" stroke="rgb(178,0,178)" stroke-width="0.1"/>
  <path d="M 41.68916050000007,16.745745499999998 L 45.51816050000002,14.167745500000024" fill="none" instance-id="-1" semantic-id="1" stroke="rgb(178,0,178)" stroke-width="0.1"/>
  <path d="M 45.51816050000002,14.167745500000024 L 44.40116050000006,12.508745500000032" fill="none" instance-id="-1" semantic-id="1" stroke="rgb(178,0,178)" stroke-width="0.1"/>
  <path d="M 44.40116050000006,12.508745500000032 L 39.74216050000007,15.644745499999999" fill="none" instance-id="-1" semantic-id="1" stroke="rgb(178,0,178)" stroke-width="0.1"/>
  <path d="M 54.674160500000085,5.592745500000035 L 52.69616050000002,6.924745500000029" fill="none" instance-id="-1" semantic-id="1" stroke="rgb(178,0,178)" stroke-width="0.1"/>
  <path d="M 52.69616050000002,6.924745500000029 L 53.813160500000095,8.58374550000002" fill="none" instance-id="-1" semantic-id="1" stroke="rgb(178,0,178)" stroke-width="0.1"/>
  <path d="M 53.813160500000095,8.58374550000002 L 54.961160500000005,7.810745499999996" fill="none" instance-id="-1" semantic-id="1" stroke="rgb(178,0,178)" stroke-width="0.1"/>
  <path d="M 93.06116050000003,30.380745500000046 L 100.0,25.70894520038013" fill="none" instance-id="-1" semantic-id="1" stroke="rgb(178,0,178)" stroke-width="0.1"/>
  <path d="M 100.0,25.352444452999066 L 99.0481605,23.93874550000004" fill="none" instance-id="-1" semantic-id="1" stroke="rgb(178,0,178)" stroke-width="0.1"/>
  <path d="M 99.0481605,23.93874550000004 L 92.77316050000002,28.163745500000005" fill="none" instance-id="-1" semantic-id="1" stroke="rgb(178,0,178)" stroke-width="0.1"/>
  <path d="M 63.198160500000085,50.48574550000001 L 68.17416050000008,47.13474550000001" fill="none" instance-id="-1" semantic-id="1" stroke="rgb(178,0,178)" stroke-width="0.1"/>
  <path d="M 68.17416050000008,47.13474550000001 L 67.05716050000001,45.475745500000016" fill="none" instance-id="-1" semantic-id="1" stroke="rgb(178,0,178)" stroke-width="0.1"/>
  <path d="M 67.05716050000001,45.475745500000016 L 62.910160500000075,48.267745500000046" fill="none" instance-id="-1" semantic-id="1" stroke="rgb(178,0,178)" stroke-width="0.1"/>
  <path d="M 76.18316049999999,39.332745500000044 L 75.35216050000008,39.89174550000001" fill="none" instance-id="-1" semantic-id="1" stroke="rgb(178,0,178)" stroke-width="0.1"/>
  <path d="M 75.35216050000008,39.89174550000001 L 76.46916050000004,41.550745500000005" fill="none" instance-id="-1" semantic-id="1" stroke="rgb(178,0,178)" stroke-width="0.1"/>
  <path d="M 76.46916050000004,41.550745500000005 L 78.12916050000001,40.43274550000001" fill="none" instance-id="-1" semantic-id="1" stroke="rgb(178,0,178)" stroke-width="0.1"/>
 </g>
 <g id="layerWINDOW" inkscape:groupmode="layer" inkscape:label="WINDOW">
  <path d="M 13.550160500000061,14.341745500000002 L 19.616160500000092,10.258745500000032" fill="none" instance-id="36" semantic-id="4" stroke="rgb(0,178,0)" stroke-width="0.1"/>
  <path d="M 13.760160500000097,14.653745500000014 L 19.826160500000015,10.56974550000001" fill="none" instance-id="36" semantic-id="4" stroke="rgb(0,178,0)" stroke-width="0.1"/>
  <path d="M 13.550160500000061,14.341745500000002 L 13.760160500000097,14.653745500000014" fill="none" instance-id="36" semantic-id="4" stroke="rgb(0,178,0)" stroke-width="0.1"/>
  <path d="M 19.826160500000015,10.56974550000001 L 19.616160500000092,10.258745500000032" fill="none" instance-id="36" semantic-id="4" stroke="rgb(0,178,0)" stroke-width="0.1"/>
  <path d="M 21.718160500000067,26.473745500000007 L 27.784160500000098,22.390745500000037" fill="none" instance-id="36" semantic-id="4" stroke="rgb(0,178,0)" stroke-width="0.1"/>
  <path d="M 21.927160500000014,26.784745500000042 L 27.993160500000045,22.701745500000015" fill="none" instance-id="36" semantic-id="4" stroke="rgb(0,178,0)" stroke-width="0.1"/>
  <path d="M 27.784160500000098,22.390745500000037 L 27.993160500000045,22.701745500000015" fill="none" instance-id="36" semantic-id="4" stroke="rgb(0,178,0)" stroke-width="0.1"/>
  <path d="M 21.927160500000014,26.784745500000042 L 21.718160500000067,26.473745500000007" fill="none" instance-id="36" semantic-id="4" stroke="rgb(0,178,0)" stroke-width="0.1"/>
  <path d="M 46.441160500000024,63.197745499999996 L 52.507160500000055,59.11374549999999" fill="none" instance-id="37" semantic-id="4" stroke="rgb(0,178,0)" stroke-width="0.1"/>
  <path d="M 46.650160500000084,63.50874550000003 L 52.7161605,59.42474550000003" fill="none" instance-id="37" semantic-id="4" stroke="rgb(0,178,0)" stroke-width="0.1"/>
  <path d="M 46.441160500000024,63.197745499999996 L 46.650160500000084,63.50874550000003" fill="none" instance-id="37" semantic-id="4" stroke="rgb(0,178,0)" stroke-width="0.1"/>
  <path d="M 52.7161605,59.42474550000003 L 52.507160500000055,59.11374549999999" fill="none" instance-id="37" semantic-id="4" stroke="rgb(0,178,0)" stroke-width="0.1"/>
  <path d="M 54.608160500000054,75.3297455 L 60.674160500000085,71.2457455" fill="none" instance-id="37" semantic-id="4" stroke="rgb(0,178,0)" stroke-width="0.1"/>
  <path d="M 54.81816050000009,75.64074550000004 L 60.88416050000001,71.55674550000003" fill="none" instance-id="37" semantic-id="4" stroke="rgb(0,178,0)" stroke-width="0.1"/>
  <path d="M 60.674160500000085,71.2457455 L 60.88416050000001,71.55674550000003" fill="none" instance-id="37" semantic-id="4" stroke="rgb(0,178,0)" stroke-width="0.1"/>
  <path d="M 54.81816050000009,75.64074550000004 L 54.608160500000054,75.3297455" fill="none" instance-id="37" semantic-id="4" stroke="rgb(0,178,0)" stroke-width="0.1"/>
  <path d="M 17.739160500000025,20.56374550000004 A 7.3125,7.3125 0.0 0,0 19.824160500000062,10.570745500000044" fill="none" instance-id="36" semantic-id="4" stroke="rgb(0,178,0)" stroke-width="0.1"/>
  <path d="M 27.782160500000032,22.391745500000013 A 7.3125,7.3125 0.0 0,0 17.739160500000025,20.56374550000004" fill="none" instance-id="36" semantic-id="4" stroke="rgb(0,178,0)" stroke-width="0.1"/>
  <path d="M 50.62916050000001,69.4187455 A 7.3125,7.3125 0.0 0,0 52.71416050000005,59.42674550000004" fill="none" instance-id="37" semantic-id="4" stroke="rgb(0,178,0)" stroke-width="0.1"/>
  <path d="M 60.67216050000002,71.24774550000001 A 7.3125,7.3125 0.0 0,0 50.62916050000001,69.4187455" fill="none" instance-id="37" semantic-id="4" stroke="rgb(0,178,0)" stroke-width="0.1"/>
  <path d="M 53.1151605,7.546745500000043 L 53.1351605000001,8.135745500000041" fill="none" stroke="rgb(0,178,0)" stroke-width="0.1"/>
  <path d="M 53.1351605000001,8.135745500000041 L 52.596160499999996,7.895745500000032" fill="none" stroke="rgb(0,178,0)" stroke-width="0.1"/>
  <path d="M 52.596160499999996,7.895745500000032 L 52.61616050000009,8.484745500000031" fill="none" stroke="rgb(0,178,0)" stroke-width="0.1"/>
  <path d="M 52.61616050000009,8.484745500000031 L 52.07816050000008,8.244745500000022" fill="none" stroke="rgb(0,178,0)" stroke-width="0.1"/>
  <path d="M 52.07816050000008,8.244745500000022 L 52.09816050000006,8.83374550000002" fill="none" stroke="rgb(0,178,0)" stroke-width="0.1"/>
  <path d="M 52.09816050000006,8.83374550000002 L 51.56016050000005,8.593745500000011" fill="none" stroke="rgb(0,178,0)" stroke-width="0.1"/>
  <path d="M 51.56016050000005,8.593745500000011 L 51.580160500000034,9.18274550000001" fill="none" stroke="rgb(0,178,0)" stroke-width="0.1"/>
  <path d="M 51.580160500000034,9.18274550000001 L 51.041160500000046,8.942745500000001" fill="none" stroke="rgb(0,178,0)" stroke-width="0.1"/>
  <path d="M 51.041160500000046,8.942745500000001 L 51.06116050000003,9.5317455" fill="none" stroke="rgb(0,178,0)" stroke-width="0.1"/>
  <path d="M 51.06116050000003,9.5317455 L 50.52316050000002,9.291745500000047" fill="none" stroke="rgb(0,178,0)" stroke-width="0.1"/>
  <path d="M 50.52316050000002,9.291745500000047 L 50.5431605,9.880745500000046" fill="none" stroke="rgb(0,178,0)" stroke-width="0.1"/>
  <path d="M 50.5431605,9.880745500000046 L 50.00416050000001,9.640745500000037" fill="none" stroke="rgb(0,178,0)" stroke-width="0.1"/>
  <path d="M 50.00416050000001,9.640745500000037 L 50.024160499999994,10.229745500000035" fill="none" stroke="rgb(0,178,0)" stroke-width="0.1"/>
  <path d="M 50.024160499999994,10.229745500000035 L 49.486160500000096,9.989745500000026" fill="none" stroke="rgb(0,178,0)" stroke-width="0.1"/>
  <path d="M 49.486160500000096,9.989745500000026 L 49.50616050000008,10.578745500000025" fill="none" stroke="rgb(0,178,0)" stroke-width="0.1"/>
  <path d="M 49.50616050000008,10.578745500000025 L 48.96716050000009,10.338745500000016" fill="none" stroke="rgb(0,178,0)" stroke-width="0.1"/>
  <path d="M 64.95012499915117,0.0 L 64.95616050000001,0.17774550000001454" fill="none" stroke="rgb(0,178,0)" stroke-width="0.1"/>
  <path d="M 64.95616050000001,0.17774550000001454 L 64.55697373124997,0.0" fill="none" stroke="rgb(0,178,0)" stroke-width="0.1"/>
  <path d="M 64.41927440492361,0.0 L 64.4371605,0.5267455000000041" fill="none" stroke="rgb(0,178,0)" stroke-width="0.1"/>
  <path d="M 64.4371605,0.5267455000000041 L 63.899160499999994,0.286745499999995" fill="none" stroke="rgb(0,178,0)" stroke-width="0.1"/>
  <path d="M 38.183160499999985,17.598745500000007 L 38.20316050000008,18.187745500000005" fill="none" stroke="rgb(0,178,0)" stroke-width="0.1"/>
  <path d="M 38.20316050000008,18.187745500000005 L 37.66516050000007,17.947745499999996" fill="none" stroke="rgb(0,178,0)" stroke-width="0.1"/>
  <path d="M 37.66516050000007,17.947745499999996 L 37.68516050000005,18.536745499999995" fill="none" stroke="rgb(0,178,0)" stroke-width="0.1"/>
  <path d="M 37.68516050000005,18.536745499999995 L 37.146160500000065,18.296745500000043" fill="none" stroke="rgb(0,178,0)" stroke-width="0.1"/>
  <path d="M 37.146160500000065,18.296745500000043 L 37.166160500000046,18.88574550000004" fill="none" stroke="rgb(0,178,0)" stroke-width="0.1"/>
  <path d="M 37.166160500000046,18.88574550000004 L 36.628160500000035,18.645745500000032" fill="none" stroke="rgb(0,178,0)" stroke-width="0.1"/>
  <path d="M 36.628160500000035,18.645745500000032 L 36.64816050000002,19.23474550000003" fill="none" stroke="rgb(0,178,0)" stroke-width="0.1"/>
  <path d="M 36.64816050000002,19.23474550000003 L 36.10916050000003,18.994745500000022" fill="none" stroke="rgb(0,178,0)" stroke-width="0.1"/>
  <path d="M 36.10916050000003,18.994745500000022 L 36.12916050000001,19.58374550000002" fill="none" stroke="rgb(0,178,0)" stroke-width="0.1"/>
  <path d="M 36.12916050000001,19.58374550000002 L 35.5911605,19.34374550000001" fill="none" stroke="rgb(0,178,0)" stroke-width="0.1"/>
  <path d="M 35.5911605,19.34374550000001 L 35.611160500000096,19.93274550000001" fill="none" stroke="rgb(0,178,0)" stroke-width="0.1"/>
  <path d="M 35.611160500000096,19.93274550000001 L 35.073160500000085,19.6927455" fill="none" stroke="rgb(0,178,0)" stroke-width="0.1"/>
  <path d="M 35.073160500000085,19.6927455 L 35.09316050000007,20.282745500000033" fill="none" stroke="rgb(0,178,0)" stroke-width="0.1"/>
  <path d="M 35.09316050000007,20.282745500000033 L 34.55416050000008,20.041745500000047" fill="none" stroke="rgb(0,178,0)" stroke-width="0.1"/>
  <path d="M 34.55416050000008,20.041745500000047 L 34.57416050000006,20.631745500000022" fill="none" stroke="rgb(0,178,0)" stroke-width="0.1"/>
  <path d="M 34.57416050000006,20.631745500000022 L 34.03616050000005,20.390745500000037" fill="none" stroke="rgb(0,178,0)" stroke-width="0.1"/>
 </g>
 <g id="layerWINDOW_TEXT" inkscape:groupmode="layer" inkscape:label="WINDOW_TEXT">
  <text fill="rgb(178,0,178)" font-family="Noto Sans CJK SC" font-size="2" transform="rotate(-303.949,2.353160500000058,22.42274550000002)" x="2.353160500000058" y="22.42274550000002">
   M1527
  </text>
  <text fill="rgb(178,0,178)" font-family="Noto Sans CJK SC" font-size="2" transform="rotate(-303.949,36.86216050000007,70.18874550000004)" x="36.86216050000007" y="70.18874550000004">
   M1527
  </text>
 </g>
</svg>