<?xml version="1.0" encoding="utf-8"?>
<svg style="background-color: #000;" version="1.1" viewBox="0 0 100.0 100.0" xmlns="http://www.w3.org/2000/svg" xmlns:inkscape="http://www.inkscape.org/namespaces/inkscape">
 <g id="layer0-1F" inkscape:groupmode="layer" inkscape:label="0-1F">
  <path d="M 50.21692457072254,100.0 L 68.11244516566273,0.0" fill="none" stroke="rgb(178,0,178)" stroke-width="0.1"/>
 </g>
 <g id="layer0-金属格栅" inkscape:groupmode="layer" inkscape:label="0-金属格栅">
  <path d="M 45.507579499999906,86.5899225 L 48.460579499999994,87.1189225" fill="none" stroke="rgb(73,73,73)" stroke-width="0.1"/>
  <path d="M 48.460579499999994,87.1189225 L 48.372579499999915,87.61092249999996" fill="none" stroke="rgb(73,73,73)" stroke-width="0.1"/>
  <path d="M 48.372579499999915,87.61092249999996 L 45.41957949999994,87.08192249999996" fill="none" stroke="rgb(73,73,73)" stroke-width="0.1"/>
  <path d="M 45.41957949999994,87.08192249999996 L 45.507579499999906,86.5899225" fill="none" stroke="rgb(73,73,73)" stroke-width="0.1"/>
  <path d="M 47.974579500000004,72.8089225 L 50.92757949999998,73.33792249999999" fill="none" stroke="rgb(73,73,73)" stroke-width="0.1"/>
  <path d="M 50.92757949999998,73.33792249999999 L 50.83957950000001,73.82992250000001" fill="none" stroke="rgb(73,73,73)" stroke-width="0.1"/>
  <path d="M 50.83957950000001,73.82992250000001 L 47.886579499999925,73.30092249999996" fill="none" stroke="rgb(73,73,73)" stroke-width="0.1"/>
  <path d="M 47.886579499999925,73.30092249999996 L 47.974579500000004,72.8089225" fill="none" stroke="rgb(73,73,73)" stroke-width="0.1"/>
  <path d="M 50.44057950000001,59.02792249999999 L 53.39357949999999,59.55592250000001" fill="none" stroke="rgb(73,73,73)" stroke-width="0.1"/>
  <path d="M 53.39357949999999,59.55592250000001 L 53.30557949999991,60.0489225" fill="none" stroke="rgb(73,73,73)" stroke-width="0.1"/>
  <path d="M 53.30557949999991,60.0489225 L 50.35257949999993,59.51992250000001" fill="none" stroke="rgb(73,73,73)" stroke-width="0.1"/>
  <path d="M 50.35257949999993,59.51992250000001 L 50.44057950000001,59.02792249999999" fill="none" stroke="rgb(73,73,73)" stroke-width="0.1"/>
  <path d="M 53.08357949999993,44.2629225 L 56.0365794999999,44.790922499999965" fill="none" stroke="rgb(73,73,73)" stroke-width="0.1"/>
  <path d="M 56.0365794999999,44.790922499999965 L 55.94857949999994,45.282922499999984" fill="none" stroke="rgb(73,73,73)" stroke-width="0.1"/>
  <path d="M 55.94857949999994,45.282922499999984 L 52.99557949999996,44.754922499999964" fill="none" stroke="rgb(73,73,73)" stroke-width="0.1"/>
  <path d="M 52.99557949999996,44.754922499999964 L 53.08357949999993,44.2629225" fill="none" stroke="rgb(73,73,73)" stroke-width="0.1"/>
  <path d="M 61.20180796408329,0.0 L 63.96457950000001,0.49492249999997284" fill="none" stroke="rgb(73,73,73)" stroke-width="0.1"/>
  <path d="M 63.96457950000001,0.49492249999997284 L 63.876579499999934,0.9869224999999915" fill="none" stroke="rgb(73,73,73)" stroke-width="0.1"/>
  <path d="M 63.876579499999934,0.9869224999999915 L 60.92357949999996,0.4589224999999715" fill="none" stroke="rgb(73,73,73)" stroke-width="0.1"/>
  <path d="M 60.92357949999996,0.4589224999999715 L 61.00549670081125,0.0" fill="none" stroke="rgb(73,73,73)" stroke-width="0.1"/>
  <path d="M 58.36857950000001,14.731922499999996 L 61.321579499999984,15.25992249999996" fill="none" stroke="rgb(73,73,73)" stroke-width="0.1"/>
  <path d="M 61.321579499999984,15.25992249999996 L 61.233579499999905,15.752922500000011" fill="none" stroke="rgb(73,73,73)" stroke-width="0.1"/>
  <path d="M 61.233579499999905,15.752922500000011 L 58.28057949999993,15.223922499999958" fill="none" stroke="rgb(73,73,73)" stroke-width="0.1"/>
  <path d="M 58.28057949999993,15.223922499999958 L 58.36857950000001,14.731922499999996" fill="none" stroke="rgb(73,73,73)" stroke-width="0.1"/>
  <path d="M 55.733579499999905,29.49792249999996 L 58.68657949999999,30.026922500000012" fill="none" stroke="rgb(73,73,73)" stroke-width="0.1"/>
  <path d="M 58.68657949999999,30.026922500000012 L 58.598579499999914,30.518922499999974" fill="none" stroke="rgb(73,73,73)" stroke-width="0.1"/>
  <path d="M 58.598579499999914,30.518922499999974 L 55.64557949999994,29.99092250000001" fill="none" stroke="rgb(73,73,73)" stroke-width="0.1"/>
  <path d="M 55.64557949999994,29.99092250000001 L 55.733579499999905,29.49792249999996" fill="none" stroke="rgb(73,73,73)" stroke-width="0.1"/>
 </g>
 <g id="layerAXIS" inkscape:groupmode="layer" inkscape:label="AXIS">
  <path d="M 58.67557949999991,60.695922499999995 L 100.0,68.09152584368968" fill="none" stroke="rgb(0,178,0)" stroke-width="0.1"/>
 </g>
 <g id="layerCOLUMN" inkscape:groupmode="layer" inkscape:label="COLUMN">
  <path d="M 40.75557949999995,62.058922499999994 L 49.61457949999999,63.64492250000001" fill="none" stroke="rgb(178,178,0)" stroke-width="0.1"/>
  <path d="M 49.61457949999999,63.64492250000001 L 51.2005795,54.78592249999997" fill="none" stroke="rgb(178,178,0)" stroke-width="0.1"/>
  <path d="M 51.2005795,54.78592249999997 L 42.34057949999999,53.19992249999996" fill="none" stroke="rgb(178,178,0)" stroke-width="0.1"/>
  <path d="M 42.34057949999999,53.19992249999996 L 40.75557949999995,62.058922499999994" fill="none" stroke="rgb(178,178,0)" stroke-width="0.1"/>
  <path d="M 20.686579499999993,1.0699224999999615 L 14.706591819639243,0.0" fill="none" instance-id="-1" semantic-id="1" stroke="rgb(178,178,0)" stroke-width="0.1"/>
  <path d="M 7.163003301771369,0.0 L 6.516579499999921,3.6149224999999774" fill="none" instance-id="-1" semantic-id="1" stroke="rgb(178,178,0)" stroke-width="0.1"/>
  <path d="M 6.516579499999921,3.6149224999999774 L 19.805579499999908,5.991922499999987" fill="none" instance-id="-1" semantic-id="1" stroke="rgb(178,178,0)" stroke-width="0.1"/>
  <path d="M 19.805579499999908,5.991922499999987 L 20.686579499999993,1.0699224999999615" fill="none" instance-id="-1" semantic-id="1" stroke="rgb(178,178,0)" stroke-width="0.1"/>
  <path d="M 41.35757949999993,4.769922500000007 L 40.47657949999996,9.691922499999976" fill="none" instance-id="-1" semantic-id="1" stroke="rgb(178,178,0)" stroke-width="0.1"/>
  <path d="M 40.47657949999996,9.691922499999976 L 58.68357949999995,12.95092249999999" fill="none" instance-id="-1" semantic-id="1" stroke="rgb(178,178,0)" stroke-width="0.1"/>
  <path d="M 58.68357949999995,12.95092249999999 L 61.003333744047154,0.0" fill="none" instance-id="-1" semantic-id="1" stroke="rgb(178,178,0)" stroke-width="0.1"/>
  <path d="M 55.92618323990621,0.0 L 55.35157949999996,3.210922499999981" fill="none" instance-id="-1" semantic-id="1" stroke="rgb(178,178,0)" stroke-width="0.1"/>
  <path d="M 55.35157949999996,3.210922499999981 L 51.41357949999997,2.5069224999999733" fill="none" instance-id="-1" semantic-id="1" stroke="rgb(178,178,0)" stroke-width="0.1"/>
  <path d="M 51.41357949999997,2.5069224999999733 L 50.7055795,6.442922500000009" fill="none" instance-id="-1" semantic-id="1" stroke="rgb(178,178,0)" stroke-width="0.1"/>
  <path d="M 50.7055795,6.442922500000009 L 41.35757949999993,4.769922500000007" fill="none" instance-id="-1" semantic-id="1" stroke="rgb(178,178,0)" stroke-width="0.1"/>
  <path d="M 53.41257949999999,14.039922499999989 L 53.41257949999999,14.040922499999965" fill="none" stroke="rgb(178,178,0)" stroke-width="0.1"/>
 </g>
 <g id="layerCURTWALL" inkscape:groupmode="layer" inkscape:label="CURTWALL">
  <path d="M 64.05340029050376,0.0 L 46.15577009736478,100.0" fill="none" instance-id="-1" semantic-id="2" stroke="rgb(0,178,178)" stroke-width="0.1"/>
  <path d="M 63.036900461363985,0.0 L 45.13927026822489,100.0" fill="none" instance-id="-1" semantic-id="2" stroke="rgb(0,178,178)" stroke-width="0.1"/>
  <path d="M 46.147820481417284,100.0 L 64.04532815894038,0.0" fill="none" instance-id="-1" semantic-id="2" stroke="rgb(0,178,178)" stroke-width="0.1"/>
 </g>
 <g id="layerPUB_HATCH" inkscape:groupmode="layer" inkscape:label="PUB_HATCH">
  <path d="M 40.75557949999995,62.058922499999994 L 49.61457949999999,63.64492250000001" fill="none" stroke="rgb(63,63,63)" stroke-width="0.1"/>
  <path d="M 49.61457949999999,63.64492250000001 L 51.2005795,54.78592249999997" fill="none" stroke="rgb(63,63,63)" stroke-width="0.1"/>
  <path d="M 51.2005795,54.78592249999997 L 42.34057949999999,53.19992249999996" fill="none" stroke="rgb(63,63,63)" stroke-width="0.1"/>
  <path d="M 42.34057949999999,53.19992249999996 L 40.75557949999995,62.058922499999994" fill="none" stroke="rgb(63,63,63)" stroke-width="0.1"/>
  <path d="M 7.163003301771369,0.0 L 6.516579499999921,3.6149224999999774" fill="none" instance-id="-1" semantic-id="1" stroke="rgb(63,63,63)" stroke-width="0.1"/>
  <path d="M 6.516579499999921,3.6149224999999774 L 19.805579499999908,5.991922499999987" fill="none" instance-id="-1" semantic-id="1" stroke="rgb(63,63,63)" stroke-width="0.1"/>
  <path d="M 19.805579499999908,5.991922499999987 L 20.686579499999993,1.0699224999999615" fill="none" instance-id="-1" semantic-id="1" stroke="rgb(63,63,63)" stroke-width="0.1"/>
  <path d="M 20.686579499999993,1.0699224999999615 L 14.706591819639243,0.0" fill="none" instance-id="-1" semantic-id="1" stroke="rgb(63,63,63)" stroke-width="0.1"/>
  <path d="M 40.47657949999996,9.691922499999976 L 58.68357949999995,12.95092249999999" fill="none" instance-id="-1" semantic-id="1" stroke="rgb(63,63,63)" stroke-width="0.1"/>
  <path d="M 58.68357949999995,12.95092249999999 L 61.003333744047154,0.0" fill="none" instance-id="-1" semantic-id="1" stroke="rgb(63,63,63)" stroke-width="0.1"/>
  <path d="M 55.92618323990621,0.0 L 55.35157949999996,3.210922499999981" fill="none" instance-id="-1" semantic-id="1" stroke="rgb(63,63,63)" stroke-width="0.1"/>
  <path d="M 55.35157949999996,3.210922499999981 L 51.41357949999997,2.5069224999999733" fill="none" instance-id="-1" semantic-id="1" stroke="rgb(63,63,63)" stroke-width="0.1"/>
  <path d="M 51.41357949999997,2.5069224999999733 L 50.7055795,6.442922500000009" fill="none" instance-id="-1" semantic-id="1" stroke="rgb(63,63,63)" stroke-width="0.1"/>
  <path d="M 50.7055795,6.442922500000009 L 41.35757949999993,4.769922500000007" fill="none" instance-id="-1" semantic-id="1" stroke="rgb(63,63,63)" stroke-width="0.1"/>
  <path d="M 41.35757949999993,4.769922500000007 L 40.47657949999996,9.691922499999976" fill="none" instance-id="-1" semantic-id="1" stroke="rgb(63,63,63)" stroke-width="0.1"/>
 </g>
 <g id="layerPUB_TEXT" inkscape:groupmode="layer" inkscape:label="PUB_TEXT">
  <text fill="rgb(0,0,0)" font-family="Noto Sans CJK SC" font-size="2" transform="rotate(-350.0,41.70757949999995,25.55792249999996)" x="41.70757949999995" y="25.55792249999996">
   正压
  </text>
  <text fill="rgb(0,0,0)" font-family="Noto Sans CJK SC" font-size="2" transform="rotate(-350.0,32.827579499999956,83.3829225)" x="32.827579499999956" y="83.3829225">
   新风
  </text>
  <text fill="rgb(0,0,0)" font-family="Noto Sans CJK SC" font-size="2" transform="rotate(-350.0,37.92357949999996,47.42092249999996)" x="37.92357949999996" y="47.42092249999996">
   烟囱
  </text>
  <text fill="rgb(0,0,0)" font-family="Noto Sans CJK SC" font-size="2" transform="rotate(-350.0,8.521579499999916,90.07592249999999)" x="8.521579499999916" y="90.07592249999999">
   新风
  </text>
 </g>
 <g id="layerWALL" inkscape:groupmode="layer" inkscape:label="WALL">
  <path d="M 49.61457949999999,63.64492250000001 L 43.10758025724249,100.0" fill="none" instance-id="-1" semantic-id="1" stroke="rgb(178,178,0)" stroke-width="0.1"/>
  <path d="M 47.64557949999994,63.292922499999975 L 41.0762068138356,100.0" fill="none" instance-id="-1" semantic-id="1" stroke="rgb(178,178,0)" stroke-width="0.1"/>
  <path d="M 52.1375794999999,38.19292250000001 L 37.86457949999999,35.63892249999998" fill="none" instance-id="-1" semantic-id="1" stroke="rgb(178,178,0)" stroke-width="0.1"/>
  <path d="M 52.49057949999997,36.22492249999999 L 38.21757949999994,33.669922499999984" fill="none" instance-id="-1" semantic-id="1" stroke="rgb(178,178,0)" stroke-width="0.1"/>
  <path d="M 40.75557949999995,62.058922499999994 L 33.372579499999915,60.73792249999997" fill="none" instance-id="-1" semantic-id="1" stroke="rgb(178,178,0)" stroke-width="0.1"/>
  <path d="M 41.10757949999993,60.09092249999998 L 33.724579500000004,58.768922499999974" fill="none" instance-id="-1" semantic-id="1" stroke="rgb(178,178,0)" stroke-width="0.1"/>
  <path d="M 44.2432262211488,0.0 L 38.21757949999994,33.669922499999984" fill="none" instance-id="-1" semantic-id="1" stroke="rgb(178,178,0)" stroke-width="0.1"/>
  <path d="M 42.21165665751175,0.0 L 36.07257949999996,34.30192249999999" fill="none" instance-id="-1" semantic-id="1" stroke="rgb(178,178,0)" stroke-width="0.1"/>
  <path d="M 33.372579499999915,60.73792249999997 L 28.703579499999933,86.82392249999998" fill="none" instance-id="-1" semantic-id="1" stroke="rgb(178,178,0)" stroke-width="0.1"/>
  <path d="M 31.57957949999991,59.40092249999998 L 27.087579499999947,84.50292250000001" fill="none" instance-id="-1" semantic-id="1" stroke="rgb(178,178,0)" stroke-width="0.1"/>
  <path d="M 28.703579499999933,86.82392249999998 L 4.094579500000009,82.41892250000001" fill="none" instance-id="-1" semantic-id="1" stroke="rgb(178,178,0)" stroke-width="0.1"/>
  <path d="M 27.087579499999947,84.50292250000001 L 2.47857949999991,80.09792249999998" fill="none" instance-id="-1" semantic-id="1" stroke="rgb(178,178,0)" stroke-width="0.1"/>
  <path d="M 31.231579499999953,95.40292249999999 L 30.409028845885928,100.0" fill="none" instance-id="-1" semantic-id="1" stroke="rgb(178,178,0)" stroke-width="0.1"/>
  <path d="M 28.910579499999926,97.0199225 L 28.377233425245436,100.0" fill="none" instance-id="-1" semantic-id="1" stroke="rgb(178,178,0)" stroke-width="0.1"/>
  <path d="M 4.094579500000009,82.41892250000001 L 2.6855794999999034,90.29392250000001" fill="none" instance-id="-1" semantic-id="1" stroke="rgb(178,178,0)" stroke-width="0.1"/>
  <path d="M 2.47857949999991,80.09792249999998 L 0.36457949999999073,91.91092249999997" fill="none" instance-id="-1" semantic-id="1" stroke="rgb(178,178,0)" stroke-width="0.1"/>
  <path d="M 37.86457949999999,35.63892249999998 L 33.724579500000004,58.768922499999974" fill="none" instance-id="-1" semantic-id="1" stroke="rgb(178,178,0)" stroke-width="0.1"/>
  <path d="M 36.07257949999996,34.30192249999999 L 31.57957949999991,59.40092249999998" fill="none" instance-id="-1" semantic-id="1" stroke="rgb(178,178,0)" stroke-width="0.1"/>
  <path d="M 28.910579499999926,97.0199225 L 0.36457949999999073,91.91092249999997" fill="none" instance-id="-1" semantic-id="1" stroke="rgb(178,178,0)" stroke-width="0.1"/>
  <path d="M 31.231579499999953,95.40292249999999 L 2.6855794999999034,90.29392250000001" fill="none" instance-id="-1" semantic-id="1" stroke="rgb(178,178,0)" stroke-width="0.1"/>
  <path d="M 8.485579499999972,3.9669225000000097 L 4.609579499999995,25.621922499999982" fill="none" instance-id="-1" semantic-id="1" stroke="rgb(178,178,0)" stroke-width="0.1"/>
  <path d="M 6.516579499999921,3.6149224999999774 L 2.99357950000001,23.300922499999956" fill="none" instance-id="-1" semantic-id="1" stroke="rgb(178,178,0)" stroke-width="0.1"/>
  <path d="M 8.485579499999972,3.9669225000000097 L 6.516579499999921,3.6149224999999774" fill="none" instance-id="-1" semantic-id="1" stroke="rgb(178,178,0)" stroke-width="0.1"/>
  <path d="M 4.609579499999995,25.621922499999982 L 0.0,24.796969451910456" fill="none" instance-id="-1" semantic-id="1" stroke="rgb(178,178,0)" stroke-width="0.1"/>
  <path d="M 2.99357950000001,23.300922499999956 L 0.0,22.765160612035913" fill="none" instance-id="-1" semantic-id="1" stroke="rgb(178,178,0)" stroke-width="0.1"/>
  <path d="M 40.47657949999996,9.691922499999976 L 12.585579499999994,4.70092249999999" fill="none" instance-id="-1" semantic-id="1" stroke="rgb(178,178,0)" stroke-width="0.1"/>
  <path d="M 40.82957949999991,7.723922499999958 L 20.157579499999997,4.023922499999969" fill="none" instance-id="-1" semantic-id="1" stroke="rgb(178,178,0)" stroke-width="0.1"/>
  <path d="M 6.86857950000001,1.6459224999999833 L 0.0,0.41627839643666675" fill="none" instance-id="-1" semantic-id="1" stroke="rgb(178,178,0)" stroke-width="0.1"/>
  <path d="M 0.0,2.4476833405185516 L 6.516579499999921,3.613922500000001" fill="none" instance-id="-1" semantic-id="1" stroke="rgb(178,178,0)" stroke-width="0.1"/>
  <path d="M 49.23157949999995,54.43292249999996 L 52.1375794999999,38.19292250000001" fill="none" instance-id="-1" semantic-id="1" stroke="rgb(178,178,0)" stroke-width="0.1"/>
  <path d="M 51.2005795,54.78592249999997 L 54.2825795,37.560922500000004" fill="none" instance-id="-1" semantic-id="1" stroke="rgb(178,178,0)" stroke-width="0.1"/>
  <path d="M 60.55957949999993,2.491922499999987 L 61.00556210599598,0.0" fill="none" instance-id="-1" semantic-id="1" stroke="rgb(178,178,0)" stroke-width="0.1"/>
  <path d="M 52.49057949999997,36.22492249999999 L 56.71857949999992,12.598922499999958" fill="none" instance-id="-1" semantic-id="1" stroke="rgb(178,178,0)" stroke-width="0.1"/>
  <path d="M 54.2825795,37.560922500000004 L 60.55957949999993,2.491922499999987" fill="none" instance-id="-1" semantic-id="1" stroke="rgb(178,178,0)" stroke-width="0.1"/>
 </g>
 <g id="layerm-洞口" inkscape:groupmode="layer" inkscape:label="m-洞口">
  <path d="M 4.094579500000009,82.41892250000001 L 29.195579500000008,86.9119225" fill="none" stroke="rgb(160,107,53)" stroke-width="0.1"/>
  <path d="M 54.397579500000006,14.2149225 L 42.585579499999994,12.100922499999967" fill="none" stroke="rgb(160,107,53)" stroke-width="0.1"/>
  <path d="M 42.585579499999994,12.100922499999967 L 38.709579499999904,33.75792250000001" fill="none" stroke="rgb(160,107,53)" stroke-width="0.1"/>
  <path d="M 38.709579499999904,33.75792250000001 L 50.521579499999916,35.87192249999998" fill="none" stroke="rgb(160,107,53)" stroke-width="0.1"/>
  <path d="M 50.521579499999916,35.87192249999998 L 54.397579500000006,14.2149225" fill="none" stroke="rgb(160,107,53)" stroke-width="0.1"/>
  <path d="M 38.709579499999904,33.75792250000001 L 43.799579499999936,15.152922499999988" fill="none" stroke="rgb(160,107,53)" stroke-width="0.1"/>
  <path d="M 43.799579499999936,15.152922499999988 L 54.397579500000006,14.21692250000001" fill="none" stroke="rgb(160,107,53)" stroke-width="0.1"/>
  <path d="M 47.2625794999999,54.080922499999986 L 50.16957949999994,37.84092249999998" fill="none" stroke="rgb(160,107,53)" stroke-width="0.1"/>
  <path d="M 50.16957949999994,37.84092249999998 L 38.35657949999995,35.7269225" fill="none" stroke="rgb(160,107,53)" stroke-width="0.1"/>
  <path d="M 38.35657949999995,35.7269225 L 34.6575795,56.39692249999996" fill="none" stroke="rgb(160,107,53)" stroke-width="0.1"/>
  <path d="M 34.6575795,56.39692249999996 L 41.54757949999998,57.629922499999964" fill="none" stroke="rgb(160,107,53)" stroke-width="0.1"/>
  <path d="M 41.54757949999998,57.629922499999964 L 42.34057949999999,53.19992249999996" fill="none" stroke="rgb(160,107,53)" stroke-width="0.1"/>
  <path d="M 42.34057949999999,53.19992249999996 L 47.2625794999999,54.080922499999986" fill="none" stroke="rgb(160,107,53)" stroke-width="0.1"/>
  <path d="M 34.6575795,56.39692249999996 L 39.49957949999998,38.457922499999995" fill="none" stroke="rgb(160,107,53)" stroke-width="0.1"/>
  <path d="M 39.49957949999998,38.457922499999995 L 50.16957949999994,37.84092249999998" fill="none" stroke="rgb(160,107,53)" stroke-width="0.1"/>
  <path d="M 29.195579500000008,86.9119225 L 33.86457949999999,60.82692249999997" fill="none" stroke="rgb(160,107,53)" stroke-width="0.1"/>
  <path d="M 33.86457949999999,60.82692249999997 L 45.6765795,62.9409225" fill="none" stroke="rgb(160,107,53)" stroke-width="0.1"/>
  <path d="M 45.6765795,62.9409225 L 39.04404790630349,100.0" fill="none" stroke="rgb(160,107,53)" stroke-width="0.1"/>
  <path d="M 27.786579499999903,94.7869225 L 35.41757949999999,63.058922499999994" fill="none" stroke="rgb(160,107,53)" stroke-width="0.1"/>
  <path d="M 35.41757949999999,63.058922499999994 L 45.6765795,62.9409225" fill="none" stroke="rgb(160,107,53)" stroke-width="0.1"/>
  <path d="M 4.094579500000009,82.41892250000001 L 2.6855794999999034,90.29392250000001" fill="none" stroke="rgb(160,107,53)" stroke-width="0.1"/>
  <path d="M 2.6855794999999034,90.29392250000001 L 31.231579499999953,95.40292249999999" fill="none" stroke="rgb(160,107,53)" stroke-width="0.1"/>
  <path d="M 31.231579499999953,95.40292249999999 L 30.409028845885928,100.0" fill="none" stroke="rgb(160,107,53)" stroke-width="0.1"/>
  <path d="M 43.32657949999998,5.121922499999982 L 44.67619643182343,0.0" fill="none" stroke="rgb(160,107,53)" stroke-width="0.1"/>
 </g>
</svg>