<?xml version="1.0" encoding="utf-8"?>
<svg style="background-color: #000;" version="1.1" viewBox="0 0 100.00000000000006 100.0" xmlns="http://www.w3.org/2000/svg" xmlns:inkscape="http://www.inkscape.org/namespaces/inkscape">
 <g id="layer0" inkscape:groupmode="layer" inkscape:label="0">
  <text fill="rgb(0,0,0)" font-family="Noto Sans CJK SC" font-size="2" transform="rotate(-350.0,37.958579499999985,17.999922499999997)" x="37.958579499999985" y="17.999922499999997">
   DDT1
  </text>
  <text fill="rgb(0,0,0)" font-family="Noto Sans CJK SC" font-size="2" transform="rotate(-350.0,32.22357949999997,48.17892249999997)" x="32.22357949999997" y="48.17892249999997">
   DDT2
  </text>
 </g>
 <g id="layer0-门窗" inkscape:groupmode="layer" inkscape:label="0-门窗">
  <path d="M 76.22057950000004,94.45592249999999 L 77.80557949999996,85.59592249999997" fill="none" instance-id="1" semantic-id="3" stroke="rgb(0,178,178)" stroke-width="0.1"/>
  <path d="M 70.0735795,84.66992249999998 L 70.15257950000006,84.22692249999997" fill="none" instance-id="1" semantic-id="3" stroke="rgb(0,178,178)" stroke-width="0.1"/>
  <path d="M 78.79057949999998,85.77292249999999 L 78.71057950000005,86.21592249999998" fill="none" instance-id="1" semantic-id="3" stroke="rgb(0,178,178)" stroke-width="0.1"/>
  <path d="M 78.79057949999998,85.77292249999999 L 70.15257950000006,84.22692249999997" fill="none" instance-id="1" semantic-id="3" stroke="rgb(0,178,178)" stroke-width="0.1"/>
  <path d="M 78.71057950000005,86.21592249999998 L 70.0735795,84.66992249999998" fill="none" instance-id="1" semantic-id="3" stroke="rgb(0,178,178)" stroke-width="0.1"/>
  <path d="M 70.07557950000006,84.66992249999998 A 8.775,8.775 0.0 0,0 77.20457949999997,94.63192249999997" fill="none" instance-id="1" semantic-id="3" stroke="rgb(0,178,178)" stroke-width="0.1"/>
 </g>
 <g id="layerA-留洞" inkscape:groupmode="layer" inkscape:label="A-留洞">
  <path d="M 74.62757949999997,49.47092249999997 L 83.97857949999997,51.14492249999998" fill="none" stroke="rgb(0,178,178)" stroke-width="0.1"/>
  <path d="M 83.97857949999997,51.14492249999998 L 81.33657950000003,65.9099225" fill="none" stroke="rgb(0,178,178)" stroke-width="0.1"/>
  <path d="M 81.33657950000003,65.9099225 L 81.43457949999998,53.921922499999994" fill="none" stroke="rgb(0,178,178)" stroke-width="0.1"/>
  <path d="M 81.43457949999998,53.921922499999994 L 74.62757949999997,49.47092249999997" fill="none" stroke="rgb(0,178,178)" stroke-width="0.1"/>
  <path d="M 74.62757949999997,49.47092249999997 L 71.98457950000005,64.23692249999999" fill="none" stroke="rgb(0,178,178)" stroke-width="0.1"/>
  <path d="M 71.98457950000005,64.23692249999999 L 81.33657950000003,65.9099225" fill="none" stroke="rgb(0,178,178)" stroke-width="0.1"/>
  <path d="M 64.29157950000007,47.62092249999998 L 72.65857950000003,49.1189225" fill="none" stroke="rgb(0,178,178)" stroke-width="0.1"/>
  <path d="M 72.65857950000003,49.1189225 L 70.01657949999998,63.88392249999998" fill="none" stroke="rgb(0,178,178)" stroke-width="0.1"/>
  <path d="M 70.01657949999998,63.88392249999998 L 70.3235795,51.93292249999999" fill="none" stroke="rgb(0,178,178)" stroke-width="0.1"/>
  <path d="M 70.3235795,51.93292249999999 L 64.29157950000007,47.62092249999998" fill="none" stroke="rgb(0,178,178)" stroke-width="0.1"/>
  <path d="M 64.29157950000007,47.62092249999998 L 61.649579500000016,62.3869225" fill="none" stroke="rgb(0,178,178)" stroke-width="0.1"/>
  <path d="M 61.649579500000016,62.3869225 L 70.01657949999998,63.88392249999998" fill="none" stroke="rgb(0,178,178)" stroke-width="0.1"/>
 </g>
 <g id="layerCOLUMN" inkscape:groupmode="layer" inkscape:label="COLUMN">
  <path d="M 19.222500415825948,100.0 L 18.86457949999999,99.9359225" fill="none" instance-id="-1" semantic-id="1" stroke="rgb(178,178,0)" stroke-width="0.1"/>
  <path d="M 18.86457949999999,99.9359225 L 18.85310919356658,100.0" fill="none" instance-id="-1" semantic-id="1" stroke="rgb(178,178,0)" stroke-width="0.1"/>
  <path d="M 57.60257949999999,56.58192249999999 L 56.545579499999974,62.487922499999996" fill="none" instance-id="-1" semantic-id="1" stroke="rgb(178,178,0)" stroke-width="0.1"/>
  <path d="M 56.545579499999974,62.487922499999996 L 26.521579499999973,57.11592249999998" fill="none" instance-id="-1" semantic-id="1" stroke="rgb(178,178,0)" stroke-width="0.1"/>
  <path d="M 26.521579499999973,57.11592249999998 L 25.641579500000034,62.03792249999998" fill="none" instance-id="-1" semantic-id="1" stroke="rgb(178,178,0)" stroke-width="0.1"/>
  <path d="M 25.641579500000034,62.03792249999998 L 60.58657950000003,68.2909225" fill="none" instance-id="-1" semantic-id="1" stroke="rgb(178,178,0)" stroke-width="0.1"/>
  <path d="M 60.58657950000003,68.2909225 L 62.52357950000004,57.46292249999999" fill="none" instance-id="-1" semantic-id="1" stroke="rgb(178,178,0)" stroke-width="0.1"/>
  <path d="M 62.52357950000004,57.46292249999999 L 57.60257949999999,56.58192249999999" fill="none" instance-id="-1" semantic-id="1" stroke="rgb(178,178,0)" stroke-width="0.1"/>
  <path d="M 63.41657950000007,24.09992249999999 L 68.33857949999998,24.979922499999986" fill="none" instance-id="-1" semantic-id="1" stroke="rgb(178,178,0)" stroke-width="0.1"/>
  <path d="M 68.33857949999998,24.979922499999986 L 72.80929041245764,0.0" fill="none" instance-id="-1" semantic-id="1" stroke="rgb(178,178,0)" stroke-width="0.1"/>
  <path d="M 67.73006232405777,0.0 L 63.41657950000007,24.09992249999999" fill="none" instance-id="-1" semantic-id="1" stroke="rgb(178,178,0)" stroke-width="0.1"/>
 </g>
 <g id="layerDOOR_FIRE" inkscape:groupmode="layer" inkscape:label="DOOR_FIRE">
  <path d="M 81.36057950000003,77.08992249999997 L 82.76957950000002,69.21492249999997" fill="none" instance-id="2" semantic-id="3" stroke="rgb(0,178,178)" stroke-width="0.1"/>
  <path d="M 15.85657950000001,72.47692249999997 L 17.574579500000027,62.87992249999999" fill="none" instance-id="3" semantic-id="4" stroke="rgb(0,178,178)" stroke-width="0.1"/>
  <path d="M 16.349579500000004,72.5649225 L 18.06657949999999,62.967922499999986" fill="none" instance-id="3" semantic-id="4" stroke="rgb(0,178,178)" stroke-width="0.1"/>
  <path d="M 17.574579500000027,62.87992249999999 L 18.06657949999999,62.967922499999986" fill="none" instance-id="3" semantic-id="4" stroke="rgb(0,178,178)" stroke-width="0.1"/>
  <path d="M 16.349579500000004,72.5649225 L 15.85657950000001,72.47692249999997" fill="none" instance-id="3" semantic-id="4" stroke="rgb(0,178,178)" stroke-width="0.1"/>
  <path d="M 89.39257950000007,70.80592249999998 L 89.46357949999998,70.41292249999998" fill="none" instance-id="2" semantic-id="3" stroke="rgb(0,178,178)" stroke-width="0.1"/>
  <path d="M 81.78557949999998,69.03892249999998 L 81.71457950000007,69.43192249999998" fill="none" instance-id="2" semantic-id="3" stroke="rgb(0,178,178)" stroke-width="0.1"/>
  <path d="M 81.78557949999998,69.03892249999998 L 89.46357949999998,70.41292249999998" fill="none" instance-id="2" semantic-id="3" stroke="rgb(0,178,178)" stroke-width="0.1"/>
  <path d="M 81.71457950000007,69.43192249999998 L 89.39257950000007,70.80592249999998" fill="none" instance-id="2" semantic-id="3" stroke="rgb(0,178,178)" stroke-width="0.1"/>
  <path d="M 6.50557950000001,70.80392249999997 L 6.581285358452362,70.30755074008584" fill="none" instance-id="3" semantic-id="4" stroke="rgb(0,178,178)" stroke-width="0.1"/>
  <path d="M 6.581285358452362,70.30755074008584 L 6.63133682673498,69.80793973983967" fill="none" instance-id="3" semantic-id="4" stroke="rgb(0,178,178)" stroke-width="0.1"/>
  <path d="M 6.63133682673498,69.80793973983967 L 6.655601162798689,69.3064145230862" fill="none" instance-id="3" semantic-id="4" stroke="rgb(0,178,178)" stroke-width="0.1"/>
  <path d="M 6.655601162798689,69.3064145230862 L 6.654014014931249,68.80430519036483" fill="none" instance-id="3" semantic-id="4" stroke="rgb(0,178,178)" stroke-width="0.1"/>
  <path d="M 6.654014014931249,68.80430519036483 L 6.626579592424889,68.3029433913554" fill="none" instance-id="3" semantic-id="4" stroke="rgb(0,178,178)" stroke-width="0.1"/>
  <path d="M 6.626579592424889,68.3029433913554 L 6.573370654413054,67.80365879319532" fill="none" instance-id="3" semantic-id="4" stroke="rgb(0,178,178)" stroke-width="0.1"/>
  <path d="M 6.573370654413054,67.80365879319532 L 6.4945283169050185,67.30777555405479" fill="none" instance-id="3" semantic-id="4" stroke="rgb(0,178,178)" stroke-width="0.1"/>
  <path d="M 6.4945283169050185,67.30777555405479 L 6.390261678530692,66.8166088113224" fill="none" instance-id="3" semantic-id="4" stroke="rgb(0,178,178)" stroke-width="0.1"/>
  <path d="M 6.390261678530692,66.8166088113224 L 6.26084726598765,66.33146119371474" fill="none" instance-id="3" semantic-id="4" stroke="rgb(0,178,178)" stroke-width="0.1"/>
  <path d="M 6.26084726598765,66.33146119371474 L 6.106628300661669,65.8536193665606" fill="none" instance-id="3" semantic-id="4" stroke="rgb(0,178,178)" stroke-width="0.1"/>
  <path d="M 6.106628300661669,65.8536193665606 L 5.928013788365718,65.38435061942147" fill="none" instance-id="3" semantic-id="4" stroke="rgb(0,178,178)" stroke-width="0.1"/>
  <path d="M 5.928013788365718,65.38435061942147 L 5.725477434610866,64.92489950509926" fill="none" instance-id="3" semantic-id="4" stroke="rgb(0,178,178)" stroke-width="0.1"/>
  <path d="M 5.725477434610866,64.92489950509926 L 5.499556388286976,64.47648453894385" fill="none" instance-id="3" semantic-id="4" stroke="rgb(0,178,178)" stroke-width="0.1"/>
  <path d="M 5.499556388286976,64.47648453894385 L 5.250849817084031,64.04029496721535" fill="none" instance-id="3" semantic-id="4" stroke="rgb(0,178,178)" stroke-width="0.1"/>
  <path d="M 5.250849817084031,64.04029496721535 L 4.9800173184328855,63.61748761307092" fill="none" instance-id="3" semantic-id="4" stroke="rgb(0,178,178)" stroke-width="0.1"/>
  <path d="M 4.9800173184328855,63.61748761307092 L 4.6877771701798,63.20918380854144" fill="none" instance-id="3" semantic-id="4" stroke="rgb(0,178,178)" stroke-width="0.1"/>
  <path d="M 4.6877771701798,63.20918380854144 L 4.374904425633929,62.81646642063433" fill="none" instance-id="3" semantic-id="4" stroke="rgb(0,178,178)" stroke-width="0.1"/>
  <path d="M 4.374904425633929,62.81646642063433 L 4.042228858039721,62.44037697945032" fill="none" instance-id="3" semantic-id="4" stroke="rgb(0,178,178)" stroke-width="0.1"/>
  <path d="M 4.042228858039721,62.44037697945032 L 3.6906327599263022,62.08191291592982" fill="none" instance-id="3" semantic-id="4" stroke="rgb(0,178,178)" stroke-width="0.1"/>
  <path d="M 3.6906327599263022,62.08191291592982 L 3.321048603169686,61.74202491655541" fill="none" instance-id="3" semantic-id="4" stroke="rgb(0,178,178)" stroke-width="0.1"/>
  <path d="M 3.321048603169686,61.74202491655541 L 2.934456565974017,61.421614402025796" fill="none" instance-id="3" semantic-id="4" stroke="rgb(0,178,178)" stroke-width="0.1"/>
  <path d="M 2.934456565974017,61.421614402025796 L 2.5318819333299984,61.12153113658809" fill="none" instance-id="3" semantic-id="4" stroke="rgb(0,178,178)" stroke-width="0.1"/>
  <path d="M 2.5318819333299984,61.12153113658809 L 2.114392377845377,60.84257097436861" fill="none" instance-id="3" semantic-id="4" stroke="rgb(0,178,178)" stroke-width="0.1"/>
  <path d="M 2.114392377845377,60.84257097436861 L 1.6830951281587545,60.58547374867959" fill="none" instance-id="3" semantic-id="4" stroke="rgb(0,178,178)" stroke-width="0.1"/>
  <path d="M 1.6830951281587545,60.58547374867959 L 1.239134032446259,60.350921309898894" fill="none" instance-id="3" semantic-id="4" stroke="rgb(0,178,178)" stroke-width="0.1"/>
  <path d="M 1.239134032446259,60.350921309898894 L 0.7836865248091271,60.1395357171273" fill="none" instance-id="3" semantic-id="4" stroke="rgb(0,178,178)" stroke-width="0.1"/>
  <path d="M 0.7836865248091271,60.1395357171273 L 0.3179605025881642,59.951877588418625" fill="none" instance-id="3" semantic-id="4" stroke="rgb(0,178,178)" stroke-width="0.1"/>
  <path d="M 17.574579500000027,62.88292249999998 A 9.75,9.75 0.0 0,0 6.50557950000001,70.80392249999997" fill="none" instance-id="3" semantic-id="4" stroke="rgb(0,178,178)" stroke-width="0.1"/>
  <path d="M 80.37557950000001,76.91292249999998 A 7.8,7.8 0.0 0,0 89.3905795,70.80592249999998" fill="none" instance-id="2" semantic-id="3" stroke="rgb(0,178,178)" stroke-width="0.1"/>
 </g>
 <g id="layerDOOR_FIRE_TEXT" inkscape:groupmode="layer" inkscape:label="DOOR_FIRE_TEXT">
  <text fill="rgb(0,0,0)" font-family="Noto Sans CJK SC" font-size="2" transform="rotate(-349.853,1.4225795000000403,68.69292249999998)" x="1.4225795000000403" y="68.69292249999998">
   FM
  </text>
  <text fill="rgb(0,0,0)" font-family="Noto Sans CJK SC" font-size="2" transform="rotate(-349.853,5.048579500000017,69.34192249999998)" x="5.048579500000017" y="69.34192249999998">
   甲
  </text>
  <text fill="rgb(0,0,0)" font-family="Noto Sans CJK SC" font-size="2" transform="rotate(-349.853,8.397579500000006,69.94192249999998)" x="8.397579500000006" y="69.94192249999998">
   2023
  </text>
  <text fill="rgb(0,0,0)" font-family="Noto Sans CJK SC" font-size="2" transform="rotate(-259.853,75.1455795,65.43192249999998)" x="75.1455795" y="65.43192249999998">
   FM
  </text>
  <text fill="rgb(0,0,0)" font-family="Noto Sans CJK SC" font-size="2" transform="rotate(-259.853,74.4965795,69.0589225)" x="74.4965795" y="69.0589225">
   丙
  </text>
  <text fill="rgb(0,0,0)" font-family="Noto Sans CJK SC" font-size="2" transform="rotate(-259.853,73.89757950000006,72.40692249999998)" x="73.89757950000006" y="72.40692249999998">
   0823
  </text>
 </g>
 <g id="layerEVTR" inkscape:groupmode="layer" inkscape:label="EVTR">
  <path d="M 57.17357950000002,21.226922499999972 L 59.44657950000004,8.529922499999998" fill="none" instance-id="7" semantic-id="31" stroke="rgb(178,88,0)" stroke-width="0.1"/>
  <path d="M 54.29957949999999,25.08192249999999 L 37.36857950000007,22.05192249999999" fill="none" instance-id="7" semantic-id="31" stroke="rgb(178,88,0)" stroke-width="0.1"/>
  <path d="M 61.5635795,8.908922499999989 L 59.29057949999998,21.60592249999999" fill="none" instance-id="7" semantic-id="31" stroke="rgb(178,88,0)" stroke-width="0.1"/>
  <path d="M 37.36857950000007,22.05192249999999 L 41.0685795,1.3789224999999874" fill="none" instance-id="7" semantic-id="31" stroke="rgb(178,88,0)" stroke-width="0.1"/>
  <path d="M 41.0685795,1.3789224999999874 L 57.99957950000004,4.4089224999999885" fill="none" instance-id="7" semantic-id="31" stroke="rgb(178,88,0)" stroke-width="0.1"/>
  <path d="M 57.99957950000004,4.4089224999999885 L 54.29957949999999,25.08192249999999" fill="none" instance-id="7" semantic-id="31" stroke="rgb(178,88,0)" stroke-width="0.1"/>
  <path d="M 54.29957949999999,25.08192249999999 L 41.0685795,1.3789224999999874" fill="none" instance-id="7" semantic-id="31" stroke="rgb(178,88,0)" stroke-width="0.1"/>
  <path d="M 37.36857950000007,22.05192249999999 L 57.99957950000004,4.4089224999999885" fill="none" instance-id="7" semantic-id="31" stroke="rgb(178,88,0)" stroke-width="0.1"/>
  <path d="M 61.5635795,8.908922499999989 L 59.44657950000004,8.529922499999998" fill="none" instance-id="7" semantic-id="31" stroke="rgb(178,88,0)" stroke-width="0.1"/>
  <path d="M 53.40157949999997,54.50992249999999 L 51.28457950000001,54.13192249999997" fill="none" instance-id="6" semantic-id="31" stroke="rgb(178,88,0)" stroke-width="0.1"/>
  <path d="M 51.28457950000001,54.13192249999997 L 53.6455795,40.941922499999976" fill="none" instance-id="6" semantic-id="31" stroke="rgb(178,88,0)" stroke-width="0.1"/>
  <path d="M 48.49857950000006,57.49292249999999 L 31.567579500000022,54.463922499999995" fill="none" instance-id="6" semantic-id="31" stroke="rgb(178,88,0)" stroke-width="0.1"/>
  <path d="M 55.76157949999998,41.31992249999999 L 53.40157949999997,54.50992249999999" fill="none" instance-id="6" semantic-id="31" stroke="rgb(178,88,0)" stroke-width="0.1"/>
  <path d="M 35.26757950000007,33.7919225 L 52.198579499999994,36.82192249999997" fill="none" instance-id="6" semantic-id="31" stroke="rgb(178,88,0)" stroke-width="0.1"/>
  <path d="M 52.198579499999994,36.82192249999997 L 48.49857950000006,57.49292249999999" fill="none" instance-id="6" semantic-id="31" stroke="rgb(178,88,0)" stroke-width="0.1"/>
  <path d="M 48.49857950000006,57.49292249999999 L 35.26757950000007,33.7919225" fill="none" instance-id="6" semantic-id="31" stroke="rgb(178,88,0)" stroke-width="0.1"/>
  <path d="M 31.567579500000022,54.463922499999995 L 52.198579499999994,36.82192249999997" fill="none" instance-id="6" semantic-id="31" stroke="rgb(178,88,0)" stroke-width="0.1"/>
  <path d="M 55.76157949999998,41.31992249999999 L 53.6455795,40.941922499999976" fill="none" instance-id="6" semantic-id="31" stroke="rgb(178,88,0)" stroke-width="0.1"/>
 </g>
 <g id="layerPUB_HATCH" inkscape:groupmode="layer" inkscape:label="PUB_HATCH">
  <path d="M 19.222500415825948,100.0 L 18.86457949999999,99.9359225" fill="none" instance-id="-1" semantic-id="1" stroke="rgb(63,63,63)" stroke-width="0.1"/>
  <path d="M 18.86457949999999,99.9359225 L 18.85310919356658,100.0" fill="none" instance-id="-1" semantic-id="1" stroke="rgb(63,63,63)" stroke-width="0.1"/>
  <path d="M 56.545579499999974,62.487922499999996 L 26.521579499999973,57.11592249999998" fill="none" instance-id="-1" semantic-id="1" stroke="rgb(63,63,63)" stroke-width="0.1"/>
  <path d="M 26.521579499999973,57.11592249999998 L 25.641579500000034,62.03792249999998" fill="none" instance-id="-1" semantic-id="1" stroke="rgb(63,63,63)" stroke-width="0.1"/>
  <path d="M 25.641579500000034,62.03792249999998 L 60.58657950000003,68.2909225" fill="none" instance-id="-1" semantic-id="1" stroke="rgb(63,63,63)" stroke-width="0.1"/>
  <path d="M 60.58657950000003,68.2909225 L 62.52357950000004,57.46292249999999" fill="none" instance-id="-1" semantic-id="1" stroke="rgb(63,63,63)" stroke-width="0.1"/>
  <path d="M 62.52357950000004,57.46292249999999 L 57.60257949999999,56.58192249999999" fill="none" instance-id="-1" semantic-id="1" stroke="rgb(63,63,63)" stroke-width="0.1"/>
  <path d="M 57.60257949999999,56.58192249999999 L 56.545579499999974,62.487922499999996" fill="none" instance-id="-1" semantic-id="1" stroke="rgb(63,63,63)" stroke-width="0.1"/>
  <path d="M 63.41657950000007,24.09992249999999 L 68.33857949999998,24.979922499999986" fill="none" instance-id="-1" semantic-id="1" stroke="rgb(63,63,63)" stroke-width="0.1"/>
  <path d="M 68.33857949999998,24.979922499999986 L 72.80929041245764,0.0" fill="none" instance-id="-1" semantic-id="1" stroke="rgb(63,63,63)" stroke-width="0.1"/>
  <path d="M 67.73006232405777,0.0 L 63.41657950000007,24.09992249999999" fill="none" instance-id="-1" semantic-id="1" stroke="rgb(63,63,63)" stroke-width="0.1"/>
 </g>
 <g id="layerPUB_TEXT" inkscape:groupmode="layer" inkscape:label="PUB_TEXT">
  <text fill="rgb(0,0,0)" font-family="Noto Sans CJK SC" font-size="2" transform="rotate(-350.0,29.258579500000053,70.3749225)" x="29.258579500000053" y="70.3749225">
   正压
  </text>
  <text fill="rgb(0,0,0)" font-family="Noto Sans CJK SC" font-size="2" transform="rotate(-350.0,58.649579500000016,73.59892249999999)" x="58.649579500000016" y="73.59892249999999">
   消防水
  </text>
  <text fill="rgb(0,0,0)" font-family="Noto Sans CJK SC" font-size="2" transform="rotate(-350.0,42.50257949999997,72.74492249999997)" x="42.50257949999997" y="72.74492249999997">
   烟
  </text>
  <text fill="rgb(0,0,0)" font-family="Noto Sans CJK SC" font-size="2" transform="rotate(-350.0,34.15457950000001,97.97792249999998)" x="34.15457950000001" y="97.97792249999998">
   母婴室
  </text>
  <text fill="rgb(0,0,0)" font-family="Noto Sans CJK SC" font-size="2" transform="rotate(-349.853,61.97157950000002,57.092922499999986)" x="61.97157950000002" y="57.092922499999986">
   烟囱
  </text>
 </g>
 <g id="layerTOILET" inkscape:groupmode="layer" inkscape:label="TOILET">
  <path d="M 92.12257949999997,22.633922499999983 L 96.17336808047816,0.0" fill="none" stroke="rgb(53,79,107)" stroke-width="0.1"/>
  <path d="M 100.00000000000006,74.68502461233871 L 98.10557950000003,74.34592249999997" fill="none" stroke="rgb(53,79,107)" stroke-width="0.1"/>
  <path d="M 99.63857950000005,65.78192249999998 L 100.00000000000006,65.84661693029807" fill="none" stroke="rgb(53,79,107)" stroke-width="0.1"/>
  <path d="M 100.00000000000006,65.54211112932887 L 99.69157950000005,65.48692249999999" fill="none" stroke="rgb(53,79,107)" stroke-width="0.1"/>
  <path d="M 96.50157949999999,6.818922499999985 L 95.00157949999999,6.54992249999998" fill="none" instance-id="9" semantic-id="28" stroke="rgb(53,79,107)" stroke-width="0.1"/>
  <path d="M 97.7175795,2.9079224999999838 L 97.09057950000005,6.407922499999984" fill="none" instance-id="9" semantic-id="28" stroke="rgb(53,79,107)" stroke-width="0.1"/>
  <path d="M 95.80657950000005,2.0499224999999797 L 97.30657950000005,2.3179224999999803" fill="none" instance-id="9" semantic-id="28" stroke="rgb(53,79,107)" stroke-width="0.1"/>
  <path d="M 95.00157949999999,6.54992249999998 L 95.80657950000005,2.0499224999999797" fill="none" instance-id="9" semantic-id="28" stroke="rgb(53,79,107)" stroke-width="0.1"/>
  <path d="M 95.26857950000004,13.708922499999971 L 93.76757950000007,13.44092249999997" fill="none" instance-id="10" semantic-id="28" stroke="rgb(53,79,107)" stroke-width="0.1"/>
  <path d="M 96.48457950000005,9.79792249999997 L 95.85757949999999,13.298922499999975" fill="none" instance-id="10" semantic-id="28" stroke="rgb(53,79,107)" stroke-width="0.1"/>
  <path d="M 94.5735795,8.939922499999994 L 96.0735795,9.208922499999971" fill="none" instance-id="10" semantic-id="28" stroke="rgb(53,79,107)" stroke-width="0.1"/>
  <path d="M 93.76757950000007,13.44092249999997 L 94.5735795,8.939922499999994" fill="none" instance-id="10" semantic-id="28" stroke="rgb(53,79,107)" stroke-width="0.1"/>
  <path d="M 100.00000000000006,83.82848231510457 L 96.5205795,83.20592249999999" fill="none" stroke="rgb(53,79,107)" stroke-width="0.1"/>
  <path d="M 98.05257950000004,74.64192249999999 L 100.00000000000006,74.99036723279696" fill="none" stroke="rgb(53,79,107)" stroke-width="0.1"/>
  <path d="M 100.00000000000006,79.08989311170203 L 99.80357950000001,80.18692249999998" fill="none" stroke="rgb(53,79,107)" stroke-width="0.1"/>
  <path d="M 99.92357950000002,78.37992249999999 L 99.57157950000004,80.34792249999998" fill="none" stroke="rgb(53,79,107)" stroke-width="0.1"/>
  <path d="M 100.00000000000006,80.42507901219511 L 99.96557950000005,80.41892249999998" fill="none" stroke="rgb(53,79,107)" stroke-width="0.1"/>
  <path d="M 100.00000000000006,80.62763455397968 L 99.73357949999996,80.57992249999998" fill="none" stroke="rgb(53,79,107)" stroke-width="0.1"/>
  <path d="M 94.0345795,20.59992249999999 L 92.5345795,20.330922499999986" fill="none" instance-id="11" semantic-id="28" stroke="rgb(53,79,107)" stroke-width="0.1"/>
  <path d="M 95.25057950000001,16.68892249999999 L 94.62457950000004,20.18892249999999" fill="none" instance-id="11" semantic-id="28" stroke="rgb(53,79,107)" stroke-width="0.1"/>
  <path d="M 93.34057950000005,15.830922499999986 L 94.84057950000005,16.098922499999986" fill="none" instance-id="11" semantic-id="28" stroke="rgb(53,79,107)" stroke-width="0.1"/>
  <path d="M 92.5345795,20.330922499999986 L 93.34057950000005,15.830922499999986" fill="none" instance-id="11" semantic-id="28" stroke="rgb(53,79,107)" stroke-width="0.1"/>
  <path d="M 96.0685795,95.5469225 L 95.9625795,96.14192249999996" fill="none" instance-id="23" semantic-id="23" stroke="rgb(53,79,107)" stroke-width="0.1"/>
  <path d="M 95.72357949999997,96.03392249999996 L 96.67857950000001,96.46292249999999" fill="none" instance-id="23" semantic-id="23" stroke="rgb(53,79,107)" stroke-width="0.1"/>
  <path d="M 96.67857950000001,96.46292249999999 L 96.63457950000003,96.71292249999999" fill="none" instance-id="23" semantic-id="23" stroke="rgb(53,79,107)" stroke-width="0.1"/>
  <path d="M 96.63457950000003,96.71292249999999 L 95.58957950000007,96.78392249999996" fill="none" instance-id="23" semantic-id="23" stroke="rgb(53,79,107)" stroke-width="0.1"/>
  <path d="M 95.85057950000004,96.76692249999996 L 95.74357950000007,97.36292249999997" fill="none" instance-id="23" semantic-id="23" stroke="rgb(53,79,107)" stroke-width="0.1"/>
  <path d="M 95.59857949999997,96.01192249999997 L 95.46457950000007,96.76192249999997" fill="none" instance-id="23" semantic-id="23" stroke="rgb(53,79,107)" stroke-width="0.1"/>
  <path d="M 97.03757950000005,90.1329225 L 96.93157950000005,90.72792249999998" fill="none" instance-id="22" semantic-id="23" stroke="rgb(53,79,107)" stroke-width="0.1"/>
  <path d="M 96.69257950000002,90.61992249999997 L 97.64757950000006,91.0489225" fill="none" instance-id="22" semantic-id="23" stroke="rgb(53,79,107)" stroke-width="0.1"/>
  <path d="M 97.64757950000006,91.0489225 L 97.60257949999999,91.2989225" fill="none" instance-id="22" semantic-id="23" stroke="rgb(53,79,107)" stroke-width="0.1"/>
  <path d="M 97.60257949999999,91.2989225 L 96.55857950000001,91.36992249999997" fill="none" instance-id="22" semantic-id="23" stroke="rgb(53,79,107)" stroke-width="0.1"/>
  <path d="M 96.81957949999997,91.35292249999998 L 96.7125795,91.94892249999998" fill="none" instance-id="22" semantic-id="23" stroke="rgb(53,79,107)" stroke-width="0.1"/>
  <path d="M 96.56757950000002,90.59792249999998 L 96.43257950000003,91.34792249999998" fill="none" instance-id="22" semantic-id="23" stroke="rgb(53,79,107)" stroke-width="0.1"/>
  <path d="M 97.33657950000003,5.032922499999984 A 0.3810265738764153,0.3810265738764153 0.0 1,0 97.47157950000002,4.282922499999984" fill="none" instance-id="9" semantic-id="28" stroke="rgb(53,79,107)" stroke-width="0.1"/>
  <path d="M 98.90657949999996,4.916922499999998 A 1.46168,1.46168 0.0 0,0 97.68157950000005,3.1589224999999885" fill="none" instance-id="9" semantic-id="28" stroke="rgb(53,79,107)" stroke-width="0.1"/>
  <path d="M 97.14457950000002,6.159922499999993 A 1.46168,1.46168 0.0 0,0 98.90257950000006,4.935922499999975" fill="none" instance-id="9" semantic-id="28" stroke="rgb(53,79,107)" stroke-width="0.1"/>
  <path d="M 97.7175795,2.9079224999999838 A 0.508,0.508 0.0 0,0 97.30657950000005,2.3179224999999803" fill="none" instance-id="9" semantic-id="28" stroke="rgb(53,79,107)" stroke-width="0.1"/>
  <path d="M 96.50157949999999,6.818922499999985 A 0.508,0.508 0.0 0,0 97.09057950000005,6.407922499999984" fill="none" instance-id="9" semantic-id="28" stroke="rgb(53,79,107)" stroke-width="0.1"/>
  <path d="M 98.67957949999999,5.530922499999974 A 0.635,0.635 0.0 0,0 98.90257950000006,4.280922499999974" fill="none" instance-id="9" semantic-id="28" stroke="rgb(53,79,107)" stroke-width="0.1"/>
  <path d="M 99.18257950000003,4.413922499999984 A 1.71568,1.71568 0.0 0,0 97.7175795,2.9079224999999838" fill="none" instance-id="9" semantic-id="28" stroke="rgb(53,79,107)" stroke-width="0.1"/>
  <path d="M 97.09057950000005,6.407922499999984 A 1.71568,1.71568 0.0 0,0 98.98757949999998,5.503922499999987" fill="none" instance-id="9" semantic-id="28" stroke="rgb(53,79,107)" stroke-width="0.1"/>
  <path d="M 96.10357949999997,11.92292249999997 A 0.381,0.381 0.0 1,0 96.23757949999998,11.17292249999997" fill="none" instance-id="10" semantic-id="28" stroke="rgb(53,79,107)" stroke-width="0.1"/>
  <path d="M 97.67257950000004,11.80792249999999 A 1.46168,1.46168 0.0 0,0 96.4485795,10.04992249999998" fill="none" instance-id="10" semantic-id="28" stroke="rgb(53,79,107)" stroke-width="0.1"/>
  <path d="M 95.91157949999996,13.04992249999998 A 1.46168,1.46168 0.0 0,0 97.6695795,11.82592249999999" fill="none" instance-id="10" semantic-id="28" stroke="rgb(53,79,107)" stroke-width="0.1"/>
  <path d="M 96.48457950000005,9.79792249999997 A 0.508,0.508 0.0 0,0 96.0735795,9.208922499999971" fill="none" instance-id="10" semantic-id="28" stroke="rgb(53,79,107)" stroke-width="0.1"/>
  <path d="M 95.26857950000004,13.708922499999971 A 0.508,0.508 0.0 0,0 95.85757949999999,13.298922499999975" fill="none" instance-id="10" semantic-id="28" stroke="rgb(53,79,107)" stroke-width="0.1"/>
  <path d="M 97.44557950000006,12.421922499999994 A 0.635,0.635 0.0 0,0 97.6695795,11.171922499999994" fill="none" instance-id="10" semantic-id="28" stroke="rgb(53,79,107)" stroke-width="0.1"/>
  <path d="M 97.94957949999997,11.30392249999997 A 1.71568,1.71568 0.0 0,0 96.48457950000005,9.79792249999997" fill="none" instance-id="10" semantic-id="28" stroke="rgb(53,79,107)" stroke-width="0.1"/>
  <path d="M 95.85757949999999,13.298922499999975 A 1.71568,1.71568 0.0 0,0 97.75457950000003,12.393922499999974" fill="none" instance-id="10" semantic-id="28" stroke="rgb(53,79,107)" stroke-width="0.1"/>
  <path d="M 99.57157950000004,80.34792249999998 A 0.2,0.2 0.0 0,0 99.73357949999996,80.57992249999998" fill="none" stroke="rgb(53,79,107)" stroke-width="0.1"/>
  <path d="M 99.80357950000001,80.18692249999998 A 0.2,0.2 0.0 0,0 99.96557950000005,80.41892249999998" fill="none" stroke="rgb(53,79,107)" stroke-width="0.1"/>
  <path d="M 94.87057950000002,18.81392249999999 A 0.381,0.381 0.0 1,0 95.00457950000003,18.06392249999999" fill="none" instance-id="11" semantic-id="28" stroke="rgb(53,79,107)" stroke-width="0.1"/>
  <path d="M 96.43957949999998,18.697922499999976 A 1.46168,1.46168 0.0 0,0 95.21557950000005,16.939922499999994" fill="none" instance-id="11" semantic-id="28" stroke="rgb(53,79,107)" stroke-width="0.1"/>
  <path d="M 94.67857950000001,19.94092249999997 A 1.46168,1.46168 0.0 0,0 96.43657950000005,18.71692249999998" fill="none" instance-id="11" semantic-id="28" stroke="rgb(53,79,107)" stroke-width="0.1"/>
  <path d="M 95.25057950000001,16.68892249999999 A 0.508,0.508 0.0 0,0 94.84057950000005,16.098922499999986" fill="none" instance-id="11" semantic-id="28" stroke="rgb(53,79,107)" stroke-width="0.1"/>
  <path d="M 94.0345795,20.59992249999999 A 0.508,0.508 0.0 0,0 94.62457950000004,20.18892249999999" fill="none" instance-id="11" semantic-id="28" stroke="rgb(53,79,107)" stroke-width="0.1"/>
  <path d="M 96.2125795,19.31192249999998 A 0.635,0.635 0.0 0,0 96.43657950000005,18.06192249999998" fill="none" instance-id="11" semantic-id="28" stroke="rgb(53,79,107)" stroke-width="0.1"/>
  <path d="M 96.71657950000002,18.19492249999999 A 1.71568,1.71568 0.0 0,0 95.25057950000001,16.68892249999999" fill="none" instance-id="11" semantic-id="28" stroke="rgb(53,79,107)" stroke-width="0.1"/>
  <path d="M 94.62457950000004,20.18892249999999 A 1.71568,1.71568 0.0 0,0 96.5205795,19.284922499999993" fill="none" instance-id="11" semantic-id="28" stroke="rgb(53,79,107)" stroke-width="0.1"/>
  <path d="M 96.9385795,94.72092249999997 A 1.63782,1.63782 0.0 0,0 96.25657949999999,95.1669225" fill="none" instance-id="23" semantic-id="23" stroke="rgb(53,79,107)" stroke-width="0.1"/>
  <path d="M 97.51457950000002,94.67792249999997 A 1.15665,1.15665 0.0 0,0 96.9385795,94.72092249999997" fill="none" instance-id="23" semantic-id="23" stroke="rgb(53,79,107)" stroke-width="0.1"/>
  <path d="M 98.0395795,94.91792249999997 A 1.15665,1.15665 0.0 0,0 97.51457950000002,94.67792249999997" fill="none" instance-id="23" semantic-id="23" stroke="rgb(53,79,107)" stroke-width="0.1"/>
  <path d="M 98.47057950000004,95.4529225 A 1.63782,1.63782 0.0 0,0 98.0395795,94.91792249999997" fill="none" instance-id="23" semantic-id="23" stroke="rgb(53,79,107)" stroke-width="0.1"/>
  <path d="M 98.67857950000001,96.13592249999999 A 2.09571,2.09571 0.0 0,0 98.47057950000004,95.4529225" fill="none" instance-id="23" semantic-id="23" stroke="rgb(53,79,107)" stroke-width="0.1"/>
  <path d="M 98.65657949999996,96.9459225 A 2.70046,2.70046 0.0 0,0 98.67857950000001,96.13592249999999" fill="none" instance-id="23" semantic-id="23" stroke="rgb(53,79,107)" stroke-width="0.1"/>
  <path d="M 98.3955795,97.71392249999997 A 2.70046,2.70046 0.0 0,0 98.65657949999996,96.9459225" fill="none" instance-id="23" semantic-id="23" stroke="rgb(53,79,107)" stroke-width="0.1"/>
  <path d="M 97.96457950000007,98.28192250000001 A 2.09571,2.09571 0.0 0,0 98.3955795,97.71392249999997" fill="none" instance-id="23" semantic-id="23" stroke="rgb(53,79,107)" stroke-width="0.1"/>
  <path d="M 97.37457950000004,98.63492249999996 A 1.63782,1.63782 0.0 0,0 97.96457950000007,98.28192250000001" fill="none" instance-id="23" semantic-id="23" stroke="rgb(53,79,107)" stroke-width="0.1"/>
  <path d="M 96.79857950000002,98.67792249999997 A 1.15665,1.15665 0.0 0,0 97.37457950000004,98.63492249999996" fill="none" instance-id="23" semantic-id="23" stroke="rgb(53,79,107)" stroke-width="0.1"/>
  <path d="M 96.27357950000004,98.43792249999996 A 1.15665,1.15665 0.0 0,0 96.79857950000002,98.67792249999997" fill="none" instance-id="23" semantic-id="23" stroke="rgb(53,79,107)" stroke-width="0.1"/>
  <path d="M 95.8425795,97.90192250000001 A 1.63782,1.63782 0.0 0,0 96.27357950000004,98.43792249999996" fill="none" instance-id="23" semantic-id="23" stroke="rgb(53,79,107)" stroke-width="0.1"/>
  <path d="M 95.79657950000006,97.8039225 A 2.09571,2.09571 0.0 0,0 95.8425795,97.90192250000001" fill="none" stroke="rgb(53,79,107)" stroke-width="0.1"/>
  <path d="M 96.25657949999999,95.1669225 A 0.762,0.762 0.0 0,0 96.0685795,95.5469225" fill="none" instance-id="23" semantic-id="23" stroke="rgb(53,79,107)" stroke-width="0.1"/>
  <path d="M 95.74357950000007,97.36292249999997 A 0.762,0.762 0.0 0,0 95.79657950000006,97.8039225" fill="none" instance-id="23" semantic-id="23" stroke="rgb(53,79,107)" stroke-width="0.1"/>
  <path d="M 97.90757950000005,89.30692249999998 A 1.63782,1.63782 0.0 0,0 97.22457950000006,89.75292250000001" fill="none" instance-id="22" semantic-id="23" stroke="rgb(53,79,107)" stroke-width="0.1"/>
  <path d="M 98.48357949999996,89.26392249999998 A 1.15665,1.15665 0.0 0,0 97.90757950000005,89.30692249999998" fill="none" instance-id="22" semantic-id="23" stroke="rgb(53,79,107)" stroke-width="0.1"/>
  <path d="M 99.00857950000005,89.50392249999999 A 1.15665,1.15665 0.0 0,0 98.48357949999996,89.26392249999998" fill="none" instance-id="22" semantic-id="23" stroke="rgb(53,79,107)" stroke-width="0.1"/>
  <path d="M 99.43957949999998,90.03892250000001 A 1.63782,1.63782 0.0 0,0 99.00857950000005,89.50392249999999" fill="none" instance-id="22" semantic-id="23" stroke="rgb(53,79,107)" stroke-width="0.1"/>
  <path d="M 99.64657949999997,90.7219225 A 2.09571,2.09571 0.0 0,0 99.43957949999998,90.03892250000001" fill="none" instance-id="22" semantic-id="23" stroke="rgb(53,79,107)" stroke-width="0.1"/>
  <path d="M 99.62557950000001,91.53192250000001 A 2.70046,2.70046 0.0 0,0 99.64657949999997,90.7219225" fill="none" instance-id="22" semantic-id="23" stroke="rgb(53,79,107)" stroke-width="0.1"/>
  <path d="M 99.36457950000005,92.29992249999998 A 2.70046,2.70046 0.0 0,0 99.62557950000001,91.53192250000001" fill="none" instance-id="22" semantic-id="23" stroke="rgb(53,79,107)" stroke-width="0.1"/>
  <path d="M 98.93257950000003,92.86792249999996 A 2.09571,2.09571 0.0 0,0 99.36457950000005,92.29992249999998" fill="none" instance-id="22" semantic-id="23" stroke="rgb(53,79,107)" stroke-width="0.1"/>
  <path d="M 98.34357949999998,93.22092249999997 A 1.63782,1.63782 0.0 0,0 98.93257950000003,92.86792249999996" fill="none" instance-id="22" semantic-id="23" stroke="rgb(53,79,107)" stroke-width="0.1"/>
  <path d="M 97.76757950000007,93.26392249999998 A 1.15665,1.15665 0.0 0,0 98.34357949999998,93.22092249999997" fill="none" instance-id="22" semantic-id="23" stroke="rgb(53,79,107)" stroke-width="0.1"/>
  <path d="M 97.24257949999998,93.02392249999997 A 1.15665,1.15665 0.0 0,0 97.76757950000007,93.26392249999998" fill="none" instance-id="22" semantic-id="23" stroke="rgb(53,79,107)" stroke-width="0.1"/>
  <path d="M 96.81157950000005,92.48792249999997 A 1.63782,1.63782 0.0 0,0 97.24257949999998,93.02392249999997" fill="none" instance-id="22" semantic-id="23" stroke="rgb(53,79,107)" stroke-width="0.1"/>
  <path d="M 96.7655795,92.38992250000001 A 2.09571,2.09571 0.0 0,0 96.81157950000005,92.48792249999997" fill="none" stroke="rgb(53,79,107)" stroke-width="0.1"/>
  <path d="M 97.22457950000006,89.75292250000001 A 0.762,0.762 0.0 0,0 97.03757950000005,90.1329225" fill="none" instance-id="22" semantic-id="23" stroke="rgb(53,79,107)" stroke-width="0.1"/>
  <path d="M 96.7125795,91.94892249999998 A 0.762,0.762 0.0 0,0 96.7655795,92.38992250000001" fill="none" instance-id="22" semantic-id="23" stroke="rgb(53,79,107)" stroke-width="0.1"/>
  <path d="M 95.78057949999999,98.58192249999996 A 1.81238,1.81238 0.0 0,0 96.50357950000006,98.8829225" fill="none" instance-id="23" semantic-id="23" stroke="rgb(53,79,107)" stroke-width="0.1"/>
  <path d="M 95.20757950000001,97.97092249999997 A 2.06544,2.06544 0.0 0,0 95.78057949999999,98.58192249999996" fill="none" instance-id="23" semantic-id="23" stroke="rgb(53,79,107)" stroke-width="0.1"/>
  <path d="M 94.90557949999999,97.17592249999996 A 2.28839,2.28839 0.0 0,0 95.20757950000001,97.97092249999997" fill="none" instance-id="23" semantic-id="23" stroke="rgb(53,79,107)" stroke-width="0.1"/>
  <path d="M 94.90657949999996,96.2749225 A 2.5666,2.5666 0.0 0,0 94.90557949999999,97.17592249999996" fill="none" instance-id="23" semantic-id="23" stroke="rgb(53,79,107)" stroke-width="0.1"/>
  <path d="M 95.21857949999998,95.42992249999998 A 2.5666,2.5666 0.0 0,0 94.90657949999996,96.2749225" fill="none" instance-id="23" semantic-id="23" stroke="rgb(53,79,107)" stroke-width="0.1"/>
  <path d="M 95.77657949999997,94.78892250000001 A 2.28839,2.28839 0.0 0,0 95.21857949999998,95.42992249999998" fill="none" instance-id="23" semantic-id="23" stroke="rgb(53,79,107)" stroke-width="0.1"/>
  <path d="M 96.52557949999999,94.41492249999999 A 2.06544,2.06544 0.0 0,0 95.77657949999997,94.78892250000001" fill="none" instance-id="23" semantic-id="23" stroke="rgb(53,79,107)" stroke-width="0.1"/>
  <path d="M 97.30957949999998,94.3829225 A 1.81238,1.81238 0.0 0,0 96.52557949999999,94.41492249999999" fill="none" instance-id="23" semantic-id="23" stroke="rgb(53,79,107)" stroke-width="0.1"/>
  <path d="M 98.03257950000005,94.68492249999997 A 1.81238,1.81238 0.0 0,0 97.30957949999998,94.3829225" fill="none" instance-id="23" semantic-id="23" stroke="rgb(53,79,107)" stroke-width="0.1"/>
  <path d="M 98.60557950000003,95.29492249999998 A 2.06544,2.06544 0.0 0,0 98.03257950000005,94.68492249999997" fill="none" instance-id="23" semantic-id="23" stroke="rgb(53,79,107)" stroke-width="0.1"/>
  <path d="M 98.90757950000005,96.0899225 A 2.28839,2.28839 0.0 0,0 98.60557950000003,95.29492249999998" fill="none" instance-id="23" semantic-id="23" stroke="rgb(53,79,107)" stroke-width="0.1"/>
  <path d="M 98.90657949999996,96.99092250000001 A 2.5666,2.5666 0.0 0,0 98.90757950000005,96.0899225" fill="none" instance-id="23" semantic-id="23" stroke="rgb(53,79,107)" stroke-width="0.1"/>
  <path d="M 98.59457950000007,97.83592249999998 A 2.5666,2.5666 0.0 0,0 98.90657949999996,96.99092250000001" fill="none" instance-id="23" semantic-id="23" stroke="rgb(53,79,107)" stroke-width="0.1"/>
  <path d="M 98.03657949999996,98.4769225 A 2.28839,2.28839 0.0 0,0 98.59457950000007,97.83592249999998" fill="none" instance-id="23" semantic-id="23" stroke="rgb(53,79,107)" stroke-width="0.1"/>
  <path d="M 97.28757950000005,98.85092249999997 A 2.06544,2.06544 0.0 0,0 98.03657949999996,98.4769225" fill="none" instance-id="23" semantic-id="23" stroke="rgb(53,79,107)" stroke-width="0.1"/>
  <path d="M 96.50357950000006,98.8829225 A 1.81238,1.81238 0.0 0,0 97.28757950000005,98.85092249999997" fill="none" instance-id="23" semantic-id="23" stroke="rgb(53,79,107)" stroke-width="0.1"/>
  <path d="M 96.74857950000006,93.16792249999997 A 1.81238,1.81238 0.0 0,0 97.4725795,93.46892249999996" fill="none" instance-id="22" semantic-id="23" stroke="rgb(53,79,107)" stroke-width="0.1"/>
  <path d="M 96.17657950000006,92.55692249999998 A 2.06544,2.06544 0.0 0,0 96.74857950000006,93.16792249999997" fill="none" instance-id="22" semantic-id="23" stroke="rgb(53,79,107)" stroke-width="0.1"/>
  <path d="M 95.87457950000004,91.76192249999997 A 2.28839,2.28839 0.0 0,0 96.17657950000006,92.55692249999998" fill="none" instance-id="22" semantic-id="23" stroke="rgb(53,79,107)" stroke-width="0.1"/>
  <path d="M 95.87557950000001,90.86092249999996 A 2.5666,2.5666 0.0 0,0 95.87457950000004,91.76192249999997" fill="none" instance-id="22" semantic-id="23" stroke="rgb(53,79,107)" stroke-width="0.1"/>
  <path d="M 96.18657950000005,90.01592249999999 A 2.5666,2.5666 0.0 0,0 95.87557950000001,90.86092249999996" fill="none" instance-id="22" semantic-id="23" stroke="rgb(53,79,107)" stroke-width="0.1"/>
  <path d="M 96.74557950000002,89.37492249999997 A 2.28839,2.28839 0.0 0,0 96.18657950000005,90.01592249999999" fill="none" instance-id="22" semantic-id="23" stroke="rgb(53,79,107)" stroke-width="0.1"/>
  <path d="M 97.49457950000004,89.0009225 A 2.06544,2.06544 0.0 0,0 96.74557950000002,89.37492249999997" fill="none" instance-id="22" semantic-id="23" stroke="rgb(53,79,107)" stroke-width="0.1"/>
  <path d="M 98.27757950000006,88.96892249999996 A 1.81238,1.81238 0.0 0,0 97.49457950000004,89.0009225" fill="none" instance-id="22" semantic-id="23" stroke="rgb(53,79,107)" stroke-width="0.1"/>
  <path d="M 99.00157949999999,89.27092249999998 A 1.81238,1.81238 0.0 0,0 98.27757950000006,88.96892249999996" fill="none" instance-id="22" semantic-id="23" stroke="rgb(53,79,107)" stroke-width="0.1"/>
  <path d="M 99.57457949999997,89.8809225 A 2.06544,2.06544 0.0 0,0 99.00157949999999,89.27092249999998" fill="none" instance-id="22" semantic-id="23" stroke="rgb(53,79,107)" stroke-width="0.1"/>
  <path d="M 99.87657949999999,90.67592249999996 A 2.28839,2.28839 0.0 0,0 99.57457949999997,89.8809225" fill="none" instance-id="22" semantic-id="23" stroke="rgb(53,79,107)" stroke-width="0.1"/>
  <path d="M 99.87557950000001,91.57692249999997 A 2.5666,2.5666 0.0 0,0 99.87657949999999,90.67592249999996" fill="none" instance-id="22" semantic-id="23" stroke="rgb(53,79,107)" stroke-width="0.1"/>
  <path d="M 99.5635795,92.4219225 A 2.5666,2.5666 0.0 0,0 99.87557950000001,91.57692249999997" fill="none" instance-id="22" semantic-id="23" stroke="rgb(53,79,107)" stroke-width="0.1"/>
  <path d="M 99.00457950000003,93.06292249999996 A 2.28839,2.28839 0.0 0,0 99.5635795,92.4219225" fill="none" instance-id="22" semantic-id="23" stroke="rgb(53,79,107)" stroke-width="0.1"/>
  <path d="M 98.25657949999999,93.43692249999998 A 2.06544,2.06544 0.0 0,0 99.00457950000003,93.06292249999996" fill="none" instance-id="22" semantic-id="23" stroke="rgb(53,79,107)" stroke-width="0.1"/>
  <path d="M 97.4725795,93.46892249999996 A 1.81238,1.81238 0.0 0,0 98.25657949999999,93.43692249999998" fill="none" instance-id="22" semantic-id="23" stroke="rgb(53,79,107)" stroke-width="0.1"/>
  <path d="M 96.34057950000005,99.7969225 A 1.81238,1.81238 0.0 0,0 95.55657950000005,99.82892249999998" fill="none" stroke="rgb(53,79,107)" stroke-width="0.1"/>
  <path d="M 99.60943837475935,100.0 L 100.00000000000006,97.81780206442903" fill="none" stroke="rgb(53,79,107)" stroke-width="0.1"/>
  <path d="M 100.00000000000006,84.99596727963086 L 96.31757950000002,84.33692249999999" fill="none" stroke="rgb(53,79,107)" stroke-width="0.1"/>
  <path d="M 96.31757950000002,84.33692249999999 L 93.51426046786554,100.0" fill="none" stroke="rgb(53,79,107)" stroke-width="0.1"/>
  <path d="M 95.99857950000006,0.9779224999999769 L 100.00000000000006,1.6941458767777249" fill="none" stroke="rgb(53,79,107)" stroke-width="0.1"/>
  <path d="M 100.00000000000006,1.4394661895570948 L 96.04257950000004,0.731922499999996" fill="none" stroke="rgb(53,79,107)" stroke-width="0.1"/>
  <path d="M 94.7655795,7.867922499999992 L 99.68657950000005,8.748922499999992" fill="none" instance-id="10" semantic-id="28" stroke="rgb(53,79,107)" stroke-width="0.1"/>
  <path d="M 99.68657950000005,8.748922499999992 L 99.73157950000001,8.502922499999983" fill="none" instance-id="9" semantic-id="28" stroke="rgb(53,79,107)" stroke-width="0.1"/>
  <path d="M 99.73157950000001,8.502922499999983 L 94.80957949999998,7.621922499999982" fill="none" instance-id="9" semantic-id="28" stroke="rgb(53,79,107)" stroke-width="0.1"/>
  <path d="M 93.53157949999996,14.758922499999983 L 98.45357949999999,15.639922499999983" fill="none" instance-id="11" semantic-id="28" stroke="rgb(53,79,107)" stroke-width="0.1"/>
  <path d="M 98.45357949999999,15.639922499999983 L 98.49757949999997,15.392922499999997" fill="none" instance-id="11" semantic-id="28" stroke="rgb(53,79,107)" stroke-width="0.1"/>
  <path d="M 98.49757949999997,15.392922499999997 L 93.57557950000006,14.512922499999974" fill="none" stroke="rgb(53,79,107)" stroke-width="0.1"/>
  <circle cx="95.76857950000004" cy="95.78392249999996" fill="none" instance-id="23" r="0.254" semantic-id="23" stroke="rgb(53,79,107)" stroke-width="0.1"/>
  <circle cx="95.5445795" cy="97.03392249999996" fill="none" instance-id="23" r="0.254" semantic-id="23" stroke="rgb(53,79,107)" stroke-width="0.1"/>
  <circle cx="97.15657949999996" cy="96.67792249999997" fill="none" instance-id="23" r="0.254" semantic-id="23" stroke="rgb(53,79,107)" stroke-width="0.1"/>
  <circle cx="96.7365795" cy="90.36992249999997" fill="none" instance-id="22" r="0.254" semantic-id="23" stroke="rgb(53,79,107)" stroke-width="0.1"/>
  <circle cx="96.51357950000005" cy="91.61992249999997" fill="none" instance-id="22" r="0.254" semantic-id="23" stroke="rgb(53,79,107)" stroke-width="0.1"/>
  <circle cx="98.12557950000001" cy="91.26392249999998" fill="none" instance-id="22" r="0.254" semantic-id="23" stroke="rgb(53,79,107)" stroke-width="0.1"/>
 </g>
 <g id="layerWALL" inkscape:groupmode="layer" inkscape:label="WALL">
  <path d="M 36.74398334583219,0.0 L 35.94657950000004,4.455922499999986" fill="none" instance-id="-1" semantic-id="1" stroke="rgb(178,178,0)" stroke-width="0.1"/>
  <path d="M 35.94657950000004,4.455922499999986 L 37.9145795,4.807922499999989" fill="none" instance-id="-1" semantic-id="1" stroke="rgb(178,178,0)" stroke-width="0.1"/>
  <path d="M 37.9145795,4.807922499999989 L 38.7752966936045,0.0" fill="none" instance-id="-1" semantic-id="1" stroke="rgb(178,178,0)" stroke-width="0.1"/>
  <path d="M 34.30357950000001,24.983922499999977 L 35.62457950000004,17.604922499999986" fill="none" instance-id="-1" semantic-id="1" stroke="rgb(178,178,0)" stroke-width="0.1"/>
  <path d="M 35.62457950000004,17.604922499999986 L 33.65557949999999,17.251922499999978" fill="none" instance-id="-1" semantic-id="1" stroke="rgb(178,178,0)" stroke-width="0.1"/>
  <path d="M 33.65557949999999,17.251922499999978 L 32.15857950000003,25.615922499999982" fill="none" instance-id="-1" semantic-id="1" stroke="rgb(178,178,0)" stroke-width="0.1"/>
  <path d="M 62.00557950000001,31.973922499999986 L 33.95157950000004,26.95292249999997" fill="none" instance-id="-1" semantic-id="1" stroke="rgb(178,178,0)" stroke-width="0.1"/>
  <path d="M 62.35857949999996,30.004922499999992 L 34.30357950000001,24.983922499999977" fill="none" instance-id="-1" semantic-id="1" stroke="rgb(178,178,0)" stroke-width="0.1"/>
  <path d="M 55.663579500000026,67.4099225 L 62.00557950000001,31.973922499999986" fill="none" instance-id="-1" semantic-id="1" stroke="rgb(178,178,0)" stroke-width="0.1"/>
  <path d="M 57.63257949999996,67.7619225 L 64.15057949999999,31.34192249999998" fill="none" instance-id="-1" semantic-id="1" stroke="rgb(178,178,0)" stroke-width="0.1"/>
  <path d="M 55.663579500000026,67.4099225 L 57.63257949999996,67.7619225" fill="none" instance-id="-1" semantic-id="1" stroke="rgb(178,178,0)" stroke-width="0.1"/>
  <path d="M 57.31057949999996,80.91192249999997 L 38.607579499999986,77.5649225" fill="none" instance-id="-1" semantic-id="1" stroke="rgb(178,178,0)" stroke-width="0.1"/>
  <path d="M 56.67857950000001,78.76692249999999 L 39.944579499999975,75.77192249999999" fill="none" instance-id="-1" semantic-id="1" stroke="rgb(178,178,0)" stroke-width="0.1"/>
  <path d="M 77.25935059422619,100.0 L 78.1885795,94.80792249999996" fill="none" instance-id="-1" semantic-id="1" stroke="rgb(178,178,0)" stroke-width="0.1"/>
  <path d="M 78.1885795,94.80792249999996 L 76.22057950000004,94.45592249999999" fill="none" instance-id="-1" semantic-id="1" stroke="rgb(178,178,0)" stroke-width="0.1"/>
  <path d="M 76.22057950000004,94.45592249999999 L 75.22827391212223,100.0" fill="none" instance-id="-1" semantic-id="1" stroke="rgb(178,178,0)" stroke-width="0.1"/>
  <path d="M 77.98157950000001,84.61192249999999 L 77.80557949999996,85.59592249999997" fill="none" instance-id="-1" semantic-id="1" stroke="rgb(178,178,0)" stroke-width="0.1"/>
  <path d="M 77.80557949999996,85.59592249999997 L 79.77457950000002,85.94892249999998" fill="none" instance-id="-1" semantic-id="1" stroke="rgb(178,178,0)" stroke-width="0.1"/>
  <path d="M 79.77457950000002,85.94892249999998 L 80.12657949999999,83.97992249999999" fill="none" instance-id="-1" semantic-id="1" stroke="rgb(178,178,0)" stroke-width="0.1"/>
  <path d="M 56.67857950000001,78.76692249999999 L 59.49757949999997,63.0179225" fill="none" instance-id="-1" semantic-id="1" stroke="rgb(178,178,0)" stroke-width="0.1"/>
  <path d="M 58.64757950000006,79.11992249999997 L 61.2895795,64.35392249999998" fill="none" instance-id="-1" semantic-id="1" stroke="rgb(178,178,0)" stroke-width="0.1"/>
  <path d="M 77.98157950000001,84.61192249999999 L 57.31057949999996,80.91192249999997" fill="none" instance-id="-1" semantic-id="1" stroke="rgb(178,178,0)" stroke-width="0.1"/>
  <path d="M 78.33457949999996,82.6429225 L 58.64757950000006,79.11992249999997" fill="none" instance-id="-1" semantic-id="1" stroke="rgb(178,178,0)" stroke-width="0.1"/>
  <path d="M 80.97657950000001,67.87792249999998 L 70.64857950000004,66.0289225" fill="none" instance-id="-1" semantic-id="1" stroke="rgb(178,178,0)" stroke-width="0.1"/>
  <path d="M 81.32957949999997,65.90892249999999 L 71.98457950000005,64.23692249999999" fill="none" instance-id="-1" semantic-id="1" stroke="rgb(178,178,0)" stroke-width="0.1"/>
  <path d="M 41.88257949999996,64.94392249999999 L 39.944579499999975,75.77192249999999" fill="none" instance-id="-1" semantic-id="1" stroke="rgb(178,178,0)" stroke-width="0.1"/>
  <path d="M 39.913579500000026,64.59192249999998 L 37.97557950000004,75.41992249999998" fill="none" instance-id="-1" semantic-id="1" stroke="rgb(178,178,0)" stroke-width="0.1"/>
  <path d="M 41.88257949999996,64.94392249999999 L 39.913579500000026,64.59192249999998" fill="none" instance-id="-1" semantic-id="1" stroke="rgb(178,178,0)" stroke-width="0.1"/>
  <path d="M 38.607579499999986,77.5649225 L 25.3185795,75.18692249999998" fill="none" instance-id="-1" semantic-id="1" stroke="rgb(178,178,0)" stroke-width="0.1"/>
  <path d="M 37.97557950000004,75.41992249999998 L 25.671579500000007,73.21792249999999" fill="none" instance-id="-1" semantic-id="1" stroke="rgb(178,178,0)" stroke-width="0.1"/>
  <path d="M 59.49757949999997,63.0179225 L 62.49257949999998,46.282922499999984" fill="none" instance-id="-1" semantic-id="1" stroke="rgb(178,178,0)" stroke-width="0.1"/>
  <path d="M 61.64257950000007,62.38592249999999 L 64.28557949999998,47.61992249999997" fill="none" instance-id="-1" semantic-id="1" stroke="rgb(178,178,0)" stroke-width="0.1"/>
  <path d="M 89.1695795,22.104922499999986 L 91.28357950000003,10.292922499999975" fill="none" instance-id="-1" semantic-id="1" stroke="rgb(178,178,0)" stroke-width="0.1"/>
  <path d="M 91.31457949999998,21.47292249999998 L 93.42857950000001,9.660922499999998" fill="none" instance-id="-1" semantic-id="1" stroke="rgb(178,178,0)" stroke-width="0.1"/>
  <path d="M 23.702579500000013,72.86592249999998 L 16.525579499999992,71.58092249999999" fill="none" instance-id="-1" semantic-id="1" stroke="rgb(178,178,0)" stroke-width="0.1"/>
  <path d="M 16.525579499999992,71.58092249999999 L 16.17257950000004,73.54992249999998" fill="none" instance-id="-1" semantic-id="1" stroke="rgb(178,178,0)" stroke-width="0.1"/>
  <path d="M 16.17257950000004,73.54992249999998 L 23.350579500000038,74.83392249999997" fill="none" instance-id="-1" semantic-id="1" stroke="rgb(178,178,0)" stroke-width="0.1"/>
  <path d="M 25.3185795,75.18692249999998 L 20.878105250766907,100.0" fill="none" instance-id="-1" semantic-id="1" stroke="rgb(178,178,0)" stroke-width="0.1"/>
  <path d="M 23.350579500000038,74.83392249999997 L 18.84589338490065,100.0" fill="none" instance-id="-1" semantic-id="1" stroke="rgb(178,178,0)" stroke-width="0.1"/>
  <path d="M 80.12657949999999,83.97992249999999 L 81.36057950000003,77.08992249999997" fill="none" instance-id="-1" semantic-id="1" stroke="rgb(178,178,0)" stroke-width="0.1"/>
  <path d="M 81.36057950000003,77.08992249999997 L 79.39157949999998,76.73692249999999" fill="none" instance-id="-1" semantic-id="1" stroke="rgb(178,178,0)" stroke-width="0.1"/>
  <path d="M 79.39157949999998,76.73692249999999 L 78.33457949999996,82.6429225" fill="none" instance-id="-1" semantic-id="1" stroke="rgb(178,178,0)" stroke-width="0.1"/>
  <path d="M 80.97657950000001,67.87792249999998 L 80.80057949999997,68.86192249999999" fill="none" instance-id="-1" semantic-id="1" stroke="rgb(178,178,0)" stroke-width="0.1"/>
  <path d="M 80.80057949999997,68.86192249999999 L 82.76957950000002,69.21492249999997" fill="none" instance-id="-1" semantic-id="1" stroke="rgb(178,178,0)" stroke-width="0.1"/>
  <path d="M 82.76957950000002,69.21492249999997 L 83.1215795,67.24592249999998" fill="none" instance-id="-1" semantic-id="1" stroke="rgb(178,178,0)" stroke-width="0.1"/>
  <path d="M 96.31757950000002,84.33692249999999 L 100.00000000000006,84.99612947870256" fill="none" instance-id="-1" semantic-id="1" stroke="rgb(178,178,0)" stroke-width="0.1"/>
  <path d="M 100.00000000000006,83.98032294645188 L 96.49357950000007,83.35292249999998" fill="none" instance-id="-1" semantic-id="1" stroke="rgb(178,178,0)" stroke-width="0.1"/>
  <path d="M 100.00000000000006,41.05481758656558 L 99.25057950000001,45.24292249999999" fill="none" instance-id="-1" semantic-id="1" stroke="rgb(178,178,0)" stroke-width="0.1"/>
  <path d="M 81.32957949999997,65.90892249999999 L 83.9725795,51.143922499999974" fill="none" instance-id="-1" semantic-id="1" stroke="rgb(178,178,0)" stroke-width="0.1"/>
  <path d="M 83.1215795,67.24592249999998 L 86.1165795,50.5119225" fill="none" instance-id="-1" semantic-id="1" stroke="rgb(178,178,0)" stroke-width="0.1"/>
  <path d="M 85.29357950000002,43.75992249999999 L 86.08657950000003,39.330922499999986" fill="none" instance-id="-1" semantic-id="1" stroke="rgb(178,178,0)" stroke-width="0.1"/>
  <path d="M 87.4385795,43.12792249999998 L 88.23157950000001,38.69892249999998" fill="none" instance-id="-1" semantic-id="1" stroke="rgb(178,178,0)" stroke-width="0.1"/>
  <path d="M 95.35957950000005,84.01392249999998 L 100.00000000000006,58.08560869577923" fill="none" instance-id="-1" semantic-id="1" stroke="rgb(178,178,0)" stroke-width="0.1"/>
  <path d="M 96.49357950000007,83.35292249999998 L 100.00000000000006,63.760203600835695" fill="none" instance-id="-1" semantic-id="1" stroke="rgb(178,178,0)" stroke-width="0.1"/>
  <path d="M 92.49791970567168,100.0 L 95.33257950000001,84.1609225" fill="none" instance-id="-1" semantic-id="1" stroke="rgb(178,178,0)" stroke-width="0.1"/>
  <path d="M 93.51426046786554,100.0 L 96.31757950000002,84.33692249999999" fill="none" instance-id="-1" semantic-id="1" stroke="rgb(178,178,0)" stroke-width="0.1"/>
  <path d="M 100.00000000000006,47.40823081171689 L 98.89857950000004,47.21092249999998" fill="none" instance-id="-1" semantic-id="1" stroke="rgb(178,178,0)" stroke-width="0.1"/>
  <path d="M 99.25057950000001,45.24292249999999 L 98.89857950000004,47.21092249999998" fill="none" instance-id="-1" semantic-id="1" stroke="rgb(178,178,0)" stroke-width="0.1"/>
  <path d="M 87.4385795,43.12792249999998 L 87.08557950000005,45.09692249999998" fill="none" instance-id="-1" semantic-id="1" stroke="rgb(178,178,0)" stroke-width="0.1"/>
  <path d="M 100.00000000000006,24.0436506264285 L 91.13757949999996,22.45692249999999" fill="none" instance-id="-1" semantic-id="1" stroke="rgb(178,178,0)" stroke-width="0.1"/>
  <path d="M 100.00000000000006,23.027356883423636 L 91.31457949999998,21.47292249999998" fill="none" instance-id="-1" semantic-id="1" stroke="rgb(178,178,0)" stroke-width="0.1"/>
  <path d="M 86.08657950000003,39.330922499999986 L 66.39957950000002,35.80792249999999" fill="none" instance-id="-1" semantic-id="1" stroke="rgb(178,178,0)" stroke-width="0.1"/>
  <path d="M 86.4385795,37.362922499999996 L 66.75157949999999,33.838922499999995" fill="none" instance-id="-1" semantic-id="1" stroke="rgb(178,178,0)" stroke-width="0.1"/>
  <path d="M 83.9725795,51.143922499999974 L 74.62757949999997,49.47092249999997" fill="none" instance-id="-1" semantic-id="1" stroke="rgb(178,178,0)" stroke-width="0.1"/>
  <path d="M 84.32457949999997,49.17492249999998 L 73.99557950000002,47.32592249999999" fill="none" instance-id="-1" semantic-id="1" stroke="rgb(178,178,0)" stroke-width="0.1"/>
  <path d="M 91.28357950000003,10.292922499999975 L 71.59657950000002,6.768922499999974" fill="none" instance-id="-1" semantic-id="1" stroke="rgb(178,178,0)" stroke-width="0.1"/>
  <path d="M 91.6355795,8.32392249999998 L 71.9485795,4.800922499999984" fill="none" instance-id="-1" semantic-id="1" stroke="rgb(178,178,0)" stroke-width="0.1"/>
  <path d="M 70.01657949999998,63.88392249999998 L 72.65857950000003,49.1189225" fill="none" instance-id="-1" semantic-id="1" stroke="rgb(178,178,0)" stroke-width="0.1"/>
  <path d="M 71.98457950000005,64.23692249999999 L 74.62757949999997,49.47092249999997" fill="none" instance-id="-1" semantic-id="1" stroke="rgb(178,178,0)" stroke-width="0.1"/>
  <path d="M 72.65857950000003,49.1189225 L 64.28557949999998,47.61992249999997" fill="none" instance-id="-1" semantic-id="1" stroke="rgb(178,178,0)" stroke-width="0.1"/>
  <path d="M 73.99557950000002,47.32592249999999 L 64.63757949999996,45.65092249999998" fill="none" instance-id="-1" semantic-id="1" stroke="rgb(178,178,0)" stroke-width="0.1"/>
  <path d="M 86.4385795,37.362922499999996 L 89.1695795,22.104922499999986" fill="none" instance-id="-1" semantic-id="1" stroke="rgb(178,178,0)" stroke-width="0.1"/>
  <path d="M 88.23157950000001,38.69892249999998 L 91.13757949999996,22.45692249999999" fill="none" instance-id="-1" semantic-id="1" stroke="rgb(178,178,0)" stroke-width="0.1"/>
  <path d="M 64.60657950000001,34.47092249999997 L 69.80357950000001,5.432922499999989" fill="none" instance-id="-1" semantic-id="1" stroke="rgb(178,178,0)" stroke-width="0.1"/>
  <path d="M 66.75157949999999,33.838922499999995 L 71.59657950000002,6.768922499999974" fill="none" instance-id="-1" semantic-id="1" stroke="rgb(178,178,0)" stroke-width="0.1"/>
  <path d="M 84.32457949999997,49.17492249999998 L 85.29357950000002,43.75992249999999" fill="none" instance-id="-1" semantic-id="1" stroke="rgb(178,178,0)" stroke-width="0.1"/>
  <path d="M 86.1165795,50.5119225 L 87.08557950000005,45.09692249999998" fill="none" instance-id="-1" semantic-id="1" stroke="rgb(178,178,0)" stroke-width="0.1"/>
  <path d="M 91.6355795,8.32392249999998 L 93.12570121456218,0.0" fill="none" instance-id="-1" semantic-id="1" stroke="rgb(178,178,0)" stroke-width="0.1"/>
  <path d="M 93.42857950000001,9.660922499999998 L 95.15734259554455,0.0" fill="none" instance-id="-1" semantic-id="1" stroke="rgb(178,178,0)" stroke-width="0.1"/>
  <path d="M 70.64857950000004,66.0289225 L 61.2895795,64.35392249999998" fill="none" instance-id="-1" semantic-id="1" stroke="rgb(178,178,0)" stroke-width="0.1"/>
  <path d="M 70.01657949999998,63.88392249999998 L 61.64257950000007,62.38592249999999" fill="none" instance-id="-1" semantic-id="1" stroke="rgb(178,178,0)" stroke-width="0.1"/>
  <path d="M 62.49257949999998,46.282922499999984 L 64.60657950000001,34.47092249999997" fill="none" instance-id="-1" semantic-id="1" stroke="rgb(178,178,0)" stroke-width="0.1"/>
  <path d="M 64.63757949999996,45.65092249999998 L 66.39957950000002,35.80792249999999" fill="none" instance-id="-1" semantic-id="1" stroke="rgb(178,178,0)" stroke-width="0.1"/>
  <path d="M 69.80357950000001,5.432922499999989 L 70.77594808952296,0.0" fill="none" instance-id="-1" semantic-id="1" stroke="rgb(178,178,0)" stroke-width="0.1"/>
  <path d="M 71.9485795,4.800922499999984 L 72.80788065866074,0.0" fill="none" instance-id="-1" semantic-id="1" stroke="rgb(178,178,0)" stroke-width="0.1"/>
  <path d="M 62.35857949999996,30.004922499999992 L 67.72859673818135,0.0" fill="none" instance-id="-1" semantic-id="1" stroke="rgb(178,178,0)" stroke-width="0.1"/>
  <path d="M 64.15057949999999,31.34192249999998 L 69.76059111150317,0.0" fill="none" instance-id="-1" semantic-id="1" stroke="rgb(178,178,0)" stroke-width="0.1"/>
  <path d="M 32.15857950000003,25.615922499999982 L 30.132579499999963,36.935922499999975" fill="none" instance-id="-1" semantic-id="1" stroke="rgb(178,178,0)" stroke-width="0.1"/>
  <path d="M 30.132579499999963,36.935922499999975 L 32.101579500000014,37.288922499999984" fill="none" instance-id="-1" semantic-id="1" stroke="rgb(178,178,0)" stroke-width="0.1"/>
  <path d="M 32.101579500000014,37.288922499999984 L 33.95157950000004,26.95292249999997" fill="none" instance-id="-1" semantic-id="1" stroke="rgb(178,178,0)" stroke-width="0.1"/>
  <path d="M 25.671579500000007,73.21792249999999 L 29.81157950000005,50.084922499999976" fill="none" instance-id="-1" semantic-id="1" stroke="rgb(178,178,0)" stroke-width="0.1"/>
  <path d="M 29.81157950000005,50.084922499999976 L 27.8425795,49.73292249999997" fill="none" instance-id="-1" semantic-id="1" stroke="rgb(178,178,0)" stroke-width="0.1"/>
  <path d="M 27.8425795,49.73292249999997 L 23.702579500000013,72.86592249999998" fill="none" instance-id="-1" semantic-id="1" stroke="rgb(178,178,0)" stroke-width="0.1"/>
 </g>
 <g id="layerWINDOW" inkscape:groupmode="layer" inkscape:label="WINDOW">
  <path d="M 87.08557950000005,45.09692249999998 L 98.89857950000004,47.21092249999998" fill="none" stroke="rgb(0,178,0)" stroke-width="0.1"/>
  <path d="M 99.25057950000001,45.24292249999999 L 87.4385795,43.12792249999998" fill="none" stroke="rgb(0,178,0)" stroke-width="0.1"/>
  <path d="M 99.25057950000001,45.24292249999999 L 87.4385795,43.12792249999998" fill="none" stroke="rgb(0,178,0)" stroke-width="0.1"/>
  <path d="M 36.12857950000006,18.134922499999988 L 37.27357950000004,11.736922499999991" fill="none" instance-id="26" semantic-id="5" stroke="rgb(0,178,0)" stroke-width="0.1"/>
  <path d="M 35.92357950000002,18.09792249999998 L 37.0685795,11.699922499999985" fill="none" instance-id="26" semantic-id="5" stroke="rgb(0,178,0)" stroke-width="0.1"/>
  <path d="M 38.57157950000004,4.484922499999982 L 38.3665795,4.447922499999976" fill="none" instance-id="26" semantic-id="5" stroke="rgb(0,178,0)" stroke-width="0.1"/>
  <path d="M 36.12857950000006,18.134922499999988 L 35.92357950000002,18.09792249999998" fill="none" instance-id="26" semantic-id="5" stroke="rgb(0,178,0)" stroke-width="0.1"/>
  <path d="M 37.42657950000006,10.883922499999983 L 37.22057950000004,10.846922499999977" fill="none" instance-id="26" semantic-id="5" stroke="rgb(0,178,0)" stroke-width="0.1"/>
  <path d="M 37.22057950000004,10.846922499999977 L 38.3665795,4.447922499999976" fill="none" instance-id="26" semantic-id="5" stroke="rgb(0,178,0)" stroke-width="0.1"/>
  <path d="M 37.42657950000006,10.883922499999983 L 38.57157950000004,4.484922499999982" fill="none" instance-id="26" semantic-id="5" stroke="rgb(0,178,0)" stroke-width="0.1"/>
  <path d="M 37.27357950000004,11.736922499999991 L 37.0685795,11.699922499999985" fill="none" instance-id="26" semantic-id="5" stroke="rgb(0,178,0)" stroke-width="0.1"/>
  <path d="M 35.62457950000004,17.604922499999986 L 37.9145795,4.807922499999989" fill="none" instance-id="26" semantic-id="5" stroke="rgb(0,178,0)" stroke-width="0.1"/>
  <path d="M 30.31557950000007,50.61592249999998 L 31.46057950000005,44.217922499999986" fill="none" instance-id="27" semantic-id="5" stroke="rgb(0,178,0)" stroke-width="0.1"/>
  <path d="M 30.109579500000052,50.578922499999976 L 31.254579500000034,44.18092249999998" fill="none" instance-id="27" semantic-id="5" stroke="rgb(0,178,0)" stroke-width="0.1"/>
  <path d="M 32.75857950000005,36.96592249999998 L 32.552579500000036,36.92892249999997" fill="none" instance-id="27" semantic-id="5" stroke="rgb(0,178,0)" stroke-width="0.1"/>
  <path d="M 30.31557950000007,50.61592249999998 L 30.109579500000052,50.578922499999976" fill="none" instance-id="27" semantic-id="5" stroke="rgb(0,178,0)" stroke-width="0.1"/>
  <path d="M 31.61357950000007,43.36392249999997 L 31.407579500000054,43.32792249999997" fill="none" instance-id="27" semantic-id="5" stroke="rgb(0,178,0)" stroke-width="0.1"/>
  <path d="M 31.407579500000054,43.32792249999997 L 32.552579500000036,36.92892249999997" fill="none" instance-id="27" semantic-id="5" stroke="rgb(0,178,0)" stroke-width="0.1"/>
  <path d="M 31.61357950000007,43.36392249999997 L 32.75857950000005,36.96592249999998" fill="none" instance-id="27" semantic-id="5" stroke="rgb(0,178,0)" stroke-width="0.1"/>
  <path d="M 31.46057950000005,44.217922499999986 L 31.254579500000034,44.18092249999998" fill="none" instance-id="27" semantic-id="5" stroke="rgb(0,178,0)" stroke-width="0.1"/>
  <path d="M 29.81157950000005,50.084922499999976 L 32.101579500000014,37.288922499999984" fill="none" instance-id="27" semantic-id="5" stroke="rgb(0,178,0)" stroke-width="0.1"/>
 </g>
 <g id="layerWINDOW_TEXT" inkscape:groupmode="layer" inkscape:label="WINDOW_TEXT">
  <text fill="rgb(178,0,178)" font-family="Noto Sans CJK SC" font-size="2" transform="rotate(-79.8529,84.9385795,99.03192250000001)" x="84.9385795" y="99.03192250000001">
   WM0923
  </text>
 </g>
 <g id="layerm-建筑面积" inkscape:groupmode="layer" inkscape:label="m-建筑面积">
  <text fill="rgb(0,0,178)" font-family="Noto Sans CJK SC" font-size="2" transform="rotate(-349.9,3.6595795000000066,6.480922499999991)" x="3.6595795000000066" y="6.480922499999991">
   S=34m
  </text>
  <text fill="rgb(0,0,178)" font-family="Noto Sans CJK SC" font-size="2" transform="rotate(-349.9,21.24957950000004,6.947922499999976)" x="21.24957950000004" y="6.947922499999976">
   2
  </text>
 </g>
 <g id="layerm-洞口" inkscape:groupmode="layer" inkscape:label="m-洞口">
  <path d="M 36.764579500000025,25.42492249999998 L 62.35857949999996,30.004922499999992" fill="none" stroke="rgb(160,107,53)" stroke-width="0.1"/>
  <path d="M 62.35857949999996,30.004922499999992 L 67.72927871989197,0.0" fill="none" stroke="rgb(160,107,53)" stroke-width="0.1"/>
  <path d="M 41.315486486564,0.0 L 36.764579500000025,25.42492249999998" fill="none" stroke="rgb(160,107,53)" stroke-width="0.1"/>
  <path d="M 30.951579500000037,57.90892249999999 L 56.5445795,62.48892249999997" fill="none" stroke="rgb(160,107,53)" stroke-width="0.1"/>
  <path d="M 56.5445795,62.48892249999997 L 62.00557950000001,31.973922499999986" fill="none" stroke="rgb(160,107,53)" stroke-width="0.1"/>
  <path d="M 62.00557950000001,31.973922499999986 L 36.413579500000026,27.393922499999974" fill="none" stroke="rgb(160,107,53)" stroke-width="0.1"/>
  <path d="M 36.413579500000026,27.393922499999974 L 30.951579500000037,57.90892249999999" fill="none" stroke="rgb(160,107,53)" stroke-width="0.1"/>
  <path d="M 37.97457950000006,75.41992249999998 L 28.13057950000001,73.65792249999998" fill="none" stroke="rgb(160,107,53)" stroke-width="0.1"/>
  <path d="M 28.13057950000001,73.65792249999998 L 30.0685795,62.82992249999998" fill="none" stroke="rgb(160,107,53)" stroke-width="0.1"/>
  <path d="M 30.0685795,62.82992249999998 L 39.91257950000005,64.59192249999998" fill="none" stroke="rgb(160,107,53)" stroke-width="0.1"/>
  <path d="M 39.91257950000005,64.59192249999998 L 37.97457950000006,75.41992249999998" fill="none" stroke="rgb(160,107,53)" stroke-width="0.1"/>
  <path d="M 39.9435795,75.77192249999999 L 53.72557950000004,78.23892249999997" fill="none" stroke="rgb(160,107,53)" stroke-width="0.1"/>
  <path d="M 53.72557950000004,78.23892249999997 L 55.663579500000026,67.4099225" fill="none" stroke="rgb(160,107,53)" stroke-width="0.1"/>
  <path d="M 55.663579500000026,67.4099225 L 41.88157949999999,64.94292249999998" fill="none" stroke="rgb(160,107,53)" stroke-width="0.1"/>
  <path d="M 41.88157949999999,64.94292249999998 L 39.9435795,75.77192249999999" fill="none" stroke="rgb(160,107,53)" stroke-width="0.1"/>
  <path d="M 28.13057950000001,73.65792249999998 L 30.83257950000001,64.69092249999997" fill="none" stroke="rgb(160,107,53)" stroke-width="0.1"/>
  <path d="M 30.83257950000001,64.69092249999997 L 39.91257950000005,64.59192249999998" fill="none" stroke="rgb(160,107,53)" stroke-width="0.1"/>
  <path d="M 39.9435795,75.77192249999999 L 43.74757949999997,66.3689225" fill="none" stroke="rgb(160,107,53)" stroke-width="0.1"/>
  <path d="M 43.74757949999997,66.3689225 L 55.663579500000026,67.4099225" fill="none" stroke="rgb(160,107,53)" stroke-width="0.1"/>
 </g>
</svg>