<?xml version="1.0" encoding="utf-8"?>
<svg style="background-color: #000;" version="1.1" viewBox="0 0 100.0 100.0" xmlns="http://www.w3.org/2000/svg" xmlns:inkscape="http://www.inkscape.org/namespaces/inkscape">
 <g id="layer0" inkscape:groupmode="layer" inkscape:label="0">
  <path d="M 99.46325349999995,76.04540400000008 L 100.0,75.83246664456703" fill="none" stroke="rgb(0,178,178)" stroke-width="0.1"/>
  <path d="M 100.0,67.22614658001612 L 96.51325350000002,68.60940400000004" fill="none" stroke="rgb(0,178,178)" stroke-width="0.1"/>
  <path d="M 96.51325350000002,68.60940400000004 L 99.46325349999995,76.04540400000008" fill="none" stroke="rgb(0,178,178)" stroke-width="0.1"/>
  <path d="M 92.02725350000003,78.99540400000001 L 99.46325349999995,76.04540400000008" fill="none" stroke="rgb(0,178,178)" stroke-width="0.1"/>
  <path d="M 99.46325349999995,76.04540400000008 L 96.51325350000002,68.60940400000004" fill="none" stroke="rgb(0,178,178)" stroke-width="0.1"/>
  <path d="M 96.51325350000002,68.60940400000004 L 89.07725349999998,71.55940400000009" fill="none" stroke="rgb(0,178,178)" stroke-width="0.1"/>
  <path d="M 89.07725349999998,71.55940400000009 L 92.02725350000003,78.99540400000001" fill="none" stroke="rgb(0,178,178)" stroke-width="0.1"/>
  <path d="M 84.5912535,81.94640400000003 L 92.02725350000003,78.99540400000001" fill="none" stroke="rgb(0,178,178)" stroke-width="0.1"/>
  <path d="M 92.02725350000003,78.99540400000001 L 89.07725349999998,71.55940400000009" fill="none" stroke="rgb(0,178,178)" stroke-width="0.1"/>
  <path d="M 89.07725349999998,71.55940400000009 L 81.64125349999995,74.50940400000002" fill="none" stroke="rgb(0,178,178)" stroke-width="0.1"/>
  <path d="M 81.64125349999995,74.50940400000002 L 84.5912535,81.94640400000003" fill="none" stroke="rgb(0,178,178)" stroke-width="0.1"/>
  <path d="M 77.15525349999996,84.89640400000008 L 84.5912535,81.94640400000003" fill="none" stroke="rgb(0,178,178)" stroke-width="0.1"/>
  <path d="M 84.5912535,81.94640400000003 L 81.64125349999995,74.50940400000002" fill="none" stroke="rgb(0,178,178)" stroke-width="0.1"/>
  <path d="M 81.64125349999995,74.50940400000002 L 74.20525350000003,77.46040400000004" fill="none" stroke="rgb(0,178,178)" stroke-width="0.1"/>
  <path d="M 74.20525350000003,77.46040400000004 L 77.15525349999996,84.89640400000008" fill="none" stroke="rgb(0,178,178)" stroke-width="0.1"/>
  <path d="M 69.71825349999995,87.846404 L 77.15525349999996,84.89640400000008" fill="none" stroke="rgb(0,178,178)" stroke-width="0.1"/>
  <path d="M 77.15525349999996,84.89640400000008 L 74.20525350000003,77.46040400000004" fill="none" stroke="rgb(0,178,178)" stroke-width="0.1"/>
  <path d="M 74.20525350000003,77.46040400000004 L 66.76825350000001,80.41040400000009" fill="none" stroke="rgb(0,178,178)" stroke-width="0.1"/>
  <path d="M 66.76825350000001,80.41040400000009 L 69.71825349999995,87.846404" fill="none" stroke="rgb(0,178,178)" stroke-width="0.1"/>
  <path d="M 62.282253500000024,90.79640400000005 L 69.71825349999995,87.846404" fill="none" stroke="rgb(0,178,178)" stroke-width="0.1"/>
  <path d="M 69.71825349999995,87.846404 L 66.76825350000001,80.41040400000009" fill="none" stroke="rgb(0,178,178)" stroke-width="0.1"/>
  <path d="M 66.76825350000001,80.41040400000009 L 59.33225349999998,83.36040400000002" fill="none" stroke="rgb(0,178,178)" stroke-width="0.1"/>
  <path d="M 59.33225349999998,83.36040400000002 L 62.282253500000024,90.79640400000005" fill="none" stroke="rgb(0,178,178)" stroke-width="0.1"/>
  <path d="M 54.84625349999999,93.7464040000001 L 62.282253500000024,90.79640400000005" fill="none" stroke="rgb(0,178,178)" stroke-width="0.1"/>
  <path d="M 62.282253500000024,90.79640400000005 L 59.33225349999998,83.36040400000002" fill="none" stroke="rgb(0,178,178)" stroke-width="0.1"/>
  <path d="M 59.33225349999998,83.36040400000002 L 51.89625349999994,86.31040400000006" fill="none" stroke="rgb(0,178,178)" stroke-width="0.1"/>
  <path d="M 51.89625349999994,86.31040400000006 L 54.84625349999999,93.7464040000001" fill="none" stroke="rgb(0,178,178)" stroke-width="0.1"/>
  <text fill="rgb(0,0,0)" font-family="Noto Sans CJK SC" font-size="2" transform="rotate(-21.6395,99.96825349999995,71.2414040000001)" x="99.96825349999995" y="71.2414040000001">
   舞台机械电气柜4
  </text>
  <text fill="rgb(0,0,0)" font-family="Noto Sans CJK SC" font-size="2" transform="rotate(-21.6395,92.56625350000002,74.17740400000002)" x="92.56625350000002" y="74.17740400000002">
   舞台机械电气柜5
  </text>
  <text fill="rgb(0,0,0)" font-family="Noto Sans CJK SC" font-size="2" transform="rotate(-21.6395,85.13125349999996,77.12740400000007)" x="85.13125349999996" y="77.12740400000007">
   舞台机械电气柜6
  </text>
  <text fill="rgb(0,0,0)" font-family="Noto Sans CJK SC" font-size="2" transform="rotate(-21.6395,77.69525349999992,80.077404)" x="77.69525349999992" y="80.077404">
   舞台机械电气柜7
  </text>
  <text fill="rgb(0,0,0)" font-family="Noto Sans CJK SC" font-size="2" transform="rotate(-21.6395,70.2592535,83.02740400000005)" x="70.2592535" y="83.02740400000005">
   舞台机械电气柜8
  </text>
  <text fill="rgb(0,0,0)" font-family="Noto Sans CJK SC" font-size="2" transform="rotate(-21.6395,62.85825349999993,85.96340400000008)" x="62.85825349999993" y="85.96340400000008">
   舞台机械电气柜9
  </text>
  <text fill="rgb(0,0,0)" font-family="Noto Sans CJK SC" font-size="2" transform="rotate(-21.6395,56.09425349999992,88.64740400000005)" x="56.09425349999992" y="88.64740400000005">
   舞台机械电气柜
  </text>
  <text fill="rgb(0,0,0)" font-family="Noto Sans CJK SC" font-size="2" transform="rotate(-21.6395,59.75325350000003,88.98840400000006)" x="59.75325350000003" y="88.98840400000006">
   10
  </text>
 </g>
 <g id="layer0-结构边线" inkscape:groupmode="layer" inkscape:label="0-结构边线">
  <path d="M 18.83425349999993,89.74440400000003 L 26.270253499999967,86.7944040000001" fill="none" stroke="rgb(178,0,178)" stroke-width="0.1"/>
  <path d="M 26.270253499999967,86.7944040000001 L 23.32025349999992,79.35840400000006" fill="none" stroke="rgb(178,0,178)" stroke-width="0.1"/>
  <path d="M 15.883253500000023,82.308404 L 23.32025349999992,79.35840400000006" fill="none" stroke="rgb(178,0,178)" stroke-width="0.1"/>
  <path d="M 18.83425349999993,89.74440400000003 L 15.883253500000023,82.308404" fill="none" stroke="rgb(178,0,178)" stroke-width="0.1"/>
  <path d="M 3.346253499999989,50.70440400000007 L 10.782253500000024,47.75440400000002" fill="none" stroke="rgb(178,0,178)" stroke-width="0.1"/>
  <path d="M 10.782253500000024,47.75440400000002 L 7.832253499999979,40.3184040000001" fill="none" stroke="rgb(178,0,178)" stroke-width="0.1"/>
  <path d="M 0.39525349999996706,43.26840400000003 L 7.832253499999979,40.3184040000001" fill="none" stroke="rgb(178,0,178)" stroke-width="0.1"/>
  <path d="M 3.346253499999989,50.70440400000007 L 0.39525349999996706,43.26840400000003" fill="none" stroke="rgb(178,0,178)" stroke-width="0.1"/>
 </g>
 <g id="layer00 细线" inkscape:groupmode="layer" inkscape:label="00 细线">
  <path d="M 37.26325350000002,73.82640400000003 L 34.681253500000025,67.32040400000005" fill="none" instance-id="1" semantic-id="30" stroke="rgb(0,178,0)" stroke-width="0.1"/>
  <path d="M 34.681253500000025,67.32040400000005 L 82.08725349999997,48.51340400000004" fill="none" instance-id="1" semantic-id="30" stroke="rgb(0,178,0)" stroke-width="0.1"/>
  <path d="M 82.08725349999997,48.51340400000004 L 84.66825349999999,55.01940400000001" fill="none" instance-id="1" semantic-id="30" stroke="rgb(0,178,0)" stroke-width="0.1"/>
  <path d="M 34.607253499999956,67.13440400000002 L 34.49725349999994,66.85540400000002" fill="none" instance-id="1" semantic-id="30" stroke="rgb(0,178,0)" stroke-width="0.1"/>
  <path d="M 34.49725349999994,66.85540400000002 L 82.83225349999998,47.67940400000009" fill="none" instance-id="1" semantic-id="30" stroke="rgb(0,178,0)" stroke-width="0.1"/>
  <path d="M 82.83225349999998,47.67940400000009 L 83.01625349999995,48.14440400000001" fill="none" instance-id="1" semantic-id="30" stroke="rgb(0,178,0)" stroke-width="0.1"/>
  <path d="M 83.01625349999995,48.14440400000001 L 82.08725349999997,48.51340400000004" fill="none" instance-id="1" semantic-id="30" stroke="rgb(0,178,0)" stroke-width="0.1"/>
  <path d="M 84.66825349999999,55.01940400000001 L 82.08725349999997,48.51340400000004" fill="none" instance-id="1" semantic-id="30" stroke="rgb(0,178,0)" stroke-width="0.1"/>
  <path d="M 81.88025349999998,56.12640400000009 L 79.29825349999999,49.61940400000003" fill="none" instance-id="1" semantic-id="30" stroke="rgb(0,178,0)" stroke-width="0.1"/>
  <path d="M 79.0912535,57.23240400000009 L 76.51025349999998,50.725404000000026" fill="none" instance-id="1" semantic-id="30" stroke="rgb(0,178,0)" stroke-width="0.1"/>
  <path d="M 76.30325349999998,58.33840400000008 L 73.72125349999999,51.832404" fill="none" instance-id="1" semantic-id="30" stroke="rgb(0,178,0)" stroke-width="0.1"/>
  <path d="M 73.5142535,59.44540400000005 L 70.93325349999998,52.93840399999999" fill="none" instance-id="1" semantic-id="30" stroke="rgb(0,178,0)" stroke-width="0.1"/>
  <path d="M 70.72525350000001,60.55140400000005 L 68.14425349999999,54.0444040000001" fill="none" instance-id="1" semantic-id="30" stroke="rgb(0,178,0)" stroke-width="0.1"/>
  <path d="M 67.9372535,61.65740400000004 L 65.3552535,55.150404000000094" fill="none" instance-id="1" semantic-id="30" stroke="rgb(0,178,0)" stroke-width="0.1"/>
  <path d="M 65.14825350000001,62.76340400000004 L 62.56725349999999,56.257404000000065" fill="none" instance-id="1" semantic-id="30" stroke="rgb(0,178,0)" stroke-width="0.1"/>
  <path d="M 62.3602535,63.87040400000001 L 59.778253500000005,57.36340400000006" fill="none" instance-id="1" semantic-id="30" stroke="rgb(0,178,0)" stroke-width="0.1"/>
  <path d="M 59.57125350000001,64.976404 L 56.990253499999994,58.469404000000054" fill="none" instance-id="1" semantic-id="30" stroke="rgb(0,178,0)" stroke-width="0.1"/>
  <path d="M 56.7832535,66.082404 L 54.20125350000001,59.576404000000025" fill="none" instance-id="1" semantic-id="30" stroke="rgb(0,178,0)" stroke-width="0.1"/>
  <path d="M 53.99425350000001,67.18940400000008 L 51.413253499999996,60.68240400000002" fill="none" instance-id="1" semantic-id="30" stroke="rgb(0,178,0)" stroke-width="0.1"/>
  <path d="M 51.205253500000026,68.29540400000008 L 48.62425350000001,61.788404000000014" fill="none" instance-id="1" semantic-id="30" stroke="rgb(0,178,0)" stroke-width="0.1"/>
  <path d="M 48.417253500000015,69.40140400000007 L 45.8362535,62.8954040000001" fill="none" instance-id="1" semantic-id="30" stroke="rgb(0,178,0)" stroke-width="0.1"/>
  <path d="M 45.62825350000003,70.50740400000007 L 43.04725350000001,64.0014040000001" fill="none" instance-id="1" semantic-id="30" stroke="rgb(0,178,0)" stroke-width="0.1"/>
  <path d="M 42.84025350000002,71.61440400000004 L 40.25825350000002,65.10740400000009" fill="none" instance-id="1" semantic-id="30" stroke="rgb(0,178,0)" stroke-width="0.1"/>
  <path d="M 40.05125350000003,72.72040400000003 L 37.47025350000001,66.21340400000008" fill="none" instance-id="1" semantic-id="30" stroke="rgb(0,178,0)" stroke-width="0.1"/>
 </g>
 <g id="layer00 舞台工艺" inkscape:groupmode="layer" inkscape:label="00 舞台工艺">
  <path d="M 9.049772221234889,0.0 L 32.66125349999993,59.51540399999999" fill="none" stroke="rgb(178,0,0)" stroke-width="0.1"/>
  <path d="M 32.66125349999993,59.51540399999999 L 100.0,32.80016574300976" fill="none" stroke="rgb(178,0,0)" stroke-width="0.1"/>
  <path d="M 8.511511187240899,0.0 L 32.38025349999998,60.16440399999999" fill="none" stroke="rgb(178,0,0)" stroke-width="0.1"/>
  <path d="M 32.38025349999998,60.16440399999999 L 100.0,33.338030749587574" fill="none" stroke="rgb(178,0,0)" stroke-width="0.1"/>
 </g>
 <g id="layerCOLUMN" inkscape:groupmode="layer" inkscape:label="COLUMN">
  <path d="M 18.83425349999993,89.74440400000003 L 26.270253499999967,86.7944040000001" fill="none" stroke="rgb(178,178,0)" stroke-width="0.1"/>
  <path d="M 26.270253499999967,86.7944040000001 L 23.32025349999992,79.35840400000006" fill="none" stroke="rgb(178,178,0)" stroke-width="0.1"/>
  <path d="M 23.32025349999992,79.35840400000006 L 15.883253500000023,82.308404" fill="none" stroke="rgb(178,178,0)" stroke-width="0.1"/>
  <path d="M 15.883253500000023,82.308404 L 18.83425349999993,89.74440400000003" fill="none" stroke="rgb(178,178,0)" stroke-width="0.1"/>
  <path d="M 3.346253499999989,50.70440400000007 L 10.782253500000024,47.75440400000002" fill="none" stroke="rgb(178,178,0)" stroke-width="0.1"/>
  <path d="M 10.782253500000024,47.75440400000002 L 7.832253499999979,40.3184040000001" fill="none" stroke="rgb(178,178,0)" stroke-width="0.1"/>
  <path d="M 7.832253499999979,40.3184040000001 L 0.39525349999996706,43.26840400000003" fill="none" stroke="rgb(178,178,0)" stroke-width="0.1"/>
  <path d="M 0.39525349999996706,43.26840400000003 L 3.346253499999989,50.70440400000007" fill="none" stroke="rgb(178,178,0)" stroke-width="0.1"/>
 </g>
 <g id="layerM-INFO-ROOM-JZTZ" inkscape:groupmode="layer" inkscape:label="M-INFO-ROOM-JZTZ">
  <path d="M 0.0,62.7897022257863 L 7.0532534999999825,59.9914040000001" fill="none" stroke="rgb(178,0,0)" stroke-width="0.1"/>
  <path d="M 7.0532534999999825,59.9914040000001 L 3.3662534999999707,50.69640400000003" fill="none" stroke="rgb(178,0,0)" stroke-width="0.1"/>
  <path d="M 3.3662534999999707,50.69640400000003 L 0.0,52.03192684723592" fill="none" stroke="rgb(178,0,0)" stroke-width="0.1"/>
  <path d="M 0.0,64.94201321498088 L 9.650253499999963,61.11340400000006" fill="none" stroke="rgb(178,0,0)" stroke-width="0.1"/>
  <path d="M 9.650253499999963,61.11340400000006 L 4.487253499999952,48.100404000000026" fill="none" stroke="rgb(178,0,0)" stroke-width="0.1"/>
  <path d="M 4.487253499999952,48.100404000000026 L 0.0,49.880541285368736" fill="none" stroke="rgb(178,0,0)" stroke-width="0.1"/>
  <path d="M 0.0,42.26974406267959 L 0.3962534999999434,43.26840400000003" fill="none" stroke="rgb(178,0,0)" stroke-width="0.1"/>
  <path d="M 0.3962534999999434,43.26840400000003 L 0.0,43.42560915526508" fill="none" stroke="rgb(178,0,0)" stroke-width="0.1"/>
  <path d="M 0.0,36.847120550987256 L 2.992253499999947,44.39040399999999" fill="none" stroke="rgb(178,0,0)" stroke-width="0.1"/>
  <path d="M 2.992253499999947,44.39040399999999 L 0.0,45.577511507254485" fill="none" stroke="rgb(178,0,0)" stroke-width="0.1"/>
  <path d="M 0.0,52.25890324488046 L 3.3582534999999325,50.677404000000024" fill="none" stroke="rgb(178,0,0)" stroke-width="0.1"/>
 </g>
 <g id="layerPUB_HATCH" inkscape:groupmode="layer" inkscape:label="PUB_HATCH">
  <path d="M 10.794253499999968,47.726404 L 3.3582534999999325,50.677404000000024" fill="none" stroke="rgb(63,63,63)" stroke-width="0.1"/>
  <path d="M 3.3582534999999325,50.677404000000024 L 15.904253499999982,82.30040400000007" fill="none" stroke="rgb(63,63,63)" stroke-width="0.1"/>
  <path d="M 15.904253499999982,82.30040400000007 L 23.32025349999992,79.35840400000006" fill="none" stroke="rgb(63,63,63)" stroke-width="0.1"/>
  <path d="M 23.32025349999992,79.35840400000006 L 10.794253499999968,47.726404" fill="none" stroke="rgb(63,63,63)" stroke-width="0.1"/>
 </g>
 <g id="layerPUB_TEXT" inkscape:groupmode="layer" inkscape:label="PUB_TEXT">
  <text fill="rgb(0,0,0)" font-family="Noto Sans CJK SC" font-size="2" transform="rotate(-21.64,67.87425350000001,98.79340400000001)" x="67.87425350000001" y="98.79340400000001">
   舞台机械电器柜室
  </text>
 </g>
 <g id="layerS-WALL-LINE" inkscape:groupmode="layer" inkscape:label="S-WALL-LINE">
  <path d="M 23.32025349999992,79.35840400000006 L 15.904253499999982,82.30040400000007" fill="none" stroke="rgb(178,178,0)" stroke-width="0.1"/>
  <path d="M 15.904253499999982,82.30040400000007 L 3.3582534999999325,50.677404000000024" fill="none" stroke="rgb(178,178,0)" stroke-width="0.1"/>
  <path d="M 3.3582534999999325,50.677404000000024 L 10.794253499999968,47.726404" fill="none" stroke="rgb(178,178,0)" stroke-width="0.1"/>
  <path d="M 10.794253499999968,47.726404 L 23.32025349999992,79.35840400000006" fill="none" stroke="rgb(178,178,0)" stroke-width="0.1"/>
  <path d="M 3.346253499999989,50.70440400000007 L 14.777253500000029,79.51940400000001" fill="none" stroke="rgb(178,178,0)" stroke-width="0.1"/>
  <path d="M 14.777253500000029,79.51940400000001 L 22.21325349999995,76.56940400000008" fill="none" stroke="rgb(178,178,0)" stroke-width="0.1"/>
  <path d="M 22.21325349999995,76.56940400000008 L 10.782253500000024,47.75440400000002" fill="none" stroke="rgb(178,178,0)" stroke-width="0.1"/>
  <path d="M 10.782253500000024,47.75440400000002 L 3.346253499999989,50.70440400000007" fill="none" stroke="rgb(178,178,0)" stroke-width="0.1"/>
 </g>
 <g id="layerWALL" inkscape:groupmode="layer" inkscape:label="WALL">
  <path d="M 18.67225350000001,81.202404 L 10.559253499999954,60.75240400000007" fill="none" instance-id="-1" semantic-id="1" stroke="rgb(178,178,0)" stroke-width="0.1"/>
  <path d="M 20.531253499999934,80.46440400000006 L 11.681253500000025,58.156404000000066" fill="none" instance-id="-1" semantic-id="1" stroke="rgb(178,178,0)" stroke-width="0.1"/>
  <path d="M 21.461253499999998,80.09540400000003 L 8.923253499999987,48.49240400000008" fill="none" instance-id="-1" semantic-id="1" stroke="rgb(178,178,0)" stroke-width="0.1"/>
  <path d="M 23.32025349999992,79.35840400000006 L 10.782253500000024,47.75440400000002" fill="none" instance-id="-1" semantic-id="1" stroke="rgb(178,178,0)" stroke-width="0.1"/>
  <path d="M 29.357553626898266,100.0 L 24.41125349999993,87.53240400000004" fill="none" instance-id="-1" semantic-id="1" stroke="rgb(178,178,0)" stroke-width="0.1"/>
  <path d="M 31.5094985232231,100.0 L 25.164253499999973,84.005404" fill="none" instance-id="-1" semantic-id="1" stroke="rgb(178,178,0)" stroke-width="0.1"/>
  <path d="M 24.42625350000003,82.14740400000005 L 100.0,52.165015197024786" fill="none" instance-id="-1" semantic-id="1" stroke="rgb(178,178,0)" stroke-width="0.1"/>
  <path d="M 25.164253499999973,84.005404 L 100.0,54.31633111041299" fill="none" instance-id="-1" semantic-id="1" stroke="rgb(178,178,0)" stroke-width="0.1"/>
  <path d="M 26.129767517663595,100.0 L 21.622253499999943,88.63840400000004" fill="none" instance-id="-1" semantic-id="1" stroke="rgb(178,178,0)" stroke-width="0.1"/>
  <path d="M 28.281435981160826,100.0 L 23.48125349999998,87.9004040000001" fill="none" instance-id="-1" semantic-id="1" stroke="rgb(178,178,0)" stroke-width="0.1"/>
  <path d="M 10.559253499999954,60.75240400000007 L 0.0,64.941748343217" fill="none" instance-id="-1" semantic-id="1" stroke="rgb(178,178,0)" stroke-width="0.1"/>
  <path d="M 11.681253500000025,58.156404000000066 L 0.0,62.79046953662987" fill="none" instance-id="-1" semantic-id="1" stroke="rgb(178,178,0)" stroke-width="0.1"/>
  <path d="M 0.0,49.88017314762419 L 2.6082534999999325,48.84540400000003" fill="none" instance-id="-1" semantic-id="1" stroke="rgb(178,178,0)" stroke-width="0.1"/>
  <path d="M 0.0,52.031966962476076 L 3.346253499999989,50.70440400000007" fill="none" instance-id="-1" semantic-id="1" stroke="rgb(178,178,0)" stroke-width="0.1"/>
  <path d="M 0.0,28.712285641752715 L 5.043253499999992,41.424404000000095" fill="none" instance-id="-1" semantic-id="1" stroke="rgb(178,178,0)" stroke-width="0.1"/>
  <path d="M 0.0,34.136115538659965 L 3.1842534999999543,42.16240400000004" fill="none" instance-id="-1" semantic-id="1" stroke="rgb(178,178,0)" stroke-width="0.1"/>
  <path d="M 23.32025349999992,79.35840400000006 L 100.0,48.93760874983161" fill="none" instance-id="-1" semantic-id="1" stroke="rgb(178,178,0)" stroke-width="0.1"/>
  <path d="M 24.0572535,81.2174040000001 L 100.0,51.088621747173875" fill="none" instance-id="-1" semantic-id="1" stroke="rgb(178,178,0)" stroke-width="0.1"/>
  <path d="M 0.0,46.65338039701885 L 1.502253499999938,46.05740400000002" fill="none" instance-id="-1" semantic-id="1" stroke="rgb(178,178,0)" stroke-width="0.1"/>
  <path d="M 0.0,48.80477678415423 L 2.239253500000018,47.91640400000006" fill="none" instance-id="-1" semantic-id="1" stroke="rgb(178,178,0)" stroke-width="0.1"/>
  <path d="M 0.0,36.84847146831294 L 2.2542535000000044,42.531404000000066" fill="none" instance-id="-1" semantic-id="1" stroke="rgb(178,178,0)" stroke-width="0.1"/>
  <path d="M 0.0,42.271946468570604 L 0.39525349999996706,43.26840400000003" fill="none" instance-id="-1" semantic-id="1" stroke="rgb(178,178,0)" stroke-width="0.1"/>
 </g>
</svg>