<?xml version="1.0" encoding="utf-8"?>
<svg style="background-color: #000;" version="1.1" viewBox="0 0 100.0 100.0" xmlns="http://www.w3.org/2000/svg" xmlns:inkscape="http://www.inkscape.org/namespaces/inkscape">
 <g id="layerCOLUMN" inkscape:groupmode="layer" inkscape:label="COLUMN">
  <path d="M 10.575302499999992,3.4375815000000216 L 10.553687431255156,2.928745953146972" fill="none" stroke="rgb(178,178,0)" stroke-width="0.1"/>
  <path d="M 10.553687431255156,2.928745953146972 L 10.488997962086245,2.423576578068946" fill="none" stroke="rgb(178,178,0)" stroke-width="0.1"/>
  <path d="M 10.488997962086245,2.423576578068946 L 10.38170018160099,1.9257131316892924" fill="none" stroke="rgb(178,178,0)" stroke-width="0.1"/>
  <path d="M 10.38170018160099,1.9257131316892924 L 10.232567172766494,1.438742731547677" fill="none" stroke="rgb(178,178,0)" stroke-width="0.1"/>
  <path d="M 10.232567172766494,1.438742731547677 L 10.042673442328805,0.966174010536065" fill="none" stroke="rgb(178,178,0)" stroke-width="0.1"/>
  <path d="M 10.042673442328805,0.966174010536065 L 9.813387178967133,0.511411837118203" fill="none" stroke="rgb(178,178,0)" stroke-width="0.1"/>
  <path d="M 9.813387178967133,0.511411837118203 L 9.54636039546304,0.0777327831744401" fill="none" stroke="rgb(178,178,0)" stroke-width="0.1"/>
  <path d="M 0.2435659362728586,7.589214713865317 L 0.6112541596594951,7.941615331516346" fill="none" stroke="rgb(178,178,0)" stroke-width="0.1"/>
  <path d="M 0.6112541596594951,7.941615331516346 L 1.0075034421742828,8.261564282201675" fill="none" stroke="rgb(178,178,0)" stroke-width="0.1"/>
  <path d="M 1.0075034421742828,8.261564282201675 L 1.4294587986566114,8.546756326399873" fill="none" stroke="rgb(178,178,0)" stroke-width="0.1"/>
  <path d="M 1.4294587986566114,8.546756326399873 L 1.8740800310939676,8.795136648897426" fill="none" stroke="rgb(178,178,0)" stroke-width="0.1"/>
  <path d="M 1.8740800310939676,8.795136648897426 L 2.338163633318146,9.004915663779059" fill="none" stroke="rgb(178,178,0)" stroke-width="0.1"/>
  <path d="M 2.338163633318146,9.004915663779059 L 2.818365872340678,9.174581908435528" fill="none" stroke="rgb(178,178,0)" stroke-width="0.1"/>
  <path d="M 2.818365872340678,9.174581908435528 L 3.311226880025629,9.302912933686116" fill="none" stroke="rgb(178,178,0)" stroke-width="0.1"/>
  <path d="M 3.311226880025629,9.302912933686116 L 3.813195581518727,9.38898411155327" fill="none" stroke="rgb(178,178,0)" stroke-width="0.1"/>
  <path d="M 3.813195581518727,9.38898411155327 L 4.320655280823104,9.432175297228127" fill="none" stroke="rgb(178,178,0)" stroke-width="0.1"/>
  <path d="M 4.320655280823104,9.432175297228127 L 4.829949719176881,9.432175297228127" fill="none" stroke="rgb(178,178,0)" stroke-width="0.1"/>
  <path d="M 4.829949719176881,9.432175297228127 L 5.337409418481258,9.38898411155327" fill="none" stroke="rgb(178,178,0)" stroke-width="0.1"/>
  <path d="M 5.337409418481258,9.38898411155327 L 5.839378119974356,9.302912933686116" fill="none" stroke="rgb(178,178,0)" stroke-width="0.1"/>
  <path d="M 5.839378119974356,9.302912933686116 L 6.332239127659307,9.174581908435528" fill="none" stroke="rgb(178,178,0)" stroke-width="0.1"/>
  <path d="M 6.332239127659307,9.174581908435528 L 6.812441366681838,9.004915663779059" fill="none" stroke="rgb(178,178,0)" stroke-width="0.1"/>
  <path d="M 6.812441366681838,9.004915663779059 L 7.276524968906045,8.795136648897426" fill="none" stroke="rgb(178,178,0)" stroke-width="0.1"/>
  <path d="M 7.276524968906045,8.795136648897426 L 7.721146201343373,8.546756326399873" fill="none" stroke="rgb(178,178,0)" stroke-width="0.1"/>
  <path d="M 7.721146201343373,8.546756326399873 L 8.143101557825702,8.261564282201675" fill="none" stroke="rgb(178,178,0)" stroke-width="0.1"/>
  <path d="M 8.143101557825702,8.261564282201675 L 8.53935084034049,7.941615331516346" fill="none" stroke="rgb(178,178,0)" stroke-width="0.1"/>
  <path d="M 8.53935084034049,7.941615331516346 L 8.907039063727154,7.589214713865317" fill="none" stroke="rgb(178,178,0)" stroke-width="0.1"/>
  <path d="M 8.907039063727154,7.589214713865317 L 9.24351702591062,7.2069014837738905" fill="none" stroke="rgb(178,178,0)" stroke-width="0.1"/>
  <path d="M 9.24351702591062,7.2069014837738905 L 9.54636039546304,6.797430216825603" fill="none" stroke="rgb(178,178,0)" stroke-width="0.1"/>
  <path d="M 9.54636039546304,6.797430216825603 L 9.813387178967133,6.36375116288184" fill="none" stroke="rgb(178,178,0)" stroke-width="0.1"/>
  <path d="M 9.813387178967133,6.36375116288184 L 10.042673442328805,5.908988989463978" fill="none" stroke="rgb(178,178,0)" stroke-width="0.1"/>
  <path d="M 10.042673442328805,5.908988989463978 L 10.232567172766494,5.436420268452366" fill="none" stroke="rgb(178,178,0)" stroke-width="0.1"/>
  <path d="M 10.232567172766494,5.436420268452366 L 10.38170018160099,4.949449868310751" fill="none" stroke="rgb(178,178,0)" stroke-width="0.1"/>
  <path d="M 10.38170018160099,4.949449868310751 L 10.488997962086245,4.451586421931097" fill="none" stroke="rgb(178,178,0)" stroke-width="0.1"/>
  <path d="M 10.488997962086245,4.451586421931097 L 10.553687431255156,3.946417046853071" fill="none" stroke="rgb(178,178,0)" stroke-width="0.1"/>
  <path d="M 10.553687431255156,3.946417046853071 L 10.575302499999992,3.4375815000000216" fill="none" stroke="rgb(178,178,0)" stroke-width="0.1"/>
 </g>
 <g id="layerCURTWALL" inkscape:groupmode="layer" inkscape:label="CURTWALL">
  <path d="M 10.609425393548975,0.0 L 10.310302499999977,1.671581500000002" fill="none" instance-id="-1" semantic-id="2" stroke="rgb(0,178,178)" stroke-width="0.1"/>
  <path d="M 9.931308206157865,0.0 L 9.833302499999974,0.5475814999999784" fill="none" instance-id="-1" semantic-id="2" stroke="rgb(0,178,178)" stroke-width="0.1"/>
  <path d="M 11.286690783429577,0.0 L 10.482302499999975,4.494581499999981" fill="none" instance-id="-1" semantic-id="2" stroke="rgb(0,178,178)" stroke-width="0.1"/>
  <path d="M 9.341302499999983,7.082581500000003 L 3.6593024999999955,38.82958150000002" fill="none" instance-id="-1" semantic-id="2" stroke="rgb(0,178,178)" stroke-width="0.1"/>
  <path d="M 8.505302499999999,7.971581500000013 L 3.0033024999999895,38.7125815" fill="none" instance-id="-1" semantic-id="2" stroke="rgb(0,178,178)" stroke-width="0.1"/>
  <path d="M 10.482302499999975,4.494581499999981 L 4.315302500000001,38.94758150000001" fill="none" instance-id="-1" semantic-id="2" stroke="rgb(0,178,178)" stroke-width="0.1"/>
  <path d="M 7.725302499999998,8.544581499999993 L 2.3473024999999836,38.594581500000004" fill="none" instance-id="-1" semantic-id="2" stroke="rgb(0,178,178)" stroke-width="0.1"/>
 </g>
 <g id="layerDIM_LEAD" inkscape:groupmode="layer" inkscape:label="DIM_LEAD">
  <path d="M 0.0,74.26955123003427 L 13.854302499999989,56.19658149999998" fill="none" stroke="rgb(0,178,0)" stroke-width="0.1"/>
  <path d="M 13.854302499999989,56.19658149999998 L 77.2253025,79.63158150000004" fill="none" stroke="rgb(0,178,0)" stroke-width="0.1"/>
  <path d="M 81.43030249999998,39.07458150000002 L 88.14630249999999,34.92458149999999" fill="none" stroke="rgb(0,178,0)" stroke-width="0.1"/>
  <path d="M 79.3203025,38.29458149999999 L 83.5403025,39.85558150000003" fill="none" stroke="rgb(0,178,0)" stroke-width="0.1"/>
  <path d="M 80.65030249999998,41.18458149999998 L 82.21030249999998,36.96458150000001" fill="none" stroke="rgb(0,178,0)" stroke-width="0.1"/>
  <path d="M 88.14630249999999,34.92458149999999 L 100.0,39.307876560928435" fill="none" stroke="rgb(0,178,0)" stroke-width="0.1"/>
  <path d="M 53.71130249999999,7.032581499999992 L 48.851302499999974,0.8105815000000121" fill="none" stroke="rgb(0,178,0)" stroke-width="0.1"/>
  <path d="M 51.6003025,6.252581500000019 L 55.8213025,7.812581500000022" fill="none" stroke="rgb(0,178,0)" stroke-width="0.1"/>
  <path d="M 52.93030249999998,9.142581500000006 L 54.49130249999999,4.922581499999978" fill="none" stroke="rgb(0,178,0)" stroke-width="0.1"/>
  <path d="M 48.851302499999974,0.8105815000000121 L 46.659255702661795,0.0" fill="none" stroke="rgb(0,178,0)" stroke-width="0.1"/>
 </g>
 <g id="layerDIM_SYMB" inkscape:groupmode="layer" inkscape:label="DIM_SYMB">
  <path d="M 63.177302499999996,39.68958150000003 L 100.0,3.9044284719855114" fill="none" stroke="rgb(0,178,0)" stroke-width="0.1"/>
  <path d="M 50.772302499999995,26.924581499999988 L 78.47705869428734,0.0" fill="none" stroke="rgb(0,178,0)" stroke-width="0.1"/>
 </g>
 <g id="layerDOOR_FIRE_TEXT" inkscape:groupmode="layer" inkscape:label="DOOR_FIRE_TEXT">
  <text fill="rgb(0,0,0)" font-family="Noto Sans CJK SC" font-size="2" transform="rotate(-259.853,0.8183024999999873,54.65858149999997)" x="0.8183024999999873" y="54.65858149999997">
   FHJL6636
  </text>
 </g>
 <g id="layerPUB_DIM" inkscape:groupmode="layer" inkscape:label="PUB_DIM">
  <path d="M 51.86030249999999,12.739581499999986 L 52.7853025,9.886581500000034" fill="none" stroke="rgb(0,178,0)" stroke-width="0.1"/>
  <path d="M 84.49730249999999,52.11958149999998 L 83.81030249999998,49.198581500000046" fill="none" stroke="rgb(0,178,0)" stroke-width="0.1"/>
  <path d="M 44.8143025,34.46358150000003 L 51.86030249999999,12.739581499999986" fill="none" stroke="rgb(0,178,0)" stroke-width="0.1"/>
  <path d="M 51.86030249999999,12.739581499999986 L 52.7853025,9.886581500000034" fill="none" stroke="rgb(0,178,0)" stroke-width="0.1"/>
  <path d="M 89.98830249999997,75.47758150000004 L 84.49730249999999,52.11958149999998" fill="none" stroke="rgb(0,178,0)" stroke-width="0.1"/>
  <path d="M 84.49730249999999,52.11958149999998 L 83.81030249999998,49.198581500000046" fill="none" stroke="rgb(0,178,0)" stroke-width="0.1"/>
  <text fill="rgb(0,0,0)" font-family="Noto Sans CJK SC" font-size="2" transform="rotate(-72.0307,43.4753025,32.45158150000003)" x="43.4753025" y="32.45158150000003">
   R1=300
  </text>
  <text fill="rgb(0,0,0)" font-family="Noto Sans CJK SC" font-size="2" transform="rotate(-283.229,86.9223025,54.163581499999964)" x="86.9223025" y="54.163581499999964">
   R1=1040
  </text>
 </g>
 <g id="layerPUB_HATCH" inkscape:groupmode="layer" inkscape:label="PUB_HATCH">
  <path d="M 10.575302499999992,3.4375815000000216 L 10.553687431255156,2.928745953146972" fill="none" stroke="rgb(63,63,63)" stroke-width="0.1"/>
  <path d="M 10.553687431255156,2.928745953146972 L 10.488997962086245,2.423576578068946" fill="none" stroke="rgb(63,63,63)" stroke-width="0.1"/>
  <path d="M 10.488997962086245,2.423576578068946 L 10.38170018160099,1.9257131316892924" fill="none" stroke="rgb(63,63,63)" stroke-width="0.1"/>
  <path d="M 10.38170018160099,1.9257131316892924 L 10.232567172766494,1.438742731547677" fill="none" stroke="rgb(63,63,63)" stroke-width="0.1"/>
  <path d="M 10.232567172766494,1.438742731547677 L 10.042673442328805,0.966174010536065" fill="none" stroke="rgb(63,63,63)" stroke-width="0.1"/>
  <path d="M 10.042673442328805,0.966174010536065 L 9.813387178967133,0.511411837118203" fill="none" stroke="rgb(63,63,63)" stroke-width="0.1"/>
  <path d="M 9.813387178967133,0.511411837118203 L 9.54636039546304,0.0777327831744401" fill="none" stroke="rgb(63,63,63)" stroke-width="0.1"/>
  <path d="M 0.2435659362728586,7.589214713865317 L 0.6112541596594951,7.941615331516346" fill="none" stroke="rgb(63,63,63)" stroke-width="0.1"/>
  <path d="M 0.6112541596594951,7.941615331516346 L 1.0075034421742828,8.261564282201675" fill="none" stroke="rgb(63,63,63)" stroke-width="0.1"/>
  <path d="M 1.0075034421742828,8.261564282201675 L 1.4294587986566114,8.546756326399873" fill="none" stroke="rgb(63,63,63)" stroke-width="0.1"/>
  <path d="M 1.4294587986566114,8.546756326399873 L 1.8740800310939676,8.795136648897426" fill="none" stroke="rgb(63,63,63)" stroke-width="0.1"/>
  <path d="M 1.8740800310939676,8.795136648897426 L 2.338163633318146,9.004915663779059" fill="none" stroke="rgb(63,63,63)" stroke-width="0.1"/>
  <path d="M 2.338163633318146,9.004915663779059 L 2.818365872340678,9.174581908435528" fill="none" stroke="rgb(63,63,63)" stroke-width="0.1"/>
  <path d="M 2.818365872340678,9.174581908435528 L 3.311226880025629,9.302912933686116" fill="none" stroke="rgb(63,63,63)" stroke-width="0.1"/>
  <path d="M 3.311226880025629,9.302912933686116 L 3.813195581518727,9.38898411155327" fill="none" stroke="rgb(63,63,63)" stroke-width="0.1"/>
  <path d="M 3.813195581518727,9.38898411155327 L 4.320655280823104,9.432175297228127" fill="none" stroke="rgb(63,63,63)" stroke-width="0.1"/>
  <path d="M 4.320655280823104,9.432175297228127 L 4.829949719176881,9.432175297228127" fill="none" stroke="rgb(63,63,63)" stroke-width="0.1"/>
  <path d="M 4.829949719176881,9.432175297228127 L 5.337409418481258,9.38898411155327" fill="none" stroke="rgb(63,63,63)" stroke-width="0.1"/>
  <path d="M 5.337409418481258,9.38898411155327 L 5.839378119974356,9.302912933686116" fill="none" stroke="rgb(63,63,63)" stroke-width="0.1"/>
  <path d="M 5.839378119974356,9.302912933686116 L 6.332239127659307,9.174581908435528" fill="none" stroke="rgb(63,63,63)" stroke-width="0.1"/>
  <path d="M 6.332239127659307,9.174581908435528 L 6.812441366681838,9.004915663779059" fill="none" stroke="rgb(63,63,63)" stroke-width="0.1"/>
  <path d="M 6.812441366681838,9.004915663779059 L 7.276524968906045,8.795136648897426" fill="none" stroke="rgb(63,63,63)" stroke-width="0.1"/>
  <path d="M 7.276524968906045,8.795136648897426 L 7.721146201343373,8.546756326399873" fill="none" stroke="rgb(63,63,63)" stroke-width="0.1"/>
  <path d="M 7.721146201343373,8.546756326399873 L 8.143101557825702,8.261564282201675" fill="none" stroke="rgb(63,63,63)" stroke-width="0.1"/>
  <path d="M 8.143101557825702,8.261564282201675 L 8.53935084034049,7.941615331516346" fill="none" stroke="rgb(63,63,63)" stroke-width="0.1"/>
  <path d="M 8.53935084034049,7.941615331516346 L 8.907039063727154,7.589214713865317" fill="none" stroke="rgb(63,63,63)" stroke-width="0.1"/>
  <path d="M 8.907039063727154,7.589214713865317 L 9.24351702591062,7.2069014837738905" fill="none" stroke="rgb(63,63,63)" stroke-width="0.1"/>
  <path d="M 9.24351702591062,7.2069014837738905 L 9.54636039546304,6.797430216825603" fill="none" stroke="rgb(63,63,63)" stroke-width="0.1"/>
  <path d="M 9.54636039546304,6.797430216825603 L 9.813387178967133,6.36375116288184" fill="none" stroke="rgb(63,63,63)" stroke-width="0.1"/>
  <path d="M 9.813387178967133,6.36375116288184 L 10.042673442328805,5.908988989463978" fill="none" stroke="rgb(63,63,63)" stroke-width="0.1"/>
  <path d="M 10.042673442328805,5.908988989463978 L 10.232567172766494,5.436420268452366" fill="none" stroke="rgb(63,63,63)" stroke-width="0.1"/>
  <path d="M 10.232567172766494,5.436420268452366 L 10.38170018160099,4.949449868310751" fill="none" stroke="rgb(63,63,63)" stroke-width="0.1"/>
  <path d="M 10.38170018160099,4.949449868310751 L 10.488997962086245,4.451586421931097" fill="none" stroke="rgb(63,63,63)" stroke-width="0.1"/>
  <path d="M 10.488997962086245,4.451586421931097 L 10.553687431255156,3.946417046853071" fill="none" stroke="rgb(63,63,63)" stroke-width="0.1"/>
  <path d="M 10.553687431255156,3.946417046853071 L 10.575302499999992,3.4375815000000216" fill="none" stroke="rgb(63,63,63)" stroke-width="0.1"/>
 </g>
 <g id="layerPUB_TEXT" inkscape:groupmode="layer" inkscape:label="PUB_TEXT">
  <text fill="rgb(0,0,0)" font-family="Noto Sans CJK SC" font-size="2" transform="rotate(-339.706,33.4933025,61.77958149999995)" x="33.4933025" y="61.77958149999995">
   双层无机布防火卷帘
  </text>
  <text fill="rgb(0,0,0)" font-family="Noto Sans CJK SC" font-size="2" transform="rotate(-339.706,69.95530249999999,75.26358149999999)" x="69.95530249999999" y="75.26358149999999">
   缓降
  </text>
  <text fill="rgb(0,0,0)" font-family="Noto Sans CJK SC" font-size="2" transform="rotate(-339.706,21.2913025,66.22358150000002)" x="21.2913025" y="66.22358150000002">
   不小于
  </text>
  <text fill="rgb(0,0,0)" font-family="Noto Sans CJK SC" font-size="2" transform="rotate(-339.706,31.663302499999986,70.05958150000004)" x="31.663302499999986" y="70.05958150000004">
   3.0h
  </text>
  <text fill="rgb(0,0,0)" font-family="Noto Sans CJK SC" font-size="2" transform="rotate(-339.706,44.044302499999986,74.63758150000001)" x="44.044302499999986" y="74.63758150000001">
   背火面温升
  </text>
  <text fill="rgb(0,0,0)" font-family="Noto Sans CJK SC" font-size="2" transform="rotate(-339.706,64.00330249999999,82.01858149999998)" x="64.00330249999999" y="82.01858149999998">
   其余同
  </text>
  <text fill="rgb(0,0,0)" font-family="Noto Sans CJK SC" font-size="2" transform="rotate(-339.706,58.760302499999995,45.16858149999996)" x="58.760302499999995" y="45.16858149999996">
   上
  </text>
  <text fill="rgb(0,0,0)" font-family="Noto Sans CJK SC" font-size="2" transform="rotate(-339.706,46.35530249999999,32.40358150000003)" x="46.35530249999999" y="32.40358150000003">
   上
  </text>
 </g>
 <g id="layerSTAIR" inkscape:groupmode="layer" inkscape:label="STAIR">
  <path d="M 68.40835460087408,0.0 L 53.30730249999999,14.675581500000021" fill="none" stroke="rgb(178,88,0)" stroke-width="0.1"/>
  <path d="M 48.68230249999999,12.425581500000021 L 50.90619617466484,0.0" fill="none" instance-id="-1" semantic-id="33" stroke="rgb(178,88,0)" stroke-width="0.1"/>
  <path d="M 69.26982104783397,0.0 L 53.726302499999974,15.105581500000028" fill="none" stroke="rgb(178,88,0)" stroke-width="0.1"/>
  <path d="M 49.272302499999995,12.531581500000016 L 51.51516773985995,0.0" fill="none" instance-id="-1" semantic-id="33" stroke="rgb(178,88,0)" stroke-width="0.1"/>
  <path d="M 100.0,12.805584275478054 L 71.1243025,40.86758150000003" fill="none" stroke="rgb(178,88,0)" stroke-width="0.1"/>
  <path d="M 100.0,11.968197537848368 L 70.87830249999999,40.269581500000015" fill="none" stroke="rgb(178,88,0)" stroke-width="0.1"/>
  <path d="M 71.5343025,43.81458150000003 L 73.97230249999998,46.322581499999956" fill="none" instance-id="-1" semantic-id="33" stroke="rgb(178,88,0)" stroke-width="0.1"/>
  <path d="M 70.81730249999998,44.511581500000034 L 73.2553025,47.01958149999996" fill="none" instance-id="-1" semantic-id="33" stroke="rgb(178,88,0)" stroke-width="0.1"/>
  <path d="M 89.37530249999998,47.25058149999995 L 93.8553025,42.89558149999999" fill="none" instance-id="-1" semantic-id="33" stroke="rgb(178,88,0)" stroke-width="0.1"/>
  <path d="M 93.8553025,42.89558149999999 L 100.0,36.92409275171417" fill="none" instance-id="-1" semantic-id="33" stroke="rgb(178,88,0)" stroke-width="0.1"/>
  <path d="M 71.08030249999999,43.9215815 L 73.68530249999998,46.60158149999995" fill="none" instance-id="-1" semantic-id="33" stroke="rgb(178,88,0)" stroke-width="0.1"/>
  <path d="M 88.9573025,46.81958150000003 L 93.43730249999999,42.465581499999985" fill="none" instance-id="-1" semantic-id="33" stroke="rgb(178,88,0)" stroke-width="0.1"/>
  <path d="M 93.43730249999999,42.465581499999985 L 100.0,36.08787547303058" fill="none" instance-id="-1" semantic-id="33" stroke="rgb(178,88,0)" stroke-width="0.1"/>
  <path d="M 90.81030249999998,1.5865815000000225 L 92.44289747648813,0.0" fill="none" stroke="rgb(0,178,0)" stroke-width="0.1"/>
  <path d="M 92.69230249999998,3.522581500000001 L 96.31695565291338,0.0" fill="none" stroke="rgb(0,178,0)" stroke-width="0.1"/>
  <path d="M 99.7313025,10.765581499999996 L 100.0,10.504455767246327" fill="none" stroke="rgb(0,178,0)" stroke-width="0.1"/>
  <path d="M 68.75130249999998,24.445581500000003 L 93.90567081719524,0.0" fill="none" stroke="rgb(0,178,0)" stroke-width="0.1"/>
  <path d="M 94.85341419864648,0.0 L 69.21130249999999,24.919581499999993" fill="none" stroke="rgb(0,178,0)" stroke-width="0.1"/>
  <path d="M 72.75630249999998,22.89558149999999 L 96.31593518608048,0.0" fill="none" stroke="rgb(0,178,0)" stroke-width="0.1"/>
  <path d="M 90.81030249999998,1.5865815000000225 L 92.44289747648813,0.0" fill="none" stroke="rgb(0,178,0)" stroke-width="0.1"/>
  <path d="M 100.0,12.804652429162672 L 78.1113025,34.07658150000003" fill="none" stroke="rgb(0,178,0)" stroke-width="0.1"/>
  <path d="M 77.69330249999999,33.646581500000025 L 100.0,11.968430617581134" fill="none" stroke="rgb(0,178,0)" stroke-width="0.1"/>
  <path d="M 100.0,10.504136866821 L 79.79530249999999,30.13958150000002" fill="none" stroke="rgb(0,178,0)" stroke-width="0.1"/>
  <path d="M 83.29830249999998,32.10358150000002 L 100.0,15.872643067402691" fill="none" stroke="rgb(0,178,0)" stroke-width="0.1"/>
  <path d="M 65.72630249999997,21.33358149999998 L 87.678680038513,0.0" fill="none" stroke="rgb(0,178,0)" stroke-width="0.1"/>
  <path d="M 86.73196032969543,0.0 L 65.2663025,20.860581500000023" fill="none" stroke="rgb(0,178,0)" stroke-width="0.1"/>
  <path d="M 67.39030249999999,17.374581500000033 L 85.26859198896898,0.0" fill="none" stroke="rgb(0,178,0)" stroke-width="0.1"/>
  <path d="M 70.87530249999998,20.959581500000013 L 92.4427844787376,0.0" fill="none" stroke="rgb(0,178,0)" stroke-width="0.1"/>
  <path d="M 68.4091942141732,0.0 L 56.367302499999994,11.702581500000008" fill="none" stroke="rgb(0,178,0)" stroke-width="0.1"/>
  <path d="M 56.7853025,12.132581500000015 L 69.26966183869644,0.0" fill="none" stroke="rgb(0,178,0)" stroke-width="0.1"/>
  <path d="M 70.77570596127055,0.0 L 60.351302499999974,10.130581500000005" fill="none" stroke="rgb(0,178,0)" stroke-width="0.1"/>
  <path d="M 57.66230249999998,7.37558150000001 L 65.25172089684364,0.0" fill="none" stroke="rgb(0,178,0)" stroke-width="0.1"/>
  <path d="M 95.40130249999999,0.8895815000000198 L 100.0,5.621555642989108" fill="none" stroke="rgb(0,178,0)" stroke-width="0.1"/>
  <path d="M 98.72088289783238,0.0 L 100.0,1.316187692996209" fill="none" stroke="rgb(0,178,0)" stroke-width="0.1"/>
  <path d="M 93.25030249999998,2.980581500000028 L 100.0,9.925894611592582" fill="none" stroke="rgb(0,178,0)" stroke-width="0.1"/>
  <path d="M 73.47230249999998,22.2005815 L 80.5113025,29.443581499999993" fill="none" stroke="rgb(0,178,0)" stroke-width="0.1"/>
  <path d="M 69.21130249999999,24.919581499999993 L 68.75130249999998,24.445581500000003" fill="none" stroke="rgb(0,178,0)" stroke-width="0.1"/>
  <path d="M 71.28730249999998,22.90158150000002 L 72.75630249999998,22.89558149999999" fill="none" stroke="rgb(0,178,0)" stroke-width="0.1"/>
  <path d="M 70.82730249999997,22.428581500000007 L 70.87530249999998,20.959581500000013" fill="none" stroke="rgb(0,178,0)" stroke-width="0.1"/>
  <path d="M 78.1113025,34.07658150000003 L 77.69330249999999,33.646581500000025" fill="none" stroke="rgb(0,178,0)" stroke-width="0.1"/>
  <path d="M 79.79530249999999,30.13958150000002 L 79.76930249999998,31.62958150000003" fill="none" stroke="rgb(0,178,0)" stroke-width="0.1"/>
  <path d="M 83.29830249999998,32.10358150000002 L 80.18730249999999,32.05958149999998" fill="none" stroke="rgb(0,178,0)" stroke-width="0.1"/>
  <path d="M 83.1903025,12.756581499999982 L 90.22930249999999,19.999581500000033" fill="none" stroke="rgb(0,178,0)" stroke-width="0.1"/>
  <path d="M 85.34130249999998,10.66558150000003 L 92.3803025,17.908581500000025" fill="none" stroke="rgb(0,178,0)" stroke-width="0.1"/>
  <path d="M 88.07730249999997,22.090581499999985 L 81.03830249999999,14.84758149999999" fill="none" stroke="rgb(0,178,0)" stroke-width="0.1"/>
  <path d="M 68.1053025,16.678581500000007 L 61.06630249999998,9.435581500000012" fill="none" stroke="rgb(0,178,0)" stroke-width="0.1"/>
  <path d="M 65.2663025,20.860581500000023 L 65.72630249999997,21.33358149999998" fill="none" stroke="rgb(0,178,0)" stroke-width="0.1"/>
  <path d="M 67.3433025,18.842581499999994 L 67.39030249999999,17.374581500000033" fill="none" stroke="rgb(0,178,0)" stroke-width="0.1"/>
  <path d="M 56.367302499999994,11.702581500000008 L 56.7853025,12.132581500000015" fill="none" stroke="rgb(0,178,0)" stroke-width="0.1"/>
  <path d="M 60.351302499999974,10.130581500000005 L 58.861302499999994,10.114581499999986" fill="none" stroke="rgb(0,178,0)" stroke-width="0.1"/>
  <path d="M 57.66230249999998,7.37558150000001 L 58.44330249999999,9.684581499999979" fill="none" stroke="rgb(0,178,0)" stroke-width="0.1"/>
  <path d="M 77.82330249999998,7.23458149999999 L 70.79248389189561,0.0" fill="none" stroke="rgb(0,178,0)" stroke-width="0.1"/>
  <path d="M 79.9753025,5.143581499999982 L 74.97659061562888,0.0" fill="none" stroke="rgb(0,178,0)" stroke-width="0.1"/>
  <path d="M 68.63330249999999,2.0825815000000034 L 75.6723025,9.325581499999998" fill="none" stroke="rgb(0,178,0)" stroke-width="0.1"/>
  <path d="M 87.08430249999998,8.971581500000013 L 94.1233025,16.215581499999985" fill="none" stroke="rgb(0,178,0)" stroke-width="0.1"/>
  <path d="M 89.2363025,6.881581499999982 L 96.27530249999998,14.124581500000033" fill="none" stroke="rgb(0,178,0)" stroke-width="0.1"/>
  <path d="M 81.7183025,3.449581500000022 L 78.36587889396654,0.0" fill="none" stroke="rgb(0,178,0)" stroke-width="0.1"/>
  <path d="M 83.86930249999997,1.3595814999999902 L 82.5480137828248,0.0" fill="none" stroke="rgb(0,178,0)" stroke-width="0.1"/>
  <path d="M 91.09830249999999,5.070581500000003 L 98.13730249999998,12.314581500000031" fill="none" stroke="rgb(0,178,0)" stroke-width="0.1"/>
  <path d="M 93.25030249999998,2.980581500000028 L 100.0,9.925894611592582" fill="none" stroke="rgb(0,178,0)" stroke-width="0.1"/>
  <path d="M 67.8023025,19.315581500000008 L 69.2723025,19.310581500000012" fill="none" stroke="rgb(0,178,0)" stroke-width="0.1"/>
  <path d="M 69.2723025,19.310581500000012 L 89.14271873174224,0.0" fill="none" stroke="rgb(0,178,0)" stroke-width="0.1"/>
  <path d="M 70.87530249999998,20.959581500000013 L 69.2723025,19.310581500000012" fill="none" stroke="rgb(0,178,0)" stroke-width="0.1"/>
  <path d="M 48.68230249999999,12.425581500000021 A 3.0,3.0 0.0 0,0 53.726302499999974,15.105581500000028" fill="none" instance-id="-1" semantic-id="33" stroke="rgb(178,88,0)" stroke-width="0.1"/>
  <path d="M 49.272302499999995,12.531581500000016 A 2.4,2.4 0.0 0,0 53.30730249999999,14.675581500000021" fill="none" instance-id="-1" semantic-id="33" stroke="rgb(178,88,0)" stroke-width="0.1"/>
  <path d="M 73.2553025,47.01958149999996 A 11.4,11.4 0.0 0,0 89.37530249999998,47.25058149999995" fill="none" instance-id="-1" semantic-id="33" stroke="rgb(178,88,0)" stroke-width="0.1"/>
  <path d="M 73.68530249999998,46.60158149999995 A 10.8,10.8 0.0 0,0 88.9573025,46.81958150000003" fill="none" instance-id="-1" semantic-id="33" stroke="rgb(178,88,0)" stroke-width="0.1"/>
  <path d="M 70.87830249999999,40.269581500000015 A 3.0,3.0 0.0 0,0 70.81730249999998,44.511581500000034" fill="none" instance-id="-1" semantic-id="33" stroke="rgb(178,88,0)" stroke-width="0.1"/>
  <path d="M 71.28830249999999,40.691581499999984 A 2.41197,2.41197 0.0 0,0 71.23930249999998,44.10158149999995" fill="none" instance-id="-1" semantic-id="33" stroke="rgb(178,88,0)" stroke-width="0.1"/>
 </g>
 <g id="layerWALL" inkscape:groupmode="layer" inkscape:label="WALL">
  <path d="M 0.0,38.17509719592607 L 4.315302500000001,38.94758150000001" fill="none" instance-id="-1" semantic-id="1" stroke="rgb(178,178,0)" stroke-width="0.1"/>
  <path d="M 0.0,40.206602649466674 L 3.9633024999999975,40.91558150000003" fill="none" instance-id="-1" semantic-id="1" stroke="rgb(178,178,0)" stroke-width="0.1"/>
  <path d="M 4.315302500000001,38.94758150000001 L 3.9633024999999975,40.91558150000003" fill="none" instance-id="-1" semantic-id="1" stroke="rgb(178,178,0)" stroke-width="0.1"/>
 </g>
 <g id="layerm-洞口" inkscape:groupmode="layer" inkscape:label="m-洞口">
  <path d="M 65.25117787504536,0.0 L 55.80130249999999,9.183581500000003" fill="none" stroke="rgb(160,107,53)" stroke-width="0.1"/>
  <path d="M 50.75730249999998,6.503581499999996 L 51.921318135358376,0.0" fill="none" stroke="rgb(160,107,53)" stroke-width="0.1"/>
  <path d="M 50.75730249999998,6.503581499999996 A 3.0,3.0 0.0 0,0 55.80130249999999,9.183581500000003" fill="none" stroke="rgb(160,107,53)" stroke-width="0.1"/>
  <path d="M 100.0,15.872978308027257 L 71.42430249999998,43.64358149999998" fill="none" stroke="rgb(160,107,53)" stroke-width="0.1"/>
  <path d="M 71.3673025,43.642581500000006 L 73.97230249999998,46.322581499999956" fill="none" stroke="rgb(160,107,53)" stroke-width="0.1"/>
  <path d="M 73.97230249999998,46.322581499999956 A 10.4,10.4 0.0 0,0 88.6783025,46.53258149999999" fill="none" stroke="rgb(160,107,53)" stroke-width="0.1"/>
  <path d="M 88.6783025,46.53258149999999 L 93.15830249999999,42.17858150000001" fill="none" stroke="rgb(160,107,53)" stroke-width="0.1"/>
  <path d="M 93.15830249999999,42.17858150000001 L 100.0,35.52974001668446" fill="none" stroke="rgb(160,107,53)" stroke-width="0.1"/>
 </g>
 <g id="layerm-装修" inkscape:groupmode="layer" inkscape:label="m-装修">
  <path d="M 12.302155266780346,0.0 L 10.23330249999998,11.561581499999988" fill="none" stroke="rgb(107,0,142)" stroke-width="0.1"/>
  <path d="M 10.23330249999998,11.561581499999988 L 0.0,9.730020708995198" fill="none" stroke="rgb(107,0,142)" stroke-width="0.1"/>
 </g>
 <g id="layerm-防火卷帘" inkscape:groupmode="layer" inkscape:label="m-防火卷帘">
  <path d="M 2.3473024999999836,38.594581500000004 L 0.0,51.70922929630217" fill="none" stroke="rgb(107,0,142)" stroke-width="0.1"/>
 </g>
</svg>