<?xml version="1.0" encoding="utf-8"?>
<svg style="background-color: #000;" version="1.1" viewBox="0 0 100.0 100.0" xmlns="http://www.w3.org/2000/svg" xmlns:inkscape="http://www.inkscape.org/namespaces/inkscape">
 <g id="layerA-DI-I(索引)" inkscape:groupmode="layer" inkscape:label="A-DI-I(索引)">
  <path d="M 0.0,80.39361250000002 L 7.298947999999996,80.39361250000002" fill="none" stroke="rgb(255,73,12)" stroke-width="0.1"/>
  <path d="M 13.298947999999996,86.39361250000002 A 6.0,6.0 0.0 0,0 7.298947999999996,80.39361250000002" fill="none" stroke="rgb(255,73,12)" stroke-width="0.1"/>
  <path d="M 13.298947999999996,86.39361250000002 L 13.298947999999996,100.0" fill="none" stroke="rgb(255,73,12)" stroke-width="0.1"/>
 </g>
 <g id="layerA-DIMS-M(门窗尺寸)" inkscape:groupmode="layer" inkscape:label="A-DIMS-M(门窗尺寸)">
  <path d="M 2.4789480000000594,18.14061250000001 L 2.4789480000000594,10.725612500000011" fill="none" stroke="rgb(107,142,0)" stroke-width="0.1"/>
  <path d="M 0.0,13.225612500000011 L 2.4789480000000594,13.225612500000011" fill="none" stroke="rgb(107,142,0)" stroke-width="0.1"/>
  <path d="M 2.4789480000000594,18.14061250000001 L 2.4789480000000594,10.725612500000011" fill="none" stroke="rgb(107,142,0)" stroke-width="0.1"/>
  <path d="M 3.4789480000000594,18.14061250000001 L 3.4789480000000594,10.725612500000011" fill="none" stroke="rgb(107,142,0)" stroke-width="0.1"/>
  <path d="M 2.4789480000000594,13.225612500000011 L 1.4789480000000594,13.225612500000011" fill="none" stroke="rgb(107,142,0)" stroke-width="0.1"/>
  <path d="M 3.4789480000000594,13.225612500000011 L 4.478948000000059,13.225612500000011" fill="none" stroke="rgb(107,142,0)" stroke-width="0.1"/>
  <path d="M 2.4789480000000594,13.225612500000011 L 3.4789480000000594,13.225612500000011" fill="none" stroke="rgb(107,142,0)" stroke-width="0.1"/>
  <path d="M 3.4789480000000594,18.14061250000001 L 3.4789480000000594,10.725612500000011" fill="none" stroke="rgb(107,142,0)" stroke-width="0.1"/>
  <path d="M 28.47894800000006,18.14061250000001 L 28.47894800000006,10.725612500000011" fill="none" stroke="rgb(107,142,0)" stroke-width="0.1"/>
  <path d="M 3.4789480000000594,13.225612500000011 L 28.47894800000006,13.225612500000011" fill="none" stroke="rgb(107,142,0)" stroke-width="0.1"/>
  <path d="M 28.47894800000006,18.14061250000001 L 28.47894800000006,10.725612500000011" fill="none" stroke="rgb(107,142,0)" stroke-width="0.1"/>
  <path d="M 35.47894800000006,18.14061250000001 L 35.47894800000006,10.725612500000011" fill="none" stroke="rgb(107,142,0)" stroke-width="0.1"/>
  <path d="M 28.47894800000006,13.225612500000011 L 27.47894800000006,13.225612500000011" fill="none" stroke="rgb(107,142,0)" stroke-width="0.1"/>
  <path d="M 35.47894800000006,13.225612500000011 L 36.47894800000006,13.225612500000011" fill="none" stroke="rgb(107,142,0)" stroke-width="0.1"/>
  <path d="M 28.47894800000006,13.225612500000011 L 35.47894800000006,13.225612500000011" fill="none" stroke="rgb(107,142,0)" stroke-width="0.1"/>
  <path d="M 35.47894800000006,18.14061250000001 L 35.47894800000006,10.725612500000011" fill="none" stroke="rgb(107,142,0)" stroke-width="0.1"/>
  <path d="M 37.47894800000006,18.14061250000001 L 37.47894800000006,10.725612500000011" fill="none" stroke="rgb(107,142,0)" stroke-width="0.1"/>
  <path d="M 35.47894800000006,13.225612500000011 L 34.47894800000006,13.225612500000011" fill="none" stroke="rgb(107,142,0)" stroke-width="0.1"/>
  <path d="M 37.47894800000006,13.225612500000011 L 38.47894800000006,13.225612500000011" fill="none" stroke="rgb(107,142,0)" stroke-width="0.1"/>
  <path d="M 35.47894800000006,13.225612500000011 L 37.47894800000006,13.225612500000011" fill="none" stroke="rgb(107,142,0)" stroke-width="0.1"/>
  <path d="M 37.47894800000006,18.14061250000001 L 37.47894800000006,10.725612500000011" fill="none" stroke="rgb(107,142,0)" stroke-width="0.1"/>
  <path d="M 44.47894800000006,18.14061250000001 L 44.47894800000006,10.725612500000011" fill="none" stroke="rgb(107,142,0)" stroke-width="0.1"/>
  <path d="M 37.47894800000006,13.225612500000011 L 36.47894800000006,13.225612500000011" fill="none" stroke="rgb(107,142,0)" stroke-width="0.1"/>
  <path d="M 44.47894800000006,13.225612500000011 L 45.47894800000006,13.225612500000011" fill="none" stroke="rgb(107,142,0)" stroke-width="0.1"/>
  <path d="M 37.47894800000006,13.225612500000011 L 44.47894800000006,13.225612500000011" fill="none" stroke="rgb(107,142,0)" stroke-width="0.1"/>
  <path d="M 44.47894800000006,18.14061250000001 L 44.47894800000006,10.725612500000011" fill="none" stroke="rgb(107,142,0)" stroke-width="0.1"/>
  <path d="M 64.47894800000006,18.14061250000001 L 64.47894800000006,10.725612500000011" fill="none" stroke="rgb(107,142,0)" stroke-width="0.1"/>
  <path d="M 44.47894800000006,13.225612500000011 L 64.47894800000006,13.225612500000011" fill="none" stroke="rgb(107,142,0)" stroke-width="0.1"/>
  <path d="M 64.47894800000006,18.14061250000001 L 64.47894800000006,10.725612500000011" fill="none" stroke="rgb(107,142,0)" stroke-width="0.1"/>
  <path d="M 69.47894800000006,18.14061250000001 L 69.47894800000006,10.725612500000011" fill="none" stroke="rgb(107,142,0)" stroke-width="0.1"/>
  <path d="M 64.47894800000006,13.225612500000011 L 63.47894800000006,13.225612500000011" fill="none" stroke="rgb(107,142,0)" stroke-width="0.1"/>
  <path d="M 69.47894800000006,13.225612500000011 L 70.47894800000006,13.225612500000011" fill="none" stroke="rgb(107,142,0)" stroke-width="0.1"/>
  <path d="M 64.47894800000006,13.225612500000011 L 69.47894800000006,13.225612500000011" fill="none" stroke="rgb(107,142,0)" stroke-width="0.1"/>
  <path d="M 69.47894800000006,18.14061250000001 L 69.47894800000006,10.725612500000011" fill="none" stroke="rgb(107,142,0)" stroke-width="0.1"/>
  <path d="M 70.47894800000006,18.14061250000001 L 70.47894800000006,10.725612500000011" fill="none" stroke="rgb(107,142,0)" stroke-width="0.1"/>
  <path d="M 69.47894800000006,13.225612500000011 L 68.47894800000006,13.225612500000011" fill="none" stroke="rgb(107,142,0)" stroke-width="0.1"/>
  <path d="M 70.47894800000006,13.225612500000011 L 71.47894800000006,13.225612500000011" fill="none" stroke="rgb(107,142,0)" stroke-width="0.1"/>
  <path d="M 69.47894800000006,13.225612500000011 L 70.47894800000006,13.225612500000011" fill="none" stroke="rgb(107,142,0)" stroke-width="0.1"/>
  <path d="M 70.47894800000006,18.14061250000001 L 70.47894800000006,10.725612500000011" fill="none" stroke="rgb(107,142,0)" stroke-width="0.1"/>
  <path d="M 71.47894800000006,18.14061250000001 L 71.47894800000006,10.725612500000011" fill="none" stroke="rgb(107,142,0)" stroke-width="0.1"/>
  <path d="M 70.47894800000006,13.225612500000011 L 69.47894800000006,13.225612500000011" fill="none" stroke="rgb(107,142,0)" stroke-width="0.1"/>
  <path d="M 71.47894800000006,13.225612500000011 L 72.47894800000006,13.225612500000011" fill="none" stroke="rgb(107,142,0)" stroke-width="0.1"/>
  <path d="M 70.47894800000006,13.225612500000011 L 71.47894800000006,13.225612500000011" fill="none" stroke="rgb(107,142,0)" stroke-width="0.1"/>
  <path d="M 71.47894800000006,18.14061250000001 L 71.47894800000006,10.725612500000011" fill="none" stroke="rgb(107,142,0)" stroke-width="0.1"/>
  <path d="M 76.47894800000006,18.14061250000001 L 76.47894800000006,10.725612500000011" fill="none" stroke="rgb(107,142,0)" stroke-width="0.1"/>
  <path d="M 71.47894800000006,13.225612500000011 L 70.47894800000006,13.225612500000011" fill="none" stroke="rgb(107,142,0)" stroke-width="0.1"/>
  <path d="M 76.47894800000006,13.225612500000011 L 77.47894800000006,13.225612500000011" fill="none" stroke="rgb(107,142,0)" stroke-width="0.1"/>
  <path d="M 71.47894800000006,13.225612500000011 L 76.47894800000006,13.225612500000011" fill="none" stroke="rgb(107,142,0)" stroke-width="0.1"/>
  <path d="M 76.47894800000006,18.14061250000001 L 76.47894800000006,10.725612500000011" fill="none" stroke="rgb(107,142,0)" stroke-width="0.1"/>
  <path d="M 96.47894800000006,18.14061250000001 L 96.47894800000006,10.725612500000011" fill="none" stroke="rgb(107,142,0)" stroke-width="0.1"/>
  <path d="M 76.47894800000006,13.225612500000011 L 96.47894800000006,13.225612500000011" fill="none" stroke="rgb(107,142,0)" stroke-width="0.1"/>
  <path d="M 96.47894800000006,18.14061250000001 L 96.47894800000006,10.725612500000011" fill="none" stroke="rgb(107,142,0)" stroke-width="0.1"/>
  <path d="M 96.47894800000006,13.225612500000011 L 95.47894800000006,13.225612500000011" fill="none" stroke="rgb(107,142,0)" stroke-width="0.1"/>
  <path d="M 96.47894800000006,13.225612500000011 L 100.0,13.225612500000011" fill="none" stroke="rgb(107,142,0)" stroke-width="0.1"/>
  <path d="M 2.4789480000000594,18.14061250000001 L 2.4789480000000594,10.725612500000011" fill="none" stroke="rgb(107,142,0)" stroke-width="0.1"/>
  <path d="M 0.0,13.225612500000011 L 2.4789480000000594,13.225612500000011" fill="none" stroke="rgb(107,142,0)" stroke-width="0.1"/>
  <path d="M 2.4789480000000594,18.14061250000001 L 2.4789480000000594,10.725612500000011" fill="none" stroke="rgb(107,142,0)" stroke-width="0.1"/>
  <path d="M 3.4789480000000594,18.14061250000001 L 3.4789480000000594,10.725612500000011" fill="none" stroke="rgb(107,142,0)" stroke-width="0.1"/>
  <path d="M 2.4789480000000594,13.225612500000011 L 3.4789480000000594,13.225612500000011" fill="none" stroke="rgb(107,142,0)" stroke-width="0.1"/>
  <path d="M 3.4789480000000594,18.14061250000001 L 3.4789480000000594,10.725612500000011" fill="none" stroke="rgb(107,142,0)" stroke-width="0.1"/>
  <path d="M 28.47894800000006,18.14061250000001 L 28.47894800000006,10.725612500000011" fill="none" stroke="rgb(107,142,0)" stroke-width="0.1"/>
  <path d="M 3.4789480000000594,13.225612500000011 L 28.47894800000006,13.225612500000011" fill="none" stroke="rgb(107,142,0)" stroke-width="0.1"/>
  <path d="M 28.47894800000006,18.14061250000001 L 28.47894800000006,10.725612500000011" fill="none" stroke="rgb(107,142,0)" stroke-width="0.1"/>
  <path d="M 35.47894800000006,18.14061250000001 L 35.47894800000006,10.725612500000011" fill="none" stroke="rgb(107,142,0)" stroke-width="0.1"/>
  <path d="M 28.47894800000006,13.225612500000011 L 35.47894800000006,13.225612500000011" fill="none" stroke="rgb(107,142,0)" stroke-width="0.1"/>
  <path d="M 35.47894800000006,18.14061250000001 L 35.47894800000006,10.725612500000011" fill="none" stroke="rgb(107,142,0)" stroke-width="0.1"/>
  <path d="M 37.47894800000006,18.14061250000001 L 37.47894800000006,10.725612500000011" fill="none" stroke="rgb(107,142,0)" stroke-width="0.1"/>
  <path d="M 35.47894800000006,13.225612500000011 L 37.47894800000006,13.225612500000011" fill="none" stroke="rgb(107,142,0)" stroke-width="0.1"/>
  <path d="M 37.47894800000006,18.14061250000001 L 37.47894800000006,10.725612500000011" fill="none" stroke="rgb(107,142,0)" stroke-width="0.1"/>
  <path d="M 44.47894800000006,18.14061250000001 L 44.47894800000006,10.725612500000011" fill="none" stroke="rgb(107,142,0)" stroke-width="0.1"/>
  <path d="M 37.47894800000006,13.225612500000011 L 44.47894800000006,13.225612500000011" fill="none" stroke="rgb(107,142,0)" stroke-width="0.1"/>
  <path d="M 44.47894800000006,18.14061250000001 L 44.47894800000006,10.725612500000011" fill="none" stroke="rgb(107,142,0)" stroke-width="0.1"/>
  <path d="M 69.47894800000006,18.14061250000001 L 69.47894800000006,10.725612500000011" fill="none" stroke="rgb(107,142,0)" stroke-width="0.1"/>
  <path d="M 44.47894800000006,13.225612500000011 L 69.47894800000006,13.225612500000011" fill="none" stroke="rgb(107,142,0)" stroke-width="0.1"/>
  <path d="M 69.47894800000006,18.14061250000001 L 69.47894800000006,10.725612500000011" fill="none" stroke="rgb(107,142,0)" stroke-width="0.1"/>
  <path d="M 70.47894800000006,18.14061250000001 L 70.47894800000006,10.725612500000011" fill="none" stroke="rgb(107,142,0)" stroke-width="0.1"/>
  <path d="M 69.47894800000006,13.225612500000011 L 70.47894800000006,13.225612500000011" fill="none" stroke="rgb(107,142,0)" stroke-width="0.1"/>
  <path d="M 70.47894800000006,18.14061250000001 L 70.47894800000006,10.725612500000011" fill="none" stroke="rgb(107,142,0)" stroke-width="0.1"/>
  <path d="M 71.47894800000006,18.14061250000001 L 71.47894800000006,10.725612500000011" fill="none" stroke="rgb(107,142,0)" stroke-width="0.1"/>
  <path d="M 70.47894800000006,13.225612500000011 L 71.47894800000006,13.225612500000011" fill="none" stroke="rgb(107,142,0)" stroke-width="0.1"/>
  <path d="M 71.47894800000006,18.14061250000001 L 71.47894800000006,10.725612500000011" fill="none" stroke="rgb(107,142,0)" stroke-width="0.1"/>
  <path d="M 96.47894800000006,18.14061250000001 L 96.47894800000006,10.725612500000011" fill="none" stroke="rgb(107,142,0)" stroke-width="0.1"/>
  <path d="M 71.47894800000006,13.225612500000011 L 96.47894800000006,13.225612500000011" fill="none" stroke="rgb(107,142,0)" stroke-width="0.1"/>
  <path d="M 96.47894800000006,18.14061250000001 L 96.47894800000006,10.725612500000011" fill="none" stroke="rgb(107,142,0)" stroke-width="0.1"/>
  <path d="M 96.47894800000006,13.225612500000011 L 100.0,13.225612500000011" fill="none" stroke="rgb(107,142,0)" stroke-width="0.1"/>
  <path d="M 74.47894800000006,94.45561250000002 L 83.97894800000006,94.45561250000002" fill="none" stroke="rgb(107,142,0)" stroke-width="0.1"/>
  <path d="M 74.47894800000006,93.45561250000002 L 83.97894800000006,93.45561250000002" fill="none" stroke="rgb(107,142,0)" stroke-width="0.1"/>
  <path d="M 81.47894800000006,94.45561250000002 L 81.47894800000006,93.45561250000002" fill="none" stroke="rgb(107,142,0)" stroke-width="0.1"/>
  <path d="M 74.47894800000006,97.45561250000002 L 83.97894800000006,97.45561250000002" fill="none" stroke="rgb(107,142,0)" stroke-width="0.1"/>
  <path d="M 74.47894800000006,94.45561250000002 L 83.97894800000006,94.45561250000002" fill="none" stroke="rgb(107,142,0)" stroke-width="0.1"/>
  <path d="M 81.47894800000006,97.45561250000002 L 81.47894800000006,94.45561250000002" fill="none" stroke="rgb(107,142,0)" stroke-width="0.1"/>
  <path d="M 74.47894800000006,97.45561250000002 L 83.97894800000006,97.45561250000002" fill="none" stroke="rgb(107,142,0)" stroke-width="0.1"/>
  <path d="M 81.47894800000006,100.0 L 81.47894800000006,97.45561250000002" fill="none" stroke="rgb(107,142,0)" stroke-width="0.1"/>
  <text fill="rgb(107,142,0)" font-family="Noto Sans CJK SC" font-size="2" transform="rotate(-0.0,11.97894800000006,11.963112500000008)" x="11.97894800000006" y="11.963112500000008">
   2500
  </text>
  <text fill="rgb(107,142,0)" font-family="Noto Sans CJK SC" font-size="2" transform="rotate(-0.0,28.97894800000006,11.963112500000008)" x="28.97894800000006" y="11.963112500000008">
   700
  </text>
  <text fill="rgb(107,142,0)" font-family="Noto Sans CJK SC" font-size="2" transform="rotate(-0.0,33.47894800000006,8.463112500000008)" x="33.47894800000006" y="8.463112500000008">
   200
  </text>
  <text fill="rgb(107,142,0)" font-family="Noto Sans CJK SC" font-size="2" transform="rotate(-0.0,37.97894800000006,11.963112500000008)" x="37.97894800000006" y="11.963112500000008">
   700
  </text>
  <text fill="rgb(107,142,0)" font-family="Noto Sans CJK SC" font-size="2" transform="rotate(-0.0,50.47894800000006,11.963112500000008)" x="50.47894800000006" y="11.963112500000008">
   2000
  </text>
  <text fill="rgb(107,142,0)" font-family="Noto Sans CJK SC" font-size="2" transform="rotate(-0.0,63.97894800000006,11.963112500000008)" x="63.97894800000006" y="11.963112500000008">
   500
  </text>
  <text fill="rgb(107,142,0)" font-family="Noto Sans CJK SC" font-size="2" transform="rotate(-0.0,66.82894799999997,8.463112500000008)" x="66.82894799999997" y="8.463112500000008">
   100
  </text>
  <text fill="rgb(107,142,0)" font-family="Noto Sans CJK SC" font-size="2" transform="rotate(-0.0,67.82894799999997,17.46311250000001)" x="67.82894799999997" y="17.46311250000001">
   100
  </text>
  <text fill="rgb(107,142,0)" font-family="Noto Sans CJK SC" font-size="2" transform="rotate(-0.0,70.97894800000006,11.963112500000008)" x="70.97894800000006" y="11.963112500000008">
   500
  </text>
  <text fill="rgb(107,142,0)" font-family="Noto Sans CJK SC" font-size="2" transform="rotate(-0.0,82.47894800000006,11.963112500000008)" x="82.47894800000006" y="11.963112500000008">
   2000
  </text>
  <text fill="rgb(107,142,0)" font-family="Noto Sans CJK SC" font-size="2" transform="rotate(-0.0,96.97894800000006,11.963112500000008)" x="96.97894800000006" y="11.963112500000008">
   700
  </text>
  <text fill="rgb(107,142,0)" font-family="Noto Sans CJK SC" font-size="2" transform="rotate(-0.0,11.97894800000006,11.963112500000008)" x="11.97894800000006" y="11.963112500000008">
   2500
  </text>
  <text fill="rgb(107,142,0)" font-family="Noto Sans CJK SC" font-size="2" transform="rotate(-0.0,28.97894800000006,11.963112500000008)" x="28.97894800000006" y="11.963112500000008">
   700
  </text>
  <text fill="rgb(107,142,0)" font-family="Noto Sans CJK SC" font-size="2" transform="rotate(-0.0,33.47894800000006,8.463112500000008)" x="33.47894800000006" y="8.463112500000008">
   200
  </text>
  <text fill="rgb(107,142,0)" font-family="Noto Sans CJK SC" font-size="2" transform="rotate(-0.0,37.97894800000006,11.963112500000008)" x="37.97894800000006" y="11.963112500000008">
   700
  </text>
  <text fill="rgb(107,142,0)" font-family="Noto Sans CJK SC" font-size="2" transform="rotate(-1.33402e-12,52.97894800000006,11.963112500000008)" x="52.97894800000006" y="11.963112500000008">
   2500
  </text>
  <text fill="rgb(107,142,0)" font-family="Noto Sans CJK SC" font-size="2" transform="rotate(-0.0,66.82894799999997,11.963112500000008)" x="66.82894799999997" y="11.963112500000008">
   100
  </text>
  <text fill="rgb(107,142,0)" font-family="Noto Sans CJK SC" font-size="2" transform="rotate(-0.0,67.82894799999997,8.463112500000008)" x="67.82894799999997" y="8.463112500000008">
   100
  </text>
  <text fill="rgb(107,142,0)" font-family="Noto Sans CJK SC" font-size="2" transform="rotate(-0.0,79.97894800000006,11.963112500000008)" x="79.97894800000006" y="11.963112500000008">
   2500
  </text>
  <text fill="rgb(107,142,0)" font-family="Noto Sans CJK SC" font-size="2" transform="rotate(-0.0,96.97894800000006,11.963112500000008)" x="96.97894800000006" y="11.963112500000008">
   700
  </text>
  <text fill="rgb(107,142,0)" font-family="Noto Sans CJK SC" font-size="2" transform="rotate(-90.0,80.21594800000003,93.1056125)" x="80.21594800000003" y="93.1056125">
   100
  </text>
  <text fill="rgb(107,142,0)" font-family="Noto Sans CJK SC" font-size="2" transform="rotate(-90.0,80.21594800000003,98.95561250000002)" x="80.21594800000003" y="98.95561250000002">
   300
  </text>
 </g>
 <g id="layerA-采暖非采暖分隔线" inkscape:groupmode="layer" inkscape:label="A-采暖非采暖分隔线">
  <path d="M 3.4789480000000594,97.45561250000002 L 3.4789480000000594,100.0" fill="none" stroke="rgb(255,133,12)" stroke-width="0.1"/>
 </g>
 <g id="layerA-降板标注" inkscape:groupmode="layer" inkscape:label="A-降板标注">
  <path d="M 0.0,97.45561250000002 L 1.4789480000000594,97.45561250000002" fill="none" stroke="rgb(63,63,63)" stroke-width="0.1"/>
  <path d="M 1.4789480000000594,97.45561250000002 L 1.4789480000000594,100.0" fill="none" stroke="rgb(63,63,63)" stroke-width="0.1"/>
 </g>
 <g id="layerAXIS" inkscape:groupmode="layer" inkscape:label="AXIS">
  <path d="M 2.4789480000000594,30.22561250000001 L 2.4789480000000594,0.0" fill="none" stroke="rgb(0,178,0)" stroke-width="0.1"/>
  <path d="M 70.47894800000006,30.22561250000001 L 70.47894800000006,0.0" fill="none" stroke="rgb(0,178,0)" stroke-width="0.1"/>
  <path d="M 2.4789480000000594,27.22561250000001 L 2.4789480000000594,2.725612500000011" fill="none" stroke="rgb(0,178,0)" stroke-width="0.1"/>
  <path d="M 0.0,5.225612500000011 L 2.4789480000000594,5.225612500000011" fill="none" stroke="rgb(0,178,0)" stroke-width="0.1"/>
  <path d="M 2.4789480000000594,27.22561250000001 L 2.4789480000000594,2.725612500000011" fill="none" stroke="rgb(0,178,0)" stroke-width="0.1"/>
  <path d="M 70.47894800000006,27.22561250000001 L 70.47894800000006,2.725612500000011" fill="none" stroke="rgb(0,178,0)" stroke-width="0.1"/>
  <path d="M 2.4789480000000594,5.225612500000011 L 70.47894800000006,5.225612500000011" fill="none" stroke="rgb(0,178,0)" stroke-width="0.1"/>
  <path d="M 70.47894800000006,27.22561250000001 L 70.47894800000006,2.725612500000011" fill="none" stroke="rgb(0,178,0)" stroke-width="0.1"/>
  <path d="M 70.47894800000006,5.225612500000011 L 100.0,5.225612500000011" fill="none" stroke="rgb(0,178,0)" stroke-width="0.1"/>
  <text fill="rgb(0,178,0)" font-family="Noto Sans CJK SC" font-size="2" transform="rotate(-0.0,32.42894799999999,3.963112500000012)" x="32.42894799999999" y="3.963112500000012">
   6800
  </text>
 </g>
 <g id="layerCOLU_HATCH" inkscape:groupmode="layer" inkscape:label="COLU_HATCH">
  <path d="M 3.4789480000000594,100.0 L 3.4789480000000594,95.45561250000002" fill="none" instance-id="-1" semantic-id="1" stroke="rgb(89,89,89)" stroke-width="0.1"/>
  <path d="M 3.4789480000000594,95.45561250000002 L 0.0,95.45561250000002" fill="none" instance-id="-1" semantic-id="1" stroke="rgb(89,89,89)" stroke-width="0.1"/>
  <path d="M 0.0,97.45561250000002 L 1.4789480000000594,97.45561250000002" fill="none" instance-id="-1" semantic-id="1" stroke="rgb(89,89,89)" stroke-width="0.1"/>
  <path d="M 1.4789480000000594,97.45561250000002 L 1.4789480000000594,100.0" fill="none" instance-id="-1" semantic-id="1" stroke="rgb(89,89,89)" stroke-width="0.1"/>
  <path d="M 3.4789480000000594,100.0 L 3.4789480000000594,95.45561250000002" fill="none" instance-id="-1" semantic-id="1" stroke="rgb(89,89,89)" stroke-width="0.1"/>
  <path d="M 3.4789480000000594,95.45561250000002 L 0.0,95.45561250000002" fill="none" instance-id="-1" semantic-id="1" stroke="rgb(89,89,89)" stroke-width="0.1"/>
  <path d="M 0.0,97.45561250000002 L 1.4789480000000594,97.45561250000002" fill="none" instance-id="-1" semantic-id="1" stroke="rgb(89,89,89)" stroke-width="0.1"/>
  <path d="M 1.4789480000000594,97.45561250000002 L 1.4789480000000594,100.0" fill="none" instance-id="-1" semantic-id="1" stroke="rgb(89,89,89)" stroke-width="0.1"/>
 </g>
 <g id="layerDIM_LEAD" inkscape:groupmode="layer" inkscape:label="DIM_LEAD">
  <path d="M 56.97894800000006,94.45561250000002 L 59.20794799999999,87.63661250000001" fill="none" stroke="rgb(0,178,0)" stroke-width="0.1"/>
  <path d="M 59.20794799999999,87.63661250000001 L 73.53094799999997,87.63661250000001" fill="none" stroke="rgb(0,178,0)" stroke-width="0.1"/>
  <path d="M 0.0,83.25061250000002 L 8.868948000000046,83.25061250000002" fill="none" stroke="rgb(0,178,0)" stroke-width="0.1"/>
  <path d="M 30.49583941439846,100.0 L 32.918948,83.80061250000001" fill="none" stroke="rgb(0,178,0)" stroke-width="0.1"/>
  <path d="M 32.918948,83.80061250000001 L 41.80894799999999,83.80061250000001" fill="none" stroke="rgb(0,178,0)" stroke-width="0.1"/>
  <path d="M 31.0820866660855,100.0 L 32.918948,89.25061250000002" fill="none" stroke="rgb(0,178,0)" stroke-width="0.1"/>
  <path d="M 32.918948,89.25061250000002 L 41.80894799999999,89.25061250000002" fill="none" stroke="rgb(0,178,0)" stroke-width="0.1"/>
  <path d="M 98.49583941439846,100.0 L 100.0,89.94412370408176" fill="none" stroke="rgb(0,178,0)" stroke-width="0.1"/>
  <path d="M 99.0820866660855,100.0 L 100.0,94.62833370408175" fill="none" stroke="rgb(0,178,0)" stroke-width="0.1"/>
  <path d="M 44.28060435576106,100.0 L 46.91594799999996,85.9176125" fill="none" stroke="rgb(0,178,0)" stroke-width="0.1"/>
  <path d="M 46.91594799999996,85.9176125 L 52.45394799999997,85.9176125" fill="none" stroke="rgb(0,178,0)" stroke-width="0.1"/>
 </g>
 <g id="layerDOTE" inkscape:groupmode="layer" inkscape:label="DOTE">
  <path d="M 100.0,96.45561250000002 L 0.0,96.45561250000002" fill="none" stroke="rgb(63,63,63)" stroke-width="0.1"/>
  <path d="M 2.4789480000000594,100.0 L 2.4789480000000594,30.22561250000001" fill="none" stroke="rgb(63,63,63)" stroke-width="0.1"/>
  <path d="M 100.0,16.455612500000008 L 0.0,16.455612500000008" fill="none" stroke="rgb(63,63,63)" stroke-width="0.1"/>
  <path d="M 70.47894800000006,100.0 L 70.47894800000006,22.63441250000001" fill="none" stroke="rgb(63,63,63)" stroke-width="0.1"/>
 </g>
 <g id="layerHATCH" inkscape:groupmode="layer" inkscape:label="HATCH">
  <path d="M 3.4749480000000403,94.53461250000001 L 3.4789480000000594,94.52961250000001" fill="none" stroke="rgb(89,89,89)" stroke-width="0.1"/>
  <path d="M 3.4749480000000403,94.53461250000001 L 3.4789480000000594,94.53461250000001" fill="none" stroke="rgb(89,89,89)" stroke-width="0.1"/>
  <path d="M 3.1839479999999867,94.82361250000001 L 3.3399480000000494,94.66061250000001" fill="none" stroke="rgb(89,89,89)" stroke-width="0.1"/>
  <path d="M 3.3639480000000503,94.85161250000002 L 3.341948000000002,94.66161250000002" fill="none" stroke="rgb(89,89,89)" stroke-width="0.1"/>
  <path d="M 3.1839479999999867,94.82361250000001 L 3.361947999999984,94.85061250000001" fill="none" stroke="rgb(89,89,89)" stroke-width="0.1"/>
  <path d="M 3.289947999999981,95.13161250000002 L 3.4299479999999676,95.07761250000001" fill="none" stroke="rgb(89,89,89)" stroke-width="0.1"/>
  <path d="M 3.289947999999981,95.13161250000002 L 3.3889480000000276,95.19861250000001" fill="none" stroke="rgb(89,89,89)" stroke-width="0.1"/>
  <path d="M 3.3909479999999803,95.19861250000001 L 3.431948000000034,95.07761250000001" fill="none" stroke="rgb(89,89,89)" stroke-width="0.1"/>
  <path d="M 1.4789480000000594,94.67561250000001 L 1.698947999999973,94.45561250000002" fill="none" stroke="rgb(89,89,89)" stroke-width="0.1"/>
  <path d="M 2.1129479999999603,95.45561250000002 L 3.1129479999999603,94.45561250000002" fill="none" stroke="rgb(89,89,89)" stroke-width="0.1"/>
  <path d="M 3.4789480000000594,95.45561250000002 L 3.4789480000000594,94.45561250000002" fill="none" stroke="rgb(89,89,89)" stroke-width="0.1"/>
  <path d="M 3.4789480000000594,94.45561250000002 L 1.4789480000000594,94.45561250000002" fill="none" stroke="rgb(89,89,89)" stroke-width="0.1"/>
  <path d="M 1.4789480000000594,94.45561250000002 L 1.4789480000000594,95.45561250000002" fill="none" stroke="rgb(89,89,89)" stroke-width="0.1"/>
  <path d="M 1.4789480000000594,95.45561250000002 L 3.4789480000000594,95.45561250000002" fill="none" stroke="rgb(89,89,89)" stroke-width="0.1"/>
 </g>
 <g id="layerOUTLINE" inkscape:groupmode="layer" inkscape:label="OUTLINE">
  <path d="M 100.0,93.45561250000002 L 0.0,93.45561250000002" fill="none" stroke="rgb(0,178,0)" stroke-width="0.1"/>
 </g>
 <g id="layerPUB_HATCH" inkscape:groupmode="layer" inkscape:label="PUB_HATCH">
  <path d="M 0.5165440258397211,100.0 L 1.4789480000000594,99.03761250000001" fill="none" stroke="rgb(89,89,89)" stroke-width="0.1"/>
  <path d="M 0.0,98.74756050000002 L 0.3809479999999894,98.36661250000002" fill="none" stroke="rgb(89,89,89)" stroke-width="0.1"/>
  <path d="M 0.778948000000014,97.9686125 L 1.2919480000000476,97.45561250000002" fill="none" stroke="rgb(89,89,89)" stroke-width="0.1"/>
  <path d="M 1.4789480000000594,100.0 L 1.4789480000000594,97.45561250000002" fill="none" stroke="rgb(89,89,89)" stroke-width="0.1"/>
  <path d="M 1.4789480000000594,97.45561250000002 L 0.0,97.45561250000002" fill="none" stroke="rgb(89,89,89)" stroke-width="0.1"/>
 </g>
 <g id="layerPUB_TEXT" inkscape:groupmode="layer" inkscape:label="PUB_TEXT">
  <text fill="rgb(160,53,53)" font-family="Noto Sans CJK SC" font-size="2" transform="rotate(-0.0,60.97594800000002,86.58661250000002)" x="60.97594800000002" y="86.58661250000002">
   消防救援窗
  </text>
  <text fill="rgb(160,53,53)" font-family="Noto Sans CJK SC" font-size="2" transform="rotate(-0.0,0.9679479999999785,82.2006125)" x="0.9679479999999785" y="82.2006125">
   厚衬墙
  </text>
  <text fill="rgb(160,53,53)" font-family="Noto Sans CJK SC" font-size="2" transform="rotate(-0.0,2.4189480000000003,87.80061250000001)" x="2.4189480000000003" y="87.80061250000001">
   900
  </text>
  <text fill="rgb(160,53,53)" font-family="Noto Sans CJK SC" font-size="2" transform="rotate(-0.0,37.458947999999964,82.75061250000002)" x="37.458947999999964" y="82.75061250000002">
   DL
  </text>
  <text fill="rgb(160,53,53)" font-family="Noto Sans CJK SC" font-size="2" transform="rotate(-0.0,37.358948000000055,88.2006125)" x="37.358948000000055" y="88.2006125">
   NL
  </text>
  <text fill="rgb(160,53,53)" font-family="Noto Sans CJK SC" font-size="2" transform="rotate(-0.0,48.903948000000014,84.8676125)" x="48.903948000000014" y="84.8676125">
   Y1
  </text>
 </g>
 <g id="layerSURFACE" inkscape:groupmode="layer" inkscape:label="SURFACE">
  <path d="M 0.0,94.45561250000002 L 2.4789480000000594,94.45561250000002" fill="none" stroke="rgb(178,0,178)" stroke-width="0.1"/>
  <path d="M 64.47894800000006,94.45561250000002 L 64.47894800000006,95.45561250000002" fill="none" stroke="rgb(178,0,178)" stroke-width="0.1"/>
  <path d="M 64.47894800000006,94.45561250000002 L 69.47894800000006,94.45561250000002" fill="none" stroke="rgb(178,0,178)" stroke-width="0.1"/>
  <path d="M 96.47894800000006,94.45561250000002 L 96.47894800000006,100.0" fill="none" stroke="rgb(178,0,178)" stroke-width="0.1"/>
  <path d="M 44.47894800000006,94.45561250000002 L 44.47894800000006,100.0" fill="none" stroke="rgb(178,0,178)" stroke-width="0.1"/>
  <path d="M 28.47894800000006,94.45561250000002 L 28.47894800000006,100.0" fill="none" stroke="rgb(178,0,178)" stroke-width="0.1"/>
  <path d="M 71.47894800000006,94.45561250000002 L 96.47894800000006,94.45561250000002" fill="none" stroke="rgb(178,0,178)" stroke-width="0.1"/>
  <path d="M 2.4789480000000594,94.45561250000002 L 28.47894800000006,94.45561250000002" fill="none" stroke="rgb(178,0,178)" stroke-width="0.1"/>
  <path d="M 35.47894800000006,94.45561250000002 L 35.47894800000006,93.45561250000002" fill="none" stroke="rgb(178,0,178)" stroke-width="0.1"/>
  <path d="M 35.47894800000006,93.45561250000002 L 37.47894800000006,93.45561250000002" fill="none" stroke="rgb(178,0,178)" stroke-width="0.1"/>
  <path d="M 37.47894800000006,93.45561250000002 L 37.47894800000006,94.45561250000002" fill="none" stroke="rgb(178,0,178)" stroke-width="0.1"/>
  <path d="M 37.47894800000006,94.45561250000002 L 35.47894800000006,94.45561250000002" fill="none" stroke="rgb(178,0,178)" stroke-width="0.1"/>
  <path d="M 69.47894800000006,94.45561250000002 L 69.47894800000006,93.45561250000002" fill="none" stroke="rgb(178,0,178)" stroke-width="0.1"/>
  <path d="M 69.47894800000006,93.45561250000002 L 71.47894800000006,93.45561250000002" fill="none" stroke="rgb(178,0,178)" stroke-width="0.1"/>
  <path d="M 71.47894800000006,93.45561250000002 L 71.47894800000006,94.45561250000002" fill="none" stroke="rgb(178,0,178)" stroke-width="0.1"/>
  <path d="M 71.47894800000006,94.45561250000002 L 69.47894800000006,94.45561250000002" fill="none" stroke="rgb(178,0,178)" stroke-width="0.1"/>
 </g>
 <g id="layerS_COLU" inkscape:groupmode="layer" inkscape:label="S_COLU">
  <path d="M 3.4789480000000594,100.0 L 3.4789480000000594,95.45561250000002" fill="none" instance-id="-1" semantic-id="1" stroke="rgb(0,0,0)" stroke-width="0.1"/>
  <path d="M 3.4789480000000594,95.45561250000002 L 0.0,95.45561250000002" fill="none" instance-id="-1" semantic-id="1" stroke="rgb(0,0,0)" stroke-width="0.1"/>
  <path d="M 0.0,97.45561250000002 L 1.4789480000000594,97.45561250000002" fill="none" instance-id="-1" semantic-id="1" stroke="rgb(0,0,0)" stroke-width="0.1"/>
  <path d="M 1.4789480000000594,97.45561250000002 L 1.4789480000000594,100.0" fill="none" instance-id="-1" semantic-id="1" stroke="rgb(0,0,0)" stroke-width="0.1"/>
  <path d="M 3.4789480000000594,100.0 L 3.4789480000000594,95.45561250000002" fill="none" instance-id="-1" semantic-id="1" stroke="rgb(0,0,0)" stroke-width="0.1"/>
  <path d="M 3.4789480000000594,95.45561250000002 L 0.0,95.45561250000002" fill="none" instance-id="-1" semantic-id="1" stroke="rgb(0,0,0)" stroke-width="0.1"/>
  <path d="M 0.0,97.45561250000002 L 1.4789480000000594,97.45561250000002" fill="none" instance-id="-1" semantic-id="1" stroke="rgb(0,0,0)" stroke-width="0.1"/>
  <path d="M 1.4789480000000594,97.45561250000002 L 1.4789480000000594,100.0" fill="none" instance-id="-1" semantic-id="1" stroke="rgb(0,0,0)" stroke-width="0.1"/>
 </g>
 <g id="layerWALL" inkscape:groupmode="layer" inkscape:label="WALL">
  <path d="M 2.4789480000000594,95.45561250000002 L 0.0,95.45561250000002" fill="none" instance-id="-1" semantic-id="1" stroke="rgb(134,134,134)" stroke-width="0.1"/>
  <path d="M 0.0,97.45561250000002 L 1.4789480000000594,97.45561250000002" fill="none" instance-id="-1" semantic-id="1" stroke="rgb(134,134,134)" stroke-width="0.1"/>
  <path d="M 3.4789480000000594,97.45561250000002 L 3.4789480000000594,100.0" fill="none" instance-id="-1" semantic-id="1" stroke="rgb(134,134,134)" stroke-width="0.1"/>
  <path d="M 1.4789480000000594,97.45561250000002 L 1.4789480000000594,100.0" fill="none" instance-id="-1" semantic-id="1" stroke="rgb(134,134,134)" stroke-width="0.1"/>
  <path d="M 71.47894800000006,97.45561250000002 L 71.47894800000006,100.0" fill="none" instance-id="-1" semantic-id="1" stroke="rgb(134,134,134)" stroke-width="0.1"/>
  <path d="M 69.47894800000006,97.45561250000002 L 69.47894800000006,100.0" fill="none" instance-id="-1" semantic-id="1" stroke="rgb(134,134,134)" stroke-width="0.1"/>
  <path d="M 35.47894800000006,96.45561250000002 L 35.47894800000006,93.45561250000002" fill="none" instance-id="-1" semantic-id="1" stroke="rgb(134,134,134)" stroke-width="0.1"/>
  <path d="M 37.47894800000006,96.45561250000002 L 37.47894800000006,93.45561250000002" fill="none" instance-id="-1" semantic-id="1" stroke="rgb(134,134,134)" stroke-width="0.1"/>
  <path d="M 35.47894800000006,96.45561250000002 L 37.47894800000006,96.45561250000002" fill="none" instance-id="-1" semantic-id="1" stroke="rgb(134,134,134)" stroke-width="0.1"/>
  <path d="M 35.47894800000006,93.45561250000002 L 37.47894800000006,93.45561250000002" fill="none" instance-id="-1" semantic-id="1" stroke="rgb(134,134,134)" stroke-width="0.1"/>
  <path d="M 69.47894800000006,95.45561250000002 L 64.47894800000006,95.45561250000002" fill="none" instance-id="-1" semantic-id="1" stroke="rgb(134,134,134)" stroke-width="0.1"/>
  <path d="M 64.47894800000006,95.45561250000002 L 64.47894800000006,97.45561250000002" fill="none" instance-id="-1" semantic-id="1" stroke="rgb(134,134,134)" stroke-width="0.1"/>
  <path d="M 64.47894800000006,97.45561250000002 L 69.47894800000006,97.45561250000002" fill="none" instance-id="-1" semantic-id="1" stroke="rgb(134,134,134)" stroke-width="0.1"/>
  <path d="M 95.47894800000006,95.45561250000002 L 95.47894800000006,100.0" fill="none" instance-id="-1" semantic-id="1" stroke="rgb(134,134,134)" stroke-width="0.1"/>
  <path d="M 93.47894800000006,97.45561250000002 L 93.47894800000006,100.0" fill="none" instance-id="-1" semantic-id="1" stroke="rgb(134,134,134)" stroke-width="0.1"/>
  <path d="M 27.47894800000006,95.45561250000002 L 27.47894800000006,100.0" fill="none" instance-id="-1" semantic-id="1" stroke="rgb(134,134,134)" stroke-width="0.1"/>
  <path d="M 25.47894800000006,97.45561250000002 L 25.47894800000006,100.0" fill="none" instance-id="-1" semantic-id="1" stroke="rgb(134,134,134)" stroke-width="0.1"/>
  <path d="M 71.47894800000006,95.45561250000002 L 95.47894800000006,95.45561250000002" fill="none" instance-id="-1" semantic-id="1" stroke="rgb(134,134,134)" stroke-width="0.1"/>
  <path d="M 71.47894800000006,97.45561250000002 L 93.47894800000006,97.45561250000002" fill="none" instance-id="-1" semantic-id="1" stroke="rgb(134,134,134)" stroke-width="0.1"/>
  <path d="M 2.4789480000000594,95.45561250000002 L 27.47894800000006,95.45561250000002" fill="none" instance-id="-1" semantic-id="1" stroke="rgb(134,134,134)" stroke-width="0.1"/>
  <path d="M 3.4789480000000594,97.45561250000002 L 25.47894800000006,97.45561250000002" fill="none" instance-id="-1" semantic-id="1" stroke="rgb(134,134,134)" stroke-width="0.1"/>
  <path d="M 71.47894800000006,93.45561250000002 L 71.47894800000006,95.45561250000002" fill="none" instance-id="-1" semantic-id="1" stroke="rgb(134,134,134)" stroke-width="0.1"/>
  <path d="M 69.47894800000006,93.45561250000002 L 69.47894800000006,95.45561250000002" fill="none" instance-id="-1" semantic-id="1" stroke="rgb(134,134,134)" stroke-width="0.1"/>
  <path d="M 71.47894800000006,93.45561250000002 L 69.47894800000006,93.45561250000002" fill="none" instance-id="-1" semantic-id="1" stroke="rgb(134,134,134)" stroke-width="0.1"/>
 </g>
 <g id="layerWINDOW" inkscape:groupmode="layer" inkscape:label="WINDOW">
  <path d="M 64.47894800000006,97.45561250000002 L 64.47894800000006,94.45561250000002" fill="none" stroke="rgb(0,178,178)" stroke-width="0.1"/>
  <path d="M 76.47894800000006,97.45561250000002 L 76.47894800000006,94.45561250000002" fill="none" stroke="rgb(0,178,178)" stroke-width="0.1"/>
  <path d="M 3.4789480000000594,97.45561250000002 L 3.4789480000000594,94.45561250000002" fill="none" stroke="rgb(0,178,178)" stroke-width="0.1"/>
  <path d="M 25.22894800000006,99.58961250000002 L 24.818560500000103,100.0" fill="none" stroke="rgb(0,178,178)" stroke-width="0.1"/>
  <path d="M 23.744948000000022,97.70561250000002 L 23.244948000000022,98.20561250000002" fill="none" stroke="rgb(0,178,178)" stroke-width="0.1"/>
  <path d="M 20.37794800000006,97.70561250000002 L 19.87794800000006,98.20561250000002" fill="none" stroke="rgb(0,178,178)" stroke-width="0.1"/>
  <path d="M 17.00994800000001,97.70561250000002 L 16.50994800000001,98.20561250000002" fill="none" stroke="rgb(0,178,178)" stroke-width="0.1"/>
  <path d="M 13.642948000000047,97.70561250000002 L 13.142948000000047,98.20561250000002" fill="none" stroke="rgb(0,178,178)" stroke-width="0.1"/>
  <path d="M 10.274947999999995,97.70561250000002 L 9.774947999999995,98.20561250000002" fill="none" stroke="rgb(0,178,178)" stroke-width="0.1"/>
  <path d="M 6.906948000000057,97.70561250000002 L 6.406948000000057,98.20561250000002" fill="none" stroke="rgb(0,178,178)" stroke-width="0.1"/>
  <path d="M 3.539947999999981,97.70561250000002 L 3.4789480000000594,97.76661250000001" fill="none" stroke="rgb(0,178,178)" stroke-width="0.1"/>
  <path d="M 25.22894800000006,98.46761250000002 L 24.72894800000006,98.96761250000002" fill="none" stroke="rgb(0,178,178)" stroke-width="0.1"/>
  <path d="M 22.62294799999995,97.70561250000002 L 22.12294799999995,98.20561250000002" fill="none" stroke="rgb(0,178,178)" stroke-width="0.1"/>
  <path d="M 19.254948000000013,97.70561250000002 L 18.754948000000013,98.20561250000002" fill="none" stroke="rgb(0,178,178)" stroke-width="0.1"/>
  <path d="M 15.887948000000051,97.70561250000002 L 15.387948000000051,98.20561250000002" fill="none" stroke="rgb(0,178,178)" stroke-width="0.1"/>
  <path d="M 12.519948,97.70561250000002 L 12.019948,98.20561250000002" fill="none" stroke="rgb(0,178,178)" stroke-width="0.1"/>
  <path d="M 9.152948000000038,97.70561250000002 L 8.652948000000038,98.20561250000002" fill="none" stroke="rgb(0,178,178)" stroke-width="0.1"/>
  <path d="M 5.784947999999986,97.70561250000002 L 5.284947999999986,98.20561250000002" fill="none" stroke="rgb(0,178,178)" stroke-width="0.1"/>
  <path d="M 47.72894800000006,97.7896125 L 47.812948000000006,97.70561250000002" fill="none" stroke="rgb(0,178,178)" stroke-width="0.1"/>
  <path d="M 50.68094800000006,98.20561250000002 L 51.18094800000006,97.70561250000002" fill="none" stroke="rgb(0,178,178)" stroke-width="0.1"/>
  <path d="M 54.04794800000002,98.20561250000002 L 54.54794800000002,97.70561250000002" fill="none" stroke="rgb(0,178,178)" stroke-width="0.1"/>
  <path d="M 57.41594799999996,98.20561250000002 L 57.91594799999996,97.70561250000002" fill="none" stroke="rgb(0,178,178)" stroke-width="0.1"/>
  <path d="M 60.78394800000001,98.20561250000002 L 61.28394800000001,97.70561250000002" fill="none" stroke="rgb(0,178,178)" stroke-width="0.1"/>
  <path d="M 64.15094799999997,98.20561250000002 L 64.65094799999997,97.70561250000002" fill="none" stroke="rgb(0,178,178)" stroke-width="0.1"/>
  <path d="M 67.51894800000002,98.20561250000002 L 68.01894800000002,97.70561250000002" fill="none" stroke="rgb(0,178,178)" stroke-width="0.1"/>
  <path d="M 47.72894800000006,98.91261250000001 L 48.22894800000006,98.41261250000001" fill="none" stroke="rgb(0,178,178)" stroke-width="0.1"/>
  <path d="M 48.43594800000005,98.20561250000002 L 48.93594800000005,97.70561250000002" fill="none" stroke="rgb(0,178,178)" stroke-width="0.1"/>
  <path d="M 51.802948000000015,98.20561250000002 L 52.302948000000015,97.70561250000002" fill="none" stroke="rgb(0,178,178)" stroke-width="0.1"/>
  <path d="M 55.17094799999995,98.20561250000002 L 55.67094799999995,97.70561250000002" fill="none" stroke="rgb(0,178,178)" stroke-width="0.1"/>
  <path d="M 58.538948000000005,98.20561250000002 L 59.038948000000005,97.70561250000002" fill="none" stroke="rgb(0,178,178)" stroke-width="0.1"/>
  <path d="M 61.90594799999997,98.20561250000002 L 62.40594799999997,97.70561250000002" fill="none" stroke="rgb(0,178,178)" stroke-width="0.1"/>
  <path d="M 65.27394800000002,98.20561250000002 L 65.77394800000002,97.70561250000002" fill="none" stroke="rgb(0,178,178)" stroke-width="0.1"/>
  <path d="M 68.64094799999998,98.20561250000002 L 69.14094799999998,97.70561250000002" fill="none" stroke="rgb(0,178,178)" stroke-width="0.1"/>
  <path d="M 93.22894800000006,99.58961250000002 L 92.8185605000001,100.0" fill="none" stroke="rgb(0,178,178)" stroke-width="0.1"/>
  <path d="M 91.74494800000002,97.70561250000002 L 91.24494800000002,98.20561250000002" fill="none" stroke="rgb(0,178,178)" stroke-width="0.1"/>
  <path d="M 88.37794800000006,97.70561250000002 L 87.87794800000006,98.20561250000002" fill="none" stroke="rgb(0,178,178)" stroke-width="0.1"/>
  <path d="M 85.00994800000001,97.70561250000002 L 84.50994800000001,98.20561250000002" fill="none" stroke="rgb(0,178,178)" stroke-width="0.1"/>
  <path d="M 81.64294800000005,97.70561250000002 L 81.14294800000005,98.20561250000002" fill="none" stroke="rgb(0,178,178)" stroke-width="0.1"/>
  <path d="M 78.274948,97.70561250000002 L 77.774948,98.20561250000002" fill="none" stroke="rgb(0,178,178)" stroke-width="0.1"/>
  <path d="M 74.90694800000006,97.70561250000002 L 74.40694800000006,98.20561250000002" fill="none" stroke="rgb(0,178,178)" stroke-width="0.1"/>
  <path d="M 71.53994799999998,97.70561250000002 L 71.47894800000006,97.76661250000001" fill="none" stroke="rgb(0,178,178)" stroke-width="0.1"/>
  <path d="M 93.22894800000006,98.46761250000002 L 92.72894800000006,98.96761250000002" fill="none" stroke="rgb(0,178,178)" stroke-width="0.1"/>
  <path d="M 90.62294799999995,97.70561250000002 L 90.12294799999995,98.20561250000002" fill="none" stroke="rgb(0,178,178)" stroke-width="0.1"/>
  <path d="M 87.25494800000001,97.70561250000002 L 86.75494800000001,98.20561250000002" fill="none" stroke="rgb(0,178,178)" stroke-width="0.1"/>
  <path d="M 83.88794800000005,97.70561250000002 L 83.38794800000005,98.20561250000002" fill="none" stroke="rgb(0,178,178)" stroke-width="0.1"/>
  <path d="M 80.519948,97.70561250000002 L 80.019948,98.20561250000002" fill="none" stroke="rgb(0,178,178)" stroke-width="0.1"/>
  <path d="M 77.15294800000004,97.70561250000002 L 76.65294800000004,98.20561250000002" fill="none" stroke="rgb(0,178,178)" stroke-width="0.1"/>
  <path d="M 73.78494799999999,97.70561250000002 L 73.28494799999999,98.20561250000002" fill="none" stroke="rgb(0,178,178)" stroke-width="0.1"/>
  <path d="M 47.47894800000006,100.0 L 47.47894800000006,97.45561250000002" fill="none" stroke="rgb(0,178,178)" stroke-width="0.1"/>
  <path d="M 47.47894800000006,97.45561250000002 L 64.47894800000006,97.45561250000002" fill="none" stroke="rgb(0,178,178)" stroke-width="0.1"/>
  <path d="M 45.47894800000006,100.0 L 45.47894800000006,95.45561250000002" fill="none" stroke="rgb(0,178,178)" stroke-width="0.1"/>
  <path d="M 45.47894800000006,95.45561250000002 L 64.47894800000006,95.45561250000002" fill="none" stroke="rgb(0,178,178)" stroke-width="0.1"/>
  <path d="M 46.47894800000006,100.0 L 46.47894800000006,96.45561250000002" fill="none" stroke="rgb(0,178,178)" stroke-width="0.1"/>
  <path d="M 46.47894800000006,96.45561250000002 L 64.47894800000006,96.45561250000002" fill="none" stroke="rgb(0,178,178)" stroke-width="0.1"/>
  <path d="M 44.47894800000006,100.0 L 44.47894800000006,94.45561250000002" fill="none" stroke="rgb(0,178,178)" stroke-width="0.1"/>
  <path d="M 44.47894800000006,94.45561250000002 L 64.47894800000006,94.45561250000002" fill="none" stroke="rgb(0,178,178)" stroke-width="0.1"/>
  <path d="M 93.47894800000006,100.0 L 93.47894800000006,97.45561250000002" fill="none" stroke="rgb(0,178,178)" stroke-width="0.1"/>
  <path d="M 93.47894800000006,97.45561250000002 L 76.47894800000006,97.45561250000002" fill="none" stroke="rgb(0,178,178)" stroke-width="0.1"/>
  <path d="M 95.47894800000006,100.0 L 95.47894800000006,95.45561250000002" fill="none" stroke="rgb(0,178,178)" stroke-width="0.1"/>
  <path d="M 95.47894800000006,95.45561250000002 L 76.47894800000006,95.45561250000002" fill="none" stroke="rgb(0,178,178)" stroke-width="0.1"/>
  <path d="M 94.47894800000006,100.0 L 94.47894800000006,96.45561250000002" fill="none" stroke="rgb(0,178,178)" stroke-width="0.1"/>
  <path d="M 94.47894800000006,96.45561250000002 L 76.47894800000006,96.45561250000002" fill="none" stroke="rgb(0,178,178)" stroke-width="0.1"/>
  <path d="M 96.47894800000006,100.0 L 96.47894800000006,94.45561250000002" fill="none" stroke="rgb(0,178,178)" stroke-width="0.1"/>
  <path d="M 96.47894800000006,94.45561250000002 L 76.47894800000006,94.45561250000002" fill="none" stroke="rgb(0,178,178)" stroke-width="0.1"/>
  <path d="M 25.47894800000006,100.0 L 25.47894800000006,97.45561250000002" fill="none" stroke="rgb(0,178,178)" stroke-width="0.1"/>
  <path d="M 25.47894800000006,97.45561250000002 L 3.4789480000000594,97.45561250000002" fill="none" stroke="rgb(0,178,178)" stroke-width="0.1"/>
  <path d="M 27.47894800000006,100.0 L 27.47894800000006,95.45561250000002" fill="none" stroke="rgb(0,178,178)" stroke-width="0.1"/>
  <path d="M 27.47894800000006,95.45561250000002 L 3.4789480000000594,95.45561250000002" fill="none" stroke="rgb(0,178,178)" stroke-width="0.1"/>
  <path d="M 26.47894800000006,100.0 L 26.47894800000006,96.45561250000002" fill="none" stroke="rgb(0,178,178)" stroke-width="0.1"/>
  <path d="M 26.47894800000006,96.45561250000002 L 3.4789480000000594,96.45561250000002" fill="none" stroke="rgb(0,178,178)" stroke-width="0.1"/>
  <path d="M 28.47894800000006,100.0 L 28.47894800000006,94.45561250000002" fill="none" stroke="rgb(0,178,178)" stroke-width="0.1"/>
  <path d="M 28.47894800000006,94.45561250000002 L 3.4789480000000594,94.45561250000002" fill="none" stroke="rgb(0,178,178)" stroke-width="0.1"/>
  <path d="M 24.72894800000006,100.0 L 24.72894800000006,98.20561250000002" fill="none" stroke="rgb(0,178,178)" stroke-width="0.1"/>
  <path d="M 24.72894800000006,98.20561250000002 L 3.4789480000000594,98.20561250000002" fill="none" stroke="rgb(0,178,178)" stroke-width="0.1"/>
  <path d="M 3.4789480000000594,98.20561250000002 L 3.4789480000000594,97.70561250000002" fill="none" stroke="rgb(0,178,178)" stroke-width="0.1"/>
  <path d="M 3.4789480000000594,97.70561250000002 L 25.22894800000006,97.70561250000002" fill="none" stroke="rgb(0,178,178)" stroke-width="0.1"/>
  <path d="M 25.22894800000006,97.70561250000002 L 25.22894800000006,100.0" fill="none" stroke="rgb(0,178,178)" stroke-width="0.1"/>
  <path d="M 48.22894800000006,100.0 L 48.22894800000006,98.20561250000002" fill="none" stroke="rgb(0,178,178)" stroke-width="0.1"/>
  <path d="M 48.22894800000006,98.20561250000002 L 69.47894800000006,98.20561250000002" fill="none" stroke="rgb(0,178,178)" stroke-width="0.1"/>
  <path d="M 69.47894800000006,98.20561250000002 L 69.47894800000006,97.70561250000002" fill="none" stroke="rgb(0,178,178)" stroke-width="0.1"/>
  <path d="M 69.47894800000006,97.70561250000002 L 47.72894800000006,97.70561250000002" fill="none" stroke="rgb(0,178,178)" stroke-width="0.1"/>
  <path d="M 47.72894800000006,97.70561250000002 L 47.72894800000006,100.0" fill="none" stroke="rgb(0,178,178)" stroke-width="0.1"/>
  <path d="M 92.72894800000006,100.0 L 92.72894800000006,98.20561250000002" fill="none" stroke="rgb(0,178,178)" stroke-width="0.1"/>
  <path d="M 92.72894800000006,98.20561250000002 L 71.47894800000006,98.20561250000002" fill="none" stroke="rgb(0,178,178)" stroke-width="0.1"/>
  <path d="M 71.47894800000006,98.20561250000002 L 71.47894800000006,97.70561250000002" fill="none" stroke="rgb(0,178,178)" stroke-width="0.1"/>
  <path d="M 71.47894800000006,97.70561250000002 L 93.22894800000006,97.70561250000002" fill="none" stroke="rgb(0,178,178)" stroke-width="0.1"/>
  <path d="M 93.22894800000006,97.70561250000002 L 93.22894800000006,100.0" fill="none" stroke="rgb(0,178,178)" stroke-width="0.1"/>
  <path d="M 25.22894800000006,97.70561250000002 L 3.4789480000000594,97.70561250000002" fill="none" stroke="rgb(0,178,178)" stroke-width="0.1"/>
  <path d="M 3.4789480000000594,97.70561250000002 L 3.4789480000000594,98.20561250000002" fill="none" stroke="rgb(0,178,178)" stroke-width="0.1"/>
  <path d="M 3.4789480000000594,98.20561250000002 L 24.72894800000006,98.20561250000002" fill="none" stroke="rgb(0,178,178)" stroke-width="0.1"/>
  <path d="M 24.72894800000006,98.20561250000002 L 24.72894800000006,100.0" fill="none" stroke="rgb(0,178,178)" stroke-width="0.1"/>
  <path d="M 25.22894800000006,100.0 L 25.22894800000006,97.70561250000002" fill="none" stroke="rgb(0,178,178)" stroke-width="0.1"/>
  <path d="M 48.22894800000006,100.0 L 48.22894800000006,98.20561250000002" fill="none" stroke="rgb(0,178,178)" stroke-width="0.1"/>
  <path d="M 48.22894800000006,98.20561250000002 L 69.47894800000006,98.20561250000002" fill="none" stroke="rgb(0,178,178)" stroke-width="0.1"/>
  <path d="M 69.47894800000006,98.20561250000002 L 69.47894800000006,97.70561250000002" fill="none" stroke="rgb(0,178,178)" stroke-width="0.1"/>
  <path d="M 69.47894800000006,97.70561250000002 L 47.72894800000006,97.70561250000002" fill="none" stroke="rgb(0,178,178)" stroke-width="0.1"/>
  <path d="M 47.72894800000006,97.70561250000002 L 47.72894800000006,100.0" fill="none" stroke="rgb(0,178,178)" stroke-width="0.1"/>
  <path d="M 93.22894800000006,97.70561250000002 L 71.47894800000006,97.70561250000002" fill="none" stroke="rgb(0,178,178)" stroke-width="0.1"/>
  <path d="M 71.47894800000006,97.70561250000002 L 71.47894800000006,98.20561250000002" fill="none" stroke="rgb(0,178,178)" stroke-width="0.1"/>
  <path d="M 71.47894800000006,98.20561250000002 L 92.72894800000006,98.20561250000002" fill="none" stroke="rgb(0,178,178)" stroke-width="0.1"/>
  <path d="M 92.72894800000006,98.20561250000002 L 92.72894800000006,100.0" fill="none" stroke="rgb(0,178,178)" stroke-width="0.1"/>
  <path d="M 93.22894800000006,100.0 L 93.22894800000006,97.70561250000002" fill="none" stroke="rgb(0,178,178)" stroke-width="0.1"/>
 </g>
 <g id="layermysel01" inkscape:groupmode="layer" inkscape:label="mysel01">
  <path d="M 3.4789480000000594,95.45561250000002 L 1.4789480000000594,95.45561250000002" fill="none" stroke="rgb(0,0,0)" stroke-width="0.1"/>
  <path d="M 1.4789480000000594,95.45561250000002 L 1.4789480000000594,94.45561250000002" fill="none" stroke="rgb(0,0,0)" stroke-width="0.1"/>
  <path d="M 1.4789480000000594,94.45561250000002 L 3.4789480000000594,94.45561250000002" fill="none" stroke="rgb(0,0,0)" stroke-width="0.1"/>
  <path d="M 3.4789480000000594,94.45561250000002 L 3.4789480000000594,95.45561250000002" fill="none" stroke="rgb(0,0,0)" stroke-width="0.1"/>
 </g>
 <g id="layer墙柱轮廓" inkscape:groupmode="layer" inkscape:label="墙柱轮廓">
  <path d="M 3.4789480000000594,100.0 L 3.4789480000000594,95.45561250000002" fill="none" instance-id="-1" semantic-id="1" stroke="rgb(0,0,0)" stroke-width="0.1"/>
  <path d="M 3.4789480000000594,95.45561250000002 L 0.0,95.45561250000002" fill="none" instance-id="-1" semantic-id="1" stroke="rgb(0,0,0)" stroke-width="0.1"/>
  <path d="M 0.0,97.45561250000002 L 1.4789480000000594,97.45561250000002" fill="none" instance-id="-1" semantic-id="1" stroke="rgb(0,0,0)" stroke-width="0.1"/>
  <path d="M 1.4789480000000594,97.45561250000002 L 1.4789480000000594,100.0" fill="none" instance-id="-1" semantic-id="1" stroke="rgb(0,0,0)" stroke-width="0.1"/>
 </g>
 <g id="layer边缘构件填充" inkscape:groupmode="layer" inkscape:label="边缘构件填充">
  <path d="M 3.4789480000000594,100.0 L 3.4789480000000594,95.45561250000002" fill="none" instance-id="-1" semantic-id="1" stroke="rgb(255,12,12)" stroke-width="0.1"/>
  <path d="M 3.4789480000000594,95.45561250000002 L 0.0,95.45561250000002" fill="none" instance-id="-1" semantic-id="1" stroke="rgb(255,12,12)" stroke-width="0.1"/>
  <path d="M 0.0,97.45561250000002 L 1.4789480000000594,97.45561250000002" fill="none" instance-id="-1" semantic-id="1" stroke="rgb(255,12,12)" stroke-width="0.1"/>
  <path d="M 1.4789480000000594,97.45561250000002 L 1.4789480000000594,100.0" fill="none" instance-id="-1" semantic-id="1" stroke="rgb(255,12,12)" stroke-width="0.1"/>
 </g>
</svg>