<?xml version="1.0" encoding="utf-8"?>
<svg style="background-color: #000;" version="1.1" viewBox="0 0 100.00000000000003 100.00000000000003" xmlns="http://www.w3.org/2000/svg" xmlns:inkscape="http://www.inkscape.org/namespaces/inkscape">
 <g id="layer0" inkscape:groupmode="layer" inkscape:label="0">
  <path d="M 30.240538000000015,13.528733999999986 L 32.81753800000001,5.558733999999987" fill="none" stroke="rgb(89,89,89)" stroke-width="0.1"/>
  <path d="M 32.81753800000001,5.558733999999987 L 40.240538000000015,3.528733999999986" fill="none" stroke="rgb(89,89,89)" stroke-width="0.1"/>
  <path d="M 40.240538000000015,3.528733999999986 L 40.240538000000015,13.528733999999986" fill="none" stroke="rgb(89,89,89)" stroke-width="0.1"/>
  <path d="M 40.240538000000015,13.528733999999986 L 30.240538000000015,13.528733999999986" fill="none" stroke="rgb(89,89,89)" stroke-width="0.1"/>
  <path d="M 30.240538000000015,13.528733999999986 L 30.240538000000015,3.528733999999986" fill="none" stroke="rgb(89,89,89)" stroke-width="0.1"/>
  <path d="M 30.240538000000015,3.528733999999986 L 40.240538000000015,3.528733999999986" fill="none" stroke="rgb(89,89,89)" stroke-width="0.1"/>
 </g>
 <g id="layer0YL" inkscape:groupmode="layer" inkscape:label="0YL">
  <path d="M 36.91353800000002,88.19873399999997 L 32.50953800000002,88.19873399999997" fill="none" stroke="rgb(178,0,178)" stroke-width="0.1"/>
  <path d="M 44.240538000000015,97.52873400000001 L 36.91353800000002,88.19873399999997" fill="none" stroke="rgb(178,0,178)" stroke-width="0.1"/>
  <path d="M 36.91353800000002,84.19873399999997 L 32.480537999999996,84.19873399999997" fill="none" stroke="rgb(178,0,178)" stroke-width="0.1"/>
  <path d="M 44.240538000000015,95.52873400000001 L 36.91353800000002,84.19873399999997" fill="none" stroke="rgb(178,0,178)" stroke-width="0.1"/>
  <path d="M 19.458538000000004,33.90873400000001 L 14.956537999999995,33.90873400000001" fill="none" stroke="rgb(178,0,178)" stroke-width="0.1"/>
  <path d="M 35.48353800000001,25.528734000000014 L 19.458538000000004,33.90873400000001" fill="none" stroke="rgb(178,0,178)" stroke-width="0.1"/>
  <path d="M 89.82553800000002,32.998733999999985 L 85.06753800000001,32.998733999999985" fill="none" stroke="rgb(178,0,178)" stroke-width="0.1"/>
  <path d="M 77.24053800000002,26.528734000000014 L 85.06753800000001,32.998733999999985" fill="none" stroke="rgb(178,0,178)" stroke-width="0.1"/>
  <path d="M 35.683538,24.651734000000005 L 35.683538,26.406734" fill="none" stroke="rgb(178,0,178)" stroke-width="0.1"/>
  <path d="M 35.28353800000002,24.651734000000005 L 35.28353800000002,26.406734" fill="none" stroke="rgb(178,0,178)" stroke-width="0.1"/>
  <path d="M 43.240538000000015,94.52873400000001 L 45.240538000000015,94.52873400000001" fill="none" stroke="rgb(178,0,178)" stroke-width="0.1"/>
  <path d="M 45.240538000000015,94.52873400000001 L 45.240538000000015,100.00000000000003" fill="none" stroke="rgb(178,0,178)" stroke-width="0.1"/>
  <path d="M 43.240538000000015,100.00000000000003 L 43.240538000000015,94.52873400000001" fill="none" stroke="rgb(178,0,178)" stroke-width="0.1"/>
  <circle cx="44.240538000000015" cy="97.52873400000001" fill="none" r="0.75" stroke="rgb(178,0,178)" stroke-width="0.1"/>
  <circle cx="44.240538000000015" cy="95.52873400000001" fill="none" r="0.75" stroke="rgb(178,0,178)" stroke-width="0.1"/>
  <circle cx="77.24053800000002" cy="26.528734000000014" fill="none" r="0.75" stroke="rgb(178,0,178)" stroke-width="0.1"/>
  <circle cx="74.24053800000002" cy="94.43473399999996" fill="none" r="0.75" stroke="rgb(178,0,178)" stroke-width="0.1"/>
  <circle cx="35.48353800000001" cy="25.528734000000014" fill="none" r="0.9" stroke="rgb(178,0,178)" stroke-width="0.1"/>
  <text fill="rgb(178,0,178)" font-family="Noto Sans CJK SC" font-size="2" transform="rotate(-3.14161e-05,32.79253800000001,83.865734)" x="32.79253800000001" y="83.865734">
   JL
  </text>
  <text fill="rgb(178,0,178)" font-family="Noto Sans CJK SC" font-size="2" transform="rotate(-3.14161e-05,32.90653800000001,87.865734)" x="32.90653800000001" y="87.865734">
   YL
  </text>
  <text fill="rgb(178,0,178)" font-family="Noto Sans CJK SC" font-size="2" transform="rotate(-3.14161e-05,15.851538000000005,33.54673399999999)" x="15.851538000000005" y="33.54673399999999">
   YL
  </text>
  <text fill="rgb(178,0,178)" font-family="Noto Sans CJK SC" font-size="2" transform="rotate(-3.14161e-05,85.631538,32.63673399999996)" x="85.631538" y="32.63673399999996">
   KL
  </text>
 </g>
 <g id="layerA-AREA" inkscape:groupmode="layer" inkscape:label="A-AREA">
  <path d="M 27.240538000000015,100.00000000000003 L 27.240538000000015,92.52873400000001" fill="none" stroke="rgb(178,0,0)" stroke-width="0.1"/>
  <path d="M 27.240538000000015,92.52873400000001 L 47.240538000000015,92.52873400000001" fill="none" stroke="rgb(178,0,0)" stroke-width="0.1"/>
  <path d="M 47.240538000000015,92.52873400000001 L 47.240538000000015,26.528734000000014" fill="none" stroke="rgb(178,0,0)" stroke-width="0.1"/>
  <path d="M 47.240538000000015,26.528734000000014 L 28.240538000000015,26.528734000000014" fill="none" stroke="rgb(178,0,0)" stroke-width="0.1"/>
  <path d="M 28.240538000000015,26.528734000000014 L 28.240538000000015,0.0" fill="none" stroke="rgb(178,0,0)" stroke-width="0.1"/>
 </g>
 <g id="layerA-FLOR-STRS" inkscape:groupmode="layer" inkscape:label="A-FLOR-STRS">
  <path d="M 89.64053800000002,98.52873400000001 L 89.64053800000002,100.00000000000003" fill="none" stroke="rgb(178,178,0)" stroke-width="0.1"/>
  <path d="M 92.440538,98.52873400000001 L 92.440538,100.00000000000003" fill="none" stroke="rgb(178,178,0)" stroke-width="0.1"/>
  <path d="M 95.24053799999999,98.52873400000001 L 95.24053799999999,100.00000000000003" fill="none" stroke="rgb(178,178,0)" stroke-width="0.1"/>
  <path d="M 98.040538,98.52873400000001 L 98.040538,100.00000000000003" fill="none" stroke="rgb(178,178,0)" stroke-width="0.1"/>
  <path d="M 86.84053800000001,98.52873400000001 L 86.84053800000001,100.00000000000003" fill="none" stroke="rgb(178,178,0)" stroke-width="0.1"/>
  <path d="M 86.24053800000002,100.00000000000003 L 86.24053800000002,98.52873400000001" fill="none" stroke="rgb(178,178,0)" stroke-width="0.1"/>
  <path d="M 86.84053800000001,100.00000000000003 L 86.84053800000001,98.52873400000001" fill="none" stroke="rgb(178,178,0)" stroke-width="0.1"/>
 </g>
 <g id="layerA-LVTRY" inkscape:groupmode="layer" inkscape:label="A-LVTRY">
  <path d="M 41.37653800000001,94.52873400000001 L 41.37653800000001,99.40073399999997" fill="none" instance-id="2" semantic-id="23" stroke="rgb(178,0,178)" stroke-width="0.1"/>
  <path d="M 41.12053800000001,94.52873400000001 L 41.12053800000001,99.40073399999997" fill="none" instance-id="2" semantic-id="23" stroke="rgb(178,0,178)" stroke-width="0.1"/>
  <path d="M 35.023538,94.52873400000001 L 35.023538,99.40073399999997" fill="none" instance-id="2" semantic-id="23" stroke="rgb(178,0,178)" stroke-width="0.1"/>
  <path d="M 35.28053800000001,94.52873400000001 L 35.28053800000001,99.40073399999997" fill="none" instance-id="2" semantic-id="23" stroke="rgb(178,0,178)" stroke-width="0.1"/>
  <path d="M 38.784538,96.08373399999996 L 37.61653800000002,96.08373399999996" fill="none" instance-id="2" semantic-id="23" stroke="rgb(178,0,178)" stroke-width="0.1"/>
  <path d="M 38.30053800000002,95.45873399999996 L 39.70053800000002,95.45873399999996" fill="none" instance-id="2" semantic-id="23" stroke="rgb(178,0,178)" stroke-width="0.1"/>
  <path d="M 38.100538,94.77173400000001 L 38.100538,95.67173399999999" fill="none" instance-id="2" semantic-id="23" stroke="rgb(178,0,178)" stroke-width="0.1"/>
  <path d="M 38.30053800000002,94.77173400000001 L 38.30053800000002,95.67173399999999" fill="none" instance-id="2" semantic-id="23" stroke="rgb(178,0,178)" stroke-width="0.1"/>
  <path d="M 38.30053800000002,94.77173400000001 L 38.100538,94.77173400000001" fill="none" instance-id="2" semantic-id="23" stroke="rgb(178,0,178)" stroke-width="0.1"/>
  <path d="M 38.30053800000002,95.079734 L 38.100538,95.079734" fill="none" instance-id="2" semantic-id="23" stroke="rgb(178,0,178)" stroke-width="0.1"/>
  <path d="M 38.30053800000002,94.96873400000001 L 38.100538,94.96873400000001" fill="none" instance-id="2" semantic-id="23" stroke="rgb(178,0,178)" stroke-width="0.1"/>
  <path d="M 38.30053800000002,94.89773399999999 L 38.100538,94.89773399999999" fill="none" instance-id="2" semantic-id="23" stroke="rgb(178,0,178)" stroke-width="0.1"/>
  <path d="M 38.30053800000002,94.88473400000001 L 38.100538,94.88473400000001" fill="none" instance-id="2" semantic-id="23" stroke="rgb(178,0,178)" stroke-width="0.1"/>
  <path d="M 38.30053800000002,95.03973399999998 L 38.100538,95.03973399999998" fill="none" instance-id="2" semantic-id="23" stroke="rgb(178,0,178)" stroke-width="0.1"/>
  <path d="M 38.30053800000002,94.94873399999997 L 38.100538,94.94873399999997" fill="none" instance-id="2" semantic-id="23" stroke="rgb(178,0,178)" stroke-width="0.1"/>
  <path d="M 38.30053800000002,94.85073399999996 L 38.100538,94.85073399999996" fill="none" instance-id="2" semantic-id="23" stroke="rgb(178,0,178)" stroke-width="0.1"/>
  <path d="M 38.30053800000002,94.80773400000001 L 38.100538,94.80773400000001" fill="none" instance-id="2" semantic-id="23" stroke="rgb(178,0,178)" stroke-width="0.1"/>
  <path d="M 38.30053800000002,94.81973400000001 L 38.100538,94.81973400000001" fill="none" instance-id="2" semantic-id="23" stroke="rgb(178,0,178)" stroke-width="0.1"/>
  <path d="M 36.70053800000002,95.45873399999996 L 38.100538,95.45873399999996" fill="none" instance-id="2" semantic-id="23" stroke="rgb(178,0,178)" stroke-width="0.1"/>
  <path d="M 38.20053800000002,96.66773399999997 L 38.20053800000002,95.49973399999996" fill="none" instance-id="2" semantic-id="23" stroke="rgb(178,0,178)" stroke-width="0.1"/>
  <path d="M 30.240538000000015,99.41473399999998 L 31.136538,99.41473399999998" fill="none" stroke="rgb(178,0,178)" stroke-width="0.1"/>
  <path d="M 30.240538000000015,99.21473399999999 L 31.136538,99.21473399999999" fill="none" stroke="rgb(178,0,178)" stroke-width="0.1"/>
  <path d="M 30.240538000000015,95.41473399999998 L 31.136538,95.41473399999998" fill="none" stroke="rgb(178,0,178)" stroke-width="0.1"/>
  <path d="M 30.240538000000015,95.21473399999999 L 31.136538,95.21473399999999" fill="none" stroke="rgb(178,0,178)" stroke-width="0.1"/>
  <path d="M 41.12053800000001,99.40073399999997 A 0.12825,0.12825 0.0 1,0 41.37653800000001,99.40073399999997" fill="none" instance-id="2" semantic-id="23" stroke="rgb(178,0,178)" stroke-width="0.1"/>
  <path d="M 35.023538,99.40073399999997 A 0.12850000000000253,0.12850000000000253 0.0 1,0 35.28053800000001,99.40073399999997" fill="none" instance-id="2" semantic-id="23" stroke="rgb(178,0,178)" stroke-width="0.1"/>
  <path d="M 36.57553800000002,97.45873399999996 A 2.45986,2.45986 0.0 0,0 39.70053800000002,97.58373399999996" fill="none" instance-id="2" semantic-id="23" stroke="rgb(178,0,178)" stroke-width="0.1"/>
  <path d="M 36.70053800000002,95.45873399999996 A 1.3673,1.3673 0.0 0,0 36.57553800000002,97.45873399999996" fill="none" instance-id="2" semantic-id="23" stroke="rgb(178,0,178)" stroke-width="0.1"/>
  <path d="M 38.100538,95.67173399999999 A 0.10000000000000854,0.10000000000000854 0.0 1,0 38.30053800000002,95.67173399999999" fill="none" instance-id="2" semantic-id="23" stroke="rgb(178,0,178)" stroke-width="0.1"/>
  <path d="M 39.70053800000002,97.58373399999996 A 1.37642,1.37642 0.0 0,0 39.70053800000002,95.45873399999996" fill="none" instance-id="2" semantic-id="23" stroke="rgb(178,0,178)" stroke-width="0.1"/>
  <path d="M 31.14053800000002,99.41473399999998 A 0.1,0.1 0.0 1,0 31.14053800000002,99.21473399999999" fill="none" stroke="rgb(178,0,178)" stroke-width="0.1"/>
  <path d="M 31.14053800000002,95.41473399999998 A 0.1,0.1 0.0 1,0 31.14053800000002,95.21473399999999" fill="none" stroke="rgb(178,0,178)" stroke-width="0.1"/>
  <path d="M 31.136538,99.21473399999999 L 31.136538,95.41473399999998" fill="none" stroke="rgb(178,0,178)" stroke-width="0.1"/>
  <path d="M 30.986537999999996,99.21473399999999 L 30.986537999999996,95.41473399999998" fill="none" stroke="rgb(178,0,178)" stroke-width="0.1"/>
  <circle cx="38.20053800000002" cy="96.08373399999996" fill="none" instance-id="2" r="0.25" semantic-id="23" stroke="rgb(178,0,178)" stroke-width="0.1"/>
  <circle cx="37.57553800000002" cy="94.95873399999996" fill="none" instance-id="2" r="0.1875" semantic-id="23" stroke="rgb(178,0,178)" stroke-width="0.1"/>
  <circle cx="38.82553800000002" cy="94.95873399999996" fill="none" instance-id="2" r="0.1875" semantic-id="23" stroke="rgb(178,0,178)" stroke-width="0.1"/>
 </g>
 <g id="layerA-平面-楼电梯" inkscape:groupmode="layer" inkscape:label="A-平面-楼电梯">
  <path d="M 33.240538000000015,26.528734000000014 L 47.240538000000015,26.528734000000014" fill="none" instance-id="5" semantic-id="30" stroke="rgb(134,134,134)" stroke-width="0.1"/>
  <path d="M 33.240538000000015,29.12873399999998 L 47.240538000000015,29.12873399999998" fill="none" instance-id="5" semantic-id="30" stroke="rgb(134,134,134)" stroke-width="0.1"/>
  <path d="M 32.240538000000015,31.728734000000003 L 47.240538000000015,31.728734000000003" fill="none" instance-id="5" semantic-id="30" stroke="rgb(134,134,134)" stroke-width="0.1"/>
  <path d="M 32.240538000000015,34.32873399999997 L 47.240538000000015,34.32873399999997" fill="none" instance-id="5" semantic-id="30" stroke="rgb(134,134,134)" stroke-width="0.1"/>
  <path d="M 32.240538000000015,36.92873399999999 L 47.240538000000015,36.92873399999999" fill="none" instance-id="5" semantic-id="30" stroke="rgb(134,134,134)" stroke-width="0.1"/>
  <path d="M 32.240538000000015,39.528734000000014 L 47.240538000000015,39.528734000000014" fill="none" instance-id="5" semantic-id="30" stroke="rgb(134,134,134)" stroke-width="0.1"/>
  <path d="M 32.240538000000015,42.12873399999998 L 47.240538000000015,42.12873399999998" fill="none" instance-id="5" semantic-id="30" stroke="rgb(134,134,134)" stroke-width="0.1"/>
  <path d="M 32.240538000000015,44.728734 L 47.240538000000015,44.728734" fill="none" instance-id="5" semantic-id="30" stroke="rgb(134,134,134)" stroke-width="0.1"/>
  <path d="M 32.240538000000015,47.32873399999997 L 47.240538000000015,47.32873399999997" fill="none" instance-id="5" semantic-id="30" stroke="rgb(134,134,134)" stroke-width="0.1"/>
  <path d="M 31.240538000000015,48.32873399999997 L 32.240538000000015,48.32873399999997" fill="none" instance-id="5" semantic-id="30" stroke="rgb(134,134,134)" stroke-width="0.1"/>
  <path d="M 33.240538000000015,28.528734000000014 L 33.240538000000015,29.12873399999998" fill="none" instance-id="5" semantic-id="30" stroke="rgb(134,134,134)" stroke-width="0.1"/>
  <path d="M 100.00000000000003,98.52873400000001 L 86.74053800000002,98.52873400000001" fill="none" stroke="rgb(134,134,134)" stroke-width="0.1"/>
  <path d="M 31.240538000000015,28.528734000000014 L 31.240538000000015,48.32873399999997" fill="none" instance-id="5" semantic-id="30" stroke="rgb(134,134,134)" stroke-width="0.1"/>
  <path d="M 32.240538000000015,28.528734000000014 L 32.240538000000015,48.32873399999997" fill="none" instance-id="5" semantic-id="30" stroke="rgb(134,134,134)" stroke-width="0.1"/>
 </g>
 <g id="layerA-通用-其他符号" inkscape:groupmode="layer" inkscape:label="A-通用-其他符号">
  <path d="M 43.427538,13.11873399999999 L 38.15753800000002,19.657733999999977" fill="none" stroke="rgb(0,178,0)" stroke-width="0.1"/>
  <path d="M 38.15753800000002,19.657733999999977 L 36.27553800000001,21.99373399999999" fill="none" stroke="rgb(0,178,0)" stroke-width="0.1"/>
 </g>
 <g id="layerA-通用-填充墙" inkscape:groupmode="layer" inkscape:label="A-通用-填充墙">
  <path d="M 71.24053800000002,21.528734000000014 L 79.24053800000002,21.528734000000014" fill="none" instance-id="-1" semantic-id="1" stroke="rgb(178,178,0)" stroke-width="0.1"/>
  <path d="M 47.240538000000015,92.52873400000001 L 27.240538000000015,92.52873400000001" fill="none" instance-id="-1" semantic-id="1" stroke="rgb(178,178,0)" stroke-width="0.1"/>
  <path d="M 48.240538000000015,94.52873400000001 L 30.240538000000015,94.52873400000001" fill="none" instance-id="-1" semantic-id="1" stroke="rgb(178,178,0)" stroke-width="0.1"/>
  <path d="M 48.240538000000015,1.5287339999999858 L 48.240538000000015,0.0" fill="none" instance-id="-1" semantic-id="1" stroke="rgb(178,178,0)" stroke-width="0.1"/>
  <path d="M 30.240538000000015,0.0 L 30.240538000000015,1.5287339999999858" fill="none" instance-id="-1" semantic-id="1" stroke="rgb(178,178,0)" stroke-width="0.1"/>
  <path d="M 48.240538000000015,1.5287339999999858 L 30.240538000000015,1.5287339999999858" fill="none" instance-id="-1" semantic-id="1" stroke="rgb(178,178,0)" stroke-width="0.1"/>
  <path d="M 47.240538000000015,3.528733999999986 L 30.240538000000015,3.528733999999986" fill="none" instance-id="-1" semantic-id="1" stroke="rgb(178,178,0)" stroke-width="0.1"/>
  <path d="M 50.240538000000015,0.0 L 50.240538000000015,4.528733999999986" fill="none" instance-id="-1" semantic-id="1" stroke="rgb(178,178,0)" stroke-width="0.1"/>
  <path d="M 50.240538000000015,4.528733999999986 L 47.240538000000015,4.528733999999986" fill="none" instance-id="-1" semantic-id="1" stroke="rgb(178,178,0)" stroke-width="0.1"/>
  <path d="M 47.240538000000015,4.528733999999986 L 47.240538000000015,3.528733999999986" fill="none" instance-id="-1" semantic-id="1" stroke="rgb(178,178,0)" stroke-width="0.1"/>
  <path d="M 48.240538000000015,43.528734000000014 L 47.240538000000015,43.528734000000014" fill="none" instance-id="-1" semantic-id="1" stroke="rgb(178,178,0)" stroke-width="0.1"/>
  <path d="M 47.240538000000015,43.528734000000014 L 47.240538000000015,13.528733999999986" fill="none" instance-id="-1" semantic-id="1" stroke="rgb(178,178,0)" stroke-width="0.1"/>
  <path d="M 47.240538000000015,13.528733999999986 L 50.240538000000015,13.528733999999986" fill="none" instance-id="-1" semantic-id="1" stroke="rgb(178,178,0)" stroke-width="0.1"/>
  <path d="M 28.240538000000015,0.0 L 28.240538000000015,26.528734000000014" fill="none" instance-id="-1" semantic-id="1" stroke="rgb(178,178,0)" stroke-width="0.1"/>
  <path d="M 30.240538000000015,3.528733999999986 L 30.240538000000015,24.528734000000014" fill="none" instance-id="-1" semantic-id="1" stroke="rgb(178,178,0)" stroke-width="0.1"/>
  <path d="M 73.24053800000002,23.528734000000014 L 73.24053800000002,27.528734000000014" fill="none" instance-id="-1" semantic-id="1" stroke="rgb(178,178,0)" stroke-width="0.1"/>
  <path d="M 48.240538000000015,100.00000000000003 L 48.240538000000015,94.52873400000001" fill="none" instance-id="-1" semantic-id="1" stroke="rgb(178,178,0)" stroke-width="0.1"/>
  <path d="M 27.240538000000015,92.52873400000001 L 27.240538000000015,99.02873400000001" fill="none" instance-id="-1" semantic-id="1" stroke="rgb(178,178,0)" stroke-width="0.1"/>
  <path d="M 27.240538000000015,99.02873400000001 L 28.240538000000015,99.02873400000001" fill="none" instance-id="-1" semantic-id="1" stroke="rgb(178,178,0)" stroke-width="0.1"/>
  <path d="M 28.240538000000015,100.00000000000003 L 28.240538000000015,99.02873400000001" fill="none" instance-id="-1" semantic-id="1" stroke="rgb(178,178,0)" stroke-width="0.1"/>
  <path d="M 48.240538000000015,73.52873400000001 L 47.240538000000015,73.52873400000001" fill="none" instance-id="-1" semantic-id="1" stroke="rgb(178,178,0)" stroke-width="0.1"/>
  <path d="M 47.240538000000015,73.52873400000001 L 47.240538000000015,92.52873400000001" fill="none" instance-id="-1" semantic-id="1" stroke="rgb(178,178,0)" stroke-width="0.1"/>
  <path d="M 50.240538000000015,13.528733999999986 L 50.240538000000015,45.028734000000014" fill="none" instance-id="-1" semantic-id="1" stroke="rgb(178,178,0)" stroke-width="0.1"/>
  <path d="M 50.240538000000015,45.028734000000014 L 48.240538000000015,45.028734000000014" fill="none" instance-id="-1" semantic-id="1" stroke="rgb(178,178,0)" stroke-width="0.1"/>
  <path d="M 48.240538000000015,45.028734000000014 L 48.240538000000015,43.528734000000014" fill="none" instance-id="-1" semantic-id="1" stroke="rgb(178,178,0)" stroke-width="0.1"/>
  <path d="M 48.240538000000015,73.52873400000001 L 48.240538000000015,72.02873400000001" fill="none" instance-id="-1" semantic-id="1" stroke="rgb(178,178,0)" stroke-width="0.1"/>
  <path d="M 48.240538000000015,72.02873400000001 L 50.240538000000015,72.02873400000001" fill="none" instance-id="-1" semantic-id="1" stroke="rgb(178,178,0)" stroke-width="0.1"/>
  <path d="M 50.240538000000015,72.02873400000001 L 50.240538000000015,100.00000000000003" fill="none" instance-id="-1" semantic-id="1" stroke="rgb(178,178,0)" stroke-width="0.1"/>
  <path d="M 34.240538000000015,24.528734000000014 L 30.240538000000015,24.528734000000014" fill="none" instance-id="-1" semantic-id="1" stroke="rgb(178,178,0)" stroke-width="0.1"/>
  <path d="M 34.240538000000015,26.528734000000014 L 28.240538000000015,26.528734000000014" fill="none" instance-id="-1" semantic-id="1" stroke="rgb(178,178,0)" stroke-width="0.1"/>
  <path d="M 34.240538000000015,24.528734000000014 L 34.240538000000015,26.528734000000014" fill="none" instance-id="-1" semantic-id="1" stroke="rgb(178,178,0)" stroke-width="0.1"/>
  <path d="M 73.24053800000002,28.528734000000014 L 84.24053800000002,28.528734000000014" fill="none" instance-id="-1" semantic-id="1" stroke="rgb(178,178,0)" stroke-width="0.1"/>
  <path d="M 73.24053800000002,27.528734000000014 L 83.24053800000002,27.528734000000014" fill="none" instance-id="-1" semantic-id="1" stroke="rgb(178,178,0)" stroke-width="0.1"/>
  <path d="M 84.24053800000002,23.528734000000014 L 100.00000000000003,23.528734000000014" fill="none" instance-id="-1" semantic-id="1" stroke="rgb(178,178,0)" stroke-width="0.1"/>
  <path d="M 73.24053800000002,23.528734000000014 L 83.24053800000002,23.528734000000014" fill="none" instance-id="-1" semantic-id="1" stroke="rgb(178,178,0)" stroke-width="0.1"/>
  <path d="M 72.24053800000002,98.52873400000001 L 72.24053800000002,100.00000000000003" fill="none" instance-id="-1" semantic-id="1" stroke="rgb(178,178,0)" stroke-width="0.1"/>
  <path d="M 79.24053800000002,21.528734000000014 L 79.24053800000002,17.528733999999986" fill="none" instance-id="-1" semantic-id="1" stroke="rgb(178,178,0)" stroke-width="0.1"/>
  <path d="M 79.24053800000002,17.528733999999986 L 81.24053800000002,17.528733999999986" fill="none" instance-id="-1" semantic-id="1" stroke="rgb(178,178,0)" stroke-width="0.1"/>
  <path d="M 81.24053800000002,17.528733999999986 L 81.24053800000002,21.528734000000014" fill="none" instance-id="-1" semantic-id="1" stroke="rgb(178,178,0)" stroke-width="0.1"/>
  <path d="M 75.24053800000002,93.52873400000001 L 75.24053800000002,96.52873400000001" fill="none" instance-id="-1" semantic-id="1" stroke="rgb(178,178,0)" stroke-width="0.1"/>
  <path d="M 76.24053800000002,92.52873400000001 L 76.24053800000002,96.52873400000001" fill="none" instance-id="-1" semantic-id="1" stroke="rgb(178,178,0)" stroke-width="0.1"/>
  <path d="M 83.24053800000002,23.528734000000014 L 83.24053800000002,27.528734000000014" fill="none" instance-id="-1" semantic-id="1" stroke="rgb(178,178,0)" stroke-width="0.1"/>
  <path d="M 84.24053800000002,23.528734000000014 L 84.24053800000002,28.528734000000014" fill="none" instance-id="-1" semantic-id="1" stroke="rgb(178,178,0)" stroke-width="0.1"/>
  <path d="M 75.24053800000002,93.52873400000001 L 73.24053800000002,93.52873400000001" fill="none" instance-id="-1" semantic-id="1" stroke="rgb(178,178,0)" stroke-width="0.1"/>
  <path d="M 75.24053800000002,96.52873400000001 L 73.24053800000002,96.52873400000001" fill="none" instance-id="-1" semantic-id="1" stroke="rgb(178,178,0)" stroke-width="0.1"/>
  <path d="M 100.00000000000003,98.52873400000001 L 72.24053800000002,98.52873400000001" fill="none" instance-id="-1" semantic-id="1" stroke="rgb(178,178,0)" stroke-width="0.1"/>
  <path d="M 81.24053800000002,21.528734000000014 L 100.00000000000003,21.528734000000014" fill="none" instance-id="-1" semantic-id="1" stroke="rgb(178,178,0)" stroke-width="0.1"/>
  <path d="M 100.00000000000003,96.52873400000001 L 76.24053800000002,96.52873400000001" fill="none" instance-id="-1" semantic-id="1" stroke="rgb(178,178,0)" stroke-width="0.1"/>
  <path d="M 73.24053800000002,28.528734000000014 L 73.24053800000002,30.528734000000014" fill="none" instance-id="-1" semantic-id="1" stroke="rgb(178,178,0)" stroke-width="0.1"/>
  <path d="M 73.24053800000002,30.528734000000014 L 71.24053800000002,30.528734000000014" fill="none" instance-id="-1" semantic-id="1" stroke="rgb(178,178,0)" stroke-width="0.1"/>
  <path d="M 71.24053800000002,30.528734000000014 L 71.24053800000002,21.528734000000014" fill="none" instance-id="-1" semantic-id="1" stroke="rgb(178,178,0)" stroke-width="0.1"/>
  <path d="M 71.24053800000002,92.52873400000001 L 76.24053800000002,92.52873400000001" fill="none" instance-id="-1" semantic-id="1" stroke="rgb(178,178,0)" stroke-width="0.1"/>
  <path d="M 73.24053800000002,92.52873400000001 L 73.24053800000002,94.52873400000001" fill="none" instance-id="-1" semantic-id="1" stroke="rgb(178,178,0)" stroke-width="0.1"/>
  <path d="M 71.24053800000002,92.52873400000001 L 71.24053800000002,100.00000000000003" fill="none" instance-id="-1" semantic-id="1" stroke="rgb(178,178,0)" stroke-width="0.1"/>
  <path d="M 73.244538,93.52873400000001 L 73.244538,96.52873400000001" fill="none" instance-id="-1" semantic-id="1" stroke="rgb(178,178,0)" stroke-width="0.1"/>
  <path d="M 30.240538000000015,100.00000000000003 L 30.240538000000015,94.52873400000001" fill="none" instance-id="-1" semantic-id="1" stroke="rgb(178,178,0)" stroke-width="0.1"/>
  <path d="M 32.240538000000015,92.52873400000001 L 32.240538000000015,94.52873400000001" fill="none" instance-id="-1" semantic-id="1" stroke="rgb(178,178,0)" stroke-width="0.1"/>
  <path d="M 32.240538000000015,94.52873400000001 L 30.240538000000015,94.52873400000001" fill="none" instance-id="-1" semantic-id="1" stroke="rgb(178,178,0)" stroke-width="0.1"/>
  <path d="M 30.240538000000015,94.52873400000001 L 30.240538000000015,97.52873400000001" fill="none" instance-id="-1" semantic-id="1" stroke="rgb(178,178,0)" stroke-width="0.1"/>
  <path d="M 30.240538000000015,97.52873400000001 L 27.240538000000015,97.52873400000001" fill="none" instance-id="-1" semantic-id="1" stroke="rgb(178,178,0)" stroke-width="0.1"/>
  <path d="M 27.240538000000015,97.52873400000001 L 27.240538000000015,92.52873400000001" fill="none" instance-id="-1" semantic-id="1" stroke="rgb(178,178,0)" stroke-width="0.1"/>
  <path d="M 27.240538000000015,92.52873400000001 L 32.240538000000015,92.52873400000001" fill="none" instance-id="-1" semantic-id="1" stroke="rgb(178,178,0)" stroke-width="0.1"/>
  <path d="M 71.24053800000002,26.528734000000014 L 71.24053800000002,21.528734000000014" fill="none" instance-id="-1" semantic-id="1" stroke="rgb(178,178,0)" stroke-width="0.1"/>
  <path d="M 71.24053800000002,21.528734000000014 L 76.24053800000002,21.528734000000014" fill="none" instance-id="-1" semantic-id="1" stroke="rgb(178,178,0)" stroke-width="0.1"/>
  <path d="M 76.24053800000002,21.528734000000014 L 76.24053800000002,26.528734000000014" fill="none" instance-id="-1" semantic-id="1" stroke="rgb(178,178,0)" stroke-width="0.1"/>
  <path d="M 76.24053800000002,26.528734000000014 L 71.24053800000002,26.528734000000014" fill="none" instance-id="-1" semantic-id="1" stroke="rgb(178,178,0)" stroke-width="0.1"/>
  <path d="M 28.240538000000015,26.528734000000014 L 28.240538000000015,21.528734000000014" fill="none" instance-id="-1" semantic-id="1" stroke="rgb(178,178,0)" stroke-width="0.1"/>
  <path d="M 28.240538000000015,21.528734000000014 L 34.240538000000015,21.528734000000014" fill="none" instance-id="-1" semantic-id="1" stroke="rgb(178,178,0)" stroke-width="0.1"/>
  <path d="M 34.240538000000015,21.528734000000014 L 34.240538000000015,26.528734000000014" fill="none" instance-id="-1" semantic-id="1" stroke="rgb(178,178,0)" stroke-width="0.1"/>
  <path d="M 34.240538000000015,26.528734000000014 L 28.240538000000015,26.528734000000014" fill="none" instance-id="-1" semantic-id="1" stroke="rgb(178,178,0)" stroke-width="0.1"/>
  <path d="M 45.240538000000015,92.52873400000001 L 45.240538000000015,100.00000000000003" fill="none" instance-id="-1" semantic-id="1" stroke="rgb(178,178,0)" stroke-width="0.1"/>
  <path d="M 50.240538000000015,100.00000000000003 L 50.240538000000015,92.52873400000001" fill="none" instance-id="-1" semantic-id="1" stroke="rgb(178,178,0)" stroke-width="0.1"/>
  <path d="M 50.240538000000015,92.52873400000001 L 45.240538000000015,92.52873400000001" fill="none" instance-id="-1" semantic-id="1" stroke="rgb(178,178,0)" stroke-width="0.1"/>
 </g>
 <g id="layerA-通用-备注文字" inkscape:groupmode="layer" inkscape:label="A-通用-备注文字">
  <text fill="rgb(0,178,0)" font-family="Noto Sans CJK SC" font-size="2" transform="rotate(-0.0,4.408538000000021,42.363733999999994)" x="4.408538000000021" y="42.363733999999994">
   楼梯栏杆
  </text>
  <text fill="rgb(0,178,0)" font-family="Noto Sans CJK SC" font-size="2" transform="rotate(-0.0,3.663538000000017,48.668734)" x="3.663538000000017" y="48.668734">
   参
  </text>
  <text fill="rgb(0,178,0)" font-family="Noto Sans CJK SC" font-size="2" transform="rotate(-0.0,6.8065380000000175,48.668734)" x="6.8065380000000175" y="48.668734">
   12J926
  </text>
 </g>
 <g id="layerA-通用-引注" inkscape:groupmode="layer" inkscape:label="A-通用-引注">
  <path d="M 48.00153800000001,10.240733999999975 L 19.64453800000001,20.096733999999998" fill="none" stroke="rgb(0,178,0)" stroke-width="0.1"/>
  <path d="M 19.64453800000001,20.096733999999998 L 0.0,20.096733999999998" fill="none" stroke="rgb(0,178,0)" stroke-width="0.1"/>
  <path d="M 32.54253800000001,5.920733999999982 L 24.547891582104768,0.0" fill="none" stroke="rgb(0,178,0)" stroke-width="0.1"/>
  <path d="M 72.24053800000002,87.59573399999996 L 100.00000000000003,87.59573399999996" fill="none" stroke="rgb(0,178,0)" stroke-width="0.1"/>
  <path d="M 80.189538,3.902733999999981 L 100.00000000000003,3.902733999999981" fill="none" stroke="rgb(0,178,0)" stroke-width="0.1"/>
  <path d="M 47.81253800000002,10.306733999999977 A 0.20002812302273237,0.20002812302273237 0.0 1,0 48.190538000000004,10.175733999999977" fill="none" stroke="rgb(0,178,0)" stroke-width="0.1"/>
  <path d="M 48.190538000000004,10.175733999999977 A 0.20002812302273237,0.20002812302273237 0.0 1,0 47.81253800000002,10.306733999999977" fill="none" stroke="rgb(0,178,0)" stroke-width="0.1"/>
  <path d="M 32.381538000000006,5.801733999999982 A 0.20020489504505223,0.20020489504505223 0.0 1,0 32.70353800000001,6.0397339999999815" fill="none" stroke="rgb(0,178,0)" stroke-width="0.1"/>
  <path d="M 32.70353800000001,6.0397339999999815 A 0.20020489504505223,0.20020489504505223 0.0 1,0 32.381538000000006,5.801733999999982" fill="none" stroke="rgb(0,178,0)" stroke-width="0.1"/>
  <path d="M 72.440538,87.59573399999996 A 0.20000000000000287,0.20000000000000287 0.0 1,0 72.040538,87.59573399999996" fill="none" stroke="rgb(0,178,0)" stroke-width="0.1"/>
  <path d="M 72.040538,87.59573399999996 A 0.20000000000000287,0.20000000000000287 0.0 1,0 72.440538,87.59573399999996" fill="none" stroke="rgb(0,178,0)" stroke-width="0.1"/>
  <path d="M 80.38953800000002,3.902733999999981 A 0.20000000000000287,0.20000000000000287 0.0 1,0 79.98953800000001,3.902733999999981" fill="none" stroke="rgb(0,178,0)" stroke-width="0.1"/>
  <path d="M 79.98953800000001,3.902733999999981 A 0.20000000000000287,0.20000000000000287 0.0 1,0 80.38953800000002,3.902733999999981" fill="none" stroke="rgb(0,178,0)" stroke-width="0.1"/>
  <path d="M 0.0,9.731733999999989 L 39.226538000000005,9.731733999999989" fill="none" stroke="rgb(0,178,0)" stroke-width="0.1"/>
  <path d="M 39.226538000000005,9.731733999999989 L 44.22953800000002,9.731733999999989" fill="none" stroke="rgb(0,178,0)" stroke-width="0.1"/>
 </g>
 <g id="layerA-通用-标注" inkscape:groupmode="layer" inkscape:label="A-通用-标注">
  <path d="M 76.24053800000002,92.01573399999998 L 76.24053800000002,89.55173399999998" fill="none" stroke="rgb(0,178,0)" stroke-width="0.1"/>
  <path d="M 72.24053800000002,92.01573399999998 L 72.24053800000002,89.55173399999998" fill="none" stroke="rgb(0,178,0)" stroke-width="0.1"/>
  <path d="M 77.24053800000002,92.05173399999998 L 78.24053800000002,92.05173399999998" fill="none" stroke="rgb(0,178,0)" stroke-width="0.1"/>
  <path d="M 71.24053800000002,92.05173399999998 L 70.24053800000002,92.05173399999998" fill="none" stroke="rgb(0,178,0)" stroke-width="0.1"/>
  <path d="M 76.24053800000002,92.05173399999998 L 72.24053800000002,92.05173399999998" fill="none" stroke="rgb(0,178,0)" stroke-width="0.1"/>
  <path d="M 58.29553800000002,99.52873400000001 L 62.889538000000016,99.52873400000001" fill="none" stroke="rgb(0,178,0)" stroke-width="0.1"/>
  <path d="M 60.389538000000016,98.52873400000001 L 60.389538000000016,97.52873400000001" fill="none" stroke="rgb(0,178,0)" stroke-width="0.1"/>
  <path d="M 60.389538000000016,100.00000000000003 L 60.389538000000016,99.52873400000001" fill="none" stroke="rgb(0,178,0)" stroke-width="0.1"/>
  <path d="M 27.839538000000005,1.5287339999999858 L 22.00753800000001,1.5287339999999858" fill="none" stroke="rgb(0,178,0)" stroke-width="0.1"/>
  <path d="M 24.50753800000001,2.528733999999986 L 24.50753800000001,3.528733999999986" fill="none" stroke="rgb(0,178,0)" stroke-width="0.1"/>
  <path d="M 24.50753800000001,1.5287339999999858 L 24.50753800000001,0.0" fill="none" stroke="rgb(0,178,0)" stroke-width="0.1"/>
  <path d="M 29.240538000000015,52.488733999999994 L 29.240538000000015,60.099733999999984" fill="none" stroke="rgb(0,178,0)" stroke-width="0.1"/>
  <path d="M 22.740538000000015,52.488733999999994 L 22.740538000000015,60.099733999999984" fill="none" stroke="rgb(0,178,0)" stroke-width="0.1"/>
  <path d="M 28.240538000000015,57.599733999999984 L 23.740538000000015,57.599733999999984" fill="none" stroke="rgb(0,178,0)" stroke-width="0.1"/>
  <path d="M 33.240538000000015,52.488733999999994 L 33.240538000000015,60.099733999999984" fill="none" stroke="rgb(0,178,0)" stroke-width="0.1"/>
  <path d="M 29.240538000000015,52.488733999999994 L 29.240538000000015,60.099733999999984" fill="none" stroke="rgb(0,178,0)" stroke-width="0.1"/>
  <path d="M 34.240538000000015,57.599733999999984 L 35.240538000000015,57.599733999999984" fill="none" stroke="rgb(0,178,0)" stroke-width="0.1"/>
  <path d="M 28.240538000000015,57.599733999999984 L 27.240538000000015,57.599733999999984" fill="none" stroke="rgb(0,178,0)" stroke-width="0.1"/>
  <path d="M 33.240538000000015,57.599733999999984 L 29.240538000000015,57.599733999999984" fill="none" stroke="rgb(0,178,0)" stroke-width="0.1"/>
  <path d="M 84.24053800000002,32.425734000000006 L 84.24053800000002,36.81973400000001" fill="none" stroke="rgb(0,178,0)" stroke-width="0.1"/>
  <path d="M 72.24053800000002,32.425734000000006 L 72.24053800000002,36.81973400000001" fill="none" stroke="rgb(0,178,0)" stroke-width="0.1"/>
  <path d="M 83.24053800000002,34.31973400000001 L 73.24053800000002,34.31973400000001" fill="none" stroke="rgb(0,178,0)" stroke-width="0.1"/>
  <path d="M 52.240538000000015,2.528733999999986 L 57.07253800000001,2.528733999999986" fill="none" stroke="rgb(0,178,0)" stroke-width="0.1"/>
  <path d="M 54.57253800000001,1.5287339999999858 L 54.57253800000001,0.0" fill="none" stroke="rgb(0,178,0)" stroke-width="0.1"/>
  <path d="M 52.240538000000015,22.528734000000014 L 57.07253800000001,22.528734000000014" fill="none" stroke="rgb(0,178,0)" stroke-width="0.1"/>
  <path d="M 52.240538000000015,2.528733999999986 L 57.07253800000001,2.528733999999986" fill="none" stroke="rgb(0,178,0)" stroke-width="0.1"/>
  <path d="M 54.57253800000001,21.528734000000014 L 54.57253800000001,3.528733999999986" fill="none" stroke="rgb(0,178,0)" stroke-width="0.1"/>
  <path d="M 52.240538000000015,26.528734000000014 L 57.07253800000001,26.528734000000014" fill="none" stroke="rgb(0,178,0)" stroke-width="0.1"/>
  <path d="M 52.240538000000015,22.528734000000014 L 57.07253800000001,22.528734000000014" fill="none" stroke="rgb(0,178,0)" stroke-width="0.1"/>
  <path d="M 54.57253800000001,27.528734000000014 L 54.57253800000001,28.528734000000014" fill="none" stroke="rgb(0,178,0)" stroke-width="0.1"/>
  <path d="M 54.57253800000001,21.528734000000014 L 54.57253800000001,20.528733999999986" fill="none" stroke="rgb(0,178,0)" stroke-width="0.1"/>
  <path d="M 54.57253800000001,26.528734000000014 L 54.57253800000001,22.528734000000014" fill="none" stroke="rgb(0,178,0)" stroke-width="0.1"/>
  <path d="M 52.240538000000015,47.32873399999997 L 57.07253800000001,47.32873399999997" fill="none" stroke="rgb(0,178,0)" stroke-width="0.1"/>
  <path d="M 52.240538000000015,26.528734000000014 L 57.07253800000001,26.528734000000014" fill="none" stroke="rgb(0,178,0)" stroke-width="0.1"/>
  <path d="M 54.57253800000001,48.32873399999997 L 54.57253800000001,49.32873399999997" fill="none" stroke="rgb(0,178,0)" stroke-width="0.1"/>
  <path d="M 54.57253800000001,25.528734000000014 L 54.57253800000001,24.528734000000014" fill="none" stroke="rgb(0,178,0)" stroke-width="0.1"/>
  <path d="M 54.57253800000001,47.32873399999997 L 54.57253800000001,26.528734000000014" fill="none" stroke="rgb(0,178,0)" stroke-width="0.1"/>
  <path d="M 88.29953800000001,17.528733999999986 L 94.968538,17.528733999999986" fill="none" stroke="rgb(0,178,0)" stroke-width="0.1"/>
  <path d="M 92.468538,16.528733999999986 L 92.468538,0.0" fill="none" stroke="rgb(0,178,0)" stroke-width="0.1"/>
  <path d="M 88.29953800000001,22.528734000000014 L 94.968538,22.528734000000014" fill="none" stroke="rgb(0,178,0)" stroke-width="0.1"/>
  <path d="M 88.29953800000001,17.528733999999986 L 94.968538,17.528733999999986" fill="none" stroke="rgb(0,178,0)" stroke-width="0.1"/>
  <path d="M 92.468538,23.528734000000014 L 92.468538,24.528734000000014" fill="none" stroke="rgb(0,178,0)" stroke-width="0.1"/>
  <path d="M 92.468538,16.528733999999986 L 92.468538,15.528733999999986" fill="none" stroke="rgb(0,178,0)" stroke-width="0.1"/>
  <path d="M 92.468538,22.528734000000014 L 92.468538,17.528733999999986" fill="none" stroke="rgb(0,178,0)" stroke-width="0.1"/>
  <path d="M 88.29953800000001,28.528734000000014 L 94.968538,28.528734000000014" fill="none" stroke="rgb(0,178,0)" stroke-width="0.1"/>
  <path d="M 88.29953800000001,22.528734000000014 L 94.968538,22.528734000000014" fill="none" stroke="rgb(0,178,0)" stroke-width="0.1"/>
  <path d="M 92.468538,29.528734000000014 L 92.468538,30.528734000000014" fill="none" stroke="rgb(0,178,0)" stroke-width="0.1"/>
  <path d="M 92.468538,21.528734000000014 L 92.468538,20.528733999999986" fill="none" stroke="rgb(0,178,0)" stroke-width="0.1"/>
  <path d="M 92.468538,28.528734000000014 L 92.468538,22.528734000000014" fill="none" stroke="rgb(0,178,0)" stroke-width="0.1"/>
  <path d="M 88.29953800000001,30.528734000000014 L 94.968538,30.528734000000014" fill="none" stroke="rgb(0,178,0)" stroke-width="0.1"/>
  <path d="M 88.29953800000001,28.528734000000014 L 94.968538,28.528734000000014" fill="none" stroke="rgb(0,178,0)" stroke-width="0.1"/>
  <path d="M 92.468538,31.528734000000014 L 92.468538,32.528734000000014" fill="none" stroke="rgb(0,178,0)" stroke-width="0.1"/>
  <path d="M 92.468538,27.528734000000014 L 92.468538,26.528734000000014" fill="none" stroke="rgb(0,178,0)" stroke-width="0.1"/>
  <path d="M 92.468538,30.528734000000014 L 92.468538,28.528734000000014" fill="none" stroke="rgb(0,178,0)" stroke-width="0.1"/>
  <path d="M 88.29953800000001,92.52873400000001 L 94.968538,92.52873400000001" fill="none" stroke="rgb(0,178,0)" stroke-width="0.1"/>
  <path d="M 88.29953800000001,30.528734000000014 L 94.968538,30.528734000000014" fill="none" stroke="rgb(0,178,0)" stroke-width="0.1"/>
  <path d="M 92.468538,91.52873400000001 L 92.468538,31.528734000000014" fill="none" stroke="rgb(0,178,0)" stroke-width="0.1"/>
  <path d="M 88.29953800000001,94.52873400000001 L 94.968538,94.52873400000001" fill="none" stroke="rgb(0,178,0)" stroke-width="0.1"/>
  <path d="M 88.29953800000001,92.52873400000001 L 94.968538,92.52873400000001" fill="none" stroke="rgb(0,178,0)" stroke-width="0.1"/>
  <path d="M 92.468538,95.52873400000001 L 92.468538,96.52873400000001" fill="none" stroke="rgb(0,178,0)" stroke-width="0.1"/>
  <path d="M 92.468538,91.52873400000001 L 92.468538,90.52873400000001" fill="none" stroke="rgb(0,178,0)" stroke-width="0.1"/>
  <path d="M 92.468538,94.52873400000001 L 92.468538,92.52873400000001" fill="none" stroke="rgb(0,178,0)" stroke-width="0.1"/>
  <path d="M 88.29953800000001,99.52873400000001 L 94.968538,99.52873400000001" fill="none" stroke="rgb(0,178,0)" stroke-width="0.1"/>
  <path d="M 88.29953800000001,94.52873400000001 L 94.968538,94.52873400000001" fill="none" stroke="rgb(0,178,0)" stroke-width="0.1"/>
  <path d="M 92.468538,93.52873400000001 L 92.468538,92.52873400000001" fill="none" stroke="rgb(0,178,0)" stroke-width="0.1"/>
  <path d="M 92.468538,99.52873400000001 L 92.468538,94.52873400000001" fill="none" stroke="rgb(0,178,0)" stroke-width="0.1"/>
  <text fill="rgb(0,178,0)" font-family="Noto Sans CJK SC" font-size="2" transform="rotate(-0.0,73.24053800000002,90.80173399999998)" x="73.24053800000002" y="90.80173399999998">
   400
  </text>
  <text fill="rgb(0,178,0)" font-family="Noto Sans CJK SC" font-size="2" transform="rotate(-90.0,65.339538,98.98473399999997)" x="65.339538" y="98.98473399999997">
   225
  </text>
  <text fill="rgb(0,178,0)" font-family="Noto Sans CJK SC" font-size="2" transform="rotate(-0.0,22.435538000000008,56.349733999999984)" x="22.435538000000008" y="56.349733999999984">
   650
  </text>
  <text fill="rgb(0,178,0)" font-family="Noto Sans CJK SC" font-size="2" transform="rotate(-0.0,29.237538,56.349733999999984)" x="29.237538" y="56.349733999999984">
   400
  </text>
  <text fill="rgb(0,178,0)" font-family="Noto Sans CJK SC" font-size="2" transform="rotate(-0.0,74.09053800000001,32.81973400000001)" x="74.09053800000001" y="32.81973400000001">
   1200
  </text>
  <text fill="rgb(0,178,0)" font-family="Noto Sans CJK SC" font-size="2" transform="rotate(-90.0,53.07253800000001,16.528733999999986)" x="53.07253800000001" y="16.528733999999986">
   2000
  </text>
  <text fill="rgb(0,178,0)" font-family="Noto Sans CJK SC" font-size="2" transform="rotate(-90.0,61.74753800000002,27.528734000000014)" x="61.74753800000002" y="27.528734000000014">
   400
  </text>
  <text fill="rgb(0,178,0)" font-family="Noto Sans CJK SC" font-size="2" transform="rotate(-90.0,53.07253800000001,47.07873399999997)" x="53.07253800000001" y="47.07873399999997">
   8x260=2080
  </text>
  <text fill="rgb(0,178,0)" font-family="Noto Sans CJK SC" font-size="2" transform="rotate(-90.0,99.643538,23.028734000000014)" x="99.643538" y="23.028734000000014">
   500
  </text>
  <text fill="rgb(0,178,0)" font-family="Noto Sans CJK SC" font-size="2" transform="rotate(-90.0,90.968538,28.57873399999997)" x="90.968538" y="28.57873399999997">
   600
  </text>
  <text fill="rgb(0,178,0)" font-family="Noto Sans CJK SC" font-size="2" transform="rotate(-90.0,99.643538,32.528734000000014)" x="99.643538" y="32.528734000000014">
   200
  </text>
  <text fill="rgb(0,178,0)" font-family="Noto Sans CJK SC" font-size="2" transform="rotate(-90.0,90.968538,65.57873399999997)" x="90.968538" y="65.57873399999997">
   6200
  </text>
  <text fill="rgb(0,178,0)" font-family="Noto Sans CJK SC" font-size="2" transform="rotate(-90.0,99.643538,96.52873400000001)" x="99.643538" y="96.52873400000001">
   200
  </text>
 </g>
 <g id="layerA-通用-索引" inkscape:groupmode="layer" inkscape:label="A-通用-索引">
  <path d="M 18.996538000000015,43.500733999999994 L 0.0,43.500733999999994" fill="none" stroke="rgb(0,178,0)" stroke-width="0.1"/>
  <path d="M 31.028537999999998,38.35473399999998 L 18.996538000000015,43.500733999999994" fill="none" stroke="rgb(0,178,0)" stroke-width="0.1"/>
  <circle cx="31.561538000000013" cy="38.127734000000004" fill="none" r="0.579749" stroke="rgb(0,178,0)" stroke-width="0.1"/>
 </g>
 <g id="layerA-通用-轴线" inkscape:groupmode="layer" inkscape:label="A-通用-轴线">
  <path d="M 29.240538000000015,2.528733999999986 L 49.240538000000015,2.528733999999986" fill="none" stroke="rgb(53,0,13)" stroke-width="0.1"/>
  <path d="M 80.24053800000002,0.0 L 80.24053800000002,22.528734000000014" fill="none" stroke="rgb(53,0,13)" stroke-width="0.1"/>
  <path d="M 0.0,93.52873400000001 L 100.00000000000003,93.52873400000001" fill="none" stroke="rgb(53,0,13)" stroke-width="0.1"/>
  <path d="M 0.0,22.528734000000014 L 100.00000000000003,22.528734000000014" fill="none" stroke="rgb(53,0,13)" stroke-width="0.1"/>
  <path d="M 0.0,99.52873400000001 L 100.00000000000003,99.52873400000001" fill="none" stroke="rgb(53,0,13)" stroke-width="0.1"/>
  <path d="M 29.240538000000015,0.0 L 29.240538000000015,100.00000000000003" fill="none" stroke="rgb(53,0,13)" stroke-width="0.1"/>
  <path d="M 49.240538000000015,0.0 L 49.240538000000015,100.00000000000003" fill="none" stroke="rgb(53,0,13)" stroke-width="0.1"/>
  <path d="M 72.24053800000002,0.0 L 72.24053800000002,100.00000000000003" fill="none" stroke="rgb(53,0,13)" stroke-width="0.1"/>
 </g>
 <g id="layerA-通用-门窗" inkscape:groupmode="layer" inkscape:label="A-通用-门窗">
  <path d="M 47.240538000000015,4.528733999999986 L 47.240538000000015,13.528733999999986" fill="none" instance-id="7" semantic-id="3" stroke="rgb(0,178,178)" stroke-width="0.1"/>
  <path d="M 50.240538000000015,4.528733999999986 L 50.240538000000015,13.528733999999986" fill="none" instance-id="7" semantic-id="3" stroke="rgb(0,178,178)" stroke-width="0.1"/>
  <path d="M 39.96553800000001,4.9787339999999745 L 39.96553800000001,4.528733999999986" fill="none" instance-id="7" semantic-id="3" stroke="rgb(0,178,178)" stroke-width="0.1"/>
  <path d="M 48.740538000000015,4.528733999999986 L 48.740538000000015,4.9787339999999745" fill="none" instance-id="7" semantic-id="3" stroke="rgb(0,178,178)" stroke-width="0.1"/>
  <path d="M 48.740538000000015,4.528733999999986 L 39.96553800000001,4.528733999999986" fill="none" instance-id="7" semantic-id="3" stroke="rgb(0,178,178)" stroke-width="0.1"/>
  <path d="M 48.740538000000015,4.9787339999999745 L 39.96553800000001,4.9787339999999745" fill="none" instance-id="7" semantic-id="3" stroke="rgb(0,178,178)" stroke-width="0.1"/>
  <path d="M 79.24053800000002,7.528733999999986 L 81.24053800000002,7.528733999999986" fill="none" instance-id="9" semantic-id="3" stroke="rgb(0,178,178)" stroke-width="0.1"/>
  <path d="M 79.90753800000002,0.0 L 79.90753800000002,7.528733999999986" fill="none" stroke="rgb(0,178,178)" stroke-width="0.1"/>
  <path d="M 80.57353800000001,0.0 L 80.57353800000001,7.528733999999986" fill="none" stroke="rgb(0,178,178)" stroke-width="0.1"/>
  <path d="M 81.24053800000002,7.528733999999986 L 81.24053800000002,0.0" fill="none" stroke="rgb(0,178,178)" stroke-width="0.1"/>
  <path d="M 79.24053800000002,7.528733999999986 L 79.24053800000002,0.0" fill="none" stroke="rgb(0,178,178)" stroke-width="0.1"/>
  <path d="M 89.99053800000002,17.028733999999986 L 89.99053800000002,17.528733999999986" fill="none" instance-id="9" semantic-id="3" stroke="rgb(0,178,178)" stroke-width="0.1"/>
  <path d="M 80.24053800000002,17.528733999999986 L 80.24053800000002,17.028733999999986" fill="none" instance-id="9" semantic-id="3" stroke="rgb(0,178,178)" stroke-width="0.1"/>
  <path d="M 80.24053800000002,17.528733999999986 L 89.99053800000002,17.528733999999986" fill="none" instance-id="9" semantic-id="3" stroke="rgb(0,178,178)" stroke-width="0.1"/>
  <path d="M 80.24053800000002,17.028733999999986 L 89.99053800000002,17.028733999999986" fill="none" instance-id="9" semantic-id="3" stroke="rgb(0,178,178)" stroke-width="0.1"/>
  <path d="M 72.24053800000002,53.528734000000014 L 79.553538,53.528734000000014" fill="none" instance-id="11" semantic-id="4" stroke="rgb(0,178,178)" stroke-width="0.1"/>
  <path d="M 72.24053800000002,53.903734000000014 L 79.553538,53.903734000000014" fill="none" instance-id="11" semantic-id="4" stroke="rgb(0,178,178)" stroke-width="0.1"/>
  <path d="M 72.24053800000002,53.528734000000014 L 72.24053800000002,53.903734000000014" fill="none" instance-id="11" semantic-id="4" stroke="rgb(0,178,178)" stroke-width="0.1"/>
  <path d="M 79.553538,53.903734000000014 L 79.553538,53.528734000000014" fill="none" instance-id="11" semantic-id="4" stroke="rgb(0,178,178)" stroke-width="0.1"/>
  <path d="M 72.24053800000002,68.15373400000001 L 79.553538,68.15373400000001" fill="none" instance-id="11" semantic-id="4" stroke="rgb(0,178,178)" stroke-width="0.1"/>
  <path d="M 72.24053800000002,68.52873400000001 L 79.553538,68.52873400000001" fill="none" instance-id="11" semantic-id="4" stroke="rgb(0,178,178)" stroke-width="0.1"/>
  <path d="M 79.553538,68.15373400000001 L 79.553538,68.52873400000001" fill="none" instance-id="11" semantic-id="4" stroke="rgb(0,178,178)" stroke-width="0.1"/>
  <path d="M 72.24053800000002,68.52873400000001 L 72.24053800000002,68.15373400000001" fill="none" instance-id="11" semantic-id="4" stroke="rgb(0,178,178)" stroke-width="0.1"/>
  <path d="M 73.24053800000002,53.528734000000014 L 71.24053800000002,53.528734000000014" fill="none" instance-id="11" semantic-id="4" stroke="rgb(0,178,178)" stroke-width="0.1"/>
  <path d="M 71.24053800000002,30.528734000000014 L 73.24053800000002,30.528734000000014" fill="none" instance-id="10" semantic-id="9" stroke="rgb(0,178,178)" stroke-width="0.1"/>
  <path d="M 71.90753800000002,53.528734000000014 L 71.90753800000002,30.528734000000014" fill="none" instance-id="10" semantic-id="9" stroke="rgb(0,178,178)" stroke-width="0.1"/>
  <path d="M 72.57353800000001,53.528734000000014 L 72.57353800000001,30.528734000000014" fill="none" instance-id="10" semantic-id="9" stroke="rgb(0,178,178)" stroke-width="0.1"/>
  <path d="M 73.24053800000002,30.528734000000014 L 73.24053800000002,53.528734000000014" fill="none" instance-id="10" semantic-id="9" stroke="rgb(0,178,178)" stroke-width="0.1"/>
  <path d="M 71.24053800000002,30.528734000000014 L 71.24053800000002,53.528734000000014" fill="none" instance-id="10" semantic-id="9" stroke="rgb(0,178,178)" stroke-width="0.1"/>
  <path d="M 73.24053800000002,68.52873400000001 L 71.24053800000002,68.52873400000001" fill="none" instance-id="11" semantic-id="4" stroke="rgb(0,178,178)" stroke-width="0.1"/>
  <path d="M 71.24053800000002,92.52873400000001 L 73.24053800000002,92.52873400000001" fill="none" instance-id="12" semantic-id="9" stroke="rgb(0,178,178)" stroke-width="0.1"/>
  <path d="M 71.90753800000002,68.52873400000001 L 71.90753800000002,92.52873400000001" fill="none" instance-id="12" semantic-id="9" stroke="rgb(0,178,178)" stroke-width="0.1"/>
  <path d="M 72.57353800000001,68.52873400000001 L 72.57353800000001,92.52873400000001" fill="none" instance-id="12" semantic-id="9" stroke="rgb(0,178,178)" stroke-width="0.1"/>
  <path d="M 73.24053800000002,92.52873400000001 L 73.24053800000002,68.52873400000001" fill="none" instance-id="12" semantic-id="9" stroke="rgb(0,178,178)" stroke-width="0.1"/>
  <path d="M 71.24053800000002,92.52873400000001 L 71.24053800000002,68.52873400000001" fill="none" instance-id="12" semantic-id="9" stroke="rgb(0,178,178)" stroke-width="0.1"/>
  <path d="M 50.240538000000015,72.02873400000001 L 48.240538000000015,72.02873400000001" fill="none" instance-id="15" semantic-id="9" stroke="rgb(0,178,178)" stroke-width="0.1"/>
  <path d="M 48.240538000000015,45.028734000000014 L 50.240538000000015,45.028734000000014" fill="none" instance-id="15" semantic-id="9" stroke="rgb(0,178,178)" stroke-width="0.1"/>
  <path d="M 48.90753800000002,72.02873400000001 L 48.90753800000002,45.028734000000014" fill="none" instance-id="15" semantic-id="9" stroke="rgb(0,178,178)" stroke-width="0.1"/>
  <path d="M 49.57353800000001,72.02873400000001 L 49.57353800000001,45.028734000000014" fill="none" instance-id="15" semantic-id="9" stroke="rgb(0,178,178)" stroke-width="0.1"/>
  <path d="M 50.240538000000015,45.028734000000014 L 50.240538000000015,72.02873400000001" fill="none" instance-id="15" semantic-id="9" stroke="rgb(0,178,178)" stroke-width="0.1"/>
  <path d="M 48.240538000000015,45.028734000000014 L 48.240538000000015,72.02873400000001" fill="none" instance-id="15" semantic-id="9" stroke="rgb(0,178,178)" stroke-width="0.1"/>
  <path d="M 39.968537999999995,4.9787339999999745 A 8.775,8.775 0.0 0,0 48.740538000000015,13.528733999999986" fill="none" instance-id="7" semantic-id="3" stroke="rgb(0,178,178)" stroke-width="0.1"/>
  <path d="M 89.987538,17.028733999999986 A 9.75,9.75 0.0 0,0 80.24053800000002,7.528733999999986" fill="none" instance-id="9" semantic-id="3" stroke="rgb(0,178,178)" stroke-width="0.1"/>
  <path d="M 72.24053800000002,61.028734000000014 A 7.3125,7.3125 0.0 0,0 79.55053800000002,53.903734000000014" fill="none" instance-id="11" semantic-id="4" stroke="rgb(0,178,178)" stroke-width="0.1"/>
  <path d="M 79.55053800000002,68.15373400000001 A 7.3125,7.3125 0.0 0,0 72.24053800000002,61.028734000000014" fill="none" instance-id="11" semantic-id="4" stroke="rgb(0,178,178)" stroke-width="0.1"/>
  <path d="M 100.00000000000003,95.83173400000001 L 70.149538,95.83173400000001" fill="none" stroke="rgb(0,178,178)" stroke-width="0.1"/>
  <path d="M 70.149538,95.83173400000001 L 69.62689568366173,95.85912452315867" fill="none" stroke="rgb(0,178,178)" stroke-width="0.1"/>
  <path d="M 69.62689568366173,95.85912452315867 L 69.10997954591122,95.940995996331" fill="none" stroke="rgb(0,178,178)" stroke-width="0.1"/>
  <path d="M 69.10997954591122,95.940995996331 L 68.60445302812528,96.07645141852427" fill="none" stroke="rgb(0,178,178)" stroke-width="0.1"/>
  <path d="M 68.60445302812528,96.07645141852427 L 68.115854784621,96.264006711787" fill="none" stroke="rgb(0,178,178)" stroke-width="0.1"/>
  <path d="M 68.115854784621,96.264006711787 L 67.649538,96.5016069810778" fill="none" stroke="rgb(0,178,178)" stroke-width="0.1"/>
  <path d="M 67.649538,96.5016069810778 L 67.21061173853764,96.78664902812525" fill="none" stroke="rgb(0,178,178)" stroke-width="0.1"/>
  <path d="M 67.21061173853764,96.78664902812525 L 66.80388496820572,97.11600987261303" fill="none" stroke="rgb(0,178,178)" stroke-width="0.1"/>
  <path d="M 66.80388496820572,97.11600987261303 L 66.43381387261303,97.4860809682057" fill="none" stroke="rgb(0,178,178)" stroke-width="0.1"/>
  <path d="M 66.43381387261303,97.4860809682057 L 66.10445302812528,97.89280773853764" fill="none" stroke="rgb(0,178,178)" stroke-width="0.1"/>
  <path d="M 66.10445302812528,97.89280773853764 L 65.81941098107782,98.33173400000001" fill="none" stroke="rgb(0,178,178)" stroke-width="0.1"/>
  <path d="M 65.81941098107782,98.33173400000001 L 65.581810711787,98.79805078462098" fill="none" stroke="rgb(0,178,178)" stroke-width="0.1"/>
  <path d="M 65.581810711787,98.79805078462098 L 65.39425541852424,99.28664902812525" fill="none" stroke="rgb(0,178,178)" stroke-width="0.1"/>
  <path d="M 65.39425541852424,99.28664902812525 L 65.25879999633096,99.79217554591119" fill="none" stroke="rgb(0,178,178)" stroke-width="0.1"/>
  <path d="M 22.909537999999998,100.00000000000003 L 22.909537999999998,90.649734" fill="none" stroke="rgb(0,178,178)" stroke-width="0.1"/>
  <path d="M 27.909537999999998,85.649734 A 5.0,5.0 0.0 0,0 22.909537999999998,90.649734" fill="none" stroke="rgb(0,178,178)" stroke-width="0.1"/>
  <path d="M 27.909537999999998,85.649734 L 48.754538,85.649734" fill="none" stroke="rgb(0,178,178)" stroke-width="0.1"/>
  <path d="M 53.754538,90.649734 A 5.0,5.0 0.0 0,0 48.754538,85.649734" fill="none" stroke="rgb(0,178,178)" stroke-width="0.1"/>
  <path d="M 53.754538,90.649734 L 53.754538,100.00000000000003" fill="none" stroke="rgb(0,178,178)" stroke-width="0.1"/>
 </g>
 <g id="layerC-GRC材料" inkscape:groupmode="layer" inkscape:label="C-GRC材料">
  <path d="M 28.240538000000015,13.028733999999986 L 27.240538000000015,13.028733999999986" fill="none" instance-id="-1" semantic-id="1" stroke="rgb(178,88,0)" stroke-width="0.1"/>
  <path d="M 27.240538000000015,13.028733999999986 L 27.240538000000015,16.028733999999986" fill="none" instance-id="-1" semantic-id="1" stroke="rgb(178,88,0)" stroke-width="0.1"/>
  <path d="M 27.240538000000015,16.028733999999986 L 26.240538000000015,16.028733999999986" fill="none" instance-id="-1" semantic-id="1" stroke="rgb(178,88,0)" stroke-width="0.1"/>
  <path d="M 26.240538000000015,16.028733999999986 L 26.240538000000015,20.528733999999986" fill="none" instance-id="-1" semantic-id="1" stroke="rgb(178,88,0)" stroke-width="0.1"/>
  <path d="M 26.240538000000015,20.528733999999986 L 22.740538000000015,20.528733999999986" fill="none" instance-id="-1" semantic-id="1" stroke="rgb(178,88,0)" stroke-width="0.1"/>
  <path d="M 22.740538000000015,20.528733999999986 L 22.740538000000015,28.528734000000014" fill="none" instance-id="-1" semantic-id="1" stroke="rgb(178,88,0)" stroke-width="0.1"/>
  <path d="M 22.740538000000015,28.528734000000014 L 33.240538000000015,28.528734000000014" fill="none" instance-id="-1" semantic-id="1" stroke="rgb(178,88,0)" stroke-width="0.1"/>
  <path d="M 33.240538000000015,28.528734000000014 L 33.240538000000015,26.528734000000014" fill="none" instance-id="-1" semantic-id="1" stroke="rgb(178,88,0)" stroke-width="0.1"/>
  <path d="M 28.240538000000015,13.328733999999997 L 27.540537999999998,13.328733999999997" fill="none" instance-id="-1" semantic-id="1" stroke="rgb(178,88,0)" stroke-width="0.1"/>
  <path d="M 27.540537999999998,13.328733999999997 L 27.540537999999998,16.328733999999997" fill="none" instance-id="-1" semantic-id="1" stroke="rgb(178,88,0)" stroke-width="0.1"/>
  <path d="M 27.540537999999998,16.328733999999997 L 26.540537999999998,16.328733999999997" fill="none" instance-id="-1" semantic-id="1" stroke="rgb(178,88,0)" stroke-width="0.1"/>
  <path d="M 26.540537999999998,16.328733999999997 L 26.540537999999998,20.828733999999997" fill="none" instance-id="-1" semantic-id="1" stroke="rgb(178,88,0)" stroke-width="0.1"/>
  <path d="M 26.540537999999998,20.828733999999997 L 23.040537999999998,20.828733999999997" fill="none" instance-id="-1" semantic-id="1" stroke="rgb(178,88,0)" stroke-width="0.1"/>
  <path d="M 23.040537999999998,20.828733999999997 L 23.040537999999998,28.228734000000003" fill="none" instance-id="-1" semantic-id="1" stroke="rgb(178,88,0)" stroke-width="0.1"/>
  <path d="M 23.040537999999998,28.228734000000003 L 32.940538000000004,28.228734000000003" fill="none" instance-id="-1" semantic-id="1" stroke="rgb(178,88,0)" stroke-width="0.1"/>
  <path d="M 32.940538000000004,28.228734000000003 L 32.940538000000004,26.528734000000014" fill="none" instance-id="-1" semantic-id="1" stroke="rgb(178,88,0)" stroke-width="0.1"/>
  <path d="M 28.240538000000015,3.528733999999986 L 27.240538000000015,3.528733999999986" fill="none" instance-id="-1" semantic-id="1" stroke="rgb(178,88,0)" stroke-width="0.1"/>
  <path d="M 27.240538000000015,3.528733999999986 L 27.240538000000015,0.5287339999999858" fill="none" instance-id="-1" semantic-id="1" stroke="rgb(178,88,0)" stroke-width="0.1"/>
  <path d="M 27.240538000000015,0.5287339999999858 L 28.240538000000015,0.5287339999999858" fill="none" instance-id="-1" semantic-id="1" stroke="rgb(178,88,0)" stroke-width="0.1"/>
  <path d="M 28.240538000000015,3.2287339999999745 L 27.540537999999998,3.2287339999999745" fill="none" instance-id="-1" semantic-id="1" stroke="rgb(178,88,0)" stroke-width="0.1"/>
  <path d="M 27.540537999999998,3.2287339999999745 L 27.540537999999998,0.8287339999999972" fill="none" instance-id="-1" semantic-id="1" stroke="rgb(178,88,0)" stroke-width="0.1"/>
  <path d="M 27.540537999999998,0.8287339999999972 L 28.240538000000015,0.8287339999999972" fill="none" instance-id="-1" semantic-id="1" stroke="rgb(178,88,0)" stroke-width="0.1"/>
 </g>
 <g id="layerC-看线" inkscape:groupmode="layer" inkscape:label="C-看线">
  <path d="M 27.240538000000015,99.02873400000001 L 27.240538000000015,100.00000000000003" fill="none" stroke="rgb(0,88,178)" stroke-width="0.1"/>
  <path d="M 47.240538000000015,73.52873400000001 L 47.240538000000015,43.528734000000014" fill="none" stroke="rgb(0,88,178)" stroke-width="0.1"/>
 </g>
 <g id="layerC-空调" inkscape:groupmode="layer" inkscape:label="C-空调">
  <circle cx="80.74053800000002" cy="26.62673399999997" fill="none" r="0.5" stroke="rgb(89,89,89)" stroke-width="0.1"/>
  <circle cx="82.24053800000002" cy="26.62673399999997" fill="none" r="0.5" stroke="rgb(89,89,89)" stroke-width="0.1"/>
  <circle cx="85.24053800000002" cy="25.62673399999997" fill="none" r="0.5" stroke="rgb(89,89,89)" stroke-width="0.1"/>
  <circle cx="82.24053800000002" cy="20.528733999999986" fill="none" r="0.5" stroke="rgb(89,89,89)" stroke-width="0.1"/>
  <circle cx="77.74053800000002" cy="20.528733999999986" fill="none" r="0.5" stroke="rgb(89,89,89)" stroke-width="0.1"/>
  <circle cx="83.74053800000002" cy="20.528733999999986" fill="none" r="0.5" stroke="rgb(89,89,89)" stroke-width="0.1"/>
  <circle cx="85.24053800000002" cy="27.042733999999967" fill="none" r="0.5" stroke="rgb(89,89,89)" stroke-width="0.1"/>
 </g>
 <g id="layerCOLUMN" inkscape:groupmode="layer" inkscape:label="COLUMN">
  <path d="M 27.240538000000015,97.52873400000001 L 30.240538000000015,97.52873400000001" fill="none" instance-id="-1" semantic-id="1" stroke="rgb(92,92,92)" stroke-width="0.1"/>
  <path d="M 30.240538000000015,97.52873400000001 L 30.240538000000015,94.52873400000001" fill="none" instance-id="-1" semantic-id="1" stroke="rgb(92,92,92)" stroke-width="0.1"/>
  <path d="M 30.240538000000015,94.52873400000001 L 32.240538000000015,94.52873400000001" fill="none" instance-id="-1" semantic-id="1" stroke="rgb(92,92,92)" stroke-width="0.1"/>
  <path d="M 32.240538000000015,94.52873400000001 L 32.240538000000015,92.52873400000001" fill="none" instance-id="-1" semantic-id="1" stroke="rgb(92,92,92)" stroke-width="0.1"/>
  <path d="M 32.240538000000015,92.52873400000001 L 27.240538000000015,92.52873400000001" fill="none" instance-id="-1" semantic-id="1" stroke="rgb(92,92,92)" stroke-width="0.1"/>
  <path d="M 27.240538000000015,92.52873400000001 L 27.240538000000015,97.52873400000001" fill="none" instance-id="-1" semantic-id="1" stroke="rgb(92,92,92)" stroke-width="0.1"/>
  <path d="M 28.240538000000015,26.528734000000014 L 34.240538000000015,26.528734000000014" fill="none" instance-id="-1" semantic-id="1" stroke="rgb(92,92,92)" stroke-width="0.1"/>
  <path d="M 34.240538000000015,26.528734000000014 L 34.240538000000015,21.528734000000014" fill="none" instance-id="-1" semantic-id="1" stroke="rgb(92,92,92)" stroke-width="0.1"/>
  <path d="M 34.240538000000015,21.528734000000014 L 28.240538000000015,21.528734000000014" fill="none" instance-id="-1" semantic-id="1" stroke="rgb(92,92,92)" stroke-width="0.1"/>
  <path d="M 28.240538000000015,21.528734000000014 L 28.240538000000015,26.528734000000014" fill="none" instance-id="-1" semantic-id="1" stroke="rgb(92,92,92)" stroke-width="0.1"/>
  <path d="M 50.240538000000015,92.52873400000001 L 45.240538000000015,92.52873400000001" fill="none" instance-id="-1" semantic-id="1" stroke="rgb(92,92,92)" stroke-width="0.1"/>
  <path d="M 45.240538000000015,92.52873400000001 L 45.240538000000015,100.00000000000003" fill="none" instance-id="-1" semantic-id="1" stroke="rgb(92,92,92)" stroke-width="0.1"/>
  <path d="M 50.240538000000015,100.00000000000003 L 50.240538000000015,92.52873400000001" fill="none" instance-id="-1" semantic-id="1" stroke="rgb(92,92,92)" stroke-width="0.1"/>
  <path d="M 71.24053800000002,26.528734000000014 L 76.24053800000002,26.528734000000014" fill="none" instance-id="-1" semantic-id="1" stroke="rgb(92,92,92)" stroke-width="0.1"/>
  <path d="M 76.24053800000002,26.528734000000014 L 76.24053800000002,21.528734000000014" fill="none" instance-id="-1" semantic-id="1" stroke="rgb(92,92,92)" stroke-width="0.1"/>
  <path d="M 76.24053800000002,21.528734000000014 L 71.24053800000002,21.528734000000014" fill="none" instance-id="-1" semantic-id="1" stroke="rgb(92,92,92)" stroke-width="0.1"/>
  <path d="M 71.24053800000002,21.528734000000014 L 71.24053800000002,26.528734000000014" fill="none" instance-id="-1" semantic-id="1" stroke="rgb(92,92,92)" stroke-width="0.1"/>
 </g>
 <g id="layerDIM_SYMB" inkscape:groupmode="layer" inkscape:label="DIM_SYMB">
  <path d="M 39.01953800000001,49.609733999999975 L 39.01953800000001,30.756733999999966" fill="none" stroke="rgb(0,178,0)" stroke-width="0.1"/>
  <path d="M 39.01953800000001,30.756733999999966 L 39.01953800000001,27.756733999999966" fill="none" stroke="rgb(0,178,0)" stroke-width="0.1"/>
 </g>
 <g id="layerEQUIP_消火栓" inkscape:groupmode="layer" inkscape:label="EQUIP_消火栓">
  <path d="M 48.040538,90.52873400000001 L 49.64053800000002,90.52873400000001" fill="none" instance-id="16" semantic-id="19" stroke="rgb(0,0,0)" stroke-width="0.1"/>
  <path d="M 49.64053800000002,83.52873400000001 L 48.040538,83.52873400000001" fill="none" instance-id="16" semantic-id="19" stroke="rgb(0,0,0)" stroke-width="0.1"/>
  <path d="M 48.040538,83.52873400000001 L 48.040538,90.52873400000001" fill="none" instance-id="16" semantic-id="19" stroke="rgb(0,0,0)" stroke-width="0.1"/>
  <path d="M 48.040538,83.52873400000001 L 49.64053800000002,90.52873400000001" fill="none" instance-id="16" semantic-id="19" stroke="rgb(0,0,0)" stroke-width="0.1"/>
  <path d="M 49.64053800000002,90.52873400000001 L 49.64053800000002,83.52873400000001" fill="none" instance-id="16" semantic-id="19" stroke="rgb(0,0,0)" stroke-width="0.1"/>
 </g>
 <g id="layerG-MB-构造柱填充" inkscape:groupmode="layer" inkscape:label="G-MB-构造柱填充">
  <path d="M 47.240538000000015,42.528734000000014 L 47.240538000000015,43.528734000000014" fill="none" instance-id="-1" semantic-id="1" stroke="rgb(0,178,0)" stroke-width="0.1"/>
  <path d="M 47.240538000000015,43.528734000000014 L 48.240538000000015,43.528734000000014" fill="none" instance-id="-1" semantic-id="1" stroke="rgb(0,178,0)" stroke-width="0.1"/>
  <path d="M 48.240538000000015,43.528734000000014 L 48.240538000000015,45.028734000000014" fill="none" instance-id="-1" semantic-id="1" stroke="rgb(0,178,0)" stroke-width="0.1"/>
  <path d="M 48.240538000000015,45.028734000000014 L 50.240538000000015,45.028734000000014" fill="none" instance-id="-1" semantic-id="1" stroke="rgb(0,178,0)" stroke-width="0.1"/>
  <path d="M 50.240538000000015,45.028734000000014 L 50.240538000000015,42.528734000000014" fill="none" instance-id="-1" semantic-id="1" stroke="rgb(0,178,0)" stroke-width="0.1"/>
  <path d="M 50.240538000000015,42.528734000000014 L 47.240538000000015,42.528734000000014" fill="none" instance-id="-1" semantic-id="1" stroke="rgb(0,178,0)" stroke-width="0.1"/>
  <path d="M 27.240538000000015,98.02873400000001 L 27.240538000000015,99.02873400000001" fill="none" instance-id="-1" semantic-id="1" stroke="rgb(0,178,0)" stroke-width="0.1"/>
  <path d="M 27.240538000000015,99.02873400000001 L 28.240538000000015,99.02873400000001" fill="none" instance-id="-1" semantic-id="1" stroke="rgb(0,178,0)" stroke-width="0.1"/>
  <path d="M 28.240538000000015,99.02873400000001 L 28.240538000000015,100.00000000000003" fill="none" instance-id="-1" semantic-id="1" stroke="rgb(0,178,0)" stroke-width="0.1"/>
  <path d="M 30.240538000000015,100.00000000000003 L 30.240538000000015,98.02873400000001" fill="none" instance-id="-1" semantic-id="1" stroke="rgb(0,178,0)" stroke-width="0.1"/>
  <path d="M 30.240538000000015,98.02873400000001 L 27.240538000000015,98.02873400000001" fill="none" instance-id="-1" semantic-id="1" stroke="rgb(0,178,0)" stroke-width="0.1"/>
  <path d="M 47.240538000000015,74.52873400000001 L 47.240538000000015,73.52873400000001" fill="none" instance-id="-1" semantic-id="1" stroke="rgb(0,178,0)" stroke-width="0.1"/>
  <path d="M 47.240538000000015,73.52873400000001 L 48.240538000000015,73.52873400000001" fill="none" instance-id="-1" semantic-id="1" stroke="rgb(0,178,0)" stroke-width="0.1"/>
  <path d="M 48.240538000000015,73.52873400000001 L 48.240538000000015,72.02873400000001" fill="none" instance-id="-1" semantic-id="1" stroke="rgb(0,178,0)" stroke-width="0.1"/>
  <path d="M 48.240538000000015,72.02873400000001 L 50.240538000000015,72.02873400000001" fill="none" instance-id="-1" semantic-id="1" stroke="rgb(0,178,0)" stroke-width="0.1"/>
  <path d="M 50.240538000000015,72.02873400000001 L 50.240538000000015,74.52873400000001" fill="none" instance-id="-1" semantic-id="1" stroke="rgb(0,178,0)" stroke-width="0.1"/>
  <path d="M 50.240538000000015,74.52873400000001 L 47.240538000000015,74.52873400000001" fill="none" instance-id="-1" semantic-id="1" stroke="rgb(0,178,0)" stroke-width="0.1"/>
  <path d="M 48.240538000000015,1.5287339999999858 L 50.240538000000015,1.5287339999999858" fill="none" instance-id="-1" semantic-id="1" stroke="rgb(0,178,0)" stroke-width="0.1"/>
  <path d="M 50.240538000000015,1.5287339999999858 L 50.240538000000015,3.528733999999986" fill="none" instance-id="-1" semantic-id="1" stroke="rgb(0,178,0)" stroke-width="0.1"/>
  <path d="M 50.240538000000015,3.528733999999986 L 48.240538000000015,3.528733999999986" fill="none" instance-id="-1" semantic-id="1" stroke="rgb(0,178,0)" stroke-width="0.1"/>
  <path d="M 48.240538000000015,3.528733999999986 L 48.240538000000015,1.5287339999999858" fill="none" instance-id="-1" semantic-id="1" stroke="rgb(0,178,0)" stroke-width="0.1"/>
  <path d="M 28.240538000000015,1.527733999999981 L 30.240538000000015,1.527733999999981" fill="none" instance-id="-1" semantic-id="1" stroke="rgb(0,178,0)" stroke-width="0.1"/>
  <path d="M 30.240538000000015,1.527733999999981 L 30.240538000000015,3.527733999999981" fill="none" instance-id="-1" semantic-id="1" stroke="rgb(0,178,0)" stroke-width="0.1"/>
  <path d="M 30.240538000000015,3.527733999999981 L 28.240538000000015,3.527733999999981" fill="none" instance-id="-1" semantic-id="1" stroke="rgb(0,178,0)" stroke-width="0.1"/>
  <path d="M 28.240538000000015,3.527733999999981 L 28.240538000000015,1.527733999999981" fill="none" instance-id="-1" semantic-id="1" stroke="rgb(0,178,0)" stroke-width="0.1"/>
  <path d="M 81.24053800000002,20.528733999999986 L 81.24053800000002,23.528734000000014" fill="none" instance-id="-1" semantic-id="1" stroke="rgb(0,178,0)" stroke-width="0.1"/>
  <path d="M 81.24053800000002,23.528734000000014 L 79.24053800000002,23.528734000000014" fill="none" instance-id="-1" semantic-id="1" stroke="rgb(0,178,0)" stroke-width="0.1"/>
  <path d="M 79.24053800000002,23.528734000000014 L 79.24053800000002,20.528733999999986" fill="none" instance-id="-1" semantic-id="1" stroke="rgb(0,178,0)" stroke-width="0.1"/>
  <path d="M 79.24053800000002,20.528733999999986 L 81.24053800000002,20.528733999999986" fill="none" instance-id="-1" semantic-id="1" stroke="rgb(0,178,0)" stroke-width="0.1"/>
  <path d="M 71.24053800000002,28.528734000000014 L 73.24053800000002,28.528734000000014" fill="none" instance-id="-1" semantic-id="1" stroke="rgb(0,178,0)" stroke-width="0.1"/>
  <path d="M 73.24053800000002,28.528734000000014 L 73.24053800000002,30.528734000000014" fill="none" instance-id="-1" semantic-id="1" stroke="rgb(0,178,0)" stroke-width="0.1"/>
  <path d="M 73.24053800000002,30.528734000000014 L 71.24053800000002,30.528734000000014" fill="none" instance-id="-1" semantic-id="1" stroke="rgb(0,178,0)" stroke-width="0.1"/>
  <path d="M 71.24053800000002,30.528734000000014 L 71.24053800000002,28.528734000000014" fill="none" instance-id="-1" semantic-id="1" stroke="rgb(0,178,0)" stroke-width="0.1"/>
  <path d="M 71.24053800000002,92.52873400000001 L 73.24053800000002,92.52873400000001" fill="none" instance-id="-1" semantic-id="1" stroke="rgb(0,178,0)" stroke-width="0.1"/>
  <path d="M 73.24053800000002,92.52873400000001 L 73.24053800000002,94.52873400000001" fill="none" instance-id="-1" semantic-id="1" stroke="rgb(0,178,0)" stroke-width="0.1"/>
  <path d="M 73.24053800000002,94.52873400000001 L 71.24053800000002,94.52873400000001" fill="none" instance-id="-1" semantic-id="1" stroke="rgb(0,178,0)" stroke-width="0.1"/>
  <path d="M 71.24053800000002,94.52873400000001 L 71.24053800000002,92.52873400000001" fill="none" instance-id="-1" semantic-id="1" stroke="rgb(0,178,0)" stroke-width="0.1"/>
  <path d="M 47.240538000000015,42.528734000000014 L 47.240538000000015,43.528734000000014" fill="none" instance-id="-1" semantic-id="1" stroke="rgb(0,178,0)" stroke-width="0.1"/>
  <path d="M 47.240538000000015,43.528734000000014 L 48.240538000000015,43.528734000000014" fill="none" instance-id="-1" semantic-id="1" stroke="rgb(0,178,0)" stroke-width="0.1"/>
  <path d="M 48.240538000000015,43.528734000000014 L 48.240538000000015,45.028734000000014" fill="none" instance-id="-1" semantic-id="1" stroke="rgb(0,178,0)" stroke-width="0.1"/>
  <path d="M 48.240538000000015,45.028734000000014 L 50.240538000000015,45.028734000000014" fill="none" instance-id="-1" semantic-id="1" stroke="rgb(0,178,0)" stroke-width="0.1"/>
  <path d="M 50.240538000000015,45.028734000000014 L 50.240538000000015,42.528734000000014" fill="none" instance-id="-1" semantic-id="1" stroke="rgb(0,178,0)" stroke-width="0.1"/>
  <path d="M 50.240538000000015,42.528734000000014 L 47.240538000000015,42.528734000000014" fill="none" instance-id="-1" semantic-id="1" stroke="rgb(0,178,0)" stroke-width="0.1"/>
  <path d="M 27.240538000000015,98.02873400000001 L 27.240538000000015,99.02873400000001" fill="none" instance-id="-1" semantic-id="1" stroke="rgb(0,178,0)" stroke-width="0.1"/>
  <path d="M 27.240538000000015,99.02873400000001 L 28.240538000000015,99.02873400000001" fill="none" instance-id="-1" semantic-id="1" stroke="rgb(0,178,0)" stroke-width="0.1"/>
  <path d="M 28.240538000000015,99.02873400000001 L 28.240538000000015,100.00000000000003" fill="none" instance-id="-1" semantic-id="1" stroke="rgb(0,178,0)" stroke-width="0.1"/>
  <path d="M 30.240538000000015,100.00000000000003 L 30.240538000000015,98.02873400000001" fill="none" instance-id="-1" semantic-id="1" stroke="rgb(0,178,0)" stroke-width="0.1"/>
  <path d="M 30.240538000000015,98.02873400000001 L 27.240538000000015,98.02873400000001" fill="none" instance-id="-1" semantic-id="1" stroke="rgb(0,178,0)" stroke-width="0.1"/>
  <path d="M 50.240538000000015,74.52873400000001 L 50.240538000000015,72.02873400000001" fill="none" instance-id="-1" semantic-id="1" stroke="rgb(0,178,0)" stroke-width="0.1"/>
  <path d="M 50.240538000000015,72.02873400000001 L 48.240538000000015,72.02873400000001" fill="none" instance-id="-1" semantic-id="1" stroke="rgb(0,178,0)" stroke-width="0.1"/>
  <path d="M 48.240538000000015,72.02873400000001 L 48.240538000000015,73.52873400000001" fill="none" instance-id="-1" semantic-id="1" stroke="rgb(0,178,0)" stroke-width="0.1"/>
  <path d="M 48.240538000000015,73.52873400000001 L 47.240538000000015,73.52873400000001" fill="none" instance-id="-1" semantic-id="1" stroke="rgb(0,178,0)" stroke-width="0.1"/>
  <path d="M 47.240538000000015,73.52873400000001 L 47.240538000000015,74.52873400000001" fill="none" instance-id="-1" semantic-id="1" stroke="rgb(0,178,0)" stroke-width="0.1"/>
  <path d="M 47.240538000000015,74.52873400000001 L 50.240538000000015,74.52873400000001" fill="none" instance-id="-1" semantic-id="1" stroke="rgb(0,178,0)" stroke-width="0.1"/>
  <path d="M 48.240538000000015,3.528733999999986 L 50.240538000000015,3.528733999999986" fill="none" instance-id="-1" semantic-id="1" stroke="rgb(0,178,0)" stroke-width="0.1"/>
  <path d="M 50.240538000000015,3.528733999999986 L 50.240538000000015,1.5287339999999858" fill="none" instance-id="-1" semantic-id="1" stroke="rgb(0,178,0)" stroke-width="0.1"/>
  <path d="M 50.240538000000015,1.5287339999999858 L 48.240538000000015,1.5287339999999858" fill="none" instance-id="-1" semantic-id="1" stroke="rgb(0,178,0)" stroke-width="0.1"/>
  <path d="M 48.240538000000015,1.5287339999999858 L 48.240538000000015,3.528733999999986" fill="none" instance-id="-1" semantic-id="1" stroke="rgb(0,178,0)" stroke-width="0.1"/>
  <path d="M 28.240538000000015,3.527733999999981 L 30.240538000000015,3.527733999999981" fill="none" instance-id="-1" semantic-id="1" stroke="rgb(0,178,0)" stroke-width="0.1"/>
  <path d="M 30.240538000000015,3.527733999999981 L 30.240538000000015,1.527733999999981" fill="none" instance-id="-1" semantic-id="1" stroke="rgb(0,178,0)" stroke-width="0.1"/>
  <path d="M 30.240538000000015,1.527733999999981 L 28.240538000000015,1.527733999999981" fill="none" instance-id="-1" semantic-id="1" stroke="rgb(0,178,0)" stroke-width="0.1"/>
  <path d="M 28.240538000000015,1.527733999999981 L 28.240538000000015,3.527733999999981" fill="none" instance-id="-1" semantic-id="1" stroke="rgb(0,178,0)" stroke-width="0.1"/>
  <path d="M 79.24053800000002,20.528733999999986 L 79.24053800000002,23.528734000000014" fill="none" instance-id="-1" semantic-id="1" stroke="rgb(0,178,0)" stroke-width="0.1"/>
  <path d="M 79.24053800000002,23.528734000000014 L 81.24053800000002,23.528734000000014" fill="none" instance-id="-1" semantic-id="1" stroke="rgb(0,178,0)" stroke-width="0.1"/>
  <path d="M 81.24053800000002,23.528734000000014 L 81.24053800000002,20.528733999999986" fill="none" instance-id="-1" semantic-id="1" stroke="rgb(0,178,0)" stroke-width="0.1"/>
  <path d="M 81.24053800000002,20.528733999999986 L 79.24053800000002,20.528733999999986" fill="none" instance-id="-1" semantic-id="1" stroke="rgb(0,178,0)" stroke-width="0.1"/>
  <path d="M 71.24053800000002,30.528734000000014 L 73.24053800000002,30.528734000000014" fill="none" instance-id="-1" semantic-id="1" stroke="rgb(0,178,0)" stroke-width="0.1"/>
  <path d="M 73.24053800000002,30.528734000000014 L 73.24053800000002,28.528734000000014" fill="none" instance-id="-1" semantic-id="1" stroke="rgb(0,178,0)" stroke-width="0.1"/>
  <path d="M 73.24053800000002,28.528734000000014 L 71.24053800000002,28.528734000000014" fill="none" instance-id="-1" semantic-id="1" stroke="rgb(0,178,0)" stroke-width="0.1"/>
  <path d="M 71.24053800000002,28.528734000000014 L 71.24053800000002,30.528734000000014" fill="none" instance-id="-1" semantic-id="1" stroke="rgb(0,178,0)" stroke-width="0.1"/>
  <path d="M 71.24053800000002,94.52873400000001 L 73.24053800000002,94.52873400000001" fill="none" instance-id="-1" semantic-id="1" stroke="rgb(0,178,0)" stroke-width="0.1"/>
  <path d="M 73.24053800000002,94.52873400000001 L 73.24053800000002,92.52873400000001" fill="none" instance-id="-1" semantic-id="1" stroke="rgb(0,178,0)" stroke-width="0.1"/>
  <path d="M 73.24053800000002,92.52873400000001 L 71.24053800000002,92.52873400000001" fill="none" instance-id="-1" semantic-id="1" stroke="rgb(0,178,0)" stroke-width="0.1"/>
  <path d="M 71.24053800000002,92.52873400000001 L 71.24053800000002,94.52873400000001" fill="none" instance-id="-1" semantic-id="1" stroke="rgb(0,178,0)" stroke-width="0.1"/>
 </g>
 <g id="layerPUB_TEXT" inkscape:groupmode="layer" inkscape:label="PUB_TEXT">
  <text fill="rgb(0,0,0)" font-family="Noto Sans CJK SC" font-size="2" transform="rotate(-90.0,43.37653800000001,41.86273399999996)" x="43.37653800000001" y="41.86273399999996">
   下
  </text>
  <text fill="rgb(0,0,0)" font-family="Noto Sans CJK SC" font-size="2" transform="rotate(-90.0,43.404538,39.41273399999997)" x="43.404538" y="39.41273399999997">
   9
  </text>
  <text fill="rgb(0,0,0)" font-family="Noto Sans CJK SC" font-size="2" transform="rotate(-90.0,43.43153800000002,37.528734000000014)" x="43.43153800000002" y="37.528734000000014">
   级
  </text>
  <text fill="rgb(0,0,0)" font-family="Noto Sans CJK SC" font-size="2" transform="rotate(-51.1348,38.494538000000006,18.48173399999999)" x="38.494538000000006" y="18.48173399999999">
   i=1%
  </text>
 </g>
 <g id="layerWINDOW_TEXT" inkscape:groupmode="layer" inkscape:label="WINDOW_TEXT">
  <text fill="rgb(0,0,0)" font-family="Noto Sans CJK SC" font-size="2" transform="rotate(-90.0,59.095538000000005,14.801733999999982)" x="59.095538000000005" y="14.801733999999982">
   PM0924
  </text>
  <text fill="rgb(0,0,0)" font-family="Noto Sans CJK SC" font-size="2" transform="rotate(-90.0,83.37053800000001,66.108734)" x="83.37053800000001" y="66.108734">
   MLC3
  </text>
  <text fill="rgb(0,0,0)" font-family="Noto Sans CJK SC" font-size="2" transform="rotate(-90.0,54.093537999999995,66.048734)" x="54.093537999999995" y="66.048734">
   PC2706
  </text>
 </g>
 <g id="layerWP_F_LG" inkscape:groupmode="layer" inkscape:label="WP_F_LG">
  <circle cx="48.84053800000001" cy="91.52873400000001" fill="none" r="0.5" stroke="rgb(178,0,0)" stroke-width="0.1"/>
 </g>
 <g id="layer建-文字" inkscape:groupmode="layer" inkscape:label="建-文字">
  <text fill="rgb(0,0,0)" font-family="Noto Sans CJK SC" font-size="2" transform="rotate(-0.0,88.117538,85.86073400000001)" x="88.117538" y="85.86073400000001">
   此墙不砌筑，由装修专业设计
  </text>
  <text fill="rgb(0,0,0)" font-family="Noto Sans CJK SC" font-size="2" transform="rotate(-0.0,88.68753800000002,2.167733999999996)" x="88.68753800000002" y="2.167733999999996">
   此墙不砌筑，由装修专业设计
  </text>
 </g>
 <g id="layer消防救援窗" inkscape:groupmode="layer" inkscape:label="消防救援窗">
  <path d="M 46.47953800000002,8.976733999999993 L 44.22953800000002,10.275734" fill="none" stroke="rgb(178,0,178)" stroke-width="0.1"/>
  <path d="M 44.22953800000002,10.275734 L 44.22953800000002,7.677733999999987" fill="none" stroke="rgb(178,0,178)" stroke-width="0.1"/>
  <path d="M 44.22953800000002,7.677733999999987 L 46.47953800000002,8.976733999999993" fill="none" stroke="rgb(178,0,178)" stroke-width="0.1"/>
  <path d="M 46.079538000000014,8.976733999999993 L 44.42953800000001,9.929733999999996" fill="none" stroke="rgb(178,0,178)" stroke-width="0.1"/>
  <path d="M 44.42953800000001,9.929733999999996 L 44.42953800000001,8.02373399999999" fill="none" stroke="rgb(178,0,178)" stroke-width="0.1"/>
  <path d="M 44.42953800000001,8.02373399999999 L 46.079538000000014,8.976733999999993" fill="none" stroke="rgb(178,0,178)" stroke-width="0.1"/>
 </g>
</svg>