<?xml version="1.0" encoding="utf-8"?>
<svg style="background-color: #000;" version="1.1" viewBox="0 0 100.0 100.0" xmlns="http://www.w3.org/2000/svg" xmlns:inkscape="http://www.inkscape.org/namespaces/inkscape">
 <g id="layerA-AXIS" inkscape:groupmode="layer" inkscape:label="A-AXIS">
  <path d="M 10.0,16.5 L 10.0,0.0" fill="none" stroke="rgb(160,53,53)" stroke-width="0.1"/>
  <path d="M 28.5,16.5 L 28.5,0.0" fill="none" stroke="rgb(160,53,53)" stroke-width="0.1"/>
  <path d="M 47.5,16.5 L 47.5,0.0" fill="none" stroke="rgb(160,53,53)" stroke-width="0.1"/>
  <path d="M 55.5,16.5 L 55.5,0.0" fill="none" stroke="rgb(160,53,53)" stroke-width="0.1"/>
  <path d="M 73.5,16.5 L 73.5,0.0" fill="none" stroke="rgb(160,53,53)" stroke-width="0.1"/>
  <path d="M 77.5,16.5 L 77.5,0.0" fill="none" stroke="rgb(160,53,53)" stroke-width="0.1"/>
  <path d="M 79.5,16.5 L 79.5,0.0" fill="none" stroke="rgb(160,53,53)" stroke-width="0.1"/>
  <path d="M 96.0,16.5 L 96.0,0.0" fill="none" stroke="rgb(160,53,53)" stroke-width="0.1"/>
  <path d="M 98.5,16.5 L 98.5,0.0" fill="none" stroke="rgb(160,53,53)" stroke-width="0.1"/>
  <path d="M 79.5,13.5 L 79.5,0.0" fill="none" stroke="rgb(160,53,53)" stroke-width="0.1"/>
  <path d="M 79.5,13.5 L 79.5,0.0" fill="none" stroke="rgb(160,53,53)" stroke-width="0.1"/>
  <path d="M 96.0,13.5 L 96.0,0.0" fill="none" stroke="rgb(160,53,53)" stroke-width="0.1"/>
  <path d="M 96.0,13.5 L 96.0,0.0" fill="none" stroke="rgb(160,53,53)" stroke-width="0.1"/>
  <path d="M 10.0,13.5 L 10.0,0.0" fill="none" stroke="rgb(160,53,53)" stroke-width="0.1"/>
  <path d="M 10.0,13.5 L 10.0,0.0" fill="none" stroke="rgb(160,53,53)" stroke-width="0.1"/>
  <path d="M 28.5,13.5 L 28.5,0.0" fill="none" stroke="rgb(160,53,53)" stroke-width="0.1"/>
  <path d="M 28.5,13.5 L 28.5,0.0" fill="none" stroke="rgb(160,53,53)" stroke-width="0.1"/>
  <path d="M 47.5,13.5 L 47.5,0.0" fill="none" stroke="rgb(160,53,53)" stroke-width="0.1"/>
  <path d="M 47.5,13.5 L 47.5,0.0" fill="none" stroke="rgb(160,53,53)" stroke-width="0.1"/>
  <path d="M 55.5,13.5 L 55.5,0.0" fill="none" stroke="rgb(160,53,53)" stroke-width="0.1"/>
  <path d="M 55.5,13.5 L 55.5,0.0" fill="none" stroke="rgb(160,53,53)" stroke-width="0.1"/>
  <path d="M 73.5,13.5 L 73.5,0.0" fill="none" stroke="rgb(160,53,53)" stroke-width="0.1"/>
  <path d="M 73.5,13.5 L 73.5,0.0" fill="none" stroke="rgb(160,53,53)" stroke-width="0.1"/>
  <path d="M 77.5,13.5 L 77.5,0.0" fill="none" stroke="rgb(160,53,53)" stroke-width="0.1"/>
  <path d="M 77.5,13.5 L 77.5,0.0" fill="none" stroke="rgb(160,53,53)" stroke-width="0.1"/>
  <path d="M 79.5,13.5 L 79.5,0.0" fill="none" stroke="rgb(160,53,53)" stroke-width="0.1"/>
  <path d="M 79.5,13.5 L 79.5,0.0" fill="none" stroke="rgb(160,53,53)" stroke-width="0.1"/>
  <path d="M 96.0,13.5 L 96.0,0.0" fill="none" stroke="rgb(160,53,53)" stroke-width="0.1"/>
  <path d="M 96.0,13.5 L 96.0,0.0" fill="none" stroke="rgb(160,53,53)" stroke-width="0.1"/>
  <path d="M 98.5,13.5 L 98.5,0.0" fill="none" stroke="rgb(160,53,53)" stroke-width="0.1"/>
  <path d="M 98.5,13.5 L 98.5,0.0" fill="none" stroke="rgb(160,53,53)" stroke-width="0.1"/>
 </g>
 <g id="layerA-DOTE" inkscape:groupmode="layer" inkscape:label="A-DOTE">
  <path d="M 28.5,100.0 L 28.5,16.5" fill="none" stroke="rgb(178,0,0)" stroke-width="0.1"/>
  <path d="M 55.5,100.0 L 55.5,16.5" fill="none" stroke="rgb(178,0,0)" stroke-width="0.1"/>
  <path d="M 73.5,100.0 L 73.5,16.5" fill="none" stroke="rgb(178,0,0)" stroke-width="0.1"/>
  <path d="M 77.5,100.0 L 77.5,16.5" fill="none" stroke="rgb(178,0,0)" stroke-width="0.1"/>
  <path d="M 79.5,100.0 L 79.5,16.5" fill="none" stroke="rgb(178,0,0)" stroke-width="0.1"/>
  <path d="M 10.0,100.0 L 10.0,16.5" fill="none" stroke="rgb(178,0,0)" stroke-width="0.1"/>
  <path d="M 47.5,100.0 L 47.5,16.5" fill="none" stroke="rgb(178,0,0)" stroke-width="0.1"/>
  <path d="M 98.5,100.0 L 98.5,16.5" fill="none" stroke="rgb(178,0,0)" stroke-width="0.1"/>
  <path d="M 96.0,100.0 L 96.0,16.5" fill="none" stroke="rgb(178,0,0)" stroke-width="0.1"/>
  <path d="M 0.0,89.5 L 100.0,89.5" fill="none" stroke="rgb(178,0,0)" stroke-width="0.1"/>
  <path d="M 0.0,56.5 L 100.0,56.5" fill="none" stroke="rgb(178,0,0)" stroke-width="0.1"/>
  <path d="M 0.0,93.5 L 100.0,93.5" fill="none" stroke="rgb(178,0,0)" stroke-width="0.1"/>
  <path d="M 0.0,83.0 L 100.0,83.0" fill="none" stroke="rgb(178,0,0)" stroke-width="0.1"/>
 </g>
 <g id="layerA-PUB_DIM" inkscape:groupmode="layer" inkscape:label="A-PUB_DIM">
  <path d="M 79.5,13.5 L 79.5,0.0" fill="none" stroke="rgb(0,178,0)" stroke-width="0.1"/>
  <path d="M 88.5,13.5 L 88.5,0.0" fill="none" stroke="rgb(0,178,0)" stroke-width="0.1"/>
  <path d="M 88.5,13.5 L 88.5,0.0" fill="none" stroke="rgb(0,178,0)" stroke-width="0.1"/>
  <path d="M 97.0,13.5 L 97.0,0.0" fill="none" stroke="rgb(0,178,0)" stroke-width="0.1"/>
  <path d="M 97.0,13.5 L 97.0,0.0" fill="none" stroke="rgb(0,178,0)" stroke-width="0.1"/>
  <path d="M 99.0,13.5 L 99.0,0.0" fill="none" stroke="rgb(0,178,0)" stroke-width="0.1"/>
  <path d="M 99.0,13.5 L 99.0,0.0" fill="none" stroke="rgb(0,178,0)" stroke-width="0.1"/>
  <path d="M 73.5,13.5 L 73.5,0.0" fill="none" stroke="rgb(0,178,0)" stroke-width="0.1"/>
  <path d="M 79.5,13.5 L 79.5,0.0" fill="none" stroke="rgb(0,178,0)" stroke-width="0.1"/>
  <path d="M 71.5,13.5 L 71.5,0.0" fill="none" stroke="rgb(0,178,0)" stroke-width="0.1"/>
  <path d="M 73.5,13.5 L 73.5,0.0" fill="none" stroke="rgb(0,178,0)" stroke-width="0.1"/>
  <path d="M 55.5,13.5 L 55.5,0.0" fill="none" stroke="rgb(0,178,0)" stroke-width="0.1"/>
  <path d="M 71.5,13.5 L 71.5,0.0" fill="none" stroke="rgb(0,178,0)" stroke-width="0.1"/>
  <path d="M 47.5,13.5 L 47.5,0.0" fill="none" stroke="rgb(0,178,0)" stroke-width="0.1"/>
  <path d="M 55.5,13.5 L 55.5,0.0" fill="none" stroke="rgb(0,178,0)" stroke-width="0.1"/>
  <path d="M 45.5,13.5 L 45.5,0.0" fill="none" stroke="rgb(0,178,0)" stroke-width="0.1"/>
  <path d="M 47.5,13.5 L 47.5,0.0" fill="none" stroke="rgb(0,178,0)" stroke-width="0.1"/>
  <path d="M 35.5,13.5 L 35.5,0.0" fill="none" stroke="rgb(0,178,0)" stroke-width="0.1"/>
  <path d="M 45.5,13.5 L 45.5,0.0" fill="none" stroke="rgb(0,178,0)" stroke-width="0.1"/>
  <path d="M 28.5,13.5 L 28.5,0.0" fill="none" stroke="rgb(0,178,0)" stroke-width="0.1"/>
  <path d="M 35.5,13.5 L 35.5,0.0" fill="none" stroke="rgb(0,178,0)" stroke-width="0.1"/>
  <path d="M 22.5,13.5 L 22.5,0.0" fill="none" stroke="rgb(0,178,0)" stroke-width="0.1"/>
  <path d="M 28.5,13.5 L 28.5,0.0" fill="none" stroke="rgb(0,178,0)" stroke-width="0.1"/>
  <path d="M 16.0,13.5 L 16.0,0.0" fill="none" stroke="rgb(0,178,0)" stroke-width="0.1"/>
  <path d="M 22.5,13.5 L 22.5,0.0" fill="none" stroke="rgb(0,178,0)" stroke-width="0.1"/>
  <path d="M 10.0,13.5 L 10.0,0.0" fill="none" stroke="rgb(0,178,0)" stroke-width="0.1"/>
  <path d="M 16.0,13.5 L 16.0,0.0" fill="none" stroke="rgb(0,178,0)" stroke-width="0.1"/>
  <path d="M 2.0,13.5 L 2.0,0.0" fill="none" stroke="rgb(0,178,0)" stroke-width="0.1"/>
  <path d="M 10.0,13.5 L 10.0,0.0" fill="none" stroke="rgb(0,178,0)" stroke-width="0.1"/>
  <path d="M 2.0,13.5 L 2.0,0.0" fill="none" stroke="rgb(0,178,0)" stroke-width="0.1"/>
  <text fill="rgb(0,178,0)" font-family="Noto Sans CJK SC" font-size="2" transform="rotate(-0.0,69.5,4.25)" x="69.5" y="4.25">
   200
  </text>
 </g>
 <g id="layerA-SPACE" inkscape:groupmode="layer" inkscape:label="A-SPACE">
  <text fill="rgb(0,0,0)" font-family="Noto Sans CJK SC" font-size="2" transform="rotate(-0.0,74.79100000000005,96.027)" x="74.79100000000005" y="96.027">
   风井
  </text>
 </g>
 <g id="layerS-SHEARWALL" inkscape:groupmode="layer" inkscape:label="S-SHEARWALL">
  <path d="M 78.5,64.0 L 78.5,55.5" fill="none" instance-id="-1" semantic-id="1" stroke="rgb(0,178,178)" stroke-width="0.1"/>
  <path d="M 78.5,55.5 L 84.5,55.5" fill="none" instance-id="-1" semantic-id="1" stroke="rgb(0,178,178)" stroke-width="0.1"/>
  <path d="M 84.5,55.5 L 84.5,57.5" fill="none" instance-id="-1" semantic-id="1" stroke="rgb(0,178,178)" stroke-width="0.1"/>
  <path d="M 84.5,57.5 L 80.5,57.5" fill="none" instance-id="-1" semantic-id="1" stroke="rgb(0,178,178)" stroke-width="0.1"/>
  <path d="M 80.5,57.5 L 80.5,64.0" fill="none" instance-id="-1" semantic-id="1" stroke="rgb(0,178,178)" stroke-width="0.1"/>
  <path d="M 80.5,64.0 L 78.5,64.0" fill="none" instance-id="-1" semantic-id="1" stroke="rgb(0,178,178)" stroke-width="0.1"/>
  <path d="M 95.0,87.5 L 99.0,87.5" fill="none" stroke="rgb(0,178,178)" stroke-width="0.1"/>
  <path d="M 99.0,87.5 L 99.0,91.5" fill="none" stroke="rgb(0,178,178)" stroke-width="0.1"/>
  <path d="M 99.0,91.5 L 95.0,91.5" fill="none" stroke="rgb(0,178,178)" stroke-width="0.1"/>
  <path d="M 95.0,91.5 L 95.0,87.5" fill="none" stroke="rgb(0,178,178)" stroke-width="0.1"/>
 </g>
 <g id="layerS-SHEARWALLHATCH" inkscape:groupmode="layer" inkscape:label="S-SHEARWALLHATCH">
  <path d="M 78.5,64.0 L 80.5,64.0" fill="none" instance-id="-1" semantic-id="1" stroke="rgb(89,89,89)" stroke-width="0.1"/>
  <path d="M 80.5,64.0 L 80.5,57.5" fill="none" instance-id="-1" semantic-id="1" stroke="rgb(89,89,89)" stroke-width="0.1"/>
  <path d="M 80.5,57.5 L 84.5,57.5" fill="none" instance-id="-1" semantic-id="1" stroke="rgb(89,89,89)" stroke-width="0.1"/>
  <path d="M 84.5,57.5 L 84.5,55.5" fill="none" instance-id="-1" semantic-id="1" stroke="rgb(89,89,89)" stroke-width="0.1"/>
  <path d="M 84.5,55.5 L 78.5,55.5" fill="none" instance-id="-1" semantic-id="1" stroke="rgb(89,89,89)" stroke-width="0.1"/>
  <path d="M 78.5,55.5 L 78.5,64.0" fill="none" instance-id="-1" semantic-id="1" stroke="rgb(89,89,89)" stroke-width="0.1"/>
  <path d="M 95.0,91.5 L 99.0,91.5" fill="none" stroke="rgb(89,89,89)" stroke-width="0.1"/>
  <path d="M 99.0,91.5 L 99.0,87.5" fill="none" stroke="rgb(89,89,89)" stroke-width="0.1"/>
  <path d="M 99.0,87.5 L 95.0,87.5" fill="none" stroke="rgb(89,89,89)" stroke-width="0.1"/>
  <path d="M 95.0,87.5 L 95.0,91.5" fill="none" stroke="rgb(89,89,89)" stroke-width="0.1"/>
 </g>
 <g id="layerS38-2$0$A-GROUND" inkscape:groupmode="layer" inkscape:label="S38-2$0$A-GROUND">
  <path d="M 94.5,40.5 L 100.0,40.5" fill="none" stroke="rgb(178,178,0)" stroke-width="0.1"/>
  <path d="M 100.0,55.5 L 94.5,55.5" fill="none" stroke="rgb(178,178,0)" stroke-width="0.1"/>
  <path d="M 94.5,55.5 L 94.5,40.5" fill="none" stroke="rgb(178,178,0)" stroke-width="0.1"/>
  <path d="M 80.5,57.5 L 100.0,59.506773252573296" fill="none" stroke="rgb(178,178,0)" stroke-width="0.1"/>
  <path d="M 74.5,89.5 L 77.65700000000004,90.721" fill="none" stroke="rgb(178,178,0)" stroke-width="0.1"/>
  <path d="M 77.65700000000004,90.721 L 78.5,98.5" fill="none" stroke="rgb(178,178,0)" stroke-width="0.1"/>
 </g>
 <g id="layerS38-2$0$A-WALL" inkscape:groupmode="layer" inkscape:label="S38-2$0$A-WALL">
  <path d="M 80.5,57.5 L 88.5,57.5" fill="none" instance-id="-1" semantic-id="1" stroke="rgb(0,178,178)" stroke-width="0.1"/>
  <path d="M 88.5,57.5 L 88.5,55.5" fill="none" instance-id="-1" semantic-id="1" stroke="rgb(0,178,178)" stroke-width="0.1"/>
  <path d="M 88.5,55.5 L 78.5,55.5" fill="none" instance-id="-1" semantic-id="1" stroke="rgb(0,178,178)" stroke-width="0.1"/>
  <path d="M 97.0,57.5 L 99.0,57.5" fill="none" instance-id="-1" semantic-id="1" stroke="rgb(0,178,178)" stroke-width="0.1"/>
  <path d="M 99.0,57.5 L 99.0,55.5" fill="none" instance-id="-1" semantic-id="1" stroke="rgb(0,178,178)" stroke-width="0.1"/>
  <path d="M 99.0,55.5 L 97.0,55.5" fill="none" instance-id="-1" semantic-id="1" stroke="rgb(0,178,178)" stroke-width="0.1"/>
  <path d="M 97.0,55.5 L 97.0,57.5" fill="none" instance-id="-1" semantic-id="1" stroke="rgb(0,178,178)" stroke-width="0.1"/>
  <path d="M 95.0,89.5 L 95.0,93.5" fill="none" instance-id="-1" semantic-id="1" stroke="rgb(0,178,178)" stroke-width="0.1"/>
  <path d="M 95.0,93.5 L 97.0,93.5" fill="none" instance-id="-1" semantic-id="1" stroke="rgb(0,178,178)" stroke-width="0.1"/>
  <path d="M 97.0,93.5 L 97.0,89.5" fill="none" instance-id="-1" semantic-id="1" stroke="rgb(0,178,178)" stroke-width="0.1"/>
  <path d="M 80.5,87.5 L 96.0,87.5" fill="none" instance-id="-1" semantic-id="1" stroke="rgb(0,178,178)" stroke-width="0.1"/>
  <path d="M 80.5,89.5 L 95.0,89.5" fill="none" instance-id="-1" semantic-id="1" stroke="rgb(0,178,178)" stroke-width="0.1"/>
  <path d="M 96.0,87.5 L 100.0,87.5" fill="none" instance-id="-1" semantic-id="1" stroke="rgb(0,178,178)" stroke-width="0.1"/>
  <path d="M 97.0,89.5 L 100.0,89.5" fill="none" instance-id="-1" semantic-id="1" stroke="rgb(0,178,178)" stroke-width="0.1"/>
  <path d="M 78.5,87.5 L 78.5,55.5" fill="none" instance-id="-1" semantic-id="1" stroke="rgb(0,178,178)" stroke-width="0.1"/>
  <path d="M 80.5,87.5 L 80.5,57.5" fill="none" instance-id="-1" semantic-id="1" stroke="rgb(0,178,178)" stroke-width="0.1"/>
  <path d="M 72.5,87.5 L 78.5,87.5" fill="none" instance-id="-1" semantic-id="1" stroke="rgb(0,178,178)" stroke-width="0.1"/>
  <path d="M 74.5,89.5 L 78.5,89.5" fill="none" instance-id="-1" semantic-id="1" stroke="rgb(0,178,178)" stroke-width="0.1"/>
  <path d="M 74.5,98.5 L 78.5,98.5" fill="none" instance-id="-1" semantic-id="1" stroke="rgb(0,178,178)" stroke-width="0.1"/>
  <path d="M 72.5,100.0 L 72.5,87.5" fill="none" instance-id="-1" semantic-id="1" stroke="rgb(0,178,178)" stroke-width="0.1"/>
  <path d="M 74.5,98.5 L 74.5,89.5" fill="none" instance-id="-1" semantic-id="1" stroke="rgb(0,178,178)" stroke-width="0.1"/>
  <path d="M 78.5,98.5 L 78.5,89.5" fill="none" instance-id="-1" semantic-id="1" stroke="rgb(0,178,178)" stroke-width="0.1"/>
  <path d="M 80.5,100.0 L 80.5,89.5" fill="none" instance-id="-1" semantic-id="1" stroke="rgb(0,178,178)" stroke-width="0.1"/>
 </g>
 <g id="layerS38-2$0$A-WINDOW" inkscape:groupmode="layer" inkscape:label="S38-2$0$A-WINDOW">
  <path d="M 99.0,57.5 L 100.0,57.5" fill="none" stroke="rgb(0,178,0)" stroke-width="0.1"/>
  <path d="M 99.0,55.5 L 100.0,55.5" fill="none" stroke="rgb(0,178,0)" stroke-width="0.1"/>
  <path d="M 100.0,56.166700000000006 L 99.0,56.166700000000006" fill="none" stroke="rgb(0,178,0)" stroke-width="0.1"/>
  <path d="M 100.0,56.833299999999994 L 99.0,56.833299999999994" fill="none" stroke="rgb(0,178,0)" stroke-width="0.1"/>
  <path d="M 99.0,57.5 L 99.0,55.5" fill="none" stroke="rgb(0,178,0)" stroke-width="0.1"/>
  <path d="M 88.5,57.5 L 97.0,57.5" fill="none" instance-id="3" semantic-id="9" stroke="rgb(0,178,0)" stroke-width="0.1"/>
  <path d="M 88.5,55.5 L 97.0,55.5" fill="none" instance-id="3" semantic-id="9" stroke="rgb(0,178,0)" stroke-width="0.1"/>
  <path d="M 97.0,56.166700000000006 L 88.5,56.166700000000006" fill="none" instance-id="3" semantic-id="9" stroke="rgb(0,178,0)" stroke-width="0.1"/>
  <path d="M 97.0,56.833299999999994 L 88.5,56.833299999999994" fill="none" instance-id="3" semantic-id="9" stroke="rgb(0,178,0)" stroke-width="0.1"/>
  <path d="M 88.5,57.5 L 88.5,55.5" fill="none" instance-id="3" semantic-id="9" stroke="rgb(0,178,0)" stroke-width="0.1"/>
  <path d="M 97.0,57.5 L 97.0,55.5" fill="none" instance-id="3" semantic-id="9" stroke="rgb(0,178,0)" stroke-width="0.1"/>
  <path d="M 95.0,93.5 L 95.0,100.0" fill="none" instance-id="2" semantic-id="9" stroke="rgb(0,178,0)" stroke-width="0.1"/>
  <path d="M 97.0,93.5 L 97.0,100.0" fill="none" instance-id="2" semantic-id="9" stroke="rgb(0,178,0)" stroke-width="0.1"/>
  <path d="M 96.33299999999997,100.0 L 96.33299999999997,93.5" fill="none" instance-id="2" semantic-id="9" stroke="rgb(0,178,0)" stroke-width="0.1"/>
  <path d="M 95.66700000000003,100.0 L 95.66700000000003,93.5" fill="none" instance-id="2" semantic-id="9" stroke="rgb(0,178,0)" stroke-width="0.1"/>
  <path d="M 95.0,93.5 L 97.0,93.5" fill="none" instance-id="2" semantic-id="9" stroke="rgb(0,178,0)" stroke-width="0.1"/>
 </g>
</svg>