<?xml version="1.0" encoding="utf-8"?>
<svg style="background-color: #000;" version="1.1" viewBox="0 0 100.0 100.0" xmlns="http://www.w3.org/2000/svg" xmlns:inkscape="http://www.inkscape.org/namespaces/inkscape">
 <g id="layerA-AXIS" inkscape:groupmode="layer" inkscape:label="A-AXIS">
  <path d="M 32.0,78.5 L 32.0,100.0" fill="none" stroke="rgb(255,73,12)" stroke-width="0.1"/>
  <path d="M 70.0,78.5 L 70.0,100.0" fill="none" stroke="rgb(255,73,12)" stroke-width="0.1"/>
  <path d="M 97.0,78.5 L 97.0,100.0" fill="none" stroke="rgb(255,73,12)" stroke-width="0.1"/>
  <path d="M 19.5,72.5 L 0.0,72.5" fill="none" stroke="rgb(255,73,12)" stroke-width="0.1"/>
  <path d="M 19.5,57.5 L 0.0,57.5" fill="none" stroke="rgb(255,73,12)" stroke-width="0.1"/>
  <path d="M 19.5,45.5 L 0.0,45.5" fill="none" stroke="rgb(255,73,12)" stroke-width="0.1"/>
  <path d="M 19.5,21.5 L 0.0,21.5" fill="none" stroke="rgb(255,73,12)" stroke-width="0.1"/>
  <path d="M 19.5,6.5 L 0.0,6.5" fill="none" stroke="rgb(255,73,12)" stroke-width="0.1"/>
  <path d="M 32.0,81.5 L 32.0,100.0" fill="none" stroke="rgb(255,73,12)" stroke-width="0.1"/>
  <path d="M 32.0,81.5 L 32.0,100.0" fill="none" stroke="rgb(255,73,12)" stroke-width="0.1"/>
  <path d="M 70.0,81.5 L 70.0,100.0" fill="none" stroke="rgb(255,73,12)" stroke-width="0.1"/>
  <path d="M 70.0,81.5 L 70.0,100.0" fill="none" stroke="rgb(255,73,12)" stroke-width="0.1"/>
  <path d="M 97.0,81.5 L 97.0,100.0" fill="none" stroke="rgb(255,73,12)" stroke-width="0.1"/>
  <path d="M 97.0,81.5 L 97.0,100.0" fill="none" stroke="rgb(255,73,12)" stroke-width="0.1"/>
  <path d="M 16.5,72.5 L 0.0,72.5" fill="none" stroke="rgb(255,73,12)" stroke-width="0.1"/>
  <path d="M 16.5,72.5 L 0.0,72.5" fill="none" stroke="rgb(255,73,12)" stroke-width="0.1"/>
  <path d="M 16.5,57.5 L 0.0,57.5" fill="none" stroke="rgb(255,73,12)" stroke-width="0.1"/>
  <path d="M 16.5,57.5 L 0.0,57.5" fill="none" stroke="rgb(255,73,12)" stroke-width="0.1"/>
  <path d="M 16.5,45.5 L 0.0,45.5" fill="none" stroke="rgb(255,73,12)" stroke-width="0.1"/>
  <path d="M 16.5,45.5 L 0.0,45.5" fill="none" stroke="rgb(255,73,12)" stroke-width="0.1"/>
  <path d="M 16.5,21.5 L 0.0,21.5" fill="none" stroke="rgb(255,73,12)" stroke-width="0.1"/>
  <path d="M 16.5,21.5 L 0.0,21.5" fill="none" stroke="rgb(255,73,12)" stroke-width="0.1"/>
  <path d="M 16.5,6.5 L 0.0,6.5" fill="none" stroke="rgb(255,73,12)" stroke-width="0.1"/>
  <path d="M 16.5,6.5 L 0.0,6.5" fill="none" stroke="rgb(255,73,12)" stroke-width="0.1"/>
 </g>
 <g id="layerA-DIM_ELEV" inkscape:groupmode="layer" inkscape:label="A-DIM_ELEV">
  <path d="M 11.5201,66.84800000000001 L 8.5201,63.84800000000001" fill="none" stroke="rgb(0,178,0)" stroke-width="0.1"/>
  <path d="M 11.5201,66.84800000000001 L 14.5201,63.84800000000001" fill="none" stroke="rgb(0,178,0)" stroke-width="0.1"/>
  <path d="M 8.5201,63.84800000000001 L 24.170099999999998,63.84800000000001" fill="none" stroke="rgb(0,178,0)" stroke-width="0.1"/>
 </g>
 <g id="layerA-DIM_SYMB" inkscape:groupmode="layer" inkscape:label="A-DIM_SYMB">
  <path d="M 21.7538,53.5 L 21.7570996374686,0.0" fill="none" stroke="rgb(0,178,0)" stroke-width="0.1"/>
  <path d="M 1.2500999999999998,0.0 L 1.2500999999999998,14.5" fill="none" stroke="rgb(0,178,0)" stroke-width="0.1"/>
  <path d="M 1.2500999999999998,14.5 L 1.2500999999999998,17.5" fill="none" stroke="rgb(0,178,0)" stroke-width="0.1"/>
 </g>
 <g id="layerA-DOTE" inkscape:groupmode="layer" inkscape:label="A-DOTE">
  <path d="M 32.0,0.0 L 32.0,78.5" fill="none" stroke="rgb(178,0,0)" stroke-width="0.1"/>
  <path d="M 70.0,13.5 L 70.0,78.5" fill="none" stroke="rgb(178,0,0)" stroke-width="0.1"/>
  <path d="M 97.0,13.5 L 97.0,78.5" fill="none" stroke="rgb(178,0,0)" stroke-width="0.1"/>
  <path d="M 100.0,45.5 L 19.5,45.5" fill="none" stroke="rgb(178,0,0)" stroke-width="0.1"/>
  <path d="M 100.0,57.5 L 19.5,57.5" fill="none" stroke="rgb(178,0,0)" stroke-width="0.1"/>
  <path d="M 100.0,72.5 L 19.5,72.5" fill="none" stroke="rgb(178,0,0)" stroke-width="0.1"/>
  <path d="M 100.0,6.5 L 19.5,6.5" fill="none" stroke="rgb(178,0,0)" stroke-width="0.1"/>
  <path d="M 100.0,21.5 L 19.5,21.5" fill="none" stroke="rgb(178,0,0)" stroke-width="0.1"/>
 </g>
 <g id="layerA-EQUIPMENT" inkscape:groupmode="layer" inkscape:label="A-EQUIPMENT">
  <path d="M 78.0,38.5 L 84.0,58.5" fill="none" instance-id="-1" semantic-id="35" stroke="rgb(134,134,134)" stroke-width="0.1"/>
  <path d="M 84.0,38.5 L 90.0,58.5" fill="none" instance-id="-1" semantic-id="35" stroke="rgb(134,134,134)" stroke-width="0.1"/>
  <path d="M 90.0,38.5 L 96.0,58.5" fill="none" instance-id="-1" semantic-id="35" stroke="rgb(134,134,134)" stroke-width="0.1"/>
  <path d="M 78.0,18.5 L 84.0,38.5" fill="none" instance-id="-1" semantic-id="35" stroke="rgb(134,134,134)" stroke-width="0.1"/>
  <path d="M 84.0,18.5 L 90.0,38.5" fill="none" instance-id="-1" semantic-id="35" stroke="rgb(134,134,134)" stroke-width="0.1"/>
  <path d="M 90.0,18.5 L 96.0,38.5" fill="none" instance-id="-1" semantic-id="35" stroke="rgb(134,134,134)" stroke-width="0.1"/>
  <path d="M 99.0,18.5 L 100.0,21.833333333333343" fill="none" instance-id="-1" semantic-id="35" stroke="rgb(134,134,134)" stroke-width="0.1"/>
  <path d="M 72.0,18.5 L 78.0,38.5" fill="none" instance-id="-1" semantic-id="35" stroke="rgb(134,134,134)" stroke-width="0.1"/>
  <path d="M 78.0,58.5 L 78.0,38.5" fill="none" instance-id="-1" semantic-id="35" stroke="rgb(134,134,134)" stroke-width="0.1"/>
  <path d="M 78.0,38.5 L 84.0,38.5" fill="none" instance-id="-1" semantic-id="35" stroke="rgb(134,134,134)" stroke-width="0.1"/>
  <path d="M 84.0,38.5 L 84.0,58.5" fill="none" instance-id="-1" semantic-id="35" stroke="rgb(134,134,134)" stroke-width="0.1"/>
  <path d="M 84.0,58.5 L 78.0,58.5" fill="none" instance-id="-1" semantic-id="35" stroke="rgb(134,134,134)" stroke-width="0.1"/>
  <path d="M 84.0,58.5 L 84.0,38.5" fill="none" instance-id="-1" semantic-id="35" stroke="rgb(134,134,134)" stroke-width="0.1"/>
  <path d="M 84.0,38.5 L 90.0,38.5" fill="none" instance-id="-1" semantic-id="35" stroke="rgb(134,134,134)" stroke-width="0.1"/>
  <path d="M 90.0,38.5 L 90.0,58.5" fill="none" instance-id="-1" semantic-id="35" stroke="rgb(134,134,134)" stroke-width="0.1"/>
  <path d="M 90.0,58.5 L 84.0,58.5" fill="none" instance-id="-1" semantic-id="35" stroke="rgb(134,134,134)" stroke-width="0.1"/>
  <path d="M 90.0,58.5 L 90.0,38.5" fill="none" instance-id="-1" semantic-id="35" stroke="rgb(134,134,134)" stroke-width="0.1"/>
  <path d="M 90.0,38.5 L 96.0,38.5" fill="none" instance-id="-1" semantic-id="35" stroke="rgb(134,134,134)" stroke-width="0.1"/>
  <path d="M 96.0,38.5 L 96.0,58.5" fill="none" instance-id="-1" semantic-id="35" stroke="rgb(134,134,134)" stroke-width="0.1"/>
  <path d="M 96.0,58.5 L 90.0,58.5" fill="none" instance-id="-1" semantic-id="35" stroke="rgb(134,134,134)" stroke-width="0.1"/>
  <path d="M 78.0,38.5 L 78.0,18.5" fill="none" instance-id="-1" semantic-id="35" stroke="rgb(134,134,134)" stroke-width="0.1"/>
  <path d="M 78.0,18.5 L 84.0,18.5" fill="none" instance-id="-1" semantic-id="35" stroke="rgb(134,134,134)" stroke-width="0.1"/>
  <path d="M 84.0,18.5 L 84.0,38.5" fill="none" instance-id="-1" semantic-id="35" stroke="rgb(134,134,134)" stroke-width="0.1"/>
  <path d="M 84.0,38.5 L 78.0,38.5" fill="none" instance-id="-1" semantic-id="35" stroke="rgb(134,134,134)" stroke-width="0.1"/>
  <path d="M 84.0,38.5 L 84.0,18.5" fill="none" instance-id="-1" semantic-id="35" stroke="rgb(134,134,134)" stroke-width="0.1"/>
  <path d="M 84.0,18.5 L 90.0,18.5" fill="none" instance-id="-1" semantic-id="35" stroke="rgb(134,134,134)" stroke-width="0.1"/>
  <path d="M 90.0,18.5 L 90.0,38.5" fill="none" instance-id="-1" semantic-id="35" stroke="rgb(134,134,134)" stroke-width="0.1"/>
  <path d="M 90.0,38.5 L 84.0,38.5" fill="none" instance-id="-1" semantic-id="35" stroke="rgb(134,134,134)" stroke-width="0.1"/>
  <path d="M 90.0,38.5 L 90.0,18.5" fill="none" instance-id="-1" semantic-id="35" stroke="rgb(134,134,134)" stroke-width="0.1"/>
  <path d="M 90.0,18.5 L 96.0,18.5" fill="none" instance-id="-1" semantic-id="35" stroke="rgb(134,134,134)" stroke-width="0.1"/>
  <path d="M 96.0,18.5 L 96.0,38.5" fill="none" instance-id="-1" semantic-id="35" stroke="rgb(134,134,134)" stroke-width="0.1"/>
  <path d="M 96.0,38.5 L 90.0,38.5" fill="none" instance-id="-1" semantic-id="35" stroke="rgb(134,134,134)" stroke-width="0.1"/>
  <path d="M 99.0,38.5 L 99.0,18.5" fill="none" instance-id="-1" semantic-id="35" stroke="rgb(134,134,134)" stroke-width="0.1"/>
  <path d="M 99.0,18.5 L 100.0,18.5" fill="none" instance-id="-1" semantic-id="35" stroke="rgb(134,134,134)" stroke-width="0.1"/>
  <path d="M 100.0,38.5 L 99.0,38.5" fill="none" instance-id="-1" semantic-id="35" stroke="rgb(134,134,134)" stroke-width="0.1"/>
  <path d="M 72.0,38.5 L 72.0,18.5" fill="none" instance-id="-1" semantic-id="35" stroke="rgb(134,134,134)" stroke-width="0.1"/>
  <path d="M 72.0,18.5 L 78.0,18.5" fill="none" instance-id="-1" semantic-id="35" stroke="rgb(134,134,134)" stroke-width="0.1"/>
  <path d="M 78.0,18.5 L 78.0,38.5" fill="none" instance-id="-1" semantic-id="35" stroke="rgb(134,134,134)" stroke-width="0.1"/>
  <path d="M 78.0,38.5 L 72.0,38.5" fill="none" instance-id="-1" semantic-id="35" stroke="rgb(134,134,134)" stroke-width="0.1"/>
  <path d="M 34.0,26.5 L 51.0,16.912000000000006" fill="none" instance-id="-1" semantic-id="35" stroke="rgb(134,134,134)" stroke-width="0.1"/>
  <path d="M 51.0,16.912000000000006 L 51.0,22.912000000000006" fill="none" instance-id="-1" semantic-id="35" stroke="rgb(134,134,134)" stroke-width="0.1"/>
  <path d="M 51.0,22.912000000000006 L 34.0,26.5" fill="none" instance-id="-1" semantic-id="35" stroke="rgb(134,134,134)" stroke-width="0.1"/>
  <path d="M 34.0,26.5 L 34.0,32.5" fill="none" instance-id="-1" semantic-id="35" stroke="rgb(134,134,134)" stroke-width="0.1"/>
  <path d="M 34.0,32.5 L 51.0,22.912000000000006" fill="none" instance-id="-1" semantic-id="35" stroke="rgb(134,134,134)" stroke-width="0.1"/>
  <path d="M 34.0,32.5 L 51.0,22.912000000000006" fill="none" instance-id="-1" semantic-id="35" stroke="rgb(134,134,134)" stroke-width="0.1"/>
  <path d="M 51.0,22.912000000000006 L 51.0,28.912000000000006" fill="none" instance-id="-1" semantic-id="35" stroke="rgb(134,134,134)" stroke-width="0.1"/>
  <path d="M 51.0,28.912000000000006 L 34.0,32.5" fill="none" instance-id="-1" semantic-id="35" stroke="rgb(134,134,134)" stroke-width="0.1"/>
  <path d="M 34.0,32.5 L 34.0,38.5" fill="none" instance-id="-1" semantic-id="35" stroke="rgb(134,134,134)" stroke-width="0.1"/>
  <path d="M 34.0,38.5 L 51.0,28.912000000000006" fill="none" instance-id="-1" semantic-id="35" stroke="rgb(134,134,134)" stroke-width="0.1"/>
  <path d="M 34.0,38.5 L 51.0,28.912000000000006" fill="none" instance-id="-1" semantic-id="35" stroke="rgb(134,134,134)" stroke-width="0.1"/>
  <path d="M 51.0,28.912000000000006 L 51.0,34.912000000000006" fill="none" instance-id="-1" semantic-id="35" stroke="rgb(134,134,134)" stroke-width="0.1"/>
  <path d="M 51.0,34.912000000000006 L 34.0,38.5" fill="none" instance-id="-1" semantic-id="35" stroke="rgb(134,134,134)" stroke-width="0.1"/>
  <path d="M 34.0,38.5 L 34.0,44.5" fill="none" instance-id="-1" semantic-id="35" stroke="rgb(134,134,134)" stroke-width="0.1"/>
  <path d="M 34.0,44.5 L 51.0,34.912000000000006" fill="none" instance-id="-1" semantic-id="35" stroke="rgb(134,134,134)" stroke-width="0.1"/>
  <path d="M 34.0,20.5 L 51.0,10.912000000000006" fill="none" instance-id="-1" semantic-id="35" stroke="rgb(134,134,134)" stroke-width="0.1"/>
  <path d="M 51.0,10.912000000000006 L 51.0,16.912000000000006" fill="none" instance-id="-1" semantic-id="35" stroke="rgb(134,134,134)" stroke-width="0.1"/>
  <path d="M 51.0,16.912000000000006 L 34.0,20.5" fill="none" instance-id="-1" semantic-id="35" stroke="rgb(134,134,134)" stroke-width="0.1"/>
  <path d="M 34.0,20.5 L 34.0,26.5" fill="none" instance-id="-1" semantic-id="35" stroke="rgb(134,134,134)" stroke-width="0.1"/>
  <path d="M 34.0,26.5 L 51.0,16.912000000000006" fill="none" instance-id="-1" semantic-id="35" stroke="rgb(134,134,134)" stroke-width="0.1"/>
  <path d="M 34.0,8.5 L 49.070921985815616,0.0" fill="none" instance-id="-1" semantic-id="35" stroke="rgb(134,134,134)" stroke-width="0.1"/>
  <path d="M 51.0,0.0 L 51.0,4.912000000000006" fill="none" instance-id="-1" semantic-id="35" stroke="rgb(134,134,134)" stroke-width="0.1"/>
  <path d="M 51.0,4.912000000000006 L 34.0,8.5" fill="none" instance-id="-1" semantic-id="35" stroke="rgb(134,134,134)" stroke-width="0.1"/>
  <path d="M 34.0,8.5 L 34.0,14.5" fill="none" instance-id="-1" semantic-id="35" stroke="rgb(134,134,134)" stroke-width="0.1"/>
  <path d="M 34.0,14.5 L 51.0,4.912000000000006" fill="none" instance-id="-1" semantic-id="35" stroke="rgb(134,134,134)" stroke-width="0.1"/>
  <path d="M 34.0,14.5 L 51.0,4.912000000000006" fill="none" instance-id="-1" semantic-id="35" stroke="rgb(134,134,134)" stroke-width="0.1"/>
  <path d="M 51.0,4.912000000000006 L 51.0,10.912000000000006" fill="none" instance-id="-1" semantic-id="35" stroke="rgb(134,134,134)" stroke-width="0.1"/>
  <path d="M 51.0,10.912000000000006 L 34.0,14.5" fill="none" instance-id="-1" semantic-id="35" stroke="rgb(134,134,134)" stroke-width="0.1"/>
  <path d="M 34.0,14.5 L 34.0,20.5" fill="none" instance-id="-1" semantic-id="35" stroke="rgb(134,134,134)" stroke-width="0.1"/>
  <path d="M 34.0,20.5 L 51.0,10.912000000000006" fill="none" instance-id="-1" semantic-id="35" stroke="rgb(134,134,134)" stroke-width="0.1"/>
 </g>
 <g id="layerA-PUB_DIM" inkscape:groupmode="layer" inkscape:label="A-PUB_DIM">
  <path d="M 59.5004,0.0 L 59.5004,18.254999999999995" fill="none" stroke="rgb(0,178,0)" stroke-width="0.1"/>
  <path d="M 71.3,0.0 L 71.3,18.254999999999995" fill="none" stroke="rgb(0,178,0)" stroke-width="0.1"/>
  <path d="M 59.5004,15.754999999999995 L 71.3,15.754999999999995" fill="none" stroke="rgb(0,178,0)" stroke-width="0.1"/>
  <path d="M 71.3,0.0 L 71.3,18.254999999999995" fill="none" stroke="rgb(0,178,0)" stroke-width="0.1"/>
  <path d="M 94.3,0.0 L 94.3,18.254999999999995" fill="none" stroke="rgb(0,178,0)" stroke-width="0.1"/>
  <path d="M 71.3,15.754999999999995 L 94.3,15.754999999999995" fill="none" stroke="rgb(0,178,0)" stroke-width="0.1"/>
  <path d="M 94.3,0.0 L 94.3,18.254999999999995" fill="none" stroke="rgb(0,178,0)" stroke-width="0.1"/>
  <path d="M 94.3,15.754999999999995 L 100.0,15.754999999999995" fill="none" stroke="rgb(0,178,0)" stroke-width="0.1"/>
  <path d="M 82.0,0.0 L 82.0,11.824999999999989" fill="none" stroke="rgb(0,178,0)" stroke-width="0.1"/>
  <path d="M 94.0,0.0 L 94.0,11.824999999999989" fill="none" stroke="rgb(0,178,0)" stroke-width="0.1"/>
  <path d="M 82.0,9.324999999999989 L 94.0,9.324999999999989" fill="none" stroke="rgb(0,178,0)" stroke-width="0.1"/>
  <path d="M 94.0,0.0 L 94.0,11.824999999999989" fill="none" stroke="rgb(0,178,0)" stroke-width="0.1"/>
  <path d="M 94.0,9.324999999999989 L 100.0,9.324999999999989" fill="none" stroke="rgb(0,178,0)" stroke-width="0.1"/>
  <path d="M 1.0000999999999998,49.5 L 1.0000999999999998,28.5" fill="none" stroke="rgb(0,178,0)" stroke-width="0.1"/>
  <path d="M 1.0000999999999998,28.5 L 1.0000999999999998,25.5" fill="none" stroke="rgb(0,178,0)" stroke-width="0.1"/>
  <path d="M 10.0028,21.02000000000001 L 1.3552999999999997,25.25" fill="none" stroke="rgb(0,178,0)" stroke-width="0.1"/>
  <path d="M 1.3552999999999997,25.25 L 1.5915,27.473000000000013" fill="none" stroke="rgb(0,178,0)" stroke-width="0.1"/>
  <path d="M 1.5915,27.473000000000013 L 0.0,25.287444798470602" fill="none" stroke="rgb(0,178,0)" stroke-width="0.1"/>
  <path d="M 10.0028,19.532999999999987 L 1.3552999999999997,23.76400000000001" fill="none" stroke="rgb(0,178,0)" stroke-width="0.1"/>
  <path d="M 1.3552999999999997,23.76400000000001 L 1.5915,25.98599999999999" fill="none" stroke="rgb(0,178,0)" stroke-width="0.1"/>
  <path d="M 1.5915,25.98599999999999 L 0.0,23.801078660187983" fill="none" stroke="rgb(0,178,0)" stroke-width="0.1"/>
  <text fill="rgb(0,178,0)" font-family="Noto Sans CJK SC" font-size="2" transform="rotate(-0.0,61.25020000000001,14.754999999999995)" x="61.25020000000001" y="14.754999999999995">
   1180
  </text>
  <text fill="rgb(0,178,0)" font-family="Noto Sans CJK SC" font-size="2" transform="rotate(-0.0,78.8,14.754999999999995)" x="78.8" y="14.754999999999995">
   2300
  </text>
  <text fill="rgb(0,178,0)" font-family="Noto Sans CJK SC" font-size="2" transform="rotate(-0.0,95.15,14.754999999999995)" x="95.15" y="14.754999999999995">
   770
  </text>
  <text fill="rgb(0,178,0)" font-family="Noto Sans CJK SC" font-size="2" transform="rotate(-0.0,83.85,8.324999999999989)" x="83.85" y="8.324999999999989">
   1200
  </text>
  <text fill="rgb(0,178,0)" font-family="Noto Sans CJK SC" font-size="2" transform="rotate(-0.0,95.0,8.324999999999989)" x="95.0" y="8.324999999999989">
   800
  </text>
 </g>
 <g id="layerA-PUB_HATCH" inkscape:groupmode="layer" inkscape:label="A-PUB_HATCH">
  <path d="M 33.5,47.510999999999996 L 36.5,47.510999999999996" fill="none" stroke="rgb(89,89,89)" stroke-width="0.1"/>
  <path d="M 33.5,48.464 L 36.5,48.464" fill="none" stroke="rgb(89,89,89)" stroke-width="0.1"/>
  <path d="M 33.5,49.416 L 36.5,49.416" fill="none" stroke="rgb(89,89,89)" stroke-width="0.1"/>
  <path d="M 33.5,50.369 L 36.5,50.369" fill="none" stroke="rgb(89,89,89)" stroke-width="0.1"/>
  <path d="M 33.5,51.321 L 36.5,51.321" fill="none" stroke="rgb(89,89,89)" stroke-width="0.1"/>
  <path d="M 33.5,52.274 L 36.5,52.274" fill="none" stroke="rgb(89,89,89)" stroke-width="0.1"/>
  <path d="M 33.5,53.226 L 36.5,53.226" fill="none" stroke="rgb(89,89,89)" stroke-width="0.1"/>
  <path d="M 33.5,54.179 L 36.5,54.179" fill="none" stroke="rgb(89,89,89)" stroke-width="0.1"/>
  <path d="M 33.5,55.131 L 36.5,55.131" fill="none" stroke="rgb(89,89,89)" stroke-width="0.1"/>
  <path d="M 33.5,56.084 L 36.5,56.084" fill="none" stroke="rgb(89,89,89)" stroke-width="0.1"/>
  <path d="M 33.5,57.036 L 36.5,57.036" fill="none" stroke="rgb(89,89,89)" stroke-width="0.1"/>
  <path d="M 33.5,57.989000000000004 L 36.5,57.989000000000004" fill="none" stroke="rgb(89,89,89)" stroke-width="0.1"/>
  <path d="M 33.5,58.941 L 36.5,58.941" fill="none" stroke="rgb(89,89,89)" stroke-width="0.1"/>
  <path d="M 33.5,59.894000000000005 L 36.5,59.894000000000005" fill="none" stroke="rgb(89,89,89)" stroke-width="0.1"/>
  <path d="M 33.5,60.846000000000004 L 36.5,60.846000000000004" fill="none" stroke="rgb(89,89,89)" stroke-width="0.1"/>
  <path d="M 33.5,61.79900000000001 L 36.5,61.79900000000001" fill="none" stroke="rgb(89,89,89)" stroke-width="0.1"/>
  <path d="M 33.5,62.751000000000005 L 36.5,62.751000000000005" fill="none" stroke="rgb(89,89,89)" stroke-width="0.1"/>
  <path d="M 33.5,63.70400000000001 L 36.5,63.70400000000001" fill="none" stroke="rgb(89,89,89)" stroke-width="0.1"/>
  <path d="M 33.5,64.656 L 36.5,64.656" fill="none" stroke="rgb(89,89,89)" stroke-width="0.1"/>
  <path d="M 33.5,65.60900000000001 L 36.5,65.60900000000001" fill="none" stroke="rgb(89,89,89)" stroke-width="0.1"/>
  <path d="M 33.5,66.561 L 36.5,66.561" fill="none" stroke="rgb(89,89,89)" stroke-width="0.1"/>
  <path d="M 33.5,67.51400000000001 L 36.5,67.51400000000001" fill="none" stroke="rgb(89,89,89)" stroke-width="0.1"/>
  <path d="M 33.5,68.46600000000001 L 36.5,68.46600000000001" fill="none" stroke="rgb(89,89,89)" stroke-width="0.1"/>
  <path d="M 33.5,69.41900000000001 L 36.5,69.41900000000001" fill="none" stroke="rgb(89,89,89)" stroke-width="0.1"/>
  <path d="M 33.5,70.37100000000001 L 36.5,70.37100000000001" fill="none" stroke="rgb(89,89,89)" stroke-width="0.1"/>
  <path d="M 33.5,71.32400000000001 L 36.5,71.32400000000001" fill="none" stroke="rgb(89,89,89)" stroke-width="0.1"/>
  <path d="M 33.5,72.27600000000001 L 36.5,72.27600000000001" fill="none" stroke="rgb(89,89,89)" stroke-width="0.1"/>
  <path d="M 33.5,47.82900000000001 L 36.5,47.82900000000001" fill="none" stroke="rgb(89,89,89)" stroke-width="0.1"/>
  <path d="M 33.5,48.781000000000006 L 36.5,48.781000000000006" fill="none" stroke="rgb(89,89,89)" stroke-width="0.1"/>
  <path d="M 33.5,49.73400000000001 L 36.5,49.73400000000001" fill="none" stroke="rgb(89,89,89)" stroke-width="0.1"/>
  <path d="M 33.5,50.68600000000001 L 36.5,50.68600000000001" fill="none" stroke="rgb(89,89,89)" stroke-width="0.1"/>
  <path d="M 33.5,51.63900000000001 L 36.5,51.63900000000001" fill="none" stroke="rgb(89,89,89)" stroke-width="0.1"/>
  <path d="M 33.5,52.59100000000001 L 36.5,52.59100000000001" fill="none" stroke="rgb(89,89,89)" stroke-width="0.1"/>
  <path d="M 33.5,53.54400000000001 L 36.5,53.54400000000001" fill="none" stroke="rgb(89,89,89)" stroke-width="0.1"/>
  <path d="M 33.5,54.49600000000001 L 36.5,54.49600000000001" fill="none" stroke="rgb(89,89,89)" stroke-width="0.1"/>
  <path d="M 33.5,55.44900000000001 L 36.5,55.44900000000001" fill="none" stroke="rgb(89,89,89)" stroke-width="0.1"/>
  <path d="M 33.5,56.40100000000001 L 36.5,56.40100000000001" fill="none" stroke="rgb(89,89,89)" stroke-width="0.1"/>
  <path d="M 33.5,57.35400000000001 L 36.5,57.35400000000001" fill="none" stroke="rgb(89,89,89)" stroke-width="0.1"/>
  <path d="M 33.5,58.30600000000001 L 36.5,58.30600000000001" fill="none" stroke="rgb(89,89,89)" stroke-width="0.1"/>
  <path d="M 33.5,59.258999999999986 L 36.5,59.258999999999986" fill="none" stroke="rgb(89,89,89)" stroke-width="0.1"/>
  <path d="M 33.5,60.21100000000001 L 36.5,60.21100000000001" fill="none" stroke="rgb(89,89,89)" stroke-width="0.1"/>
  <path d="M 33.5,61.16399999999999 L 36.5,61.16399999999999" fill="none" stroke="rgb(89,89,89)" stroke-width="0.1"/>
  <path d="M 33.5,62.116000000000014 L 36.5,62.116000000000014" fill="none" stroke="rgb(89,89,89)" stroke-width="0.1"/>
  <path d="M 33.5,63.06899999999999 L 36.5,63.06899999999999" fill="none" stroke="rgb(89,89,89)" stroke-width="0.1"/>
  <path d="M 33.5,64.02099999999999 L 36.5,64.02099999999999" fill="none" stroke="rgb(89,89,89)" stroke-width="0.1"/>
  <path d="M 33.5,64.97399999999999 L 36.5,64.97399999999999" fill="none" stroke="rgb(89,89,89)" stroke-width="0.1"/>
  <path d="M 33.5,65.92599999999999 L 36.5,65.92599999999999" fill="none" stroke="rgb(89,89,89)" stroke-width="0.1"/>
  <path d="M 33.5,66.87899999999999 L 36.5,66.87899999999999" fill="none" stroke="rgb(89,89,89)" stroke-width="0.1"/>
  <path d="M 33.5,67.83099999999999 L 36.5,67.83099999999999" fill="none" stroke="rgb(89,89,89)" stroke-width="0.1"/>
  <path d="M 33.5,68.78399999999999 L 36.5,68.78399999999999" fill="none" stroke="rgb(89,89,89)" stroke-width="0.1"/>
  <path d="M 33.5,69.73599999999999 L 36.5,69.73599999999999" fill="none" stroke="rgb(89,89,89)" stroke-width="0.1"/>
  <path d="M 33.5,70.689 L 36.5,70.689" fill="none" stroke="rgb(89,89,89)" stroke-width="0.1"/>
  <path d="M 33.5,71.64099999999999 L 36.5,71.64099999999999" fill="none" stroke="rgb(89,89,89)" stroke-width="0.1"/>
  <path d="M 33.5,72.594 L 36.5,72.594" fill="none" stroke="rgb(89,89,89)" stroke-width="0.1"/>
  <path d="M 33.5,73.0 L 36.5,73.0" fill="none" stroke="rgb(89,89,89)" stroke-width="0.1"/>
  <path d="M 36.5,73.0 L 36.5,47.0" fill="none" stroke="rgb(89,89,89)" stroke-width="0.1"/>
  <path d="M 36.5,47.0 L 33.5,47.0" fill="none" stroke="rgb(89,89,89)" stroke-width="0.1"/>
  <path d="M 33.5,47.0 L 33.5,73.0" fill="none" stroke="rgb(89,89,89)" stroke-width="0.1"/>
  <path d="M 24.301000000000002,73.5 L 24.301000000000002,76.5" fill="none" instance-id="-1" semantic-id="1" stroke="rgb(89,89,89)" stroke-width="0.1"/>
  <path d="M 24.301000000000002,76.5 L 100.0,76.5" fill="none" instance-id="-1" semantic-id="1" stroke="rgb(89,89,89)" stroke-width="0.1"/>
  <path d="M 100.0,73.5 L 24.301000000000002,73.5" fill="none" instance-id="-1" semantic-id="1" stroke="rgb(89,89,89)" stroke-width="0.1"/>
  <path d="M 97.801,78.5 L 100.0,78.5" fill="none" instance-id="-1" semantic-id="1" stroke="rgb(89,89,89)" stroke-width="0.1"/>
  <path d="M 100.0,73.5 L 97.801,73.5" fill="none" instance-id="-1" semantic-id="1" stroke="rgb(89,89,89)" stroke-width="0.1"/>
  <path d="M 97.801,73.5 L 97.801,78.5" fill="none" instance-id="-1" semantic-id="1" stroke="rgb(89,89,89)" stroke-width="0.1"/>
  <path d="M 19.301000000000002,78.5 L 24.301000000000002,78.5" fill="none" instance-id="-1" semantic-id="1" stroke="rgb(89,89,89)" stroke-width="0.1"/>
  <path d="M 24.301000000000002,78.5 L 24.301000000000002,73.5" fill="none" instance-id="-1" semantic-id="1" stroke="rgb(89,89,89)" stroke-width="0.1"/>
  <path d="M 24.301000000000002,73.5 L 19.301000000000002,73.5" fill="none" instance-id="-1" semantic-id="1" stroke="rgb(89,89,89)" stroke-width="0.1"/>
  <path d="M 19.301000000000002,73.5 L 19.301000000000002,78.5" fill="none" instance-id="-1" semantic-id="1" stroke="rgb(89,89,89)" stroke-width="0.1"/>
  <path d="M 69.0,18.5 L 69.0,44.5" fill="none" instance-id="-1" semantic-id="1" stroke="rgb(89,89,89)" stroke-width="0.1"/>
  <path d="M 69.0,44.5 L 63.0,44.5" fill="none" instance-id="-1" semantic-id="1" stroke="rgb(89,89,89)" stroke-width="0.1"/>
  <path d="M 63.0,44.5 L 63.0,46.5" fill="none" instance-id="-1" semantic-id="1" stroke="rgb(89,89,89)" stroke-width="0.1"/>
  <path d="M 63.0,46.5 L 78.0,46.5" fill="none" instance-id="-1" semantic-id="1" stroke="rgb(89,89,89)" stroke-width="0.1"/>
  <path d="M 78.0,46.5 L 78.0,44.5" fill="none" instance-id="-1" semantic-id="1" stroke="rgb(89,89,89)" stroke-width="0.1"/>
  <path d="M 78.0,44.5 L 71.0,44.5" fill="none" instance-id="-1" semantic-id="1" stroke="rgb(89,89,89)" stroke-width="0.1"/>
  <path d="M 71.0,44.5 L 71.0,18.5" fill="none" instance-id="-1" semantic-id="1" stroke="rgb(89,89,89)" stroke-width="0.1"/>
  <path d="M 71.0,18.5 L 69.0,18.5" fill="none" instance-id="-1" semantic-id="1" stroke="rgb(89,89,89)" stroke-width="0.1"/>
  <path d="M 69.0,18.5 L 69.0,44.5" fill="none" instance-id="-1" semantic-id="1" stroke="rgb(89,89,89)" stroke-width="0.1"/>
  <path d="M 69.0,44.5 L 63.0,44.5" fill="none" instance-id="-1" semantic-id="1" stroke="rgb(89,89,89)" stroke-width="0.1"/>
  <path d="M 63.0,44.5 L 63.0,46.5" fill="none" instance-id="-1" semantic-id="1" stroke="rgb(89,89,89)" stroke-width="0.1"/>
  <path d="M 63.0,46.5 L 78.0,46.5" fill="none" instance-id="-1" semantic-id="1" stroke="rgb(89,89,89)" stroke-width="0.1"/>
  <path d="M 78.0,46.5 L 78.0,44.5" fill="none" instance-id="-1" semantic-id="1" stroke="rgb(89,89,89)" stroke-width="0.1"/>
  <path d="M 78.0,44.5 L 71.0,44.5" fill="none" instance-id="-1" semantic-id="1" stroke="rgb(89,89,89)" stroke-width="0.1"/>
  <path d="M 71.0,44.5 L 71.0,18.5" fill="none" instance-id="-1" semantic-id="1" stroke="rgb(89,89,89)" stroke-width="0.1"/>
  <path d="M 71.0,18.5 L 69.0,18.5" fill="none" instance-id="-1" semantic-id="1" stroke="rgb(89,89,89)" stroke-width="0.1"/>
  <path d="M 31.0,46.5 L 38.998900000000006,46.5" fill="none" instance-id="-1" semantic-id="1" stroke="rgb(89,89,89)" stroke-width="0.1"/>
  <path d="M 38.998900000000006,46.5 L 39.0,44.5" fill="none" instance-id="-1" semantic-id="1" stroke="rgb(89,89,89)" stroke-width="0.1"/>
  <path d="M 39.0,44.5 L 33.0,44.5" fill="none" instance-id="-1" semantic-id="1" stroke="rgb(89,89,89)" stroke-width="0.1"/>
  <path d="M 33.0,44.5 L 33.0,25.0" fill="none" instance-id="-1" semantic-id="1" stroke="rgb(89,89,89)" stroke-width="0.1"/>
  <path d="M 33.0,25.0 L 31.0,25.0" fill="none" instance-id="-1" semantic-id="1" stroke="rgb(89,89,89)" stroke-width="0.1"/>
  <path d="M 31.0,25.0 L 31.0,46.5" fill="none" instance-id="-1" semantic-id="1" stroke="rgb(89,89,89)" stroke-width="0.1"/>
  <path d="M 31.0,0.0 L 31.0,5.0" fill="none" instance-id="-1" semantic-id="1" stroke="rgb(89,89,89)" stroke-width="0.1"/>
  <path d="M 31.0,5.0 L 33.0,5.0" fill="none" instance-id="-1" semantic-id="1" stroke="rgb(89,89,89)" stroke-width="0.1"/>
  <path d="M 33.0,5.0 L 33.0,0.0" fill="none" instance-id="-1" semantic-id="1" stroke="rgb(89,89,89)" stroke-width="0.1"/>
  <path d="M 100.0,56.5 L 98.5,56.5" fill="none" instance-id="-1" semantic-id="1" stroke="rgb(89,89,89)" stroke-width="0.1"/>
  <path d="M 98.5,56.5 L 98.5,18.5" fill="none" instance-id="-1" semantic-id="1" stroke="rgb(89,89,89)" stroke-width="0.1"/>
  <path d="M 98.5,18.5 L 96.0,18.5" fill="none" instance-id="-1" semantic-id="1" stroke="rgb(89,89,89)" stroke-width="0.1"/>
  <path d="M 96.0,18.5 L 96.0,58.5" fill="none" instance-id="-1" semantic-id="1" stroke="rgb(89,89,89)" stroke-width="0.1"/>
  <path d="M 96.0,58.5 L 100.0,58.5" fill="none" instance-id="-1" semantic-id="1" stroke="rgb(89,89,89)" stroke-width="0.1"/>
 </g>
 <g id="layerA-PUB_TEXT" inkscape:groupmode="layer" inkscape:label="A-PUB_TEXT">
  <text fill="rgb(0,0,0)" font-family="Noto Sans CJK SC" font-size="2" transform="rotate(-0.0,12.8701,62.798)" x="12.8701" y="62.798">
   -3.000
  </text>
  <text fill="rgb(0,0,0)" font-family="Noto Sans CJK SC" font-size="2" transform="rotate(-0.0,20.804299999999998,58.05000000000001)" x="20.804299999999998" y="58.05000000000001">
   下
  </text>
 </g>
 <g id="layerA-STAIR" inkscape:groupmode="layer" inkscape:label="A-STAIR">
  <path d="M 7.000100000000003,53.5 L 7.002600000000001,22.488" fill="none" stroke="rgb(178,178,0)" stroke-width="0.1"/>
  <path d="M 7.002699999999997,21.001000000000005 L 7.003692738445871,0.0" fill="none" stroke="rgb(178,178,0)" stroke-width="0.1"/>
  <path d="M 0.3398000000000003,25.5 L 7.000100000000003,25.5" fill="none" stroke="rgb(178,178,0)" stroke-width="0.1"/>
  <path d="M 0.0,29.5 L 7.000100000000003,29.5" fill="none" stroke="rgb(178,178,0)" stroke-width="0.1"/>
  <path d="M 0.0,33.5 L 7.000100000000003,33.5" fill="none" stroke="rgb(178,178,0)" stroke-width="0.1"/>
  <path d="M 0.0,37.5 L 7.000100000000003,37.5" fill="none" stroke="rgb(178,178,0)" stroke-width="0.1"/>
  <path d="M 0.0,41.5 L 7.000100000000003,41.5" fill="none" stroke="rgb(178,178,0)" stroke-width="0.1"/>
  <path d="M 0.0,45.5 L 7.000100000000003,45.5" fill="none" stroke="rgb(178,178,0)" stroke-width="0.1"/>
  <path d="M 0.0,49.5 L 7.000100000000003,49.5" fill="none" stroke="rgb(178,178,0)" stroke-width="0.1"/>
  <path d="M 7.000100000000003,53.5 L 12.503999999999998,53.5" fill="none" stroke="rgb(178,178,0)" stroke-width="0.1"/>
  <path d="M 0.0,9.5 L 7.000100000000003,9.5" fill="none" stroke="rgb(178,178,0)" stroke-width="0.1"/>
  <path d="M 0.0,13.5 L 7.000100000000003,13.5" fill="none" stroke="rgb(178,178,0)" stroke-width="0.1"/>
  <path d="M 0.0,17.5 L 7.000100000000003,17.5" fill="none" stroke="rgb(178,178,0)" stroke-width="0.1"/>
  <path d="M 0.0,21.5 L 5.9827999999999975,21.5" fill="none" stroke="rgb(178,178,0)" stroke-width="0.1"/>
  <path d="M 27.5079,0.0 L 27.5079,53.5" fill="none" instance-id="1" semantic-id="30" stroke="rgb(178,178,0)" stroke-width="0.1"/>
  <path d="M 16.007599999999996,53.5 L 16.00439,0.0" fill="none" instance-id="1" semantic-id="30" stroke="rgb(178,178,0)" stroke-width="0.1"/>
  <path d="M 27.5079,21.5 L 16.0079,21.5" fill="none" instance-id="1" semantic-id="30" stroke="rgb(178,178,0)" stroke-width="0.1"/>
  <path d="M 27.5079,25.5 L 16.0079,25.5" fill="none" instance-id="1" semantic-id="30" stroke="rgb(178,178,0)" stroke-width="0.1"/>
  <path d="M 27.5079,29.5 L 16.0079,29.5" fill="none" instance-id="1" semantic-id="30" stroke="rgb(178,178,0)" stroke-width="0.1"/>
  <path d="M 27.5079,33.5 L 16.0079,33.5" fill="none" instance-id="1" semantic-id="30" stroke="rgb(178,178,0)" stroke-width="0.1"/>
  <path d="M 27.5079,37.5 L 16.0079,37.5" fill="none" instance-id="1" semantic-id="30" stroke="rgb(178,178,0)" stroke-width="0.1"/>
  <path d="M 27.5079,41.5 L 16.0079,41.5" fill="none" instance-id="1" semantic-id="30" stroke="rgb(178,178,0)" stroke-width="0.1"/>
  <path d="M 27.5079,45.5 L 16.0079,45.5" fill="none" instance-id="1" semantic-id="30" stroke="rgb(178,178,0)" stroke-width="0.1"/>
  <path d="M 27.5079,5.5 L 16.0079,5.5" fill="none" instance-id="1" semantic-id="30" stroke="rgb(178,178,0)" stroke-width="0.1"/>
  <path d="M 27.5079,9.5 L 16.0079,9.5" fill="none" instance-id="1" semantic-id="30" stroke="rgb(178,178,0)" stroke-width="0.1"/>
  <path d="M 27.5079,13.5 L 16.0079,13.5" fill="none" instance-id="1" semantic-id="30" stroke="rgb(178,178,0)" stroke-width="0.1"/>
  <path d="M 27.5079,17.5 L 16.0079,17.5" fill="none" instance-id="1" semantic-id="30" stroke="rgb(178,178,0)" stroke-width="0.1"/>
  <path d="M 27.5079,49.5 L 16.0079,49.5" fill="none" instance-id="1" semantic-id="30" stroke="rgb(178,178,0)" stroke-width="0.1"/>
  <path d="M 31.000100000000003,53.5 L 12.507599999999996,53.5" fill="none" instance-id="1" semantic-id="30" stroke="rgb(178,178,0)" stroke-width="0.1"/>
  <path d="M 0.0,5.5 L 7.000100000000003,5.5" fill="none" stroke="rgb(178,178,0)" stroke-width="0.1"/>
  <path d="M 27.5079,1.5 L 16.0079,1.5" fill="none" instance-id="1" semantic-id="30" stroke="rgb(178,178,0)" stroke-width="0.1"/>
  <path d="M 0.0,1.5 L 7.000100000000003,1.5" fill="none" stroke="rgb(178,178,0)" stroke-width="0.1"/>
 </g>
 <g id="layerA-WALL" inkscape:groupmode="layer" inkscape:label="A-WALL">
  <path d="M 33.0,0.0 L 33.0,53.5" fill="none" instance-id="-1" semantic-id="1" stroke="rgb(0,178,178)" stroke-width="0.1"/>
  <path d="M 31.0,0.0 L 31.0,53.5" fill="none" instance-id="-1" semantic-id="1" stroke="rgb(0,178,178)" stroke-width="0.1"/>
  <path d="M 33.0,53.5 L 31.0,53.5" fill="none" instance-id="-1" semantic-id="1" stroke="rgb(0,178,178)" stroke-width="0.1"/>
  <path d="M 12.503999999999998,0.0 L 12.503999999999998,53.5" fill="none" instance-id="-1" semantic-id="1" stroke="rgb(0,178,178)" stroke-width="0.1"/>
  <path d="M 10.503999999999998,0.0 L 10.503999999999998,53.5" fill="none" instance-id="-1" semantic-id="1" stroke="rgb(0,178,178)" stroke-width="0.1"/>
  <path d="M 12.503999999999998,53.5 L 10.503999999999998,53.5" fill="none" instance-id="-1" semantic-id="1" stroke="rgb(0,178,178)" stroke-width="0.1"/>
  <path d="M 33.0,75.5 L 0.0,75.5" fill="none" instance-id="-1" semantic-id="1" stroke="rgb(0,178,178)" stroke-width="0.1"/>
  <path d="M 33.0,73.5 L 0.0,73.5" fill="none" instance-id="-1" semantic-id="1" stroke="rgb(0,178,178)" stroke-width="0.1"/>
  <path d="M 33.0,75.5 L 33.0,73.5" fill="none" instance-id="-1" semantic-id="1" stroke="rgb(0,178,178)" stroke-width="0.1"/>
  <path d="M 31.0,46.5 L 39.0,46.5" fill="none" instance-id="-1" semantic-id="1" stroke="rgb(0,178,178)" stroke-width="0.1"/>
  <path d="M 39.0,46.5 L 39.0,44.5" fill="none" instance-id="-1" semantic-id="1" stroke="rgb(0,178,178)" stroke-width="0.1"/>
  <path d="M 39.0,44.5 L 33.0,44.5" fill="none" instance-id="-1" semantic-id="1" stroke="rgb(0,178,178)" stroke-width="0.1"/>
  <path d="M 65.0,44.5 L 63.0,44.5" fill="none" instance-id="-1" semantic-id="1" stroke="rgb(0,178,178)" stroke-width="0.1"/>
  <path d="M 63.0,44.5 L 63.0,46.5" fill="none" instance-id="-1" semantic-id="1" stroke="rgb(0,178,178)" stroke-width="0.1"/>
  <path d="M 65.0,74.5 L 65.0,71.5" fill="none" instance-id="-1" semantic-id="1" stroke="rgb(0,178,178)" stroke-width="0.1"/>
  <path d="M 65.0,71.5 L 63.0,71.5" fill="none" instance-id="-1" semantic-id="1" stroke="rgb(0,178,178)" stroke-width="0.1"/>
  <path d="M 63.0,71.5 L 63.0,74.5" fill="none" instance-id="-1" semantic-id="1" stroke="rgb(0,178,178)" stroke-width="0.1"/>
  <path d="M 63.0,74.5 L 65.0,74.5" fill="none" instance-id="-1" semantic-id="1" stroke="rgb(0,178,178)" stroke-width="0.1"/>
  <path d="M 63.0,46.5 L 63.0,56.5" fill="none" instance-id="-1" semantic-id="1" stroke="rgb(0,178,178)" stroke-width="0.1"/>
  <path d="M 63.0,56.5 L 65.0,56.5" fill="none" instance-id="-1" semantic-id="1" stroke="rgb(0,178,178)" stroke-width="0.1"/>
  <path d="M 65.0,56.5 L 65.0,44.5" fill="none" instance-id="-1" semantic-id="1" stroke="rgb(0,178,178)" stroke-width="0.1"/>
  <path d="M 31.0,46.5 L 31.0,0.0" fill="none" instance-id="-1" semantic-id="1" stroke="rgb(0,178,178)" stroke-width="0.1"/>
  <path d="M 33.0,44.5 L 33.0,0.0" fill="none" instance-id="-1" semantic-id="1" stroke="rgb(0,178,178)" stroke-width="0.1"/>
  <path d="M 100.0,76.5 L 24.301000000000002,76.5" fill="none" instance-id="-1" semantic-id="1" stroke="rgb(0,178,178)" stroke-width="0.1"/>
  <path d="M 100.0,73.5 L 24.301000000000002,73.5" fill="none" instance-id="-1" semantic-id="1" stroke="rgb(0,178,178)" stroke-width="0.1"/>
  <path d="M 24.301000000000002,76.5 L 24.301000000000002,73.5" fill="none" instance-id="-1" semantic-id="1" stroke="rgb(0,178,178)" stroke-width="0.1"/>
 </g>
 <g id="layerA-WATER" inkscape:groupmode="layer" inkscape:label="A-WATER">
  <path d="M 33.0,46.5 L 33.0,73.5" fill="none" stroke="rgb(73,12,255)" stroke-width="0.1"/>
  <path d="M 33.0,73.5 L 37.0,73.5" fill="none" stroke="rgb(73,12,255)" stroke-width="0.1"/>
  <path d="M 37.0,73.5 L 37.0,46.5" fill="none" stroke="rgb(73,12,255)" stroke-width="0.1"/>
  <path d="M 37.0,46.5 L 33.0,46.5" fill="none" stroke="rgb(73,12,255)" stroke-width="0.1"/>
  <path d="M 33.5,47.0 L 33.5,73.0" fill="none" stroke="rgb(73,12,255)" stroke-width="0.1"/>
  <path d="M 33.5,73.0 L 36.5,73.0" fill="none" stroke="rgb(73,12,255)" stroke-width="0.1"/>
  <path d="M 36.5,73.0 L 36.5,47.0" fill="none" stroke="rgb(73,12,255)" stroke-width="0.1"/>
  <path d="M 36.5,47.0 L 33.5,47.0" fill="none" stroke="rgb(73,12,255)" stroke-width="0.1"/>
 </g>
 <g id="layerA-WINDOW" inkscape:groupmode="layer" inkscape:label="A-WINDOW">
  <path d="M 64.0,71.5 L 56.6875,71.5" fill="none" instance-id="3" semantic-id="4" stroke="rgb(0,178,0)" stroke-width="0.1"/>
  <path d="M 64.0,71.125 L 56.6875,71.125" fill="none" instance-id="3" semantic-id="4" stroke="rgb(0,178,0)" stroke-width="0.1"/>
  <path d="M 64.0,71.5 L 64.0,71.125" fill="none" instance-id="3" semantic-id="4" stroke="rgb(0,178,0)" stroke-width="0.1"/>
  <path d="M 56.6875,71.125 L 56.6875,71.5" fill="none" instance-id="3" semantic-id="4" stroke="rgb(0,178,0)" stroke-width="0.1"/>
  <path d="M 64.0,56.875 L 56.6875,56.875" fill="none" instance-id="3" semantic-id="4" stroke="rgb(0,178,0)" stroke-width="0.1"/>
  <path d="M 64.0,56.5 L 56.6875,56.5" fill="none" instance-id="3" semantic-id="4" stroke="rgb(0,178,0)" stroke-width="0.1"/>
  <path d="M 56.6875,56.875 L 56.6875,56.5" fill="none" instance-id="3" semantic-id="4" stroke="rgb(0,178,0)" stroke-width="0.1"/>
  <path d="M 64.0,56.5 L 64.0,56.875" fill="none" instance-id="3" semantic-id="4" stroke="rgb(0,178,0)" stroke-width="0.1"/>
  <path d="M 39.0,44.5 L 39.0,46.5" fill="none" instance-id="5" semantic-id="11" stroke="rgb(0,178,0)" stroke-width="0.1"/>
  <path d="M 63.0,46.5 L 63.0,44.5" fill="none" instance-id="5" semantic-id="11" stroke="rgb(0,178,0)" stroke-width="0.1"/>
  <path d="M 39.0,44.5 L 63.0,44.5" fill="none" instance-id="5" semantic-id="11" stroke="rgb(0,178,0)" stroke-width="0.1"/>
  <path d="M 39.0,46.5 L 63.0,46.5" fill="none" instance-id="5" semantic-id="11" stroke="rgb(0,178,0)" stroke-width="0.1"/>
  <path d="M 63.0,45.833 L 39.0,45.833" fill="none" instance-id="5" semantic-id="11" stroke="rgb(0,178,0)" stroke-width="0.1"/>
  <path d="M 63.0,45.167 L 39.0,45.167" fill="none" instance-id="5" semantic-id="11" stroke="rgb(0,178,0)" stroke-width="0.1"/>
  <path d="M 39.0,45.167 L 40.5385,45.833" fill="none" instance-id="5" semantic-id="11" stroke="rgb(0,178,0)" stroke-width="0.1"/>
  <path d="M 42.2636,45.167 L 43.80200000000001,45.833" fill="none" instance-id="5" semantic-id="11" stroke="rgb(0,178,0)" stroke-width="0.1"/>
  <path d="M 40.6318,45.167 L 42.170199999999994,45.833" fill="none" instance-id="5" semantic-id="11" stroke="rgb(0,178,0)" stroke-width="0.1"/>
  <path d="M 45.527100000000004,45.167 L 47.0656,45.833" fill="none" instance-id="5" semantic-id="11" stroke="rgb(0,178,0)" stroke-width="0.1"/>
  <path d="M 43.895399999999995,45.167 L 45.433800000000005,45.833" fill="none" instance-id="5" semantic-id="11" stroke="rgb(0,178,0)" stroke-width="0.1"/>
  <path d="M 48.7907,45.167 L 50.3292,45.833" fill="none" instance-id="5" semantic-id="11" stroke="rgb(0,178,0)" stroke-width="0.1"/>
  <path d="M 47.1589,45.167 L 48.6974,45.833" fill="none" instance-id="5" semantic-id="11" stroke="rgb(0,178,0)" stroke-width="0.1"/>
  <path d="M 52.0543,45.167 L 53.592699999999994,45.833" fill="none" instance-id="5" semantic-id="11" stroke="rgb(0,178,0)" stroke-width="0.1"/>
  <path d="M 50.4225,45.167 L 51.961,45.833" fill="none" instance-id="5" semantic-id="11" stroke="rgb(0,178,0)" stroke-width="0.1"/>
  <path d="M 55.317800000000005,45.167 L 56.856300000000005,45.833" fill="none" instance-id="5" semantic-id="11" stroke="rgb(0,178,0)" stroke-width="0.1"/>
  <path d="M 53.686099999999996,45.167 L 55.224500000000006,45.833" fill="none" instance-id="5" semantic-id="11" stroke="rgb(0,178,0)" stroke-width="0.1"/>
  <path d="M 58.5814,45.167 L 60.1199,45.833" fill="none" instance-id="5" semantic-id="11" stroke="rgb(0,178,0)" stroke-width="0.1"/>
  <path d="M 56.949600000000004,45.167 L 58.4881,45.833" fill="none" instance-id="5" semantic-id="11" stroke="rgb(0,178,0)" stroke-width="0.1"/>
  <path d="M 61.845,45.167 L 63.0,45.667" fill="none" instance-id="5" semantic-id="11" stroke="rgb(0,178,0)" stroke-width="0.1"/>
  <path d="M 60.2132,45.167 L 61.7517,45.833" fill="none" instance-id="5" semantic-id="11" stroke="rgb(0,178,0)" stroke-width="0.1"/>
  <path d="M 89.80000000000001,0.0 L 86.168,3.632000000000005" fill="none" stroke="rgb(0,178,0)" stroke-width="0.1"/>
  <path d="M 75.8,0.0 L 79.432,3.632000000000005" fill="none" stroke="rgb(0,178,0)" stroke-width="0.1"/>
  <path d="M 64.0,64.0 A 7.3125,7.3125 0.0 0,0 56.689899999999994,71.125" fill="none" instance-id="3" semantic-id="4" stroke="rgb(0,178,0)" stroke-width="0.1"/>
  <path d="M 56.689899999999994,56.875 A 7.3125,7.3125 0.0 0,0 64.0,64.0" fill="none" instance-id="3" semantic-id="4" stroke="rgb(0,178,0)" stroke-width="0.1"/>
  <path d="M 83.87726794162705,0.36024121164666667 L 84.09916917442474,0.8102568959908183" fill="none" stroke="rgb(0,178,0)" stroke-width="0.1"/>
  <path d="M 84.09916917442474,0.8102568959908183 L 84.34048895352136,1.2501648835173285" fill="none" stroke="rgb(0,178,0)" stroke-width="0.1"/>
  <path d="M 84.34048895352136,1.2501648835173285 L 84.60076789679506,1.6791277548257995" fill="none" stroke="rgb(0,178,0)" stroke-width="0.1"/>
  <path d="M 84.60076789679506,1.6791277548257995 L 84.87951053100417,2.0963289259016165" fill="none" stroke="rgb(0,178,0)" stroke-width="0.1"/>
  <path d="M 84.87951053100417,2.0963289259016165 L 85.17618623498193,2.500974202585013" fill="none" stroke="rgb(0,178,0)" stroke-width="0.1"/>
  <path d="M 85.17618623498193,2.500974202585013 L 85.49023024973962,2.892293292418003" fill="none" stroke="rgb(0,178,0)" stroke-width="0.1"/>
  <path d="M 85.49023024973962,2.892293292418003 L 85.82104475355547,3.2695412709917093" fill="none" stroke="rgb(0,178,0)" stroke-width="0.1"/>
  <path d="M 85.82104475355547,3.2695412709917093 L 86.168,3.632000000000005" fill="none" stroke="rgb(0,178,0)" stroke-width="0.1"/>
  <path d="M 79.432,3.632000000000005 L 79.77895524644669,3.2695412709893787" fill="none" stroke="rgb(0,178,0)" stroke-width="0.1"/>
  <path d="M 79.77895524644669,3.2695412709893787 L 80.10976975026243,2.8922932924155873" fill="none" stroke="rgb(0,178,0)" stroke-width="0.1"/>
  <path d="M 80.10976975026243,2.8922932924155873 L 80.42381376502003,2.5009742025824835" fill="none" stroke="rgb(0,178,0)" stroke-width="0.1"/>
  <path d="M 80.42381376502003,2.5009742025824835 L 80.72048946899767,2.09632892589903" fill="none" stroke="rgb(0,178,0)" stroke-width="0.1"/>
  <path d="M 80.72048946899767,2.09632892589903 L 80.99923210320667,1.6791277548231278" fill="none" stroke="rgb(0,178,0)" stroke-width="0.1"/>
  <path d="M 80.99923210320667,1.6791277548231278 L 81.25951104648024,1.2501648835146" fill="none" stroke="rgb(0,178,0)" stroke-width="0.1"/>
  <path d="M 81.25951104648024,1.2501648835146 L 81.50083082557674,0.8102568959880045" fill="none" stroke="rgb(0,178,0)" stroke-width="0.1"/>
  <path d="M 81.50083082557674,0.8102568959880045 L 81.7227320583743,0.3602412116437961" fill="none" stroke="rgb(0,178,0)" stroke-width="0.1"/>
 </g>
 <g id="layerS-COLUMN" inkscape:groupmode="layer" inkscape:label="S-COLUMN">
  <path d="M 97.801,73.5 L 100.0,73.5" fill="none" stroke="rgb(178,0,178)" stroke-width="0.1"/>
  <path d="M 100.0,78.5 L 97.801,78.5" fill="none" stroke="rgb(178,0,178)" stroke-width="0.1"/>
  <path d="M 97.801,78.5 L 97.801,73.5" fill="none" stroke="rgb(178,0,178)" stroke-width="0.1"/>
  <path d="M 19.301000000000002,73.5 L 24.301000000000002,73.5" fill="none" stroke="rgb(178,0,178)" stroke-width="0.1"/>
  <path d="M 24.301000000000002,73.5 L 24.301000000000002,78.5" fill="none" stroke="rgb(178,0,178)" stroke-width="0.1"/>
  <path d="M 24.301000000000002,78.5 L 19.301000000000002,78.5" fill="none" stroke="rgb(178,0,178)" stroke-width="0.1"/>
  <path d="M 19.301000000000002,78.5 L 19.301000000000002,73.5" fill="none" stroke="rgb(178,0,178)" stroke-width="0.1"/>
 </g>
 <g id="layerS-SHEARWALL" inkscape:groupmode="layer" inkscape:label="S-SHEARWALL">
  <path d="M 31.0,46.5 L 38.998900000000006,46.5" fill="none" instance-id="-1" semantic-id="1" stroke="rgb(178,0,178)" stroke-width="0.1"/>
  <path d="M 38.998900000000006,46.5 L 39.0,44.5" fill="none" instance-id="-1" semantic-id="1" stroke="rgb(178,0,178)" stroke-width="0.1"/>
  <path d="M 39.0,44.5 L 33.0,44.5" fill="none" instance-id="-1" semantic-id="1" stroke="rgb(178,0,178)" stroke-width="0.1"/>
  <path d="M 33.0,44.5 L 33.0,25.0" fill="none" instance-id="-1" semantic-id="1" stroke="rgb(178,0,178)" stroke-width="0.1"/>
  <path d="M 33.0,25.0 L 31.0,25.0" fill="none" instance-id="-1" semantic-id="1" stroke="rgb(178,0,178)" stroke-width="0.1"/>
  <path d="M 31.0,25.0 L 31.0,46.5" fill="none" instance-id="-1" semantic-id="1" stroke="rgb(178,0,178)" stroke-width="0.1"/>
  <path d="M 100.0,58.5 L 96.0,58.5" fill="none" instance-id="-1" semantic-id="1" stroke="rgb(178,0,178)" stroke-width="0.1"/>
  <path d="M 96.0,58.5 L 96.0,18.5" fill="none" instance-id="-1" semantic-id="1" stroke="rgb(178,0,178)" stroke-width="0.1"/>
  <path d="M 96.0,18.5 L 98.5,18.5" fill="none" instance-id="-1" semantic-id="1" stroke="rgb(178,0,178)" stroke-width="0.1"/>
  <path d="M 98.5,18.5 L 98.5,56.5" fill="none" instance-id="-1" semantic-id="1" stroke="rgb(178,0,178)" stroke-width="0.1"/>
  <path d="M 98.5,56.5 L 100.0,56.5" fill="none" instance-id="-1" semantic-id="1" stroke="rgb(178,0,178)" stroke-width="0.1"/>
  <path d="M 71.0,18.5 L 69.0,18.5" fill="none" instance-id="-1" semantic-id="1" stroke="rgb(178,0,178)" stroke-width="0.1"/>
  <path d="M 69.0,18.5 L 69.0,44.5" fill="none" instance-id="-1" semantic-id="1" stroke="rgb(178,0,178)" stroke-width="0.1"/>
  <path d="M 69.0,44.5 L 63.0,44.5" fill="none" instance-id="-1" semantic-id="1" stroke="rgb(178,0,178)" stroke-width="0.1"/>
  <path d="M 63.0,44.5 L 63.0,46.5" fill="none" instance-id="-1" semantic-id="1" stroke="rgb(178,0,178)" stroke-width="0.1"/>
  <path d="M 63.0,46.5 L 78.0,46.5" fill="none" instance-id="-1" semantic-id="1" stroke="rgb(178,0,178)" stroke-width="0.1"/>
  <path d="M 78.0,46.5 L 78.0,44.5" fill="none" instance-id="-1" semantic-id="1" stroke="rgb(178,0,178)" stroke-width="0.1"/>
  <path d="M 78.0,44.5 L 71.0,44.5" fill="none" instance-id="-1" semantic-id="1" stroke="rgb(178,0,178)" stroke-width="0.1"/>
  <path d="M 71.0,44.5 L 71.0,18.5" fill="none" instance-id="-1" semantic-id="1" stroke="rgb(178,0,178)" stroke-width="0.1"/>
  <path d="M 71.0,18.5 L 69.0,18.5" fill="none" instance-id="-1" semantic-id="1" stroke="rgb(178,0,178)" stroke-width="0.1"/>
  <path d="M 69.0,18.5 L 69.0,44.5" fill="none" instance-id="-1" semantic-id="1" stroke="rgb(178,0,178)" stroke-width="0.1"/>
  <path d="M 69.0,44.5 L 63.0,44.5" fill="none" instance-id="-1" semantic-id="1" stroke="rgb(178,0,178)" stroke-width="0.1"/>
  <path d="M 63.0,44.5 L 63.0,46.5" fill="none" instance-id="-1" semantic-id="1" stroke="rgb(178,0,178)" stroke-width="0.1"/>
  <path d="M 63.0,46.5 L 78.0,46.5" fill="none" instance-id="-1" semantic-id="1" stroke="rgb(178,0,178)" stroke-width="0.1"/>
  <path d="M 78.0,46.5 L 78.0,44.5" fill="none" instance-id="-1" semantic-id="1" stroke="rgb(178,0,178)" stroke-width="0.1"/>
  <path d="M 78.0,44.5 L 71.0,44.5" fill="none" instance-id="-1" semantic-id="1" stroke="rgb(178,0,178)" stroke-width="0.1"/>
  <path d="M 71.0,44.5 L 71.0,18.5" fill="none" instance-id="-1" semantic-id="1" stroke="rgb(178,0,178)" stroke-width="0.1"/>
  <path d="M 31.0,0.0 L 31.0,5.0" fill="none" instance-id="-1" semantic-id="1" stroke="rgb(178,0,178)" stroke-width="0.1"/>
  <path d="M 31.0,5.0 L 33.0,5.0" fill="none" instance-id="-1" semantic-id="1" stroke="rgb(178,0,178)" stroke-width="0.1"/>
  <path d="M 33.0,5.0 L 33.0,0.0" fill="none" instance-id="-1" semantic-id="1" stroke="rgb(178,0,178)" stroke-width="0.1"/>
 </g>
</svg>