<?xml version="1.0" encoding="utf-8"?>
<svg style="background-color: #000;" version="1.1" viewBox="0 0 100.0 100.0" xmlns="http://www.w3.org/2000/svg" xmlns:inkscape="http://www.inkscape.org/namespaces/inkscape">
 <g id="layer0" inkscape:groupmode="layer" inkscape:label="0">
  <path d="M 62.9117205,29.053316499999994 L 62.9117205,8.253316499999983" fill="none" stroke="rgb(0,0,0)" stroke-width="0.1"/>
  <path d="M 89.9117205,29.053316499999994 L 89.9117205,8.253316499999983" fill="none" stroke="rgb(0,0,0)" stroke-width="0.1"/>
  <path d="M 62.9117205,29.053316499999994 L 62.9117205,8.253316499999983" fill="none" stroke="rgb(0,0,0)" stroke-width="0.1"/>
  <path d="M 89.9117205,29.053316499999994 L 89.9117205,8.253316499999983" fill="none" stroke="rgb(0,0,0)" stroke-width="0.1"/>
 </g>
 <g id="layer0-0" inkscape:groupmode="layer" inkscape:label="0-0">
  <text fill="rgb(92,92,92)" font-family="Noto Sans CJK SC" font-size="2" transform="rotate(-3.53469e-08,34.6703205,29.8103165)" x="34.6703205" y="29.8103165">
   排风机房
  </text>
 </g>
 <g id="layerA-AXIS" inkscape:groupmode="layer" inkscape:label="A-AXIS">
  <path d="M 25.912220500000004,95.5533165 L 25.912220500000004,100.0" fill="none" stroke="rgb(255,73,12)" stroke-width="0.1"/>
  <path d="M 61.912220500000004,95.5533165 L 61.912220500000004,100.0" fill="none" stroke="rgb(255,73,12)" stroke-width="0.1"/>
  <path d="M 90.9117205,95.5533165 L 90.9117205,100.0" fill="none" stroke="rgb(255,73,12)" stroke-width="0.1"/>
  <path d="M 11.779620500000007,74.5533165 L 0.0,74.5533165" fill="none" stroke="rgb(255,73,12)" stroke-width="0.1"/>
  <path d="M 11.779620500000007,52.553316499999994 L 0.0,52.553316499999994" fill="none" stroke="rgb(255,73,12)" stroke-width="0.1"/>
  <path d="M 11.779620500000007,43.553316499999994 L 0.0,43.553316499999994" fill="none" stroke="rgb(255,73,12)" stroke-width="0.1"/>
  <path d="M 11.779620500000007,9.553316499999994 L 0.0,9.553316499999994" fill="none" stroke="rgb(255,73,12)" stroke-width="0.1"/>
  <path d="M 24.912220500000004,98.5533165 L 24.912220500000004,100.0" fill="none" stroke="rgb(255,73,12)" stroke-width="0.1"/>
  <path d="M 24.912220500000004,98.5533165 L 24.912220500000004,100.0" fill="none" stroke="rgb(255,73,12)" stroke-width="0.1"/>
  <path d="M 25.912220500000004,98.5533165 L 25.912220500000004,100.0" fill="none" stroke="rgb(255,73,12)" stroke-width="0.1"/>
  <path d="M 25.912220500000004,98.5533165 L 25.912220500000004,100.0" fill="none" stroke="rgb(255,73,12)" stroke-width="0.1"/>
  <path d="M 61.912220500000004,98.5533165 L 61.912220500000004,100.0" fill="none" stroke="rgb(255,73,12)" stroke-width="0.1"/>
  <path d="M 61.912220500000004,98.5533165 L 61.912220500000004,100.0" fill="none" stroke="rgb(255,73,12)" stroke-width="0.1"/>
  <path d="M 90.9117205,98.5533165 L 90.9117205,100.0" fill="none" stroke="rgb(255,73,12)" stroke-width="0.1"/>
  <path d="M 90.9117205,98.5533165 L 90.9117205,100.0" fill="none" stroke="rgb(255,73,12)" stroke-width="0.1"/>
  <path d="M 8.779620500000007,75.5533165 L 0.0,75.5533165" fill="none" stroke="rgb(255,73,12)" stroke-width="0.1"/>
  <path d="M 8.779620500000007,75.5533165 L 0.0,75.5533165" fill="none" stroke="rgb(255,73,12)" stroke-width="0.1"/>
  <path d="M 8.779620500000007,74.5533165 L 0.0,74.5533165" fill="none" stroke="rgb(255,73,12)" stroke-width="0.1"/>
  <path d="M 8.779620500000007,74.5533165 L 0.0,74.5533165" fill="none" stroke="rgb(255,73,12)" stroke-width="0.1"/>
  <path d="M 8.779620500000007,52.553316499999994 L 0.0,52.553316499999994" fill="none" stroke="rgb(255,73,12)" stroke-width="0.1"/>
  <path d="M 8.779620500000007,52.553316499999994 L 0.0,52.553316499999994" fill="none" stroke="rgb(255,73,12)" stroke-width="0.1"/>
  <path d="M 8.779620500000007,43.553316499999994 L 0.0,43.553316499999994" fill="none" stroke="rgb(255,73,12)" stroke-width="0.1"/>
  <path d="M 8.779620500000007,43.553316499999994 L 0.0,43.553316499999994" fill="none" stroke="rgb(255,73,12)" stroke-width="0.1"/>
  <path d="M 8.779620500000007,9.553316499999994 L 0.0,9.553316499999994" fill="none" stroke="rgb(255,73,12)" stroke-width="0.1"/>
  <path d="M 8.779620500000007,9.553316499999994 L 0.0,9.553316499999994" fill="none" stroke="rgb(255,73,12)" stroke-width="0.1"/>
 </g>
 <g id="layerA-DIM_LEAD" inkscape:groupmode="layer" inkscape:label="A-DIM_LEAD">
  <path d="M 26.416820500000007,27.557316499999985 L 17.642420500000007,5.910316499999993" fill="none" stroke="rgb(92,92,92)" stroke-width="0.1"/>
  <path d="M 17.642420500000007,5.910316499999993 L 2.684620500000001,5.910316499999993" fill="none" stroke="rgb(92,92,92)" stroke-width="0.1"/>
  <path d="M 26.469420500000005,27.686316500000004 A 0.14,0.14 0.0 1,0 26.364220500000002,27.42731649999999" fill="none" stroke="rgb(92,92,92)" stroke-width="0.1"/>
  <path d="M 26.364220500000002,27.42731649999999 A 0.14,0.14 0.0 1,0 26.469420500000005,27.686316500000004" fill="none" stroke="rgb(92,92,92)" stroke-width="0.1"/>
 </g>
 <g id="layerA-DIM_SYMB" inkscape:groupmode="layer" inkscape:label="A-DIM_SYMB">
  <path d="M 83.4127205,4.653316499999988 L 83.4127205,12.9533165" fill="none" stroke="rgb(0,178,0)" stroke-width="0.1"/>
  <path d="M 83.4127205,12.9533165 L 83.4127205,15.053316499999994" fill="none" stroke="rgb(0,178,0)" stroke-width="0.1"/>
 </g>
 <g id="layerA-DOTE" inkscape:groupmode="layer" inkscape:label="A-DOTE">
  <path d="M 25.912220500000004,95.5533165 L 25.912220500000004,0.0" fill="none" stroke="rgb(178,0,0)" stroke-width="0.1"/>
  <path d="M 61.912220500000004,95.5533165 L 61.912220500000004,9.553316499999994" fill="none" stroke="rgb(178,0,0)" stroke-width="0.1"/>
  <path d="M 90.9117205,95.5533165 L 90.9117205,0.0" fill="none" stroke="rgb(178,0,0)" stroke-width="0.1"/>
  <path d="M 11.779620500000007,74.5533165 L 100.0,74.5533165" fill="none" stroke="rgb(178,0,0)" stroke-width="0.1"/>
  <path d="M 11.779620500000007,52.553316499999994 L 100.0,52.553316499999994" fill="none" stroke="rgb(178,0,0)" stroke-width="0.1"/>
  <path d="M 11.779620500000007,43.553316499999994 L 100.0,43.553316499999994" fill="none" stroke="rgb(178,0,0)" stroke-width="0.1"/>
  <path d="M 11.779620500000007,9.553316499999994 L 100.0,9.553316499999994" fill="none" stroke="rgb(178,0,0)" stroke-width="0.1"/>
 </g>
 <g id="layerA-EQUIPMENT" inkscape:groupmode="layer" inkscape:label="A-EQUIPMENT">
  <path d="M 100.0,37.12713264999999 L 91.9127205,39.553316499999994" fill="none" stroke="rgb(134,134,134)" stroke-width="0.1"/>
  <path d="M 100.0,31.127132649999993 L 91.9127205,33.553316499999994" fill="none" stroke="rgb(134,134,134)" stroke-width="0.1"/>
  <path d="M 100.0,25.127132649999993 L 91.9127205,27.553316499999994" fill="none" stroke="rgb(134,134,134)" stroke-width="0.1"/>
  <path d="M 100.0,19.127132649999993 L 91.9127205,21.553316499999994" fill="none" stroke="rgb(134,134,134)" stroke-width="0.1"/>
  <path d="M 100.0,13.127132649999993 L 91.9127205,15.553316499999994" fill="none" stroke="rgb(134,134,134)" stroke-width="0.1"/>
  <path d="M 82.9117205,62.553316499999994 L 62.9117205,68.5533165" fill="none" stroke="rgb(134,134,134)" stroke-width="0.1"/>
  <path d="M 82.9117205,56.553316499999994 L 62.9117205,62.553316499999994" fill="none" stroke="rgb(134,134,134)" stroke-width="0.1"/>
  <path d="M 82.9117205,50.553316499999994 L 62.9117205,56.553316499999994" fill="none" stroke="rgb(134,134,134)" stroke-width="0.1"/>
  <path d="M 82.9117205,44.553316499999994 L 62.9117205,50.553316499999994" fill="none" stroke="rgb(134,134,134)" stroke-width="0.1"/>
  <path d="M 100.0,7.127132649999993 L 91.9127205,9.553316499999994" fill="none" stroke="rgb(134,134,134)" stroke-width="0.1"/>
  <path d="M 91.9127205,33.553316499999994 L 100.0,33.553316499999994" fill="none" stroke="rgb(134,134,134)" stroke-width="0.1"/>
  <path d="M 100.0,39.553316499999994 L 91.9127205,39.553316499999994" fill="none" stroke="rgb(134,134,134)" stroke-width="0.1"/>
  <path d="M 91.9127205,39.553316499999994 L 91.9127205,33.553316499999994" fill="none" stroke="rgb(134,134,134)" stroke-width="0.1"/>
  <path d="M 91.9127205,27.553316499999994 L 100.0,27.553316499999994" fill="none" stroke="rgb(134,134,134)" stroke-width="0.1"/>
  <path d="M 100.0,33.553316499999994 L 91.9127205,33.553316499999994" fill="none" stroke="rgb(134,134,134)" stroke-width="0.1"/>
  <path d="M 91.9127205,33.553316499999994 L 91.9127205,27.553316499999994" fill="none" stroke="rgb(134,134,134)" stroke-width="0.1"/>
  <path d="M 91.9127205,21.553316499999994 L 100.0,21.553316499999994" fill="none" stroke="rgb(134,134,134)" stroke-width="0.1"/>
  <path d="M 100.0,27.553316499999994 L 91.9127205,27.553316499999994" fill="none" stroke="rgb(134,134,134)" stroke-width="0.1"/>
  <path d="M 91.9127205,27.553316499999994 L 91.9127205,21.553316499999994" fill="none" stroke="rgb(134,134,134)" stroke-width="0.1"/>
  <path d="M 91.9127205,15.553316499999994 L 100.0,15.553316499999994" fill="none" stroke="rgb(134,134,134)" stroke-width="0.1"/>
  <path d="M 100.0,21.553316499999994 L 91.9127205,21.553316499999994" fill="none" stroke="rgb(134,134,134)" stroke-width="0.1"/>
  <path d="M 91.9127205,21.553316499999994 L 91.9127205,15.553316499999994" fill="none" stroke="rgb(134,134,134)" stroke-width="0.1"/>
  <path d="M 91.9127205,9.553316499999994 L 100.0,9.553316499999994" fill="none" stroke="rgb(134,134,134)" stroke-width="0.1"/>
  <path d="M 100.0,15.553316499999994 L 91.9127205,15.553316499999994" fill="none" stroke="rgb(134,134,134)" stroke-width="0.1"/>
  <path d="M 91.9127205,15.553316499999994 L 91.9127205,9.553316499999994" fill="none" stroke="rgb(134,134,134)" stroke-width="0.1"/>
  <path d="M 62.9117205,62.553316499999994 L 82.9117205,62.553316499999994" fill="none" stroke="rgb(134,134,134)" stroke-width="0.1"/>
  <path d="M 82.9117205,62.553316499999994 L 82.9117205,68.5533165" fill="none" stroke="rgb(134,134,134)" stroke-width="0.1"/>
  <path d="M 82.9117205,68.5533165 L 62.9117205,68.5533165" fill="none" stroke="rgb(134,134,134)" stroke-width="0.1"/>
  <path d="M 62.9117205,68.5533165 L 62.9117205,62.553316499999994" fill="none" stroke="rgb(134,134,134)" stroke-width="0.1"/>
  <path d="M 62.9117205,56.553316499999994 L 82.9117205,56.553316499999994" fill="none" stroke="rgb(134,134,134)" stroke-width="0.1"/>
  <path d="M 82.9117205,56.553316499999994 L 82.9117205,62.553316499999994" fill="none" stroke="rgb(134,134,134)" stroke-width="0.1"/>
  <path d="M 82.9117205,62.553316499999994 L 62.9117205,62.553316499999994" fill="none" stroke="rgb(134,134,134)" stroke-width="0.1"/>
  <path d="M 62.9117205,62.553316499999994 L 62.9117205,56.553316499999994" fill="none" stroke="rgb(134,134,134)" stroke-width="0.1"/>
  <path d="M 62.9117205,50.553316499999994 L 82.9117205,50.553316499999994" fill="none" stroke="rgb(134,134,134)" stroke-width="0.1"/>
  <path d="M 82.9117205,50.553316499999994 L 82.9117205,56.553316499999994" fill="none" stroke="rgb(134,134,134)" stroke-width="0.1"/>
  <path d="M 82.9117205,56.553316499999994 L 62.9117205,56.553316499999994" fill="none" stroke="rgb(134,134,134)" stroke-width="0.1"/>
  <path d="M 62.9117205,56.553316499999994 L 62.9117205,50.553316499999994" fill="none" stroke="rgb(134,134,134)" stroke-width="0.1"/>
  <path d="M 62.9117205,44.553316499999994 L 82.9117205,44.553316499999994" fill="none" stroke="rgb(134,134,134)" stroke-width="0.1"/>
  <path d="M 82.9117205,44.553316499999994 L 82.9117205,50.553316499999994" fill="none" stroke="rgb(134,134,134)" stroke-width="0.1"/>
  <path d="M 82.9117205,50.553316499999994 L 62.9117205,50.553316499999994" fill="none" stroke="rgb(134,134,134)" stroke-width="0.1"/>
  <path d="M 62.9117205,50.553316499999994 L 62.9117205,44.553316499999994" fill="none" stroke="rgb(134,134,134)" stroke-width="0.1"/>
  <path d="M 91.9127205,3.553316499999994 L 100.0,3.553316499999994" fill="none" stroke="rgb(134,134,134)" stroke-width="0.1"/>
  <path d="M 100.0,9.553316499999994 L 91.9127205,9.553316499999994" fill="none" stroke="rgb(134,134,134)" stroke-width="0.1"/>
  <path d="M 91.9127205,9.553316499999994 L 91.9127205,3.553316499999994" fill="none" stroke="rgb(134,134,134)" stroke-width="0.1"/>
 </g>
 <g id="layerA-GROUND" inkscape:groupmode="layer" inkscape:label="A-GROUND">
  <path d="M 24.916320500000005,31.057316499999985 L 27.917320500000002,31.057316499999985" fill="none" stroke="rgb(0,178,0)" stroke-width="0.1"/>
  <path d="M 27.917320500000002,31.057316499999985 L 27.917320500000002,24.05631650000001" fill="none" stroke="rgb(0,178,0)" stroke-width="0.1"/>
  <path d="M 27.917320500000002,24.05631650000001 L 24.916320500000005,24.05631650000001" fill="none" stroke="rgb(0,178,0)" stroke-width="0.1"/>
  <path d="M 24.916320500000005,24.05631650000001 L 24.916320500000005,31.057316499999985" fill="none" stroke="rgb(0,178,0)" stroke-width="0.1"/>
  <path d="M 24.917520500000002,24.05631650000001 L 27.917320500000002,24.05631650000001" fill="none" stroke="rgb(0,178,0)" stroke-width="0.1"/>
  <path d="M 27.917320500000002,24.05631650000001 L 24.916320500000005,31.057316499999985" fill="none" stroke="rgb(0,178,0)" stroke-width="0.1"/>
  <path d="M 24.916320500000005,31.057316499999985 L 27.917320500000002,31.057316499999985" fill="none" stroke="rgb(0,178,0)" stroke-width="0.1"/>
  <path d="M 27.917320500000002,31.057316499999985 L 24.917520500000002,24.05631650000001" fill="none" stroke="rgb(0,178,0)" stroke-width="0.1"/>
 </g>
 <g id="layerA-PUB_DIM" inkscape:groupmode="layer" inkscape:label="A-PUB_DIM">
  <path d="M 82.9117205,60.4533165 L 82.9117205,56.26431650000001" fill="none" stroke="rgb(0,178,0)" stroke-width="0.1"/>
  <path d="M 82.9117205,58.01431650000001 L 100.0,58.01431650000001" fill="none" stroke="rgb(0,178,0)" stroke-width="0.1"/>
  <path d="M 65.0127205,1.8533165000000054 L 72.08572050000001,1.8533165000000054" fill="none" stroke="rgb(0,178,0)" stroke-width="0.1"/>
  <path d="M 70.33572050000001,1.8533165000000054 L 70.33572050000001,0.0" fill="none" stroke="rgb(0,178,0)" stroke-width="0.1"/>
  <path d="M 65.0127205,9.553316499999994 L 72.08572050000001,9.553316499999994" fill="none" stroke="rgb(0,178,0)" stroke-width="0.1"/>
  <path d="M 65.0127205,1.8533165000000054 L 72.08572050000001,1.8533165000000054" fill="none" stroke="rgb(0,178,0)" stroke-width="0.1"/>
  <path d="M 70.33572050000001,9.553316499999994 L 70.33572050000001,1.8533165000000054" fill="none" stroke="rgb(0,178,0)" stroke-width="0.1"/>
  <path d="M 94.0117205,1.8533165000000054 L 100.0,1.8533165000000054" fill="none" stroke="rgb(0,178,0)" stroke-width="0.1"/>
  <text fill="rgb(0,178,0)" font-family="Noto Sans CJK SC" font-size="2" transform="rotate(-0.0,94.11172049999999,56.964316499999995)" x="94.11172049999999" y="56.964316499999995">
   2800
  </text>
  <text fill="rgb(0,178,0)" font-family="Noto Sans CJK SC" font-size="2" transform="rotate(-90.0,69.28572050000001,7.803316499999994)" x="69.28572050000001" y="7.803316499999994">
   770
  </text>
 </g>
 <g id="layerA-PUB_HATCH" inkscape:groupmode="layer" inkscape:label="A-PUB_HATCH">
  <path d="M 0.0,0.7503550466777824 L 0.750355546509283,0.0" fill="none" stroke="rgb(89,89,89)" stroke-width="0.1"/>
  <path d="M 0.0,1.8103549201447606 L 1.8103561176151572,0.0" fill="none" stroke="rgb(89,89,89)" stroke-width="0.1"/>
  <path d="M 0.0,2.871354795256849 L 2.871356681295829,0.0" fill="none" stroke="rgb(89,89,89)" stroke-width="0.1"/>
  <path d="M 0.0,3.9323546720976026 L 3.932357237174145,0.0" fill="none" stroke="rgb(89,89,89)" stroke-width="0.1"/>
  <path d="M 0.0,4.992354550745091 L 4.992357784897806,0.0" fill="none" stroke="rgb(89,89,89)" stroke-width="0.1"/>
  <path d="M 0.0,6.053354430935684 L 6.0533583256566175,0.0" fill="none" stroke="rgb(89,89,89)" stroke-width="0.1"/>
  <path d="M 0.0,7.114354312750919 L 7.114358859082543,0.0" fill="none" stroke="rgb(89,89,89)" stroke-width="0.1"/>
  <path d="M 0.0,8.17435419626716 L 8.174359384831114,0.0" fill="none" stroke="rgb(89,89,89)" stroke-width="0.1"/>
  <path d="M 0.0,9.235354081232714 L 9.235359904038361,0.0" fill="none" stroke="rgb(89,89,89)" stroke-width="0.1"/>
  <path d="M 0.0,10.296184289500246 L 10.29612625289257,0.0" fill="none" stroke="rgb(89,89,89)" stroke-width="0.1"/>
  <path d="M 0.0,11.356353855824807 L 11.356360921415188,0.0" fill="none" stroke="rgb(89,89,89)" stroke-width="0.1"/>
  <path d="M 0.0,12.41735374528534 L 12.417361420333997,0.0" fill="none" stroke="rgb(89,89,89)" stroke-width="0.1"/>
  <path d="M 0.0,13.47818727340379 L 13.478112785234657,0.0" fill="none" stroke="rgb(89,89,89)" stroke-width="0.1"/>
  <path d="M 0.0,14.53835352860051 L 14.538362398339395,0.0" fill="none" stroke="rgb(89,89,89)" stroke-width="0.1"/>
  <path d="M 0.0,15.59936984459543 L 15.599388756303703,0.0" fill="none" stroke="rgb(89,89,89)" stroke-width="0.1"/>
  <path d="M 0.0,16.660206460385353 L 16.66012618546663,0.0" fill="none" stroke="rgb(89,89,89)" stroke-width="0.1"/>
  <path d="M 0.0,17.72036942767835 L 17.720390638056408,0.0" fill="none" stroke="rgb(89,89,89)" stroke-width="0.1"/>
  <path d="M 0.0,18.781369223068083 L 18.78139156156346,0.0" fill="none" stroke="rgb(89,89,89)" stroke-width="0.1"/>
  <path d="M 0.0,19.842208915148206 L 19.84211510604237,0.0" fill="none" stroke="rgb(89,89,89)" stroke-width="0.1"/>
  <path d="M 0.0,20.90236882168415 L 20.902393373207232,0.0" fill="none" stroke="rgb(89,89,89)" stroke-width="0.1"/>
  <path d="M 0.0,21.963368624626526 L 21.96339426262545,0.0" fill="none" stroke="rgb(89,89,89)" stroke-width="0.1"/>
  <path d="M 0.0,23.024211279292814 L 23.02410443561635,0.0" fill="none" stroke="rgb(89,89,89)" stroke-width="0.1"/>
  <path d="M 0.0,24.08436823792357 L 24.084396008006657,0.0" fill="none" stroke="rgb(89,89,89)" stroke-width="0.1"/>
  <path d="M 0.0,25.14536804800801 L 25.145396865189248,0.0" fill="none" stroke="rgb(89,89,89)" stroke-width="0.1"/>
  <path d="M 0.0,26.206213557745997 L 26.20609415195171,0.0" fill="none" stroke="rgb(89,89,89)" stroke-width="0.1"/>
  <path d="M 0.0,27.266367675195056 L 27.266398547878012,0.0" fill="none" stroke="rgb(89,89,89)" stroke-width="0.1"/>
  <path d="M 0.0,28.327367492040196 L 28.327399374546218,0.0" fill="none" stroke="rgb(89,89,89)" stroke-width="0.1"/>
  <path d="M 0.0,29.38821575508379 L 29.38808423439481,0.0" fill="none" stroke="rgb(89,89,89)" stroke-width="0.1"/>
  <path d="M 0.0,30.44836713238206 L 30.44840099786063,0.0" fill="none" stroke="rgb(89,89,89)" stroke-width="0.1"/>
  <path d="M 0.0,31.509381933449788 L 31.50943419347675,0.0" fill="none" stroke="rgb(89,89,89)" stroke-width="0.1"/>
  <path d="M 0.0,32.56938167166419 L 32.569435375044534,0.0" fill="none" stroke="rgb(89,89,89)" stroke-width="0.1"/>
  <path d="M 0.0,33.630381412668584 L 33.6304365440196,0.0" fill="none" stroke="rgb(89,89,89)" stroke-width="0.1"/>
  <path d="M 0.0,34.69123396723626 L 34.691102034458126,0.0" fill="none" stroke="rgb(89,89,89)" stroke-width="0.1"/>
  <path d="M 0.0,35.7513809038208 L 35.751438840700786,0.0" fill="none" stroke="rgb(89,89,89)" stroke-width="0.1"/>
  <path d="M 0.0,36.812380653627315 L 36.81243996994763,0.0" fill="none" stroke="rgb(89,89,89)" stroke-width="0.1"/>
  <path d="M 0.0,37.87323571816435 L 37.87309413174037,0.0" fill="none" stroke="rgb(89,89,89)" stroke-width="0.1"/>
  <path d="M 0.0,38.933380161927715 L 38.93344218923059,0.0" fill="none" stroke="rgb(89,89,89)" stroke-width="0.1"/>
  <path d="M 0.0,39.994268414316224 L 39.994167165631126,0.0" fill="none" stroke="rgb(89,89,89)" stroke-width="0.1"/>
  <path d="M 0.0,41.05519982863248 L 41.054991960123274,0.0" fill="none" stroke="rgb(89,89,89)" stroke-width="0.1"/>
  <path d="M 0.0,42.11531985357905 L 42.11529319895439,0.0" fill="none" stroke="rgb(89,89,89)" stroke-width="0.1"/>
  <path d="M 0.0,43.17626841431624 L 43.17615911014397,0.0" fill="none" stroke="rgb(89,89,89)" stroke-width="0.1"/>
  <path d="M 0.0,44.2371998286325 L 44.23697584918975,0.0" fill="none" stroke="rgb(89,89,89)" stroke-width="0.1"/>
  <path d="M 0.0,45.29731985357907 L 45.29729118507878,0.0" fill="none" stroke="rgb(89,89,89)" stroke-width="0.1"/>
  <path d="M 0.0,46.3582512678953 L 46.35810456846811,0.0" fill="none" stroke="rgb(89,89,89)" stroke-width="0.1"/>
  <path d="M 0.0,47.419199828632486 L 47.41895973825619,0.0" fill="none" stroke="rgb(89,89,89)" stroke-width="0.1"/>
  <path d="M 0.0,48.47931986301893 L 48.47928917714724,0.0" fill="none" stroke="rgb(89,89,89)" stroke-width="0.1"/>
  <path d="M 0.0,49.540116556168726 L 49.540458506930094,0.0" fill="none" stroke="rgb(89,89,89)" stroke-width="0.1"/>
  <path d="M 0.0,50.600607939604515 L 50.600549009181265,0.0" fill="none" stroke="rgb(89,89,89)" stroke-width="0.1"/>
  <path d="M 0.0,51.66139334621752 L 51.66151518337932,0.0" fill="none" stroke="rgb(89,89,89)" stroke-width="0.1"/>
  <path d="M 0.0,52.72210058059244 L 52.72247832273624,0.0" fill="none" stroke="rgb(89,89,89)" stroke-width="0.1"/>
  <path d="M 0.0,53.7826106696711 L 53.78254562291342,0.0" fill="none" stroke="rgb(89,89,89)" stroke-width="0.1"/>
  <path d="M 0.0,54.84331311919598 L 54.84351469467731,0.0" fill="none" stroke="rgb(89,89,89)" stroke-width="0.1"/>
  <path d="M 0.0,55.90408334301827 L 55.90449970391256,0.0" fill="none" stroke="rgb(89,89,89)" stroke-width="0.1"/>
  <path d="M 0.0,56.964613618277895 L 56.964541965577155,0.0" fill="none" stroke="rgb(89,89,89)" stroke-width="0.1"/>
  <path d="M 0.0,58.02530403727357 L 58.025525959650054,0.0" fill="none" stroke="rgb(89,89,89)" stroke-width="0.1"/>
  <path d="M 0.0,59.08606468775878 L 59.086522843573846,0.0" fill="none" stroke="rgb(89,89,89)" stroke-width="0.1"/>
  <path d="M 0.0,60.146536999999995 L 60.14653700000001,0.0" fill="none" stroke="rgb(89,89,89)" stroke-width="0.1"/>
  <path d="M 0.0,61.20729418736471 L 60.912220500000004,0.2953164999999842" fill="none" stroke="rgb(89,89,89)" stroke-width="0.1"/>
  <path d="M 0.0,62.26804443241966 L 60.912220500000004,1.3563164999999913" fill="none" stroke="rgb(89,89,89)" stroke-width="0.1"/>
  <path d="M 0.0,63.32853700000001 L 60.912220500000004,2.4163164999999935" fill="none" stroke="rgb(89,89,89)" stroke-width="0.1"/>
  <path d="M 0.0,64.389283467755 L 60.912220500000004,3.4773165000000006" fill="none" stroke="rgb(89,89,89)" stroke-width="0.1"/>
  <path d="M 0.0,65.44993658974775 L 60.912220500000004,4.538316500000008" fill="none" stroke="rgb(89,89,89)" stroke-width="0.1"/>
  <path d="M 0.0,66.510537 L 60.912220500000004,5.5983164999999815" fill="none" stroke="rgb(89,89,89)" stroke-width="0.1"/>
  <path d="M 0.0,67.5712717579386 L 60.912220500000004,6.6593164999999885" fill="none" stroke="rgb(89,89,89)" stroke-width="0.1"/>
  <path d="M 0.0,68.63190842520089 L 60.912220500000004,7.720316499999996" fill="none" stroke="rgb(89,89,89)" stroke-width="0.1"/>
  <path d="M 0.0,69.69253699999999 L 60.912220500000004,8.780316499999998" fill="none" stroke="rgb(89,89,89)" stroke-width="0.1"/>
  <path d="M 0.0,70.75316621932237 L 60.912220500000004,9.841316500000005" fill="none" stroke="rgb(89,89,89)" stroke-width="0.1"/>
  <path d="M 0.0,71.81387748827254 L 60.912220500000004,10.902316499999984" fill="none" stroke="rgb(89,89,89)" stroke-width="0.1"/>
  <path d="M 0.0,72.874537 L 60.912220500000004,11.962316499999986" fill="none" stroke="rgb(89,89,89)" stroke-width="0.1"/>
  <path d="M 0.0,73.93514735131393 L 60.912220500000004,13.023316499999993" fill="none" stroke="rgb(89,89,89)" stroke-width="0.1"/>
  <path d="M 0.0,74.99584334842288 L 60.912220500000004,14.0843165" fill="none" stroke="rgb(89,89,89)" stroke-width="0.1"/>
  <path d="M 0.5031205000000014,75.5533165 L 60.912220500000004,15.144316500000002" fill="none" stroke="rgb(89,89,89)" stroke-width="0.1"/>
  <path d="M 1.5638205000000056,75.5533165 L 24.912520500000007,52.20531649999998" fill="none" stroke="rgb(89,89,89)" stroke-width="0.1"/>
  <path d="M 2.6245205000000027,75.5533165 L 24.912520500000007,53.26531649999998" fill="none" stroke="rgb(89,89,89)" stroke-width="0.1"/>
  <path d="M 3.6851205000000036,75.5533165 L 24.912520500000007,54.32631649999999" fill="none" stroke="rgb(89,89,89)" stroke-width="0.1"/>
  <path d="M 4.745820500000001,75.5533165 L 24.912520500000007,55.3873165" fill="none" stroke="rgb(89,89,89)" stroke-width="0.1"/>
  <path d="M 5.8064205000000015,75.5533165 L 24.912520500000007,56.4473165" fill="none" stroke="rgb(89,89,89)" stroke-width="0.1"/>
  <path d="M 6.867120500000006,75.5533165 L 24.912520500000007,57.50831650000001" fill="none" stroke="rgb(89,89,89)" stroke-width="0.1"/>
  <path d="M 7.927820500000003,75.5533165 L 24.912420500000003,58.569316499999985" fill="none" stroke="rgb(89,89,89)" stroke-width="0.1"/>
  <path d="M 8.988420500000004,75.5533165 L 24.912420500000003,59.62931649999999" fill="none" stroke="rgb(89,89,89)" stroke-width="0.1"/>
  <path d="M 10.0491205,75.5533165 L 24.912420500000003,60.690316499999994" fill="none" stroke="rgb(89,89,89)" stroke-width="0.1"/>
  <path d="M 11.109720500000002,75.5533165 L 24.912420500000003,61.7513165" fill="none" stroke="rgb(89,89,89)" stroke-width="0.1"/>
  <path d="M 12.170420500000006,75.5533165 L 24.912420500000003,62.811316500000004" fill="none" stroke="rgb(89,89,89)" stroke-width="0.1"/>
  <path d="M 13.231120500000003,75.5533165 L 24.912420500000003,63.87231649999998" fill="none" stroke="rgb(89,89,89)" stroke-width="0.1"/>
  <path d="M 14.291720500000004,75.5533165 L 24.912420500000003,64.93331649999999" fill="none" stroke="rgb(89,89,89)" stroke-width="0.1"/>
  <path d="M 15.352420500000001,75.5533165 L 24.912320500000007,65.99331649999999" fill="none" stroke="rgb(89,89,89)" stroke-width="0.1"/>
  <path d="M 16.413020500000002,75.5533165 L 24.912320500000007,67.0543165" fill="none" stroke="rgb(89,89,89)" stroke-width="0.1"/>
  <path d="M 17.473720500000006,75.5533165 L 24.912320500000007,68.1153165" fill="none" stroke="rgb(89,89,89)" stroke-width="0.1"/>
  <path d="M 18.534420500000003,75.5533165 L 24.912320500000007,69.17531650000001" fill="none" stroke="rgb(89,89,89)" stroke-width="0.1"/>
  <path d="M 19.595020500000004,75.5533165 L 24.912320500000007,70.23631649999999" fill="none" stroke="rgb(89,89,89)" stroke-width="0.1"/>
  <path d="M 20.6557205,75.5533165 L 24.912320500000007,71.2973165" fill="none" stroke="rgb(89,89,89)" stroke-width="0.1"/>
  <path d="M 21.716320500000002,75.5533165 L 24.912220500000004,72.3573165" fill="none" instance-id="-1" semantic-id="1" stroke="rgb(89,89,89)" stroke-width="0.1"/>
  <path d="M 25.570220500000005,51.547316499999994 L 60.912220500000004,16.20531649999998" fill="none" instance-id="-1" semantic-id="1" stroke="rgb(89,89,89)" stroke-width="0.1"/>
  <path d="M 26.630720500000002,51.547316499999994 L 60.912220500000004,17.266316499999988" fill="none" instance-id="-1" semantic-id="1" stroke="rgb(89,89,89)" stroke-width="0.1"/>
  <path d="M 27.69112050000001,51.547316499999994 L 60.912220500000004,18.32631649999999" fill="none" instance-id="-1" semantic-id="1" stroke="rgb(89,89,89)" stroke-width="0.1"/>
  <path d="M 28.7516205,51.5483165 L 60.912220500000004,19.387316499999997" fill="none" instance-id="-1" semantic-id="1" stroke="rgb(89,89,89)" stroke-width="0.1"/>
  <path d="M 29.812120500000006,51.5483165 L 60.912220500000004,20.448316500000004" fill="none" instance-id="-1" semantic-id="1" stroke="rgb(89,89,89)" stroke-width="0.1"/>
  <path d="M 30.872520500000007,51.5483165 L 60.912220500000004,21.508316500000006" fill="none" instance-id="-1" semantic-id="1" stroke="rgb(89,89,89)" stroke-width="0.1"/>
  <path d="M 31.933020499999998,51.5483165 L 60.912220500000004,22.569316499999985" fill="none" instance-id="-1" semantic-id="1" stroke="rgb(89,89,89)" stroke-width="0.1"/>
  <path d="M 32.9935205,51.5483165 L 60.912220500000004,23.630316499999992" fill="none" instance-id="-1" semantic-id="1" stroke="rgb(89,89,89)" stroke-width="0.1"/>
  <path d="M 34.053920500000004,51.5493165 L 60.912220500000004,24.690316499999994" fill="none" instance-id="-1" semantic-id="1" stroke="rgb(89,89,89)" stroke-width="0.1"/>
  <path d="M 35.11442050000001,51.5493165 L 60.912220500000004,25.7513165" fill="none" instance-id="-1" semantic-id="1" stroke="rgb(89,89,89)" stroke-width="0.1"/>
  <path d="M 36.1749205,51.5493165 L 60.912220500000004,26.81231650000001" fill="none" instance-id="-1" semantic-id="1" stroke="rgb(89,89,89)" stroke-width="0.1"/>
  <path d="M 37.2353205,51.5493165 L 60.912220500000004,27.872316499999982" fill="none" instance-id="-1" semantic-id="1" stroke="rgb(89,89,89)" stroke-width="0.1"/>
  <path d="M 38.295820500000005,51.5493165 L 60.912220500000004,28.93331649999999" fill="none" instance-id="-1" semantic-id="1" stroke="rgb(89,89,89)" stroke-width="0.1"/>
  <path d="M 39.35632050000001,51.5493165 L 60.912220500000004,29.994316499999996" fill="none" instance-id="-1" semantic-id="1" stroke="rgb(89,89,89)" stroke-width="0.1"/>
  <path d="M 40.41672050000001,51.55031650000001 L 60.912220500000004,31.0543165" fill="none" instance-id="-1" semantic-id="1" stroke="rgb(89,89,89)" stroke-width="0.1"/>
  <path d="M 41.4772205,51.55031650000001 L 60.912220500000004,32.115316500000006" fill="none" instance-id="-1" semantic-id="1" stroke="rgb(89,89,89)" stroke-width="0.1"/>
  <path d="M 42.537720500000006,51.55031650000001 L 60.912220500000004,33.176316499999984" fill="none" instance-id="-1" semantic-id="1" stroke="rgb(89,89,89)" stroke-width="0.1"/>
  <path d="M 43.59822050000001,51.55031650000001 L 60.912220500000004,34.23631649999999" fill="none" instance-id="-1" semantic-id="1" stroke="rgb(89,89,89)" stroke-width="0.1"/>
  <path d="M 44.6586205,51.55031650000001 L 60.912220500000004,35.297316499999994" fill="none" instance-id="-1" semantic-id="1" stroke="rgb(89,89,89)" stroke-width="0.1"/>
  <path d="M 45.7191205,51.551316499999984 L 60.912220500000004,36.3583165" fill="none" instance-id="-1" semantic-id="1" stroke="rgb(89,89,89)" stroke-width="0.1"/>
  <path d="M 22.777020500000006,75.5533165 L 24.912220500000004,73.4183165" fill="none" instance-id="-1" semantic-id="1" stroke="rgb(89,89,89)" stroke-width="0.1"/>
  <path d="M 23.837720500000003,75.5533165 L 24.912220500000004,74.47931649999998" fill="none" instance-id="-1" semantic-id="1" stroke="rgb(89,89,89)" stroke-width="0.1"/>
  <path d="M 24.898320500000004,75.5533165 L 24.912220500000004,75.54031649999999" fill="none" stroke="rgb(89,89,89)" stroke-width="0.1"/>
  <path d="M 46.77962050000001,51.551316499999984 L 60.912220500000004,37.4183165" fill="none" instance-id="-1" semantic-id="1" stroke="rgb(89,89,89)" stroke-width="0.1"/>
  <path d="M 47.84002050000001,51.551316499999984 L 60.912220500000004,38.47931649999998" fill="none" instance-id="-1" semantic-id="1" stroke="rgb(89,89,89)" stroke-width="0.1"/>
  <path d="M 48.9005205,51.551316499999984 L 60.912220500000004,39.54031649999999" fill="none" instance-id="-1" semantic-id="1" stroke="rgb(89,89,89)" stroke-width="0.1"/>
  <path d="M 49.961020500000004,51.551316499999984 L 60.912220500000004,40.60031649999999" fill="none" instance-id="-1" semantic-id="1" stroke="rgb(89,89,89)" stroke-width="0.1"/>
  <path d="M 51.021420500000005,51.55231649999999 L 60.912220500000004,41.6613165" fill="none" instance-id="-1" semantic-id="1" stroke="rgb(89,89,89)" stroke-width="0.1"/>
  <path d="M 52.08192050000001,51.55231649999999 L 60.912220500000004,42.7213165" fill="none" instance-id="-1" semantic-id="1" stroke="rgb(89,89,89)" stroke-width="0.1"/>
  <path d="M 53.1424205,51.55231649999999 L 60.912220500000004,43.78231650000001" fill="none" instance-id="-1" semantic-id="1" stroke="rgb(89,89,89)" stroke-width="0.1"/>
  <path d="M 54.2028205,51.55231649999999 L 60.912220500000004,44.843316499999986" fill="none" instance-id="-1" semantic-id="1" stroke="rgb(89,89,89)" stroke-width="0.1"/>
  <path d="M 55.263320500000006,51.55231649999999 L 60.912220500000004,45.90331649999999" fill="none" instance-id="-1" semantic-id="1" stroke="rgb(89,89,89)" stroke-width="0.1"/>
  <path d="M 56.32382050000001,51.553316499999994 L 60.912220500000004,46.964316499999995" fill="none" instance-id="-1" semantic-id="1" stroke="rgb(89,89,89)" stroke-width="0.1"/>
  <path d="M 57.3842205,51.553316499999994 L 60.912220500000004,48.0253165" fill="none" instance-id="-1" semantic-id="1" stroke="rgb(89,89,89)" stroke-width="0.1"/>
  <path d="M 58.4447205,51.553316499999994 L 60.912220500000004,49.085316500000005" fill="none" instance-id="-1" semantic-id="1" stroke="rgb(89,89,89)" stroke-width="0.1"/>
  <path d="M 59.50522050000001,51.553316499999994 L 60.912220500000004,50.14631649999998" fill="none" instance-id="-1" semantic-id="1" stroke="rgb(89,89,89)" stroke-width="0.1"/>
  <path d="M 60.5657205,51.553316499999994 L 60.912220500000004,51.20731649999999" fill="none" instance-id="-1" semantic-id="1" stroke="rgb(89,89,89)" stroke-width="0.1"/>
  <path d="M 60.912220500000004,0.0 L 60.912220500000004,51.553316499999994" fill="none" instance-id="-1" semantic-id="1" stroke="rgb(89,89,89)" stroke-width="0.1"/>
  <path d="M 60.912220500000004,51.553316499999994 L 24.912620500000003,51.547316499999994" fill="none" instance-id="-1" semantic-id="1" stroke="rgb(89,89,89)" stroke-width="0.1"/>
  <path d="M 24.912620500000003,51.547316499999994 L 24.912220500000004,75.5533165" fill="none" instance-id="-1" semantic-id="1" stroke="rgb(89,89,89)" stroke-width="0.1"/>
  <path d="M 24.912220500000004,75.5533165 L 0.0,75.5533165" fill="none" stroke="rgb(89,89,89)" stroke-width="0.1"/>
  <path d="M 0.0,75.5533165 L 24.912220500000004,75.5533165" fill="none" stroke="rgb(89,89,89)" stroke-width="0.1"/>
  <path d="M 24.912220500000004,75.5533165 L 24.912620500000003,51.547316499999994" fill="none" instance-id="-1" semantic-id="1" stroke="rgb(89,89,89)" stroke-width="0.1"/>
  <path d="M 24.912620500000003,51.547316499999994 L 60.912220500000004,51.553316499999994" fill="none" instance-id="-1" semantic-id="1" stroke="rgb(89,89,89)" stroke-width="0.1"/>
  <path d="M 60.912220500000004,51.553316499999994 L 60.912220500000004,0.0" fill="none" instance-id="-1" semantic-id="1" stroke="rgb(89,89,89)" stroke-width="0.1"/>
  <path d="M 24.912220500000004,53.553316499999994 L 24.912220500000004,75.5533165" fill="none" instance-id="-1" semantic-id="1" stroke="rgb(89,89,89)" stroke-width="0.1"/>
  <path d="M 24.912220500000004,75.5533165 L 27.912220500000004,72.5533165" fill="none" instance-id="-1" semantic-id="1" stroke="rgb(89,89,89)" stroke-width="0.1"/>
  <path d="M 27.912220500000004,72.5533165 L 27.912220500000004,53.553316499999994" fill="none" instance-id="-1" semantic-id="1" stroke="rgb(89,89,89)" stroke-width="0.1"/>
  <path d="M 27.912220500000004,53.553316499999994 L 24.912220500000004,53.553316499999994" fill="none" instance-id="-1" semantic-id="1" stroke="rgb(89,89,89)" stroke-width="0.1"/>
  <path d="M 100.0,55.496860765652116 L 27.912220500000004,53.553316499999994" fill="none" instance-id="-1" semantic-id="1" stroke="rgb(89,89,89)" stroke-width="0.1"/>
  <path d="M 27.912220500000004,53.553316499999994 L 27.912220500000004,72.5533165" fill="none" instance-id="-1" semantic-id="1" stroke="rgb(89,89,89)" stroke-width="0.1"/>
  <path d="M 27.912220500000004,72.5533165 L 24.912220500000004,53.553316499999994" fill="none" instance-id="-1" semantic-id="1" stroke="rgb(89,89,89)" stroke-width="0.1"/>
  <path d="M 24.912220500000004,53.553316499999994 L 24.912220500000004,75.5533165" fill="none" instance-id="-1" semantic-id="1" stroke="rgb(89,89,89)" stroke-width="0.1"/>
  <path d="M 24.912220500000004,75.5533165 L 100.0,74.80987191180762" fill="none" instance-id="-1" semantic-id="1" stroke="rgb(89,89,89)" stroke-width="0.1"/>
  <path d="M 100.0,4.207916763298215 L 27.919520500000004,17.55231649999999" fill="none" instance-id="-1" semantic-id="1" stroke="rgb(89,89,89)" stroke-width="0.1"/>
  <path d="M 27.919520500000004,17.55231649999999 L 29.9129205,17.55231649999999" fill="none" instance-id="-1" semantic-id="1" stroke="rgb(89,89,89)" stroke-width="0.1"/>
  <path d="M 29.9129205,17.55231649999999 L 29.9129205,12.55231649999999" fill="none" instance-id="-1" semantic-id="1" stroke="rgb(89,89,89)" stroke-width="0.1"/>
  <path d="M 29.9129205,12.55231649999999 L 24.9196205,12.55231649999999" fill="none" instance-id="-1" semantic-id="1" stroke="rgb(89,89,89)" stroke-width="0.1"/>
  <path d="M 24.9196205,12.55231649999999 L 24.912220500000004,53.553316499999994" fill="none" instance-id="-1" semantic-id="1" stroke="rgb(89,89,89)" stroke-width="0.1"/>
  <path d="M 24.912220500000004,53.553316499999994 L 32.912220500000004,53.553316499999994" fill="none" instance-id="-1" semantic-id="1" stroke="rgb(89,89,89)" stroke-width="0.1"/>
  <path d="M 32.912220500000004,53.553316499999994 L 32.912220500000004,51.053316499999994" fill="none" instance-id="-1" semantic-id="1" stroke="rgb(89,89,89)" stroke-width="0.1"/>
  <path d="M 32.912220500000004,51.053316499999994 L 27.912220500000004,51.053316499999994" fill="none" instance-id="-1" semantic-id="1" stroke="rgb(89,89,89)" stroke-width="0.1"/>
  <path d="M 27.912220500000004,51.053316499999994 L 100.0,35.071516413678836" fill="none" instance-id="-1" semantic-id="1" stroke="rgb(89,89,89)" stroke-width="0.1"/>
  <path d="M 54.912220500000004,53.553316499999994 L 62.9117205,53.553316499999994" fill="none" instance-id="-1" semantic-id="1" stroke="rgb(89,89,89)" stroke-width="0.1"/>
  <path d="M 62.9117205,53.553316499999994 L 62.9117205,12.553316499999994" fill="none" instance-id="-1" semantic-id="1" stroke="rgb(89,89,89)" stroke-width="0.1"/>
  <path d="M 62.9117205,12.553316499999994 L 59.912220500000004,12.553316499999994" fill="none" instance-id="-1" semantic-id="1" stroke="rgb(89,89,89)" stroke-width="0.1"/>
  <path d="M 59.912220500000004,12.553316499999994 L 59.912220500000004,51.053316499999994" fill="none" instance-id="-1" semantic-id="1" stroke="rgb(89,89,89)" stroke-width="0.1"/>
  <path d="M 59.912220500000004,51.053316499999994 L 54.912220500000004,51.053316499999994" fill="none" instance-id="-1" semantic-id="1" stroke="rgb(89,89,89)" stroke-width="0.1"/>
  <path d="M 54.912220500000004,51.053316499999994 L 54.912220500000004,53.553316499999994" fill="none" instance-id="-1" semantic-id="1" stroke="rgb(89,89,89)" stroke-width="0.1"/>
  <path d="M 84.91372050000001,42.053316499999994 L 84.91372050000001,44.553316499999994" fill="none" instance-id="-1" semantic-id="1" stroke="rgb(89,89,89)" stroke-width="0.1"/>
  <path d="M 84.91372050000001,44.553316499999994 L 100.0,44.553316499999994" fill="none" instance-id="-1" semantic-id="1" stroke="rgb(89,89,89)" stroke-width="0.1"/>
  <path d="M 100.0,42.053316499999994 L 91.9127205,42.053316499999994" fill="none" instance-id="-1" semantic-id="1" stroke="rgb(89,89,89)" stroke-width="0.1"/>
  <path d="M 91.9127205,42.053316499999994 L 91.9127205,27.053316499999994" fill="none" instance-id="-1" semantic-id="1" stroke="rgb(89,89,89)" stroke-width="0.1"/>
  <path d="M 91.9127205,27.053316499999994 L 89.9127205,27.053316499999994" fill="none" instance-id="-1" semantic-id="1" stroke="rgb(89,89,89)" stroke-width="0.1"/>
  <path d="M 89.9127205,27.053316499999994 L 89.9127205,42.053316499999994" fill="none" instance-id="-1" semantic-id="1" stroke="rgb(89,89,89)" stroke-width="0.1"/>
  <path d="M 89.9127205,42.053316499999994 L 84.91372050000001,42.053316499999994" fill="none" instance-id="-1" semantic-id="1" stroke="rgb(89,89,89)" stroke-width="0.1"/>
  <path d="M 24.9196205,12.55231649999999 L 24.912220500000004,53.553316499999994" fill="none" instance-id="-1" semantic-id="1" stroke="rgb(89,89,89)" stroke-width="0.1"/>
  <path d="M 24.912220500000004,53.553316499999994 L 32.912220500000004,53.553316499999994" fill="none" instance-id="-1" semantic-id="1" stroke="rgb(89,89,89)" stroke-width="0.1"/>
  <path d="M 32.912220500000004,53.553316499999994 L 32.912220500000004,51.053316499999994" fill="none" instance-id="-1" semantic-id="1" stroke="rgb(89,89,89)" stroke-width="0.1"/>
  <path d="M 32.912220500000004,51.053316499999994 L 27.912220500000004,51.053316499999994" fill="none" instance-id="-1" semantic-id="1" stroke="rgb(89,89,89)" stroke-width="0.1"/>
  <path d="M 27.912220500000004,51.053316499999994 L 27.9185205,17.55231649999999" fill="none" instance-id="-1" semantic-id="1" stroke="rgb(89,89,89)" stroke-width="0.1"/>
  <path d="M 27.9185205,17.55231649999999 L 29.9129205,17.55231649999999" fill="none" instance-id="-1" semantic-id="1" stroke="rgb(89,89,89)" stroke-width="0.1"/>
  <path d="M 29.9129205,17.55231649999999 L 29.9129205,12.55231649999999" fill="none" instance-id="-1" semantic-id="1" stroke="rgb(89,89,89)" stroke-width="0.1"/>
  <path d="M 29.9129205,12.55231649999999 L 24.9196205,12.55231649999999" fill="none" instance-id="-1" semantic-id="1" stroke="rgb(89,89,89)" stroke-width="0.1"/>
  <path d="M 27.912220500000004,72.5533165 L 27.912220500000004,53.553316499999994" fill="none" instance-id="-1" semantic-id="1" stroke="rgb(89,89,89)" stroke-width="0.1"/>
  <path d="M 27.912220500000004,53.553316499999994 L 24.912220500000004,53.553316499999994" fill="none" instance-id="-1" semantic-id="1" stroke="rgb(89,89,89)" stroke-width="0.1"/>
  <path d="M 24.912220500000004,53.553316499999994 L 24.912220500000004,75.5533165" fill="none" instance-id="-1" semantic-id="1" stroke="rgb(89,89,89)" stroke-width="0.1"/>
  <path d="M 24.912220500000004,75.5533165 L 100.0,75.5533165" fill="none" instance-id="-1" semantic-id="1" stroke="rgb(89,89,89)" stroke-width="0.1"/>
  <path d="M 100.0,72.5533165 L 27.912220500000004,72.5533165" fill="none" instance-id="-1" semantic-id="1" stroke="rgb(89,89,89)" stroke-width="0.1"/>
 </g>
 <g id="layerA-PUB_TEXT" inkscape:groupmode="layer" inkscape:label="A-PUB_TEXT">
  <text fill="rgb(0,0,0)" font-family="Noto Sans CJK SC" font-size="2" transform="rotate(-0.0,82.6837205,4.129316499999987)" x="82.6837205" y="4.129316499999987">
   上
  </text>
  <text fill="rgb(92,92,92)" font-family="Noto Sans CJK SC" font-size="2" transform="rotate(-0.0,2.684620500000001,5.175316500000008)" x="2.684620500000001" y="5.175316500000008">
   700X400
  </text>
  <text fill="rgb(92,92,92)" font-family="Noto Sans CJK SC" font-size="2" transform="rotate(-0.0,2.684620500000001,8.726316499999996)" x="2.684620500000001" y="8.726316499999996">
   BL2.3m
  </text>
 </g>
 <g id="layerA-STAIR" inkscape:groupmode="layer" inkscape:label="A-STAIR">
  <path d="M 89.9127205,7.253316499999983 L 77.5127205,7.253316499999983" fill="none" instance-id="1" semantic-id="30" stroke="rgb(178,178,0)" stroke-width="0.1"/>
  <path d="M 89.9127205,9.853316500000005 L 77.5127205,9.853316500000005" fill="none" instance-id="1" semantic-id="30" stroke="rgb(178,178,0)" stroke-width="0.1"/>
  <path d="M 89.9127205,12.4533165 L 77.5127205,12.4533165" fill="none" instance-id="1" semantic-id="30" stroke="rgb(178,178,0)" stroke-width="0.1"/>
  <path d="M 87.02372050000001,15.053316499999994 L 77.5127205,15.053316499999994" fill="none" instance-id="1" semantic-id="30" stroke="rgb(178,178,0)" stroke-width="0.1"/>
  <path d="M 79.8017205,17.65331649999999 L 77.5127205,17.65331649999999" fill="none" instance-id="1" semantic-id="30" stroke="rgb(178,178,0)" stroke-width="0.1"/>
  <path d="M 89.9127205,4.653316499999988 L 89.9127205,14.013316500000002" fill="none" instance-id="1" semantic-id="30" stroke="rgb(178,178,0)" stroke-width="0.1"/>
  <path d="M 76.9127205,4.653316499999988 L 76.9127205,5.9533165" fill="none" instance-id="1" semantic-id="30" stroke="rgb(178,178,0)" stroke-width="0.1"/>
  <path d="M 89.9127205,4.653316499999988 L 76.9127205,4.653316499999988" fill="none" instance-id="1" semantic-id="30" stroke="rgb(178,178,0)" stroke-width="0.1"/>
  <path d="M 76.9127205,5.9533165 L 76.9127205,18.69331650000001" fill="none" instance-id="1" semantic-id="30" stroke="rgb(178,178,0)" stroke-width="0.1"/>
  <path d="M 76.9127205,18.69331650000001 L 82.75572050000001,16.5903165" fill="none" instance-id="1" semantic-id="30" stroke="rgb(178,178,0)" stroke-width="0.1"/>
  <path d="M 82.75572050000001,16.5903165 L 82.64272050000001,15.245316500000001" fill="none" instance-id="1" semantic-id="30" stroke="rgb(178,178,0)" stroke-width="0.1"/>
  <path d="M 82.64272050000001,15.245316500000001 L 84.3647205,17.311316500000004" fill="none" instance-id="1" semantic-id="30" stroke="rgb(178,178,0)" stroke-width="0.1"/>
  <path d="M 84.3647205,17.311316500000004 L 84.25872050000001,16.049316500000003" fill="none" instance-id="1" semantic-id="30" stroke="rgb(178,178,0)" stroke-width="0.1"/>
  <path d="M 84.25872050000001,16.049316500000003 L 89.9127205,14.013316500000002" fill="none" instance-id="1" semantic-id="30" stroke="rgb(178,178,0)" stroke-width="0.1"/>
  <path d="M 77.5127205,5.9533165 L 77.5127205,18.4773165" fill="none" instance-id="1" semantic-id="30" stroke="rgb(178,178,0)" stroke-width="0.1"/>
  <path d="M 76.9127205,5.9533165 L 76.9127205,18.69331650000001" fill="none" instance-id="1" semantic-id="30" stroke="rgb(178,178,0)" stroke-width="0.1"/>
  <path d="M 77.5127205,5.9533165 L 76.9127205,5.9533165" fill="none" instance-id="1" semantic-id="30" stroke="rgb(178,178,0)" stroke-width="0.1"/>
 </g>
 <g id="layerA-WALL" inkscape:groupmode="layer" inkscape:label="A-WALL">
  <path d="M 32.912220500000004,51.553316499999994 L 54.912220500000004,51.553316499999994" fill="none" instance-id="-1" semantic-id="1" stroke="rgb(0,178,178)" stroke-width="0.1"/>
  <path d="M 32.912220500000004,53.553316499999994 L 54.912220500000004,53.553316499999994" fill="none" instance-id="-1" semantic-id="1" stroke="rgb(0,178,178)" stroke-width="0.1"/>
  <path d="M 32.912220500000004,51.553316499999994 L 32.912220500000004,53.553316499999994" fill="none" instance-id="-1" semantic-id="1" stroke="rgb(0,178,178)" stroke-width="0.1"/>
  <path d="M 54.912220500000004,51.553316499999994 L 54.912220500000004,53.553316499999994" fill="none" instance-id="-1" semantic-id="1" stroke="rgb(0,178,178)" stroke-width="0.1"/>
  <path d="M 24.912220500000004,45.553316499999994 L 24.912220500000004,13.553316499999994" fill="none" instance-id="-1" semantic-id="1" stroke="rgb(92,92,92)" stroke-width="0.1"/>
  <path d="M 26.912220500000004,43.553316499999994 L 26.912220500000004,14.553316499999994" fill="none" instance-id="-1" semantic-id="1" stroke="rgb(92,92,92)" stroke-width="0.1"/>
  <path d="M 26.912220500000004,43.553316499999994 L 61.912220500000004,43.553316499999994" fill="none" instance-id="-1" semantic-id="1" stroke="rgb(92,92,92)" stroke-width="0.1"/>
  <path d="M 24.912220500000004,45.553316499999994 L 61.912220500000004,45.553316499999994" fill="none" instance-id="-1" semantic-id="1" stroke="rgb(92,92,92)" stroke-width="0.1"/>
  <path d="M 61.912220500000004,43.553316499999994 L 61.912220500000004,45.553316499999994" fill="none" instance-id="-1" semantic-id="1" stroke="rgb(92,92,92)" stroke-width="0.1"/>
  <path d="M 26.912220500000004,14.553316499999994 L 40.912220500000004,14.553316499999994" fill="none" instance-id="-1" semantic-id="1" stroke="rgb(92,92,92)" stroke-width="0.1"/>
  <path d="M 40.912220500000004,14.553316499999994 L 40.912220500000004,12.553316499999994" fill="none" instance-id="-1" semantic-id="1" stroke="rgb(92,92,92)" stroke-width="0.1"/>
  <path d="M 40.912220500000004,12.553316499999994 L 26.912220500000004,12.553316499999994" fill="none" instance-id="-1" semantic-id="1" stroke="rgb(92,92,92)" stroke-width="0.1"/>
  <path d="M 60.912220500000004,12.553316499999994 L 52.912220500000004,12.553316499999994" fill="none" instance-id="-1" semantic-id="1" stroke="rgb(92,92,92)" stroke-width="0.1"/>
  <path d="M 52.912220500000004,12.553316499999994 L 52.912220500000004,14.553316499999994" fill="none" instance-id="-1" semantic-id="1" stroke="rgb(92,92,92)" stroke-width="0.1"/>
  <path d="M 52.912220500000004,14.553316499999994 L 62.9117205,14.553316499999994" fill="none" instance-id="-1" semantic-id="1" stroke="rgb(92,92,92)" stroke-width="0.1"/>
  <path d="M 26.912220500000004,12.553316499999994 L 26.912220500000004,11.55231649999999" fill="none" instance-id="-1" semantic-id="1" stroke="rgb(92,92,92)" stroke-width="0.1"/>
  <path d="M 26.912220500000004,11.55231649999999 L 24.912220500000004,11.55231649999999" fill="none" instance-id="-1" semantic-id="1" stroke="rgb(92,92,92)" stroke-width="0.1"/>
  <path d="M 24.912220500000004,11.55231649999999 L 24.912220500000004,13.553316499999994" fill="none" instance-id="-1" semantic-id="1" stroke="rgb(92,92,92)" stroke-width="0.1"/>
  <path d="M 62.9117205,14.553316499999994 L 62.9117205,1.8533165000000054" fill="none" instance-id="-1" semantic-id="1" stroke="rgb(0,178,178)" stroke-width="0.1"/>
  <path d="M 62.9117205,1.8533165000000054 L 60.912220500000004,1.8533165000000054" fill="none" instance-id="-1" semantic-id="1" stroke="rgb(0,178,178)" stroke-width="0.1"/>
  <path d="M 60.912220500000004,1.8533165000000054 L 60.912220500000004,12.553316499999994" fill="none" instance-id="-1" semantic-id="1" stroke="rgb(0,178,178)" stroke-width="0.1"/>
  <path d="M 84.91372050000001,44.553316499999994 L 62.9117205,44.553316499999994" fill="none" instance-id="-1" semantic-id="1" stroke="rgb(0,178,178)" stroke-width="0.1"/>
  <path d="M 84.91372050000001,42.053316499999994 L 62.9117205,42.053316499999994" fill="none" instance-id="-1" semantic-id="1" stroke="rgb(0,178,178)" stroke-width="0.1"/>
  <path d="M 84.91372050000001,44.553316499999994 L 84.91372050000001,42.053316499999994" fill="none" instance-id="-1" semantic-id="1" stroke="rgb(0,178,178)" stroke-width="0.1"/>
  <path d="M 62.9117205,44.553316499999994 L 62.9117205,42.053316499999994" fill="none" instance-id="-1" semantic-id="1" stroke="rgb(0,178,178)" stroke-width="0.1"/>
  <path d="M 27.912220500000004,53.553316499999994 L 27.912220500000004,72.5533165" fill="none" instance-id="-1" semantic-id="1" stroke="rgb(0,178,178)" stroke-width="0.1"/>
  <path d="M 24.912220500000004,53.553316499999994 L 24.912220500000004,75.5533165" fill="none" instance-id="-1" semantic-id="1" stroke="rgb(0,178,178)" stroke-width="0.1"/>
  <path d="M 27.912220500000004,53.553316499999994 L 24.912220500000004,53.553316499999994" fill="none" instance-id="-1" semantic-id="1" stroke="rgb(0,178,178)" stroke-width="0.1"/>
  <path d="M 24.912220500000004,75.5533165 L 0.0,75.5533165" fill="none" instance-id="-1" semantic-id="1" stroke="rgb(89,89,89)" stroke-width="0.1"/>
  <path d="M 24.912220500000004,72.5533165 L 0.0,72.5533165" fill="none" instance-id="-1" semantic-id="1" stroke="rgb(89,89,89)" stroke-width="0.1"/>
  <path d="M 100.0,75.5533165 L 24.912220500000004,75.5533165" fill="none" instance-id="-1" semantic-id="1" stroke="rgb(0,178,178)" stroke-width="0.1"/>
  <path d="M 100.0,72.5533165 L 27.912220500000004,72.5533165" fill="none" instance-id="-1" semantic-id="1" stroke="rgb(0,178,178)" stroke-width="0.1"/>
  <path d="M 91.9117205,27.053316499999994 L 91.9117205,1.8533165000000054" fill="none" instance-id="-1" semantic-id="1" stroke="rgb(0,178,178)" stroke-width="0.1"/>
  <path d="M 91.9117205,1.8533165000000054 L 89.9117205,1.8533165000000054" fill="none" instance-id="-1" semantic-id="1" stroke="rgb(0,178,178)" stroke-width="0.1"/>
  <path d="M 89.9117205,1.8533165000000054 L 89.9117205,27.053316499999994" fill="none" instance-id="-1" semantic-id="1" stroke="rgb(0,178,178)" stroke-width="0.1"/>
  <path d="M 89.9117205,27.053316499999994 L 91.9117205,27.053316499999994" fill="none" instance-id="-1" semantic-id="1" stroke="rgb(0,178,178)" stroke-width="0.1"/>
 </g>
 <g id="layerA-WATER" inkscape:groupmode="layer" inkscape:label="A-WATER">
  <path d="M 12.411620500000005,72.03431649999999 L 12.408420500000005,72.0373165" fill="none" stroke="rgb(92,92,92)" stroke-width="0.1"/>
  <path d="M 12.411620500000005,71.8093165 L 12.371020500000007,71.85031649999999" fill="none" stroke="rgb(92,92,92)" stroke-width="0.1"/>
  <path d="M 12.411720500000001,71.5853165 L 12.333620500000002,71.66331650000001" fill="none" stroke="rgb(92,92,92)" stroke-width="0.1"/>
  <path d="M 12.411720500000001,71.36031649999998 L 12.296220500000004,71.47531649999999" fill="none" stroke="rgb(92,92,92)" stroke-width="0.1"/>
  <path d="M 12.411720500000001,71.13531649999999 L 12.258820500000006,71.28831650000001" fill="none" stroke="rgb(92,92,92)" stroke-width="0.1"/>
  <path d="M 12.411720500000001,70.9113165 L 12.2214205,71.1013165" fill="none" stroke="rgb(92,92,92)" stroke-width="0.1"/>
  <path d="M 12.411720500000001,70.6863165 L 12.184020500000003,70.91431649999998" fill="none" stroke="rgb(92,92,92)" stroke-width="0.1"/>
  <path d="M 12.411720500000001,70.46231649999999 L 12.146620500000004,70.7273165" fill="none" stroke="rgb(92,92,92)" stroke-width="0.1"/>
  <path d="M 12.411720500000001,70.23731649999999 L 12.109220500000006,70.54031649999999" fill="none" stroke="rgb(92,92,92)" stroke-width="0.1"/>
  <path d="M 12.411720500000001,70.0133165 L 12.071820500000001,70.3533165" fill="none" stroke="rgb(92,92,92)" stroke-width="0.1"/>
  <path d="M 12.411820500000005,69.78831650000001 L 12.034420500000003,70.1663165" fill="none" stroke="rgb(92,92,92)" stroke-width="0.1"/>
  <path d="M 12.411820500000005,69.56431649999999 L 11.997020500000005,69.97931649999998" fill="none" stroke="rgb(92,92,92)" stroke-width="0.1"/>
  <path d="M 12.411820500000005,69.3393165 L 11.959620500000007,69.7923165" fill="none" stroke="rgb(92,92,92)" stroke-width="0.1"/>
  <path d="M 12.411820500000005,69.1153165 L 11.922220500000002,69.60531649999999" fill="none" stroke="rgb(92,92,92)" stroke-width="0.1"/>
  <path d="M 12.411820500000005,68.89031649999998 L 11.884720500000007,69.4173165" fill="none" stroke="rgb(92,92,92)" stroke-width="0.1"/>
  <path d="M 12.411820500000005,68.6663165 L 11.847320500000002,69.23031649999999" fill="none" stroke="rgb(92,92,92)" stroke-width="0.1"/>
  <path d="M 12.411820500000005,68.4413165 L 11.809920500000004,69.0433165" fill="none" stroke="rgb(92,92,92)" stroke-width="0.1"/>
  <path d="M 12.4119205,68.21731649999998 L 11.772520500000006,68.85631649999999" fill="none" stroke="rgb(92,92,92)" stroke-width="0.1"/>
  <path d="M 12.4119205,67.99231649999999 L 11.7351205,68.66931650000001" fill="none" stroke="rgb(92,92,92)" stroke-width="0.1"/>
  <path d="M 12.4119205,67.7683165 L 11.697720500000003,68.4823165" fill="none" stroke="rgb(92,92,92)" stroke-width="0.1"/>
  <path d="M 12.4119205,67.5433165 L 11.660320500000005,68.29531649999998" fill="none" stroke="rgb(92,92,92)" stroke-width="0.1"/>
  <path d="M 12.4119205,67.31931649999999 L 11.622920500000006,68.1083165" fill="none" stroke="rgb(92,92,92)" stroke-width="0.1"/>
  <path d="M 12.4119205,67.09431649999999 L 11.585520500000001,67.92131649999999" fill="none" stroke="rgb(92,92,92)" stroke-width="0.1"/>
  <path d="M 12.4119205,66.8703165 L 11.548120500000003,67.7343165" fill="none" stroke="rgb(92,92,92)" stroke-width="0.1"/>
  <path d="M 12.4119205,66.6453165 L 11.510720500000005,67.5473165" fill="none" stroke="rgb(92,92,92)" stroke-width="0.1"/>
  <path d="M 12.412020500000004,66.42131649999999 L 11.473320500000007,67.3593165" fill="none" stroke="rgb(92,92,92)" stroke-width="0.1"/>
  <path d="M 12.412020500000004,66.1963165 L 11.435920500000002,67.1723165" fill="none" stroke="rgb(92,92,92)" stroke-width="0.1"/>
  <path d="M 12.3312205,66.0533165 L 11.344620500000005,67.03931649999998" fill="none" stroke="rgb(92,92,92)" stroke-width="0.1"/>
  <path d="M 12.106720500000002,66.0533165 L 11.157520500000004,67.0023165" fill="none" stroke="rgb(92,92,92)" stroke-width="0.1"/>
  <path d="M 11.882220500000003,66.0533165 L 10.970420500000003,66.9643165" fill="none" stroke="rgb(92,92,92)" stroke-width="0.1"/>
  <path d="M 11.657720500000003,66.0533165 L 10.783320500000002,66.92731649999999" fill="none" stroke="rgb(92,92,92)" stroke-width="0.1"/>
  <path d="M 11.433120500000001,66.0533165 L 10.596220500000001,66.8893165" fill="none" stroke="rgb(92,92,92)" stroke-width="0.1"/>
  <path d="M 11.208620500000002,66.0533165 L 10.409120500000007,66.8523165" fill="none" stroke="rgb(92,92,92)" stroke-width="0.1"/>
  <path d="M 10.984120500000003,66.0533165 L 10.222120500000003,66.8153165" fill="none" stroke="rgb(92,92,92)" stroke-width="0.1"/>
  <path d="M 10.759620500000004,66.0533165 L 10.035020500000002,66.77731649999998" fill="none" stroke="rgb(92,92,92)" stroke-width="0.1"/>
  <path d="M 10.535120500000005,66.0533165 L 9.8479205,66.7403165" fill="none" stroke="rgb(92,92,92)" stroke-width="0.1"/>
  <path d="M 10.310620500000006,66.0533165 L 9.660820500000007,66.7023165" fill="none" stroke="rgb(92,92,92)" stroke-width="0.1"/>
  <path d="M 10.086120500000007,66.0533165 L 9.473720500000006,66.66531649999999" fill="none" stroke="rgb(92,92,92)" stroke-width="0.1"/>
  <path d="M 9.8616205,66.05231649999999 L 9.286620500000005,66.6273165" fill="none" stroke="rgb(92,92,92)" stroke-width="0.1"/>
  <path d="M 9.637120500000002,66.05231649999999 L 9.099520500000004,66.5903165" fill="none" stroke="rgb(92,92,92)" stroke-width="0.1"/>
  <path d="M 9.412620500000003,66.05231649999999 L 8.912520500000007,66.5533165" fill="none" stroke="rgb(92,92,92)" stroke-width="0.1"/>
  <path d="M 9.188120500000004,66.05231649999999 L 8.725420500000006,66.51531649999998" fill="none" stroke="rgb(92,92,92)" stroke-width="0.1"/>
  <path d="M 8.963620500000005,66.05231649999999 L 8.538320500000005,66.4783165" fill="none" stroke="rgb(92,92,92)" stroke-width="0.1"/>
  <path d="M 8.739120500000006,66.05231649999999 L 8.351220500000004,66.4403165" fill="none" stroke="rgb(92,92,92)" stroke-width="0.1"/>
  <path d="M 8.514620500000007,66.05231649999999 L 8.164120500000003,66.40331649999999" fill="none" stroke="rgb(92,92,92)" stroke-width="0.1"/>
  <path d="M 8.2901205,66.05231649999999 L 7.977020500000002,66.3653165" fill="none" stroke="rgb(92,92,92)" stroke-width="0.1"/>
  <path d="M 8.065520500000005,66.05231649999999 L 7.789920500000001,66.3283165" fill="none" stroke="rgb(92,92,92)" stroke-width="0.1"/>
  <path d="M 7.841020500000006,66.05231649999999 L 7.602920500000003,66.2913165" fill="none" stroke="rgb(92,92,92)" stroke-width="0.1"/>
  <path d="M 7.616520500000007,66.05231649999999 L 7.415820500000002,66.25331649999998" fill="none" stroke="rgb(92,92,92)" stroke-width="0.1"/>
  <path d="M 7.392020500000001,66.05231649999999 L 7.228720500000001,66.2163165" fill="none" stroke="rgb(92,92,92)" stroke-width="0.1"/>
  <path d="M 7.167520500000002,66.05231649999999 L 7.0416205000000005,66.1783165" fill="none" stroke="rgb(92,92,92)" stroke-width="0.1"/>
  <path d="M 6.943020500000003,66.05231649999999 L 6.854520500000007,66.14131649999999" fill="none" stroke="rgb(92,92,92)" stroke-width="0.1"/>
  <path d="M 6.718520500000004,66.05231649999999 L 6.667420500000006,66.1033165" fill="none" stroke="rgb(92,92,92)" stroke-width="0.1"/>
  <path d="M 6.494020500000005,66.05231649999999 L 6.480320500000005,66.0663165" fill="none" stroke="rgb(92,92,92)" stroke-width="0.1"/>
  <path d="M 12.912520500000007,57.553316499999994 L 12.911620500000005,72.5533165" fill="none" stroke="rgb(92,92,92)" stroke-width="0.1"/>
  <path d="M 12.911620500000005,72.5533165 L 0.0,72.55245572529998" fill="none" stroke="rgb(92,92,92)" stroke-width="0.1"/>
  <path d="M 0.0,57.55245566529999 L 12.912520500000007,57.553316499999994" fill="none" stroke="rgb(92,92,92)" stroke-width="0.1"/>
  <path d="M 12.912020500000004,65.5533165 L 12.911620500000005,72.5533165" fill="none" stroke="rgb(92,92,92)" stroke-width="0.1"/>
  <path d="M 12.911620500000005,72.5533165 L 5.911620500000005,72.55231649999999" fill="none" stroke="rgb(92,92,92)" stroke-width="0.1"/>
  <path d="M 5.911620500000005,72.55231649999999 L 5.912020500000004,65.55231649999999" fill="none" stroke="rgb(92,92,92)" stroke-width="0.1"/>
  <path d="M 5.912020500000004,65.55231649999999 L 12.912020500000004,65.5533165" fill="none" stroke="rgb(92,92,92)" stroke-width="0.1"/>
  <path d="M 12.412020500000004,66.0533165 L 12.411620500000005,72.0533165" fill="none" stroke="rgb(92,92,92)" stroke-width="0.1"/>
  <path d="M 12.411620500000005,72.0533165 L 6.411620500000005,72.05231649999999" fill="none" stroke="rgb(92,92,92)" stroke-width="0.1"/>
  <path d="M 6.411620500000005,72.05231649999999 L 6.412020500000004,66.05231649999999" fill="none" stroke="rgb(92,92,92)" stroke-width="0.1"/>
  <path d="M 6.412020500000004,66.05231649999999 L 12.412020500000004,66.0533165" fill="none" stroke="rgb(92,92,92)" stroke-width="0.1"/>
  <path d="M 12.912520500000007,57.553316499999994 L 0.0,59.538849571245606" fill="none" stroke="rgb(92,92,92)" stroke-width="0.1"/>
  <path d="M 6.412020500000004,66.05231649999999 L 11.4119205,67.0533165" fill="none" stroke="rgb(92,92,92)" stroke-width="0.1"/>
  <path d="M 11.4119205,67.0533165 L 12.411620500000005,72.0533165" fill="none" stroke="rgb(92,92,92)" stroke-width="0.1"/>
  <path d="M 11.4119205,67.0533165 L 12.411620500000005,72.0533165" fill="none" stroke="rgb(92,92,92)" stroke-width="0.1"/>
  <path d="M 12.411620500000005,72.0533165 L 12.412020500000004,66.0533165" fill="none" stroke="rgb(92,92,92)" stroke-width="0.1"/>
  <path d="M 12.412020500000004,66.0533165 L 6.412020500000004,66.05231649999999" fill="none" stroke="rgb(92,92,92)" stroke-width="0.1"/>
  <path d="M 6.412020500000004,66.05231649999999 L 11.4119205,67.0533165" fill="none" stroke="rgb(92,92,92)" stroke-width="0.1"/>
 </g>
 <g id="layerA-WINDOW" inkscape:groupmode="layer" inkscape:label="A-WINDOW">
  <path d="M 41.5122205,1.8533165000000054 L 40.912220500000004,1.8533165000000054" fill="none" instance-id="3" semantic-id="3" stroke="rgb(0,178,0)" stroke-width="0.1"/>
  <path d="M 40.912220500000004,13.553316499999994 L 41.5122205,13.553316499999994" fill="none" instance-id="3" semantic-id="3" stroke="rgb(0,178,0)" stroke-width="0.1"/>
  <path d="M 40.912220500000004,13.553316499999994 L 40.912220500000004,1.8533165000000054" fill="none" instance-id="3" semantic-id="3" stroke="rgb(0,178,0)" stroke-width="0.1"/>
  <path d="M 41.5122205,13.553316499999994 L 41.5122205,1.8533165000000054" fill="none" instance-id="3" semantic-id="3" stroke="rgb(0,178,0)" stroke-width="0.1"/>
  <path d="M 25.912220500000004,11.17731649999999 L 33.224720500000004,11.17731649999999" fill="none" instance-id="2" semantic-id="4" stroke="rgb(0,178,0)" stroke-width="0.1"/>
  <path d="M 25.912220500000004,11.55231649999999 L 33.224720500000004,11.55231649999999" fill="none" instance-id="2" semantic-id="4" stroke="rgb(0,178,0)" stroke-width="0.1"/>
  <path d="M 33.224720500000004,11.17731649999999 L 33.224720500000004,11.55231649999999" fill="none" instance-id="2" semantic-id="4" stroke="rgb(0,178,0)" stroke-width="0.1"/>
  <path d="M 25.912220500000004,11.55231649999999 L 25.912220500000004,11.17731649999999" fill="none" instance-id="2" semantic-id="4" stroke="rgb(0,178,0)" stroke-width="0.1"/>
  <path d="M 52.912220500000004,13.553316499999994 A 11.7,11.7 0.0 0,0 41.5122205,1.857316499999996" fill="none" instance-id="3" semantic-id="3" stroke="rgb(0,178,0)" stroke-width="0.1"/>
  <path d="M 25.912220500000004,4.052316499999989 L 26.42538618331728,4.034288488056433" fill="none" instance-id="2" semantic-id="4" stroke="rgb(0,178,0)" stroke-width="0.1"/>
  <path d="M 26.42538618331728,4.034288488056433 L 26.9360215600788,3.980292749810303" fill="none" instance-id="2" semantic-id="4" stroke="rgb(0,178,0)" stroke-width="0.1"/>
  <path d="M 26.9360215600788,3.980292749810303 L 27.441608779300708,3.8905955285122786" fill="none" instance-id="2" semantic-id="4" stroke="rgb(0,178,0)" stroke-width="0.1"/>
  <path d="M 27.441608779300708,3.8905955285122786 L 27.939654881553892,3.7656391049897593" fill="none" instance-id="2" semantic-id="4" stroke="rgb(0,178,0)" stroke-width="0.1"/>
  <path d="M 27.939654881553892,3.7656391049897593 L 28.427704091297457,3.606039616839581" fill="none" instance-id="2" semantic-id="4" stroke="rgb(0,178,0)" stroke-width="0.1"/>
  <path d="M 28.427704091297457,3.606039616839581 L 28.90334992586523,3.412584020364676" fill="none" instance-id="2" semantic-id="4" stroke="rgb(0,178,0)" stroke-width="0.1"/>
  <path d="M 28.90334992586523,3.412584020364676 L 29.364247061397876,3.18622621023448" fill="none" instance-id="2" semantic-id="4" stroke="rgb(0,178,0)" stroke-width="0.1"/>
  <path d="M 29.364247061397876,3.18622621023448 L 29.808122897212073,2.928082316002275" fill="none" instance-id="2" semantic-id="4" stroke="rgb(0,178,0)" stroke-width="0.1"/>
  <path d="M 29.808122897212073,2.928082316002275 L 30.232788761584786,2.6394251986715176" fill="none" instance-id="2" semantic-id="4" stroke="rgb(0,178,0)" stroke-width="0.1"/>
  <path d="M 30.232788761584786,2.6394251986715176 L 30.636150703698874,2.321678174447726" fill="none" instance-id="2" semantic-id="4" stroke="rgb(0,178,0)" stroke-width="0.1"/>
  <path d="M 30.636150703698874,2.321678174447726 L 31.016219818537152,1.9764079966229247" fill="none" instance-id="2" semantic-id="4" stroke="rgb(0,178,0)" stroke-width="0.1"/>
  <path d="M 31.016219818537152,1.9764079966229247 L 31.371122053814418,1.6053171301975624" fill="none" instance-id="2" semantic-id="4" stroke="rgb(0,178,0)" stroke-width="0.1"/>
  <path d="M 31.371122053814418,1.6053171301975624 L 31.6991074505914,1.2102353573325217" fill="none" instance-id="2" semantic-id="4" stroke="rgb(0,178,0)" stroke-width="0.1"/>
  <path d="M 31.6991074505914,1.2102353573325217 L 31.99855877200686,0.7931107550232639" fill="none" instance-id="2" semantic-id="4" stroke="rgb(0,178,0)" stroke-width="0.1"/>
  <path d="M 31.99855877200686,0.7931107550232639 L 32.2679994775809,0.35600008948318873" fill="none" instance-id="2" semantic-id="4" stroke="rgb(0,178,0)" stroke-width="0.1"/>
  <path d="M 33.22232050000001,11.17731649999999 A 7.3125,7.3125 0.0 0,0 25.912220500000004,4.052316499999989" fill="none" instance-id="2" semantic-id="4" stroke="rgb(0,178,0)" stroke-width="0.1"/>
  <path d="M 85.25695910748625,0.10980671387176244 L 85.67745728231026,0.3812435727792547" fill="none" stroke="rgb(0,178,0)" stroke-width="0.1"/>
  <path d="M 85.67745728231026,0.3812435727792547 L 86.11095686253374,0.6313931227487899" fill="none" stroke="rgb(0,178,0)" stroke-width="0.1"/>
  <path d="M 86.11095686253374,0.6313931227487899 L 86.55638111774262,0.8596340399294888" fill="none" stroke="rgb(0,178,0)" stroke-width="0.1"/>
  <path d="M 86.55638111774262,0.8596340399294888 L 87.01262369890077,1.0653994173427748" fill="none" stroke="rgb(0,178,0)" stroke-width="0.1"/>
  <path d="M 87.01262369890077,1.0653994173427748 L 87.47855138631033,1.248178172971194" fill="none" stroke="rgb(0,178,0)" stroke-width="0.1"/>
  <path d="M 87.47855138631033,1.248178172971194 L 87.95300690431365,1.4075163191888862" fill="none" stroke="rgb(0,178,0)" stroke-width="0.1"/>
  <path d="M 87.95300690431365,1.4075163191888862 L 88.4348117957457,1.5430180903804" fill="none" stroke="rgb(0,178,0)" stroke-width="0.1"/>
  <path d="M 88.4348117957457,1.5430180903804 L 88.92276934899724,1.654346925947209" fill="none" stroke="rgb(0,178,0)" stroke-width="0.1"/>
  <path d="M 88.92276934899724,1.654346925947209 L 89.4156675704186,1.7412263062600175" fill="none" stroke="rgb(0,178,0)" stroke-width="0.1"/>
  <path d="M 89.4156675704186,1.7412263062600175 L 89.91228219468118,1.8034404394809087" fill="none" stroke="rgb(0,178,0)" stroke-width="0.1"/>
  <path d="M 89.91228219468118,1.8034404394809087 L 90.41137972561933,1.8408347975492916" fill="none" stroke="rgb(0,178,0)" stroke-width="0.1"/>
  <path d="M 90.41137972561933,1.8408347975492916 L 90.9117205,1.8533165000000054" fill="none" stroke="rgb(0,178,0)" stroke-width="0.1"/>
  <path d="M 61.912220500000004,1.8533165000000054 L 62.41257800431046,1.840858905608485" fill="none" stroke="rgb(0,178,0)" stroke-width="0.1"/>
  <path d="M 62.41257800431046,1.840858905608485 L 62.91169338549993,1.8034869905128517" fill="none" stroke="rgb(0,178,0)" stroke-width="0.1"/>
  <path d="M 62.91169338549993,1.8034869905128517 L 63.40832685612004,1.7412935854151783" fill="none" stroke="rgb(0,178,0)" stroke-width="0.1"/>
  <path d="M 63.40832685612004,1.7412935854151783 L 63.90124479371292,1.654433176844833" fill="none" stroke="rgb(0,178,0)" stroke-width="0.1"/>
  <path d="M 63.90124479371292,1.654433176844833 L 64.38922280509188,1.543121523418705" fill="none" stroke="rgb(0,178,0)" stroke-width="0.1"/>
  <path d="M 64.38922280509188,1.543121523418705 L 64.87104876769692,1.4076351199033184" fill="none" stroke="rgb(0,178,0)" stroke-width="0.1"/>
  <path d="M 64.87104876769692,1.4076351199033184 L 65.34552584047037,1.248310510410107" fill="none" stroke="rgb(0,178,0)" stroke-width="0.1"/>
  <path d="M 65.34552584047037,1.248310510410107 L 65.81147543677369,1.0655434524302905" fill="none" stroke="rgb(0,178,0)" stroke-width="0.1"/>
  <path d="M 65.81147543677369,1.0655434524302905 L 66.26774015196091,0.8597879337851282" fill="none" stroke="rgb(0,178,0)" stroke-width="0.1"/>
  <path d="M 66.26774015196091,0.8597879337851282 L 66.71318663833661,0.6315550449339185" fill="none" stroke="rgb(0,178,0)" stroke-width="0.1"/>
  <path d="M 66.71318663833661,0.6315550449339185 L 67.14670842035719,0.38141170944101077" fill="none" stroke="rgb(0,178,0)" stroke-width="0.1"/>
  <path d="M 67.14670842035719,0.38141170944101077 L 67.5672286430825,0.10997927575471067" fill="none" stroke="rgb(0,178,0)" stroke-width="0.1"/>
 </g>
 <g id="layerA-看线" inkscape:groupmode="layer" inkscape:label="A-看线">
  <path d="M 76.9127205,4.653316499999988 L 75.9127205,4.653316499999988" fill="none" instance-id="6" semantic-id="30" stroke="rgb(89,89,89)" stroke-width="0.1"/>
  <path d="M 89.9127205,15.053316499999994 L 87.02372050000001,15.053316499999994" fill="none" instance-id="6" semantic-id="30" stroke="rgb(89,89,89)" stroke-width="0.1"/>
  <path d="M 89.9127205,17.65331649999999 L 79.8017205,17.65331649999999" fill="none" instance-id="6" semantic-id="30" stroke="rgb(89,89,89)" stroke-width="0.1"/>
  <path d="M 89.9127205,20.253316499999983 L 76.9127205,20.253316499999983" fill="none" instance-id="6" semantic-id="30" stroke="rgb(89,89,89)" stroke-width="0.1"/>
  <path d="M 89.9127205,22.853316500000005 L 76.9127205,22.853316500000005" fill="none" instance-id="6" semantic-id="30" stroke="rgb(89,89,89)" stroke-width="0.1"/>
  <path d="M 89.9127205,25.4533165 L 76.9127205,25.4533165" fill="none" instance-id="6" semantic-id="30" stroke="rgb(89,89,89)" stroke-width="0.1"/>
  <path d="M 89.9127205,14.013316500000002 L 89.9127205,28.053316499999994" fill="none" instance-id="6" semantic-id="30" stroke="rgb(89,89,89)" stroke-width="0.1"/>
  <path d="M 76.9127205,18.69331650000001 L 76.9127205,28.053316499999994" fill="none" instance-id="6" semantic-id="30" stroke="rgb(89,89,89)" stroke-width="0.1"/>
  <path d="M 89.9127205,28.053316499999994 L 76.9127205,28.053316499999994" fill="none" instance-id="6" semantic-id="30" stroke="rgb(89,89,89)" stroke-width="0.1"/>
  <path d="M 76.9127205,18.69331650000001 L 82.75572050000001,16.5903165" fill="none" instance-id="6" semantic-id="30" stroke="rgb(89,89,89)" stroke-width="0.1"/>
  <path d="M 82.75572050000001,16.5903165 L 82.64272050000001,15.245316500000001" fill="none" instance-id="6" semantic-id="30" stroke="rgb(89,89,89)" stroke-width="0.1"/>
  <path d="M 82.64272050000001,15.245316500000001 L 84.3647205,17.311316500000004" fill="none" instance-id="6" semantic-id="30" stroke="rgb(89,89,89)" stroke-width="0.1"/>
  <path d="M 84.3647205,17.311316500000004 L 84.25872050000001,16.049316500000003" fill="none" instance-id="6" semantic-id="30" stroke="rgb(89,89,89)" stroke-width="0.1"/>
  <path d="M 84.25872050000001,16.049316500000003 L 89.9127205,14.013316500000002" fill="none" instance-id="6" semantic-id="30" stroke="rgb(89,89,89)" stroke-width="0.1"/>
  <path d="M 62.912720500000006,28.053316499999994 L 62.912720500000006,4.653316499999988" fill="none" instance-id="6" semantic-id="30" stroke="rgb(89,89,89)" stroke-width="0.1"/>
  <path d="M 75.9127205,28.053316499999994 L 75.9127205,4.653316499999988" fill="none" instance-id="6" semantic-id="30" stroke="rgb(89,89,89)" stroke-width="0.1"/>
  <path d="M 62.912720500000006,28.053316499999994 L 75.9127205,28.053316499999994" fill="none" instance-id="6" semantic-id="30" stroke="rgb(89,89,89)" stroke-width="0.1"/>
  <path d="M 62.912720500000006,25.4533165 L 75.9127205,25.4533165" fill="none" instance-id="6" semantic-id="30" stroke="rgb(89,89,89)" stroke-width="0.1"/>
  <path d="M 62.912720500000006,22.853316500000005 L 75.9127205,22.853316500000005" fill="none" instance-id="6" semantic-id="30" stroke="rgb(89,89,89)" stroke-width="0.1"/>
  <path d="M 62.912720500000006,20.253316499999983 L 75.9127205,20.253316499999983" fill="none" instance-id="6" semantic-id="30" stroke="rgb(89,89,89)" stroke-width="0.1"/>
  <path d="M 62.912720500000006,17.65331649999999 L 75.9127205,17.65331649999999" fill="none" instance-id="6" semantic-id="30" stroke="rgb(89,89,89)" stroke-width="0.1"/>
  <path d="M 62.912720500000006,15.053316499999994 L 75.9127205,15.053316499999994" fill="none" instance-id="6" semantic-id="30" stroke="rgb(89,89,89)" stroke-width="0.1"/>
  <path d="M 62.912720500000006,12.4533165 L 75.9127205,12.4533165" fill="none" instance-id="6" semantic-id="30" stroke="rgb(89,89,89)" stroke-width="0.1"/>
  <path d="M 62.912720500000006,9.853316500000005 L 75.9127205,9.853316500000005" fill="none" instance-id="6" semantic-id="30" stroke="rgb(89,89,89)" stroke-width="0.1"/>
  <path d="M 62.912720500000006,7.253316499999983 L 75.9127205,7.253316499999983" fill="none" instance-id="6" semantic-id="30" stroke="rgb(89,89,89)" stroke-width="0.1"/>
  <path d="M 62.912720500000006,4.653316499999988 L 75.9127205,4.653316499999988" fill="none" instance-id="6" semantic-id="30" stroke="rgb(89,89,89)" stroke-width="0.1"/>
  <path d="M 75.3127205,3.053316499999994 L 77.5127205,3.053316499999994" fill="none" instance-id="6" semantic-id="30" stroke="rgb(89,89,89)" stroke-width="0.1"/>
  <path d="M 77.5127205,3.053316499999994 L 77.5127205,29.65331649999999" fill="none" instance-id="6" semantic-id="30" stroke="rgb(89,89,89)" stroke-width="0.1"/>
  <path d="M 77.5127205,29.65331649999999 L 75.3127205,29.65331649999999" fill="none" instance-id="6" semantic-id="30" stroke="rgb(89,89,89)" stroke-width="0.1"/>
  <path d="M 75.3127205,29.65331649999999 L 75.3127205,3.053316499999994" fill="none" instance-id="6" semantic-id="30" stroke="rgb(89,89,89)" stroke-width="0.1"/>
  <path d="M 75.9127205,3.6533164999999883 L 76.9127205,3.6533164999999883" fill="none" instance-id="6" semantic-id="30" stroke="rgb(89,89,89)" stroke-width="0.1"/>
  <path d="M 76.9127205,3.6533164999999883 L 76.9127205,29.053316499999994" fill="none" instance-id="6" semantic-id="30" stroke="rgb(89,89,89)" stroke-width="0.1"/>
  <path d="M 76.9127205,29.053316499999994 L 75.9127205,29.053316499999994" fill="none" instance-id="6" semantic-id="30" stroke="rgb(89,89,89)" stroke-width="0.1"/>
  <path d="M 75.9127205,29.053316499999994 L 75.9127205,3.6533164999999883" fill="none" instance-id="6" semantic-id="30" stroke="rgb(89,89,89)" stroke-width="0.1"/>
 </g>
 <g id="layerA-设备基础" inkscape:groupmode="layer" inkscape:label="A-设备基础">
  <path d="M 32.71332050000001,22.662316500000003 L 32.8248205,22.550316500000008" fill="none" stroke="rgb(92,92,92)" stroke-width="0.1"/>
  <path d="M 32.71332050000001,24.907316500000007 L 35.06992050000001,22.550316500000008" fill="none" stroke="rgb(92,92,92)" stroke-width="0.1"/>
  <path d="M 32.71332050000001,27.152316499999984 L 37.3149205,22.550316500000008" fill="none" stroke="rgb(92,92,92)" stroke-width="0.1"/>
  <path d="M 32.71332050000001,29.397316499999988 L 39.56002050000001,22.550316500000008" fill="none" stroke="rgb(92,92,92)" stroke-width="0.1"/>
  <path d="M 32.71332050000001,31.642316499999993 L 41.8050205,22.550316500000008" fill="none" stroke="rgb(92,92,92)" stroke-width="0.1"/>
  <path d="M 32.71332050000001,33.8873165 L 44.050120500000006,22.550316500000008" fill="none" stroke="rgb(92,92,92)" stroke-width="0.1"/>
  <path d="M 34.29552050000001,34.55031650000001 L 44.7130205,24.1323165" fill="none" stroke="rgb(92,92,92)" stroke-width="0.1"/>
  <path d="M 36.5405205,34.55031650000001 L 44.7130205,26.377316500000006" fill="none" stroke="rgb(92,92,92)" stroke-width="0.1"/>
  <path d="M 38.78562050000001,34.55031650000001 L 44.7130205,28.622316499999982" fill="none" stroke="rgb(92,92,92)" stroke-width="0.1"/>
  <path d="M 41.0307205,34.55031650000001 L 44.7130205,30.867316499999987" fill="none" stroke="rgb(92,92,92)" stroke-width="0.1"/>
  <path d="M 43.275720500000006,34.55031650000001 L 44.7130205,33.11231649999999" fill="none" stroke="rgb(92,92,92)" stroke-width="0.1"/>
  <path d="M 32.71332050000001,34.55031650000001 L 44.7130205,34.55031650000001" fill="none" stroke="rgb(92,92,92)" stroke-width="0.1"/>
  <path d="M 44.7130205,34.55031650000001 L 44.7130205,22.550316500000008" fill="none" stroke="rgb(92,92,92)" stroke-width="0.1"/>
  <path d="M 44.7130205,22.550316500000008 L 32.71332050000001,22.550316500000008" fill="none" stroke="rgb(92,92,92)" stroke-width="0.1"/>
  <path d="M 32.71332050000001,22.550316500000008 L 32.71332050000001,34.55031650000001" fill="none" stroke="rgb(92,92,92)" stroke-width="0.1"/>
  <path d="M 32.71332050000001,34.55031650000001 L 44.7130205,34.55031650000001" fill="none" stroke="rgb(92,92,92)" stroke-width="0.1"/>
  <path d="M 44.7130205,34.55031650000001 L 44.7130205,22.550316500000008" fill="none" stroke="rgb(92,92,92)" stroke-width="0.1"/>
  <path d="M 44.7130205,22.550316500000008 L 32.71332050000001,22.550316500000008" fill="none" stroke="rgb(92,92,92)" stroke-width="0.1"/>
  <path d="M 32.71332050000001,22.550316500000008 L 32.71332050000001,34.55031650000001" fill="none" stroke="rgb(92,92,92)" stroke-width="0.1"/>
 </g>
 <g id="layerPUB_HATCH" inkscape:groupmode="layer" inkscape:label="PUB_HATCH">
  <path d="M 24.912220500000004,72.5533165 L 0.0,72.5533165" fill="none" stroke="rgb(89,89,89)" stroke-width="0.1"/>
  <path d="M 0.0,75.5533165 L 24.912220500000004,75.5533165" fill="none" stroke="rgb(89,89,89)" stroke-width="0.1"/>
  <path d="M 24.912220500000004,75.5533165 L 24.912220500000004,72.5533165" fill="none" stroke="rgb(89,89,89)" stroke-width="0.1"/>
  <path d="M 100.0,72.5533165 L 27.912220500000004,72.5533165" fill="none" stroke="rgb(89,89,89)" stroke-width="0.1"/>
  <path d="M 27.912220500000004,72.5533165 L 24.912220500000004,75.5533165" fill="none" stroke="rgb(89,89,89)" stroke-width="0.1"/>
  <path d="M 24.912220500000004,75.5533165 L 100.0,75.5533165" fill="none" stroke="rgb(89,89,89)" stroke-width="0.1"/>
 </g>
 <g id="layerS-SHEARWALLDOWN" inkscape:groupmode="layer" inkscape:label="S-SHEARWALLDOWN">
  <path d="M 54.912220500000004,53.553316499999994 L 62.9117205,53.553316499999994" fill="none" instance-id="-1" semantic-id="1" stroke="rgb(0,178,178)" stroke-width="0.1"/>
  <path d="M 62.9117205,53.553316499999994 L 62.9117205,12.553316499999994" fill="none" instance-id="-1" semantic-id="1" stroke="rgb(0,178,178)" stroke-width="0.1"/>
  <path d="M 62.9117205,12.553316499999994 L 59.912220500000004,12.553316499999994" fill="none" instance-id="-1" semantic-id="1" stroke="rgb(0,178,178)" stroke-width="0.1"/>
  <path d="M 59.912220500000004,12.553316499999994 L 59.912220500000004,51.053316499999994" fill="none" instance-id="-1" semantic-id="1" stroke="rgb(0,178,178)" stroke-width="0.1"/>
  <path d="M 59.912220500000004,51.053316499999994 L 54.912220500000004,51.053316499999994" fill="none" instance-id="-1" semantic-id="1" stroke="rgb(0,178,178)" stroke-width="0.1"/>
  <path d="M 54.912220500000004,51.053316499999994 L 54.912220500000004,53.553316499999994" fill="none" instance-id="-1" semantic-id="1" stroke="rgb(0,178,178)" stroke-width="0.1"/>
  <path d="M 27.919520500000004,17.55231649999999 L 29.9129205,17.55231649999999" fill="none" instance-id="-1" semantic-id="1" stroke="rgb(0,178,178)" stroke-width="0.1"/>
  <path d="M 29.9129205,17.55231649999999 L 29.9129205,12.55231649999999" fill="none" instance-id="-1" semantic-id="1" stroke="rgb(0,178,178)" stroke-width="0.1"/>
  <path d="M 29.9129205,12.55231649999999 L 24.9196205,12.55231649999999" fill="none" instance-id="-1" semantic-id="1" stroke="rgb(0,178,178)" stroke-width="0.1"/>
  <path d="M 24.9196205,12.55231649999999 L 24.912220500000004,53.553316499999994" fill="none" instance-id="-1" semantic-id="1" stroke="rgb(0,178,178)" stroke-width="0.1"/>
  <path d="M 24.912220500000004,53.553316499999994 L 32.912220500000004,53.553316499999994" fill="none" instance-id="-1" semantic-id="1" stroke="rgb(0,178,178)" stroke-width="0.1"/>
  <path d="M 32.912220500000004,53.553316499999994 L 32.912220500000004,51.053316499999994" fill="none" instance-id="-1" semantic-id="1" stroke="rgb(0,178,178)" stroke-width="0.1"/>
  <path d="M 32.912220500000004,51.053316499999994 L 27.912220500000004,51.053316499999994" fill="none" instance-id="-1" semantic-id="1" stroke="rgb(0,178,178)" stroke-width="0.1"/>
  <path d="M 27.912220500000004,51.053316499999994 L 27.9185205,17.55231649999999" fill="none" instance-id="-1" semantic-id="1" stroke="rgb(0,178,178)" stroke-width="0.1"/>
  <path d="M 89.9127205,42.053316499999994 L 84.91372050000001,42.053316499999994" fill="none" instance-id="-1" semantic-id="1" stroke="rgb(0,178,178)" stroke-width="0.1"/>
  <path d="M 84.91372050000001,42.053316499999994 L 84.91372050000001,44.553316499999994" fill="none" instance-id="-1" semantic-id="1" stroke="rgb(0,178,178)" stroke-width="0.1"/>
  <path d="M 84.91372050000001,44.553316499999994 L 100.0,44.553316499999994" fill="none" instance-id="-1" semantic-id="1" stroke="rgb(0,178,178)" stroke-width="0.1"/>
  <path d="M 100.0,42.053316499999994 L 91.9127205,42.053316499999994" fill="none" instance-id="-1" semantic-id="1" stroke="rgb(0,178,178)" stroke-width="0.1"/>
  <path d="M 91.9127205,42.053316499999994 L 91.9127205,27.053316499999994" fill="none" instance-id="-1" semantic-id="1" stroke="rgb(0,178,178)" stroke-width="0.1"/>
  <path d="M 91.9127205,27.053316499999994 L 89.9127205,27.053316499999994" fill="none" instance-id="-1" semantic-id="1" stroke="rgb(0,178,178)" stroke-width="0.1"/>
  <path d="M 89.9127205,27.053316499999994 L 89.9127205,42.053316499999994" fill="none" instance-id="-1" semantic-id="1" stroke="rgb(0,178,178)" stroke-width="0.1"/>
  <path d="M 24.912220500000004,53.553316499999994 L 24.912220500000004,75.5533165" fill="none" instance-id="-1" semantic-id="1" stroke="rgb(0,178,178)" stroke-width="0.1"/>
  <path d="M 24.912220500000004,75.5533165 L 100.0,75.5533165" fill="none" instance-id="-1" semantic-id="1" stroke="rgb(0,178,178)" stroke-width="0.1"/>
  <path d="M 27.912220500000004,53.553316499999994 L 27.912220500000004,72.5533165" fill="none" instance-id="-1" semantic-id="1" stroke="rgb(0,178,178)" stroke-width="0.1"/>
  <path d="M 27.912220500000004,72.5533165 L 100.0,72.5533165" fill="none" instance-id="-1" semantic-id="1" stroke="rgb(0,178,178)" stroke-width="0.1"/>
 </g>
 <g id="layerWINDOW_TEXT" inkscape:groupmode="layer" inkscape:label="WINDOW_TEXT">
  <text fill="rgb(255,12,254)" font-family="Noto Sans CJK SC" font-size="2" transform="rotate(-90.0,95.42672050000002,5.856316499999991)" x="95.42672050000002" y="5.856316499999991">
   FM1021(
  </text>
  <text fill="rgb(255,12,254)" font-family="Noto Sans CJK SC" font-size="2" transform="rotate(-90.0,65.60972050000001,5.856316499999991)" x="65.60972050000001" y="5.856316499999991">
   FM1021(
  </text>
 </g>
 <g id="layer阳台雨水管" inkscape:groupmode="layer" inkscape:label="阳台雨水管">
  <text fill="rgb(92,92,92)" font-family="Noto Sans CJK SC" font-size="2" transform="rotate(-0.0,10.503720500000007,55.9113165)" x="10.503720500000007" y="55.9113165">
   集水井3
  </text>
 </g>
</svg>