<?xml version="1.0" encoding="utf-8"?>
<svg style="background-color: #000;" version="1.1" viewBox="0 0 100.0 100.0" xmlns="http://www.w3.org/2000/svg" xmlns:inkscape="http://www.inkscape.org/namespaces/inkscape">
 <g id="layer0" inkscape:groupmode="layer" inkscape:label="0">
  <path d="M 4.994,12.5 L 86.993,12.529999999999973" fill="none" stroke="rgb(0,0,178)" stroke-width="0.1"/>
  <path d="M 86.993,12.529999999999973 L 86.993,33.5" fill="none" stroke="rgb(0,0,178)" stroke-width="0.1"/>
  <path d="M 86.993,33.5 L 4.994,33.500999999999976" fill="none" stroke="rgb(0,0,178)" stroke-width="0.1"/>
  <path d="M 4.994,33.500999999999976 L 4.994,12.5" fill="none" stroke="rgb(0,0,178)" stroke-width="0.1"/>
  <path d="M 0.0,7.5 L 2.992999999999995,7.5" fill="none" stroke="rgb(0,0,178)" stroke-width="0.1"/>
  <path d="M 2.992999999999995,7.5 L 3.0,12.5" fill="none" stroke="rgb(0,0,178)" stroke-width="0.1"/>
  <path d="M 3.0,12.5 L 4.994,12.5" fill="none" stroke="rgb(0,0,178)" stroke-width="0.1"/>
  <path d="M 4.994,12.5 L 4.994,28.5" fill="none" stroke="rgb(0,0,178)" stroke-width="0.1"/>
  <path d="M 4.994,28.5 L 0.0,28.5" fill="none" stroke="rgb(0,0,178)" stroke-width="0.1"/>
  <path d="M 86.993,12.529999999999973 L 89.0,12.5" fill="none" stroke="rgb(0,0,178)" stroke-width="0.1"/>
  <path d="M 89.0,12.5 L 89.0,7.5" fill="none" stroke="rgb(0,0,178)" stroke-width="0.1"/>
  <path d="M 89.0,7.5 L 100.0,7.5" fill="none" stroke="rgb(0,0,178)" stroke-width="0.1"/>
  <path d="M 100.0,28.5 L 87.0,28.5" fill="none" stroke="rgb(0,0,178)" stroke-width="0.1"/>
  <path d="M 87.0,28.5 L 86.993,12.529999999999973" fill="none" stroke="rgb(0,0,178)" stroke-width="0.1"/>
 </g>
 <g id="layerA-AXIS" inkscape:groupmode="layer" inkscape:label="A-AXIS">
  <path d="M 4.0,77.5 L 4.0,100.0" fill="none" stroke="rgb(160,53,53)" stroke-width="0.1"/>
  <path d="M 46.0,77.5 L 46.0,100.0" fill="none" stroke="rgb(160,53,53)" stroke-width="0.1"/>
  <path d="M 88.0,77.5 L 88.0,100.0" fill="none" stroke="rgb(160,53,53)" stroke-width="0.1"/>
  <path d="M 88.0,80.5 L 88.0,100.0" fill="none" stroke="rgb(160,53,53)" stroke-width="0.1"/>
  <path d="M 46.0,80.5 L 46.0,100.0" fill="none" stroke="rgb(160,53,53)" stroke-width="0.1"/>
  <path d="M 88.0,80.5 L 88.0,100.0" fill="none" stroke="rgb(160,53,53)" stroke-width="0.1"/>
  <path d="M 4.0,80.5 L 4.0,100.0" fill="none" stroke="rgb(160,53,53)" stroke-width="0.1"/>
  <path d="M 46.0,80.5 L 46.0,100.0" fill="none" stroke="rgb(160,53,53)" stroke-width="0.1"/>
  <path d="M 4.0,80.5 L 4.0,100.0" fill="none" stroke="rgb(160,53,53)" stroke-width="0.1"/>
 </g>
 <g id="layerA-DOTE" inkscape:groupmode="layer" inkscape:label="A-DOTE">
  <path d="M 100.0,27.5 L 0.0,27.5" fill="none" stroke="rgb(178,0,0)" stroke-width="0.1"/>
  <path d="M 100.0,6.5 L 0.0,6.5" fill="none" stroke="rgb(178,0,0)" stroke-width="0.1"/>
  <path d="M 100.0,11.5 L 0.0,11.5" fill="none" stroke="rgb(178,0,0)" stroke-width="0.1"/>
  <path d="M 46.0,0.0 L 46.0,77.5" fill="none" stroke="rgb(178,0,0)" stroke-width="0.1"/>
  <path d="M 88.0,0.0 L 88.0,77.5" fill="none" stroke="rgb(178,0,0)" stroke-width="0.1"/>
  <path d="M 4.0,0.0 L 4.0,77.5" fill="none" stroke="rgb(178,0,0)" stroke-width="0.1"/>
  <path d="M 100.0,9.5 L 0.0,9.5" fill="none" stroke="rgb(178,0,0)" stroke-width="0.1"/>
 </g>
 <g id="layerA-PUB_DIM" inkscape:groupmode="layer" inkscape:label="A-PUB_DIM">
  <path d="M 94.0,80.5 L 94.0,97.0" fill="none" stroke="rgb(0,178,0)" stroke-width="0.1"/>
  <path d="M 94.0,94.5 L 100.0,94.5" fill="none" stroke="rgb(0,178,0)" stroke-width="0.1"/>
  <path d="M 88.0,80.5 L 88.0,97.0" fill="none" stroke="rgb(0,178,0)" stroke-width="0.1"/>
  <path d="M 94.0,80.5 L 94.0,97.0" fill="none" stroke="rgb(0,178,0)" stroke-width="0.1"/>
  <path d="M 88.0,94.5 L 87.0,94.5" fill="none" stroke="rgb(0,178,0)" stroke-width="0.1"/>
  <path d="M 94.0,94.5 L 95.0,94.5" fill="none" stroke="rgb(0,178,0)" stroke-width="0.1"/>
  <path d="M 88.0,94.5 L 94.0,94.5" fill="none" stroke="rgb(0,178,0)" stroke-width="0.1"/>
  <path d="M 82.0,80.5 L 82.0,97.0" fill="none" stroke="rgb(0,178,0)" stroke-width="0.1"/>
  <path d="M 88.0,80.5 L 88.0,97.0" fill="none" stroke="rgb(0,178,0)" stroke-width="0.1"/>
  <path d="M 82.0,94.5 L 81.0,94.5" fill="none" stroke="rgb(0,178,0)" stroke-width="0.1"/>
  <path d="M 88.0,94.5 L 89.0,94.5" fill="none" stroke="rgb(0,178,0)" stroke-width="0.1"/>
  <path d="M 82.0,94.5 L 88.0,94.5" fill="none" stroke="rgb(0,178,0)" stroke-width="0.1"/>
  <path d="M 52.0,80.5 L 52.0,97.0" fill="none" stroke="rgb(0,178,0)" stroke-width="0.1"/>
  <path d="M 82.0,80.5 L 82.0,97.0" fill="none" stroke="rgb(0,178,0)" stroke-width="0.1"/>
  <path d="M 52.0,94.5 L 82.0,94.5" fill="none" stroke="rgb(0,178,0)" stroke-width="0.1"/>
  <path d="M 46.0,80.5 L 46.0,97.0" fill="none" stroke="rgb(0,178,0)" stroke-width="0.1"/>
  <path d="M 52.0,80.5 L 52.0,97.0" fill="none" stroke="rgb(0,178,0)" stroke-width="0.1"/>
  <path d="M 46.0,94.5 L 45.0,94.5" fill="none" stroke="rgb(0,178,0)" stroke-width="0.1"/>
  <path d="M 52.0,94.5 L 53.0,94.5" fill="none" stroke="rgb(0,178,0)" stroke-width="0.1"/>
  <path d="M 46.0,94.5 L 52.0,94.5" fill="none" stroke="rgb(0,178,0)" stroke-width="0.1"/>
  <path d="M 40.0,80.5 L 40.0,97.0" fill="none" stroke="rgb(0,178,0)" stroke-width="0.1"/>
  <path d="M 46.0,80.5 L 46.0,97.0" fill="none" stroke="rgb(0,178,0)" stroke-width="0.1"/>
  <path d="M 40.0,94.5 L 39.0,94.5" fill="none" stroke="rgb(0,178,0)" stroke-width="0.1"/>
  <path d="M 46.0,94.5 L 47.0,94.5" fill="none" stroke="rgb(0,178,0)" stroke-width="0.1"/>
  <path d="M 40.0,94.5 L 46.0,94.5" fill="none" stroke="rgb(0,178,0)" stroke-width="0.1"/>
  <path d="M 10.0,80.5 L 10.0,97.0" fill="none" stroke="rgb(0,178,0)" stroke-width="0.1"/>
  <path d="M 40.0,80.5 L 40.0,97.0" fill="none" stroke="rgb(0,178,0)" stroke-width="0.1"/>
  <path d="M 10.0,94.5 L 40.0,94.5" fill="none" stroke="rgb(0,178,0)" stroke-width="0.1"/>
  <path d="M 4.0,80.5 L 4.0,97.0" fill="none" stroke="rgb(0,178,0)" stroke-width="0.1"/>
  <path d="M 10.0,80.5 L 10.0,97.0" fill="none" stroke="rgb(0,178,0)" stroke-width="0.1"/>
  <path d="M 4.0,94.5 L 3.0,94.5" fill="none" stroke="rgb(0,178,0)" stroke-width="0.1"/>
  <path d="M 10.0,94.5 L 11.0,94.5" fill="none" stroke="rgb(0,178,0)" stroke-width="0.1"/>
  <path d="M 4.0,94.5 L 10.0,94.5" fill="none" stroke="rgb(0,178,0)" stroke-width="0.1"/>
  <path d="M 4.0,80.5 L 4.0,97.0" fill="none" stroke="rgb(0,178,0)" stroke-width="0.1"/>
  <path d="M 4.0,94.5 L 5.0,94.5" fill="none" stroke="rgb(0,178,0)" stroke-width="0.1"/>
  <path d="M 0.0,94.5 L 4.0,94.5" fill="none" stroke="rgb(0,178,0)" stroke-width="0.1"/>
  <text fill="rgb(0,178,0)" font-family="Noto Sans CJK SC" font-size="2" transform="rotate(-0.0,99.929,93.0)" x="99.929" y="93.0">
   2100
  </text>
  <text fill="rgb(0,178,0)" font-family="Noto Sans CJK SC" font-size="2" transform="rotate(-0.0,87.51400000000001,93.0)" x="87.51400000000001" y="93.0">
   600
  </text>
  <text fill="rgb(0,178,0)" font-family="Noto Sans CJK SC" font-size="2" transform="rotate(-0.0,81.51400000000001,93.0)" x="81.51400000000001" y="93.0">
   600
  </text>
  <text fill="rgb(0,178,0)" font-family="Noto Sans CJK SC" font-size="2" transform="rotate(-0.0,62.429,93.0)" x="62.429" y="93.0">
   3000
  </text>
  <text fill="rgb(0,178,0)" font-family="Noto Sans CJK SC" font-size="2" transform="rotate(-0.0,45.51400000000001,93.0)" x="45.51400000000001" y="93.0">
   600
  </text>
  <text fill="rgb(0,178,0)" font-family="Noto Sans CJK SC" font-size="2" transform="rotate(-0.0,39.51400000000001,93.0)" x="39.51400000000001" y="93.0">
   600
  </text>
  <text fill="rgb(0,178,0)" font-family="Noto Sans CJK SC" font-size="2" transform="rotate(-0.0,20.429000000000002,93.0)" x="20.429000000000002" y="93.0">
   3000
  </text>
  <text fill="rgb(0,178,0)" font-family="Noto Sans CJK SC" font-size="2" transform="rotate(-0.0,3.51400000000001,93.0)" x="3.51400000000001" y="93.0">
   600
  </text>
 </g>
 <g id="layerA-SPACE" inkscape:groupmode="layer" inkscape:label="A-SPACE">
  <text fill="rgb(0,0,0)" font-family="Noto Sans CJK SC" font-size="2" transform="rotate(-0.0,64.043,22.649999999999977)" x="64.043" y="22.649999999999977">
   阳台
  </text>
  <text fill="rgb(0,0,0)" font-family="Noto Sans CJK SC" font-size="2" transform="rotate(-0.0,22.043000000000006,22.649999999999977)" x="22.043000000000006" y="22.649999999999977">
   阳台
  </text>
 </g>
 <g id="layerDIM_SYMB" inkscape:groupmode="layer" inkscape:label="DIM_SYMB">
  <path d="M 98.19300000000001,13.314999999999998 L 98.19300000000001,19.136000000000024" fill="none" stroke="rgb(0,178,0)" stroke-width="0.1"/>
  <path d="M 98.19300000000001,19.136000000000024 L 98.19300000000001,22.136000000000024" fill="none" stroke="rgb(0,178,0)" stroke-width="0.1"/>
 </g>
 <g id="layerHATCH" inkscape:groupmode="layer" inkscape:label="HATCH">
  <path d="M 94.0,7.5 L 94.0,5.5" fill="none" instance-id="-1" semantic-id="1" stroke="rgb(89,89,89)" stroke-width="0.1"/>
  <path d="M 94.0,5.5 L 87.0,5.5" fill="none" instance-id="-1" semantic-id="1" stroke="rgb(89,89,89)" stroke-width="0.1"/>
  <path d="M 87.0,5.5 L 87.0,12.5" fill="none" instance-id="-1" semantic-id="1" stroke="rgb(89,89,89)" stroke-width="0.1"/>
  <path d="M 87.0,12.5 L 89.0,12.5" fill="none" instance-id="-1" semantic-id="1" stroke="rgb(89,89,89)" stroke-width="0.1"/>
  <path d="M 89.0,12.5 L 89.0,7.5" fill="none" instance-id="-1" semantic-id="1" stroke="rgb(89,89,89)" stroke-width="0.1"/>
  <path d="M 89.0,7.5 L 94.0,7.5" fill="none" instance-id="-1" semantic-id="1" stroke="rgb(89,89,89)" stroke-width="0.1"/>
  <path d="M 45.0,2.5 L 45.0,12.5" fill="none" instance-id="-1" semantic-id="1" stroke="rgb(89,89,89)" stroke-width="0.1"/>
  <path d="M 45.0,12.5 L 47.0,12.5" fill="none" instance-id="-1" semantic-id="1" stroke="rgb(89,89,89)" stroke-width="0.1"/>
  <path d="M 47.0,12.5 L 47.0,2.5" fill="none" instance-id="-1" semantic-id="1" stroke="rgb(89,89,89)" stroke-width="0.1"/>
  <path d="M 47.0,2.5 L 45.0,2.5" fill="none" instance-id="-1" semantic-id="1" stroke="rgb(89,89,89)" stroke-width="0.1"/>
  <path d="M 0.0,7.5 L 3.0,7.5" fill="none" instance-id="-1" semantic-id="1" stroke="rgb(89,89,89)" stroke-width="0.1"/>
  <path d="M 3.0,7.5 L 3.0,12.5" fill="none" instance-id="-1" semantic-id="1" stroke="rgb(89,89,89)" stroke-width="0.1"/>
  <path d="M 3.0,12.5 L 5.0,12.5" fill="none" instance-id="-1" semantic-id="1" stroke="rgb(89,89,89)" stroke-width="0.1"/>
  <path d="M 5.0,12.5 L 5.0,5.5" fill="none" instance-id="-1" semantic-id="1" stroke="rgb(89,89,89)" stroke-width="0.1"/>
  <path d="M 5.0,5.5 L 0.0,5.5" fill="none" instance-id="-1" semantic-id="1" stroke="rgb(89,89,89)" stroke-width="0.1"/>
 </g>
 <g id="layerPUB_TEXT" inkscape:groupmode="layer" inkscape:label="PUB_TEXT">
  <text fill="rgb(0,0,0)" font-family="Noto Sans CJK SC" font-size="2" transform="rotate(-0.0,96.6,12.314000000000021)" x="96.6" y="12.314000000000021">
   15%%d
  </text>
 </g>
 <g id="layerS-shearwall" inkscape:groupmode="layer" inkscape:label="S-shearwall">
  <path d="M 94.0,7.5 L 89.0,7.5" fill="none" instance-id="-1" semantic-id="1" stroke="rgb(0,178,178)" stroke-width="0.1"/>
  <path d="M 89.0,7.5 L 89.0,12.5" fill="none" instance-id="-1" semantic-id="1" stroke="rgb(0,178,178)" stroke-width="0.1"/>
  <path d="M 89.0,12.5 L 87.0,12.5" fill="none" instance-id="-1" semantic-id="1" stroke="rgb(0,178,178)" stroke-width="0.1"/>
  <path d="M 87.0,12.5 L 87.0,5.5" fill="none" instance-id="-1" semantic-id="1" stroke="rgb(0,178,178)" stroke-width="0.1"/>
  <path d="M 87.0,5.5 L 94.0,5.5" fill="none" instance-id="-1" semantic-id="1" stroke="rgb(0,178,178)" stroke-width="0.1"/>
  <path d="M 94.0,5.5 L 94.0,7.5" fill="none" instance-id="-1" semantic-id="1" stroke="rgb(0,178,178)" stroke-width="0.1"/>
  <path d="M 47.0,2.5 L 45.0,2.5" fill="none" instance-id="-1" semantic-id="1" stroke="rgb(0,178,178)" stroke-width="0.1"/>
  <path d="M 45.0,2.5 L 45.0,12.5" fill="none" instance-id="-1" semantic-id="1" stroke="rgb(0,178,178)" stroke-width="0.1"/>
  <path d="M 45.0,12.5 L 47.0,12.5" fill="none" instance-id="-1" semantic-id="1" stroke="rgb(0,178,178)" stroke-width="0.1"/>
  <path d="M 47.0,12.5 L 47.0,2.5" fill="none" instance-id="-1" semantic-id="1" stroke="rgb(0,178,178)" stroke-width="0.1"/>
  <path d="M 0.0,7.5 L 3.0,7.5" fill="none" instance-id="-1" semantic-id="1" stroke="rgb(0,178,178)" stroke-width="0.1"/>
  <path d="M 3.0,7.5 L 3.0,12.5" fill="none" instance-id="-1" semantic-id="1" stroke="rgb(0,178,178)" stroke-width="0.1"/>
  <path d="M 3.0,12.5 L 5.0,12.5" fill="none" instance-id="-1" semantic-id="1" stroke="rgb(0,178,178)" stroke-width="0.1"/>
  <path d="M 5.0,12.5 L 5.0,5.5" fill="none" instance-id="-1" semantic-id="1" stroke="rgb(0,178,178)" stroke-width="0.1"/>
  <path d="M 5.0,5.5 L 0.0,5.5" fill="none" instance-id="-1" semantic-id="1" stroke="rgb(0,178,178)" stroke-width="0.1"/>
 </g>
 <g id="layerS38-13$0$0-水" inkscape:groupmode="layer" inkscape:label="S38-13$0$0-水">
  <path d="M 48.44900000000001,15.213999999999999 L 48.21199999999999,15.451999999999998" fill="none" stroke="rgb(178,0,178)" stroke-width="0.1"/>
  <path d="M 48.44300000000001,14.771999999999991 L 47.77099999999999,15.444000000000017" fill="none" stroke="rgb(178,0,178)" stroke-width="0.1"/>
  <path d="M 48.21600000000001,14.550000000000011 L 47.55099999999999,15.214999999999975" fill="none" stroke="rgb(178,0,178)" stroke-width="0.1"/>
  <path d="M 47.744,14.572999999999979 L 47.56999999999999,14.747000000000014" fill="none" stroke="rgb(178,0,178)" stroke-width="0.1"/>
  <path d="M 47.5,15.0 A 0.5,0.5 0.0 1,0 48.5,15.0" fill="none" stroke="rgb(178,0,178)" stroke-width="0.1"/>
  <path d="M 48.5,15.0 A 0.5,0.5 0.0 1,0 47.5,15.0" fill="none" stroke="rgb(178,0,178)" stroke-width="0.1"/>
  <path d="M 43.501000000000005,15.014999999999986 L 44.01400000000001,14.50200000000001" fill="none" stroke="rgb(178,0,178)" stroke-width="0.1"/>
  <path d="M 43.629999999999995,15.336000000000013 L 44.334,14.630999999999972" fill="none" stroke="rgb(178,0,178)" stroke-width="0.1"/>
  <path d="M 43.922,15.492000000000019 L 44.492999999999995,14.920999999999992" fill="none" stroke="rgb(178,0,178)" stroke-width="0.1"/>
  <path d="M 44.5,15.0 A 0.5,0.5 0.0 1,0 43.5,15.0" fill="none" stroke="rgb(178,0,178)" stroke-width="0.1"/>
  <path d="M 43.5,15.0 A 0.5,0.5 0.0 1,0 44.5,15.0" fill="none" stroke="rgb(178,0,178)" stroke-width="0.1"/>
  <circle cx="48.0" cy="15.0" fill="none" r="0.5" stroke="rgb(178,0,178)" stroke-width="0.1"/>
  <circle cx="44.0" cy="15.0" fill="none" r="0.5" stroke="rgb(178,0,178)" stroke-width="0.1"/>
 </g>
 <g id="layerS38-13$0$A-FURNITURE" inkscape:groupmode="layer" inkscape:label="S38-13$0$A-FURNITURE">
  <path d="M 51.57900000000001,1.5389999999999873 L 54.712999999999994,1.5389999999999873" fill="none" instance-id="10" semantic-id="19" stroke="rgb(92,92,92)" stroke-width="0.1"/>
  <path d="M 47.94399999999999,4.9010000000000105 L 55.144000000000005,4.9010000000000105" fill="none" instance-id="10" semantic-id="19" stroke="rgb(92,92,92)" stroke-width="0.1"/>
  <path d="M 48.52000000000001,4.276999999999987 L 54.56800000000001,4.276999999999987" fill="none" instance-id="10" semantic-id="19" stroke="rgb(92,92,92)" stroke-width="0.1"/>
  <path d="M 55.144000000000005,4.9010000000000105 L 55.144000000000005,0.0" fill="none" instance-id="10" semantic-id="19" stroke="rgb(92,92,92)" stroke-width="0.1"/>
  <path d="M 54.56800000000001,4.276999999999987 L 54.56800000000001,0.0" fill="none" instance-id="10" semantic-id="19" stroke="rgb(92,92,92)" stroke-width="0.1"/>
  <path d="M 51.54400000000001,1.5910000000000082 L 51.54400000000001,4.725999999999999" fill="none" instance-id="10" semantic-id="19" stroke="rgb(92,92,92)" stroke-width="0.1"/>
  <path d="M 51.57900000000001,1.5389999999999873 L 48.44499999999999,1.5389999999999873" fill="none" instance-id="10" semantic-id="19" stroke="rgb(92,92,92)" stroke-width="0.1"/>
  <path d="M 51.54400000000001,1.5910000000000082 L 51.54400000000001,0.0" fill="none" instance-id="10" semantic-id="19" stroke="rgb(92,92,92)" stroke-width="0.1"/>
  <path d="M 47.94399999999999,0.0 L 47.94399999999999,4.9010000000000105" fill="none" instance-id="10" semantic-id="19" stroke="rgb(92,92,92)" stroke-width="0.1"/>
  <path d="M 48.52000000000001,0.0 L 48.52000000000001,4.276999999999987" fill="none" instance-id="10" semantic-id="19" stroke="rgb(92,92,92)" stroke-width="0.1"/>
  <path d="M 65.52466534051018,0.0 L 65.523,1.186000000000007" fill="none" stroke="rgb(92,92,92)" stroke-width="0.1"/>
  <path d="M 66.487,2.0459999999999923 L 66.60400000000001,2.6299999999999955" fill="none" stroke="rgb(92,92,92)" stroke-width="0.1"/>
  <path d="M 58.757000000000005,2.0349999999999966 L 58.63900000000001,2.6200000000000045" fill="none" stroke="rgb(92,92,92)" stroke-width="0.1"/>
  <path d="M 59.72399999999999,1.1779999999999973 L 59.725378422653876,0.0" fill="none" stroke="rgb(92,92,92)" stroke-width="0.1"/>
  <path d="M 59.72399999999999,1.1779999999999973 L 59.018,1.6469999999999914" fill="none" stroke="rgb(92,92,92)" stroke-width="0.1"/>
  <path d="M 65.523,1.186000000000007 L 66.22800000000001,1.6570000000000107" fill="none" stroke="rgb(92,92,92)" stroke-width="0.1"/>
  <path d="M 88.35900000000001,2.4809999999999945 L 93.75899999999999,2.4809999999999945" fill="none" instance-id="15" semantic-id="19" stroke="rgb(92,92,92)" stroke-width="0.1"/>
  <path d="M 91.059,5.181000000000012 L 91.059,0.0" fill="none" instance-id="15" semantic-id="19" stroke="rgb(92,92,92)" stroke-width="0.1"/>
  <path d="M 40.42099999999999,1.5389999999999873 L 37.287000000000006,1.5389999999999873" fill="none" instance-id="7" semantic-id="19" stroke="rgb(92,92,92)" stroke-width="0.1"/>
  <path d="M 44.05600000000001,4.9010000000000105 L 36.855999999999995,4.9010000000000105" fill="none" instance-id="7" semantic-id="19" stroke="rgb(92,92,92)" stroke-width="0.1"/>
  <path d="M 43.47999999999999,4.276999999999987 L 37.43199999999999,4.276999999999987" fill="none" instance-id="7" semantic-id="19" stroke="rgb(92,92,92)" stroke-width="0.1"/>
  <path d="M 36.855999999999995,4.9010000000000105 L 36.855999999999995,0.0" fill="none" instance-id="7" semantic-id="19" stroke="rgb(92,92,92)" stroke-width="0.1"/>
  <path d="M 37.43199999999999,4.276999999999987 L 37.43199999999999,0.0" fill="none" instance-id="7" semantic-id="19" stroke="rgb(92,92,92)" stroke-width="0.1"/>
  <path d="M 40.45599999999999,1.5910000000000082 L 40.45599999999999,4.725999999999999" fill="none" instance-id="7" semantic-id="19" stroke="rgb(92,92,92)" stroke-width="0.1"/>
  <path d="M 40.42099999999999,1.5389999999999873 L 43.55500000000001,1.5389999999999873" fill="none" instance-id="7" semantic-id="19" stroke="rgb(92,92,92)" stroke-width="0.1"/>
  <path d="M 40.45599999999999,1.5910000000000082 L 40.45599999999999,0.0" fill="none" instance-id="7" semantic-id="19" stroke="rgb(92,92,92)" stroke-width="0.1"/>
  <path d="M 44.05600000000001,0.0 L 44.05600000000001,4.9010000000000105" fill="none" instance-id="7" semantic-id="19" stroke="rgb(92,92,92)" stroke-width="0.1"/>
  <path d="M 43.47999999999999,0.0 L 43.47999999999999,4.276999999999987" fill="none" instance-id="7" semantic-id="19" stroke="rgb(92,92,92)" stroke-width="0.1"/>
  <path d="M 26.475334659489818,0.0 L 26.477000000000004,1.186000000000007" fill="none" stroke="rgb(92,92,92)" stroke-width="0.1"/>
  <path d="M 25.513000000000005,2.0459999999999923 L 25.395999999999987,2.6299999999999955" fill="none" stroke="rgb(92,92,92)" stroke-width="0.1"/>
  <path d="M 33.242999999999995,2.0349999999999966 L 33.36099999999999,2.6200000000000045" fill="none" stroke="rgb(92,92,92)" stroke-width="0.1"/>
  <path d="M 32.27600000000001,1.1779999999999973 L 32.274621577346124,0.0" fill="none" stroke="rgb(92,92,92)" stroke-width="0.1"/>
  <path d="M 32.27600000000001,1.1779999999999973 L 32.982,1.6469999999999914" fill="none" stroke="rgb(92,92,92)" stroke-width="0.1"/>
  <path d="M 26.477000000000004,1.186000000000007 L 25.77199999999999,1.6570000000000107" fill="none" stroke="rgb(92,92,92)" stroke-width="0.1"/>
  <path d="M 3.640999999999991,2.4809999999999945 L 0.0,2.4809999999999945" fill="none" instance-id="2" semantic-id="19" stroke="rgb(92,92,92)" stroke-width="0.1"/>
  <path d="M 0.9410000000000025,5.181000000000012 L 0.9410000000000025,0.0" fill="none" instance-id="2" semantic-id="19" stroke="rgb(92,92,92)" stroke-width="0.1"/>
  <path d="M 66.487,2.0459999999999923 A 0.610489,0.610489 0.0 0,0 66.22800000000001,1.6570000000000107" fill="none" stroke="rgb(92,92,92)" stroke-width="0.1"/>
  <path d="M 59.018,1.6469999999999914 A 0.610489,0.610489 0.0 0,0 58.757000000000005,2.0349999999999966" fill="none" stroke="rgb(92,92,92)" stroke-width="0.1"/>
  <path d="M 59.724999999999994,0.26200000000000045 A 13.9268,13.9268 0.0 0,0 65.524,0.27000000000001023" fill="none" stroke="rgb(92,92,92)" stroke-width="0.1"/>
  <path d="M 59.72399999999999,1.1779999999999973 A 13.9268,13.9268 0.0 0,0 65.523,1.186000000000007" fill="none" stroke="rgb(92,92,92)" stroke-width="0.1"/>
  <path d="M 25.77199999999999,1.6570000000000107 A 0.610489,0.610489 0.0 0,0 25.513000000000005,2.0459999999999923" fill="none" stroke="rgb(92,92,92)" stroke-width="0.1"/>
  <path d="M 33.242999999999995,2.0349999999999966 A 0.610489,0.610489 0.0 0,0 32.982,1.6469999999999914" fill="none" stroke="rgb(92,92,92)" stroke-width="0.1"/>
  <path d="M 26.476,0.27000000000001023 A 13.9268,13.9268 0.0 0,0 32.275000000000006,0.26200000000000045" fill="none" stroke="rgb(92,92,92)" stroke-width="0.1"/>
  <path d="M 26.477000000000004,1.186000000000007 A 13.9268,13.9268 0.0 0,0 32.27600000000001,1.1779999999999973" fill="none" stroke="rgb(92,92,92)" stroke-width="0.1"/>
  <path d="M 55.144000000000005,3.3429999999999893 L 58.752999999999986,3.3429999999999893" fill="none" stroke="rgb(92,92,92)" stroke-width="0.1"/>
  <path d="M 55.144000000000005,2.3429999999999893 L 58.59100000000001,2.3429999999999893" fill="none" stroke="rgb(92,92,92)" stroke-width="0.1"/>
  <path d="M 36.855999999999995,3.3429999999999893 L 33.247000000000014,3.3429999999999893" fill="none" stroke="rgb(92,92,92)" stroke-width="0.1"/>
  <path d="M 36.855999999999995,2.3429999999999893 L 33.40899999999999,2.3429999999999893" fill="none" stroke="rgb(92,92,92)" stroke-width="0.1"/>
  <path d="M 58.50422263681591,0.0 L 58.50200000000001,1.7870000000000061" fill="none" stroke="rgb(92,92,92)" stroke-width="0.1"/>
  <path d="M 58.50200000000001,1.7870000000000061 L 58.747000000000014,3.312999999999988" fill="none" stroke="rgb(92,92,92)" stroke-width="0.1"/>
  <path d="M 58.747000000000014,3.312999999999988 A 0.610465,0.610465 0.0 0,0 59.20500000000001,3.8149999999999977" fill="none" stroke="rgb(92,92,92)" stroke-width="0.1"/>
  <path d="M 59.20500000000001,3.8149999999999977 L 59.72,3.9250000000000114" fill="none" stroke="rgb(92,92,92)" stroke-width="0.1"/>
  <path d="M 59.72,3.9250000000000114 L 65.52000000000001,3.9329999999999927" fill="none" stroke="rgb(92,92,92)" stroke-width="0.1"/>
  <path d="M 65.52000000000001,3.9329999999999927 L 66.03399999999999,3.805000000000007" fill="none" stroke="rgb(92,92,92)" stroke-width="0.1"/>
  <path d="M 66.03399999999999,3.805000000000007 A 0.610465,0.610465 0.0 0,0 66.489,3.313999999999993" fill="none" stroke="rgb(92,92,92)" stroke-width="0.1"/>
  <path d="M 66.489,3.313999999999993 L 66.743,1.7980000000000018" fill="none" stroke="rgb(92,92,92)" stroke-width="0.1"/>
  <path d="M 66.743,1.7980000000000018 L 66.74555579246623,0.0" fill="none" stroke="rgb(92,92,92)" stroke-width="0.1"/>
  <path d="M 66.487,2.0449999999999875 L 66.487,2.0459999999999923" fill="none" stroke="rgb(92,92,92)" stroke-width="0.1"/>
  <path d="M 66.487,2.0459999999999923 A 0.610492,0.610492 0.0 0,0 66.487,2.0449999999999875" fill="none" stroke="rgb(92,92,92)" stroke-width="0.1"/>
  <path d="M 66.487,2.0459999999999923 A 0.610492,0.610492 0.0 0,0 66.487,2.0449999999999875" fill="none" stroke="rgb(92,92,92)" stroke-width="0.1"/>
  <path d="M 66.487,2.0449999999999875 L 66.487,2.0459999999999923" fill="none" stroke="rgb(92,92,92)" stroke-width="0.1"/>
  <path d="M 58.757000000000005,2.0360000000000014 L 58.757000000000005,2.0349999999999966" fill="none" stroke="rgb(92,92,92)" stroke-width="0.1"/>
  <path d="M 58.757000000000005,2.0349999999999966 A 0.610489,0.610489 0.0 0,0 58.757000000000005,2.0360000000000014" fill="none" stroke="rgb(92,92,92)" stroke-width="0.1"/>
  <path d="M 58.757000000000005,2.0349999999999966 L 58.757000000000005,2.0360000000000014" fill="none" stroke="rgb(92,92,92)" stroke-width="0.1"/>
  <path d="M 58.757000000000005,2.0349999999999966 A 0.61049,0.61049 0.0 0,0 58.757000000000005,2.0360000000000014" fill="none" stroke="rgb(92,92,92)" stroke-width="0.1"/>
  <path d="M 33.49577736318409,0.0 L 33.49799999999999,1.7870000000000061" fill="none" stroke="rgb(92,92,92)" stroke-width="0.1"/>
  <path d="M 33.49799999999999,1.7870000000000061 L 33.252999999999986,3.312999999999988" fill="none" stroke="rgb(92,92,92)" stroke-width="0.1"/>
  <path d="M 32.79499999999999,3.8149999999999977 A 0.610465,0.610465 0.0 0,0 33.252999999999986,3.312999999999988" fill="none" stroke="rgb(92,92,92)" stroke-width="0.1"/>
  <path d="M 32.79499999999999,3.8149999999999977 L 32.28,3.9250000000000114" fill="none" stroke="rgb(92,92,92)" stroke-width="0.1"/>
  <path d="M 32.28,3.9250000000000114 L 26.47999999999999,3.9329999999999927" fill="none" stroke="rgb(92,92,92)" stroke-width="0.1"/>
  <path d="M 26.47999999999999,3.9329999999999927 L 25.966000000000008,3.805000000000007" fill="none" stroke="rgb(92,92,92)" stroke-width="0.1"/>
  <path d="M 25.510999999999996,3.313999999999993 A 0.610465,0.610465 0.0 0,0 25.966000000000008,3.805000000000007" fill="none" stroke="rgb(92,92,92)" stroke-width="0.1"/>
  <path d="M 25.510999999999996,3.313999999999993 L 25.257000000000005,1.7980000000000018" fill="none" stroke="rgb(92,92,92)" stroke-width="0.1"/>
  <path d="M 25.257000000000005,1.7980000000000018 L 25.254444207533766,0.0" fill="none" stroke="rgb(92,92,92)" stroke-width="0.1"/>
  <path d="M 25.513000000000005,2.0449999999999875 L 25.513000000000005,2.0459999999999923" fill="none" stroke="rgb(92,92,92)" stroke-width="0.1"/>
  <path d="M 25.513000000000005,2.0449999999999875 A 0.610489,0.610489 0.0 0,0 25.513000000000005,2.0459999999999923" fill="none" stroke="rgb(92,92,92)" stroke-width="0.1"/>
  <path d="M 25.513000000000005,2.0449999999999875 A 0.610489,0.610489 0.0 0,0 25.513000000000005,2.0459999999999923" fill="none" stroke="rgb(92,92,92)" stroke-width="0.1"/>
  <path d="M 25.513000000000005,2.0449999999999875 L 25.513000000000005,2.0459999999999923" fill="none" stroke="rgb(92,92,92)" stroke-width="0.1"/>
  <path d="M 33.242999999999995,2.0360000000000014 L 33.242999999999995,2.0349999999999966" fill="none" stroke="rgb(92,92,92)" stroke-width="0.1"/>
  <path d="M 33.242999999999995,2.0360000000000014 A 0.610489,0.610489 0.0 0,0 33.242999999999995,2.0349999999999966" fill="none" stroke="rgb(92,92,92)" stroke-width="0.1"/>
  <path d="M 33.242999999999995,2.0349999999999966 L 33.242999999999995,2.0360000000000014" fill="none" stroke="rgb(92,92,92)" stroke-width="0.1"/>
  <path d="M 33.242999999999995,2.0360000000000014 A 0.610488,0.610488 0.0 0,0 33.242999999999995,2.0349999999999966" fill="none" stroke="rgb(92,92,92)" stroke-width="0.1"/>
  <path d="M 66.494,3.283999999999992 L 67.30699999999999,2.469999999999999" fill="none" stroke="rgb(92,92,92)" stroke-width="0.1"/>
  <path d="M 68.679,3.3429999999999893 L 69.553,2.469999999999999" fill="none" stroke="rgb(92,92,92)" stroke-width="0.1"/>
  <path d="M 70.73599999999999,1.2870000000000061 L 71.73599999999999,0.28600000000000136" fill="none" stroke="rgb(92,92,92)" stroke-width="0.1"/>
  <path d="M 70.924,3.3429999999999893 L 71.73599999999999,2.5320000000000107" fill="none" stroke="rgb(92,92,92)" stroke-width="0.1"/>
  <path d="M 68.00899999999999,3.1709999999999923 L 68.83699999999999,2.3429999999999893" fill="none" stroke="rgb(92,92,92)" stroke-width="0.1"/>
  <path d="M 70.73599999999999,0.4449999999999932 L 71.18100000000001,0.0" fill="none" stroke="rgb(92,92,92)" stroke-width="0.1"/>
  <path d="M 70.25399999999999,3.1709999999999923 L 71.37700000000001,2.0490000000000066" fill="none" stroke="rgb(92,92,92)" stroke-width="0.1"/>
  <path d="M 67.588,2.7510000000000048 L 67.995,2.3429999999999893" fill="none" stroke="rgb(92,92,92)" stroke-width="0.1"/>
  <path d="M 69.833,2.7510000000000048 L 70.24100000000001,2.3429999999999893" fill="none" stroke="rgb(92,92,92)" stroke-width="0.1"/>
  <path d="M 70.73500000000001,1.8480000000000132 L 70.95599999999999,1.627999999999986" fill="none" stroke="rgb(92,92,92)" stroke-width="0.1"/>
  <path d="M 67.588,2.469999999999999 L 67.46100000000001,2.3429999999999893" fill="none" stroke="rgb(92,92,92)" stroke-width="0.1"/>
  <path d="M 69.833,2.469999999999999 L 69.70599999999999,2.3429999999999893" fill="none" stroke="rgb(92,92,92)" stroke-width="0.1"/>
  <path d="M 71.73599999999999,2.1270000000000095 L 70.95599999999999,1.3470000000000084" fill="none" stroke="rgb(92,92,92)" stroke-width="0.1"/>
  <path d="M 67.05799999999999,3.3429999999999893 L 66.887,3.1709999999999923" fill="none" stroke="rgb(92,92,92)" stroke-width="0.1"/>
  <path d="M 69.303,3.3429999999999893 L 69.132,3.1709999999999923" fill="none" stroke="rgb(92,92,92)" stroke-width="0.1"/>
  <path d="M 71.548,3.3429999999999893 L 71.37700000000001,3.1709999999999923" fill="none" stroke="rgb(92,92,92)" stroke-width="0.1"/>
  <path d="M 71.73599999999999,1.2860000000000014 L 71.37700000000001,0.9259999999999877" fill="none" stroke="rgb(92,92,92)" stroke-width="0.1"/>
  <path d="M 67.9,3.3429999999999893 L 67.30699999999999,2.7510000000000048" fill="none" stroke="rgb(92,92,92)" stroke-width="0.1"/>
  <path d="M 70.14500000000001,3.3429999999999893 L 69.553,2.7510000000000048" fill="none" stroke="rgb(92,92,92)" stroke-width="0.1"/>
  <path d="M 70.73570431743886,0.0 L 70.73500000000001,2.3429999999999893" fill="none" stroke="rgb(92,92,92)" stroke-width="0.1"/>
  <path d="M 70.73500000000001,2.3429999999999893 L 66.65199999999999,2.3429999999999893" fill="none" stroke="rgb(92,92,92)" stroke-width="0.1"/>
  <path d="M 66.65199999999999,2.3429999999999893 L 66.489,3.313999999999993" fill="none" stroke="rgb(92,92,92)" stroke-width="0.1"/>
  <path d="M 66.483,3.3429999999999893 A 0.610465,0.610465 0.0 0,0 66.489,3.313999999999993" fill="none" stroke="rgb(92,92,92)" stroke-width="0.1"/>
  <path d="M 66.483,3.3429999999999893 L 71.73500000000001,3.3429999999999893" fill="none" stroke="rgb(92,92,92)" stroke-width="0.1"/>
  <path d="M 71.73500000000001,3.3429999999999893 L 71.73593468004054,0.0" fill="none" stroke="rgb(92,92,92)" stroke-width="0.1"/>
  <path d="M 55.71100000000001,3.3429999999999893 L 56.316,2.7390000000000043" fill="none" stroke="rgb(92,92,92)" stroke-width="0.1"/>
  <path d="M 57.956999999999994,3.3429999999999893 L 58.56100000000001,2.7390000000000043" fill="none" stroke="rgb(92,92,92)" stroke-width="0.1"/>
  <path d="M 55.144000000000005,3.0689999999999884 L 55.870000000000005,2.3429999999999893" fill="none" stroke="rgb(92,92,92)" stroke-width="0.1"/>
  <path d="M 57.11500000000001,3.3429999999999893 L 58.11500000000001,2.3429999999999893" fill="none" stroke="rgb(92,92,92)" stroke-width="0.1"/>
  <path d="M 56.59700000000001,3.0190000000000055 L 57.272999999999996,2.3429999999999893" fill="none" stroke="rgb(92,92,92)" stroke-width="0.1"/>
  <path d="M 56.59700000000001,2.7390000000000043 L 56.20099999999999,2.3429999999999893" fill="none" stroke="rgb(92,92,92)" stroke-width="0.1"/>
  <path d="M 58.619,2.515999999999991 L 58.446,2.3429999999999893" fill="none" stroke="rgb(92,92,92)" stroke-width="0.1"/>
  <path d="M 56.639999999999986,3.3429999999999893 L 56.316,3.0190000000000055" fill="none" stroke="rgb(92,92,92)" stroke-width="0.1"/>
  <path d="M 58.727000000000004,3.1850000000000023 L 58.56100000000001,3.0190000000000055" fill="none" stroke="rgb(92,92,92)" stroke-width="0.1"/>
  <path d="M 55.144000000000005,2.3429999999999893 L 55.144000000000005,3.3429999999999893" fill="none" instance-id="10" semantic-id="19" stroke="rgb(92,92,92)" stroke-width="0.1"/>
  <path d="M 55.144000000000005,3.3429999999999893 L 58.75200000000001,3.3429999999999893" fill="none" stroke="rgb(92,92,92)" stroke-width="0.1"/>
  <path d="M 58.75200000000001,3.3429999999999893 L 58.748999999999995,3.3249999999999886" fill="none" stroke="rgb(92,92,92)" stroke-width="0.1"/>
  <path d="M 58.747000000000014,3.312999999999988 A 0.610465,0.610465 0.0 0,0 58.748999999999995,3.3249999999999886" fill="none" stroke="rgb(92,92,92)" stroke-width="0.1"/>
  <path d="M 58.747000000000014,3.312999999999988 L 58.59100000000001,2.3429999999999893" fill="none" stroke="rgb(92,92,92)" stroke-width="0.1"/>
  <path d="M 58.59100000000001,2.3429999999999893 L 55.144000000000005,2.3429999999999893" fill="none" stroke="rgb(92,92,92)" stroke-width="0.1"/>
  <path d="M 20.98400000000001,1.4710000000000036 L 21.26400000000001,1.1899999999999977" fill="none" stroke="rgb(92,92,92)" stroke-width="0.1"/>
  <path d="M 21.355999999999995,3.3429999999999893 L 22.105999999999995,2.5929999999999893" fill="none" stroke="rgb(92,92,92)" stroke-width="0.1"/>
  <path d="M 23.601,3.3429999999999893 L 24.351,2.5929999999999893" fill="none" stroke="rgb(92,92,92)" stroke-width="0.1"/>
  <path d="M 20.562999999999988,1.0500000000000114 L 21.26400000000001,0.3480000000000132" fill="none" stroke="rgb(92,92,92)" stroke-width="0.1"/>
  <path d="M 20.562999999999988,3.2949999999999875 L 21.51400000000001,2.3429999999999893" fill="none" stroke="rgb(92,92,92)" stroke-width="0.1"/>
  <path d="M 22.807999999999993,3.2949999999999875 L 23.758999999999986,2.3429999999999893" fill="none" stroke="rgb(92,92,92)" stroke-width="0.1"/>
  <path d="M 25.052999999999997,3.2949999999999875 L 25.443000000000012,2.905000000000001" fill="none" stroke="rgb(92,92,92)" stroke-width="0.1"/>
  <path d="M 20.26400000000001,0.5060000000000002 L 20.770506506506507,0.0" fill="none" stroke="rgb(92,92,92)" stroke-width="0.1"/>
  <path d="M 20.264999999999986,2.7510000000000048 L 21.26400000000001,1.7510000000000048" fill="none" stroke="rgb(92,92,92)" stroke-width="0.1"/>
  <path d="M 22.387,2.8739999999999952 L 22.917,2.3429999999999893" fill="none" stroke="rgb(92,92,92)" stroke-width="0.1"/>
  <path d="M 24.632000000000005,2.8739999999999952 L 25.162000000000006,2.3429999999999893" fill="none" stroke="rgb(92,92,92)" stroke-width="0.1"/>
  <path d="M 22.387,2.5929999999999893 L 22.137,2.3429999999999893" fill="none" stroke="rgb(92,92,92)" stroke-width="0.1"/>
  <path d="M 24.632000000000005,2.5929999999999893 L 24.382000000000005,2.3429999999999893" fill="none" stroke="rgb(92,92,92)" stroke-width="0.1"/>
  <path d="M 21.73400000000001,3.3429999999999893 L 21.685000000000002,3.2949999999999875" fill="none" stroke="rgb(92,92,92)" stroke-width="0.1"/>
  <path d="M 20.562999999999988,2.171999999999997 L 20.26400000000001,1.8739999999999952" fill="none" stroke="rgb(92,92,92)" stroke-width="0.1"/>
  <path d="M 23.979000000000013,3.3429999999999893 L 23.930000000000007,3.2949999999999875" fill="none" stroke="rgb(92,92,92)" stroke-width="0.1"/>
  <path d="M 20.330000000000013,3.3429999999999893 L 20.264999999999986,3.276999999999987" fill="none" stroke="rgb(92,92,92)" stroke-width="0.1"/>
  <path d="M 22.57499999999999,3.3429999999999893 L 22.105999999999995,2.8739999999999952" fill="none" stroke="rgb(92,92,92)" stroke-width="0.1"/>
  <path d="M 24.820999999999998,3.3429999999999893 L 24.351,2.8739999999999952" fill="none" stroke="rgb(92,92,92)" stroke-width="0.1"/>
  <path d="M 20.98400000000001,1.7510000000000048 L 20.26400000000001,1.0320000000000107" fill="none" stroke="rgb(92,92,92)" stroke-width="0.1"/>
  <path d="M 21.26429568256114,0.0 L 21.264999999999986,2.3429999999999893" fill="none" stroke="rgb(92,92,92)" stroke-width="0.1"/>
  <path d="M 21.264999999999986,2.3429999999999893 L 25.348000000000013,2.3429999999999893" fill="none" stroke="rgb(92,92,92)" stroke-width="0.1"/>
  <path d="M 25.348000000000013,2.3429999999999893 L 25.510999999999996,3.313999999999993" fill="none" stroke="rgb(92,92,92)" stroke-width="0.1"/>
  <path d="M 26.715000000000003,3.1119999999999948 A 0.610465,0.610465 0.0 0,0 26.710000000000008,3.0829999999999984" fill="none" stroke="rgb(92,92,92)" stroke-width="0.1"/>
  <path d="M 25.516999999999996,3.3429999999999893 L 20.264999999999986,3.3429999999999893" fill="none" stroke="rgb(92,92,92)" stroke-width="0.1"/>
  <path d="M 20.264999999999986,3.3429999999999893 L 20.264065319959457,0.0" fill="none" stroke="rgb(92,92,92)" stroke-width="0.1"/>
  <path d="M 33.278999999999996,3.147999999999996 L 33.565,2.8619999999999948" fill="none" stroke="rgb(92,92,92)" stroke-width="0.1"/>
  <path d="M 35.32900000000001,3.3429999999999893 L 35.81,2.8619999999999948" fill="none" stroke="rgb(92,92,92)" stroke-width="0.1"/>
  <path d="M 34.486999999999995,3.3429999999999893 L 35.38900000000001,2.4410000000000025" fill="none" stroke="rgb(92,92,92)" stroke-width="0.1"/>
  <path d="M 36.732,3.3429999999999893 L 36.855999999999995,3.219999999999999" fill="none" stroke="rgb(92,92,92)" stroke-width="0.1"/>
  <path d="M 33.846000000000004,3.1430000000000007 L 34.64500000000001,2.3429999999999893" fill="none" stroke="rgb(92,92,92)" stroke-width="0.1"/>
  <path d="M 36.09100000000001,3.1430000000000007 L 36.855999999999995,2.377999999999986" fill="none" stroke="rgb(92,92,92)" stroke-width="0.1"/>
  <path d="M 33.846000000000004,2.8619999999999948 L 33.39699999999999,2.4139999999999873" fill="none" stroke="rgb(92,92,92)" stroke-width="0.1"/>
  <path d="M 36.09100000000001,2.8619999999999948 L 35.572,2.3429999999999893" fill="none" stroke="rgb(92,92,92)" stroke-width="0.1"/>
  <path d="M 34.266999999999996,2.4410000000000025 L 34.16900000000001,2.3429999999999893" fill="none" stroke="rgb(92,92,92)" stroke-width="0.1"/>
  <path d="M 36.512,2.4410000000000025 L 36.41399999999999,2.3429999999999893" fill="none" stroke="rgb(92,92,92)" stroke-width="0.1"/>
  <path d="M 33.76599999999999,3.3429999999999893 L 33.565,3.1430000000000007" fill="none" stroke="rgb(92,92,92)" stroke-width="0.1"/>
  <path d="M 36.010999999999996,3.3429999999999893 L 35.81,3.1430000000000007" fill="none" stroke="rgb(92,92,92)" stroke-width="0.1"/>
  <path d="M 36.855999999999995,2.3429999999999893 L 36.855999999999995,3.3429999999999893" fill="none" instance-id="7" semantic-id="19" stroke="rgb(92,92,92)" stroke-width="0.1"/>
  <path d="M 36.855999999999995,3.3429999999999893 L 33.24799999999999,3.3429999999999893" fill="none" stroke="rgb(92,92,92)" stroke-width="0.1"/>
  <path d="M 33.24799999999999,3.3429999999999893 L 33.251000000000005,3.3249999999999886" fill="none" stroke="rgb(92,92,92)" stroke-width="0.1"/>
  <path d="M 33.251000000000005,3.3249999999999886 A 0.610465,0.610465 0.0 0,0 33.252999999999986,3.312999999999988" fill="none" stroke="rgb(92,92,92)" stroke-width="0.1"/>
  <path d="M 33.252999999999986,3.312999999999988 L 33.40899999999999,2.3429999999999893" fill="none" stroke="rgb(92,92,92)" stroke-width="0.1"/>
  <path d="M 33.40899999999999,2.3429999999999893 L 36.855999999999995,2.3429999999999893" fill="none" stroke="rgb(92,92,92)" stroke-width="0.1"/>
  <path d="M 94.0,0.0 L 94.0,5.5" fill="none" instance-id="15" semantic-id="19" stroke="rgb(92,92,92)" stroke-width="0.1"/>
  <path d="M 94.0,5.5 L 88.0,5.5" fill="none" instance-id="15" semantic-id="19" stroke="rgb(92,92,92)" stroke-width="0.1"/>
  <path d="M 88.0,5.5 L 88.0,0.0" fill="none" instance-id="15" semantic-id="19" stroke="rgb(92,92,92)" stroke-width="0.1"/>
  <path d="M 0.0,5.5 L 4.0,5.5" fill="none" instance-id="2" semantic-id="19" stroke="rgb(92,92,92)" stroke-width="0.1"/>
  <path d="M 4.0,5.5 L 4.0,0.0" fill="none" instance-id="2" semantic-id="19" stroke="rgb(92,92,92)" stroke-width="0.1"/>
  <path d="M 66.65199999999999,2.3429999999999893 L 70.73500000000001,2.3429999999999893" fill="none" stroke="rgb(92,92,92)" stroke-width="0.1"/>
  <path d="M 70.73500000000001,2.3429999999999893 L 70.73570431743886,0.0" fill="none" stroke="rgb(92,92,92)" stroke-width="0.1"/>
  <path d="M 66.483,3.3429999999999893 L 71.73500000000001,3.3429999999999893" fill="none" stroke="rgb(92,92,92)" stroke-width="0.1"/>
  <path d="M 71.73500000000001,3.3429999999999893 L 71.73593468004054,0.0" fill="none" stroke="rgb(92,92,92)" stroke-width="0.1"/>
  <path d="M 25.348000000000013,2.3429999999999893 L 21.264999999999986,2.3429999999999893" fill="none" stroke="rgb(92,92,92)" stroke-width="0.1"/>
  <path d="M 21.264999999999986,2.3429999999999893 L 21.26429568256114,0.0" fill="none" stroke="rgb(92,92,92)" stroke-width="0.1"/>
  <path d="M 25.516999999999996,3.3429999999999893 L 20.264999999999986,3.3429999999999893" fill="none" stroke="rgb(92,92,92)" stroke-width="0.1"/>
  <path d="M 20.264999999999986,3.3429999999999893 L 20.264065319959457,0.0" fill="none" stroke="rgb(92,92,92)" stroke-width="0.1"/>
  <circle cx="51.54400000000001" cy="1.5910000000000082" fill="none" instance-id="10" r="1.008" semantic-id="19" stroke="rgb(92,92,92)" stroke-width="0.1"/>
  <circle cx="91.059" cy="2.4809999999999945" fill="none" instance-id="15" r="1.05" semantic-id="19" stroke="rgb(92,92,92)" stroke-width="0.1"/>
  <circle cx="91.059" cy="2.4809999999999945" fill="none" instance-id="15" r="2.1" semantic-id="19" stroke="rgb(92,92,92)" stroke-width="0.1"/>
  <circle cx="40.45599999999999" cy="1.5910000000000082" fill="none" instance-id="7" r="1.008" semantic-id="19" stroke="rgb(92,92,92)" stroke-width="0.1"/>
 </g>
 <g id="layerS38-13$0$A-GROUND" inkscape:groupmode="layer" inkscape:label="S38-13$0$A-GROUND">
  <path d="M 89.0,12.5 L 89.0,25.5" fill="none" stroke="rgb(178,178,0)" stroke-width="0.1"/>
  <path d="M 100.0,26.5 L 93.25,26.5" fill="none" instance-id="-1" semantic-id="1" stroke="rgb(178,178,0)" stroke-width="0.1"/>
  <path d="M 82.75,31.5 L 51.25,31.5" fill="none" instance-id="-1" semantic-id="1" stroke="rgb(178,178,0)" stroke-width="0.1"/>
  <path d="M 100.0,28.5 L 93.75,28.5" fill="none" instance-id="-1" semantic-id="1" stroke="rgb(178,178,0)" stroke-width="0.1"/>
  <path d="M 82.25,33.5 L 51.75,33.5" fill="none" instance-id="-1" semantic-id="1" stroke="rgb(178,178,0)" stroke-width="0.1"/>
  <path d="M 3.0,12.5 L 3.0,25.5" fill="none" stroke="rgb(178,178,0)" stroke-width="0.1"/>
  <path d="M 9.25,31.5 L 40.75,31.5" fill="none" instance-id="-1" semantic-id="1" stroke="rgb(178,178,0)" stroke-width="0.1"/>
  <path d="M 9.75,33.5 L 40.25,33.5" fill="none" instance-id="-1" semantic-id="1" stroke="rgb(178,178,0)" stroke-width="0.1"/>
  <path d="M 51.25,31.5 L 47.0,31.5" fill="none" instance-id="-1" semantic-id="1" stroke="rgb(89,89,89)" stroke-width="0.1"/>
  <path d="M 51.75,33.5 L 47.0,33.5" fill="none" instance-id="-1" semantic-id="1" stroke="rgb(178,178,0)" stroke-width="0.1"/>
  <path d="M 40.75,31.5 L 45.0,31.5" fill="none" instance-id="-1" semantic-id="1" stroke="rgb(89,89,89)" stroke-width="0.1"/>
  <path d="M 40.25,33.5 L 45.0,33.5" fill="none" instance-id="-1" semantic-id="1" stroke="rgb(178,178,0)" stroke-width="0.1"/>
  <path d="M 93.25,26.5 L 87.0,26.5" fill="none" instance-id="-1" semantic-id="1" stroke="rgb(89,89,89)" stroke-width="0.1"/>
  <path d="M 87.0,26.5 L 87.0,31.5" fill="none" instance-id="-1" semantic-id="1" stroke="rgb(89,89,89)" stroke-width="0.1"/>
  <path d="M 87.0,31.5 L 82.75,31.5" fill="none" instance-id="-1" semantic-id="1" stroke="rgb(89,89,89)" stroke-width="0.1"/>
  <path d="M 93.75,28.5 L 89.0,28.5" fill="none" instance-id="-1" semantic-id="1" stroke="rgb(178,178,0)" stroke-width="0.1"/>
  <path d="M 89.0,28.5 L 89.0,33.5" fill="none" instance-id="-1" semantic-id="1" stroke="rgb(178,178,0)" stroke-width="0.1"/>
  <path d="M 89.0,33.5 L 82.25,33.5" fill="none" instance-id="-1" semantic-id="1" stroke="rgb(178,178,0)" stroke-width="0.1"/>
  <path d="M 0.0,26.5 L 5.0,26.5" fill="none" instance-id="-1" semantic-id="1" stroke="rgb(89,89,89)" stroke-width="0.1"/>
  <path d="M 5.0,26.5 L 5.0,31.5" fill="none" instance-id="-1" semantic-id="1" stroke="rgb(89,89,89)" stroke-width="0.1"/>
  <path d="M 5.0,31.5 L 9.25,31.5" fill="none" instance-id="-1" semantic-id="1" stroke="rgb(89,89,89)" stroke-width="0.1"/>
  <path d="M 0.0,28.5 L 3.0,28.5" fill="none" instance-id="-1" semantic-id="1" stroke="rgb(178,178,0)" stroke-width="0.1"/>
  <path d="M 3.0,28.5 L 3.0,33.5" fill="none" instance-id="-1" semantic-id="1" stroke="rgb(178,178,0)" stroke-width="0.1"/>
  <path d="M 3.0,33.5 L 9.75,33.5" fill="none" instance-id="-1" semantic-id="1" stroke="rgb(178,178,0)" stroke-width="0.1"/>
 </g>
 <g id="layerS38-13$0$A-LVTRY" inkscape:groupmode="layer" inkscape:label="S38-13$0$A-LVTRY">
  <path d="M 48.44300000000001,24.223000000000013 L 53.110000000000014,24.223000000000013" fill="none" instance-id="18" semantic-id="26" stroke="rgb(178,0,178)" stroke-width="0.1"/>
  <path d="M 53.50999999999999,18.476999999999975 L 53.50999999999999,23.82299999999998" fill="none" instance-id="18" semantic-id="26" stroke="rgb(178,0,178)" stroke-width="0.1"/>
  <path d="M 48.44300000000001,18.076999999999998 L 53.110000000000014,18.076999999999998" fill="none" instance-id="18" semantic-id="26" stroke="rgb(178,0,178)" stroke-width="0.1"/>
  <path d="M 47.358000000000004,24.173999999999978 L 47.358000000000004,24.600000000000023" fill="none" instance-id="18" semantic-id="26" stroke="rgb(178,0,178)" stroke-width="0.1"/>
  <path d="M 47.358000000000004,17.69999999999999 L 47.358000000000004,23.343000000000018" fill="none" instance-id="18" semantic-id="26" stroke="rgb(178,0,178)" stroke-width="0.1"/>
  <path d="M 47.656000000000006,23.343000000000018 L 47.349999999999994,23.343000000000018" fill="none" instance-id="18" semantic-id="26" stroke="rgb(178,0,178)" stroke-width="0.1"/>
  <path d="M 47.656000000000006,24.173999999999978 L 47.656000000000006,23.343000000000018" fill="none" instance-id="18" semantic-id="26" stroke="rgb(178,0,178)" stroke-width="0.1"/>
  <path d="M 47.349999999999994,24.173999999999978 L 47.656000000000006,24.173999999999978" fill="none" instance-id="18" semantic-id="26" stroke="rgb(178,0,178)" stroke-width="0.1"/>
  <path d="M 47.0,17.69999999999999 L 47.0,24.600000000000023" fill="none" instance-id="18" semantic-id="26" stroke="rgb(178,0,178)" stroke-width="0.1"/>
  <path d="M 53.55799999999999,24.600000000000023 L 47.0,24.600000000000023" fill="none" instance-id="18" semantic-id="26" stroke="rgb(178,0,178)" stroke-width="0.1"/>
  <path d="M 47.0,17.69999999999999 L 53.55799999999999,17.69999999999999" fill="none" instance-id="18" semantic-id="26" stroke="rgb(178,0,178)" stroke-width="0.1"/>
  <path d="M 54.05799999999999,18.19999999999999 L 54.05799999999999,24.100000000000023" fill="none" instance-id="18" semantic-id="26" stroke="rgb(178,0,178)" stroke-width="0.1"/>
  <path d="M 47.962999999999994,19.814999999999998 L 48.12899999999999,19.814999999999998" fill="none" stroke="rgb(178,0,178)" stroke-width="0.1"/>
  <path d="M 48.12899999999999,19.814999999999998 L 48.12899999999999,19.168999999999983" fill="none" instance-id="18" semantic-id="26" stroke="rgb(178,0,178)" stroke-width="0.1"/>
  <path d="M 48.12899999999999,19.168999999999983 L 47.962999999999994,19.168999999999983" fill="none" stroke="rgb(178,0,178)" stroke-width="0.1"/>
  <path d="M 47.962999999999994,19.168999999999983 L 47.962999999999994,19.814999999999998" fill="none" instance-id="18" semantic-id="26" stroke="rgb(178,0,178)" stroke-width="0.1"/>
  <path d="M 47.879999999999995,19.00200000000001 L 47.985000000000014,19.00200000000001" fill="none" stroke="rgb(178,0,178)" stroke-width="0.1"/>
  <path d="M 47.869,19.920000000000016 L 47.98599999999999,19.918999999999983" fill="none" stroke="rgb(178,0,178)" stroke-width="0.1"/>
  <path d="M 48.447,24.600000000000023 L 48.447,17.69999999999999" fill="none" instance-id="18" semantic-id="26" stroke="rgb(178,0,178)" stroke-width="0.1"/>
  <path d="M 43.55699999999999,24.223000000000013 L 38.889999999999986,24.223000000000013" fill="none" instance-id="17" semantic-id="26" stroke="rgb(178,0,178)" stroke-width="0.1"/>
  <path d="M 38.49000000000001,18.476999999999975 L 38.49000000000001,23.82299999999998" fill="none" instance-id="17" semantic-id="26" stroke="rgb(178,0,178)" stroke-width="0.1"/>
  <path d="M 43.55699999999999,18.076999999999998 L 38.889999999999986,18.076999999999998" fill="none" instance-id="17" semantic-id="26" stroke="rgb(178,0,178)" stroke-width="0.1"/>
  <path d="M 44.641999999999996,24.173999999999978 L 44.641999999999996,24.600000000000023" fill="none" instance-id="17" semantic-id="26" stroke="rgb(178,0,178)" stroke-width="0.1"/>
  <path d="M 44.641999999999996,17.69999999999999 L 44.641999999999996,23.343000000000018" fill="none" instance-id="17" semantic-id="26" stroke="rgb(178,0,178)" stroke-width="0.1"/>
  <path d="M 44.343999999999994,23.343000000000018 L 44.650000000000006,23.343000000000018" fill="none" instance-id="17" semantic-id="26" stroke="rgb(178,0,178)" stroke-width="0.1"/>
  <path d="M 44.343999999999994,24.173999999999978 L 44.343999999999994,23.343000000000018" fill="none" instance-id="17" semantic-id="26" stroke="rgb(178,0,178)" stroke-width="0.1"/>
  <path d="M 44.650000000000006,24.173999999999978 L 44.343999999999994,24.173999999999978" fill="none" instance-id="17" semantic-id="26" stroke="rgb(178,0,178)" stroke-width="0.1"/>
  <path d="M 45.0,17.69999999999999 L 45.0,24.600000000000023" fill="none" instance-id="17" semantic-id="26" stroke="rgb(178,0,178)" stroke-width="0.1"/>
  <path d="M 38.44200000000001,24.600000000000023 L 45.0,24.600000000000023" fill="none" instance-id="17" semantic-id="26" stroke="rgb(178,0,178)" stroke-width="0.1"/>
  <path d="M 45.0,17.69999999999999 L 38.44200000000001,17.69999999999999" fill="none" instance-id="17" semantic-id="26" stroke="rgb(178,0,178)" stroke-width="0.1"/>
  <path d="M 37.94200000000001,18.19999999999999 L 37.94200000000001,24.100000000000023" fill="none" instance-id="17" semantic-id="26" stroke="rgb(178,0,178)" stroke-width="0.1"/>
  <path d="M 44.037000000000006,19.814999999999998 L 43.87100000000001,19.814999999999998" fill="none" stroke="rgb(178,0,178)" stroke-width="0.1"/>
  <path d="M 43.87100000000001,19.814999999999998 L 43.87100000000001,19.168999999999983" fill="none" instance-id="17" semantic-id="26" stroke="rgb(178,0,178)" stroke-width="0.1"/>
  <path d="M 43.87100000000001,19.168999999999983 L 44.037000000000006,19.168999999999983" fill="none" stroke="rgb(178,0,178)" stroke-width="0.1"/>
  <path d="M 44.037000000000006,19.168999999999983 L 44.037000000000006,19.814999999999998" fill="none" instance-id="17" semantic-id="26" stroke="rgb(178,0,178)" stroke-width="0.1"/>
  <path d="M 44.120000000000005,19.00200000000001 L 44.014999999999986,19.00200000000001" fill="none" stroke="rgb(178,0,178)" stroke-width="0.1"/>
  <path d="M 44.131,19.920000000000016 L 44.01400000000001,19.918999999999983" fill="none" stroke="rgb(178,0,178)" stroke-width="0.1"/>
  <path d="M 43.553,24.600000000000023 L 43.553,17.69999999999999" fill="none" instance-id="17" semantic-id="26" stroke="rgb(178,0,178)" stroke-width="0.1"/>
  <path d="M 53.110000000000014,24.223000000000013 A 0.4,0.4 0.0 0,0 53.50999999999999,23.82299999999998" fill="none" instance-id="18" semantic-id="26" stroke="rgb(178,0,178)" stroke-width="0.1"/>
  <path d="M 53.50999999999999,18.476999999999975 A 0.4,0.4 0.0 0,0 53.110000000000014,18.076999999999998" fill="none" instance-id="18" semantic-id="26" stroke="rgb(178,0,178)" stroke-width="0.1"/>
  <path d="M 53.55799999999999,24.600000000000023 A 0.5,0.5 0.0 0,0 54.05799999999999,24.100000000000023" fill="none" instance-id="18" semantic-id="26" stroke="rgb(178,0,178)" stroke-width="0.1"/>
  <path d="M 54.05799999999999,18.19999999999999 A 0.5,0.5 0.0 0,0 53.55799999999999,17.69999999999999" fill="none" instance-id="18" semantic-id="26" stroke="rgb(178,0,178)" stroke-width="0.1"/>
  <path d="M 38.49000000000001,23.82299999999998 A 0.4,0.4 0.0 0,0 38.889999999999986,24.223000000000013" fill="none" instance-id="17" semantic-id="26" stroke="rgb(178,0,178)" stroke-width="0.1"/>
  <path d="M 38.889999999999986,18.076999999999998 A 0.4,0.4 0.0 0,0 38.49000000000001,18.476999999999975" fill="none" instance-id="17" semantic-id="26" stroke="rgb(178,0,178)" stroke-width="0.1"/>
  <path d="M 37.94200000000001,24.100000000000023 A 0.5,0.5 0.0 0,0 38.44200000000001,24.600000000000023" fill="none" instance-id="17" semantic-id="26" stroke="rgb(178,0,178)" stroke-width="0.1"/>
  <path d="M 38.44200000000001,17.69999999999999 A 0.5,0.5 0.0 0,0 37.94200000000001,18.19999999999999" fill="none" instance-id="17" semantic-id="26" stroke="rgb(178,0,178)" stroke-width="0.1"/>
  <path d="M 47.94399999999999,20.317000000000007 A 0.190526,0.190526 0.0 0,0 48.072,20.267999999999972" fill="none" stroke="rgb(178,0,178)" stroke-width="0.1"/>
  <path d="M 48.072,20.267999999999972 A 0.598688,0.598688 0.0 0,0 48.215,20.07299999999998" fill="none" instance-id="18" semantic-id="26" stroke="rgb(178,0,178)" stroke-width="0.1"/>
  <path d="M 48.215,20.07299999999998 A 1.08468,1.08468 0.0 0,0 48.29499999999999,19.82299999999998" fill="none" instance-id="18" semantic-id="26" stroke="rgb(178,0,178)" stroke-width="0.1"/>
  <path d="M 48.29499999999999,19.82299999999998 A 1.80019,1.80019 0.0 0,0 48.327,19.485000000000014" fill="none" instance-id="18" semantic-id="26" stroke="rgb(178,0,178)" stroke-width="0.1"/>
  <path d="M 48.327,19.485000000000014 A 1.80019,1.80019 0.0 0,0 48.29499999999999,19.148000000000025" fill="none" instance-id="18" semantic-id="26" stroke="rgb(178,0,178)" stroke-width="0.1"/>
  <path d="M 48.29499999999999,19.148000000000025 A 1.08468,1.08468 0.0 0,0 48.215,18.89699999999999" fill="none" instance-id="18" semantic-id="26" stroke="rgb(178,0,178)" stroke-width="0.1"/>
  <path d="M 48.215,18.89699999999999 A 0.598688,0.598688 0.0 0,0 48.072,18.702999999999975" fill="none" instance-id="18" semantic-id="26" stroke="rgb(178,0,178)" stroke-width="0.1"/>
  <path d="M 48.072,18.702999999999975 A 0.190526,0.190526 0.0 0,0 47.94399999999999,18.653999999999996" fill="none" stroke="rgb(178,0,178)" stroke-width="0.1"/>
  <path d="M 47.94399999999999,18.653999999999996 A 0.190526,0.190526 0.0 0,0 47.81700000000001,18.702999999999975" fill="none" stroke="rgb(178,0,178)" stroke-width="0.1"/>
  <path d="M 47.81700000000001,18.702999999999975 A 0.598688,0.598688 0.0 0,0 47.673,18.89699999999999" fill="none" instance-id="18" semantic-id="26" stroke="rgb(178,0,178)" stroke-width="0.1"/>
  <path d="M 47.673,18.89699999999999 A 1.08468,1.08468 0.0 0,0 47.59299999999999,19.148000000000025" fill="none" instance-id="18" semantic-id="26" stroke="rgb(178,0,178)" stroke-width="0.1"/>
  <path d="M 47.59299999999999,19.148000000000025 A 1.80019,1.80019 0.0 0,0 47.56100000000001,19.485000000000014" fill="none" instance-id="18" semantic-id="26" stroke="rgb(178,0,178)" stroke-width="0.1"/>
  <path d="M 47.56100000000001,19.485000000000014 A 1.80019,1.80019 0.0 0,0 47.59299999999999,19.82299999999998" fill="none" instance-id="18" semantic-id="26" stroke="rgb(178,0,178)" stroke-width="0.1"/>
  <path d="M 47.59299999999999,19.82299999999998 A 1.08468,1.08468 0.0 0,0 47.673,20.07299999999998" fill="none" instance-id="18" semantic-id="26" stroke="rgb(178,0,178)" stroke-width="0.1"/>
  <path d="M 47.673,20.07299999999998 A 0.598688,0.598688 0.0 0,0 47.81700000000001,20.267999999999972" fill="none" instance-id="18" semantic-id="26" stroke="rgb(178,0,178)" stroke-width="0.1"/>
  <path d="M 47.81700000000001,20.267999999999972 A 0.190526,0.190526 0.0 0,0 47.94399999999999,20.317000000000007" fill="none" stroke="rgb(178,0,178)" stroke-width="0.1"/>
  <path d="M 48.077,19.168999999999983 A 0.943981,0.943981 0.0 0,0 48.06899999999999,19.136000000000024" fill="none" stroke="rgb(178,0,178)" stroke-width="0.1"/>
  <path d="M 48.06899999999999,19.136000000000024 A 0.413146,0.413146 0.0 0,0 48.02000000000001,19.021000000000015" fill="none" stroke="rgb(178,0,178)" stroke-width="0.1"/>
  <path d="M 48.02000000000001,19.021000000000015 A 0.0403217,0.0403217 0.0 0,0 47.985000000000014,19.00200000000001" fill="none" stroke="rgb(178,0,178)" stroke-width="0.1"/>
  <path d="M 47.985000000000014,19.00200000000001 A 0.0403217,0.0403217 0.0 0,0 47.95099999999999,19.021000000000015" fill="none" stroke="rgb(178,0,178)" stroke-width="0.1"/>
  <path d="M 47.95099999999999,19.021000000000015 A 0.413146,0.413146 0.0 0,0 47.90199999999999,19.136000000000024" fill="none" stroke="rgb(178,0,178)" stroke-width="0.1"/>
  <path d="M 47.90199999999999,19.136000000000024 A 0.943981,0.943981 0.0 0,0 47.87700000000001,19.27199999999999" fill="none" stroke="rgb(178,0,178)" stroke-width="0.1"/>
  <path d="M 47.87700000000001,19.27199999999999 A 1.77462,1.77462 0.0 0,0 47.86699999999999,19.45999999999998" fill="none" stroke="rgb(178,0,178)" stroke-width="0.1"/>
  <path d="M 47.86699999999999,19.45999999999998 A 1.77462,1.77462 0.0 0,0 47.87700000000001,19.649" fill="none" stroke="rgb(178,0,178)" stroke-width="0.1"/>
  <path d="M 47.87700000000001,19.649 A 0.943981,0.943981 0.0 0,0 47.90199999999999,19.783999999999992" fill="none" stroke="rgb(178,0,178)" stroke-width="0.1"/>
  <path d="M 47.90199999999999,19.783999999999992 A 0.413146,0.413146 0.0 0,0 47.95099999999999,19.899999999999977" fill="none" stroke="rgb(178,0,178)" stroke-width="0.1"/>
  <path d="M 47.95099999999999,19.899999999999977 A 0.0403217,0.0403217 0.0 0,0 47.985000000000014,19.918999999999983" fill="none" stroke="rgb(178,0,178)" stroke-width="0.1"/>
  <path d="M 47.985000000000014,19.918999999999983 A 0.0403217,0.0403217 0.0 0,0 48.02000000000001,19.899999999999977" fill="none" stroke="rgb(178,0,178)" stroke-width="0.1"/>
  <path d="M 48.02000000000001,19.899999999999977 A 0.413146,0.413146 0.0 0,0 48.06,19.814999999999998" fill="none" stroke="rgb(178,0,178)" stroke-width="0.1"/>
  <path d="M 47.879999999999995,19.00200000000001 A 0.0403217,0.0403217 0.0 0,0 47.846000000000004,19.021000000000015" fill="none" stroke="rgb(178,0,178)" stroke-width="0.1"/>
  <path d="M 47.846000000000004,19.021000000000015 A 0.413146,0.413146 0.0 0,0 47.797,19.136000000000024" fill="none" stroke="rgb(178,0,178)" stroke-width="0.1"/>
  <path d="M 47.797,19.136000000000024 A 0.943981,0.943981 0.0 0,0 47.77199999999999,19.27199999999999" fill="none" stroke="rgb(178,0,178)" stroke-width="0.1"/>
  <path d="M 47.77199999999999,19.27199999999999 A 1.77462,1.77462 0.0 0,0 47.762,19.45999999999998" fill="none" stroke="rgb(178,0,178)" stroke-width="0.1"/>
  <path d="M 47.762,19.45999999999998 A 1.77462,1.77462 0.0 0,0 47.77199999999999,19.649" fill="none" stroke="rgb(178,0,178)" stroke-width="0.1"/>
  <path d="M 47.77199999999999,19.649 A 0.943981,0.943981 0.0 0,0 47.797,19.783999999999992" fill="none" stroke="rgb(178,0,178)" stroke-width="0.1"/>
  <path d="M 47.797,19.783999999999992 A 0.413146,0.413146 0.0 0,0 47.846000000000004,19.899999999999977" fill="none" stroke="rgb(178,0,178)" stroke-width="0.1"/>
  <path d="M 47.846000000000004,19.899999999999977 A 0.0403217,0.0403217 0.0 0,0 47.879999999999995,19.918999999999983" fill="none" stroke="rgb(178,0,178)" stroke-width="0.1"/>
  <path d="M 47.879999999999995,19.918999999999983 A 0.0403217,0.0403217 0.0 0,0 47.893,19.916999999999973" fill="none" stroke="rgb(178,0,178)" stroke-width="0.1"/>
  <path d="M 43.928,20.267999999999972 A 0.190526,0.190526 0.0 0,0 44.05600000000001,20.317000000000007" fill="none" stroke="rgb(178,0,178)" stroke-width="0.1"/>
  <path d="M 43.785,20.07299999999998 A 0.598688,0.598688 0.0 0,0 43.928,20.267999999999972" fill="none" instance-id="17" semantic-id="26" stroke="rgb(178,0,178)" stroke-width="0.1"/>
  <path d="M 43.70500000000001,19.82299999999998 A 1.08468,1.08468 0.0 0,0 43.785,20.07299999999998" fill="none" instance-id="17" semantic-id="26" stroke="rgb(178,0,178)" stroke-width="0.1"/>
  <path d="M 43.673,19.485000000000014 A 1.80019,1.80019 0.0 0,0 43.70500000000001,19.82299999999998" fill="none" instance-id="17" semantic-id="26" stroke="rgb(178,0,178)" stroke-width="0.1"/>
  <path d="M 43.70500000000001,19.148000000000025 A 1.80019,1.80019 0.0 0,0 43.673,19.485000000000014" fill="none" instance-id="17" semantic-id="26" stroke="rgb(178,0,178)" stroke-width="0.1"/>
  <path d="M 43.785,18.89699999999999 A 1.08468,1.08468 0.0 0,0 43.70500000000001,19.148000000000025" fill="none" instance-id="17" semantic-id="26" stroke="rgb(178,0,178)" stroke-width="0.1"/>
  <path d="M 43.928,18.702999999999975 A 0.598688,0.598688 0.0 0,0 43.785,18.89699999999999" fill="none" instance-id="17" semantic-id="26" stroke="rgb(178,0,178)" stroke-width="0.1"/>
  <path d="M 44.05600000000001,18.653999999999996 A 0.190526,0.190526 0.0 0,0 43.928,18.702999999999975" fill="none" stroke="rgb(178,0,178)" stroke-width="0.1"/>
  <path d="M 44.18299999999999,18.702999999999975 A 0.190526,0.190526 0.0 0,0 44.05600000000001,18.653999999999996" fill="none" stroke="rgb(178,0,178)" stroke-width="0.1"/>
  <path d="M 44.327,18.89699999999999 A 0.598688,0.598688 0.0 0,0 44.18299999999999,18.702999999999975" fill="none" instance-id="17" semantic-id="26" stroke="rgb(178,0,178)" stroke-width="0.1"/>
  <path d="M 44.40700000000001,19.148000000000025 A 1.08468,1.08468 0.0 0,0 44.327,18.89699999999999" fill="none" instance-id="17" semantic-id="26" stroke="rgb(178,0,178)" stroke-width="0.1"/>
  <path d="M 44.43899999999999,19.485000000000014 A 1.80019,1.80019 0.0 0,0 44.40700000000001,19.148000000000025" fill="none" instance-id="17" semantic-id="26" stroke="rgb(178,0,178)" stroke-width="0.1"/>
  <path d="M 44.40700000000001,19.82299999999998 A 1.80019,1.80019 0.0 0,0 44.43899999999999,19.485000000000014" fill="none" instance-id="17" semantic-id="26" stroke="rgb(178,0,178)" stroke-width="0.1"/>
  <path d="M 44.327,20.07299999999998 A 1.08468,1.08468 0.0 0,0 44.40700000000001,19.82299999999998" fill="none" instance-id="17" semantic-id="26" stroke="rgb(178,0,178)" stroke-width="0.1"/>
  <path d="M 44.18299999999999,20.267999999999972 A 0.598688,0.598688 0.0 0,0 44.327,20.07299999999998" fill="none" instance-id="17" semantic-id="26" stroke="rgb(178,0,178)" stroke-width="0.1"/>
  <path d="M 44.05600000000001,20.317000000000007 A 0.190526,0.190526 0.0 0,0 44.18299999999999,20.267999999999972" fill="none" stroke="rgb(178,0,178)" stroke-width="0.1"/>
  <path d="M 43.93100000000001,19.136000000000024 A 0.943981,0.943981 0.0 0,0 43.923,19.168999999999983" fill="none" stroke="rgb(178,0,178)" stroke-width="0.1"/>
  <path d="M 43.97999999999999,19.021000000000015 A 0.413146,0.413146 0.0 0,0 43.93100000000001,19.136000000000024" fill="none" stroke="rgb(178,0,178)" stroke-width="0.1"/>
  <path d="M 44.014999999999986,19.00200000000001 A 0.0403217,0.0403217 0.0 0,0 43.97999999999999,19.021000000000015" fill="none" stroke="rgb(178,0,178)" stroke-width="0.1"/>
  <path d="M 44.04900000000001,19.021000000000015 A 0.0403217,0.0403217 0.0 0,0 44.014999999999986,19.00200000000001" fill="none" stroke="rgb(178,0,178)" stroke-width="0.1"/>
  <path d="M 44.09800000000001,19.136000000000024 A 0.413146,0.413146 0.0 0,0 44.04900000000001,19.021000000000015" fill="none" stroke="rgb(178,0,178)" stroke-width="0.1"/>
  <path d="M 44.12299999999999,19.27199999999999 A 0.943981,0.943981 0.0 0,0 44.09800000000001,19.136000000000024" fill="none" stroke="rgb(178,0,178)" stroke-width="0.1"/>
  <path d="M 44.13300000000001,19.45999999999998 A 1.77462,1.77462 0.0 0,0 44.12299999999999,19.27199999999999" fill="none" stroke="rgb(178,0,178)" stroke-width="0.1"/>
  <path d="M 44.12299999999999,19.649 A 1.77462,1.77462 0.0 0,0 44.13300000000001,19.45999999999998" fill="none" stroke="rgb(178,0,178)" stroke-width="0.1"/>
  <path d="M 44.09800000000001,19.783999999999992 A 0.943981,0.943981 0.0 0,0 44.12299999999999,19.649" fill="none" stroke="rgb(178,0,178)" stroke-width="0.1"/>
  <path d="M 44.04900000000001,19.899999999999977 A 0.413146,0.413146 0.0 0,0 44.09800000000001,19.783999999999992" fill="none" stroke="rgb(178,0,178)" stroke-width="0.1"/>
  <path d="M 44.014999999999986,19.918999999999983 A 0.0403217,0.0403217 0.0 0,0 44.04900000000001,19.899999999999977" fill="none" stroke="rgb(178,0,178)" stroke-width="0.1"/>
  <path d="M 43.97999999999999,19.899999999999977 A 0.0403217,0.0403217 0.0 0,0 44.014999999999986,19.918999999999983" fill="none" stroke="rgb(178,0,178)" stroke-width="0.1"/>
  <path d="M 43.94,19.814999999999998 A 0.413146,0.413146 0.0 0,0 43.97999999999999,19.899999999999977" fill="none" stroke="rgb(178,0,178)" stroke-width="0.1"/>
  <path d="M 44.153999999999996,19.021000000000015 A 0.0403217,0.0403217 0.0 0,0 44.120000000000005,19.00200000000001" fill="none" stroke="rgb(178,0,178)" stroke-width="0.1"/>
  <path d="M 44.203,19.136000000000024 A 0.413146,0.413146 0.0 0,0 44.153999999999996,19.021000000000015" fill="none" stroke="rgb(178,0,178)" stroke-width="0.1"/>
  <path d="M 44.22800000000001,19.27199999999999 A 0.943981,0.943981 0.0 0,0 44.203,19.136000000000024" fill="none" stroke="rgb(178,0,178)" stroke-width="0.1"/>
  <path d="M 44.238,19.45999999999998 A 1.77462,1.77462 0.0 0,0 44.22800000000001,19.27199999999999" fill="none" stroke="rgb(178,0,178)" stroke-width="0.1"/>
  <path d="M 44.22800000000001,19.649 A 1.77462,1.77462 0.0 0,0 44.238,19.45999999999998" fill="none" stroke="rgb(178,0,178)" stroke-width="0.1"/>
  <path d="M 44.203,19.783999999999992 A 0.943981,0.943981 0.0 0,0 44.22800000000001,19.649" fill="none" stroke="rgb(178,0,178)" stroke-width="0.1"/>
  <path d="M 44.153999999999996,19.899999999999977 A 0.413146,0.413146 0.0 0,0 44.203,19.783999999999992" fill="none" stroke="rgb(178,0,178)" stroke-width="0.1"/>
  <path d="M 44.120000000000005,19.918999999999983 A 0.0403217,0.0403217 0.0 0,0 44.153999999999996,19.899999999999977" fill="none" stroke="rgb(178,0,178)" stroke-width="0.1"/>
  <path d="M 44.107,19.916999999999973 A 0.0403217,0.0403217 0.0 0,0 44.120000000000005,19.918999999999983" fill="none" stroke="rgb(178,0,178)" stroke-width="0.1"/>
  <circle cx="47.349999999999994" cy="23.737000000000023" fill="none" instance-id="18" r="0.174966" semantic-id="26" stroke="rgb(178,0,178)" stroke-width="0.1"/>
  <circle cx="44.650000000000006" cy="23.737000000000023" fill="none" instance-id="17" r="0.174966" semantic-id="26" stroke="rgb(178,0,178)" stroke-width="0.1"/>
 </g>
 <g id="layerS38-13$0$A-ROOF" inkscape:groupmode="layer" inkscape:label="S38-13$0$A-ROOF">
  <path d="M 47.0,36.0 L 47.0,43.5" fill="none" stroke="rgb(255,194,12)" stroke-width="0.1"/>
  <path d="M 47.0,43.5 L 89.0,43.5" fill="none" stroke="rgb(255,194,12)" stroke-width="0.1"/>
  <path d="M 89.0,43.5 L 89.0,36.0" fill="none" stroke="rgb(255,194,12)" stroke-width="0.1"/>
  <path d="M 45.0,36.0 L 45.0,43.5" fill="none" stroke="rgb(255,194,12)" stroke-width="0.1"/>
  <path d="M 45.0,43.5 L 3.0,43.5" fill="none" stroke="rgb(255,194,12)" stroke-width="0.1"/>
  <path d="M 3.0,43.5 L 3.0,36.0" fill="none" stroke="rgb(255,194,12)" stroke-width="0.1"/>
 </g>
 <g id="layerS38-13$0$A-SURFACE" inkscape:groupmode="layer" inkscape:label="S38-13$0$A-SURFACE">
  <path d="M 47.0,25.80000000000001 L 50.94999999999999,25.80000000000001" fill="none" stroke="rgb(178,0,178)" stroke-width="0.1"/>
  <path d="M 50.94999999999999,25.80000000000001 L 50.94999999999999,35.19999999999999" fill="none" stroke="rgb(178,0,178)" stroke-width="0.1"/>
  <path d="M 50.94999999999999,35.19999999999999 L 49.94999999999999,35.19999999999999" fill="none" stroke="rgb(178,0,178)" stroke-width="0.1"/>
  <path d="M 49.94999999999999,35.19999999999999 L 49.94999999999999,35.69999999999999" fill="none" stroke="rgb(178,0,178)" stroke-width="0.1"/>
  <path d="M 49.94999999999999,35.69999999999999 L 42.05000000000001,35.69999999999999" fill="none" stroke="rgb(178,0,178)" stroke-width="0.1"/>
  <path d="M 42.05000000000001,35.69999999999999 L 42.05000000000001,35.19999999999999" fill="none" stroke="rgb(178,0,178)" stroke-width="0.1"/>
  <path d="M 42.05000000000001,35.19999999999999 L 41.05000000000001,35.19999999999999" fill="none" stroke="rgb(178,0,178)" stroke-width="0.1"/>
  <path d="M 41.05000000000001,35.19999999999999 L 41.05000000000001,25.80000000000001" fill="none" stroke="rgb(178,0,178)" stroke-width="0.1"/>
  <path d="M 41.05000000000001,25.80000000000001 L 45.0,25.80000000000001" fill="none" stroke="rgb(178,0,178)" stroke-width="0.1"/>
  <path d="M 45.0,25.5 L 40.75,25.5" fill="none" stroke="rgb(178,0,178)" stroke-width="0.1"/>
  <path d="M 40.75,25.5 L 40.75,35.5" fill="none" stroke="rgb(178,0,178)" stroke-width="0.1"/>
  <path d="M 40.75,35.5 L 41.75,35.5" fill="none" stroke="rgb(178,0,178)" stroke-width="0.1"/>
  <path d="M 41.75,35.5 L 41.75,36.0" fill="none" stroke="rgb(178,0,178)" stroke-width="0.1"/>
  <path d="M 41.75,36.0 L 50.25,36.0" fill="none" stroke="rgb(178,0,178)" stroke-width="0.1"/>
  <path d="M 50.25,36.0 L 50.25,35.5" fill="none" stroke="rgb(178,0,178)" stroke-width="0.1"/>
  <path d="M 50.25,35.5 L 51.25,35.5" fill="none" stroke="rgb(178,0,178)" stroke-width="0.1"/>
  <path d="M 51.25,35.5 L 51.25,25.5" fill="none" stroke="rgb(178,0,178)" stroke-width="0.1"/>
  <path d="M 51.25,25.5 L 47.0,25.5" fill="none" stroke="rgb(178,0,178)" stroke-width="0.1"/>
  <path d="M 0.0,25.80000000000001 L 8.949999999999989,25.80000000000001" fill="none" stroke="rgb(178,0,178)" stroke-width="0.1"/>
  <path d="M 8.949999999999989,25.80000000000001 L 8.949999999999989,35.19999999999999" fill="none" stroke="rgb(178,0,178)" stroke-width="0.1"/>
  <path d="M 8.949999999999989,35.19999999999999 L 7.949999999999989,35.19999999999999" fill="none" stroke="rgb(178,0,178)" stroke-width="0.1"/>
  <path d="M 7.949999999999989,35.19999999999999 L 7.949999999999989,35.69999999999999" fill="none" stroke="rgb(178,0,178)" stroke-width="0.1"/>
  <path d="M 7.949999999999989,35.69999999999999 L 0.05000000000001137,35.69999999999999" fill="none" stroke="rgb(178,0,178)" stroke-width="0.1"/>
  <path d="M 0.05000000000001137,35.69999999999999 L 0.05000000000001137,35.19999999999999" fill="none" stroke="rgb(178,0,178)" stroke-width="0.1"/>
  <path d="M 0.05000000000001137,35.19999999999999 L 0.0,35.19999999999999" fill="none" stroke="rgb(178,0,178)" stroke-width="0.1"/>
  <path d="M 0.0,36.0 L 8.25,36.0" fill="none" stroke="rgb(178,0,178)" stroke-width="0.1"/>
  <path d="M 8.25,36.0 L 8.25,35.5" fill="none" stroke="rgb(178,0,178)" stroke-width="0.1"/>
  <path d="M 8.25,35.5 L 9.25,35.5" fill="none" stroke="rgb(178,0,178)" stroke-width="0.1"/>
  <path d="M 9.25,35.5 L 9.25,25.5" fill="none" stroke="rgb(178,0,178)" stroke-width="0.1"/>
  <path d="M 9.25,25.5 L 0.0,25.5" fill="none" stroke="rgb(178,0,178)" stroke-width="0.1"/>
  <path d="M 92.94999999999999,25.80000000000001 L 83.05000000000001,25.80000000000001" fill="none" stroke="rgb(178,0,178)" stroke-width="0.1"/>
  <path d="M 83.05000000000001,25.80000000000001 L 83.05000000000001,35.19999999999999" fill="none" stroke="rgb(178,0,178)" stroke-width="0.1"/>
  <path d="M 83.05000000000001,35.19999999999999 L 84.05000000000001,35.19999999999999" fill="none" stroke="rgb(178,0,178)" stroke-width="0.1"/>
  <path d="M 84.05000000000001,35.19999999999999 L 84.05000000000001,35.69999999999999" fill="none" stroke="rgb(178,0,178)" stroke-width="0.1"/>
  <path d="M 84.05000000000001,35.69999999999999 L 91.94999999999999,35.69999999999999" fill="none" stroke="rgb(178,0,178)" stroke-width="0.1"/>
  <path d="M 91.94999999999999,35.69999999999999 L 91.94999999999999,35.19999999999999" fill="none" stroke="rgb(178,0,178)" stroke-width="0.1"/>
  <path d="M 91.94999999999999,35.19999999999999 L 92.94999999999999,35.19999999999999" fill="none" stroke="rgb(178,0,178)" stroke-width="0.1"/>
  <path d="M 92.94999999999999,35.19999999999999 L 92.94999999999999,25.80000000000001" fill="none" stroke="rgb(178,0,178)" stroke-width="0.1"/>
  <path d="M 93.25,25.5 L 93.25,35.5" fill="none" stroke="rgb(178,0,178)" stroke-width="0.1"/>
  <path d="M 93.25,35.5 L 92.25,35.5" fill="none" stroke="rgb(178,0,178)" stroke-width="0.1"/>
  <path d="M 92.25,35.5 L 92.25,36.0" fill="none" stroke="rgb(178,0,178)" stroke-width="0.1"/>
  <path d="M 92.25,36.0 L 83.75,36.0" fill="none" stroke="rgb(178,0,178)" stroke-width="0.1"/>
  <path d="M 83.75,36.0 L 83.75,35.5" fill="none" stroke="rgb(178,0,178)" stroke-width="0.1"/>
  <path d="M 83.75,35.5 L 82.75,35.5" fill="none" stroke="rgb(178,0,178)" stroke-width="0.1"/>
  <path d="M 82.75,35.5 L 82.75,25.5" fill="none" stroke="rgb(178,0,178)" stroke-width="0.1"/>
  <path d="M 82.75,25.5 L 93.25,25.5" fill="none" stroke="rgb(178,0,178)" stroke-width="0.1"/>
 </g>
 <g id="layerS38-13$0$A-WALL" inkscape:groupmode="layer" inkscape:label="S38-13$0$A-WALL">
  <path d="M 47.0,33.5 L 47.0,12.5" fill="none" instance-id="-1" semantic-id="1" stroke="rgb(0,178,178)" stroke-width="0.1"/>
  <path d="M 45.0,33.5 L 45.0,12.5" fill="none" instance-id="-1" semantic-id="1" stroke="rgb(0,178,178)" stroke-width="0.1"/>
  <path d="M 47.0,33.5 L 45.0,33.5" fill="none" instance-id="-1" semantic-id="1" stroke="rgb(0,178,178)" stroke-width="0.1"/>
  <path d="M 88.0,5.5 L 94.0,5.5" fill="none" instance-id="-1" semantic-id="1" stroke="rgb(0,178,178)" stroke-width="0.1"/>
  <path d="M 94.0,5.5 L 94.0,7.5" fill="none" instance-id="-1" semantic-id="1" stroke="rgb(0,178,178)" stroke-width="0.1"/>
  <path d="M 94.0,7.5 L 89.0,7.5" fill="none" instance-id="-1" semantic-id="1" stroke="rgb(0,178,178)" stroke-width="0.1"/>
  <path d="M 88.0,5.5 L 88.0,0.0" fill="none" instance-id="-1" semantic-id="1" stroke="rgb(0,178,178)" stroke-width="0.1"/>
  <path d="M 87.0,6.5 L 87.0,0.0" fill="none" instance-id="-1" semantic-id="1" stroke="rgb(0,178,178)" stroke-width="0.1"/>
  <path d="M 89.0,12.5 L 82.0,12.5" fill="none" instance-id="-1" semantic-id="1" stroke="rgb(0,178,178)" stroke-width="0.1"/>
  <path d="M 82.0,12.5 L 82.0,10.5" fill="none" instance-id="-1" semantic-id="1" stroke="rgb(0,178,178)" stroke-width="0.1"/>
  <path d="M 82.0,10.5 L 87.0,10.5" fill="none" instance-id="-1" semantic-id="1" stroke="rgb(0,178,178)" stroke-width="0.1"/>
  <path d="M 47.0,10.5 L 52.0,10.5" fill="none" instance-id="-1" semantic-id="1" stroke="rgb(0,178,178)" stroke-width="0.1"/>
  <path d="M 52.0,10.5 L 52.0,12.5" fill="none" instance-id="-1" semantic-id="1" stroke="rgb(0,178,178)" stroke-width="0.1"/>
  <path d="M 52.0,12.5 L 47.0,12.5" fill="none" instance-id="-1" semantic-id="1" stroke="rgb(0,178,178)" stroke-width="0.1"/>
  <path d="M 89.0,12.5 L 89.0,7.5" fill="none" instance-id="-1" semantic-id="1" stroke="rgb(0,178,178)" stroke-width="0.1"/>
  <path d="M 87.0,10.5 L 87.0,6.5" fill="none" instance-id="-1" semantic-id="1" stroke="rgb(0,178,178)" stroke-width="0.1"/>
  <path d="M 47.0,10.5 L 47.0,0.0" fill="none" instance-id="-1" semantic-id="1" stroke="rgb(0,178,178)" stroke-width="0.1"/>
  <path d="M 45.0,10.5 L 45.0,0.0" fill="none" instance-id="-1" semantic-id="1" stroke="rgb(0,178,178)" stroke-width="0.1"/>
  <path d="M 3.0,7.5 L 0.0,7.5" fill="none" instance-id="-1" semantic-id="1" stroke="rgb(0,178,178)" stroke-width="0.1"/>
  <path d="M 0.0,5.5 L 4.0,5.5" fill="none" instance-id="-1" semantic-id="1" stroke="rgb(0,178,178)" stroke-width="0.1"/>
  <path d="M 5.0,6.5 L 5.0,0.0" fill="none" instance-id="-1" semantic-id="1" stroke="rgb(0,178,178)" stroke-width="0.1"/>
  <path d="M 4.0,5.5 L 4.0,0.0" fill="none" instance-id="-1" semantic-id="1" stroke="rgb(0,178,178)" stroke-width="0.1"/>
  <path d="M 5.0,10.5 L 10.0,10.5" fill="none" instance-id="-1" semantic-id="1" stroke="rgb(0,178,178)" stroke-width="0.1"/>
  <path d="M 10.0,10.5 L 10.0,12.5" fill="none" instance-id="-1" semantic-id="1" stroke="rgb(0,178,178)" stroke-width="0.1"/>
  <path d="M 10.0,12.5 L 3.0,12.5" fill="none" instance-id="-1" semantic-id="1" stroke="rgb(0,178,178)" stroke-width="0.1"/>
  <path d="M 45.0,12.5 L 40.0,12.5" fill="none" instance-id="-1" semantic-id="1" stroke="rgb(0,178,178)" stroke-width="0.1"/>
  <path d="M 40.0,12.5 L 40.0,10.5" fill="none" instance-id="-1" semantic-id="1" stroke="rgb(0,178,178)" stroke-width="0.1"/>
  <path d="M 40.0,10.5 L 45.0,10.5" fill="none" instance-id="-1" semantic-id="1" stroke="rgb(0,178,178)" stroke-width="0.1"/>
  <path d="M 5.0,10.5 L 5.0,6.5" fill="none" instance-id="-1" semantic-id="1" stroke="rgb(0,178,178)" stroke-width="0.1"/>
  <path d="M 3.0,12.5 L 3.0,7.5" fill="none" instance-id="-1" semantic-id="1" stroke="rgb(0,178,178)" stroke-width="0.1"/>
 </g>
 <g id="layerS38-13$0$A-WINDOW" inkscape:groupmode="layer" inkscape:label="S38-13$0$A-WINDOW">
  <path d="M 100.0,7.5 L 94.0,7.5" fill="none" stroke="rgb(0,178,0)" stroke-width="0.1"/>
  <path d="M 100.0,6.840000000000003 L 94.0,6.840000000000003" fill="none" stroke="rgb(0,178,0)" stroke-width="0.1"/>
  <path d="M 82.0,12.5 L 52.0,12.5" fill="none" instance-id="20" semantic-id="5" stroke="rgb(0,178,0)" stroke-width="0.1"/>
  <path d="M 10.0,12.5 L 40.0,12.5" fill="none" instance-id="19" semantic-id="5" stroke="rgb(0,178,0)" stroke-width="0.1"/>
  <path d="M 100.0,5.5 L 94.0,5.5" fill="none" stroke="rgb(0,178,0)" stroke-width="0.1"/>
  <path d="M 100.0,6.159999999999997 L 94.0,6.159999999999997" fill="none" stroke="rgb(0,178,0)" stroke-width="0.1"/>
  <path d="M 52.0,11.5 L 52.0,11.88900000000001" fill="none" instance-id="20" semantic-id="5" stroke="rgb(0,178,0)" stroke-width="0.1"/>
  <path d="M 72.57,11.872000000000014 L 68.11099999999999,11.872000000000014" fill="none" instance-id="20" semantic-id="5" stroke="rgb(0,178,0)" stroke-width="0.1"/>
  <path d="M 68.11099999999999,11.872000000000014 L 70.05600000000001,12.016999999999996" fill="none" instance-id="20" semantic-id="5" stroke="rgb(0,178,0)" stroke-width="0.1"/>
  <path d="M 70.05600000000001,12.016999999999996 L 70.05600000000001,11.872000000000014" fill="none" stroke="rgb(0,178,0)" stroke-width="0.1"/>
  <path d="M 75.625,11.5 L 75.625,11.192000000000007" fill="none" instance-id="20" semantic-id="5" stroke="rgb(0,178,0)" stroke-width="0.1"/>
  <path d="M 67.0,11.5 L 75.625,11.5" fill="none" instance-id="20" semantic-id="5" stroke="rgb(0,178,0)" stroke-width="0.1"/>
  <path d="M 67.0,11.192000000000007 L 67.0,11.5" fill="none" instance-id="20" semantic-id="5" stroke="rgb(0,178,0)" stroke-width="0.1"/>
  <path d="M 75.625,11.192000000000007 L 67.0,11.192000000000007" fill="none" instance-id="20" semantic-id="5" stroke="rgb(0,178,0)" stroke-width="0.1"/>
  <path d="M 82.0,11.779999999999973 L 82.0,11.5" fill="none" instance-id="20" semantic-id="5" stroke="rgb(0,178,0)" stroke-width="0.1"/>
  <path d="M 73.56200000000001,11.779999999999973 L 82.0,11.779999999999973" fill="none" instance-id="20" semantic-id="5" stroke="rgb(0,178,0)" stroke-width="0.1"/>
  <path d="M 73.56200000000001,11.5 L 73.56200000000001,11.779999999999973" fill="none" instance-id="20" semantic-id="5" stroke="rgb(0,178,0)" stroke-width="0.1"/>
  <path d="M 82.0,11.5 L 73.56200000000001,11.5" fill="none" instance-id="20" semantic-id="5" stroke="rgb(0,178,0)" stroke-width="0.1"/>
  <path d="M 61.43000000000001,11.872000000000014 L 65.88900000000001,11.872000000000014" fill="none" instance-id="20" semantic-id="5" stroke="rgb(0,178,0)" stroke-width="0.1"/>
  <path d="M 65.88900000000001,11.872000000000014 L 63.94399999999999,12.016999999999996" fill="none" instance-id="20" semantic-id="5" stroke="rgb(0,178,0)" stroke-width="0.1"/>
  <path d="M 63.94399999999999,12.016999999999996 L 63.94399999999999,11.872000000000014" fill="none" stroke="rgb(0,178,0)" stroke-width="0.1"/>
  <path d="M 58.375,11.5 L 58.375,11.192000000000007" fill="none" instance-id="20" semantic-id="5" stroke="rgb(0,178,0)" stroke-width="0.1"/>
  <path d="M 67.0,11.5 L 58.375,11.5" fill="none" instance-id="20" semantic-id="5" stroke="rgb(0,178,0)" stroke-width="0.1"/>
  <path d="M 58.375,11.192000000000007 L 67.0,11.192000000000007" fill="none" instance-id="20" semantic-id="5" stroke="rgb(0,178,0)" stroke-width="0.1"/>
  <path d="M 52.0,11.779999999999973 L 52.0,11.5" fill="none" instance-id="20" semantic-id="5" stroke="rgb(0,178,0)" stroke-width="0.1"/>
  <path d="M 60.43799999999999,11.779999999999973 L 52.0,11.779999999999973" fill="none" instance-id="20" semantic-id="5" stroke="rgb(0,178,0)" stroke-width="0.1"/>
  <path d="M 60.43799999999999,11.5 L 60.43799999999999,11.779999999999973" fill="none" instance-id="20" semantic-id="5" stroke="rgb(0,178,0)" stroke-width="0.1"/>
  <path d="M 52.0,11.5 L 60.43799999999999,11.5" fill="none" instance-id="20" semantic-id="5" stroke="rgb(0,178,0)" stroke-width="0.1"/>
  <path d="M 40.0,11.5 L 40.0,11.88900000000001" fill="none" instance-id="19" semantic-id="5" stroke="rgb(0,178,0)" stroke-width="0.1"/>
  <path d="M 19.430000000000007,11.872000000000014 L 23.88900000000001,11.872000000000014" fill="none" instance-id="19" semantic-id="5" stroke="rgb(0,178,0)" stroke-width="0.1"/>
  <path d="M 23.88900000000001,11.872000000000014 L 21.94399999999999,12.016999999999996" fill="none" instance-id="19" semantic-id="5" stroke="rgb(0,178,0)" stroke-width="0.1"/>
  <path d="M 21.94399999999999,12.016999999999996 L 21.94399999999999,11.872000000000014" fill="none" stroke="rgb(0,178,0)" stroke-width="0.1"/>
  <path d="M 16.375,11.5 L 16.375,11.192000000000007" fill="none" instance-id="19" semantic-id="5" stroke="rgb(0,178,0)" stroke-width="0.1"/>
  <path d="M 25.0,11.5 L 16.375,11.5" fill="none" instance-id="19" semantic-id="5" stroke="rgb(0,178,0)" stroke-width="0.1"/>
  <path d="M 25.0,11.192000000000007 L 25.0,11.5" fill="none" instance-id="19" semantic-id="5" stroke="rgb(0,178,0)" stroke-width="0.1"/>
  <path d="M 16.375,11.192000000000007 L 25.0,11.192000000000007" fill="none" instance-id="19" semantic-id="5" stroke="rgb(0,178,0)" stroke-width="0.1"/>
  <path d="M 10.0,11.779999999999973 L 10.0,11.5" fill="none" instance-id="19" semantic-id="5" stroke="rgb(0,178,0)" stroke-width="0.1"/>
  <path d="M 18.437999999999988,11.779999999999973 L 10.0,11.779999999999973" fill="none" instance-id="19" semantic-id="5" stroke="rgb(0,178,0)" stroke-width="0.1"/>
  <path d="M 18.437999999999988,11.5 L 18.437999999999988,11.779999999999973" fill="none" instance-id="19" semantic-id="5" stroke="rgb(0,178,0)" stroke-width="0.1"/>
  <path d="M 10.0,11.5 L 18.437999999999988,11.5" fill="none" instance-id="19" semantic-id="5" stroke="rgb(0,178,0)" stroke-width="0.1"/>
  <path d="M 30.569999999999993,11.872000000000014 L 26.11099999999999,11.872000000000014" fill="none" instance-id="19" semantic-id="5" stroke="rgb(0,178,0)" stroke-width="0.1"/>
  <path d="M 26.11099999999999,11.872000000000014 L 28.05600000000001,12.016999999999996" fill="none" instance-id="19" semantic-id="5" stroke="rgb(0,178,0)" stroke-width="0.1"/>
  <path d="M 28.05600000000001,12.016999999999996 L 28.05600000000001,11.872000000000014" fill="none" stroke="rgb(0,178,0)" stroke-width="0.1"/>
  <path d="M 33.625,11.5 L 33.625,11.192000000000007" fill="none" instance-id="19" semantic-id="5" stroke="rgb(0,178,0)" stroke-width="0.1"/>
  <path d="M 25.0,11.5 L 33.625,11.5" fill="none" instance-id="19" semantic-id="5" stroke="rgb(0,178,0)" stroke-width="0.1"/>
  <path d="M 33.625,11.192000000000007 L 25.0,11.192000000000007" fill="none" instance-id="19" semantic-id="5" stroke="rgb(0,178,0)" stroke-width="0.1"/>
  <path d="M 40.0,11.779999999999973 L 40.0,11.5" fill="none" instance-id="19" semantic-id="5" stroke="rgb(0,178,0)" stroke-width="0.1"/>
  <path d="M 31.562000000000012,11.779999999999973 L 40.0,11.779999999999973" fill="none" instance-id="19" semantic-id="5" stroke="rgb(0,178,0)" stroke-width="0.1"/>
  <path d="M 31.562000000000012,11.5 L 31.562000000000012,11.779999999999973" fill="none" instance-id="19" semantic-id="5" stroke="rgb(0,178,0)" stroke-width="0.1"/>
  <path d="M 40.0,11.5 L 31.562000000000012,11.5" fill="none" instance-id="19" semantic-id="5" stroke="rgb(0,178,0)" stroke-width="0.1"/>
 </g>
</svg>