<?xml version="1.0" encoding="utf-8"?>
<svg style="background-color: #000;" version="1.1" viewBox="0 0 100.0 100.0" xmlns="http://www.w3.org/2000/svg" xmlns:inkscape="http://www.inkscape.org/namespaces/inkscape">
 <g id="layerA-AXIS" inkscape:groupmode="layer" inkscape:label="A-AXIS">
  <path d="M 13.5,77.5 L 13.5,100.0" fill="none" stroke="rgb(160,53,53)" stroke-width="0.1"/>
  <path d="M 52.5,77.5 L 52.5,100.0" fill="none" stroke="rgb(160,53,53)" stroke-width="0.1"/>
  <path d="M 55.5,77.5 L 55.5,100.0" fill="none" stroke="rgb(160,53,53)" stroke-width="0.1"/>
  <path d="M 94.5,77.5 L 94.5,100.0" fill="none" stroke="rgb(160,53,53)" stroke-width="0.1"/>
  <path d="M 94.5,80.5 L 94.5,100.0" fill="none" stroke="rgb(160,53,53)" stroke-width="0.1"/>
  <path d="M 55.5,80.5 L 55.5,100.0" fill="none" stroke="rgb(160,53,53)" stroke-width="0.1"/>
  <path d="M 94.5,80.5 L 94.5,100.0" fill="none" stroke="rgb(160,53,53)" stroke-width="0.1"/>
  <path d="M 52.5,80.5 L 52.5,100.0" fill="none" stroke="rgb(160,53,53)" stroke-width="0.1"/>
  <path d="M 55.5,80.5 L 55.5,100.0" fill="none" stroke="rgb(160,53,53)" stroke-width="0.1"/>
  <path d="M 13.5,80.5 L 13.5,100.0" fill="none" stroke="rgb(160,53,53)" stroke-width="0.1"/>
  <path d="M 52.5,80.5 L 52.5,100.0" fill="none" stroke="rgb(160,53,53)" stroke-width="0.1"/>
  <path d="M 13.5,80.5 L 13.5,100.0" fill="none" stroke="rgb(160,53,53)" stroke-width="0.1"/>
  <text fill="rgb(160,53,53)" font-family="Noto Sans CJK SC" font-size="2" transform="rotate(-0.0,50.571000000000026,98.32499999999999)" x="50.571000000000026" y="98.32499999999999">
   300
  </text>
 </g>
 <g id="layerA-DOTE" inkscape:groupmode="layer" inkscape:label="A-DOTE">
  <path d="M 100.0,27.5 L 0.0,27.5" fill="none" stroke="rgb(178,0,0)" stroke-width="0.1"/>
  <path d="M 52.5,0.0 L 52.5,77.5" fill="none" stroke="rgb(178,0,0)" stroke-width="0.1"/>
  <path d="M 13.5,0.0 L 13.5,77.5" fill="none" stroke="rgb(178,0,0)" stroke-width="0.1"/>
  <path d="M 100.0,6.5 L 0.0,6.5" fill="none" stroke="rgb(178,0,0)" stroke-width="0.1"/>
  <path d="M 100.0,11.5 L 0.0,11.5" fill="none" stroke="rgb(178,0,0)" stroke-width="0.1"/>
  <path d="M 100.0,9.5 L 0.0,9.5" fill="none" stroke="rgb(178,0,0)" stroke-width="0.1"/>
  <path d="M 55.5,0.0 L 55.5,77.5" fill="none" stroke="rgb(178,0,0)" stroke-width="0.1"/>
  <path d="M 94.5,0.0 L 94.5,77.5" fill="none" stroke="rgb(178,0,0)" stroke-width="0.1"/>
 </g>
 <g id="layerA-SPACE" inkscape:groupmode="layer" inkscape:label="A-SPACE">
  <text fill="rgb(0,0,0)" font-family="Noto Sans CJK SC" font-size="2" transform="rotate(-0.0,28.629999999999995,12.954000000000008)" x="28.629999999999995" y="12.954000000000008">
   飘窗
  </text>
  <text fill="rgb(0,0,0)" font-family="Noto Sans CJK SC" font-size="2" transform="rotate(-0.0,72.13,12.954000000000008)" x="72.13" y="12.954000000000008">
   飘窗
  </text>
  <text fill="rgb(0,0,0)" font-family="Noto Sans CJK SC" font-size="2" transform="rotate(-0.0,35.629999999999995,12.954000000000008)" x="35.629999999999995" y="12.954000000000008">
   W1
  </text>
  <text fill="rgb(0,0,0)" font-family="Noto Sans CJK SC" font-size="2" transform="rotate(-0.0,79.13,12.954000000000008)" x="79.13" y="12.954000000000008">
   W1
  </text>
 </g>
 <g id="layerA-下层看线" inkscape:groupmode="layer" inkscape:label="A-下层看线">
  <path d="M 53.5,32.5 L 53.5,39.5" fill="none" stroke="rgb(89,89,89)" stroke-width="0.1"/>
  <path d="M 53.5,39.5 L 52.5,39.5" fill="none" stroke="rgb(89,89,89)" stroke-width="0.1"/>
  <path d="M 54.5,32.5 L 54.5,39.5" fill="none" stroke="rgb(89,89,89)" stroke-width="0.1"/>
  <path d="M 54.5,39.5 L 55.5,39.5" fill="none" stroke="rgb(89,89,89)" stroke-width="0.1"/>
 </g>
 <g id="layerDIM_SYMB" inkscape:groupmode="layer" inkscape:label="DIM_SYMB">
  <path d="M 1.8929999999999723,14.470000000000027 L 1.8929999999999723,20.291999999999973" fill="none" stroke="rgb(0,178,0)" stroke-width="0.1"/>
  <path d="M 1.8929999999999723,20.291999999999973 L 1.8929999999999723,23.291999999999973" fill="none" stroke="rgb(0,178,0)" stroke-width="0.1"/>
 </g>
 <g id="layerHATCH" inkscape:groupmode="layer" inkscape:label="HATCH">
  <path d="M 53.5,10.5 L 53.5,5.5" fill="none" instance-id="-1" semantic-id="1" stroke="rgb(89,89,89)" stroke-width="0.1"/>
  <path d="M 53.5,5.5 L 51.5,5.5" fill="none" instance-id="-1" semantic-id="1" stroke="rgb(89,89,89)" stroke-width="0.1"/>
  <path d="M 51.5,5.5 L 51.5,8.5" fill="none" instance-id="-1" semantic-id="1" stroke="rgb(89,89,89)" stroke-width="0.1"/>
  <path d="M 51.5,8.5 L 48.5,8.5" fill="none" instance-id="-1" semantic-id="1" stroke="rgb(89,89,89)" stroke-width="0.1"/>
  <path d="M 48.5,8.5 L 48.5,10.5" fill="none" instance-id="-1" semantic-id="1" stroke="rgb(89,89,89)" stroke-width="0.1"/>
  <path d="M 48.5,10.5 L 53.5,10.5" fill="none" instance-id="-1" semantic-id="1" stroke="rgb(89,89,89)" stroke-width="0.1"/>
  <path d="M 14.5,10.5 L 14.5,5.5" fill="none" instance-id="-1" semantic-id="1" stroke="rgb(89,89,89)" stroke-width="0.1"/>
  <path d="M 14.5,5.5 L 7.5,5.5" fill="none" instance-id="-1" semantic-id="1" stroke="rgb(89,89,89)" stroke-width="0.1"/>
  <path d="M 7.5,5.5 L 7.5,7.5" fill="none" instance-id="-1" semantic-id="1" stroke="rgb(89,89,89)" stroke-width="0.1"/>
  <path d="M 7.5,7.5 L 12.5,7.5" fill="none" instance-id="-1" semantic-id="1" stroke="rgb(89,89,89)" stroke-width="0.1"/>
  <path d="M 12.5,7.5 L 12.5,10.5" fill="none" instance-id="-1" semantic-id="1" stroke="rgb(89,89,89)" stroke-width="0.1"/>
  <path d="M 12.5,10.5 L 14.5,10.5" fill="none" instance-id="-1" semantic-id="1" stroke="rgb(89,89,89)" stroke-width="0.1"/>
  <path d="M 93.5,10.5 L 95.5,10.5" fill="none" instance-id="-1" semantic-id="1" stroke="rgb(89,89,89)" stroke-width="0.1"/>
  <path d="M 95.5,10.5 L 95.5,7.5" fill="none" instance-id="-1" semantic-id="1" stroke="rgb(89,89,89)" stroke-width="0.1"/>
  <path d="M 95.5,7.5 L 100.0,7.5" fill="none" instance-id="-1" semantic-id="1" stroke="rgb(89,89,89)" stroke-width="0.1"/>
  <path d="M 100.0,5.5 L 93.5,5.5" fill="none" instance-id="-1" semantic-id="1" stroke="rgb(89,89,89)" stroke-width="0.1"/>
  <path d="M 93.5,5.5 L 93.5,10.5" fill="none" instance-id="-1" semantic-id="1" stroke="rgb(89,89,89)" stroke-width="0.1"/>
  <path d="M 54.5,10.5 L 59.5,10.5" fill="none" instance-id="-1" semantic-id="1" stroke="rgb(89,89,89)" stroke-width="0.1"/>
  <path d="M 59.5,10.5 L 59.5,8.5" fill="none" instance-id="-1" semantic-id="1" stroke="rgb(89,89,89)" stroke-width="0.1"/>
  <path d="M 59.5,8.5 L 56.5,8.5" fill="none" instance-id="-1" semantic-id="1" stroke="rgb(89,89,89)" stroke-width="0.1"/>
  <path d="M 56.5,8.5 L 56.5,5.5" fill="none" instance-id="-1" semantic-id="1" stroke="rgb(89,89,89)" stroke-width="0.1"/>
  <path d="M 56.5,5.5 L 54.5,5.5" fill="none" instance-id="-1" semantic-id="1" stroke="rgb(89,89,89)" stroke-width="0.1"/>
  <path d="M 54.5,5.5 L 54.5,10.5" fill="none" instance-id="-1" semantic-id="1" stroke="rgb(89,89,89)" stroke-width="0.1"/>
 </g>
 <g id="layerPUB_TEXT" inkscape:groupmode="layer" inkscape:label="PUB_TEXT">
  <text fill="rgb(0,0,0)" font-family="Noto Sans CJK SC" font-size="2" transform="rotate(-0.0,0.30000000000001137,13.468999999999994)" x="0.30000000000001137" y="13.468999999999994">
   15%%d
  </text>
 </g>
 <g id="layerS-shearwall" inkscape:groupmode="layer" inkscape:label="S-shearwall">
  <path d="M 53.5,10.5 L 48.5,10.5" fill="none" instance-id="-1" semantic-id="1" stroke="rgb(0,178,178)" stroke-width="0.1"/>
  <path d="M 48.5,10.5 L 48.5,8.5" fill="none" instance-id="-1" semantic-id="1" stroke="rgb(0,178,178)" stroke-width="0.1"/>
  <path d="M 48.5,8.5 L 51.5,8.5" fill="none" instance-id="-1" semantic-id="1" stroke="rgb(0,178,178)" stroke-width="0.1"/>
  <path d="M 51.5,8.5 L 51.5,5.5" fill="none" instance-id="-1" semantic-id="1" stroke="rgb(0,178,178)" stroke-width="0.1"/>
  <path d="M 51.5,5.5 L 53.5,5.5" fill="none" instance-id="-1" semantic-id="1" stroke="rgb(0,178,178)" stroke-width="0.1"/>
  <path d="M 53.5,5.5 L 53.5,10.5" fill="none" instance-id="-1" semantic-id="1" stroke="rgb(0,178,178)" stroke-width="0.1"/>
  <path d="M 14.5,10.5 L 12.5,10.5" fill="none" instance-id="-1" semantic-id="1" stroke="rgb(0,178,178)" stroke-width="0.1"/>
  <path d="M 12.5,10.5 L 12.5,7.5" fill="none" instance-id="-1" semantic-id="1" stroke="rgb(0,178,178)" stroke-width="0.1"/>
  <path d="M 12.5,7.5 L 7.5,7.5" fill="none" instance-id="-1" semantic-id="1" stroke="rgb(0,178,178)" stroke-width="0.1"/>
  <path d="M 7.5,7.5 L 7.5,5.5" fill="none" instance-id="-1" semantic-id="1" stroke="rgb(0,178,178)" stroke-width="0.1"/>
  <path d="M 7.5,5.5 L 14.5,5.5" fill="none" instance-id="-1" semantic-id="1" stroke="rgb(0,178,178)" stroke-width="0.1"/>
  <path d="M 14.5,5.5 L 14.5,10.5" fill="none" instance-id="-1" semantic-id="1" stroke="rgb(0,178,178)" stroke-width="0.1"/>
  <path d="M 93.5,10.5 L 95.5,10.5" fill="none" instance-id="-1" semantic-id="1" stroke="rgb(0,178,178)" stroke-width="0.1"/>
  <path d="M 95.5,10.5 L 95.5,7.5" fill="none" instance-id="-1" semantic-id="1" stroke="rgb(0,178,178)" stroke-width="0.1"/>
  <path d="M 95.5,7.5 L 100.0,7.5" fill="none" instance-id="-1" semantic-id="1" stroke="rgb(0,178,178)" stroke-width="0.1"/>
  <path d="M 100.0,5.5 L 93.5,5.5" fill="none" instance-id="-1" semantic-id="1" stroke="rgb(0,178,178)" stroke-width="0.1"/>
  <path d="M 93.5,5.5 L 93.5,10.5" fill="none" instance-id="-1" semantic-id="1" stroke="rgb(0,178,178)" stroke-width="0.1"/>
  <path d="M 54.5,10.5 L 59.5,10.5" fill="none" instance-id="-1" semantic-id="1" stroke="rgb(0,178,178)" stroke-width="0.1"/>
  <path d="M 59.5,10.5 L 59.5,8.5" fill="none" instance-id="-1" semantic-id="1" stroke="rgb(0,178,178)" stroke-width="0.1"/>
  <path d="M 59.5,8.5 L 56.5,8.5" fill="none" instance-id="-1" semantic-id="1" stroke="rgb(0,178,178)" stroke-width="0.1"/>
  <path d="M 56.5,8.5 L 56.5,5.5" fill="none" instance-id="-1" semantic-id="1" stroke="rgb(0,178,178)" stroke-width="0.1"/>
  <path d="M 56.5,5.5 L 54.5,5.5" fill="none" instance-id="-1" semantic-id="1" stroke="rgb(0,178,178)" stroke-width="0.1"/>
  <path d="M 54.5,5.5 L 54.5,10.5" fill="none" instance-id="-1" semantic-id="1" stroke="rgb(0,178,178)" stroke-width="0.1"/>
 </g>
 <g id="layerS38-13$0$0-水" inkscape:groupmode="layer" inkscape:label="S38-13$0$0-水">
  <path d="M 96.05100000000004,10.286000000000001 L 96.28800000000001,10.048000000000002" fill="none" stroke="rgb(178,0,178)" stroke-width="0.1"/>
  <path d="M 96.05700000000002,10.728000000000009 L 96.72900000000004,10.056000000000012" fill="none" stroke="rgb(178,0,178)" stroke-width="0.1"/>
  <path d="M 96.28399999999999,10.949999999999989 L 96.94899999999996,10.284999999999997" fill="none" stroke="rgb(178,0,178)" stroke-width="0.1"/>
  <path d="M 96.75599999999997,10.927000000000021 L 96.92999999999995,10.752999999999986" fill="none" stroke="rgb(178,0,178)" stroke-width="0.1"/>
  <path d="M 96.0,10.5 A 0.5,0.5 0.0 1,0 97.0,10.5" fill="none" stroke="rgb(178,0,178)" stroke-width="0.1"/>
  <path d="M 97.0,10.5 A 0.5,0.5 0.0 1,0 96.0,10.5" fill="none" stroke="rgb(178,0,178)" stroke-width="0.1"/>
  <path d="M 11.007999999999981,10.58499999999998 L 11.584000000000003,10.008999999999986" fill="none" stroke="rgb(178,0,178)" stroke-width="0.1"/>
  <path d="M 11.168999999999983,10.872000000000014 L 11.87299999999999,10.168000000000006" fill="none" stroke="rgb(178,0,178)" stroke-width="0.1"/>
  <path d="M 11.492999999999995,10.99799999999999 L 11.999000000000024,10.49199999999999" fill="none" stroke="rgb(178,0,178)" stroke-width="0.1"/>
  <path d="M 12.0,10.5 A 0.5,0.5 0.0 1,0 11.0,10.5" fill="none" stroke="rgb(178,0,178)" stroke-width="0.1"/>
  <path d="M 11.0,10.5 A 0.5,0.5 0.0 1,0 12.0,10.5" fill="none" stroke="rgb(178,0,178)" stroke-width="0.1"/>
  <circle cx="96.5" cy="10.5" fill="none" r="0.5" stroke="rgb(178,0,178)" stroke-width="0.1"/>
  <circle cx="11.5" cy="10.5" fill="none" r="0.5" stroke="rgb(178,0,178)" stroke-width="0.1"/>
 </g>
 <g id="layerS38-13$0$A-FURNITURE" inkscape:groupmode="layer" inkscape:label="S38-13$0$A-FURNITURE">
  <path d="M 61.072,1.4259999999999877 L 57.51599999999996,1.4259999999999877" fill="none" stroke="rgb(92,92,92)" stroke-width="0.1"/>
  <path d="M 57.51599999999996,1.4259999999999877 L 57.51599999999996,0.0" fill="none" stroke="rgb(92,92,92)" stroke-width="0.1"/>
  <path d="M 61.072,0.0 L 61.072,1.4259999999999877" fill="none" stroke="rgb(92,92,92)" stroke-width="0.1"/>
  <path d="M 61.58000000000004,2.5 L 61.58000000000004,0.0" fill="none" stroke="rgb(92,92,92)" stroke-width="0.1"/>
  <path d="M 63.35799999999995,2.5 L 63.35799999999995,0.0" fill="none" stroke="rgb(92,92,92)" stroke-width="0.1"/>
  <path d="M 57.00800000000004,0.0 L 57.00800000000004,2.5" fill="none" stroke="rgb(92,92,92)" stroke-width="0.1"/>
  <path d="M 59.519000000000005,2.859000000000009 L 59.519000000000005,8.258999999999986" fill="none" instance-id="17" semantic-id="19" stroke="rgb(92,92,92)" stroke-width="0.1"/>
  <path d="M 56.81899999999996,5.5589999999999975 L 62.21900000000005,5.5589999999999975" fill="none" instance-id="17" semantic-id="19" stroke="rgb(92,92,92)" stroke-width="0.1"/>
  <path d="M 88.02800000000002,5.978000000000009 L 88.02800000000002,1.3400000000000034" fill="none" instance-id="9" semantic-id="15" stroke="rgb(92,92,92)" stroke-width="0.1"/>
  <path d="M 88.13800000000003,6.123999999999995 L 84.01599999999996,5.689999999999998" fill="none" instance-id="9" semantic-id="15" stroke="rgb(92,92,92)" stroke-width="0.1"/>
  <path d="M 83.70100000000002,6.0020000000000095 L 88.082,6.460000000000008" fill="none" instance-id="9" semantic-id="15" stroke="rgb(92,92,92)" stroke-width="0.1"/>
  <path d="M 88.22799999999995,6.340000000000003 L 88.22799999999995,6.223000000000013" fill="none" stroke="rgb(92,92,92)" stroke-width="0.1"/>
  <path d="M 88.13800000000003,1.1939999999999884 L 84.01599999999996,1.627999999999986" fill="none" instance-id="9" semantic-id="15" stroke="rgb(92,92,92)" stroke-width="0.1"/>
  <path d="M 83.70100000000002,1.3160000000000025 L 88.082,0.8580000000000041" fill="none" instance-id="9" semantic-id="15" stroke="rgb(92,92,92)" stroke-width="0.1"/>
  <path d="M 88.22799999999995,1.093999999999994 L 88.22799999999995,0.9770000000000039" fill="none" stroke="rgb(92,92,92)" stroke-width="0.1"/>
  <path d="M 83.49800000000005,6.188999999999993 L 83.98299999999995,5.74199999999999" fill="none" instance-id="9" semantic-id="15" stroke="rgb(92,92,92)" stroke-width="0.1"/>
  <path d="M 83.98299999999995,1.5759999999999934 L 83.49800000000005,1.1289999999999907" fill="none" instance-id="9" semantic-id="15" stroke="rgb(92,92,92)" stroke-width="0.1"/>
  <path d="M 46.928,1.4259999999999877 L 50.48399999999998,1.4259999999999877" fill="none" stroke="rgb(92,92,92)" stroke-width="0.1"/>
  <path d="M 50.48399999999998,1.4259999999999877 L 50.48399999999998,0.0" fill="none" stroke="rgb(92,92,92)" stroke-width="0.1"/>
  <path d="M 46.928,0.0 L 46.928,1.4259999999999877" fill="none" stroke="rgb(92,92,92)" stroke-width="0.1"/>
  <path d="M 46.420000000000016,2.5 L 46.420000000000016,0.0" fill="none" stroke="rgb(92,92,92)" stroke-width="0.1"/>
  <path d="M 44.641999999999996,2.5 L 44.641999999999996,0.0" fill="none" stroke="rgb(92,92,92)" stroke-width="0.1"/>
  <path d="M 50.99199999999996,0.0 L 50.99199999999996,2.5" fill="none" stroke="rgb(92,92,92)" stroke-width="0.1"/>
  <path d="M 48.480999999999995,2.859000000000009 L 48.480999999999995,8.258999999999986" fill="none" instance-id="16" semantic-id="19" stroke="rgb(92,92,92)" stroke-width="0.1"/>
  <path d="M 51.18100000000004,5.5589999999999975 L 45.781000000000006,5.5589999999999975" fill="none" instance-id="16" semantic-id="19" stroke="rgb(92,92,92)" stroke-width="0.1"/>
  <path d="M 19.97199999999998,5.978000000000009 L 19.97199999999998,1.3400000000000034" fill="none" instance-id="6" semantic-id="15" stroke="rgb(92,92,92)" stroke-width="0.1"/>
  <path d="M 19.862000000000023,6.123999999999995 L 23.98399999999998,5.689999999999998" fill="none" instance-id="6" semantic-id="15" stroke="rgb(92,92,92)" stroke-width="0.1"/>
  <path d="M 24.298999999999978,6.0020000000000095 L 19.918000000000006,6.460000000000008" fill="none" instance-id="6" semantic-id="15" stroke="rgb(92,92,92)" stroke-width="0.1"/>
  <path d="M 19.77199999999999,6.340000000000003 L 19.77199999999999,6.223000000000013" fill="none" stroke="rgb(92,92,92)" stroke-width="0.1"/>
  <path d="M 19.862000000000023,1.1939999999999884 L 23.98399999999998,1.627999999999986" fill="none" instance-id="6" semantic-id="15" stroke="rgb(92,92,92)" stroke-width="0.1"/>
  <path d="M 24.298999999999978,1.3160000000000025 L 19.918000000000006,0.8580000000000041" fill="none" instance-id="6" semantic-id="15" stroke="rgb(92,92,92)" stroke-width="0.1"/>
  <path d="M 19.77199999999999,1.093999999999994 L 19.77199999999999,0.9770000000000039" fill="none" stroke="rgb(92,92,92)" stroke-width="0.1"/>
  <path d="M 24.50200000000001,6.188999999999993 L 24.016999999999996,5.74199999999999" fill="none" instance-id="6" semantic-id="15" stroke="rgb(92,92,92)" stroke-width="0.1"/>
  <path d="M 24.016999999999996,1.5759999999999934 L 24.50200000000001,1.1289999999999907" fill="none" instance-id="6" semantic-id="15" stroke="rgb(92,92,92)" stroke-width="0.1"/>
  <path d="M 61.072,1.4259999999999877 A 6.35,6.35 0.0 0,0 57.51599999999996,1.4259999999999877" fill="none" stroke="rgb(92,92,92)" stroke-width="0.1"/>
  <path d="M 88.22799999999995,6.223000000000013 A 0.1,0.1 0.0 0,0 88.13800000000003,6.123999999999995" fill="none" stroke="rgb(92,92,92)" stroke-width="0.1"/>
  <path d="M 87.88199999999995,6.097000000000008 A 0.132,0.132 0.0 0,0 88.02800000000002,5.978000000000009" fill="none" instance-id="9" semantic-id="15" stroke="rgb(92,92,92)" stroke-width="0.1"/>
  <path d="M 88.082,6.460000000000008 A 0.132,0.132 0.0 0,0 88.22799999999995,6.340000000000003" fill="none" instance-id="9" semantic-id="15" stroke="rgb(92,92,92)" stroke-width="0.1"/>
  <path d="M 88.13800000000003,1.1939999999999884 A 0.1,0.1 0.0 0,0 88.22799999999995,1.093999999999994" fill="none" stroke="rgb(92,92,92)" stroke-width="0.1"/>
  <path d="M 88.02800000000002,1.3400000000000034 A 0.132,0.132 0.0 0,0 87.88199999999995,1.2210000000000036" fill="none" instance-id="9" semantic-id="15" stroke="rgb(92,92,92)" stroke-width="0.1"/>
  <path d="M 88.22799999999995,0.9770000000000039 A 0.132,0.132 0.0 0,0 88.082,0.8580000000000041" fill="none" instance-id="9" semantic-id="15" stroke="rgb(92,92,92)" stroke-width="0.1"/>
  <path d="M 83.98299999999995,1.5759999999999934 A 3.07676,3.07676 0.0 0,0 83.98299999999995,5.74199999999999" fill="none" instance-id="9" semantic-id="15" stroke="rgb(92,92,92)" stroke-width="0.1"/>
  <path d="M 83.96699999999998,5.627999999999986 A 14.3554,14.3554 0.0 0,0 83.96699999999998,1.6899999999999977" fill="none" instance-id="9" semantic-id="15" stroke="rgb(92,92,92)" stroke-width="0.1"/>
  <path d="M 83.49800000000005,1.1289999999999907 A 3.73676,3.73676 0.0 0,0 83.49800000000005,6.188999999999993" fill="none" instance-id="9" semantic-id="15" stroke="rgb(92,92,92)" stroke-width="0.1"/>
  <path d="M 50.48399999999998,1.4259999999999877 A 6.35,6.35 0.0 0,0 46.928,1.4259999999999877" fill="none" stroke="rgb(92,92,92)" stroke-width="0.1"/>
  <path d="M 19.862000000000023,6.123999999999995 A 0.1,0.1 0.0 0,0 19.77199999999999,6.223000000000013" fill="none" stroke="rgb(92,92,92)" stroke-width="0.1"/>
  <path d="M 19.97199999999998,5.978000000000009 A 0.132,0.132 0.0 0,0 20.117999999999995,6.097000000000008" fill="none" instance-id="6" semantic-id="15" stroke="rgb(92,92,92)" stroke-width="0.1"/>
  <path d="M 19.77199999999999,6.340000000000003 A 0.132,0.132 0.0 0,0 19.918000000000006,6.460000000000008" fill="none" instance-id="6" semantic-id="15" stroke="rgb(92,92,92)" stroke-width="0.1"/>
  <path d="M 19.77199999999999,1.093999999999994 A 0.1,0.1 0.0 0,0 19.862000000000023,1.1939999999999884" fill="none" stroke="rgb(92,92,92)" stroke-width="0.1"/>
  <path d="M 20.117999999999995,1.2210000000000036 A 0.132,0.132 0.0 0,0 19.97199999999998,1.3400000000000034" fill="none" instance-id="6" semantic-id="15" stroke="rgb(92,92,92)" stroke-width="0.1"/>
  <path d="M 19.918000000000006,0.8580000000000041 A 0.132,0.132 0.0 0,0 19.77199999999999,0.9770000000000039" fill="none" instance-id="6" semantic-id="15" stroke="rgb(92,92,92)" stroke-width="0.1"/>
  <path d="M 24.016999999999996,5.74199999999999 A 3.07676,3.07676 0.0 0,0 24.016999999999996,1.5759999999999934" fill="none" instance-id="6" semantic-id="15" stroke="rgb(92,92,92)" stroke-width="0.1"/>
  <path d="M 24.033000000000015,1.6899999999999977 A 14.3554,14.3554 0.0 0,0 24.033000000000015,5.627999999999986" fill="none" instance-id="6" semantic-id="15" stroke="rgb(92,92,92)" stroke-width="0.1"/>
  <path d="M 24.50200000000001,6.188999999999993 A 3.73676,3.73676 0.0 0,0 24.50200000000001,1.1289999999999907" fill="none" instance-id="6" semantic-id="15" stroke="rgb(92,92,92)" stroke-width="0.1"/>
  <path d="M 56.5,0.0 L 56.5,2.5" fill="none" stroke="rgb(92,92,92)" stroke-width="0.1"/>
  <path d="M 56.5,2.5 L 57.00800000000004,2.5" fill="none" stroke="rgb(92,92,92)" stroke-width="0.1"/>
  <path d="M 57.00800000000004,2.5 L 57.00800000000004,1.7379999999999995" fill="none" stroke="rgb(92,92,92)" stroke-width="0.1"/>
  <path d="M 57.00800000000004,1.7379999999999995 A 0.762,0.762 0.0 0,0 57.76999999999998,2.5" fill="none" stroke="rgb(92,92,92)" stroke-width="0.1"/>
  <path d="M 57.76999999999998,2.5 L 75.73800000000006,2.5" fill="none" stroke="rgb(92,92,92)" stroke-width="0.1"/>
  <path d="M 75.73800000000006,2.5 A 0.762,0.762 0.0 0,0 76.5,1.7379999999999995" fill="none" stroke="rgb(92,92,92)" stroke-width="0.1"/>
  <path d="M 76.5,1.7379999999999995 L 76.5,0.0" fill="none" stroke="rgb(92,92,92)" stroke-width="0.1"/>
  <path d="M 51.5,0.0 L 51.5,2.5" fill="none" stroke="rgb(92,92,92)" stroke-width="0.1"/>
  <path d="M 51.5,2.5 L 50.99199999999996,2.5" fill="none" instance-id="16" semantic-id="19" stroke="rgb(92,92,92)" stroke-width="0.1"/>
  <path d="M 50.99199999999996,2.5 L 50.99199999999996,1.7379999999999995" fill="none" stroke="rgb(92,92,92)" stroke-width="0.1"/>
  <path d="M 50.23000000000002,2.5 A 0.762,0.762 0.0 0,0 50.99199999999996,1.7379999999999995" fill="none" stroke="rgb(92,92,92)" stroke-width="0.1"/>
  <path d="M 50.23000000000002,2.5 L 32.262,2.5" fill="none" stroke="rgb(92,92,92)" stroke-width="0.1"/>
  <path d="M 31.5,1.7379999999999995 A 0.762,0.762 0.0 0,0 32.262,2.5" fill="none" stroke="rgb(92,92,92)" stroke-width="0.1"/>
  <path d="M 31.5,1.7379999999999995 L 31.5,0.0" fill="none" stroke="rgb(92,92,92)" stroke-width="0.1"/>
  <path d="M 62.5,8.5 L 56.5,8.5" fill="none" instance-id="17" semantic-id="19" stroke="rgb(92,92,92)" stroke-width="0.1"/>
  <path d="M 56.5,8.5 L 56.5,2.5" fill="none" instance-id="17" semantic-id="19" stroke="rgb(92,92,92)" stroke-width="0.1"/>
  <path d="M 56.5,2.5 L 62.5,2.5" fill="none" stroke="rgb(92,92,92)" stroke-width="0.1"/>
  <path d="M 62.5,2.5 L 62.5,8.5" fill="none" instance-id="17" semantic-id="19" stroke="rgb(92,92,92)" stroke-width="0.1"/>
  <path d="M 93.5,8.5 L 93.5,0.0" fill="none" instance-id="10" semantic-id="16" stroke="rgb(92,92,92)" stroke-width="0.1"/>
  <path d="M 89.0,0.0 L 89.0,8.5" fill="none" instance-id="10" semantic-id="16" stroke="rgb(92,92,92)" stroke-width="0.1"/>
  <path d="M 89.0,8.5 L 93.5,8.5" fill="none" instance-id="10" semantic-id="16" stroke="rgb(92,92,92)" stroke-width="0.1"/>
  <path d="M 45.5,8.5 L 51.5,8.5" fill="none" instance-id="16" semantic-id="19" stroke="rgb(92,92,92)" stroke-width="0.1"/>
  <path d="M 51.5,8.5 L 51.5,2.5" fill="none" instance-id="16" semantic-id="19" stroke="rgb(92,92,92)" stroke-width="0.1"/>
  <path d="M 51.5,2.5 L 45.5,2.5" fill="none" instance-id="16" semantic-id="19" stroke="rgb(92,92,92)" stroke-width="0.1"/>
  <path d="M 45.5,2.5 L 45.5,8.5" fill="none" instance-id="16" semantic-id="19" stroke="rgb(92,92,92)" stroke-width="0.1"/>
  <path d="M 14.5,8.5 L 14.5,0.0" fill="none" instance-id="5" semantic-id="16" stroke="rgb(92,92,92)" stroke-width="0.1"/>
  <path d="M 19.0,0.0 L 19.0,8.5" fill="none" instance-id="5" semantic-id="16" stroke="rgb(92,92,92)" stroke-width="0.1"/>
  <path d="M 19.0,8.5 L 14.5,8.5" fill="none" instance-id="5" semantic-id="16" stroke="rgb(92,92,92)" stroke-width="0.1"/>
  <circle cx="59.519000000000005" cy="5.5589999999999975" fill="none" instance-id="17" r="1.05" semantic-id="19" stroke="rgb(92,92,92)" stroke-width="0.1"/>
  <circle cx="59.519000000000005" cy="5.5589999999999975" fill="none" instance-id="17" r="2.1" semantic-id="19" stroke="rgb(92,92,92)" stroke-width="0.1"/>
  <circle cx="48.480999999999995" cy="5.5589999999999975" fill="none" instance-id="16" r="1.05" semantic-id="19" stroke="rgb(92,92,92)" stroke-width="0.1"/>
  <circle cx="48.480999999999995" cy="5.5589999999999975" fill="none" instance-id="16" r="2.1" semantic-id="19" stroke="rgb(92,92,92)" stroke-width="0.1"/>
 </g>
 <g id="layerS38-13$0$A-GROUND" inkscape:groupmode="layer" inkscape:label="S38-13$0$A-GROUND">
  <path d="M 95.5,10.5 L 95.5,26.5" fill="none" instance-id="-1" semantic-id="1" stroke="rgb(178,178,0)" stroke-width="0.1"/>
  <path d="M 95.5,26.5 L 100.0,26.5" fill="none" instance-id="-1" semantic-id="1" stroke="rgb(178,178,0)" stroke-width="0.1"/>
  <path d="M 93.5,10.5 L 93.5,28.5" fill="none" instance-id="-1" semantic-id="1" stroke="rgb(178,178,0)" stroke-width="0.1"/>
  <path d="M 93.5,28.5 L 100.0,28.5" fill="none" instance-id="-1" semantic-id="1" stroke="rgb(178,178,0)" stroke-width="0.1"/>
  <path d="M 12.5,10.5 L 12.5,26.5" fill="none" instance-id="-1" semantic-id="1" stroke="rgb(178,178,0)" stroke-width="0.1"/>
  <path d="M 12.5,26.5 L 0.0,26.5" fill="none" instance-id="-1" semantic-id="1" stroke="rgb(178,178,0)" stroke-width="0.1"/>
  <path d="M 14.5,10.5 L 14.5,28.5" fill="none" instance-id="-1" semantic-id="1" stroke="rgb(89,89,89)" stroke-width="0.1"/>
  <path d="M 14.5,28.5 L 0.0,28.5" fill="none" instance-id="-1" semantic-id="1" stroke="rgb(89,89,89)" stroke-width="0.1"/>
 </g>
 <g id="layerS38-13$0$A-WALL" inkscape:groupmode="layer" inkscape:label="S38-13$0$A-WALL">
  <path d="M 95.5,7.5 L 100.0,7.5" fill="none" instance-id="-1" semantic-id="1" stroke="rgb(0,178,178)" stroke-width="0.1"/>
  <path d="M 100.0,5.5 L 95.5,5.5" fill="none" instance-id="-1" semantic-id="1" stroke="rgb(0,178,178)" stroke-width="0.1"/>
  <path d="M 93.5,6.5 L 93.5,0.0" fill="none" instance-id="-1" semantic-id="1" stroke="rgb(0,178,178)" stroke-width="0.1"/>
  <path d="M 95.5,5.5 L 95.5,0.0" fill="none" instance-id="-1" semantic-id="1" stroke="rgb(0,178,178)" stroke-width="0.1"/>
  <path d="M 54.5,10.5 L 64.5,10.5" fill="none" instance-id="-1" semantic-id="1" stroke="rgb(0,178,178)" stroke-width="0.1"/>
  <path d="M 64.5,10.5 L 64.5,8.5" fill="none" instance-id="-1" semantic-id="1" stroke="rgb(0,178,178)" stroke-width="0.1"/>
  <path d="M 64.5,8.5 L 56.5,8.5" fill="none" instance-id="-1" semantic-id="1" stroke="rgb(0,178,178)" stroke-width="0.1"/>
  <path d="M 93.5,8.5 L 87.0,8.5" fill="none" instance-id="-1" semantic-id="1" stroke="rgb(0,178,178)" stroke-width="0.1"/>
  <path d="M 87.0,8.5 L 87.0,10.5" fill="none" instance-id="-1" semantic-id="1" stroke="rgb(0,178,178)" stroke-width="0.1"/>
  <path d="M 87.0,10.5 L 95.5,10.5" fill="none" instance-id="-1" semantic-id="1" stroke="rgb(0,178,178)" stroke-width="0.1"/>
  <path d="M 54.5,10.5 L 54.5,0.0" fill="none" instance-id="-1" semantic-id="1" stroke="rgb(0,178,178)" stroke-width="0.1"/>
  <path d="M 56.5,8.5 L 56.5,0.0" fill="none" instance-id="-1" semantic-id="1" stroke="rgb(0,178,178)" stroke-width="0.1"/>
  <path d="M 93.5,8.5 L 93.5,6.5" fill="none" instance-id="-1" semantic-id="1" stroke="rgb(0,178,178)" stroke-width="0.1"/>
  <path d="M 95.5,10.5 L 95.5,7.5" fill="none" instance-id="-1" semantic-id="1" stroke="rgb(0,178,178)" stroke-width="0.1"/>
  <path d="M 12.5,5.5 L 7.5,5.5" fill="none" instance-id="-1" semantic-id="1" stroke="rgb(0,178,178)" stroke-width="0.1"/>
  <path d="M 7.5,5.5 L 7.5,7.5" fill="none" instance-id="-1" semantic-id="1" stroke="rgb(0,178,178)" stroke-width="0.1"/>
  <path d="M 7.5,7.5 L 12.5,7.5" fill="none" instance-id="-1" semantic-id="1" stroke="rgb(0,178,178)" stroke-width="0.1"/>
  <path d="M 12.5,5.5 L 12.5,0.0" fill="none" instance-id="-1" semantic-id="1" stroke="rgb(0,178,178)" stroke-width="0.1"/>
  <path d="M 14.5,6.5 L 14.5,0.0" fill="none" instance-id="-1" semantic-id="1" stroke="rgb(0,178,178)" stroke-width="0.1"/>
  <path d="M 51.5,8.5 L 43.5,8.5" fill="none" instance-id="-1" semantic-id="1" stroke="rgb(0,178,178)" stroke-width="0.1"/>
  <path d="M 43.5,8.5 L 43.5,10.5" fill="none" instance-id="-1" semantic-id="1" stroke="rgb(0,178,178)" stroke-width="0.1"/>
  <path d="M 43.5,10.5 L 53.5,10.5" fill="none" instance-id="-1" semantic-id="1" stroke="rgb(0,178,178)" stroke-width="0.1"/>
  <path d="M 12.5,10.5 L 21.0,10.5" fill="none" instance-id="-1" semantic-id="1" stroke="rgb(0,178,178)" stroke-width="0.1"/>
  <path d="M 21.0,10.5 L 21.0,8.5" fill="none" instance-id="-1" semantic-id="1" stroke="rgb(0,178,178)" stroke-width="0.1"/>
  <path d="M 21.0,8.5 L 14.5,8.5" fill="none" instance-id="-1" semantic-id="1" stroke="rgb(0,178,178)" stroke-width="0.1"/>
  <path d="M 51.5,8.5 L 51.5,0.0" fill="none" instance-id="-1" semantic-id="1" stroke="rgb(0,178,178)" stroke-width="0.1"/>
  <path d="M 53.5,10.5 L 53.5,0.0" fill="none" instance-id="-1" semantic-id="1" stroke="rgb(0,178,178)" stroke-width="0.1"/>
  <path d="M 12.5,10.5 L 12.5,7.5" fill="none" instance-id="-1" semantic-id="1" stroke="rgb(0,178,178)" stroke-width="0.1"/>
  <path d="M 14.5,8.5 L 14.5,6.5" fill="none" instance-id="-1" semantic-id="1" stroke="rgb(0,178,178)" stroke-width="0.1"/>
 </g>
 <g id="layerS38-13$0$A-WINDOW" inkscape:groupmode="layer" inkscape:label="S38-13$0$A-WINDOW">
  <path d="M 64.5,8.5 L 87.0,8.5" fill="none" instance-id="23" semantic-id="10" stroke="rgb(0,178,0)" stroke-width="0.1"/>
  <path d="M 7.5,7.5 L 0.0,7.5" fill="none" stroke="rgb(0,178,0)" stroke-width="0.1"/>
  <path d="M 7.5,5.5 L 0.0,5.5" fill="none" stroke="rgb(0,178,0)" stroke-width="0.1"/>
  <path d="M 7.5,6.1699999999999875 L 0.0,6.1699999999999875" fill="none" stroke="rgb(0,178,0)" stroke-width="0.1"/>
  <path d="M 7.5,6.8300000000000125 L 0.0,6.8300000000000125" fill="none" stroke="rgb(0,178,0)" stroke-width="0.1"/>
  <path d="M 43.5,8.5 L 21.0,8.5" fill="none" instance-id="22" semantic-id="10" stroke="rgb(0,178,0)" stroke-width="0.1"/>
  <path d="M 87.0,10.5 L 64.5,10.5" fill="none" instance-id="23" semantic-id="10" stroke="rgb(0,178,0)" stroke-width="0.1"/>
  <path d="M 21.0,10.5 L 45.0,10.5" fill="none" instance-id="22" semantic-id="10" stroke="rgb(0,178,0)" stroke-width="0.1"/>
  <path d="M 64.5,10.5 L 64.5,15.300000000000011" fill="none" instance-id="23" semantic-id="10" stroke="rgb(0,178,0)" stroke-width="0.1"/>
  <path d="M 64.5,15.300000000000011 L 87.0,15.300000000000011" fill="none" instance-id="23" semantic-id="10" stroke="rgb(0,178,0)" stroke-width="0.1"/>
  <path d="M 87.0,15.300000000000011 L 87.0,10.5" fill="none" instance-id="23" semantic-id="10" stroke="rgb(0,178,0)" stroke-width="0.1"/>
  <path d="M 64.10000000000002,10.5 L 64.10000000000002,15.699999999999989" fill="none" instance-id="23" semantic-id="10" stroke="rgb(0,178,0)" stroke-width="0.1"/>
  <path d="M 64.10000000000002,15.699999999999989 L 87.39999999999998,15.699999999999989" fill="none" instance-id="23" semantic-id="10" stroke="rgb(0,178,0)" stroke-width="0.1"/>
  <path d="M 87.39999999999998,15.699999999999989 L 87.39999999999998,10.5" fill="none" instance-id="23" semantic-id="10" stroke="rgb(0,178,0)" stroke-width="0.1"/>
  <path d="M 63.299999999999955,10.5 L 63.299999999999955,16.5" fill="none" instance-id="23" semantic-id="10" stroke="rgb(0,178,0)" stroke-width="0.1"/>
  <path d="M 63.299999999999955,16.5 L 88.20000000000005,16.5" fill="none" instance-id="23" semantic-id="10" stroke="rgb(0,178,0)" stroke-width="0.1"/>
  <path d="M 88.20000000000005,16.5 L 88.20000000000005,10.5" fill="none" instance-id="23" semantic-id="10" stroke="rgb(0,178,0)" stroke-width="0.1"/>
  <path d="M 21.0,10.5 L 21.0,15.300000000000011" fill="none" instance-id="22" semantic-id="10" stroke="rgb(0,178,0)" stroke-width="0.1"/>
  <path d="M 21.0,15.300000000000011 L 43.5,15.300000000000011" fill="none" instance-id="22" semantic-id="10" stroke="rgb(0,178,0)" stroke-width="0.1"/>
  <path d="M 43.5,15.300000000000011 L 43.5,10.5" fill="none" instance-id="22" semantic-id="10" stroke="rgb(0,178,0)" stroke-width="0.1"/>
  <path d="M 20.600000000000023,10.5 L 20.600000000000023,15.699999999999989" fill="none" instance-id="22" semantic-id="10" stroke="rgb(0,178,0)" stroke-width="0.1"/>
  <path d="M 20.600000000000023,15.699999999999989 L 43.89999999999998,15.699999999999989" fill="none" instance-id="22" semantic-id="10" stroke="rgb(0,178,0)" stroke-width="0.1"/>
  <path d="M 43.89999999999998,15.699999999999989 L 43.89999999999998,10.5" fill="none" instance-id="22" semantic-id="10" stroke="rgb(0,178,0)" stroke-width="0.1"/>
  <path d="M 19.80000000000001,10.5 L 19.80000000000001,16.5" fill="none" instance-id="22" semantic-id="10" stroke="rgb(0,178,0)" stroke-width="0.1"/>
  <path d="M 19.80000000000001,16.5 L 44.69999999999999,16.5" fill="none" instance-id="22" semantic-id="10" stroke="rgb(0,178,0)" stroke-width="0.1"/>
  <path d="M 44.69999999999999,16.5 L 44.69999999999999,10.5" fill="none" instance-id="22" semantic-id="10" stroke="rgb(0,178,0)" stroke-width="0.1"/>
 </g>
 <g id="layerS38-13$0$A-下层看线" inkscape:groupmode="layer" inkscape:label="S38-13$0$A-下层看线">
  <path d="M 52.5,39.5 L 7.5,39.5" fill="none" stroke="rgb(89,89,89)" stroke-width="0.1"/>
  <path d="M 7.5,39.5 L 7.5,29.5" fill="none" stroke="rgb(89,89,89)" stroke-width="0.1"/>
  <path d="M 51.5,32.5 L 14.5,32.5" fill="none" stroke="rgb(89,89,89)" stroke-width="0.1"/>
  <path d="M 14.5,32.5 L 14.5,29.5" fill="none" stroke="rgb(89,89,89)" stroke-width="0.1"/>
  <path d="M 51.5,10.5 L 51.5,32.5" fill="none" stroke="rgb(89,89,89)" stroke-width="0.1"/>
  <path d="M 51.5,32.5 L 53.5,32.5" fill="none" stroke="rgb(89,89,89)" stroke-width="0.1"/>
  <path d="M 53.5,32.5 L 53.5,10.5" fill="none" stroke="rgb(89,89,89)" stroke-width="0.1"/>
  <path d="M 55.5,39.5 L 100.0,39.5" fill="none" stroke="rgb(89,89,89)" stroke-width="0.1"/>
  <path d="M 56.5,32.5 L 93.5,32.5" fill="none" stroke="rgb(89,89,89)" stroke-width="0.1"/>
  <path d="M 93.5,32.5 L 93.5,29.5" fill="none" stroke="rgb(89,89,89)" stroke-width="0.1"/>
  <path d="M 56.5,10.5 L 56.5,32.5" fill="none" stroke="rgb(89,89,89)" stroke-width="0.1"/>
  <path d="M 56.5,32.5 L 54.5,32.5" fill="none" stroke="rgb(89,89,89)" stroke-width="0.1"/>
  <path d="M 54.5,32.5 L 54.5,10.5" fill="none" stroke="rgb(89,89,89)" stroke-width="0.1"/>
 </g>
 <g id="layerS38-13$0$A-柱饰基线" inkscape:groupmode="layer" inkscape:label="S38-13$0$A-柱饰基线">
  <path d="M 15.5,10.5 L 15.5,29.5" fill="none" instance-id="-1" semantic-id="33" stroke="rgb(142,71,0)" stroke-width="0.1"/>
  <path d="M 15.5,29.5 L 0.0,29.5" fill="none" instance-id="-1" semantic-id="33" stroke="rgb(142,71,0)" stroke-width="0.1"/>
  <path d="M 45.19999999999999,10.5 L 45.19999999999999,17.0" fill="none" instance-id="-1" semantic-id="33" stroke="rgb(142,71,0)" stroke-width="0.1"/>
  <path d="M 45.19999999999999,17.0 L 19.30000000000001,17.0" fill="none" instance-id="-1" semantic-id="33" stroke="rgb(142,71,0)" stroke-width="0.1"/>
  <path d="M 19.30000000000001,17.0 L 19.30000000000001,10.5" fill="none" instance-id="-1" semantic-id="33" stroke="rgb(142,71,0)" stroke-width="0.1"/>
  <path d="M 45.5,10.5 L 45.5,17.30000000000001" fill="none" instance-id="-1" semantic-id="33" stroke="rgb(89,89,89)" stroke-width="0.1"/>
  <path d="M 45.5,17.30000000000001 L 19.0,17.30000000000001" fill="none" instance-id="-1" semantic-id="33" stroke="rgb(89,89,89)" stroke-width="0.1"/>
  <path d="M 19.0,17.30000000000001 L 19.0,10.5" fill="none" instance-id="-1" semantic-id="33" stroke="rgb(89,89,89)" stroke-width="0.1"/>
 </g>
</svg>