<?xml version="1.0" encoding="utf-8"?>
<svg style="background-color: #000;" version="1.1" viewBox="0 0 100.0 100.0" xmlns="http://www.w3.org/2000/svg" xmlns:inkscape="http://www.inkscape.org/namespaces/inkscape">
 <g id="layer-ACO-EDIT" inkscape:groupmode="layer" inkscape:label="-ACO-EDIT">
  <path d="M 82.16811100000001,0.0 L 82.16811100000001,100.0" fill="none" stroke="rgb(178,0,178)" stroke-width="0.1"/>
 </g>
 <g id="layerA-ELEV-PATT" inkscape:groupmode="layer" inkscape:label="A-ELEV-PATT">
  <path d="M 0.0,0.25966354958768534 L 0.25966172099688833,0.0" fill="none" stroke="rgb(92,92,92)" stroke-width="0.1"/>
  <path d="M 0.0,2.5046810650584916 L 2.504659245378548,0.0" fill="none" stroke="rgb(92,92,92)" stroke-width="0.1"/>
  <path d="M 0.0,4.74968399865827 L 4.749641227336468,0.0" fill="none" stroke="rgb(92,92,92)" stroke-width="0.1"/>
  <path d="M 0.0,6.994702659818586 L 6.994626611547886,0.0" fill="none" stroke="rgb(92,92,92)" stroke-width="0.1"/>
  <path d="M 0.0,9.239722669462594 L 9.23960371392522,0.0" fill="none" stroke="rgb(92,92,92)" stroke-width="0.1"/>
  <path d="M 0.0,11.48556062689255 L 9.994111000000004,1.4914830000000165" fill="none" stroke="rgb(92,92,92)" stroke-width="0.1"/>
  <path d="M 0.0,13.730576663589943 L 9.994111000000004,3.736483000000021" fill="none" stroke="rgb(92,92,92)" stroke-width="0.1"/>
  <path d="M 0.0,15.975575087335585 L 10.591111000000012,5.384482999999989" fill="none" stroke="rgb(92,92,92)" stroke-width="0.1"/>
  <path d="M 0.0,18.220594000000006 L 11.994111000000004,6.226482999999973" fill="none" stroke="rgb(92,92,92)" stroke-width="0.1"/>
  <path d="M 0.0,20.46561666765001 L 11.994111000000004,8.471482999999978" fill="none" stroke="rgb(92,92,92)" stroke-width="0.1"/>
  <path d="M 0.0,22.710594000000015 L 11.994111000000004,10.716482999999982" fill="none" stroke="rgb(92,92,92)" stroke-width="0.1"/>
  <path d="M 0.0,24.95559400000002 L 11.994111000000004,12.961482999999987" fill="none" stroke="rgb(92,92,92)" stroke-width="0.1"/>
  <path d="M 0.0,27.200593999999967 L 11.994111000000004,15.206482999999992" fill="none" stroke="rgb(92,92,92)" stroke-width="0.1"/>
  <path d="M 0.0,29.44559399999997 L 11.994111000000004,17.451482999999996" fill="none" stroke="rgb(92,92,92)" stroke-width="0.1"/>
  <path d="M 0.0,31.690593999999976 L 11.994111000000004,19.696483" fill="none" stroke="rgb(92,92,92)" stroke-width="0.1"/>
  <path d="M 0.0,33.93559399999998 L 11.994111000000004,21.941483000000005" fill="none" stroke="rgb(92,92,92)" stroke-width="0.1"/>
  <path d="M 0.0,36.1809164483426 L 11.994111000000004,24.18648300000001" fill="none" stroke="rgb(92,92,92)" stroke-width="0.1"/>
  <path d="M 0.0,38.425937159504485 L 11.994111000000004,26.431483000000014" fill="none" stroke="rgb(92,92,92)" stroke-width="0.1"/>
  <path d="M 11.994111000000004,6.226482999999973 L 12.836111000000017,5.384482999999989" fill="none" stroke="rgb(92,92,92)" stroke-width="0.1"/>
  <path d="M 11.994111000000004,8.471482999999978 L 15.081111000000021,5.384482999999989" fill="none" stroke="rgb(92,92,92)" stroke-width="0.1"/>
  <path d="M 11.994111000000004,10.716482999999982 L 17.326110999999997,5.384482999999989" fill="none" stroke="rgb(92,92,92)" stroke-width="0.1"/>
  <path d="M 11.994111000000004,12.961482999999987 L 19.571111000000002,5.384482999999989" fill="none" stroke="rgb(92,92,92)" stroke-width="0.1"/>
  <path d="M 11.994111000000004,15.206482999999992 L 21.816111000000006,5.384482999999989" fill="none" stroke="rgb(92,92,92)" stroke-width="0.1"/>
  <path d="M 11.994111000000004,17.451482999999996 L 24.06111100000001,5.384482999999989" fill="none" stroke="rgb(92,92,92)" stroke-width="0.1"/>
  <path d="M 11.994111000000004,19.696483 L 26.306111000000016,5.384482999999989" fill="none" stroke="rgb(92,92,92)" stroke-width="0.1"/>
  <path d="M 11.994111000000004,21.941483000000005 L 28.55111100000002,5.384482999999989" fill="none" stroke="rgb(92,92,92)" stroke-width="0.1"/>
  <path d="M 11.994111000000004,24.18648300000001 L 30.797111,5.384482999999989" fill="none" stroke="rgb(92,92,92)" stroke-width="0.1"/>
  <path d="M 11.994111000000004,26.431483000000014 L 33.042111000000006,5.384482999999989" fill="none" stroke="rgb(92,92,92)" stroke-width="0.1"/>
  <path d="M 0.0,40.67159400000003 L 35.28711100000001,5.384482999999989" fill="none" stroke="rgb(92,92,92)" stroke-width="0.1"/>
  <path d="M 0.0,42.91659400000003 L 37.532111000000015,5.384482999999989" fill="none" stroke="rgb(92,92,92)" stroke-width="0.1"/>
  <path d="M 0.0,45.16159399999998 L 39.77711100000002,5.384482999999989" fill="none" stroke="rgb(92,92,92)" stroke-width="0.1"/>
  <path d="M 0.0,47.406593999999984 L 42.022110999999995,5.384482999999989" fill="none" stroke="rgb(92,92,92)" stroke-width="0.1"/>
  <path d="M 0.0,49.65159399999999 L 44.267111,5.384482999999989" fill="none" stroke="rgb(92,92,92)" stroke-width="0.1"/>
  <path d="M 0.0,51.89659399999999 L 46.512111000000004,5.384482999999989" fill="none" stroke="rgb(92,92,92)" stroke-width="0.1"/>
  <path d="M 0.0,54.141594 L 48.75711100000001,5.384482999999989" fill="none" stroke="rgb(92,92,92)" stroke-width="0.1"/>
  <path d="M 0.0,56.386594 L 51.00211100000001,5.384482999999989" fill="none" stroke="rgb(92,92,92)" stroke-width="0.1"/>
  <path d="M 0.0,58.63159400000001 L 53.24711100000002,5.384482999999989" fill="none" stroke="rgb(92,92,92)" stroke-width="0.1"/>
  <path d="M 53.994111000000004,0.14748300000002246 L 54.141594000000026,0.0" fill="none" stroke="rgb(92,92,92)" stroke-width="0.1"/>
  <path d="M 53.994111000000004,2.392483000000027 L 56.38659400000003,0.0" fill="none" stroke="rgb(92,92,92)" stroke-width="0.1"/>
  <path d="M 53.994111000000004,4.637482999999975 L 58.63159399999998,0.0" fill="none" stroke="rgb(92,92,92)" stroke-width="0.1"/>
  <path d="M 0.0,60.87659400000001 L 60.87659400000001,0.0" fill="none" stroke="rgb(92,92,92)" stroke-width="0.1"/>
  <path d="M 0.0,63.121594000000016 L 63.121594000000016,0.0" fill="none" stroke="rgb(92,92,92)" stroke-width="0.1"/>
  <path d="M 0.0,65.36659400000002 L 65.36659400000002,0.0" fill="none" stroke="rgb(92,92,92)" stroke-width="0.1"/>
  <path d="M 0.0,67.61159399999997 L 67.61159400000003,0.0" fill="none" stroke="rgb(92,92,92)" stroke-width="0.1"/>
  <path d="M 0.0,69.85659400000003 L 69.85659400000003,0.0" fill="none" stroke="rgb(92,92,92)" stroke-width="0.1"/>
  <path d="M 0.0,72.10159400000003 L 72.10159400000003,0.0" fill="none" stroke="rgb(92,92,92)" stroke-width="0.1"/>
  <path d="M 0.0,74.34659399999998 L 74.34659400000004,0.0" fill="none" stroke="rgb(92,92,92)" stroke-width="0.1"/>
  <path d="M 0.0,76.5917396307214 L 76.59253602617162,0.0" fill="none" stroke="rgb(92,92,92)" stroke-width="0.1"/>
  <path d="M 0.0,78.83673963072141 L 78.83755936952161,0.0" fill="none" stroke="rgb(92,92,92)" stroke-width="0.1"/>
  <path d="M 0.0,81.08259400000003 L 81.08259400000003,0.0" fill="none" stroke="rgb(92,92,92)" stroke-width="0.1"/>
  <path d="M 0.0,83.32759400000003 L 82.16811100000001,1.159483000000023" fill="none" stroke="rgb(92,92,92)" stroke-width="0.1"/>
  <path d="M 0.0,85.57259400000004 L 82.16811100000001,3.4044830000000275" fill="none" stroke="rgb(92,92,92)" stroke-width="0.1"/>
  <path d="M 0.0,87.81759399999999 L 82.16811100000001,5.649482999999975" fill="none" stroke="rgb(92,92,92)" stroke-width="0.1"/>
  <path d="M 0.0,90.06259399999999 L 82.16811100000001,7.89448299999998" fill="none" stroke="rgb(92,92,92)" stroke-width="0.1"/>
  <path d="M 0.0,92.307594 L 82.16811100000001,10.139482999999984" fill="none" stroke="rgb(92,92,92)" stroke-width="0.1"/>
  <path d="M 0.0,94.55286083676049 L 82.16811100000001,12.384482999999989" fill="none" stroke="rgb(92,92,92)" stroke-width="0.1"/>
  <path d="M 0.0,96.79786083676049 L 82.16811100000001,14.629482999999993" fill="none" stroke="rgb(92,92,92)" stroke-width="0.1"/>
  <path d="M 0.0,99.04286083676044 L 82.16811100000001,16.874482999999998" fill="none" stroke="rgb(92,92,92)" stroke-width="0.1"/>
  <path d="M 1.2878566545114722,100.0 L 82.16811100000001,19.119483000000002" fill="none" stroke="rgb(92,92,92)" stroke-width="0.1"/>
  <path d="M 3.532849364011895,100.0 L 82.16811100000001,21.364483000000007" fill="none" stroke="rgb(92,92,92)" stroke-width="0.1"/>
  <path d="M 5.777842073512261,100.0 L 82.16811100000001,23.60948300000001" fill="none" stroke="rgb(92,92,92)" stroke-width="0.1"/>
  <path d="M 8.022834783012655,100.0 L 82.16811100000001,25.854483000000016" fill="none" stroke="rgb(92,92,92)" stroke-width="0.1"/>
  <path d="M 10.267870036153198,100.0 L 82.16811100000001,28.09948300000002" fill="none" stroke="rgb(92,92,92)" stroke-width="0.1"/>
  <path d="M 12.513458343736971,100.0 L 82.16811100000001,30.345483" fill="none" stroke="rgb(92,92,92)" stroke-width="0.1"/>
  <path d="M 14.758505182896556,100.0 L 82.16811100000001,32.590483000000006" fill="none" stroke="rgb(92,92,92)" stroke-width="0.1"/>
  <path d="M 17.00350685195221,100.0 L 82.16811100000001,34.83548300000001" fill="none" stroke="rgb(92,92,92)" stroke-width="0.1"/>
  <path d="M 19.248551285941346,100.0 L 82.16811100000001,37.080483000000015" fill="none" stroke="rgb(92,92,92)" stroke-width="0.1"/>
  <path d="M 21.493594,100.0 L 82.16811100000001,39.32548300000002" fill="none" stroke="rgb(92,92,92)" stroke-width="0.1"/>
  <path d="M 23.738594000000006,100.0 L 82.16811100000001,41.570483000000024" fill="none" stroke="rgb(92,92,92)" stroke-width="0.1"/>
  <path d="M 25.98363396935102,100.0 L 82.16811100000001,43.81548300000003" fill="none" stroke="rgb(92,92,92)" stroke-width="0.1"/>
  <path d="M 28.228671990105823,100.0 L 82.16811100000001,46.06048299999998" fill="none" stroke="rgb(92,92,92)" stroke-width="0.1"/>
  <path d="M 30.473669977214712,100.0 L 82.16811100000001,48.30548299999998" fill="none" stroke="rgb(92,92,92)" stroke-width="0.1"/>
  <path d="M 32.718704845189535,100.0 L 82.16811100000001,50.550482999999986" fill="none" stroke="rgb(92,92,92)" stroke-width="0.1"/>
  <path d="M 34.963701618076726,100.0 L 82.16811100000001,52.79548299999999" fill="none" stroke="rgb(92,92,92)" stroke-width="0.1"/>
  <path d="M 37.20873303858548,100.0 L 82.16811100000001,55.040482999999995" fill="none" stroke="rgb(92,92,92)" stroke-width="0.1"/>
  <path d="M 39.453762036400775,100.0 L 82.16811100000001,57.285483" fill="none" stroke="rgb(92,92,92)" stroke-width="0.1"/>
  <path d="M 41.698756067362694,100.0 L 82.16811100000001,59.530483000000004" fill="none" stroke="rgb(92,92,92)" stroke-width="0.1"/>
  <path d="M 43.943781055682706,100.0 L 82.16811100000001,61.77548300000001" fill="none" stroke="rgb(92,92,92)" stroke-width="0.1"/>
  <path d="M 46.189594,100.0 L 82.16811100000001,64.02148299999999" fill="none" stroke="rgb(92,92,92)" stroke-width="0.1"/>
  <path d="M 48.434594000000004,100.0 L 82.16811100000001,66.266483" fill="none" stroke="rgb(92,92,92)" stroke-width="0.1"/>
  <path d="M 50.67959400000001,100.0 L 82.16811100000001,68.511483" fill="none" stroke="rgb(92,92,92)" stroke-width="0.1"/>
  <path d="M 52.92459400000001,100.0 L 82.16811100000001,70.756483" fill="none" stroke="rgb(92,92,92)" stroke-width="0.1"/>
  <path d="M 55.16959400000002,100.0 L 82.16811100000001,73.00148300000001" fill="none" stroke="rgb(92,92,92)" stroke-width="0.1"/>
  <path d="M 57.41459400000002,100.0 L 82.16811100000001,75.24648300000001" fill="none" stroke="rgb(92,92,92)" stroke-width="0.1"/>
  <path d="M 59.65959400000003,100.0 L 82.16811100000001,77.49148300000002" fill="none" stroke="rgb(92,92,92)" stroke-width="0.1"/>
  <path d="M 61.90459400000003,100.0 L 82.16811100000001,79.73648300000002" fill="none" stroke="rgb(92,92,92)" stroke-width="0.1"/>
  <path d="M 64.14959400000004,100.0 L 82.16811100000001,81.98148300000003" fill="none" stroke="rgb(92,92,92)" stroke-width="0.1"/>
  <path d="M 66.39459399999998,100.0 L 82.16811100000001,84.22648299999997" fill="none" stroke="rgb(92,92,92)" stroke-width="0.1"/>
  <path d="M 68.63959399999999,100.0 L 82.16811100000001,86.47148299999998" fill="none" stroke="rgb(92,92,92)" stroke-width="0.1"/>
  <path d="M 70.88459399999999,100.0 L 82.16811100000001,88.71648299999998" fill="none" stroke="rgb(92,92,92)" stroke-width="0.1"/>
  <path d="M 73.129594,100.0 L 82.16811100000001,90.96148299999999" fill="none" stroke="rgb(92,92,92)" stroke-width="0.1"/>
  <path d="M 75.374594,100.0 L 82.16811100000001,93.20648299999999" fill="none" stroke="rgb(92,92,92)" stroke-width="0.1"/>
  <path d="M 77.61964514543533,100.0 L 82.16811100000001,95.451483" fill="none" stroke="rgb(92,92,92)" stroke-width="0.1"/>
  <path d="M 79.8646205725014,100.0 L 82.16811100000001,97.696483" fill="none" stroke="rgb(92,92,92)" stroke-width="0.1"/>
  <path d="M 82.11059399999999,100.0 L 82.16811100000001,99.94248299999998" fill="none" stroke="rgb(92,92,92)" stroke-width="0.1"/>
  <path d="M 82.16811100000001,100.0 L 82.16811100000001,0.0" fill="none" stroke="rgb(92,92,92)" stroke-width="0.1"/>
  <path d="M 53.994111000000004,5.384482999999989 L 9.994111000000004,5.384482999999989" fill="none" stroke="rgb(92,92,92)" stroke-width="0.1"/>
  <path d="M 9.994111000000004,5.384482999999989 L 9.994111000000004,0.0" fill="none" stroke="rgb(92,92,92)" stroke-width="0.1"/>
  <path d="M 53.994111000000004,0.0 L 53.994111000000004,5.384482999999989" fill="none" stroke="rgb(92,92,92)" stroke-width="0.1"/>
 </g>
 <g id="layerTC-BF$1$S-HATCH-S" inkscape:groupmode="layer" inkscape:label="TC-BF$1$S-HATCH-S">
  <path d="M 28.994111000000004,66.38448299999999 L 33.994111000000004,66.38448299999999" fill="none" stroke="rgb(92,92,92)" stroke-width="0.1"/>
  <path d="M 33.994111000000004,66.38448299999999 L 33.994111000000004,60.38448299999999" fill="none" stroke="rgb(92,92,92)" stroke-width="0.1"/>
  <path d="M 33.994111000000004,60.38448299999999 L 28.994111000000004,60.38448299999999" fill="none" stroke="rgb(92,92,92)" stroke-width="0.1"/>
  <path d="M 28.994111000000004,60.38448299999999 L 28.994111000000004,66.38448299999999" fill="none" stroke="rgb(92,92,92)" stroke-width="0.1"/>
  <path d="M 9.994111000000004,58.38448299999999 L 9.994111000000004,64.38448299999999" fill="none" stroke="rgb(92,92,92)" stroke-width="0.1"/>
  <path d="M 9.994111000000004,64.38448299999999 L 14.994111000000004,64.38448299999999" fill="none" stroke="rgb(92,92,92)" stroke-width="0.1"/>
  <path d="M 14.994111000000004,64.38448299999999 L 14.994111000000004,58.38448299999999" fill="none" stroke="rgb(92,92,92)" stroke-width="0.1"/>
  <path d="M 14.994111000000004,58.38448299999999 L 9.994111000000004,58.38448299999999" fill="none" stroke="rgb(92,92,92)" stroke-width="0.1"/>
  <path d="M 48.994111000000004,63.38448299999999 L 53.994111000000004,63.38448299999999" fill="none" stroke="rgb(92,92,92)" stroke-width="0.1"/>
  <path d="M 53.994111000000004,63.38448299999999 L 53.994111000000004,58.38448299999999" fill="none" stroke="rgb(92,92,92)" stroke-width="0.1"/>
  <path d="M 53.994111000000004,58.38448299999999 L 48.994111000000004,58.38448299999999" fill="none" stroke="rgb(92,92,92)" stroke-width="0.1"/>
  <path d="M 48.994111000000004,58.38448299999999 L 48.994111000000004,63.38448299999999" fill="none" stroke="rgb(92,92,92)" stroke-width="0.1"/>
 </g>
 <g id="layerX-29-AXIS-SF-100$0$-ACO-AXIS" inkscape:groupmode="layer" inkscape:label="X-29-AXIS-SF-100$0$-ACO-AXIS">
  <path d="M 52.994111000000004,62.38448299999999 L 98.994111,62.38448299999999" fill="none" stroke="rgb(89,89,89)" stroke-width="0.1"/>
  <path d="M 10.994111000000004,0.0 L 10.994111000000004,62.38448299999999" fill="none" stroke="rgb(89,89,89)" stroke-width="0.1"/>
  <path d="M 24.994111000000004,4.384482999999989 L 98.994111,4.384482999999989" fill="none" stroke="rgb(89,89,89)" stroke-width="0.1"/>
  <path d="M 10.994111000000004,22.38448299999999 L 98.994111,22.38448299999999" fill="none" stroke="rgb(89,89,89)" stroke-width="0.1"/>
  <path d="M 0.0,62.38448299999999 L 60.994111000000004,62.38448299999999" fill="none" stroke="rgb(89,89,89)" stroke-width="0.1"/>
  <path d="M 52.994111000000004,0.0 L 52.994111000000004,100.0" fill="none" stroke="rgb(89,89,89)" stroke-width="0.1"/>
  <path d="M 24.994111000000004,22.38448299999999 L 24.994111000000004,0.0" fill="none" stroke="rgb(89,89,89)" stroke-width="0.1"/>
  <path d="M 10.994111000000004,4.384482999999989 L 0.0,4.384482999999989" fill="none" stroke="rgb(89,89,89)" stroke-width="0.1"/>
  <path d="M 40.994111000000004,62.38448299999999 L 0.0,62.38448299999999" fill="none" stroke="rgb(89,89,89)" stroke-width="0.1"/>
  <path d="M 40.994111000000004,62.38448299999999 L 0.0,62.38448299999999" fill="none" stroke="rgb(89,89,89)" stroke-width="0.1"/>
  <path d="M 0.0,62.38448299999999 L 40.994111000000004,62.38448299999999" fill="none" stroke="rgb(89,89,89)" stroke-width="0.1"/>
  <path d="M 32.994111000000004,100.0 L 32.994111000000004,62.38448299999999" fill="none" stroke="rgb(89,89,89)" stroke-width="0.1"/>
 </g>
 <g id="layerX-29-AXIS-SF-100$0$-ACO-AXIS-NUMB" inkscape:groupmode="layer" inkscape:label="X-29-AXIS-SF-100$0$-ACO-AXIS-NUMB">
  <path d="M 100.0,62.38448299999999 L 81.535111,62.38448299999999" fill="none" stroke="rgb(53,93,107)" stroke-width="0.1"/>
  <path d="M 100.0,22.38448299999999 L 81.535111,22.38448299999999" fill="none" stroke="rgb(53,93,107)" stroke-width="0.1"/>
  <path d="M 100.0,4.384482999999989 L 81.535111,4.384482999999989" fill="none" stroke="rgb(53,93,107)" stroke-width="0.1"/>
 </g>
 <g id="layerX-29-AXIS-SF-100$0$-ACO-DIMS" inkscape:groupmode="layer" inkscape:label="X-29-AXIS-SF-100$0$-ACO-DIMS">
  <path d="M 98.994111,4.384482999999989 L 100.0,4.384482999999989" fill="none" stroke="rgb(0,79,107)" stroke-width="0.1"/>
  <path d="M 98.994111,62.38448299999999 L 100.0,62.38448299999999" fill="none" stroke="rgb(0,79,107)" stroke-width="0.1"/>
  <path d="M 98.994111,22.38448299999999 L 100.0,22.38448299999999" fill="none" stroke="rgb(0,79,107)" stroke-width="0.1"/>
  <path d="M 98.994111,62.38448299999999 L 100.0,62.38448299999999" fill="none" stroke="rgb(0,79,107)" stroke-width="0.1"/>
  <path d="M 98.994111,22.38448299999999 L 100.0,22.38448299999999" fill="none" stroke="rgb(0,79,107)" stroke-width="0.1"/>
  <path d="M 98.994111,4.384482999999989 L 100.0,4.384482999999989" fill="none" stroke="rgb(0,79,107)" stroke-width="0.1"/>
 </g>
 <g id="layerX-DK-PARK$0$A-P-子母" inkscape:groupmode="layer" inkscape:label="X-DK-PARK$0$A-P-子母">
  <path d="M 0.0,12.384482999999989 L 37.994111000000004,12.384482999999989" fill="none" instance-id="-1" semantic-id="35" stroke="rgb(194,12,255)" stroke-width="0.1"/>
  <path d="M 37.994111000000004,12.384482999999989 L 37.994111000000004,36.38448299999999" fill="none" instance-id="-1" semantic-id="35" stroke="rgb(194,12,255)" stroke-width="0.1"/>
  <path d="M 37.994111000000004,36.38448299999999 L 0.0,36.38448299999999" fill="none" instance-id="-1" semantic-id="35" stroke="rgb(194,12,255)" stroke-width="0.1"/>
  <path d="M 23.994111000000004,33.88448299999999 L 23.994111000000004,14.884482999999989" fill="none" instance-id="-1" semantic-id="35" stroke="rgb(194,12,255)" stroke-width="0.1"/>
  <path d="M 23.994111000000004,14.884482999999989 L 25.994111000000004,14.884482999999989" fill="none" instance-id="-1" semantic-id="35" stroke="rgb(194,12,255)" stroke-width="0.1"/>
  <path d="M 25.994111000000004,14.884482999999989 L 25.994111000000004,33.88448299999999" fill="none" instance-id="-1" semantic-id="35" stroke="rgb(194,12,255)" stroke-width="0.1"/>
  <path d="M 25.994111000000004,33.88448299999999 L 23.994111000000004,33.88448299999999" fill="none" instance-id="-1" semantic-id="35" stroke="rgb(194,12,255)" stroke-width="0.1"/>
  <path d="M 0.0,36.38448299999999 L 37.994111000000004,36.38448299999999" fill="none" instance-id="-1" semantic-id="35" stroke="rgb(194,12,255)" stroke-width="0.1"/>
  <path d="M 37.994111000000004,36.38448299999999 L 37.994111000000004,60.38448299999999" fill="none" instance-id="-1" semantic-id="35" stroke="rgb(194,12,255)" stroke-width="0.1"/>
  <path d="M 37.994111000000004,60.38448299999999 L 0.0,60.38448299999999" fill="none" instance-id="-1" semantic-id="35" stroke="rgb(194,12,255)" stroke-width="0.1"/>
  <path d="M 23.994111000000004,57.88448299999999 L 23.994111000000004,38.88448299999999" fill="none" instance-id="-1" semantic-id="35" stroke="rgb(194,12,255)" stroke-width="0.1"/>
  <path d="M 23.994111000000004,38.88448299999999 L 25.994111000000004,38.88448299999999" fill="none" instance-id="-1" semantic-id="35" stroke="rgb(194,12,255)" stroke-width="0.1"/>
  <path d="M 25.994111000000004,38.88448299999999 L 25.994111000000004,57.88448299999999" fill="none" instance-id="-1" semantic-id="35" stroke="rgb(194,12,255)" stroke-width="0.1"/>
  <path d="M 25.994111000000004,57.88448299999999 L 23.994111000000004,57.88448299999999" fill="none" instance-id="-1" semantic-id="35" stroke="rgb(194,12,255)" stroke-width="0.1"/>
  <circle cx="4.192111000000011" cy="24.607483000000002" fill="none" instance-id="-1" r="4" semantic-id="35" stroke="rgb(194,12,255)" stroke-width="0.1"/>
  <circle cx="4.192111000000011" cy="48.607483" fill="none" instance-id="-1" r="4" semantic-id="35" stroke="rgb(194,12,255)" stroke-width="0.1"/>
  <text fill="rgb(194,12,255)" font-family="Noto Sans CJK SC" font-size="2" transform="rotate(-90.0,1.9421110000000112,26.96448300000003)" x="1.9421110000000112" y="26.96448300000003">
   B
  </text>
  <text fill="rgb(194,12,255)" font-family="Noto Sans CJK SC" font-size="2" transform="rotate(-90.0,1.9421110000000112,50.96448300000003)" x="1.9421110000000112" y="50.96448300000003">
   B
  </text>
 </g>
 <g id="layerXU-29-BF$0$A-VOID" inkscape:groupmode="layer" inkscape:label="XU-29-BF$0$A-VOID">
  <path d="M 53.994111000000004,0.0 L 53.994111000000004,63.38448299999999" fill="none" stroke="rgb(255,12,194)" stroke-width="0.1"/>
  <path d="M 53.994111000000004,63.38448299999999 L 33.994111000000004,63.38448299999999" fill="none" stroke="rgb(255,12,194)" stroke-width="0.1"/>
  <path d="M 33.994111000000004,63.38448299999999 L 33.994111000000004,100.0" fill="none" stroke="rgb(255,12,194)" stroke-width="0.1"/>
  <path d="M 0.0,61.38448299999999 L 9.994111000000004,61.38448299999999" fill="none" stroke="rgb(255,12,194)" stroke-width="0.1"/>
  <path d="M 9.994111000000004,61.38448299999999 L 9.994111000000004,5.384482999999989" fill="none" stroke="rgb(255,12,194)" stroke-width="0.1"/>
  <path d="M 9.994111000000004,5.384482999999989 L 9.994111000000004,0.0" fill="none" stroke="rgb(255,12,194)" stroke-width="0.1"/>
 </g>
 <g id="layerXU-29-BF$0$A-WALL" inkscape:groupmode="layer" inkscape:label="XU-29-BF$0$A-WALL">
  <path d="M 33.994111000000004,61.38448299999999 L 48.294111000000015,61.38448299999999" fill="none" stroke="rgb(178,178,0)" stroke-width="0.1"/>
  <path d="M 33.994111000000004,63.38448299999999 L 46.294111000000015,63.38448299999999" fill="none" stroke="rgb(178,178,0)" stroke-width="0.1"/>
 </g>
 <g id="layerXU-C-BF$0$A-DOOR" inkscape:groupmode="layer" inkscape:label="XU-C-BF$0$A-DOOR">
  <path d="M 7.199960108714208,0.19939879260158477 L 7.6715994424035046,0.3794329727753052" fill="none" stroke="rgb(88,0,178)" stroke-width="0.1"/>
  <path d="M 7.6715994424035046,0.3794329727753052 L 8.152591397176366,0.532738897505908" fill="none" stroke="rgb(88,0,178)" stroke-width="0.1"/>
  <path d="M 8.152591397176366,0.532738897505908 L 8.641422594393191,0.6588342096363817" fill="none" stroke="rgb(88,0,178)" stroke-width="0.1"/>
  <path d="M 8.641422594393191,0.6588342096363817 L 9.136554990257395,0.7573221666640961" fill="none" stroke="rgb(88,0,178)" stroke-width="0.1"/>
  <path d="M 9.136554990257395,0.7573221666640961 L 9.636430715070247,0.8278928890391626" fill="none" stroke="rgb(88,0,178)" stroke-width="0.1"/>
  <path d="M 9.636430715070247,0.8278928890391626 L 10.139476974865289,0.8703243351603192" fill="none" stroke="rgb(88,0,178)" stroke-width="0.1"/>
  <path d="M 10.139476974865289,0.8703243351603192 L 10.64411100000001,0.8844829999999888" fill="none" stroke="rgb(88,0,178)" stroke-width="0.1"/>
  <path d="M 10.64411100000001,1.3844829999999888 L 10.64411100000001,0.8844829999999888" fill="none" stroke="rgb(88,0,178)" stroke-width="0.1"/>
  <path d="M 10.64411100000001,0.8844829999999888 L 11.344110999999998,0.8844829999999888" fill="none" stroke="rgb(88,0,178)" stroke-width="0.1"/>
  <path d="M 11.344110999999998,0.8844829999999888 L 11.344110999999998,1.3844829999999888" fill="none" stroke="rgb(88,0,178)" stroke-width="0.1"/>
  <path d="M 11.344110999999998,1.3844829999999888 L 10.64411100000001,1.3844829999999888" fill="none" stroke="rgb(88,0,178)" stroke-width="0.1"/>
 </g>
 <g id="layerXU-C-BF$0$A-DRAIN" inkscape:groupmode="layer" inkscape:label="XU-C-BF$0$A-DRAIN">
  <path d="M 51.994111000000004,0.0 L 51.994111000000004,3.384482999999989" fill="none" stroke="rgb(0,71,142)" stroke-width="0.1"/>
  <path d="M 51.994111000000004,3.384482999999989 L 42.994111000000004,3.384482999999989" fill="none" stroke="rgb(0,71,142)" stroke-width="0.1"/>
  <path d="M 42.994111000000004,3.384482999999989 L 42.994111000000004,0.0" fill="none" stroke="rgb(0,71,142)" stroke-width="0.1"/>
 </g>
 <g id="layerXU-C-BF$0$A-HOLE-FLOR" inkscape:groupmode="layer" inkscape:label="XU-C-BF$0$A-HOLE-FLOR">
  <path d="M 51.494111000000004,0.0 L 51.494111000000004,2.884482999999989" fill="none" stroke="rgb(142,0,35)" stroke-width="0.1"/>
  <path d="M 51.494111000000004,2.884482999999989 L 43.494111000000004,2.884482999999989" fill="none" stroke="rgb(142,0,35)" stroke-width="0.1"/>
  <path d="M 43.494111000000004,2.884482999999989 L 43.494111000000004,0.0" fill="none" stroke="rgb(142,0,35)" stroke-width="0.1"/>
 </g>
 <g id="layerXU-C-BF$0$A-SILL" inkscape:groupmode="layer" inkscape:label="XU-C-BF$0$A-SILL">
  <path d="M 25.994111000000004,2.384482999999989 L 25.994111000000004,0.0" fill="none" stroke="rgb(53,107,107)" stroke-width="0.1"/>
  <path d="M 23.994111000000004,0.0 L 23.994111000000004,2.384482999999989" fill="none" stroke="rgb(53,107,107)" stroke-width="0.1"/>
 </g>
 <g id="layerXU-C-BF$0$A-STAIR" inkscape:groupmode="layer" inkscape:label="XU-C-BF$0$A-STAIR">
  <path d="M 9.994111000000004,0.0 L 9.994111000000004,1.3844829999999888" fill="none" stroke="rgb(0,107,142)" stroke-width="0.1"/>
 </g>
 <g id="layerXU-C-BF$0$A-WALL" inkscape:groupmode="layer" inkscape:label="XU-C-BF$0$A-WALL">
  <path d="M 51.994111000000004,0.0 L 51.994111000000004,3.384482999999989" fill="none" instance-id="-1" semantic-id="1" stroke="rgb(178,178,0)" stroke-width="0.1"/>
  <path d="M 51.994111000000004,3.384482999999989 L 25.994111000000004,3.384482999999989" fill="none" instance-id="-1" semantic-id="1" stroke="rgb(178,178,0)" stroke-width="0.1"/>
  <path d="M 25.994111000000004,3.384482999999989 L 25.994111000000004,2.384482999999989" fill="none" instance-id="-1" semantic-id="1" stroke="rgb(178,178,0)" stroke-width="0.1"/>
  <path d="M 25.994111000000004,2.384482999999989 L 23.994111000000004,2.384482999999989" fill="none" instance-id="-1" semantic-id="1" stroke="rgb(178,178,0)" stroke-width="0.1"/>
  <path d="M 23.994111000000004,2.384482999999989 L 23.994111000000004,3.384482999999989" fill="none" instance-id="-1" semantic-id="1" stroke="rgb(178,178,0)" stroke-width="0.1"/>
  <path d="M 23.994111000000004,3.384482999999989 L 11.994111000000004,3.384482999999989" fill="none" instance-id="-1" semantic-id="1" stroke="rgb(178,178,0)" stroke-width="0.1"/>
  <path d="M 11.994111000000004,3.384482999999989 L 11.994111000000004,1.3844829999999888" fill="none" instance-id="-1" semantic-id="1" stroke="rgb(178,178,0)" stroke-width="0.1"/>
  <path d="M 11.994111000000004,1.3844829999999888 L 9.994111000000004,1.3844829999999888" fill="none" instance-id="-1" semantic-id="1" stroke="rgb(178,178,0)" stroke-width="0.1"/>
  <path d="M 9.994111000000004,1.3844829999999888 L 9.994111000000004,5.384482999999989" fill="none" instance-id="-1" semantic-id="1" stroke="rgb(178,178,0)" stroke-width="0.1"/>
  <path d="M 9.994111000000004,5.384482999999989 L 53.994111000000004,5.384482999999989" fill="none" instance-id="-1" semantic-id="1" stroke="rgb(178,178,0)" stroke-width="0.1"/>
  <path d="M 53.994111000000004,5.384482999999989 L 53.994111000000004,0.0" fill="none" instance-id="-1" semantic-id="1" stroke="rgb(178,178,0)" stroke-width="0.1"/>
 </g>
 <g id="layerXU-C-BF$0$A-WIND" inkscape:groupmode="layer" inkscape:label="XU-C-BF$0$A-WIND">
  <path d="M 24.64411100000001,2.384482999999989 L 24.64411100000001,0.0" fill="none" stroke="rgb(0,88,66)" stroke-width="0.1"/>
  <path d="M 25.344110999999998,2.384482999999989 L 25.344110999999998,0.0" fill="none" stroke="rgb(0,88,66)" stroke-width="0.1"/>
  <path d="M 24.64411100000001,2.384482999999989 L 24.64411100000001,1.8844829999999888" fill="none" stroke="rgb(0,88,66)" stroke-width="0.1"/>
  <path d="M 24.64411100000001,1.8844829999999888 L 25.344110999999998,1.8844829999999888" fill="none" stroke="rgb(0,88,66)" stroke-width="0.1"/>
  <path d="M 25.344110999999998,1.8844829999999888 L 25.344110999999998,2.384482999999989" fill="none" stroke="rgb(0,88,66)" stroke-width="0.1"/>
  <path d="M 25.344110999999998,2.384482999999989 L 24.64411100000001,2.384482999999989" fill="none" stroke="rgb(0,88,66)" stroke-width="0.1"/>
 </g>
 <g id="layerXU-C-BF$0$XU-C2-3-1F$0$A-TRACK" inkscape:groupmode="layer" inkscape:label="XU-C-BF$0$XU-C2-3-1F$0$A-TRACK">
  <path d="M 24.994111000000004,1.8844829999999888 L 26.83963827906976,0.0" fill="none" stroke="rgb(66,88,44)" stroke-width="0.1"/>
 </g>
 <g id="layerXU-C-BF$0$hatch" inkscape:groupmode="layer" inkscape:label="XU-C-BF$0$hatch">
  <path d="M 51.994111000000004,3.384482999999989 L 50.619014197751966,0.0" fill="none" stroke="rgb(89,89,89)" stroke-width="0.1"/>
 </g>
 <g id="layerXU-C-TEXT-BF-100$0$A-FIRE-IDEN" inkscape:groupmode="layer" inkscape:label="XU-C-TEXT-BF-100$0$A-FIRE-IDEN">
  <text fill="rgb(178,44,0)" font-family="Noto Sans CJK SC" font-size="2" transform="rotate(-90.0,15.026111000000014,3.1014829999999733)" x="15.026111000000014" y="3.1014829999999733">
   FHM1022甲
  </text>
 </g>
 <g id="layerXU-C-TEXT-BF-100$0$XU-C-TEXT-BF-100|XU-C-TEXT-BF-100|XU-C-TEXT-BF-100|XU-C-TEXT-BF-100|A-LEVEL" inkscape:groupmode="layer" inkscape:label="XU-C-TEXT-BF-100$0$XU-C-TEXT-BF-100|XU-C-TEXT-BF-100|XU-C-TEXT-BF-100|XU-C-TEXT-BF-100|A-LEVEL">
  <path d="M 46.368111,0.5084830000000125 L 48.368111,2.5084830000000125" fill="none" stroke="rgb(73,12,255)" stroke-width="0.1"/>
  <path d="M 48.368111,2.5084830000000125 L 50.368111,0.5084830000000125" fill="none" stroke="rgb(73,12,255)" stroke-width="0.1"/>
  <path d="M 50.368111,0.5084830000000125 L 34.368111,0.5084830000000125" fill="none" stroke="rgb(73,12,255)" stroke-width="0.1"/>
 </g>
 <g id="layerXU-C-TEXT-BF-100$0$XU-C-TEXT-BF-100|XU-C-TEXT-BF-100|XU-C-TEXT-BF-100|XU-C-TEXT-BF-100|A-WIND-IDEN" inkscape:groupmode="layer" inkscape:label="XU-C-TEXT-BF-100$0$XU-C-TEXT-BF-100|XU-C-TEXT-BF-100|XU-C-TEXT-BF-100|XU-C-TEXT-BF-100|A-WIND-IDEN">
  <text fill="rgb(107,0,26)" font-family="Noto Sans CJK SC" font-size="2" transform="rotate(-90.0,31.55111100000002,2.6584829999999897)" x="31.55111100000002" y="2.6584829999999897">
   LC1421(下)
  </text>
  <text fill="rgb(107,0,26)" font-family="Noto Sans CJK SC" font-size="2" transform="rotate(-90.0,28.590111000000007,2.6584829999999897)" x="28.590111000000007" y="2.6584829999999897">
   LC1414(上)
  </text>
 </g>
 <g id="layerXU-C-TEXT-BF-100$0$XU-C-TEXT-BF-100|XU-C-TEXT-BF-100|XU-C-TEXT-BF-100|XU-C-TEXT-BF-100|X-C2P-AXIS-SF-100$0$-ACO-EDIT" inkscape:groupmode="layer" inkscape:label="XU-C-TEXT-BF-100$0$XU-C-TEXT-BF-100|XU-C-TEXT-BF-100|XU-C-TEXT-BF-100|XU-C-TEXT-BF-100|X-C2P-AXIS-SF-100$0$-ACO-EDIT">
  <path d="M 37.994111000000004,62.38448299999999 L 27.994111000000004,62.38448299999999" fill="none" stroke="rgb(178,0,178)" stroke-width="0.1"/>
  <path d="M 32.994111000000004,57.38448299999999 L 32.994111000000004,67.38448299999999" fill="none" stroke="rgb(178,0,178)" stroke-width="0.1"/>
 </g>
</svg>